<?xml version="1.0" encoding="UTF-8"?>
<svg xmlns="http://www.w3.org/2000/svg" width="700" height="700">
  <g id="niger">
    <path d="M 185.2742 485.4034 184.3774 490.8733 181.3286 492.8461 179.8939 495.1775 175.5897 497.24 171.6441 497.8677 165.4568 503.0686 163.8428 505.3104 161.5113 513.9188 152.1855 522.5272 143.1287 526.4728 136.0447 523.962 134.1616 527.0108 132.7269 532.2117 127.4363 532.6601 125.7325 535.8882 122.594 536.8746 121.6973 540.5511 122.2354 542.4342 120.1729 547.7248 114.5236 547.6351 110.3091 550.684 106.3636 550.684 104.1218 552.4774 103.8528 553.6431 106.4532 560.0098 113.7166 560.9065 115.0617 562.3412 109.3227 567.1835 110.2194 582.4275 112.6405 582.6966 113.3579 581.1721 114.165 581.2618 115.1513 585.9247 119.7246 587.9872 119.1865 588.7045 116.3171 588.7942 114.6133 590.3186 113.1786 590.2289 111.4748 592.7397 107.9776 592.5604 105.1082 593.6364 103.8528 593.0087 102.9561 594.1745 102.149 593.7261 101.4317 594.5331 98.1138 595.0712 98.1138 599.4651 99.5486 603.7693 101.7903 606.1904 101.7903 606.9974 100.5349 606.9078 99.4589 608.1632 98.2932 608.3425 98.6518 610.6739 96.3204 608.6115 83.7664 589.7806 84.6632 587.8975 88.0707 586.7318 91.6575 586.9111 92.6439 586.2834 92.7336 584.3106 91.2091 581.6205 90.7608 578.3027 86.8153 573.1017 80.628 572.1154 78.8345 573.4604 77.8482 573.2811 74.62 577.406 61.9764 575.8816 42.0694 558.4854 36.2408 556.6919 36.0614 542.9723 36.6891 541.0892 44.6698 544.0483 45.9252 541.6272 48.3464 542.9723 49.6017 542.5239 48.0773 541.0892 44.5802 540.2821 38.3032 536.6953 37.3168 533.1981 33.1023 529.6113 27.722 528.5352 27.184 526.2934 19.5619 525.7554 18.9342 524.5897 20.0103 522.0789 13.2849 515.3535 13.7333 513.6498 11.7605 512.1254 11.4018 510.4216 9.9671 509.2559 10.4155 507.8212 8.7117 505.131 11.3122 499.6611 9.3394 496.7916 2.4347 490.0663 1.1793 487.7348 1 485.4034 4.3178 476.9743 2.8831 472.8494 2.9728 471.5044 4.6765 469.7109 4.4972 465.2274 4.8559 464.6894 12.2986 466.4828 18.0375 465.3171 24.9422 468.0072 29.4257 466.8415 37.5858 466.6621 52.4712 454.1978 55.1614 453.2115 129.9471 452.8528 130.4851 449.1763 131.4715 448.8176 152.5442 452.6734 153.6202 446.1274 157.5658 443.8857 161.1526 440.1195 166.3535 438.6847 169.3127 436.1739 178.9972 465.4067 178.8178 473.8358 185.2742 485.4034 Z M 89.4157 540.7305 90.7608 540.5511 91.5678 542.7929 93.2716 541.5375 94.796 537.7713 95.334 533.2878 93.5406 533.1084 92.8232 531.046 84.3941 530.5976 82.7801 531.1357 81.8834 532.3014 81.704 534.9915 83.4078 538.2197 84.7528 539.5647 89.4157 540.7305 Z" id="NE.TL" fill="#cee3f5" stroke="#6e6e6e" stroke-width="0.4">
      <desc>
        <labelrank>6</labelrank>
        <code_hasc>NE.TL</code_hasc>
        <name>Tillabéri</name>
        <admin>Niger</admin>
        <type_en>Department</type_en>
        <region/>
        <woe_id>20069995</woe_id>
        <longitude>2</longitude>
        <woe_name>Tillaberi</woe_name>
        <fips>NG09</fips>
        <woe_label>Tillaberi, NE, Niger</woe_label>
        <latitude>13</latitude>
        <iso_a2>NE</iso_a2>
        <postal>TL</postal>
        <type>Département</type>
        <id>NE.TL</id>
      </desc>
    </path>
    <path d="M 685.8183 327.9409 683.2179 379.1431 636.0509 433.4838 613.0054 467.7382 609.6876 475.7189 610.2256 481.6372 607.8045 482.2649 604.935 485.1344 606.011 487.8245 605.6524 489.5283 604.128 490.8733 597.851 492.7564 596.4162 494.8189 596.4162 497.509 604.2176 528.4455 591.7533 528.4455 588.6149 532.2117 587.2698 535.9779 583.7726 537.2333 583.5036 535.9779 582.6069 537.2333 582.6069 536.6056 580.9928 536.8746 580.7238 535.9779 579.4684 536.1572 574.3571 538.668 571.8464 538.668 571.3083 539.4751 569.9633 539.0267 571.2187 540.2821 569.4252 542.7929 567.9008 543.3309 568.4388 544.407 567.1835 543.7793 565.5694 546.2004 563.2379 547.2765 562.6102 548.6215 560.5478 547.3661 560.1891 548.7112 557.499 550.5943 556.5126 552.8361 557.23 553.1051 556.9609 554.0915 554.8088 555.5262 554.4502 557.9473 553.6431 558.844 547.0075 558.2163 545.9314 557.4093 544.4967 557.9473 544.2276 557.23 541.4478 556.2436 537.592 557.3196 534.9915 556.6919 525.6657 550.953 520.6441 548.9802 507.0141 545.6624 485.1344 546.0211 476.9743 545.1244 471.4147 545.8417 469.8006 540.3718 470.249 538.4887 477.9607 530.3286 478.7677 525.6657 496.7916 508.7179 498.2264 508.0005 501.6339 509.4353 510.332 506.6554 521.4512 499.2127 526.8314 498.9437 530.6873 495.9846 528.0868 494.8189 527.1005 492.5771 527.6385 490.3353 531.315 488.1832 528.9836 355.3803 539.3854 348.0272 572.6534 331.5277 685.8183 327.9409 Z" id="NE.DF" fill="#cee3f5" stroke="#6e6e6e" stroke-width="0.4">
      <desc>
        <labelrank>6</labelrank>
        <code_hasc>NE.DF</code_hasc>
        <name>Diffa</name>
        <admin>Niger</admin>
        <type_en>Department</type_en>
        <region/>
        <woe_id>2346325</woe_id>
        <longitude>13</longitude>
        <woe_name>Diffa</woe_name>
        <fips>NG02</fips>
        <woe_label>Diffa, NE, Niger</woe_label>
        <latitude>15</latitude>
        <iso_a2>NE</iso_a2>
        <postal>DF</postal>
        <type>Département</type>
        <id>NE.DF</id>
      </desc>
    </path>
    <path d="M 685.8183 327.9409 572.6534 331.5277 539.3854 348.0272 528.9836 355.3803 514.0982 361.1192 496.2536 373.7628 483.341 377.8877 411.4247 425.5928 395.8219 431.511 377.6187 441.6439 369.4586 444.5134 357.8911 444.6927 353.4972 446.6655 345.8751 446.7551 328.1202 443.9753 326.3268 445.8584 322.6503 455.9913 313.7729 451.149 293.7762 451.5077 291.3551 425.2341 292.1621 416.4463 284.2711 414.0252 280.1462 410.7073 269.6547 385.1511 265.7988 380.7572 256.0247 373.0455 231.8135 357.1737 225.1778 348.2066 217.0177 341.0329 215.583 335.1146 208.8577 333.8592 208.0506 331.2587 209.844 328.0306 209.4854 317.1804 215.852 304.1781 211.7271 302.9227 188.1436 302.1156 188.592 279.2495 257.1904 266.5162 331.0794 202.0427 380.7572 171.0164 427.2965 141.3353 476.2569 109.4124 521.8995 79.0139 586.5524 92.6439 591.6637 95.2443 618.834 117.4828 650.7569 98.6518 660.9794 144.4738 662.5039 167.6089 667.7048 171.5545 681.9625 191.7305 680.2587 192.8065 679.2724 194.5999 679.4517 198.8145 680.7071 200.9666 685.1906 204.4638 698.193 217.6454 699 219.3492 689.6742 239.7942 685.8183 327.9409 Z" id="NE.AG" fill="#cee3f5" stroke="#6e6e6e" stroke-width="0.4">
      <desc>
        <labelrank>6</labelrank>
        <code_hasc>NE.AG</code_hasc>
        <name>Agadez</name>
        <admin>Niger</admin>
        <type_en>Department</type_en>
        <region/>
        <woe_id>2346324</woe_id>
        <longitude>10</longitude>
        <woe_name>Agadez</woe_name>
        <fips>NG01</fips>
        <woe_label>Agadez, NE, Niger</woe_label>
        <latitude>19</latitude>
        <iso_a2>NE</iso_a2>
        <postal>AG</postal>
        <type>Département</type>
        <id>NE.AG</id>
      </desc>
    </path>
    <path d="M 322.6503 455.9913 325.5198 457.695 326.1475 459.2194 326.5062 466.5725 328.8376 471.056 330.4517 479.2161 333.6799 484.955 339.2395 488.5419 339.9568 496.0743 343.992 497.778 349.5516 493.2945 353.2282 493.2945 355.5596 496.6123 362.4643 499.8404 367.9342 503.786 369.638 507.7315 375.8253 512.2151 376.8117 518.9404 376.5427 521.8995 363.1817 528.8042 362.1953 530.508 362.7333 532.8394 366.8582 535.2605 365.7821 540.1924 366.8582 547.3661 363.63 553.4638 356.008 548.9802 343.0953 547.4558 325.1611 557.9473 322.202 558.306 316.463 557.6783 310.6344 563.1483 304.7161 563.1483 301.9363 561.5342 297.6321 556.9609 292.9692 548.1732 285.6161 540.1028 279.4288 534.0051 275.6626 532.122 275.9317 527.1901 278.4424 524.3207 277.9044 520.3751 282.8363 516.3399 286.0645 515.1742 286.4232 514.2775 286.7819 507.1038 284.3607 497.8677 287.2302 474.5532 293.7762 451.5077 313.7729 451.149 322.6503 455.9913 Z" id="NE.MA" fill="#cee3f5" stroke="#6e6e6e" stroke-width="0.4">
      <desc>
        <labelrank>7</labelrank>
        <code_hasc>NE.MA</code_hasc>
        <name>Maradi</name>
        <admin>Niger</admin>
        <type_en>Department</type_en>
        <region/>
        <woe_id>2346327</woe_id>
        <longitude>7</longitude>
        <woe_name>Maradi</woe_name>
        <fips>NG04</fips>
        <woe_label>Maradi, NE, Niger</woe_label>
        <latitude>14</latitude>
        <iso_a2>NE</iso_a2>
        <postal>MA</postal>
        <type>Département</type>
        <id>NE.MA</id>
      </desc>
    </path>
    <path d="M 471.4147 545.8417 447.7415 551.491 439.2228 556.3332 437.519 559.4717 434.2909 561.7135 426.3101 571.2187 424.0683 572.205 414.4735 571.129 409.6313 571.8464 394.9252 570.1426 383.0886 566.6454 376.453 560.1891 374.2112 559.4717 370.714 559.9201 363.63 553.4638 366.8582 547.3661 365.7821 540.1924 366.8582 535.2605 362.7333 532.8394 362.1953 530.508 363.1817 528.8042 376.5427 521.8995 376.8117 518.9404 375.8253 512.2151 369.638 507.7315 367.9342 503.786 362.4643 499.8404 355.5596 496.6123 353.2282 493.2945 349.5516 493.2945 343.992 497.778 339.9568 496.0743 339.2395 488.5419 333.6799 484.955 330.4517 479.2161 328.8376 471.056 326.5062 466.5725 326.1475 459.2194 325.5198 457.695 322.6503 455.9913 326.3268 445.8584 328.1202 443.9753 345.8751 446.7551 353.4972 446.6655 357.8911 444.6927 369.4586 444.5134 377.6187 441.6439 395.8219 431.511 411.4247 425.5928 483.341 377.8877 496.2536 373.7628 514.0982 361.1192 528.9836 355.3803 531.315 488.1832 527.6385 490.3353 527.1005 492.5771 528.0868 494.8189 530.6873 495.9846 526.8314 498.9437 521.4512 499.2127 510.332 506.6554 501.6339 509.4353 498.2264 508.0005 496.7916 508.7179 478.7677 525.6657 477.9607 530.3286 470.249 538.4887 469.8006 540.3718 471.4147 545.8417 Z" id="NE.ZI" fill="#cee3f5" stroke="#6e6e6e" stroke-width="0.4">
      <desc>
        <labelrank>6</labelrank>
        <code_hasc>NE.ZI</code_hasc>
        <name>Zinder</name>
        <admin>Niger</admin>
        <type_en>Department</type_en>
        <region/>
        <woe_id>2346330</woe_id>
        <longitude>9</longitude>
        <woe_name>Zinder</woe_name>
        <fips>NG07</fips>
        <woe_label>Zinder, NE, Niger</woe_label>
        <latitude>14</latitude>
        <iso_a2>NE</iso_a2>
        <postal>ZI</postal>
        <type>Département</type>
        <id>NE.ZI</id>
      </desc>
    </path>
    <path d="M 201.2356 528.6249 193.4342 530.777 184.1084 538.8474 178.5488 539.7441 178.2798 550.7736 176.4864 561.6238 169.1334 572.8327 156.131 582.7862 156.131 594.7125 154.786 602.6932 156.0414 607.7148 153.7099 611.3913 154.0686 614.4401 156.4001 618.1166 155.5033 619.6411 153.1719 620.9861 148.6883 614.4401 143.5771 611.6603 141.7837 612.1984 140.6179 611.6603 138.6452 608.7909 137.8381 605.6524 129.4987 597.6716 127.0776 593.8158 124.2081 593.0087 122.7734 590.4979 119.7246 587.9872 115.1513 585.9247 114.165 581.2618 113.3579 581.1721 112.6405 582.6966 110.2194 582.4275 109.3227 567.1835 115.0617 562.3412 113.7166 560.9065 106.4532 560.0098 103.8528 553.6431 104.1218 552.4774 106.3636 550.684 110.3091 550.684 114.5236 547.6351 120.1729 547.7248 122.2354 542.4342 121.6973 540.5511 122.594 536.8746 125.7325 535.8882 127.4363 532.6601 132.7269 532.2117 134.1616 527.0108 136.0447 523.962 143.1287 526.4728 152.1855 522.5272 161.5113 513.9188 163.8428 505.3104 165.4568 503.0686 171.6441 497.8677 175.5897 497.24 179.8939 495.1775 181.3286 492.8461 184.3774 490.8733 185.2742 485.4034 189.2197 488.5419 192.5375 495.5362 194.4206 512.9324 198.7248 520.5545 201.2356 528.6249 Z" id="NE.DS" fill="#cee3f5" stroke="#6e6e6e" stroke-width="0.4">
      <desc>
        <labelrank>7</labelrank>
        <code_hasc>NE.DS</code_hasc>
        <name>Dosso</name>
        <admin>Niger</admin>
        <type_en>Department</type_en>
        <region/>
        <woe_id>2346326</woe_id>
        <longitude>3</longitude>
        <woe_name>Dosso</woe_name>
        <fips>NG03</fips>
        <woe_label>Dosso, NE, Niger</woe_label>
        <latitude>12</latitude>
        <iso_a2>NE</iso_a2>
        <postal>DS</postal>
        <type>Département</type>
        <id>NE.DS</id>
      </desc>
    </path>
    <path d="M 89.4157 540.7305 84.7528 539.5647 83.4078 538.2197 81.704 534.9915 81.8834 532.3014 82.7801 531.1357 84.3941 530.5976 92.8232 531.046 93.5406 533.1084 95.334 533.2878 94.796 537.7713 93.2716 541.5375 91.5678 542.7929 90.7608 540.5511 89.4157 540.7305 Z" id="NE.NI" fill="#cee3f5" stroke="#6e6e6e" stroke-width="0.4">
      <desc>
        <labelrank>6</labelrank>
        <code_hasc>NE.NI</code_hasc>
        <name>Niamey</name>
        <admin>Niger</admin>
        <type_en>Capital District</type_en>
        <region/>
        <woe_id>20069994</woe_id>
        <longitude>2</longitude>
        <woe_name>Niamey</woe_name>
        <fips>NG09</fips>
        <woe_label>Niamey, NE, Niger</woe_label>
        <latitude>13</latitude>
        <iso_a2>NE</iso_a2>
        <postal>NI</postal>
        <type>Communauté Urbaine</type>
        <id>NE.NI</id>
      </desc>
    </path>
    <path d="M 293.7762 451.5077 287.2302 474.5532 284.3607 497.8677 286.7819 507.1038 286.4232 514.2775 286.0645 515.1742 282.8363 516.3399 277.9044 520.3751 278.4424 524.3207 275.9317 527.1901 275.6626 532.122 273.1518 531.584 269.2063 533.2878 241.4979 521.9892 234.8623 523.0653 233.6069 523.693 231.7238 526.7418 228.2266 528.1765 214.6863 528.3559 211.6375 526.4728 201.2356 528.6249 198.7248 520.5545 194.4206 512.9324 192.5375 495.5362 189.2197 488.5419 185.2742 485.4034 178.8178 473.8358 178.9972 465.4067 169.3127 436.1739 171.1061 427.7449 174.4239 424.158 173.9756 419.4951 178.1901 409.8106 179.7145 407.9275 183.3911 405.5961 183.7497 404.52 184.1084 386.4065 185.0051 384.6131 184.9155 379.3225 186.6192 377.8877 188.1436 302.1156 211.7271 302.9227 215.852 304.1781 209.4854 317.1804 209.844 328.0306 208.0506 331.2587 208.8577 333.8592 215.583 335.1146 217.0177 341.0329 225.1778 348.2066 231.8135 357.1737 256.0247 373.0455 265.7988 380.7572 269.6547 385.1511 280.1462 410.7073 284.2711 414.0252 292.1621 416.4463 291.3551 425.2341 293.7762 451.5077 Z" id="NE.TH" fill="#cee3f5" stroke="#6e6e6e" stroke-width="0.4">
      <desc>
        <labelrank>6</labelrank>
        <code_hasc>NE.TH</code_hasc>
        <name>Tahoua</name>
        <admin>Niger</admin>
        <type_en>Department</type_en>
        <region/>
        <woe_id>2346329</woe_id>
        <longitude>5</longitude>
        <woe_name>Tahoua</woe_name>
        <fips>NG06</fips>
        <woe_label>Tahoua, NE, Niger</woe_label>
        <latitude>15</latitude>
        <iso_a2>NE</iso_a2>
        <postal>TH</postal>
        <type>Département</type>
        <id>NE.TH</id>
      </desc>
    </path>
  </g>
</svg>