<?xml version="1.0" encoding="UTF-8"?>
<svg xmlns="http://www.w3.org/2000/svg" width="700" height="700">
  <g id="cameroon">
    <path d="M 463.5229 190.4845 463.3631 185.6895 444.023 176.1793 432.355 175.6199 431.6358 181.8534 424.683 184.4907 417.5703 185.21 414.8531 181.9334 423.8838 151.0852 446.1808 115.362 450.816 111.2063 461.8446 113.6038 489.0965 95.3027 484.6211 84.8335 492.2932 56.223 481.3445 46.3932 463.443 44.3952 456.1705 1.1598 477.3486 1 485.5002 20.1802 501.3239 28.0921 506.039 57.7415 515.1496 61.8972 517.0677 68.85 516.1886 86.5917 520.3443 95.7822 513.4714 117.0403 520.584 157.3987 541.0429 181.1342 553.4302 189.7653 538.8052 193.4415 521.623 190.085 498.4469 194.0808 463.5229 190.4845 Z" id="CM.EN" fill="#cee3f5" stroke="#6e6e6e" stroke-width="0.4">
      <desc>
        <labelrank>5</labelrank>
        <code_hasc>CM.EN</code_hasc>
        <name>Extrême-Nord</name>
        <admin>Cameroon</admin>
        <type_en>Province</type_en>
        <region/>
        <woe_id>2345040</woe_id>
        <longitude>14</longitude>
        <woe_name>Extrême-Nord</woe_name>
        <fips>CM12</fips>
        <woe_label>Extreme-Nord, CM, Cameroon</woe_label>
        <latitude>10</latitude>
        <iso_a2>CM</iso_a2>
        <postal>EN</postal>
        <type>Province</type>
        <id>CM.EN</id>
      </desc>
    </path>
    <path d="M 163.912 559.384 165.9898 557.5459 167.8279 556.5869 168.7869 554.1894 171.2644 550.1935 171.4242 549.9537 173.4221 551.2324 175.4201 556.507 169.5062 554.1095 172.8627 559.7836 168.8668 560.6627 164.6312 559.7836 163.912 559.384 Z M 198.2765 477.4685 201.3933 476.3497 204.6699 478.6673 212.9014 498.0872 221.6124 488.8168 228.5653 488.2574 236.4771 499.3659 235.2783 502.0831 233.9997 503.6016 228.2456 508.1569 228.2456 511.8331 235.3583 508.956 235.9976 509.915 236.2373 510.7142 236.3173 511.5134 236.2373 512.3126 235.9976 513.2716 235.7578 513.9109 230.2435 521.1834 229.764 522.3023 229.5243 523.2613 229.6042 523.8207 229.6042 524.2203 230.0038 524.7797 233.2804 524.9395 241.5918 528.5358 248.7844 523.1014 251.102 525.4191 252.9401 523.6609 254.6184 517.9867 255.2577 517.4273 256.6962 517.0277 258.7741 517.5072 261.6511 516.8679 263.9687 529.8145 267.0056 534.8493 273.3191 540.6034 274.1982 541.8022 272.6798 543.1608 270.8417 544.4394 264.9278 546.9169 249.5037 551.4722 245.348 559.3041 245.268 566.9762 244.1492 569.6135 243.6697 570.2528 242.9504 570.7323 242.3111 570.9721 241.6717 570.7323 233.68 564.8184 230.2435 566.4168 228.0858 569.2139 227.4464 572.8102 225.8481 577.2056 225.5284 580.1626 225.2886 580.4023 224.3296 581.1216 222.8112 582.4802 222.4915 582.64 222.0919 582.7999 221.9321 582.8798 221.6124 582.8798 216.7375 579.2036 212.9014 580.722 206.4281 595.1072 203.5511 597.2649 201.9527 598.9432 200.5142 599.6625 198.9158 599.4227 197.9568 598.6235 191.4036 589.3531 182.9323 582.9597 193.881 577.6052 181.9733 579.2835 177.0984 565.7774 181.8934 570.0131 181.7336 562.4209 189.3257 565.8573 185.17 560.343 190.6044 557.3861 181.6537 557.1463 190.045 546.4374 177.9774 553.63 174.3012 549.9537 174.6209 548.5152 174.541 548.3554 175.8996 547.5562 177.0184 545.7181 177.8176 544.9989 178.2172 544.5193 178.1373 543.88 177.6578 542.5214 176.2992 541.2427 171.9836 540.4436 170.7049 539.7243 170.8648 538.1259 171.1845 536.3678 175.5 529.6547 175.8996 520.5441 179.416 515.3494 182.1332 515.5093 182.6926 515.2695 183.1721 514.79 183.5717 512.7122 187.0081 508.956 187.6475 507.5175 187.6475 505.9192 187.7274 505.1999 188.0471 504.2409 188.6864 503.2819 192.8421 498.8065 193.0019 498.1672 191.6433 496.6487 191.1638 495.8496 191.4036 494.9705 191.8831 493.452 192.6823 491.6139 193.8011 490.3352 195.879 489.9357 196.5183 489.2164 196.3585 488.0975 195.2396 485.4603 192.0429 481.1447 191.0839 478.6673 190.6044 476.3497 190.6044 475.7103 190.8442 475.2308 193.4815 474.5915 195.6392 472.0341 197.7171 471.5546 197.3175 476.1099 198.2765 477.4685 Z" id="CM.LT" fill="#cee3f5" stroke="#6e6e6e" stroke-width="0.4">
      <desc>
        <labelrank>5</labelrank>
        <code_hasc>CM.LT</code_hasc>
        <name>Littoral</name>
        <admin>Cameroon</admin>
        <type_en>Province</type_en>
        <region/>
        <woe_id>2345034</woe_id>
        <longitude>10</longitude>
        <woe_name>Littoral</woe_name>
        <fips>CM05</fips>
        <woe_label>Littoral, CM, Cameroon</woe_label>
        <latitude>4</latitude>
        <iso_a2>CM</iso_a2>
        <postal>LT</postal>
        <type>Province</type>
        <id>CM.LT</id>
      </desc>
    </path>
    <path d="M 279.9523 406.1021 278.9932 415.0529 268.2044 417.7701 267.2454 426.0016 262.6101 429.6778 248.6246 431.1163 242.391 442.3847 225.8481 444.4626 223.6104 449.3375 216.7375 445.6613 211.7826 448.9379 200.9937 448.5384 181.9733 437.3499 181.2541 430.5569 193.6413 422.2455 187.5676 399.3091 193.5614 383.4055 198.8359 383.885 215.4588 370.5388 219.5346 378.4507 236.9566 378.9302 242.1512 363.2663 244.7086 368.6208 257.5753 374.7744 262.2106 384.6842 269.9626 387.4014 273.5589 405.303 279.9523 406.1021 Z" id="CM.NW" fill="#cee3f5" stroke="#6e6e6e" stroke-width="0.4">
      <desc>
        <labelrank>5</labelrank>
        <code_hasc>CM.NW</code_hasc>
        <name>Nord-Ouest</name>
        <admin>Cameroon</admin>
        <type_en>Province</type_en>
        <region/>
        <woe_id>2345035</woe_id>
        <longitude>10</longitude>
        <woe_name>Nord-Ouest</woe_name>
        <fips>CM07</fips>
        <woe_label>Nord-Ouest, CM, Cameroon</woe_label>
        <latitude>6</latitude>
        <iso_a2>CM</iso_a2>
        <postal>NW</postal>
        <type>Province</type>
        <id>CM.NW</id>
      </desc>
    </path>
    <path d="M 382.7262 433.354 382.4865 439.9073 394.0745 461.485 387.6811 474.9911 378.9701 476.1898 390.6381 487.698 392.636 495.9295 401.1073 499.286 404.2241 505.9991 402.4659 519.7449 382.8062 523.2613 377.2918 534.21 376.7324 552.1914 358.9907 563.5397 365.6239 570.8122 362.9866 582.5601 357.3924 576.0069 344.5256 587.4351 340.4499 597.2649 335.7347 597.9842 321.8291 588.3142 308.4828 604.3776 279.7924 608.2136 268.7638 590.9515 257.0958 590.8715 252.9401 586.8757 223.1309 594.5477 220.2538 582.2404 221.1329 582.7999 221.4526 582.8798 221.6124 582.8798 221.9321 582.8798 222.0919 582.7999 222.4915 582.64 222.8112 582.4802 224.3296 581.1216 225.1288 580.6421 225.2886 580.4023 225.5284 580.1626 230.2435 566.4168 233.68 564.8184 241.6717 570.7323 242.3111 570.9721 242.9504 570.7323 243.6697 570.2528 244.1492 569.6135 244.6287 568.8143 245.268 566.9762 245.348 559.3041 249.5037 551.4722 264.9278 546.9169 270.8417 544.4394 272.6798 543.1608 274.1982 541.8022 273.5589 541.003 273.3191 540.6034 267.0056 534.8493 263.9687 529.8145 261.6511 516.8679 258.7741 517.5072 256.6962 517.0277 255.2577 517.4273 252.9401 523.6609 251.102 525.4191 248.7844 523.1014 241.5918 528.5358 233.2804 524.9395 230.5632 525.0195 230.0038 524.7797 229.764 524.46 229.6042 524.2203 229.6042 523.8207 229.5243 523.2613 229.764 522.3023 230.2435 521.1834 235.7578 513.9109 235.9976 513.2716 236.2373 512.3126 236.3173 511.5134 236.2373 510.7142 235.9976 509.915 235.3583 508.956 228.2456 511.8331 228.2456 508.1569 233.9997 503.6016 235.2783 502.0831 236.4771 499.3659 242.8705 500.0053 254.5385 492.8926 263.6491 495.8496 267.2454 485.1406 272.1203 482.1037 272.1203 474.9112 278.7535 468.3579 280.192 452.2146 286.5854 445.7412 285.3067 433.2741 305.2062 428.7188 327.1835 417.2906 334.536 422.725 347.8023 421.2865 360.669 433.1143 382.7262 433.354 Z" id="CM.CE" fill="#cee3f5" stroke="#6e6e6e" stroke-width="0.4">
      <desc>
        <labelrank>5</labelrank>
        <code_hasc>CM.CE</code_hasc>
        <name>Centre</name>
        <admin>Cameroon</admin>
        <type_en>Province</type_en>
        <region/>
        <woe_id>2345039</woe_id>
        <longitude>11</longitude>
        <woe_name>Centre</woe_name>
        <fips>CM11</fips>
        <woe_label>Centre, CM, Cameroon</woe_label>
        <latitude>4</latitude>
        <iso_a2>CM</iso_a2>
        <postal>CE</postal>
        <type>Province</type>
        <id>CM.CE</id>
      </desc>
    </path>
    <path d="M 477.5085 428.7987 474.7114 431.1962 479.5064 438.4687 486.7789 438.3089 488.7768 441.9052 488.7768 464.442 482.783 476.989 491.3342 484.6611 494.8506 517.8269 511.7931 530.5338 517.7869 548.3554 523.8607 551.9517 513.791 554.1894 517.3873 562.7406 560.4629 610.2915 568.2948 610.8509 579.2435 625.1562 579.1636 646.7339 586.4361 664.3158 580.0427 666.074 577.6452 679.1804 583.3992 694.125 577.9649 699 574.5284 691.8873 555.6678 682.0575 541.8421 679.4202 532.8913 682.7767 525.2992 675.5042 516.8279 679.1804 505.5595 677.5821 503.4018 670.869 497.7276 673.9858 485.2605 665.1949 477.3486 669.91 429.9575 668.3117 427.4801 622.5189 415.892 629.8713 376.8923 621.3201 373.1361 605.2567 362.0276 590.9515 362.9866 582.5601 365.6239 570.8122 358.9907 563.5397 376.7324 552.1914 377.2918 534.21 382.8062 523.2613 402.4659 519.7449 404.2241 505.9991 401.1073 499.286 392.636 495.9295 390.6381 487.698 378.9701 476.1898 387.6811 474.9911 394.0745 461.485 382.4865 439.9073 382.7262 433.354 436.4308 433.354 474.4716 426.561 477.5085 428.7987 Z" id="CM.ES" fill="#cee3f5" stroke="#6e6e6e" stroke-width="0.4">
      <desc>
        <labelrank>5</labelrank>
        <code_hasc>CM.ES</code_hasc>
        <name>Est</name>
        <admin>Cameroon</admin>
        <type_en>Province</type_en>
        <region/>
        <woe_id>2345033</woe_id>
        <longitude>14</longitude>
        <woe_name>Est</woe_name>
        <fips>CM04</fips>
        <woe_label/>
        <latitude>3</latitude>
        <iso_a2>CM</iso_a2>
        <postal>ES</postal>
        <type>Province</type>
        <id>CM.ES</id>
      </desc>
    </path>
    <path d="M 527.2172 356.2336 498.287 414.1738 477.5085 428.7987 474.4716 426.561 436.4308 433.354 382.7262 433.354 360.669 433.1143 347.8023 421.2865 334.536 422.725 327.1835 417.2906 305.2062 428.7188 285.3067 433.2741 285.6264 417.3705 278.9932 415.0529 279.9523 406.1021 291.4604 403.9444 302.1693 389.3994 302.1693 379.4097 321.2696 367.1024 313.0381 355.7541 330.5401 336.7337 330.4602 328.0227 341.1691 313.3178 343.8064 299.4122 358.5911 314.1969 366.9825 316.115 368.6608 326.0247 375.3738 329.7009 397.9106 335.9345 405.6626 335.2153 408.2999 329.0616 422.2854 336.414 442.6644 331.2194 445.3816 335.8546 457.5291 337.4529 470.7954 353.5164 472.2339 361.9876 481.2646 362.4671 491.2543 370.8585 527.2172 356.2336 Z" id="CM.AD" fill="#cee3f5" stroke="#6e6e6e" stroke-width="0.4">
      <desc>
        <labelrank>5</labelrank>
        <code_hasc>CM.AD</code_hasc>
        <name>Adamaoua</name>
        <admin>Cameroon</admin>
        <type_en>Province</type_en>
        <region/>
        <woe_id>2345038</woe_id>
        <longitude>13</longitude>
        <woe_name>Adamaoua</woe_name>
        <fips>CM10</fips>
        <woe_label>Adamaoua, CM, Cameroon</woe_label>
        <latitude>6</latitude>
        <iso_a2>CM</iso_a2>
        <postal>AD</postal>
        <type>Province</type>
        <id>CM.AD</id>
      </desc>
    </path>
    <path d="M 463.5229 190.4845 448.4185 211.343 472.7134 240.0334 515.3894 272.1603 523.3812 282.2299 539.045 321.2297 546.4773 324.1067 538.5655 348.7213 527.2172 356.2336 491.2543 370.8585 481.2646 362.4671 472.2339 361.9876 470.7954 353.5164 457.5291 337.4529 445.3816 335.8546 442.6644 331.2194 422.2854 336.414 408.2999 329.0616 405.6626 335.2153 397.9106 335.9345 375.3738 329.7009 368.6608 326.0247 366.9825 316.115 358.5911 314.1969 343.8064 299.4122 343.4068 287.2647 354.2756 280.6316 352.1977 273.6787 363.7059 273.9984 378.1709 262.8899 384.6443 233.9597 382.0869 226.927 402.7856 216.9373 406.9413 201.1136 405.0232 186.2489 414.8531 181.9334 417.5703 185.21 424.683 184.4907 431.6358 181.8534 432.355 175.6199 444.023 176.1793 463.3631 185.6895 463.5229 190.4845 Z" id="CM.NO" fill="#cee3f5" stroke="#6e6e6e" stroke-width="0.4">
      <desc>
        <labelrank>5</labelrank>
        <code_hasc>CM.NO</code_hasc>
        <name>Nord</name>
        <admin>Cameroon</admin>
        <type_en>Province</type_en>
        <region/>
        <woe_id>2345041</woe_id>
        <longitude>13</longitude>
        <woe_name>Nord</woe_name>
        <fips>CM13</fips>
        <woe_label>Nord, CM, Cameroon</woe_label>
        <latitude>8</latitude>
        <iso_a2>CM</iso_a2>
        <postal>NO</postal>
        <type>Province</type>
        <id>CM.NO</id>
      </desc>
    </path>
    <path d="M 285.3067 433.2741 286.5854 445.7412 280.192 452.2146 278.7535 468.3579 272.1203 474.9112 272.1203 482.1037 267.2454 485.1406 263.6491 495.8496 254.5385 492.8926 242.8705 500.0053 236.4771 499.3659 235.2783 498.8864 232.1616 496.4889 228.5653 488.2574 221.6124 488.8168 212.9014 498.0872 204.6699 478.6673 201.3933 476.3497 198.9158 477.5484 198.2765 477.4685 197.3175 476.1099 197.7171 471.5546 200.1146 469.8763 203.8707 458.7678 211.7826 448.9379 216.7375 445.6613 223.6104 449.3375 225.8481 444.4626 242.391 442.3847 248.6246 431.1163 262.6101 429.6778 267.2454 426.0016 268.2044 417.7701 278.9932 415.0529 285.6264 417.3705 285.3067 433.2741 Z" id="CM.OU" fill="#cee3f5" stroke="#6e6e6e" stroke-width="0.4">
      <desc>
        <labelrank>5</labelrank>
        <code_hasc>CM.OU</code_hasc>
        <name>Ouest</name>
        <admin>Cameroon</admin>
        <type_en>Province</type_en>
        <region/>
        <woe_id>2345036</woe_id>
        <longitude>10</longitude>
        <woe_name>Ouest</woe_name>
        <fips>CM08</fips>
        <woe_label>Ouest, CM, Cameroon</woe_label>
        <latitude>5</latitude>
        <iso_a2>CM</iso_a2>
        <postal>OU</postal>
        <type>Province</type>
        <id>CM.OU</id>
      </desc>
    </path>
    <path d="M 211.7826 448.9379 203.8707 458.7678 200.1146 469.8763 197.7171 471.5546 195.6392 472.0341 193.4815 474.5915 190.8442 475.2308 190.6044 475.7103 190.6044 476.3497 191.0839 478.6673 192.0429 481.1447 195.2396 485.4603 196.3585 488.0975 196.5183 489.2164 195.879 489.9357 193.8011 490.3352 191.8831 493.452 191.4036 494.9705 191.1638 495.8496 191.6433 496.6487 193.0019 498.1672 192.8421 498.8065 190.6843 501.5237 188.6864 503.2819 188.0471 504.2409 187.7274 505.1999 187.6475 505.9192 187.6475 507.5175 187.0081 508.956 183.5717 512.7122 183.1721 514.79 182.6926 515.2695 182.1332 515.5093 179.416 515.3494 175.8996 520.5441 175.5 529.6547 171.1845 536.3678 170.8648 538.1259 170.7049 539.7243 171.9836 540.4436 176.2992 541.2427 177.6578 542.5214 178.1373 543.88 178.2172 544.5193 177.8176 544.9989 177.0184 545.7181 175.8996 547.5562 175.4201 548.0357 174.9406 548.2755 174.541 548.3554 173.7418 547.5562 173.0226 547.796 171.2644 549.714 171.4242 549.9537 168.7869 554.1894 167.8279 556.5869 165.9898 557.5459 163.912 559.384 163.5923 552.591 156.4796 556.7467 141.7748 548.2755 143.0535 541.0829 137.2195 526.1383 139.7768 520.4642 137.6191 522.3822 134.4224 515.1097 135.6211 520.9437 131.3855 517.4273 130.7462 521.1035 122.5946 508.956 126.6704 522.7818 113.5639 521.8228 119.3979 500.0852 131.7052 483.1427 138.4183 456.4502 133.3035 449.7371 134.9818 441.9052 143.4531 437.9892 165.83 412.5755 187.5676 399.3091 193.6413 422.2455 181.2541 430.5569 181.9733 437.3499 200.9937 448.5384 211.7826 448.9379 Z" id="CM.SW" fill="#cee3f5" stroke="#6e6e6e" stroke-width="0.4">
      <desc>
        <labelrank>5</labelrank>
        <code_hasc>CM.SW</code_hasc>
        <name>Sud-Ouest</name>
        <admin>Cameroon</admin>
        <type_en>Province</type_en>
        <region/>
        <woe_id>2345037</woe_id>
        <longitude>9</longitude>
        <woe_name>Sud-Ouest</woe_name>
        <fips>CM09</fips>
        <woe_label>Sud-Ouest, CM, Cameroon</woe_label>
        <latitude>5</latitude>
        <iso_a2>CM</iso_a2>
        <postal>SW</postal>
        <type>Province</type>
        <id>CM.SW</id>
      </desc>
    </path>
    <path d="M 362.9866 582.5601 362.0276 590.9515 373.1361 605.2567 376.8923 621.3201 415.892 629.8713 427.4801 622.5189 429.9575 668.3117 407.4208 668.0719 406.7814 663.117 399.3491 660.5597 373.9353 663.3568 347.5625 658.6416 313.5176 660.6396 306.7246 658.0023 287.8641 659.281 286.026 667.5125 202.7519 667.1129 193.7212 662.158 192.2827 656.4839 202.1125 613.0886 198.8359 600.3018 199.7949 600.2219 201.5531 599.183 201.9527 598.9432 202.3523 598.5436 203.5511 597.2649 206.4281 595.1072 212.9014 580.722 220.2538 582.2404 223.1309 594.5477 252.9401 586.8757 257.0958 590.8715 268.7638 590.9515 279.7924 608.2136 308.4828 604.3776 321.8291 588.3142 335.7347 597.9842 340.4499 597.2649 344.5256 587.4351 357.3924 576.0069 362.9866 582.5601 Z" id="CM.SU" fill="#cee3f5" stroke="#6e6e6e" stroke-width="0.4">
      <desc>
        <labelrank>5</labelrank>
        <code_hasc>CM.SU</code_hasc>
        <name>Sud</name>
        <admin>Cameroon</admin>
        <type_en>Province</type_en>
        <region/>
        <woe_id>2345042</woe_id>
        <longitude>11</longitude>
        <woe_name>Sud</woe_name>
        <fips>CM14</fips>
        <woe_label>Sud, CM, Cameroon</woe_label>
        <latitude>2</latitude>
        <iso_a2>CM</iso_a2>
        <postal>SU</postal>
        <type>Province</type>
        <id>CM.SU</id>
      </desc>
    </path>
  </g>
</svg>