<?xml version="1.0" encoding="UTF-8"?>
<svg xmlns="http://www.w3.org/2000/svg" width="700" height="700">
  <g id="mozambique">
    <path d="M 338.5377 282.9373 339.5642 308.2569 330.6681 301.7559 321.0877 276.4363 310.1387 269.9353 286.1877 261.0392 277.2917 251.1167 267.027 252.1431 257.4466 265.4873 253.6828 276.7784 248.5505 280.5422 244.4446 293.202 236.9172 274.0412 242.7338 263.0922 233.1534 264.4608 230.4162 259.6706 214.677 253.5118 198.9377 252.4853 190.726 243.5892 178.0662 241.1941 171.9074 235.3775 166.0907 234.0088 160.9583 237.0882 155.1417 234.351 136.323 234.6931 135.6387 212.4529 134.2701 206.2941 130.1642 201.8461 128.1113 190.8971 153.0887 181.6588 177.724 175.5 252.6564 148.8118 271.1328 174.1314 274.2123 169.3412 277.6338 171.052 282.424 168.999 287.8985 169.6833 300.2162 164.8931 307.4015 174.4735 310.1387 190.5549 309.4544 202.8725 302.6113 211.7686 302.2691 218.9539 295.7681 225.1127 295.0838 229.2186 302.2691 236.7461 303.2956 245.9843 307.0593 247.0108 322.7985 266.1716 331.6946 270.2775 331.6946 274.3833 327.9309 278.8314 329.2995 281.9108 338.5377 282.9373 Z" id="MZ.TE" fill="#cee3f5" stroke="#6e6e6e" stroke-width="0.4">
      <desc>
        <labelrank>6</labelrank>
        <code_hasc>MZ.TE</code_hasc>
        <name>Tete</name>
        <admin>Mozambique</admin>
        <type_en>Province</type_en>
        <region/>
        <woe_id>2346318</woe_id>
        <longitude>32</longitude>
        <woe_name>Tete</woe_name>
        <fips>MZ08</fips>
        <woe_label>Tete, MZ, Mozambique</woe_label>
        <latitude>-15</latitude>
        <iso_a2>MZ</iso_a2>
        <postal>TE</postal>
        <type>Provincia</type>
        <id>MZ.TE</id>
      </desc>
    </path>
    <path d="M 310.1387 269.9353 305.0064 276.4363 297.4789 279.5157 294.3995 285.3324 290.6358 303.1245 291.3201 314.0735 296.7946 317.8373 295.0838 328.4441 289.6093 331.1814 282.7662 325.7069 277.6338 332.2078 279.6868 340.7618 273.1858 348.9735 286.1877 359.2382 281.7397 375.6618 281.7397 387.2951 278.6603 388.6637 279.6868 395.849 284.8191 398.5863 274.5544 405.7716 270.7907 402.6922 260.526 408.851 264.6319 417.4049 263.9475 423.2216 273.8701 433.8284 279.6868 436.5657 280.3711 446.8304 289.2672 451.2784 286.5299 455.0422 286.5299 456.7529 285.1613 458.1216 285.1613 458.8059 284.8191 461.5431 282.7662 461.8853 282.0819 462.2275 281.3975 463.2539 280.3711 464.6225 280.0289 465.649 279.6868 465.9912 279.3446 465.9912 279.0025 466.3333 278.6603 466.3333 276.9495 465.3069 276.2652 465.3069 273.8701 465.649 267.027 465.3069 265.3162 465.3069 263.9475 465.9912 260.1838 468.7284 256.4201 470.0971 255.3936 469.7549 249.577 470.4392 246.8397 473.8608 241.3652 469.4127 236.575 469.0706 221.8623 461.5431 217.4142 454.0157 223.573 445.4618 223.2309 431.0912 230.7583 428.0118 238.2858 417.0627 239.3123 409.8775 244.4446 406.798 245.4711 396.1912 241.7074 390.3745 236.9172 391.401 237.2593 383.8735 234.5221 382.5049 238.2858 366.0814 236.575 363.6863 231.7848 363.3441 231.1005 360.6069 231.4426 355.4745 239.9966 352.7373 238.9701 342.4725 244.1025 339.7353 245.8132 334.6029 242.3917 330.4971 241.023 318.5216 245.1289 303.4667 241.3652 297.9922 244.4446 293.202 248.5505 280.5422 253.6828 276.7784 257.4466 265.4873 267.027 252.1431 277.2917 251.1167 286.1877 261.0392 310.1387 269.9353 Z" id="MZ.MN" fill="#cee3f5" stroke="#6e6e6e" stroke-width="0.4">
      <desc>
        <labelrank>4</labelrank>
        <code_hasc>MZ.MN</code_hasc>
        <name>Manica</name>
        <admin>Mozambique</admin>
        <type_en>Province</type_en>
        <region/>
        <woe_id>2346320</woe_id>
        <longitude>33</longitude>
        <woe_name>Manica</woe_name>
        <fips>MZ10</fips>
        <woe_label>Manica, MZ, Mozambique</woe_label>
        <latitude>-20</latitude>
        <iso_a2>MZ</iso_a2>
        <postal>MN</postal>
        <type>Provincia</type>
        <id>MZ.MN</id>
      </desc>
    </path>
    <path d="M 470.9525 156.3392 462.3985 142.9951 458.6348 128.2824 456.2397 127.2559 463.0828 112.5431 459.6613 113.5696 453.1603 110.4902 456.5819 95.4353 455.8975 85.8549 462.0564 80.0382 463.7672 73.8794 469.2417 70.1157 473.3475 62.2461 472.6632 49.5863 476.427 39.6637 493.877 29.399 508.2475 30.0833 519.5387 22.2137 531.8564 20.1608 560.2554 1 564.0191 1.6843 562.9926 5.1059 569.1515 10.2382 561.9662 13.3176 567.7828 17.0814 562.3083 21.8716 562.6505 25.2931 565.0456 24.2667 562.3083 31.7941 555.4652 37.2686 560.5975 40.348 558.5446 51.6392 562.3083 59.851 560.5975 62.2461 562.6505 66.6941 561.9662 75.9324 558.8868 78.3275 561.2819 80.0382 561.2819 83.4598 563.3348 83.802 559.5711 88.5922 563.3348 89.9608 563.3348 93.3824 565.3877 94.751 563.3348 95.0931 563.677 97.4882 566.4142 99.5412 561.624 101.9363 561.2819 106.0422 559.5711 105.0157 556.1495 107.4108 559.2289 111.1745 559.9132 107.7529 564.0191 109.1216 560.5975 123.15 562.3083 122.4657 563.3348 125.8873 560.9397 131.3618 559.5711 132.7304 558.2025 132.3882 557.5181 132.0461 556.8338 131.0196 556.8338 129.9931 556.1495 129.651 554.0966 129.651 552.3858 129.9931 548.9642 130.6775 547.2534 130.6775 545.5426 129.651 544.174 129.3088 543.8319 128.9667 543.1475 129.3088 542.1211 130.3353 541.7789 130.6775 539.726 131.3618 539.0417 131.7039 538.3574 132.7304 538.0152 133.0725 536.6466 133.7569 535.6201 134.7833 531.5142 138.5471 528.0926 137.8627 524.6711 139.9157 520.9074 140.6 519.8809 141.2843 518.1701 141.6265 517.4858 141.9686 504.1417 149.8382 501.7466 148.8118 499.6936 149.1539 499.0093 149.4961 497.9828 149.8382 497.2985 150.8647 497.2985 151.8912 494.2191 152.5755 492.5083 153.602 488.7446 155.9971 488.0603 155.9971 484.9809 156.3392 482.9279 157.3657 481.9015 157.3657 476.7691 157.3657 475.0583 157.0235 473.6897 156.3392 470.9525 156.3392 Z" id="MZ.CD" fill="#cee3f5" stroke="#6e6e6e" stroke-width="0.4">
      <desc>
        <labelrank>4</labelrank>
        <code_hasc>MZ.CD</code_hasc>
        <name>Cabo Delgado</name>
        <admin>Mozambique</admin>
        <type_en>Province</type_en>
        <region/>
        <woe_id>2346311</woe_id>
        <longitude>39</longitude>
        <woe_name>Cabo Delgado</woe_name>
        <fips>MZ01</fips>
        <woe_label>Cabo Delgado, MZ, Mozambique</woe_label>
        <latitude>-12</latitude>
        <iso_a2>MZ</iso_a2>
        <postal>CD</postal>
        <type>Provincia</type>
        <id>MZ.CD</id>
      </desc>
    </path>
    <path d="M 476.427 39.6637 472.6632 49.5863 473.3475 62.2461 469.2417 70.1157 463.7672 73.8794 462.0564 80.0382 455.8975 85.8549 456.5819 95.4353 453.1603 110.4902 459.6613 113.5696 463.0828 112.5431 456.2397 127.2559 458.6348 128.2824 462.3985 142.9951 470.9525 156.3392 469.5838 157.0235 468.2152 157.3657 464.4515 157.7078 462.7407 158.3922 461.3721 159.7608 460.3456 160.4451 453.1603 161.8137 450.423 163.5245 449.0544 162.8402 448.3701 161.4716 447.3436 160.1029 445.2907 160.1029 443.5799 161.8137 442.8956 162.1559 439.8162 161.8137 438.1054 162.1559 437.4211 162.8402 437.7632 164.551 436.0525 166.6039 431.2623 167.2882 426.8142 172.4206 425.4456 173.4471 420.9975 175.8422 420.3132 175.8422 418.2603 175.1578 415.1809 177.8951 414.1544 178.2373 413.8123 178.2373 411.075 179.6059 406.2848 183.0275 398.7574 192.6078 392.5985 202.5304 384.3868 205.2676 380.623 213.1373 362.1466 211.4265 360.0936 199.1088 365.226 187.1333 363.5152 186.449 362.8309 176.8686 331.3525 135.8098 322.1142 127.9402 312.876 126.5716 309.1123 119.7284 307.0593 92.3559 301.2426 71.1422 310.1387 55.4029 311.8495 45.1382 346.4074 44.7961 351.1975 46.5069 356.6721 44.7961 363.5152 37.9529 377.8858 45.1382 379.2544 50.6127 391.5721 49.9284 397.3887 51.6392 405.6005 45.4804 414.4966 45.1382 418.9446 49.9284 432.2887 52.3235 447.6858 44.4539 450.0809 35.5578 453.1603 33.8471 466.5044 33.5049 476.427 39.6637 Z M 310.1387 61.9039 312.1917 66.0098 312.876 62.2461 310.1387 61.9039 Z M 315.2711 68.0627 318.3505 65.6676 316.2975 62.9304 313.9025 66.0098 315.2711 68.0627 Z" id="MZ.NS" fill="#cee3f5" stroke="#6e6e6e" stroke-width="0.4">
      <desc>
        <labelrank>4</labelrank>
        <code_hasc>MZ.NS</code_hasc>
        <name>Niassa</name>
        <admin>Mozambique</admin>
        <type_en>Province</type_en>
        <region/>
        <woe_id>2346317</woe_id>
        <longitude>36</longitude>
        <woe_name>Niassa</woe_name>
        <fips>MZ07</fips>
        <woe_label>Niassa, MZ, Mozambique</woe_label>
        <latitude>-13</latitude>
        <iso_a2>MZ</iso_a2>
        <postal>NS</postal>
        <type>Provincia</type>
        <id>MZ.NS</id>
      </desc>
    </path>
    <path d="M 530.1456 256.249 527.4083 255.5647 527.0662 252.1431 532.1985 250.7745 530.1456 256.249 Z M 559.5711 132.7304 560.5975 132.0461 563.3348 134.4412 560.9397 137.5206 565.0456 154.9706 562.6505 157.0235 563.3348 159.0765 559.9132 160.4451 561.9662 164.8931 567.7828 162.498 567.7828 168.3147 564.0191 167.9725 563.3348 177.8951 566.4142 172.0784 571.8887 172.4206 571.8887 175.1578 568.8093 176.1843 571.8887 176.8686 571.8887 187.8176 566.0721 192.2657 563.3348 190.2127 568.8093 196.7137 564.3613 195.6873 566.0721 199.7931 558.2025 202.1882 557.5181 204.2412 562.6505 203.5569 564.3613 206.6363 559.9132 217.9275 537.673 238.4569 540.4103 238.4569 534.2515 248.3794 525.3554 251.4588 526.3819 255.2225 528.0926 257.2755 523.6446 257.6176 521.5917 261.3814 497.9828 275.4098 497.2985 275.0676 497.2985 273.0147 496.6142 271.6461 495.5877 270.2775 495.5877 269.9353 495.2456 269.5931 495.2456 269.251 494.9034 268.5667 494.5613 267.8824 494.2191 266.8559 493.877 266.5137 493.877 266.1716 493.5348 266.1716 492.5083 265.4873 492.1662 265.4873 491.824 265.1451 491.824 264.8029 491.4819 264.4608 491.4819 264.1186 491.4819 263.7765 491.4819 262.0657 491.824 261.7235 494.5613 259.6706 489.7711 246.3265 490.4554 241.8784 485.6652 229.9029 484.2966 227.85 483.9544 227.5078 481.9015 225.7971 480.875 225.1127 480.5328 224.4284 480.1907 223.7441 480.1907 223.402 479.5064 223.0598 477.4534 222.7176 475.0583 221.349 474.0319 218.9539 473.6897 218.6118 473.3475 218.6118 472.3211 218.2696 471.9789 217.9275 470.6103 217.2431 467.5309 214.1637 445.6328 201.5039 439.1319 203.5569 437.7632 202.5304 437.4211 202.5304 437.0789 202.5304 436.7368 202.5304 431.9466 198.7667 429.5515 201.1618 426.8142 202.1882 426.4721 202.1882 426.1299 201.8461 425.7877 201.1618 424.4191 200.4775 424.077 200.1353 423.7348 199.7931 423.0505 197.7402 422.024 195.6873 422.024 195.3451 421.3397 194.6608 419.6289 193.2922 398.7574 192.6078 401.1525 190.5549 403.8897 186.7912 406.2848 183.0275 408.6799 182.001 411.075 179.6059 412.7858 178.9216 413.8123 178.2373 414.1544 178.2373 415.1809 177.8951 418.2603 175.1578 420.3132 175.8422 420.9975 175.8422 425.4456 173.4471 426.8142 172.4206 431.2623 167.2882 436.0525 166.6039 437.7632 164.551 437.4211 162.8402 438.1054 162.1559 439.8162 161.8137 442.8956 162.1559 443.5799 161.8137 445.2907 160.1029 447.3436 160.1029 448.3701 161.4716 449.0544 162.8402 450.423 163.5245 453.1603 161.8137 460.3456 160.4451 461.3721 159.7608 462.7407 158.3922 464.4515 157.7078 468.2152 157.3657 469.5838 157.0235 470.9525 156.3392 473.6897 156.3392 475.0583 157.0235 476.7691 157.3657 481.9015 157.3657 482.9279 157.3657 484.9809 156.3392 488.0603 155.9971 488.7446 155.9971 491.1397 154.2863 492.5083 153.602 494.2191 152.5755 497.2985 151.8912 497.2985 150.8647 497.9828 149.8382 499.0093 149.4961 517.4858 141.9686 518.1701 141.6265 519.8809 141.2843 524.6711 139.9157 528.0926 137.8627 531.5142 138.5471 538.3574 132.7304 539.0417 131.7039 539.726 131.3618 541.7789 130.6775 542.1211 130.3353 543.1475 129.3088 543.8319 128.9667 544.174 129.3088 545.5426 129.651 547.2534 130.6775 548.9642 130.6775 552.3858 129.9931 554.0966 129.651 556.1495 129.651 556.8338 129.9931 556.8338 131.0196 557.5181 132.0461 558.2025 132.3882 559.5711 132.7304 Z" id="MZ.NM" fill="#cee3f5" stroke="#6e6e6e" stroke-width="0.4">
      <desc>
        <labelrank>6</labelrank>
        <code_hasc>MZ.NM</code_hasc>
        <name>Nampula</name>
        <admin>Mozambique</admin>
        <type_en>Province</type_en>
        <region/>
        <woe_id>2346316</woe_id>
        <longitude>38</longitude>
        <woe_name>Nampula</woe_name>
        <fips>MZ06</fips>
        <woe_label>Nampula, MZ, Mozambique</woe_label>
        <latitude>-14</latitude>
        <iso_a2>MZ</iso_a2>
        <postal>NM</postal>
        <type>Provincia</type>
        <id>MZ.NM</id>
      </desc>
    </path>
    <path d="M 221.8623 461.5431 236.575 469.0706 241.3652 469.4127 246.8397 473.8608 249.577 470.4392 255.3936 469.7549 254.7093 471.4657 250.9456 476.2559 250.2613 477.2824 249.9191 477.9667 249.9191 478.3088 249.9191 478.651 250.6034 481.3882 250.2613 482.7569 250.2613 483.099 250.2613 483.4412 250.6034 483.7833 254.7093 488.9157 257.4466 490.9686 257.4466 491.3108 257.4466 493.0216 257.7887 493.7059 258.8152 495.7588 259.1574 506.7078 258.8152 507.05 258.473 507.05 257.4466 507.3922 257.1044 507.7343 257.1044 508.0765 256.7623 508.0765 256.7623 508.4186 256.7623 510.1294 255.7358 513.8931 256.0779 514.9196 256.4201 515.9461 258.8152 519.7098 261.8946 523.4735 262.5789 524.1578 264.2897 525.1843 265.3162 526.2108 266.0005 526.5529 266.3426 526.8951 266.6848 527.2373 266.6848 527.5794 267.027 527.9216 268.0534 528.6059 268.3956 528.948 269.0799 529.6324 270.7907 532.7118 271.475 535.449 277.6338 542.2922 280.0289 549.1353 279.6868 549.8196 278.6603 550.1618 277.976 550.1618 277.6338 550.1618 277.6338 550.5039 277.6338 550.8461 277.6338 551.1882 277.6338 551.5304 278.3181 552.2147 278.3181 553.2412 279.3446 555.2941 281.7397 557.3471 279.3446 562.1373 282.0819 563.848 280.0289 578.5608 280.3711 579.9294 280.3711 580.6137 280.7132 580.6137 281.0554 580.2716 281.3975 580.2716 282.424 580.6137 283.1083 580.6137 283.4505 591.2206 288.925 600.1167 290.6358 599.4324 292.0044 599.4324 292.6887 599.0902 295.426 597.7216 299.5319 596.6951 299.874 596.6951 300.2162 596.6951 300.2162 597.0373 300.2162 597.3794 298.1632 599.7745 298.5054 600.4588 301.5848 603.5382 301.5848 603.8804 301.2426 603.8804 295.7681 606.9598 295.426 607.302 295.0838 607.6441 295.0838 607.9863 296.1103 610.7235 301.927 613.8029 255.0515 632.6216 256.4201 630.5686 249.2348 636.0431 249.2348 633.9902 249.577 631.9373 249.2348 630.5686 248.5505 629.5422 247.8662 629.2 247.1819 628.8578 244.4446 628.5157 244.1025 628.5157 244.1025 628.1735 244.1025 627.8314 244.1025 623.0412 243.7603 622.699 243.7603 622.3569 243.076 622.3569 242.7338 622.0147 241.7074 622.0147 241.3652 621.6725 241.3652 621.3304 241.023 616.8824 241.023 613.8029 241.7074 610.3814 233.1534 600.4588 233.1534 600.1167 232.8113 599.7745 232.8113 595.3265 232.8113 594.9843 232.8113 594.6422 232.8113 594.3 232.4691 594.3 230.074 592.9314 229.7319 592.9314 229.0475 593.2735 227.3368 593.6157 226.9946 593.6157 226.6525 593.6157 225.9681 593.2735 224.9417 592.5892 223.9152 592.2471 223.573 591.9049 221.5201 589.5098 220.1515 588.8255 215.7034 588.1412 214.677 587.799 214.3348 587.4569 212.9662 587.4569 212.2819 587.1147 211.5975 586.7725 208.5181 586.0882 202.0172 588.8255 198.9377 574.1127 195.174 571.0333 185.9358 553.9255 185.9358 540.9235 175.6711 509.4451 220.4936 460.8588 221.8623 461.5431 Z" id="MZ.GA" fill="#cee3f5" stroke="#6e6e6e" stroke-width="0.4">
      <desc>
        <labelrank>4</labelrank>
        <code_hasc>MZ.GA</code_hasc>
        <name>Gaza</name>
        <admin>Mozambique</admin>
        <type_en>Province</type_en>
        <region/>
        <woe_id>2346312</woe_id>
        <longitude>32</longitude>
        <woe_name>Gaza</woe_name>
        <fips>MZ02</fips>
        <woe_label>Gaza, MZ, Mozambique</woe_label>
        <latitude>-23</latitude>
        <iso_a2>MZ</iso_a2>
        <postal>GA</postal>
        <type>Provincia</type>
        <id>MZ.GA</id>
      </desc>
    </path>
    <path d="M 339.5642 308.2569 347.776 319.548 360.0936 325.3647 362.4887 331.1814 370.3583 336.6559 373.0956 346.2363 371.0426 351.0265 374.4642 353.4216 372.0691 355.4745 363.5152 361.9755 360.4358 361.2912 339.2221 385.5843 320.4034 399.9549 310.1387 388.3216 307.0593 387.6373 306.375 389.348 309.7966 389.0059 316.2975 397.902 313.5603 400.6392 315.6132 401.6657 315.9554 412.2725 311.1652 412.2725 314.5868 415.352 312.876 421.8529 310.4809 421.8529 313.5603 425.6167 311.5074 429.0382 314.2446 428.3539 318.6926 434.5127 320.4034 434.1706 319.7191 436.2235 324.5093 437.25 326.2201 446.1461 329.2995 446.8304 323.825 447.8569 319.7191 449.5676 319.0348 449.9098 318.6926 450.5941 316.6397 451.9627 315.9554 452.9892 314.9289 454.0157 313.5603 454.3578 313.2181 454.0157 311.5074 452.6471 311.1652 452.6471 309.4544 452.9892 307.7436 454.3578 302.9534 455.7265 298.8475 460.8588 297.4789 461.8853 294.0574 459.8324 291.3201 462.2275 290.6358 461.8853 289.6093 461.201 284.8191 461.5431 285.1613 458.8059 285.1613 458.1216 286.5299 456.7529 286.5299 455.0422 289.2672 451.2784 280.3711 446.8304 279.6868 436.5657 273.8701 433.8284 263.9475 423.2216 264.6319 417.4049 260.526 408.851 270.7907 402.6922 274.5544 405.7716 284.8191 398.5863 279.6868 395.849 278.6603 388.6637 281.7397 387.2951 281.7397 375.6618 286.1877 359.2382 273.1858 348.9735 279.6868 340.7618 277.6338 332.2078 282.7662 325.7069 289.6093 331.1814 295.0838 328.4441 296.7946 317.8373 291.3201 314.0735 290.6358 303.1245 294.3995 285.3324 297.4789 279.5157 305.0064 276.4363 310.1387 269.9353 321.0877 276.4363 330.6681 301.7559 339.5642 308.2569 Z" id="MZ.SO" fill="#cee3f5" stroke="#6e6e6e" stroke-width="0.4">
      <desc>
        <labelrank>4</labelrank>
        <code_hasc>MZ.SO</code_hasc>
        <name>Sofala</name>
        <admin>Mozambique</admin>
        <type_en>Province</type_en>
        <region/>
        <woe_id>2346315</woe_id>
        <longitude>34</longitude>
        <woe_name>Sofala</woe_name>
        <fips>MZ05</fips>
        <woe_label>Sofala, MZ, Mozambique</woe_label>
        <latitude>-18</latitude>
        <iso_a2>MZ</iso_a2>
        <postal>SO</postal>
        <type>Provincia</type>
        <id>MZ.SO</id>
      </desc>
    </path>
    <path d="M 372.0691 355.4745 374.4642 353.4216 371.0426 351.0265 373.0956 346.2363 370.3583 336.6559 362.4887 331.1814 360.0936 325.3647 347.776 319.548 339.5642 308.2569 338.5377 282.9373 338.1956 264.4608 332.3789 257.2755 336.1426 254.5382 337.5113 245.9843 342.6436 240.5098 348.1181 241.8784 359.4093 236.4039 362.1466 211.4265 380.623 213.1373 384.3868 205.2676 392.5985 202.5304 398.7574 192.6078 419.6289 193.2922 421.3397 194.6608 422.024 195.3451 422.024 195.6873 422.3662 195.6873 422.3662 196.0294 422.3662 196.7137 423.0505 197.7402 423.7348 199.7931 424.077 200.1353 424.4191 200.4775 425.7877 201.1618 426.1299 201.8461 426.4721 202.1882 426.8142 202.1882 427.8407 201.8461 429.5515 201.1618 431.9466 198.7667 433.9995 199.451 436.7368 202.5304 437.0789 202.5304 437.4211 202.5304 437.7632 202.5304 439.1319 203.5569 445.6328 201.5039 457.9505 208.3471 461.0299 212.7951 467.5309 214.1637 470.6103 217.2431 471.9789 217.9275 472.3211 218.2696 473.3475 218.6118 473.6897 218.6118 474.0319 218.9539 475.0583 221.349 477.4534 222.7176 479.5064 223.0598 480.1907 223.402 480.1907 223.7441 480.5328 224.4284 480.875 225.1127 481.9015 225.7971 483.9544 227.5078 484.2966 227.85 485.6652 229.9029 490.4554 241.8784 489.7711 246.3265 494.5613 259.6706 491.824 261.7235 491.4819 262.0657 491.4819 263.7765 491.4819 264.1186 491.4819 264.4608 491.824 264.8029 491.824 265.1451 492.1662 265.4873 492.5083 265.4873 493.5348 266.1716 493.877 266.1716 493.877 266.5137 494.2191 266.8559 494.5613 267.8824 495.2456 269.251 495.2456 269.5931 495.5877 269.9353 495.5877 270.2775 497.2985 273.0147 497.2985 274.7255 497.2985 276.0941 495.2456 277.1206 496.9564 278.1471 486.6917 282.2529 477.7956 281.2265 478.1377 283.2794 471.6368 284.648 457.2662 291.8333 455.2132 287.0431 453.5025 287.7275 455.5554 291.8333 416.2074 310.3098 407.6534 321.9431 401.4946 316.1265 407.3113 323.3118 403.5475 329.4706 400.4681 329.1284 399.0995 331.1814 401.8368 329.8127 398.4152 334.2608 386.0975 344.8676 382.3338 351.0265 383.3603 354.448 378.5701 354.448 376.5172 350.6843 377.5436 358.8961 372.4113 359.2382 372.0691 355.4745 Z" id="MZ.ZA" fill="#cee3f5" stroke="#6e6e6e" stroke-width="0.4">
      <desc>
        <labelrank>4</labelrank>
        <code_hasc>MZ.ZA</code_hasc>
        <name>Zambezia</name>
        <admin>Mozambique</admin>
        <type_en>Province</type_en>
        <region/>
        <woe_id>2346319</woe_id>
        <longitude>37</longitude>
        <woe_name>Zambezia</woe_name>
        <fips>MZ09</fips>
        <woe_label>Zambezia, MZ, Mozambique</woe_label>
        <latitude>-16</latitude>
        <iso_a2>MZ</iso_a2>
        <postal>ZA</postal>
        <type>Provincia</type>
        <id>MZ.ZA</id>
      </desc>
    </path>
    <path d="M 301.927 613.8029 296.1103 610.7235 295.0838 607.9863 295.0838 607.6441 295.426 607.302 295.7681 606.9598 301.5848 603.8804 301.5848 603.5382 298.5054 600.4588 298.1632 599.7745 300.2162 597.3794 300.2162 597.0373 300.2162 596.6951 299.874 596.6951 299.5319 596.6951 295.426 597.7216 292.6887 599.0902 292.0044 599.4324 290.6358 599.4324 288.925 600.1167 283.4505 591.2206 283.1083 580.6137 282.424 580.6137 281.3975 580.2716 281.0554 580.2716 280.7132 580.6137 280.3711 580.6137 280.3711 579.9294 280.0289 578.5608 282.0819 563.848 279.3446 562.1373 281.7397 557.3471 279.3446 555.2941 279.0025 553.9255 278.3181 553.2412 278.3181 552.2147 277.6338 551.5304 277.6338 551.1882 277.6338 550.8461 277.6338 550.5039 277.6338 550.1618 277.976 550.1618 278.6603 550.1618 279.6868 549.8196 280.0289 549.1353 277.6338 542.2922 269.0799 529.6324 268.3956 528.948 268.0534 528.6059 267.027 527.9216 266.6848 527.5794 266.6848 527.2373 266.3426 526.8951 266.0005 526.5529 265.3162 526.2108 264.2897 525.1843 262.5789 524.1578 261.8946 523.4735 256.4201 515.9461 255.7358 513.8931 256.7623 510.1294 256.7623 508.4186 256.7623 508.0765 257.1044 508.0765 257.1044 507.7343 257.4466 507.3922 258.473 507.05 258.8152 507.05 259.1574 506.7078 258.8152 495.7588 257.7887 493.7059 257.4466 493.0216 257.4466 491.3108 257.4466 490.9686 254.7093 488.9157 250.6034 483.7833 250.2613 483.4412 250.2613 483.099 250.2613 482.7569 250.6034 481.3882 250.6034 481.0461 249.9191 478.651 249.9191 477.9667 254.7093 471.4657 255.0515 470.7814 255.3936 469.7549 256.4201 470.0971 260.1838 468.7284 263.9475 465.9912 267.027 465.3069 273.8701 465.649 276.2652 465.3069 276.9495 465.3069 277.976 465.3069 278.3181 465.9912 278.6603 466.3333 279.0025 466.3333 279.3446 465.9912 279.6868 465.9912 281.3975 463.2539 282.0819 462.2275 282.7662 461.8853 284.8191 461.5431 289.6093 461.201 290.6358 461.8853 291.3201 462.2275 294.0574 459.8324 297.4789 461.8853 298.8475 460.8588 302.9534 455.7265 309.4544 452.9892 310.1387 452.6471 311.1652 452.6471 311.5074 452.6471 314.9289 454.0157 315.9554 452.9892 316.6397 451.9627 318.6926 450.5941 319.0348 449.9098 319.7191 449.5676 323.825 447.8569 329.2995 446.8304 328.9574 448.8833 325.1936 453.3314 327.9309 457.7794 327.2466 462.5696 329.6417 456.4108 329.2995 464.9647 335.1162 476.598 337.5113 495.7588 336.1426 508.4186 339.5642 512.8667 341.6172 497.1275 344.0123 496.4431 344.6966 505.3392 346.0652 499.5225 343.3279 521.4206 345.0387 532.7118 347.776 531.3431 342.3015 542.2922 338.5377 566.9275 336.4848 563.848 336.1426 576.1657 337.8534 571.0333 341.275 572.402 341.9593 568.2961 344.3544 571.7176 342.3015 582.3245 329.6417 600.4588 315.2711 609.0127 301.927 613.8029 Z" id="MZ.IN" fill="#cee3f5" stroke="#6e6e6e" stroke-width="0.4">
      <desc>
        <labelrank>6</labelrank>
        <code_hasc>MZ.IN</code_hasc>
        <name>Inhambane</name>
        <admin>Mozambique</admin>
        <type_en>Province</type_en>
        <region/>
        <woe_id>2346313</woe_id>
        <longitude>35</longitude>
        <woe_name>Inhambane</woe_name>
        <fips>MZ03</fips>
        <woe_label>Inhambane, MZ, Mozambique</woe_label>
        <latitude>-21</latitude>
        <iso_a2>MZ</iso_a2>
        <postal>IN</postal>
        <type>Provincia</type>
        <id>MZ.IN</id>
      </desc>
    </path>
    <path d="M 243.076 663.0735 240.3387 665.1265 243.4181 661.3627 243.076 663.0735 Z M 227.3368 593.6157 227.6789 593.6157 229.0475 593.2735 229.7319 592.9314 230.074 592.9314 232.4691 593.9578 232.4691 594.3 232.8113 594.3 232.8113 594.6422 232.8113 594.9843 232.8113 595.3265 232.8113 599.7745 233.1534 600.1167 233.1534 600.4588 241.7074 610.3814 241.023 613.8029 241.3652 615.8559 241.023 616.8824 241.3652 621.3304 241.3652 621.6725 241.7074 622.0147 242.7338 622.0147 243.076 622.3569 243.7603 622.3569 243.7603 622.699 244.1025 623.0412 244.4446 626.8049 244.1025 627.8314 244.1025 628.1735 244.1025 628.5157 244.4446 628.5157 247.1819 628.8578 247.8662 629.2 248.5505 629.5422 248.8926 629.8843 249.2348 630.5686 249.577 631.9373 249.2348 636.0431 239.3123 643.2284 235.8907 647.3343 232.127 657.599 226.6525 656.9147 223.9152 662.0471 226.6525 661.7049 231.7848 670.601 237.9436 675.049 242.3917 666.1529 239.9966 699 211.2554 699 207.1495 675.049 208.176 663.0735 203.3858 661.0206 201.675 654.8618 205.0966 647.3343 204.4123 598.4059 202.0172 588.8255 208.5181 586.0882 209.2025 586.4304 211.5975 586.7725 212.2819 587.1147 212.9662 587.4569 214.3348 587.4569 214.677 587.799 215.7034 588.1412 220.1515 588.8255 220.8358 589.1676 221.5201 589.5098 223.573 591.9049 223.9152 592.2471 224.9417 592.5892 225.9681 593.2735 226.6525 593.6157 226.9946 593.6157 227.3368 593.6157 Z" id="MZ.MP" fill="#cee3f5" stroke="#6e6e6e" stroke-width="0.4">
      <desc>
        <labelrank>7</labelrank>
        <code_hasc>MZ.MP</code_hasc>
        <name>Maputo</name>
        <admin>Mozambique</admin>
        <type_en>Province</type_en>
        <region/>
        <woe_id>2346314</woe_id>
        <longitude>32</longitude>
        <woe_name>Maputo</woe_name>
        <fips>MZ04</fips>
        <woe_label>Maputo, MZ, Mozambique</woe_label>
        <latitude>-25</latitude>
        <iso_a2>MZ</iso_a2>
        <postal>MP</postal>
        <type>Provincia</type>
        <id>MZ.MP</id>
      </desc>
    </path>
    <path d="M 226.6525 656.9147 230.7583 658.9676 228.3632 661.3627 225.2838 660.6784 226.6525 656.9147 Z" id="MZ.7278" fill="#cee3f5" stroke="#6e6e6e" stroke-width="0.4">
      <desc>
        <labelrank>7</labelrank>
        <code_hasc>MZ.MP</code_hasc>
        <name>Maputo</name>
        <admin>Mozambique</admin>
        <type_en>Province</type_en>
        <region/>
        <woe_id>2346314</woe_id>
        <longitude>32</longitude>
        <woe_name>Maputo</woe_name>
        <fips>MZ04</fips>
        <woe_label>Maputo, MZ, Mozambique</woe_label>
        <latitude>-25</latitude>
        <iso_a2>MZ</iso_a2>
        <postal>MP</postal>
        <type>Provincia</type>
        <id>MZ.7278</id>
      </desc>
    </path>
  </g>
</svg>