<?xml version="1.0" encoding="UTF-8"?>
<svg xmlns="http://www.w3.org/2000/svg" width="700" height="700">
  <g id="singapore">
    <path d="M 465.6599 239.4184 470.7106 234.8742 475.7612 232.3497 479.2967 232.8546 489.903 236.389 496.974 239.9233 496.4689 242.4479 501.5195 243.9626 507.5803 243.9626 514.6512 246.4872 529.2981 243.4577 533.3386 245.4773 548.4906 246.4872 558.0868 244.9724 562.1274 249.5166 559.602 254.5657 562.1274 260.6247 558.5919 261.6345 551.521 262.1394 544.9551 261.6345 540.4096 259.6149 535.864 264.664 528.7931 268.7033 522.7323 269.2082 513.136 273.7524 506.5702 267.1886 501.0145 261.6345 498.9942 258.1001 485.3575 253.051 484.8524 247.497 479.8017 249.5166 476.2663 243.9626 470.7106 245.9823 465.6599 239.4184 Z M 651.0188 306.572 644.453 295.9688 639.4023 289.4048 633.8466 282.336 630.8162 280.3163 628.7959 276.7819 626.7757 271.2279 619.1997 270.723 610.6136 273.2475 603.5427 274.2574 601.0174 273.7524 596.9768 270.218 612.1288 269.7131 617.1795 265.6738 614.6541 262.1394 617.1795 255.5756 611.6237 256.5854 607.0781 260.6247 596.9768 259.11 592.9363 258.1001 588.8958 254.0608 587.3806 246.4872 587.3806 237.9037 595.4616 230.835 598.9971 229.8252 600.5123 235.3792 606.068 241.943 611.6237 246.4872 613.1389 253.051 616.6744 253.051 619.1997 251.0314 618.1896 243.9626 616.6744 235.3792 619.1997 235.3792 629.301 235.3792 632.8365 231.8448 637.8871 227.3006 648.9986 230.3301 654.0492 228.3104 659.6049 225.281 681.8278 236.8939 694.4544 248.5068 699 258.1001 695.9696 263.1493 689.4038 290.9196 651.0188 306.572 Z" id="0" fill="#cee3f5" stroke="#6e6e6e" stroke-width="0.4">
      <desc>
        <labelrank>20</labelrank>
        <code_hasc>SG.NI</code_hasc>
        <name>North Eastern Islands</name>
        <admin>Singapore</admin>
        <woe_id/>
        <woe_name>North Eastern Islands</woe_name>
        <woe_label>NorthEastern Islands, SG, Singapore</woe_label>
        <iso_a2>SG</iso_a2>
        <id>0</id>
      </desc>
    </path>
    <path d="M 290.4023 479.2586 301.0087 479.7635 306.0593 479.2586 312.6252 481.7833 318.1809 476.2289 331.3126 472.6943 337.3734 477.2388 341.4139 480.2685 333.3329 484.308 320.7062 483.2981 317.6758 482.2882 318.1809 487.8426 327.7771 486.3278 334.343 487.8426 350 489.3574 341.4139 503.4959 331.8177 509.5553 327.2721 510.0602 313.1302 499.4563 290.4023 479.2586 Z M 223.2391 214.3407 223.5908 228.4077 218.0386 255.4746 218.7326 287.3996 227.0609 299.198 259.68 325.5709 261.068 337.3693 250.6577 348.4736 252.7397 356.8019 264.5381 360.272 288.8289 383.1748 290.911 401.2194 288.8289 413.0178 293.6871 428.2863 308.2616 444.2488 318.6719 451.189 347.1268 459.5173 355.8333 463.1273 354.5456 474.7141 347.4747 476.2289 338.3835 467.1399 326.767 468.1498 313.6353 473.7042 296.9682 468.6548 290.4023 470.6745 287.3719 473.7042 272.22 463.1004 257.5731 485.3179 247.4718 480.2685 259.5933 458.051 245.4515 449.467 235.3502 466.1301 206.5615 448.4572 212.1172 438.3584 232.8249 450.9819 237.8755 443.9127 222.7236 433.309 225.2489 427.2498 218.178 421.1906 212.6223 422.7054 203.5311 424.7251 191.4096 420.6856 176.7627 417.656 162.1158 419.6757 148.9841 420.1807 144.9436 416.6461 134.8423 416.6461 109.0839 420.6856 101.0029 423.7152 81.3054 436.8436 78.78 431.2893 70.699 425.23 60.5977 418.1609 48.9812 402.508 40.9001 396.4488 36.3546 402.0031 43.4255 413.1116 59.5876 443.4078 57.5673 448.4572 51.5065 450.9819 44.4356 449.972 42.9204 464.6152 12.1114 477.7437 10.0912 493.9019 17.1621 511.5751 1 512.08 1.5051 466.1301 1.5051 456.0313 11.1013 448.9621 15.1418 438.3584 11.1013 428.7646 35.3444 356.0545 36.3546 347.4707 40.3951 343.9363 46.9609 350.5003 51.5065 355.5495 61.6078 355.5495 51.5065 344.4412 45.4457 335.3526 53.5268 329.2935 61.6078 326.7689 65.6483 333.8378 68.1737 330.3033 65.6483 327.2738 63.123 321.2147 58.0724 314.1458 61.6078 310.1065 67.1635 313.136 83.8307 313.136 86.8611 313.136 90.3965 322.2246 94.9421 316.6704 88.8813 309.6016 94.9421 305.0573 92.4168 297.4835 75.7496 298.9983 70.699 296.4737 74.7395 287.8901 77.7699 281.8311 77.2648 264.1591 90.3965 253.5559 94.9421 236.389 108.0738 227.3006 113.1245 224.7761 125.246 221.7466 140.398 206.0946 155.5499 197.0063 169.6918 197.5112 180.8032 202.5602 185.3488 209.6289 187.369 219.727 186.864 227.8055 183.8336 239.4184 175.2475 250.0215 169.6918 258.1001 175.7525 259.6149 182.8234 251.0314 193.4298 242.4479 201.0058 231.3399 199.4906 224.2712 194.945 213.6681 205.5514 217.2025 213.6324 215.1829 221.7135 216.1927 223.2391 214.3407 Z" id="SG.SW" fill="#cee3f5" stroke="#6e6e6e" stroke-width="0.4">
      <desc>
        <labelrank>20</labelrank>
        <code_hasc>SG.SW</code_hasc>
        <name>South West</name>
        <admin>Singapore</admin>
        <woe_id>24703043</woe_id>
        <woe_name>South West</woe_name>
        <woe_label>South West, SG, Singapore</woe_label>
        <iso_a2>SG</iso_a2>
        <id>SG.SW</id>
      </desc>
    </path>
    <path d="M 93.932 532.278 95.9522 523.6938 92.9219 515.6146 86.8611 516.6245 80.8003 504.5058 87.3661 499.9613 75.2446 479.7635 73.2243 471.6844 69.6889 461.5856 114.1346 433.309 125.7511 434.8238 111.1042 453.0016 115.1447 458.556 133.3271 442.3979 143.4284 455.5263 146.4588 452.4967 137.8726 436.3386 139.3878 431.7942 145.9537 431.7942 157.5702 432.8041 161.6107 432.2991 168.6816 436.3386 171.2069 443.4078 178.2779 450.9819 182.3184 450.9819 192.4197 459.0609 183.3285 465.1202 171.2069 462.0905 166.1563 466.635 173.7323 469.6647 163.631 476.7338 140.903 465.6251 138.3777 470.6745 152.5195 480.2685 125.246 491.3772 122.7207 476.7338 109.0839 465.6251 103.0232 475.724 112.1143 482.7932 117.67 509.5553 93.932 532.278 Z" id="SG.JI" fill="#cee3f5" stroke="#6e6e6e" stroke-width="0.4">
      <desc>
        <labelrank>20</labelrank>
        <code_hasc>SG.JI</code_hasc>
        <name>Jurong Island</name>
        <admin>Singapore</admin>
        <woe_id>0</woe_id>
        <woe_name>Jurong Island</woe_name>
        <woe_label>Jurong Island, SG, Singapore</woe_label>
        <iso_a2>SG</iso_a2>
        <id>SG.JI</id>
      </desc>
    </path>
    <path d="M 423.5933 292.6792 416.5291 295.0339 404.0367 301.2801 392.2383 311.6904 387.3802 324.8769 386.6861 338.7573 388.7682 355.4139 401.9546 376.2345 424.1634 410.9357 433.3483 424.0571 420.7091 428.7646 404.547 437.8535 386.8698 451.9917 368.1823 465.6251 356.0608 461.0807 355.8333 463.1273 347.1268 459.5173 318.6719 451.189 308.2616 444.2488 293.6871 428.2863 288.8289 413.0178 290.911 401.2194 288.8289 383.1748 288.4717 382.838 288.8289 382.4807 313.8137 359.578 314.5078 344.3095 308.2616 334.5932 315.8958 320.7127 342.9627 304.0562 339.4926 288.7877 324.2241 272.8251 328.3882 258.2507 339.4926 247.8403 371.4176 248.5343 388.7682 245.0642 398.4845 233.2658 400.6954 230.4233 421.2142 242.4479 425.7598 246.4872 433.8408 242.9528 442.932 240.4282 446.9725 244.9724 447.0603 245.806 439.4319 254.7806 433.1857 265.1909 426.9395 285.3176 423.5933 292.6792 Z" id="SG.CS" fill="#cee3f5" stroke="#6e6e6e" stroke-width="0.4">
      <desc>
        <labelrank>20</labelrank>
        <code_hasc>SG.CS</code_hasc>
        <name>Central Singapore</name>
        <admin>Singapore</admin>
        <woe_id>24703044</woe_id>
        <woe_name>Central Singapore</woe_name>
        <woe_label>Central Singapore, SG, Singapore</woe_label>
        <iso_a2>SG</iso_a2>
        <id>SG.CS</id>
      </desc>
    </path>
    <path d="M 400.6954 230.4233 398.4845 233.2658 388.7682 245.0642 371.4176 248.5343 339.4926 247.8403 328.3882 258.2507 324.2241 272.8251 339.4926 288.7877 342.9627 304.0562 315.8958 320.7127 308.2616 334.5932 314.5078 344.3095 313.8137 359.578 288.8289 382.4807 288.4717 382.838 264.5381 360.272 252.7397 356.8019 250.6577 348.4736 261.068 337.3693 259.68 325.5709 227.0609 299.198 218.7326 287.3996 218.0386 255.4746 223.5908 228.4077 223.2391 214.3407 228.7844 207.6093 234.3401 200.5406 246.9667 196.5014 276.7656 175.8004 288.8871 168.7318 303.534 167.722 311.6151 170.7514 316.6657 175.8004 319.6961 171.7612 333.3329 178.3249 354.0405 190.9475 356.0608 195.4916 361.6165 210.1338 371.2127 221.2417 364.1418 233.8644 374.2431 238.9135 391.9204 225.281 400.6954 230.4233 Z" id="SG.NW" fill="#cee3f5" stroke="#6e6e6e" stroke-width="0.4">
      <desc>
        <labelrank>20</labelrank>
        <code_hasc>SG.NW</code_hasc>
        <name>North West</name>
        <admin>Singapore</admin>
        <woe_id>24703045</woe_id>
        <woe_name>North West</woe_name>
        <woe_label>North West, SG, Singapore</woe_label>
        <iso_a2>SG</iso_a2>
        <id>SG.NW</id>
      </desc>
    </path>
    <path d="M 514.9474 299.7112 508.1401 308.2203 494.2597 313.0785 493.5657 324.1828 488.0135 340.1454 476.9091 339.4513 470.6629 333.2051 456.0884 326.2649 433.1857 317.9366 422.7753 308.2203 423.4694 292.9518 426.9395 285.3176 433.1857 265.1909 439.4319 254.7806 447.0603 245.806 447.9826 254.5657 454.0434 263.1493 464.6498 270.723 470.7106 274.2574 478.2865 279.3065 485.3575 289.4048 499.4993 296.9786 512.1259 300.0081 514.9474 299.7112 Z" id="SG.NE" fill="#cee3f5" stroke="#6e6e6e" stroke-width="0.4">
      <desc>
        <labelrank>20</labelrank>
        <code_hasc>SG.NE</code_hasc>
        <name>North East</name>
        <admin>Singapore</admin>
        <woe_id>24703042</woe_id>
        <woe_name>North East</woe_name>
        <woe_label>North East, SG, Singapore</woe_label>
        <iso_a2>SG</iso_a2>
        <id>SG.NE</id>
      </desc>
    </path>
    <path d="M 433.3483 424.0571 424.1634 410.9357 401.9546 376.2345 388.7682 355.4139 386.6861 338.7573 387.3802 324.8769 392.2383 311.6904 404.0367 301.2801 416.5291 295.0339 423.5933 292.6792 423.4694 292.9518 422.7753 308.2203 433.1857 317.9366 456.0884 326.2649 470.6629 333.2051 476.9091 339.4513 488.0135 340.1454 493.5657 324.1828 494.2597 313.0785 508.1401 308.2203 514.9474 299.7112 521.7221 298.9983 534.8538 291.4245 534.8538 287.3852 538.8944 283.8507 554.5514 283.8507 561.6223 283.8507 571.7236 287.8901 577.7844 295.9688 583.8452 310.6114 582.835 317.1754 589.9059 318.1852 594.4515 316.1655 603.5427 320.7098 623.2402 329.7984 604.5528 379.2812 607.0781 383.3206 621.22 382.3107 621.725 397.4587 616.1693 397.9636 615.6643 391.3995 607.0781 391.9044 608.0883 396.9537 590.411 398.4685 576.2692 404.0228 560.6122 399.4784 551.521 401.4981 549.5007 394.934 536.369 395.4389 496.974 403.5179 474.246 411.0919 446.4674 419.1708 433.3483 424.0571 Z" id="SG.SE" fill="#cee3f5" stroke="#6e6e6e" stroke-width="0.4">
      <desc>
        <labelrank>20</labelrank>
        <code_hasc>SG.SE</code_hasc>
        <name>South East</name>
        <admin>Singapore</admin>
        <woe_id>24703041</woe_id>
        <woe_name>South East</woe_name>
        <woe_label>South East, SG, Singapore</woe_label>
        <iso_a2>SG</iso_a2>
        <id>SG.SE</id>
      </desc>
    </path>
  </g>
</svg>