<?xml version="1.0" encoding="UTF-8"?>
<svg xmlns="http://www.w3.org/2000/svg" width="700" height="700">
  <g id="uzbekistan">
    <path d="M 373.9435 455.6918 367.4244 461.8944 365.4973 462.4866 362.0041 466.5622 361.8478 468.0973 363.8727 470.7938 363.7563 472.0426 348.6807 478.1047 342.345 484.4113 340.051 482.1865 334.4919 484.2667 331.9879 483.4099 314.6694 471.2907 304.9391 459.983 268.2606 433.8616 262.5009 427.4474 261.2504 421.7627 261.8604 417.5228 260.6162 414.776 258.5605 404.8294 251.7843 400.7439 260.3956 390.2346 262.5341 385.6566 260.7441 381.8025 254.1603 374.2924 263.3696 369.9623 263.3427 369.2261 251.9564 353.1691 266.3032 347.8579 269.7027 347.955 271.9634 352.6829 278.7434 360.7069 284.1993 370.3697 294.1037 373.807 300.3808 377.3062 312.679 384.763 315.1215 387.8829 315.067 388.9313 319.9137 387.1866 325.1434 377.751 327.4744 375.7388 329.8922 377.8191 330.8146 384.3245 332.55 384.9202 343.6108 386.0692 344.5155 385.2029 345.673 380.3889 347.8049 379.4175 354.9559 378.6742 356.2466 378.0856 357.5149 376.2101 358.3897 377.5359 360.3771 385.8955 363.2447 387.8158 367.2931 388.7126 379.6878 389.264 381.6307 388.6462 380.5953 393.3765 380.8633 398.4463 377.0633 398.4371 375.5559 403.2451 373.9448 405.0423 372.6688 408.9262 367.8393 408.9896 364.3604 407.2228 362.0165 407.5243 360.9759 408.3851 361.0497 410.899 362.0967 411.9114 360.8806 414.505 363.4442 417.9896 360.3953 419.2129 357.9697 424.0429 354.0292 426.4969 350.7484 432.3728 354.4907 437.7779 357.6228 439.5812 358.0645 440.8259 359.4514 441.1339 361.8614 440.3887 367.2385 443.2006 368.9453 448.788 371.3892 449.9026 372.8311 451.5261 373.9435 455.6918 Z" id="UZ.BU" fill="#cee3f5" stroke="#6e6e6e" stroke-width="0.4">
      <desc>
        <labelrank>7</labelrank>
        <code_hasc>UZ.BU</code_hasc>
        <name>Bukhoro</name>
        <admin>Uzbekistan</admin>
        <type_en>Region</type_en>
        <region/>
        <woe_id>2347660</woe_id>
        <longitude>63</longitude>
        <woe_name>Bukhoro</woe_name>
        <fips>UZ02</fips>
        <woe_label>Bukhoro, UZ, Uzbekistan</woe_label>
        <latitude>39</latitude>
        <iso_a2>UZ</iso_a2>
        <postal>BU</postal>
        <type>Wiloyat</type>
        <id>UZ.BU</id>
      </desc>
    </path>
    <path d="M 254.1603 374.2924 260.7441 381.8025 262.5341 385.6566 260.3956 390.2346 251.7843 400.7439 249.1165 395.7048 248.3071 392.4003 246.0801 389.4491 243.6531 380.2642 243.2512 373.2975 239.5514 367.3737 230.5859 360.5693 221.6798 357.6883 220.7643 358.1182 219.7673 361.1173 217.9622 363.3354 215.3853 365.2463 212.2048 364.5635 208.0964 361.5082 204.9727 361.8269 204.4911 360.723 203.1422 362.5393 201.2552 360.4865 198.4385 359.733 190.269 360.0161 185.334 361.5196 182.8994 361.5108 180.361 360.193 175.8431 356.0507 167.6655 351.5061 166.3312 349.0626 166.9819 344.7762 167.8801 343.1354 170.8578 341.1136 166.8141 333.7992 166.5127 331.9135 168.727 329.7443 171.483 330.2054 173.614 331.5074 174.7352 330.7592 173.8489 328.6059 170.4236 325.5604 171.4307 323.8689 170.9332 321.6176 173.7722 320.9809 176.8877 318.8294 182.7621 320.5198 183.3173 321.0026 183.6248 325.3912 186.6715 331.2673 190.7387 332.4783 194.0489 338.8685 208.0019 351.3344 211.987 352.6862 214.083 355.1161 215.0286 357.4788 217.883 358.2751 220.9268 353.9223 223.0965 352.9185 232.9757 354.9486 239.091 358.8053 245.8949 366.4973 250.8296 374.4365 252.0093 374.9758 254.1603 374.2924 Z" id="UZ.KH" fill="#cee3f5" stroke="#6e6e6e" stroke-width="0.4">
      <desc>
        <labelrank>4</labelrank>
        <code_hasc>UZ.KH</code_hasc>
        <name>Khorezm</name>
        <admin>Uzbekistan</admin>
        <type_en>Region</type_en>
        <region/>
        <woe_id>2347665</woe_id>
        <longitude>61</longitude>
        <woe_name>Khorezm</woe_name>
        <fips>UZ05</fips>
        <woe_label>Khorazm, UZ, Uzbekistan</woe_label>
        <latitude>41</latitude>
        <iso_a2>UZ</iso_a2>
        <postal>KH</postal>
        <type>Wiloyat</type>
        <id>UZ.KH</id>
      </desc>
    </path>
    <path d="M 247.096 241.0318 251.199 248.2254 253.1445 250.0589 264.3184 253.4326 240.5896 299.1332 239.5375 310.9198 244.8706 321.5582 234.6561 327.8101 234.9772 329.2542 251.9564 353.1691 263.3427 369.2261 263.3696 369.9623 254.1603 374.2924 252.0093 374.9758 250.8296 374.4365 245.8949 366.4973 239.091 358.8053 232.9757 354.9486 223.0965 352.9185 220.9268 353.9223 217.883 358.2751 215.0286 357.4788 214.083 355.1161 211.987 352.6862 208.0019 351.3344 194.0489 338.8685 190.7387 332.4783 186.6715 331.2673 183.6248 325.3912 183.3173 321.0026 182.7621 320.5198 176.8877 318.8294 173.7722 320.9809 170.9332 321.6176 171.4307 323.8689 170.4236 325.5604 168.4051 323.0678 164.2487 321.329 162.1676 321.33 161.19 320.2758 161.7477 319.0575 164.907 318.0439 164.1654 313.256 164.6209 310.7815 166.7956 309.5625 166.963 308.6673 162.5003 305.2953 160.2494 302.1003 153.2165 301.5339 142.687 302.3452 140.1902 300.1417 137.2506 299.4685 135.6495 297.817 135.0263 292.6526 132.0986 288.9773 131.1703 288.3304 126.6454 289.1707 122.1629 287.3759 110.6805 273.7021 108.1836 280.9273 104.4913 281.0888 97.3439 278.4509 92.8848 280.379 91.7187 281.6449 92.5878 283.4009 98.763 287.1905 105.423 299.9925 101.6884 300.3152 101.4652 294.9216 99.2227 292.4284 94.5167 290.1383 91.6655 290.7798 89.6791 288.3634 87.1496 288.0859 82.6606 291.5502 83.563 295.709 81.2966 300.5646 78.7617 302.2542 79.5685 304.2395 70.2133 305.9914 64.6252 304.6447 60.7805 304.549 56.901 306.1354 53.473 309.078 49.3427 315.185 43.6309 317.8605 42.3888 319.3411 42.8198 325.7116 41.9757 331.1195 43.7182 336.063 43.68 341.0168 45.6219 344.978 49.0501 346.6691 45.5917 348.9115 43.3261 351.9613 42.5117 352.3622 33.8626 349.9069 1 345.5886 9.1084 247.0135 17.5269 148.3558 76.0016 134.452 117.4196 125.1565 165.9696 160.976 209.4787 191.9398 211.11 194.5207 211.8586 199.8779 214.0464 203.577 245.4387 240.3454 247.096 241.0318 Z" id="UZ.QR" fill="#cee3f5" stroke="#6e6e6e" stroke-width="0.4">
      <desc>
        <labelrank>4</labelrank>
        <code_hasc>UZ.QR</code_hasc>
        <name>Karakalpakstan</name>
        <admin>Uzbekistan</admin>
        <type_en>Automonous Region</type_en>
        <region/>
        <woe_id>2347663</woe_id>
        <longitude>59</longitude>
        <woe_name>Karakalpakstan</woe_name>
        <fips>UZ09</fips>
        <woe_label>Qoraqalpoghiston, UZ, Uzbekistan</woe_label>
        <latitude>43</latitude>
        <iso_a2>UZ</iso_a2>
        <postal>QR</postal>
        <type>Repuplikasi</type>
        <id>UZ.QR</id>
      </desc>
    </path>
    <path d="M 437.4583 362.8652 432.5735 365.2754 431.7865 366.8138 432.9833 374.8001 434.4179 376.104 438.3734 377.1206 438.6454 380.3495 440.0993 383.069 433.3321 398.4122 431.7612 396.5933 431.7331 394.3434 428.6094 391.5879 423.2442 394.4668 419.5917 392.8726 417.9908 393.4139 416.3989 396.7665 417.2168 400.7096 415.6526 402.3739 416.3631 405.9406 415.5682 408.6955 416.4598 410.3763 413.4085 417.8568 415.8146 418.242 416.1981 419.3109 412.6264 423.0472 403.7929 425.249 402.0378 424.9459 396.0479 422.6429 394.2794 420.5276 388.2298 418.8137 387.4897 422.4994 386.2781 424.5458 387.4099 426.0584 385.6674 431.6965 382.4441 432.041 379.4842 430.756 378.1526 433.0811 372.8357 434.5843 375.8906 438.4268 377.3155 443.3232 375.9292 448.1584 378.803 454.095 373.9435 455.6918 372.8311 451.5261 371.3892 449.9026 368.9453 448.788 367.2385 443.2006 361.8614 440.3887 359.4514 441.1339 358.0645 440.8259 357.6228 439.5812 354.4907 437.7779 350.7484 432.3728 354.0292 426.4969 357.9697 424.0429 360.3953 419.2129 363.4442 417.9896 360.8806 414.505 362.0967 411.9114 361.0497 410.899 360.9759 408.3851 362.0165 407.5243 364.3604 407.2228 367.8393 408.9896 372.6688 408.9262 373.9448 405.0423 375.5559 403.2451 377.0633 398.4371 380.8633 398.4463 380.5953 393.3765 381.6307 388.6462 379.6878 389.264 367.2931 388.7126 363.2447 387.8158 360.3771 385.8955 358.3897 377.5359 357.5149 376.2101 356.2466 378.0856 354.9559 378.6742 347.8049 379.4175 345.673 380.3889 344.5155 385.2029 343.6108 386.0692 332.55 384.9202 330.8146 384.3245 329.8922 377.8191 327.4744 375.7388 325.1434 377.751 319.9137 387.1866 315.067 388.9313 315.1215 387.8829 312.679 384.763 300.3808 377.3062 294.1037 373.807 284.1993 370.3697 278.7434 360.7069 271.9634 352.6829 269.7027 347.955 266.3032 347.8579 251.9564 353.1691 234.9772 329.2542 234.6561 327.8101 244.8706 321.5582 239.5375 310.9198 240.5896 299.1332 264.3184 253.4326 253.1445 250.0589 251.199 248.2254 247.096 241.0318 293.1788 233.3783 340.7665 237.2275 357.2874 227.9945 359.9232 227.6014 373.933 243.4722 383.7303 249.6252 395.393 271.8205 407.2481 265.3261 406.4216 294.8831 404.9244 296.9706 405.4816 318.4627 425.3339 318.1999 427.2839 331.705 434.5271 360.515 436.4358 362.6449 437.4583 362.8652 Z" id="UZ.NW" fill="#cee3f5" stroke="#6e6e6e" stroke-width="0.4">
      <desc>
        <labelrank>6</labelrank>
        <code_hasc>UZ.NW</code_hasc>
        <name>Navoi</name>
        <admin>Uzbekistan</admin>
        <type_en>Region</type_en>
        <region/>
        <woe_id>2347667</woe_id>
        <longitude>64</longitude>
        <woe_name>Navoi</woe_name>
        <fips>UZ07</fips>
        <woe_label>Nawoiy, UZ, Uzbekistan</woe_label>
        <latitude>42</latitude>
        <iso_a2>UZ</iso_a2>
        <postal>NW</postal>
        <type>Wiloyat</type>
        <id>UZ.NW</id>
      </desc>
    </path>
    <path d="M 433.3321 398.4122 444.5949 399.3446 445.2358 401.0208 444.7893 406.932 445.6268 410.5847 447.2963 411.8901 447.4952 413.6289 448.6797 414.9582 448.5528 416.6949 447.1661 417.7346 447.7875 420.9202 451.0466 420.5712 451.329 422.7034 452.8364 424.2298 453.7561 423.8736 454.2825 424.6775 457.5773 425.4219 469.2408 426.7212 469.9883 427.7985 471.2186 433.1747 466.4204 435.3481 466.2351 440.027 463.5439 440.7717 463.2156 441.7186 463.7711 446.3085 469.4753 451.0509 467.9128 461.4288 466.7477 461.6875 454.4436 459.6447 453.8938 461.8171 448.1943 462.2351 447.1917 461.5089 447.351 458.7506 446.2627 456.4572 438.4999 455.4137 436.2495 456.3785 434.3491 459.1829 431.2839 460.5613 426.0934 457.6585 419.1437 459.3608 414.385 462.0631 412.2524 462.3592 409.1634 461.5118 408.5018 457.5776 403.9198 453.9447 402.5205 450.6771 401.2927 450.0232 399.1959 450.3599 398.9566 452.5161 396.5633 454.0602 378.803 454.095 375.9292 448.1584 377.3155 443.3232 375.8906 438.4268 372.8357 434.5843 378.1526 433.0811 379.4842 430.756 382.4441 432.041 385.6674 431.6965 387.4099 426.0584 386.2781 424.5458 387.4897 422.4994 388.2298 418.8137 394.2794 420.5276 396.0479 422.6429 402.0378 424.9459 403.7929 425.249 412.6264 423.0472 416.1981 419.3109 415.8146 418.242 413.4085 417.8568 416.4598 410.3763 415.5682 408.6955 416.3631 405.9406 415.6526 402.3739 417.2168 400.7096 416.3989 396.7665 417.9908 393.4139 419.5917 392.8726 423.2442 394.4668 428.6094 391.5879 431.7331 394.3434 431.7612 396.5933 433.3321 398.4122 Z" id="UZ.SA" fill="#cee3f5" stroke="#6e6e6e" stroke-width="0.4">
      <desc>
        <labelrank>4</labelrank>
        <code_hasc>UZ.SA</code_hasc>
        <name>Samarkand</name>
        <admin>Uzbekistan</admin>
        <type_en>Region</type_en>
        <region/>
        <woe_id>20070173</woe_id>
        <longitude>66</longitude>
        <woe_name>Samarkand</woe_name>
        <fips>UZ10</fips>
        <woe_label>Samarqand, UZ, Uzbekistan</woe_label>
        <latitude>39</latitude>
        <iso_a2>UZ</iso_a2>
        <postal>SA</postal>
        <type>Wiloyat</type>
        <id>UZ.SA</id>
      </desc>
    </path>
    <path d="M 466.7477 461.6875 466.1942 462.607 466.5707 465.4933 467.7969 466.5279 472.9309 468.0787 476.3352 468.0359 478.8197 469.6346 480.0674 469.558 480.6607 476.4574 479.3247 477.3063 475.7651 477.7575 474.2869 479.0975 474.9349 483.0906 476.2188 485.3895 476.5194 489.1858 475.5459 492.7702 472.0893 491.4711 469.7309 492.5899 466.8363 498.4777 463.4654 500.4606 460.2821 504.6294 459.1397 510.6096 454.1123 515.1743 449.4144 517.3762 447.1585 522.5914 441.8543 528.0967 441.2983 531.8435 439.4551 534.0403 438.8805 532.5993 437.3996 531.6282 434.1943 530.5626 429.6144 530.317 425.2416 528.4587 421.8974 524.9034 417.7189 523.6233 413.8153 521.0203 411.0065 520.6622 406.6794 518.7378 404.0553 519.182 400.9865 521.5351 398.092 521.8555 395.2096 520.9862 378.067 510.0426 368.2813 501.539 353.7301 494.7505 344.7699 487.4545 342.345 484.4113 348.6807 478.1047 363.7563 472.0426 363.8727 470.7938 361.8478 468.0973 362.0041 466.5622 365.4973 462.4866 367.4244 461.8944 373.9435 455.6918 378.803 454.095 396.5633 454.0602 398.9566 452.5161 399.1959 450.3599 401.2927 450.0232 402.5205 450.6771 403.9198 453.9447 408.5018 457.5776 409.1634 461.5118 412.2524 462.3592 414.385 462.0631 419.1437 459.3608 426.0934 457.6585 431.2839 460.5613 434.3491 459.1829 436.2495 456.3785 438.4999 455.4137 446.2627 456.4572 447.351 458.7506 447.1917 461.5089 448.1943 462.2351 453.8938 461.8171 454.4436 459.6447 466.7477 461.6875 Z" id="UZ.QA" fill="#cee3f5" stroke="#6e6e6e" stroke-width="0.4">
      <desc>
        <labelrank>4</labelrank>
        <code_hasc>UZ.QA</code_hasc>
        <name>Kashkadarya</name>
        <admin>Uzbekistan</admin>
        <type_en>Region</type_en>
        <region/>
        <woe_id>2347664</woe_id>
        <longitude>66</longitude>
        <woe_name>Kashkadarya</woe_name>
        <fips>UZ08</fips>
        <woe_label>Qashqadaryo, UZ, Uzbekistan</woe_label>
        <latitude>38</latitude>
        <iso_a2>UZ</iso_a2>
        <postal>QA</postal>
        <type>Wiloyat</type>
        <id>UZ.QA</id>
      </desc>
    </path>
    <path d="M 439.4551 534.0403 441.2983 531.8435 441.8543 528.0967 447.1585 522.5914 449.4144 517.3762 454.1123 515.1743 459.1397 510.6096 460.2821 504.6294 463.4654 500.4606 466.8363 498.4777 469.7309 492.5899 472.0893 491.4711 475.5459 492.7702 476.5194 489.1858 476.2188 485.3895 474.9349 483.0906 474.2869 479.0975 475.7651 477.7575 479.3247 477.3063 480.6607 476.4574 481.4208 477.1375 486.8214 477.7267 492.2063 475.8978 495.2416 476.9329 497.6013 475.9491 498.6416 476.7658 501.5517 481.5444 502.051 483.788 500.6387 486.0632 497.7799 487.1134 498.3487 490.3716 496.843 492.3508 498.0401 500.6471 499.5034 502.8418 500.6013 506.8594 504.8327 511.8224 510.6248 515.7296 511.7432 517.3013 512.0515 519.3595 510.6598 525.5706 507.9932 531.7135 502.7369 534.1934 500.1041 542.2997 491.3333 555.2727 490.2543 560.8971 491.5844 567.3461 490.1763 573.5744 488.6095 571.4724 485.634 571.3984 483.6777 570.3913 481.9424 570.8458 480.6875 572.374 479.039 569.6033 478.0297 569.1638 473.3843 572.7365 467.8024 574.8435 466.8245 574.4971 464.5676 571.0586 461.7465 569.9077 460.4978 566.811 456.4801 564.6298 444.9271 566.2372 443.2188 567.3734 438.6484 566.2035 435.7036 566.5449 434.6135 565.7666 436.6858 561.8558 434.2717 558.1101 435.1595 552.542 434.8286 544.0964 439.8918 535.1348 439.4551 534.0403 Z" id="UZ.SU" fill="#cee3f5" stroke="#6e6e6e" stroke-width="0.4">
      <desc>
        <labelrank>4</labelrank>
        <code_hasc>UZ.SU</code_hasc>
        <name>Surkhandarya</name>
        <admin>Uzbekistan</admin>
        <type_en>Region</type_en>
        <region/>
        <woe_id>2347668</woe_id>
        <longitude>67</longitude>
        <woe_name>Surkhandarya</woe_name>
        <fips>UZ12</fips>
        <woe_label>Surkhondaryo, UZ, Uzbekistan</woe_label>
        <latitude>37</latitude>
        <iso_a2>UZ</iso_a2>
        <postal>SU</postal>
        <type>Wiloyat</type>
        <id>UZ.SU</id>
      </desc>
    </path>
    <path d="M 635.2297 369.2859 636.2931 368.0132 634.8867 365.7648 637.1615 362.8169 641.2665 361.2686 642.6876 361.8109 644.767 360.6363 647.7546 360.2972 653.9519 361.0436 657.6499 360.3076 658.3363 359.7255 658.977 354.252 662.7164 352.9185 664.1635 350.0826 667.0157 352.5357 670.6231 352.8616 670.9072 354.9103 673.5251 355.3873 676.9922 359.162 678.6507 359.6807 687.256 358.8777 687.6045 361.3396 692.7186 357.9223 694.9752 359.5052 698.658 359.2114 699 360.2698 696.1322 363.3944 689.2019 367.8606 684.9745 369.7228 684.1654 371.3325 684.088 374.9697 682.9546 375.653 680.6235 375.2089 680.3313 377.7241 679.4337 379.0013 677.8158 379.2748 674.7077 377.6075 671.8584 377.1103 668.8397 374.6261 667.6834 375.3037 668.6838 377.6013 668.6743 380.0719 671.5549 382.6424 671.3522 385.3083 669.6916 386.8491 665.3271 385.2262 662.9367 385.3942 664.919 383.7219 663.4294 383.494 663.4234 383.4755 663.4233 383.4751 663.3465 383.2336 662.8599 382.0352 662.6863 381.3037 662.6599 378.3718 661.9542 377.6515 659.2855 377.2355 657.4243 375.5827 655.9821 376.7322 653.4555 376.4632 651.4764 376.0199 649.5102 376.447 648.5229 376.3892 648.1291 376.3016 645.0939 373.1291 644.6151 372.9123 642.4026 372.3959 641.7385 372.4134 641.1069 372.6926 640.6964 372.6859 638.5443 372.1179 638.3132 372.3048 638.3376 373.26 638.156 373.1728 637.693 372.6341 635.2297 369.2859 Z" id="UZ.AN" fill="#cee3f5" stroke="#6e6e6e" stroke-width="0.4">
      <desc>
        <labelrank>7</labelrank>
        <code_hasc>UZ.AN</code_hasc>
        <name>Andijon</name>
        <admin>Uzbekistan</admin>
        <type_en>Region</type_en>
        <region/>
        <woe_id>2347659</woe_id>
        <longitude>72</longitude>
        <woe_name>Andijon</woe_name>
        <fips>UZ01</fips>
        <woe_label>Andijon, UZ, Uzbekistan</woe_label>
        <latitude>40</latitude>
        <iso_a2>UZ</iso_a2>
        <postal>AN</postal>
        <type>Wiloyat</type>
        <id>UZ.AN</id>
      </desc>
    </path>
    <path d="M 647.0664 415.3871 644.5071 415.0559 643.0726 413.7665 647.7724 410.6167 647.0664 415.3871 Z M 622.0417 410.202 624.2115 409.186 625.1035 409.7051 622.5038 412.8056 622.7281 414.185 624.73 415.974 624.422 418.3297 619.9526 419.46 619.0331 418.032 618.2427 418.0647 616.1936 419.2468 616.0019 417.8869 617.5177 414.9477 617.1875 413.3989 614.9852 412.6858 613.2331 409.9077 612.8937 408.1667 613.6101 405.46 614.8413 404.6347 615.8274 405.133 618.1272 408.6214 622.0417 410.202 Z M 610.7929 372.3231 612.1144 372.388 616.7119 371.7104 614.4411 375.4954 614.6906 375.7047 616.3067 375.7342 616.6247 375.853 618.2143 377.1023 623.3353 378.9681 624.257 378.693 626.6919 375.917 628.525 373.0649 631.9601 370.7418 635.2297 369.2859 637.693 372.6341 638.156 373.1728 638.3376 373.26 638.3132 372.3048 638.5443 372.1179 640.6964 372.6859 641.1069 372.6926 641.7385 372.4134 642.4026 372.3959 644.6151 372.9123 645.0939 373.1291 648.1291 376.3016 648.5229 376.3892 649.5102 376.447 651.4764 376.0199 653.4555 376.4632 655.9821 376.7322 657.4243 375.5827 659.2855 377.2355 661.9542 377.6515 662.6599 378.3718 663.4294 383.494 661.5666 383.7886 660.8939 384.0417 658.3179 385.8348 657.4163 389.0218 653.0674 392.3872 653.2909 393.9471 655.9795 395.182 656.0443 396.1914 648.4818 396.4623 646.3588 400.4333 643.1605 402.8563 642.2893 402.5747 641.352 398.5116 639.8595 396.7909 638.7214 400.1823 635.7382 400.1833 633.8317 399.4424 632.1522 397.4291 628.8448 395.9433 625.4532 396.0317 624.1125 394.7488 622.244 398.206 616.1101 398.2095 613.7572 398.8382 612.4055 400.4888 607.9299 401.1393 602.2197 403.4614 598.719 403.799 596.9564 402.7512 594.0179 396.4014 590.6556 396.7097 587.6489 395.7944 588.0482 393.8798 586.5171 390.956 588.2308 388.97 591.3776 387.8757 593.095 384.9356 594.8284 384.0648 596.5944 381.666 600.9995 377.8668 601.2898 377.1529 601.8882 376.697 601.8909 376.673 602.8838 375.9202 603.2769 375.3871 603.6036 374.8025 604.0114 374.2693 606.9017 373.6763 608.6661 371.7769 609.4895 371.7061 610.7929 372.3231 Z" id="UZ.FA" fill="#cee3f5" stroke="#6e6e6e" stroke-width="0.4">
      <desc>
        <labelrank>4</labelrank>
        <code_hasc>UZ.FA</code_hasc>
        <name>Ferghana</name>
        <admin>Uzbekistan</admin>
        <type_en>Region</type_en>
        <region/>
        <woe_id>2347662</woe_id>
        <longitude>71</longitude>
        <woe_name>Ferghana</woe_name>
        <fips>UZ03</fips>
        <woe_label>Farghona, UZ, Uzbekistan</woe_label>
        <latitude>39</latitude>
        <iso_a2>UZ</iso_a2>
        <postal>FA</postal>
        <type>Wiloyat</type>
        <id>UZ.FA</id>
      </desc>
    </path>
    <path d="M 658.977 354.252 658.3363 359.7255 657.6499 360.3076 653.9519 361.0436 647.7546 360.2972 644.767 360.6363 642.6876 361.8109 641.2665 361.2686 637.1615 362.8169 634.8867 365.7648 636.2931 368.0132 635.2297 369.2859 631.9601 370.7418 628.525 373.0649 626.6919 375.917 624.257 378.693 623.3353 378.9681 618.2143 377.1023 616.6247 375.853 616.3067 375.7342 614.6906 375.7047 614.4411 375.4954 616.7119 371.7104 612.1144 372.388 610.7929 372.3231 608.6661 371.7769 606.9017 373.6763 604.0114 374.2693 603.6036 374.8025 603.2769 375.3871 602.8838 375.9202 601.8909 376.673 602.1331 374.3754 596.6786 373.0723 595.9669 372.3011 596.1113 370.6719 599.2758 371.8509 599.2681 370.8501 588.2239 360.5397 587.7036 354.1229 585.4331 351.0077 586.2849 347.5069 584.8148 346.8461 584.4154 345.1387 586.9379 339.5955 594.5867 335.3241 596.1557 336.5855 599.2605 341.3624 599.1359 345.8393 599.8601 347.4586 602.1634 346.6769 605.9126 349.372 610.4116 349.1335 614.5635 350.4566 617.134 352.9282 616.9943 349.0342 617.7897 348.4966 619.2853 349.091 621.0095 352.288 622.7756 349.7231 625.7861 351.8502 626.6209 350.976 626.6574 349.0892 625.5767 339.1446 630.0996 341.4523 632.4556 339.7605 633.9756 333.7619 631.9428 330.5728 632.9658 327.7894 634.7201 327.3852 635.7417 330.1902 635.4027 333.9322 636.2612 332.6535 637.4168 333.7676 638.2162 332.1632 642.9449 337.7055 644.7559 345.5188 645.8659 345.9236 649.0304 345.0374 651.5504 346.8712 654.3594 344.4142 656.4341 344.6578 658.2647 351.3773 657.7812 354.7591 658.977 354.252 Z M 596.2147 364.2046 594.7823 361.1726 591.9597 360.2445 594.6461 363.4891 596.2147 364.2046 Z" id="UZ.NG" fill="#cee3f5" stroke="#6e6e6e" stroke-width="0.4">
      <desc>
        <labelrank>7</labelrank>
        <code_hasc>UZ.NG</code_hasc>
        <name>Namangan</name>
        <admin>Uzbekistan</admin>
        <type_en>Region</type_en>
        <region/>
        <woe_id>2347666</woe_id>
        <longitude>71</longitude>
        <woe_name>Namangan</woe_name>
        <fips>TI04</fips>
        <woe_label>Namangan, UZ, Uzbekistan</woe_label>
        <latitude>40</latitude>
        <iso_a2>UZ</iso_a2>
        <postal>NG</postal>
        <type>Wiloyat</type>
        <id>UZ.NG</id>
      </desc>
    </path>
    <path d="M 469.4753 451.0509 463.7711 446.3085 463.2156 441.7186 463.5439 440.7717 466.2351 440.027 466.4204 435.3481 471.2186 433.1747 469.9883 427.7985 469.2408 426.7212 457.5773 425.4219 454.2825 424.6775 453.7561 423.8736 452.8364 424.2298 451.329 422.7034 451.0466 420.5712 447.7875 420.9202 447.1661 417.7346 448.5528 416.6949 448.6797 414.9582 447.4952 413.6289 447.2963 411.8901 445.6268 410.5847 444.7893 406.932 445.2358 401.0208 444.5949 399.3446 433.3321 398.4122 440.0993 383.069 438.6454 380.3495 438.3734 377.1206 434.4179 376.104 432.9833 374.8001 431.7865 366.8138 432.5735 365.2754 437.4583 362.8652 439.8125 363.3679 477.5349 359.2376 481.1344 360.5051 485.1605 357.9357 488.0831 362.3321 489.5809 366.1724 490.5471 365.4679 491.5213 366.0596 492.0136 364.8229 492.8776 364.6859 493.5619 366.6441 492.3268 367.5795 493.2506 368.5913 493.328 370.1231 491.9893 375.175 488.526 378.7056 491.721 379.7658 495.6683 383.2452 500.2436 386.0119 499.7681 388.7889 497.0185 389.4645 496.7899 389.5809 496.609 389.7502 496.5299 390.0291 496.5543 391.3093 496.4029 393.3208 496.5102 393.5929 496.7442 393.7795 498.5271 393.3277 498.6774 393.9994 494.4806 405.3875 494.2916 406.9874 494.5418 408.4451 494.741 408.8678 495.0072 409.2671 495.1719 409.4607 496.3114 409.5784 505.676 409.2286 517.8086 405.4112 518.0418 405.5216 516.6879 409.8197 517.2399 410.7399 517.2536 410.7529 517.2703 410.7689 514.7993 411.9752 517.8553 414.1237 519.3479 414.5909 519.7343 414.4895 518.1224 416.9367 517.5566 418.1355 517.4213 418.736 518.6974 423.0416 518.6821 424.8238 518.553 425.1203 517.2558 425.0576 517.3524 425.2632 517.5563 425.4341 518.3233 425.8604 518.5392 426.018 518.674 426.2156 518.6359 426.5271 518.5319 426.9181 518.3438 427.4035 518.313 428.7883 517.7247 428.746 517.3697 429.927 517.498 438.608 516.8641 441.0036 513.7139 444.1949 514.2236 445.1938 510.9137 446.4538 506.8138 446.7472 503.3466 445.7327 497.1174 445.9004 480.7769 443.0677 475.5391 446.6067 472.2446 447.2963 471.4625 448.1389 471.737 450.7023 469.4753 451.0509 Z" id="UZ.JI" fill="#cee3f5" stroke="#6e6e6e" stroke-width="0.4">
      <desc>
        <labelrank>4</labelrank>
        <code_hasc>UZ.JI</code_hasc>
        <name>Jizzakh</name>
        <admin>Uzbekistan</admin>
        <type_en>Region</type_en>
        <region/>
        <woe_id>2347661</woe_id>
        <longitude>67</longitude>
        <woe_name>Jizzakh</woe_name>
        <fips>UZ04</fips>
        <woe_label>Jizzakh, UZ, Uzbekistan</woe_label>
        <latitude>40</latitude>
        <iso_a2>UZ</iso_a2>
        <postal>JI</postal>
        <type>Wiloyat</type>
        <id>UZ.JI</id>
      </desc>
    </path>
    <path d="M 531.7785 414.7754 531.475 416.2423 527.5146 416.1866 524.7965 418.0877 523.0669 415.9913 522.5962 417.0137 523.6539 418.4298 523.9728 420.5625 527.9403 425.3396 528.158 426.5234 526.4471 427.3743 523.6617 421.9061 522.7607 421.3656 524.2819 426.5962 523.1326 427.9745 522.8606 429.6829 522.0305 429.8004 520.0992 427.6038 518.313 428.7883 518.3438 427.4035 518.5319 426.9181 518.6359 426.5271 518.674 426.2156 518.5392 426.018 518.3233 425.8604 517.5563 425.4341 517.3524 425.2632 517.2558 425.0576 517.2741 424.8378 517.5946 424.6156 518.553 425.1203 518.6821 424.8238 518.6974 423.0416 517.4213 418.736 517.5566 418.1355 518.1224 416.9367 519.7343 414.4895 529.258 411.9741 531.2718 413.2294 531.7785 414.7754 Z M 517.4379 371.7335 517.873 373.9226 518.099 374.0471 518.4415 373.7544 518.618 373.7372 518.7617 374.0886 518.9554 375.0078 519.6013 374.695 520.5092 374.7953 521.4223 375.1318 522.0653 375.539 523.3256 377.262 525.2161 378.2582 525.9348 379.3635 525.9887 379.5967 525.955 380.2288 526.0089 380.4621 526.2991 380.71 527.171 380.7179 528.2553 381.8204 527.9047 383.2796 528.5619 383.614 529.1238 383.389 529.6679 382.9672 530.2766 382.7164 529.984 384.6109 531.6853 384.1597 532.4439 384.1701 534.0458 386.5401 533.2996 387.7 533.3124 388.0991 533.6432 388.2728 534.8073 387.2246 535.1893 387.3694 535.4717 387.7317 535.5151 388.1106 534.5152 388.6485 534.1753 389.4179 533.8452 391.3768 534.3012 391.295 534.7437 391.295 535.16 391.4083 535.552 391.6598 534.8089 392.1435 534.9238 392.5719 535.3822 392.9512 535.6644 393.2759 535.9583 394.1643 536.0596 394.6409 535.9202 395.1162 534.985 396.8956 534.3845 402.2502 535.5021 404.9022 535.0624 407.0762 534.8938 407.7944 534.8904 407.8091 533.544 407.2416 532.5956 407.1502 525.9708 408.6374 523.7966 409.9454 520.4293 409.8749 517.2703 410.7689 517.2536 410.7529 517.2399 410.7399 516.6879 409.8197 518.0418 405.5216 517.8086 405.4112 505.676 409.2286 496.3114 409.5784 495.1719 409.4607 495.0072 409.2671 494.741 408.8678 494.5418 408.4451 494.2916 406.9874 494.4806 405.3875 498.6774 393.9994 498.5271 393.3277 496.7442 393.7795 496.5102 393.5929 496.4029 393.3208 496.5543 391.3093 496.5299 390.0291 496.609 389.7502 496.7899 389.5809 497.0185 389.4645 499.7681 388.7889 500.2791 388.182 500.2436 386.0119 508.4853 389.7131 510.5409 387.7271 513.8063 388.5787 514.6423 388.0073 514.8488 387.2866 514.0336 386.9181 514.9815 384.8575 514.0791 382.2915 512.6268 381.9163 511.9296 380.5151 511.233 376.0474 512.0154 374.0868 511.8279 371.7786 512.5966 372.1027 512.9619 370.8147 514.8975 369.5238 517.0833 371.2872 517.4379 371.7335 Z" id="UZ.SI" fill="#cee3f5" stroke="#6e6e6e" stroke-width="0.4">
      <desc>
        <labelrank>4</labelrank>
        <code_hasc>UZ.SI</code_hasc>
        <name>Sirdaryo</name>
        <admin>Uzbekistan</admin>
        <type_en>Region</type_en>
        <region/>
        <woe_id>2347669</woe_id>
        <longitude>68</longitude>
        <woe_name>Sirdaryo</woe_name>
        <fips>UZ11</fips>
        <woe_label>Sirdaryo, UZ, Uzbekistan</woe_label>
        <latitude>39</latitude>
        <iso_a2>UZ</iso_a2>
        <postal>SI</postal>
        <type>Wiloyat</type>
        <id>UZ.SI</id>
      </desc>
    </path>
    <path d="M 586.9379 339.5955 584.4154 345.1387 584.8148 346.8461 586.2849 347.5069 585.4331 351.0077 587.7036 354.1229 588.2239 360.5397 585.8004 359.4358 584.305 359.9711 583.6589 365.7307 581.6194 368.5655 574.7204 372.6165 571.1004 375.898 562.8937 379.3782 559.6804 383.3726 558.6111 383.7922 556.7642 382.9923 550.6002 376.5858 546.75 375.275 544.2859 376.7439 542.8156 379.6061 543.1336 386.7871 540.1008 387.5729 538.7061 388.6839 544.2464 400.3616 544.1309 403.0136 540.1282 403.0548 540.4099 404.6299 543.5939 407.1094 543.6842 408.3802 542.1876 409.2001 540.1336 409.2777 534.8904 407.8091 534.8938 407.7944 535.0624 407.0762 535.5021 404.9022 534.3845 402.2502 534.985 396.8956 535.3903 395.9196 536.0596 394.6409 535.9583 394.1643 535.7773 393.7043 535.6644 393.2759 535.3822 392.9512 534.9238 392.5719 534.8089 392.1435 535.552 391.6598 535.16 391.4083 534.7437 391.295 534.3012 391.295 533.8452 391.3768 534.1753 389.4179 534.5152 388.6485 535.4717 387.7317 535.1893 387.3694 534.8073 387.2246 533.6432 388.2728 533.3124 388.0991 533.2996 387.7 534.0458 386.5401 532.4439 384.1701 529.984 384.6109 530.5642 383.4744 530.6789 382.9202 530.2766 382.7164 529.6679 382.9672 529.1238 383.389 528.5619 383.614 527.9047 383.2796 528.2553 381.8204 527.171 380.7179 526.2991 380.71 526.0089 380.4621 525.2161 378.2582 523.3256 377.262 522.0653 375.539 521.4223 375.1318 520.5092 374.7953 519.6013 374.695 518.9554 375.0078 518.7617 374.0886 518.618 373.7372 518.4415 373.7544 518.099 374.0471 517.873 373.9226 517.4379 371.7335 517.0833 371.2872 514.8975 369.5238 517.227 367.6434 518.4378 363.248 519.4712 361.9145 522.1782 360.5018 523.5467 357.9598 526.0914 357.2819 529.4748 354.6816 530.0296 348.8887 528.8972 346.1856 529.3717 345.4945 531.9188 344.1554 532.6919 344.3989 533.9424 342.2101 536.0424 340.6566 537.9129 340.8169 540.576 339.3615 543.4637 339.3155 542.4186 337.0189 542.8377 335.5762 546.0922 333.8121 551.636 328.2486 563.0317 324.9423 565.205 321.9703 570.5215 318.2137 573.7618 312.0025 576.2777 310.1804 577.7528 306.3195 579.3394 304.687 583.6943 302.7176 586.5723 306.0701 588.4081 306.3797 589.6044 305.6687 593.7395 296.0973 598.0801 295.956 604.4523 290.204 607.0205 290.314 614.4616 294.1286 614.0579 296.1908 609.4632 298.6578 604.2111 303.4191 599.0088 304.6548 598.295 310.7225 591.8294 313.0492 586.5926 319.0241 584.8138 323.1575 573.9713 331.3162 573.2389 332.7772 574.1212 334.4473 575.6759 335.1055 581.4211 335.2596 583.7577 336.6193 585.5628 339.1086 586.9379 339.5955 Z M 533.5696 350.5124 534.2258 350.0575 535.7684 352.3735 536.3698 351.6578 536.7948 353.2849 538.0391 353.5125 542.6036 348.8984 541.364 347.0672 541.69 345.0969 537.8694 343.5739 536.5056 343.6874 534.516 346.0014 533.5696 350.5124 Z" id="UZ.TA" fill="#cee3f5" stroke="#6e6e6e" stroke-width="0.4">
      <desc>
        <labelrank>7</labelrank>
        <code_hasc>UZ.TA</code_hasc>
        <name>Tashkent</name>
        <admin>Uzbekistan</admin>
        <type_en>Region</type_en>
        <region/>
        <woe_id>2347670</woe_id>
        <longitude>69</longitude>
        <woe_name>Tashkent</woe_name>
        <fips>UZ14</fips>
        <woe_label>Toshkent, UZ, Uzbekistan</woe_label>
        <latitude>41</latitude>
        <iso_a2>UZ</iso_a2>
        <postal>TA</postal>
        <type>Wiloyat</type>
        <id>UZ.TA</id>
      </desc>
    </path>
    <path d="M 533.5696 350.5124 534.516 346.0014 536.5056 343.6874 537.8694 343.5739 541.69 345.0969 541.364 347.0672 542.6036 348.8984 538.0391 353.5125 536.7948 353.2849 536.3698 351.6578 535.7684 352.3735 534.2258 350.0575 533.5696 350.5124 Z" id="UZ.TK" fill="#cee3f5" stroke="#6e6e6e" stroke-width="0.4">
      <desc>
        <labelrank>7</labelrank>
        <code_hasc>UZ.TK</code_hasc>
        <name>Tashkent</name>
        <admin>Uzbekistan</admin>
        <type_en>Region</type_en>
        <region/>
        <woe_id>20070172</woe_id>
        <longitude>69</longitude>
        <woe_name>Tashkent</woe_name>
        <fips>UZ13</fips>
        <woe_label>Toshkent, UZ, Uzbekistan</woe_label>
        <latitude>41</latitude>
        <iso_a2>UZ</iso_a2>
        <postal>TK</postal>
        <type>Wiloyat</type>
        <id>UZ.TK</id>
      </desc>
    </path>
  </g>
</svg>