<?xml version="1.0" encoding="UTF-8"?>
<svg xmlns="http://www.w3.org/2000/svg" width="700" height="700">
  <g id="united_republic_of_tanzania">
    <path d="M 261.9251 386.6767 268.2705 399.6215 280.4538 409.2665 282.7382 417.6425 290.6065 421.7036 293.1447 423.988 285.0225 438.2018 285.2764 442.5167 320.0495 441.7553 351.5229 449.116 351.7767 452.4156 361.168 455.2076 353.2996 460.5378 347.9695 470.1829 339.0858 477.7975 340.3549 490.996 338.832 495.0571 332.9942 496.8338 324.1105 504.956 301.2669 505.4636 295.6829 509.0171 291.1142 507.4942 285.0225 510.2862 281.4691 516.124 286.5455 527.0382 284.7687 529.0687 299.2364 547.8513 295.1753 545.8207 291.8756 548.8665 291.6218 557.2425 288.8298 560.796 277.6618 552.42 259.1331 554.7044 250.5033 546.5822 238.5738 546.5822 229.944 539.7291 226.6444 541.5058 213.6996 533.6375 201.2625 532.1145 195.4247 524.7538 183.4953 524.2462 177.9113 520.1851 178.1651 512.5705 169.5353 502.164 182.2262 494.8033 186.7949 488.7116 186.2873 474.7516 188.5716 471.9596 200.2473 466.6295 203.2931 475.7669 208.6233 482.3662 215.984 482.62 215.4764 478.5589 197.9629 456.2229 169.5353 439.7247 168.2662 437.6942 172.5811 427.2876 174.8655 423.7342 181.2109 421.4498 183.4953 416.8811 186.0335 403.4287 203.5469 396.8295 212.1767 396.3218 218.5222 386.9305 233.7513 381.8542 248.4727 387.4382 261.9251 386.6767 Z" id="TZ.MB" fill="#cee3f5" stroke="#6e6e6e" stroke-width="0.4">
      <desc>
        <labelrank>6</labelrank>
        <code_hasc>TZ.MB</code_hasc>
        <name>Mbeya</name>
        <admin>United Republic of Tanzania</admin>
        <type_en>Region</type_en>
        <region/>
        <woe_id>2347360</woe_id>
        <longitude>33</longitude>
        <woe_name>Mbeya</woe_name>
        <fips>TZ09</fips>
        <woe_label>Mbeya, TZ, Tanzania</woe_label>
        <latitude>-8</latitude>
        <iso_a2>TZ</iso_a2>
        <postal>MB</postal>
        <type>Mkoa</type>
        <id>TZ.MB</id>
      </desc>
    </path>
    <path d="M 169.5353 439.7247 197.9629 456.2229 215.4764 478.5589 215.984 482.62 208.6233 482.3662 203.2931 475.7669 200.2473 466.6295 188.5716 471.9596 186.2873 474.7516 186.7949 488.7116 182.2262 494.8033 169.5353 502.164 178.1651 512.5705 177.9113 520.1851 164.9665 519.6775 164.9665 511.5553 155.5753 509.0171 148.2145 510.2862 140.8538 503.9407 139.8385 497.0876 128.1629 489.9807 122.5789 492.2651 119.0255 489.4731 110.9033 491.7575 103.5425 487.6964 95.4204 477.5436 84.5062 448.6084 71.0538 427.7953 61.9164 399.6215 79.6836 386.9305 100.2429 384.1385 105.5731 386.1691 111.1571 403.9364 130.1935 405.4593 133.4931 409.5204 137.0465 434.6484 169.5353 439.7247 Z" id="TZ.RK" fill="#cee3f5" stroke="#6e6e6e" stroke-width="0.4">
      <desc>
        <labelrank>5</labelrank>
        <code_hasc>TZ.RK</code_hasc>
        <name>Rukwa</name>
        <admin>United Republic of Tanzania</admin>
        <type_en>Region</type_en>
        <region/>
        <woe_id>2347375</woe_id>
        <longitude>31</longitude>
        <woe_name>Rukwa</woe_name>
        <fips>TZ24</fips>
        <woe_label>Rukwa, TZ, Tanzania</woe_label>
        <latitude>-7</latitude>
        <iso_a2>TZ</iso_a2>
        <postal>RK</postal>
        <type>Mkoa</type>
        <id>TZ.RK</id>
      </desc>
    </path>
    <path d="M 627.4233 343.02 625.1389 329.8215 632.4996 327.5371 635.2916 331.852 634.2764 339.7204 636.8145 340.9895 639.6065 339.9742 639.3527 335.4055 643.6676 353.9342 637.576 355.9647 634.2764 346.5735 633.7687 350.6345 631.7382 350.3807 627.4233 343.02 Z" id="TZ.ZS" fill="#cee3f5" stroke="#6e6e6e" stroke-width="0.4">
      <desc>
        <labelrank>5</labelrank>
        <code_hasc>TZ.ZS</code_hasc>
        <name>Zanzibar South and Central</name>
        <admin>United Republic of Tanzania</admin>
        <type_en>Region</type_en>
        <region/>
        <woe_id>2347372</woe_id>
        <longitude>39</longitude>
        <woe_name>Zanzibar South and Central</woe_name>
        <fips>TZ21</fips>
        <woe_label>Zanzibar South and Central, TZ, Tanzania</woe_label>
        <latitude>-6</latitude>
        <iso_a2>TZ</iso_a2>
        <postal>ZS</postal>
        <type>Mkoa</type>
        <id>TZ.ZS</id>
      </desc>
    </path>
    <path d="M 254.0567 87.1713 263.9556 104.6847 280.9615 120.9291 274.8698 126.2593 270.5549 124.9902 263.7018 129.0513 264.7171 137.6811 258.1178 156.4636 244.9193 160.0171 242.6349 164.5858 238.5738 166.6164 229.4364 162.0476 222.8371 155.4484 217.5069 155.956 211.6691 159.5095 211.9229 167.3778 209.6385 167.3778 202.2778 162.5553 200.7549 151.6411 206.3389 136.9196 200.7549 132.3509 202.5316 127.5284 191.3636 121.1829 194.9171 114.8375 184.2567 113.0607 165.9818 101.1313 161.1593 85.9022 212.9382 43.2607 252.5338 43.5145 260.1484 46.5604 260.1484 60.0127 255.8335 58.236 253.0415 60.2665 249.2342 71.6884 251.2647 73.2113 260.656 69.1502 262.4327 71.9422 260.656 73.4651 267.5091 75.7495 266.24 78.5415 262.6865 78.2876 256.5949 74.988 255.3258 80.0644 249.2342 76.7647 249.488 80.0644 245.4269 79.3029 245.4269 85.6484 249.2342 83.6178 254.0567 87.1713 Z" id="TZ.MW" fill="#cee3f5" stroke="#6e6e6e" stroke-width="0.4">
      <desc>
        <labelrank>7</labelrank>
        <code_hasc>TZ.MW</code_hasc>
        <name>Mwanza</name>
        <admin>United Republic of Tanzania</admin>
        <type_en>Region</type_en>
        <region/>
        <woe_id>2347363</woe_id>
        <longitude>32</longitude>
        <woe_name>Mwanza</woe_name>
        <fips>TZ12</fips>
        <woe_label>Mwanza, TZ, Tanzania</woe_label>
        <latitude>-2</latitude>
        <iso_a2>TZ</iso_a2>
        <postal>MW</postal>
        <type>Mkoa</type>
        <id>TZ.MW</id>
      </desc>
    </path>
    <path d="M 258.1178 156.4636 274.3622 166.3625 281.9767 165.6011 288.576 171.6927 304.3127 173.9771 311.1658 190.4753 320.3033 199.6127 312.4349 204.4353 306.5971 206.4658 295.4291 203.9276 288.576 199.6127 274.1084 197.836 269.032 194.5364 255.8335 195.044 239.5891 199.6127 230.4516 196.0593 223.0909 196.5669 213.6996 200.8818 213.4458 207.7349 209.6385 211.2884 214.7149 214.588 213.6996 217.8876 206.0851 219.9182 205.3236 215.8571 202.024 213.5727 198.2167 215.0956 194.4095 225.756 182.2262 221.9487 166.9971 229.0556 166.2356 211.0345 162.4284 207.9887 149.4836 204.4353 149.4836 196.0593 158.6211 185.9065 177.1498 181.5916 176.1345 164.0782 180.1956 156.4636 184.5105 154.1793 190.6022 159.2556 194.9171 154.1793 200.7549 151.6411 202.2778 162.5553 209.6385 167.3778 211.9229 167.3778 211.6691 159.5095 217.5069 155.956 222.8371 155.4484 229.4364 162.0476 238.5738 166.6164 242.6349 164.5858 244.9193 160.0171 258.1178 156.4636 Z" id="TZ.SH" fill="#cee3f5" stroke="#6e6e6e" stroke-width="0.4">
      <desc>
        <labelrank>6</labelrank>
        <code_hasc>TZ.SH</code_hasc>
        <name>Shinyanga</name>
        <admin>United Republic of Tanzania</admin>
        <type_en>Region</type_en>
        <region/>
        <woe_id>2347366</woe_id>
        <longitude>33</longitude>
        <woe_name>Shinyanga</woe_name>
        <fips>TZ15</fips>
        <woe_label>Shinyanga, TZ, Tanzania</woe_label>
        <latitude>-3</latitude>
        <iso_a2>TZ</iso_a2>
        <postal>SH</postal>
        <type>Mkoa</type>
        <id>TZ.SH</id>
      </desc>
    </path>
    <path d="M 312.4349 204.4353 310.6582 211.2884 305.328 212.0498 291.8756 233.1167 290.6065 238.7007 289.8451 274.2353 308.8815 289.2105 297.9673 302.1553 301.2669 307.9931 297.9673 313.0695 294.4138 331.852 295.4291 341.2433 264.2095 366.6251 264.7171 381.0927 261.9251 386.6767 248.4727 387.4382 233.7513 381.8542 218.5222 386.9305 212.1767 396.3218 203.5469 396.8295 205.5775 370.94 207.3542 365.356 214.7149 356.7262 213.6996 352.6651 201.0087 350.1269 195.9324 343.7815 181.7185 334.1364 171.8196 313.0695 158.1135 309.516 145.4225 316.6229 123.3404 315.1 120.0407 311.5465 115.472 312.308 114.7105 304.9473 108.1113 300.1247 110.1418 296.0636 120.5484 291.7487 118.264 281.596 121.8175 265.8593 120.2945 262.3058 130.4473 254.9451 130.7011 246.5691 135.2698 244.5385 136.7927 240.9851 132.224 224.4869 136.0313 217.6338 148.976 215.3495 146.184 210.0193 149.4836 204.4353 162.4284 207.9887 166.2356 211.0345 166.9971 229.0556 182.2262 221.9487 194.4095 225.756 198.2167 215.0956 202.024 213.5727 205.3236 215.8571 206.0851 219.9182 213.6996 217.8876 214.7149 214.588 209.6385 211.2884 213.4458 207.7349 213.6996 200.8818 223.0909 196.5669 230.4516 196.0593 239.5891 199.6127 255.8335 195.044 269.032 194.5364 274.1084 197.836 288.576 199.6127 295.4291 203.9276 306.5971 206.4658 312.4349 204.4353 Z" id="TZ.TB" fill="#cee3f5" stroke="#6e6e6e" stroke-width="0.4">
      <desc>
        <labelrank>6</labelrank>
        <code_hasc>TZ.TB</code_hasc>
        <name>Tabora</name>
        <admin>United Republic of Tanzania</admin>
        <type_en>Region</type_en>
        <region/>
        <woe_id>2347368</woe_id>
        <longitude>32</longitude>
        <woe_name>Tabora</woe_name>
        <fips>TZ17</fips>
        <woe_label>Tabora, TZ, Tanzania</woe_label>
        <latitude>-6</latitude>
        <iso_a2>TZ</iso_a2>
        <postal>TB</postal>
        <type>Mkoa</type>
        <id>TZ.TB</id>
      </desc>
    </path>
    <path d="M 214.2073 14.0716 212.9382 43.2607 161.1593 85.9022 153.0371 87.9327 151.768 94.2782 145.9302 98.8469 128.9244 93.2629 116.4873 94.2782 107.3498 110.0149 100.4967 113.3145 98.2124 119.66 104.304 125.244 105.0655 129.3051 94.6589 138.6964 83.4909 137.6811 77.1455 133.1124 74.0996 135.9044 69.5309 130.0665 76.1302 117.3756 69.2771 118.6447 75.3687 105.7 78.1607 101.6389 83.4909 101.6389 85.7753 98.5931 91.1055 100.6236 95.6742 98.3393 98.9738 81.8411 94.6589 77.78 95.1665 72.4498 93.3898 72.196 95.928 66.3582 95.4204 51.1291 93.136 50.8753 89.8364 44.5298 89.5825 39.4535 78.1607 33.8695 75.3687 24.4782 72.5767 23.7167 73.0844 17.8789 83.4909 18.3865 92.1207 13.0564 214.2073 14.0716 Z" id="TZ.KR" fill="#cee3f5" stroke="#6e6e6e" stroke-width="0.4">
      <desc>
        <labelrank>5</labelrank>
        <code_hasc>TZ.KR</code_hasc>
        <name>Kagera</name>
        <admin>United Republic of Tanzania</admin>
        <type_en>Region</type_en>
        <region/>
        <woe_id>2347370</woe_id>
        <longitude>31</longitude>
        <woe_name>Kagera</woe_name>
        <fips>TZ19</fips>
        <woe_label>Kagera, TZ, Tanzania</woe_label>
        <latitude>-1</latitude>
        <iso_a2>TZ</iso_a2>
        <postal>KR</postal>
        <type>Mkoa</type>
        <id>TZ.KR</id>
      </desc>
    </path>
    <path d="M 132.224 224.4869 136.7927 240.9851 135.2698 244.5385 130.7011 246.5691 130.4473 254.9451 120.2945 262.3058 121.8175 265.8593 118.264 281.596 120.5484 291.7487 110.1418 296.0636 103.5425 281.0884 98.9738 284.6418 89.0749 276.7735 69.0233 276.7735 60.3935 284.8956 43.8953 285.9109 42.6262 287.18 50.7484 297.5865 54.8095 321.4455 62.424 338.9589 67.2465 343.02 68.008 352.1575 62.1702 356.2185 58.6167 364.0869 41.3571 378.0469 25.1127 366.3713 13.6909 344.7967 10.3913 327.7909 19.0211 309.0084 1 259.7676 6.0764 230.3247 26.6356 231.0862 29.9353 225.5022 43.6415 219.1567 62.9316 188.9524 67.2465 188.6985 66.7389 183.6222 70.5462 173.9771 83.4909 165.6011 81.2065 162.8091 83.4909 160.2709 93.6436 156.4636 95.6742 148.5953 92.1207 142.2498 94.6589 138.6964 105.0655 129.3051 110.3956 135.3967 106.3345 151.8949 109.6342 150.6258 112.9338 153.164 119.0255 168.3931 119.7869 179.3073 128.6705 194.7902 127.1476 212.0498 132.224 224.4869 Z" id="TZ.KM" fill="#cee3f5" stroke="#6e6e6e" stroke-width="0.4">
      <desc>
        <labelrank>7</labelrank>
        <code_hasc>TZ.KM</code_hasc>
        <name>Kigoma</name>
        <admin>United Republic of Tanzania</admin>
        <type_en>Region</type_en>
        <region/>
        <woe_id>2347356</woe_id>
        <longitude>30</longitude>
        <woe_name>Kigoma</woe_name>
        <fips>TZ05</fips>
        <woe_label>Kigoma, TZ, Tanzania</woe_label>
        <latitude>-4</latitude>
        <iso_a2>TZ</iso_a2>
        <postal>KM</postal>
        <type>Mkoa</type>
        <id>TZ.KM</id>
      </desc>
    </path>
    <path d="M 635.2916 401.652 633.7687 400.8905 633.5149 392.0069 630.4691 387.9458 623.616 387.4382 622.0931 389.4687 618.7935 391.2455 612.9556 393.7836 609.656 392.2607 612.7018 386.6767 613.9709 385.9153 614.7324 384.9 613.9709 383.3771 613.7171 382.3618 611.9404 381.0927 611.4327 379.0622 611.4327 377.7931 610.6713 377.0316 609.1484 377.0316 609.4022 376.0164 611.1789 373.732 613.4633 365.356 614.4785 364.3407 615.4938 363.0716 616.0015 362.564 616.2553 362.8178 617.7782 364.0869 621.3316 367.8942 623.3622 373.4782 625.6465 373.2244 625.6465 379.5698 637.3222 381.3465 642.6524 389.9764 642.3985 397.8447 639.3527 401.3982 638.0836 399.8753 635.2916 401.652 Z" id="TZ.DS" fill="#cee3f5" stroke="#6e6e6e" stroke-width="0.4">
      <desc>
        <labelrank>9</labelrank>
        <code_hasc>TZ.DS</code_hasc>
        <name>Dar-Es-Salaam</name>
        <admin>United Republic of Tanzania</admin>
        <type_en>Region</type_en>
        <region/>
        <woe_id>2347374</woe_id>
        <longitude>39</longitude>
        <woe_name>Dar-Es-Salaam</woe_name>
        <fips>TZ23</fips>
        <woe_label>Dar es Salaam, TZ, Tanzania</woe_label>
        <latitude>-6</latitude>
        <iso_a2>TZ</iso_a2>
        <postal>DS</postal>
        <type>Mkoa</type>
        <id>TZ.DS</id>
      </desc>
    </path>
    <path d="M 532.7491 320.9378 544.4247 339.7204 548.9935 343.2738 548.9935 348.3502 547.7244 357.9953 546.2015 361.8025 544.9324 363.0716 544.9324 364.3407 544.6785 364.3407 546.7091 367.8942 557.8771 371.7015 564.4764 370.94 563.2073 383.1233 565.7455 386.6767 575.3905 388.4535 576.4058 389.2149 576.6596 391.4993 577.6749 393.0222 576.152 396.3218 572.3447 401.652 567.5222 403.4287 565.7455 405.7131 564.2225 410.2818 568.2836 420.6884 568.0298 422.9727 551.5316 426.5262 547.2167 425.7647 541.6327 426.78 539.0945 427.5415 537.3178 429.3182 536.3025 441.7553 535.5411 442.5167 535.2873 443.0244 535.0335 443.0244 535.0335 443.2782 534.5258 443.7858 534.272 444.0396 533.7644 446.8316 533.5105 448.1007 533.2567 448.8622 532.7491 449.6236 532.4953 450.1313 531.7338 451.1465 531.48 451.908 527.6727 454.9538 526.4036 456.9844 525.1345 458.2535 524.8807 458.7611 524.8807 459.2687 524.8807 459.7764 522.5964 462.8222 522.3425 463.8375 522.0887 464.8527 521.0735 465.3604 519.8044 465.6142 519.0429 466.1218 518.5353 466.6295 516.2509 469.9291 515.4895 471.7058 514.728 472.9749 514.4742 473.9902 513.9665 474.4978 505.5905 484.3967 505.0829 486.1735 506.352 491.7575 501.7833 503.9407 502.5447 509.5247 502.5447 511.5553 504.3215 515.6164 503.8138 519.6775 505.5905 522.2156 505.0829 524.7538 501.5295 525.7691 498.7375 528.3073 491.6305 551.1509 486.808 552.42 474.3709 560.5422 461.4262 572.7255 451.5273 576.0251 449.7505 573.2331 455.3345 563.588 450.0044 550.3895 442.6436 561.5575 428.176 562.8265 425.384 560.2884 418.0233 566.6338 404.8247 566.6338 402.2865 564.6033 414.7236 543.0287 413.4545 527.5458 405.84 535.668 400.7636 537.1909 399.7484 531.3531 387.8189 521.9618 383.504 515.6164 379.9505 516.3778 377.6662 506.7327 378.4276 496.3262 396.4487 498.8644 398.9869 506.7327 402.0327 493.0265 414.216 484.6505 416.5004 478.0513 425.6378 468.4062 431.2218 464.8527 439.344 464.3451 441.6284 454.9538 451.7811 449.3698 463.2029 451.6542 467.7716 450.3851 473.1018 439.4709 480.4625 431.3487 471.0713 431.3487 469.0407 426.78 452.2887 421.7036 449.7505 413.5815 452.0349 411.2971 452.2887 399.3676 454.8269 393.7836 460.1571 390.484 461.9338 366.8789 463.7105 367.1327 467.7716 355.4571 473.6095 349.1116 471.8327 334.3902 473.8633 327.7909 486.3004 319.4149 487.3156 326.0142 490.8691 327.5371 490.1076 331.852 493.1535 334.644 505.0829 323.2222 507.1135 314.3385 515.7433 317.3844 522.0887 326.268 532.7491 320.9378 Z" id="TZ.MO" fill="#cee3f5" stroke="#6e6e6e" stroke-width="0.4">
      <desc>
        <labelrank>6</labelrank>
        <code_hasc>TZ.MO</code_hasc>
        <name>Morogoro</name>
        <admin>United Republic of Tanzania</admin>
        <type_en>Region</type_en>
        <region/>
        <woe_id>2347361</woe_id>
        <longitude>36</longitude>
        <woe_name>Morogoro</woe_name>
        <fips>TZ10</fips>
        <woe_label>Morogoro, TZ, Tanzania</woe_label>
        <latitude>-8</latitude>
        <iso_a2>TZ</iso_a2>
        <postal>MO</postal>
        <type>Mkoa</type>
        <id>TZ.MO</id>
      </desc>
    </path>
    <path d="M 661.6887 276.2658 658.8967 277.5349 657.6276 277.2811 657.12 274.7429 655.3433 274.7429 654.5818 274.9967 654.0742 274.7429 653.0589 275.5044 651.2822 273.4738 653.5665 269.9204 650.5207 267.636 650.7745 264.0825 653.0589 263.3211 650.5207 261.2905 651.0284 257.9909 659.6582 264.3364 662.704 259.0062 663.2116 264.0825 659.912 271.1895 660.6735 273.4738 662.1964 271.9509 662.1964 273.22 661.6887 275.5044 661.6887 276.2658 Z" id="TZ.PN" fill="#cee3f5" stroke="#6e6e6e" stroke-width="0.4">
      <desc>
        <labelrank>5</labelrank>
        <code_hasc>TZ.PN</code_hasc>
        <name>Kaskazini-Pemba</name>
        <admin>United Republic of Tanzania</admin>
        <type_en>Region</type_en>
        <region/>
        <woe_id>2347364</woe_id>
        <longitude>39</longitude>
        <woe_name>Kaskazini-Pemba</woe_name>
        <fips>TZ13</fips>
        <woe_label>Pemba North, TZ, Tanzania</woe_label>
        <latitude>-5</latitude>
        <iso_a2>TZ</iso_a2>
        <postal>PN</postal>
        <type>Mkoa</type>
        <id>TZ.PN</id>
      </desc>
    </path>
    <path d="M 658.8967 277.5349 659.912 276.7735 661.6887 276.2658 658.1353 290.4796 657.12 288.9567 653.8204 293.2716 654.328 292.0025 648.744 291.7487 648.9978 286.1647 651.7898 286.4185 649.7593 282.8651 657.12 279.8193 648.744 276.7735 654.8356 277.7887 654.328 277.2811 654.8356 276.012 654.5818 274.9967 655.3433 274.7429 657.12 274.7429 657.6276 277.2811 658.8967 277.5349 Z" id="TZ.PS" fill="#cee3f5" stroke="#6e6e6e" stroke-width="0.4">
      <desc>
        <labelrank>5</labelrank>
        <code_hasc>TZ.PS</code_hasc>
        <name>Kusini-Pemba</name>
        <admin>United Republic of Tanzania</admin>
        <type_en>Region</type_en>
        <region/>
        <woe_id>2347371</woe_id>
        <longitude>39</longitude>
        <woe_name>Kusini-Pemba</woe_name>
        <fips>TZ20</fips>
        <woe_label>Pemba South, TZ, Tanzania</woe_label>
        <latitude>-5</latitude>
        <iso_a2>TZ</iso_a2>
        <postal>PS</postal>
        <type>Mkoa</type>
        <id>TZ.PS</id>
      </desc>
    </path>
    <path d="M 655.0895 457.2382 652.0436 458.7611 654.5818 452.6695 658.1353 452.6695 655.0895 457.2382 Z M 664.2269 437.6942 659.6582 447.5931 655.3433 447.8469 649.7593 452.6695 644.9367 449.6236 651.536 445.0549 652.2975 441.7553 659.1505 439.7247 656.6124 438.9633 661.1811 436.6789 664.2269 430.3335 664.2269 437.6942 Z M 625.9004 472.9749 619.5549 470.9444 595.696 477.036 588.3353 476.2745 585.5433 482.3662 578.944 484.1429 576.9135 475.5131 563.4611 464.0913 544.6785 457.9996 541.6327 456.2229 532.7491 449.6236 533.2567 448.8622 533.5105 448.1007 533.7644 446.8316 534.272 444.0396 534.5258 443.7858 535.0335 443.2782 535.0335 443.0244 535.2873 443.0244 536.3025 441.7553 537.3178 429.3182 539.0945 427.5415 541.6327 426.78 547.2167 425.7647 568.0298 422.9727 568.2836 420.6884 564.2225 410.2818 565.7455 405.7131 567.5222 403.4287 572.3447 401.652 573.8676 399.1138 576.152 396.3218 577.6749 393.0222 576.4058 389.2149 575.3905 388.4535 565.7455 386.6767 563.2073 383.1233 564.4764 370.94 557.8771 371.7015 546.7091 367.8942 546.2015 366.3713 545.44 365.356 544.6785 364.3407 544.9324 363.0716 547.7244 357.9953 548.9935 348.3502 548.9935 343.2738 544.4247 339.7204 535.7949 323.2222 532.7491 320.9378 542.3942 318.3996 554.5775 318.6535 574.6291 329.06 590.3658 324.4913 595.4422 325.2527 594.1731 331.0905 599.2495 338.1975 599.5033 351.1422 603.5644 355.7109 610.6713 356.98 616.0015 362.564 615.4938 363.0716 614.4785 364.3407 613.4633 365.356 609.4022 376.0164 609.1484 377.0316 610.6713 377.0316 611.4327 377.7931 611.4327 379.0622 611.9404 381.0927 613.7171 382.3618 614.7324 384.9 613.9709 385.9153 612.7018 386.6767 609.656 392.2607 612.9556 393.7836 616.5091 390.484 618.7935 391.2455 623.616 387.4382 625.6465 387.1844 630.4691 387.9458 633.5149 392.0069 633.7687 400.8905 634.5302 400.6367 635.2916 401.652 631.2305 409.5204 628.6924 409.7742 630.2153 413.5815 625.3927 427.7953 626.9156 437.6942 623.8698 442.0091 628.6924 435.9175 629.4538 439.4709 635.7993 441.7553 634.5302 446.8316 635.5455 452.6695 636.8145 451.908 629.4538 466.1218 629.9615 470.4367 626.408 469.9291 625.9004 472.9749 Z" id="TZ.PW" fill="#cee3f5" stroke="#6e6e6e" stroke-width="0.4">
      <desc>
        <labelrank>5</labelrank>
        <code_hasc>TZ.PW</code_hasc>
        <name>Pwani</name>
        <admin>United Republic of Tanzania</admin>
        <type_en>Region</type_en>
        <region/>
        <woe_id>2347353</woe_id>
        <longitude>39</longitude>
        <woe_name>Pwani</woe_name>
        <fips>TZ02</fips>
        <woe_label>Pwani, TZ, Tanzania</woe_label>
        <latitude>-7</latitude>
        <iso_a2>TZ</iso_a2>
        <postal>PW</postal>
        <type>Mkoa</type>
        <id>TZ.PW</id>
      </desc>
    </path>
    <path d="M 632.4996 327.5371 620.5702 329.5676 620.0625 321.4455 625.6465 317.6382 627.6771 310.0236 630.4691 321.9531 632.4996 327.5371 Z" id="TZ.ZN" fill="#cee3f5" stroke="#6e6e6e" stroke-width="0.4">
      <desc>
        <labelrank>5</labelrank>
        <code_hasc>TZ.ZN</code_hasc>
        <name>Kaskazini-Unguja</name>
        <admin>United Republic of Tanzania</admin>
        <type_en>Region</type_en>
        <region/>
        <woe_id>2347373</woe_id>
        <longitude>39</longitude>
        <woe_name>Kaskazini-Unguja</woe_name>
        <fips>TZ22</fips>
        <woe_label>Zanzibar North, TZ, Tanzania</woe_label>
        <latitude>-5</latitude>
        <iso_a2>TZ</iso_a2>
        <postal>ZN</postal>
        <type>Mkoa</type>
        <id>TZ.ZN</id>
      </desc>
    </path>
    <path d="M 625.1389 329.8215 627.4233 343.02 625.1389 346.8273 619.0473 337.436 621.3316 334.644 620.5702 329.5676 625.1389 329.8215 Z" id="TZ.ZW" fill="#cee3f5" stroke="#6e6e6e" stroke-width="0.4">
      <desc>
        <labelrank>5</labelrank>
        <code_hasc>TZ.ZW</code_hasc>
        <name>Zanzibar West</name>
        <admin>United Republic of Tanzania</admin>
        <type_en>Region</type_en>
        <region/>
        <woe_id>2347376</woe_id>
        <longitude>39</longitude>
        <woe_name>Zanzibar West</woe_name>
        <fips>TZ25</fips>
        <woe_label>Zanzibar West, TZ, Tanzania</woe_label>
        <latitude>-6</latitude>
        <iso_a2>TZ</iso_a2>
        <postal>ZW</postal>
        <type>Mkoa</type>
        <id>TZ.ZW</id>
      </desc>
    </path>
    <path d="M 473.8633 327.7909 471.8327 334.3902 473.6095 349.1116 467.7716 355.4571 463.7105 367.1327 461.9338 366.8789 460.1571 390.484 454.8269 393.7836 452.2887 399.3676 452.0349 411.2971 449.7505 413.5815 447.9738 410.5356 440.3593 410.5356 435.0291 401.1444 426.6531 398.0985 401.5251 394.5451 384.7731 386.1691 368.2749 388.9611 362.1833 385.4076 360.9142 372.7167 368.7825 372.4629 370.5593 368.4018 371.0669 347.5887 368.7825 337.436 370.3055 324.4913 378.4276 308.7545 365.7367 290.2258 361.4218 274.2353 377.1585 261.5444 378.4276 255.7065 389.088 256.2142 397.9716 240.2236 397.2102 232.3553 408.632 224.7407 416.7542 224.2331 422.8458 218.1415 438.5825 213.5727 439.0902 232.3553 442.3898 244.5385 439.344 272.4585 434.7753 283.1189 435.0291 293.5255 447.72 307.4855 455.5884 311.8004 462.1876 321.9531 473.8633 327.7909 Z" id="TZ.DO" fill="#cee3f5" stroke="#6e6e6e" stroke-width="0.4">
      <desc>
        <labelrank>7</labelrank>
        <code_hasc>TZ.DO</code_hasc>
        <name>Dodoma</name>
        <admin>United Republic of Tanzania</admin>
        <type_en>Region</type_en>
        <region/>
        <woe_id>2347354</woe_id>
        <longitude>35</longitude>
        <woe_name>Dodoma</woe_name>
        <fips>TZ03</fips>
        <woe_label>Dodoma, TZ, Tanzania</woe_label>
        <latitude>-5</latitude>
        <iso_a2>TZ</iso_a2>
        <postal>DO</postal>
        <type>Mkoa</type>
        <id>TZ.DO</id>
      </desc>
    </path>
    <path d="M 362.1833 385.4076 368.2749 388.9611 384.7731 386.1691 401.5251 394.5451 426.6531 398.0985 435.0291 401.1444 440.3593 410.5356 447.9738 410.5356 449.7505 413.5815 452.2887 421.7036 469.0407 426.78 471.0713 431.3487 480.4625 431.3487 473.1018 439.4709 467.7716 450.3851 463.2029 451.6542 451.7811 449.3698 441.6284 454.9538 439.344 464.3451 431.2218 464.8527 425.6378 468.4062 416.5004 478.0513 414.216 484.6505 402.0327 493.0265 398.9869 506.7327 396.4487 498.8644 378.4276 496.3262 377.6662 506.7327 379.9505 516.3778 369.544 517.3931 363.4524 513.332 364.2138 502.164 349.2385 496.8338 349.2385 493.788 340.3549 490.996 339.0858 477.7975 347.9695 470.1829 353.2996 460.5378 361.168 455.2076 351.7767 452.4156 351.5229 449.116 320.0495 441.7553 285.2764 442.5167 285.0225 438.2018 293.1447 423.988 290.6065 421.7036 305.328 410.028 316.7498 410.7895 321.0647 403.9364 339.5935 400.1291 342.6393 389.7225 352.0305 383.3771 362.1833 385.4076 Z" id="TZ.IR" fill="#cee3f5" stroke="#6e6e6e" stroke-width="0.4">
      <desc>
        <labelrank>6</labelrank>
        <code_hasc>TZ.IR</code_hasc>
        <name>Iringa</name>
        <admin>United Republic of Tanzania</admin>
        <type_en>Region</type_en>
        <region/>
        <woe_id>2347355</woe_id>
        <longitude>35</longitude>
        <woe_name>Iringa</woe_name>
        <fips>TZ04</fips>
        <woe_label>Iringa, TZ, Tanzania</woe_label>
        <latitude>-7</latitude>
        <iso_a2>TZ</iso_a2>
        <postal>IR</postal>
        <type>Mkoa</type>
        <id>TZ.IR</id>
      </desc>
    </path>
    <path d="M 625.9004 472.9749 627.1695 484.9044 630.7229 491.5036 630.2153 497.8491 635.5455 500.3873 642.9062 511.0476 636.3069 506.9865 632.4996 509.5247 637.0684 509.5247 636.0531 511.0476 638.8451 512.0629 639.3527 523.4847 643.6676 521.708 648.4902 527.7996 648.4902 538.9676 643.6676 541.252 643.6676 543.7902 648.9978 543.7902 654.5818 557.7502 651.7898 562.5727 655.3433 562.8265 658.3891 567.3953 658.1353 570.4411 655.3433 570.9487 657.6276 573.7407 652.8051 575.5175 651.2822 581.3553 655.8509 577.548 663.9731 579.5785 669.3033 589.7313 652.2975 599.3764 650.7745 601.4069 650.2669 603.9451 649.2516 606.4833 651.2822 611.8135 649.7593 614.0978 647.7287 615.8745 639.3527 602.676 633.0073 599.6302 625.9004 602.4222 625.1389 603.9451 624.3775 606.4833 621.8393 606.9909 618.5396 602.9298 600.0109 612.5749 581.736 612.3211 564.984 619.1742 561.1767 622.9815 558.1309 627.5502 555.8465 629.0731 544.9324 629.8345 534.0182 609.7829 527.6727 605.2142 492.6458 596.8382 477.6705 591.2542 474.3709 588.4622 474.6247 584.1473 474.3709 579.5785 474.8785 575.7713 476.4015 572.2178 481.7316 567.6491 486.5542 562.3189 489.0924 558.5116 490.6153 554.7044 496.4531 535.9218 498.2298 532.1145 498.7375 528.3073 501.5295 525.7691 505.0829 524.7538 505.5905 522.2156 503.8138 519.6775 504.3215 515.6164 502.5447 511.5553 502.5447 509.5247 501.7833 503.9407 506.352 491.7575 506.6058 488.9655 505.0829 486.1735 505.5905 484.3967 512.4436 475.2593 513.9665 474.4978 514.4742 473.9902 514.728 472.9749 515.4895 471.7058 516.2509 469.9291 518.5353 466.6295 519.0429 466.1218 519.8044 465.6142 521.0735 465.3604 522.0887 464.8527 522.3425 463.8375 522.5964 462.8222 524.8807 459.7764 524.8807 459.2687 524.8807 458.7611 525.1345 458.2535 526.4036 456.9844 527.6727 454.9538 531.48 451.908 531.7338 451.1465 532.4953 450.1313 532.7491 449.6236 541.6327 456.2229 544.6785 457.9996 563.4611 464.0913 576.9135 475.5131 578.944 484.1429 585.5433 482.3662 588.3353 476.2745 595.696 477.036 619.5549 470.9444 625.9004 472.9749 Z" id="TZ.LI" fill="#cee3f5" stroke="#6e6e6e" stroke-width="0.4">
      <desc>
        <labelrank>6</labelrank>
        <code_hasc>TZ.LI</code_hasc>
        <name>Lindi</name>
        <admin>United Republic of Tanzania</admin>
        <type_en>Region</type_en>
        <region/>
        <woe_id>2347358</woe_id>
        <longitude>38</longitude>
        <woe_name>Lindi</woe_name>
        <fips>TZ07</fips>
        <woe_label>Lindi, TZ, Tanzania</woe_label>
        <latitude>-9</latitude>
        <iso_a2>TZ</iso_a2>
        <postal>LI</postal>
        <type>Mkoa</type>
        <id>TZ.LI</id>
      </desc>
    </path>
    <path d="M 551.2778 657.5007 544.9324 629.8345 555.8465 629.0731 558.1309 627.5502 561.1767 622.9815 564.984 619.1742 581.736 612.3211 600.0109 612.5749 618.5396 602.9298 621.8393 606.9909 624.3775 606.4833 625.1389 603.9451 625.9004 602.4222 633.0073 599.6302 639.3527 602.676 647.7287 615.8745 649.7593 614.0978 651.2822 611.8135 649.2516 606.4833 650.2669 603.9451 650.7745 601.4069 652.2975 599.3764 669.3033 589.7313 669.8109 592.5233 670.0647 586.6855 679.2022 589.2236 678.4407 595.5691 681.7404 594.5538 685.2938 597.092 687.5782 595.3153 683.2633 593.7924 685.2938 591.2542 692.6545 600.8993 697.2233 600.8993 695.4465 598.1073 696.9695 597.092 699 600.1378 696.4618 603.1836 698.2385 603.1836 697.2233 610.2905 671.3338 629.3269 655.8509 637.7029 639.3527 640.7487 624.6313 651.6629 616.0015 650.14 601.5338 651.9167 592.904 657.7545 586.3047 658.516 576.152 667.1458 567.0145 663.8462 561.4305 658.7698 551.2778 657.5007 Z" id="TZ.MT" fill="#cee3f5" stroke="#6e6e6e" stroke-width="0.4">
      <desc>
        <labelrank>7</labelrank>
        <code_hasc>TZ.MT</code_hasc>
        <name>Mtwara</name>
        <admin>United Republic of Tanzania</admin>
        <type_en>Region</type_en>
        <region/>
        <woe_id>2347362</woe_id>
        <longitude>39</longitude>
        <woe_name>Mtwara</woe_name>
        <fips>TZ11</fips>
        <woe_label>Mtwara, TZ, Tanzania</woe_label>
        <latitude>-10</latitude>
        <iso_a2>TZ</iso_a2>
        <postal>MT</postal>
        <type>Mkoa</type>
        <id>TZ.MT</id>
      </desc>
    </path>
    <path d="M 491.6305 551.1509 490.6153 554.7044 489.0924 558.5116 486.5542 562.3189 481.7316 567.6491 476.4015 572.2178 474.8785 575.7713 474.3709 579.5785 474.6247 584.1473 474.3709 588.4622 477.6705 591.2542 492.6458 596.8382 527.6727 605.2142 534.0182 609.7829 544.9324 629.8345 551.2778 657.5007 537.5716 661.308 533.7644 674.7604 510.9207 686.6898 491.3767 683.644 484.5236 676.7909 471.3251 677.2985 466.2487 683.644 459.1418 686.436 454.0655 686.9436 450.7658 684.1516 432.2371 685.4207 430.4604 677.5524 418.0233 672.7298 415.9927 668.4149 408.8858 667.1458 400.7636 672.2222 398.7331 677.2985 393.1491 679.3291 354.8225 677.2985 350 664.8615 342.3855 662.8309 339.0858 653.9473 332.7404 647.6018 331.4713 642.2716 336.8015 625.7735 330.7098 611.8135 337.8167 611.3058 356.0916 597.5996 357.8684 591.7618 364.4676 590.4927 370.5593 581.1015 364.9753 563.588 400.7636 537.1909 405.84 535.668 413.4545 527.5458 414.7236 543.0287 402.2865 564.6033 404.8247 566.6338 418.0233 566.6338 425.384 560.2884 428.176 562.8265 442.6436 561.5575 450.0044 550.3895 455.3345 563.588 449.7505 573.2331 451.5273 576.0251 461.4262 572.7255 474.3709 560.5422 486.808 552.42 491.6305 551.1509 Z" id="TZ.RV" fill="#cee3f5" stroke="#6e6e6e" stroke-width="0.4">
      <desc>
        <labelrank>5</labelrank>
        <code_hasc>TZ.RV</code_hasc>
        <name>Ruvuma</name>
        <admin>United Republic of Tanzania</admin>
        <type_en>Region</type_en>
        <region/>
        <woe_id>2347365</woe_id>
        <longitude>36</longitude>
        <woe_name>Ruvuma</woe_name>
        <fips>TZ14</fips>
        <woe_label>Ruvuma, TZ, Tanzania</woe_label>
        <latitude>-10</latitude>
        <iso_a2>TZ</iso_a2>
        <postal>RV</postal>
        <type>Mkoa</type>
        <id>TZ.RV</id>
      </desc>
    </path>
    <path d="M 350.2538 196.3131 358.1222 208.7502 348.9847 226.0098 365.4829 242.2542 366.2444 247.5844 378.4276 255.7065 377.1585 261.5444 361.4218 274.2353 365.7367 290.2258 378.4276 308.7545 370.3055 324.4913 368.7825 337.436 371.0669 347.5887 370.5593 368.4018 368.7825 372.4629 360.9142 372.7167 362.1833 385.4076 352.0305 383.3771 342.6393 389.7225 339.5935 400.1291 321.0647 403.9364 316.7498 410.7895 305.328 410.028 290.6065 421.7036 282.7382 417.6425 280.4538 409.2665 268.2705 399.6215 261.9251 386.6767 264.7171 381.0927 264.2095 366.6251 295.4291 341.2433 294.4138 331.852 297.9673 313.0695 301.2669 307.9931 297.9673 302.1553 308.8815 289.2105 289.8451 274.2353 290.6065 238.7007 291.8756 233.1167 305.328 212.0498 310.6582 211.2884 312.4349 204.4353 320.3033 199.6127 342.1316 189.7138 350.2538 196.3131 Z" id="TZ.SD" fill="#cee3f5" stroke="#6e6e6e" stroke-width="0.4">
      <desc>
        <labelrank>7</labelrank>
        <code_hasc>TZ.SD</code_hasc>
        <name>Singida</name>
        <admin>United Republic of Tanzania</admin>
        <type_en>Region</type_en>
        <region/>
        <woe_id>2347367</woe_id>
        <longitude>34</longitude>
        <woe_name>Singida</woe_name>
        <fips>TZ16</fips>
        <woe_label>Singida, TZ, Tanzania</woe_label>
        <latitude>-5</latitude>
        <iso_a2>TZ</iso_a2>
        <postal>SD</postal>
        <type>Mkoa</type>
        <id>TZ.SD</id>
      </desc>
    </path>
    <path d="M 509.144 134.3815 499.2451 130.5742 491.3767 130.3204 476.9091 139.204 476.1476 149.3567 484.016 154.4331 486.3004 158.748 486.5542 170.1698 479.7011 175.2462 474.8785 175.2462 471.8327 179.3073 461.9338 176.7691 456.096 181.084 451.2735 188.4447 453.0502 207.2273 441.3745 209.7655 435.2829 209.004 415.9927 179.8149 412.4393 181.084 404.0633 191.2367 403.8095 174.9924 402.2865 174.7385 400.7636 181.3378 393.1491 183.3684 392.3876 187.4295 387.5651 185.1451 390.3571 181.084 380.9658 178.5458 350.2538 196.3131 342.1316 189.7138 341.624 184.6375 345.9389 178.5458 350.2538 176.7691 350.7615 132.0971 359.3913 137.4273 364.7215 134.3815 370.5593 113.3145 370.0516 107.2229 378.4276 91.4862 377.6662 88.4404 371.5745 85.6484 372.5898 58.236 509.144 134.3815 Z" id="TZ.AS" fill="#cee3f5" stroke="#6e6e6e" stroke-width="0.4">
      <desc>
        <labelrank>7</labelrank>
        <code_hasc>TZ.AS</code_hasc>
        <name>Arusha</name>
        <admin>United Republic of Tanzania</admin>
        <type_en>Region</type_en>
        <region/>
        <woe_id>2347352</woe_id>
        <longitude>36</longitude>
        <woe_name>Arusha</woe_name>
        <fips>TZ26</fips>
        <woe_label>Arusha, TZ, Tanzania</woe_label>
        <latitude>-3</latitude>
        <iso_a2>TZ</iso_a2>
        <postal>AS</postal>
        <type>Mkoa</type>
        <id>TZ.AS</id>
      </desc>
    </path>
    <path d="M 547.2167 242.2542 544.1709 245.5538 543.4095 252.6607 548.4858 264.844 541.8865 262.5596 529.7033 265.3516 519.8044 263.5749 507.1135 277.7887 505.5905 288.7029 498.4836 300.3785 495.9455 311.0389 486.3004 319.4149 473.8633 327.7909 462.1876 321.9531 455.5884 311.8004 447.72 307.4855 435.0291 293.5255 434.7753 283.1189 439.344 272.4585 442.3898 244.5385 439.0902 232.3553 438.5825 213.5727 422.8458 218.1415 416.7542 224.2331 408.632 224.7407 397.2102 232.3553 397.9716 240.2236 389.088 256.2142 378.4276 255.7065 366.2444 247.5844 365.4829 242.2542 348.9847 226.0098 358.1222 208.7502 350.2538 196.3131 380.9658 178.5458 390.3571 181.084 387.5651 185.1451 392.3876 187.4295 393.1491 183.3684 400.7636 181.3378 402.2865 174.7385 403.8095 174.9924 404.0633 191.2367 412.4393 181.084 415.9927 179.8149 435.2829 209.004 441.3745 209.7655 453.0502 207.2273 451.2735 188.4447 456.096 181.084 461.9338 176.7691 471.8327 179.3073 474.8785 175.2462 479.7011 175.2462 486.5542 170.1698 495.4378 167.6316 500.768 170.4236 510.6669 187.9371 514.728 208.4964 513.7127 226.2636 515.7433 229.8171 530.2109 238.9545 540.8713 237.6855 547.2167 242.2542 Z" id="TZ.MY" fill="#cee3f5" stroke="#6e6e6e" stroke-width="0.4">
      <desc>
        <labelrank>5</labelrank>
        <code_hasc>TZ.MY</code_hasc>
        <name>Manyara</name>
        <admin>United Republic of Tanzania</admin>
        <type_en>Region</type_en>
        <region/>
        <woe_id>56025085</woe_id>
        <longitude>36</longitude>
        <woe_name>Manyara</woe_name>
        <fips>TZ27</fips>
        <woe_label>Manyara, TZ, Tanzania</woe_label>
        <latitude>-4</latitude>
        <iso_a2>TZ</iso_a2>
        <postal>MY</postal>
        <type>Mkoa</type>
        <id>TZ.MY</id>
      </desc>
    </path>
    <path d="M 509.144 134.3815 524.1193 143.7727 526.4036 159.0018 519.2967 165.3473 520.0582 171.6927 526.9113 172.4542 530.9724 180.5764 571.3295 209.5116 547.2167 242.2542 540.8713 237.6855 530.2109 238.9545 515.7433 229.8171 513.7127 226.2636 514.728 208.4964 510.6669 187.9371 500.768 170.4236 495.4378 167.6316 486.5542 170.1698 486.3004 158.748 484.016 154.4331 476.1476 149.3567 476.9091 139.204 491.3767 130.3204 499.2451 130.5742 509.144 134.3815 Z" id="TZ.KL" fill="#cee3f5" stroke="#6e6e6e" stroke-width="0.4">
      <desc>
        <labelrank>5</labelrank>
        <code_hasc>TZ.KL</code_hasc>
        <name>Kilimanjaro</name>
        <admin>United Republic of Tanzania</admin>
        <type_en>Region</type_en>
        <region/>
        <woe_id>2347357</woe_id>
        <longitude>37</longitude>
        <woe_name>Kilimanjaro</woe_name>
        <fips>TZ06</fips>
        <woe_label>Kilimanjaro, TZ, Tanzania</woe_label>
        <latitude>-4</latitude>
        <iso_a2>TZ</iso_a2>
        <postal>KL</postal>
        <type>Mkoa</type>
        <id>TZ.KL</id>
      </desc>
    </path>
    <path d="M 372.5898 58.236 371.5745 85.6484 377.6662 88.4404 378.4276 91.4862 370.0516 107.2229 335.5324 107.4767 324.3644 103.1618 312.9425 92.7553 300.5055 88.6942 296.6982 84.8869 294.6676 87.9327 286.2916 88.6942 278.6771 82.0949 269.5396 88.1865 254.0567 87.1713 249.2342 83.6178 245.4269 85.6484 245.4269 79.3029 249.488 80.0644 249.2342 76.7647 255.3258 80.0644 256.5949 74.988 262.6865 78.2876 266.24 78.5415 267.5091 75.7495 260.656 73.4651 262.4327 71.9422 260.656 69.1502 251.2647 73.2113 249.2342 71.6884 253.0415 60.2665 255.8335 58.236 260.1484 60.0127 260.1484 46.5604 252.5338 43.5145 212.9382 43.2607 214.2073 14.0716 294.4138 14.0716 372.5898 58.236 Z" id="TZ.MA" fill="#cee3f5" stroke="#6e6e6e" stroke-width="0.4">
      <desc>
        <labelrank>5</labelrank>
        <code_hasc>TZ.MA</code_hasc>
        <name>Mara</name>
        <admin>United Republic of Tanzania</admin>
        <type_en>Region</type_en>
        <region/>
        <woe_id>2347359</woe_id>
        <longitude>34</longitude>
        <woe_name>Mara</woe_name>
        <fips>TZ08</fips>
        <woe_label>Mara, TZ, Tanzania</woe_label>
        <latitude>-1</latitude>
        <iso_a2>TZ</iso_a2>
        <postal>MA</postal>
        <type>Mkoa</type>
        <id>TZ.MA</id>
      </desc>
    </path>
    <path d="M 532.7491 320.9378 522.0887 326.268 515.7433 317.3844 507.1135 314.3385 505.0829 323.2222 493.1535 334.644 490.1076 331.852 490.8691 327.5371 487.3156 326.0142 486.3004 319.4149 495.9455 311.0389 498.4836 300.3785 505.5905 288.7029 507.1135 277.7887 519.8044 263.5749 529.7033 265.3516 541.8865 262.5596 548.4858 264.844 543.4095 252.6607 544.1709 245.5538 547.2167 242.2542 571.3295 209.5116 621.5855 245.3 621.5855 249.1073 618.7935 251.1378 621.5855 251.8993 621.5855 255.7065 618.2858 261.0367 618.2858 255.1989 614.9862 259.5138 616.2553 265.6055 613.4633 267.8898 616.2553 267.8898 617.0167 270.9356 610.6713 279.8193 613.2095 279.3116 606.864 290.9873 607.1178 296.5713 601.0262 304.6935 601.5338 309.516 597.4727 316.1153 596.9651 322.9684 595.696 324.4913 595.696 324.9989 595.4422 325.2527 590.3658 324.4913 574.6291 329.06 554.5775 318.6535 542.3942 318.3996 532.7491 320.9378 Z" id="TZ.TN" fill="#cee3f5" stroke="#6e6e6e" stroke-width="0.4">
      <desc>
        <labelrank>7</labelrank>
        <code_hasc>TZ.TN</code_hasc>
        <name>Tanga</name>
        <admin>United Republic of Tanzania</admin>
        <type_en>Region</type_en>
        <region/>
        <woe_id>2347369</woe_id>
        <longitude>38</longitude>
        <woe_name>Tanga</woe_name>
        <fips>TZ18</fips>
        <woe_label>Tanga, TZ, Tanzania</woe_label>
        <latitude>-5</latitude>
        <iso_a2>TZ</iso_a2>
        <postal>TN</postal>
        <type>Mkoa</type>
        <id>TZ.TN</id>
      </desc>
    </path>
    <path d="M 110.1418 296.0636 108.1113 300.1247 114.7105 304.9473 115.472 312.308 120.0407 311.5465 123.3404 315.1 145.4225 316.6229 158.1135 309.516 171.8196 313.0695 181.7185 334.1364 195.9324 343.7815 201.0087 350.1269 213.6996 352.6651 214.7149 356.7262 207.3542 365.356 205.5775 370.94 203.5469 396.8295 186.0335 403.4287 183.4953 416.8811 181.2109 421.4498 174.8655 423.7342 172.5811 427.2876 168.2662 437.6942 169.5353 439.7247 137.0465 434.6484 133.4931 409.5204 130.1935 405.4593 111.1571 403.9364 105.5731 386.1691 100.2429 384.1385 79.6836 386.9305 61.9164 399.6215 48.9716 383.3771 41.3571 378.0469 58.6167 364.0869 62.1702 356.2185 68.008 352.1575 67.2465 343.02 62.424 338.9589 54.8095 321.4455 50.7484 297.5865 42.6262 287.18 43.8953 285.9109 60.3935 284.8956 69.0233 276.7735 89.0749 276.7735 98.9738 284.6418 103.5425 281.0884 110.1418 296.0636 Z" id="TZ.KA" fill="#cee3f5" stroke="#6e6e6e" stroke-width="0.4">
      <desc>
        <labelrank>5</labelrank>
        <code_hasc>TZ.KA</code_hasc>
        <name>Katavi</name>
        <admin>United Republic of Tanzania</admin>
        <type_en>Region</type_en>
        <region/>
        <woe_id>-2347375</woe_id>
        <longitude>31</longitude>
        <woe_name>Rukwa</woe_name>
        <fips>TZ29</fips>
        <woe_label>Rukwa, TZ, Tanzania</woe_label>
        <latitude>-6</latitude>
        <iso_a2>TZ</iso_a2>
        <postal>RK</postal>
        <type>Mkoa</type>
        <id>TZ.KA</id>
      </desc>
    </path>
    <path d="M 370.0516 107.2229 370.5593 113.3145 364.7215 134.3815 359.3913 137.4273 350.7615 132.0971 350.2538 176.7691 345.9389 178.5458 341.624 184.6375 342.1316 189.7138 320.3033 199.6127 311.1658 190.4753 304.3127 173.9771 288.576 171.6927 281.9767 165.6011 274.3622 166.3625 258.1178 156.4636 264.7171 137.6811 263.7018 129.0513 270.5549 124.9902 274.8698 126.2593 280.9615 120.9291 263.9556 104.6847 254.0567 87.1713 269.5396 88.1865 278.6771 82.0949 286.2916 88.6942 294.6676 87.9327 296.6982 84.8869 300.5055 88.6942 312.9425 92.7553 324.3644 103.1618 335.5324 107.4767 370.0516 107.2229 Z" id="TZ.SI" fill="#cee3f5" stroke="#6e6e6e" stroke-width="0.4">
      <desc>
        <labelrank>6</labelrank>
        <code_hasc>TZ.SI</code_hasc>
        <name>Simiyu</name>
        <admin>United Republic of Tanzania</admin>
        <type_en>Region</type_en>
        <region/>
        <woe_id>-2347366</woe_id>
        <longitude>34</longitude>
        <woe_name>Shinyanga</woe_name>
        <fips>TZ31</fips>
        <woe_label>Shinyanga, TZ, Tanzania</woe_label>
        <latitude>-2</latitude>
        <iso_a2>TZ</iso_a2>
        <postal>SH</postal>
        <type>Mkoa</type>
        <id>TZ.SI</id>
      </desc>
    </path>
    <path d="M 200.7549 151.6411 194.9171 154.1793 190.6022 159.2556 184.5105 154.1793 180.1956 156.4636 176.1345 164.0782 177.1498 181.5916 158.6211 185.9065 149.4836 196.0593 149.4836 204.4353 146.184 210.0193 148.976 215.3495 136.0313 217.6338 132.224 224.4869 127.1476 212.0498 128.6705 194.7902 119.7869 179.3073 119.0255 168.3931 112.9338 153.164 109.6342 150.6258 106.3345 151.8949 110.3956 135.3967 105.0655 129.3051 104.304 125.244 98.2124 119.66 100.4967 113.3145 107.3498 110.0149 116.4873 94.2782 128.9244 93.2629 145.9302 98.8469 151.768 94.2782 153.0371 87.9327 161.1593 85.9022 165.9818 101.1313 184.2567 113.0607 194.9171 114.8375 191.3636 121.1829 202.5316 127.5284 200.7549 132.3509 206.3389 136.9196 200.7549 151.6411 Z" id="TZ.GE" fill="#cee3f5" stroke="#6e6e6e" stroke-width="0.4">
      <desc>
        <labelrank>5</labelrank>
        <code_hasc>TZ.GE</code_hasc>
        <name>Geita</name>
        <admin>United Republic of Tanzania</admin>
        <type_en>Region</type_en>
        <region/>
        <woe_id>-2347370</woe_id>
        <longitude>31</longitude>
        <woe_name>Kagera</woe_name>
        <fips>TZ28</fips>
        <woe_label>Kagera, TZ, Tanzania</woe_label>
        <latitude>-3</latitude>
        <iso_a2>TZ</iso_a2>
        <postal>KR</postal>
        <type>Mkoa</type>
        <id>TZ.GE</id>
      </desc>
    </path>
    <path d="M 379.9505 516.3778 383.504 515.6164 387.8189 521.9618 399.7484 531.3531 400.7636 537.1909 364.9753 563.588 370.5593 581.1015 364.4676 590.4927 357.8684 591.7618 356.0916 597.5996 337.8167 611.3058 330.7098 611.8135 330.9636 596.8382 327.1564 579.0709 314.2116 561.0498 299.2364 547.8513 284.7687 529.0687 286.5455 527.0382 281.4691 516.124 285.0225 510.2862 291.1142 507.4942 295.6829 509.0171 301.2669 505.4636 324.1105 504.956 332.9942 496.8338 338.832 495.0571 340.3549 490.996 349.2385 493.788 349.2385 496.8338 364.2138 502.164 363.4524 513.332 369.544 517.3931 379.9505 516.3778 Z" id="TZ.NJ" fill="#cee3f5" stroke="#6e6e6e" stroke-width="0.4">
      <desc>
        <labelrank>6</labelrank>
        <code_hasc>TZ.NJ</code_hasc>
        <name>Njombe</name>
        <admin>United Republic of Tanzania</admin>
        <type_en>Region</type_en>
        <region/>
        <woe_id>-2347355</woe_id>
        <longitude>34</longitude>
        <woe_name>Iringa</woe_name>
        <fips>TZ30</fips>
        <woe_label>Iringa, TZ, Tanzania</woe_label>
        <latitude>-9</latitude>
        <iso_a2>TZ</iso_a2>
        <postal>IR</postal>
        <type>Mkoa</type>
        <id>TZ.NJ</id>
      </desc>
    </path>
  </g>
</svg>