<?xml version="1.0" encoding="UTF-8"?>
<svg xmlns="http://www.w3.org/2000/svg" width="700" height="700">
  <g id="sierra_leone">
    <path d="M 392.6951 342.8138 384.8053 342.5417 364.9166 342.5417 354.9722 354.475 350.9944 362.4305 348.0111 364.4193 344.0334 370.386 337.0723 374.3637 332.1001 375.3581 320.1669 375.3581 312.2114 370.386 307.2392 369.3915 294.3115 371.3804 291.3282 378.3415 290.3338 383.3136 291.3282 397.2358 288.3449 393.258 273.4284 386.2969 261.4951 378.3415 254.5341 377.347 238.6231 373.3693 233.6509 375.3581 217.7399 376.3526 211.7733 380.3303 203.8178 385.3025 194.8678 386.2969 181.9402 385.3025 170.0069 384.3081 164.0403 379.3359 151.1126 370.386 133.2128 374.3637 116.3073 367.4026 111.3351 370.386 106.363 377.347 103.3796 385.3025 98.4075 389.2803 91.4464 396.2413 77.5243 396.2413 90.452 395.2469 90.452 386.2969 92.4408 384.3081 88.4631 377.347 88.4631 373.3693 91.4464 369.3915 86.4742 366.4082 66.5855 368.3971 59.8384 368.3971 58.0714 365.5732 56.5123 361.7175 57.7596 361.5633 60.254 360.4837 58.3832 359.5584 55.1092 360.021 53.0825 358.9415 48.4054 357.5535 43.8842 354.9318 42.7929 352.0018 46.6904 350.9224 48.7172 348.6093 50.588 344.7543 53.2384 345.2169 57.7596 342.7498 60.5658 341.8246 63.6839 335.1947 68.0492 330.8778 69.1405 327.4861 73.6617 329.4902 76.1561 329.1819 80.2096 328.411 83.1718 329.7986 84.8867 329.1819 90.6551 330.2611 93.6173 331.3403 97.0472 328.7194 101.1006 326.7152 103.9069 327.0236 106.8691 327.9485 110.2989 328.5652 112.6375 328.7194 111.7021 326.5611 106.8691 325.4819 101.4124 324.8653 96.8913 325.7902 92.6819 328.8735 89.4079 325.7902 85.5103 324.2486 85.8221 323.3237 89.8756 321.0113 92.0583 318.3908 94.085 314.6913 96.5794 312.225 99.0739 309.6047 98.2944 304.9808 96.4235 309.4506 92.9937 311.3002 90.811 316.2327 87.2253 320.0864 82.2364 320.703 77.5593 319.0074 71.9468 319.4698 69.1405 318.5449 66.3342 319.7781 62.5926 324.557 58.5391 323.0154 56.5123 322.7071 53.862 322.3987 53.5502 320.3947 52.4589 318.2366 55.421 317.4659 59.6304 315.7703 61.813 313.6123 62.7485 310.8378 65.2429 308.9882 66.9579 309.2965 68.5169 308.0634 68.6728 306.368 68.8287 303.1314 68.361 304.8267 67.2697 306.8304 65.3988 306.9845 62.7485 308.3717 62.4367 306.8304 62.4367 304.0561 62.2808 300.049 61.5012 302.5149 60.7217 305.2891 60.4099 308.3717 59.1627 312.5333 57.4478 314.6913 54.4856 314.9996 52.4589 314.8454 50.2762 314.383 47.1582 311.6085 46.8463 310.0671 45.2873 308.3717 43.2606 308.8341 41.0779 308.8341 39.9866 306.8304 39.8307 305.2891 38.4276 307.601 39.6748 310.0671 44.0401 310.6837 46.0668 313.1499 47.3141 315.462 49.8085 318.6991 50.8998 322.3987 48.5613 325.7902 41.0779 336.8906 36.7126 335.0405 28.6057 324.557 24.2404 313.4581 18.6279 302.3608 19.8751 292.4976 18.0043 274.0074 22.3696 265.38 27.3585 262.299 32.971 262.299 44.196 264.7638 51.0557 262.9152 45.4432 261.0666 37.3363 256.1373 40.4543 251.8244 39.8307 247.5118 31.1001 246.8957 23.6168 238.8871 18.0043 240.1191 7.4029 237.0391 6.1946 220.0623 6.1946 219.1 5.9997 218.0222 6.9351 216.8675 8.9229 216.7136 11.3004 214.9815 12.4697 213.6729 16.2893 213.4419 17.1858 213.211 17.8873 211.7869 19.8361 212.5952 22.6424 211.2096 25.3317 210.3629 26.9297 210.3244 28.6836 209.4777 28.4498 207.4764 29.3072 206.3218 31.1781 207.0915 32.5033 206.7066 33.9064 206.9376 36.7126 208.7079 36.5567 210.2474 42.4031 215.2509 45.5991 216.5596 47.8597 216.7136 48.6392 216.0207 51.6014 217.5604 54.3297 217.4834 56.2785 216.9445 56.2785 214.5581 57.9155 212.6337 57.3698 211.0172 58.5391 209.2467 64.7752 209.0158 65.087 206.2448 67.8933 205.0902 68.6728 205.3981 69.6862 206.1678 72.6483 203.7048 74.5971 201.0109 76.0002 195.4696 78.6506 191.7755 78.9624 189.6207 85.6662 187.0043 85.0426 183.6184 83.7954 182.6951 82.5482 179.1555 81.4568 176.3855 83.0159 175.3083 85.6662 169.7687 85.6662 168.23 85.0426 164.2295 88.1607 162.2293 90.3433 162.9986 92.526 163.7679 93.9291 165.922 95.761 168.7301 98.3334 166.1913 100.555 166.3067 100.9058 165.4604 100.2432 164.1526 100.6719 162.614 101.4124 162.2678 101.5294 161.6139 103.0105 161.7293 104.4915 162.5755 106.5183 161.4216 109.2076 164.3834 109.7143 163.9987 110.0651 162.614 111.1564 162.1908 112.3646 162.3832 114.5473 161.0754 117.3146 162.3447 118.289 162.3447 118.8736 161.3446 120.0818 160.2676 123.122 159.4984 123.7066 158.2676 122.9271 156.4214 125.1097 155.0752 124.9928 154.0368 126.3569 152.0369 126.3569 151.1138 125.8113 149.9985 126.1231 149.6524 127.5262 150.1139 130.9561 149.6524 131.9305 149.8832 132.3982 148.7294 132.0474 146.9219 131.2679 146.1528 130.4884 145.1529 130.4884 143.2301 130.0207 142.0765 130.0986 140.2307 130.4104 138.3849 131.9695 137.3082 133.7623 137.5389 134.9316 138.3849 136.8804 138.4618 137.9717 138.2311 138.9072 138.3849 141.2457 139.7692 140.8559 137.5389 141.0118 135.6932 143.6622 133.4631 146.3905 135.6163 146.3905 133.1555 147.3259 132.9248 147.4818 131.9251 146.3905 130.464 148.1834 129.4643 148.5731 128.5416 147.0921 127.8495 147.4039 126.773 148.0275 125.3889 147.7936 123.3897 149.8983 121.8519 150.1322 121.3906 149.5865 119.7759 150.2881 119.3915 155.4329 111.4725 155.1211 109.7043 153.7959 108.0899 152.8605 106.5524 153.64 105.553 155.0431 104.2462 156.3683 103.5543 157.4596 103.6312 158.7848 103.9387 158.9407 102.6319 157.9273 100.7101 157.7714 99.7108 158.0053 99.019 159.3305 98.6347 160.3438 94.0228 161.747 93.1774 161.5911 91.717 161.669 90.641 162.7603 90.1798 164.0855 90.8716 165.9563 91.8707 166.8918 91.8707 168.139 91.717 168.2949 88.1047 169.6201 83.8777 169.3862 83.4166 168.7626 82.4176 168.7626 81.5722 168.3728 79.8047 168.2949 78.3446 169.1524 77.1919 169.9319 77.3456 171.8027 78.8825 171.4909 76.1161 172.1925 75.3476 173.2058 73.1961 173.3617 71.5824 173.1279 70.5067 173.7515 68.1247 177.0255 67.7405 178.0388 66.588 180.0656 65.0513 180.6892 64.2062 181.5467 64.5903 181.3908 65.5892 181.5467 67.2027 183.4175 67.8942 184.1191 66.9722 183.9632 65.5892 183.4175 64.5135 183.0277 63.4379 182.2482 61.7476 182.4041 60.2879 183.1836 59.5196 184.5088 59.6732 186.5356 59.7501 187.0812 58.2903 186.4576 56.9075 184.5088 57.2148 184.5868 55.9088 185.834 54.9101 186.6135 50.4545 188.2505 48.2268 189.1859 43.618 189.9654 43.6948 190.7449 43.4644 191.2127 40.9297 190.8229 39.6239 189.9654 39.7007 188.8741 39.4703 188.6403 38.7023 189.3418 36.5517 189.03 36.0141 194.2528 35.3229 196.2795 34.0172 199.3196 29.6397 200.4109 29.1021 201.8141 28.2574 223.0169 25.3392 224.498 22.9587 250.9236 16.355 251.3913 19.8871 252.6385 22.0372 257.3156 24.3409 261.9927 27.1054 265.7344 28.027 268.5406 29.1021 272.75 29.7165 274.309 30.0237 322.4831 14.6658 322.3272 10.5197 325.6012 1.1535 338.3852 1.1535 342.1269 1.9212 411.3479 1.6141 414.7778 1 421.1698 1.1535 424.1319 1.7677 479.9453 1.6141 480.7248 3.9172 484.1547 4.5314 487.5845 4.3778 489.2995 7.7558 490.5467 8.2165 491.4821 17.8907 493.6647 23.573 493.8206 26.6447 494.6002 29.4093 496.471 31.8668 500.0568 32.4812 504.8898 34.1708 509.7228 38.011 514.5558 42.7731 518.2974 46.921 522.3509 49.84 525.9367 55.2174 530.4579 58.7513 535.2909 69.2004 537.3176 75.5013 538.8767 78.1141 540.5916 78.7288 543.086 78.7288 543.5537 79.8047 543.5537 81.4954 544.9569 82.2639 546.2041 82.5713 548.6985 90.7178 551.193 92.5625 556.9614 96.5593 559.4559 105.3224 560.5472 108.2436 563.1975 108.8586 565.5361 109.7812 565.692 112.2413 564.6007 117.1618 565.5361 120.391 564.133 125.4658 568.966 130.5409 573.799 131.7713 575.2021 133.0017 575.0462 135.1549 571.1486 137.1544 571.3045 138.3849 574.4226 140.9997 575.358 140.5383 576.1375 139.4616 578.0083 139.0001 580.5028 139.7692 582.8413 139.3078 585.1799 139.6154 586.8948 142.3841 592.3514 147.6141 594.2223 148.9986 597.4962 149.9216 600.3025 154.9983 604.5119 156.6906 606.6945 158.6907 606.2268 162.3832 603.7324 164.8449 602.9528 167.7684 604.2001 174.385 600.3025 180.5405 594.3782 183.3106 591.5719 185.0036 590.4806 187.466 591.2601 190.852 591.1042 193.1608 589.857 194.2382 589.0775 195.7774 589.5452 198.8559 587.5184 205.783 588.2979 208.7079 589.857 210.2474 593.2868 210.8632 603.7324 210.4014 610.748 212.2488 613.2424 210.8632 625.8706 214.866 625.2782 216.64 608.5536 222.2149 594.6315 231.1648 591.6482 234.1481 596.6204 240.1147 591.6482 244.0925 573.7483 247.0758 562.8095 243.098 534.9653 216.2482 528.9986 216.2482 515.0765 214.2594 497.1767 224.2037 497.1767 231.1648 492.2045 242.1036 466.3491 248.0702 447.4548 277.9033 450.4381 328.6196 447.4548 332.5974 442.4826 333.5918 422.5939 332.5974 411.6551 333.5918 400.7163 336.5751 392.6951 342.8138 Z" id="SL.NO" fill="#cee3f5" stroke="#6e6e6e" stroke-width="0.4">
      <desc>
        <labelrank>7</labelrank>
        <code_hasc>SL.NO</code_hasc>
        <name>Northern</name>
        <admin>Sierra Leone</admin>
        <type_en>Province</type_en>
        <woe_id>2347001</woe_id>
        <woe_name>Northern</woe_name>
        <fips>SL02</fips>
        <woe_label>Northern, SL, Sierra Leone</woe_label>
        <iso_a2>SL</iso_a2>
        <postal>NO</postal>
        <type>Province</type>
        <id>SL.NO</id>
      </desc>
    </path>
    <path d="M 495.1279 607.0619 494.1934 607.0619 462.3714 594.1343 451.4326 583.1955 446.4604 565.2956 451.4326 563.3067 452.427 546.4013 446.4604 545.4069 443.4771 537.4514 429.555 546.4013 425.5772 557.3401 411.6551 558.3345 415.6328 540.4347 406.6829 532.4792 413.644 524.5237 420.605 520.5459 428.5605 524.5237 432.5383 520.5459 433.5327 508.6127 427.5661 495.685 426.5716 492.7017 420.605 496.6794 420.605 487.7295 423.5883 479.774 434.5271 472.813 441.4882 467.8408 445.4659 462.8686 447.4548 449.9409 444.4715 412.1523 428.5605 398.2302 418.6161 384.3081 414.6384 379.3359 406.6829 373.3693 403.6996 372.3748 403.6996 357.4583 400.7163 351.4917 396.7385 345.525 391.7664 343.5362 400.7163 336.5751 411.6551 333.5918 422.5939 332.5974 442.4826 333.5918 447.4548 332.5974 450.4381 328.6196 447.4548 277.9033 466.3491 248.0702 492.2045 242.1036 497.1767 231.1648 497.1767 224.2037 515.0765 214.2594 528.9986 216.2482 534.9653 216.2482 562.8095 243.098 573.7483 247.0758 591.6482 244.0925 596.6204 240.1147 591.6482 234.1481 594.6315 231.1648 608.5536 222.2149 625.2782 216.64 621.0376 229.3394 628.6769 265.8421 628.6769 272.6208 630.5477 273.5452 632.7303 272.0045 637.7192 278.1673 639.746 286.642 641.305 286.9501 640.8373 288.6452 643.0199 290.9566 642.5522 292.8058 643.3318 294.6551 644.7349 294.501 647.3852 297.4291 647.2293 299.8949 648.6325 299.2784 649.7238 302.0525 648.4766 303.4396 647.3852 306.0597 648.9443 307.2928 646.7616 309.6047 643.6436 311.7626 643.9554 313.304 639.9019 314.2288 638.9665 315.6161 638.187 314.2288 635.3807 315.462 634.6012 314.8454 632.8862 315.6161 631.9508 317.1576 628.6769 318.2366 628.3651 319.4698 627.1178 318.2366 624.7793 319.624 625.5588 325.1736 623.9998 325.1736 621.6612 326.8694 621.1935 330.7236 616.2046 331.957 613.5543 339.9743 613.5543 341.6704 614.9574 342.904 614.3338 344.6001 611.9952 343.9833 612.307 346.1421 610.2803 347.8383 608.4095 359.0957 610.9039 366.3444 608.7213 368.5037 602.1733 369.2749 601.3938 375.7532 598.5876 381.3064 597.0285 383.466 596.5608 391.3338 598.8994 390.4082 600.6143 383.466 602.0174 383.7746 605.1355 375.9074 610.748 374.8277 611.3716 377.4499 613.7102 375.4447 617.9195 377.9127 624.3116 379.1468 626.3383 385.3172 632.8862 384.8544 646.7616 372.514 646.138 370.5088 651.1269 366.6529 663.1315 354.7776 669.0558 343.9833 682.3075 340.4369 692.753 345.2169 693.2208 347.8383 691.6617 349.6887 694.0003 354.1608 691.9735 358.1704 693.3767 359.4041 691.9735 366.0359 690.2586 368.3495 690.5704 370.2003 688.6996 373.9022 689.635 378.5297 687.1405 388.0941 683.0871 389.9454 689.0114 403.214 687.1405 410.6206 683.3989 411.2378 675.2919 420.8057 670.9266 417.7192 668.4322 418.3364 665.9377 420.8057 658.1426 420.8057 654.7127 419.571 649.412 420.497 641.9286 422.0403 636.3161 426.053 625.0911 444.2665 618.2313 445.8102 618.2313 506.034 598.5876 513.4489 584.8681 530.1343 576.1375 542.8048 574.5785 547.1317 570.8368 546.5136 563.9771 556.7134 546.5159 568.769 543.3978 565.9868 523.1304 582.9904 511.5936 592.5756 506.9165 593.8124 495.6915 603.7078 495.1279 607.0619 Z" id="SL.EA" fill="#cee3f5" stroke="#6e6e6e" stroke-width="0.4">
      <desc>
        <labelrank>7</labelrank>
        <code_hasc>SL.EA</code_hasc>
        <name>Eastern</name>
        <admin>Sierra Leone</admin>
        <type_en>Province</type_en>
        <woe_id>2347000</woe_id>
        <woe_name>Eastern</woe_name>
        <fips>SL01</fips>
        <woe_label>Eastern, SL, Sierra Leone</woe_label>
        <iso_a2>SL</iso_a2>
        <postal>EA</postal>
        <type>Province</type>
        <id>SL.EA</id>
      </desc>
    </path>
    <path d="M 174.531 593.8124 172.0366 583.2996 169.5421 578.9711 163.9296 575.2612 149.5865 569.6964 134.6198 565.9868 120.9003 559.8044 105.9336 556.7134 85.978 551.7679 99.6975 553.0042 92.8378 547.4408 95.9558 544.9682 102.192 542.4957 109.6753 541.8776 116.5351 541.8776 124.0184 545.5864 120.9003 540.0233 127.7601 540.6414 135.867 540.6414 141.4796 538.1691 147.0921 537.551 155.199 538.1691 164.5532 537.551 170.1657 539.4052 166.4241 544.9682 170.1657 543.1139 178.8963 545.5864 187.0033 549.9134 188.2505 554.2406 185.1324 559.8044 190.1213 560.4226 196.3575 559.1862 198.2283 564.1321 191.9922 564.7503 186.3797 569.6964 180.1435 574.6428 180.1435 584.5364 179.5199 593.194 174.531 593.8124 Z M 77.5243 396.2413 91.4464 396.2413 98.4075 389.2803 103.3796 385.3025 106.363 377.347 111.3351 370.386 116.3073 367.4026 133.2128 374.3637 151.1126 370.386 164.0403 379.3359 170.0069 384.3081 181.9402 385.3025 194.8678 386.2969 203.8178 385.3025 211.7733 380.3303 217.7399 376.3526 233.6509 375.3581 238.6231 373.3693 254.5341 377.347 261.4951 378.3415 273.4284 386.2969 288.3449 393.258 291.3282 397.2358 290.3338 383.3136 291.3282 378.3415 294.3115 371.3804 307.2392 369.3915 312.2114 370.386 320.1669 375.3581 332.1001 375.3581 337.0723 374.3637 344.0334 370.386 348.0111 364.4193 350.9944 362.4305 354.9722 354.475 364.9166 342.5417 384.8053 342.5417 392.6951 342.8138 391.7664 343.5362 396.7385 345.525 400.7163 351.4917 403.6996 357.4583 403.6996 372.3748 406.6829 373.3693 414.6384 379.3359 418.6161 384.3081 428.5605 398.2302 444.4715 412.1523 447.4548 449.9409 445.4659 462.8686 441.4882 467.8408 434.5271 472.813 423.5883 479.774 420.605 487.7295 420.605 496.6794 426.5716 492.7017 427.5661 495.685 433.5327 508.6127 432.5383 520.5459 428.5605 524.5237 420.605 520.5459 413.644 524.5237 406.6829 532.4792 415.6328 540.4347 411.6551 558.3345 425.5772 557.3401 429.555 546.4013 443.4771 537.4514 446.4604 545.4069 452.427 546.4013 451.4326 563.3067 446.4604 565.2956 451.4326 583.1955 462.3714 594.1343 494.1934 607.0619 495.1279 607.0619 494.4443 611.13 488.2081 616.0785 485.7137 623.5016 473.2414 625.9761 462.0164 634.6372 449.5442 649.4867 452.0386 664.3382 444.5553 665.5759 443.308 681.6677 430.8358 690.3335 432.083 696.5238 412.1274 699 397.1607 689.0955 401.526 680.4298 392.1718 686.0005 382.8176 676.7161 359.7439 661.8628 336.0467 650.1054 309.8549 638.9681 283.6632 629.0693 259.9659 619.1714 235.0214 609.2744 220.0547 603.0893 201.97 598.76 184.5088 595.0493 190.1213 591.9571 198.8519 590.1019 208.8297 588.2467 208.2061 584.5364 190.7449 582.6812 195.7338 575.2612 203.2172 564.1321 212.5714 562.2773 218.1839 556.7134 203.8408 556.7134 196.3575 553.6224 188.2505 538.7871 180.7671 537.551 178.2727 530.1343 183.2616 523.3362 190.1213 509.7414 169.5421 525.1902 161.4352 523.9542 145.2212 523.3362 137.1143 521.4822 127.1365 510.3593 120.9003 502.3268 115.9114 500.4733 103.4392 494.9129 94.085 484.4108 89.0961 481.3221 84.7308 473.9098 95.9558 468.9686 101.5683 463.4101 97.2031 449.2064 96.5794 438.092 94.7086 432.5353 86.6016 419.571 80.3655 409.0775 74.753 402.2882 73.0478 401.6131 77.5243 396.2413 Z" id="SL.SO" fill="#cee3f5" stroke="#6e6e6e" stroke-width="0.4">
      <desc>
        <labelrank>7</labelrank>
        <code_hasc>SL.SO</code_hasc>
        <name>Southern</name>
        <admin>Sierra Leone</admin>
        <type_en>Province</type_en>
        <woe_id>2347002</woe_id>
        <woe_name>Southern</woe_name>
        <fips>SL03</fips>
        <woe_label>Southern, SL, Sierra Leone</woe_label>
        <iso_a2>SL</iso_a2>
        <postal>SO</postal>
        <type>Province</type>
        <id>SL.SO</id>
      </desc>
    </path>
    <path d="M 59.8384 368.3971 66.5855 368.3971 86.4742 366.4082 91.4464 369.3915 88.4631 373.3693 88.4631 377.347 92.4408 384.3081 90.452 386.2969 90.452 395.2469 77.5243 396.2413 73.0478 401.6131 71.6349 401.0538 58.5391 402.9054 49.1849 405.9914 38.5835 417.1019 37.9599 405.3742 34.8418 390.5625 21.9018 377.2957 10.5209 359.8668 8.9619 360.3295 8.3383 356.474 11.4563 352.9271 8.3383 342.4414 13.1713 343.2123 20.1869 344.1375 22.8373 343.9833 25.1758 343.0582 27.6703 343.2123 29.5411 345.9879 32.3474 346.1421 35.7772 350.4597 37.9599 351.8476 42.637 358.0162 45.755 359.4041 50.1203 362.6429 50.6696 362.4255 53.2384 361.4091 54.9533 364.4936 55.8887 367.5783 56.7558 368.3971 59.3186 370.8173 66.0224 369.8919 60.0981 368.8122 59.8384 368.3971 Z" id="SL.WE" fill="#cee3f5" stroke="#6e6e6e" stroke-width="0.4">
      <desc>
        <labelrank>7</labelrank>
        <code_hasc>SL.WE</code_hasc>
        <name>Western</name>
        <admin>Sierra Leone</admin>
        <type_en>Province</type_en>
        <woe_id>2347003</woe_id>
        <woe_name>Western</woe_name>
        <fips>SL04</fips>
        <woe_label>Western Area, SL, Sierra Leone</woe_label>
        <iso_a2>SL</iso_a2>
        <postal>WE</postal>
        <type>Province</type>
        <id>SL.WE</id>
      </desc>
    </path>
  </g>
</svg>