<?xml version="1.0" encoding="UTF-8"?>
<svg xmlns="http://www.w3.org/2000/svg" width="700" height="700">
  <g id="mexico">
    <path d="M 625.9143 368.7634 627.3605 373.556 624.219 369.7699 625.9143 368.7634 Z" id="MX.3622" fill="#cee3f5" stroke="#6e6e6e" stroke-width="0.4">
      <desc>
        <labelrank>20</labelrank>
        <code_hasc>-99</code_hasc>
        <name/>
        <admin>Mexico</admin>
        <type_en/>
        <region/>
        <woe_id>-99</woe_id>
        <longitude>-89</longitude>
        <woe_name/>
        <fips/>
        <woe_label/>
        <latitude>22</latitude>
        <iso_a2>MX</iso_a2>
        <postal/>
        <type/>
        <id>MX.3622</id>
      </desc>
    </path>
    <path d="M 88.6217 246.517 87.3452 246.4171 89.3821 244.4928 88.6217 246.517 Z M 66.6081 242.3162 62.8242 242.2785 66.5483 235.4034 66.6081 242.3162 Z M 3.474 215.5881 1.8076 216.3327 1 210.3672 2.7602 208.8088 3.474 215.5881 Z M 105.3828 210.5759 107.6836 216.2204 111.8856 217.3658 112.4926 224.4831 103.2496 213.4533 105.3828 210.5759 Z M 80.5837 150.6211 78.6288 149.0292 83.1422 157.0384 79.7537 168.7281 82.898 174.9866 82.9017 194.4989 87.0652 203.0159 102.0052 216.4474 103.6216 226.0582 106.6193 225.1203 107.0698 228.5402 110.4205 228.9936 111.8847 236.0725 117.2413 237.9997 118.2579 248.7692 90.4373 246.6557 91.7663 235.6317 89.3414 230.5874 73.9364 211.7044 59.4713 201.0868 57.9772 186.4939 55.1726 182.5088 54.4981 185.8227 53.8658 182.809 54.5107 174.9736 49.1174 170.6237 49.6903 164.2365 42.6649 150.3745 44.8239 151.0673 45.7837 148.513 41.0259 143.7836 37.1881 130.5788 86.7987 131.6322 84.3442 136.5925 79.3809 141.1599 80.5837 150.6211 Z" id="MX.BN" fill="#cee3f5" stroke="#6e6e6e" stroke-width="0.4">
      <desc>
        <labelrank>4</labelrank>
        <code_hasc>MX.BN</code_hasc>
        <name>Baja California</name>
        <admin>Mexico</admin>
        <type_en>State</type_en>
        <region/>
        <woe_id>2346265</woe_id>
        <longitude>-115</longitude>
        <woe_name>Baja California</woe_name>
        <fips>MX02</fips>
        <woe_label>Baja California, MX, Mexico</woe_label>
        <latitude>30</latitude>
        <iso_a2>MX</iso_a2>
        <postal>BC</postal>
        <type>Estado</type>
        <id>MX.BN</id>
      </desc>
    </path>
    <path d="M 139.0717 337.5843 141.1871 338.8601 136.5854 337.9282 139.0717 337.5843 Z M 130.2178 333.7143 134.9305 335.7012 135.7414 339.2968 130.2178 333.7143 Z M 161.1346 322.8475 161.2503 326.9671 158.7224 321.0312 161.1346 322.8475 Z M 126.6841 322.167 125.4107 326.0684 127.2781 329.4222 128.3019 333.0739 126.4694 328.0686 124.7289 326.8597 123.2635 326.7026 127.8671 315.5214 126.6841 322.167 Z M 152.2542 297.4075 148.6856 303.687 149.6187 297.9566 152.2542 297.4075 Z M 87.3452 246.4171 88.6217 246.517 89.3619 248.3323 89.6765 246.5995 90.2557 246.6434 90.4373 246.6557 118.2579 248.7692 119.3449 255.0646 126.2867 260.2535 129.7816 269.6801 134.2953 271.7371 132.6865 274.4128 137.1333 284.5064 139.4737 284.3993 136.8633 276.6528 144.4629 286.2353 146.4301 304.1601 152.3775 310.8352 158.9753 326.3965 157.4046 334.2357 159.9059 341.5986 166.099 343.7505 163.7325 343.6982 165.2456 345.2697 166.6791 342.7803 166.0974 340.0647 168.3108 339.8128 173.4134 347.1694 176.9443 346.9134 179.492 356.5664 184.4458 359.4026 184.4584 367.8852 174.3574 375.404 170.7646 373.4227 165.8465 359.0192 136.751 332.4339 133.6979 334.2117 129.8906 325.0934 130.6295 328.285 129.2447 325.8826 128.0005 327.4313 127.9703 321.7623 126.889 324.9334 126.5418 322.9834 130.2278 310.6371 127.6818 298.8462 123.2365 291.6794 109.5218 282.0888 108.5835 277.2985 106.4045 278.3493 108.3033 273.0122 105.2326 278.0721 97.2418 278.1485 93.7623 272.4637 80.8104 265.9187 79.7257 260.2371 68.2109 248.4131 80.6241 251.3578 84.7528 249.2516 88.8044 256.2144 89.5789 254.1249 92.1267 255.1703 90.1301 251.4758 88.2358 253.0331 88.3863 247.8386 85.82 249.0425 87.3452 246.4171 Z" id="MX.BS" fill="#cee3f5" stroke="#6e6e6e" stroke-width="0.4">
      <desc>
        <labelrank>4</labelrank>
        <code_hasc>MX.BS</code_hasc>
        <name>Baja California Sur</name>
        <admin>Mexico</admin>
        <type_en>State</type_en>
        <region/>
        <woe_id>2346266</woe_id>
        <longitude>-111</longitude>
        <woe_name>Baja California Sur</woe_name>
        <fips>MX03</fips>
        <woe_label>Baja California Sur, MX, Mexico</woe_label>
        <latitude>25</latitude>
        <iso_a2>MX</iso_a2>
        <postal>BS</postal>
        <type>Estado</type>
        <id>MX.BS</id>
      </desc>
    </path>
    <path d="M 394.3829 258.6853 390.8956 262.0264 386.3635 258.4374 382.6945 261.4261 380.8638 269.181 373.3046 273.1046 374.7029 277.5378 378.8467 276.4593 378.0169 284.5647 375.8819 287.0033 374.9192 284.2816 365.1592 293.1477 373.3731 302.921 374.9775 309.5681 379.5814 312.8469 376.9525 313.6475 387.942 318.8466 375.0619 322.9178 374.6631 336.2818 368.7402 334.6031 365.6985 330.4407 357.2825 332.0684 357.5152 328.8279 344.9591 322.562 334.1963 324.7278 330.4725 333.1709 322.0621 329.4442 315.8883 320.068 316.2488 313.8292 319.8618 310.0251 320.8399 295.3057 313.0752 287.4294 305.7483 256.9193 319.3964 230.3129 322.8502 231.2617 328.8705 225.3448 332.2249 213.1308 338.1692 212.0688 339.8995 209.2421 359.1033 211.6001 361.1607 215.8802 375.0046 227.0445 383.9876 246.9 394.3829 258.6853 Z" id="MX.CA" fill="#cee3f5" stroke="#6e6e6e" stroke-width="0.4">
      <desc>
        <labelrank>4</labelrank>
        <code_hasc>MX.CA</code_hasc>
        <name>Coahuila</name>
        <admin>Mexico</admin>
        <type_en>State</type_en>
        <region/>
        <woe_id>2346270</woe_id>
        <longitude>-101</longitude>
        <woe_name>Coahuila</woe_name>
        <fips>MX07</fips>
        <woe_label>Coahuila de Zaragoza, MX, Mexico</woe_label>
        <latitude>27</latitude>
        <iso_a2>MX</iso_a2>
        <postal>CO</postal>
        <type>Estado</type>
        <id>MX.CA</id>
      </desc>
    </path>
    <path d="M 319.3964 230.3129 305.7483 256.9193 313.0752 287.4294 301.713 284.5037 293.05 294.7344 281.0004 289.6118 276.4456 291.8066 261.4716 282.5657 258.6367 284.8397 257.7195 291.9372 252.5871 293.8609 253.6623 299.3967 249.9255 307.7619 245.6079 311.4604 241.3463 310.9214 240.7412 310.4052 238.8017 309.1431 238.3726 308.7563 237.3005 307.206 236.7865 306.7205 234.5639 305.4644 234.4629 305.3178 234.1969 303.658 233.3345 302.978 232.3855 299.5808 223.4579 297.0842 218.6589 279.7033 211.1897 275.6947 210.228 276.9176 209.7017 277.4818 209.1348 277.9709 208.5344 276.7932 208.3971 276.7607 207.6544 276.8992 207.3799 276.8497 206.8779 276.373 206.3907 275.6819 205.938 274.9453 205.0644 273.4586 204.5825 272.4233 205.735 269.8352 205.6651 269.1153 205.3288 268.329 205.1976 267.9129 205.1978 267.4951 205.3143 267.0274 205.439 266.5476 205.5401 266.062 205.5819 265.5787 205.5497 265.1375 205.4368 264.7549 205.225 264.4353 203.8435 263.3883 203.41 262.9053 202.9743 262.3346 202.9469 261.9897 203.0069 261.6436 203.3635 261.0759 202.8012 260.5621 202.2374 260.0499 201.1122 259.022 200.8456 258.5694 200.6721 257.503 200.4361 257.0949 198.2078 255.6158 195.6541 248.7055 195.5048 248.1839 195.7313 247.7612 196.1494 247.4001 197.3716 246.3967 197.7582 246.2398 206.4519 247.6395 206.7646 247.5048 208.6463 245.7647 208.651 245.4241 208.4979 244.7931 207.4658 241.6685 207.2572 240.9497 207.055 240.2285 206.8557 239.5056 206.6554 238.7845 206.6847 238.156 207.518 235.57 206.0455 219.7038 207.5111 219.7528 207.8788 219.7334 208.0381 219.6139 210.1979 204.5308 210.1868 204.2162 210.161 203.8602 210.0878 202.3326 209.872 197.7512 209.852 196.8315 209.6868 193.8511 209.6433 193.2645 208.416 191.6319 205.2739 189.9794 204.1317 188.9473 202.9911 187.9132 200.7129 185.8448 200.4596 185.5061 200.4131 185.1581 202.467 173.2471 203.0282 173.2707 203.9083 173.3074 204.7883 173.3437 206.5488 173.4154 210.0691 173.5547 217.9893 173.8468 218.3666 163.0417 255.7105 164.8259 259.3395 171.3336 285.4194 192.4039 294.0412 215.3489 319.3964 230.3129 Z" id="MX.CH" fill="#cee3f5" stroke="#6e6e6e" stroke-width="0.4">
      <desc>
        <labelrank>6</labelrank>
        <code_hasc>MX.CH</code_hasc>
        <name>Chihuahua</name>
        <admin>Mexico</admin>
        <type_en>State</type_en>
        <region/>
        <woe_id>2346269</woe_id>
        <longitude>-106</longitude>
        <woe_name>Chihuahua</woe_name>
        <fips>MX06</fips>
        <woe_label>Chihuahua, MX, Mexico</woe_label>
        <latitude>28</latitude>
        <iso_a2>MX</iso_a2>
        <postal>CH</postal>
        <type>Estado</type>
        <id>MX.CH</id>
      </desc>
    </path>
    <path d="M 313.0752 287.4294 320.8399 295.3057 319.8618 310.0251 316.2488 313.8292 315.8883 320.068 322.0621 329.4442 330.4725 333.1709 334.1963 324.7278 338.1291 330.7843 338.2118 339.4934 320.9137 339.1296 308.5748 349.0751 309.4094 358.6354 302.9514 363.9409 298.3656 391.0279 298.228 390.1026 298.0985 389.1687 297.8489 387.2995 293.4234 388.4321 291.6375 387.1353 291.302 386.4394 290.6363 383.8983 290.4421 383.6814 289.9737 383.3587 289.2544 382.8942 288.5384 382.5199 288.0805 382.4641 284.3359 385.3235 283.1274 385.624 283.3229 382.0779 283.9879 381.3174 284.3076 381.0268 284.8541 380.523 285.3585 380.019 285.553 379.7253 285.2956 379.0946 284.5268 377.2023 284.3025 376.7202 279.1434 373.9169 278.0192 373.7717 274.4944 373.8459 274.4633 372.4525 274.4322 371.0577 268.1381 367.8304 267.1297 362.9201 266.2628 361.377 265.5789 361.2562 265.2474 361.1476 264.9324 360.9921 264.5606 360.6541 264.3418 360.1511 264.114 359.0626 263.3967 357.4557 262.9434 353.912 262.8975 352.9374 263.0437 352.0237 263.3507 351.2746 263.711 350.5743 264.044 349.8588 264.2698 349.0605 263.718 349.2679 263.222 349.3583 262.776 349.2419 262.3705 348.8282 262.0425 348.2513 261.7734 347.646 260.5195 344.3104 260.1238 343.7708 258.5085 342.2779 257.9717 341.7794 257.5255 341.4374 257.0351 341.1796 256.1436 340.9991 255.3152 341.1281 254.5364 341.5133 252.7567 343.3769 252.4137 343.5142 252.0523 343.5478 250.8402 343.5851 250.4998 343.5396 250.1805 343.3798 249.7695 343.0694 249.3711 342.7201 248.2432 341.5695 248.0256 341.2452 247.9526 340.8917 247.7201 338.8316 244.8637 333.4723 242.7513 331.3812 241.7731 331.2979 241.3707 331.2309 241.0554 331.101 238.8372 328.1777 238.6748 327.7099 238.4254 326.7987 238.0588 325.8299 237.2224 322.7546 237.0065 321.6623 237.0431 320.5244 237.7779 316.1543 238.092 315.0829 238.5607 314.2241 239.7326 313.0331 240.2716 312.0708 240.6083 311.6637 240.9825 311.2871 241.3463 310.9214 245.6079 311.4604 249.9255 307.7619 253.6623 299.3967 252.5871 293.8609 257.7195 291.9372 258.6367 284.8397 261.4716 282.5657 276.4456 291.8066 281.0004 289.6118 293.05 294.7344 301.713 284.5037 313.0752 287.4294 Z" id="MX.DU" fill="#cee3f5" stroke="#6e6e6e" stroke-width="0.4">
      <desc>
        <labelrank>6</labelrank>
        <code_hasc>MX.DU</code_hasc>
        <name>Durango</name>
        <admin>Mexico</admin>
        <type_en>State</type_en>
        <region/>
        <woe_id>2346273</woe_id>
        <longitude>-104</longitude>
        <woe_name>Durango</woe_name>
        <fips>MX10</fips>
        <woe_label>Durango, MX, Mexico</woe_label>
        <latitude>24</latitude>
        <iso_a2>MX</iso_a2>
        <postal>DG</postal>
        <type>Estado</type>
        <id>MX.DU</id>
      </desc>
    </path>
    <path d="M 198.8904 314.5382 200.9397 315.9944 196.0529 314.3498 198.8904 314.5382 Z M 274.4944 373.8459 273.0927 374.0694 270.2636 380.1136 273.2012 386.253 266.9428 386.3263 251.4708 369.9616 238.4086 350.6763 221.906 337.5693 228.4294 341.7601 227.8327 337.4782 225.7254 338.9501 219.5584 335.9328 216.3675 330.8431 218.1309 331.5976 218.1183 326.8835 216.7623 325.6944 215.7932 329.9466 210.7389 322.8896 213.808 326.0933 217.7688 325.0023 210.2581 321.4746 210.1204 319.0733 209.205 322.0251 208.5078 319.2296 202.1083 316.689 205.1065 316.9504 201.3893 316.1179 201.4467 312.2944 194.9258 313.3938 200.1593 305.8983 195.1071 310.8717 191.1002 308.4204 193.0241 311.6013 187.5795 309.2496 190.324 307.8025 188.3879 306.5003 187.8413 308.4809 187.0587 305.6888 190.6719 295.1645 190.8767 295.0834 190.8727 297.0067 192.0287 294.5798 193.6926 293.5692 194.9361 295.8582 194.0837 293.0136 208.1139 282.2196 208.9981 277.7308 209.1348 277.9709 209.7017 277.4818 210.228 276.9176 211.1897 275.6947 218.6589 279.7033 223.4579 297.0842 232.3855 299.5808 233.3345 302.978 234.1969 303.658 234.4629 305.3178 234.5639 305.4644 236.7865 306.7205 237.3005 307.206 238.3726 308.7563 238.8017 309.1431 240.7412 310.4052 241.3463 310.9214 240.9825 311.2871 240.6083 311.6637 240.2716 312.0708 238.5607 314.2241 238.092 315.0829 237.7779 316.1543 237.0431 320.5244 237.0065 321.6623 237.2224 322.7546 238.0588 325.8299 238.4254 326.7987 238.6748 327.7099 238.8372 328.1777 241.0554 331.101 241.3707 331.2309 241.7731 331.2979 242.7513 331.3812 244.8637 333.4723 247.7201 338.8316 247.9366 339.6178 247.9526 340.8917 248.0256 341.2452 248.2432 341.5695 249.3711 342.7201 249.7695 343.0694 250.1805 343.3798 250.4998 343.5396 252.4137 343.5142 254.5364 341.5133 255.3152 341.1281 256.1436 340.9991 257.0351 341.1796 257.5255 341.4374 257.9717 341.7794 258.5085 342.2779 260.1238 343.7708 260.5195 344.3104 261.7734 347.646 262.0425 348.2513 262.3705 348.8282 262.776 349.2419 263.222 349.3583 263.718 349.2679 264.2698 349.0605 264.044 349.8588 263.711 350.5743 263.3507 351.2746 263.0437 352.0237 262.8975 352.9374 262.9434 353.912 263.3967 357.4557 264.114 359.0626 264.3418 360.1511 264.5606 360.6541 264.9324 360.9921 265.5789 361.2562 266.2628 361.377 267.1297 362.9201 268.1381 367.8304 274.4322 371.0577 274.4944 373.8459 Z" id="MX.SI" fill="#cee3f5" stroke="#6e6e6e" stroke-width="0.4">
      <desc>
        <labelrank>4</labelrank>
        <code_hasc>MX.SI</code_hasc>
        <name>Sinaloa</name>
        <admin>Mexico</admin>
        <type_en>State</type_en>
        <region/>
        <woe_id>2346288</woe_id>
        <longitude>-108</longitude>
        <woe_name>Sinaloa</woe_name>
        <fips>MX25</fips>
        <woe_label>Sinaloa, MX, Mexico</woe_label>
        <latitude>25</latitude>
        <iso_a2>MX</iso_a2>
        <postal>SI</postal>
        <type>Estado</type>
        <id>MX.SI</id>
      </desc>
    </path>
    <path d="M 130.5402 219.9374 132.0256 224.9762 129.1632 231.4357 123.5768 227.9297 126.5977 220.7218 130.5402 219.9374 Z M 208.9981 277.7308 208.1139 282.2196 194.0837 293.0136 191.6987 292.8595 191.7171 288.9289 187.0357 282.8615 186.7277 284.6158 180.5189 283.1479 177.0195 273.622 165.2768 268.6958 167.3669 268.5206 163.4558 260.1517 166.1732 254.6968 159.0425 253.5185 159.3678 251.5412 158.1605 255.1068 153.6138 252.5304 147.1365 241.2559 141.4946 239.151 136.8244 231.6947 138.6171 230.6828 132.5538 226.3322 131.5768 217.8339 128.0005 216.8767 128.9425 213.5298 121.925 202.743 122.0856 195.4616 116.3425 183.8988 117.1106 171.0655 106.3704 167.1845 105.9531 162.9722 99.7344 158.4051 98.3067 162.4487 94.6317 161.6129 80.5837 150.6211 79.3809 141.1599 84.3442 136.5925 159.194 170.8563 202.467 173.2471 202.1524 175.1544 201.8213 177.1927 201.481 179.2307 200.5988 184.2525 200.4891 184.7549 200.4131 185.1581 200.4596 185.5061 200.7129 185.8448 202.9911 187.9132 204.1317 188.9473 205.2739 189.9794 209.6433 193.2645 209.6868 193.8511 209.852 196.8315 209.872 197.7512 210.0878 202.3326 210.161 203.8602 210.1868 204.2162 210.1979 204.5308 210.145 204.8225 209.6699 205.8685 208.0381 219.6139 207.8788 219.7334 207.5111 219.7528 206.0455 219.7038 206.6554 238.7845 206.8557 239.5056 207.055 240.2285 207.2572 240.9497 207.4658 241.6685 208.4979 244.7931 208.651 245.4241 208.6463 245.7647 206.7646 247.5048 206.4519 247.6395 197.7582 246.2398 197.3716 246.3967 196.1494 247.4001 195.7313 247.7612 195.5048 248.1839 195.6541 248.7055 198.2078 255.6158 200.4361 257.0949 200.6721 257.503 201.1122 259.022 202.2374 260.0499 202.8012 260.5621 203.3635 261.0759 203.1477 261.3277 203.0069 261.6436 202.9469 261.9897 202.9743 262.3346 203.41 262.9053 203.8435 263.3883 205.225 264.4353 205.4368 264.7549 205.5497 265.1375 205.5819 265.5787 205.5401 266.062 205.439 266.5476 205.3143 267.0274 205.1978 267.4951 205.1976 267.9129 205.3288 268.329 205.6651 269.1153 205.735 269.8352 205.4924 270.3246 204.7362 271.2896 204.5572 271.8886 204.5825 272.4233 205.0644 273.4586 205.938 274.9453 206.3907 275.6819 206.8779 276.373 207.3799 276.8497 207.6544 276.8992 208.3971 276.7607 208.5344 276.7932 208.9981 277.7308 Z" id="MX.SO" fill="#cee3f5" stroke="#6e6e6e" stroke-width="0.4">
      <desc>
        <labelrank>4</labelrank>
        <code_hasc>MX.SO</code_hasc>
        <name>Sonora</name>
        <admin>Mexico</admin>
        <type_en>State</type_en>
        <region/>
        <woe_id>2346289</woe_id>
        <longitude>-110</longitude>
        <woe_name>Sonora</woe_name>
        <fips>MX26</fips>
        <woe_label>Sonora, MX, Mexico</woe_label>
        <latitude>29</latitude>
        <iso_a2>MX</iso_a2>
        <postal>SO</postal>
        <type>Estado</type>
        <id>MX.SO</id>
      </desc>
    </path>
    <path d="M 374.6631 336.2818 366.2269 349.9677 342.8861 368.4174 346.2505 379.257 353.9619 387.0704 364.1745 383.8902 365.0081 395.9067 360.7548 401.8993 353.4201 397.7961 349.8985 391.6751 343.3125 387.2313 334.8031 392.2222 330.9256 401.079 333.0525 404.5004 335.6559 410.7345 332.5752 415.3718 326.7799 415.5847 326.4998 421.4227 311.035 417.1118 311.302 410.0119 316.1005 408.1866 315.5602 403.6544 318.7068 400.3077 324.1589 398.6037 326.5952 391.3259 319.242 386.2277 316.7162 395.3843 312.9355 395.8276 314.0101 386.074 311.3317 384.1239 308.606 394.3546 310.1929 381.0565 305.6511 380.187 306.3646 389.8099 302.365 390.4435 301.2911 390.7937 298.7854 391.9172 297.9576 392.338 298.0791 392.0163 298.2057 391.686 298.3093 391.3533 298.3656 391.0279 302.9514 363.9409 309.4094 358.6354 308.5748 349.0751 320.9137 339.1296 338.2118 339.4934 338.1291 330.7843 334.1963 324.7278 344.9591 322.562 357.5152 328.8279 357.2825 332.0684 365.6985 330.4407 368.7402 334.6031 374.6631 336.2818 Z" id="MX.ZA" fill="#cee3f5" stroke="#6e6e6e" stroke-width="0.4">
      <desc>
        <labelrank>6</labelrank>
        <code_hasc>MX.ZA</code_hasc>
        <name>Zacatecas</name>
        <admin>Mexico</admin>
        <type_en>State</type_en>
        <region/>
        <woe_id>2346295</woe_id>
        <longitude>-102</longitude>
        <woe_name>Zacatecas</woe_name>
        <fips>MX32</fips>
        <woe_label>Zacatecas, MX, Mexico</woe_label>
        <latitude>23</latitude>
        <iso_a2>MX</iso_a2>
        <postal>ZA</postal>
        <type>Estado</type>
        <id>MX.ZA</id>
      </desc>
    </path>
    <path d="M 394.3829 258.6853 395.8471 259.8149 396.0834 260.535 396.2497 260.6356 396.5298 261.04 394.3472 262.1858 392.3566 263.5468 392.2689 263.879 392.2852 264.4595 392.387 265.0164 392.5536 265.2793 395.7489 266.3478 396.7307 278.7636 397.4382 279.6039 398.9639 279.8456 399.2119 280.0457 399.9622 280.42 400.2473 280.8925 400.4606 280.9646 400.1846 281.3873 399.8601 281.8298 399.6071 282.3081 399.543 282.8322 399.5377 283.4701 399.345 283.8666 399.0296 284.2049 398.6505 284.6641 399.0952 284.6509 399.534 284.6309 399.9722 284.5947 400.4118 284.5355 400.6909 284.5691 404.3685 286.5146 404.5772 287.893 404.4397 288.5593 404.1595 289.1763 404.0045 289.3922 403.8864 289.5465 403.8112 289.7444 403.7874 290.0875 403.7909 290.5595 403.8237 290.9489 403.9392 291.3066 404.5735 292.0917 405.8233 291.3352 407.6109 293.6745 407.9147 293.8234 408.915 293.7098 409.2283 293.7576 410.4664 299.2874 412.5034 298.145 412.8876 298.3189 415.8521 301.1333 422.7692 300.1954 423.463 312.0766 423.6363 312.6867 425.9239 312.7852 426 312.9977 426.0314 313.4007 426.061 313.8404 425.8153 314.2108 416.7575 322.3756 411.1467 323.4202 410.9926 330.0687 408.0975 328.9541 404.128 331.1848 402.7005 333.4946 402.5041 333.5592 401.8194 333.2191 400.4402 333.7341 400.0828 334.0032 398.6042 335.464 398.6103 335.9523 398.7984 336.586 399.0577 337.239 399.2722 337.7761 400.3954 337.2578 400.9558 336.9979 401.5161 336.7385 401.8298 337.9998 401.8562 338.1088 401.9318 338.4215 402.0073 338.7331 402.0839 339.0452 402.2837 339.8963 402.3509 340.328 402.3389 340.7425 401.6516 343.7495 401.5624 344.5788 401.5971 345.7409 401.7902 346.8369 405.1139 349.9529 405.2503 350.4629 405.3141 350.6904 405.405 351.0077 405.4648 351.3173 405.4319 351.5221 402.2662 354.6283 396.9781 355.4258 395.7519 357.7223 395.0498 359.5707 394.79 360.0899 394.6929 360.3535 394.6608 360.615 395.2495 362.4236 395.5214 363.3347 395.7933 364.2446 395.1985 364.1226 394.6023 363.9547 392.7343 363.3731 392.1072 363.6945 391.5281 364.25 390.9442 364.8427 391.4074 365.0946 392.0142 365.4316 392.5377 365.8157 392.7429 366.2066 392.6933 366.5455 392.6415 366.8845 392.5388 367.5612 391.0679 367.3996 386.5562 367.4184 384.0796 368.0886 379.4397 342.2491 374.6631 336.2818 375.0619 322.9178 387.942 318.8466 376.9525 313.6475 379.5814 312.8469 374.9775 309.5681 373.3731 302.921 365.1592 293.1477 374.9192 284.2816 375.8819 287.0033 378.0169 284.5647 378.8467 276.4593 374.7029 277.5378 373.3046 273.1046 380.8638 269.181 382.6945 261.4261 386.3635 258.4374 390.8956 262.0264 394.3829 258.6853 Z" id="MX.NL" fill="#cee3f5" stroke="#6e6e6e" stroke-width="0.4">
      <desc>
        <labelrank>4</labelrank>
        <code_hasc>MX.NL</code_hasc>
        <name>Nuevo León</name>
        <admin>Mexico</admin>
        <type_en>State</type_en>
        <region/>
        <woe_id>2346282</woe_id>
        <longitude>-99</longitude>
        <woe_name>Nuevo León</woe_name>
        <fips>MX19</fips>
        <woe_label>Nuevo Leon, MX, Mexico</woe_label>
        <latitude>25</latitude>
        <iso_a2>MX</iso_a2>
        <postal>NL</postal>
        <type>Estado</type>
        <id>MX.NL</id>
      </desc>
    </path>
    <path d="M 392.5388 367.5612 392.4216 368.2929 392.2249 369.0121 392.0291 369.7311 391.9141 370.4664 392.262 370.1238 392.8134 369.6014 393.368 369.2302 393.7225 369.3462 393.9302 370.6577 395.8619 372.8232 396.0447 373.6267 395.9953 373.9682 395.8804 374.272 395.506 374.8168 393.5296 375.8779 393.2326 376.2166 393.1901 376.492 394.1321 378.5028 394.418 378.6408 401.8915 381.3814 402.7436 381.6573 403.6009 381.9093 404.1715 382.0934 404.5668 382.165 404.7644 381.9662 404.7477 381.3448 404.399 379.9694 404.3156 379.7412 404.2282 379.6012 404.2357 379.5141 404.4341 379.453 404.6352 379.5086 404.8951 379.674 405.1515 379.8729 406.8945 381.6558 408.027 380.4671 408.2759 380.8462 408.3357 380.9808 408.7107 381.6462 409.5361 382.91 410.7328 385.3061 411.1233 385.7586 411.5784 386.0697 412.0768 386.229 414.4337 386.5612 415.7119 386.8778 417.3919 387.4331 418.0957 387.5955 419.9263 387.8163 420.5307 387.8427 421.9536 386.653 422.6075 386.554 423.3414 386.4619 423.9806 386.2178 424.3539 385.6666 424.5672 385.8375 424.7904 385.9931 425.0242 386.1234 425.2729 386.2171 425.409 386.3002 425.543 386.3896 425.8055 386.5722 426.2855 386.8497 427.6396 387.8046 430.2789 389.2846 431.2384 390.1571 431.4586 390.7155 431.4671 391.4279 431.2201 392.3879 429.3442 396.6038 429.0213 396.4695 428.7899 396.7569 428.5797 396.7799 428.0682 396.6577 427.8047 396.6802 427.4224 396.8738 426.2599 396.7387 426.336 397.4047 427.6566 397.1782 427.7211 397.3498 427.4346 397.5634 427.1959 397.877 427.4088 398.3526 426.8638 398.5435 426.9828 399.0538 427.3845 399.5807 427.6802 399.8207 428.5951 399.7039 428.6995 399.9461 428.719 400.2438 428.7669 400.4944 429.3464 400.7111 429.4207 401.0129 429.3243 401.3486 429.2166 401.5691 428.9905 401.8848 428.162 402.431 428.116 402.5036 428.0786 402.6206 428.0317 402.7318 427.8047 402.7503 427.5219 402.6142 427.1748 402.7752 427.045 402.9392 427.0644 403.115 427.2873 403.2994 426.9618 403.6348 426.0921 403.5552 425.759 403.8498 425.7919 405.2123 425.5058 405.5236 425.4166 405.691 425.6551 406.1695 425.9891 406.5277 426.4046 406.7896 426.889 406.993 427.5931 407.2864 428.0125 407.6164 428.4623 410.6308 426.8889 415.178 416.6848 414.1867 412.918 405.2466 408.959 410.4897 404.4689 411.5511 401.2866 408.7548 399.7696 411.0936 385.8388 405.2648 380.94 409.8467 373.3098 403.8191 360.7548 401.8993 365.0081 395.9067 364.1745 383.8902 353.9619 387.0704 346.2505 379.257 342.8861 368.4174 366.2269 349.9677 374.6631 336.2818 379.4397 342.2491 384.0796 368.0886 386.5562 367.4184 391.0679 367.3996 392.5388 367.5612 Z" id="MX.SL" fill="#cee3f5" stroke="#6e6e6e" stroke-width="0.4">
      <desc>
        <labelrank>7</labelrank>
        <code_hasc>MX.SL</code_hasc>
        <name>San Luis Potosí</name>
        <admin>Mexico</admin>
        <type_en>State</type_en>
        <region/>
        <woe_id>2346287</woe_id>
        <longitude>-100</longitude>
        <woe_name>San Luis Potosí</woe_name>
        <fips>MX24</fips>
        <woe_label>San Luis Potosi, MX, Mexico</woe_label>
        <latitude>22</latitude>
        <iso_a2>MX</iso_a2>
        <postal>SL</postal>
        <type>Estado</type>
        <id>MX.SL</id>
      </desc>
    </path>
    <path d="M 444.0704 388.9456 442.3146 390.3123 434.5612 384.3577 432.1442 386.4067 429.212 385.7236 428.9273 385.9525 427.5474 385.7279 426.0333 386.091 425.2729 386.2171 425.0242 386.1234 424.7904 385.9931 424.5672 385.8375 424.3539 385.6666 423.9806 386.2178 423.3414 386.4619 422.6075 386.554 421.9536 386.653 420.5307 387.8427 419.9263 387.8163 418.0957 387.5955 417.3919 387.4331 415.7119 386.8778 414.4337 386.5612 412.0768 386.229 411.5784 386.0697 411.1233 385.7586 410.7328 385.3061 409.5361 382.91 408.7107 381.6462 408.3357 380.9808 408.2759 380.8462 408.027 380.4671 406.8945 381.6558 405.1515 379.8729 404.8951 379.674 404.6352 379.5086 404.4341 379.453 404.2357 379.5141 404.2282 379.6012 404.3156 379.7412 404.399 379.9694 404.6754 380.9995 404.7477 381.3448 404.7644 381.9662 404.5668 382.165 404.1715 382.0934 403.6009 381.9093 402.7436 381.6573 401.8915 381.3814 396.6156 379.4427 395.5809 379.0183 394.418 378.6408 394.1321 378.5028 393.8637 377.6248 393.7403 377.3778 393.3244 376.7622 393.1901 376.492 393.2326 376.2166 393.5296 375.8779 395.506 374.8168 395.8804 374.272 395.9953 373.9682 396.0447 373.6267 395.8619 372.8232 393.9302 370.6577 393.7225 369.3462 393.368 369.2302 391.9141 370.4664 392.0291 369.7311 392.2249 369.0121 392.4216 368.2929 392.5388 367.5612 392.5908 367.2235 392.6415 366.8845 392.6933 366.5455 392.7429 366.2066 392.5377 365.8157 390.9442 364.8427 391.5281 364.25 392.1072 363.6945 392.7343 363.3731 393.4579 363.4879 394.6023 363.9547 395.1985 364.1226 395.7933 364.2446 395.5214 363.3347 395.2495 362.4236 394.9653 361.5165 394.6608 360.615 394.6929 360.3535 394.79 360.0899 395.7519 357.7223 396.7036 355.7801 396.9781 355.4258 397.3818 355.2237 402.2662 354.6283 404.3199 351.5908 405.2081 351.5882 405.4319 351.5221 405.4648 351.3173 405.405 351.0077 405.3141 350.6904 405.2503 350.4629 405.1139 349.9529 404.8393 349.6004 401.7902 346.8369 401.5971 345.7409 401.5624 344.5788 401.6516 343.7495 402.3389 340.7425 402.3509 340.328 402.2837 339.8963 402.0839 339.0452 402.0073 338.7331 401.9318 338.4215 401.8562 338.1088 401.8298 337.9998 401.5161 336.7385 400.9558 336.9979 400.3954 337.2578 399.2722 337.7761 399.0577 337.239 398.7984 336.586 398.6103 335.9523 398.6042 335.464 400.0828 334.0032 400.4402 333.7341 401.8194 333.2191 402.5041 333.5592 402.7005 333.4946 404.128 331.1848 408.0975 328.9541 410.9926 330.0687 411.1467 323.4202 416.7575 322.3756 425.8153 314.2108 426.061 313.8404 426.0314 313.4007 426 312.9977 425.9239 312.7852 423.6363 312.6867 423.463 312.0766 422.7692 300.1954 417.0356 298.9537 415.8521 301.1333 412.8876 298.3189 412.5034 298.145 410.4664 299.2874 409.2283 293.7576 408.915 293.7098 407.9147 293.8234 407.6109 293.6745 405.8233 291.3352 404.5735 292.0917 403.9392 291.3066 403.8237 290.9489 403.7909 290.5595 403.7874 290.0875 403.8112 289.7444 403.8864 289.5465 404.0045 289.3922 404.1595 289.1763 404.4397 288.5593 404.5772 287.893 404.5582 287.2011 404.3685 286.5146 400.6909 284.5691 400.4118 284.5355 399.9722 284.5947 399.534 284.6309 399.0952 284.6509 398.6505 284.6641 399.0296 284.2049 399.345 283.8666 399.5377 283.4701 399.543 282.8322 399.6071 282.3081 399.8601 281.8298 400.1846 281.3873 400.4606 280.9646 400.2473 280.8925 399.9622 280.42 399.2119 280.0457 398.9639 279.8456 396.7307 278.7636 395.7489 266.3478 392.5536 265.2793 392.387 265.0164 392.2852 264.4595 392.2689 263.879 392.3566 263.5468 394.3472 262.1858 395.4005 261.5993 396.4602 261.0736 396.5189 261.0453 396.5298 261.04 400.9684 263.1858 402.4263 275.5535 411.1576 290.8193 431.0284 298.1846 442.4754 298.453 447.7947 302.4161 453.8774 299.4093 444.4811 334.8768 443.6677 352.036 441.543 352.5504 443.0558 355.7696 443.8079 353.6281 444.2082 372.1018 441.2289 380.9519 442.4816 379.4639 444.0704 388.9456 Z" id="MX.TM" fill="#cee3f5" stroke="#6e6e6e" stroke-width="0.4">
      <desc>
        <labelrank>4</labelrank>
        <code_hasc>MX.TM</code_hasc>
        <name>Tamaulipas</name>
        <admin>Mexico</admin>
        <type_en>State</type_en>
        <region/>
        <woe_id>2346291</woe_id>
        <longitude>-98</longitude>
        <woe_name>Tamaulipas</woe_name>
        <fips>MX28</fips>
        <woe_label>Tamaulipas, MX, Mexico</woe_label>
        <latitude>24</latitude>
        <iso_a2>MX</iso_a2>
        <postal>TM</postal>
        <type>Estado</type>
        <id>MX.TM</id>
      </desc>
    </path>
    <path d="M 353.4201 397.7961 344.9149 406.0613 333.0525 404.5004 330.9256 401.079 334.8031 392.2222 343.3125 387.2313 349.8985 391.6751 353.4201 397.7961 Z" id="MX.AG" fill="#cee3f5" stroke="#6e6e6e" stroke-width="0.4">
      <desc>
        <labelrank>9</labelrank>
        <code_hasc>MX.AG</code_hasc>
        <name>Aguascalientes</name>
        <admin>Mexico</admin>
        <type_en>State</type_en>
        <region/>
        <woe_id>2346264</woe_id>
        <longitude>-102</longitude>
        <woe_name>Aguascalientes</woe_name>
        <fips>MX01</fips>
        <woe_label>Aguascalientes, MX, Mexico</woe_label>
        <latitude>22</latitude>
        <iso_a2>MX</iso_a2>
        <postal>AG</postal>
        <type>Estado</type>
        <id>MX.AG</id>
      </desc>
    </path>
    <path d="M 147.3498 474.2003 144.111 473.0817 145.7297 470.746 147.3498 474.2003 Z M 308.8199 460.7789 309.2281 460.9348 311.2552 460.2272 311.8723 459.885 312.3681 459.3106 312.8475 458.7473 313.4168 458.4359 317.0078 462.981 317.3551 471.2208 317.0572 471.1715 315.0916 473.2048 314.312 473.1005 313.9735 475.1608 313.7214 475.4462 312.7897 475.7292 312.1323 477.2155 311.8987 477.4735 311.6019 477.6811 311.3617 477.8506 297.9827 468.0889 291.9829 466.8808 291.9902 466.3322 293.2631 464.5075 300.5771 462.7978 301.9904 460.9343 302.116 460.4889 302.1864 459.9163 302.3695 459.5105 304.1752 457.606 304.2741 457.8953 304.2931 457.9917 304.3115 458.1326 304.3568 458.234 304.3698 458.3255 304.2926 458.4393 304.8778 458.7994 306.0872 459.4401 307.0193 460.0415 308.8199 460.7789 Z" id="MX.CL" fill="#cee3f5" stroke="#6e6e6e" stroke-width="0.4">
      <desc>
        <labelrank>7</labelrank>
        <code_hasc>MX.CL</code_hasc>
        <name>Colima</name>
        <admin>Mexico</admin>
        <type_en>State</type_en>
        <region/>
        <woe_id>2346271</woe_id>
        <longitude>-103</longitude>
        <woe_name>Colima</woe_name>
        <fips>MX08</fips>
        <woe_label>Colima, MX, Mexico</woe_label>
        <latitude>19</latitude>
        <iso_a2>MX</iso_a2>
        <postal>CL</postal>
        <type>Estado</type>
        <id>MX.CL</id>
      </desc>
    </path>
    <path d="M 333.0525 404.5004 344.9149 406.0613 353.4201 397.7961 360.7548 401.8993 358.2001 408.8351 359.7984 413.7394 353.5369 418.6164 348.4242 427.2605 351.2069 432.0892 348.2927 436.9351 326.2701 443.9194 327.224 447.1296 333.4184 447.5084 333.914 458.9175 337.0584 458.5494 338.4102 460.9976 324.841 471.4792 321.8073 469.1239 317.3551 471.2208 317.2314 470.5684 317.0344 469.9584 316.2618 468.2084 317.0078 462.981 313.4168 458.4359 312.8475 458.7473 312.3681 459.3106 311.8723 459.885 311.2552 460.2272 309.955 460.3427 309.2281 460.9348 307.0193 460.0415 306.0872 459.4401 304.8778 458.7994 304.2926 458.4393 304.3698 458.3255 304.3568 458.234 304.3115 458.1326 304.2931 457.9917 304.2741 457.8953 304.1752 457.606 302.3695 459.5105 302.1864 459.9163 302.116 460.4889 301.9904 460.9343 300.5771 462.7978 293.2631 464.5075 291.9829 466.8808 283.6893 462.8284 267.0688 436.6687 276.062 433.7421 277.5787 431.2546 276.468 430.4363 276.3129 430.074 276.6027 429.9507 276.8504 429.742 277.3022 428.9702 278.4386 427.5453 279.4412 425.9599 280.0444 425.175 280.7589 424.5216 281.596 424.0789 281.8952 424.0716 282.2708 424.5643 284.5882 424.2248 287.6667 422.1111 287.8862 422.0944 288.1074 422.1062 288.3292 422.1389 288.7563 422.2501 289.0103 422.3584 291.4096 424.4364 293.6141 424.8355 298.9523 429.5897 300.6908 422.7615 300.3296 418.5503 304.4685 417.3342 306.0601 415.7217 306.1975 414.2878 306.3263 413.8521 306.591 413.6115 306.4246 413.529 305.0763 412.8059 303.5865 411.9552 302.1078 411.0766 300.6334 410.1751 301.1293 409.5587 301.5198 408.9646 301.7997 408.3162 301.9613 407.5318 302.0233 407.1359 302.3288 405.9901 303.0428 404.1559 303.1296 403.8218 302.4988 402.994 301.8626 402.1957 300.4989 400.6681 298.7879 399.0263 297.0116 397.4677 296.5447 396.9963 296.4204 396.6214 296.5416 396.1761 296.8093 395.4996 297.9576 392.338 298.7854 391.9172 301.2911 390.7937 302.365 390.4435 306.3646 389.8099 305.6511 380.187 310.1929 381.0565 308.606 394.3546 311.3317 384.1239 314.0101 386.074 312.9355 395.8276 316.7162 395.3843 319.242 386.2277 326.5952 391.3259 324.1589 398.6037 318.7068 400.3077 315.5602 403.6544 316.1005 408.1866 311.302 410.0119 311.035 417.1118 326.4998 421.4227 326.7799 415.5847 332.5752 415.3718 335.6559 410.7345 333.0525 404.5004 Z" id="MX.JA" fill="#cee3f5" stroke="#6e6e6e" stroke-width="0.4">
      <desc>
        <labelrank>4</labelrank>
        <code_hasc>MX.JA</code_hasc>
        <name>Jalisco</name>
        <admin>Mexico</admin>
        <type_en>State</type_en>
        <region/>
        <woe_id>2346277</woe_id>
        <longitude>-103</longitude>
        <woe_name>Jalisco</woe_name>
        <fips>MX14</fips>
        <woe_label>Jalisco, MX, Mexico</woe_label>
        <latitude>20</latitude>
        <iso_a2>MX</iso_a2>
        <postal>JA</postal>
        <type>Estado</type>
        <id>MX.JA</id>
      </desc>
    </path>
    <path d="M 389.3711 440.3102 393.231 446.8222 391.3697 455.8179 392.9948 458.8795 382.4288 472.6744 378.694 474.4161 382.4911 485.4656 378.161 481.7013 362.2379 482.4462 355.6458 479.9125 352.8317 489.0498 347.5095 490.4178 347.4621 495.9896 316.957 486.3696 315.1883 482.578 312.1747 480.2214 312.6394 479.3265 312.3191 478.7108 311.5373 478.0287 311.3617 477.8506 312.7897 475.7292 313.7214 475.4462 313.9735 475.1608 314.312 473.1005 315.0916 473.2048 317.3551 471.2208 321.8073 469.1239 324.841 471.4792 338.4102 460.9976 337.0584 458.5494 333.914 458.9175 333.4184 447.5084 327.224 447.1296 326.2701 443.9194 348.2927 436.9351 351.6955 437.3849 353.0221 441.3687 357.9934 441.4854 359.2545 438.4229 362.7331 437.9553 364.6656 439.4839 363.7891 444.6769 372.8029 443.4683 372.4334 446.575 374.9144 447.5661 384.2903 447.7339 389.3711 440.3102 Z" id="MX.MC" fill="#cee3f5" stroke="#6e6e6e" stroke-width="0.4">
      <desc>
        <labelrank>4</labelrank>
        <code_hasc>MX.MC</code_hasc>
        <name>Michoacán</name>
        <admin>Mexico</admin>
        <type_en>State</type_en>
        <region/>
        <woe_id>2346279</woe_id>
        <longitude>-101</longitude>
        <woe_name>Michoacán</woe_name>
        <fips>MX16</fips>
        <woe_label>Michoacan de Ocampo, MX, Mexico</woe_label>
        <latitude>19</latitude>
        <iso_a2>MX</iso_a2>
        <postal>MI</postal>
        <type>Estado</type>
        <id>MX.MC</id>
      </desc>
    </path>
    <path d="M 266.9428 386.3263 273.2012 386.253 270.2636 380.1136 273.0927 374.0694 274.4944 373.8459 278.0192 373.7717 279.1434 373.9169 284.3025 376.7202 284.5268 377.2023 285.553 379.7253 285.3585 380.019 284.8541 380.523 284.3076 381.0268 283.9879 381.3174 283.3229 382.0779 283.1274 385.624 288.0805 382.4641 288.5384 382.5199 289.2544 382.8942 289.9737 383.3587 290.4421 383.6814 290.6363 383.8983 290.7585 384.1881 291.6375 387.1353 293.4234 388.4321 297.8489 387.2995 298.0985 389.1687 298.228 390.1026 298.3656 391.0279 298.3093 391.3533 298.2057 391.686 298.0791 392.0163 297.9576 392.338 296.8093 395.4996 296.5416 396.1761 296.4204 396.6214 296.5447 396.9963 297.0116 397.4677 298.7879 399.0263 300.4989 400.6681 301.8626 402.1957 302.4988 402.994 303.1296 403.8218 303.0428 404.1559 302.3288 405.9901 302.0233 407.1359 301.9613 407.5318 301.7997 408.3162 300.6334 410.1751 302.1078 411.0766 303.5865 411.9552 306.591 413.6115 306.3263 413.8521 306.1975 414.2878 306.0601 415.7217 304.4685 417.3342 300.3296 418.5503 298.9523 429.5897 293.6141 424.8355 291.4096 424.4364 289.0103 422.3584 288.7563 422.2501 288.3292 422.1389 288.1074 422.1062 287.8862 422.0944 287.6667 422.1111 287.4511 422.1649 284.5882 424.2248 282.2708 424.5643 281.8952 424.0716 281.596 424.0789 280.7589 424.5216 280.0444 425.175 279.4412 425.9599 278.4386 427.5453 277.3022 428.9702 276.8504 429.742 276.6027 429.9507 276.3129 430.074 270.6037 428.0502 277.6349 421.0857 278.7932 411.9466 272.9212 407.4088 268.8715 399.6031 266.9428 386.3263 Z" id="MX.NA" fill="#cee3f5" stroke="#6e6e6e" stroke-width="0.4">
      <desc>
        <labelrank>4</labelrank>
        <code_hasc>MX.NA</code_hasc>
        <name>Nayarit</name>
        <admin>Mexico</admin>
        <type_en>State</type_en>
        <region/>
        <woe_id>2346281</woe_id>
        <longitude>-104</longitude>
        <woe_name>Nayarit</woe_name>
        <fips>MX18</fips>
        <woe_label>Nayarit, MX, Mexico</woe_label>
        <latitude>21</latitude>
        <iso_a2>MX</iso_a2>
        <postal>NA</postal>
        <type>Estado</type>
        <id>MX.NA</id>
      </desc>
    </path>
    <path d="M 639.0951 439.705 640.1872 441.0217 646.1843 445.1602 649.4293 449.516 648.3474 462.6885 651.1048 474.5576 649.0216 480.9659 648.9692 484.3709 605.96 488.02 605.6456 483.9544 604.2383 484.0013 603.5589 484.0215 602.8808 484.0428 602.5417 483.9937 601.8773 483.4449 601.4507 483.3106 600.0626 483.4197 599.6274 483.3482 599.1652 483.1198 597.8992 482.298 597.5112 482.1189 594.0716 481.4963 592.5663 481.5445 591.9163 481.6131 591.4557 481.7875 591.4046 481.9052 591.3139 482.1499 591.1777 482.5601 591.2389 483.9884 591.059 484.6095 590.8509 485.1754 590.6745 485.4475 585.3858 485.7457 578.1196 480.9661 577.7878 473.8142 574.5197 474.1401 573.4815 474.0609 573.2674 474.088 572.9485 474.2611 572.6985 474.1856 571.9093 473.6407 571.504 473.2255 571.2791 472.6579 571.1172 472.0406 570.9024 471.48 570.5978 471.0721 570.226 470.6484 569.9163 470.1991 569.8084 469.7417 571.4928 469.1234 582.0723 467.8997 584.126 470.0303 579.8838 471.5929 583.7794 472.3243 583.333 470.5169 585.9918 475.1134 585.8975 472.5265 593.2562 473.351 592.7134 471.5366 599.9558 467.4523 597.2892 468.3365 597.8662 465.6647 594.2542 464.0182 598.1178 460.1932 592.1429 464.1019 608.8807 449.8764 609.0708 440.7948 614.0612 433.8079 612.2966 420.2446 614.1812 412.9312 614.5257 419.7281 614.998 420.3944 618.1955 420.3253 621.6984 422.5498 623.319 420.9194 639.0951 439.705 Z" id="MX.CM" fill="#cee3f5" stroke="#6e6e6e" stroke-width="0.4">
      <desc>
        <labelrank>6</labelrank>
        <code_hasc>MX.CM</code_hasc>
        <name>Campeche</name>
        <admin>Mexico</admin>
        <type_en>State</type_en>
        <region/>
        <woe_id>2346267</woe_id>
        <longitude>-90</longitude>
        <woe_name>Campeche</woe_name>
        <fips>MX04</fips>
        <woe_label>Campeche, MX, Mexico</woe_label>
        <latitude>18</latitude>
        <iso_a2>MX</iso_a2>
        <postal>CM</postal>
        <type>Estado</type>
        <id>MX.CM</id>
      </desc>
    </path>
    <path d="M 431.5663 532.7275 436.4197 530.3879 436.2446 527.0841 442.2735 521.6293 443.8643 515.5906 436.167 508.5576 435.1969 494.7626 439.6643 491.3877 447.8541 493.1188 447.2965 488.0347 451.8602 482.9118 451.2447 487.51 455.7222 491.9768 460.0944 487.229 466.1463 488.0725 470.7112 484.0205 471.7701 481.7933 471.9239 481.3988 471.9962 480.9118 473.201 474.616 479.1552 477.4862 485.347 486.6244 492.8246 486.9932 493.2866 487.6469 493.9734 489.2229 494.4017 489.9432 494.0186 491.1263 493.4433 492.1206 491.984 493.9776 491.9172 494.0881 491.8565 494.2009 491.5198 495.2011 491.5902 495.8579 491.8756 496.5013 494.4103 501.0235 494.7065 501.3651 495.0551 501.5144 498.987 501.2956 499.8803 500.8351 499.9991 500.2929 500.4522 500.0503 500.8215 499.7877 501.1804 499.5582 501.7484 499.3863 502.7795 498.2488 507.8253 495.6746 508.0383 495.882 508.1253 496.1884 508.1275 496.5264 508.0819 496.8217 508.06 497.0131 507.9879 497.7004 507.8242 497.8411 507.1603 498.214 507.0212 498.4899 506.9709 498.7666 506.9582 499.0502 506.9268 499.3447 507.6792 500.1248 509.1558 501.7089 511.3098 503.7737 513.1285 504.4302 514.7006 507.8419 516.2185 507.9666 517.861 507.9242 519.0245 507.8875 525.0087 508.0627 528.6492 508.0931 532.2926 508.1193 535.9379 508.1438 539.5851 508.1654 539.7921 508.7715 539.8563 509.4621 539.8909 511.5072 539.2728 511.4186 539.0377 511.8373 539.0537 514.7518 538.0775 515.4449 537.7532 515.6758 536.3909 516.5345 536.1161 516.8568 536.067 517.3507 536.1569 518.0032 536.3968 519.1882 536.4405 519.6999 536.4336 520.1941 536.3546 520.6782 536.1844 521.157 534.9481 523 534.5284 524.0316 534.7929 524.9854 536.4523 528.1271 536.7785 528.931 536.8849 529.638 536.8508 530.0896 536.8048 530.5694 536.7316 531.0406 536.6122 531.465 536.4486 531.8063 536.0597 532.4491 535.9422 532.7103 528.8783 529.5023 527.5604 530.7766 535.321 534.97 520.9242 532.2095 524.0886 528.9802 519.2041 530.8838 517.6307 526.8035 512.8645 530.9204 518.2143 530.2532 516.0117 531.3645 519.8831 532.2823 510.9566 532.9776 504.5158 538.3868 478.6092 547.0711 461.8094 540.9872 449.9774 540.3269 440.5203 535.0896 442.9337 535.1807 431.5663 532.7275 Z" id="MX.OA" fill="#cee3f5" stroke="#6e6e6e" stroke-width="0.4">
      <desc>
        <labelrank>6</labelrank>
        <code_hasc>MX.OA</code_hasc>
        <name>Oaxaca</name>
        <admin>Mexico</admin>
        <type_en>State</type_en>
        <region/>
        <woe_id>2346283</woe_id>
        <longitude>-96</longitude>
        <woe_name>Oaxaca</woe_name>
        <fips>MX20</fips>
        <woe_label>Oaxaca, MX, Mexico</woe_label>
        <latitude>16</latitude>
        <iso_a2>MX</iso_a2>
        <postal>OA</postal>
        <type>Estado</type>
        <id>MX.OA</id>
      </desc>
    </path>
    <path d="M 471.9962 480.9118 471.9239 481.3988 471.7701 481.7933 470.7112 484.0205 466.1463 488.0725 460.0944 487.229 455.7222 491.9768 451.2447 487.51 451.8602 482.9118 447.2965 488.0347 447.8541 493.1188 439.6643 491.3877 435.1969 494.7626 425.849 492.2582 418.7376 484.2617 423.7702 480.65 427.2285 482.1407 425.3556 475.8414 427.2764 475.7709 425.6456 472.9473 427.471 467.7991 427.2513 457.2654 431.2582 457.6972 437.7528 465.4571 450.6543 459.8492 440.6384 450.6167 438.4128 451.8035 435.7963 447.6596 438.9846 441.4383 434.9024 438.2264 440.9243 432.1656 441.2279 431.9522 441.4826 431.6871 441.6837 431.3744 442.0644 430.0502 441.5035 427.3816 441.763 427.2793 442.05 427.1609 443.02 425.4969 442.9676 424.3327 443.1612 423.9951 443.4143 423.8579 443.6662 423.8652 443.9171 423.9634 444.1686 424.1051 445.6107 424.0478 446.1396 424.4432 446.4686 424.8717 447.5514 428.0497 447.0953 428.8777 450.1495 429.4405 450.862 430.6924 450.9138 431.2881 450.863 431.421 450.7937 431.5323 450.6033 431.6946 450.3756 432.0914 450.1158 432.5642 449.8386 433.0165 449.5574 433.3419 449.1597 433.4927 448.8449 433.3162 447.8943 432.3389 446.0101 433.2791 446.2522 437.0441 450.8359 440.5799 454.679 437.0276 460.4905 439.5234 460.9105 440.086 460.5282 441.1011 458.3507 443.6448 457.1976 445.6686 457.184 446.1888 457.302 446.7533 457.4408 447.8166 457.3776 449.2423 455.7393 451.747 455.6404 452.3291 455.6347 452.8265 455.6301 452.945 455.6277 453.0597 455.6128 453.4739 455.8432 453.6801 456.4587 454.0598 456.4887 454.2455 456.4433 454.4641 456.4211 454.6718 456.515 454.83 456.8241 455.0216 456.9737 455.1264 457.1132 455.244 457.3443 455.6931 457.1635 456.068 456.7582 456.3288 455.5909 456.4523 455.3953 456.6122 455.6011 456.995 455.8897 457.1478 457.5235 457.9335 458.5894 457.6007 460.0439 459.2268 465.2941 460.1843 465.2581 460.3405 465.1703 460.4751 464.08 461.7694 462.4802 462.7676 458.9515 463.3529 458.8007 463.926 458.8774 464.6767 459.0618 465.4269 459.2381 466.0054 459.3166 466.2763 459.4524 466.8191 459.485 467.0994 459.4872 467.2115 459.494 467.3209 459.529 467.6011 459.6477 468.1595 460.0445 469.265 460.0779 469.7684 459.8994 469.96 459.0584 470.2244 458.8234 470.3982 458.4697 471.1973 458.3137 471.3605 457.7614 471.8534 457.541 472.5199 457.6304 473.2515 457.9046 473.9757 458.2353 474.623 458.35 474.8514 458.504 475.0534 458.6898 475.2193 458.905 475.3441 459.3196 475.4373 459.6831 475.3506 460.0347 475.1721 460.4133 474.9851 462.3772 475.5268 462.8089 476.8605 463.3774 477.4857 463.5056 477.8644 463.3607 479.4607 463.6756 479.5403 464.3846 479.4269 464.7537 479.5528 466.2332 478.5561 467.7212 478.1232 468.293 477.9997 468.8651 477.8836 469.5251 477.6802 470.1963 477.6008 471.9962 480.9118 Z" id="MX.PU" fill="#cee3f5" stroke="#6e6e6e" stroke-width="0.4">
      <desc>
        <labelrank>7</labelrank>
        <code_hasc>MX.PU</code_hasc>
        <name>Puebla</name>
        <admin>Mexico</admin>
        <type_en>State</type_en>
        <region/>
        <woe_id>2346284</woe_id>
        <longitude>-97</longitude>
        <woe_name>Puebla</woe_name>
        <fips>MX21</fips>
        <woe_label>Puebla, MX, Mexico</woe_label>
        <latitude>18</latitude>
        <iso_a2>MX</iso_a2>
        <postal>PU</postal>
        <type>Estado</type>
        <id>MX.PU</id>
      </desc>
    </path>
    <path d="M 572.9485 474.2611 573.2674 474.088 573.4815 474.0609 574.5197 474.1401 577.7878 473.8142 578.1196 480.9661 585.3858 485.7457 590.6745 485.4475 590.8509 485.1754 591.059 484.6095 591.2389 483.9884 591.1777 482.5601 591.3139 482.1499 591.4046 481.9052 591.4557 481.7875 591.9163 481.6131 592.5663 481.5445 594.0716 481.4963 597.5112 482.1189 597.8992 482.298 599.1652 483.1198 599.6274 483.3482 600.0626 483.4197 601.4507 483.3106 601.8773 483.4449 602.5417 483.9937 602.8808 484.0428 603.5589 484.0215 604.2383 484.0013 605.6456 483.9544 606.8961 501.4801 596.5234 502.1331 596.4572 502.0497 596.3434 501.739 596.3378 501.3335 596.408 500.9507 596.5264 500.7041 597.4089 500.4929 597.4685 500.1361 596.5283 498.914 595.5383 498.8803 595.187 498.8003 594.8934 498.6377 594.7909 497.28 594.5935 497.1337 591.1164 495.8656 589.5522 491.3448 589.0582 491.2239 587.5892 491.2996 587.2788 491.1256 587.3206 490.7034 587.5193 490.2339 587.6409 489.9862 587.5006 489.2445 587.4449 489.1216 587.3834 489.0207 587.3371 488.8756 587.3332 488.3919 587.2937 488.2388 586.9297 487.705 586.4466 487.344 582.285 487.1522 581.6203 487.6487 581.0316 488.3589 580.4829 489.0358 580.9288 489.7439 580.4878 490.149 574.4714 492.3618 565.3877 501.4566 559.8038 497.4537 559.6214 496.9981 559.4714 495.3829 558.9152 493.4532 558.8454 492.4675 559.1597 491.3435 559.2267 490.9585 559.2243 490.5274 559.1755 490.0864 559.1122 489.6464 559.0602 489.2132 559.0263 489.0362 558.9909 488.539 558.9601 488.3921 558.8787 487.9733 558.6099 488.4893 557.6177 488.9841 556.8409 488.8942 554.2048 487.1364 552.4362 486.8844 551.4936 487.6681 549.6138 495.7297 547.4835 498.0782 547.2554 498.5206 547.0069 499.4727 546.4531 500.9015 546.1773 501.617 545.9011 502.33 545.4651 502.2061 545.068 502.0424 544.7576 501.7654 544.5828 501.3022 544.5979 501.1 544.7384 500.5296 544.886 499.322 545.0046 498.7124 545.0751 498.2126 544.8694 497.8229 544.1679 497.5445 543.824 497.3112 542.1338 495.3378 537.2931 493.4918 533.8785 490.6795 532.0379 482.8697 532.088 482.8534 532.6087 482.5114 533.2198 482.1999 538.2845 480.1021 537.9649 481.3286 544.4541 478.8037 544.6408 477.0541 538.6108 480.2495 544.2566 476.99 554.4415 475.8021 555.2293 478.2512 554.8839 476.1208 564.3873 471.5247 565.7561 475.4128 564.8378 470.9225 569.8084 469.7417 569.9163 470.1991 570.226 470.6484 570.5978 471.0721 570.9024 471.48 571.1172 472.0406 571.2791 472.6579 571.504 473.2255 571.9093 473.6407 572.9485 474.2611 Z" id="MX.TB" fill="#cee3f5" stroke="#6e6e6e" stroke-width="0.4">
      <desc>
        <labelrank>4</labelrank>
        <code_hasc>MX.TB</code_hasc>
        <name>Tabasco</name>
        <admin>Mexico</admin>
        <type_en>State</type_en>
        <region/>
        <woe_id>2346290</woe_id>
        <longitude>-92</longitude>
        <woe_name>Tabasco</woe_name>
        <fips>MX32</fips>
        <woe_label>Tabasco, MX, Mexico</woe_label>
        <latitude>18</latitude>
        <iso_a2>MX</iso_a2>
        <postal>TB</postal>
        <type>Estado</type>
        <id>MX.TB</id>
      </desc>
    </path>
    <path d="M 427.2513 457.2654 426.7289 454.3101 438.4128 451.8035 440.6384 450.6167 450.6543 459.8492 437.7528 465.4571 431.2582 457.6972 427.2513 457.2654 Z" id="MX.TL" fill="#cee3f5" stroke="#6e6e6e" stroke-width="0.4">
      <desc>
        <labelrank>7</labelrank>
        <code_hasc>MX.TL</code_hasc>
        <name>Tlaxcala</name>
        <admin>Mexico</admin>
        <type_en>State</type_en>
        <region/>
        <woe_id>2346292</woe_id>
        <longitude>-98</longitude>
        <woe_name>Tlaxcala</woe_name>
        <fips>MX29</fips>
        <woe_label>Tlaxcala, MX, Mexico</woe_label>
        <latitude>19</latitude>
        <iso_a2>MX</iso_a2>
        <postal>TL</postal>
        <type>Estado</type>
        <id>MX.TL</id>
      </desc>
    </path>
    <path d="M 420.169 466.4546 412.8028 465.393 412.098 460.1251 416.1726 454.9949 420.169 466.4546 Z" id="MX.DF" fill="#cee3f5" stroke="#6e6e6e" stroke-width="0.4">
      <desc>
        <labelrank>4</labelrank>
        <code_hasc>MX.DF</code_hasc>
        <name>Distrito Federal</name>
        <admin>Mexico</admin>
        <type_en>Federal District</type_en>
        <region/>
        <woe_id>2346272</woe_id>
        <longitude>-99</longitude>
        <woe_name>Distrito Federal</woe_name>
        <fips>MX09</fips>
        <woe_label>Distrito Federal, MX, Mexico</woe_label>
        <latitude>19</latitude>
        <iso_a2>MX</iso_a2>
        <postal>DF</postal>
        <type>Distrito Federal</type>
        <id>MX.DF</id>
      </desc>
    </path>
    <path d="M 399.7696 411.0936 401.6231 415.4894 394.4148 417.0189 393.0122 423.3422 385.4714 422.2577 383.9078 424.0668 382.9609 429.7947 389.3711 440.3102 384.2903 447.7339 374.9144 447.5661 372.4334 446.575 372.8029 443.4683 363.7891 444.6769 364.6656 439.4839 362.7331 437.9553 359.2545 438.4229 357.9934 441.4854 353.0221 441.3687 351.6955 437.3849 348.2927 436.9351 351.2069 432.0892 348.4242 427.2605 353.5369 418.6164 359.7984 413.7394 358.2001 408.8351 360.7548 401.8993 373.3098 403.8191 380.94 409.8467 385.8388 405.2648 399.7696 411.0936 Z" id="MX.GJ" fill="#cee3f5" stroke="#6e6e6e" stroke-width="0.4">
      <desc>
        <labelrank>7</labelrank>
        <code_hasc>MX.GJ</code_hasc>
        <name>Guanajuato</name>
        <admin>Mexico</admin>
        <type_en>State</type_en>
        <region/>
        <woe_id>2346274</woe_id>
        <longitude>-100</longitude>
        <woe_name>Guanajuato</woe_name>
        <fips>MX11</fips>
        <woe_label>Guanajuato, MX, Mexico</woe_label>
        <latitude>20</latitude>
        <iso_a2>MX</iso_a2>
        <postal>GJ</postal>
        <type>Estado</type>
        <id>MX.GJ</id>
      </desc>
    </path>
    <path d="M 408.3115 476.769 412.2134 481.9727 416.1955 479.5486 418.7376 484.2617 425.849 492.2582 435.1969 494.7626 436.167 508.5576 443.8643 515.5906 442.2735 521.6293 436.2446 527.0841 436.4197 530.3879 431.5663 532.7275 426.2518 527.1825 405.6508 524.2745 397.9482 519.3726 373.1782 511.3568 355.6734 496.6272 350.4703 494.2901 347.4621 495.9896 347.5095 490.4178 352.8317 489.0498 355.6458 479.9125 362.2379 482.4462 378.161 481.7013 382.4911 485.4656 378.694 474.4161 382.4288 472.6744 386.455 473.3564 390.0151 484.0376 395.1866 478.651 401.7284 478.1974 404.4852 474.7159 408.3115 476.769 Z" id="MX.GR" fill="#cee3f5" stroke="#6e6e6e" stroke-width="0.4">
      <desc>
        <labelrank>4</labelrank>
        <code_hasc>MX.GR</code_hasc>
        <name>Guerrero</name>
        <admin>Mexico</admin>
        <type_en>State</type_en>
        <region/>
        <woe_id>2346275</woe_id>
        <longitude>-100</longitude>
        <woe_name>Guerrero</woe_name>
        <fips>MX12</fips>
        <woe_label>Guerrero, MX, Mexico</woe_label>
        <latitude>17</latitude>
        <iso_a2>MX</iso_a2>
        <postal>GR</postal>
        <type>Estado</type>
        <id>MX.GR</id>
      </desc>
    </path>
    <path d="M 440.9243 432.1656 434.9024 438.2264 438.9846 441.4383 435.7963 447.6596 438.4128 451.8035 426.7289 454.3101 426.947 449.2645 422.5036 447.2153 419.7362 449.1707 418.6086 443.6568 414.0923 445.2539 410.0631 450.7267 406.1049 441.2039 403.6453 441.7903 399.3129 437.7614 399.7351 432.8618 407.077 429.0829 409.2315 418.5684 416.7837 416.4082 416.6848 414.1867 426.8889 415.178 428.4623 410.6308 428.9862 410.9097 429.3691 411.1541 429.7501 411.4047 430.1299 411.6553 429.7498 412.1768 429.3739 412.6547 429.1117 413.1854 429.0753 413.8681 429.1038 414.0411 429.1664 414.188 429.2629 414.3063 429.3944 414.3959 429.8446 414.5284 431.0243 415.8596 431.5789 416.2466 431.8728 416.3674 432.1895 416.3517 433.2054 415.5172 433.5935 415.0198 433.753 414.102 434.0624 417.0305 434.7167 417.0204 435.1403 416.5637 435.5062 416.3381 435.9909 417.0097 436.2522 417.0966 436.4448 417.216 436.6 417.3954 436.7538 417.6556 437.294 417.9157 437.441 418.1514 437.4114 418.379 437.2963 418.7517 437.153 419.1206 437.0378 419.344 436.5349 419.5066 435.8505 420.5121 435.6869 420.7248 435.5136 420.9268 435.2511 421.458 435.1523 422.2678 435.2063 423.1042 435.4684 423.8455 435.4749 423.956 435.4137 424.0367 434.7069 424.1182 434.1796 423.9627 433.1762 423.3972 432.8916 423.2885 432.5961 423.2 432.2968 423.1366 431.6749 423.0689 431.2959 423.124 430.9769 423.2837 430.8355 423.57 430.9088 423.847 431.0761 424.0398 431.2296 424.2406 431.2559 424.5405 431.2417 424.8233 431.2473 425.0382 431.1686 425.2202 429.7151 425.6662 429.483 426.0377 429.5292 426.3779 429.7869 426.6135 430.1853 426.6662 430.9945 426.1791 431.2573 426.2652 431.3401 426.6712 431.2487 427.116 430.8579 427.9161 430.4062 428.3988 429.8243 428.8103 429.3057 429.2293 428.7929 431.4879 428.6315 431.7249 428.1847 432.1709 427.9924 432.394 428.063 432.9359 428.4266 433.4763 428.8744 434.0123 429.6946 435.521 430.4316 435.7061 431.1907 435.2599 432.4003 432.9605 433.3664 433.6427 438.9337 427.1237 440.2748 427.945 440.3033 428.9767 440.4013 429.1173 440.7344 429.4863 440.8062 429.8543 440.6596 430.1811 440.4445 430.4968 440.3052 430.8332 440.3224 431.2171 440.9243 432.1656 Z" id="MX.HI" fill="#cee3f5" stroke="#6e6e6e" stroke-width="0.4">
      <desc>
        <labelrank>4</labelrank>
        <code_hasc>MX.HI</code_hasc>
        <name>Hidalgo</name>
        <admin>Mexico</admin>
        <type_en>State</type_en>
        <region/>
        <woe_id>2346276</woe_id>
        <longitude>-98</longitude>
        <woe_name>Hidalgo</woe_name>
        <fips>MX13</fips>
        <woe_label>Hidalgo, MX, Mexico</woe_label>
        <latitude>20</latitude>
        <iso_a2>MX</iso_a2>
        <postal>HG</postal>
        <type>Estado</type>
        <id>MX.HI</id>
      </desc>
    </path>
    <path d="M 426.7289 454.3101 427.2513 457.2654 427.471 467.7991 423.9103 469.2959 420.169 466.4546 416.1726 454.9949 412.098 460.1251 412.8028 465.393 408.3115 476.769 404.4852 474.7159 401.7284 478.1974 395.1866 478.651 390.0151 484.0376 386.455 473.3564 382.4288 472.6744 392.9948 458.8795 391.3697 455.8179 393.231 446.8222 399.3129 437.7614 403.6453 441.7903 406.1049 441.2039 410.0631 450.7267 414.0923 445.2539 418.6086 443.6568 419.7362 449.1707 422.5036 447.2153 426.947 449.2645 426.7289 454.3101 Z" id="MX.MX" fill="#cee3f5" stroke="#6e6e6e" stroke-width="0.4">
      <desc>
        <labelrank>4</labelrank>
        <code_hasc>MX.MX</code_hasc>
        <name>México</name>
        <admin>Mexico</admin>
        <type_en>State</type_en>
        <region/>
        <woe_id>2346278</woe_id>
        <longitude>-99</longitude>
        <woe_name>México</woe_name>
        <fips>MX15</fips>
        <woe_label>Mexico, MX, Mexico</woe_label>
        <latitude>19</latitude>
        <iso_a2>MX</iso_a2>
        <postal>MX</postal>
        <type>Estado</type>
        <id>MX.MX</id>
      </desc>
    </path>
    <path d="M 420.169 466.4546 423.9103 469.2959 427.471 467.7991 425.6456 472.9473 427.2764 475.7709 425.3556 475.8414 427.2285 482.1407 423.7702 480.65 418.7376 484.2617 416.1955 479.5486 412.2134 481.9727 408.3115 476.769 412.8028 465.393 420.169 466.4546 Z" id="MX.MR" fill="#cee3f5" stroke="#6e6e6e" stroke-width="0.4">
      <desc>
        <labelrank>4</labelrank>
        <code_hasc>MX.MR</code_hasc>
        <name>Morelos</name>
        <admin>Mexico</admin>
        <type_en>State</type_en>
        <region/>
        <woe_id>2346280</woe_id>
        <longitude>-99</longitude>
        <woe_name>Morelos</woe_name>
        <fips>MX17</fips>
        <woe_label>Morelos, MX, Mexico</woe_label>
        <latitude>18</latitude>
        <iso_a2>MX</iso_a2>
        <postal>MO</postal>
        <type>Estado</type>
        <id>MX.MR</id>
      </desc>
    </path>
    <path d="M 416.6848 414.1867 416.7837 416.4082 409.2315 418.5684 407.077 429.0829 399.7351 432.8618 399.3129 437.7614 393.231 446.8222 389.3711 440.3102 382.9609 429.7947 383.9078 424.0668 385.4714 422.2577 393.0122 423.3422 394.4148 417.0189 401.6231 415.4894 399.7696 411.0936 401.2866 408.7548 404.4689 411.5511 408.959 410.4897 412.918 405.2466 416.6848 414.1867 Z" id="MX.QE" fill="#cee3f5" stroke="#6e6e6e" stroke-width="0.4">
      <desc>
        <labelrank>4</labelrank>
        <code_hasc>MX.QE</code_hasc>
        <name>Querétaro</name>
        <admin>Mexico</admin>
        <type_en>State</type_en>
        <region/>
        <woe_id>2346285</woe_id>
        <longitude>-99</longitude>
        <woe_name>Querétaro</woe_name>
        <fips>MX22</fips>
        <woe_label>Queretaro de Arteaga, MX, Mexico</woe_label>
        <latitude>20</latitude>
        <iso_a2>MX</iso_a2>
        <postal>QT</postal>
        <type>Estado</type>
        <id>MX.QE</id>
      </desc>
    </path>
    <path d="M 444.0704 388.9456 448.3736 399.3034 455.2846 405.6215 453.2863 412.6449 451.9033 408.7413 454.0943 406.2403 448.0889 400.3123 444.2723 393.2139 460.014 427.453 476.6594 445.4792 481.0538 458.2303 494.0012 470.4929 489.1986 469.3595 491.5807 472.4636 498.3818 473.1031 494.4596 470.4706 507.0661 472.1351 516.607 476.3193 522.6865 484.3859 532.0379 482.8697 532.0382 482.8702 532.1322 483.0911 532.2299 483.6108 532.3583 483.8234 533.0558 484.0091 534.3294 487.9387 533.8785 490.6795 536.4126 491.7472 537.2931 493.4918 542.1338 495.3378 543.824 497.3112 544.1679 497.5445 544.8694 497.8229 545.0751 498.2126 545.0046 498.7124 544.886 499.322 544.7384 500.5296 544.5979 501.1 544.5828 501.3022 544.7576 501.7654 545.068 502.0424 545.9011 502.33 545.816 502.5764 545.5602 503.3107 545.3056 503.8108 544.9059 504.2259 539.5851 508.1654 535.9379 508.1438 532.2926 508.1193 528.6492 508.0931 525.0087 508.0627 519.0245 507.8875 517.861 507.9242 516.2185 507.9666 514.7006 507.8419 506.9268 499.3447 506.9582 499.0502 506.9709 498.7666 507.0212 498.4899 507.1603 498.214 507.3463 498.0622 507.8242 497.8411 507.9879 497.7004 508.0246 497.5433 508.06 497.0131 508.0819 496.8217 508.1275 496.5264 508.1253 496.1884 508.0383 495.882 507.8253 495.6746 502.7795 498.2488 501.7484 499.3863 501.1804 499.5582 500.8215 499.7877 500.4522 500.0503 499.9991 500.2929 498.987 501.2956 495.0551 501.5144 494.7065 501.3651 494.4103 501.0235 491.8756 496.5013 491.5902 495.8579 491.8565 494.2009 491.9172 494.0881 491.984 493.9776 493.4433 492.1206 494.0186 491.1263 494.4017 489.9432 493.2866 487.6469 492.8246 486.9932 485.347 486.6244 480.5576 481.0974 479.1552 477.4862 473.201 474.616 471.9962 480.9118 471.7685 480.5384 470.6045 479.3275 470.1963 477.6008 469.5251 477.6802 468.8651 477.8836 468.293 477.9997 467.7212 478.1232 466.2332 478.5561 464.7537 479.5528 464.3846 479.4269 463.6756 479.5403 463.3607 479.4607 463.1444 479.108 463.1919 478.6648 463.3595 478.2193 463.5056 477.8644 463.3774 477.4857 462.8089 476.8605 462.3772 475.5268 460.7026 475.0034 460.4133 474.9851 460.0347 475.1721 459.6831 475.3506 459.3196 475.4373 458.905 475.3441 458.6898 475.2193 458.504 475.0534 458.35 474.8514 458.2353 474.623 457.9046 473.9757 457.6304 473.2515 457.541 472.5199 457.7614 471.8534 458.3137 471.3605 458.4697 471.1973 458.8234 470.3982 459.0584 470.2244 459.8994 469.96 460.0779 469.7684 460.0445 469.265 459.6477 468.1595 459.529 467.6011 459.494 467.3209 459.485 467.0994 459.4524 466.8191 459.3166 466.2763 459.2381 466.0054 459.0618 465.4269 458.8774 464.6767 458.8007 463.926 458.9515 463.3529 462.4802 462.7676 464.08 461.7694 464.7763 460.8173 465.1703 460.4751 465.2581 460.3405 465.2941 460.1843 465.2761 460.013 464.9959 459.8554 463.7053 459.374 460.0439 459.2268 458.5894 457.6007 457.5235 457.9335 456.937 457.2348 455.8897 457.1478 455.6011 456.995 455.3953 456.6122 455.5909 456.4523 456.7582 456.3288 457.1635 456.068 457.3443 455.6931 457.1132 455.244 456.9737 455.1264 456.8241 455.0216 456.515 454.83 456.4211 454.6718 456.4433 454.4641 456.4887 454.2455 456.4587 454.0598 456.175 453.8247 455.8432 453.6801 455.6128 453.4739 455.6404 452.3291 455.7393 451.747 457.3776 449.2423 457.4408 447.8166 457.1976 445.6686 458.3507 443.6448 460.5282 441.1011 460.9105 440.086 460.4905 439.5234 454.679 437.0276 450.8359 440.5799 446.2522 437.0441 446.0101 433.2791 447.8943 432.3389 448.8449 433.3162 449.1597 433.4927 449.5574 433.3419 449.8386 433.0165 450.1158 432.5642 450.3756 432.0914 450.6033 431.6946 450.7937 431.5323 450.863 431.421 450.9138 431.2881 447.0953 428.8777 446.4686 424.8717 446.1396 424.4432 445.6107 424.0478 445.203 423.981 444.1686 424.1051 443.9171 423.9634 443.6662 423.8652 443.4143 423.8579 443.1612 423.9951 442.9676 424.3327 441.5035 427.3816 441.566 427.5995 441.9663 428.2445 442.0644 430.0502 441.6837 431.3744 441.4826 431.6871 441.2279 431.9522 440.9243 432.1656 440.3224 431.2171 440.3052 430.8332 440.4445 430.4968 440.6596 430.1811 440.8062 429.8543 440.7344 429.4863 440.4013 429.1173 440.3033 428.9767 440.2748 427.945 438.9337 427.1237 433.3664 433.6427 432.4003 432.9605 431.1907 435.2599 429.6946 435.521 428.8744 434.0123 428.4266 433.4763 428.063 432.9359 427.9924 432.394 428.1847 432.1709 428.6315 431.7249 428.7929 431.4879 429.3057 429.2293 429.8243 428.8103 430.4062 428.3988 430.8579 427.9161 431.2487 427.116 431.3401 426.6712 431.2573 426.2652 430.9945 426.1791 430.1853 426.6662 429.7869 426.6135 429.5292 426.3779 429.483 426.0377 429.7151 425.6662 431.1686 425.2202 431.2473 425.0382 431.2559 424.5405 431.2296 424.2406 431.0761 424.0398 430.9088 423.847 430.8355 423.57 430.9769 423.2837 431.2959 423.124 431.6749 423.0689 432.2968 423.1366 432.5961 423.2 432.8916 423.2885 433.1762 423.3972 434.7069 424.1182 435.4137 424.0367 435.4749 423.956 435.4684 423.8455 435.1523 422.2678 435.2511 421.458 435.5136 420.9268 435.6869 420.7248 435.8505 420.5121 436.5349 419.5066 437.0378 419.344 437.153 419.1206 437.2963 418.7517 437.4114 418.379 437.441 418.1514 437.294 417.9157 436.7538 417.6556 436.6 417.3954 436.4448 417.216 436.2522 417.0966 435.9909 417.0097 435.5062 416.3381 435.1403 416.5637 434.7167 417.0204 434.0624 417.0305 434.2516 415.2694 433.753 414.102 433.5091 414.1859 433.5544 414.5486 433.5935 415.0198 433.2054 415.5172 432.1895 416.3517 431.8728 416.3674 431.0243 415.8596 429.8446 414.5284 429.3944 414.3959 429.2629 414.3063 429.1664 414.188 429.1038 414.0411 429.0753 413.8681 429.1117 413.1854 429.3739 412.6547 429.7498 412.1768 430.1299 411.6553 429.7501 411.4047 429.3691 411.1541 428.9862 410.9097 428.4623 410.6308 428.0125 407.6164 427.5931 407.2864 426.889 406.993 426.4046 406.7896 425.9891 406.5277 425.6551 406.1695 425.4166 405.691 425.759 403.8498 426.0921 403.5552 426.9618 403.6348 427.2873 403.2994 427.0644 403.115 427.045 402.9392 427.1748 402.7752 427.5219 402.6142 427.8047 402.7503 428.0317 402.7318 428.0786 402.6206 428.116 402.5036 428.162 402.431 428.9905 401.8848 429.2166 401.5691 429.3243 401.3486 429.4207 401.0129 429.3464 400.7111 428.7669 400.4944 428.719 400.2438 428.6995 399.9461 428.5951 399.7039 427.6802 399.8207 427.3845 399.5807 426.9828 399.0538 426.8638 398.5435 427.4088 398.3526 427.1959 397.877 427.4346 397.5634 427.7211 397.3498 427.6566 397.1782 426.2599 396.7387 427.4224 396.8738 427.8047 396.6802 428.0682 396.6577 428.7899 396.7569 429.0213 396.4695 429.3442 396.6038 431.2201 392.3879 431.4671 391.4279 431.4586 390.7155 431.2384 390.1571 430.8359 389.6979 430.2789 389.2846 429.6283 388.8973 427.6396 387.8046 426.2855 386.8497 425.8055 386.5722 425.2729 386.2171 426.0333 386.091 427.5474 385.7279 428.9273 385.9525 429.212 385.7236 432.1442 386.4067 434.5612 384.3577 442.3146 390.3123 444.0704 388.9456 Z" id="MX.VE" fill="#cee3f5" stroke="#6e6e6e" stroke-width="0.4">
      <desc>
        <labelrank>7</labelrank>
        <code_hasc>MX.VE</code_hasc>
        <name>Veracruz</name>
        <admin>Mexico</admin>
        <type_en>State</type_en>
        <region/>
        <woe_id>2346293</woe_id>
        <longitude>-96</longitude>
        <woe_name>Veracruz</woe_name>
        <fips>MX30</fips>
        <woe_label>Veracruz-Llave, MX, Mexico</woe_label>
        <latitude>19</latitude>
        <iso_a2>MX</iso_a2>
        <postal>VE</postal>
        <type>Estado</type>
        <id>MX.VE</id>
      </desc>
    </path>
    <path d="M 539.5851 508.1654 544.9059 504.2259 545.3056 503.8108 545.5602 503.3107 545.816 502.5764 545.9011 502.33 546.1773 501.617 546.4531 500.9015 547.0069 499.4727 547.4835 498.0782 549.6138 495.7297 551.4936 487.6681 552.4362 486.8844 556.8409 488.8942 557.6177 488.9841 558.1063 488.4472 558.6099 488.4893 558.8787 487.9733 558.9601 488.3921 558.9909 488.539 559.0263 489.0362 559.0602 489.2132 559.1122 489.6464 559.1755 490.0864 559.2243 490.5274 559.2267 490.9585 559.1597 491.3435 558.8454 492.4675 558.9152 493.4532 559.4714 495.3829 559.6214 496.9981 559.8038 497.4537 565.3877 501.4566 574.4714 492.3618 580.4878 490.149 580.9288 489.7439 580.4829 489.0358 581.0316 488.3589 581.6203 487.6487 582.285 487.1522 586.4466 487.344 586.9297 487.705 587.2937 488.2388 587.3332 488.3919 587.3371 488.8756 587.3834 489.0207 587.4449 489.1216 587.5006 489.2445 587.6409 489.9862 587.5193 490.2339 587.3206 490.7034 587.2788 491.1256 587.5892 491.2996 589.0582 491.2239 589.5522 491.3448 591.1164 495.8656 594.5935 497.1337 594.7909 497.28 594.8934 498.6377 595.187 498.8003 595.5383 498.8803 596.5283 498.914 597.4685 500.1361 597.4089 500.4929 596.5264 500.7041 596.408 500.9507 596.3378 501.3335 596.3434 501.739 596.4572 502.0497 596.5234 502.1331 596.3341 502.5527 612.2545 512.0892 616.6728 519.7123 622.4183 520.8921 621.9565 528.8206 591.1957 531.7578 581.1876 551.6721 584.7189 556.3272 581.3359 569.4212 566.4463 555.1917 568.9759 556.7309 568.1398 554.85 535.9422 532.7103 536.0597 532.4491 536.4486 531.8063 536.6122 531.465 536.7316 531.0406 536.8048 530.5694 536.8508 530.0896 536.8849 529.638 536.7785 528.931 536.4523 528.1271 534.7929 524.9854 534.5284 524.0316 534.9481 523 536.1844 521.157 536.3546 520.6782 536.4336 520.1941 536.4405 519.6999 536.3968 519.1882 536.1569 518.0032 536.067 517.3507 536.1161 516.8568 536.3909 516.5345 537.7532 515.6758 538.0775 515.4449 539.0537 514.7518 539.0377 511.8373 539.2728 511.4186 539.8909 511.5072 539.8537 510.8189 539.8534 510.1664 539.8563 509.4621 539.7921 508.7715 539.5851 508.1654 Z" id="MX.CP" fill="#cee3f5" stroke="#6e6e6e" stroke-width="0.4">
      <desc>
        <labelrank>4</labelrank>
        <code_hasc>MX.CP</code_hasc>
        <name>Chiapas</name>
        <admin>Mexico</admin>
        <type_en>State</type_en>
        <region/>
        <woe_id>2346268</woe_id>
        <longitude>-92</longitude>
        <woe_name>Chiapas</woe_name>
        <fips>MX05</fips>
        <woe_label>Chiapas, MX, Mexico</woe_label>
        <latitude>16</latitude>
        <iso_a2>MX</iso_a2>
        <postal>CS</postal>
        <type>Estado</type>
        <id>MX.CP</id>
      </desc>
    </path>
    <path d="M 699 410.837 694.0787 419.0785 694.6718 411.8309 699 410.837 Z M 649.0216 480.9659 651.1048 474.5576 648.3474 462.6885 649.4293 449.516 646.1843 445.1602 640.1872 441.0217 639.0951 439.705 639.4867 438.8052 639.9152 437.0568 639.9356 436.2701 639.8033 435.4525 640.3653 435.1223 643.6345 434.5675 644.7085 433.1961 646.1358 432.5832 646.8333 432.0388 649.7955 431.5352 650.1586 431.3067 650.3481 431.0129 651.676 429.5443 652.8686 430.2429 662.4176 420.9228 663.1904 420.9004 664.5436 422.0957 665.6273 417.2564 667.7263 417.6554 668.4485 417.3525 670.4346 417.0188 672.2803 415.7413 677.2023 411.1928 677.9968 408.7079 678.4079 407.873 678.5207 406.2236 679.6643 403.2355 678.1017 389.8094 685.1947 390.4295 687.1704 387.1985 680.8934 388.6318 687.6215 385.6337 694.73 389.5873 697.5028 396.0273 695.2576 404.0413 684.0106 421.1487 683.9791 432.0756 683.5607 427.6041 679.9631 436.2472 678.1385 435.4832 680.1292 439.431 686.0749 437.0319 680.5601 444.2475 681.6472 446.395 685.5871 443.5083 679.2235 472.2058 676.5164 466.3081 673.0241 465.2482 673.1311 455.8539 668.5671 460.7347 670.8463 460.4665 668.1953 465.8705 662.519 467.3122 655.6326 481.9096 649.0216 480.9659 Z" id="MX.QR" fill="#cee3f5" stroke="#6e6e6e" stroke-width="0.4">
      <desc>
        <labelrank>4</labelrank>
        <code_hasc>MX.QR</code_hasc>
        <name>Quintana Roo</name>
        <admin>Mexico</admin>
        <type_en>State</type_en>
        <region/>
        <woe_id>2346286</woe_id>
        <longitude>-88</longitude>
        <woe_name>Quintana Roo</woe_name>
        <fips>MX23</fips>
        <woe_label>Quintana Roo, MX, Mexico</woe_label>
        <latitude>19</latitude>
        <iso_a2>MX</iso_a2>
        <postal>QR</postal>
        <type>Estado</type>
        <id>MX.QR</id>
      </desc>
    </path>
    <path d="M 678.1017 389.8094 678.064 399.524 679.3852 401.7098 679.6643 403.2355 678.5207 406.2236 678.4079 407.873 677.9968 408.7079 677.2023 411.1928 672.2803 415.7413 670.4346 417.0188 669.8622 417.2785 668.4485 417.3525 667.7263 417.6554 665.6273 417.2564 664.5436 422.0957 663.1904 420.9004 662.4176 420.9228 652.8686 430.2429 651.676 429.5443 650.3481 431.0129 650.1586 431.3067 649.7955 431.5352 646.8333 432.0388 646.1358 432.5832 644.7085 433.1961 643.6345 434.5675 640.3653 435.1223 639.8033 435.4525 639.9152 437.0568 639.4867 438.8052 639.0951 439.705 623.319 420.9194 621.6984 422.5498 618.1955 420.3253 614.998 420.3944 614.5257 419.7281 614.2749 413.6329 614.1812 412.9312 614.8258 409.215 614.4856 408.1502 624.2051 401.5838 664.135 388.4183 678.1017 389.8094 Z" id="MX.YU" fill="#cee3f5" stroke="#6e6e6e" stroke-width="0.4">
      <desc>
        <labelrank>4</labelrank>
        <code_hasc>MX.YU</code_hasc>
        <name>Yucatán</name>
        <admin>Mexico</admin>
        <type_en>State</type_en>
        <region/>
        <woe_id>2346294</woe_id>
        <longitude>-88</longitude>
        <woe_name>Yucatán</woe_name>
        <fips>MX31</fips>
        <woe_label>Yucatan, MX, Mexico</woe_label>
        <latitude>20</latitude>
        <iso_a2>MX</iso_a2>
        <postal>YU</postal>
        <type>Estado</type>
        <id>MX.YU</id>
      </desc>
    </path>
  </g>
</svg>