<?xml version="1.0" encoding="UTF-8"?>
<svg xmlns="http://www.w3.org/2000/svg" width="700" height="700">
  <g id="azerbaijan">
    <path d="M 118.8526 184.6157 110.3881 189.1735 105.1791 195.6847 98.6679 195.6847 94.7612 198.2892 98.0168 207.4049 96.7146 213.2649 93.459 216.5205 86.2966 219.125 81.7388 224.9851 80.4366 229.5429 77.181 227.5896 78.4832 222.3806 77.8321 218.4739 73.2743 219.7761 73.2743 218.4739 71.3209 203.4981 72.6231 200.8937 71.972 198.9403 75.2276 188.5224 74.5765 185.2668 74.5765 183.3134 73.9254 182.6623 60.903 181.3601 53.0896 176.8022 47.8806 175.5 40.0672 168.9888 39.416 167.6866 39.416 167.0354 57.6474 152.0597 60.903 150.7575 64.8097 150.7575 74.5765 155.3153 82.3899 154.0131 88.25 159.8731 105.1791 166.3843 115.597 168.9888 115.597 169.6399 111.6903 171.5933 109.0858 174.8489 111.6903 179.4067 118.8526 184.6157 Z" id="AZ.AF" fill="#cee3f5" stroke="#6e6e6e" stroke-width="0.4">
      <desc>
        <labelrank>9</labelrank>
        <code_hasc>AZ.AF</code_hasc>
        <name>Ağstafa</name>
        <admin>Azerbaijan</admin>
        <type_en>District</type_en>
        <region>Ganja-Gazakh Economic Region</region>
        <woe_id>20070266</woe_id>
        <longitude>45</longitude>
        <woe_name>Ağstafa</woe_name>
        <fips>AJ05</fips>
        <woe_label>Agstafa, AZ, Azerbaijan</woe_label>
        <latitude>41</latitude>
        <iso_a2>AZ</iso_a2>
        <postal>AF</postal>
        <type>Rayon</type>
        <id>AZ.AF</id>
      </desc>
    </path>
    <path d="M 155.9664 275.7724 170.9422 285.5392 163.1287 298.5616 166.3843 303.1194 174.1978 309.6306 174.1978 314.1884 168.9888 320.0485 165.7332 328.5131 157.9198 329.1642 141.6418 327.8619 135.1306 330.4664 134.4795 335.6754 131.2239 336.3265 126.0149 330.4664 129.9216 313.5373 126.0149 305.0728 127.9683 295.306 136.4328 290.097 146.1996 276.4235 150.7575 272.5168 155.9664 275.7724 Z" id="AZ.DS" fill="#cee3f5" stroke="#6e6e6e" stroke-width="0.4">
      <desc>
        <labelrank>9</labelrank>
        <code_hasc>AZ.DS</code_hasc>
        <name>Daşkəsən</name>
        <admin>Azerbaijan</admin>
        <type_en>District</type_en>
        <region>Ganja-Gazakh Economic Region</region>
        <woe_id>20070222</woe_id>
        <longitude>46</longitude>
        <woe_name>Daskasan</woe_name>
        <fips>AJ16</fips>
        <woe_label/>
        <latitude>40</latitude>
        <iso_a2>AZ</iso_a2>
        <postal>DS</postal>
        <type>Rayon</type>
        <id>AZ.DS</id>
      </desc>
    </path>
    <path d="M 136.4328 290.097 127.9683 295.306 126.0149 305.0728 129.9216 313.5373 126.0149 330.4664 98.0168 314.8396 90.8545 308.3284 85.6455 298.5616 82.3899 295.306 81.0877 288.7948 73.9254 282.2836 72.6231 278.3769 72.6231 271.8657 75.2276 266.6567 84.9944 260.7966 86.2966 267.3078 89.5522 269.9123 94.1101 269.9123 98.0168 271.2146 100.6213 274.4701 99.9701 279.028 108.4347 284.2369 111.6903 280.9813 112.3414 276.4235 112.3414 255.5877 113.6437 248.4254 118.2015 254.2854 124.0616 266.0056 133.8284 274.4701 136.4328 279.028 135.7817 288.1437 136.4328 290.097 Z M 90.2034 274.4701 84.9944 275.7724 84.3433 279.028 84.9944 282.2836 88.9011 283.5858 93.459 280.3302 94.7612 276.4235 90.2034 274.4701 Z" id="AZ.GD" fill="#cee3f5" stroke="#6e6e6e" stroke-width="0.4">
      <desc>
        <labelrank>9</labelrank>
        <code_hasc>AZ.GD</code_hasc>
        <name>Gədəbəy</name>
        <admin>Azerbaijan</admin>
        <type_en>District</type_en>
        <region>Ganja-Gazakh Economic Region</region>
        <woe_id>20070230</woe_id>
        <longitude>45</longitude>
        <woe_name>Gadabay</woe_name>
        <fips>AJ19</fips>
        <woe_label/>
        <latitude>40</latitude>
        <iso_a2>AZ</iso_a2>
        <postal>GD</postal>
        <type>Rayon</type>
        <id>AZ.GD</id>
      </desc>
    </path>
    <path d="M 195.6847 269.2612 192.4291 275.1213 187.8713 279.028 183.3134 278.3769 182.0112 273.819 187.2201 263.4011 193.0802 263.4011 195.6847 269.2612 Z" id="AZ.GA" fill="#cee3f5" stroke="#6e6e6e" stroke-width="0.4">
      <desc>
        <labelrank>9</labelrank>
        <code_hasc>AZ.GA</code_hasc>
        <name>Gəncə</name>
        <admin>Azerbaijan</admin>
        <type_en>Municipality</type_en>
        <region>Ganja-Gazakh Economic Region</region>
        <woe_id>20070231</woe_id>
        <longitude>46</longitude>
        <woe_name>Gəncə</woe_name>
        <fips>AJ20</fips>
        <woe_label>Ganca, AZ, Azerbaijan</woe_label>
        <latitude>40</latitude>
        <iso_a2>AZ</iso_a2>
        <postal>GA</postal>
        <type>Sahar</type>
        <id>AZ.GA</id>
      </desc>
    </path>
    <path d="M 187.2201 263.4011 182.0112 273.819 183.3134 278.3769 187.8713 279.028 192.4291 275.1213 195.6847 269.2612 202.847 269.9123 206.1026 277.0746 206.1026 286.1903 207.4049 288.1437 206.7537 291.3993 197.6381 301.8172 188.5224 313.5373 185.2668 322.0019 185.2668 333.0709 175.5 331.7687 165.7332 328.5131 168.9888 320.0485 174.1978 314.1884 174.1978 309.6306 166.3843 303.1194 163.1287 298.5616 170.9422 285.5392 155.9664 275.7724 160.5243 272.5168 168.9888 271.2146 172.2444 269.2612 175.5 252.9832 179.4067 246.472 187.2201 263.4011 Z" id="AZ.XR" fill="#cee3f5" stroke="#6e6e6e" stroke-width="0.4">
      <desc>
        <labelrank>9</labelrank>
        <code_hasc>AZ.XR</code_hasc>
        <name>Xanlar</name>
        <admin>Azerbaijan</admin>
        <type_en>District</type_en>
        <region>Ganja-Gazakh Economic Region</region>
        <woe_id>20070268</woe_id>
        <longitude>46</longitude>
        <woe_name>Xanlar</woe_name>
        <fips>AJ20</fips>
        <woe_label>Xanlar, AZ, Azerbaijan</woe_label>
        <latitude>40</latitude>
        <iso_a2>AZ</iso_a2>
        <postal>XR</postal>
        <type>Rayon</type>
        <id>AZ.XR</id>
      </desc>
    </path>
    <path d="M 256.8899 299.8638 251.681 305.7239 241.9142 312.2351 233.4496 312.2351 227.5896 314.8396 215.2183 321.3507 211.3116 327.2108 198.9403 335.0243 185.2668 333.0709 185.2668 322.0019 188.5224 313.5373 197.6381 301.8172 206.7537 291.3993 207.4049 288.1437 206.1026 286.1903 206.1026 277.0746 202.847 269.9123 204.8004 262.0989 211.3116 255.5877 210.6604 252.3321 211.9627 250.3787 225.6362 236.7052 236.0541 224.9851 234.7519 230.8451 236.0541 243.8675 233.4496 256.2388 236.0541 260.7966 240.6119 261.4478 245.1698 264.0522 238.6586 273.819 240.6119 277.0746 245.1698 273.819 249.7276 274.4701 252.3321 277.7257 253.6343 291.3993 256.8899 292.0504 260.1455 291.3993 261.4478 292.7015 259.4944 298.5616 256.8899 299.8638 Z M 244.5187 297.9104 247.1231 295.9571 245.1698 294.0037 243.8675 295.9571 244.5187 297.9104 Z" id="AZ.GR" fill="#cee3f5" stroke="#6e6e6e" stroke-width="0.4">
      <desc>
        <labelrank>7</labelrank>
        <code_hasc>AZ.GR</code_hasc>
        <name>Goranboy</name>
        <admin>Azerbaijan</admin>
        <type_en>District</type_en>
        <region>Ganja-Gazakh Economic Region</region>
        <woe_id>20070261</woe_id>
        <longitude>46</longitude>
        <woe_name>Goranboy</woe_name>
        <fips>AJ21</fips>
        <woe_label/>
        <latitude>40</latitude>
        <iso_a2>AZ</iso_a2>
        <postal>GR</postal>
        <type>Rayon</type>
        <id>AZ.GR</id>
      </desc>
    </path>
    <path d="M 165.7332 328.5131 175.5 331.7687 185.2668 333.0709 198.9403 335.0243 211.3116 327.2108 210.0093 332.4198 207.4049 334.3731 207.4049 340.2332 211.3116 355.209 216.5205 351.9534 223.6828 352.6045 232.7985 360.4179 236.0541 366.9291 239.3097 370.1847 234.7519 370.1847 231.4963 372.7892 226.9384 373.4403 222.3806 376.0448 219.7761 379.9515 215.8694 381.9049 209.3582 377.9981 202.1959 382.556 173.5466 392.9739 160.5243 395.5784 155.9664 396.2295 150.1063 390.3694 145.5485 399.4851 134.4795 408.6007 126.0149 402.0896 120.1549 389.0672 117.5504 386.4627 113.6437 384.5093 101.2724 383.2071 97.3657 381.9049 97.3657 377.9981 104.528 372.7892 124.7127 376.0448 133.1772 375.3937 134.4795 374.0914 137.084 363.6735 141.6418 358.4646 143.5951 354.5578 145.5485 343.4888 144.8974 341.5354 140.3396 336.3265 138.3862 335.0243 134.4795 335.6754 135.1306 330.4664 141.6418 327.8619 157.9198 329.1642 165.7332 328.5131 Z" id="AZ.KA" fill="#cee3f5" stroke="#6e6e6e" stroke-width="0.4">
      <desc>
        <labelrank>9</labelrank>
        <code_hasc>AZ.KA</code_hasc>
        <name>Kəlbəcər</name>
        <admin>Azerbaijan</admin>
        <type_en>District</type_en>
        <region>Kalbajar-Lachin Economic Region</region>
        <woe_id>20070273</woe_id>
        <longitude>46</longitude>
        <woe_name>Kəlbəcər</woe_name>
        <fips>AJ26</fips>
        <woe_label>Kalbacar, AZ, Azerbaijan</woe_label>
        <latitude>40</latitude>
        <iso_a2>AZ</iso_a2>
        <postal>KA</postal>
        <type>Rayon</type>
        <id>AZ.KA</id>
      </desc>
    </path>
    <path d="M 264.0522 254.9366 268.6101 253.6343 271.2146 257.541 261.4478 261.4478 255.5877 254.9366 259.4944 252.9832 264.0522 254.9366 Z" id="AZ.MI" fill="#cee3f5" stroke="#6e6e6e" stroke-width="0.4">
      <desc>
        <labelrank>9</labelrank>
        <code_hasc>AZ.MI</code_hasc>
        <name>Mingəçevir</name>
        <admin>Azerbaijan</admin>
        <type_en>Municipality</type_en>
        <region>Aran Economic Region</region>
        <woe_id>20070240</woe_id>
        <longitude>46</longitude>
        <woe_name>Mingəçevir</woe_name>
        <fips>AJ33</fips>
        <woe_label>Mingacevir, AZ, Azerbaijan</woe_label>
        <latitude>40</latitude>
        <iso_a2>AZ</iso_a2>
        <postal>MI</postal>
        <type>Sahar</type>
        <id>AZ.MI</id>
      </desc>
    </path>
    <path d="M 54.3918 224.9851 53.0896 226.2873 50.4851 226.2873 49.1828 222.3806 51.1362 221.7295 54.3918 224.9851 Z M 31.6026 214.5672 30.3004 217.8228 25.7425 216.5205 23.7892 211.9627 23.7892 210.0093 25.7425 208.7071 30.3004 210.0093 31.6026 214.5672 Z M 71.3209 203.4981 73.2743 219.7761 68.0653 222.3806 54.3918 219.125 42.0205 209.3582 41.3694 213.916 38.7649 213.2649 34.8582 209.3582 36.1604 204.1493 47.8806 204.8004 51.7873 201.5448 51.7873 198.9403 43.9739 192.4291 32.2537 190.4757 31.6026 188.5224 32.9049 185.2668 28.347 176.1511 39.416 167.0354 39.416 167.6866 40.0672 168.9888 47.8806 175.5 53.0896 176.8022 60.903 181.3601 73.9254 182.6623 74.5765 183.3134 74.5765 185.2668 75.2276 188.5224 71.972 198.9403 72.6231 200.8937 71.3209 203.4981 Z" id="AZ.QZ" fill="#cee3f5" stroke="#6e6e6e" stroke-width="0.4">
      <desc>
        <labelrank>9</labelrank>
        <code_hasc>AZ.QZ</code_hasc>
        <name>Qazax</name>
        <admin>Azerbaijan</admin>
        <type_en>District</type_en>
        <region>Ganja-Gazakh Economic Region</region>
        <woe_id>20070267</woe_id>
        <longitude>45</longitude>
        <woe_name>Qazax</woe_name>
        <fips>AJ40</fips>
        <woe_label>Qazax, AZ, Azerbaijan</woe_label>
        <latitude>41</latitude>
        <iso_a2>AZ</iso_a2>
        <postal>QZ</postal>
        <type>Rayon</type>
        <id>AZ.QZ</id>
      </desc>
    </path>
    <path d="M 179.4067 246.472 175.5 252.9832 172.2444 269.2612 168.9888 271.2146 160.5243 272.5168 155.9664 275.7724 150.7575 272.5168 146.1996 276.4235 136.4328 290.097 135.7817 288.1437 136.4328 279.028 133.8284 274.4701 124.0616 266.0056 118.2015 254.2854 113.6437 248.4254 113.6437 243.8675 115.597 239.9608 129.9216 228.8918 133.8284 219.7761 139.6884 219.125 151.4086 220.4272 157.2687 219.125 159.222 214.5672 166.3843 205.4515 170.291 198.9403 180.0578 212.6138 182.6623 217.8228 182.0112 223.0317 180.709 226.2873 177.4534 241.2631 179.4067 246.472 Z" id="AZ.SM" fill="#cee3f5" stroke="#6e6e6e" stroke-width="0.4">
      <desc>
        <labelrank>9</labelrank>
        <code_hasc>AZ.SM</code_hasc>
        <name>Şəmkir</name>
        <admin>Azerbaijan</admin>
        <type_en>District</type_en>
        <region>Ganja-Gazakh Economic Region</region>
        <woe_id>20070244</woe_id>
        <longitude>46</longitude>
        <woe_name>Şəmkir</woe_name>
        <fips>AJ51</fips>
        <woe_label>Samkir, AZ, Azerbaijan</woe_label>
        <latitude>40</latitude>
        <iso_a2>AZ</iso_a2>
        <postal>SM</postal>
        <type>Rayon</type>
        <id>AZ.SM</id>
      </desc>
    </path>
    <path d="M 218.4739 202.847 222.3806 205.4515 227.5896 205.4515 232.1474 208.056 236.0541 224.9851 225.6362 236.7052 211.9627 250.3787 210.6604 252.3321 211.3116 255.5877 204.8004 262.0989 202.847 269.9123 195.6847 269.2612 193.0802 263.4011 187.2201 263.4011 179.4067 246.472 177.4534 241.2631 180.709 226.2873 182.0112 223.0317 182.6623 217.8228 180.0578 212.6138 170.291 198.9403 155.9664 191.778 161.8265 189.1735 172.8955 189.8246 185.2668 202.1959 194.3825 206.1026 202.1959 213.2649 204.8004 213.2649 207.4049 206.1026 210.0093 204.8004 217.1716 204.8004 218.4739 202.847 Z" id="AZ.SX" fill="#cee3f5" stroke="#6e6e6e" stroke-width="0.4">
      <desc>
        <labelrank>9</labelrank>
        <code_hasc>AZ.SX</code_hasc>
        <name>Samux</name>
        <admin>Azerbaijan</admin>
        <type_en>District</type_en>
        <region>Ganja-Gazakh Economic Region</region>
        <woe_id>20070269</woe_id>
        <longitude>46</longitude>
        <woe_name>Samux</woe_name>
        <fips>AJ52</fips>
        <woe_label/>
        <latitude>40</latitude>
        <iso_a2>AZ</iso_a2>
        <postal>SX</postal>
        <type>Rayon</type>
        <id>AZ.SX</id>
      </desc>
    </path>
    <path d="M 155.9664 191.778 170.291 198.9403 166.3843 205.4515 159.222 214.5672 157.2687 219.125 151.4086 220.4272 139.6884 219.125 133.8284 219.7761 129.9216 228.8918 115.597 239.9608 113.6437 243.8675 113.6437 248.4254 112.3414 255.5877 112.3414 276.4235 111.6903 280.9813 108.4347 284.2369 99.9701 279.028 100.6213 274.4701 98.0168 271.2146 94.1101 269.9123 89.5522 269.9123 86.2966 267.3078 84.9944 260.7966 94.1101 256.2388 97.3657 252.3321 99.319 245.8209 99.319 242.5653 91.5056 240.6119 84.9944 232.1474 80.4366 229.5429 81.7388 224.9851 86.2966 219.125 93.459 216.5205 96.7146 213.2649 98.0168 207.4049 94.7612 198.2892 98.6679 195.6847 105.1791 195.6847 110.3881 189.1735 118.8526 184.6157 124.7127 188.5224 142.2929 194.3825 150.7575 195.0336 155.9664 191.778 Z" id="AZ.TO" fill="#cee3f5" stroke="#6e6e6e" stroke-width="0.4">
      <desc>
        <labelrank>7</labelrank>
        <code_hasc>AZ.TO</code_hasc>
        <name>Tovuz</name>
        <admin>Azerbaijan</admin>
        <type_en>District</type_en>
        <region>Ganja-Gazakh Economic Region</region>
        <woe_id>20070248</woe_id>
        <longitude>45</longitude>
        <woe_name>Tovuz</woe_name>
        <fips>AJ58</fips>
        <woe_label/>
        <latitude>41</latitude>
        <iso_a2>AZ</iso_a2>
        <postal>TO</postal>
        <type>Rayon</type>
        <id>AZ.TO</id>
      </desc>
    </path>
    <path d="M 256.2388 232.7985 277.7257 243.8675 295.9571 251.0299 292.0504 268.6101 292.0504 274.4701 293.3526 279.028 292.0504 284.2369 290.7481 286.1903 286.1903 289.4459 282.2836 298.5616 267.959 301.166 262.75 309.6306 258.8433 305.0728 256.8899 299.8638 259.4944 298.5616 261.4478 292.7015 260.1455 291.3993 256.8899 292.0504 253.6343 291.3993 252.3321 277.7257 249.7276 274.4701 245.1698 273.819 240.6119 277.0746 238.6586 273.819 245.1698 264.0522 240.6119 261.4478 236.0541 260.7966 233.4496 256.2388 236.0541 243.8675 234.7519 230.8451 236.0541 224.9851 246.472 227.5896 256.2388 232.7985 Z M 264.0522 254.9366 259.4944 252.9832 255.5877 254.9366 261.4478 261.4478 271.2146 257.541 268.6101 253.6343 264.0522 254.9366 Z M 286.1903 285.5392 287.4925 283.5858 286.8414 280.9813 288.7948 275.1213 278.3769 274.4701 276.4235 277.7257 278.3769 282.9347 282.2836 284.8881 286.1903 285.5392 Z" id="AZ.YV" fill="#cee3f5" stroke="#6e6e6e" stroke-width="0.4">
      <desc>
        <labelrank>7</labelrank>
        <code_hasc>AZ.YV</code_hasc>
        <name>Yevlakh Rayon</name>
        <admin>Azerbaijan</admin>
        <type_en>District</type_en>
        <region>Aran Economic Region</region>
        <woe_id>20070252</woe_id>
        <longitude>46</longitude>
        <woe_name>Yevlax</woe_name>
        <fips>AJ67</fips>
        <woe_label/>
        <latitude>40</latitude>
        <iso_a2>AZ</iso_a2>
        <postal>YV</postal>
        <type>Rayon</type>
        <id>AZ.YV</id>
      </desc>
    </path>
    <path d="M 697.0466 303.1194 699 307.6772 698.3489 308.9795 695.0933 309.6306 691.8377 305.7239 691.8377 303.7705 693.1399 305.0728 697.0466 303.1194 Z M 661.8862 282.9347 663.1884 283.5858 665.1418 282.9347 665.7929 284.2369 666.444 287.4925 671.0019 292.0504 670.3507 295.306 665.7929 295.9571 666.444 292.0504 661.8862 286.8414 661.8862 282.9347 Z M 542.7313 372.1381 544.6847 363.6735 548.5914 357.1623 547.2892 351.3022 550.5448 344.791 551.847 336.3265 556.4049 327.2108 556.4049 318.7463 554.4515 301.8172 558.3582 297.9104 562.916 297.2593 568.7761 290.097 585.7052 288.1437 590.9142 289.4459 607.1922 283.5858 609.7966 280.9813 594.8209 277.0746 590.9142 279.028 588.3097 278.3769 585.7052 276.4235 587.6586 271.2146 603.2854 273.819 615.0056 269.2612 628.6791 269.2612 635.8414 277.7257 651.4683 281.6325 656.0261 290.7481 661.2351 292.7015 665.7929 297.9104 667.0951 301.166 669.0485 313.5373 672.3041 321.3507 671.653 323.3041 663.1884 312.2351 654.7239 306.375 639.097 303.7705 630.6325 305.0728 624.7724 309.6306 622.819 310.2817 618.9123 305.7239 611.0989 303.7705 605.2388 308.9795 606.541 312.2351 603.2854 316.1418 598.7276 318.7463 590.9142 321.3507 583.7519 325.2575 574.6362 329.1642 565.5205 339.5821 566.1716 348.6978 559.6604 351.9534 559.0093 354.5578 560.9627 360.4179 565.5205 365.6269 559.6604 370.8358 559.0093 374.0914 561.6138 383.8582 558.3582 388.416 559.6604 393.625 557.056 396.2295 556.4049 398.1828 557.056 402.0896 560.3116 409.2519 555.7537 412.5075 553.1493 416.4142 551.847 411.8563 550.5448 400.1362 551.847 393.625 551.1959 389.7183 550.5448 385.8116 548.5914 383.2071 547.2892 381.2537 542.7313 372.1381 Z M 579.194 305.0728 584.403 305.0728 588.3097 301.8172 584.403 295.9571 579.194 296.6082 575.9384 299.2127 579.194 305.0728 Z" id="AZ.BA" fill="#cee3f5" stroke="#6e6e6e" stroke-width="0.4">
      <desc>
        <labelrank>9</labelrank>
        <code_hasc>AZ.BA</code_hasc>
        <name>Bakı</name>
        <admin>Azerbaijan</admin>
        <type_en>Municipality</type_en>
        <region>Absheron Economic Region</region>
        <woe_id>20070218</woe_id>
        <longitude>50</longitude>
        <woe_name>Bakı</woe_name>
        <fips>AJ01</fips>
        <woe_label>Baki, AZ, Azerbaijan</woe_label>
        <latitude>40</latitude>
        <iso_a2>AZ</iso_a2>
        <postal>BA</postal>
        <type>Sahar</type>
        <id>AZ.BA</id>
      </desc>
    </path>
    <path d="M 579.194 305.0728 575.9384 299.2127 579.194 296.6082 584.403 295.9571 588.3097 301.8172 584.403 305.0728 579.194 305.0728 Z M 585.7052 276.4235 588.3097 278.3769 590.9142 279.028 594.8209 277.0746 609.7966 280.9813 607.1922 283.5858 590.9142 289.4459 585.7052 288.1437 568.7761 290.097 562.916 297.2593 558.3582 297.9104 554.4515 301.8172 556.4049 318.7463 556.4049 327.2108 551.847 336.3265 550.5448 344.791 547.2892 351.3022 548.5914 357.1623 544.6847 363.6735 542.7313 372.1381 538.1735 366.278 536.2201 361.069 533.6157 356.5112 531.0112 351.9534 529.709 346.7444 526.4534 342.8377 521.2444 342.1866 515.3843 342.8377 510.8265 342.8377 506.9198 341.5354 499.7575 332.4198 488.6884 322.0019 487.3862 316.1418 491.2929 317.444 495.1996 320.0485 497.8041 321.3507 508.222 309.6306 512.1287 308.3284 516.0354 301.8172 526.4534 297.2593 529.709 294.6549 532.9646 290.7481 534.9179 286.1903 544.0336 285.5392 551.1959 281.6325 551.847 279.028 552.4981 275.7724 553.8004 273.819 555.1026 271.8657 558.3582 268.6101 560.3116 264.7034 564.8694 267.3078 573.9851 278.3769 579.8451 278.3769 585.7052 276.4235 Z" id="AZ.AR" fill="#cee3f5" stroke="#6e6e6e" stroke-width="0.4">
      <desc>
        <labelrank>9</labelrank>
        <code_hasc>AZ.AR</code_hasc>
        <name>Abşeron</name>
        <admin>Azerbaijan</admin>
        <type_en>District</type_en>
        <region>Absheron Economic Region</region>
        <woe_id>20070283</woe_id>
        <longitude>49</longitude>
        <woe_name>Abşeron</woe_name>
        <fips>AJ01</fips>
        <woe_label>Abseron, AZ, Azerbaijan</woe_label>
        <latitude>40</latitude>
        <iso_a2>AZ</iso_a2>
        <postal>AR</postal>
        <type>Rayon</type>
        <id>AZ.AR</id>
      </desc>
    </path>
    <path d="M 277.7257 348.0466 294.6549 347.3955 289.4459 352.6045 284.2369 356.5112 283.5858 359.7668 287.4925 363.0224 284.2369 365.6269 279.6791 367.5802 279.6791 376.0448 276.4235 378.6493 279.6791 385.8116 289.4459 387.7649 299.8638 384.5093 302.4683 389.0672 299.8638 394.9272 297.9104 396.2295 294.0037 395.5784 290.7481 395.5784 287.4925 400.7873 280.3302 399.4851 268.6101 392.9739 263.4011 394.2761 260.1455 402.7407 251.0299 406.6474 258.1922 394.2761 258.8433 389.7183 254.2854 387.7649 249.7276 383.8582 246.472 376.6959 240.6119 374.0914 236.0541 375.3937 231.4963 372.7892 234.7519 370.1847 239.3097 370.1847 239.3097 364.3246 241.2631 360.4179 244.5187 357.1623 245.1698 351.3022 258.8433 344.791 258.1922 342.1866 258.8433 340.2332 264.7034 342.1866 267.3078 341.5354 269.9123 344.1399 271.2146 348.0466 274.4701 348.6978 277.7257 348.0466 Z" id="AZ.AM" fill="#cee3f5" stroke="#6e6e6e" stroke-width="0.4">
      <desc>
        <labelrank>9</labelrank>
        <code_hasc>AZ.AM</code_hasc>
        <name>Ağdam</name>
        <admin>Azerbaijan</admin>
        <type_en>District</type_en>
        <region>Yukhari Garabakh Economic Region</region>
        <woe_id>20070258</woe_id>
        <longitude>46</longitude>
        <woe_name>Ağdam</woe_name>
        <fips>AJ03</fips>
        <woe_label>Agdam, AZ, Azerbaijan</woe_label>
        <latitude>40</latitude>
        <iso_a2>AZ</iso_a2>
        <postal>AM</postal>
        <type>Rayon</type>
        <id>AZ.AM</id>
      </desc>
    </path>
    <path d="M 327.2108 254.2854 328.5131 267.959 335.6754 273.1679 338.931 277.7257 335.6754 285.5392 335.6754 290.7481 331.1175 289.4459 326.5597 290.097 323.3041 292.7015 321.3507 303.1194 323.3041 307.0261 326.5597 308.3284 328.5131 312.2351 325.2575 320.6996 319.3974 326.5597 316.7929 324.6063 318.0951 318.7463 316.7929 316.7929 312.2351 317.444 310.2817 316.7929 312.2351 312.8862 311.584 311.584 305.0728 308.9795 308.3284 306.375 308.9795 302.4683 303.1194 302.4683 303.1194 301.166 298.5616 296.6082 299.2127 290.7481 297.2593 289.4459 292.7015 294.0037 292.0504 290.097 293.3526 288.7948 290.7481 286.1903 292.0504 284.2369 293.3526 279.028 292.0504 274.4701 292.0504 268.6101 295.9571 251.0299 308.9795 254.2854 314.1884 252.9832 322.653 255.5877 327.2108 254.2854 Z" id="AZ.AS" fill="#cee3f5" stroke="#6e6e6e" stroke-width="0.4">
      <desc>
        <labelrank>9</labelrank>
        <code_hasc>AZ.AS</code_hasc>
        <name>Ağdaş</name>
        <admin>Azerbaijan</admin>
        <type_en>District</type_en>
        <region>Aran Economic Region</region>
        <woe_id>20070213</woe_id>
        <longitude>47</longitude>
        <woe_name>Agdas</woe_name>
        <fips>AJ04</fips>
        <woe_label/>
        <latitude>40</latitude>
        <iso_a2>AZ</iso_a2>
        <postal>AS</postal>
        <type>Rayon</type>
        <id>AZ.AS</id>
      </desc>
    </path>
    <path d="M 442.459 317.444 439.8545 321.3507 438.5522 325.9086 434.6455 322.653 431.3899 317.444 424.8787 314.8396 423.5765 303.1194 419.0187 300.5149 413.8097 301.166 407.2985 307.0261 402.0896 303.1194 398.1828 303.7705 394.9272 301.166 397.5317 288.1437 400.1362 289.4459 402.0896 287.4925 402.7407 282.9347 404.694 280.3302 412.5075 274.4701 414.4608 271.2146 425.5299 265.3545 432.6922 260.1455 435.9478 252.9832 437.9011 245.8209 446.3657 258.1922 443.7612 264.0522 443.7612 266.6567 437.25 274.4701 436.5989 280.9813 439.8545 284.8881 444.4123 286.8414 452.8769 286.8414 462.6437 292.7015 460.6903 294.6549 452.2257 299.2127 447.6679 303.1194 447.0168 310.9328 442.459 317.444 Z" id="AZ.AU" fill="#cee3f5" stroke="#6e6e6e" stroke-width="0.4">
      <desc>
        <labelrank>9</labelrank>
        <code_hasc>AZ.AU</code_hasc>
        <name>Ağsu</name>
        <admin>Azerbaijan</admin>
        <type_en>District</type_en>
        <region>Daghlig Shirvan Economic Region</region>
        <woe_id>20070215</woe_id>
        <longitude>48</longitude>
        <woe_name>Agsu</woe_name>
        <fips>AJ06</fips>
        <woe_label/>
        <latitude>40</latitude>
        <iso_a2>AZ</iso_a2>
        <postal>AU</postal>
        <type>Rayon</type>
        <id>AZ.AU</id>
      </desc>
    </path>
    <path d="M 487.3862 316.1418 488.6884 322.0019 499.7575 332.4198 506.9198 341.5354 510.8265 342.8377 515.3843 342.8377 521.2444 342.1866 526.4534 342.8377 529.709 346.7444 531.0112 351.9534 533.6157 356.5112 536.2201 361.069 538.1735 366.278 542.7313 372.1381 547.2892 381.2537 548.5914 383.2071 550.5448 385.8116 551.1959 389.7183 551.847 393.625 547.9403 391.0205 544.0336 388.416 540.1269 384.5093 534.2668 386.4627 523.8489 385.1604 517.9888 384.5093 508.222 379.3004 499.7575 380.6026 503.0131 376.0448 502.3619 370.1847 493.8974 369.5336 492.5951 370.1847 488.0373 366.9291 478.9216 365.6269 476.3172 362.3713 467.2015 359.7668 466.5504 351.3022 463.9459 350 452.8769 347.3955 441.8078 348.0466 441.8078 335.0243 441.1567 329.8153 438.5522 325.9086 439.8545 321.3507 442.459 317.444 452.2257 319.3974 466.5504 326.5597 470.4571 324.6063 473.7127 320.0485 475.0149 314.1884 480.875 316.7929 487.3862 316.1418 Z" id="AZ.HA" fill="#cee3f5" stroke="#6e6e6e" stroke-width="0.4">
      <desc>
        <labelrank>9</labelrank>
        <code_hasc>AZ.HA</code_hasc>
        <name>Hajigabul</name>
        <admin>Azerbaijan</admin>
        <type_en>District</type_en>
        <region>Aran Economic Region</region>
        <woe_id>20070282</woe_id>
        <longitude>48</longitude>
        <woe_name>Əli Bayramlı</woe_name>
        <fips>AJ07</fips>
        <woe_label>Haciqabul, AZ, Azerbaijan</woe_label>
        <latitude>40</latitude>
        <iso_a2>AZ</iso_a2>
        <postal>AB</postal>
        <type>Rayon</type>
        <id>AZ.HA</id>
      </desc>
    </path>
    <path d="M 461.3414 607.1922 464.597 596.1231 467.2015 594.1698 472.4104 591.5653 475.0149 592.2164 480.2239 588.9608 491.2929 588.3097 501.0597 585.0541 503.0131 611.0989 490.6418 609.7966 479.5728 617.6101 476.9683 618.9123 470.4571 618.2612 466.5504 615.0056 461.3414 607.1922 Z" id="AZ.AA" fill="#cee3f5" stroke="#6e6e6e" stroke-width="0.4">
      <desc>
        <labelrank>9</labelrank>
        <code_hasc>AZ.AA</code_hasc>
        <name>Astara</name>
        <admin>Azerbaijan</admin>
        <type_en>District</type_en>
        <region>Lankaran Economic Region</region>
        <woe_id>20070217</woe_id>
        <longitude>48</longitude>
        <woe_name>Astara</woe_name>
        <fips>AJ08</fips>
        <woe_label>Astara, AZ, Azerbaijan</woe_label>
        <latitude>38</latitude>
        <iso_a2>AZ</iso_a2>
        <postal>AA</postal>
        <type>Rayon</type>
        <id>AZ.AA</id>
      </desc>
    </path>
    <path d="M 319.3974 326.5597 320.0485 327.8619 329.1642 329.1642 324.6063 333.722 305.0728 348.6978 301.166 350 294.0037 344.791 294.6549 347.3955 277.7257 348.0466 275.7724 336.9776 275.7724 327.2108 272.5168 325.9086 269.9123 323.9552 264.7034 316.7929 262.75 309.6306 267.959 301.166 282.2836 298.5616 286.1903 289.4459 290.7481 286.1903 293.3526 288.7948 292.0504 290.097 292.7015 294.0037 297.2593 289.4459 299.2127 290.7481 298.5616 296.6082 303.1194 301.166 303.1194 302.4683 308.9795 302.4683 308.3284 306.375 305.0728 308.9795 311.584 311.584 312.2351 312.8862 310.2817 316.7929 312.2351 317.444 316.7929 316.7929 318.0951 318.7463 316.7929 324.6063 319.3974 326.5597 Z" id="AZ.BR" fill="#cee3f5" stroke="#6e6e6e" stroke-width="0.4">
      <desc>
        <labelrank>9</labelrank>
        <code_hasc>AZ.BR</code_hasc>
        <name>Bərdə</name>
        <admin>Azerbaijan</admin>
        <type_en>District</type_en>
        <region>Aran Economic Region</region>
        <woe_id>20070219</woe_id>
        <longitude>47</longitude>
        <woe_name>Bərdə</woe_name>
        <fips>AJ11</fips>
        <woe_label>Barda, AZ, Azerbaijan</woe_label>
        <latitude>40</latitude>
        <iso_a2>AZ</iso_a2>
        <postal>BR</postal>
        <type>Rayon</type>
        <id>AZ.BR</id>
      </desc>
    </path>
    <path d="M 361.7201 354.5578 357.1623 359.1157 365.6269 368.2313 365.6269 374.0914 358.4646 379.3004 357.1623 381.2537 361.069 385.1604 358.4646 395.5784 363.0224 397.5317 375.3937 407.2985 374.7425 412.5075 364.9757 420.3209 363.6735 425.5299 359.1157 430.7388 344.791 439.2034 344.1399 433.3433 336.3265 426.8321 331.1175 419.6698 326.5597 418.3675 324.6063 413.8097 320.6996 407.2985 323.9552 404.694 322.0019 400.1362 323.9552 396.8806 327.8619 394.9272 329.8153 392.3228 335.6754 392.3228 343.4888 389.0672 346.7444 385.8116 350.6511 364.9757 357.8134 347.3955 361.069 348.0466 361.7201 354.5578 Z" id="AZ.BQ" fill="#cee3f5" stroke="#6e6e6e" stroke-width="0.4">
      <desc>
        <labelrank>9</labelrank>
        <code_hasc>AZ.BQ</code_hasc>
        <name>Beyləqan</name>
        <admin>Azerbaijan</admin>
        <type_en>District</type_en>
        <region>Aran Economic Region</region>
        <woe_id>20070257</woe_id>
        <longitude>47</longitude>
        <woe_name>Beylaqan</woe_name>
        <fips>AJ12</fips>
        <woe_label/>
        <latitude>39</latitude>
        <iso_a2>AZ</iso_a2>
        <postal>BQ</postal>
        <type>Rayon</type>
        <id>AZ.BQ</id>
      </desc>
    </path>
    <path d="M 435.2966 428.7854 441.8078 422.2743 454.8302 428.7854 459.3881 422.9254 464.597 423.5765 482.1772 429.4366 479.5728 437.25 479.5728 445.7146 484.7817 451.5746 482.8284 460.0392 473.0616 458.7369 469.1549 464.597 468.5037 473.7127 465.2481 476.9683 461.3414 475.0149 459.3881 469.1549 456.7836 465.2481 452.2257 465.2481 445.0634 473.7127 439.8545 475.0149 437.25 478.2705 432.6922 476.3172 432.041 469.1549 430.7388 467.2015 432.041 466.5504 425.5299 456.7836 417.0653 448.9701 395.5784 425.5299 388.416 419.0187 383.8582 417.0653 383.8582 415.7631 391.6716 415.7631 400.1362 422.2743 407.9496 429.4366 422.9254 437.9011 435.2966 428.7854 Z" id="AZ.BS" fill="#cee3f5" stroke="#6e6e6e" stroke-width="0.4">
      <desc>
        <labelrank>9</labelrank>
        <code_hasc>AZ.BS</code_hasc>
        <name>Biləsuvar</name>
        <admin>Azerbaijan</admin>
        <type_en>District</type_en>
        <region>Aran Economic Region</region>
        <woe_id>20070242</woe_id>
        <longitude>48</longitude>
        <woe_name>Biləsuvar</woe_name>
        <fips>AJ13</fips>
        <woe_label>Bilasuvar, AZ, Azerbaijan</woe_label>
        <latitude>39</latitude>
        <iso_a2>AZ</iso_a2>
        <postal>BS</postal>
        <type>Rayon</type>
        <id>AZ.BS</id>
      </desc>
    </path>
    <path d="M 276.4235 457.4347 284.8881 461.9925 289.4459 469.806 296.6082 468.5037 301.8172 472.4104 288.1437 478.2705 282.2836 482.1772 273.1679 500.4086 265.3545 505.6175 258.1922 503.6642 254.2854 504.9664 252.9832 500.4086 249.0765 495.1996 240.6119 489.9907 238.6586 486.084 238.0075 480.875 234.1007 473.7127 234.7519 469.1549 237.3563 465.8993 247.1231 468.5037 248.4254 463.2948 246.472 458.0858 249.0765 456.1325 255.5877 460.0392 256.8899 463.9459 264.0522 468.5037 266.0056 471.7593 269.2612 471.1082 271.2146 469.1549 275.1213 468.5037 273.819 461.9925 276.4235 457.4347 Z" id="AZ.CB" fill="#cee3f5" stroke="#6e6e6e" stroke-width="0.4">
      <desc>
        <labelrank>9</labelrank>
        <code_hasc>AZ.CB</code_hasc>
        <name>Cəbrayıl</name>
        <admin>Azerbaijan</admin>
        <type_en>District</type_en>
        <region>Yukhari Garabakh Economic Region</region>
        <woe_id>20070224</woe_id>
        <longitude>46</longitude>
        <woe_name>Cabrayil</woe_name>
        <fips>AJ14</fips>
        <woe_label/>
        <latitude>39</latitude>
        <iso_a2>AZ</iso_a2>
        <postal>CB</postal>
        <type>Rayon</type>
        <id>AZ.CB</id>
      </desc>
    </path>
    <path d="M 482.8284 460.0392 477.6194 468.5037 476.9683 474.3638 478.2705 480.2239 482.8284 489.9907 482.1772 501.0597 476.9683 499.7575 476.9683 502.3619 475.666 503.6642 471.1082 503.6642 471.1082 507.5709 473.0616 510.8265 463.9459 516.6866 456.7836 525.1511 450.9235 527.1045 447.6679 523.1978 443.1101 520.5933 437.25 522.5466 429.4366 523.1978 430.0877 518.6399 424.8787 508.8731 423.5765 507.5709 416.4142 504.9664 409.2519 498.4552 404.0429 489.9907 404.0429 484.7817 406.6474 480.2239 409.903 476.9683 413.8097 474.3638 420.972 472.4104 430.7388 467.2015 432.041 469.1549 432.6922 476.3172 437.25 478.2705 439.8545 475.0149 445.0634 473.7127 452.2257 465.2481 456.7836 465.2481 459.3881 469.1549 461.3414 475.0149 465.2481 476.9683 468.5037 473.7127 469.1549 464.597 473.0616 458.7369 482.8284 460.0392 Z" id="AZ.CL" fill="#cee3f5" stroke="#6e6e6e" stroke-width="0.4">
      <desc>
        <labelrank>9</labelrank>
        <code_hasc>AZ.CL</code_hasc>
        <name>Cəlilabad</name>
        <admin>Azerbaijan</admin>
        <type_en>District</type_en>
        <region>Lankaran Economic Region</region>
        <woe_id>20070223</woe_id>
        <longitude>48</longitude>
        <woe_name>Calilabad</woe_name>
        <fips>AJ15</fips>
        <woe_label/>
        <latitude>39</latitude>
        <iso_a2>AZ</iso_a2>
        <postal>CL</postal>
        <type>Rayon</type>
        <id>AZ.CL</id>
      </desc>
    </path>
    <path d="M 506.9198 154.6642 514.0821 167.0354 517.3377 183.9646 519.9422 187.8713 517.9888 188.5224 508.222 181.3601 501.0597 183.9646 492.5951 184.6157 489.3396 190.4757 491.2929 195.6847 491.944 201.5448 490.6418 204.1493 489.3396 206.1026 484.7817 207.4049 480.875 210.0093 479.5728 213.916 482.8284 228.2407 475.666 234.1007 463.2948 228.8918 462.6437 215.8694 460.6903 211.9627 465.8993 206.1026 467.2015 202.1959 457.4347 191.778 460.0392 183.9646 469.1549 174.8489 468.5037 172.2444 467.2015 170.291 466.5504 164.431 467.8526 157.9198 475.0149 155.3153 482.8284 156.6175 488.6884 154.0131 500.4086 155.3153 506.9198 154.6642 Z" id="AZ.DV" fill="#cee3f5" stroke="#6e6e6e" stroke-width="0.4">
      <desc>
        <labelrank>9</labelrank>
        <code_hasc>AZ.DV</code_hasc>
        <name>Dəvəçi</name>
        <admin>Azerbaijan</admin>
        <type_en>District</type_en>
        <region>Guba-Khachmaz Economic Region</region>
        <woe_id>20070279</woe_id>
        <longitude>48</longitude>
        <woe_name>Dəvəçi</woe_name>
        <fips>AJ17</fips>
        <woe_label>Davaci, AZ, Azerbaijan</woe_label>
        <latitude>41</latitude>
        <iso_a2>AZ</iso_a2>
        <postal>DV</postal>
        <type>Rayon</type>
        <id>AZ.DV</id>
      </desc>
    </path>
    <path d="M 344.791 439.2034 335.0243 448.319 323.9552 452.2257 318.7463 454.8302 305.0728 470.4571 301.8172 472.4104 296.6082 468.5037 289.4459 469.806 284.8881 461.9925 276.4235 457.4347 277.0746 454.1791 281.6325 452.8769 279.6791 446.3657 282.2836 443.1101 280.9813 439.8545 275.1213 443.1101 272.5168 443.7612 271.8657 441.1567 273.819 438.5522 278.3769 437.25 280.9813 433.9944 277.0746 434.6455 272.5168 433.9944 274.4701 430.0877 282.9347 428.7854 290.097 422.9254 306.375 419.0187 324.6063 413.8097 326.5597 418.3675 331.1175 419.6698 336.3265 426.8321 344.1399 433.3433 344.791 439.2034 Z" id="AZ.FU" fill="#cee3f5" stroke="#6e6e6e" stroke-width="0.4">
      <desc>
        <labelrank>9</labelrank>
        <code_hasc>AZ.FU</code_hasc>
        <name>Füzuli</name>
        <admin>Azerbaijan</admin>
        <type_en>District</type_en>
        <region>Yukhari Garabakh Economic Region</region>
        <woe_id>20070225</woe_id>
        <longitude>47</longitude>
        <woe_name>Fuzuli</woe_name>
        <fips>AJ18</fips>
        <woe_label/>
        <latitude>39</latitude>
        <iso_a2>AZ</iso_a2>
        <postal>FU</postal>
        <type>Rayon</type>
        <id>AZ.FU</id>
      </desc>
    </path>
    <path d="M 388.416 291.3993 389.0672 299.2127 384.5093 302.4683 381.2537 301.166 373.4403 301.166 361.069 295.306 358.4646 295.306 353.9067 298.5616 345.4422 293.3526 340.2332 295.306 335.6754 290.7481 335.6754 285.5392 338.931 277.7257 335.6754 273.1679 339.5821 270.5634 348.6978 269.2612 352.6045 267.3078 363.6735 270.5634 372.7892 270.5634 385.1604 273.819 390.3694 277.7257 387.7649 284.8881 388.416 291.3993 Z" id="AZ.GY" fill="#cee3f5" stroke="#6e6e6e" stroke-width="0.4">
      <desc>
        <labelrank>9</labelrank>
        <code_hasc>AZ.GY</code_hasc>
        <name>Göyçay</name>
        <admin>Azerbaijan</admin>
        <type_en>District</type_en>
        <region>Aran Economic Region</region>
        <woe_id>20070226</woe_id>
        <longitude>47</longitude>
        <woe_name>Göyçay</woe_name>
        <fips>AJ22</fips>
        <woe_label>Goycay, AZ, Azerbaijan</woe_label>
        <latitude>40</latitude>
        <iso_a2>AZ</iso_a2>
        <postal>GY</postal>
        <type>Rayon</type>
        <id>AZ.GY</id>
      </desc>
    </path>
    <path d="M 425.5299 363.6735 426.181 366.9291 422.2743 368.8825 417.7164 373.4403 415.1119 378.6493 417.7164 381.9049 418.3675 385.8116 414.4608 396.8806 417.7164 403.3918 424.8787 405.9963 430.7388 410.5541 430.0877 421.6231 435.2966 428.7854 422.9254 437.9011 407.9496 429.4366 400.1362 422.2743 391.6716 415.7631 383.8582 415.7631 383.8582 417.0653 381.2537 420.3209 370.8358 420.972 368.2313 421.6231 363.6735 425.5299 364.9757 420.3209 374.7425 412.5075 375.3937 407.2985 363.0224 397.5317 358.4646 395.5784 361.069 385.1604 357.1623 381.2537 358.4646 379.3004 365.6269 374.0914 365.6269 368.2313 357.1623 359.1157 361.7201 354.5578 363.0224 357.1623 366.9291 355.209 369.5336 355.8601 374.7425 359.7668 376.6959 357.1623 382.556 359.7668 383.8582 351.9534 385.1604 351.3022 389.0672 353.9067 393.625 350 395.5784 350 397.5317 355.8601 405.9963 359.7668 406.6474 363.0224 412.5075 360.4179 417.0653 361.7201 418.3675 365.6269 422.9254 362.3713 425.5299 363.6735 Z" id="AZ.IM" fill="#cee3f5" stroke="#6e6e6e" stroke-width="0.4">
      <desc>
        <labelrank>9</labelrank>
        <code_hasc>AZ.IM</code_hasc>
        <name>İmişli</name>
        <admin>Azerbaijan</admin>
        <type_en>District</type_en>
        <region>Aran Economic Region</region>
        <woe_id>20070227</woe_id>
        <longitude>48</longitude>
        <woe_name>Imisli</woe_name>
        <fips>AJ24</fips>
        <woe_label/>
        <latitude>39</latitude>
        <iso_a2>AZ</iso_a2>
        <postal>IM</postal>
        <type>Rayon</type>
        <id>AZ.IM</id>
      </desc>
    </path>
    <path d="M 428.7854 221.7295 433.9944 227.5896 440.5056 231.4963 441.8078 238.6586 437.9011 245.8209 435.9478 252.9832 432.6922 260.1455 425.5299 265.3545 414.4608 271.2146 412.5075 274.4701 404.694 280.3302 402.7407 282.9347 402.0896 287.4925 400.1362 289.4459 397.5317 288.1437 388.416 291.3993 387.7649 284.8881 390.3694 277.7257 385.1604 273.819 372.7892 270.5634 363.6735 270.5634 352.6045 267.3078 360.4179 254.2854 373.4403 244.5187 374.0914 237.3563 377.347 236.7052 380.6026 233.4496 380.6026 228.8918 377.9981 223.6828 376.6959 219.125 377.9981 215.2183 381.2537 215.8694 382.556 210.6604 385.8116 205.4515 392.9739 206.1026 412.5075 215.2183 421.6231 215.8694 428.7854 221.7295 Z" id="AZ.IS" fill="#cee3f5" stroke="#6e6e6e" stroke-width="0.4">
      <desc>
        <labelrank>9</labelrank>
        <code_hasc>AZ.IS</code_hasc>
        <name>İsmayıllı</name>
        <admin>Azerbaijan</admin>
        <type_en>District</type_en>
        <region>Daghlig Shirvan Economic Region</region>
        <woe_id>20070228</woe_id>
        <longitude>48</longitude>
        <woe_name>İsmayıllı</woe_name>
        <fips>AJ25</fips>
        <woe_label>Ismayilli, AZ, Azerbaijan</woe_label>
        <latitude>40</latitude>
        <iso_a2>AZ</iso_a2>
        <postal>IS</postal>
        <type>Rayon</type>
        <id>AZ.IS</id>
      </desc>
    </path>
    <path d="M 438.5522 325.9086 441.1567 329.8153 441.8078 335.0243 441.8078 348.0466 430.7388 355.8601 425.5299 363.6735 422.9254 362.3713 418.3675 365.6269 417.0653 361.7201 412.5075 360.4179 406.6474 363.0224 405.9963 359.7668 397.5317 355.8601 395.5784 350 393.625 350 389.0672 353.9067 385.1604 351.3022 383.8582 351.9534 382.556 359.7668 376.6959 357.1623 374.7425 359.7668 369.5336 355.8601 375.3937 351.9534 379.9515 345.4422 378.6493 334.3731 377.9981 322.653 383.2071 314.8396 384.5093 302.4683 389.0672 299.2127 388.416 291.3993 397.5317 288.1437 394.9272 301.166 398.1828 303.7705 402.0896 303.1194 407.2985 307.0261 413.8097 301.166 419.0187 300.5149 423.5765 303.1194 424.8787 314.8396 431.3899 317.444 434.6455 322.653 438.5522 325.9086 Z" id="AZ.KU" fill="#cee3f5" stroke="#6e6e6e" stroke-width="0.4">
      <desc>
        <labelrank>9</labelrank>
        <code_hasc>AZ.KU</code_hasc>
        <name>Kürdəmir</name>
        <admin>Azerbaijan</admin>
        <type_en>District</type_en>
        <region>Aran Economic Region</region>
        <woe_id>20070236</woe_id>
        <longitude>48</longitude>
        <woe_name>Kürdəmir</woe_name>
        <fips>AJ27</fips>
        <woe_label>Kurdamir, AZ, Azerbaijan</woe_label>
        <latitude>40</latitude>
        <iso_a2>AZ</iso_a2>
        <postal>KU</postal>
        <type>Rayon</type>
        <id>AZ.KU</id>
      </desc>
    </path>
    <path d="M 497.153 556.4049 494.5485 557.7071 494.5485 560.3116 495.1996 562.916 495.8507 565.5205 497.8041 564.8694 499.7575 562.2649 501.0597 585.0541 491.2929 588.3097 480.2239 588.9608 482.8284 585.0541 484.1306 581.1474 481.5261 579.194 478.9216 577.2407 478.9216 574.6362 478.9216 572.0317 475.666 565.5205 464.597 558.3582 462.6437 551.847 465.8993 545.3358 469.806 548.5914 474.3638 550.5448 478.9216 549.8937 493.8974 539.4757 502.3619 540.1269 499.1063 544.0336 494.5485 543.3825 495.1996 551.1959 497.153 556.4049 Z M 534.9179 493.2463 539.4757 494.5485 541.4291 496.5019 538.1735 518.6399 529.0578 525.8022 524.5 527.7556 520.5933 525.1511 521.2444 520.5933 521.8955 519.9422 529.709 517.3377 531.6623 511.4776 531.6623 508.222 530.3601 505.6175 527.7556 504.3153 521.8955 504.3153 520.5933 495.1996 517.9888 493.2463 509.5243 493.8974 506.9198 499.1063 506.9198 503.0131 505.6175 503.0131 506.2687 514.0821 508.222 517.9888 504.9664 533.6157 501.7108 525.8022 501.0597 521.2444 501.0597 517.9888 498.4552 515.3843 495.1996 512.7799 495.1996 507.5709 495.8507 502.3619 509.5243 484.7817 515.3843 480.2239 519.291 482.8284 521.8955 488.0373 525.8022 490.6418 529.709 491.2929 534.9179 493.2463 Z" id="AZ.LN" fill="#cee3f5" stroke="#6e6e6e" stroke-width="0.4">
      <desc>
        <labelrank>9</labelrank>
        <code_hasc>AZ.LN</code_hasc>
        <name>Lankaran</name>
        <admin>Azerbaijan</admin>
        <type_en>District</type_en>
        <region>Lankaran Economic Region</region>
        <woe_id>20070263</woe_id>
        <longitude>48</longitude>
        <woe_name>Astara</woe_name>
        <fips>AJ29</fips>
        <woe_label>Lankaran, AZ, Azerbaijan</woe_label>
        <latitude>38</latitude>
        <iso_a2>AZ</iso_a2>
        <postal>NE</postal>
        <type>Rayon</type>
        <id>AZ.LN</id>
      </desc>
    </path>
    <path d="M 482.1772 501.0597 488.6884 503.6642 495.8507 502.3619 495.1996 507.5709 495.1996 512.7799 498.4552 515.3843 501.0597 517.9888 501.0597 521.2444 501.7108 525.8022 504.9664 533.6157 503.0131 539.4757 493.8974 539.4757 478.9216 549.8937 474.3638 550.5448 469.806 548.5914 465.8993 545.3358 463.9459 538.8246 460.0392 534.2668 453.528 533.6157 450.9235 527.1045 456.7836 525.1511 463.9459 516.6866 473.0616 510.8265 471.1082 507.5709 471.1082 503.6642 475.666 503.6642 476.9683 502.3619 476.9683 499.7575 482.1772 501.0597 Z" id="AZ.MA" fill="#cee3f5" stroke="#6e6e6e" stroke-width="0.4">
      <desc>
        <labelrank>9</labelrank>
        <code_hasc>AZ.MA</code_hasc>
        <name>Masallı</name>
        <admin>Azerbaijan</admin>
        <type_en>District</type_en>
        <region>Lankaran Economic Region</region>
        <woe_id>20070239</woe_id>
        <longitude>48</longitude>
        <woe_name>Masallı</woe_name>
        <fips>AJ29</fips>
        <woe_label>Masalli, AZ, Azerbaijan</woe_label>
        <latitude>38</latitude>
        <iso_a2>AZ</iso_a2>
        <postal>MA</postal>
        <type>Rayon</type>
        <id>AZ.MA</id>
      </desc>
    </path>
    <path d="M 465.8993 545.3358 462.6437 551.847 464.597 558.3582 475.666 565.5205 478.9216 572.0317 478.9216 574.6362 478.9216 577.2407 481.5261 579.194 484.1306 581.1474 482.8284 585.0541 480.2239 588.9608 475.0149 592.2164 472.4104 591.5653 467.2015 594.1698 464.597 596.1231 461.3414 607.1922 448.319 592.2164 445.7146 585.0541 442.459 585.0541 436.5989 587.6586 432.6922 588.3097 428.7854 583.1007 422.2743 578.5429 421.6231 570.7295 424.8787 569.4272 427.4832 564.8694 429.4366 558.3582 433.3433 552.4981 460.0392 534.2668 463.9459 538.8246 465.8993 545.3358 Z" id="AZ.LE" fill="#cee3f5" stroke="#6e6e6e" stroke-width="0.4">
      <desc>
        <labelrank>9</labelrank>
        <code_hasc>AZ.LE</code_hasc>
        <name>Lerik</name>
        <admin>Azerbaijan</admin>
        <type_en>District</type_en>
        <region>Lankaran Economic Region</region>
        <woe_id>20070238</woe_id>
        <longitude>48</longitude>
        <woe_name>Lerik</woe_name>
        <fips>AJ31</fips>
        <woe_label>Lerik, AZ, Azerbaijan</woe_label>
        <latitude>38</latitude>
        <iso_a2>AZ</iso_a2>
        <postal>LE</postal>
        <type>Rayon</type>
        <id>AZ.LE</id>
      </desc>
    </path>
    <path d="M 545.3358 441.8078 546.6381 446.3657 558.3582 456.1325 560.9627 460.0392 560.3116 466.5504 561.6138 469.806 556.4049 465.8993 558.3582 470.4571 561.6138 475.0149 559.0093 474.3638 555.7537 470.4571 549.2425 466.5504 545.3358 468.5037 542.0802 472.4104 541.4291 477.6194 542.0802 494.5485 541.4291 496.5019 539.4757 494.5485 534.9179 493.2463 525.8022 490.6418 521.8955 488.0373 519.291 482.8284 515.3843 480.2239 509.5243 484.7817 495.8507 502.3619 488.6884 503.6642 482.1772 501.0597 482.8284 489.9907 478.2705 480.2239 476.9683 474.3638 477.6194 468.5037 482.8284 460.0392 494.5485 467.8526 499.1063 468.5037 505.6175 464.597 506.2687 462.6437 504.9664 454.8302 507.5709 449.6213 512.7799 443.7612 514.0821 439.8545 516.6866 436.5989 525.8022 445.7146 528.4067 447.0168 533.6157 446.3657 545.3358 441.8078 Z" id="AZ.NE" fill="#cee3f5" stroke="#6e6e6e" stroke-width="0.4">
      <desc>
        <labelrank>9</labelrank>
        <code_hasc>AZ.NE</code_hasc>
        <name>Neftçala</name>
        <admin>Azerbaijan</admin>
        <type_en>District</type_en>
        <region>Aran Economic Region</region>
        <woe_id>20070241</woe_id>
        <longitude>49</longitude>
        <woe_name>Neftcala</woe_name>
        <fips>AJ36</fips>
        <woe_label/>
        <latitude>39</latitude>
        <iso_a2>AZ</iso_a2>
        <postal>NE</postal>
        <type>Rayon</type>
        <id>AZ.NE</id>
      </desc>
    </path>
    <path d="M 534.9179 286.1903 532.9646 290.7481 529.709 294.6549 526.4534 297.2593 516.0354 301.8172 512.1287 308.3284 508.222 309.6306 499.7575 318.7463 497.8041 321.3507 495.1996 320.0485 491.2929 317.444 487.3862 316.1418 480.875 316.7929 475.0149 314.1884 465.2481 315.4907 464.597 312.8862 469.806 308.9795 473.7127 297.2593 471.7593 293.3526 469.1549 278.3769 465.8993 275.1213 469.806 269.2612 469.1549 262.0989 470.4571 255.5877 479.5728 249.0765 486.084 250.3787 495.8507 257.541 503.0131 265.3545 508.8731 269.2612 515.3843 271.2146 527.1045 282.2836 534.9179 286.1903 Z" id="AZ.QO" fill="#cee3f5" stroke="#6e6e6e" stroke-width="0.4">
      <desc>
        <labelrank>9</labelrank>
        <code_hasc>AZ.QO</code_hasc>
        <name>Qobustan</name>
        <admin>Azerbaijan</admin>
        <type_en>District</type_en>
        <region>Daghlig Shirvan Economic Region</region>
        <woe_id>20070272</woe_id>
        <longitude>48</longitude>
        <woe_name>Qobustan</woe_name>
        <fips>AJ41</fips>
        <woe_label>Qobustan, AZ, Azerbaijan</woe_label>
        <latitude>40</latitude>
        <iso_a2>AZ</iso_a2>
        <postal>QO</postal>
        <type>Rayon</type>
        <id>AZ.QO</id>
      </desc>
    </path>
    <path d="M 519.9422 187.8713 523.1978 200.8937 529.0578 210.0093 545.3358 226.2873 540.1269 226.9384 529.709 229.5429 523.8489 229.5429 507.5709 222.3806 506.9198 216.5205 503.6642 213.916 501.0597 215.2183 499.7575 217.1716 498.4552 222.3806 486.7351 227.5896 482.8284 228.2407 479.5728 213.916 480.875 210.0093 484.7817 207.4049 489.3396 206.1026 490.6418 204.1493 491.944 201.5448 491.2929 195.6847 489.3396 190.4757 492.5951 184.6157 501.0597 183.9646 508.222 181.3601 517.9888 188.5224 519.9422 187.8713 Z" id="AZ.SY" fill="#cee3f5" stroke="#6e6e6e" stroke-width="0.4">
      <desc>
        <labelrank>9</labelrank>
        <code_hasc>AZ.SY</code_hasc>
        <name>Siyəzən</name>
        <admin>Azerbaijan</admin>
        <type_en>District</type_en>
        <region>Guba-Khachmaz Economic Region</region>
        <woe_id>20070278</woe_id>
        <longitude>49</longitude>
        <woe_name>Siyəzən</woe_name>
        <fips>AJ42</fips>
        <woe_label>Siyazan, AZ, Azerbaijan</woe_label>
        <latitude>41</latitude>
        <iso_a2>AZ</iso_a2>
        <postal>SY</postal>
        <type>Rayon</type>
        <id>AZ.SY</id>
      </desc>
    </path>
    <path d="M 459.3881 422.9254 454.8302 428.7854 441.8078 422.2743 435.2966 428.7854 430.0877 421.6231 430.7388 410.5541 424.8787 405.9963 417.7164 403.3918 414.4608 396.8806 418.3675 385.8116 417.7164 381.9049 415.1119 378.6493 417.7164 373.4403 419.6698 376.6959 422.2743 376.0448 432.6922 370.1847 436.5989 369.5336 442.459 372.7892 440.5056 377.347 443.7612 381.2537 445.7146 381.2537 448.9701 377.9981 452.2257 377.9981 467.8526 385.8116 471.7593 391.0205 471.1082 396.8806 473.7127 404.0429 473.7127 409.2519 471.1082 413.8097 465.2481 417.0653 459.3881 418.3675 456.1325 421.6231 459.3881 422.9254 Z" id="AZ.ST" fill="#cee3f5" stroke="#6e6e6e" stroke-width="0.4">
      <desc>
        <labelrank>9</labelrank>
        <code_hasc>AZ.ST</code_hasc>
        <name>Saatlı</name>
        <admin>Azerbaijan</admin>
        <type_en>District</type_en>
        <region>Aran Economic Region</region>
        <woe_id>20070243</woe_id>
        <longitude>48</longitude>
        <woe_name>Saatli</woe_name>
        <fips>AJ45</fips>
        <woe_label/>
        <latitude>39</latitude>
        <iso_a2>AZ</iso_a2>
        <postal>ST</postal>
        <type>Rayon</type>
        <id>AZ.ST</id>
      </desc>
    </path>
    <path d="M 492.5951 370.1847 492.5951 376.6959 493.8974 379.9515 497.153 381.9049 501.7108 389.0672 501.7108 394.2761 503.6642 398.1828 502.3619 402.0896 502.3619 403.3918 508.222 408.6007 508.8731 410.5541 505.6175 417.0653 496.5019 424.2276 496.5019 430.7388 490.6418 428.1343 482.1772 429.4366 464.597 423.5765 459.3881 422.9254 456.1325 421.6231 459.3881 418.3675 465.2481 417.0653 471.1082 413.8097 473.7127 409.2519 473.7127 404.0429 471.1082 396.8806 471.7593 391.0205 467.8526 385.8116 452.2257 377.9981 448.9701 377.9981 445.7146 381.2537 443.7612 381.2537 440.5056 377.347 442.459 372.7892 436.5989 369.5336 432.6922 370.1847 422.2743 376.0448 419.6698 376.6959 417.7164 373.4403 422.2743 368.8825 426.181 366.9291 425.5299 363.6735 430.7388 355.8601 441.8078 348.0466 452.8769 347.3955 463.9459 350 466.5504 351.3022 467.2015 359.7668 476.3172 362.3713 478.9216 365.6269 488.0373 366.9291 492.5951 370.1847 Z" id="AZ.SB" fill="#cee3f5" stroke="#6e6e6e" stroke-width="0.4">
      <desc>
        <labelrank>9</labelrank>
        <code_hasc>AZ.SB</code_hasc>
        <name>Sabirabad</name>
        <admin>Azerbaijan</admin>
        <type_en>District</type_en>
        <region>Aran Economic Region</region>
        <woe_id>20070281</woe_id>
        <longitude>48</longitude>
        <woe_name>Sabirabad</woe_name>
        <fips>AJ46</fips>
        <woe_label/>
        <latitude>39</latitude>
        <iso_a2>AZ</iso_a2>
        <postal>SB</postal>
        <type>Rayon</type>
        <id>AZ.SB</id>
      </desc>
    </path>
    <path d="M 551.847 393.625 550.5448 400.1362 551.847 411.8563 553.1493 416.4142 548.5914 423.5765 548.5914 426.181 545.3358 435.9478 545.3358 441.8078 533.6157 446.3657 528.4067 447.0168 525.8022 445.7146 516.6866 436.5989 514.0821 439.8545 512.7799 443.7612 507.5709 449.6213 504.9664 454.8302 506.2687 462.6437 505.6175 464.597 499.1063 468.5037 494.5485 467.8526 482.8284 460.0392 484.7817 451.5746 479.5728 445.7146 479.5728 437.25 482.1772 429.4366 490.6418 428.1343 496.5019 430.7388 496.5019 424.2276 505.6175 417.0653 508.8731 410.5541 508.222 408.6007 502.3619 403.3918 502.3619 402.0896 503.6642 398.1828 501.7108 394.2761 501.7108 389.0672 497.153 381.9049 498.4552 381.9049 499.7575 380.6026 508.222 379.3004 517.9888 384.5093 523.8489 385.1604 534.2668 386.4627 540.1269 384.5093 544.0336 388.416 547.9403 391.0205 551.847 393.625 Z" id="AZ.SL" fill="#cee3f5" stroke="#6e6e6e" stroke-width="0.4">
      <desc>
        <labelrank>9</labelrank>
        <code_hasc>AZ.SL</code_hasc>
        <name>Salyan</name>
        <admin>Azerbaijan</admin>
        <type_en>District</type_en>
        <region>Aran Economic Region</region>
        <woe_id>20070280</woe_id>
        <longitude>49</longitude>
        <woe_name>Salyan</woe_name>
        <fips>AJ49</fips>
        <woe_label/>
        <latitude>39</latitude>
        <iso_a2>AZ</iso_a2>
        <postal>SL</postal>
        <type>Rayon</type>
        <id>AZ.SL</id>
      </desc>
    </path>
    <path d="M 463.2948 228.8918 475.666 234.1007 474.3638 242.5653 479.5728 249.0765 470.4571 255.5877 469.1549 262.0989 469.806 269.2612 465.8993 275.1213 469.1549 278.3769 471.7593 293.3526 473.7127 297.2593 469.806 308.9795 464.597 312.8862 465.2481 315.4907 475.0149 314.1884 473.7127 320.0485 470.4571 324.6063 466.5504 326.5597 452.2257 319.3974 442.459 317.444 447.0168 310.9328 447.6679 303.1194 452.2257 299.2127 460.6903 294.6549 462.6437 292.7015 452.8769 286.8414 444.4123 286.8414 439.8545 284.8881 436.5989 280.9813 437.25 274.4701 443.7612 266.6567 443.7612 264.0522 446.3657 258.1922 437.9011 245.8209 441.8078 238.6586 440.5056 231.4963 433.9944 227.5896 428.7854 221.7295 437.9011 221.7295 463.2948 228.8918 Z" id="AZ.SI" fill="#cee3f5" stroke="#6e6e6e" stroke-width="0.4">
      <desc>
        <labelrank>9</labelrank>
        <code_hasc>AZ.SI</code_hasc>
        <name>Şamaxı</name>
        <admin>Azerbaijan</admin>
        <type_en>District</type_en>
        <region>Daghlig Shirvan Economic Region</region>
        <woe_id>20070270</woe_id>
        <longitude>48</longitude>
        <woe_name>Şamaxı</woe_name>
        <fips>AJ50</fips>
        <woe_label>Samaxi, AZ, Azerbaijan</woe_label>
        <latitude>40</latitude>
        <iso_a2>AZ</iso_a2>
        <postal>SI</postal>
        <type>Rayon</type>
        <id>AZ.SI</id>
      </desc>
    </path>
    <path d="M 560.3116 264.7034 560.9627 261.4478 566.1716 260.1455 571.3806 264.7034 580.4963 266.0056 587.6586 271.2146 585.7052 276.4235 579.8451 278.3769 573.9851 278.3769 564.8694 267.3078 560.3116 264.7034 Z" id="AZ.SQ" fill="#cee3f5" stroke="#6e6e6e" stroke-width="0.4">
      <desc>
        <labelrank>9</labelrank>
        <code_hasc>AZ.SQ</code_hasc>
        <name>Sumqayıt</name>
        <admin>Azerbaijan</admin>
        <type_en>Municipality</type_en>
        <region>Absheron Economic Region</region>
        <woe_id>20070247</woe_id>
        <longitude>49</longitude>
        <woe_name>Sumqayıt</woe_name>
        <fips>AJ54</fips>
        <woe_label>Sumqayit, AZ, Azerbaijan</woe_label>
        <latitude>40</latitude>
        <iso_a2>AZ</iso_a2>
        <postal>SQ</postal>
        <type>Sahar</type>
        <id>AZ.SQ</id>
      </desc>
    </path>
    <path d="M 335.6754 290.7481 340.2332 295.306 345.4422 293.3526 353.9067 298.5616 358.4646 295.306 361.069 295.306 373.4403 301.166 381.2537 301.166 384.5093 302.4683 383.2071 314.8396 377.9981 322.653 364.9757 324.6063 352.6045 324.6063 350 326.5597 346.7444 327.2108 342.8377 321.3507 328.5131 312.2351 326.5597 308.3284 323.3041 307.0261 321.3507 303.1194 323.3041 292.7015 326.5597 290.097 331.1175 289.4459 335.6754 290.7481 Z" id="AZ.UC" fill="#cee3f5" stroke="#6e6e6e" stroke-width="0.4">
      <desc>
        <labelrank>9</labelrank>
        <code_hasc>AZ.UC</code_hasc>
        <name>Ucar</name>
        <admin>Azerbaijan</admin>
        <type_en>District</type_en>
        <region>Aran Economic Region</region>
        <woe_id>20070249</woe_id>
        <longitude>47</longitude>
        <woe_name>Ucar</woe_name>
        <fips>AJ59</fips>
        <woe_label/>
        <latitude>40</latitude>
        <iso_a2>AZ</iso_a2>
        <postal>UC</postal>
        <type>Rayon</type>
        <id>AZ.UC</id>
      </desc>
    </path>
    <path d="M 545.3358 226.2873 546.6381 229.5429 549.2425 231.4963 554.4515 234.1007 557.056 233.4496 565.5205 240.6119 562.916 254.9366 566.1716 260.1455 560.9627 261.4478 560.3116 264.7034 558.3582 268.6101 555.1026 271.8657 553.8004 273.819 552.4981 275.7724 551.847 279.028 551.1959 281.6325 544.0336 285.5392 534.9179 286.1903 527.1045 282.2836 515.3843 271.2146 508.8731 269.2612 503.0131 265.3545 495.8507 257.541 486.084 250.3787 479.5728 249.0765 474.3638 242.5653 475.666 234.1007 482.8284 228.2407 486.7351 227.5896 498.4552 222.3806 499.7575 217.1716 501.0597 215.2183 503.6642 213.916 506.9198 216.5205 507.5709 222.3806 523.8489 229.5429 529.709 229.5429 540.1269 226.9384 545.3358 226.2873 Z" id="AZ.XI" fill="#cee3f5" stroke="#6e6e6e" stroke-width="0.4">
      <desc>
        <labelrank>9</labelrank>
        <code_hasc>AZ.XI</code_hasc>
        <name>Xizı</name>
        <admin>Azerbaijan</admin>
        <type_en>District</type_en>
        <region>Absheron Economic Region</region>
        <woe_id>20070271</woe_id>
        <longitude>49</longitude>
        <woe_name>Xizı</woe_name>
        <fips>AJ63</fips>
        <woe_label>Xizi, AZ, Azerbaijan</woe_label>
        <latitude>40</latitude>
        <iso_a2>AZ</iso_a2>
        <postal>XI</postal>
        <type>Rayon</type>
        <id>AZ.XI</id>
      </desc>
    </path>
    <path d="M 450.9235 527.1045 453.528 533.6157 460.0392 534.2668 433.3433 552.4981 429.4366 558.3582 427.4832 564.8694 424.8787 569.4272 421.6231 570.7295 419.6698 568.125 403.3918 560.9627 395.5784 554.4515 392.9739 550.5448 392.3228 544.0336 393.625 542.0802 399.4851 538.1735 400.1362 534.9179 422.2743 530.3601 427.4832 527.1045 429.4366 523.1978 437.25 522.5466 443.1101 520.5933 447.6679 523.1978 450.9235 527.1045 Z" id="AZ.YR" fill="#cee3f5" stroke="#6e6e6e" stroke-width="0.4">
      <desc>
        <labelrank>9</labelrank>
        <code_hasc>AZ.YR</code_hasc>
        <name>Yardımlı</name>
        <admin>Azerbaijan</admin>
        <type_en>District</type_en>
        <region>Lankaran Economic Region</region>
        <woe_id>20070251</woe_id>
        <longitude>48</longitude>
        <woe_name>Yardimli</woe_name>
        <fips>AJ66</fips>
        <woe_label/>
        <latitude>38</latitude>
        <iso_a2>AZ</iso_a2>
        <postal>YR</postal>
        <type>Rayon</type>
        <id>AZ.YR</id>
      </desc>
    </path>
    <path d="M 377.9981 322.653 378.6493 334.3731 379.9515 345.4422 375.3937 351.9534 369.5336 355.8601 366.9291 355.209 363.0224 357.1623 361.7201 354.5578 361.069 348.0466 357.8134 347.3955 355.209 346.7444 353.9067 340.8843 351.9534 340.8843 348.6978 345.4422 347.3955 344.791 343.4888 345.4422 340.8843 342.1866 338.2799 342.1866 332.4198 346.0933 324.6063 333.722 329.1642 329.1642 320.0485 327.8619 319.3974 326.5597 325.2575 320.6996 328.5131 312.2351 342.8377 321.3507 346.7444 327.2108 350 326.5597 352.6045 324.6063 364.9757 324.6063 377.9981 322.653 Z" id="AZ.ZR" fill="#cee3f5" stroke="#6e6e6e" stroke-width="0.4">
      <desc>
        <labelrank>9</labelrank>
        <code_hasc>AZ.ZR</code_hasc>
        <name>Zərdab</name>
        <admin>Azerbaijan</admin>
        <type_en>District</type_en>
        <region>Aran Economic Region</region>
        <woe_id>20070256</woe_id>
        <longitude>47</longitude>
        <woe_name>Zardab</woe_name>
        <fips>AJ71</fips>
        <woe_label/>
        <latitude>40</latitude>
        <iso_a2>AZ</iso_a2>
        <postal>ZR</postal>
        <type>Rayon</type>
        <id>AZ.ZR</id>
      </desc>
    </path>
    <path d="M 357.8134 347.3955 350.6511 364.9757 346.7444 385.8116 343.4888 389.0672 335.6754 392.3228 329.8153 392.3228 327.8619 394.9272 323.9552 396.8806 322.0019 400.1362 323.9552 404.694 320.6996 407.2985 324.6063 413.8097 306.375 419.0187 309.6306 412.5075 307.6772 406.6474 301.166 402.7407 297.9104 396.2295 299.8638 394.9272 302.4683 389.0672 299.8638 384.5093 289.4459 387.7649 279.6791 385.8116 276.4235 378.6493 279.6791 376.0448 279.6791 367.5802 284.2369 365.6269 287.4925 363.0224 283.5858 359.7668 284.2369 356.5112 289.4459 352.6045 294.6549 347.3955 294.0037 344.791 301.166 350 305.0728 348.6978 324.6063 333.722 332.4198 346.0933 338.2799 342.1866 340.8843 342.1866 343.4888 345.4422 347.3955 344.791 348.6978 345.4422 351.9534 340.8843 353.9067 340.8843 355.209 346.7444 357.8134 347.3955 Z" id="AZ.AC" fill="#cee3f5" stroke="#6e6e6e" stroke-width="0.4">
      <desc>
        <labelrank>9</labelrank>
        <code_hasc>AZ.AC</code_hasc>
        <name>Ağcabədi</name>
        <admin>Azerbaijan</admin>
        <type_en>District</type_en>
        <region>Aran Economic Region</region>
        <woe_id>20070214</woe_id>
        <longitude>47</longitude>
        <woe_name>Agcabadi</woe_name>
        <fips>AJ01</fips>
        <woe_label/>
        <latitude>39</latitude>
        <iso_a2>AZ</iso_a2>
        <postal>AC</postal>
        <type>Rayon</type>
        <id>AZ.AC</id>
      </desc>
    </path>
    <path d="M 227.5896 89.5522 228.2407 92.8078 226.9384 98.0168 223.0317 102.5746 211.3116 111.0392 208.056 120.1549 205.4515 124.0616 202.1959 126.0149 194.3825 128.6194 187.8713 133.1772 184.6157 133.8284 178.1045 131.2239 174.8489 124.7127 172.8955 124.7127 170.9422 127.9683 167.6866 125.3638 166.3843 118.2015 165.7332 110.3881 167.0354 105.1791 168.9888 102.5746 177.4534 103.8769 181.3601 102.5746 187.8713 94.7612 195.0336 81.0877 206.1026 82.3899 208.056 83.6922 208.056 92.8078 208.7071 95.4123 211.3116 97.3657 213.2649 97.3657 219.125 92.1567 227.5896 89.5522 Z" id="AZ.BL" fill="#cee3f5" stroke="#6e6e6e" stroke-width="0.4">
      <desc>
        <labelrank>9</labelrank>
        <code_hasc>AZ.BL</code_hasc>
        <name>Balakən</name>
        <admin>Azerbaijan</admin>
        <type_en>District</type_en>
        <region>Shaki-Zaqatala Economic Region</region>
        <woe_id>20070220</woe_id>
        <longitude>46</longitude>
        <woe_name>Balakən</woe_name>
        <fips>AJ10</fips>
        <woe_label>Balakan, AZ, Azerbaijan</woe_label>
        <latitude>41</latitude>
        <iso_a2>AZ</iso_a2>
        <postal>BL</postal>
        <type>Rayon</type>
        <id>AZ.BL</id>
      </desc>
    </path>
    <path d="M 359.1157 185.2668 360.4179 187.2201 364.3246 189.8246 372.7892 191.1269 376.0448 200.2425 385.8116 205.4515 382.556 210.6604 381.2537 215.8694 377.9981 215.2183 376.6959 219.125 377.9981 223.6828 380.6026 228.8918 380.6026 233.4496 377.347 236.7052 374.0914 237.3563 373.4403 244.5187 360.4179 254.2854 352.6045 267.3078 348.6978 269.2612 339.5821 270.5634 335.6754 273.1679 328.5131 267.959 327.2108 254.2854 331.7687 252.9832 332.4198 249.0765 332.4198 239.3097 334.3731 230.194 338.2799 223.0317 337.6287 215.8694 344.791 201.5448 346.0933 193.7313 345.4422 190.4757 345.4422 184.6157 351.3022 186.569 359.1157 185.2668 Z" id="AZ.QA" fill="#cee3f5" stroke="#6e6e6e" stroke-width="0.4">
      <desc>
        <labelrank>9</labelrank>
        <code_hasc>AZ.QA</code_hasc>
        <name>Qəbələ</name>
        <admin>Azerbaijan</admin>
        <type_en>District</type_en>
        <region>Shaki-Zaqatala Economic Region</region>
        <woe_id>20070235</woe_id>
        <longitude>47</longitude>
        <woe_name>Qəbələ</woe_name>
        <fips>AJ37</fips>
        <woe_label>Qabala, AZ, Azerbaijan</woe_label>
        <latitude>40</latitude>
        <iso_a2>AZ</iso_a2>
        <postal>QA</postal>
        <type>Rayon</type>
        <id>AZ.QA</id>
      </desc>
    </path>
    <path d="M 345.4422 184.6157 345.4422 190.4757 346.0933 193.7313 344.791 201.5448 337.6287 215.8694 338.2799 223.0317 334.3731 230.194 332.4198 239.3097 332.4198 249.0765 320.6996 243.2164 310.2817 235.403 306.375 230.194 305.0728 224.334 301.8172 224.9851 300.5149 223.6828 301.166 221.0784 295.9571 214.5672 297.2593 208.7071 304.4216 191.778 306.375 176.8022 322.0019 178.7556 327.8619 185.2668 330.4664 185.2668 336.9776 181.3601 345.4422 184.6157 Z" id="AZ.OG" fill="#cee3f5" stroke="#6e6e6e" stroke-width="0.4">
      <desc>
        <labelrank>9</labelrank>
        <code_hasc>AZ.OG</code_hasc>
        <name>Oğuz</name>
        <admin>Azerbaijan</admin>
        <type_en>District</type_en>
        <region>Shaki-Zaqatala Economic Region</region>
        <woe_id>20070250</woe_id>
        <longitude>47</longitude>
        <woe_name>Oğuz</woe_name>
        <fips>AJ37</fips>
        <woe_label>Oguz, AZ, Azerbaijan</woe_label>
        <latitude>41</latitude>
        <iso_a2>AZ</iso_a2>
        <postal>OG</postal>
        <type>Rayon</type>
        <id>AZ.OG</id>
      </desc>
    </path>
    <path d="M 283.5858 141.6418 282.2836 148.8041 279.6791 154.0131 269.9123 160.5243 250.3787 170.9422 245.8209 178.1045 243.8675 180.0578 241.2631 185.9179 240.6119 193.0802 241.9142 199.5914 247.1231 202.1959 255.5877 215.2183 256.2388 232.7985 246.472 227.5896 236.0541 224.9851 232.1474 208.056 227.5896 205.4515 222.3806 205.4515 218.4739 202.847 221.7295 187.2201 224.334 183.9646 224.9851 178.7556 227.5896 177.4534 219.7761 165.7332 220.4272 161.1754 225.6362 154.6642 232.7985 139.6884 238.6586 137.7351 246.472 137.7351 254.2854 140.3396 260.7966 138.3862 265.3545 131.875 275.1213 129.9216 277.0746 129.9216 279.028 132.5261 280.9813 139.6884 283.5858 141.6418 Z" id="AZ.QX" fill="#cee3f5" stroke="#6e6e6e" stroke-width="0.4">
      <desc>
        <labelrank>9</labelrank>
        <code_hasc>AZ.QX</code_hasc>
        <name>Qax</name>
        <admin>Azerbaijan</admin>
        <type_en>District</type_en>
        <region>Shaki-Zaqatala Economic Region</region>
        <woe_id>20070229</woe_id>
        <longitude>46</longitude>
        <woe_name>Qax</woe_name>
        <fips>AJ39</fips>
        <woe_label>Qax, AZ, Azerbaijan</woe_label>
        <latitude>41</latitude>
        <iso_a2>AZ</iso_a2>
        <postal>QX</postal>
        <type>Rayon</type>
        <id>AZ.QX</id>
      </desc>
    </path>
    <path d="M 306.375 176.8022 304.4216 191.778 297.2593 208.7071 295.9571 214.5672 301.166 221.0784 300.5149 223.6828 301.8172 224.9851 305.0728 224.334 306.375 230.194 310.2817 235.403 320.6996 243.2164 332.4198 249.0765 331.7687 252.9832 327.2108 254.2854 322.653 255.5877 314.1884 252.9832 308.9795 254.2854 295.9571 251.0299 277.7257 243.8675 256.2388 232.7985 255.5877 215.2183 247.1231 202.1959 241.9142 199.5914 240.6119 193.0802 241.2631 185.9179 243.8675 180.0578 245.8209 178.1045 250.3787 170.9422 269.9123 160.5243 279.6791 154.0131 282.2836 148.8041 283.5858 141.6418 290.7481 153.3619 291.3993 165.0821 292.7015 168.9888 306.375 176.8022 Z M 286.1903 193.7313 287.4925 193.0802 289.4459 189.1735 288.7948 185.9179 284.8881 180.709 283.5858 181.3601 280.9813 193.0802 286.1903 193.7313 Z" id="AZ.SK" fill="#cee3f5" stroke="#6e6e6e" stroke-width="0.4">
      <desc>
        <labelrank>9</labelrank>
        <code_hasc>AZ.SK</code_hasc>
        <name>Şəki</name>
        <admin>Azerbaijan</admin>
        <type_en>District</type_en>
        <region>Shaki-Zaqatala Economic Region</region>
        <woe_id>20070246</woe_id>
        <longitude>47</longitude>
        <woe_name>Şəki</woe_name>
        <fips>AJ39</fips>
        <woe_label>Saki, AZ, Azerbaijan</woe_label>
        <latitude>41</latitude>
        <iso_a2>AZ</iso_a2>
        <postal>SK</postal>
        <type>Rayon</type>
        <id>AZ.SK</id>
      </desc>
    </path>
    <path d="M 467.8526 157.9198 466.5504 164.431 467.2015 170.291 468.5037 172.2444 469.1549 174.8489 460.0392 183.9646 457.4347 191.778 467.2015 202.1959 465.8993 206.1026 460.6903 211.9627 462.6437 215.8694 463.2948 228.8918 437.9011 221.7295 428.7854 221.7295 421.6231 215.8694 412.5075 215.2183 392.9739 206.1026 385.8116 205.4515 376.0448 200.2425 372.7892 191.1269 425.5299 148.8041 447.0168 137.7351 460.0392 157.9198 465.2481 155.9664 467.8526 157.9198 Z" id="AZ.QB" fill="#cee3f5" stroke="#6e6e6e" stroke-width="0.4">
      <desc>
        <labelrank>9</labelrank>
        <code_hasc>AZ.QB</code_hasc>
        <name>Quba</name>
        <admin>Azerbaijan</admin>
        <type_en>District</type_en>
        <region>Guba-Khachmaz Economic Region</region>
        <woe_id>20070232</woe_id>
        <longitude>48</longitude>
        <woe_name>Quba</woe_name>
        <fips>AJ42</fips>
        <woe_label>Quba, AZ, Azerbaijan</woe_label>
        <latitude>41</latitude>
        <iso_a2>AZ</iso_a2>
        <postal>QB</postal>
        <type>Rayon</type>
        <id>AZ.QB</id>
      </desc>
    </path>
    <path d="M 447.0168 137.7351 425.5299 148.8041 372.7892 191.1269 364.3246 189.8246 360.4179 187.2201 359.1157 185.2668 366.278 183.3134 368.8825 181.3601 368.2313 171.5933 372.1381 167.0354 374.7425 159.8731 377.9981 160.5243 380.6026 159.222 385.8116 143.5951 389.7183 140.9907 403.3918 137.7351 422.2743 123.4104 427.4832 115.597 432.6922 101.2724 435.2966 100.6213 438.5522 103.8769 436.5989 112.3414 438.5522 119.5037 445.0634 120.806 445.0634 123.4104 443.1101 126.666 447.0168 137.7351 Z" id="AZ.QR" fill="#cee3f5" stroke="#6e6e6e" stroke-width="0.4">
      <desc>
        <labelrank>9</labelrank>
        <code_hasc>AZ.QR</code_hasc>
        <name>Qusar</name>
        <admin>Azerbaijan</admin>
        <type_en>District</type_en>
        <region>Guba-Khachmaz Economic Region</region>
        <woe_id>20070234</woe_id>
        <longitude>48</longitude>
        <woe_name>Qusar</woe_name>
        <fips>AJ44</fips>
        <woe_label>Qusar, AZ, Azerbaijan</woe_label>
        <latitude>41</latitude>
        <iso_a2>AZ</iso_a2>
        <postal>QR</postal>
        <type>Rayon</type>
        <id>AZ.QR</id>
      </desc>
    </path>
    <path d="M 506.9198 154.6642 500.4086 155.3153 488.6884 154.0131 482.8284 156.6175 475.0149 155.3153 467.8526 157.9198 465.2481 155.9664 460.0392 157.9198 447.0168 137.7351 443.1101 126.666 445.0634 123.4104 445.0634 120.806 438.5522 119.5037 436.5989 112.3414 438.5522 103.8769 435.2966 100.6213 432.6922 101.2724 445.0634 81.0877 450.2724 84.3433 454.1791 87.5989 469.806 105.1791 471.1082 107.7836 472.4104 111.6903 480.2239 120.1549 485.4328 129.9216 489.9907 132.5261 496.5019 142.2929 500.4086 143.5951 506.9198 154.6642 Z" id="AZ.XZ" fill="#cee3f5" stroke="#6e6e6e" stroke-width="0.4">
      <desc>
        <labelrank>9</labelrank>
        <code_hasc>AZ.XZ</code_hasc>
        <name>Xaçmaz</name>
        <admin>Azerbaijan</admin>
        <type_en>District</type_en>
        <region>Guba-Khachmaz Economic Region</region>
        <woe_id>20070221</woe_id>
        <longitude>48</longitude>
        <woe_name>Xaçmaz</woe_name>
        <fips>AJ60</fips>
        <woe_label>Xacmaz, AZ, Azerbaijan</woe_label>
        <latitude>41</latitude>
        <iso_a2>AZ</iso_a2>
        <postal>XZ</postal>
        <type>Rayon</type>
        <id>AZ.XZ</id>
      </desc>
    </path>
    <path d="M 265.3545 131.875 260.7966 138.3862 254.2854 140.3396 246.472 137.7351 238.6586 137.7351 232.7985 139.6884 225.6362 154.6642 220.4272 161.1754 219.7761 165.7332 217.1716 165.7332 215.2183 161.8265 197.6381 154.0131 191.778 148.8041 188.5224 147.5019 182.0112 143.5951 180.0578 140.9907 178.1045 131.2239 184.6157 133.8284 187.8713 133.1772 194.3825 128.6194 202.1959 126.0149 205.4515 124.0616 208.056 120.1549 211.3116 111.0392 223.0317 102.5746 226.9384 98.0168 228.2407 92.8078 227.5896 89.5522 230.8451 86.9478 234.7519 98.6679 242.5653 105.1791 250.3787 107.7836 251.681 112.9925 259.4944 119.5037 262.75 124.7127 263.4011 129.2705 265.3545 131.875 Z" id="AZ.ZQ" fill="#cee3f5" stroke="#6e6e6e" stroke-width="0.4">
      <desc>
        <labelrank>9</labelrank>
        <code_hasc>AZ.ZQ</code_hasc>
        <name>Zaqatala</name>
        <admin>Azerbaijan</admin>
        <type_en>District</type_en>
        <region>Shaki-Zaqatala Economic Region</region>
        <woe_id>20070254</woe_id>
        <longitude>46</longitude>
        <woe_name>Zaqatala</woe_name>
        <fips>AJ70</fips>
        <woe_label>Zaqatala, AZ, Azerbaijan</woe_label>
        <latitude>41</latitude>
        <iso_a2>AZ</iso_a2>
        <postal>ZQ</postal>
        <type>Rayon</type>
        <id>AZ.ZQ</id>
      </desc>
    </path>
    <path d="M 297.9104 396.2295 301.166 402.7407 307.6772 406.6474 309.6306 412.5075 306.375 419.0187 290.097 422.9254 282.9347 428.7854 274.4701 430.0877 272.5168 433.9944 277.0746 434.6455 280.9813 433.9944 278.3769 437.25 273.819 438.5522 271.8657 441.1567 272.5168 443.7612 275.1213 443.1101 280.9813 439.8545 282.2836 443.1101 279.6791 446.3657 281.6325 452.8769 277.0746 454.1791 276.4235 457.4347 273.819 461.9925 275.1213 468.5037 271.2146 469.1549 269.2612 471.1082 266.0056 471.7593 264.0522 468.5037 256.8899 463.9459 255.5877 460.0392 249.0765 456.1325 246.472 458.0858 248.4254 463.2948 247.1231 468.5037 237.3563 465.8993 240.6119 459.3881 239.3097 456.7836 237.3563 455.4813 232.1474 456.7836 226.2873 456.1325 229.5429 453.528 231.4963 450.2724 230.8451 446.3657 228.8918 443.7612 232.1474 440.5056 237.3563 439.2034 243.8675 428.7854 249.7276 433.3433 257.541 426.181 256.2388 420.3209 248.4254 411.2052 251.0299 406.6474 260.1455 402.7407 263.4011 394.2761 268.6101 392.9739 280.3302 399.4851 287.4925 400.7873 290.7481 395.5784 294.0037 395.5784 297.9104 396.2295 Z" id="AZ.XD" fill="#cee3f5" stroke="#6e6e6e" stroke-width="0.4">
      <desc>
        <labelrank>9</labelrank>
        <code_hasc>AZ.XD</code_hasc>
        <name>Xocavənd</name>
        <admin>Azerbaijan</admin>
        <type_en>District</type_en>
        <region>Yukhari Garabakh Economic Region</region>
        <woe_id>20070259</woe_id>
        <longitude>46</longitude>
        <woe_name>Xocavənd</woe_name>
        <fips>AJ14</fips>
        <woe_label>Xocavand, AZ, Azerbaijan</woe_label>
        <latitude>39</latitude>
        <iso_a2>AZ</iso_a2>
        <postal>XD</postal>
        <type>Rayon</type>
        <id>AZ.XD</id>
      </desc>
    </path>
    <path d="M 213.2649 413.1586 215.2183 422.9254 211.9627 431.3899 212.6138 435.2966 219.7761 439.2034 224.9851 438.5522 228.2407 432.6922 231.4963 431.3899 234.7519 431.3899 237.3563 439.2034 232.1474 440.5056 228.8918 443.7612 230.8451 446.3657 231.4963 450.2724 229.5429 453.528 226.2873 456.1325 217.1716 463.2948 211.3116 462.6437 206.7537 459.3881 209.3582 457.4347 208.056 452.2257 212.6138 447.6679 210.6604 443.1101 206.7537 441.1567 196.3358 441.8078 189.8246 435.2966 185.9179 435.2966 177.4534 439.8545 173.5466 440.5056 170.9422 439.8545 164.431 430.7388 157.9198 428.1343 154.0131 425.5299 149.4552 415.7631 146.1996 412.5075 134.4795 408.6007 145.5485 399.4851 150.1063 390.3694 155.9664 396.2295 160.5243 395.5784 173.5466 392.9739 202.1959 382.556 200.2425 387.1138 201.5448 391.0205 206.7537 394.9272 211.3116 403.3918 213.2649 413.1586 Z" id="AZ.SU" fill="#cee3f5" stroke="#6e6e6e" stroke-width="0.4">
      <desc>
        <labelrank>9</labelrank>
        <code_hasc>AZ.SU</code_hasc>
        <name>Lankaran</name>
        <admin>Azerbaijan</admin>
        <type_en>District</type_en>
        <region>Kalbajar-Lachin Economic Region</region>
        <woe_id>20070262</woe_id>
        <longitude>46</longitude>
        <woe_name>Lankaran</woe_name>
        <fips>AJ29</fips>
        <woe_label/>
        <latitude>39</latitude>
        <iso_a2>AZ</iso_a2>
        <postal>SU</postal>
        <type>Rayon</type>
        <id>AZ.SU</id>
      </desc>
    </path>
    <path d="M 237.3563 465.8993 234.7519 469.1549 234.1007 473.7127 238.0075 480.875 238.6586 486.084 240.6119 489.9907 249.0765 495.1996 239.3097 501.0597 232.1474 510.8265 226.9384 508.222 225.6362 497.153 221.7295 496.5019 211.9627 488.0373 209.3582 480.875 194.3825 473.0616 192.4291 467.8526 194.3825 463.9459 197.6381 461.3414 206.7537 459.3881 211.3116 462.6437 217.1716 463.2948 226.2873 456.1325 232.1474 456.7836 237.3563 455.4813 239.3097 456.7836 240.6119 459.3881 237.3563 465.8993 Z" id="AZ.QD" fill="#cee3f5" stroke="#6e6e6e" stroke-width="0.4">
      <desc>
        <labelrank>9</labelrank>
        <code_hasc>AZ.QD</code_hasc>
        <name>Qubadli</name>
        <admin>Azerbaijan</admin>
        <type_en>District</type_en>
        <region>Kalbajar-Lachin Economic Region</region>
        <woe_id>20070233</woe_id>
        <longitude>46</longitude>
        <woe_name>Qubadli</woe_name>
        <fips>AJ43</fips>
        <woe_label/>
        <latitude>39</latitude>
        <iso_a2>AZ</iso_a2>
        <postal>QD</postal>
        <type>Rayon</type>
        <id>AZ.QD</id>
      </desc>
    </path>
    <path d="M 237.3563 410.5541 236.7052 412.5075 238.0075 415.1119 239.9608 415.1119 241.9142 413.1586 243.2164 418.3675 243.8675 428.7854 237.3563 439.2034 234.7519 431.3899 231.4963 431.3899 228.2407 432.6922 224.9851 438.5522 219.7761 439.2034 212.6138 435.2966 211.9627 431.3899 215.2183 422.9254 213.2649 413.1586 228.8918 409.2519 237.3563 410.5541 Z" id="AZ.2051" fill="#cee3f5" stroke="#6e6e6e" stroke-width="0.4">
      <desc>
        <labelrank>9</labelrank>
        <code_hasc>AZ.SU</code_hasc>
        <name>Şuşa</name>
        <admin>Azerbaijan</admin>
        <type_en>District</type_en>
        <region>Yukhari Garabakh Economic Region</region>
        <woe_id>20070264</woe_id>
        <longitude>46</longitude>
        <woe_name>Şuşa</woe_name>
        <fips>AJ55</fips>
        <woe_label>Susa, AZ, Azerbaijan</woe_label>
        <latitude>39</latitude>
        <iso_a2>AZ</iso_a2>
        <postal>SU</postal>
        <type>Rayon</type>
        <id>AZ.2051</id>
      </desc>
    </path>
    <path d="M 262.75 309.6306 264.7034 316.7929 269.9123 323.9552 272.5168 325.9086 275.7724 327.2108 275.7724 336.9776 277.7257 348.0466 274.4701 348.6978 271.2146 348.0466 269.9123 344.1399 267.3078 341.5354 264.7034 342.1866 258.8433 340.2332 258.1922 342.1866 258.8433 344.791 245.1698 351.3022 244.5187 357.1623 241.2631 360.4179 239.3097 364.3246 239.3097 370.1847 236.0541 366.9291 232.7985 360.4179 223.6828 352.6045 216.5205 351.9534 211.3116 355.209 207.4049 340.2332 207.4049 334.3731 210.0093 332.4198 211.3116 327.2108 215.2183 321.3507 227.5896 314.8396 233.4496 312.2351 241.9142 312.2351 251.681 305.7239 256.8899 299.8638 258.8433 305.0728 262.75 309.6306 Z" id="AZ.TA" fill="#cee3f5" stroke="#6e6e6e" stroke-width="0.4">
      <desc>
        <labelrank>9</labelrank>
        <code_hasc>AZ.TA</code_hasc>
        <name>Tərtər</name>
        <admin>Azerbaijan</admin>
        <type_en>District</type_en>
        <region>Yukhari Garabakh Economic Region</region>
        <woe_id>20070274</woe_id>
        <longitude>46</longitude>
        <woe_name>Tərtər</woe_name>
        <fips>AJ57</fips>
        <woe_label>Tartar, AZ, Azerbaijan</woe_label>
        <latitude>40</latitude>
        <iso_a2>AZ</iso_a2>
        <postal>TA</postal>
        <type>Rayon</type>
        <id>AZ.TA</id>
      </desc>
    </path>
    <path d="M 251.0299 406.6474 248.4254 411.2052 256.2388 420.3209 257.541 426.181 249.7276 433.3433 243.8675 428.7854 243.2164 418.3675 241.9142 413.1586 237.3563 410.5541 228.8918 409.2519 213.2649 413.1586 211.3116 403.3918 206.7537 394.9272 201.5448 391.0205 200.2425 387.1138 202.1959 382.556 209.3582 377.9981 215.8694 381.9049 219.7761 379.9515 222.3806 376.0448 226.9384 373.4403 231.4963 372.7892 236.0541 375.3937 240.6119 374.0914 246.472 376.6959 249.7276 383.8582 254.2854 387.7649 258.8433 389.7183 258.1922 394.2761 251.0299 406.6474 Z M 239.9608 406.6474 241.9142 404.694 245.1698 399.4851 243.8675 397.5317 241.9142 396.2295 237.3563 401.4384 237.3563 405.3451 239.9608 406.6474 Z" id="AZ.XC" fill="#cee3f5" stroke="#6e6e6e" stroke-width="0.4">
      <desc>
        <labelrank>9</labelrank>
        <code_hasc>AZ.XC</code_hasc>
        <name>Xocalı</name>
        <admin>Azerbaijan</admin>
        <type_en>District</type_en>
        <region>Yukhari Garabakh Economic Region</region>
        <woe_id>20070277</woe_id>
        <longitude>46</longitude>
        <woe_name>Xocalı</woe_name>
        <fips>AJ61</fips>
        <woe_label>Xocali, AZ, Azerbaijan</woe_label>
        <latitude>39</latitude>
        <iso_a2>AZ</iso_a2>
        <postal>XC</postal>
        <type>Rayon</type>
        <id>AZ.XC</id>
      </desc>
    </path>
    <path d="M 254.2854 504.9664 251.0299 508.222 247.1231 514.7332 243.2164 517.3377 239.9608 524.5 228.8918 532.3134 221.0784 545.9869 217.1716 548.5914 212.6138 549.8937 207.4049 539.4757 210.0093 527.7556 209.3582 518.6399 207.4049 513.431 197.6381 506.2687 196.9869 501.0597 200.2425 498.4552 204.1493 499.1063 211.9627 503.0131 213.2649 502.3619 218.4739 498.4552 222.3806 497.8041 221.7295 496.5019 225.6362 497.153 226.9384 508.222 232.1474 510.8265 239.3097 501.0597 249.0765 495.1996 252.9832 500.4086 254.2854 504.9664 Z" id="AZ.ZG" fill="#cee3f5" stroke="#6e6e6e" stroke-width="0.4">
      <desc>
        <labelrank>9</labelrank>
        <code_hasc>AZ.ZG</code_hasc>
        <name>Zəngilan</name>
        <admin>Azerbaijan</admin>
        <type_en>District</type_en>
        <region>Kalbajar-Lachin Economic Region</region>
        <woe_id>20070255</woe_id>
        <longitude>46</longitude>
        <woe_name>Zangilan</woe_name>
        <fips>AJ69</fips>
        <woe_label/>
        <latitude>39</latitude>
        <iso_a2>AZ</iso_a2>
        <postal>ZG</postal>
        <type>Rayon</type>
        <id>AZ.ZG</id>
      </desc>
    </path>
    <path d="M 6.8601 434.6455 3.6045 431.3899 1 423.5765 4.2556 422.2743 19.2313 420.3209 22.4869 418.3675 19.8825 422.2743 15.3246 424.2276 10.1157 428.7854 6.8601 434.6455 Z" id="AZ.SD" fill="#cee3f5" stroke="#6e6e6e" stroke-width="0.4">
      <desc>
        <labelrank>9</labelrank>
        <code_hasc>AZ.SD</code_hasc>
        <name>Sədərək</name>
        <admin>Azerbaijan</admin>
        <type_en>District</type_en>
        <region>Naxçıvan Autonomous Republic</region>
        <woe_id>-2345767</woe_id>
        <longitude>44</longitude>
        <woe_name/>
        <fips>AM02</fips>
        <woe_label/>
        <latitude>39</latitude>
        <iso_a2>AZ</iso_a2>
        <postal>SD</postal>
        <type>Rayon</type>
        <id>AZ.SD</id>
      </desc>
    </path>
    <path d="M 121.4571 542.0802 124.0616 538.1735 115.597 531.6623 116.8993 523.1978 122.1082 516.6866 127.3172 504.3153 129.9216 495.8507 137.084 486.7351 144.2463 489.9907 147.5019 493.2463 147.5019 495.8507 144.2463 501.0597 142.944 504.9664 144.2463 508.8731 152.7108 522.5466 159.222 540.1269 166.3843 553.1493 157.9198 551.847 150.1063 548.5914 121.4571 542.0802 Z" id="AZ.OR" fill="#cee3f5" stroke="#6e6e6e" stroke-width="0.4">
      <desc>
        <labelrank>9</labelrank>
        <code_hasc>AZ.OR</code_hasc>
        <name>Ordubad</name>
        <admin>Azerbaijan</admin>
        <type_en>District</type_en>
        <region>Naxçıvan Autonomous Republic</region>
        <woe_id>24550719</woe_id>
        <longitude>45</longitude>
        <woe_name>Ordubad</woe_name>
        <fips>AM08</fips>
        <woe_label>Ordubad, AZ, Azerbaijan</woe_label>
        <latitude>39</latitude>
        <iso_a2>AZ</iso_a2>
        <postal>OR</postal>
        <type>Rayon</type>
        <id>AZ.OR</id>
      </desc>
    </path>
    <path d="M 48.5317 445.0634 43.9739 462.6437 39.416 469.1549 34.2071 473.0616 28.9981 467.8526 26.3937 467.8526 23.1381 465.2481 23.7892 462.6437 21.1847 460.0392 19.2313 456.7836 14.6735 438.5522 12.069 436.5989 12.7201 435.9478 6.8601 434.6455 10.1157 428.7854 15.3246 424.2276 19.8825 422.2743 22.4869 418.3675 27.6959 414.4608 32.2537 413.1586 36.1604 415.1119 46.5784 428.7854 46.5784 435.2966 45.2761 441.1567 45.9272 443.1101 48.5317 445.0634 Z" id="AZ.SR" fill="#cee3f5" stroke="#6e6e6e" stroke-width="0.4">
      <desc>
        <labelrank>9</labelrank>
        <code_hasc>AZ.SR</code_hasc>
        <name>Şərur</name>
        <admin>Azerbaijan</admin>
        <type_en>District</type_en>
        <region>Naxçıvan Autonomous Republic</region>
        <woe_id>24550720</woe_id>
        <longitude>45</longitude>
        <woe_name>Sarur</woe_name>
        <fips>AM10</fips>
        <woe_label/>
        <latitude>39</latitude>
        <iso_a2>AZ</iso_a2>
        <postal>SR</postal>
        <type>Rayon</type>
        <id>AZ.SR</id>
      </desc>
    </path>
    <path d="M 79.1343 456.1325 71.3209 465.2481 75.8787 467.8526 78.4832 474.3638 88.9011 479.5728 91.5056 482.8284 91.5056 486.084 92.8078 488.0373 94.7612 488.0373 96.0634 492.5951 92.8078 494.5485 70.6698 495.1996 66.1119 498.4552 74.5765 504.9664 84.9944 503.6642 92.1567 507.5709 91.5056 512.7799 89.5522 517.9888 95.4123 527.7556 92.8078 531.6623 93.459 537.5224 84.3433 534.2668 79.7854 530.3601 81.0877 524.5 76.5299 521.2444 73.9254 515.3843 70.0187 511.4776 71.3209 508.8731 70.6698 507.5709 66.1119 505.6175 66.1119 501.7108 62.2052 503.0131 49.834 498.4552 46.5784 499.7575 44.625 489.3396 42.0205 484.7817 47.2295 486.7351 56.3451 482.8284 56.9963 478.9216 55.0429 475.666 56.3451 472.4104 53.0896 459.3881 56.3451 445.7146 60.2519 440.5056 66.1119 449.6213 73.2743 450.9235 79.1343 456.1325 Z" id="AZ.BB" fill="#cee3f5" stroke="#6e6e6e" stroke-width="0.4">
      <desc>
        <labelrank>9</labelrank>
        <code_hasc>AZ.BB</code_hasc>
        <name>Babək</name>
        <admin>Azerbaijan</admin>
        <type_en>District</type_en>
        <region>Naxçıvan Autonomous Republic</region>
        <woe_id>24550722</woe_id>
        <longitude>45</longitude>
        <woe_name>Babek</woe_name>
        <fips>AJ35</fips>
        <woe_label/>
        <latitude>39</latitude>
        <iso_a2>AZ</iso_a2>
        <postal>BB</postal>
        <type>Rayon</type>
        <id>AZ.BB</id>
      </desc>
    </path>
    <path d="M 137.084 486.7351 129.9216 495.8507 127.3172 504.3153 122.1082 516.6866 116.8993 523.1978 115.597 531.6623 124.0616 538.1735 121.4571 542.0802 115.597 539.4757 104.528 539.4757 93.459 537.5224 92.8078 531.6623 95.4123 527.7556 89.5522 517.9888 91.5056 512.7799 92.1567 507.5709 84.9944 503.6642 90.2034 500.4086 92.8078 494.5485 96.0634 492.5951 94.7612 488.0373 108.4347 480.875 111.6903 483.4795 114.2948 484.1306 120.806 476.9683 127.9683 478.9216 137.084 486.7351 Z" id="AZ.CF" fill="#cee3f5" stroke="#6e6e6e" stroke-width="0.4">
      <desc>
        <labelrank>9</labelrank>
        <code_hasc>AZ.CF</code_hasc>
        <name>Culfa</name>
        <admin>Azerbaijan</admin>
        <type_en>District</type_en>
        <region>Naxçıvan Autonomous Republic</region>
        <woe_id>24550721</woe_id>
        <longitude>45</longitude>
        <woe_name>Culfa</woe_name>
        <fips>AJ35</fips>
        <woe_label>Culfa, AZ, Azerbaijan</woe_label>
        <latitude>39</latitude>
        <iso_a2>AZ</iso_a2>
        <postal>CF</postal>
        <type>Rayon</type>
        <id>AZ.CF</id>
      </desc>
    </path>
    <path d="M 84.9944 503.6642 74.5765 504.9664 66.1119 498.4552 70.6698 495.1996 92.8078 494.5485 90.2034 500.4086 84.9944 503.6642 Z" id="AZ.NX" fill="#cee3f5" stroke="#6e6e6e" stroke-width="0.4">
      <desc>
        <labelrank>9</labelrank>
        <code_hasc>AZ.NX</code_hasc>
        <name>Naxçıvan</name>
        <admin>Azerbaijan</admin>
        <type_en>Municipality</type_en>
        <region>Naxçıvan Autonomous Republic</region>
        <woe_id>20070275</woe_id>
        <longitude>45</longitude>
        <woe_name>Naxcivan</woe_name>
        <fips>AJ35</fips>
        <woe_label/>
        <latitude>39</latitude>
        <iso_a2>AZ</iso_a2>
        <postal>NX</postal>
        <type>Sahar</type>
        <id>AZ.NX</id>
      </desc>
    </path>
    <path d="M 120.806 476.9683 114.2948 484.1306 111.6903 483.4795 108.4347 480.875 94.7612 488.0373 92.8078 488.0373 91.5056 486.084 91.5056 482.8284 88.9011 479.5728 78.4832 474.3638 75.8787 467.8526 71.3209 465.2481 79.1343 456.1325 83.6922 456.7836 98.6679 447.6679 114.2948 443.7612 120.1549 445.0634 124.0616 448.9701 124.0616 455.4813 125.3638 462.6437 120.806 471.7593 120.1549 475.0149 120.806 476.9683 Z" id="AZ.SH" fill="#cee3f5" stroke="#6e6e6e" stroke-width="0.4">
      <desc>
        <labelrank>9</labelrank>
        <code_hasc>AZ.SH</code_hasc>
        <name>Şahbuz</name>
        <admin>Azerbaijan</admin>
        <type_en>District</type_en>
        <region>Naxçıvan Autonomous Republic</region>
        <woe_id>24550718</woe_id>
        <longitude>45</longitude>
        <woe_name/>
        <fips>AJ35</fips>
        <woe_label/>
        <latitude>39</latitude>
        <iso_a2>AZ</iso_a2>
        <postal>SH</postal>
        <type>Rayon</type>
        <id>AZ.SH</id>
      </desc>
    </path>
    <path d="M 239.9608 406.6474 237.3563 405.3451 237.3563 401.4384 241.9142 396.2295 243.8675 397.5317 245.1698 399.4851 241.9142 404.694 239.9608 406.6474 Z" id="AZ.6369" fill="#cee3f5" stroke="#6e6e6e" stroke-width="0.4">
      <desc>
        <labelrank>9</labelrank>
        <code_hasc>AZ.XC</code_hasc>
        <name>Stepanakert</name>
        <admin>Azerbaijan</admin>
        <type_en>District</type_en>
        <region>Yukhari Garabakh Economic Region</region>
        <woe_id>20070276</woe_id>
        <longitude>46</longitude>
        <woe_name>Xankandi</woe_name>
        <fips>AJ61</fips>
        <woe_label>Xankandi, AZ, Azerbaijan</woe_label>
        <latitude>39</latitude>
        <iso_a2>AZ</iso_a2>
        <postal>XA</postal>
        <type>Rayon</type>
        <id>AZ.6369</id>
      </desc>
    </path>
    <path d="M 244.5187 297.9104 243.8675 295.9571 245.1698 294.0037 247.1231 295.9571 244.5187 297.9104 Z" id="AZ.NA" fill="#cee3f5" stroke="#6e6e6e" stroke-width="0.4">
      <desc>
        <labelrank>7</labelrank>
        <code_hasc>AZ.NA</code_hasc>
        <name>Naftalan</name>
        <admin>Azerbaijan</admin>
        <type_en>Municipality</type_en>
        <region>Ganja-Gazakh Economic Region</region>
        <woe_id>20070261</woe_id>
        <longitude>46</longitude>
        <woe_name>Goranboy</woe_name>
        <fips>AJ21</fips>
        <woe_label/>
        <latitude>40</latitude>
        <iso_a2>AZ</iso_a2>
        <postal>GR</postal>
        <type>Sahari</type>
        <id>AZ.NA</id>
      </desc>
    </path>
    <path d="M 499.7575 562.2649 497.8041 564.8694 495.8507 565.5205 495.1996 562.916 494.5485 557.7071 497.153 556.4049 499.1063 560.9627 499.7575 562.2649 Z" id="AZ.LA" fill="#cee3f5" stroke="#6e6e6e" stroke-width="0.4">
      <desc>
        <labelrank>9</labelrank>
        <code_hasc>AZ.LA</code_hasc>
        <name>Lankaran</name>
        <admin>Azerbaijan</admin>
        <type_en>Municipality</type_en>
        <region>Lankaran Economic Region</region>
        <woe_id>20070263</woe_id>
        <longitude>48</longitude>
        <woe_name>Astara</woe_name>
        <fips>AJ29</fips>
        <woe_label>Lankaran, AZ, Azerbaijan</woe_label>
        <latitude>38</latitude>
        <iso_a2>AZ</iso_a2>
        <postal>NE</postal>
        <type>Sahari</type>
        <id>AZ.LA</id>
      </desc>
    </path>
    <path d="M 499.7575 380.6026 498.4552 381.9049 497.153 381.9049 493.8974 379.9515 492.5951 376.6959 492.5951 370.1847 493.8974 369.5336 502.3619 370.1847 503.0131 376.0448 499.7575 380.6026 Z" id="AZ.AB" fill="#cee3f5" stroke="#6e6e6e" stroke-width="0.4">
      <desc>
        <labelrank>9</labelrank>
        <code_hasc>AZ.AB</code_hasc>
        <name>Shirvan</name>
        <admin>Azerbaijan</admin>
        <type_en>Municipality</type_en>
        <region>Aran Economic Region</region>
        <woe_id>20070281</woe_id>
        <longitude>48</longitude>
        <woe_name>Sabirabad</woe_name>
        <fips>AJ46</fips>
        <woe_label/>
        <latitude>39</latitude>
        <iso_a2>AZ</iso_a2>
        <postal>SB</postal>
        <type>Sahari</type>
        <id>AZ.AB</id>
      </desc>
    </path>
    <path d="M 286.1903 193.7313 280.9813 193.0802 283.5858 181.3601 284.8881 180.709 288.7948 185.9179 289.4459 189.1735 287.4925 193.0802 286.1903 193.7313 Z" id="AZ.SA" fill="#cee3f5" stroke="#6e6e6e" stroke-width="0.4">
      <desc>
        <labelrank>9</labelrank>
        <code_hasc>AZ.SA</code_hasc>
        <name>Şəki</name>
        <admin>Azerbaijan</admin>
        <type_en>Municipality</type_en>
        <region>Shaki-Zaqatala Economic Region</region>
        <woe_id>20070246</woe_id>
        <longitude>47</longitude>
        <woe_name>Şəki</woe_name>
        <fips>AJ39</fips>
        <woe_label>Saki, AZ, Azerbaijan</woe_label>
        <latitude>41</latitude>
        <iso_a2>AZ</iso_a2>
        <postal>SK</postal>
        <type>Sahari</type>
        <id>AZ.SA</id>
      </desc>
    </path>
    <path d="M 241.9142 413.1586 239.9608 415.1119 238.0075 415.1119 236.7052 412.5075 237.3563 410.5541 241.9142 413.1586 Z" id="AZ.SS" fill="#cee3f5" stroke="#6e6e6e" stroke-width="0.4">
      <desc>
        <labelrank>9</labelrank>
        <code_hasc>AZ.SS</code_hasc>
        <name>Şuşa</name>
        <admin>Azerbaijan</admin>
        <type_en>Municipality</type_en>
        <region>Yukhari Garabakh Economic Region</region>
        <woe_id>20070264</woe_id>
        <longitude>46</longitude>
        <woe_name>Şuşa</woe_name>
        <fips>AJ55</fips>
        <woe_label>Susa, AZ, Azerbaijan</woe_label>
        <latitude>39</latitude>
        <iso_a2>AZ</iso_a2>
        <postal>SU</postal>
        <type>Sahari</type>
        <id>AZ.SS</id>
      </desc>
    </path>
    <path d="M 286.1903 285.5392 282.2836 284.8881 278.3769 282.9347 276.4235 277.7257 278.3769 274.4701 288.7948 275.1213 286.8414 280.9813 287.4925 283.5858 286.1903 285.5392 Z" id="AZ.YE" fill="#cee3f5" stroke="#6e6e6e" stroke-width="0.4">
      <desc>
        <labelrank>7</labelrank>
        <code_hasc>AZ.YE</code_hasc>
        <name>Yevlakh</name>
        <admin>Azerbaijan</admin>
        <type_en>Municipality</type_en>
        <region>Aran Economic Region</region>
        <woe_id>20070253</woe_id>
        <longitude>47</longitude>
        <woe_name>Yevlax</woe_name>
        <fips>AJ67</fips>
        <woe_label/>
        <latitude>40</latitude>
        <iso_a2>AZ</iso_a2>
        <postal>YV</postal>
        <type>Sahari</type>
        <id>AZ.YE</id>
      </desc>
    </path>
    <path d="M 60.2519 440.5056 56.3451 445.7146 53.0896 459.3881 56.3451 472.4104 55.0429 475.666 56.9963 478.9216 56.3451 482.8284 47.2295 486.7351 42.0205 484.7817 40.0672 480.2239 34.2071 473.0616 39.416 469.1549 43.9739 462.6437 48.5317 445.0634 53.0896 443.7612 56.3451 440.5056 59.6007 439.8545 60.2519 440.5056 Z" id="AZ.KG" fill="#cee3f5" stroke="#6e6e6e" stroke-width="0.4">
      <desc>
        <labelrank>9</labelrank>
        <code_hasc>AZ.KG</code_hasc>
        <name>Kangarli</name>
        <admin>Azerbaijan</admin>
        <type_en>District</type_en>
        <region>Naxçıvan Autonomous Republic</region>
        <woe_id>24550720</woe_id>
        <longitude>45</longitude>
        <woe_name>Sarur</woe_name>
        <fips>AM10</fips>
        <woe_label/>
        <latitude>39</latitude>
        <iso_a2>AZ</iso_a2>
        <postal>SR</postal>
        <type>Rayon</type>
        <id>AZ.KG</id>
      </desc>
    </path>
  </g>
</svg>