<?xml version="1.0" encoding="UTF-8"?>
<svg xmlns="http://www.w3.org/2000/svg" width="700" height="700">
  <g id="swaziland">
    <path d="M 465.9223 85.8155 463.1928 89.8629 447.0683 94.6007 442.1572 94.1917 435.9213 91.7812 434.718 95.618 439.8065 168.8294 438.8008 179.7181 435.993 184.0982 422.8868 189.8451 414.6575 191.4437 398.7065 191.8222 393.0167 193.1217 387.8623 197.92 385.8128 203.1192 383.5958 206.259 371.9003 213.3779 370.9322 215.4275 369.1807 224.7468 367.4736 227.1486 364.6434 228.8764 341.4916 237.489 332.3028 242.5945 328.6533 243.0289 314.6727 241.3026 312.9441 241.7826 310.0933 246.5603 307.8237 248.3072 291.9575 253.9413 285.504 257.7142 282.9543 261.5964 284.2219 273.1246 283.7605 275.6734 276.6405 284.8856 277.8722 293.6426 276.118 305.8529 277.312 316.4201 276.3502 318.4947 274.3296 320.0339 271.1066 321.0855 266.7126 320.9393 261.869 319.5854 253.4344 313.6086 246.6482 307.6558 235.6929 307.4443 229.9104 309.8179 225.8035 309.6481 205.4882 305.57 203.0586 304.4835 201.1744 302.633 192.3604 288.6069 132.9563 252.1443 128.0353 250.1538 156.4441 213.096 182.8633 164.3499 203.6569 112.4049 209.4255 88.9548 214.4909 79.6271 289.5526 10.9424 300.7632 5.1653 314.614 1.3278 326.4345 1 336.6797 4.2666 465.9223 85.8155 Z" id="SZ.HH" fill="#cee3f5" stroke="#6e6e6e" stroke-width="0.4">
      <desc>
        <labelrank>8</labelrank>
        <code_hasc>SZ.HH</code_hasc>
        <name>Hhohho</name>
        <admin>Swaziland</admin>
        <type_en>District</type_en>
        <region/>
        <woe_id>20069889</woe_id>
        <longitude>31</longitude>
        <woe_name>Hhohho</woe_name>
        <fips>WZ01</fips>
        <woe_label>Hhohho, SZ, Swaziland</woe_label>
        <latitude>-26</latitude>
        <iso_a2>SZ</iso_a2>
        <postal>HH</postal>
        <type>District</type>
        <id>SZ.HH</id>
      </desc>
    </path>
    <path d="M 549.4445 630.863 536.1107 629.9386 534.8738 629.0562 535.3065 622.273 534.2526 621.2515 524.1021 620.379 518.2278 618.8513 517.0203 614.4876 517.3813 606.8116 516.8155 605.4425 502.8629 599.5011 492.1824 597.3572 490.0124 595.5456 482.5854 578.1185 480.159 575.3707 476.372 574.0335 473.0504 574.1578 461.5143 577.3425 457.7036 577.7477 450.1606 576.2219 428.5315 563.8297 418.7259 556.4691 411.6847 548.8047 404.5875 543.6614 399.275 542.1637 392.7169 544.8498 390.4286 543.9827 387.6302 541.6099 380.1799 532.9235 371.7505 518.0649 370.6047 514.9633 373.1738 508.1755 378.1314 500.0313 380.6516 494.1608 387.7203 485.3061 389.5918 481.8487 390.4763 478.334 389.5152 469.7783 390.1573 466.61 394.4952 457.5817 389.5837 454.2018 366.5673 455.3405 366.8319 446.4498 369.3005 436.0672 378.289 412.9876 379.6833 410.7725 382.8585 407.7124 405.971 396.5491 408.7834 393.9757 410.3679 390.1562 409.2661 374.1581 406.8937 360.6705 405.2166 356.1539 401.7524 350.2829 401.3541 347.8136 403.313 346.0741 410.3454 342.8362 412.8568 340.7017 413.0648 337.0807 411.352 327.388 411.7478 323.971 413.7416 319.6206 414.1241 309.2181 411.7145 298.0672 412.5052 296.7989 420.0639 291.9309 421.3421 289.9247 421.95 283.0702 424.6374 279.675 432.2004 272.8851 439.7171 263.3944 442.1873 256.7045 443.6026 249.7277 444.4189 238.6117 447.5859 227.0827 445.109 221.0844 445.5769 218.3314 444.438 209.869 435.993 184.0982 438.8008 179.7181 439.8065 168.8294 434.718 95.618 435.9213 91.7812 442.1572 94.1917 447.0683 94.6007 463.1928 89.8629 465.9223 85.8155 501.2265 108.2199 512.7845 111.5989 524.1851 108.7989 547.0656 97.2061 557.5758 107.0152 569.1298 113.1087 595.8313 119.7358 590.6764 133.6952 592.9008 149.6168 597.7527 165.9778 600.6104 181.2998 599.2477 193.1254 586.2824 228.2553 584.4374 241.1844 589.7476 286.8532 592.8286 299.2425 611.9372 336.9829 616.308 373.2721 615.702 487.5046 609.2722 484.6643 599.4218 474.9336 593.0428 473.7439 566.3697 473.8115 567.3381 487.0868 548.3849 603.5404 549.4445 630.863 Z" id="SZ.LU" fill="#cee3f5" stroke="#6e6e6e" stroke-width="0.4">
      <desc>
        <labelrank>8</labelrank>
        <code_hasc>SZ.LU</code_hasc>
        <name>Lubombo</name>
        <admin>Swaziland</admin>
        <type_en>District</type_en>
        <region/>
        <woe_id>20069891</woe_id>
        <longitude>31</longitude>
        <woe_name>Lubombo</woe_name>
        <fips>WZ02</fips>
        <woe_label>Lubombo, SZ, Swaziland</woe_label>
        <latitude>-26</latitude>
        <iso_a2>SZ</iso_a2>
        <postal>LU</postal>
        <type>District</type>
        <id>SZ.LU</id>
      </desc>
    </path>
    <path d="M 366.5673 455.3405 350.5376 452.7161 342.3337 454.4661 336.032 458.6676 327.7476 466.9496 324.0657 468.4166 305.4466 470.5128 302.7487 471.7165 301.3468 472.9721 301.0624 474.7855 298.8326 478.7094 295.0897 481.6456 292.6757 485.5722 292.1051 493.5978 290.8156 493.9817 288.2183 493.3752 269.9505 480.0626 265.7243 477.6928 261.1501 476.9319 253.7733 480.0597 250.4546 480.8628 245.9538 480.927 240.736 482.5827 219.6132 494.2322 202.0525 508.4718 200.3939 508.8408 199.6986 507.7058 199.851 505.5727 202.0675 497.2909 201.7332 495.5776 194.8698 486.2428 194.6585 484.5277 195.8751 479.3998 195.2883 469.2591 193.2446 464.7081 189.7987 461.2784 186.1247 460.4186 182.4853 460.475 168.6552 463.7848 159.5741 464.3416 155.0393 462.4208 150.599 458.7347 147.8654 457.5875 145.6736 459.4102 132.3839 462.9963 126.8373 469.1784 124.7164 463.2607 120.2461 468.9722 114.2274 474.2521 107.5485 478.1234 100.9514 479.5195 94.0518 480.0509 91.1793 469.743 86.6817 439.3899 83.692 331.0093 91.7634 297.6455 128.0353 250.1538 132.9563 252.1443 192.3604 288.6069 201.1744 302.633 203.0586 304.4835 205.4882 305.57 225.8035 309.6481 229.9104 309.8179 235.6929 307.4443 246.6482 307.6558 253.4344 313.6086 261.869 319.5854 266.7126 320.9393 271.1066 321.0855 274.3296 320.0339 276.3502 318.4947 277.312 316.4201 276.118 305.8529 277.8722 293.6426 276.6405 284.8856 283.7605 275.6734 284.2219 273.1246 282.9543 261.5964 285.504 257.7142 291.9575 253.9413 307.8237 248.3072 310.0933 246.5603 312.9441 241.7826 314.6727 241.3026 328.6533 243.0289 332.3028 242.5945 341.4916 237.489 364.6434 228.8764 367.4736 227.1486 369.1807 224.7468 370.9322 215.4275 371.9003 213.3779 383.5958 206.259 385.8128 203.1192 387.8623 197.92 393.0167 193.1217 398.7065 191.8222 414.6575 191.4437 422.8868 189.8451 435.993 184.0982 444.438 209.869 445.5769 218.3314 445.109 221.0844 447.5859 227.0827 444.4189 238.6117 443.6026 249.7277 442.1873 256.7045 439.7171 263.3944 432.2004 272.8851 424.6374 279.675 421.95 283.0702 421.3421 289.9247 420.0639 291.9309 412.5052 296.7989 411.7145 298.0672 414.1241 309.2181 413.7416 319.6206 411.7478 323.971 411.352 327.388 413.0648 337.0807 412.8568 340.7017 410.3454 342.8362 403.313 346.0741 401.3541 347.8136 401.7524 350.2829 405.2166 356.1539 406.8937 360.6705 409.2661 374.1581 410.3679 390.1562 408.7834 393.9757 405.971 396.5491 382.8585 407.7124 379.6833 410.7725 378.289 412.9876 369.3005 436.0672 366.8319 446.4498 366.5673 455.3405 Z" id="SZ.MA" fill="#cee3f5" stroke="#6e6e6e" stroke-width="0.4">
      <desc>
        <labelrank>7</labelrank>
        <code_hasc>SZ.MA</code_hasc>
        <name>Manzini</name>
        <admin>Swaziland</admin>
        <type_en>District</type_en>
        <region/>
        <woe_id>20069892</woe_id>
        <longitude>31</longitude>
        <woe_name>Manzini</woe_name>
        <fips>WZ03</fips>
        <woe_label>Manzini, SZ, Swaziland</woe_label>
        <latitude>-26</latitude>
        <iso_a2>SZ</iso_a2>
        <postal>MA</postal>
        <type>District</type>
        <id>SZ.MA</id>
      </desc>
    </path>
    <path d="M 366.5673 455.3405 389.5837 454.2018 394.4952 457.5817 390.1573 466.61 389.5152 469.7783 390.4763 478.334 389.5918 481.8487 387.7203 485.3061 380.6516 494.1608 378.1314 500.0313 373.1738 508.1755 370.6047 514.9633 371.7505 518.0649 380.1799 532.9235 387.6302 541.6099 390.4286 543.9827 392.7169 544.8498 399.275 542.1637 404.5875 543.6614 411.6847 548.8047 418.7259 556.4691 428.5315 563.8297 450.1606 576.2219 457.7036 577.7477 461.5143 577.3425 473.0504 574.1578 476.372 574.0335 480.159 575.3707 482.5854 578.1185 490.0124 595.5456 492.1824 597.3572 502.8629 599.5011 516.8155 605.4425 517.3813 606.8116 517.0203 614.4876 518.2278 618.8513 524.1021 620.379 534.2526 621.2515 535.3065 622.273 534.8738 629.0562 536.1107 629.9386 549.4445 630.863 551.0513 672.1362 553.3163 678.6218 558.1021 688.1098 559.2895 693.1388 559.5426 699 384.6452 698.3726 358.022 693.2877 237.6649 653.6322 231.6247 649.689 225.4086 643.6412 206.0431 615.3857 164.7207 579.1441 155.568 563.894 153.7059 552.88 157.5297 535.4039 157.8444 524.3547 155.3612 515.5961 151.0237 509.1132 139.4451 497.2499 134.0523 489.319 126.8373 469.1784 132.3839 462.9963 145.6736 459.4102 147.8654 457.5875 150.599 458.7347 155.0393 462.4208 159.5741 464.3416 168.6552 463.7848 182.4853 460.475 186.1247 460.4186 189.7987 461.2784 193.2446 464.7081 195.2883 469.2591 195.8751 479.3998 194.6585 484.5277 194.8698 486.2428 201.7332 495.5776 202.0675 497.2909 199.851 505.5727 199.6986 507.7058 200.3939 508.8408 202.0525 508.4718 219.6132 494.2322 240.736 482.5827 245.9538 480.927 250.4546 480.8628 253.7733 480.0597 261.1501 476.9319 265.7243 477.6928 269.9505 480.0626 288.2183 493.3752 290.8156 493.9817 292.1051 493.5978 292.6757 485.5722 295.0897 481.6456 298.8326 478.7094 301.0624 474.7855 301.3468 472.9721 302.7487 471.7165 305.4466 470.5128 324.0657 468.4166 327.7476 466.9496 336.032 458.6676 342.3337 454.4661 350.5376 452.7161 366.5673 455.3405 Z" id="SZ.SH" fill="#cee3f5" stroke="#6e6e6e" stroke-width="0.4">
      <desc>
        <labelrank>8</labelrank>
        <code_hasc>SZ.SH</code_hasc>
        <name>Shiselweni</name>
        <admin>Swaziland</admin>
        <type_en>District</type_en>
        <region/>
        <woe_id>20069890</woe_id>
        <longitude>31</longitude>
        <woe_name>Shiselweni</woe_name>
        <fips>WZ04</fips>
        <woe_label>Shiselweni, SZ, Swaziland</woe_label>
        <latitude>-27</latitude>
        <iso_a2>SZ</iso_a2>
        <postal>SH</postal>
        <type>District</type>
        <id>SZ.SH</id>
      </desc>
    </path>
  </g>
</svg>