<?xml version="1.0" encoding="UTF-8"?>
<svg xmlns="http://www.w3.org/2000/svg" width="700" height="700">
  <g id="iran">
    <path d="M 239.5505 415.1215 241.6069 423.3474 251.5465 432.0874 251.3752 440.8274 247.4336 442.3698 233.2097 436.3717 234.0665 452.138 224.1269 457.7933 216.2438 457.4505 212.4736 458.3074 212.4736 458.4788 210.5885 456.765 206.3042 455.2227 205.7901 448.3678 203.7336 442.027 205.276 434.658 195.5077 426.2607 188.9956 425.918 188.8242 411.0086 200.9917 400.7262 212.9877 405.0106 226.5261 417.5207 239.5505 415.1215 Z" id="IR.KB" fill="#cee3f5" stroke="#6e6e6e" stroke-width="0.4">
      <desc>
        <labelrank>4</labelrank>
        <code_hasc>IR.KB</code_hasc>
        <name>Kohgiluyeh and Buyer Ahmad</name>
        <admin>Iran</admin>
        <type_en>Province</type_en>
        <region/>
        <woe_id>2345771</woe_id>
        <longitude>50</longitude>
        <woe_name>Kohgiluyeh and Buyer Ahmad</woe_name>
        <fips>IR05</fips>
        <woe_label>Kohgiluyeh va Buyer Ahmad, IR, Iran</woe_label>
        <latitude>30</latitude>
        <iso_a2>IR</iso_a2>
        <postal>KB</postal>
        <type>Ostan</type>
        <id>IR.KB</id>
      </desc>
    </path>
    <path d="M 301.0732 577.4112 299.5308 578.2681 299.0167 578.4395 291.8191 578.0967 289.934 579.9818 286.1638 576.8971 289.5912 574.4979 281.5367 566.6148 273.4822 564.5583 264.5708 558.0462 252.0606 558.0462 241.2642 553.5905 229.4395 527.7132 228.754 518.9732 219.3285 510.4046 220.014 507.834 222.9273 509.8905 224.1269 505.2634 220.8709 501.6646 213.3305 501.3219 214.016 488.2976 195.3364 467.0474 194.8222 459.1643 192.9371 455.9082 192.423 455.3941 192.0803 455.3941 194.4795 454.1945 198.4211 453.6803 200.4775 454.7086 206.3042 455.2227 210.5885 456.765 211.9595 457.7933 212.4736 458.4788 212.4736 460.7066 213.5018 463.7913 217.4434 470.3035 233.0383 473.5595 240.0646 485.2129 242.4638 487.7835 245.3771 488.9831 248.6332 492.0678 265.2563 523.7717 266.1132 527.7132 271.5971 543.3081 272.6253 544.8505 275.5387 546.3928 278.452 549.6489 283.5932 561.1309 288.563 567.3003 293.5328 571.9273 301.0732 577.4112 Z" id="IR.BS" fill="#cee3f5" stroke="#6e6e6e" stroke-width="0.4">
      <desc>
        <labelrank>6</labelrank>
        <code_hasc>IR.BS</code_hasc>
        <name>Bushehr</name>
        <admin>Iran</admin>
        <type_en>Province</type_en>
        <region/>
        <woe_id>2345781</woe_id>
        <longitude>51</longitude>
        <woe_name>Bushehr</woe_name>
        <fips>IR22</fips>
        <woe_label>Bushehr, IR, Iran</woe_label>
        <latitude>28</latitude>
        <iso_a2>IR</iso_a2>
        <postal>BS</postal>
        <type>Ostan</type>
        <id>IR.BS</id>
      </desc>
    </path>
    <path d="M 385.5598 278.0236 385.9025 310.0702 382.9892 315.3828 372.8782 321.7235 366.8802 337.1471 325.0653 353.2561 310.8414 350.6855 297.303 358.0545 297.9885 372.6212 295.0751 387.5306 296.9602 396.7847 281.5367 400.5549 273.4822 398.6698 270.2261 391.9863 258.4014 399.3553 252.232 398.8411 260.1151 408.6094 255.3167 431.4019 251.5465 432.0874 241.6069 423.3474 239.5505 415.1215 235.9516 394.3855 239.0363 390.6153 237.1512 386.5023 239.3791 377.4196 226.8689 365.0808 223.6128 352.2278 206.3042 355.8267 196.7073 352.2278 190.1952 352.9133 182.9975 356.5122 183.3403 350.1714 174.7717 347.6008 173.0579 343.3165 179.2274 338.3467 182.1407 330.9777 188.4815 329.0926 193.6226 314.1832 202.534 308.5279 226.1834 301.3302 231.1532 288.9914 229.4395 286.5922 232.3528 275.6244 258.2301 270.6546 265.0849 274.4247 280.6798 274.7675 297.6457 279.9087 382.4751 276.1385 385.5598 278.0236 Z" id="IR.ES" fill="#cee3f5" stroke="#6e6e6e" stroke-width="0.4">
      <desc>
        <labelrank>6</labelrank>
        <code_hasc>IR.ES</code_hasc>
        <name>Esfahan</name>
        <admin>Iran</admin>
        <type_en>Province</type_en>
        <region/>
        <woe_id>2345787</woe_id>
        <longitude>52</longitude>
        <woe_name>Esfahan</woe_name>
        <fips>IR28</fips>
        <woe_label>Esfahan, IR, Iran</woe_label>
        <latitude>32</latitude>
        <iso_a2>IR</iso_a2>
        <postal>ES</postal>
        <type>Ostan</type>
        <id>IR.ES</id>
      </desc>
    </path>
    <path d="M 296.9602 396.7847 306.2143 400.3835 316.4967 411.18 325.4081 432.7729 339.2892 453.6803 341.8598 465.6764 355.3982 473.5595 361.739 487.9548 374.2492 490.5254 382.3037 509.205 384.5315 515.7172 384.5315 516.9168 383.3319 517.7736 383.6747 519.8301 395.328 530.6266 396.3562 533.1972 396.0135 537.9956 394.2998 545.0219 394.1284 546.9069 399.441 553.7618 399.2696 556.1611 398.5841 557.1893 397.7272 557.8748 396.699 558.3889 391.0437 559.2458 385.9025 562.1591 383.3319 568.3285 381.1041 570.5563 376.3057 572.0987 366.1947 570.8991 362.5959 571.756 360.7108 572.6128 356.5978 571.5846 342.5453 574.1552 339.9747 583.752 338.9465 585.4658 335.0049 587.5222 318.8959 586.1512 313.5834 582.7238 305.0147 582.0383 302.1014 579.4677 301.0732 577.4112 293.5328 571.9273 288.563 567.3003 283.5932 561.1309 278.452 549.6489 275.5387 546.3928 272.6253 544.8505 271.5971 543.3081 266.1132 527.7132 265.2563 523.7717 248.6332 492.0678 245.3771 488.9831 242.4638 487.7835 240.0646 485.2129 233.0383 473.5595 217.4434 470.3035 213.5018 463.7913 212.4736 460.7066 212.4736 458.4788 212.4736 458.3074 216.2438 457.4505 224.1269 457.7933 234.0665 452.138 233.2097 436.3717 247.4336 442.3698 251.3752 440.8274 251.5465 432.0874 255.3167 431.4019 260.1151 408.6094 252.232 398.8411 258.4014 399.3553 270.2261 391.9863 273.4822 398.6698 281.5367 400.5549 296.9602 396.7847 Z" id="IR.FA" fill="#cee3f5" stroke="#6e6e6e" stroke-width="0.4">
      <desc>
        <labelrank>4</labelrank>
        <code_hasc>IR.FA</code_hasc>
        <name>Fars</name>
        <admin>Iran</admin>
        <type_en>Province</type_en>
        <region/>
        <woe_id>2345772</woe_id>
        <longitude>53</longitude>
        <woe_name>Fars</woe_name>
        <fips>IR07</fips>
        <woe_label>Fars, IR, Iran</woe_label>
        <latitude>29</latitude>
        <iso_a2>IR</iso_a2>
        <postal>FA</postal>
        <type>Ostan</type>
        <id>IR.FA</id>
      </desc>
    </path>
    <path d="M 407.8382 116.7621 408.3523 129.9578 413.3221 135.6131 402.1829 142.6393 398.9268 148.2946 391.3864 159.4338 387.1021 173.6577 370.1363 173.4864 351.4567 186.5107 339.632 187.0248 325.0653 172.9723 331.4061 173.8291 336.3759 171.6013 331.9202 150.3511 342.0312 151.0366 357.2833 145.724 361.739 141.9538 363.7955 131.8429 382.6465 117.7903 392.2433 115.5625 407.8382 116.7621 Z" id="IR.GO" fill="#cee3f5" stroke="#6e6e6e" stroke-width="0.4">
      <desc>
        <labelrank>4</labelrank>
        <code_hasc>IR.GO</code_hasc>
        <name>Golestan</name>
        <admin>Iran</admin>
        <type_en>Province</type_en>
        <region/>
        <woe_id>20070201</woe_id>
        <longitude>55</longitude>
        <woe_name>Golestan</woe_name>
        <fips>IR37</fips>
        <woe_label>Golestan, IR, Iran</woe_label>
        <latitude>37</latitude>
        <iso_a2>IR</iso_a2>
        <postal>GO</postal>
        <type>Ostan</type>
        <id>IR.GO</id>
      </desc>
    </path>
    <path d="M 325.0653 172.9723 339.632 187.0248 330.7206 192.5087 328.3214 200.906 319.9241 210.5028 302.1014 215.4726 279.9944 209.3032 272.2826 217.1863 266.97 218.0432 257.5446 207.5895 243.6634 202.9624 224.6411 193.8797 207.6752 178.4562 217.4434 165.0891 234.752 176.2283 263.0285 183.0832 335.3477 166.9742 333.4626 169.3734 321.8092 170.4017 325.0653 172.9723 Z" id="IR.MN" fill="#cee3f5" stroke="#6e6e6e" stroke-width="0.4">
      <desc>
        <labelrank>4</labelrank>
        <code_hasc>IR.MN</code_hasc>
        <name>Mazandaran</name>
        <admin>Iran</admin>
        <type_en>Province</type_en>
        <region/>
        <woe_id>2345780</woe_id>
        <longitude>52</longitude>
        <woe_name>Mazandaran</woe_name>
        <fips>IR17</fips>
        <woe_label>Mazandaran, IR, Iran</woe_label>
        <latitude>36</latitude>
        <iso_a2>IR</iso_a2>
        <postal>MN</postal>
        <type>Ostan</type>
        <id>IR.MN</id>
      </desc>
    </path>
    <path d="M 427.7174 177.7707 430.9735 178.2848 431.8303 181.5409 429.6025 193.0228 431.8303 206.2185 443.9978 217.5291 443.4837 220.4424 436.6288 234.8377 424.29 241.3499 414.5217 252.8318 402.5257 274.5961 385.5598 278.0236 382.4751 276.1385 297.6457 279.9087 280.6798 274.7675 265.0849 274.4247 258.2301 270.6546 261.6575 256.2593 265.0849 245.6342 259.601 237.4083 261.4861 226.6118 273.6536 233.2954 289.5912 236.7228 302.6155 228.3256 302.1014 215.4726 319.9241 210.5028 328.3214 200.906 330.7206 192.5087 339.632 187.0248 351.4567 186.5107 370.1363 173.4864 387.1021 173.6577 391.3864 159.4338 398.9268 148.2946 404.2394 154.9781 409.8947 156.8632 406.6386 159.2625 406.4672 168.1738 411.437 174.0005 417.4351 177.7707 427.7174 177.7707 Z" id="IR.SM" fill="#cee3f5" stroke="#6e6e6e" stroke-width="0.4">
      <desc>
        <labelrank>6</labelrank>
        <code_hasc>IR.SM</code_hasc>
        <name>Semnan</name>
        <admin>Iran</admin>
        <type_en>Province</type_en>
        <region/>
        <woe_id>2345784</woe_id>
        <longitude>54</longitude>
        <woe_name>Semnan</woe_name>
        <fips>IR25</fips>
        <woe_label>Semnan, IR, Iran</woe_label>
        <latitude>35</latitude>
        <iso_a2>IR</iso_a2>
        <postal>SM</postal>
        <type>Ostan</type>
        <id>IR.SM</id>
      </desc>
    </path>
    <path d="M 302.1014 215.4726 302.6155 228.3256 289.5912 236.7228 273.6536 233.2954 261.4861 226.6118 259.601 237.4083 265.0849 245.6342 261.6575 256.2593 241.6069 244.2632 223.0987 241.1785 226.3548 231.4103 223.9556 224.5554 230.125 216.3295 233.2097 216.1581 235.9516 208.9605 243.492 207.2467 243.6634 202.9624 257.5446 207.5895 266.97 218.0432 272.2826 217.1863 279.9944 209.3032 302.1014 215.4726 Z" id="IR.TH" fill="#cee3f5" stroke="#6e6e6e" stroke-width="0.4">
      <desc>
        <labelrank>7</labelrank>
        <code_hasc>IR.TH</code_hasc>
        <name>Tehran</name>
        <admin>Iran</admin>
        <type_en>Province</type_en>
        <region/>
        <woe_id>2345785</woe_id>
        <longitude>51</longitude>
        <woe_name>Tehran</woe_name>
        <fips>IR26</fips>
        <woe_label>Tehran, IR, Iran</woe_label>
        <latitude>35</latitude>
        <iso_a2>IR</iso_a2>
        <postal>TH</postal>
        <type>Ostan</type>
        <id>IR.TH</id>
      </desc>
    </path>
    <path d="M 488.0405 342.2882 486.6695 350.1714 491.6393 361.482 478.9578 390.6153 434.2296 374.849 421.8907 385.3027 402.697 396.0992 400.6406 416.1498 394.4712 419.0631 359.1684 423.6902 353.6845 435.8576 361.3963 451.9666 362.2531 471.1603 355.3982 473.5595 341.8598 465.6764 339.2892 453.6803 325.4081 432.7729 316.4967 411.18 306.2143 400.3835 296.9602 396.7847 295.0751 387.5306 297.9885 372.6212 297.303 358.0545 310.8414 350.6855 325.0653 353.2561 366.8802 337.1471 372.8782 321.7235 382.9892 315.3828 385.9025 310.0702 385.5598 278.0236 402.5257 274.5961 414.5217 252.8318 451.1954 238.6079 465.9335 246.8338 466.9617 252.1463 447.9394 270.8259 443.9978 284.3644 446.7397 303.9008 448.6248 306.4714 455.6511 307.1569 464.7339 304.5863 474.1593 332.3486 488.0405 342.2882 Z" id="IR.YA" fill="#cee3f5" stroke="#6e6e6e" stroke-width="0.4">
      <desc>
        <labelrank>6</labelrank>
        <code_hasc>IR.YA</code_hasc>
        <name>Yazd</name>
        <admin>Iran</admin>
        <type_en>Province</type_en>
        <region/>
        <woe_id>2345790</woe_id>
        <longitude>55</longitude>
        <woe_name>Yazd</woe_name>
        <fips>IR40</fips>
        <woe_label>Yazd, IR, Iran</woe_label>
        <latitude>32</latitude>
        <iso_a2>IR</iso_a2>
        <postal>YA</postal>
        <type>Ostan</type>
        <id>IR.YA</id>
      </desc>
    </path>
    <path d="M 239.5505 415.1215 226.5261 417.5207 212.9877 405.0106 200.9917 400.7262 204.5905 393.7 194.4795 375.8772 189.8524 372.107 182.9975 356.5122 190.1952 352.9133 196.7073 352.2278 206.3042 355.8267 223.6128 352.2278 226.8689 365.0808 239.3791 377.4196 237.1512 386.5023 239.0363 390.6153 235.9516 394.3855 239.5505 415.1215 Z" id="IR.CM" fill="#cee3f5" stroke="#6e6e6e" stroke-width="0.4">
      <desc>
        <labelrank>4</labelrank>
        <code_hasc>IR.CM</code_hasc>
        <name>Chahar Mahall and Bakhtiari</name>
        <admin>Iran</admin>
        <type_en>Province</type_en>
        <region/>
        <woe_id>2345769</woe_id>
        <longitude>50</longitude>
        <woe_name>Chahar Mahall and Bakhtiari</woe_name>
        <fips>IR03</fips>
        <woe_label>Chahar Mahall va Bakhtiari, IR, Iran</woe_label>
        <latitude>31</latitude>
        <iso_a2>IR</iso_a2>
        <postal>CM</postal>
        <type>Ostan</type>
        <id>IR.CM</id>
      </desc>
    </path>
    <path d="M 173.0579 343.3165 174.7717 347.6008 183.3403 350.1714 182.9975 356.5122 189.8524 372.107 194.4795 375.8772 204.5905 393.7 200.9917 400.7262 188.8242 411.0086 188.9956 425.918 195.5077 426.2607 205.276 434.658 203.7336 442.027 205.7901 448.3678 206.3042 455.2227 200.4775 454.7086 198.4211 453.6803 194.4795 454.1945 192.0803 455.3941 188.4815 454.8799 172.5438 462.7631 170.8301 456.9364 162.0901 456.765 161.2332 452.138 159.0054 453.8517 150.2654 446.8254 155.578 445.7972 160.7191 448.5392 163.1183 444.2548 161.2332 441.6843 152.6646 440.9988 151.2936 442.5411 154.7211 444.769 150.7795 445.1117 148.0376 448.1964 150.6082 454.0231 149.5799 461.2207 139.4689 460.3639 138.9548 464.3054 133.1282 463.4486 130.5576 452.9948 126.9588 448.5392 123.3599 448.1964 121.3035 443.0552 116.6764 442.027 117.5333 419.4058 105.0231 418.7204 106.0513 400.8976 112.5635 384.96 103.8235 370.9074 110.1643 366.109 109.8215 361.3106 116.3337 350 126.1019 333.0341 141.354 332.0059 157.1203 336.9757 165.3462 343.1451 173.0579 343.3165 Z" id="IR.KZ" fill="#cee3f5" stroke="#6e6e6e" stroke-width="0.4">
      <desc>
        <labelrank>4</labelrank>
        <code_hasc>IR.KZ</code_hasc>
        <name>Khuzestan</name>
        <admin>Iran</admin>
        <type_en>Province</type_en>
        <region/>
        <woe_id>2345778</woe_id>
        <longitude>48</longitude>
        <woe_name>Khuzestan</woe_name>
        <fips>IR15</fips>
        <woe_label>Khuzestan, IR, Iran</woe_label>
        <latitude>31</latitude>
        <iso_a2>IR</iso_a2>
        <postal>KZ</postal>
        <type>Ostan</type>
        <id>IR.KZ</id>
      </desc>
    </path>
    <path d="M 112.5635 274.7675 130.3862 287.9632 139.6403 289.8483 147.8662 287.6204 157.463 292.0761 154.8925 301.673 157.1203 303.7294 164.4893 305.6145 174.7717 297.0459 179.2274 301.3302 178.5419 305.9573 184.5399 310.7557 187.796 306.8141 193.6226 314.1832 188.4815 329.0926 182.1407 330.9777 179.2274 338.3467 173.0579 343.3165 165.3462 343.1451 157.1203 336.9757 141.354 332.0059 126.1019 333.0341 116.3337 350 104.8517 328.9212 86.5149 315.7255 79.66 307.3283 84.9725 300.4734 100.5674 295.5036 100.9101 287.6204 101.5956 282.3079 108.1078 280.5942 108.2792 274.9389 112.5635 274.7675 Z" id="IR.LO" fill="#cee3f5" stroke="#6e6e6e" stroke-width="0.4">
      <desc>
        <labelrank>4</labelrank>
        <code_hasc>IR.LO</code_hasc>
        <name>Lorestan</name>
        <admin>Iran</admin>
        <type_en>Province</type_en>
        <region/>
        <woe_id>2345782</woe_id>
        <longitude>48</longitude>
        <woe_name>Lorestan</woe_name>
        <fips>IR23</fips>
        <woe_label>Lorestan, IR, Iran</woe_label>
        <latitude>33</latitude>
        <iso_a2>IR</iso_a2>
        <postal>LO</postal>
        <type>Ostan</type>
        <id>IR.LO</id>
      </desc>
    </path>
    <path d="M 100.9101 287.6204 100.5674 295.5036 84.9725 300.4734 79.66 307.3283 86.5149 315.7255 104.8517 328.9212 116.3337 350 109.8215 361.3106 110.1643 366.109 103.8235 370.9074 100.5674 368.851 101.2529 365.4235 95.9403 355.3125 86.6862 354.1129 62.0086 333.0341 51.8976 331.4918 52.9259 326.8647 49.8411 324.8082 54.9823 322.409 54.811 318.4675 48.8129 308.1851 44.5286 307.671 47.2706 305.4432 46.071 301.8443 40.4157 303.5581 40.2443 301.5016 44.8713 285.2212 52.5831 285.2212 81.3737 297.0459 93.027 296.3604 93.1984 288.1345 100.9101 287.6204 Z" id="IR.IL" fill="#cee3f5" stroke="#6e6e6e" stroke-width="0.4">
      <desc>
        <labelrank>7</labelrank>
        <code_hasc>IR.IL</code_hasc>
        <name>Ilam</name>
        <admin>Iran</admin>
        <type_en>Province</type_en>
        <region/>
        <woe_id>2345775</woe_id>
        <longitude>46</longitude>
        <woe_name>Ilam</woe_name>
        <fips>IR10</fips>
        <woe_label>Ilam, IR, Iran</woe_label>
        <latitude>33</latitude>
        <iso_a2>IR</iso_a2>
        <postal>IL</postal>
        <type>Ostan</type>
        <id>IR.IL</id>
      </desc>
    </path>
    <path d="M 342.7167 615.1132 337.0614 613.3995 341.5171 612.5426 342.7167 615.1132 Z M 432.1731 598.4901 430.1166 597.6332 433.03 596.0908 432.1731 598.4901 Z M 424.1186 595.7481 415.7213 605.0022 412.9794 603.1171 390.5296 612.0285 390.1868 607.2301 408.8664 600.8893 408.1809 594.2057 413.4935 596.0908 423.9472 591.6352 428.0602 592.8348 424.1186 595.7481 Z M 289.934 579.9818 291.8191 578.0967 299.0167 578.4395 299.5308 578.2681 301.0732 577.4112 305.0147 582.0383 313.5834 582.7238 318.8959 586.1512 335.0049 587.5222 338.9465 585.4658 339.9747 583.752 342.5453 574.1552 356.5978 571.5846 360.7108 572.6128 362.5959 571.756 366.1947 570.8991 376.3057 572.0987 381.1041 570.5563 385.9025 562.1591 391.0437 559.2458 394.4712 558.3889 396.699 558.3889 397.7272 557.8748 398.5841 557.1893 399.2696 556.1611 399.441 553.7618 394.1284 546.9069 394.2998 545.0219 396.0135 537.9956 396.3562 533.1972 395.328 530.6266 383.6747 519.8301 383.3319 517.7736 384.5315 516.9168 384.5315 515.7172 382.3037 509.205 385.3884 509.3764 392.2433 511.0901 397.3845 515.8885 399.0982 516.9168 400.8119 517.7736 410.2374 511.2615 414.5217 509.0336 415.7213 508.8623 416.7496 510.4046 417.9492 526.685 417.0923 529.9411 417.9492 534.054 421.548 538.3383 424.9754 541.2517 428.917 543.4795 433.3727 543.9936 435.7719 543.4795 440.2276 541.2517 444.1692 537.1387 445.3688 535.7677 447.0825 534.2254 449.139 534.2254 453.0805 536.1105 453.2519 541.0803 454.9656 547.7638 459.4213 550.3344 460.9637 552.2195 461.9919 553.9332 463.877 555.8183 465.5907 558.2175 465.9335 560.4454 464.3911 562.6732 468.6754 569.8709 470.5605 585.8085 471.4174 588.2077 483.5848 594.0344 486.1554 595.9195 487.355 596.2622 489.0687 594.3771 489.9256 593.1775 491.468 591.9779 494.0385 591.9779 496.7805 593.3489 499.6938 595.7481 502.0931 598.1473 503.1213 601.4034 499.6938 600.0324 499.6938 600.8893 500.7221 603.6312 500.8934 604.6595 498.3229 622.8249 506.7201 622.6536 508.7766 622.3108 509.9762 621.6253 512.8895 622.4822 515.4601 622.8249 516.1456 623.1677 515.8028 624.5387 515.9742 625.2242 516.317 626.2524 516.4883 627.6234 517.1738 628.6516 518.8876 628.9944 520.7726 628.9944 522.4864 628.6516 523.5146 627.452 524.5428 627.1093 526.0852 627.6234 527.2848 627.6234 527.7989 627.9661 529.5126 630.3653 528.4844 633.7928 538.0813 640.9904 539.4522 642.8755 539.795 644.4179 540.6519 645.2747 541.8515 645.7889 542.537 646.4743 542.8797 647.3312 543.3938 648.0167 544.0793 648.5308 545.6217 650.93 545.9644 651.2728 546.6499 651.6155 546.6499 652.9865 545.6217 653.5006 545.793 654.5288 541.5087 656.0712 537.7385 656.2426 528.9985 649.7304 513.0609 648.1881 503.464 651.4441 498.4942 650.4159 495.0668 645.4461 487.8691 648.1881 487.0123 643.7324 469.7037 642.5328 463.5342 629.8512 465.248 626.2524 459.7641 615.7987 457.0221 597.1191 452.9092 592.8348 454.7943 590.7783 450.6813 590.4356 451.1954 587.6936 448.2821 585.123 430.6307 582.8952 421.8907 584.9516 415.0358 590.9497 404.5821 592.492 399.2696 601.7461 389.5014 601.5748 371.3359 614.5991 355.741 610.1434 352.6563 605.5163 329.8637 606.0304 321.1237 599.861 319.41 594.7199 303.301 589.2359 289.934 579.9818 Z" id="IR.HG" fill="#cee3f5" stroke="#6e6e6e" stroke-width="0.4">
      <desc>
        <labelrank>4</labelrank>
        <code_hasc>IR.HG</code_hasc>
        <name>Hormozgan</name>
        <admin>Iran</admin>
        <type_en>Province</type_en>
        <region/>
        <woe_id>2345776</woe_id>
        <longitude>56</longitude>
        <woe_name>Hormozgan</woe_name>
        <fips>IR11</fips>
        <woe_label>Hormozgan, IR, Iran</woe_label>
        <latitude>27</latitude>
        <iso_a2>IR</iso_a2>
        <postal>HG</postal>
        <type>Ostan</type>
        <id>IR.HG</id>
      </desc>
    </path>
    <path d="M 152.3219 102.5382 156.9489 106.9939 148.5517 116.5907 146.1525 124.4739 148.8944 133.2138 159.1768 147.6091 159.5195 154.1213 152.3219 153.2644 149.7513 155.835 144.7815 152.5789 140.3258 151.3793 135.5274 141.6111 127.987 137.1554 129.0152 125.6735 124.0454 118.8186 121.6462 108.0221 105.3658 106.3084 108.2792 98.2539 118.9042 93.9696 116.6764 90.7135 118.5615 85.0582 117.3619 71.177 107.4223 75.1186 98.5109 87.1147 84.9725 86.6005 84.9725 81.4594 87.7145 78.7174 102.6239 73.4049 100.396 65.6931 103.6521 60.7233 114.2772 54.0398 133.6423 45.2998 145.1242 59.8664 137.0697 64.3221 142.8964 75.9754 134.8419 78.0319 132.4427 82.1449 142.5536 93.2841 146.1525 92.7699 152.3219 102.5382 Z" id="IR.AR" fill="#cee3f5" stroke="#6e6e6e" stroke-width="0.4">
      <desc>
        <labelrank>7</labelrank>
        <code_hasc>IR.AR</code_hasc>
        <name>Ardebil</name>
        <admin>Iran</admin>
        <type_en>Province</type_en>
        <region/>
        <woe_id>20070198</woe_id>
        <longitude>47</longitude>
        <woe_name>Ardebil</woe_name>
        <fips>IR32</fips>
        <woe_label>Ardabil, IR, Iran</woe_label>
        <latitude>38</latitude>
        <iso_a2>IR</iso_a2>
        <postal>AR</postal>
        <type>Ostan</type>
        <id>IR.AR</id>
      </desc>
    </path>
    <path d="M 223.9556 224.5554 226.3548 231.4103 223.0987 241.1785 219.6712 254.0314 202.534 257.8016 196.8787 268.084 204.0764 273.0538 210.0744 283.5075 231.1532 288.9914 226.1834 301.3302 202.534 308.5279 193.6226 314.1832 187.796 306.8141 184.5399 310.7557 178.5419 305.9573 179.2274 301.3302 174.7717 297.0459 164.4893 305.6145 157.1203 303.7294 154.8925 301.673 157.463 292.0761 162.0901 287.1063 155.578 265.1706 162.947 266.0275 164.8321 252.8318 174.2575 253.3459 176.1426 259.8581 179.7415 259.344 176.6568 250.604 168.7736 246.8338 174.2575 242.8922 171.687 235.3518 176.9995 235.8659 176.1426 230.5534 182.3121 230.5534 184.8826 227.126 205.9615 221.642 217.272 225.755 216.4152 222.4989 218.8144 221.4707 220.3567 226.7832 223.9556 224.5554 Z" id="IR.MK" fill="#cee3f5" stroke="#6e6e6e" stroke-width="0.4">
      <desc>
        <labelrank>4</labelrank>
        <code_hasc>IR.MK</code_hasc>
        <name>Markazi</name>
        <admin>Iran</admin>
        <type_en>Province</type_en>
        <region/>
        <woe_id>2345783</woe_id>
        <longitude>49</longitude>
        <woe_name>Markazi</woe_name>
        <fips>IR34</fips>
        <woe_label>Markazi, IR, Iran</woe_label>
        <latitude>34</latitude>
        <iso_a2>IR</iso_a2>
        <postal>MK</postal>
        <type>Ostan</type>
        <id>IR.MK</id>
      </desc>
    </path>
    <path d="M 261.6575 256.2593 258.2301 270.6546 232.3528 275.6244 229.4395 286.5922 231.1532 288.9914 210.0744 283.5075 204.0764 273.0538 196.8787 268.084 202.534 257.8016 219.6712 254.0314 223.0987 241.1785 241.6069 244.2632 261.6575 256.2593 Z" id="IR.QM" fill="#cee3f5" stroke="#6e6e6e" stroke-width="0.4">
      <desc>
        <labelrank>7</labelrank>
        <code_hasc>IR.QM</code_hasc>
        <name>Qom</name>
        <admin>Iran</admin>
        <type_en>Province</type_en>
        <region/>
        <woe_id>20070199</woe_id>
        <longitude>50</longitude>
        <woe_name>Qom</woe_name>
        <fips>IR39</fips>
        <woe_label>Qom, IR, Iran</woe_label>
        <latitude>34</latitude>
        <iso_a2>IR</iso_a2>
        <postal>QM</postal>
        <type>Ostan</type>
        <id>IR.QM</id>
      </desc>
    </path>
    <path d="M 133.985 218.0432 136.5556 221.2993 149.9227 224.5554 154.0356 221.2993 159.5195 220.7852 164.8321 227.8114 176.1426 230.5534 176.9995 235.8659 171.687 235.3518 174.2575 242.8922 168.7736 246.8338 176.6568 250.604 179.7415 259.344 176.1426 259.8581 174.2575 253.3459 164.8321 252.8318 162.947 266.0275 155.578 265.1706 162.0901 287.1063 157.463 292.0761 147.8662 287.6204 139.6403 289.8483 130.3862 287.9632 112.5635 274.7675 114.6199 271.6828 123.1886 271.6828 122.8458 264.1424 117.1905 267.9126 109.4788 260.715 109.8215 258.3157 114.4486 257.8016 119.247 249.233 125.0737 246.1483 126.7874 249.4044 130.2148 243.4063 118.7329 221.8134 121.3035 218.7287 124.7309 222.4989 129.5293 220.4424 127.6442 215.3013 133.985 218.0432 Z" id="IR.HD" fill="#cee3f5" stroke="#6e6e6e" stroke-width="0.4">
      <desc>
        <labelrank>7</labelrank>
        <code_hasc>IR.HD</code_hasc>
        <name>Hamadan</name>
        <admin>Iran</admin>
        <type_en>Province</type_en>
        <region/>
        <woe_id>2345774</woe_id>
        <longitude>48</longitude>
        <woe_name>Hamadan</woe_name>
        <fips>IR09</fips>
        <woe_label>Hamadan, IR, Iran</woe_label>
        <latitude>34</latitude>
        <iso_a2>IR</iso_a2>
        <postal>HD</postal>
        <type>Ostan</type>
        <id>IR.HD</id>
      </desc>
    </path>
    <path d="M 159.5195 154.1213 168.0881 161.833 171.3442 171.2585 163.1183 177.7707 167.574 187.5389 172.5438 190.1095 175.7999 201.7628 165.0034 206.2185 162.4329 210.6742 157.1203 208.7891 147.3521 211.8738 154.0356 221.2993 149.9227 224.5554 136.5556 221.2993 133.985 218.0432 122.6744 207.7609 125.9305 197.4785 122.8458 186.8534 104.509 181.3695 100.396 170.4017 101.0815 165.6032 114.7913 154.1213 140.4972 154.6354 144.7815 152.5789 149.7513 155.835 152.3219 153.2644 159.5195 154.1213 Z" id="IR.ZA" fill="#cee3f5" stroke="#6e6e6e" stroke-width="0.4">
      <desc>
        <labelrank>7</labelrank>
        <code_hasc>IR.ZA</code_hasc>
        <name>Zanjan</name>
        <admin>Iran</admin>
        <type_en>Province</type_en>
        <region/>
        <woe_id>2345786</woe_id>
        <longitude>48</longitude>
        <woe_name>Zanjan</woe_name>
        <fips>IR36</fips>
        <woe_label>Zanjan, IR, Iran</woe_label>
        <latitude>36</latitude>
        <iso_a2>IR</iso_a2>
        <postal>ZA</postal>
        <type>Ostan</type>
        <id>IR.ZA</id>
      </desc>
    </path>
    <path d="M 207.6752 178.4562 224.6411 193.8797 211.274 194.5652 218.3003 200.3918 215.0442 209.1318 204.5905 215.3013 205.9615 221.642 184.8826 227.126 182.3121 230.5534 176.1426 230.5534 164.8321 227.8114 159.5195 220.7852 154.0356 221.2993 147.3521 211.8738 157.1203 208.7891 162.4329 210.6742 165.0034 206.2185 175.7999 201.7628 172.5438 190.1095 167.574 187.5389 163.1183 177.7707 171.3442 171.2585 178.8846 179.6558 190.3666 182.7405 200.1348 178.4562 207.6752 178.4562 Z" id="IR.QZ" fill="#cee3f5" stroke="#6e6e6e" stroke-width="0.4">
      <desc>
        <labelrank>7</labelrank>
        <code_hasc>IR.QZ</code_hasc>
        <name>Qazvin</name>
        <admin>Iran</admin>
        <type_en>Province</type_en>
        <region/>
        <woe_id>20070200</woe_id>
        <longitude>49</longitude>
        <woe_name>Qazvin</woe_name>
        <fips>IR38</fips>
        <woe_label>Qazvin, IR, Iran</woe_label>
        <latitude>36</latitude>
        <iso_a2>IR</iso_a2>
        <postal>QZ</postal>
        <type>Ostan</type>
        <id>IR.QZ</id>
      </desc>
    </path>
    <path d="M 48.9843 71.0056 43.8431 76.4896 43.329 87.9715 32.8753 100.6531 36.1314 107.508 35.7886 126.7017 39.2161 134.0707 38.7019 141.7825 49.4984 151.0366 57.5529 152.5789 69.549 163.3754 73.1478 158.9197 82.0592 156.3491 87.2003 159.9479 88.7427 170.2303 100.396 170.4017 104.509 181.3695 97.4827 188.2244 90.1137 186.3393 86.5149 182.5691 59.7808 181.1981 53.7827 187.7103 47.9561 189.0813 39.5588 198.8495 33.218 198.8495 31.6757 181.1981 25.849 179.8272 23.4498 174.8574 25.5063 168.3452 18.8227 163.3754 21.5647 153.7785 17.2804 149.6656 19.5082 141.6111 12.1392 135.0989 14.0243 122.9315 1.3427 113.8488 11.7965 95.6833 6.1412 93.2841 7.5122 73.4049 3.9133 67.9209 5.7984 60.2092 2.371 57.4672 1 49.7555 13.5102 49.2413 17.109 37.2453 21.7361 34.5033 30.4761 41.701 38.3592 60.0378 43.6717 61.066 48.9843 71.0056 Z" id="IR.WA" fill="#cee3f5" stroke="#6e6e6e" stroke-width="0.4">
      <desc>
        <labelrank>4</labelrank>
        <code_hasc>IR.WA</code_hasc>
        <name>West Azarbaijan</name>
        <admin>Iran</admin>
        <type_en>Province</type_en>
        <region/>
        <woe_id>2345767</woe_id>
        <longitude>45</longitude>
        <woe_name>West Azarbaijan</woe_name>
        <fips>IR01</fips>
        <woe_label>Azarbayjan-e Gharbi, IR, Iran</woe_label>
        <latitude>36</latitude>
        <iso_a2>IR</iso_a2>
        <postal>WA</postal>
        <type>Ostan</type>
        <id>IR.WA</id>
      </desc>
    </path>
    <path d="M 144.7815 152.5789 140.4972 154.6354 114.7913 154.1213 101.0815 165.6032 100.396 170.4017 88.7427 170.2303 87.2003 159.9479 82.0592 156.3491 73.1478 158.9197 69.549 163.3754 57.5529 152.5789 49.4984 151.0366 38.7019 141.7825 39.2161 134.0707 35.7886 126.7017 36.1314 107.508 32.8753 100.6531 43.329 87.9715 43.8431 76.4896 48.9843 71.0056 69.7204 77.6892 78.4603 75.6327 83.4301 77.6892 95.4262 66.3786 100.396 65.6931 102.6239 73.4049 87.7145 78.7174 84.9725 81.4594 84.9725 86.6005 98.5109 87.1147 107.4223 75.1186 117.3619 71.177 118.5615 85.0582 116.6764 90.7135 118.9042 93.9696 108.2792 98.2539 105.3658 106.3084 121.6462 108.0221 124.0454 118.8186 129.0152 125.6735 127.987 137.1554 135.5274 141.6111 140.3258 151.3793 144.7815 152.5789 Z" id="IR.EA" fill="#cee3f5" stroke="#6e6e6e" stroke-width="0.4">
      <desc>
        <labelrank>4</labelrank>
        <code_hasc>IR.EA</code_hasc>
        <name>East Azarbaijan</name>
        <admin>Iran</admin>
        <type_en>Province</type_en>
        <region/>
        <woe_id>2345768</woe_id>
        <longitude>46</longitude>
        <woe_name>East Azarbaijan</woe_name>
        <fips>IR01</fips>
        <woe_label>Azarbayjan-e Sharqi, IR, Iran</woe_label>
        <latitude>37</latitude>
        <iso_a2>IR</iso_a2>
        <postal>EA</postal>
        <type>Ostan</type>
        <id>IR.EA</id>
      </desc>
    </path>
    <path d="M 119.247 249.233 114.4486 257.8016 109.8215 258.3157 109.4788 260.715 117.1905 267.9126 122.8458 264.1424 123.1886 271.6828 114.6199 271.6828 112.5635 274.7675 108.2792 274.9389 108.1078 280.5942 101.5956 282.3079 100.9101 287.6204 93.1984 288.1345 93.027 296.3604 81.3737 297.0459 52.5831 285.2212 44.8713 285.2212 40.2443 301.5016 32.5325 287.6204 28.9337 285.9067 35.2745 279.2232 36.4741 272.8824 31.6757 265.8561 34.9317 263.7997 35.1031 259.6867 42.1294 261.9146 39.9015 254.3742 41.6153 250.7753 45.0427 246.6624 48.4702 247.0052 51.2121 239.2934 59.2666 239.4648 59.2666 231.4103 76.5753 250.7753 77.4321 255.9165 86.5149 255.5738 90.1137 250.0899 98.1682 247.3479 98.8537 243.7491 105.1945 242.5495 105.3658 239.122 119.247 249.233 Z" id="IR.BK" fill="#cee3f5" stroke="#6e6e6e" stroke-width="0.4">
      <desc>
        <labelrank>7</labelrank>
        <code_hasc>IR.BK</code_hasc>
        <name>Kermanshah</name>
        <admin>Iran</admin>
        <type_en>Province</type_en>
        <region/>
        <woe_id>2345777</woe_id>
        <longitude>46</longitude>
        <woe_name>Kermanshah</woe_name>
        <fips>IR13</fips>
        <woe_label>Kermanshah, IR, Iran</woe_label>
        <latitude>34</latitude>
        <iso_a2>IR</iso_a2>
        <postal>BK</postal>
        <type>Ostan</type>
        <id>IR.BK</id>
      </desc>
    </path>
    <path d="M 217.4434 165.0891 207.6752 178.4562 200.1348 178.4562 190.3666 182.7405 178.8846 179.6558 171.3442 171.2585 168.0881 161.833 159.5195 154.1213 159.1768 147.6091 148.8944 133.2138 146.1525 124.4739 148.5517 116.5907 156.9489 106.9939 152.3219 102.5382 161.2332 101.3386 162.7756 124.1311 168.7736 136.4699 179.056 142.2966 195.8505 143.6676 204.7618 147.6091 208.8748 157.8915 217.4434 165.0891 Z" id="IR.GI" fill="#cee3f5" stroke="#6e6e6e" stroke-width="0.4">
      <desc>
        <labelrank>4</labelrank>
        <code_hasc>IR.GI</code_hasc>
        <name>Gilan</name>
        <admin>Iran</admin>
        <type_en>Province</type_en>
        <region/>
        <woe_id>2345773</woe_id>
        <longitude>49</longitude>
        <woe_name>Gilan</woe_name>
        <fips>IR08</fips>
        <woe_label>Gilan, IR, Iran</woe_label>
        <latitude>37</latitude>
        <iso_a2>IR</iso_a2>
        <postal>GI</postal>
        <type>Ostan</type>
        <id>IR.GI</id>
      </desc>
    </path>
    <path d="M 133.985 218.0432 127.6442 215.3013 129.5293 220.4424 124.7309 222.4989 121.3035 218.7287 118.7329 221.8134 130.2148 243.4063 126.7874 249.4044 125.0737 246.1483 119.247 249.233 105.3658 239.122 105.1945 242.5495 98.8537 243.7491 98.1682 247.3479 90.1137 250.0899 86.5149 255.5738 77.4321 255.9165 76.5753 250.7753 59.2666 231.4103 54.2968 218.386 56.5247 213.9303 64.4078 213.0734 67.4925 208.9605 62.0086 209.4746 58.5811 206.5613 47.6133 207.9322 39.5588 198.8495 47.9561 189.0813 53.7827 187.7103 59.7808 181.1981 86.5149 182.5691 90.1137 186.3393 97.4827 188.2244 104.509 181.3695 122.8458 186.8534 125.9305 197.4785 122.6744 207.7609 133.985 218.0432 Z" id="IR.KD" fill="#cee3f5" stroke="#6e6e6e" stroke-width="0.4">
      <desc>
        <labelrank>4</labelrank>
        <code_hasc>IR.KD</code_hasc>
        <name>Kordestan</name>
        <admin>Iran</admin>
        <type_en>Province</type_en>
        <region/>
        <woe_id>2345779</woe_id>
        <longitude>46</longitude>
        <woe_name>Kordestan</woe_name>
        <fips>IR16</fips>
        <woe_label>Kordestan, IR, Iran</woe_label>
        <latitude>35</latitude>
        <iso_a2>IR</iso_a2>
        <postal>KD</postal>
        <type>Ostan</type>
        <id>IR.KD</id>
      </desc>
    </path>
    <path d="M 568.5856 279.5659 570.8134 298.5883 586.0656 302.7012 582.9808 304.2436 574.4122 320.0098 587.0938 357.369 585.7228 367.1372 589.1503 389.9298 600.6322 390.958 598.0616 411.0086 600.6322 436.029 594.2914 437.2286 584.6946 426.9462 572.013 421.1196 543.3938 431.4019 527.2848 410.8372 521.8009 407.2384 478.9578 390.6153 491.6393 361.482 486.6695 350.1714 488.0405 342.2882 495.7523 325.4937 506.7201 317.2679 510.833 309.2134 502.4358 302.0157 502.2644 281.2796 513.575 281.6224 532.7687 273.7393 538.7668 280.5942 543.5652 281.9651 568.5856 279.5659 Z" id="IR.KJ" fill="#cee3f5" stroke="#6e6e6e" stroke-width="0.4">
      <desc>
        <labelrank>4</labelrank>
        <code_hasc>IR.KJ</code_hasc>
        <name>South Khorasan</name>
        <admin>Iran</admin>
        <type_en>Province</type_en>
        <region/>
        <woe_id>56189825</woe_id>
        <longitude>59</longitude>
        <woe_name/>
        <fips>IR41</fips>
        <woe_label/>
        <latitude>32</latitude>
        <iso_a2>IR</iso_a2>
        <postal>KJ</postal>
        <type>Ostan</type>
        <id>IR.KJ</id>
      </desc>
    </path>
    <path d="M 568.5856 279.5659 543.5652 281.9651 538.7668 280.5942 532.7687 273.7393 513.575 281.6224 502.2644 281.2796 502.4358 302.0157 510.833 309.2134 506.7201 317.2679 495.7523 325.4937 488.0405 342.2882 474.1593 332.3486 464.7339 304.5863 455.6511 307.1569 448.6248 306.4714 446.7397 303.9008 443.9978 284.3644 447.9394 270.8259 466.9617 252.1463 465.9335 246.8338 451.1954 238.6079 414.5217 252.8318 424.29 241.3499 436.6288 234.8377 443.4837 220.4424 443.9978 217.5291 431.8303 206.2185 429.6025 193.0228 431.8303 181.5409 430.9735 178.2848 427.7174 177.7707 427.546 172.9723 437.4856 163.204 442.9696 163.204 466.4476 174.686 476.2158 175.7142 479.986 173.6577 480.6715 163.0327 478.4437 160.4621 476.5586 162.1758 472.9597 157.3774 478.7864 140.4115 472.2742 131.8429 455.6511 131.1574 456.3366 126.1876 461.4778 122.0746 476.7299 126.1876 478.1009 130.4719 483.4135 132.1856 489.0687 128.9295 494.3813 131.1574 498.3229 128.5868 512.8895 135.2703 516.317 134.4135 522.4864 147.9519 542.1942 154.2927 554.7044 170.0589 583.3236 167.6597 583.6663 179.8272 587.2652 189.5954 584.5232 196.4503 588.8075 199.3636 591.7208 214.1016 589.1503 225.0695 586.4083 226.2691 588.4648 233.8095 586.5797 246.3197 582.9808 254.3742 574.5836 260.2008 582.124 268.2553 573.384 269.4549 568.5856 279.5659 Z" id="IR.KV" fill="#cee3f5" stroke="#6e6e6e" stroke-width="0.4">
      <desc>
        <labelrank>4</labelrank>
        <code_hasc>IR.KV</code_hasc>
        <name>Razavi Khorasan</name>
        <admin>Iran</admin>
        <type_en>Province</type_en>
        <region/>
        <woe_id>2345789</woe_id>
        <longitude>58</longitude>
        <woe_name>Razavi Khorasan</woe_name>
        <fips>IR42</fips>
        <woe_label>Khorasan, IR, Iran</woe_label>
        <latitude>35</latitude>
        <iso_a2>IR</iso_a2>
        <postal>KV</postal>
        <type>Ostan</type>
        <id>IR.KV</id>
      </desc>
    </path>
    <path d="M 461.4778 122.0746 456.3366 126.1876 455.6511 131.1574 472.2742 131.8429 478.7864 140.4115 472.9597 157.3774 476.5586 162.1758 478.4437 160.4621 480.6715 163.0327 479.986 173.6577 476.2158 175.7142 466.4476 174.686 442.9696 163.204 437.4856 163.204 427.546 172.9723 427.7174 177.7707 417.4351 177.7707 411.437 174.0005 406.4672 168.1738 406.6386 159.2625 409.8947 156.8632 404.2394 154.9781 398.9268 148.2946 402.1829 142.6393 413.3221 135.6131 408.3523 129.9578 407.8382 116.7621 412.9794 116.0766 412.2939 112.3064 416.7496 108.879 426.6892 107.6794 437.3143 110.9354 442.1127 106.8225 448.4535 119.6754 461.4778 122.0746 Z" id="IR.KS" fill="#cee3f5" stroke="#6e6e6e" stroke-width="0.4">
      <desc>
        <labelrank>4</labelrank>
        <code_hasc>IR.KS</code_hasc>
        <name>North Khorasan</name>
        <admin>Iran</admin>
        <type_en>Province</type_en>
        <region/>
        <woe_id>-56189824</woe_id>
        <longitude>57</longitude>
        <woe_name/>
        <fips>IR43</fips>
        <woe_label/>
        <latitude>37</latitude>
        <iso_a2>IR</iso_a2>
        <postal>KS</postal>
        <type>Ostan</type>
        <id>IR.KS</id>
      </desc>
    </path>
    <path d="M 529.5126 630.3653 530.1981 628.3089 530.1981 624.1959 532.2546 618.1979 529.5126 612.714 531.3977 600.3752 526.0852 593.1775 523.5146 578.0967 527.1134 560.6167 526.2566 540.7375 531.3977 530.9693 525.057 524.4572 542.7083 513.1466 539.9664 501.3219 544.0793 485.5556 542.1942 476.4729 537.7385 470.989 543.3938 431.4019 572.013 421.1196 584.6946 426.9462 594.2914 437.2286 600.6322 436.029 598.0616 411.0086 600.6322 390.958 622.3965 393.1859 627.8804 406.7243 627.7091 414.9502 595.3197 460.3639 615.3702 479.7289 615.5416 484.0133 625.6526 500.8078 639.191 514.0034 658.5561 518.2877 666.2679 525.4854 673.2941 524.1144 678.0926 556.3324 676.2075 566.4434 682.2055 568.3285 693.002 565.4152 699 571.0705 695.7439 573.4697 697.8004 581.0101 694.7157 583.9234 694.7157 591.9779 678.7781 593.3489 666.0965 597.8046 661.2981 600.8893 660.7839 607.0587 655.1287 606.8873 644.3322 614.0849 642.6185 631.7363 639.0196 634.3069 638.8483 655.2143 631.3079 665.4967 616.0557 660.0128 600.2895 658.1277 596.5193 650.93 590.6926 654.3575 593.6059 657.9563 585.7228 654.5288 583.1522 655.043 583.495 657.2708 578.3538 655.5571 571.4989 657.4422 553.6762 652.6438 551.4483 653.3292 546.9926 654.1861 545.793 654.5288 545.6217 653.5006 546.6499 652.9865 546.6499 652.301 546.6499 651.6155 545.6217 650.93 544.0793 648.5308 543.3938 648.0167 542.8797 647.3312 542.537 646.4743 541.8515 645.7889 540.6519 645.2747 539.795 644.4179 539.4522 642.8755 538.0813 640.9904 528.4844 633.7928 529.5126 630.3653 Z" id="IR.SB" fill="#cee3f5" stroke="#6e6e6e" stroke-width="0.4">
      <desc>
        <labelrank>4</labelrank>
        <code_hasc>IR.SB</code_hasc>
        <name>Sistan and Baluchestan</name>
        <admin>Iran</admin>
        <type_en>Province</type_en>
        <region/>
        <woe_id>2345770</woe_id>
        <longitude>61</longitude>
        <woe_name>Sistan and Baluchestan</woe_name>
        <fips>IR04</fips>
        <woe_label>Sistan va Baluchestan, IR, Iran</woe_label>
        <latitude>27</latitude>
        <iso_a2>IR</iso_a2>
        <postal>SB</postal>
        <type>Ostan</type>
        <id>IR.SB</id>
      </desc>
    </path>
    <path d="M 478.9578 390.6153 521.8009 407.2384 527.2848 410.8372 543.3938 431.4019 537.7385 470.989 542.1942 476.4729 544.0793 485.5556 539.9664 501.3219 542.7083 513.1466 525.057 524.4572 531.3977 530.9693 526.2566 540.7375 527.1134 560.6167 523.5146 578.0967 526.0852 593.1775 531.3977 600.3752 529.5126 612.714 532.2546 618.1979 530.1981 624.1959 530.1981 628.3089 529.5126 630.3653 527.2848 627.6234 526.0852 627.6234 524.5428 627.1093 523.5146 627.452 522.4864 628.6516 520.7726 628.9944 518.8876 628.9944 517.1738 628.6516 516.4883 627.6234 515.9742 625.2242 515.8028 624.5387 516.1456 623.1677 515.4601 622.8249 512.8895 622.4822 509.9762 621.6253 508.7766 622.3108 506.7201 622.6536 498.3229 622.8249 500.8934 604.6595 500.7221 603.6312 499.6938 600.8893 499.6938 600.0324 503.1213 601.4034 502.0931 598.1473 499.6938 595.7481 496.7805 593.3489 494.0385 591.9779 491.468 591.9779 489.9256 593.1775 489.0687 594.3771 487.355 596.2622 486.1554 595.9195 471.4174 588.2077 470.5605 585.8085 468.6754 569.8709 464.3911 562.6732 465.9335 560.4454 465.5907 558.2175 463.877 555.8183 461.9919 553.9332 459.4213 550.3344 456.3366 549.3062 455.4797 548.6207 454.9656 547.7638 453.2519 541.0803 453.0805 536.1105 449.139 534.2254 447.0825 534.2254 445.3688 535.7677 444.1692 537.1387 440.2276 541.2517 435.7719 543.4795 433.3727 543.9936 428.917 543.4795 424.9754 541.2517 421.548 538.3383 417.9492 534.054 417.0923 529.9411 416.7496 510.4046 415.7213 508.8623 414.5217 509.0336 410.2374 511.2615 400.8119 517.7736 399.0982 516.9168 397.3845 515.8885 392.2433 511.0901 385.3884 509.3764 382.3037 509.205 374.2492 490.5254 361.739 487.9548 355.3982 473.5595 362.2531 471.1603 361.3963 451.9666 353.6845 435.8576 359.1684 423.6902 394.4712 419.0631 400.6406 416.1498 402.697 396.0992 421.8907 385.3027 434.2296 374.849 478.9578 390.6153 Z" id="IR.KE" fill="#cee3f5" stroke="#6e6e6e" stroke-width="0.4">
      <desc>
        <labelrank>6</labelrank>
        <code_hasc>IR.KE</code_hasc>
        <name>Kerman</name>
        <admin>Iran</admin>
        <type_en>Province</type_en>
        <region/>
        <woe_id>2345788</woe_id>
        <longitude>56</longitude>
        <woe_name>Kerman</woe_name>
        <fips>IR29</fips>
        <woe_label>Kerman, IR, Iran</woe_label>
        <latitude>30</latitude>
        <iso_a2>IR</iso_a2>
        <postal>KE</postal>
        <type>Ostan</type>
        <id>IR.KE</id>
      </desc>
    </path>
    <path d="M 224.6411 193.8797 243.6634 202.9624 243.492 207.2467 235.9516 208.9605 233.2097 216.1581 230.125 216.3295 223.9556 224.5554 220.3567 226.7832 218.8144 221.4707 216.4152 222.4989 217.272 225.755 205.9615 221.642 204.5905 215.3013 215.0442 209.1318 218.3003 200.3918 211.274 194.5652 224.6411 193.8797 Z" id="IR.AL" fill="#cee3f5" stroke="#6e6e6e" stroke-width="0.4">
      <desc>
        <labelrank>7</labelrank>
        <code_hasc>IR.AL</code_hasc>
        <name>Alborz</name>
        <admin>Iran</admin>
        <type_en>Province</type_en>
        <region/>
        <woe_id>-20070200</woe_id>
        <longitude>50</longitude>
        <woe_name/>
        <fips>IR26</fips>
        <woe_label/>
        <latitude>35</latitude>
        <iso_a2>IR</iso_a2>
        <postal>TH</postal>
        <type>Ostan</type>
        <id>IR.AL</id>
      </desc>
    </path>
  </g>
</svg>