<?xml version="1.0" encoding="UTF-8"?>
<svg xmlns="http://www.w3.org/2000/svg" width="700" height="700">
  <g id="armenia">
    <path d="M 213.7351 176.7051 215.8454 196.3533 229.8592 206.8536 243.0615 210.644 241.1891 222.4294 230.4446 253.072 232.0882 263.488 226.7749 267.3767 218.5421 281.8455 210.7896 287.3029 217.0409 296.34 211.402 302.9244 214.4986 314.8803 212.8037 318.1797 199.9026 315.2555 181.2409 303.1909 167.2193 307.614 159.245 302.4048 156.5708 303.6861 157.9722 314.4108 155.4094 316.9624 150.6775 318.8544 124.5272 318.397 112.3676 308.5191 103.994 305.4499 94.4908 298.3243 85.197 295.6955 80.3548 289.4844 72.6583 295.9725 65.3837 293.1687 52.6229 301.7731 49.5671 294.3938 31.9387 271.2844 38.8806 252.5168 43.5958 252.7416 52.3271 245.6866 58.4376 235.9244 77.919 227.6386 99.7319 236.3268 108.8278 236.1856 113.5453 231.3196 122.6302 231.9067 132.008 243.2199 160.8451 229.3158 165.4386 225.2158 160.8251 220.5115 163.9281 204.5798 150.3998 204.7182 146.3252 194.5665 139.47 186.8941 151.2506 173.5324 158.6519 159.3728 164.0421 159.0002 170.2304 165.3514 174.2875 166.4561 180.4498 164.4448 185.2346 159.4363 192.7259 160.3345 209.6541 168.5715 213.7351 176.7051 Z" id="AM.AG" fill="#cee3f5" stroke="#6e6e6e" stroke-width="0.4">
      <desc>
        <labelrank>9</labelrank>
        <code_hasc>AM.AG</code_hasc>
        <name>Aragatsotn</name>
        <admin>Armenia</admin>
        <type_en>Province</type_en>
        <region/>
        <woe_id>20070209</woe_id>
        <longitude>44</longitude>
        <woe_name>Aragatsotn</woe_name>
        <fips>AM01</fips>
        <woe_label>Aragatsotn, AM, Armenia</woe_label>
        <latitude>40</latitude>
        <iso_a2>AM</iso_a2>
        <postal>AG</postal>
        <type>Marz</type>
        <id>AM.AG</id>
      </desc>
    </path>
    <path d="M 212.8037 318.1797 217.5999 328.5279 217.0947 330.9593 206.9452 335.7766 198.0296 347.3225 203.5729 361.7469 204.1878 369.679 192.0313 362.4494 176.5112 359.817 150.0062 365.6345 143.1981 361.6479 127.2067 369.3342 100.6878 364.515 76.7183 350.8748 56.5923 344.8476 46.5743 339.117 43.8503 330.7905 46.9465 327.9863 56.9571 325.9662 59.1634 322.2861 48.7658 305.3697 52.6229 301.7731 65.3837 293.1687 72.6583 295.9725 80.3548 289.4844 85.197 295.6955 94.4908 298.3243 103.994 305.4499 112.3676 308.5191 124.5272 318.397 150.6775 318.8544 155.4094 316.9624 157.9722 314.4108 156.5708 303.6861 159.245 302.4048 167.2193 307.614 181.2409 303.1909 199.9026 315.2555 212.8037 318.1797 Z" id="AM.AV" fill="#cee3f5" stroke="#6e6e6e" stroke-width="0.4">
      <desc>
        <labelrank>9</labelrank>
        <code_hasc>AM.AV</code_hasc>
        <name>Armavir</name>
        <admin>Armenia</admin>
        <type_en>Province</type_en>
        <region/>
        <woe_id>20070210</woe_id>
        <longitude>44</longitude>
        <woe_name>Armavir</woe_name>
        <fips>AM03</fips>
        <woe_label>Armavir, AM, Armenia</woe_label>
        <latitude>40</latitude>
        <iso_a2>AM</iso_a2>
        <postal>AV</postal>
        <type>Marz</type>
        <id>AM.AV</id>
      </desc>
    </path>
    <path d="M 158.6519 159.3728 151.2506 173.5324 139.47 186.8941 146.3252 194.5665 150.3998 204.7182 163.9281 204.5798 160.8251 220.5115 165.4386 225.2158 160.8451 229.3158 132.008 243.2199 122.6302 231.9067 113.5453 231.3196 108.8278 236.1856 99.7319 236.3268 77.919 227.6386 58.4376 235.9244 52.3271 245.6866 43.5958 252.7416 38.8806 252.5168 39.1105 249.925 25.7711 236.9124 24.9258 233.1119 32.5731 224.2957 42.5597 220.547 40.9806 216.4241 45.5579 218.6329 45.4367 211.7409 48.4483 205.847 57.8908 195.1033 56.3125 188.5761 63.015 176.453 61.4638 151.7804 48.5123 125.9856 43.7818 102.4786 28.6251 86.5385 19.3329 81.6906 10.0432 80.1944 5.9515 76.1721 1 58.7367 2.0188 52.0417 29.5256 47.4943 70.2039 52.6642 84.7342 42.1596 94.1001 38.4084 118.9837 37.1222 116.9306 61.8429 126.4183 67.4245 133.4964 77.9493 139.6874 82.6931 140.081 86.9588 135.7707 92.2879 137.2962 94.8657 150.9152 98.236 143.4598 119.2 138.7441 120.7319 131.0762 119.0307 126.6466 137.1781 131.7846 148.0444 142.6873 151.3452 146.2853 158.3234 158.6519 159.3728 Z" id="AM.SH" fill="#cee3f5" stroke="#6e6e6e" stroke-width="0.4">
      <desc>
        <labelrank>9</labelrank>
        <code_hasc>AM.SH</code_hasc>
        <name>Shirak</name>
        <admin>Armenia</admin>
        <type_en>Province</type_en>
        <region/>
        <woe_id>20070203</woe_id>
        <longitude>43</longitude>
        <woe_name>Shirak</woe_name>
        <fips>AM07</fips>
        <woe_label>Shirak, AM, Armenia</woe_label>
        <latitude>40</latitude>
        <iso_a2>AM</iso_a2>
        <postal>SH</postal>
        <type>Marz</type>
        <id>AM.SH</id>
      </desc>
    </path>
    <path d="M 296.4206 186.1749 291.1627 181.827 291.4093 165.0964 286.7772 149.5401 304.3775 140.4663 312.3386 119.7249 320.8107 110.3455 314.6276 102.2021 299.4623 97.6395 291.9851 90.3767 291.3896 85.7504 299.8454 76.6028 308.7218 79.6338 312.9402 78.4676 327.5995 65.7377 324.6722 59.5962 316.7148 54.5547 314.8068 45.7183 315.7239 39.7659 323.8193 33.851 324.0253 29.3006 314.436 22.0219 309.222 21.4544 299.6305 15.4326 297.8468 11.3753 302.0682 7.1233 331.2122 10.2194 341.4516 2.249 349.4773 19.2768 347.2937 25.3353 348.4948 28.8981 370.1088 31.698 384.3154 44.6619 384.6066 49.2341 377.1628 54.6986 355.6688 53.8219 353.3617 63.0582 356.1629 67.8516 365.0787 71.4501 367.0224 62.8068 389.1566 81.4851 408.9668 86.5467 413.9304 87.33 426.1306 81.1771 432.1325 80.496 433.4925 87.2893 431.6245 96.5925 445.3594 105.549 458.2233 120.9892 471.6144 124.7031 472.0524 131.0545 468.0382 142.9146 462.3259 149.499 436.6337 162.0561 428.1167 169.119 422.6561 178.8077 422.6727 185.7019 418.4392 184.1551 409.7814 175.4587 408.4229 174.7806 404.5547 173.7323 402.166 172.352 397.1309 166.1172 395.84 164.9778 393.8051 164.3006 386.2361 163.5777 380.5411 162.1354 361.2191 173.1663 355.9733 183.9491 353.9396 185.9399 352.6398 186.7127 349.4177 187.9466 336.922 189.2693 328.885 183.4613 325.653 181.6998 322.4322 180.7245 296.4206 186.1749 Z M 344.3546 79.0221 347.4556 72.3997 345.0373 64.1753 336.4654 62.1264 333.0942 64.5008 333.7427 72.8152 336.462 76.3198 344.3546 79.0221 Z M 386.6472 94.8384 388.9349 91.6556 382.6898 86.2811 380.171 86.6873 381.604 94.0333 386.6472 94.8384 Z" id="AM.TV" fill="#cee3f5" stroke="#6e6e6e" stroke-width="0.4">
      <desc>
        <labelrank>9</labelrank>
        <code_hasc>AM.TV</code_hasc>
        <name>Tavush</name>
        <admin>Armenia</admin>
        <type_en>Province</type_en>
        <region/>
        <woe_id>20070202</woe_id>
        <longitude>45</longitude>
        <woe_name>Tavush</woe_name>
        <fips>AJ40</fips>
        <woe_label>Tavush, AM, Armenia</woe_label>
        <latitude>40</latitude>
        <iso_a2>AM</iso_a2>
        <postal>TV</postal>
        <type>Marz</type>
        <id>AM.TV</id>
      </desc>
    </path>
    <path d="M 347.4967 326.0502 344.1865 350.1655 354.8897 376.5609 355.9867 377.6957 358.4199 378.7847 359.3115 379.7636 359.5531 381.6189 359.3879 388.0909 359.8359 390.6733 361.9674 396.4602 362.5188 399.0276 363.2825 407.176 365.1747 411.5081 358.3604 427.9619 357.5602 444.8252 348.3589 438.9224 340.043 441.7736 324.7754 452.0387 297.2134 455.5299 290.9129 458.2759 272.6916 432.305 262.8807 428.7954 254.9069 419.5147 251.9464 421.3125 250.4024 413.6015 245.2069 409.213 243.3879 402.3461 235.2694 391.7798 222.5492 380.5742 204.1878 369.679 203.5729 361.7469 198.0296 347.3225 206.9452 335.7766 217.0947 330.9593 217.5999 328.5279 220.2692 327.9062 223.2594 330.7375 222.694 339.4704 224.958 344.019 235.9618 347.7476 243.5543 357.1907 253.4768 352.502 263.2103 339.606 268.9377 347.2653 273.1049 348.9279 293.1163 344.103 309.6945 334.7994 332.5544 326.3612 347.4967 326.0502 Z" id="AM.AR" fill="#cee3f5" stroke="#6e6e6e" stroke-width="0.4">
      <desc>
        <labelrank>9</labelrank>
        <code_hasc>AM.AR</code_hasc>
        <name>Ararat</name>
        <admin>Armenia</admin>
        <type_en>Province</type_en>
        <region/>
        <woe_id>20070211</woe_id>
        <longitude>44</longitude>
        <woe_name>Ararat</woe_name>
        <fips>AM02</fips>
        <woe_label>Ararat, AM, Armenia</woe_label>
        <latitude>39</latitude>
        <iso_a2>AM</iso_a2>
        <postal>AR</postal>
        <type>Marz</type>
        <id>AM.AR</id>
      </desc>
    </path>
    <path d="M 460.7073 194.0485 453.4099 199.7192 445.8617 197.5051 444.5248 188.7532 448.5237 183.9063 457.9045 183.3319 463.6232 186.5328 460.7073 194.0485 Z M 422.6727 185.7019 425.8364 197.6928 438.3444 210.03 440.774 222.2951 447.3735 227.5301 456.4241 245.9315 469.503 258.0079 520.9349 286.5941 530.5622 296.9992 544.3994 295.4493 550.8189 300.1471 557.1493 310.9012 553.2254 331.1207 550.6119 338.186 541.6187 348.1972 538.3525 363.6256 533.9336 369.2217 518.5147 370.8811 482.1702 365.1632 468.2491 374.3135 468.5584 377.1576 463.3778 373.0977 462.5543 372.8653 461.5617 372.9604 460.1994 374.2454 459.4512 375.1257 457.1775 378.7465 454.0758 381.5404 446.3085 385.6954 442.579 386.8877 415.1749 390.8396 398.9123 390.0034 389.9278 393.145 365.1747 411.5081 363.2825 407.176 362.5188 399.0276 361.9674 396.4602 359.8359 390.6733 359.3879 388.0909 359.5531 381.6189 359.3115 379.7636 358.4199 378.7847 354.8897 376.5609 344.1865 350.1655 347.4967 326.0502 344.1817 321.0485 329.1856 303.4619 328.3905 301.6133 328.7804 296.5292 329.9754 294.6818 331.9891 292.2928 331.5814 288.9526 321.3439 250.8456 320.5972 248.8927 318.7957 246.9534 311.5787 241.4363 311.2066 240.0774 311.5839 238.0145 312.5075 234.453 312.8845 232.4569 312.616 230.007 311.668 227.4003 309.3288 223.5145 307.7687 221.5746 306.4793 220.459 305.2904 220.2193 300.3173 220.447 298.9246 220.2065 297.8062 218.8382 296.8937 216.6687 294.5524 201.3056 297.0524 191.7434 296.4206 186.1749 322.4322 180.7245 325.653 181.6998 328.885 183.4613 336.922 189.2693 349.4177 187.9466 352.6398 186.7127 353.9396 185.9399 355.9733 183.9491 361.2191 173.1663 380.5411 162.1354 386.2361 163.5777 393.8051 164.3006 395.84 164.9778 397.1309 166.1172 402.166 172.352 404.5547 173.7323 408.4229 174.7806 409.7814 175.4587 418.4392 184.1551 422.6176 185.6818 422.6727 185.7019 Z" id="AM.GR" fill="#cee3f5" stroke="#6e6e6e" stroke-width="0.4">
      <desc>
        <labelrank>9</labelrank>
        <code_hasc>AM.GR</code_hasc>
        <name>Gegharkunik</name>
        <admin>Armenia</admin>
        <type_en>Province</type_en>
        <region/>
        <woe_id>20070204</woe_id>
        <longitude>45</longitude>
        <woe_name>Gegharkunik</woe_name>
        <fips>AM04</fips>
        <woe_label>Geghark'unik', AM, Armenia</woe_label>
        <latitude>40</latitude>
        <iso_a2>AM</iso_a2>
        <postal>GR</postal>
        <type>Marz</type>
        <id>AM.GR</id>
      </desc>
    </path>
    <path d="M 291.1627 181.827 296.4206 186.1749 294.5524 201.3056 296.8937 216.6687 297.8062 218.8382 298.9246 220.2065 300.3173 220.447 306.4793 220.459 307.7687 221.5746 309.3288 223.5145 311.668 227.4003 312.8845 232.4569 312.5075 234.453 311.2066 240.0774 311.5787 241.4363 320.5972 248.8927 331.5814 288.9526 331.9891 292.2928 328.7804 296.5292 328.3905 301.6133 329.1856 303.4619 347.4967 326.0502 332.5544 326.3612 309.6945 334.7994 293.1163 344.103 273.1049 348.9279 268.9377 347.2653 263.2103 339.606 260.0868 334.2567 249.1093 332.9169 250.2371 325.5517 256.8122 316.7559 248.4093 307.4919 236.6023 311.01 216.5758 312.2289 214.4986 314.8803 211.402 302.9244 217.0409 296.34 210.7896 287.3029 218.5421 281.8455 226.7749 267.3767 232.0882 263.488 230.4446 253.072 241.1891 222.4294 243.0615 210.644 229.8592 206.8536 215.8454 196.3533 213.7351 176.7051 237.4515 171.6958 243.1063 175.1029 252.1672 173.1946 272.0238 181.8422 291.1627 181.827 Z" id="AM.KT" fill="#cee3f5" stroke="#6e6e6e" stroke-width="0.4">
      <desc>
        <labelrank>9</labelrank>
        <code_hasc>AM.KT</code_hasc>
        <name>Kotayk</name>
        <admin>Armenia</admin>
        <type_en>Province</type_en>
        <region/>
        <woe_id>20070208</woe_id>
        <longitude>44</longitude>
        <woe_name>Kotayk</woe_name>
        <fips>AM05</fips>
        <woe_label>Kotayk', AM, Armenia</woe_label>
        <latitude>40</latitude>
        <iso_a2>AM</iso_a2>
        <postal>KT</postal>
        <type>Marz</type>
        <id>AM.KT</id>
      </desc>
    </path>
    <path d="M 309.222 21.4544 314.436 22.0219 324.0253 29.3006 323.8193 33.851 315.7239 39.7659 314.8068 45.7183 316.7148 54.5547 324.6722 59.5962 327.5995 65.7377 312.9402 78.4676 308.7218 79.6338 299.8454 76.6028 291.3896 85.7504 291.9851 90.3767 299.4623 97.6395 314.6276 102.2021 320.8107 110.3455 312.3386 119.7249 304.3775 140.4663 286.7772 149.5401 291.4093 165.0964 291.1627 181.827 272.0238 181.8422 252.1672 173.1946 243.1063 175.1029 237.4515 171.6958 213.7351 176.7051 209.6541 168.5715 192.7259 160.3345 185.2346 159.4363 180.4498 164.4448 174.2875 166.4561 170.2304 165.3514 164.0421 159.0002 158.6519 159.3728 146.2853 158.3234 142.6873 151.3452 131.7846 148.0444 126.6466 137.1781 131.0762 119.0307 138.7441 120.7319 143.4598 119.2 150.9152 98.236 137.2962 94.8657 135.7707 92.2879 140.081 86.9588 139.6874 82.6931 133.4964 77.9493 126.4183 67.4245 116.9306 61.8429 118.9837 37.1222 132.8423 32.1034 150.9334 33.5859 158.6614 27.9602 160.5486 20.5986 163.1441 18.7969 185.7496 30.2217 190.8594 29.4167 198.8079 23.8953 213.0081 31.3318 222.6184 33.4731 236.0537 25.9803 239.1315 33.2872 243.5781 34.5876 252.2793 23.4948 256.9525 21.4079 270.3998 25.6648 302.2078 26.4101 307.9052 25.6489 309.222 21.4544 Z" id="AM.LO" fill="#cee3f5" stroke="#6e6e6e" stroke-width="0.4">
      <desc>
        <labelrank>9</labelrank>
        <code_hasc>AM.LO</code_hasc>
        <name>Lori</name>
        <admin>Armenia</admin>
        <type_en>Province</type_en>
        <region/>
        <woe_id>20070207</woe_id>
        <longitude>44</longitude>
        <woe_name>Lori</woe_name>
        <fips>AM06</fips>
        <woe_label>Lorri, AM, Armenia</woe_label>
        <latitude>40</latitude>
        <iso_a2>AM</iso_a2>
        <postal>LO</postal>
        <type>Marz</type>
        <id>AM.LO</id>
      </desc>
    </path>
    <path d="M 263.2103 339.606 253.4768 352.502 243.5543 357.1907 235.9618 347.7476 224.958 344.019 222.694 339.4704 223.2594 330.7375 220.2692 327.9062 217.5999 328.5279 212.8037 318.1797 214.4986 314.8803 216.5758 312.2289 236.6023 311.01 248.4093 307.4919 256.8122 316.7559 250.2371 325.5517 249.1093 332.9169 260.0868 334.2567 263.2103 339.606 Z" id="AM.ER" fill="#cee3f5" stroke="#6e6e6e" stroke-width="0.4">
      <desc>
        <labelrank>9</labelrank>
        <code_hasc>AM.ER</code_hasc>
        <name>Erevan</name>
        <admin>Armenia</admin>
        <type_en>City</type_en>
        <region/>
        <woe_id>20070212</woe_id>
        <longitude>44</longitude>
        <woe_name>Erevan</woe_name>
        <fips>AM11</fips>
        <woe_label>Yerevan, AM, Armenia</woe_label>
        <latitude>40</latitude>
        <iso_a2>AM</iso_a2>
        <postal>ER</postal>
        <type>Kaghak</type>
        <id>AM.ER</id>
      </desc>
    </path>
    <path d="M 498.5571 496.314 496.7657 490.2375 503.3602 460.8973 499.442 445.5649 512.8905 421.2265 520.0791 414.8837 531.8772 428.1928 557.9908 438.2863 564.1168 444.127 572.8668 461.3665 579.9065 466.8653 592.2045 471.3014 604.0969 488.0725 609.0556 489.5357 631.82 479.8489 639.4278 480.2859 651.3246 492.1604 673.3371 492.0143 679.8506 498.0223 678.6592 506.4316 672.8921 510.9081 674.4817 518.6619 672.9622 523.4829 653.955 528.1684 646.9558 532.6412 644.1437 540.0775 647.344 549.0558 674.5029 564.377 679.7125 577.2668 699 595.1375 692.3575 596.3972 679.3814 604.3981 665.6863 597.7334 657.8413 596.8481 652.7654 601.7371 653.1208 610.5652 671.9219 624.5347 674.8983 633.9285 675.766 650.1119 671.7362 671.5712 680.8033 691.2126 650.1318 679.4807 630.6748 682.8607 610.9064 695.593 595.9753 697.751 582.5921 672.983 570.5435 640.5844 555.1893 615.5471 553.0764 608.0212 554.3625 600.6971 561.1699 591.5916 561.0776 587.3546 554.9836 580.8143 538.9171 573.1554 524.6421 560.8217 511.9601 557.6825 510.057 553.3642 511.4253 547.6082 519.7635 530.6731 518.2046 505.363 511.1092 498.1806 498.5571 496.314 Z" id="AM.SU" fill="#cee3f5" stroke="#6e6e6e" stroke-width="0.4">
      <desc>
        <labelrank>9</labelrank>
        <code_hasc>AM.SU</code_hasc>
        <name>Syunik</name>
        <admin>Armenia</admin>
        <type_en>Province</type_en>
        <region/>
        <woe_id>20070206</woe_id>
        <longitude>46</longitude>
        <woe_name>Syunik</woe_name>
        <fips>AM08</fips>
        <woe_label>Syunik', AM, Armenia</woe_label>
        <latitude>39</latitude>
        <iso_a2>AM</iso_a2>
        <postal>SU</postal>
        <type>Marz</type>
        <id>AM.SU</id>
      </desc>
    </path>
    <path d="M 520.0791 414.8837 512.8905 421.2265 499.442 445.5649 503.3602 460.8973 496.7657 490.2375 498.5571 496.314 471.3418 503.1255 447.5821 517.115 437.7041 519.5548 424.3189 508.9874 410.5403 506.7542 398.6934 487.8671 392.7507 489.8872 386.448 495.7655 378.2614 497.7269 373.9028 494.9441 374.5702 468.3888 357.5602 444.8252 358.3604 427.9619 365.1747 411.5081 389.9278 393.145 398.9123 390.0034 415.1749 390.8396 442.579 386.8877 446.3085 385.6954 454.0758 381.5404 457.1775 378.7465 459.4512 375.1257 460.1994 374.2454 461.5617 372.9604 462.5543 372.8653 463.3778 373.0977 464.0664 373.6723 465.7352 375.7697 468.5584 377.1576 468.9898 381.1224 476.0241 384.2374 499.0948 386.441 505.1631 389.3753 509.9961 394.6341 520.0791 414.8837 Z" id="AM.VD" fill="#cee3f5" stroke="#6e6e6e" stroke-width="0.4">
      <desc>
        <labelrank>9</labelrank>
        <code_hasc>AM.VD</code_hasc>
        <name>Vayots Dzor</name>
        <admin>Armenia</admin>
        <type_en>Province</type_en>
        <region/>
        <woe_id>20070205</woe_id>
        <longitude>45</longitude>
        <woe_name>Vayots Dzor</woe_name>
        <fips>AM10</fips>
        <woe_label>Vayots' Dzor, AM, Armenia</woe_label>
        <latitude>39</latitude>
        <iso_a2>AM</iso_a2>
        <postal>VD</postal>
        <type>Marz</type>
        <id>AM.VD</id>
      </desc>
    </path>
  </g>
</svg>