<?xml version="1.0" encoding="UTF-8"?>
<svg xmlns="http://www.w3.org/2000/svg" width="700" height="700">
  <g id="new_caledonia">
    <path d="M 699 422.9011 698.9 423.0011 698.7499 422.8511 698.8499 422.701 699 422.9011 Z M 663.1372 418.7996 663.0371 418.9497 662.8871 418.8497 662.9871 418.6996 663.1372 418.7996 Z M 1.6502 289.5534 2.0504 290.1035 1.4502 289.8034 1 289.1532 1.1 289.1032 1.6502 289.5534 Z" id="NC.5190" fill="#cee3f5" stroke="#6e6e6e" stroke-width="0.4">
      <desc>
        <labelrank>20</labelrank>
        <code_hasc>-99</code_hasc>
        <name/>
        <admin>New Caledonia</admin>
        <type_en/>
        <region/>
        <woe_id>-99</woe_id>
        <longitude>158</longitude>
        <woe_name/>
        <fips/>
        <woe_label/>
        <latitude>-19</latitude>
        <iso_a2>NC</iso_a2>
        <postal/>
        <type/>
        <id>NC.5190</id>
      </desc>
    </path>
    <path d="M 494.1766 362.3294 493.8765 363.3298 494.1266 364.2801 494.7268 365.2305 495.9273 366.5309 497.4778 366.9311 499.2785 366.731 501.0791 366.1808 502.5296 365.4805 502.8297 366.631 502.7797 368.5817 502.3796 370.6324 501.7293 372.1329 501.9794 374.6338 501.8294 375.7842 501.1791 376.2344 498.6282 376.8346 497.1777 377.6849 495.0269 377.4348 493.2763 376.5345 493.3764 375.034 492.326 374.5338 491.0255 374.1837 489.675 374.1837 488.5246 374.5838 488.1745 373.8335 489.3749 372.9332 489.8751 372.1829 489.9751 371.2826 488.2245 369.0318 487.9744 368.0815 487.6243 365.6806 487.2742 364.7803 485.8737 362.6795 486.6239 362.3294 487.2742 362.1794 487.9244 362.2294 488.6747 362.3294 489.9751 362.9796 490.7754 363.2297 491.6257 362.4295 494.9769 360.1786 495.127 360.8789 494.1766 362.3294 Z M 417.5992 326.2665 417.3491 326.7667 415.5485 327.3669 414.9983 326.9167 414.148 326.6166 414.9483 326.2665 417.5992 326.2665 Z M 460.4646 326.1665 460.8147 327.1168 460.4145 328.0671 459.7643 328.9675 459.4642 330.0178 459.7643 332.0686 460.4145 333.5191 460.2145 334.2193 459.5642 335.2697 459.4142 335.92 459.5642 336.3701 460.9647 337.0704 461.9151 337.8707 463.2155 338.3708 464.3159 338.4209 464.6661 338.5709 465.6664 340.2215 465.0662 341.1718 464.8661 341.672 464.9162 342.1222 465.3163 342.7724 467.0169 343.2226 467.6171 343.7228 468.3674 344.473 468.6175 345.1733 466.9669 345.7735 466.6168 346.5238 466.4667 349.7249 466.1666 350.3751 464.8161 351.3755 463.9658 350.9753 462.8154 350.9753 461.815 350.5752 461.3649 348.9246 461.0148 348.6745 459.3142 348.3244 458.964 347.8242 458.864 346.8739 458.6139 346.6238 453.9622 346.0736 452.4617 345.5734 451.1612 344.423 449.9608 343.0725 449.5607 341.7721 448.4603 341.3719 448.2102 340.8217 448.2102 340.1215 448.5603 339.3712 446.5096 337.5205 446.1594 336.7703 449.2606 337.0704 450.3109 336.8203 451.2613 336.2701 451.8615 335.6699 452.8118 334.2193 454.3124 332.4187 454.8125 331.3683 454.5625 330.1679 451.2613 328.6173 447.4099 329.0175 447.3099 328.5173 447.5599 327.3669 448.1602 326.2165 449.2105 325.7163 450.9111 325.4162 451.2613 325.5162 452.0115 326.0164 453.0119 326.0664 453.5121 325.9164 453.9122 325.5162 454.2623 324.4158 456.013 323.9157 459.8143 326.0664 460.4646 326.1665 Z M 426.0522 309.0603 426.7525 310.3608 428.6032 311.5112 428.8532 311.8613 428.6032 312.4616 428.053 312.6616 426.5524 312.5616 425.9022 312.7617 425.452 313.1618 423.8014 317.0632 423.9015 319.414 424.2016 319.8142 426.3523 319.6141 424.4016 323.3154 423.5513 324.4158 422.7511 324.966 421.6006 325.4662 420.4002 325.8163 419.3999 325.9164 418.6996 325.1661 419.4499 324.866 420.2001 324.3158 421.4506 322.9653 422.701 321.1147 422.8511 320.1643 422.8011 316.8631 423.0512 316.1129 424.3016 314.2622 424.8018 313.1618 425.0519 312.1614 424.8518 311.1611 423.4013 309.3104 422.9011 309.5605 423.0011 309.1104 423.5513 308.5602 424.3516 308.21 425.0519 308.11 425.7021 308.4101 426.0522 309.0603 Z" id="NC.IL" fill="#cee3f5" stroke="#6e6e6e" stroke-width="0.4">
      <desc>
        <labelrank>5</labelrank>
        <code_hasc>NC.IL</code_hasc>
        <name>Îles Loyauté</name>
        <admin>New Caledonia</admin>
        <type_en>Province</type_en>
        <region/>
        <woe_id>24549805</woe_id>
        <longitude>167</longitude>
        <woe_name>Îles Loyauté</woe_name>
        <fips>NC01</fips>
        <woe_label>Loyaute, NC, New Caledonia</woe_label>
        <latitude>-21</latitude>
        <iso_a2>NC</iso_a2>
        <postal>IL</postal>
        <type>Province</type>
        <id>NC.IL</id>
      </desc>
    </path>
    <path d="M 471.8686 428.203 472.3688 429.0033 472.3688 430.4038 471.7686 429.9536 471.1684 428.6032 470.6682 428.5031 470.4181 428.9033 470.6682 430.954 469.968 432.1044 468.3674 431.9043 465.5164 430.7039 465.8165 429.3534 465.8665 426.2023 466.2666 425.1519 467.167 424.9018 468.4674 425.2019 469.8179 425.8522 470.6682 426.6525 471.2184 427.6028 471.8686 428.203 Z M 436.7061 418.5496 436.556 418.8997 436.3059 418.9497 435.9558 418.5996 435.3056 419.0997 434.6053 419.3498 434.6053 419.7 435.5556 419.85 435.4556 420.2502 434.9054 420.6003 434.6053 420.6503 433.5049 420.3502 433.0547 419.9501 433.755 418.5496 433.9551 417.5492 434.6053 417.1491 435.2555 416.949 435.8057 416.999 436.2559 417.2991 436.7061 417.8993 436.7061 418.5496 Z M 398.4424 369.7821 399.2426 369.3819 400.143 369.3819 400.9933 369.8321 403.5942 372.1829 404.8446 372.7331 405.3448 373.6835 407.0954 374.8839 408.9961 375.7842 412.9976 377.0347 412.9976 377.3848 411.5971 377.3848 411.5971 377.7349 411.9472 377.985 412.2973 378.8853 415.0483 379.5856 415.7986 379.9357 416.3488 380.9861 418.2995 382.4366 418.5496 382.8368 418.6996 383.7871 418.9997 384.2873 420.2001 384.8375 419.85 385.1876 421.0004 386.188 423.2012 388.7389 424.2016 389.2891 425.1019 389.9893 426.4524 391.3898 427.6528 392.2901 428.153 391.4899 429.9036 392.7403 430.5539 392.9904 430.5539 393.3905 430.1537 393.6406 428.8532 394.0908 428.8532 394.4909 429.2534 394.691 430.7039 394.4909 432.3045 395.0912 432.6046 394.8411 432.9547 395.8414 433.5049 396.3416 438.3566 397.492 439.0569 397.8922 441.6078 399.9429 442.6082 401.6435 442.7082 402.0937 442.6082 403.4441 442.058 404.1444 442.058 404.4945 442.7582 404.5946 443.2084 404.8446 444.3088 406.4452 446.1094 407.8957 446.3595 408.496 446.2095 408.9961 445.5592 409.0962 445.3091 409.4463 445.9594 410.5967 445.2591 412.7475 444.909 413.4977 444.2588 414.248 444.0087 413.7478 442.6082 414.5981 442.9083 415.3484 441.3077 416.6489 440.3574 416.999 439.1069 416.7989 440.5574 416.1487 440.8075 415.6985 439.7071 415.7986 439.307 415.3484 439.0569 414.6482 438.4067 413.6478 438.2566 412.9976 437.9565 413.3977 437.5564 414.5481 437.1562 414.348 436.3559 412.6975 437.0062 412.3473 436.556 411.6971 436.1058 411.8472 435.8057 412.5974 435.4556 414.6982 435.6557 415.2984 436.7061 416.0487 436.1559 416.1987 434.6053 415.8486 434.1551 416.4488 433.4049 416.7989 432.1544 416.4988 431.4542 415.7986 431.5542 415.0483 432.5046 414.5481 432.5046 414.198 431.6042 414.298 430.5038 414.148 429.8036 413.6478 430.1037 412.6474 429.8036 412.3473 429.0533 412.5974 427.8529 412.1473 426.8025 411.397 426.3523 410.5967 426.1523 410.4967 424.4517 411.1469 422.8011 410.4967 422.3509 410.2466 422.2009 409.6964 422.7511 409.0962 422.2009 408.546 420.2502 408.1458 419.75 408.1958 419.1998 408.9961 418.8497 410.1966 418.3495 411.0469 417.3491 410.7468 417.2991 411.0969 417.049 411.1469 417.4492 412.1473 416.899 412.3973 416.2487 412.1473 416.1487 411.6971 416.2987 411.2469 416.3988 409.8464 416.7489 409.2962 416.7489 408.9461 415.9986 408.9961 415.3484 408.7961 414.7482 408.3959 414.298 407.7457 415.9486 407.8457 416.6489 407.6456 417.049 407.0954 416.1487 407.0454 415.8486 406.5453 416.0487 404.8446 415.5485 404.8446 414.4481 404.6946 413.9479 404.7946 413.4477 406.3452 412.7975 406.4452 412.0472 407.5956 411.5971 407.7957 411.347 407.4456 411.447 406.8954 411.8972 406.3452 411.397 405.9951 410.1465 404.7946 410.1465 404.4945 410.6467 404.0944 410.7968 403.3441 410.4967 403.3441 409.9965 403.8443 408.696 403.5442 408.7961 404.0444 407.7957 404.4445 406.1951 403.6942 405.2948 403.6942 405.2448 402.6439 404.7946 401.8436 404.0944 401.2934 403.3941 401.0933 402.7939 400.7432 402.1937 400.193 401.5935 400.0429 400.8432 401.0933 399.7428 400.393 400.0929 399.7928 400.143 398.8425 400.4431 398.8425 400.8932 399.3427 401.4434 399.5928 401.8436 399.3927 401.8936 398.5424 401.5435 397.9922 400.5931 397.542 400.143 396.9918 401.5435 397.0418 402.5438 397.392 402.4938 396.7918 402.2937 396.4917 401.3434 396.2916 401.0933 395.9415 401.1933 395.2412 401.5435 394.4409 401.1433 393.2405 400.4931 392.6903 398.7425 392.1901 398.1422 392.5402 397.7921 392.3902 397.8922 391.94 398.4424 391.4398 397.8922 391.1898 397.542 390.7896 397.342 390.2394 397.342 389.5892 396.5917 390.0894 396.2916 390.5895 396.3416 391.99 396.0915 392.3402 394.591 392.1901 394.791 392.4402 394.741 393.0904 394.4409 393.5406 393.7407 393.0904 392.5402 391.6399 390.9897 391.0397 389.9393 389.2391 388.8889 388.7389 387.8386 387.9386 387.5384 387.7885 386.6881 388.1387 385.2376 388.1387 384.7374 387.8386 384.5874 386.9882 385.6878 387.4884 385.3377 386.9382 383.9372 385.5877 383.9372 385.1376 384.1872 384.2373 383.7371 384.0372 383.1869 384.1872 382.9868 384.4874 383.1869 385.5877 382.3366 385.2876 382.1865 384.6374 382.2365 383.8371 382.1365 382.9868 381.1862 381.9865 380.786 381.3862 380.786 380.3359 380.3859 380.3359 379.9857 381.1862 379.4856 381.8864 378.7853 382.3866 377.985 382.5867 377.985 380.836 377.5849 380.636 376.6345 380.736 376.5345 381.3362 376.2344 381.4863 375.9843 381.4363 369.2319 378.0851 367.6813 376.6846 368.2815 375.5842 368.2815 375.184 367.5313 375.4341 367.1311 375.2841 367.1812 374.9839 367.9314 374.7839 367.1311 374.1837 366.2808 374.3837 365.4305 374.8839 364.6302 375.184 363.7299 375.034 358.378 372.6831 357.6777 372.0829 357.2776 371.3827 356.6774 369.3319 355.7271 369.2319 355.0768 368.9318 353.6763 367.8314 352.4259 367.6313 352.2758 367.2812 351.4255 366.3809 349.5248 363.0297 349.4248 362.5295 349.6249 362.0293 349.2747 361.6792 349.5248 361.3791 350.4752 360.6788 351.2755 360.3287 352.5759 359.2283 353.8764 358.7781 356.8775 358.5281 357.8278 358.7281 358.328 359.2783 361.029 360.2287 362.0293 360.8789 362.7796 363.83 365.0304 364.9303 365.4305 364.9303 365.9807 364.9303 367.5313 363.93 368.1315 363.6799 368.4816 363.7799 369.532 364.5802 369.9321 364.5802 370.9325 364.2301 371.3827 364.2801 371.8828 364.6302 372.333 365.7807 372.7832 366.3809 374.3837 367.3812 375.4341 368.3816 376.7346 368.8818 377.4848 369.632 378.9354 369.682 379.8857 369.1819 381.6363 369.9822 382.7867 370.0322 384.3873 370.9825 385.6378 372.0329 386.4381 372.433 387.7385 373.6335 388.7889 373.6335 389.4891 373.2833 390.9397 373.0332 392.3902 373.8335 393.2905 374.1336 394.9911 374.2337 395.7414 373.9336 396.1415 372.8332 396.5917 372.0329 398.0422 370.9325 398.4424 369.7821 Z" id="NC.SU" fill="#cee3f5" stroke="#6e6e6e" stroke-width="0.4">
      <desc>
        <labelrank>5</labelrank>
        <code_hasc>NC.SU</code_hasc>
        <name>Sud</name>
        <admin>New Caledonia</admin>
        <type_en>Province</type_en>
        <region/>
        <woe_id>24549807</woe_id>
        <longitude>167</longitude>
        <woe_name>Sud</woe_name>
        <fips>NC03</fips>
        <woe_label>Sud, NC, New Caledonia</woe_label>
        <latitude>-22</latitude>
        <iso_a2>NC</iso_a2>
        <postal>SU</postal>
        <type>Province</type>
        <id>NC.SU</id>
      </desc>
    </path>
    <path d="M 398.4424 369.7821 398.0422 370.9325 396.5917 372.0329 396.1415 372.8332 395.7414 373.9336 394.9911 374.2337 393.2905 374.1336 392.3902 373.8335 390.9397 373.0332 389.4891 373.2833 388.7889 373.6335 387.7385 373.6335 386.4381 372.433 385.6378 372.0329 384.3873 370.9825 382.7867 370.0322 381.6363 369.9822 379.8857 369.1819 378.9354 369.682 377.4848 369.632 376.7346 368.8818 375.4341 368.3816 374.3837 367.3812 372.7832 366.3809 372.333 365.7807 371.8828 364.6302 371.3827 364.2801 370.9325 364.2301 369.9321 364.5802 369.532 364.5802 368.4816 363.7799 368.1315 363.6799 367.5313 363.93 365.9807 364.9303 365.4305 364.9303 365.0304 364.9303 362.7796 363.83 362.0293 360.8789 361.029 360.2287 358.328 359.2783 357.8278 358.7281 356.8775 358.5281 353.8764 358.7781 352.5759 359.2283 351.2755 360.3287 350.4752 360.6788 349.5248 361.3791 349.2747 361.6792 349.1247 361.5791 348.7746 361.5791 348.0243 361.9293 347.9243 362.6795 347.4741 362.9296 346.9739 362.6795 346.7738 361.9293 345.9736 362.5295 345.5234 362.5795 344.9732 362.3294 345.9235 361.279 345.7735 360.3787 345.0232 359.8785 343.8728 360.0786 344.323 359.2783 344.0729 358.7281 342.8724 357.8778 342.4223 358.6281 342.5723 359.7785 342.1722 360.4788 341.622 360.8289 341.1718 360.6788 340.7217 360.2787 340.4716 359.7285 340.8217 358.378 341.1218 357.9278 340.7217 357.4277 340.0214 357.2776 339.5713 356.9775 338.921 356.0272 335.1197 351.5255 334.8696 350.7753 334.7695 347.8242 334.3694 347.224 333.369 347.5741 333.4191 346.8739 333.7192 346.4737 333.7192 346.0736 333.4191 346.0736 332.6688 345.7735 332.9689 345.3233 332.9189 345.1233 332.5187 345.1233 331.9685 345.3733 331.8685 346.0236 331.2683 346.1236 330.8181 345.6735 330.6181 344.8231 329.6677 344.9232 329.2676 345.2233 329.5677 345.7735 328.8674 346.5238 327.9171 343.9728 327.2669 342.9725 326.4166 342.4223 327.4169 341.722 326.9668 341.2719 325.8664 340.8217 325.0161 340.2215 325.8163 340.1215 326.2665 339.7713 326.3165 339.2712 326.0164 338.771 325.3662 338.4209 324.7159 338.3208 324.3158 338.1207 324.2658 337.2704 323.9657 337.2704 323.1654 337.8206 322.3651 337.4205 321.1647 336.2201 320.6145 336.07 319.5641 336.07 319.0139 335.8199 318.1636 334.3694 317.0132 334.1693 316.1129 333.5691 313.8621 331.3183 312.3115 330.318 311.6613 329.6177 311.1111 328.7174 312.2115 328.8174 313.0118 328.5173 313.4119 327.667 313.0618 326.9668 312.3115 326.4666 311.4612 326.3165 310.6609 325.7163 309.5105 323.2154 308.5602 322.6652 307.0096 318.9139 306.7095 319.1139 305.9592 319.314 305.459 318.3637 302.2079 316.2629 301.4076 315.1125 300.4072 311.2611 299.1068 310.6109 298.6066 310.1107 298.3565 309.0103 298.9067 308.8603 300.3072 309.3604 300.7574 308.7602 300.9574 307.8599 300.9574 306.2093 300.7574 305.8092 299.5569 304.4587 298.9567 304.1586 296.5559 304.0585 295.9556 303.8085 296.3058 303.1082 296.3558 302.408 296.0057 302.0578 295.3054 302.3579 295.5055 302.9081 295.2554 303.5083 294.7552 304.0085 294.255 304.2086 293.5048 304.0085 293.1046 303.0082 291.9042 302.2579 292.1043 301.2075 293.0046 300.4573 294.6052 300.8574 295.0553 300.2572 294.8552 299.5569 293.8549 298.3565 294.4551 298.0564 294.8052 297.5562 294.8552 296.856 294.5051 296.1057 293.7549 295.5055 293.1546 295.6555 292.5044 296.0057 291.7041 296.1557 291.7041 295.7556 292.1043 295.2554 292.3544 294.6552 291.6541 294.4051 291.354 293.9049 291.6541 292.4544 292.7545 292.4544 293.7048 293.0046 294.7552 293.8549 295.5555 294.7552 296.0557 296.0057 297.7063 296.8059 301.5076 301.2075 302.3079 301.9078 304.6588 303.2583 305.7091 303.4083 306.8095 303.0082 307.1597 302.9582 307.8099 304.4587 308.3601 305.0089 309.3104 305.1589 308.8102 304.5087 308.06 302.658 307.7099 300.9074 307.8099 300.5073 308.3101 300.4573 317.5134 303.9085 319.164 305.309 321.9149 308.7602 322.6652 309.4605 323.6656 310.1607 324.766 310.7109 325.6163 310.961 327.2168 312.4115 329.3176 313.1618 330.0679 313.812 331.4684 315.7127 332.2686 316.1129 332.7188 316.463 334.5695 319.0639 337.2204 321.4148 337.7206 321.4148 339.2712 322.3651 340.0714 323.1154 339.8214 323.8656 340.7217 324.4659 342.7724 324.5159 343.6727 325.3162 344.6231 325.6163 346.5238 327.1668 351.9257 328.2172 352.776 328.9675 353.5263 328.5673 353.8264 328.5173 354.4766 328.7674 355.2269 329.6177 356.4773 330.6681 356.8775 331.3683 356.6274 332.2186 357.1776 334.4194 357.6777 335.2197 359.2783 336.2201 359.8785 336.7703 360.1286 337.5705 360.5788 337.7706 363.2798 338.1207 364.1801 338.4209 364.4802 338.721 364.2301 340.5216 363.93 341.722 363.5799 342.4223 363.98 343.5227 364.1801 344.423 364.5802 345.0232 366.2808 346.2737 367.6813 347.0239 369.0318 348.3244 369.3819 348.4745 370.7324 348.5245 371.0826 348.7245 371.1826 349.0747 370.9825 349.6249 371.4327 349.4748 371.6828 349.2247 373.2333 350.5252 373.9336 351.2254 374.1336 351.8257 374.5338 352.1258 374.7839 352.5759 373.9336 352.5759 373.1333 352.3759 371.6828 351.4755 372.383 352.6259 372.9832 353.1261 374.1336 353.6763 375.184 355.9271 376.3344 356.4273 379.3855 357.2276 380.3359 358.1279 381.8364 357.7278 383.1869 358.478 384.1872 359.7785 384.5874 361.079 385.4877 360.8289 385.9879 363.1297 386.9882 364.03 386.4881 362.9796 386.4381 362.5795 386.6381 362.1794 387.1383 361.8793 387.5885 361.8793 388.0386 362.2294 388.3887 362.8796 388.6388 362.4295 388.7389 361.8292 388.5388 361.229 387.9886 360.6788 388.8889 360.9289 389.6392 361.8292 391.3898 365.1304 391.7399 366.0307 391.4899 366.4809 390.4395 366.2308 390.7896 366.831 392.8904 368.0815 392.5903 368.5817 392.9904 368.6317 393.8907 368.2815 393.7907 367.5813 392.8904 366.2308 392.4402 364.9804 392.3402 363.98 392.7403 363.5799 393.7407 364.1801 395.2912 365.8807 397.0919 366.1808 397.542 366.4309 397.6421 366.781 396.8418 367.0811 396.6917 367.3312 396.9418 367.5813 397.7421 367.7314 398.0422 369.9321 398.4424 369.7821 Z M 303.5584 295.2554 304.4087 296.3558 303.4083 296.1057 301.9578 295.3554 300.7574 294.5051 300.4573 293.5548 300.4072 291.2039 300.7574 291.2039 303.0582 294.205 303.5584 295.2554 Z M 291.304 291.5541 290.9539 292.4544 290.6037 291.7041 289.8535 291.9542 289.3533 291.5541 288.8531 290.2536 288.8031 289.8535 289.1532 289.4033 289.4533 288.1028 289.8535 288.0028 290.3536 288.4029 290.7538 289.9035 291.304 290.5537 291.304 291.5541 Z M 276.2986 275.4483 274.9481 276.6987 273.3976 273.2975 273.1475 272.0971 273.1975 269.8463 272.9474 269.046 272.0471 268.5458 272.3472 267.8956 273.1975 268.2957 273.7977 269.096 274.8981 271.5969 275.2982 273.3475 276.2986 275.4483 Z" id="NC.NO" fill="#cee3f5" stroke="#6e6e6e" stroke-width="0.4">
      <desc>
        <labelrank>5</labelrank>
        <code_hasc>NC.NO</code_hasc>
        <name>Nord</name>
        <admin>New Caledonia</admin>
        <type_en>Province</type_en>
        <region/>
        <woe_id>24549806</woe_id>
        <longitude>165</longitude>
        <woe_name>Nord</woe_name>
        <fips>NC00</fips>
        <woe_label>Nord, NC, New Caledonia</woe_label>
        <latitude>-21</latitude>
        <iso_a2>NC</iso_a2>
        <postal>NO</postal>
        <type>Province</type>
        <id>NC.NO</id>
      </desc>
    </path>
  </g>
</svg>