<?xml version="1.0" encoding="UTF-8"?>
<svg xmlns="http://www.w3.org/2000/svg" width="700" height="700">
  <g id="estonia">
    <path d="M 74.0333 426.4784 74.6503 428.9402 70.8007 433.4225 68.8423 428.7669 71.3771 421.9572 74.0333 426.4784 Z" id="EE.6019" fill="#cee3f5" stroke="#6e6e6e" stroke-width="0.4">
      <desc>
        <labelrank>20</labelrank>
        <code_hasc>-99</code_hasc>
        <name/>
        <admin>Estonia</admin>
        <type_en/>
        <region/>
        <woe_id>-99</woe_id>
        <longitude>22</longitude>
        <woe_name/>
        <fips/>
        <woe_label/>
        <latitude>58</latitude>
        <iso_a2>EE</iso_a2>
        <postal/>
        <type/>
        <id>EE.6019</id>
      </desc>
    </path>
    <path d="M 309.224 145.273 306.3638 145.912 303.584 142.5687 305.0898 134.9138 308.2383 137.6193 309.224 145.273 Z M 257.2865 261.7793 256.2248 256.3562 262.6452 246.5487 259.541 236.135 249.7429 229.3638 237.4115 229.9891 232.5344 223.7571 225.7407 220.0369 217.9525 207.9726 220.588 206.4219 218.8552 200.9268 222.6184 197.2014 236.7687 198.9054 253.0144 196.5861 257.3279 201.405 259.6421 196.6207 251.6454 180.942 253.5052 176.5164 258.4728 175.3048 267.1421 184.3963 273.2762 184.4236 267.3822 174.2504 282.8631 171.3547 286.2624 160.6427 295.8093 159.5797 303.6487 166.9568 309.1392 163.1343 319.0452 169.0786 320.6444 166.2994 317.0794 161.812 321.0177 161.6433 322.953 156.6651 330.0274 167.1893 333.0718 166.6837 337.9613 158.5878 333.8461 143.5796 337.2113 141.4729 350.7743 155.057 359.1562 153.1369 368.1822 157.7179 370.2063 156.6707 369.4476 151.2019 373.524 149.1841 401.4713 160.0311 402.331 152.4644 416.038 151.0824 411.2264 143.4569 410.3987 122.612 424.6341 141.7267 430.3823 144.8747 433.5052 144.2598 434.9257 140.4342 431.5029 131.7277 432.2131 127.3834 430.1075 126.0486 432.7267 122.8638 435.9709 123.9887 441.7262 130.4415 442.9606 139.8226 447.5101 143.0045 447.4566 148.758 446.9098 149.7162 445.0054 152.1726 444.8013 153.3977 444.9797 154.5426 445.9371 156.9518 446.4023 157.8408 447.6787 159.7661 448.5559 169.4806 452.5454 173.5878 452.8574 174.8108 453.0979 176.3425 453.6812 184.3115 456.0548 190.885 458.0748 201.475 458.1561 202.6615 457.9762 204.5397 455.9895 206.3019 442.3525 202.7528 427.997 206.5573 427.7934 209.2174 427.1191 209.5192 424.3507 209.028 420.1889 206.5055 408.9437 208.032 408.8784 210.1728 411.0644 214.784 411.6547 219.0654 411.1598 221.7513 410.1567 224.6922 408.0927 228.343 404.9752 235.6719 406.4403 241.2626 406.8926 242.0341 408.1605 243.357 408.1294 245.4714 407.5016 246.5011 406.6469 247.6507 405.4024 248.4541 399.5562 247.5344 398.489 248.6127 398.1761 250.4539 398.4565 254.8868 397.7807 259.9274 389.3093 264.711 384.904 262.2934 378.1786 256.7498 376.7613 255.0369 373.2817 243.7453 372.1168 242.7561 371.0944 242.6952 367.9767 242.9125 360.3543 235.8193 353.2957 233.1073 350.8063 231.1605 350.2942 230.3671 347.4435 225.0086 345.5206 223.1155 344.9238 221.329 345.6129 214.3233 341.5745 214.0211 334.16 215.8306 332.6127 216.5681 331.6981 217.3971 319.7079 215.3332 309.5819 225.6343 308.876 229.8248 307.3296 232.211 307.5056 233.3599 308.9256 236.2951 309.0708 237.3776 308.2115 240.2242 299.2538 239.3424 287.4122 241.6392 277.7031 256.1929 270.4126 255.2349 266.9718 254.0407 264.5463 254.0689 263.0369 254.7231 262.2192 255.7331 260.4324 259.564 257.2865 261.7793 Z" id="EE.HA" fill="#cee3f5" stroke="#6e6e6e" stroke-width="0.4">
      <desc>
        <labelrank>8</labelrank>
        <code_hasc>EE.HA</code_hasc>
        <name>Harju</name>
        <admin>Estonia</admin>
        <type_en>County</type_en>
        <region/>
        <woe_id>2345276</woe_id>
        <longitude>25</longitude>
        <woe_name>Harju</woe_name>
        <fips>EN01</fips>
        <woe_label>Harju County, EE, Estonia</woe_label>
        <latitude>59</latitude>
        <iso_a2>EE</iso_a2>
        <postal>HA</postal>
        <type>Maakond</type>
        <id>EE.HA</id>
      </desc>
    </path>
    <path d="M 620.3215 303.304 563.4485 293.3036 554.9421 287.9191 544.5924 290.2144 542.0605 277.5729 539.3546 274.572 547.3858 269.4288 551.0796 261.1024 550.1616 241.7932 565.2912 233.8323 565.0206 224.4069 556.6046 219.1219 554.7663 211.6711 547.3535 214.1231 543.8037 210.3977 550.0215 193.7101 540.3329 189.4345 544.2495 185.564 544.8377 179.5707 549.5801 180.2066 546.554 164.3623 548.1941 159.6061 553.1054 165.0039 564.9548 170.6746 584.0833 172.3618 615.4423 170.1664 665.2918 179 673.8266 174.5595 680.684 163.1824 690.011 171.9847 699 185.3566 698.5712 189.333 695.9335 187.7049 691.2768 191.6987 679.1824 194.3479 689.5735 197.1962 687.4436 200.2101 674.8663 200.1523 666.6255 206.7462 662.6345 230.8797 649.0703 266.6535 623.6751 291.383 620.3215 303.304 Z" id="EE.IV" fill="#cee3f5" stroke="#6e6e6e" stroke-width="0.4">
      <desc>
        <labelrank>8</labelrank>
        <code_hasc>EE.IV</code_hasc>
        <name>Ida-Viru</name>
        <admin>Estonia</admin>
        <type_en>County</type_en>
        <region/>
        <woe_id>2345278</woe_id>
        <longitude>27</longitude>
        <woe_name>Ida-Viru</woe_name>
        <fips>EN03</fips>
        <woe_label>Ida-Viru County, EE, Estonia</woe_label>
        <latitude>59</latitude>
        <iso_a2>EE</iso_a2>
        <postal>IV</postal>
        <type>Maakond</type>
        <id>EE.IV</id>
      </desc>
    </path>
    <path d="M 455.9895 206.3019 455.018 211.6412 459.4632 219.4153 459.0512 223.3014 465.6791 226.9899 456.8318 242.9133 455.7902 252.0732 467.6737 255.1783 477.7058 268.6986 480.7599 278.0546 479.4755 288.5187 475.3713 292.4773 474.9929 299.3649 465.9433 299.9788 459.9882 303.092 457.5295 312.1268 454.4012 314.5996 450.0511 313.2784 444.3484 317.4217 437.7159 329.3993 400.1845 344.6309 390.4499 344.1042 380.6266 340.0225 383.1621 329.3924 384.3154 326.801 384.7353 325.6481 384.7481 324.4794 383.7792 323.204 381.9563 322.1511 378.4826 321.7288 374.711 320.405 377.4368 313.1694 375.1449 305.5171 380.3929 301.9043 383.0169 296.2031 383.8768 293.6751 379.7382 288.2003 386.8415 278.7811 385.381 269.2877 389.3093 264.711 397.7807 259.9274 398.4565 254.8868 398.1761 250.4539 398.489 248.6127 399.5562 247.5344 405.4024 248.4541 406.6469 247.6507 407.5016 246.5011 408.1294 245.4714 408.1605 243.357 406.8926 242.0341 406.4403 241.2626 404.9752 235.6719 408.0927 228.343 410.1567 224.6922 411.1598 221.7513 411.6547 219.0654 411.0644 214.784 408.8784 210.1728 408.7069 208.8966 408.9437 208.032 420.1889 206.5055 424.3507 209.028 427.1191 209.5192 427.7934 209.2174 427.997 206.5573 442.3525 202.7528 455.9895 206.3019 Z" id="EE.JR" fill="#cee3f5" stroke="#6e6e6e" stroke-width="0.4">
      <desc>
        <labelrank>8</labelrank>
        <code_hasc>EE.JR</code_hasc>
        <name>Järva</name>
        <admin>Estonia</admin>
        <type_en>County</type_en>
        <region/>
        <woe_id>2345279</woe_id>
        <longitude>25</longitude>
        <woe_name>Järva</woe_name>
        <fips>EN04</fips>
        <woe_label>Jarva County, EE, Estonia</woe_label>
        <latitude>58</latitude>
        <iso_a2>EE</iso_a2>
        <postal>JR</postal>
        <type>Maakond</type>
        <id>EE.JR</id>
      </desc>
    </path>
    <path d="M 539.3546 274.572 542.0605 277.5729 544.5924 290.2144 554.9421 287.9191 563.4485 293.3036 620.3215 303.304 616.513 316.7917 618.5682 326.342 581.5934 333.4778 573.1309 339.6206 573.1158 349.0068 556.5007 342.5183 550.9431 357.5869 540.942 359.9761 534.7451 357.3009 529.5281 365.7843 517.5534 361.7442 512.2754 364.3288 506.959 363.0667 503.3468 366.4095 499.2993 362.7348 485.4925 371.4193 475.9652 373.1449 452.6718 349.2752 434.5004 346.7415 439.1058 340.8514 437.7159 329.3993 444.3484 317.4217 450.0511 313.2784 454.4012 314.5996 457.5295 312.1268 459.9882 303.092 465.9433 299.9788 474.9929 299.3649 475.3713 292.4773 479.4755 288.5187 497.0652 282.1265 507.4214 289.1609 511.9509 287.1938 512.5507 281.9154 517.8134 278.0481 523.6073 279.6269 539.3546 274.572 Z" id="EE.JN" fill="#cee3f5" stroke="#6e6e6e" stroke-width="0.4">
      <desc>
        <labelrank>8</labelrank>
        <code_hasc>EE.JN</code_hasc>
        <name>Jõgeva</name>
        <admin>Estonia</admin>
        <type_en>County</type_en>
        <region/>
        <woe_id>2345280</woe_id>
        <longitude>26</longitude>
        <woe_name>Jõgeva</woe_name>
        <fips>EN05</fips>
        <woe_label>Jogeva County, EE, Estonia</woe_label>
        <latitude>58</latitude>
        <iso_a2>EE</iso_a2>
        <postal>JN</postal>
        <type>Maakond</type>
        <id>EE.JN</id>
      </desc>
    </path>
    <path d="M 548.1941 159.6061 546.554 164.3623 549.5801 180.2066 544.8377 179.5707 544.2495 185.564 540.3329 189.4345 550.0215 193.7101 543.8037 210.3977 547.3535 214.1231 554.7663 211.6711 556.6046 219.1219 565.0206 224.4069 565.2912 233.8323 550.1616 241.7932 551.0796 261.1024 547.3858 269.4288 539.3546 274.572 523.6073 279.6269 517.8134 278.0481 512.5507 281.9154 511.9509 287.1938 507.4214 289.1609 497.0652 282.1265 479.4755 288.5187 480.7599 278.0546 477.7058 268.6986 467.6737 255.1783 455.7902 252.0732 456.8318 242.9133 465.6791 226.9899 459.0512 223.3014 459.4632 219.4153 455.018 211.6412 455.9895 206.3019 457.9762 204.5397 458.1561 202.6615 458.0748 201.475 453.6812 184.3115 452.8574 174.8108 452.5454 173.5878 448.5559 169.4806 447.6787 159.7661 446.4023 157.8408 445.9371 156.9518 444.9797 154.5426 444.8013 153.3977 445.0054 152.1726 446.9098 149.7162 447.4566 148.758 452.6331 131.5496 459.0562 139.3689 461.2521 138.8469 461.2617 133.7785 463.8788 131.0962 472.9454 137.5469 473.6682 141.1356 494.8248 141.3965 517.9815 151.5656 527.2929 147.4266 531.7306 147.8553 539.8308 151.3974 548.1941 159.6061 Z" id="EE.LV" fill="#cee3f5" stroke="#6e6e6e" stroke-width="0.4">
      <desc>
        <labelrank>8</labelrank>
        <code_hasc>EE.LV</code_hasc>
        <name>Lääne-Viru</name>
        <admin>Estonia</admin>
        <type_en>County</type_en>
        <region/>
        <woe_id>2345282</woe_id>
        <longitude>26</longitude>
        <woe_name>Lääne-Viru</woe_name>
        <fips>EN08</fips>
        <woe_label>Laane-Viru County, EE, Estonia</woe_label>
        <latitude>59</latitude>
        <iso_a2>EE</iso_a2>
        <postal>LV</postal>
        <type>Maakond</type>
        <id>EE.LV</id>
      </desc>
    </path>
    <path d="M 629.3361 434.5729 603.3248 430.1249 598.6633 422.6759 588.8539 422.8028 585.8752 420.2874 581.921 423.1199 575.3986 420.425 571.2912 426.7465 566.1449 424.0054 557.8796 424.7012 550.7755 435.978 540.5314 438.2251 538.1255 435.6495 534.4736 439.3714 531.197 438.887 531.4378 445.3991 526.5615 449.6213 518.2204 440.2623 507.0105 444.0165 502.5788 438.504 486.9451 449.8714 468.3157 448.1326 465.1875 411.8348 479.5059 388.3057 475.9652 373.1449 485.4925 371.4193 499.2993 362.7348 503.3468 366.4095 506.959 363.0667 512.2754 364.3288 517.5534 361.7442 529.5281 365.7843 534.7451 357.3009 540.942 359.9761 550.9431 357.5869 556.5007 342.5183 573.1158 349.0068 573.1309 339.6206 581.5934 333.4778 618.5682 326.342 632.9087 392.32 626.3145 408.2959 625.1446 419.0112 629.3361 434.5729 Z" id="EE.TA" fill="#cee3f5" stroke="#6e6e6e" stroke-width="0.4">
      <desc>
        <labelrank>8</labelrank>
        <code_hasc>EE.TA</code_hasc>
        <name>Tartu</name>
        <admin>Estonia</admin>
        <type_en>County</type_en>
        <region/>
        <woe_id>2345287</woe_id>
        <longitude>26</longitude>
        <woe_name>Tartu</woe_name>
        <fips>EN18</fips>
        <woe_label>Tartu County, EE, Estonia</woe_label>
        <latitude>58</latitude>
        <iso_a2>EE</iso_a2>
        <postal>TA</postal>
        <type>Maakond</type>
        <id>EE.TA</id>
      </desc>
    </path>
    <path d="M 59.3316 269.369 48.7057 270.1323 34.8916 261.135 33.1176 258.8212 34.5496 255.4393 46.7435 256.8224 79.0332 254.761 76.9537 251.7084 81.9329 252.7939 82.3371 245.377 90.4112 241.2827 94.1088 231.2774 99.8727 231.6396 107.5991 235.8317 104.7751 241.6412 109.1715 249.5373 120.1109 249.4814 130.3006 255.293 131.3677 265.4491 137.9353 275.2055 140.0615 286.0912 137.5754 288.406 131.0253 284.1517 129.271 286.8256 122.4257 286.7243 120.9139 289.2999 122.6599 295.6463 117.9689 298.2998 111.9904 296.9819 110.8605 294.5505 116.5125 289.2153 115.8257 286.9582 111.2076 287.7836 106.508 291.2618 96.1871 312.4682 85.1129 315.0718 79.3218 313.0451 75.4041 308.2043 79.4369 304.0293 74.9246 293.3262 73.7375 279.3952 66.1325 270.5067 59.3316 269.369 Z" id="EE.HI" fill="#cee3f5" stroke="#6e6e6e" stroke-width="0.4">
      <desc>
        <labelrank>8</labelrank>
        <code_hasc>EE.HI</code_hasc>
        <name>Hiiu</name>
        <admin>Estonia</admin>
        <type_en>County</type_en>
        <region/>
        <woe_id>2345277</woe_id>
        <longitude>22</longitude>
        <woe_name>Hiiu</woe_name>
        <fips>EN02</fips>
        <woe_label>Hiiu County, EE, Estonia</woe_label>
        <latitude>58</latitude>
        <iso_a2>EE</iso_a2>
        <postal>HI</postal>
        <type>Maakond</type>
        <id>EE.HI</id>
      </desc>
    </path>
    <path d="M 160.7297 244.421 168.171 247.3105 175.4268 246.2535 179.9839 253.2 179.1475 258.8411 167.51 260.2773 161.68 257.1536 160.1807 259.3847 153.4117 258.7743 150.9511 246.0892 160.7297 244.421 Z M 257.2865 261.7793 254.9518 265.8411 255.2725 268.93 259.1642 276.1297 264.9877 291.5819 264.8182 293.1964 260.7444 295.451 259.9154 296.6238 259.7948 298.6539 260.1381 300.1379 261.6831 302.0592 256.931 305.6274 256.075 306.9946 252.0289 308.6366 251.4117 310.7212 251.9736 311.845 253.9447 312.7036 259.0311 312.9661 260.1529 313.7268 257.8533 321.4486 245.4131 327.3169 239.122 326.6319 233.3476 336.4156 227.4456 334.2856 227.3999 344.3696 231.2212 350.9862 203.5815 349.5331 196.2811 351.7047 193.9986 343.3721 188.7658 349.1128 186.9474 345.3138 189.5073 338.8015 188.2778 319.1693 193.7695 316.7105 192.6951 308.6804 198.2115 310.9705 210.6472 308.8079 221.9629 313.6695 220.581 303.6419 223.9962 302.4078 230.2196 305.4271 224.0964 299.1807 220.6711 298.8026 217.618 301.9473 215.7671 299.1911 200.8813 299.1194 194.0561 302.8685 181.5735 304.434 186.0234 297.1065 192.7285 293.4444 186.4088 283.7574 182.6078 269.9537 185.1316 266.8553 200.5261 265.6521 205.1117 261.8723 205.6645 257.9388 203.6514 249.1423 198.9233 244.6556 204.3935 253.6816 200.6299 254.8017 197.2941 261.8331 187.5792 256.7971 182.2174 249.5126 185.242 249.6747 185.4347 243.2529 191.8346 236.8086 194.6455 240.1118 195.3356 229.2569 191.0652 210.6629 197.168 207.1332 202.8128 208.2916 209.9721 202.1048 217.9525 207.9726 225.7407 220.0369 232.5344 223.7571 237.4115 229.9891 249.7429 229.3638 259.541 236.135 262.6452 246.5487 256.2248 256.3562 257.2865 261.7793 Z" id="EE.LN" fill="#cee3f5" stroke="#6e6e6e" stroke-width="0.4">
      <desc>
        <labelrank>8</labelrank>
        <code_hasc>EE.LN</code_hasc>
        <name>Lääne</name>
        <admin>Estonia</admin>
        <type_en>County</type_en>
        <region/>
        <woe_id>2345281</woe_id>
        <longitude>23</longitude>
        <woe_name>Lääne</woe_name>
        <fips>EN07</fips>
        <woe_label>Laane County, EE, Estonia</woe_label>
        <latitude>59</latitude>
        <iso_a2>EE</iso_a2>
        <postal>LN</postal>
        <type>Maakond</type>
        <id>EE.LN</id>
      </desc>
    </path>
    <path d="M 237.9852 445.463 234.3694 447.1868 231.4559 444.1928 233.1534 436.1362 239.6173 436.0655 240.3744 441.0782 237.9852 445.463 Z M 196.2811 351.7047 203.5815 349.5331 231.2212 350.9862 227.3999 344.3696 227.4456 334.2856 233.3476 336.4156 239.122 326.6319 245.4131 327.3169 257.8533 321.4486 260.8433 324.275 274.2363 327.5126 282.7909 329.0348 288.4484 327.8406 290.1213 326.9256 293.8771 320.2138 297.3886 317.2886 300.9912 315.8014 303.8912 316.4737 304.2694 317.2709 304.1024 318.5922 304.0274 319.7155 305.1441 321.225 306.6384 321.2302 315.051 318.9292 319.1988 313.34 329.6117 315.7585 332.4106 315.4208 335.1946 314.3092 337.2329 314.2115 339.8769 314.981 341.7197 317.3342 343.3388 330.7422 353.6819 321.6589 359.0722 321.5235 359.7425 319.4764 367.0257 321.3582 370.4438 321.3169 374.711 320.405 378.4826 321.7288 381.9563 322.1511 383.7792 323.204 384.7481 324.4794 384.7353 325.6481 384.3154 326.801 383.6526 328.1489 383.1621 329.3924 380.6266 340.0225 377.7081 341.4523 376.8723 342.8114 376.6452 344.3171 376.9799 345.8267 377.4505 347.3508 377.4627 349.4717 376.2795 350.4083 371.9053 351.9224 355.0687 364.0745 350.8232 368.4626 349.9861 370.1778 350.1727 370.7925 351.3888 373.5696 351.8489 375.9217 351.7676 380.9713 348.4911 383.326 347.9009 385.8697 345.4381 401.5387 346.6785 404.2193 349.2409 405.4002 352.789 402.0902 363.6681 404.9524 365.2418 405.7683 375.8955 414.288 377.1836 415.6375 377.6108 417.7147 375.5915 419.9782 375.5286 421.064 375.6399 422.7199 375.5677 430.0691 375.0788 430.9806 374.4044 431.0825 372.5255 429.2004 366.4756 430.4561 365.4976 431.5711 364.7444 433.0619 364.8846 434.8493 365.2572 436.5452 365.0824 438.3021 364.5818 438.9462 362.8122 438.0978 361.5235 437.9421 359.3009 440.7288 361.8308 444.8292 361.601 446.2583 355.7965 446.2295 354.1916 449.7939 351.0289 452.029 350.1627 453.2868 349.9883 454.5106 351.3512 459.9014 352.5059 462.301 345.608 468.9862 342.6994 470.8778 334.0887 471.8731 327.7085 476.6727 318.513 473.1012 312.7563 482.2987 295.8573 482.2284 285.2569 489.6184 280.4331 498.198 274.5561 499.6182 269.7621 497.4188 281.3381 465.2217 289.0682 455.2186 291.2399 417.6663 300.1297 409.9168 300.749 400.5848 289.3522 389.1266 280.3511 386.4314 275.1396 389.8751 271.4107 402.6549 266.2645 410.5171 262.5829 412.2248 256.5651 410.8247 252.3872 417.314 249.4151 417.2891 237.4916 401.2353 223.8122 396.1342 221.6148 393.0225 211.2811 394.8174 209.4232 382.8282 205.2147 375.1029 206.3095 356.4245 204.7711 353.8104 200.1436 355.0707 196.2811 351.7047 Z" id="EE.PR" fill="#cee3f5" stroke="#6e6e6e" stroke-width="0.4">
      <desc>
        <labelrank>8</labelrank>
        <code_hasc>EE.PR</code_hasc>
        <name>Pärnu</name>
        <admin>Estonia</admin>
        <type_en>County</type_en>
        <region/>
        <woe_id>2345283</woe_id>
        <longitude>23</longitude>
        <woe_name>Pärnu</woe_name>
        <fips>EN11</fips>
        <woe_label>Parnu County, EE, Estonia</woe_label>
        <latitude>58</latitude>
        <iso_a2>EE</iso_a2>
        <postal>PR</postal>
        <type>Maakond</type>
        <id>EE.PR</id>
      </desc>
    </path>
    <path d="M 629.3361 434.5729 641.8559 456.8086 642.1481 474.5016 646.3623 477.0263 647.0941 482.1005 646.0528 492.5021 658.3688 498.1972 661.2322 504.3977 657.2653 509.1555 650.2587 512.1388 634.0791 514.7619 615.8377 508.3089 605.1105 511.0593 599.5746 506.5603 605.1238 498.3155 603.0701 492.9931 597.5329 494.0793 582.2483 484.7255 576.3511 487.1769 576.0077 492.9811 563.5777 488.2175 545.5537 490.3398 536.1263 487.2744 527.394 488.1468 520.2256 484.8624 521.9589 459.4943 526.5615 449.6213 531.4378 445.3991 531.197 438.887 534.4736 439.3714 538.1255 435.6495 540.5314 438.2251 550.7755 435.978 557.8796 424.7012 566.1449 424.0054 571.2912 426.7465 575.3986 420.425 581.921 423.1199 585.8752 420.2874 588.8539 422.8028 598.6633 422.6759 603.3248 430.1249 629.3361 434.5729 Z" id="EE.PL" fill="#cee3f5" stroke="#6e6e6e" stroke-width="0.4">
      <desc>
        <labelrank>8</labelrank>
        <code_hasc>EE.PL</code_hasc>
        <name>Põlva</name>
        <admin>Estonia</admin>
        <type_en>County</type_en>
        <region/>
        <woe_id>2345284</woe_id>
        <longitude>27</longitude>
        <woe_name>Põlva</woe_name>
        <fips>EN12</fips>
        <woe_label>Polva County, EE, Estonia</woe_label>
        <latitude>58</latitude>
        <iso_a2>EE</iso_a2>
        <postal>PL</postal>
        <type>Maakond</type>
        <id>EE.PL</id>
      </desc>
    </path>
    <path d="M 389.3093 264.711 385.381 269.2877 386.8415 278.7811 379.7382 288.2003 383.8768 293.6751 383.0169 296.2031 380.3929 301.9043 375.1449 305.5171 377.4368 313.1694 374.711 320.405 370.4438 321.3169 367.0257 321.3582 359.7425 319.4764 359.0722 321.5235 353.6819 321.6589 343.3388 330.7422 341.7197 317.3342 339.8769 314.981 337.2329 314.2115 335.1946 314.3092 329.6117 315.7585 319.1988 313.34 315.051 318.9292 306.6384 321.2302 305.1441 321.225 304.0274 319.7155 303.8912 316.4737 300.9912 315.8014 293.8771 320.2138 290.1213 326.9256 288.4484 327.8406 282.7909 329.0348 274.2363 327.5126 260.8433 324.275 257.8533 321.4486 260.125 315.9785 260.4814 314.7856 260.1529 313.7268 259.0311 312.9661 253.9447 312.7036 251.9736 311.845 251.4117 310.7212 252.0289 308.6366 256.075 306.9946 256.931 305.6274 261.6831 302.0592 260.1381 300.1379 259.7948 298.6539 259.9154 296.6238 260.7444 295.451 264.8182 293.1964 264.9877 291.5819 263.9813 289.7655 262.883 287.3355 259.1642 276.1297 255.2725 268.93 254.9518 265.8411 257.2865 261.7793 260.4324 259.564 263.0369 254.7231 264.5463 254.0689 266.9718 254.0407 270.4126 255.2349 277.7031 256.1929 287.4122 241.6392 308.2115 240.2242 309.0708 237.3776 308.9256 236.2951 307.5056 233.3599 307.3296 232.211 309.5819 225.6343 319.7079 215.3332 331.6981 217.3971 332.6127 216.5681 334.16 215.8306 341.5745 214.0211 345.6129 214.3233 344.8387 219.2485 344.9238 221.329 345.5206 223.1155 347.4435 225.0086 350.2942 230.3671 350.8063 231.1605 353.2957 233.1073 360.3543 235.8193 367.9767 242.9125 370.4596 242.9821 371.0944 242.6952 372.1168 242.7561 373.2817 243.7453 376.7613 255.0369 378.1786 256.7498 384.904 262.2934 389.3093 264.711 Z" id="EE.RA" fill="#cee3f5" stroke="#6e6e6e" stroke-width="0.4">
      <desc>
        <labelrank>8</labelrank>
        <code_hasc>EE.RA</code_hasc>
        <name>Rapla</name>
        <admin>Estonia</admin>
        <type_en>County</type_en>
        <region/>
        <woe_id>2345285</woe_id>
        <longitude>24</longitude>
        <woe_name>Rapla</woe_name>
        <fips>EN13</fips>
        <woe_label>Rapla County, EE, Estonia</woe_label>
        <latitude>58</latitude>
        <iso_a2>EE</iso_a2>
        <postal>RA</postal>
        <type>Maakond</type>
        <id>EE.RA</id>
      </desc>
    </path>
    <path d="M 526.5615 449.6213 521.9589 459.4943 520.2256 484.8624 503.667 487.9653 500.4879 499.0174 504.6878 503.936 503.4888 515.5554 510.5356 520.8542 507.3514 528.0668 511.8085 538.4394 506.889 545.6053 510.9063 550.9205 506.758 556.9295 507.2823 567.6058 492.2757 559.6026 478.0179 537.3767 462.0457 522.3754 461.1057 507.9588 436.2698 504.7898 429.5484 490.5395 415.0916 492.5536 409.6985 484.5175 416.3598 471.9883 416.7159 466.4562 424.2233 464.9979 439.6677 453.7934 444.1252 442.8142 452.5049 451.8554 468.3157 448.1326 486.9451 449.8714 502.5788 438.504 507.0105 444.0165 518.2204 440.2623 526.5615 449.6213 Z" id="EE.VG" fill="#cee3f5" stroke="#6e6e6e" stroke-width="0.4">
      <desc>
        <labelrank>8</labelrank>
        <code_hasc>EE.VG</code_hasc>
        <name>Valga</name>
        <admin>Estonia</admin>
        <type_en>County</type_en>
        <region/>
        <woe_id>2345288</woe_id>
        <longitude>26</longitude>
        <woe_name>Valga</woe_name>
        <fips>EN19</fips>
        <woe_label>Valga County, EE, Estonia</woe_label>
        <latitude>57</latitude>
        <iso_a2>EE</iso_a2>
        <postal>VG</postal>
        <type>Maakond</type>
        <id>EE.VG</id>
      </desc>
    </path>
    <path d="M 475.9652 373.1449 479.5059 388.3057 465.1875 411.8348 468.3157 448.1326 452.5049 451.8554 444.1252 442.8142 439.6677 453.7934 424.2233 464.9979 416.7159 466.4562 416.3598 471.9883 409.6985 484.5175 407.5542 480.9834 399.2823 477.0915 392.7127 468.7077 384.7356 466.0783 380.1585 457.8297 376.6772 458.7733 376.4561 462.4104 380.1091 471.5621 372.4381 476.1534 367.293 460.5795 359.2342 458.5511 352.5059 462.301 352.4651 462.2287 351.6537 460.7912 351.3512 459.9014 349.9883 454.5106 350.1627 453.2868 351.0289 452.029 355.7965 446.2295 361.601 446.2583 361.8308 444.8292 359.3309 441.6975 359.3009 440.7288 361.5235 437.9421 362.8122 438.0978 364.5818 438.9462 365.0824 438.3021 365.2572 436.5452 364.8846 434.8493 364.7444 433.0619 365.4976 431.5711 366.4756 430.4561 372.5255 429.2004 374.4044 431.0825 375.0788 430.9806 375.5677 430.0691 375.6399 422.7199 375.5286 421.064 375.5915 419.9782 377.6108 417.7147 377.1836 415.6375 375.8955 414.288 369.4802 409.8376 365.2418 405.7683 363.6681 404.9524 352.789 402.0902 349.2409 405.4002 346.6785 404.2193 345.4381 401.5387 347.2458 395.0894 348.1595 390.5543 347.9009 385.8697 351.7676 380.9713 351.8489 375.9217 351.3888 373.5696 350.1727 370.7925 349.9861 370.1778 350.8232 368.4626 355.0687 364.0745 362.5993 360.7839 371.9053 351.9224 376.2795 350.4083 377.4627 349.4717 377.4505 347.3508 376.9799 345.8267 376.6452 344.3171 376.8723 342.8114 377.7081 341.4523 380.6266 340.0225 390.4499 344.1042 400.1845 344.6309 437.7159 329.3993 439.1058 340.8514 434.5004 346.7415 452.6718 349.2752 475.9652 373.1449 Z" id="EE.VD" fill="#cee3f5" stroke="#6e6e6e" stroke-width="0.4">
      <desc>
        <labelrank>7</labelrank>
        <code_hasc>EE.VD</code_hasc>
        <name>Viljandi</name>
        <admin>Estonia</admin>
        <type_en>County</type_en>
        <region/>
        <woe_id>2345289</woe_id>
        <longitude>25</longitude>
        <woe_name>Viljandi</woe_name>
        <fips>EN20</fips>
        <woe_label>Viljandi County, EE, Estonia</woe_label>
        <latitude>58</latitude>
        <iso_a2>EE</iso_a2>
        <postal>VD</postal>
        <type>Maakond</type>
        <id>EE.VD</id>
      </desc>
    </path>
    <path d="M 634.0791 514.7619 630.5259 516.0075 633.831 518.6169 628.0913 523.3354 628.7805 535.4816 614.9743 544.0664 615.078 558.2438 608.6853 563.2877 611.5597 574.9568 607.8411 577.388 590.3628 571.0219 581.2817 570.4627 569.4943 557.9429 559.9063 556.6735 557.2632 554.1041 548.5522 565.8314 533.994 567.1323 524.086 576.9675 519.8435 574.7664 514.9954 577.3298 507.2823 567.6058 506.758 556.9295 510.9063 550.9205 506.889 545.6053 511.8085 538.4394 507.3514 528.0668 510.5356 520.8542 503.4888 515.5554 504.6878 503.936 500.4879 499.0174 503.667 487.9653 520.2256 484.8624 527.394 488.1468 536.1263 487.2744 545.5537 490.3398 563.5777 488.2175 576.0077 492.9811 576.3511 487.1769 582.2483 484.7255 597.5329 494.0793 603.0701 492.9931 605.1238 498.3155 599.5746 506.5603 605.1105 511.0593 615.8377 508.3089 634.0791 514.7619 Z" id="EE.VR" fill="#cee3f5" stroke="#6e6e6e" stroke-width="0.4">
      <desc>
        <labelrank>8</labelrank>
        <code_hasc>EE.VR</code_hasc>
        <name>Võru</name>
        <admin>Estonia</admin>
        <type_en>County</type_en>
        <region/>
        <woe_id>2345290</woe_id>
        <longitude>26</longitude>
        <woe_name>Võru</woe_name>
        <fips>EN21</fips>
        <woe_label>Voru County, EE, Estonia</woe_label>
        <latitude>57</latitude>
        <iso_a2>EE</iso_a2>
        <postal>VR</postal>
        <type>Maakond</type>
        <id>EE.VR</id>
      </desc>
    </path>
    <path d="M 152.777 509.2522 147.075 505.7108 148.0728 500.9637 153.0888 504.5954 152.777 509.2522 Z M 93.081 336.3011 97.7708 334.1842 103.55 337.1377 112.2386 330.3307 115.9494 332.5699 124.2969 332.2417 142.2555 343.1099 147.9393 353.8532 162.9745 361.7342 167.5255 368.6912 166.4494 371.5998 159.7226 366.2539 156.994 368.1085 161.2083 372.529 156.4951 371.5544 148.3129 363.1563 144.9773 370.9767 139.7722 372.7595 139.6257 380.0601 134.4513 384.707 132.0847 386.3089 124.8973 382.1218 126.2507 386.6046 118.2541 396.3144 107.6378 403.7606 97.6346 403.783 96.2411 406.3462 101.1898 409.9301 97.2507 413.2336 91.2183 413.6716 89.9546 408.6978 86.3422 406.7639 79.8537 410.047 76.7993 405.8617 72.9557 412.0442 70.2302 407.3113 63.784 411.829 60.1243 410.4971 52.6799 414.2334 46.4737 420.6266 44.8947 433.0106 36.2815 451.1915 36.1467 457.9496 17.6891 473.2612 14.1602 473.1302 9.2762 458.0854 13.0882 458.3693 24.4277 438.3979 31.2797 439.5304 38.4491 425.6237 31.9909 420.5996 24.368 418.7052 16.7417 403.6062 9.5583 402.9818 3.1139 398.3767 1 390.2832 8.1233 391.5485 4.9517 382.2504 7.3746 381.4039 12.4608 387.6488 15.6137 380.3248 20.3736 380.8089 14.4087 363.8235 3.1721 346.348 10.547 349.6541 13.8495 345.5998 21.1332 347.3846 30.0452 367.1155 33.8768 351.3918 45.5171 342.0189 46.7329 349.6638 51.4807 351.8036 54.1384 337.7862 58.0528 334.7971 73.6456 334.1522 87.3939 326.2971 93.081 336.3011 Z M 171.0973 333.3025 176.0189 348.2768 171.5743 352.8739 162.5513 349.4457 156.4057 351.401 139.1734 336.0748 139.8178 331.66 146.2316 331.2448 148.1359 324.2946 152.8758 320.5006 169.4557 327.3379 171.0973 333.3025 Z" id="EE.SA" fill="#cee3f5" stroke="#6e6e6e" stroke-width="0.4">
      <desc>
        <labelrank>8</labelrank>
        <code_hasc>EE.SA</code_hasc>
        <name>Saare</name>
        <admin>Estonia</admin>
        <type_en>Municipality</type_en>
        <region/>
        <woe_id>2345286</woe_id>
        <longitude>23</longitude>
        <woe_name>Saare</woe_name>
        <fips>EN14</fips>
        <woe_label>Saare County, EE, Estonia</woe_label>
        <latitude>57</latitude>
        <iso_a2>EE</iso_a2>
        <postal>SA</postal>
        <type>Novads</type>
        <id>EE.SA</id>
      </desc>
    </path>
  </g>
</svg>