<?xml version="1.0" encoding="UTF-8"?>
<svg xmlns="http://www.w3.org/2000/svg" width="700" height="700">
  <g id="hebei">
    <path d="M 450.3535 260.5128 502.7674 245.1722 523.2216 231.1099 553.9029 238.7802 556.4597 250.2857 596.0897 264.348 578.1923 314.2051 603.7601 334.6593 631.8846 342.3297 594.8114 373.011 565.4084 369.1758 550.0678 378.1245 551.3462 394.7436 523.2216 381.9597 502.7674 358.9487 478.478 351.2784 488.7051 325.7106 464.4158 325.7106 447.7967 303.978 443.9615 286.0806 464.4158 280.967 450.3535 260.5128 Z" id="CN.hebei.2989001" fill="#cee3f5" stroke="#6e6e6e" stroke-width="0.4">
      <desc>
        <admin_leve>5</admin_leve>
        <localname>唐山市 / Tangshan</localname>
        <boundary>administrative</boundary>
        <id>CN.hebei.2989001</id>
        <name>Tangshan City</name>
      </desc>
    </path>
    <path d="M 363.4231 283.5238 365.9799 275.8535 397.9396 272.0183 404.3315 288.6374 404.3315 320.5971 377.4853 312.9267 382.5989 302.6996 363.4231 283.5238 Z M 308.4524 330.8242 318.6795 338.4945 344.2473 320.5971 367.2582 323.1538 377.4853 360.2271 373.6502 380.6813 358.3095 394.7436 363.4231 413.9194 348.0824 442.044 332.7418 440.7656 321.2363 420.3114 323.793 408.8059 304.6172 394.7436 314.8443 374.2894 296.9469 348.7216 308.4524 330.8242 Z" id="CN.hebei.2989329" fill="#cee3f5" stroke="#6e6e6e" stroke-width="0.4">
      <desc>
        <admin_leve>5</admin_leve>
        <localname>廊坊</localname>
        <boundary>administrative</boundary>
        <id>CN.hebei.2989329</id>
        <name>Langfang City</name>
      </desc>
    </path>
    <path d="M 289.2766 90.4872 314.8443 67.4762 358.3095 73.8681 374.9286 66.1978 376.207 29.1245 399.2179 15.0623 432.456 16.3407 437.5696 2.2784 472.0861 1 495.0971 22.7326 492.5403 41.9084 532.1703 80.2601 509.1593 94.3223 529.6136 118.6117 533.4487 137.7875 585.8626 136.5092 619.1007 141.6227 621.6575 154.4066 598.6465 164.6337 584.5842 194.0366 617.8223 215.7692 567.9652 228.5531 556.4597 250.2857 553.9029 238.7802 523.2216 231.1099 502.7674 245.1722 450.3535 260.5128 426.0641 255.3993 413.2802 238.7802 422.2289 209.3773 392.826 205.5421 342.9689 173.5824 321.2363 178.696 309.7308 169.7473 299.5037 133.9524 285.4414 131.3956 272.6575 104.5495 289.2766 90.4872 Z" id="CN.hebei.2989561" fill="#cee3f5" stroke="#6e6e6e" stroke-width="0.4">
      <desc>
        <name>Chengde City</name>
        <admin_leve>5</admin_leve>
        <wikipedia>zh:承德市</wikipedia>
        <localname>承德市 (Chengde)</localname>
        <boundary>administrative</boundary>
        <id>CN.hebei.2989561</id>
      </desc>
    </path>
    <path d="M 556.4597 250.2857 567.9652 228.5531 617.8223 215.7692 634.4414 223.4396 658.7308 220.8828 666.4011 243.8938 681.7418 259.2344 686.8553 284.8022 662.5659 289.9158 642.1117 306.5348 631.8846 342.3297 603.7601 334.6593 578.1923 314.2051 596.0897 264.348 556.4597 250.2857 Z" id="CN.hebei.2989562" fill="#cee3f5" stroke="#6e6e6e" stroke-width="0.4">
      <desc>
        <admin_leve>5</admin_leve>
        <localname>秦皇岛 / Qinhuangdao</localname>
        <boundary>administrative</boundary>
        <id>CN.hebei.2989562</id>
        <name>Qinhuangdao City</name>
      </desc>
    </path>
    <path d="M 51.4963 412.641 82.1777 424.1465 117.9725 419.033 135.87 438.2088 155.0458 440.7656 167.8297 463.7766 208.7381 467.6117 224.0788 488.0659 215.13 503.4066 216.4084 522.5824 203.6245 531.5311 188.2839 513.6337 165.2729 522.5824 143.5403 539.2015 88.5696 543.0366 71.9505 551.9853 82.1777 535.3663 55.3315 486.7875 22.0934 467.6117 22.0934 433.0952 51.4963 412.641 Z" id="CN.hebei.3009732" fill="#cee3f5" stroke="#6e6e6e" stroke-width="0.4">
      <desc>
        <name>Shijiazhuang City</name>
        <admin_leve>5</admin_leve>
        <wikipedia>en:Shijiazhuang</wikipedia>
        <localname>石家庄市</localname>
        <boundary>administrative</boundary>
        <id>CN.hebei.3009732</id>
      </desc>
    </path>
    <path d="M 46.3828 599.2857 84.7344 617.1832 128.1996 617.1832 158.881 603.1209 185.7271 604.3993 226.6355 626.1319 206.1813 655.5348 226.6355 679.8242 210.0165 697.7216 188.2839 683.6593 169.1081 699 135.87 693.8864 96.2399 678.5458 48.9396 670.8755 25.9286 658.0916 13.1447 637.6374 46.3828 599.2857 Z" id="CN.hebei.3290701" fill="#cee3f5" stroke="#6e6e6e" stroke-width="0.4">
      <desc>
        <name>Handan City</name>
        <admin_leve>5</admin_leve>
        <wikipedia>en:Handan</wikipedia>
        <localname>邯鄲市 / Handan</localname>
        <boundary>administrative</boundary>
        <id>CN.hebei.3290701</id>
      </desc>
    </path>
    <path d="M 71.9505 551.9853 88.5696 543.0366 143.5403 539.2015 165.2729 522.5824 188.2839 513.6337 203.6245 531.5311 218.9652 543.0366 213.8516 553.2637 250.9249 572.4396 266.2656 594.1722 249.6465 619.7399 226.6355 626.1319 185.7271 604.3993 158.881 603.1209 128.1996 617.1832 84.7344 617.1832 46.3828 599.2857 57.8883 566.0476 71.9505 551.9853 Z" id="CN.hebei.3290707" fill="#cee3f5" stroke="#6e6e6e" stroke-width="0.4">
      <desc>
        <name>Xingtai City</name>
        <admin_leve>5</admin_leve>
        <wikipedia>en:Xingtai</wikipedia>
        <localname>邢台市 / Xingtai</localname>
        <boundary>administrative</boundary>
        <id>CN.hebei.3290707</id>
      </desc>
    </path>
    <path d="M 289.2766 90.4872 272.6575 104.5495 285.4414 131.3956 299.5037 133.9524 309.7308 169.7473 321.2363 178.696 290.5549 214.4908 272.6575 214.4908 253.4817 225.9963 277.7711 252.8425 240.6978 266.9048 221.522 284.8022 206.1813 307.8132 180.6136 311.6484 156.3242 321.8755 128.1996 326.989 111.5806 319.3187 110.3022 293.7509 93.6832 293.7509 59.1667 278.4103 75.7857 261.7912 116.6941 251.5641 102.6319 240.0586 98.7967 217.0476 54.0531 165.9121 60.4451 122.4469 93.6832 118.6117 91.1264 87.9304 121.8077 70.033 129.478 52.1355 149.9322 55.9707 165.2729 67.4762 169.1081 85.3736 163.9945 105.8278 199.7894 112.2198 211.2949 98.1575 273.9359 72.5897 289.2766 90.4872 Z" id="CN.hebei.3295555" fill="#cee3f5" stroke="#6e6e6e" stroke-width="0.4">
      <desc>
        <name>Zhangjiakou City</name>
        <admin_leve>5</admin_leve>
        <wikipedia>en:Zhangjiakou</wikipedia>
        <localname>张家口市</localname>
        <boundary>administrative</boundary>
        <id>CN.hebei.3295555</id>
      </desc>
    </path>
    <path d="M 128.1996 326.989 156.3242 321.8755 180.6136 311.6484 206.1813 307.8132 221.522 284.8022 236.8626 323.1538 262.4304 332.1026 273.9359 323.1538 308.4524 330.8242 296.9469 348.7216 314.8443 374.2894 304.6172 394.7436 286.7198 397.3004 276.4927 415.1978 276.4927 436.9304 254.7601 442.044 250.9249 453.5495 218.9652 457.3846 208.7381 467.6117 167.8297 463.7766 155.0458 440.7656 135.87 438.2088 117.9725 419.033 82.1777 424.1465 51.4963 412.641 43.826 390.9084 74.5073 371.7326 80.8993 380.6813 106.467 378.1245 128.1996 326.989 Z" id="CN.hebei.3442995" fill="#cee3f5" stroke="#6e6e6e" stroke-width="0.4">
      <desc>
        <name>Baoding City</name>
        <admin_leve>5</admin_leve>
        <wikipedia>en:Baoding</wikipedia>
        <localname>保定市</localname>
        <boundary>administrative</boundary>
        <id>CN.hebei.3442995</id>
      </desc>
    </path>
    <path d="M 304.6172 394.7436 323.793 408.8059 321.2363 420.3114 332.7418 440.7656 348.0824 442.044 363.4231 413.9194 394.1044 417.7546 415.837 434.3736 440.1264 427.9817 456.7454 436.9304 482.3132 461.2198 464.4158 485.5092 449.0751 486.7875 433.7344 509.7985 367.2582 511.0769 327.6282 549.4286 318.6795 537.9231 332.7418 517.4689 342.9689 490.6227 318.6795 491.9011 298.2253 502.1282 271.3791 476.5604 264.9872 456.1062 250.9249 453.5495 254.7601 442.044 276.4927 436.9304 276.4927 415.1978 286.7198 397.3004 304.6172 394.7436 Z" id="CN.hebei.3443418" fill="#cee3f5" stroke="#6e6e6e" stroke-width="0.4">
      <desc>
        <name>Cangzhou City</name>
        <admin_leve>5</admin_leve>
        <wikipedia>en:Cangzhou</wikipedia>
        <localname>沧州市 / Cangzhou</localname>
        <boundary>administrative</boundary>
        <id>CN.hebei.3443418</id>
      </desc>
    </path>
    <path d="M 203.6245 531.5311 216.4084 522.5824 215.13 503.4066 224.0788 488.0659 208.7381 467.6117 218.9652 457.3846 250.9249 453.5495 264.9872 456.1062 271.3791 476.5604 298.2253 502.1282 318.6795 491.9011 342.9689 490.6227 332.7418 517.4689 318.6795 537.9231 311.0092 555.8205 280.3278 563.4908 266.2656 594.1722 250.9249 572.4396 213.8516 553.2637 218.9652 543.0366 203.6245 531.5311 Z" id="CN.hebei.3443419" fill="#cee3f5" stroke="#6e6e6e" stroke-width="0.4">
      <desc>
        <name>Hengshui City</name>
        <admin_leve>5</admin_leve>
        <wikipedia>en:Hengshui</wikipedia>
        <localname>衡水市 / Hengshui</localname>
        <boundary>administrative</boundary>
        <id>CN.hebei.3443419</id>
      </desc>
    </path>
  </g>
</svg>