<?xml version="1.0" encoding="UTF-8"?>
<svg xmlns="http://www.w3.org/2000/svg" width="700" height="700">
  <g id="namibia">
    <path d="M 412.3988 495.4659 406.4935 646.2465 386.8094 651.3644 380.9041 660.4191 371.8494 661.9938 372.6368 669.8675 364.7631 673.4106 347.0474 666.718 319.4896 669.0801 307.6791 662.3875 294.2939 661.2064 292.3254 656.4822 283.6644 657.6633 284.8455 651.758 280.1213 645.0654 284.0581 641.1286 281.696 632.0739 275.3971 632.0739 269.4918 621.0508 260.0434 623.8065 254.1382 633.6486 255.7129 639.1602 252.5635 645.0654 249.414 643.8844 238.3909 651.758 205.7152 620.2634 184.0626 582.4698 180.9131 561.9983 173.8268 548.6131 178.1574 543.8889 176.1889 536.0152 168.3153 529.3226 169.1027 514.3627 162.41 498.2217 161.6227 457.6723 207.2899 458.066 212.0141 489.5606 217.132 489.5606 227.7614 504.1269 235.2414 503.7332 232.8793 489.5606 237.2098 488.3796 238.7845 493.4975 244.2961 486.0175 265.9487 497.828 274.6097 495.8596 283.2707 499.4027 283.6644 489.9543 287.6012 488.3796 304.9233 489.5606 339.1737 483.6554 347.4411 488.3796 368.6999 491.1354 375.7862 487.1985 381.2978 495.0722 387.5967 493.4975 401.3756 498.2217 412.3988 495.4659 Z" id="NA.KA" fill="#cee3f5" stroke="#6e6e6e" stroke-width="0.4">
      <desc>
        <labelrank>4</labelrank>
        <code_hasc>NA.KA</code_hasc>
        <name>Karas</name>
        <admin>Namibia</admin>
        <type_en>Region</type_en>
        <region/>
        <woe_id>20069838</woe_id>
        <longitude>17</longitude>
        <woe_name>Karas</woe_name>
        <fips>WA03</fips>
        <woe_label>Karas, NA, Namibia</woe_label>
        <latitude>-27</latitude>
        <iso_a2>NA</iso_a2>
        <postal>KA</postal>
        <type>Region</type>
        <id>NA.KA</id>
      </desc>
    </path>
    <path d="M 340.3548 379.3294 344.6853 389.1715 352.1653 392.3209 366.7315 389.5651 374.9989 391.9272 379.3294 388.7778 380.9041 399.4072 415.9419 400.982 412.3988 495.4659 401.3756 498.2217 387.5967 493.4975 381.2978 495.0722 375.7862 487.1985 368.6999 491.1354 347.4411 488.3796 339.1737 483.6554 304.9233 489.5606 287.6012 488.3796 283.6644 489.9543 283.2707 499.4027 274.6097 495.8596 265.9487 497.828 244.2961 486.0175 238.7845 493.4975 237.2098 488.3796 232.8793 489.5606 235.2414 503.7332 227.7614 504.1269 217.132 489.5606 212.0141 489.5606 207.2899 458.066 161.6227 457.6723 143.5133 409.2493 144.6943 380.1168 172.2521 382.8725 206.5025 394.2893 210.0457 402.9504 232.0919 396.6514 229.3362 402.163 235.2414 405.7061 234.0603 399.8009 244.2961 396.2578 232.8793 392.7146 233.6667 388.7778 236.8161 383.2662 237.9972 387.5967 241.934 387.5967 247.8393 382.4788 243.5087 376.5736 250.2014 363.5821 260.0434 365.5505 273.035 360.8263 278.1528 362.0073 279.7276 367.9126 292.7191 366.7315 288.3886 374.2115 291.1444 384.0536 311.6159 382.4788 317.5212 386.8094 337.9927 377.361 340.3548 379.3294 Z" id="NA.HA" fill="#cee3f5" stroke="#6e6e6e" stroke-width="0.4">
      <desc>
        <labelrank>4</labelrank>
        <code_hasc>NA.HA</code_hasc>
        <name>Hardap</name>
        <admin>Namibia</admin>
        <type_en>Region</type_en>
        <region/>
        <woe_id>20069844</woe_id>
        <longitude>17</longitude>
        <woe_name>Hardap</woe_name>
        <fips>WA02</fips>
        <woe_label>Hardap, NA, Namibia</woe_label>
        <latitude>-24</latitude>
        <iso_a2>NA</iso_a2>
        <postal>HA</postal>
        <type>Region</type>
        <id>NA.HA</id>
      </desc>
    </path>
    <path d="M 340.3548 379.3294 337.9927 377.361 317.5212 386.8094 311.6159 382.4788 291.1444 384.0536 288.3886 374.2115 292.7191 366.7315 279.7276 367.9126 278.1528 362.0073 273.035 360.8263 260.0434 365.5505 250.2014 363.5821 243.5087 376.5736 247.8393 382.4788 241.934 387.5967 237.9972 387.5967 236.8161 383.2662 233.6667 388.7778 232.8793 392.7146 244.2961 396.2578 234.0603 399.8009 235.2414 405.7061 229.3362 402.163 232.0919 396.6514 210.0457 402.9504 206.5025 394.2893 211.6204 392.7146 212.0141 379.3294 207.2899 376.1799 212.0141 371.062 210.8331 363.9757 215.9509 362.0073 213.1951 358.4642 214.3762 345.4726 222.6435 341.9295 222.6435 334.8432 217.9193 334.0558 223.4309 328.5443 236.8161 324.6074 242.3277 317.1275 256.5003 315.9464 253.7445 313.5843 256.5003 309.6475 261.6182 313.1906 275.0034 308.0728 276.9718 310.4349 284.8455 302.5612 286.0265 304.9233 292.7191 302.5612 292.7191 296.2623 300.9865 289.176 326.1822 282.4834 323.8201 291.1444 326.5759 295.8686 323.4264 303.3486 319.0959 304.5296 318.3085 310.4349 328.5443 321.8517 326.1822 323.8201 330.5127 323.8201 334.0558 349.4095 338.78 348.6221 335.2369 353.3463 341.1421 360.8263 336.0243 363.9757 343.5042 371.062 340.3548 379.3294 Z" id="NA.KH" fill="#cee3f5" stroke="#6e6e6e" stroke-width="0.4">
      <desc>
        <labelrank>4</labelrank>
        <code_hasc>NA.KH</code_hasc>
        <name>Khomas</name>
        <admin>Namibia</admin>
        <type_en>Region</type_en>
        <region/>
        <woe_id>20069845</woe_id>
        <longitude>17</longitude>
        <woe_name>Khomas</woe_name>
        <fips>WA04</fips>
        <woe_label>Khomas, NA, Namibia</woe_label>
        <latitude>-22</latitude>
        <iso_a2>NA</iso_a2>
        <postal>KH</postal>
        <type>Region</type>
        <id>NA.KH</id>
      </desc>
    </path>
    <path d="M 129.7343 49.8167 125.7975 59.2651 126.5849 67.5324 133.6712 86.8229 134.4585 117.9239 138.7891 130.128 137.608 141.1512 143.5133 152.1743 141.9385 158.0795 148.2375 158.4732 146.269 149.4185 186.031 146.269 186.031 149.0248 217.9193 153.749 256.5003 162.8037 256.894 187.6058 247.8393 189.9679 248.2329 196.6605 236.4224 201.7783 236.0288 210.0457 222.6435 212.0141 208.8646 221.0688 200.2036 219.8878 189.5742 215.5572 176.1889 230.5172 156.8985 243.1151 129.3407 241.1466 100.9955 253.7445 89.185 235.6351 77.7682 200.2036 70.6819 193.511 45.8799 142.3322 31.3136 120.6796 18.3221 110.8376 8.48 91.5471 1 59.6588 2.9684 44.3051 19.8968 37.2188 27.7704 41.943 44.6988 41.943 61.2335 30.9199 75.4061 26.5894 91.5471 29.7389 93.9092 35.6441 116.3491 51.3914 129.7343 49.8167 Z" id="NA.KU" fill="#cee3f5" stroke="#6e6e6e" stroke-width="0.4">
      <desc>
        <labelrank>4</labelrank>
        <code_hasc>NA.KU</code_hasc>
        <name>Kunene</name>
        <admin>Namibia</admin>
        <type_en>Region</type_en>
        <region/>
        <woe_id>20069839</woe_id>
        <longitude>13</longitude>
        <woe_name>Kunene</woe_name>
        <fips>WA05</fips>
        <woe_label>Kunene, NA, Namibia</woe_label>
        <latitude>-19</latitude>
        <iso_a2>NA</iso_a2>
        <postal>KU</postal>
        <type>Region</type>
        <id>NA.KU</id>
      </desc>
    </path>
    <path d="M 200.2036 219.8878 200.5973 226.9741 206.5025 227.3677 225.0056 243.1151 230.1235 245.4772 233.273 242.7214 240.3593 251.7761 246.2645 252.9571 247.0519 265.9487 239.9656 282.4834 243.9024 293.5065 243.5087 304.9233 239.5719 307.6791 242.3277 317.1275 236.8161 324.6074 223.4309 328.5443 217.9193 334.0558 222.6435 334.8432 222.6435 341.9295 214.3762 345.4726 213.1951 358.4642 215.9509 362.0073 210.8331 363.9757 212.0141 371.062 207.2899 376.1799 212.0141 379.3294 211.6204 392.7146 206.5025 394.2893 172.2521 382.8725 144.6943 380.1168 140.7575 349.0158 141.9385 343.8979 143.1196 350.1968 146.6627 345.079 145.4817 326.1822 134.4585 304.1359 117.5302 285.2391 111.2312 267.9171 100.9955 253.7445 129.3407 241.1466 156.8985 243.1151 176.1889 230.5172 189.5742 215.5572 200.2036 219.8878 Z" id="NA.ER" fill="#cee3f5" stroke="#6e6e6e" stroke-width="0.4">
      <desc>
        <labelrank>4</labelrank>
        <code_hasc>NA.ER</code_hasc>
        <name>Erongo</name>
        <admin>Namibia</admin>
        <type_en>Region</type_en>
        <region/>
        <woe_id>20069837</woe_id>
        <longitude>15</longitude>
        <woe_name>Erongo</woe_name>
        <fips>WA01</fips>
        <woe_label>Erongo, NA, Namibia</woe_label>
        <latitude>-22</latitude>
        <iso_a2>NA</iso_a2>
        <postal>ER</postal>
        <type>Region</type>
        <id>NA.ER</id>
      </desc>
    </path>
    <path d="M 474.9944 150.5995 472.6323 213.9825 459.6407 215.5572 393.8957 205.7152 363.5821 217.132 350.5905 235.2414 346.6537 247.0519 339.9611 247.0519 339.5674 258.8624 331.6937 258.4687 334.8432 265.1613 332.8748 277.7592 326.1822 282.4834 300.9865 289.176 292.7191 296.2623 292.7191 302.5612 286.0265 304.9233 284.8455 302.5612 276.9718 310.4349 275.0034 308.0728 261.6182 313.1906 256.5003 309.6475 253.7445 313.5843 256.5003 315.9464 242.3277 317.1275 239.5719 307.6791 243.5087 304.9233 243.9024 293.5065 239.9656 282.4834 247.0519 265.9487 246.2645 252.9571 240.3593 251.7761 233.273 242.7214 230.1235 245.4772 225.0056 243.1151 206.5025 227.3677 200.5973 226.9741 200.2036 219.8878 208.8646 221.0688 222.6435 212.0141 236.0288 210.0457 236.4224 201.7783 248.2329 196.6605 247.8393 189.9679 256.894 187.6058 256.5003 162.8037 282.0897 144.6943 289.176 151.3869 293.5065 149.4185 292.3254 156.1111 299.8054 160.8353 316.3401 164.7721 319.4896 162.8037 317.1275 156.5048 323.0327 150.9932 324.2138 139.1827 331.6937 134.8522 333.2685 124.6165 386.4157 128.5533 386.022 148.6311 474.9944 150.5995 Z" id="NA.OD" fill="#cee3f5" stroke="#6e6e6e" stroke-width="0.4">
      <desc>
        <labelrank>4</labelrank>
        <code_hasc>NA.OD</code_hasc>
        <name>Otjozondjupa</name>
        <admin>Namibia</admin>
        <type_en>Region</type_en>
        <region/>
        <woe_id>20069835</woe_id>
        <longitude>18</longitude>
        <woe_name>Otjozondjupa</woe_name>
        <fips>WA01</fips>
        <woe_label>Otjozondjupa, NA, Namibia</woe_label>
        <latitude>-20</latitude>
        <iso_a2>NA</iso_a2>
        <postal>OD</postal>
        <type>Region</type>
        <id>NA.OD</id>
      </desc>
    </path>
    <path d="M 198.6289 49.8167 203.3531 65.1703 184.85 83.6734 195.4794 90.366 198.6289 115.9554 196.2668 135.2459 200.5973 139.5764 186.031 146.269 146.269 149.4185 148.2375 158.4732 141.9385 158.0795 143.5133 152.1743 137.608 141.1512 138.7891 130.128 134.4585 117.9239 133.6712 86.8229 126.5849 67.5324 125.7975 59.2651 129.7343 49.8167 198.6289 49.8167 Z" id="NA.OS" fill="#cee3f5" stroke="#6e6e6e" stroke-width="0.4">
      <desc>
        <labelrank>4</labelrank>
        <code_hasc>NA.OS</code_hasc>
        <name>Omusati</name>
        <admin>Namibia</admin>
        <type_en>Region</type_en>
        <region/>
        <woe_id>20069842</woe_id>
        <longitude>14</longitude>
        <woe_name>Omusati</woe_name>
        <fips>WA05</fips>
        <woe_label>Omusati, NA, Namibia</woe_label>
        <latitude>-18</latitude>
        <iso_a2>NA</iso_a2>
        <postal>OS</postal>
        <type>Region</type>
        <id>NA.OS</id>
      </desc>
    </path>
    <path d="M 221.4625 66.3514 223.0372 89.9724 218.313 101.7829 223.0372 117.5302 212.8015 128.947 219.1004 143.1196 217.9193 153.749 186.031 149.0248 186.031 146.269 200.5973 139.5764 196.2668 135.2459 198.6289 115.9554 195.4794 90.366 184.85 83.6734 203.3531 65.1703 204.1404 68.3198 221.4625 66.3514 Z" id="NA.ON" fill="#cee3f5" stroke="#6e6e6e" stroke-width="0.4">
      <desc>
        <labelrank>4</labelrank>
        <code_hasc>NA.ON</code_hasc>
        <name>Oshana</name>
        <admin>Namibia</admin>
        <type_en>Region</type_en>
        <region/>
        <woe_id>20069843</woe_id>
        <longitude>15</longitude>
        <woe_name>Oshana</woe_name>
        <fips>WA11</fips>
        <woe_label>Oshana, NA, Namibia</woe_label>
        <latitude>-18</latitude>
        <iso_a2>NA</iso_a2>
        <postal>ON</postal>
        <type>Region</type>
        <id>NA.ON</id>
      </desc>
    </path>
    <path d="M 324.6074 50.9977 324.2138 71.0756 260.0434 70.2882 241.1466 78.1619 221.4625 66.3514 204.1404 68.3198 203.3531 65.1703 198.6289 49.8167 324.6074 50.9977 Z" id="NA.OW" fill="#cee3f5" stroke="#6e6e6e" stroke-width="0.4">
      <desc>
        <labelrank>4</labelrank>
        <code_hasc>NA.OW</code_hasc>
        <name>Ohangwena</name>
        <admin>Namibia</admin>
        <type_en>Region</type_en>
        <region/>
        <woe_id>20069840</woe_id>
        <longitude>16</longitude>
        <woe_name>Ohangwena</woe_name>
        <fips>WA08</fips>
        <woe_label>Ohangwena, NA, Namibia</woe_label>
        <latitude>-17</latitude>
        <iso_a2>NA</iso_a2>
        <postal>OW</postal>
        <type>Region</type>
        <id>NA.OW</id>
      </desc>
    </path>
    <path d="M 472.6323 213.9825 469.0891 302.5612 419.0914 300.9865 415.9419 400.982 380.9041 399.4072 379.3294 388.7778 374.9989 391.9272 366.7315 389.5651 352.1653 392.3209 344.6853 389.1715 340.3548 379.3294 343.5042 371.062 336.0243 363.9757 341.1421 360.8263 335.2369 353.3463 338.78 348.6221 334.0558 349.4095 330.5127 323.8201 326.1822 323.8201 328.5443 321.8517 318.3085 310.4349 319.0959 304.5296 323.4264 303.3486 326.5759 295.8686 323.8201 291.1444 326.1822 282.4834 332.8748 277.7592 334.8432 265.1613 331.6937 258.4687 339.5674 258.8624 339.9611 247.0519 346.6537 247.0519 350.5905 235.2414 363.5821 217.132 393.8957 205.7152 459.6407 215.5572 472.6323 213.9825 Z" id="NA.OH" fill="#cee3f5" stroke="#6e6e6e" stroke-width="0.4">
      <desc>
        <labelrank>4</labelrank>
        <code_hasc>NA.OH</code_hasc>
        <name>Omaheke</name>
        <admin>Namibia</admin>
        <type_en>Region</type_en>
        <region/>
        <woe_id>20069836</woe_id>
        <longitude>19</longitude>
        <woe_name>Omaheke</woe_name>
        <fips>WA09</fips>
        <woe_label>Omaheke, NA, Namibia</woe_label>
        <latitude>-22</latitude>
        <iso_a2>NA</iso_a2>
        <postal>OH</postal>
        <type>Region</type>
        <id>NA.OH</id>
      </desc>
    </path>
    <path d="M 477.7501 85.6418 477.3565 104.5386 474.9944 150.5995 386.022 148.6311 386.4157 128.5533 333.2685 124.6165 323.8201 123.8291 324.2138 71.0756 324.6074 50.9977 347.8347 51.3914 357.2831 64.7766 369.881 73.8314 415.1545 79.7366 444.2871 78.5556 468.3017 88.7913 477.7501 85.6418 Z" id="NA.OK" fill="#cee3f5" stroke="#6e6e6e" stroke-width="0.4">
      <desc>
        <labelrank>4</labelrank>
        <code_hasc>NA.OK</code_hasc>
        <name>Kavango</name>
        <admin>Namibia</admin>
        <type_en>Region</type_en>
        <region/>
        <woe_id>20069820</woe_id>
        <longitude>19</longitude>
        <woe_name>Kavango</woe_name>
        <fips>WA07</fips>
        <woe_label>Okavango, NA, Namibia</woe_label>
        <latitude>-18</latitude>
        <iso_a2>NA</iso_a2>
        <postal>OK</postal>
        <type>Region</type>
        <id>NA.OK</id>
      </desc>
    </path>
    <path d="M 324.2138 71.0756 323.8201 123.8291 333.2685 124.6165 331.6937 134.8522 324.2138 139.1827 323.0327 150.9932 317.1275 156.5048 319.4896 162.8037 316.3401 164.7721 299.8054 160.8353 292.3254 156.1111 293.5065 149.4185 289.176 151.3869 282.0897 144.6943 256.5003 162.8037 217.9193 153.749 219.1004 143.1196 212.8015 128.947 223.0372 117.5302 218.313 101.7829 223.0372 89.9724 221.4625 66.3514 241.1466 78.1619 260.0434 70.2882 324.2138 71.0756 Z" id="NA.OT" fill="#cee3f5" stroke="#6e6e6e" stroke-width="0.4">
      <desc>
        <labelrank>4</labelrank>
        <code_hasc>NA.OT</code_hasc>
        <name>Oshikoto</name>
        <admin>Namibia</admin>
        <type_en>Region</type_en>
        <region/>
        <woe_id>20069841</woe_id>
        <longitude>17</longitude>
        <woe_name>Oshikoto</woe_name>
        <fips>WA12</fips>
        <woe_label>Oshikoto, NA, Namibia</woe_label>
        <latitude>-18</latitude>
        <iso_a2>NA</iso_a2>
        <postal>OT</postal>
        <type>Region</type>
        <id>NA.OT</id>
      </desc>
    </path>
    <path d="M 477.3565 104.5386 477.7501 85.6418 489.5606 84.0671 498.2217 88.7913 647.0338 65.9577 681.2843 70.6819 699 86.0355 683.2527 84.8545 662.3875 97.846 651.3644 92.3345 628.1371 104.5386 611.6024 118.7112 596.6424 91.9408 502.1585 104.145 477.3565 104.5386 Z" id="NA.CA" fill="#cee3f5" stroke="#6e6e6e" stroke-width="0.4">
      <desc>
        <labelrank>4</labelrank>
        <code_hasc>NA.CA</code_hasc>
        <name>Caprivi</name>
        <admin>Namibia</admin>
        <type_en>Region</type_en>
        <region/>
        <woe_id>20069834</woe_id>
        <longitude>23</longitude>
        <woe_name>Caprivi</woe_name>
        <fips>WA06</fips>
        <woe_label>Caprivi, NA, Namibia</woe_label>
        <latitude>-17</latitude>
        <iso_a2>NA</iso_a2>
        <postal>CA</postal>
        <type>Region</type>
        <id>NA.CA</id>
      </desc>
    </path>
  </g>
</svg>