<?xml version="1.0" encoding="UTF-8"?>
<svg xmlns="http://www.w3.org/2000/svg" width="700" height="700">
  <g id="michigan">
    <path d="M 608.2994 534.9503 621.7073 534.9503 639.0588 534.1616 639.8475 551.513 640.6362 572.8079 610.6655 573.5966 599.6237 573.5966 590.1593 574.3853 588.5819 558.6113 587.7932 543.626 587.7932 535.739 608.2994 534.9503 Z" id="US.MI.125" fill="#cee3f5" stroke="#6e6e6e" stroke-width="0.4">
      <desc>
        <name>Oakland County</name>
        <stateAbbrev>MI</stateAbbrev>
        <state>Michigan</state>
        <fips>125</fips>
        <incits>26125</incits>
        <id>US.MI.125</id>
        <population>1231640</population>
      </desc>
    </path>
    <path d="M 639.0588 534.1616 649.3119 534.1616 666.6633 533.3729 670.6068 533.3729 671.3955 549.9356 673.7616 552.3017 672.1842 557.0339 672.1842 570.4418 669.8181 572.0192 659.565 572.0192 640.6362 572.8079 639.8475 551.513 639.0588 534.1616 Z" id="US.MI.099" fill="#cee3f5" stroke="#6e6e6e" stroke-width="0.4">
      <desc>
        <name>Macomb County</name>
        <stateAbbrev>MI</stateAbbrev>
        <state>Michigan</state>
        <fips>099</fips>
        <incits>26099</incits>
        <id>US.MI.099</id>
        <population>854769</population>
      </desc>
    </path>
    <path d="M 637.4814 496.304 637.4814 499.4588 647.7345 499.4588 648.5232 511.2893 648.5232 519.965 649.3119 534.1616 639.0588 534.1616 621.7073 534.9503 608.2994 534.9503 607.5107 519.965 607.5107 504.9797 607.5107 504.191 616.9751 504.191 616.9751 496.304 637.4814 496.304 Z" id="US.MI.087" fill="#cee3f5" stroke="#6e6e6e" stroke-width="0.4">
      <desc>
        <name>Lapeer County</name>
        <stateAbbrev>MI</stateAbbrev>
        <state>Michigan</state>
        <fips>087</fips>
        <incits>26087</incits>
        <id>US.MI.087</id>
        <population>88389</population>
      </desc>
    </path>
    <path d="M 587.0045 504.9797 607.5107 504.9797 607.5107 519.965 608.2994 534.9503 587.7932 535.739 587.7932 543.626 577.5401 543.626 567.287 543.626 566.4983 528.6407 567.287 520.7537 567.287 512.8667 566.4983 504.9797 587.0045 504.9797 Z" id="US.MI.049" fill="#cee3f5" stroke="#6e6e6e" stroke-width="0.4">
      <desc>
        <name>Genesee County</name>
        <stateAbbrev>MI</stateAbbrev>
        <state>Michigan</state>
        <fips>049</fips>
        <incits>26049</incits>
        <id>US.MI.049</id>
        <population>415376</population>
      </desc>
    </path>
    <path d="M 546.7808 543.626 564.1322 543.626 565.7096 543.626 567.287 543.626 577.5401 543.626 587.7932 543.626 588.5819 558.6113 590.1593 574.3853 565.7096 574.3853 549.1469 574.3853 548.3582 574.3853 548.3582 564.1322 547.5695 549.9356 546.7808 543.626 Z" id="US.MI.093" fill="#cee3f5" stroke="#6e6e6e" stroke-width="0.4">
      <desc>
        <name>Livingston County</name>
        <stateAbbrev>MI</stateAbbrev>
        <state>Michigan</state>
        <fips>093</fips>
        <incits>26093</incits>
        <id>US.MI.093</id>
        <population>184443</population>
      </desc>
    </path>
    <path d="M 549.1469 574.3853 565.7096 574.3853 590.1593 574.3853 599.6237 573.5966 600.4124 585.4271 601.2011 604.3559 580.6949 604.3559 560.1887 605.1446 549.1469 605.1446 549.1469 597.2576 549.1469 590.1593 549.1469 574.3853 Z" id="US.MI.161" fill="#cee3f5" stroke="#6e6e6e" stroke-width="0.4">
      <desc>
        <name>Washtenaw County</name>
        <stateAbbrev>MI</stateAbbrev>
        <state>Michigan</state>
        <fips>161</fips>
        <incits>26161</incits>
        <id>US.MI.161</id>
        <population>354240</population>
      </desc>
    </path>
    <path d="M 599.6237 573.5966 610.6655 573.5966 640.6362 572.8079 659.565 572.0192 669.8181 572.0192 662.7198 579.1175 652.4667 581.4836 648.5232 583.061 645.3684 583.061 642.2136 583.8497 639.0588 587.0045 636.6927 590.948 635.904 596.4689 637.4814 600.4124 635.1153 608.2994 635.1153 609.0881 631.1718 609.0881 624.0734 605.1446 623.2847 603.5672 622.496 603.5672 611.4542 603.5672 611.4542 604.3559 601.2011 604.3559 600.4124 585.4271 599.6237 573.5966 Z" id="US.MI.163" fill="#cee3f5" stroke="#6e6e6e" stroke-width="0.4">
      <desc>
        <name>Wayne County</name>
        <stateAbbrev>MI</stateAbbrev>
        <state>Michigan</state>
        <fips>163</fips>
        <incits>26163</incits>
        <id>US.MI.163</id>
        <population>1775273</population>
      </desc>
    </path>
    <path d="M 580.6949 604.3559 601.2011 604.3559 611.4542 604.3559 611.4542 603.5672 622.496 603.5672 623.2847 603.5672 624.0734 605.1446 631.1718 609.0881 630.3831 609.8768 629.5944 611.4542 626.4395 613.8203 624.8621 616.9751 622.496 616.1864 620.9186 616.9751 619.3412 618.5525 619.3412 620.9186 614.609 623.2847 612.2429 627.2282 609.8768 628.0169 609.0881 628.8056 610.6655 632.7492 607.5107 632.7492 608.2994 635.1153 581.4836 635.904 580.6949 620.1299 580.6949 604.3559 Z" id="US.MI.115" fill="#cee3f5" stroke="#6e6e6e" stroke-width="0.4">
      <desc>
        <name>Monroe County</name>
        <stateAbbrev>MI</stateAbbrev>
        <state>Michigan</state>
        <fips>115</fips>
        <incits>26115</incits>
        <id>US.MI.115</id>
        <population>150376</population>
      </desc>
    </path>
    <path d="M 354.3379 590.1593 366.9571 590.1593 366.9571 605.1446 366.9571 613.0316 366.9571 632.7492 337.7751 632.7492 314.1141 632.7492 319.635 629.5944 326.7333 625.6508 332.2542 620.9186 335.409 616.1864 337.7751 611.4542 340.9299 606.722 343.296 602.7785 343.296 601.2011 346.4508 598.835 351.9718 593.3141 354.3379 590.1593 Z" id="US.MI.021" fill="#cee3f5" stroke="#6e6e6e" stroke-width="0.4">
      <desc>
        <name>Berrien County</name>
        <stateAbbrev>MI</stateAbbrev>
        <state>Michigan</state>
        <fips>021</fips>
        <incits>26021</incits>
        <id>US.MI.021</id>
        <population>155252</population>
      </desc>
    </path>
    <path d="M 545.9921 475.009 545.9921 463.9672 545.9921 452.1367 545.9921 437.9401 557.0339 437.1514 557.0339 445.0384 568.8644 445.0384 568.0757 448.9819 567.287 449.7706 568.0757 452.1367 567.287 456.0802 565.7096 457.6576 564.1322 457.6576 565.7096 461.6011 568.8644 465.5446 573.5966 467.9107 575.9627 467.9107 582.2723 469.4881 587.0045 471.8542 587.0045 482.896 576.7514 482.896 576.7514 478.9525 556.2452 478.9525 556.2452 475.009 545.9921 475.009 Z" id="US.MI.017" fill="#cee3f5" stroke="#6e6e6e" stroke-width="0.4">
      <desc>
        <name>Bay County</name>
        <stateAbbrev>MI</stateAbbrev>
        <state>Michigan</state>
        <fips>017</fips>
        <incits>26017</incits>
        <id>US.MI.017</id>
        <population>106832</population>
      </desc>
    </path>
    <path d="M 587.0045 471.8542 589.3706 472.6429 591.7367 471.0655 598.835 464.7559 600.4124 463.1785 602.7785 461.6011 605.1446 463.1785 606.722 460.8124 607.5107 466.3333 627.2282 465.5446 637.4814 465.5446 639.0588 496.304 637.4814 496.304 616.9751 496.304 616.9751 504.191 607.5107 504.191 607.5107 504.9797 587.0045 504.9797 587.0045 496.304 587.0045 482.896 587.0045 471.8542 Z" id="US.MI.157" fill="#cee3f5" stroke="#6e6e6e" stroke-width="0.4">
      <desc>
        <name>Tuscola County</name>
        <stateAbbrev>MI</stateAbbrev>
        <state>Michigan</state>
        <fips>157</fips>
        <incits>26157</incits>
        <id>US.MI.157</id>
        <population>54263</population>
      </desc>
    </path>
    <path d="M 545.9921 422.9548 571.2305 422.9548 583.061 422.9548 598.835 422.9548 598.0463 428.4757 596.4689 430.8418 597.2576 433.2079 594.1028 432.4192 591.7367 432.4192 589.3706 433.2079 588.5819 435.574 588.5819 437.9401 584.6384 437.1514 583.061 437.9401 580.6949 438.7288 575.174 438.7288 571.2305 441.8836 568.8644 445.0384 557.0339 445.0384 557.0339 437.1514 545.9921 437.9401 545.9921 422.9548 Z" id="US.MI.011" fill="#cee3f5" stroke="#6e6e6e" stroke-width="0.4">
      <desc>
        <name>Arenac County</name>
        <stateAbbrev>MI</stateAbbrev>
        <state>Michigan</state>
        <fips>011</fips>
        <incits>26011</incits>
        <id>US.MI.011</id>
        <population>15487</population>
      </desc>
    </path>
    <path d="M 682.4373 463.9672 637.4814 465.5446 627.2282 465.5446 607.5107 466.3333 606.722 460.8124 609.8768 456.0802 610.6655 454.5028 613.0316 452.1367 613.8203 450.5593 616.1864 449.7706 618.5525 447.4045 619.3412 445.0384 622.496 443.461 624.8621 439.5175 628.0169 438.7288 635.1153 437.9401 638.2701 437.1514 641.4249 437.1514 643.791 435.574 646.1571 433.2079 648.5232 433.2079 650.8893 431.6305 652.4667 431.6305 654.8328 431.6305 658.7763 433.2079 662.7198 433.9966 668.2407 436.3627 670.6068 437.9401 674.5503 443.461 675.339 445.0384 676.1277 447.4045 678.4938 448.9819 678.4938 451.348 680.0712 452.9254 681.6486 456.0802 681.6486 459.235 682.4373 462.3898 682.4373 463.9672 Z M 607.5107 454.5028 607.5107 452.9254 609.8768 450.5593 612.2429 452.1367 612.2429 453.7141 609.8768 452.9254 607.5107 454.5028 Z" id="US.MI.063" fill="#cee3f5" stroke="#6e6e6e" stroke-width="0.4">
      <desc>
        <name>Huron County</name>
        <stateAbbrev>MI</stateAbbrev>
        <state>Michigan</state>
        <fips>063</fips>
        <incits>26063</incits>
        <id>US.MI.063</id>
        <population>32224</population>
      </desc>
    </path>
    <path d="M 648.5232 511.2893 665.0859 510.5006 691.113 509.7119 692.6904 515.2328 698.2113 523.1198 698.2113 525.4859 699 526.2746 697.4226 528.6407 695.0565 531.0068 694.2678 534.1616 694.2678 536.5277 692.6904 541.2599 694.2678 545.2034 692.6904 547.5695 692.6904 549.1469 690.3243 553.8791 690.3243 556.2452 689.5356 558.6113 682.4373 564.1322 679.2825 563.3435 676.9164 564.9209 672.1842 570.4418 672.1842 557.0339 673.7616 552.3017 671.3955 549.9356 670.6068 533.3729 666.6633 533.3729 649.3119 534.1616 648.5232 519.965 648.5232 511.2893 Z" id="US.MI.147" fill="#cee3f5" stroke="#6e6e6e" stroke-width="0.4">
      <desc>
        <name>St. Clair County</name>
        <stateAbbrev>MI</stateAbbrev>
        <state>Michigan</state>
        <fips>147</fips>
        <incits>26147</incits>
        <id>US.MI.147</id>
        <population>160469</population>
      </desc>
    </path>
    <path d="M 507.3458 423.7435 528.6407 422.9548 545.9921 422.9548 545.9921 437.9401 545.9921 452.1367 528.6407 452.1367 528.6407 453.7141 507.3458 453.7141 508.1345 430.8418 507.3458 423.7435 Z" id="US.MI.051" fill="#cee3f5" stroke="#6e6e6e" stroke-width="0.4">
      <desc>
        <name>Gladwin County</name>
        <stateAbbrev>MI</stateAbbrev>
        <state>Michigan</state>
        <fips>051</fips>
        <incits>26051</incits>
        <id>US.MI.051</id>
        <population>25493</population>
      </desc>
    </path>
    <path d="M 637.4814 496.304 639.0588 496.304 637.4814 465.5446 682.4373 463.9672 682.4373 467.122 683.226 471.0655 682.4373 471.8542 685.5921 481.3186 687.1695 482.896 687.1695 485.2621 687.9582 486.8395 687.9582 489.2056 688.7469 490.7831 687.9582 493.9379 688.7469 494.7266 688.7469 497.8814 689.5356 501.0362 689.5356 501.8249 690.3243 506.5571 691.113 509.7119 665.0859 510.5006 648.5232 511.2893 647.7345 499.4588 637.4814 499.4588 637.4814 496.304 Z" id="US.MI.151" fill="#cee3f5" stroke="#6e6e6e" stroke-width="0.4">
      <desc>
        <name>Sanilac County</name>
        <stateAbbrev>MI</stateAbbrev>
        <state>Michigan</state>
        <fips>151</fips>
        <incits>26151</incits>
        <id>US.MI.151</id>
        <population>41823</population>
      </desc>
    </path>
    <path d="M 528.6407 512.8667 535.739 513.6554 567.287 512.8667 567.287 520.7537 566.4983 528.6407 567.287 543.626 565.7096 543.626 564.1322 543.626 546.7808 543.626 529.4294 544.4147 528.6407 537.3164 528.6407 514.4441 528.6407 512.8667 Z" id="US.MI.155" fill="#cee3f5" stroke="#6e6e6e" stroke-width="0.4">
      <desc>
        <name>Shiawassee County</name>
        <stateAbbrev>MI</stateAbbrev>
        <state>Michigan</state>
        <fips>155</fips>
        <incits>26155</incits>
        <id>US.MI.155</id>
        <population>68900</population>
      </desc>
    </path>
    <path d="M 528.6407 483.6847 528.6407 482.1073 545.9921 482.1073 545.9921 475.009 556.2452 475.009 556.2452 478.9525 576.7514 478.9525 576.7514 482.896 587.0045 482.896 587.0045 496.304 587.0045 504.9797 566.4983 504.9797 567.287 512.8667 535.739 513.6554 528.6407 512.8667 528.6407 483.6847 Z" id="US.MI.145" fill="#cee3f5" stroke="#6e6e6e" stroke-width="0.4">
      <desc>
        <name>Saginaw County</name>
        <stateAbbrev>MI</stateAbbrev>
        <state>Michigan</state>
        <fips>145</fips>
        <incits>26145</incits>
        <id>US.MI.145</id>
        <population>196542</population>
      </desc>
    </path>
    <path d="M 570.4418 392.9842 593.3141 392.9842 620.1299 392.9842 620.1299 393.7729 619.3412 398.5051 620.1299 401.6599 618.5525 404.8147 618.5525 407.9695 615.3977 408.7582 611.4542 411.913 610.6655 413.4904 606.722 412.7017 603.5672 413.4904 601.2011 415.0678 599.6237 418.2226 599.6237 419.8 598.835 422.9548 583.061 422.9548 571.2305 422.9548 571.2305 403.2373 570.4418 392.9842 Z" id="US.MI.069" fill="#cee3f5" stroke="#6e6e6e" stroke-width="0.4">
      <desc>
        <name>Iosco County</name>
        <stateAbbrev>MI</stateAbbrev>
        <state>Michigan</state>
        <fips>069</fips>
        <incits>26069</incits>
        <id>US.MI.069</id>
        <population>25429</population>
      </desc>
    </path>
    <path d="M 508.1345 544.4147 528.6407 544.4147 529.4294 544.4147 546.7808 543.626 547.5695 549.9356 548.3582 564.1322 548.3582 574.3853 528.6407 575.174 508.1345 575.174 508.1345 567.287 508.1345 544.4147 Z" id="US.MI.065" fill="#cee3f5" stroke="#6e6e6e" stroke-width="0.4">
      <desc>
        <name>Ingham County</name>
        <stateAbbrev>MI</stateAbbrev>
        <state>Michigan</state>
        <fips>065</fips>
        <incits>26065</incits>
        <id>US.MI.065</id>
        <population>282234</population>
      </desc>
    </path>
    <path d="M 497.8814 575.174 508.1345 575.174 528.6407 575.174 548.3582 574.3853 549.1469 574.3853 549.1469 590.1593 549.1469 597.2576 549.1469 605.1446 528.6407 605.1446 498.6701 605.9333 497.8814 590.1593 497.8814 575.174 Z" id="US.MI.075" fill="#cee3f5" stroke="#6e6e6e" stroke-width="0.4">
      <desc>
        <name>Jackson County</name>
        <stateAbbrev>MI</stateAbbrev>
        <state>Michigan</state>
        <fips>075</fips>
        <incits>26075</incits>
        <id>US.MI.075</id>
        <population>160369</population>
      </desc>
    </path>
    <path d="M 167.4158 150.8531 170.5706 148.487 171.3593 146.1209 174.5141 143.7548 179.2463 141.3887 183.9785 140.6 187.1333 139.0226 190.2881 138.2339 192.6542 136.6565 195.809 135.8678 207.6395 134.2904 213.9492 133.5017 220.2588 134.2904 222.6249 135.0791 224.991 134.2904 228.9345 134.2904 232.0893 135.0791 236.8215 137.4452 236.0328 140.6 234.4554 140.6 231.3006 141.3887 228.1458 142.1774 224.991 141.3887 222.6249 141.3887 215.5266 142.1774 214.7379 143.7548 217.104 145.3322 210.7944 149.2757 206.8508 150.0644 203.696 153.2192 201.3299 154.0079 200.5412 154.7966 196.5977 157.1627 193.4429 157.1627 191.8655 157.9514 185.5559 157.9514 185.5559 150.8531 167.4158 150.8531 Z M 242.3424 139.0226 244.7085 138.2339 245.4972 139.8113 242.3424 139.0226 Z M 93.278 90.1232 94.8554 90.9119 113.7842 83.0249 152.4305 67.2508 179.2463 61.7299 192.6542 66.4621 184.7672 74.3492 184.7672 84.6023 170.5706 88.5458 141.3887 98.7989 125.6147 104.3198 113.7842 108.2633 93.278 108.2633 93.278 90.1232 Z" id="US.MI.083" fill="#cee3f5" stroke="#6e6e6e" stroke-width="0.4">
      <desc>
        <name>Keweenaw County</name>
        <stateAbbrev>MI</stateAbbrev>
        <state>Michigan</state>
        <fips>083</fips>
        <incits>26083</incits>
        <id>US.MI.083</id>
        <population>2191</population>
      </desc>
    </path>
    <path d="M 487.6282 513.6554 528.6407 514.4441 528.6407 537.3164 529.4294 544.4147 528.6407 544.4147 508.1345 544.4147 487.6282 544.4147 487.6282 537.3164 487.6282 529.4294 487.6282 513.6554 Z" id="US.MI.037" fill="#cee3f5" stroke="#6e6e6e" stroke-width="0.4">
      <desc>
        <name>Clinton County</name>
        <stateAbbrev>MI</stateAbbrev>
        <state>Michigan</state>
        <fips>037</fips>
        <incits>26037</incits>
        <id>US.MI.037</id>
        <population>76739</population>
      </desc>
    </path>
    <path d="M 467.122 544.4147 487.6282 544.4147 508.1345 544.4147 508.1345 567.287 508.1345 575.174 497.8814 575.174 477.3751 575.174 467.122 575.174 467.122 544.4147 Z" id="US.MI.045" fill="#cee3f5" stroke="#6e6e6e" stroke-width="0.4">
      <desc>
        <name>Eaton County</name>
        <stateAbbrev>MI</stateAbbrev>
        <state>Michigan</state>
        <fips>045</fips>
        <incits>26045</incits>
        <id>US.MI.045</id>
        <population>108348</population>
      </desc>
    </path>
    <path d="M 401.6599 392.9842 402.4486 370.1119 417.4339 370.1119 421.3774 370.1119 422.9548 366.1684 424.5322 364.591 425.3209 362.2249 426.8983 361.4362 427.687 359.0701 425.3209 359.0701 427.687 355.9153 427.687 352.7605 432.4192 351.1831 433.2079 353.5492 430.8418 353.5492 430.8418 358.2814 430.0531 363.0136 426.1096 364.591 424.5322 366.1684 424.5322 368.5345 422.9548 370.9006 425.3209 371.6893 427.687 371.6893 429.2644 370.1119 429.2644 367.7458 432.4192 366.1684 434.7853 362.2249 440.3062 362.2249 441.8836 365.3797 444.2497 366.1684 444.2497 392.9842 422.9548 392.9842 401.6599 392.9842 Z" id="US.MI.055" fill="#cee3f5" stroke="#6e6e6e" stroke-width="0.4">
      <desc>
        <name>Grand Traverse County</name>
        <stateAbbrev>MI</stateAbbrev>
        <state>Michigan</state>
        <fips>055</fips>
        <incits>26055</incits>
        <id>US.MI.055</id>
        <population>89987</population>
      </desc>
    </path>
    <path d="M 417.4339 370.1119 402.4486 370.1119 379.5763 369.3232 379.5763 367.7458 380.365 365.3797 380.365 359.8588 380.365 358.2814 382.7311 357.4927 385.8859 359.0701 388.252 358.2814 389.0407 355.9153 391.4068 353.5492 393.7729 352.7605 395.3503 353.5492 396.9277 355.1266 398.5051 355.1266 403.2373 354.3379 405.6034 351.9718 405.6034 348.8169 407.1808 348.0282 408.7582 345.6621 411.913 344.0847 414.2791 341.7186 414.2791 340.1412 416.6452 336.9864 419.8 333.8316 422.9548 333.8316 426.1096 331.4655 427.687 333.8316 426.8983 334.6203 424.5322 336.1977 422.1661 336.9864 419.8 339.3525 421.3774 342.5073 424.5322 344.8734 422.1661 344.8734 421.3774 348.0282 418.2226 350.3944 416.6452 351.9718 418.2226 352.7605 420.5887 351.9718 421.3774 356.704 419.0113 356.704 416.6452 361.4362 416.6452 364.591 418.2226 367.7458 417.4339 370.1119 Z M 380.365 337.7751 381.9424 336.1977 385.8859 336.1977 388.252 337.7751 387.4633 342.5073 389.0407 344.0847 386.6746 345.6621 382.7311 342.5073 381.1537 340.9299 380.365 337.7751 Z M 372.478 348.8169 374.0554 346.4508 376.4215 345.6621 378.7876 346.4508 377.2102 348.0282 377.9989 349.6056 374.8441 350.3944 372.478 348.8169 Z M 396.139 310.9593 398.5051 311.748 400.8712 313.3254 401.6599 314.9028 400.8712 317.2689 396.9277 312.5367 396.139 310.9593 Z" id="US.MI.089" fill="#cee3f5" stroke="#6e6e6e" stroke-width="0.4">
      <desc>
        <name>Leelanau County</name>
        <stateAbbrev>MI</stateAbbrev>
        <state>Michigan</state>
        <fips>089</fips>
        <incits>26089</incits>
        <id>US.MI.089</id>
        <population>21747</population>
      </desc>
    </path>
    <path d="M 201.3299 269.9469 201.3299 252.5955 201.3299 241.5537 234.4554 241.5537 244.7085 241.5537 244.7085 264.426 244.7085 271.5243 238.3989 271.5243 238.3989 287.2983 224.991 287.2983 222.6249 284.1435 217.8927 283.3548 214.7379 284.1435 212.3718 280.9887 208.4282 280.9887 207.6395 281.7774 203.696 281.7774 202.9073 280.2 200.5412 279.4113 200.5412 277.8339 204.4847 275.4678 206.0621 273.8904 202.9073 273.1017 201.3299 269.9469 Z" id="US.MI.043" fill="#cee3f5" stroke="#6e6e6e" stroke-width="0.4">
      <desc>
        <name>Dickinson County</name>
        <stateAbbrev>MI</stateAbbrev>
        <state>Michigan</state>
        <fips>043</fips>
        <incits>26043</incits>
        <id>US.MI.043</id>
        <population>26098</population>
      </desc>
    </path>
    <path d="M 47.5333 195.809 49.1107 195.809 49.1107 210.7944 60.1525 211.5831 60.1525 218.6814 92.4893 218.6814 92.4893 233.6667 125.6147 233.6667 125.6147 241.5537 125.6147 254.1729 116.939 251.0181 83.8136 244.7085 44.3785 236.8215 27.0271 233.6667 27.0271 231.3006 25.4497 230.5119 23.8723 227.3571 23.0836 224.991 22.2949 224.2023 18.3514 219.4701 17.5627 218.6814 14.4079 218.6814 13.6192 217.8927 9.6757 217.8927 10.4644 216.3153 8.0983 214.7379 6.5209 215.5266 2.5774 216.3153 1 213.1605 8.0983 210.0056 10.4644 210.0056 14.4079 208.4282 23.0836 206.0621 27.0271 206.0621 33.3367 204.4847 35.7028 203.696 39.6463 201.3299 44.3785 198.1751 47.5333 195.809 Z" id="US.MI.053" fill="#cee3f5" stroke="#6e6e6e" stroke-width="0.4">
      <desc>
        <name>Gogebic County</name>
        <stateAbbrev>MI</stateAbbrev>
        <state>Michigan</state>
        <fips>053</fips>
        <incits>26053</incits>
        <id>US.MI.053</id>
        <population>15916</population>
      </desc>
    </path>
    <path d="M 125.6147 226.5684 152.4305 226.5684 201.3299 226.5684 201.3299 241.5537 201.3299 252.5955 201.3299 269.9469 195.809 267.5808 191.8655 267.5808 189.4994 266.0034 188.7107 266.7921 185.5559 266.7921 183.1898 266.0034 178.4576 263.6373 177.6689 264.426 174.5141 264.426 171.3593 262.8486 168.2045 262.8486 167.4158 261.2712 162.6836 261.2712 160.3175 262.0599 159.5288 261.2712 157.9514 263.6373 154.0079 263.6373 152.4305 261.2712 150.0644 261.2712 147.6983 260.4825 143.7548 261.2712 139.0226 260.4825 137.4452 259.6938 125.6147 254.1729 125.6147 241.5537 125.6147 233.6667 125.6147 226.5684 Z" id="US.MI.071" fill="#cee3f5" stroke="#6e6e6e" stroke-width="0.4">
      <desc>
        <name>Iron County</name>
        <stateAbbrev>MI</stateAbbrev>
        <state>Michigan</state>
        <fips>071</fips>
        <incits>26071</incits>
        <id>US.MI.071</id>
        <population>11516</population>
      </desc>
    </path>
    <path d="M 207.6395 183.1898 212.3718 183.9785 215.5266 183.1898 221.0475 183.1898 224.991 185.5559 228.1458 184.7672 231.3006 186.3446 232.0893 187.922 234.4554 187.1333 235.2441 190.2881 237.6102 191.0768 239.9763 189.4994 240.765 191.0768 243.9198 191.8655 247.0746 195.0203 247.8633 198.9638 248.652 199.7525 252.5955 202.1186 253.3842 203.696 254.9616 206.0621 258.1164 207.6395 258.9051 209.2169 261.2712 211.5831 265.2147 212.3718 264.426 213.1605 266.0034 215.5266 264.426 216.3153 266.7921 218.6814 270.7356 219.4701 277.8339 220.2588 281.7774 220.2588 284.1435 218.6814 287.2983 219.4701 288.8757 219.4701 288.8757 248.652 277.8339 249.4407 277.8339 264.426 266.7921 264.426 244.7085 264.426 244.7085 241.5537 234.4554 241.5537 201.3299 241.5537 201.3299 226.5684 201.3299 203.696 212.3718 203.696 212.3718 195.809 207.6395 195.809 207.6395 183.1898 Z" id="US.MI.103" fill="#cee3f5" stroke="#6e6e6e" stroke-width="0.4">
      <desc>
        <name>Marquette County</name>
        <stateAbbrev>MI</stateAbbrev>
        <state>Michigan</state>
        <fips>103</fips>
        <incits>26103</incits>
        <id>US.MI.103</id>
        <population>67700</population>
      </desc>
    </path>
    <path d="M 224.991 287.2983 238.3989 287.2983 238.3989 271.5243 244.7085 271.5243 244.7085 264.426 266.7921 264.426 266.7921 271.5243 270.7356 271.5243 269.9469 302.2836 276.2565 302.2836 273.8904 306.2271 269.9469 310.9593 269.9469 313.3254 267.5808 314.9028 267.5808 316.4802 265.2147 318.0576 263.6373 321.2124 261.2712 322.0011 261.2712 324.3672 258.9051 325.9446 251.8068 333.0429 249.4407 334.6203 247.0746 336.9864 245.4972 340.1412 247.0746 341.7186 241.5537 340.9299 239.1876 337.7751 236.8215 336.1977 235.2441 334.6203 234.4554 333.0429 235.2441 332.2542 236.0328 329.8881 236.8215 329.0994 239.1876 324.3672 242.3424 320.4237 241.5537 318.0576 238.3989 315.6915 236.0328 317.2689 233.6667 319.635 230.5119 318.8463 224.991 319.635 221.8362 318.0576 224.2023 316.4802 224.991 314.1141 224.2023 312.5367 228.1458 309.3819 229.7232 306.2271 228.9345 305.4384 228.9345 302.2836 231.3006 297.5514 228.1458 294.3966 227.3571 292.0305 231.3006 291.2418 228.9345 289.6644 228.1458 288.087 224.991 287.2983 Z" id="US.MI.109" fill="#cee3f5" stroke="#6e6e6e" stroke-width="0.4">
      <desc>
        <name>Menominee County</name>
        <stateAbbrev>MI</stateAbbrev>
        <state>Michigan</state>
        <fips>109</fips>
        <incits>26109</incits>
        <id>US.MI.109</id>
        <population>23791</population>
      </desc>
    </path>
    <path d="M 47.5333 195.809 50.6881 193.4429 54.6316 191.8655 61.7299 190.2881 66.4621 190.2881 70.4056 191.0768 76.7153 189.4994 79.8701 189.4994 83.8136 189.4994 88.5458 189.4994 94.0667 187.922 105.8972 182.4011 109.8407 178.4576 113.7842 176.0915 117.7277 176.8802 120.8825 175.3028 124.826 176.0915 128.7695 174.5141 130.3469 172.9367 130.3469 195.809 136.6565 195.809 136.6565 203.696 125.6147 203.696 125.6147 226.5684 125.6147 233.6667 92.4893 233.6667 92.4893 218.6814 60.1525 218.6814 60.1525 211.5831 49.1107 210.7944 49.1107 195.809 47.5333 195.809 Z" id="US.MI.131" fill="#cee3f5" stroke="#6e6e6e" stroke-width="0.4">
      <desc>
        <name>Ontonagon County</name>
        <stateAbbrev>MI</stateAbbrev>
        <state>Michigan</state>
        <fips>131</fips>
        <incits>26131</incits>
        <id>US.MI.131</id>
        <population>6322</population>
      </desc>
    </path>
    <path d="M 448.1932 605.1446 458.4463 605.1446 488.4169 605.1446 489.2056 632.7492 475.7977 632.7492 448.1932 632.7492 448.1932 620.9186 448.1932 605.1446 Z" id="US.MI.023" fill="#cee3f5" stroke="#6e6e6e" stroke-width="0.4">
      <desc>
        <name>Branch County</name>
        <stateAbbrev>MI</stateAbbrev>
        <state>Michigan</state>
        <fips>023</fips>
        <incits>26023</incits>
        <id>US.MI.023</id>
        <population>43649</population>
      </desc>
    </path>
    <path d="M 366.9571 632.7492 366.9571 613.0316 366.9571 605.1446 386.6746 605.9333 407.1808 605.9333 407.1808 620.1299 407.1808 629.5944 404.8147 631.1718 404.8147 632.7492 382.7311 632.7492 366.9571 632.7492 Z" id="US.MI.027" fill="#cee3f5" stroke="#6e6e6e" stroke-width="0.4">
      <desc>
        <name>Cass County</name>
        <stateAbbrev>MI</stateAbbrev>
        <state>Michigan</state>
        <fips>027</fips>
        <incits>26027</incits>
        <id>US.MI.027</id>
        <population>51910</population>
      </desc>
    </path>
    <path d="M 488.4169 605.1446 498.6701 605.9333 528.6407 605.1446 529.4294 637.4814 495.5153 638.2701 490.7831 638.2701 490.7831 632.7492 489.2056 632.7492 488.4169 605.1446 Z" id="US.MI.059" fill="#cee3f5" stroke="#6e6e6e" stroke-width="0.4">
      <desc>
        <name>Hillsdale County</name>
        <stateAbbrev>MI</stateAbbrev>
        <state>Michigan</state>
        <fips>059</fips>
        <incits>26059</incits>
        <id>US.MI.059</id>
        <population>46101</population>
      </desc>
    </path>
    <path d="M 528.6407 605.1446 549.1469 605.1446 560.1887 605.1446 580.6949 604.3559 580.6949 620.1299 581.4836 635.904 540.4712 636.6927 529.4294 637.4814 528.6407 605.1446 Z" id="US.MI.091" fill="#cee3f5" stroke="#6e6e6e" stroke-width="0.4">
      <desc>
        <name>Lenawee County</name>
        <stateAbbrev>MI</stateAbbrev>
        <state>Michigan</state>
        <fips>091</fips>
        <incits>26091</incits>
        <id>US.MI.091</id>
        <population>99188</population>
      </desc>
    </path>
    <path d="M 407.1808 605.9333 426.8983 605.1446 448.1932 605.1446 448.1932 620.9186 448.1932 632.7492 420.5887 632.7492 404.8147 632.7492 404.8147 631.1718 407.1808 629.5944 407.1808 620.1299 407.1808 605.9333 Z" id="US.MI.149" fill="#cee3f5" stroke="#6e6e6e" stroke-width="0.4">
      <desc>
        <name>St. Joseph County</name>
        <stateAbbrev>MI</stateAbbrev>
        <state>Michigan</state>
        <fips>149</fips>
        <incits>26149</incits>
        <id>US.MI.149</id>
        <population>60964</population>
      </desc>
    </path>
    <path d="M 288.8757 219.4701 292.0305 217.8927 296.7627 217.104 297.5514 216.3153 300.7062 217.104 302.2836 217.8927 305.4384 222.6249 308.5932 222.6249 310.1706 224.991 313.3254 224.991 314.9028 224.991 315.6915 222.6249 317.2689 221.0475 320.4237 221.0475 322.7898 221.8362 325.1559 224.2023 329.0994 224.2023 328.3107 226.5684 330.6768 227.3571 338.5638 219.4701 340.1412 219.4701 340.9299 217.8927 343.296 217.104 345.6621 214.7379 348.0282 214.7379 353.5492 213.1605 357.4927 211.5831 370.1119 205.2734 374.0554 204.4847 375.6328 205.2734 380.365 205.2734 382.7311 204.4847 388.252 203.696 390.6181 203.696 394.5616 202.9073 398.5051 202.9073 398.5051 218.6814 365.3797 218.6814 354.3379 218.6814 354.3379 233.6667 332.2542 233.6667 332.2542 248.652 310.1706 249.4407 288.8757 248.652 288.8757 219.4701 Z M 324.3672 215.5266 325.9446 213.9492 329.0994 213.9492 331.4655 216.3153 331.4655 218.6814 329.8881 220.2588 333.0429 221.8362 330.6768 223.4136 329.0994 221.8362 326.7333 223.4136 326.7333 219.4701 325.1559 217.8927 324.3672 215.5266 Z" id="US.MI.003" fill="#cee3f5" stroke="#6e6e6e" stroke-width="0.4">
      <desc>
        <name>Alger County</name>
        <stateAbbrev>MI</stateAbbrev>
        <state>Michigan</state>
        <fips>003</fips>
        <incits>26003</incits>
        <id>US.MI.003</id>
        <population>9522</population>
      </desc>
    </path>
    <path d="M 172.148 180.8237 170.5706 185.5559 169.7819 190.2881 171.3593 194.2316 169.7819 194.2316 168.2045 196.5977 170.5706 197.3864 173.7254 193.4429 178.4576 189.4994 177.6689 187.1333 180.8237 187.922 184.7672 185.5559 188.7107 183.1898 190.2881 181.6124 194.2316 180.8237 198.1751 178.4576 198.9638 180.035 195.809 182.4011 191.8655 184.7672 190.2881 186.3446 187.922 189.4994 189.4994 189.4994 191.0768 187.1333 195.809 183.9785 200.5412 183.1898 204.4847 182.4011 207.6395 183.1898 207.6395 195.809 212.3718 195.809 212.3718 203.696 201.3299 203.696 201.3299 226.5684 152.4305 226.5684 152.4305 211.5831 152.4305 195.809 152.4305 188.7107 163.4723 188.7107 163.4723 180.8237 172.148 180.8237 Z" id="US.MI.013" fill="#cee3f5" stroke="#6e6e6e" stroke-width="0.4">
      <desc>
        <name>Baraga County</name>
        <stateAbbrev>MI</stateAbbrev>
        <state>Michigan</state>
        <fips>013</fips>
        <incits>26013</incits>
        <id>US.MI.013</id>
        <population>8695</population>
      </desc>
    </path>
    <path d="M 452.1367 196.5977 460.8124 195.809 464.7559 196.5977 470.2768 196.5977 475.7977 195.0203 477.3751 195.809 472.6429 199.7525 471.0655 202.1186 470.2768 210.7944 471.0655 215.5266 468.6994 217.104 469.4881 218.6814 470.2768 220.2588 472.6429 221.0475 476.5864 221.0475 478.9525 220.2588 482.1073 221.8362 485.2621 221.8362 487.6282 224.2023 488.4169 224.2023 493.9379 223.4136 501.8249 220.2588 505.7684 220.2588 508.9232 224.2023 508.1345 226.5684 509.7119 226.5684 512.078 226.5684 516.8102 224.2023 519.1763 224.991 520.7537 224.2023 520.7537 221.8362 524.6972 220.2588 526.2746 220.2588 530.2181 218.6814 534.1616 220.2588 534.1616 221.8362 538.1051 224.991 538.8938 228.1458 541.2599 232.0893 541.2599 237.6102 543.626 239.1876 545.2034 241.5537 542.0486 241.5537 541.2599 244.7085 538.8938 247.0746 541.2599 248.652 543.626 247.8633 545.2034 246.2859 545.9921 247.8633 550.7243 248.652 553.0904 250.2294 555.4565 250.2294 558.6113 251.0181 555.4565 252.5955 554.6678 254.9616 557.8226 257.3277 558.6113 258.1164 560.1887 258.9051 562.5548 260.4825 565.7096 260.4825 568.8644 262.0599 569.6531 263.6373 568.0757 266.0034 562.5548 265.2147 559.4 266.7921 553.0904 265.2147 550.7243 264.426 539.6825 263.6373 539.6825 256.539 529.4294 256.539 528.6407 249.4407 503.4023 249.4407 463.1785 249.4407 463.1785 241.5537 452.9254 241.5537 452.9254 218.6814 452.1367 196.5977 Z M 571.2305 265.2147 572.8079 262.0599 574.3853 260.4825 575.174 262.0599 577.5401 264.426 579.9062 262.8486 581.4836 260.4825 583.8497 260.4825 585.4271 259.6938 587.0045 259.6938 589.3706 258.1164 589.3706 256.539 586.2158 255.7503 584.6384 254.9616 585.4271 254.1729 593.3141 254.1729 596.4689 254.9616 599.6237 257.3277 600.4124 261.2712 605.1446 262.8486 606.722 264.426 604.3559 266.0034 601.9898 269.9469 601.2011 269.9469 595.6802 269.1582 593.3141 268.3695 590.948 267.5808 585.4271 268.3695 583.061 268.3695 581.4836 266.7921 579.1175 268.3695 577.5401 268.3695 577.5401 266.0034 574.3853 266.7921 574.3853 265.2147 571.2305 265.2147 Z M 535.739 221.0475 536.5277 220.2588 538.8938 219.4701 542.0486 216.3153 545.2034 217.104 548.3582 216.3153 549.1469 218.6814 547.5695 220.2588 547.5695 221.8362 545.9921 222.6249 543.626 225.7797 543.626 226.5684 547.5695 228.9345 547.5695 230.5119 549.1469 232.0893 550.7243 234.4554 545.2034 233.6667 544.4147 230.5119 540.4712 228.9345 539.6825 224.2023 536.5277 222.6249 535.739 221.0475 Z M 545.2034 241.5537 545.2034 239.9763 542.0486 237.6102 542.0486 234.4554 545.2034 234.4554 549.1469 235.2441 549.9356 239.1876 551.513 239.9763 549.9356 243.1311 547.5695 243.1311 545.2034 241.5537 Z" id="US.MI.033" fill="#cee3f5" stroke="#6e6e6e" stroke-width="0.4">
      <desc>
        <name>Chippewa County</name>
        <stateAbbrev>MI</stateAbbrev>
        <state>Michigan</state>
        <fips>033</fips>
        <incits>26033</incits>
        <id>US.MI.033</id>
        <population>38696</population>
      </desc>
    </path>
    <path d="M 266.7921 264.426 277.8339 264.426 277.8339 249.4407 288.8757 248.652 310.1706 249.4407 332.2542 248.652 343.296 248.652 343.296 272.313 345.6621 272.313 345.6621 284.1435 344.0847 284.9322 342.5073 284.1435 339.3525 284.9322 340.1412 288.087 336.1977 287.2983 335.409 288.8757 335.409 290.4531 334.6203 292.0305 331.4655 292.8192 332.2542 295.974 329.8881 295.974 326.7333 294.3966 323.5785 292.0305 323.5785 290.4531 325.9446 290.4531 328.3107 288.8757 327.522 287.2983 332.2542 284.9322 330.6768 283.3548 331.4655 281.7774 335.409 281.7774 336.1977 280.2 337.7751 279.4113 337.7751 277.8339 340.1412 275.4678 339.3525 273.1017 336.1977 271.5243 333.0429 273.8904 330.6768 274.6791 330.6768 276.2565 328.3107 277.0452 322.7898 276.2565 320.4237 274.6791 318.0576 275.4678 318.8463 279.4113 317.2689 280.9887 315.6915 280.9887 315.6915 282.5661 312.5367 285.7209 313.3254 287.2983 310.1706 288.087 307.8045 288.087 303.861 288.8757 302.2836 290.4531 300.7062 288.087 301.4949 284.1435 299.9175 279.4113 299.1288 278.6226 300.7062 276.2565 303.861 273.8904 303.861 271.5243 300.7062 271.5243 299.1288 273.1017 296.7627 275.4678 299.1288 276.2565 295.974 277.0452 294.3966 279.4113 293.6079 284.1435 295.1853 284.9322 292.8192 287.2983 293.6079 288.087 290.4531 288.8757 290.4531 290.4531 288.087 290.4531 284.1435 292.0305 283.3548 293.6079 281.7774 294.3966 277.8339 299.9175 276.2565 302.2836 269.9469 302.2836 270.7356 271.5243 266.7921 271.5243 266.7921 264.426 Z M 328.3107 299.9175 329.0994 299.1288 332.2542 300.7062 331.4655 302.2836 329.8881 302.2836 328.3107 299.9175 Z" id="US.MI.041" fill="#cee3f5" stroke="#6e6e6e" stroke-width="0.4">
      <desc>
        <name>Delta County</name>
        <stateAbbrev>MI</stateAbbrev>
        <state>Michigan</state>
        <fips>041</fips>
        <incits>26041</incits>
        <id>US.MI.041</id>
        <population>36905</population>
      </desc>
    </path>
    <path d="M 167.4158 150.8531 185.5559 150.8531 185.5559 157.9514 191.8655 157.9514 191.0768 160.3175 191.0768 162.6836 187.922 162.6836 186.3446 164.261 185.5559 167.4158 181.6124 168.9932 180.035 173.7254 176.0915 176.8802 175.3028 177.6689 172.148 174.5141 170.5706 173.7254 170.5706 170.5706 171.3593 169.7819 175.3028 167.4158 176.8802 165.8384 176.0915 161.8949 177.6689 160.3175 176.0915 159.5288 172.9367 161.8949 176.0915 162.6836 176.0915 165.0497 173.7254 167.4158 168.9932 168.2045 168.2045 165.8384 164.261 165.0497 160.3175 165.0497 157.9514 164.261 156.374 160.3175 157.9514 158.7401 157.9514 157.1627 157.1627 155.5853 158.7401 154.7966 161.1062 154.0079 167.4158 150.8531 Z M 130.3469 172.9367 131.9243 170.5706 132.713 168.2045 134.2904 166.6271 139.0226 165.0497 140.6 163.4723 142.9661 162.6836 144.5435 162.6836 149.2757 158.7401 153.2192 156.374 156.374 155.5853 157.9514 156.374 157.9514 157.9514 155.5853 160.3175 157.1627 164.261 160.3175 165.0497 164.261 165.0497 167.4158 165.8384 166.6271 172.148 169.7819 172.9367 171.3593 174.5141 173.7254 176.0915 172.148 180.8237 163.4723 180.8237 163.4723 188.7107 152.4305 188.7107 152.4305 195.809 152.4305 211.5831 152.4305 226.5684 125.6147 226.5684 125.6147 203.696 136.6565 203.696 136.6565 195.809 130.3469 195.809 130.3469 172.9367 Z" id="US.MI.061" fill="#cee3f5" stroke="#6e6e6e" stroke-width="0.4">
      <desc>
        <name>Houghton County</name>
        <stateAbbrev>MI</stateAbbrev>
        <state>Michigan</state>
        <fips>061</fips>
        <incits>26061</incits>
        <id>US.MI.061</id>
        <population>36225</population>
      </desc>
    </path>
    <path d="M 397.7164 241.5537 398.5051 218.6814 398.5051 202.9073 407.1808 203.696 415.0678 203.696 422.9548 203.696 429.2644 203.696 442.6723 199.7525 446.6158 198.1751 452.1367 196.5977 452.9254 218.6814 452.9254 241.5537 419.8 241.5537 397.7164 241.5537 Z" id="US.MI.095" fill="#cee3f5" stroke="#6e6e6e" stroke-width="0.4">
      <desc>
        <name>Luce County</name>
        <stateAbbrev>MI</stateAbbrev>
        <state>Michigan</state>
        <fips>095</fips>
        <incits>26095</incits>
        <id>US.MI.095</id>
        <population>6502</population>
      </desc>
    </path>
    <path d="M 397.7164 241.5537 419.8 241.5537 452.9254 241.5537 463.1785 241.5537 463.1785 249.4407 503.4023 249.4407 528.6407 249.4407 529.4294 256.539 539.6825 256.539 539.6825 263.6373 550.7243 264.426 546.7808 264.426 543.626 265.2147 542.0486 264.426 540.4712 265.2147 537.3164 263.6373 534.9503 264.426 531.7955 262.8486 529.4294 262.8486 529.4294 265.2147 526.2746 263.6373 522.3311 262.0599 518.3876 262.8486 514.4441 263.6373 512.8667 260.4825 511.2893 259.6938 508.1345 260.4825 504.191 258.1164 501.8249 258.9051 500.2475 260.4825 501.0362 262.0599 501.0362 265.2147 497.0927 266.0034 496.304 267.5808 497.8814 269.1582 497.0927 269.9469 497.8814 274.6791 499.4588 276.2565 496.304 276.2565 494.7266 277.0452 491.5718 274.6791 489.2056 274.6791 487.6282 273.1017 487.6282 271.5243 485.2621 270.7356 482.896 269.1582 480.5299 269.1582 478.1638 266.0034 473.4316 262.0599 469.4881 261.2712 464.7559 260.4825 460.8124 258.1164 456.0802 258.1164 455.2915 258.1164 450.5593 257.3277 445.0384 254.9616 441.8836 254.9616 436.3627 254.1729 433.9966 254.9616 431.6305 254.1729 427.687 254.9616 423.7435 257.3277 421.3774 260.4825 418.2226 263.6373 417.4339 264.426 415.8565 266.0034 408.7582 266.0034 402.4486 264.426 400.0825 266.0034 397.7164 266.0034 397.7164 241.5537 Z M 508.9232 279.4113 510.5006 278.6226 512.8667 279.4113 516.8102 279.4113 523.1198 281.7774 525.4859 280.9887 529.4294 282.5661 528.6407 284.9322 523.9085 287.2983 517.5989 285.7209 512.8667 280.9887 508.9232 279.4113 Z M 504.191 274.6791 505.7684 273.1017 507.3458 274.6791 506.5571 276.2565 504.191 274.6791 Z M 522.3311 266.0034 523.9085 266.7921 524.6972 264.426 527.0633 263.6373 530.2181 267.5808 529.4294 268.3695 525.4859 267.5808 522.3311 266.0034 Z" id="US.MI.097" fill="#cee3f5" stroke="#6e6e6e" stroke-width="0.4">
      <desc>
        <name>Mackinac County</name>
        <stateAbbrev>MI</stateAbbrev>
        <state>Michigan</state>
        <fips>097</fips>
        <incits>26097</incits>
        <id>US.MI.097</id>
        <population>11061</population>
      </desc>
    </path>
    <path d="M 332.2542 248.652 332.2542 233.6667 354.3379 233.6667 354.3379 218.6814 365.3797 218.6814 398.5051 218.6814 397.7164 241.5537 397.7164 266.0034 395.3503 266.0034 392.9842 266.7921 392.9842 269.9469 390.6181 268.3695 385.0972 266.7921 381.1537 266.0034 375.6328 266.0034 371.6893 266.7921 368.5345 266.0034 366.1684 267.5808 362.2249 267.5808 362.2249 268.3695 359.0701 269.9469 356.704 274.6791 357.4927 275.4678 355.9153 277.0452 355.9153 278.6226 353.5492 280.9887 351.9718 280.9887 350.3944 280.9887 348.0282 284.1435 345.6621 284.1435 345.6621 272.313 343.296 272.313 343.296 248.652 332.2542 248.652 Z" id="US.MI.153" fill="#cee3f5" stroke="#6e6e6e" stroke-width="0.4">
      <desc>
        <name>Schoolcraft County</name>
        <stateAbbrev>MI</stateAbbrev>
        <state>Michigan</state>
        <fips>153</fips>
        <incits>26153</incits>
        <id>US.MI.153</id>
        <population>8247</population>
      </desc>
    </path>
    <path d="M 570.4418 362.2249 579.1175 362.2249 601.9898 362.2249 620.1299 362.2249 621.7073 364.591 622.496 366.9571 621.7073 370.9006 622.496 373.2667 624.0734 374.8441 622.496 380.365 621.7073 381.9424 620.1299 385.0972 620.9186 389.8294 620.1299 392.9842 593.3141 392.9842 570.4418 392.9842 570.4418 377.9989 570.4418 362.2249 Z" id="US.MI.001" fill="#cee3f5" stroke="#6e6e6e" stroke-width="0.4">
      <desc>
        <name>Alcona County</name>
        <stateAbbrev>MI</stateAbbrev>
        <state>Michigan</state>
        <fips>001</fips>
        <incits>26001</incits>
        <id>US.MI.001</id>
        <population>10578</population>
      </desc>
    </path>
    <path d="M 362.2249 575.174 363.0136 573.5966 364.591 568.8644 365.3797 564.9209 366.9571 559.4 366.1684 556.2452 366.9571 553.8791 368.5345 549.9356 367.7458 544.4147 387.4633 544.4147 394.5616 544.4147 405.6034 544.4147 426.1096 544.4147 426.1096 560.1887 426.1096 575.174 407.1808 575.174 386.6746 575.174 362.2249 575.174 Z" id="US.MI.005" fill="#cee3f5" stroke="#6e6e6e" stroke-width="0.4">
      <desc>
        <name>Allegan County</name>
        <stateAbbrev>MI</stateAbbrev>
        <state>Michigan</state>
        <fips>005</fips>
        <incits>26005</incits>
        <id>US.MI.005</id>
        <population>112531</population>
      </desc>
    </path>
    <path d="M 570.4418 362.2249 570.4418 354.3379 570.4418 347.2395 571.2305 347.2395 571.2305 332.2542 592.5254 332.2542 602.7785 332.2542 613.8203 332.2542 615.3977 333.8316 616.1864 334.6203 617.7638 336.1977 620.9186 339.3525 620.1299 339.3525 621.7073 341.7186 620.9186 343.296 621.7073 345.6621 623.2847 345.6621 624.8621 348.0282 617.7638 346.4508 614.609 343.296 609.8768 344.8734 609.0881 346.4508 608.2994 348.0282 609.8768 348.8169 608.2994 350.3944 609.0881 353.5492 610.6655 355.9153 613.0316 358.2814 616.9751 359.8588 620.9186 360.6475 620.1299 362.2249 601.9898 362.2249 579.1175 362.2249 570.4418 362.2249 Z" id="US.MI.007" fill="#cee3f5" stroke="#6e6e6e" stroke-width="0.4">
      <desc>
        <name>Alpena County</name>
        <stateAbbrev>MI</stateAbbrev>
        <state>Michigan</state>
        <fips>007</fips>
        <incits>26007</incits>
        <id>US.MI.007</id>
        <population>29091</population>
      </desc>
    </path>
    <path d="M 439.5175 332.2542 453.7141 332.2542 453.7141 340.1412 475.009 339.3525 485.2621 340.1412 486.0508 347.2395 486.8395 347.2395 486.8395 355.1266 486.8395 358.2814 486.8395 362.2249 465.5446 362.2249 448.1932 362.2249 445.0384 362.2249 445.0384 363.0136 445.8271 363.8023 445.8271 366.1684 444.2497 366.1684 441.8836 365.3797 440.3062 362.2249 434.7853 362.2249 437.9401 358.2814 440.3062 352.7605 441.0949 349.6056 440.3062 345.6621 441.8836 344.0847 441.8836 340.1412 441.0949 339.3525 440.3062 334.6203 439.5175 332.2542 Z" id="US.MI.009" fill="#cee3f5" stroke="#6e6e6e" stroke-width="0.4">
      <desc>
        <name>Antrim County</name>
        <stateAbbrev>MI</stateAbbrev>
        <state>Michigan</state>
        <fips>009</fips>
        <incits>26009</incits>
        <id>US.MI.009</id>
        <population>23370</population>
      </desc>
    </path>
    <path d="M 426.1096 544.4147 446.6158 544.4147 467.122 544.4147 467.122 575.174 447.4045 575.174 426.1096 575.174 426.1096 560.1887 426.1096 544.4147 Z" id="US.MI.015" fill="#cee3f5" stroke="#6e6e6e" stroke-width="0.4">
      <desc>
        <name>Barry County</name>
        <stateAbbrev>MI</stateAbbrev>
        <state>Michigan</state>
        <fips>015</fips>
        <incits>26015</incits>
        <id>US.MI.015</id>
        <population>59097</population>
      </desc>
    </path>
    <path d="M 379.5763 369.3232 402.4486 370.1119 401.6599 392.9842 381.1537 392.1955 366.1684 392.1955 366.9571 387.4633 366.1684 384.3085 363.8023 379.5763 363.8023 377.2102 365.3797 375.6328 370.9006 374.8441 372.478 373.2667 377.2102 373.2667 378.7876 372.478 379.5763 369.3232 Z" id="US.MI.019" fill="#cee3f5" stroke="#6e6e6e" stroke-width="0.4">
      <desc>
        <name>Benzie County</name>
        <stateAbbrev>MI</stateAbbrev>
        <state>Michigan</state>
        <fips>019</fips>
        <incits>26019</incits>
        <id>US.MI.019</id>
        <population>17428</population>
      </desc>
    </path>
    <path d="M 447.4045 575.174 467.122 575.174 477.3751 575.174 497.8814 575.174 497.8814 590.1593 498.6701 605.9333 488.4169 605.1446 458.4463 605.1446 448.1932 605.1446 447.4045 587.7932 447.4045 575.174 Z" id="US.MI.025" fill="#cee3f5" stroke="#6e6e6e" stroke-width="0.4">
      <desc>
        <name>Calhoun County</name>
        <stateAbbrev>MI</stateAbbrev>
        <state>Michigan</state>
        <fips>025</fips>
        <incits>26025</incits>
        <id>US.MI.025</id>
        <population>135012</population>
      </desc>
    </path>
    <path d="M 418.2226 298.3401 419.8 295.1853 420.5887 294.3966 420.5887 290.4531 423.7435 288.087 424.5322 285.7209 426.1096 284.1435 430.0531 284.1435 428.4757 285.7209 430.0531 286.5096 430.8418 288.8757 429.2644 291.2418 430.8418 293.6079 430.8418 295.974 430.8418 296.7627 427.687 298.3401 426.8983 299.9175 424.5322 299.9175 422.1661 299.1288 419.8 299.1288 418.2226 298.3401 Z M 426.8983 280.2 426.8983 278.6226 428.4757 277.8339 431.6305 279.4113 433.2079 280.9887 430.8418 281.7774 430.0531 280.9887 426.8983 280.2 Z M 436.3627 281.7774 438.7288 282.5661 440.3062 280.9887 440.3062 279.4113 442.6723 280.2 442.6723 282.5661 441.0949 283.3548 436.3627 281.7774 Z M 464.7559 318.0576 464.7559 320.4237 469.4881 321.2124 471.8542 324.3672 472.6429 325.9446 475.7977 326.7333 475.7977 324.3672 497.0927 325.1559 496.304 332.2542 496.304 340.1412 485.2621 340.1412 475.009 339.3525 453.7141 340.1412 453.7141 332.2542 439.5175 332.2542 439.5175 329.8881 441.0949 326.7333 443.461 325.1559 445.0384 323.5785 449.7706 322.7898 456.0802 318.8463 457.6576 318.8463 461.6011 317.2689 464.7559 318.0576 Z M 411.913 285.7209 414.2791 284.9322 416.6452 285.7209 416.6452 287.2983 415.0678 288.8757 412.7017 289.6644 413.4904 287.2983 411.913 285.7209 Z" id="US.MI.029" fill="#cee3f5" stroke="#6e6e6e" stroke-width="0.4">
      <desc>
        <name>Charlevoix County</name>
        <stateAbbrev>MI</stateAbbrev>
        <state>Michigan</state>
        <fips>029</fips>
        <incits>26029</incits>
        <id>US.MI.029</id>
        <population>26129</population>
      </desc>
    </path>
    <path d="M 496.304 332.2542 497.0927 325.1559 497.0927 302.2836 497.0927 280.9887 497.8814 282.5661 504.191 285.7209 505.7684 285.7209 510.5006 288.087 517.5989 291.2418 518.3876 292.0305 523.1198 293.6079 524.6972 292.0305 527.852 292.8192 531.7955 292.0305 538.8938 294.3966 538.8938 312.5367 538.8938 325.1559 538.8938 333.0429 528.6407 333.0429 507.3458 332.2542 496.304 332.2542 Z" id="US.MI.031" fill="#cee3f5" stroke="#6e6e6e" stroke-width="0.4">
      <desc>
        <name>Cheboygan County</name>
        <stateAbbrev>MI</stateAbbrev>
        <state>Michigan</state>
        <fips>031</fips>
        <incits>26031</incits>
        <id>US.MI.031</id>
        <population>25726</population>
      </desc>
    </path>
    <path d="M 466.3333 422.9548 486.0508 422.9548 507.3458 423.7435 508.1345 430.8418 507.3458 453.7141 497.0927 453.7141 475.7977 453.7141 465.5446 453.7141 465.5446 438.7288 466.3333 422.9548 Z" id="US.MI.035" fill="#cee3f5" stroke="#6e6e6e" stroke-width="0.4">
      <desc>
        <name>Clare County</name>
        <stateAbbrev>MI</stateAbbrev>
        <state>Michigan</state>
        <fips>035</fips>
        <incits>26035</incits>
        <id>US.MI.035</id>
        <population>30569</population>
      </desc>
    </path>
    <path d="M 497.0927 280.9887 497.0927 302.2836 497.0927 325.1559 475.7977 324.3672 475.7977 326.7333 472.6429 325.9446 471.8542 324.3672 469.4881 321.2124 464.7559 320.4237 464.7559 318.0576 470.2768 318.8463 472.6429 318.0576 474.2203 318.0576 476.5864 317.2689 480.5299 315.6915 480.5299 313.3254 477.3751 312.5367 473.4316 312.5367 470.2768 311.748 467.9107 310.9593 465.5446 308.5932 463.1785 303.0723 463.1785 299.9175 465.5446 297.5514 467.9107 294.3966 471.8542 292.8192 474.2203 290.4531 475.7977 290.4531 478.1638 288.087 478.9525 286.5096 476.5864 284.1435 478.9525 284.1435 481.3186 284.9322 483.6847 284.1435 486.8395 284.9322 488.4169 284.1435 491.5718 284.9322 493.1492 280.9887 495.5153 281.7774 497.0927 280.9887 Z M 466.3333 283.3548 471.0655 283.3548 471.0655 284.1435 466.3333 283.3548 Z" id="US.MI.047" fill="#cee3f5" stroke="#6e6e6e" stroke-width="0.4">
      <desc>
        <name>Emmet County</name>
        <stateAbbrev>MI</stateAbbrev>
        <state>Michigan</state>
        <fips>047</fips>
        <incits>26047</incits>
        <id>US.MI.047</id>
        <population>33140</population>
      </desc>
    </path>
    <path d="M 486.8395 483.6847 507.3458 483.6847 528.6407 483.6847 528.6407 512.8667 528.6407 514.4441 487.6282 513.6554 487.6282 498.6701 486.8395 498.6701 486.8395 483.6847 Z" id="US.MI.057" fill="#cee3f5" stroke="#6e6e6e" stroke-width="0.4">
      <desc>
        <name>Gratiot County</name>
        <stateAbbrev>MI</stateAbbrev>
        <state>Michigan</state>
        <fips>057</fips>
        <incits>26057</incits>
        <id>US.MI.057</id>
        <population>41968</population>
      </desc>
    </path>
    <path d="M 446.6158 514.4441 467.122 513.6554 487.6282 513.6554 487.6282 529.4294 487.6282 537.3164 487.6282 544.4147 467.122 544.4147 446.6158 544.4147 446.6158 537.3164 445.8271 529.4294 446.6158 514.4441 Z" id="US.MI.067" fill="#cee3f5" stroke="#6e6e6e" stroke-width="0.4">
      <desc>
        <name>Ionia County</name>
        <stateAbbrev>MI</stateAbbrev>
        <state>Michigan</state>
        <fips>067</fips>
        <incits>26067</incits>
        <id>US.MI.067</id>
        <population>64073</population>
      </desc>
    </path>
    <path d="M 465.5446 453.7141 475.7977 453.7141 497.0927 453.7141 507.3458 453.7141 508.1345 468.6994 507.3458 483.6847 486.8395 483.6847 466.3333 483.6847 466.3333 476.5864 465.5446 460.8124 465.5446 453.7141 Z" id="US.MI.073" fill="#cee3f5" stroke="#6e6e6e" stroke-width="0.4">
      <desc>
        <name>Isabella County</name>
        <stateAbbrev>MI</stateAbbrev>
        <state>Michigan</state>
        <fips>073</fips>
        <incits>26073</incits>
        <id>US.MI.073</id>
        <population>70436</population>
      </desc>
    </path>
    <path d="M 407.1808 575.174 426.1096 575.174 447.4045 575.174 447.4045 587.7932 448.1932 605.1446 426.8983 605.1446 407.1808 605.9333 406.3921 598.0463 407.1808 575.174 Z" id="US.MI.077" fill="#cee3f5" stroke="#6e6e6e" stroke-width="0.4">
      <desc>
        <name>Kalamazoo County</name>
        <stateAbbrev>MI</stateAbbrev>
        <state>Michigan</state>
        <fips>077</fips>
        <incits>26077</incits>
        <id>US.MI.077</id>
        <population>256725</population>
      </desc>
    </path>
    <path d="M 444.2497 392.9842 444.2497 366.1684 445.8271 366.1684 445.8271 363.8023 445.0384 363.0136 445.0384 362.2249 448.1932 362.2249 465.5446 362.2249 476.5864 362.2249 486.8395 362.2249 486.8395 370.1119 486.8395 385.0972 486.0508 392.9842 475.7977 392.9842 444.2497 392.9842 Z" id="US.MI.079" fill="#cee3f5" stroke="#6e6e6e" stroke-width="0.4">
      <desc>
        <name>Kalkaska County</name>
        <stateAbbrev>MI</stateAbbrev>
        <state>Michigan</state>
        <fips>079</fips>
        <incits>26079</incits>
        <id>US.MI.079</id>
        <population>17196</population>
      </desc>
    </path>
    <path d="M 404.8147 506.5571 404.8147 498.6701 424.5322 498.6701 446.6158 498.6701 446.6158 514.4441 445.8271 529.4294 446.6158 537.3164 446.6158 544.4147 426.1096 544.4147 405.6034 544.4147 405.6034 531.7955 404.8147 521.5424 404.8147 506.5571 Z" id="US.MI.081" fill="#cee3f5" stroke="#6e6e6e" stroke-width="0.4">
      <desc>
        <name>Kent County</name>
        <stateAbbrev>MI</stateAbbrev>
        <state>Michigan</state>
        <fips>081</fips>
        <incits>26081</incits>
        <id>US.MI.081</id>
        <population>621700</population>
      </desc>
    </path>
    <path d="M 382.7311 422.9548 391.4068 422.9548 401.6599 422.9548 424.5322 422.9548 424.5322 438.7288 424.5322 453.7141 413.4904 453.7141 382.7311 453.7141 382.7311 445.8271 382.7311 422.9548 Z" id="US.MI.085" fill="#cee3f5" stroke="#6e6e6e" stroke-width="0.4">
      <desc>
        <name>Lake County</name>
        <stateAbbrev>MI</stateAbbrev>
        <state>Michigan</state>
        <fips>085</fips>
        <incits>26085</incits>
        <id>US.MI.085</id>
        <population>11386</population>
      </desc>
    </path>
    <path d="M 352.7605 421.3774 355.9153 417.4339 356.704 415.0678 358.2814 414.2791 359.8588 411.1243 363.0136 406.3921 364.591 401.6599 364.591 395.3503 366.1684 392.1955 381.1537 392.1955 401.6599 392.9842 401.6599 422.9548 391.4068 422.9548 382.7311 422.9548 352.7605 421.3774 Z" id="US.MI.101" fill="#cee3f5" stroke="#6e6e6e" stroke-width="0.4">
      <desc>
        <name>Manistee County</name>
        <stateAbbrev>MI</stateAbbrev>
        <state>Michigan</state>
        <fips>101</fips>
        <incits>26101</incits>
        <id>US.MI.101</id>
        <population>24450</population>
      </desc>
    </path>
    <path d="M 352.7605 421.3774 382.7311 422.9548 382.7311 445.8271 382.7311 453.7141 362.2249 452.9254 348.8169 452.9254 348.0282 449.7706 347.2395 446.6158 347.2395 444.2497 345.6621 441.8836 345.6621 439.5175 341.7186 433.9966 341.7186 432.4192 342.5073 430.8418 347.2395 427.687 348.8169 426.8983 351.1831 423.7435 352.7605 421.3774 Z" id="US.MI.105" fill="#cee3f5" stroke="#6e6e6e" stroke-width="0.4">
      <desc>
        <name>Mason County</name>
        <stateAbbrev>MI</stateAbbrev>
        <state>Michigan</state>
        <fips>105</fips>
        <incits>26105</incits>
        <id>US.MI.105</id>
        <population>28605</population>
      </desc>
    </path>
    <path d="M 424.5322 453.7141 445.0384 453.7141 455.2915 453.7141 465.5446 453.7141 465.5446 460.8124 466.3333 476.5864 466.3333 483.6847 434.7853 483.6847 424.5322 483.6847 424.5322 468.6994 424.5322 453.7141 Z" id="US.MI.107" fill="#cee3f5" stroke="#6e6e6e" stroke-width="0.4">
      <desc>
        <name>Mecosta County</name>
        <stateAbbrev>MI</stateAbbrev>
        <state>Michigan</state>
        <fips>107</fips>
        <incits>26107</incits>
        <id>US.MI.107</id>
        <population>43108</population>
      </desc>
    </path>
    <path d="M 507.3458 483.6847 508.1345 468.6994 507.3458 453.7141 528.6407 453.7141 528.6407 452.1367 545.9921 452.1367 545.9921 463.9672 545.9921 475.009 545.9921 482.1073 528.6407 482.1073 528.6407 483.6847 507.3458 483.6847 Z" id="US.MI.111" fill="#cee3f5" stroke="#6e6e6e" stroke-width="0.4">
      <desc>
        <name>Midland County</name>
        <stateAbbrev>MI</stateAbbrev>
        <state>Michigan</state>
        <fips>111</fips>
        <incits>26111</incits>
        <id>US.MI.111</id>
        <population>83919</population>
      </desc>
    </path>
    <path d="M 444.2497 392.9842 475.7977 392.9842 486.0508 392.9842 486.0508 415.8565 486.0508 422.9548 466.3333 422.9548 444.2497 422.9548 444.2497 415.0678 444.2497 400.0825 444.2497 392.9842 Z" id="US.MI.113" fill="#cee3f5" stroke="#6e6e6e" stroke-width="0.4">
      <desc>
        <name>Missaukee County</name>
        <stateAbbrev>MI</stateAbbrev>
        <state>Michigan</state>
        <fips>113</fips>
        <incits>26113</incits>
        <id>US.MI.113</id>
        <population>15051</population>
      </desc>
    </path>
    <path d="M 424.5322 483.6847 434.7853 483.6847 466.3333 483.6847 486.8395 483.6847 486.8395 498.6701 487.6282 498.6701 487.6282 513.6554 467.122 513.6554 446.6158 514.4441 446.6158 498.6701 424.5322 498.6701 424.5322 483.6847 Z" id="US.MI.117" fill="#cee3f5" stroke="#6e6e6e" stroke-width="0.4">
      <desc>
        <name>Montcalm County</name>
        <stateAbbrev>MI</stateAbbrev>
        <state>Michigan</state>
        <fips>117</fips>
        <incits>26117</incits>
        <id>US.MI.117</id>
        <population>63105</population>
      </desc>
    </path>
    <path d="M 527.852 362.2249 528.6407 333.0429 538.8938 333.0429 560.1887 333.0429 571.2305 332.2542 571.2305 347.2395 570.4418 347.2395 570.4418 354.3379 570.4418 362.2249 549.1469 363.0136 527.852 362.2249 Z" id="US.MI.119" fill="#cee3f5" stroke="#6e6e6e" stroke-width="0.4">
      <desc>
        <name>Montmorency County</name>
        <stateAbbrev>MI</stateAbbrev>
        <state>Michigan</state>
        <fips>119</fips>
        <incits>26119</incits>
        <id>US.MI.119</id>
        <population>9350</population>
      </desc>
    </path>
    <path d="M 345.6621 483.6847 351.9718 482.896 365.3797 483.6847 382.7311 483.6847 382.7311 498.6701 394.5616 499.4588 404.8147 498.6701 404.8147 506.5571 394.5616 506.5571 394.5616 514.4441 372.478 514.4441 362.2249 514.4441 358.2814 506.5571 351.1831 496.304 349.6056 492.3605 347.2395 486.8395 345.6621 483.6847 Z" id="US.MI.121" fill="#cee3f5" stroke="#6e6e6e" stroke-width="0.4">
      <desc>
        <name>Muskegon County</name>
        <stateAbbrev>MI</stateAbbrev>
        <state>Michigan</state>
        <fips>121</fips>
        <incits>26121</incits>
        <id>US.MI.121</id>
        <population>171008</population>
      </desc>
    </path>
    <path d="M 382.7311 453.7141 413.4904 453.7141 424.5322 453.7141 424.5322 468.6994 424.5322 483.6847 424.5322 498.6701 404.8147 498.6701 394.5616 499.4588 382.7311 498.6701 382.7311 483.6847 382.7311 476.5864 382.7311 468.6994 382.7311 453.7141 Z" id="US.MI.123" fill="#cee3f5" stroke="#6e6e6e" stroke-width="0.4">
      <desc>
        <name>Newaygo County</name>
        <stateAbbrev>MI</stateAbbrev>
        <state>Michigan</state>
        <fips>123</fips>
        <incits>26123</incits>
        <id>US.MI.123</id>
        <population>48001</population>
      </desc>
    </path>
    <path d="M 348.8169 452.9254 362.2249 452.9254 382.7311 453.7141 382.7311 468.6994 382.7311 476.5864 382.7311 483.6847 365.3797 483.6847 351.9718 482.896 345.6621 483.6847 344.8734 480.5299 340.1412 473.4316 339.3525 469.4881 339.3525 466.3333 341.7186 463.1785 345.6621 459.235 348.0282 455.2915 348.8169 452.9254 Z" id="US.MI.127" fill="#cee3f5" stroke="#6e6e6e" stroke-width="0.4">
      <desc>
        <name>Oceana County</name>
        <stateAbbrev>MI</stateAbbrev>
        <state>Michigan</state>
        <fips>127</fips>
        <incits>26127</incits>
        <id>US.MI.127</id>
        <population>26245</population>
      </desc>
    </path>
    <path d="M 527.852 392.9842 538.8938 392.9842 560.1887 392.9842 570.4418 392.9842 571.2305 403.2373 571.2305 422.9548 545.9921 422.9548 528.6407 422.9548 527.852 392.9842 Z" id="US.MI.129" fill="#cee3f5" stroke="#6e6e6e" stroke-width="0.4">
      <desc>
        <name>Ogemaw County</name>
        <stateAbbrev>MI</stateAbbrev>
        <state>Michigan</state>
        <fips>129</fips>
        <incits>26129</incits>
        <id>US.MI.129</id>
        <population>21234</population>
      </desc>
    </path>
    <path d="M 424.5322 453.7141 424.5322 438.7288 424.5322 422.9548 444.2497 422.9548 466.3333 422.9548 465.5446 438.7288 465.5446 453.7141 455.2915 453.7141 445.0384 453.7141 424.5322 453.7141 Z" id="US.MI.133" fill="#cee3f5" stroke="#6e6e6e" stroke-width="0.4">
      <desc>
        <name>Osceola County</name>
        <stateAbbrev>MI</stateAbbrev>
        <state>Michigan</state>
        <fips>133</fips>
        <incits>26133</incits>
        <id>US.MI.133</id>
        <population>23259</population>
      </desc>
    </path>
    <path d="M 486.0508 392.9842 486.8395 385.0972 486.8395 370.1119 486.8395 362.2249 497.8814 362.2249 508.1345 362.2249 527.852 362.2249 527.852 392.9842 518.3876 392.9842 497.0927 392.9842 486.0508 392.9842 Z" id="US.MI.039" fill="#cee3f5" stroke="#6e6e6e" stroke-width="0.4">
      <desc>
        <name>Crawford County</name>
        <stateAbbrev>MI</stateAbbrev>
        <state>Michigan</state>
        <fips>039</fips>
        <incits>26039</incits>
        <id>US.MI.039</id>
        <population>13904</population>
      </desc>
    </path>
    <path d="M 527.852 362.2249 549.1469 363.0136 570.4418 362.2249 570.4418 377.9989 570.4418 392.9842 560.1887 392.9842 538.8938 392.9842 527.852 392.9842 527.852 362.2249 Z" id="US.MI.135" fill="#cee3f5" stroke="#6e6e6e" stroke-width="0.4">
      <desc>
        <name>Oscoda County</name>
        <stateAbbrev>MI</stateAbbrev>
        <state>Michigan</state>
        <fips>135</fips>
        <incits>26135</incits>
        <id>US.MI.135</id>
        <population>8379</population>
      </desc>
    </path>
    <path d="M 485.2621 340.1412 496.304 340.1412 496.304 332.2542 507.3458 332.2542 528.6407 333.0429 527.852 362.2249 508.1345 362.2249 497.8814 362.2249 486.8395 362.2249 486.8395 358.2814 486.8395 355.1266 486.8395 347.2395 486.0508 347.2395 485.2621 340.1412 Z" id="US.MI.137" fill="#cee3f5" stroke="#6e6e6e" stroke-width="0.4">
      <desc>
        <name>Otsego County</name>
        <stateAbbrev>MI</stateAbbrev>
        <state>Michigan</state>
        <fips>137</fips>
        <incits>26137</incits>
        <id>US.MI.137</id>
        <population>24129</population>
      </desc>
    </path>
    <path d="M 362.2249 514.4441 372.478 514.4441 394.5616 514.4441 394.5616 506.5571 404.8147 506.5571 404.8147 521.5424 405.6034 531.7955 405.6034 544.4147 394.5616 544.4147 387.4633 544.4147 367.7458 544.4147 367.7458 537.3164 366.9571 527.0633 366.1684 523.1198 364.591 519.1763 363.8023 517.5989 362.2249 514.4441 Z" id="US.MI.139" fill="#cee3f5" stroke="#6e6e6e" stroke-width="0.4">
      <desc>
        <name>Ottawa County</name>
        <stateAbbrev>MI</stateAbbrev>
        <state>Michigan</state>
        <fips>139</fips>
        <incits>26139</incits>
        <id>US.MI.139</id>
        <population>272701</population>
      </desc>
    </path>
    <path d="M 538.8938 294.3966 542.0486 294.3966 545.9921 298.3401 548.3582 299.9175 549.9356 301.4949 549.9356 304.6497 552.3017 306.2271 553.8791 307.0158 559.4 307.0158 565.7096 307.0158 568.8644 307.8045 572.8079 310.9593 575.9627 312.5367 580.6949 314.9028 585.4271 314.1141 587.0045 315.6915 590.1593 316.4802 595.6802 319.635 599.6237 319.635 601.2011 318.8463 605.1446 320.4237 606.722 320.4237 609.8768 323.5785 614.609 326.7333 613.8203 328.3107 612.2429 329.0994 613.8203 332.2542 602.7785 332.2542 592.5254 332.2542 571.2305 332.2542 560.1887 333.0429 538.8938 333.0429 538.8938 325.1559 538.8938 312.5367 538.8938 294.3966 Z" id="US.MI.141" fill="#cee3f5" stroke="#6e6e6e" stroke-width="0.4">
      <desc>
        <name>Presque Isle County</name>
        <stateAbbrev>MI</stateAbbrev>
        <state>Michigan</state>
        <fips>141</fips>
        <incits>26141</incits>
        <id>US.MI.141</id>
        <population>13062</population>
      </desc>
    </path>
    <path d="M 486.0508 422.9548 486.0508 415.8565 486.0508 392.9842 497.0927 392.9842 518.3876 392.9842 527.852 392.9842 528.6407 422.9548 507.3458 423.7435 486.0508 422.9548 Z" id="US.MI.143" fill="#cee3f5" stroke="#6e6e6e" stroke-width="0.4">
      <desc>
        <name>Roscommon County</name>
        <stateAbbrev>MI</stateAbbrev>
        <state>Michigan</state>
        <fips>143</fips>
        <incits>26143</incits>
        <id>US.MI.143</id>
        <population>24014</population>
      </desc>
    </path>
    <path d="M 354.3379 590.1593 356.704 587.0045 359.8588 580.6949 362.2249 575.174 386.6746 575.174 407.1808 575.174 406.3921 598.0463 407.1808 605.9333 386.6746 605.9333 366.9571 605.1446 366.9571 590.1593 354.3379 590.1593 Z" id="US.MI.159" fill="#cee3f5" stroke="#6e6e6e" stroke-width="0.4">
      <desc>
        <name>Van Buren County</name>
        <stateAbbrev>MI</stateAbbrev>
        <state>Michigan</state>
        <fips>159</fips>
        <incits>26159</incits>
        <id>US.MI.159</id>
        <population>75455</population>
      </desc>
    </path>
    <path d="M 401.6599 392.9842 422.9548 392.9842 444.2497 392.9842 444.2497 400.0825 444.2497 415.0678 444.2497 422.9548 424.5322 422.9548 401.6599 422.9548 401.6599 392.9842 Z" id="US.MI.165" fill="#cee3f5" stroke="#6e6e6e" stroke-width="0.4">
      <desc>
        <name>Wexford County</name>
        <stateAbbrev>MI</stateAbbrev>
        <state>Michigan</state>
        <fips>165</fips>
        <incits>26165</incits>
        <id>US.MI.165</id>
        <population>32645</population>
      </desc>
    </path>
  </g>
</svg>