<?xml version="1.0" encoding="UTF-8"?>
<svg xmlns="http://www.w3.org/2000/svg" width="700" height="700">
  <g id="brazil">
    <path d="M 493.4247 326.0959 493.7661 326.7789 496.3273 328.9985 494.6199 330.3645 494.1076 332.5841 494.1076 333.6086 495.8151 334.4623 495.8151 335.1453 495.8151 335.6575 495.6443 335.8283 495.6443 335.999 495.4736 336.1698 494.7906 336.5113 494.4491 336.8527 493.7661 337.0235 493.5954 337.365 493.2539 338.2187 492.2295 341.4628 492.2295 341.6336 492.0587 343.1703 492.2295 345.3899 492.9124 347.7803 494.4491 351.1952 494.6199 351.3659 495.4736 351.8782 495.6443 352.0489 496.498 353.4149 497.181 353.7564 497.6932 353.9271 497.864 354.0978 497.864 354.2686 497.864 354.4393 497.864 354.6101 497.5225 355.4638 497.181 356.3175 497.0103 357.1712 497.0103 357.5127 497.181 357.8542 497.6932 359.0494 497.864 359.9031 497.864 360.4154 497.864 360.7568 497.6932 360.9276 497.5225 361.2691 497.5225 361.4398 496.6688 362.1228 495.8151 363.4887 491.205 364.1717 487.4486 360.4154 486.2534 366.5621 480.7896 366.0499 481.1311 380.9046 472.9354 383.8072 471.228 374.0749 457.91 373.7334 456.544 383.1243 472.9354 383.8072 470.0328 392.0029 474.9843 400.7109 468.1546 409.0773 472.5939 411.4677 472.0817 420.1756 460.9834 426.8346 443.3968 423.932 436.0548 429.225 433.8351 426.6639 420.3464 430.0788 408.7358 443.7383 383.1243 429.7373 376.1238 428.8836 378.3434 424.4442 373.9041 423.4198 373.5626 417.273 370.3185 409.7603 374.2456 396.7838 379.5386 392.8567 382.612 383.978 394.0519 377.6605 398.3205 366.7329 407.7114 361.7813 411.9799 340.7798 418.9804 325.4129 424.9565 317.388 422.9075 326.7789 437.7622 332.9256 444.9335 322.3395 449.2021 335.4868 451.0802 331.5597 459.4467 330.023 467.9839 335.4868 468.1546 330.8767 470.3743 334.4623 493.4247 326.0959 Z" id="BR.GO" fill="#cee3f5" stroke="#6e6e6e" stroke-width="0.4">
      <desc>
        <labelrank>2</labelrank>
        <code_hasc>BR.GO</code_hasc>
        <name>Goiás</name>
        <admin>Brazil</admin>
        <type_en>State</type_en>
        <region/>
        <woe_id>2344852</woe_id>
        <longitude>-49</longitude>
        <woe_name>Goiás</woe_name>
        <fips>BR29</fips>
        <woe_label>Goias, BR, Brazil</woe_label>
        <latitude>-15</latitude>
        <iso_a2>BR</iso_a2>
        <postal>GO</postal>
        <type>Estado</type>
        <id>BR.GO</id>
      </desc>
    </path>
    <path d="M 501.4496 524.5 501.2789 527.9149 497.6932 526.7197 501.4496 524.5 Z M 509.4746 500.2544 512.7187 504.0108 520.2314 505.8889 509.4746 510.6698 510.1575 517.4995 498.547 521.5974 498.2055 525.3537 491.0342 523.6463 483.863 527.9149 482.3263 525.183 482.3263 527.9149 454.1536 544.8185 456.8855 545.16 453.4706 549.5993 451.251 544.1355 445.6164 544.6477 445.7872 537.9887 434.1766 537.3058 435.5426 531.6712 429.7373 523.1341 429.3958 512.0357 423.932 505.3767 410.7847 506.0597 389.4418 497.864 371.1722 500.9374 384.4902 490.3513 389.954 482.6678 389.1003 480.1067 391.1492 479.2529 391.32 479.0822 391.8322 478.2285 392.0029 477.887 393.0274 476.8625 393.3689 476.0088 393.1981 475.3258 393.0274 473.7891 393.0274 473.2769 397.979 463.5445 406.5161 457.7392 407.0284 457.227 407.3699 456.544 408.0528 455.0073 409.7603 453.2999 410.1018 453.1292 413.5166 451.934 415.2241 450.568 415.5656 449.885 416.7608 449.3728 417.273 449.3728 417.7852 449.5435 418.8097 450.7387 419.1512 450.9095 424.615 451.934 426.8346 452.2754 432.4692 452.4462 435.2011 453.2999 436.3963 453.1292 436.7378 453.1292 437.0793 453.1292 437.4207 453.2999 437.5915 453.6414 437.5915 453.9829 436.9085 454.1536 436.7378 454.1536 436.7378 454.4951 436.7378 454.6659 436.567 455.1781 436.567 455.5196 436.7378 456.7148 437.0793 457.5685 437.933 459.1052 441.6893 456.544 442.0308 457.227 442.0308 458.0807 442.0308 461.1541 443.226 461.8371 443.3968 458.593 443.909 457.91 444.2505 456.8855 444.7627 456.7148 467.6424 453.9829 471.3987 458.593 471.0572 471.228 474.4721 480.2774 476.1795 480.4481 477.5455 479.7652 479.5944 480.4481 480.1067 480.1067 480.2774 479.9359 482.4971 481.6433 482.8386 482.8386 482.3263 484.2045 481.4726 485.5705 480.7896 485.5705 480.6189 485.7412 480.2774 487.2779 480.2774 487.4486 479.7652 487.7901 479.5944 487.9609 479.5944 488.1316 479.5944 488.4731 479.9359 488.6438 479.9359 488.8146 479.9359 488.9853 479.7652 489.1561 479.5944 489.3268 479.5944 489.4976 479.9359 490.522 480.2774 491.0342 480.2774 491.205 480.1067 491.3757 479.9359 491.3757 479.7652 491.3757 479.5944 491.5465 479.4237 491.7172 479.4237 491.888 479.5944 492.2295 479.4237 492.2295 479.2529 492.4002 478.9114 492.4002 478.9114 492.5709 478.9114 492.7417 479.0822 492.9124 479.2529 492.9124 479.9359 493.0832 480.1067 493.0832 480.4481 493.7661 480.2774 493.9369 479.9359 494.2784 479.5944 494.4491 479.2529 494.9614 478.7407 496.3273 478.57 496.8395 478.57 497.0103 478.7407 497.0103 479.2529 497.6932 479.4237 498.547 480.9604 499.2299 481.3019 500.0837 482.6678 500.7666 483.0093 500.9374 483.3508 500.9374 483.5215 501.1081 483.6923 501.1081 483.5215 501.2789 483.3508 501.4496 483.18 501.4496 483.18 501.6204 483.18 501.7911 483.18 501.9618 483.18 502.1326 483.3508 502.6448 483.3508 502.8156 483.18 502.9863 482.1556 503.3278 481.9848 503.4985 482.1556 503.6693 482.4971 504.1815 483.6923 505.0352 483.863 505.206 484.0338 505.3767 483.863 505.7182 483.6923 506.0597 483.6923 506.4012 483.6923 506.5719 483.863 506.7427 483.863 506.9134 484.0338 507.0841 484.3752 507.2549 484.546 507.2549 484.8875 507.4256 485.0582 507.4256 485.5705 507.2549 485.7412 507.2549 485.7412 507.4256 485.9119 507.4256 486.0827 507.4256 486.5949 507.0841 487.1071 506.9134 487.2779 506.9134 487.2779 507.0841 487.4486 507.0841 487.4486 507.2549 487.4486 507.4256 487.2779 507.4256 487.2779 507.5964 487.2779 507.7671 487.6194 507.7671 491.205 506.5719 492.0587 507.4256 492.7417 506.9134 492.9124 506.9134 493.2539 507.2549 493.5954 506.4012 493.5954 506.2304 493.7661 506.2304 493.9369 506.4012 494.1076 506.4012 494.2784 506.0597 494.2784 505.8889 494.4491 505.5475 494.4491 502.6448 499.9129 504.1815 509.4746 500.2544 Z" id="BR.SP" fill="#cee3f5" stroke="#6e6e6e" stroke-width="0.4">
      <desc>
        <labelrank>2</labelrank>
        <code_hasc>BR.SP</code_hasc>
        <name>São Paulo</name>
        <admin>Brazil</admin>
        <type_en>State</type_en>
        <region/>
        <woe_id>2344868</woe_id>
        <longitude>-48</longitude>
        <woe_name>São Paulo</woe_name>
        <fips>BR32</fips>
        <woe_label>Sao Paulo, BR, Brazil</woe_label>
        <latitude>-22</latitude>
        <iso_a2>BR</iso_a2>
        <postal>SP</postal>
        <type>Estado</type>
        <id>BR.SP</id>
      </desc>
    </path>
    <path d="M 636.6786 268.3845 632.5807 259.1644 629.6781 261.5548 616.8723 252.8469 593.9927 269.5797 589.7241 257.6277 585.9677 255.0665 582.7236 255.408 582.2114 255.408 582.0406 255.2373 581.5284 254.8958 587.8459 249.9442 589.7241 250.115 590.407 248.5783 591.2608 248.9198 592.7975 246.7001 593.9927 246.0171 595.1879 244.8219 595.3586 244.8219 595.5294 244.8219 595.7001 244.6512 595.8708 244.4804 596.0416 244.3097 596.5538 242.9437 596.7246 242.2608 596.8953 240.7241 596.7246 239.5289 596.7246 239.3581 596.5538 239.1874 596.2123 238.8459 595.8708 238.6751 594.8464 238.1629 594.8464 237.9922 594.6756 237.9922 594.6756 237.8214 594.6756 237.4799 595.0171 237.1385 595.3586 236.4555 595.3586 236.2847 595.5294 235.7725 595.3586 235.2603 594.3341 233.3821 594.1634 232.8699 594.1634 232.6991 594.3341 231.8454 594.3341 231.6747 594.5049 231.6747 594.5049 231.5039 595.1879 231.3332 597.066 231.1624 601.8469 231.3332 603.8958 231.8454 607.9936 230.9917 612.7745 231.3332 622.8483 240.5533 624.7265 240.5533 626.6047 237.9922 627.1169 238.1629 627.4584 237.3092 628.6536 237.1385 629.1659 236.6262 629.6781 236.4555 630.3611 236.6262 632.5807 239.3581 634.1174 238.6751 634.6296 239.0166 635.3126 238.5044 635.8249 238.1629 635.9956 238.3337 637.3615 241.0656 637.703 241.0656 637.703 240.8948 637.8738 240.3826 639.4105 239.5289 640.4349 240.5533 640.9472 239.3581 642.6546 239.6996 651.5333 232.5284 655.6311 230.9917 659.5582 233.3821 659.729 234.2358 660.0705 234.9188 660.0705 235.0895 660.0705 235.2603 659.729 235.6018 656.4848 236.6262 656.1433 236.9677 656.1433 237.4799 655.9726 237.8214 655.9726 237.9922 656.4848 238.8459 656.4848 239.1874 656.8263 239.6996 656.8263 240.0411 656.8263 240.2118 656.8263 240.3826 656.6556 240.5533 656.6556 240.7241 655.6311 241.2363 654.6067 243.1145 653.5822 243.7975 653.4114 244.1389 653.4114 244.3097 653.5822 244.4804 653.9237 244.4804 655.8019 243.7975 656.9971 244.1389 660.0705 249.9442 670.1443 241.7485 685.5113 239.3581 686.8772 235.6018 688.7554 235.9432 690.8043 234.4066 691.1458 234.4066 691.4873 234.5773 692.8532 234.9188 693.7069 234.748 694.5607 235.0895 694.9022 235.431 697.4633 237.8214 697.2926 237.8214 697.1218 237.8214 696.7803 237.9922 698.4878 238.1629 691.658 263.2622 676.4618 262.067 670.1443 267.5308 659.5582 269.9212 645.5572 260.0181 641.4594 265.1404 639.069 265.9941 636.6786 268.3845 Z" id="BR.PE" fill="#cee3f5" stroke="#6e6e6e" stroke-width="0.4">
      <desc>
        <labelrank>2</labelrank>
        <code_hasc>BR.PE</code_hasc>
        <name>Pernambuco</name>
        <admin>Brazil</admin>
        <type_en>State</type_en>
        <region/>
        <woe_id>2344860</woe_id>
        <longitude>-37</longitude>
        <woe_name>Pernambuco</woe_name>
        <fips>BR30</fips>
        <woe_label>Pernambuco, BR, Brazil</woe_label>
        <latitude>-8</latitude>
        <iso_a2>BR</iso_a2>
        <postal>PE</postal>
        <type>Estado</type>
        <id>BR.PE</id>
      </desc>
    </path>
    <path d="M 130.4237 275.5558 133.6678 276.9217 115.2275 292.1179 109.593 291.6057 99.8606 300.3136 86.0303 297.7524 64.1751 300.3136 64.6874 270.9457 51.5401 282.044 35.661 283.0685 33.0998 274.3606 17.0499 272.9946 20.977 265.1404 1 238.5044 1.5122 234.9188 6.2931 233.7236 4.4149 230.3087 25.2456 238.3337 66.3948 247.2123 130.4237 275.5558 Z" id="BR.AC" fill="#cee3f5" stroke="#6e6e6e" stroke-width="0.4">
      <desc>
        <labelrank>2</labelrank>
        <code_hasc>BR.AC</code_hasc>
        <name>Acre</name>
        <admin>Brazil</admin>
        <type_en>State</type_en>
        <region/>
        <woe_id>2344844</woe_id>
        <longitude>-70</longitude>
        <woe_name>Acre</woe_name>
        <fips>BR01</fips>
        <woe_label>Acre, BR, Brazil</woe_label>
        <latitude>-8</latitude>
        <iso_a2>BR</iso_a2>
        <postal>AC</postal>
        <type>Estado</type>
        <id>BR.AC</id>
      </desc>
    </path>
    <path d="M 269.9212 91.6649 270.2627 97.2994 270.2627 97.6409 270.092 98.8361 269.9212 100.885 270.092 101.568 270.2627 102.0802 270.2627 102.251 270.4335 102.4217 270.6042 102.5925 270.775 102.7632 270.9457 102.7632 271.9702 103.2754 272.4824 103.7877 272.4824 103.9584 272.3116 104.1292 272.3116 104.4706 272.1409 104.8121 271.9702 106.3488 271.9702 106.8611 272.1409 107.2025 272.3116 107.3733 272.8239 108.227 274.1898 109.4222 277.434 110.9589 278.1169 113.8615 278.2877 114.0323 278.4584 114.5445 279.8244 115.7397 279.9951 115.9105 281.1903 116.0812 282.2148 117.6179 282.3855 117.7886 282.727 117.7886 283.2392 117.7886 283.41 117.9594 283.5807 118.6424 283.9222 118.8131 284.093 118.9839 287.3371 121.2035 288.8738 121.7158 291.4349 124.1062 296.2158 126.3258 297.411 126.6673 298.6062 126.3258 298.7769 126.3258 298.9477 126.4966 298.9477 127.1795 299.1184 127.3503 301.8503 128.204 303.7285 130.4237 306.4604 131.9604 307.9971 132.1311 307.8263 134.18 307.8263 134.5215 308.1678 134.6923 309.0215 135.0338 310.046 135.3752 312.4364 134.3508 312.9486 136.0582 313.1194 136.0582 313.8023 136.229 314.1438 136.229 314.3146 136.3997 314.3146 136.229 314.4853 136.229 314.6561 136.0582 314.8268 135.8875 315.8513 135.7167 315.6805 135.8875 315.339 136.229 314.4853 136.5705 314.3146 136.9119 280.6781 212.0391 279.8244 213.2343 278.2877 214.771 277.9462 215.1125 277.6047 215.6248 277.6047 215.9662 277.6047 216.4785 277.6047 216.82 277.7754 217.1614 278.4584 219.3811 282.2148 222.9667 282.727 223.9912 282.8977 224.8449 283.0685 226.3816 283.7515 227.0646 282.2148 228.772 279.4829 235.6018 276.751 252.3346 222.2838 253.5298 213.2343 253.8713 201.6238 240.8948 187.7935 240.3826 179.9393 248.4075 177.8904 257.9692 166.1091 258.8229 161.3283 267.0186 158.5964 263.9452 149.2055 270.092 137.9364 267.3601 130.4237 275.5558 66.3948 247.2123 25.2456 238.3337 4.4149 230.3087 6.4638 224.5034 15.684 217.6737 13.9765 210.3317 19.0988 192.2329 36.8562 180.2808 53.589 177.3782 59.2236 172.2559 71.3464 175.3293 80.908 117.6179 76.8102 105.4951 68.7852 98.6654 69.1267 84.8351 85.5181 83.8107 82.7862 76.6394 72.7123 76.1272 72.7123 64.1751 103.1047 64.1751 102.5925 58.7114 107.3733 63.8337 116.4227 56.4917 121.8865 64.5166 122.3987 74.249 126.1551 73.3953 136.7412 82.1032 149.2055 77.8346 150.5714 83.9814 157.4012 75.2735 170.5484 68.4437 171.4022 71.0049 177.2074 60.7603 188.9887 55.2965 201.2823 61.1018 199.5749 66.7363 205.7216 81.2495 203.1605 95.9335 208.2828 106.6903 204.6972 109.7637 216.137 120.6913 220.9178 121.2035 222.113 108.91 227.7476 104.6414 232.8699 105.6659 236.4555 110.9589 243.9682 108.0563 242.6023 104.1292 248.749 92.0064 253.7006 91.6649 269.9212 91.6649 Z" id="BR.AM" fill="#cee3f5" stroke="#6e6e6e" stroke-width="0.4">
      <desc>
        <labelrank>2</labelrank>
        <code_hasc>BR.AM</code_hasc>
        <name>Amazonas</name>
        <admin>Brazil</admin>
        <type_en>State</type_en>
        <region/>
        <woe_id>2344847</woe_id>
        <longitude>-63</longitude>
        <woe_name>Amazonas</woe_name>
        <fips>BR04</fips>
        <woe_label>Amazonas, BR, Brazil</woe_label>
        <latitude>-4</latitude>
        <iso_a2>BR</iso_a2>
        <postal>AM</postal>
        <type>Estado</type>
        <id>BR.AM</id>
      </desc>
    </path>
    <path d="M 527.4026 146.8151 525.8659 151.0837 528.0856 144.5954 527.4026 146.8151 Z M 451.7632 191.7206 451.4217 191.7206 468.3253 178.2319 472.2524 177.3782 481.3019 165.4261 495.8151 134.3508 495.3028 127.1795 499.4007 117.6179 503.3278 114.886 504.3523 119.6668 506.0597 116.252 506.7427 120.3498 511.5235 118.9839 510.6698 123.5939 513.0602 119.4961 513.0602 127.1795 515.9628 122.5695 519.5484 124.6184 521.2559 121.3743 520.0607 125.6429 521.7681 124.1062 522.1096 127.521 524.1585 126.8381 522.2803 128.5455 527.4026 129.0577 525.6952 132.6433 527.9149 132.8141 521.9388 136.9119 525.0122 139.6438 528.5978 134.5215 530.3053 137.9364 525.0122 142.5465 527.0612 141.6928 522.2803 155.3523 528.9393 149.0347 530.476 141.522 535.4276 139.1316 530.8175 146.9858 541.7451 140.6683 546.5259 142.0342 547.3796 138.1071 568.2104 147.3273 575.7231 145.6199 575.3816 146.1321 575.2109 147.498 575.0401 147.498 574.8694 147.498 574.8694 147.8395 575.0401 148.3518 575.2109 148.6932 575.2109 148.864 575.8938 149.3762 575.8938 149.7177 575.7231 149.8885 575.5523 150.2299 575.3816 151.0837 573.8449 152.4496 573.3327 153.6448 568.5519 158.2549 563.4295 158.5964 560.5269 162.5235 559.3317 166.9628 557.2828 168.841 556.9413 170.0362 556.5998 170.3777 556.5998 170.5484 556.2583 171.0607 555.4046 171.5729 554.7216 172.4266 554.5509 172.7681 554.5509 173.6218 554.5509 173.9633 554.7216 174.3048 554.8924 175.1585 555.2339 175.5 555.7461 175.5 556.0876 175.8415 556.7705 177.5489 557.6243 190.0132 557.6243 190.184 557.112 190.6962 556.7705 192.7451 553.0142 197.3552 552.3312 197.6967 552.1605 197.8674 552.1605 198.2089 552.3312 198.7211 552.1605 199.0626 552.3312 199.4041 552.502 199.5749 552.3312 199.7456 551.9897 200.2578 551.9897 200.5993 551.9897 203.3312 552.1605 204.1849 552.6727 204.6972 552.6727 205.0386 552.6727 205.3801 552.502 205.7216 552.502 205.8924 552.8434 206.5753 553.0142 206.7461 553.6972 207.0876 554.3801 208.112 556.4291 209.478 556.4291 210.8439 556.5998 211.0147 556.7705 211.1854 556.2583 211.5269 556.2583 211.6977 556.0876 213.5758 555.7461 213.9173 555.7461 214.9418 555.5753 215.454 555.2339 215.7955 555.0631 215.9662 555.0631 216.9907 554.8924 217.3322 553.5264 218.5274 552.1605 218.5274 551.136 218.8689 549.9408 218.3567 546.0137 219.8933 536.1106 217.8444 522.9633 229.2842 520.9144 228.772 512.5479 232.0161 512.2065 232.1869 509.1331 234.2358 508.6208 234.9188 499.7422 256.091 499.5714 256.6032 499.7422 257.1155 500.2544 258.1399 500.4251 258.8229 500.7666 261.0426 500.7666 263.2622 502.6448 266.1649 502.6448 266.5064 502.4741 266.8478 501.9618 267.5308 501.2789 275.8973 500.5959 276.4095 500.5959 276.751 500.5959 277.0925 500.5959 277.434 499.7422 278.7999 499.5714 279.1414 499.7422 279.3121 499.7422 279.6536 499.9129 279.6536 499.9129 279.8244 499.7422 280.1659 499.7422 280.6781 499.5714 281.0196 499.5714 281.5318 498.547 281.0196 498.3762 280.8488 497.181 279.6536 492.5709 278.7999 490.1805 273.3361 487.1071 271.1164 487.1071 270.6042 487.1071 270.4335 487.1071 270.2627 487.2779 269.9212 487.2779 269.7505 487.4486 269.5797 488.3023 269.409 488.6438 268.3845 489.4976 267.5308 489.6683 267.5308 489.6683 267.3601 489.6683 267.1893 489.4976 266.8478 484.7167 264.1159 483.3508 259.3351 482.4971 258.8229 480.7896 258.6522 480.1067 258.3107 480.1067 258.1399 479.9359 257.9692 480.1067 257.7984 480.2774 257.2862 480.4481 257.1155 481.9848 255.5788 483.3508 254.3836 483.3508 254.2128 483.0093 252.8469 483.6923 249.9442 484.546 248.2368 484.7167 247.8953 485.3997 247.3831 486.7657 246.8708 490.6928 246.7001 491.0342 239.1874 481.4726 240.2118 474.6429 230.9917 472.9354 229.455 471.7402 229.6257 471.3987 229.455 472.0817 228.9428 473.2769 228.2598 473.6184 227.5768 473.4477 226.8938 470.545 226.8938 470.2035 226.0401 469.3498 225.3571 468.8376 224.8449 469.1791 224.3327 469.862 223.9912 470.7158 224.1619 471.7402 222.6252 472.9354 221.6008 473.1062 221.0886 473.6184 219.3811 473.2769 218.6981 473.4477 215.9662 474.3014 213.2343 474.9843 212.0391 474.8136 211.6977 474.9843 209.8195 475.4966 208.4535 475.6673 207.7705 475.4966 207.4291 474.9843 206.7461 474.8136 205.3801 474.8136 202.9897 474.9843 201.9653 474.9843 201.1115 474.4721 199.4041 474.3014 199.2334 473.7891 198.8919 474.1306 196.16 473.6184 194.9648 472.9354 194.1111 469.5205 192.5744 467.4716 192.4036 466.4472 190.0132 458.593 188.3058 455.6903 188.6473 453.9829 191.0377 452.4462 190.8669 452.2754 190.8669 451.7632 191.7206 Z" id="BR.MA" fill="#cee3f5" stroke="#6e6e6e" stroke-width="0.4">
      <desc>
        <labelrank>2</labelrank>
        <code_hasc>BR.MA</code_hasc>
        <name>Maranhão</name>
        <admin>Brazil</admin>
        <type_en>State</type_en>
        <region/>
        <woe_id>2344854</woe_id>
        <longitude>-45</longitude>
        <woe_name>Maranhão</woe_name>
        <fips>BR13</fips>
        <woe_label>Maranhao, BR, Brazil</woe_label>
        <latitude>-5</latitude>
        <iso_a2>BR</iso_a2>
        <postal>MA</postal>
        <type>Estado</type>
        <id>BR.MA</id>
      </desc>
    </path>
    <path d="M 407.1991 105.6659 406.3454 114.0323 394.5641 122.0572 401.2231 107.544 407.1991 105.6659 Z M 427.5176 98.1531 458.4222 100.885 453.8121 114.886 448.5191 116.252 450.0558 121.0328 447.3239 118.8131 450.0558 121.7158 445.9579 123.2524 443.5675 120.5205 444.0797 124.1062 440.1526 122.228 440.4941 125.3014 437.5915 122.5695 437.25 126.4966 434.6888 127.3503 433.6644 124.1062 432.6399 128.3748 428.7128 125.3014 425.1272 126.8381 424.4442 122.228 423.7613 128.0333 418.2975 127.3503 414.5411 119.6668 414.8826 115.2275 419.1512 116.9349 420.6879 114.3738 414.8826 114.0323 415.907 105.6659 419.3219 107.8855 416.59 102.4217 422.566 97.6409 427.5176 98.1531 Z M 413.1751 101.2265 410.614 98.8361 415.3948 94.909 417.956 97.6409 413.1751 101.2265 Z M 438.4452 94.5675 440.8356 95.9335 439.2989 97.9824 432.1277 97.6409 438.4452 94.5675 Z M 437.5915 90.2989 429.0543 96.6164 422.3953 93.7138 429.0543 90.1282 437.5915 90.2989 Z M 422.9075 86.3718 423.4198 90.6404 420.3464 92.5186 422.9075 86.3718 Z M 428.5421 85.3474 423.7613 89.1037 424.615 85.3474 428.5421 85.3474 Z M 343.5117 51.8816 344.1947 64.1751 350.8537 64.3459 367.5866 73.3953 383.978 111.3004 388.4173 116.0812 394.9056 116.4227 393.3689 120.6913 388.9295 119.8376 380.5631 124.2769 388.2466 122.911 389.6125 125.9843 414.0289 111.9834 411.9799 115.9105 417.4437 126.8381 414.0289 130.7652 418.1267 128.204 421.7123 132.8141 429.5665 128.3748 432.4692 133.4971 431.9569 129.7407 436.3963 131.7896 435.3718 129.7407 439.4697 127.521 435.2011 143.5709 447.6654 124.4477 449.7143 123.5939 446.4702 128.887 453.2999 120.5205 457.3977 125.4721 456.3733 122.911 459.2759 122.0572 456.2025 121.8865 456.3733 118.6424 459.1052 119.3253 462.3493 109.7637 468.4961 105.8366 469.862 109.4222 472.5939 106.1781 476.0088 110.2759 474.9843 106.1781 480.4481 110.1052 481.6433 107.7148 481.9848 111.3004 483.5215 108.227 484.0338 111.9834 486.2534 108.5685 487.6194 112.6663 490.1805 111.3004 487.4486 114.0323 493.2539 111.3004 492.4002 114.5445 496.498 115.3982 497.3518 112.1541 496.3273 117.1057 499.2299 115.0568 499.4007 117.6179 495.3028 127.1795 495.8151 134.3508 481.3019 165.4261 472.2524 177.3782 468.3253 178.2319 451.4217 191.7206 451.7632 191.7206 452.2754 191.7206 454.6659 192.7451 457.91 192.4036 460.8126 195.1355 461.1541 195.477 461.6663 196.16 462.0078 196.3307 462.0078 196.6722 462.0078 197.0137 461.1541 198.0382 459.4467 198.3796 459.2759 198.8919 459.2759 199.9163 459.2759 200.2578 460.4711 201.453 460.4711 201.7945 460.4711 202.136 459.1052 202.4775 458.593 202.819 456.8855 206.0631 456.8855 206.4046 456.8855 207.5998 457.7392 209.1365 457.7392 209.3072 457.7392 209.8195 455.5196 209.6487 453.6414 211.0147 453.4706 211.5269 452.6169 212.5514 452.4462 212.8929 452.6169 213.0636 452.6169 213.4051 452.7877 214.0881 452.6169 214.6003 452.4462 214.9418 452.1047 215.1125 449.7143 216.137 449.2021 216.4785 446.2994 217.1614 442.5431 219.7226 442.5431 220.4056 443.0553 222.6252 443.0553 225.5279 439.4697 230.8209 439.4697 231.6747 439.6404 232.5284 440.1526 233.2114 442.3723 234.9188 443.0553 235.0895 443.3968 235.2603 443.3968 235.431 443.3968 235.6018 443.226 235.7725 443.226 236.114 443.226 237.1385 442.8845 238.6751 442.7138 240.0411 440.8356 245.5049 427.3469 262.4085 423.932 271.7994 338.0479 266.3356 313.6316 264.9697 309.8752 263.2622 308.68 263.6037 307.9971 263.433 307.1433 261.3841 303.387 260.7011 302.8748 260.1888 302.8748 260.0181 302.8748 258.6522 302.5333 257.6277 293.6546 251.9932 292.6301 242.6023 289.8982 239.3581 286.4834 230.4795 285.1174 228.2598 283.0685 226.3816 282.8977 224.8449 282.727 223.9912 282.727 223.6497 282.2148 222.9667 278.4584 219.3811 277.7754 217.1614 277.6047 216.82 277.6047 216.4785 277.6047 215.9662 277.6047 215.6248 277.9462 215.1125 278.2877 214.771 280.6781 212.0391 314.3146 136.9119 314.4853 136.5705 314.6561 136.5705 315.339 136.229 315.6805 135.8875 315.8513 135.7167 314.8268 135.8875 314.6561 136.0582 314.4853 136.229 314.3146 136.229 314.3146 136.3997 314.1438 136.229 313.8023 136.229 313.1194 136.0582 312.9486 136.0582 312.4364 134.3508 309.0215 135.0338 307.8263 134.5215 308.1678 132.4726 307.9971 132.1311 301.8503 128.204 299.1184 127.3503 298.9477 127.1795 298.9477 126.4966 298.7769 126.3258 298.6062 126.3258 297.411 126.6673 296.2158 126.3258 291.4349 124.1062 288.8738 121.7158 287.3371 121.2035 285.8004 119.8376 285.4589 119.6668 284.093 118.9839 283.9222 118.8131 283.5807 118.6424 283.41 117.9594 283.2392 117.7886 282.727 117.7886 282.3855 117.7886 281.1903 116.0812 279.8244 115.7397 278.4584 114.5445 278.2877 114.0323 277.434 110.9589 274.1898 109.4222 272.8239 108.227 272.3116 107.3733 272.1409 107.2025 271.9702 106.8611 271.9702 106.3488 272.1409 105.4951 272.1409 104.8121 272.3116 104.4706 272.3116 104.1292 272.4824 103.9584 272.4824 103.7877 271.9702 103.2754 270.9457 102.7632 270.6042 102.5925 270.4335 102.4217 270.2627 102.251 270.2627 102.0802 270.092 101.568 269.9212 100.885 270.092 98.8361 270.092 97.8116 270.2627 97.6409 270.2627 97.2994 269.9212 91.6649 268.0431 72.2001 268.2138 72.3708 268.5553 72.5416 268.8968 72.7123 269.409 73.9075 270.6042 74.5905 276.2387 73.0538 279.8244 67.0778 285.1174 68.6145 301.6795 59.5651 322.3395 62.6385 322.8518 59.2236 318.7539 55.4672 321.998 50.5157 326.4374 52.9061 340.0969 49.1497 343.5117 51.8816 Z" id="BR.PA" fill="#cee3f5" stroke="#6e6e6e" stroke-width="0.4">
      <desc>
        <labelrank>2</labelrank>
        <code_hasc>BR.PA</code_hasc>
        <name>Pará</name>
        <admin>Brazil</admin>
        <type_en>State</type_en>
        <region/>
        <woe_id>2344857</woe_id>
        <longitude>-52</longitude>
        <woe_name>Pará</woe_name>
        <fips>BR16</fips>
        <woe_label>Para, BR, Brazil</woe_label>
        <latitude>-4</latitude>
        <iso_a2>BR</iso_a2>
        <postal>PA</postal>
        <type>Estado</type>
        <id>BR.PA</id>
      </desc>
    </path>
    <path d="M 222.2838 253.5298 224.5034 255.9203 222.4545 263.433 225.0157 293.4839 243.7975 293.3131 251.6517 295.7035 253.3591 299.9721 250.115 306.4604 255.2373 318.2417 245.8464 336.682 240.0411 341.1213 234.2358 337.7065 220.5763 339.5846 215.454 332.5841 203.502 330.3645 197.5259 324.047 174.9878 321.4858 173.2803 317.7295 163.8894 313.4609 157.5719 302.8748 156.0352 272.3116 133.6678 276.9217 130.4237 275.5558 137.9364 267.3601 149.2055 270.092 158.5964 263.9452 161.3283 267.0186 166.1091 258.8229 177.8904 257.9692 179.9393 248.4075 187.7935 240.3826 201.6238 240.8948 213.2343 253.8713 222.2838 253.5298 Z" id="BR.RO" fill="#cee3f5" stroke="#6e6e6e" stroke-width="0.4">
      <desc>
        <labelrank>2</labelrank>
        <code_hasc>BR.RO</code_hasc>
        <name>Rondônia</name>
        <admin>Brazil</admin>
        <type_en>State</type_en>
        <region/>
        <woe_id>2344865</woe_id>
        <longitude>-63</longitude>
        <woe_name>Rondônia</woe_name>
        <fips>BR24</fips>
        <woe_label>Rondonia, BR, Brazil</woe_label>
        <latitude>-10</latitude>
        <iso_a2>BR</iso_a2>
        <postal>RO</postal>
        <type>Estado</type>
        <id>BR.RO</id>
      </desc>
    </path>
    <path d="M 499.5714 281.5318 501.7911 281.8733 502.9863 281.8733 502.4741 282.2148 501.9618 283.5807 501.4496 284.2637 497.0103 286.3126 493.0832 289.386 493.0832 289.5568 493.0832 289.8982 493.5954 290.2397 493.5954 290.752 494.2784 291.6057 494.2784 291.7764 494.2784 291.9472 494.2784 292.1179 493.9369 292.2886 491.888 293.1424 490.1805 296.8987 488.9853 297.9232 488.4731 298.6062 488.1316 299.2891 488.1316 299.4599 488.1316 299.6306 488.1316 299.8014 488.4731 300.4843 490.3513 302.5333 496.498 304.5822 496.6688 304.7529 496.498 305.0944 496.498 305.4359 496.1566 305.7774 495.9858 305.9481 495.8151 306.1189 494.6199 306.4604 493.7661 306.8019 493.5954 306.9726 493.4247 306.9726 493.2539 307.1433 493.2539 307.3141 493.0832 307.4848 493.0832 307.6556 493.2539 308.5093 493.4247 308.8508 493.5954 309.0215 494.6199 308.68 494.7906 308.68 495.1321 308.8508 495.4736 309.0215 496.3273 309.5338 496.6688 310.2167 496.6688 310.3875 496.498 310.5582 496.1566 310.729 495.6443 311.2412 495.4736 311.2412 494.4491 311.5827 494.1076 311.7534 493.4247 312.6071 493.2539 312.7779 492.0587 313.4609 491.888 313.6316 491.888 313.9731 491.7172 317.9002 491.7172 318.0709 491.888 318.9247 492.0587 319.2661 492.2295 319.4369 492.4002 319.6076 492.9124 319.9491 494.2784 320.2906 494.6199 320.4614 494.6199 320.6321 494.7906 320.6321 494.7906 320.8028 494.7906 322.5103 493.4247 324.5592 493.2539 324.9007 493.0832 325.4129 493.2539 325.7544 493.4247 326.0959 470.3743 334.4623 468.1546 330.8767 467.9839 335.4868 459.4467 330.023 451.0802 331.5597 449.2021 335.4868 444.9335 322.3395 437.7622 332.9256 422.9075 326.7789 424.9565 317.388 418.9804 325.4129 415.5656 321.1443 414.7118 300.6551 423.932 271.7994 427.3469 262.4085 440.8356 245.5049 442.7138 240.0411 442.8845 238.6751 443.226 237.1385 443.3968 235.431 443.3968 235.2603 443.0553 235.0895 442.3723 234.9188 440.1526 233.2114 439.6404 232.5284 439.4697 231.6747 439.4697 230.8209 443.0553 225.5279 443.0553 225.0157 443.0553 222.6252 442.5431 220.4056 442.5431 219.7226 446.2994 217.1614 449.2021 216.4785 452.1047 215.1125 452.4462 214.9418 452.6169 214.6003 452.7877 214.0881 452.6169 213.4051 452.4462 212.8929 452.6169 212.5514 453.4706 211.5269 453.6414 211.0147 457.7392 209.8195 457.7392 209.3072 457.7392 209.1365 457.5685 208.9658 457.227 208.6243 456.8855 207.5998 456.8855 206.4046 456.8855 206.0631 459.4467 205.0386 458.593 202.819 460.1296 202.3068 460.4711 202.136 460.4711 201.7945 460.4711 201.453 459.2759 200.2578 459.2759 199.9163 459.2759 198.8919 459.4467 198.3796 461.1541 198.0382 462.0078 197.0137 462.0078 196.6722 462.0078 196.3307 461.6663 196.16 461.1541 195.477 460.8126 195.1355 457.91 192.4036 454.6659 192.7451 451.7632 191.7206 452.2754 190.8669 452.4462 190.8669 453.9829 191.0377 455.6903 188.6473 458.593 188.3058 466.4472 190.0132 467.4716 192.4036 472.9354 194.1111 473.6184 194.9648 474.1306 196.16 473.7891 198.8919 474.3014 199.2334 474.4721 199.4041 474.4721 200.2578 474.9843 201.1115 474.9843 201.9653 474.8136 202.9897 474.8136 205.3801 474.9843 206.7461 475.4966 207.4291 475.6673 207.7705 475.4966 208.4535 474.9843 209.8195 475.1551 210.3317 474.9843 212.0391 474.3014 213.2343 473.4477 215.9662 473.7891 216.6492 473.6184 219.3811 473.1062 221.0886 472.9354 221.6008 470.7158 224.1619 469.862 223.9912 469.1791 224.3327 468.8376 224.8449 469.3498 225.3571 470.2035 226.0401 470.545 226.8938 473.4477 226.8938 473.6184 227.5768 473.2769 228.2598 472.0817 228.9428 471.3987 229.455 481.4726 240.2118 491.0342 239.1874 490.6928 246.7001 486.7657 246.8708 485.3997 247.3831 484.7167 247.8953 483.6923 249.9442 483.3508 251.9932 483.0093 252.8469 483.3508 254.2128 483.3508 254.3836 480.4481 257.1155 480.2774 257.2862 480.1067 257.7984 479.9359 257.9692 480.1067 258.1399 480.1067 258.3107 480.7896 258.6522 483.3508 259.3351 484.7167 264.1159 489.4976 266.8478 489.6683 267.1893 489.6683 267.3601 489.6683 267.5308 489.4976 267.5308 488.3023 269.409 487.4486 269.5797 487.2779 269.7505 487.2779 269.9212 487.1071 270.2627 487.1071 270.4335 487.1071 270.6042 487.1071 271.1164 492.5709 278.7999 499.5714 281.5318 Z" id="BR.TO" fill="#cee3f5" stroke="#6e6e6e" stroke-width="0.4">
      <desc>
        <labelrank>2</labelrank>
        <code_hasc>BR.TO</code_hasc>
        <name>Tocantins</name>
        <admin>Brazil</admin>
        <type_en>State</type_en>
        <region/>
        <woe_id>2344870</woe_id>
        <longitude>-48</longitude>
        <woe_name>Tocantins</woe_name>
        <fips>BR31</fips>
        <woe_label>Tocantins, BR, Brazil</woe_label>
        <latitude>-10</latitude>
        <iso_a2>BR</iso_a2>
        <postal>TO</postal>
        <type>Estado</type>
        <id>BR.TO</id>
      </desc>
    </path>
    <path d="M 472.9354 383.8072 456.544 383.1243 457.91 373.7334 471.228 374.0749 472.9354 383.8072 Z" id="BR.DF" fill="#cee3f5" stroke="#6e6e6e" stroke-width="0.4">
      <desc>
        <labelrank>7</labelrank>
        <code_hasc>BR.DF</code_hasc>
        <name>Distrito Federal</name>
        <admin>Brazil</admin>
        <type_en>Federal District</type_en>
        <region/>
        <woe_id>2344850</woe_id>
        <longitude>-47</longitude>
        <woe_name>Distrito Federal</woe_name>
        <fips>BR07</fips>
        <woe_label>Distrito Federal, BR, Brazil</woe_label>
        <latitude>-15</latitude>
        <iso_a2>BR</iso_a2>
        <postal>DF</postal>
        <type>Distrito Federal</type>
        <id>BR.DF</id>
      </desc>
    </path>
    <path d="M 373.5626 417.273 373.9041 423.4198 378.3434 424.4442 376.1238 428.8836 383.1243 429.7373 408.7358 443.7383 408.0528 455.0073 407.3699 456.544 407.0284 457.227 406.5161 457.7392 397.979 463.5445 397.1252 468.6668 394.3933 472.4232 393.1981 473.1062 393.0274 473.2769 393.0274 473.7891 393.1981 475.3258 393.3689 476.0088 393.0274 476.8625 392.0029 477.887 391.8322 478.2285 391.32 479.0822 391.1492 479.2529 389.1003 480.1067 384.4902 490.3513 374.4163 496.6688 371.1722 500.9374 365.8792 503.157 364.1717 504.523 361.9521 511.5235 361.4398 512.0357 359.5616 513.2309 358.1957 513.7432 357.8542 514.0846 357.8542 514.2554 357.8542 514.9384 356.8297 518.6947 356.3175 520.7436 356.1468 523.1341 355.8053 523.4755 354.4393 524.1585 353.2441 525.0122 346.7559 520.5729 334.9746 523.9878 330.3645 499.9129 326.4374 493.7661 320.4614 493.5954 317.2172 490.0098 309.8752 494.1076 290.9227 490.522 293.3131 470.3743 287.1663 456.544 292.1179 453.1292 287.6786 448.6898 298.2647 421.7123 293.6546 412.8337 298.0939 416.59 304.5822 413.1751 310.046 405.1502 320.9736 402.589 337.1942 411.4677 346.9266 408.0528 355.1223 410.2725 362.635 403.6135 357.6835 415.7363 373.5626 417.273 Z" id="BR.MS" fill="#cee3f5" stroke="#6e6e6e" stroke-width="0.4">
      <desc>
        <labelrank>2</labelrank>
        <code_hasc>BR.MS</code_hasc>
        <name>Mato Grosso do Sul</name>
        <admin>Brazil</admin>
        <type_en>State</type_en>
        <region/>
        <woe_id>2344853</woe_id>
        <longitude>-54</longitude>
        <woe_name>Mato Grosso do Sul</woe_name>
        <fips>BR11</fips>
        <woe_label>Mato Grosso do Sul, BR, Brazil</woe_label>
        <latitude>-20</latitude>
        <iso_a2>BR</iso_a2>
        <postal>MS</postal>
        <type>Estado</type>
        <id>BR.MS</id>
      </desc>
    </path>
    <path d="M 408.0528 455.0073 408.7358 443.7383 420.3464 430.0788 433.8351 426.6639 436.0548 429.225 443.3968 423.932 460.9834 426.8346 472.0817 420.1756 472.5939 411.4677 468.1546 409.0773 474.9843 400.7109 470.0328 392.0029 472.9354 383.8072 481.1311 380.9046 480.7896 366.0499 486.2534 366.5621 487.4486 360.4154 491.205 364.1717 495.8151 363.4887 495.8151 363.6595 495.8151 363.8302 495.9858 364.3425 495.9858 364.684 496.1566 364.8547 496.498 365.8792 496.498 366.0499 496.1566 366.3914 495.8151 367.0744 494.6199 369.8063 494.4491 370.1477 494.6199 370.1477 494.6199 370.3185 494.7906 370.3185 494.9614 370.1477 495.4736 369.8063 496.498 369.294 497.3518 368.2696 500.4251 368.6111 503.84 365.0254 506.4012 364.684 509.816 361.7813 515.7921 359.3909 516.6458 358.025 519.0362 356.659 519.7192 355.976 520.2314 355.8053 520.5729 355.4638 521.0851 355.2931 521.2559 355.1223 521.5974 355.1223 523.1341 354.6101 524.3293 354.0978 524.8415 353.9271 525.0122 353.9271 525.8659 353.4149 527.2319 353.7564 527.5734 353.4149 528.4271 353.9271 529.6223 354.0978 529.7931 354.0978 530.3053 354.2686 530.8175 354.4393 531.3297 354.0978 532.1835 354.7808 532.6957 354.7808 533.2079 354.7808 533.3787 354.7808 533.7202 354.9516 533.8909 355.1223 534.2324 355.1223 534.9154 355.4638 534.9154 355.6345 534.0616 357.0005 533.8909 357.8542 533.5494 358.3664 533.2079 359.3909 533.2079 359.7324 533.3787 360.0739 533.3787 360.2446 533.3787 360.4154 533.3787 360.5861 533.3787 360.9276 533.3787 361.0983 533.3787 361.2691 533.8909 361.7813 539.6962 363.8302 540.7206 363.6595 541.2329 362.9765 541.4036 362.9765 541.4036 362.8058 541.5744 362.635 541.7451 362.4643 543.6233 361.6106 544.1355 361.4398 544.6477 361.2691 545.3307 361.2691 545.6722 361.4398 546.1844 361.6106 546.5259 361.7813 549.2578 362.2935 563.771 372.1967 566.1614 372.1967 567.8689 371.343 568.3811 371.343 568.5519 371.343 568.7226 371.1722 576.0646 378.6849 576.2353 382.7828 576.4061 383.1243 576.9183 383.1243 579.4795 383.978 580.3332 383.6365 581.0161 383.4658 581.5284 383.295 583.0651 382.2705 587.8459 383.4658 595.1879 385.8562 595.5294 386.5391 596.0416 386.8806 596.0416 387.2221 596.2123 387.2221 596.7246 387.2221 597.2368 387.5636 599.9687 389.4418 600.8224 390.637 600.8224 390.8077 600.8224 391.1492 601.1639 391.8322 601.1639 392.0029 600.9932 392.1737 600.6517 392.3444 600.6517 392.5152 600.4809 392.6859 600.1394 393.1981 599.9687 394.3933 599.7979 394.9056 599.4565 395.2471 597.4075 396.613 596.0416 398.3205 595.8708 398.6619 595.8708 399.0034 595.7001 399.1742 595.7001 399.3449 595.5294 399.3449 594.8464 399.1742 593.6512 399.6864 593.4804 400.0279 593.4804 400.1986 593.1389 402.7598 593.6512 404.4672 592.456 405.1502 590.7485 405.1502 589.7241 404.638 589.5533 404.8087 589.3826 404.9795 589.3826 405.1502 588.8704 405.4917 588.8704 405.6624 588.6996 405.8332 587.6751 409.248 587.6751 409.4188 587.8459 410.2725 587.8459 410.4432 587.8459 410.614 587.6751 410.7847 587.6751 410.9555 587.6751 411.1262 587.6751 411.4677 587.6751 411.6385 587.6751 411.8092 587.5044 411.9799 587.1629 412.1507 586.9922 412.4922 586.9922 412.6629 586.8214 413.5166 586.6507 414.0289 586.6507 414.1996 586.8214 414.3704 586.9922 414.3704 587.1629 414.5411 587.1629 414.3704 587.6751 413.8581 588.3581 413.6874 593.1389 421.3708 593.3097 421.8831 593.3097 422.2246 593.3097 422.7368 593.1389 423.0783 593.1389 423.249 592.9682 423.4198 592.7975 423.7613 592.6267 423.932 592.6267 424.1027 592.456 424.1027 592.456 424.4442 592.7975 425.2979 592.6267 425.1272 592.2852 424.9565 591.773 424.615 589.2118 423.5905 589.2118 423.4198 589.0411 423.4198 589.0411 423.0783 588.6996 423.932 588.5289 424.1027 580.8454 423.932 580.8454 424.2735 583.0651 426.8346 583.0651 427.6884 582.8943 427.6884 582.7236 427.8591 581.8699 427.6884 580.3332 426.6639 578.1135 427.8591 576.9183 429.3958 576.5768 429.7373 576.4061 429.7373 576.4061 429.908 576.4061 430.2495 576.5768 430.4203 576.5768 430.591 576.5768 430.9325 576.2353 431.6155 577.2598 431.1032 578.2842 431.9569 578.2842 432.1277 578.455 432.2984 578.6257 432.4692 578.6257 432.6399 578.6257 432.9814 578.6257 433.1522 578.455 434.5181 578.1135 435.3718 577.9428 436.3963 577.9428 436.567 577.9428 436.7378 578.1135 436.7378 578.2842 436.9085 579.138 436.9085 579.4795 437.25 579.6502 438.9574 579.6502 439.1282 579.4795 439.2989 579.3087 439.4697 578.9672 439.8112 576.5768 439.6404 576.4061 439.6404 576.4061 439.2989 575.3816 439.1282 574.8694 439.2989 574.5279 439.2989 574.3571 439.4697 574.1864 439.4697 574.1864 439.6404 574.1864 439.8112 574.1864 439.9819 574.3571 440.1526 574.5279 440.4941 574.6986 440.6649 574.8694 440.8356 575.2109 441.0064 576.4061 440.8356 577.089 441.6893 577.089 443.7383 577.6013 444.0797 578.455 445.1042 578.7965 445.6164 578.6257 447.8361 578.7965 448.1776 578.7965 448.3483 578.6257 448.8606 578.6257 449.3728 578.6257 449.5435 578.1135 450.568 578.1135 450.7387 578.1135 450.9095 578.1135 451.251 578.1135 451.4217 577.9428 451.5925 577.6013 451.934 577.4305 452.1047 577.2598 452.1047 576.5768 451.7632 576.7476 452.9584 576.5768 453.1292 576.0646 453.6414 575.8938 453.8121 575.5523 453.8121 574.3571 454.8366 573.6742 458.4222 571.4545 459.9589 570.6008 463.0323 570.0886 464.0568 570.0886 464.2275 564.1125 464.0568 563.6003 464.3982 563.2588 465.252 563.0881 465.4227 562.0636 465.9349 562.0636 466.1057 561.8929 466.2764 561.7221 466.4472 561.7221 466.6179 561.7221 466.7886 561.7221 466.9594 561.8929 467.1301 561.8929 467.4716 562.0636 467.6424 562.5758 467.9839 562.4051 468.6668 562.4051 469.1791 562.4051 469.6913 562.4051 469.862 562.0636 471.7402 562.0636 471.911 561.7221 472.4232 561.5514 472.5939 561.0391 473.4477 561.0391 473.6184 560.8684 473.6184 560.8684 473.7891 560.6977 473.7891 560.6977 473.9599 561.0391 474.1306 560.8684 474.4721 560.6977 474.4721 560.0147 474.6429 559.8439 474.9843 559.8439 475.1551 559.8439 475.3258 559.5024 475.8381 559.161 476.521 558.9902 476.6918 558.8195 476.6918 558.478 476.8625 558.1365 476.521 557.9658 476.521 557.4535 476.6918 557.112 476.521 556.2583 477.0333 556.0876 477.5455 556.2583 477.7162 556.7705 478.0577 555.2339 480.6189 554.2094 483.863 553.3557 484.546 553.1849 484.7167 551.4775 488.3023 551.4775 488.8146 551.3068 488.9853 551.4775 489.1561 551.819 489.1561 551.9897 489.3268 552.6727 489.3268 553.0142 489.6683 553.1849 489.839 553.1849 490.0098 553.0142 490.1805 552.8434 490.6928 542.4281 494.4491 540.2084 495.1321 539.3547 496.1566 538.6717 496.1566 538.501 496.1566 538.1595 496.498 537.9887 496.498 527.4026 495.1321 519.5484 498.2055 518.6947 497.864 516.8165 498.0347 516.6458 498.0347 516.475 497.864 516.3043 497.864 505.7182 501.1081 499.9129 504.1815 494.4491 502.6448 493.0832 504.6937 493.2539 505.0352 494.2784 505.206 494.2784 505.3767 494.4491 505.5475 494.1076 506.4012 493.9369 506.4012 493.7661 506.2304 493.5954 506.2304 493.5954 506.4012 493.2539 507.2549 493.0832 507.2549 492.9124 507.0841 492.9124 506.9134 492.7417 506.9134 492.0587 507.4256 491.205 506.5719 487.6194 507.7671 487.2779 507.7671 487.2779 507.5964 487.2779 507.4256 487.4486 507.4256 487.4486 507.2549 487.4486 507.0841 487.2779 507.0841 487.2779 506.9134 487.1071 506.9134 486.5949 507.0841 486.0827 507.4256 485.9119 507.4256 485.7412 507.4256 485.7412 507.2549 485.5705 507.2549 485.229 507.4256 485.0582 507.4256 484.8875 507.4256 484.546 507.2549 484.3752 507.2549 484.0338 507.0841 483.863 506.9134 483.863 506.7427 483.6923 506.5719 483.6923 506.4012 483.6923 506.0597 483.863 505.7182 483.863 505.206 483.6923 505.0352 482.4971 504.1815 482.1556 503.6693 481.9848 503.4985 482.1556 503.3278 483.18 502.9863 483.3508 502.8156 483.3508 502.6448 483.18 502.1326 483.18 501.9618 483.18 501.7911 483.18 501.6204 483.18 501.4496 483.3508 501.4496 483.5215 501.2789 483.6923 501.1081 483.5215 501.1081 483.3508 500.9374 483.0093 500.9374 482.6678 500.7666 481.3019 500.0837 479.4237 498.547 479.2529 497.6932 478.7407 497.0103 478.57 497.0103 478.57 496.8395 478.7407 496.3273 479.2529 494.9614 479.5944 494.4491 479.9359 494.2784 480.2774 493.9369 480.4481 493.7661 480.1067 493.0832 479.9359 493.0832 479.2529 492.9124 479.0822 492.9124 478.9114 492.7417 478.9114 492.5709 478.9114 492.4002 479.2529 492.4002 479.4237 492.2295 479.5944 492.2295 479.5944 491.5465 479.7652 491.3757 479.9359 491.3757 480.1067 491.3757 480.2774 491.205 480.2774 491.0342 479.9359 490.522 479.5944 489.4976 479.5944 489.3268 479.7652 489.1561 479.9359 488.9853 479.9359 488.8146 479.9359 488.6438 479.5944 488.4731 479.5944 488.1316 479.5944 487.9609 479.7652 487.7901 480.2774 487.4486 480.2774 487.2779 480.6189 485.7412 480.7896 485.5705 482.3263 484.2045 482.4971 481.6433 480.2774 479.9359 480.1067 480.1067 479.5944 480.4481 477.5455 479.7652 474.4721 480.2774 471.0572 471.228 471.3987 458.593 467.6424 453.9829 444.7627 456.7148 444.2505 456.8855 443.3968 458.593 443.3968 458.7637 443.5675 459.2759 443.7383 461.3249 443.226 461.8371 442.0308 461.1541 442.0308 459.6174 442.0308 458.0807 442.0308 457.227 441.6893 456.544 437.933 459.1052 437.5915 458.2515 437.0793 457.5685 436.7378 456.7148 436.567 456.3733 436.567 455.5196 436.567 455.1781 436.7378 454.1536 436.9085 454.1536 437.5915 453.9829 437.5915 453.6414 437.4207 453.2999 437.0793 453.1292 436.7378 453.1292 436.3963 453.1292 435.2011 453.2999 432.4692 452.4462 426.8346 452.2754 424.615 451.934 419.1512 450.9095 418.8097 450.7387 417.7852 449.5435 417.273 449.3728 416.7608 449.3728 415.5656 449.885 415.2241 450.568 413.5166 451.934 410.1018 453.1292 409.7603 453.2999 408.0528 455.0073 Z" id="BR.MG" fill="#cee3f5" stroke="#6e6e6e" stroke-width="0.4">
      <desc>
        <labelrank>2</labelrank>
        <code_hasc>BR.MG</code_hasc>
        <name>Minas Gerais</name>
        <admin>Brazil</admin>
        <type_en>State</type_en>
        <region/>
        <woe_id>2344856</woe_id>
        <longitude>-44</longitude>
        <woe_name>Minas Gerais</woe_name>
        <fips>BR15</fips>
        <woe_label>Minas Gerais, BR, Brazil</woe_label>
        <latitude>-18</latitude>
        <iso_a2>BR</iso_a2>
        <postal>MG</postal>
        <type>Estado</type>
        <id>BR.MG</id>
      </desc>
    </path>
    <path d="M 423.932 271.7994 414.7118 300.6551 415.5656 321.1443 418.9804 325.4129 411.9799 340.7798 407.7114 361.7813 398.3205 366.7329 394.0519 377.6605 382.612 383.978 379.5386 392.8567 374.2456 396.7838 370.3185 409.7603 373.5626 417.273 357.6835 415.7363 362.635 403.6135 355.1223 410.2725 346.9266 408.0528 337.1942 411.4677 320.9736 402.589 310.046 405.1502 304.5822 413.1751 298.0939 416.59 293.6546 412.8337 291.9472 409.0773 281.8733 404.1257 282.3855 387.0514 251.1394 387.5636 249.2613 373.5626 243.2852 366.9036 248.5783 366.3914 246.0171 346.7559 240.0411 341.1213 245.8464 336.682 255.2373 318.2417 250.115 306.4604 253.3591 299.9721 251.6517 295.7035 243.7975 293.3131 225.0157 293.4839 222.4545 263.433 224.5034 255.9203 222.2838 253.5298 276.751 252.3346 279.4829 235.6018 282.2148 228.772 283.7515 227.0646 286.4834 230.4795 289.8982 239.3581 292.6301 242.6023 293.6546 251.9932 302.5333 257.6277 302.8748 258.6522 302.8748 260.0181 302.8748 260.1888 303.0455 260.5303 303.387 260.7011 303.8992 260.8718 307.1433 261.3841 307.8263 263.2622 307.9971 263.433 308.3386 263.6037 313.6316 264.9697 338.0479 266.3356 423.932 271.7994 Z" id="BR.MT" fill="#cee3f5" stroke="#6e6e6e" stroke-width="0.4">
      <desc>
        <labelrank>2</labelrank>
        <code_hasc>BR.MT</code_hasc>
        <name>Mato Grosso</name>
        <admin>Brazil</admin>
        <type_en>State</type_en>
        <region/>
        <woe_id>2344855</woe_id>
        <longitude>-55</longitude>
        <woe_name>Mato Grosso</woe_name>
        <fips>BR14</fips>
        <woe_label>Mato Grosso, BR, Brazil</woe_label>
        <latitude>-13</latitude>
        <iso_a2>BR</iso_a2>
        <postal>MT</postal>
        <type>Estado</type>
        <id>BR.MT</id>
      </desc>
    </path>
    <path d="M 373.0504 579.3087 373.0504 580.3332 373.3919 580.3332 373.5626 580.5039 373.5626 580.8454 373.5626 581.0161 373.2211 581.3576 373.2211 581.5284 373.3919 581.6991 373.7334 581.6991 374.2456 580.6747 375.7823 580.6747 378.1727 582.7236 381.5876 582.3821 381.5876 582.2114 381.7583 582.0406 381.9291 581.8699 381.9291 581.6991 382.0998 581.6991 382.0998 581.8699 382.2705 582.0406 382.2705 582.2114 382.4413 582.5528 382.612 582.7236 382.9535 582.2114 383.1243 583.0651 383.8072 582.8943 384.3195 583.2358 384.4902 583.0651 384.3195 582.7236 384.3195 582.3821 384.4902 582.2114 385.0024 582.2114 385.3439 582.3821 385.5147 582.5528 385.3439 582.7236 385.0024 582.7236 385.0024 582.8943 385.1732 583.2358 385.3439 583.5773 385.5147 583.5773 386.0269 583.0651 386.3684 582.7236 387.5636 583.748 387.7343 583.9188 388.9295 583.9188 389.1003 584.431 389.7833 584.6018 390.1248 584.9432 389.6125 584.9432 389.271 584.9432 389.1003 584.9432 389.954 585.6262 390.2955 585.9677 389.954 586.3092 390.1248 586.3092 390.2955 586.3092 390.637 585.9677 390.637 586.3092 390.8077 586.8214 390.9785 587.1629 391.1492 587.3337 391.32 587.1629 391.4907 586.4799 391.6614 586.6507 391.6614 586.8214 391.4907 587.1629 392.0029 587.3337 392.1737 587.3337 392.6859 587.3337 392.6859 586.8214 393.7104 587.1629 394.3933 586.6507 394.9056 587.1629 395.4178 586.8214 395.5886 587.6751 396.1008 587.5044 396.2715 587.5044 396.2715 588.3581 397.6375 588.1874 398.1497 589.0411 398.4912 589.2118 398.6619 589.3826 398.8327 589.8948 401.3938 591.9437 401.5646 591.9437 401.7353 591.9437 401.9061 591.9437 402.0768 591.9437 403.7842 592.9682 406.6869 596.7246 407.0284 598.432 407.1991 598.6027 407.3699 598.6027 407.5406 598.432 408.2236 598.6027 408.9066 600.4809 409.0773 600.6517 409.4188 600.8224 409.5895 600.9932 410.7847 603.0421 411.9799 603.8958 417.1023 604.5788 417.4437 604.7495 417.956 605.2617 424.4442 605.2617 424.615 605.9447 425.1272 606.2862 425.1272 607.4814 425.1272 607.6522 424.9565 607.8229 424.7857 607.8229 424.1027 607.6522 423.932 607.6522 423.5905 607.9936 423.0783 608.8474 422.9075 609.0181 422.7368 609.1888 421.7123 609.5303 421.5416 610.2133 421.0294 610.7255 421.0294 610.8963 420.8586 611.5793 420.1756 616.3601 420.0049 616.3601 419.6634 616.3601 419.4927 616.5308 418.9804 616.1893 418.4682 617.2138 417.956 617.5553 417.6145 617.8968 417.4437 617.8968 417.4437 618.0675 417.6145 618.7505 417.4437 619.2627 417.4437 619.4335 417.4437 619.6042 417.4437 619.775 417.6145 619.9457 418.6389 620.2872 418.8097 620.2872 418.8097 620.4579 419.1512 620.7994 419.3219 620.7994 424.4442 620.4579 409.7603 647.9477 401.0523 658.363 386.5391 670.3151 386.5391 664.339 390.2955 664.8513 399.5157 658.0215 401.0523 651.1918 403.7842 652.2162 403.955 647.9477 408.3943 645.045 408.0528 638.5568 410.614 640.2642 409.931 635.4834 404.8087 639.752 399.6864 632.0685 398.8327 635.8249 402.4183 638.2153 399.5157 645.8987 397.979 643.3376 396.7838 651.1918 388.5881 655.4604 384.1487 664.5098 386.3684 670.3151 378.1727 687.0479 366.2206 698.317 364.3425 688.0724 370.8307 680.0475 364.001 675.0959 361.0983 668.0954 348.1218 657.5093 338.2187 653.7529 332.7549 646.7524 326.4374 651.021 326.2666 645.8987 313.2901 633.7759 306.9726 637.3615 301.1673 635.4834 327.2911 602.5298 330.5352 602.8713 329.34 599.9687 340.9506 592.9682 344.5362 587.1629 352.7319 585.4555 359.2202 579.8209 359.9031 580.6747 362.4643 580.5039 362.8058 581.5284 364.001 580.8454 364.3425 580.8454 365.0254 581.1869 365.3669 581.1869 365.3669 580.8454 365.3669 580.3332 365.3669 579.9917 365.5377 579.8209 367.4159 578.9672 368.7818 581.3576 373.0504 579.3087 Z" id="BR.RS" fill="#cee3f5" stroke="#6e6e6e" stroke-width="0.4">
      <desc>
        <labelrank>2</labelrank>
        <code_hasc>BR.RS</code_hasc>
        <name>Rio Grande do Sul</name>
        <admin>Brazil</admin>
        <type_en>State</type_en>
        <region/>
        <woe_id>2344864</woe_id>
        <longitude>-53</longitude>
        <woe_name>Rio Grande do Sul</woe_name>
        <fips>BR23</fips>
        <woe_label>Rio Grande do Sul, BR, Brazil</woe_label>
        <latitude>-29</latitude>
        <iso_a2>BR</iso_a2>
        <postal>RS</postal>
        <type>Estado</type>
        <id>BR.RS</id>
      </desc>
    </path>
    <path d="M 453.4706 549.5993 451.0802 552.1605 452.7877 549.0871 449.3728 550.2823 449.5435 548.0626 446.9824 552.3312 442.7138 549.9408 448.6898 554.0386 445.6164 558.9902 441.8601 559.161 444.7627 561.3806 436.2255 561.2099 429.0543 565.137 422.9075 561.0391 412.4922 560.6977 409.931 564.7955 402.2476 565.9907 398.8327 572.8205 362.8058 564.454 358.8787 553.1849 355.4638 550.7945 350.1707 554.3801 347.4388 549.9408 352.0489 526.2074 353.2441 525.0122 353.9271 524.6707 354.4393 524.1585 355.8053 523.4755 356.1468 523.1341 356.3175 520.7436 356.8297 518.6947 357.0005 517.6703 357.8542 514.9384 357.8542 514.2554 357.8542 514.0846 358.1957 513.7432 359.5616 513.2309 361.4398 512.0357 361.9521 511.5235 364.1717 504.523 365.8792 503.157 371.1722 500.9374 389.4418 497.864 410.7847 506.0597 423.932 505.3767 429.3958 512.0357 429.7373 523.1341 435.5426 531.6712 434.1766 537.3058 445.7872 537.9887 445.6164 544.6477 451.251 544.1355 453.4706 549.5993 Z" id="BR.PR" fill="#cee3f5" stroke="#6e6e6e" stroke-width="0.4">
      <desc>
        <labelrank>2</labelrank>
        <code_hasc>BR.PR</code_hasc>
        <name>Paraná</name>
        <admin>Brazil</admin>
        <type_en>State</type_en>
        <region/>
        <woe_id>2344859</woe_id>
        <longitude>-51</longitude>
        <woe_name>Paraná</woe_name>
        <fips>BR18</fips>
        <woe_label>Parana, BR, Brazil</woe_label>
        <latitude>-24</latitude>
        <iso_a2>BR</iso_a2>
        <postal>PR</postal>
        <type>Estado</type>
        <id>BR.PR</id>
      </desc>
    </path>
    <path d="M 444.592 569.2348 442.7138 567.1859 445.275 564.6248 444.592 569.2348 Z M 444.7627 561.3806 443.226 565.82 441.3478 563.0881 445.6164 582.3821 440.1526 606.1155 438.4452 603.5543 440.1526 606.7984 424.4442 620.4579 420.8586 618.0675 418.6389 619.092 419.4927 620.1164 419.4927 620.4579 419.3219 620.7994 419.1512 620.7994 418.9804 620.7994 418.8097 620.4579 418.8097 620.2872 418.6389 620.2872 417.4437 619.775 417.4437 619.6042 417.4437 619.4335 417.4437 619.2627 417.6145 618.7505 417.6145 618.409 417.4437 618.0675 417.4437 617.8968 417.6145 617.8968 417.956 617.5553 418.4682 617.2138 418.9804 616.1893 419.4927 616.5308 419.6634 616.3601 420.0049 616.3601 420.1756 616.3601 421.0294 613.7989 420.8586 611.5793 421.0294 610.8963 421.0294 610.7255 421.7123 609.5303 422.7368 609.1888 422.9075 609.0181 423.0783 608.8474 423.932 607.6522 424.1027 607.6522 424.7857 607.8229 424.9565 607.8229 425.1272 607.6522 425.1272 607.4814 424.9565 606.7984 424.9565 606.6277 425.1272 606.2862 424.615 605.9447 424.4442 605.2617 417.956 605.2617 417.4437 604.7495 417.1023 604.5788 411.9799 603.8958 410.7847 603.0421 409.5895 600.9932 409.4188 600.8224 409.0773 600.6517 408.9066 600.4809 408.2236 598.6027 407.5406 598.432 407.3699 598.6027 407.1991 598.6027 407.0284 598.432 403.7842 592.9682 402.0768 591.9437 401.9061 591.9437 401.7353 591.9437 401.5646 591.9437 401.3938 591.9437 399.5157 589.3826 398.8327 589.8948 398.6619 589.3826 398.4912 589.2118 398.1497 589.0411 397.6375 588.1874 396.2715 588.3581 396.1008 587.5044 395.5886 587.6751 395.4178 586.8214 394.9056 587.1629 394.3933 586.6507 393.7104 587.1629 392.6859 586.8214 392.6859 587.3337 392.1737 587.3337 392.0029 587.3337 391.4907 587.1629 391.6614 586.8214 391.6614 586.6507 391.4907 586.4799 391.32 587.1629 391.1492 587.3337 390.9785 587.1629 390.8077 586.8214 390.637 586.3092 390.637 585.9677 390.2955 586.3092 390.1248 586.3092 389.954 586.3092 390.2955 585.9677 389.954 585.6262 389.1003 584.9432 389.271 584.9432 389.6125 584.9432 390.1248 584.9432 389.7833 584.6018 388.9295 583.9188 387.7343 583.9188 387.5636 583.748 386.3684 582.7236 386.0269 583.0651 385.5147 583.5773 385.3439 583.5773 385.1732 583.2358 385.0024 582.8943 385.0024 582.7236 385.3439 582.7236 385.5147 582.5528 385.3439 582.3821 385.0024 582.2114 384.4902 582.2114 384.3195 582.3821 384.4902 583.0651 384.3195 583.2358 383.1243 583.0651 382.9535 582.2114 382.612 582.7236 382.4413 582.5528 382.2705 582.2114 382.2705 582.0406 382.0998 581.8699 382.0998 581.6991 381.9291 581.6991 381.9291 581.8699 381.7583 582.0406 381.5876 582.2114 381.5876 582.3821 378.1727 582.7236 373.3919 581.6991 373.2211 581.5284 373.2211 581.3576 373.5626 581.0161 373.5626 580.8454 373.5626 580.5039 373.0504 579.3087 368.7818 581.3576 367.4159 578.9672 365.5377 579.8209 365.3669 579.9917 365.3669 580.3332 365.3669 580.8454 365.3669 581.1869 365.0254 581.1869 364.3425 580.8454 364.001 580.8454 362.8058 581.5284 362.4643 580.5039 359.9031 580.6747 361.9521 576.0646 362.8058 564.454 398.8327 572.8205 402.2476 565.9907 409.931 564.7955 412.4922 560.6977 422.9075 561.0391 429.0543 565.137 436.2255 561.2099 444.7627 561.3806 Z" id="BR.SC" fill="#cee3f5" stroke="#6e6e6e" stroke-width="0.4">
      <desc>
        <labelrank>2</labelrank>
        <code_hasc>BR.SC</code_hasc>
        <name>Santa Catarina</name>
        <admin>Brazil</admin>
        <type_en>State</type_en>
        <region/>
        <woe_id>2344867</woe_id>
        <longitude>-51</longitude>
        <woe_name>Santa Catarina</woe_name>
        <fips>BR26</fips>
        <woe_label>Santa Catarina, BR, Brazil</woe_label>
        <latitude>-27</latitude>
        <iso_a2>BR</iso_a2>
        <postal>SC</postal>
        <type>Estado</type>
        <id>BR.SC</id>
      </desc>
    </path>
    <path d="M 633.4344 213.7466 629.3366 223.479 632.9222 230.8209 631.8977 233.0406 631.044 233.5528 630.8733 234.748 629.6781 235.9432 629.5073 236.2847 629.6781 236.4555 624.7265 240.5533 622.8483 240.5533 612.7745 231.3332 607.9936 230.9917 603.8958 231.8454 597.066 231.1624 597.2368 229.7965 596.3831 227.5768 599.6272 220.7471 593.1389 214.2588 585.6262 180.1101 588.5289 173.6218 582.3821 158.5964 585.9677 150.7422 585.9677 148.3518 608.6766 148.0103 635.4834 164.0602 649.9966 180.7931 656.3141 183.525 656.6556 184.0372 657.3386 185.5739 648.4599 189.6717 642.4839 199.7456 641.8009 202.4775 640.9472 203.6727 640.7764 204.6972 640.6057 204.8679 637.703 208.112 634.8004 208.2828 633.7759 209.9902 633.4344 210.3317 633.2637 210.5024 633.2637 210.8439 633.093 211.0147 633.093 211.1854 632.7515 211.3562 632.5807 211.5269 632.41 211.6977 632.41 211.8684 632.41 212.2099 632.41 212.7221 632.41 213.0636 632.41 213.2343 632.0685 213.7466 632.0685 213.9173 632.5807 214.0881 633.093 214.0881 633.4344 213.7466 Z" id="BR.CE" fill="#cee3f5" stroke="#6e6e6e" stroke-width="0.4">
      <desc>
        <labelrank>2</labelrank>
        <code_hasc>BR.CE</code_hasc>
        <name>Ceará</name>
        <admin>Brazil</admin>
        <type_en>State</type_en>
        <region/>
        <woe_id>2344849</woe_id>
        <longitude>-39</longitude>
        <woe_name>Ceará</woe_name>
        <fips>BR06</fips>
        <woe_label>Ceara, BR, Brazil</woe_label>
        <latitude>-5</latitude>
        <iso_a2>BR</iso_a2>
        <postal>CE</postal>
        <type>Estado</type>
        <id>BR.CE</id>
      </desc>
    </path>
    <path d="M 585.9677 150.7422 582.3821 158.5964 588.5289 173.6218 585.6262 180.1101 593.1389 214.2588 599.6272 220.7471 596.3831 227.5768 597.2368 229.7965 597.066 231.1624 595.1879 231.3332 594.5049 231.5039 594.5049 231.6747 594.3341 231.8454 594.1634 232.6991 594.1634 232.8699 594.3341 233.3821 595.3586 235.2603 595.5294 235.7725 595.3586 236.2847 595.3586 236.4555 595.0171 237.1385 594.6756 237.4799 594.6756 237.8214 594.6756 237.9922 594.8464 237.9922 594.8464 238.1629 595.8708 238.6751 596.2123 238.8459 596.5538 239.1874 596.7246 239.3581 596.7246 239.5289 596.8953 240.7241 596.7246 242.2608 596.5538 242.9437 596.0416 244.3097 595.8708 244.4804 595.7001 244.6512 595.5294 244.8219 595.1879 244.8219 593.9927 246.0171 592.7975 246.7001 591.2608 248.9198 589.7241 250.115 587.8459 249.9442 584.431 253.5298 583.0651 254.2128 581.5284 254.8958 579.138 258.9936 578.1135 259.5059 574.8694 259.6766 574.6986 259.6766 574.6986 260.0181 574.8694 262.4085 572.6497 264.4574 564.2833 265.3112 558.8195 269.7505 544.1355 264.4574 541.2329 265.1404 539.8669 267.0186 538.501 266.6771 537.818 266.5064 537.6473 266.6771 537.4765 266.8478 537.3058 267.5308 537.4765 267.8723 539.8669 273.3361 539.8669 274.1898 539.8669 274.3606 539.8669 274.5313 539.3547 275.7265 539.3547 275.8973 539.3547 276.068 539.5254 276.751 539.5254 277.0925 539.5254 277.2632 539.5254 277.6047 539.3547 277.9462 539.184 278.1169 538.501 278.9706 538.3302 279.3121 538.3302 279.8244 538.3302 279.9951 538.3302 280.1659 538.1595 280.1659 537.6473 280.5073 537.6473 280.6781 536.2813 283.41 535.5983 283.7515 535.5983 284.4344 535.4276 284.6052 535.4276 284.7759 535.2568 284.7759 535.0861 284.9467 534.9154 284.9467 534.5739 284.9467 534.4031 284.9467 534.2324 284.9467 534.0616 285.1174 531.842 287.5078 531.5005 287.6786 531.3297 287.6786 529.9638 288.0201 529.9638 288.1908 529.6223 288.0201 528.4271 287.5078 526.3782 287.3371 525.6952 287.6786 525.183 287.8493 524.5 287.8493 524.3293 287.8493 524.3293 288.0201 524.1585 288.0201 523.6463 288.703 522.7926 289.0445 522.2803 289.8982 520.5729 290.4105 519.8899 291.9472 519.7192 291.9472 519.7192 292.1179 519.5484 292.1179 519.3777 292.2886 519.2069 292.2886 518.8655 292.2886 516.9873 291.9472 515.1091 292.4594 513.5724 291.7764 512.5479 291.0934 511.6942 290.9227 511.182 290.4105 510.499 290.2397 510.3283 290.069 508.4501 287.1663 506.0597 282.3855 505.7182 282.044 502.9863 281.8733 501.7911 281.8733 499.5714 281.5318 499.5714 281.0196 499.7422 280.6781 499.7422 280.1659 499.9129 279.8244 499.9129 279.6536 499.7422 279.6536 499.7422 279.3121 499.5714 279.1414 499.7422 278.7999 500.5959 277.434 500.5959 277.0925 500.5959 276.751 500.5959 276.4095 501.2789 275.8973 501.9618 267.5308 502.4741 266.8478 502.6448 266.5064 502.6448 266.1649 500.7666 263.2622 500.7666 261.0426 500.4251 260.3596 500.4251 258.8229 500.2544 258.1399 499.7422 257.1155 499.5714 256.6032 499.7422 256.091 500.5959 254.0421 503.4985 250.7979 507.0841 242.773 507.7671 237.4799 509.1331 234.2358 511.182 232.8699 512.2065 232.1869 512.5479 232.0161 514.4261 231.8454 517.158 230.9917 519.2069 230.138 520.9144 228.772 522.9633 229.2842 536.1106 217.8444 546.0137 219.8933 549.9408 218.3567 551.136 218.8689 552.1605 218.5274 553.1849 218.6981 553.5264 218.5274 553.8679 218.3567 554.8924 217.3322 555.0631 216.9907 555.0631 215.9662 555.5753 215.454 555.7461 214.9418 555.7461 213.9173 556.0876 213.5758 556.7705 211.1854 556.5998 211.0147 556.4291 210.8439 556.4291 209.478 554.3801 208.112 553.6972 207.0876 553.0142 206.7461 552.8434 206.5753 552.502 205.7216 552.6727 205.3801 552.6727 205.0386 552.6727 204.6972 552.1605 204.1849 551.9897 203.3312 551.9897 200.5993 551.9897 200.2578 552.3312 199.7456 552.502 199.5749 552.3312 199.4041 552.1605 199.0626 552.1605 197.8674 552.3312 197.6967 553.0142 197.3552 556.7705 192.7451 557.6243 190.0132 557.6243 189.501 557.112 188.4765 556.7705 185.2324 555.0631 182.5005 556.7705 177.5489 556.0876 175.8415 555.7461 175.5 555.2339 175.5 554.8924 175.1585 554.7216 174.3048 554.5509 173.9633 554.5509 172.7681 554.7216 172.4266 555.4046 171.5729 556.2583 171.0607 556.5998 170.5484 556.5998 170.3777 556.9413 170.0362 557.2828 168.841 559.3317 166.9628 563.4295 158.5964 568.5519 158.2549 573.3327 153.6448 573.8449 152.4496 575.3816 151.0837 575.8938 149.7177 575.8938 149.3762 575.2109 148.864 575.2109 148.6932 575.0401 148.3518 574.8694 147.8395 574.8694 147.498 575.0401 147.498 575.2109 147.498 575.3816 146.1321 576.0646 145.7906 578.455 148.3518 585.9677 150.7422 Z" id="BR.PI" fill="#cee3f5" stroke="#6e6e6e" stroke-width="0.4">
      <desc>
        <labelrank>2</labelrank>
        <code_hasc>BR.PI</code_hasc>
        <name>Piauí</name>
        <admin>Brazil</admin>
        <type_en>State</type_en>
        <region/>
        <woe_id>2344861</woe_id>
        <longitude>-43</longitude>
        <woe_name>Piauí</woe_name>
        <fips>BR20</fips>
        <woe_label>Piaui, BR, Brazil</woe_label>
        <latitude>-8</latitude>
        <iso_a2>BR</iso_a2>
        <postal>PI</postal>
        <type>Estado</type>
        <id>BR.PI</id>
      </desc>
    </path>
    <path d="M 667.9247 291.7764 658.1923 281.3611 640.6057 272.3116 640.6057 271.9702 640.4349 271.2872 640.2642 271.2872 639.4105 270.775 638.8982 270.6042 637.3615 270.092 637.1908 269.9212 636.6786 268.3845 637.5323 267.8723 638.2153 267.3601 639.069 265.9941 641.4594 265.1404 645.5572 260.0181 659.5582 269.9212 670.1443 267.5308 676.4618 262.067 691.658 263.2622 681.2427 277.0925 676.6326 275.5558 679.3645 277.7754 667.9247 291.7764 Z" id="BR.AL" fill="#cee3f5" stroke="#6e6e6e" stroke-width="0.4">
      <desc>
        <labelrank>2</labelrank>
        <code_hasc>BR.AL</code_hasc>
        <name>Alagoas</name>
        <admin>Brazil</admin>
        <type_en>State</type_en>
        <region/>
        <woe_id>2344845</woe_id>
        <longitude>-36</longitude>
        <woe_name>Alagoas</woe_name>
        <fips>BR02</fips>
        <woe_label>Alagoas, BR, Brazil</woe_label>
        <latitude>-9</latitude>
        <iso_a2>BR</iso_a2>
        <postal>AL</postal>
        <type>Estado</type>
        <id>BR.AL</id>
      </desc>
    </path>
    <path d="M 620.9702 342.658 620.4579 347.7803 618.409 343.8532 620.9702 342.658 Z M 636.6786 268.3845 637.1908 269.5797 637.1908 269.9212 637.3615 270.092 638.8982 270.6042 639.4105 270.775 640.2642 271.2872 640.4349 271.2872 640.6057 272.3116 640.4349 272.4824 640.2642 272.6531 639.9227 273.5068 639.752 273.6776 639.752 273.8483 639.752 274.0191 640.0934 274.1898 640.4349 274.3606 640.6057 274.3606 640.6057 274.5313 640.6057 274.7021 640.4349 274.8728 640.2642 275.5558 640.0934 275.7265 639.9227 275.8973 639.9227 276.068 639.9227 276.2387 640.9472 278.6292 641.9716 279.4829 642.1424 280.1659 643.3376 281.5318 644.0205 282.727 644.1913 283.0685 644.1913 283.2392 644.0205 284.2637 644.0205 285.1174 643.8498 286.8249 643.5083 287.6786 642.8253 288.5323 642.8253 288.8738 642.6546 289.0445 642.9961 290.2397 642.8253 291.7764 642.9961 292.1179 643.3376 292.2886 643.3376 292.4594 643.5083 292.6301 643.5083 292.8009 643.3376 293.1424 643.3376 293.3131 641.8009 294.3376 639.5812 295.0205 636.1663 293.9961 635.8249 294.5083 635.1419 296.045 635.1419 296.2158 635.1419 296.3865 635.1419 296.8987 635.1419 297.0695 635.9956 298.2647 636.1663 298.9477 637.3615 299.9721 639.2397 303.5577 639.4105 303.8992 639.4105 304.2407 639.4105 304.5822 639.069 305.0944 639.069 305.4359 638.8982 305.7774 638.8982 305.9481 638.8982 306.1189 638.8982 306.2896 638.8982 306.4604 640.2642 307.3141 641.4594 307.8263 642.3131 309.363 644.5328 310.3875 645.2158 309.5338 646.2402 309.8752 646.7524 309.8752 647.9477 309.5338 648.4599 309.7045 649.9966 308.5093 631.727 334.9746 627.7999 336.1698 628.6536 330.8767 625.5802 327.8033 623.1898 332.5841 621.3116 330.706 622.3361 332.7549 624.7265 333.4379 618.2383 342.658 619.092 350.8537 616.3601 348.8048 618.9212 351.3659 617.726 357.0005 619.9457 352.0489 616.7016 366.2206 618.7505 388.0758 610.8963 411.6385 611.4085 421.2001 601.5054 432.2984 592.7975 425.2979 592.456 424.4442 592.456 424.1027 592.6267 424.1027 592.6267 423.932 592.7975 423.7613 592.9682 423.4198 593.1389 423.249 593.1389 423.0783 593.3097 422.7368 593.3097 422.2246 593.3097 421.8831 593.1389 421.3708 588.5289 417.273 588.3581 413.6874 587.6751 413.8581 587.3337 414.3704 587.1629 414.3704 587.1629 414.5411 586.9922 414.3704 586.8214 414.3704 586.6507 414.1996 586.6507 414.0289 586.8214 413.5166 586.9922 412.4922 587.1629 412.1507 587.5044 411.9799 587.6751 411.8092 587.6751 411.6385 587.6751 411.4677 587.6751 411.1262 587.6751 410.9555 587.6751 410.7847 587.8459 410.614 587.8459 410.4432 587.8459 410.2725 587.6751 409.4188 587.6751 409.248 588.1874 408.0528 588.6996 405.8332 588.8704 405.6624 588.8704 405.4917 589.3826 405.1502 589.3826 404.9795 589.5533 404.8087 589.7241 404.638 590.7485 405.1502 592.456 405.1502 593.6512 404.4672 593.6512 404.2965 593.6512 403.955 593.1389 402.7598 593.3097 401.5646 593.4804 400.1986 593.4804 400.0279 593.6512 399.6864 594.8464 399.1742 595.5294 399.3449 595.7001 399.3449 595.7001 399.1742 595.8708 399.1742 597.4075 396.613 599.4565 395.2471 599.7979 394.9056 599.9687 394.3933 600.1394 393.1981 600.4809 392.6859 600.6517 392.5152 600.6517 392.3444 600.9932 392.1737 601.1639 392.0029 601.1639 391.8322 600.8224 390.8077 600.8224 390.637 600.6517 390.637 600.3102 390.1248 599.9687 389.4418 596.0416 387.2221 596.0416 386.8806 595.5294 386.5391 595.1879 385.8562 583.0651 382.2705 581.5284 383.295 581.0161 383.4658 580.3332 383.6365 579.4795 383.978 576.9183 383.1243 576.4061 383.1243 576.2353 382.7828 576.0646 378.6849 568.7226 371.1722 568.5519 371.343 568.3811 371.343 567.8689 371.343 566.1614 372.1967 563.771 372.1967 554.2094 367.2451 549.2578 362.2935 546.5259 361.7813 546.1844 361.6106 545.6722 361.4398 545.3307 361.2691 544.6477 361.2691 544.1355 361.4398 543.6233 361.6106 541.7451 362.4643 541.5744 362.635 541.4036 362.8058 541.4036 362.9765 541.2329 362.9765 540.7206 363.6595 539.6962 363.8302 533.8909 361.7813 533.3787 361.2691 533.3787 361.0983 533.3787 360.9276 533.3787 360.5861 533.3787 360.4154 533.3787 360.2446 533.3787 360.0739 533.2079 359.3909 533.5494 358.3664 533.8909 357.8542 534.0616 357.0005 534.4031 356.4883 534.7446 355.976 534.9154 355.6345 534.9154 355.4638 534.2324 355.1223 533.8909 355.1223 533.7202 354.9516 533.3787 354.7808 533.2079 354.7808 533.0372 354.7808 532.6957 354.7808 532.1835 354.7808 531.3297 354.0978 530.8175 354.4393 530.3053 354.2686 529.9638 354.0978 529.7931 354.0978 529.6223 354.0978 528.4271 353.9271 527.5734 353.4149 525.8659 353.4149 525.0122 353.9271 524.8415 353.9271 524.3293 354.0978 523.1341 354.6101 521.5974 355.1223 521.2559 355.1223 515.7921 359.3909 506.4012 364.684 503.84 365.0254 500.4251 368.6111 497.3518 368.2696 496.498 369.294 495.4736 369.8063 494.9614 370.1477 494.7906 370.3185 494.6199 370.3185 494.6199 370.1477 496.498 365.8792 496.498 365.7084 496.498 365.5377 496.1566 364.8547 495.9858 364.684 495.9858 364.3425 495.8151 363.8302 495.8151 363.6595 495.8151 363.4887 496.6688 362.1228 497.5225 361.4398 497.5225 361.2691 497.6932 360.9276 497.864 360.7568 497.864 360.4154 497.864 359.9031 497.6932 359.0494 497.181 357.8542 497.0103 357.5127 497.0103 357.1712 497.0103 356.659 497.181 356.3175 497.864 354.2686 497.864 354.0978 497.6932 353.9271 497.181 353.7564 496.498 353.4149 495.6443 352.0489 495.4736 351.8782 494.6199 351.3659 494.4491 351.1952 492.2295 345.3899 492.0587 343.1703 492.2295 341.6336 492.9124 339.4139 493.2539 338.2187 493.5954 337.365 493.7661 337.0235 494.4491 336.8527 494.7906 336.5113 495.4736 336.1698 495.6443 335.999 495.6443 335.8283 495.8151 335.6575 495.8151 335.1453 496.3273 328.9985 495.8151 328.3156 493.7661 326.7789 493.2539 325.7544 494.7906 322.5103 494.7906 322.3395 494.7906 320.8028 494.7906 320.6321 494.6199 320.6321 494.6199 320.4614 494.2784 320.2906 492.9124 319.9491 492.4002 319.6076 492.2295 319.4369 492.0587 319.2661 491.888 318.9247 491.7172 318.0709 491.7172 317.9002 491.888 313.9731 491.888 313.6316 492.0587 313.4609 492.0587 313.2901 493.2539 312.7779 493.4247 312.6071 494.1076 311.7534 494.4491 311.5827 495.4736 311.2412 495.6443 311.2412 496.1566 310.729 496.498 310.5582 496.6688 310.3875 496.6688 310.2167 496.3273 309.5338 496.1566 309.363 495.4736 309.0215 495.1321 308.8508 494.7906 308.68 494.6199 308.68 493.4247 308.8508 493.2539 308.5093 493.0832 307.6556 493.0832 307.4848 493.2539 307.3141 493.2539 307.1433 493.4247 306.9726 493.5954 306.9726 493.7661 306.8019 494.6199 306.4604 495.9858 305.9481 496.1566 305.7774 496.498 305.4359 496.498 305.0944 496.6688 304.7529 496.498 304.5822 496.1566 304.2407 494.7906 303.5577 490.3513 302.5333 489.4976 300.9966 488.4731 300.4843 488.1316 299.8014 488.1316 299.6306 488.1316 299.4599 488.1316 299.2891 488.3023 298.7769 488.4731 298.6062 488.9853 297.9232 491.888 293.1424 492.7417 292.6301 493.9369 292.2886 494.2784 292.1179 494.2784 291.9472 494.2784 291.7764 494.2784 291.6057 493.5954 290.752 493.5954 290.2397 493.0832 289.8982 493.0832 289.5568 493.0832 289.386 497.0103 286.3126 501.4496 284.2637 501.9618 283.5807 502.3033 282.727 502.4741 282.2148 502.8156 282.044 502.9863 281.8733 505.0352 281.8733 505.7182 282.044 506.0597 282.3855 507.7671 284.4344 508.4501 287.1663 509.4746 288.5323 510.1575 289.7275 510.3283 290.069 510.499 290.2397 511.182 290.4105 512.5479 291.0934 515.1091 292.4594 516.9873 291.9472 518.8655 292.2886 519.3777 292.2886 519.5484 292.1179 519.7192 292.1179 519.8899 291.9472 520.5729 290.4105 522.2803 289.8982 522.7926 289.0445 523.6463 288.703 523.9878 288.0201 524.1585 288.0201 524.3293 288.0201 524.3293 287.8493 524.5 287.8493 525.183 287.8493 525.6952 287.6786 526.3782 287.3371 526.7197 287.3371 528.4271 287.5078 529.6223 288.0201 529.9638 288.1908 529.9638 288.0201 531.3297 287.6786 531.842 287.5078 534.0616 285.1174 534.2324 284.9467 534.4031 284.9467 534.5739 284.9467 535.0861 284.9467 535.2568 284.7759 535.4276 284.6052 535.5983 283.7515 536.2813 283.41 537.6473 280.6781 537.6473 280.5073 538.1595 280.1659 538.3302 279.9951 538.3302 279.3121 538.501 278.9706 539.3547 277.9462 539.5254 277.6047 539.5254 277.2632 539.5254 277.0925 539.5254 276.751 539.3547 276.4095 539.3547 276.068 539.3547 275.8973 539.3547 275.7265 539.8669 274.8728 539.8669 274.5313 539.8669 274.3606 539.8669 274.1898 539.8669 273.3361 539.8669 272.9946 538.3302 269.0675 537.4765 267.8723 537.3058 267.5308 537.4765 266.8478 537.6473 266.6771 537.818 266.5064 538.501 266.6771 539.8669 267.0186 540.5499 265.4819 541.2329 265.1404 544.1355 264.4574 558.8195 269.7505 564.2833 265.3112 572.6497 264.4574 574.6986 259.6766 574.8694 259.6766 575.0401 259.5059 577.089 259.3351 578.1135 259.5059 579.138 258.9936 581.5284 254.8958 582.0406 255.2373 582.2114 255.408 582.7236 255.408 585.9677 255.0665 589.7241 257.6277 593.9927 269.5797 616.8723 252.8469 629.6781 261.5548 632.5807 259.1644 636.6786 268.3845 Z" id="BR.BA" fill="#cee3f5" stroke="#6e6e6e" stroke-width="0.4">
      <desc>
        <labelrank>2</labelrank>
        <code_hasc>BR.BA</code_hasc>
        <name>Bahia</name>
        <admin>Brazil</admin>
        <type_en>State</type_en>
        <region/>
        <woe_id>2344848</woe_id>
        <longitude>-41</longitude>
        <woe_name>Bahia</woe_name>
        <fips>BR05</fips>
        <woe_label>Bahia, BR, Brazil</woe_label>
        <latitude>-12</latitude>
        <iso_a2>BR</iso_a2>
        <postal>BA</postal>
        <type>Estado</type>
        <id>BR.BA</id>
      </desc>
    </path>
    <path d="M 592.7975 425.2979 601.5054 432.2984 597.5783 455.5196 575.3816 484.3752 563.0881 480.4481 561.0391 474.1306 560.6977 473.9599 560.6977 473.7891 560.8684 473.7891 560.8684 473.6184 561.0391 473.6184 561.0391 473.4477 561.5514 472.5939 562.0636 471.911 562.0636 471.7402 562.0636 471.5695 561.3806 471.5695 562.0636 470.2035 562.4051 469.862 562.5758 467.9839 562.0636 467.6424 561.8929 467.4716 561.8929 467.1301 561.7221 466.9594 561.7221 466.7886 561.7221 466.6179 561.7221 466.4472 561.8929 466.2764 562.0636 466.1057 562.0636 465.9349 563.0881 465.4227 563.2588 465.252 563.6003 464.3982 564.1125 464.0568 570.0886 464.2275 570.0886 464.0568 570.6008 463.0323 571.4545 459.9589 573.6742 458.4222 574.3571 454.8366 575.2109 454.3244 575.5523 453.8121 575.8938 453.8121 576.0646 453.6414 576.5768 453.1292 576.7476 452.9584 576.7476 452.7877 576.4061 452.1047 576.5768 451.7632 577.2598 452.1047 577.4305 452.1047 577.6013 451.934 577.772 451.7632 577.9428 451.7632 577.9428 451.5925 578.1135 451.4217 578.1135 451.251 578.1135 450.9095 578.1135 450.7387 578.1135 450.568 578.6257 449.5435 578.6257 449.3728 578.6257 448.8606 578.7965 448.3483 578.7965 448.1776 578.6257 447.8361 578.7965 446.8116 578.7965 446.1287 578.7965 445.6164 578.6257 445.6164 577.089 441.6893 576.4061 440.8356 575.2109 441.0064 574.8694 440.8356 574.6986 440.6649 574.5279 440.4941 574.3571 440.1526 574.1864 439.9819 574.1864 439.8112 574.1864 439.6404 574.1864 439.4697 574.3571 439.4697 574.5279 439.2989 574.8694 439.2989 575.3816 439.1282 576.4061 439.2989 576.4061 439.6404 576.5768 439.6404 578.9672 439.8112 579.3087 439.4697 579.4795 439.2989 579.6502 439.1282 579.6502 438.9574 579.4795 437.25 579.138 436.9085 578.2842 436.9085 578.1135 436.7378 577.9428 436.7378 577.9428 436.567 578.1135 435.3718 578.455 434.5181 578.6257 433.1522 578.6257 432.9814 578.6257 432.6399 578.6257 432.4692 578.455 432.2984 578.2842 432.1277 578.2842 431.9569 577.2598 431.1032 576.2353 431.6155 576.5768 430.9325 576.5768 430.591 576.5768 430.4203 576.4061 430.2495 576.4061 429.908 576.4061 429.7373 576.5768 429.7373 578.1135 427.8591 580.3332 426.6639 581.8699 427.6884 582.7236 427.8591 582.8943 427.6884 583.0651 427.6884 583.0651 427.1761 583.0651 426.8346 580.8454 423.932 582.8943 424.4442 588.5289 424.1027 588.6996 423.932 589.0411 423.0783 589.0411 423.4198 589.2118 423.4198 589.2118 423.5905 591.773 424.615 592.2852 424.9565 592.6267 425.1272 592.7975 425.2979 Z" id="BR.ES" fill="#cee3f5" stroke="#6e6e6e" stroke-width="0.4">
      <desc>
        <labelrank>2</labelrank>
        <code_hasc>BR.ES</code_hasc>
        <name>Espírito Santo</name>
        <admin>Brazil</admin>
        <type_en>State</type_en>
        <region/>
        <woe_id>2344851</woe_id>
        <longitude>-40</longitude>
        <woe_name>Espírito Santo</woe_name>
        <fips>BR08</fips>
        <woe_label>Espirito Santo, BR, Brazil</woe_label>
        <latitude>-19</latitude>
        <iso_a2>BR</iso_a2>
        <postal>ES</postal>
        <type>Estado</type>
        <id>BR.ES</id>
      </desc>
    </path>
    <path d="M 629.6781 236.4555 629.5073 236.2847 629.6781 235.9432 630.8733 234.748 631.044 233.5528 631.8977 233.0406 632.9222 230.8209 629.3366 223.479 633.4344 213.7466 640.4349 216.4785 647.4354 210.161 656.9971 207.9413 657.68 208.4535 657.68 209.6487 657.5093 209.9902 655.6311 212.2099 653.9237 214.0881 653.5822 214.6003 653.4114 215.7955 652.8992 216.82 652.387 217.1614 651.5333 217.5029 651.3625 217.8444 651.1918 218.8689 651.1918 219.2104 651.1918 219.7226 656.3141 222.6252 663.9976 221.7715 665.3635 225.8694 668.6076 224.1619 671.681 213.5758 696.9511 218.1859 699 237.3092 697.4633 237.8214 696.9511 237.4799 695.7559 236.9677 695.5851 236.2847 694.5607 235.0895 693.7069 234.748 692.8532 234.9188 691.4873 234.5773 691.1458 234.4066 688.7554 235.9432 686.8772 235.6018 685.5113 239.3581 670.1443 241.7485 660.0705 249.9442 656.9971 244.1389 655.8019 243.7975 653.9237 244.4804 653.5822 244.4804 653.4114 244.3097 653.4114 244.1389 653.5822 243.7975 654.6067 243.1145 655.6311 241.2363 656.6556 240.7241 656.6556 240.5533 656.8263 240.3826 656.8263 240.2118 656.8263 240.0411 656.8263 239.6996 656.4848 239.1874 655.9726 237.9922 655.9726 237.8214 656.1433 237.4799 656.1433 236.9677 656.4848 236.6262 659.729 235.6018 660.0705 235.2603 660.0705 235.0895 660.0705 234.9188 659.729 234.2358 659.5582 233.3821 655.6311 230.9917 651.5333 232.5284 650.1673 234.5773 642.6546 239.6996 640.4349 240.5533 639.4105 239.5289 638.5568 240.5533 638.2153 240.5533 637.8738 240.3826 637.703 240.8948 637.703 241.0656 637.5323 241.0656 637.3615 241.0656 636.6786 240.7241 635.8249 238.1629 634.6296 239.0166 632.5807 239.3581 629.6781 236.4555 Z" id="BR.PB" fill="#cee3f5" stroke="#6e6e6e" stroke-width="0.4">
      <desc>
        <labelrank>2</labelrank>
        <code_hasc>BR.PB</code_hasc>
        <name>Paraíba</name>
        <admin>Brazil</admin>
        <type_en>State</type_en>
        <region/>
        <woe_id>2344858</woe_id>
        <longitude>-36</longitude>
        <woe_name>Paraíba</woe_name>
        <fips>BR17</fips>
        <woe_label>Paraiba, BR, Brazil</woe_label>
        <latitude>-7</latitude>
        <iso_a2>BR</iso_a2>
        <postal>PB</postal>
        <type>Estado</type>
        <id>BR.PB</id>
      </desc>
    </path>
    <path d="M 519.0362 513.5724 521.0851 514.7676 516.9873 515.4506 519.0362 513.5724 Z M 575.3816 484.3752 574.1864 497.3518 556.7705 505.8889 555.4046 514.0846 538.6717 512.5479 538.3302 506.9134 534.9154 508.1086 536.2813 512.3772 529.7931 513.5724 522.4511 513.5724 529.1101 512.5479 525.183 510.1575 519.5484 512.5479 515.9628 510.3283 510.8405 513.0602 513.9139 516.6458 510.1575 517.4995 509.4746 510.6698 520.2314 505.8889 512.7187 504.0108 509.4746 500.2544 516.3043 497.864 516.475 497.864 516.6458 498.0347 516.8165 498.0347 518.6947 497.864 519.5484 498.2055 527.4026 495.1321 537.9887 496.498 538.1595 496.498 538.501 496.1566 538.6717 496.1566 539.3547 496.1566 540.2084 495.1321 552.1605 491.0342 552.8434 490.6928 553.0142 490.1805 553.1849 490.0098 553.1849 489.839 553.0142 489.6683 553.0142 489.4976 552.6727 489.3268 551.9897 489.3268 551.819 489.1561 551.4775 489.1561 551.3068 488.9853 551.4775 488.8146 551.4775 488.3023 553.1849 484.7167 553.3557 484.546 554.2094 483.863 556.7705 478.0577 556.2583 477.0333 557.112 476.521 557.4535 476.6918 557.795 476.6918 557.9658 476.521 558.1365 476.521 558.478 476.8625 558.9902 476.6918 559.161 476.521 559.5024 475.8381 559.8439 475.3258 559.8439 475.1551 559.8439 474.9843 560.0147 474.6429 560.6977 474.4721 560.8684 474.4721 561.0391 474.1306 563.0881 480.4481 575.3816 484.3752 Z" id="BR.RJ" fill="#cee3f5" stroke="#6e6e6e" stroke-width="0.4">
      <desc>
        <labelrank>2</labelrank>
        <code_hasc>BR.RJ</code_hasc>
        <name>Rio de Janeiro</name>
        <admin>Brazil</admin>
        <type_en>State</type_en>
        <region/>
        <woe_id>2344862</woe_id>
        <longitude>-43</longitude>
        <woe_name>Rio de Janeiro</woe_name>
        <fips>BR21</fips>
        <woe_label>Rio de Janeiro, BR, Brazil</woe_label>
        <latitude>-22</latitude>
        <iso_a2>BR</iso_a2>
        <postal>RJ</postal>
        <type>Estado</type>
        <id>BR.RJ</id>
      </desc>
    </path>
    <path d="M 696.9511 218.1859 671.681 213.5758 668.6076 224.1619 665.3635 225.8694 663.9976 221.7715 656.3141 222.6252 655.2896 220.5763 651.1918 219.7226 651.1918 219.2104 651.1918 218.8689 651.3625 217.8444 651.5333 217.5029 651.704 217.3322 652.387 217.1614 652.8992 216.82 653.4114 215.7955 653.5822 214.6003 653.9237 214.0881 655.6311 212.2099 656.8263 210.5024 657.5093 209.9902 657.68 209.6487 657.68 208.4535 656.9971 207.9413 647.4354 210.161 640.4349 216.4785 633.9467 213.0636 633.7759 213.2343 633.4344 213.7466 633.093 214.0881 632.5807 214.0881 632.0685 213.9173 632.0685 213.7466 632.41 213.2343 632.41 213.0636 632.41 212.7221 632.41 212.2099 632.41 211.8684 632.41 211.6977 632.5807 211.5269 632.7515 211.3562 633.093 211.1854 633.093 211.0147 633.2637 210.8439 633.2637 210.5024 633.4344 210.3317 634.8004 208.2828 637.703 208.112 640.7764 204.6972 640.9472 203.8434 642.4839 199.7456 648.4599 189.6717 651.021 187.6228 651.8748 187.2813 657.3386 185.5739 658.1923 187.1106 669.4614 191.5499 688.0724 192.2329 696.9511 218.1859 Z" id="BR.RN" fill="#cee3f5" stroke="#6e6e6e" stroke-width="0.4">
      <desc>
        <labelrank>2</labelrank>
        <code_hasc>BR.RN</code_hasc>
        <name>Rio Grande do Norte</name>
        <admin>Brazil</admin>
        <type_en>State</type_en>
        <region/>
        <woe_id>2344863</woe_id>
        <longitude>-36</longitude>
        <woe_name>Rio Grande do Norte</woe_name>
        <fips>BR22</fips>
        <woe_label>Rio Grande do Norte, BR, Brazil</woe_label>
        <latitude>-5</latitude>
        <iso_a2>BR</iso_a2>
        <postal>RN</postal>
        <type>Estado</type>
        <id>BR.RN</id>
      </desc>
    </path>
    <path d="M 667.9247 291.7764 658.8752 296.3865 654.2652 302.704 652.0455 300.6551 654.0944 303.7285 650.6795 307.9971 650.6795 303.5577 648.2891 306.6311 649.4843 308.1678 648.8014 309.1923 647.7769 309.5338 647.9477 309.5338 646.7524 309.8752 646.2402 309.8752 645.2158 309.5338 644.5328 310.3875 642.3131 309.363 638.8982 306.4604 638.8982 306.2896 638.8982 306.1189 638.8982 305.9481 638.8982 305.7774 639.069 305.4359 639.069 305.0944 639.4105 304.5822 639.4105 304.2407 639.4105 303.8992 639.2397 303.5577 638.0445 302.5333 637.3615 299.9721 636.1663 298.9477 635.9956 298.2647 635.3126 297.411 635.1419 297.0695 635.1419 296.8987 635.1419 296.3865 635.1419 296.2158 635.1419 296.045 635.6541 295.0205 635.8249 294.5083 636.1663 293.9961 639.5812 295.0205 641.8009 294.3376 642.8253 293.6546 643.3376 293.3131 643.3376 293.1424 643.5083 292.8009 643.5083 292.6301 643.3376 292.4594 643.3376 292.2886 642.9961 292.1179 642.8253 291.7764 642.6546 289.0445 642.8253 288.8738 642.8253 288.5323 643.5083 287.6786 643.8498 286.8249 644.0205 285.1174 644.0205 284.2637 644.1913 283.2392 644.1913 283.0685 640.9472 278.6292 639.9227 276.2387 639.9227 276.068 639.9227 275.8973 640.0934 275.7265 640.2642 275.5558 640.4349 274.8728 640.6057 274.7021 640.6057 274.5313 640.6057 274.3606 640.4349 274.3606 640.0934 274.1898 639.752 274.0191 639.752 273.8483 639.752 273.6776 639.9227 273.5068 639.9227 273.3361 640.0934 272.9946 640.2642 272.6531 640.4349 272.4824 640.6057 272.3116 658.1923 281.3611 667.9247 291.7764 Z" id="BR.SE" fill="#cee3f5" stroke="#6e6e6e" stroke-width="0.4">
      <desc>
        <labelrank>2</labelrank>
        <code_hasc>BR.SE</code_hasc>
        <name>Sergipe</name>
        <admin>Brazil</admin>
        <type_en>State</type_en>
        <region/>
        <woe_id>2344869</woe_id>
        <longitude>-37</longitude>
        <woe_name>Sergipe</woe_name>
        <fips>BR28</fips>
        <woe_label>Sergipe, BR, Brazil</woe_label>
        <latitude>-10</latitude>
        <iso_a2>BR</iso_a2>
        <postal>SE</postal>
        <type>Estado</type>
        <id>BR.SE</id>
      </desc>
    </path>
    <path d="M 269.9212 91.6649 253.7006 91.6649 248.749 92.0064 242.6023 104.1292 243.9682 108.0563 236.4555 110.9589 232.8699 105.6659 227.7476 104.6414 222.113 108.91 220.9178 121.2035 216.137 120.6913 204.6972 109.7637 208.2828 106.6903 203.1605 95.9335 205.7216 81.2495 199.5749 66.7363 201.2823 61.1018 188.9887 55.2965 188.9887 52.0523 177.0367 51.0279 174.4755 30.5386 164.0602 17.9036 175.6707 21.3185 177.5489 25.4163 189.8425 24.2211 198.0382 31.3924 200.2578 23.1967 222.113 19.2696 237.8214 9.1957 236.797 2.3659 247.7246 1.683 250.2857 5.0978 247.0416 14.4887 255.5788 17.2206 258.3107 25.0749 252.3346 31.5631 249.7735 47.7838 255.408 64.1751 268.0431 72.2001 269.9212 91.6649 Z" id="BR.RR" fill="#cee3f5" stroke="#6e6e6e" stroke-width="0.4">
      <desc>
        <labelrank>2</labelrank>
        <code_hasc>BR.RR</code_hasc>
        <name>Roraima</name>
        <admin>Brazil</admin>
        <type_en>State</type_en>
        <region/>
        <woe_id>2344866</woe_id>
        <longitude>-61</longitude>
        <woe_name>Roraima</woe_name>
        <fips>BR25</fips>
        <woe_label>Roraima, BR, Brazil</woe_label>
        <latitude>1</latitude>
        <iso_a2>BR</iso_a2>
        <postal>RR</postal>
        <type>Estado</type>
        <id>BR.RR</id>
      </desc>
    </path>
    <path d="M 421.8831 58.0284 421.5416 62.4677 419.6634 59.9066 421.8831 58.0284 Z M 394.9056 116.4227 388.4173 116.0812 383.978 111.3004 367.5866 73.3953 350.8537 64.3459 344.1947 64.1751 343.5117 51.8816 354.9516 58.0284 361.6106 53.4183 376.8068 56.6624 400.5401 20.1233 403.272 25.5871 401.2231 16.8792 405.6624 19.7818 407.8821 30.5386 409.5895 26.4408 410.7847 41.4662 416.9315 57.0039 415.2241 58.7114 417.956 58.1991 420.6879 63.3214 430.0788 65.0289 431.274 72.3708 426.4932 73.9075 431.1032 74.7613 415.0533 92.6893 405.3209 97.1287 394.9056 116.4227 Z" id="BR.AP" fill="#cee3f5" stroke="#6e6e6e" stroke-width="0.4">
      <desc>
        <labelrank>2</labelrank>
        <code_hasc>BR.AP</code_hasc>
        <name>Amapá</name>
        <admin>Brazil</admin>
        <type_en>State</type_en>
        <region/>
        <woe_id>2344846</woe_id>
        <longitude>-51</longitude>
        <woe_name>Amapá</woe_name>
        <fips>BR03</fips>
        <woe_label>Amapa, BR, Brazil</woe_label>
        <latitude>1</latitude>
        <iso_a2>BR</iso_a2>
        <postal>AP</postal>
        <type>Estado</type>
        <id>BR.AP</id>
      </desc>
    </path>
  </g>
</svg>