<?xml version="1.0" encoding="UTF-8"?>
<svg xmlns="http://www.w3.org/2000/svg" width="700" height="700">
  <g id="laos">
    <path d="M 144.5072 177.7366 145.2375 191.7952 142.3162 195.6293 137.3866 196.3597 132.8221 193.0732 129.9009 193.4384 121.5022 202.5674 106.3482 205.4886 107.8088 212.4266 100.5056 216.8085 91.1941 218.9995 80.4219 217.904 86.447 211.1486 91.3767 196.1771 91.9244 187.961 90.4638 189.4217 85.3516 185.9527 76.7703 169.5205 74.0317 168.6076 68.7369 170.616 66.3633 175.3631 63.0769 177.0063 61.7988 181.2056 57.9647 179.1972 57.7821 172.2592 64.1724 150.1671 72.3884 139.0298 79.509 133.9176 92.4721 135.926 97.9495 133.3699 106.1656 140.1253 111.4604 148.3414 114.0165 153.8187 114.3816 161.4871 122.5977 162.0348 124.6061 163.678 127.5273 169.1554 127.5273 173.9024 130.266 176.4585 136.6563 178.2843 144.5072 177.7366 Z" id="LA.BK" fill="#cee3f5" stroke="#6e6e6e" stroke-width="0.4">
      <desc>
        <labelrank>6</labelrank>
        <code_hasc>LA.BK</code_hasc>
        <name>Bokeo</name>
        <admin>Laos</admin>
        <type_en>Province</type_en>
        <region/>
        <woe_id>20070156</woe_id>
        <longitude>100</longitude>
        <woe_name>Bokeo</woe_name>
        <fips>LA22</fips>
        <woe_label>Bokeo, LA, Laos</woe_label>
        <latitude>20</latitude>
        <iso_a2>LA</iso_a2>
        <postal>BK</postal>
        <type>Khoueng</type>
        <id>LA.BK</id>
      </desc>
    </path>
    <path d="M 187.2307 109.452 185.7701 120.0416 175.5456 127.3448 175.7282 132.8221 168.2425 133.9176 158.9309 143.7769 166.2341 146.333 170.4334 151.9929 170.7986 158.3832 168.6076 164.7735 161.8522 174.2676 155.8271 177.0063 144.5072 177.7366 136.6563 178.2843 130.266 176.4585 127.5273 173.9024 127.5273 169.1554 124.6061 163.678 122.5977 162.0348 114.3816 161.4871 114.0165 153.8187 111.4604 148.3414 106.1656 140.1253 97.9495 133.3699 101.4185 130.0834 91.0115 129.3531 92.2896 122.7803 94.4805 120.9545 93.5676 118.0332 100.8708 114.7468 104.8875 107.6262 107.9914 95.3934 113.1036 96.6715 117.6681 95.3934 141.4033 79.3264 141.5859 76.5878 143.5943 78.0484 142.1337 88.8206 146.8807 92.107 144.6898 95.9411 144.6898 101.6011 148.5239 107.0785 168.2425 102.3314 173.1721 103.9746 172.9895 107.9914 178.6495 106.8959 182.3011 111.4604 187.2307 109.452 Z" id="LA.LM" fill="#cee3f5" stroke="#6e6e6e" stroke-width="0.4">
      <desc>
        <labelrank>7</labelrank>
        <code_hasc>LA.LM</code_hasc>
        <name>Louang Namtha</name>
        <admin>Laos</admin>
        <type_en>Province</type_en>
        <region/>
        <woe_id>2346003</woe_id>
        <longitude>101</longitude>
        <woe_name>Louang Namtha</woe_name>
        <fips>LA16</fips>
        <woe_label>Louang Namtha Province, LA, Laos</woe_label>
        <latitude>20</latitude>
        <iso_a2>LA</iso_a2>
        <postal>LM</postal>
        <type>Khoueng</type>
        <id>LA.LM</id>
      </desc>
    </path>
    <path d="M 187.0481 280.8938 186.3178 294.2221 190.6997 301.8904 186.5004 315.5838 180.1101 326.356 173.3547 328.7295 165.6864 339.3191 160.3916 341.8752 154.1839 350.8216 156.3748 364.515 155.4619 371.2705 157.8355 375.6524 162.0348 376.9304 165.3212 375.8349 164.7735 380.9472 165.5038 382.5904 158.5658 388.4329 157.4703 385.8768 152.3581 387.52 153.6361 388.6155 151.9929 391.1716 141.2208 398.4748 131.9092 408.8818 120.4067 401.5786 112.921 399.3877 118.581 389.1632 122.4151 374.1917 135.5608 360.8635 133.9176 355.0209 135.5608 349.361 133.0047 345.1617 135.1957 338.954 129.7183 335.485 125.7015 330.1902 129.5357 323.6173 135.5608 319.9657 136.1086 316.4967 141.9511 311.7497 139.9427 305.9071 141.5859 294.2221 149.6194 282.537 142.864 273.5906 141.4033 257.5237 138.4821 253.3244 140.1253 247.2992 144.6898 244.0128 145.0549 239.6309 141.5859 236.1619 135.0131 237.9877 125.7015 234.1535 116.39 233.6058 106.3482 244.0128 97.2192 238.9006 91.9244 242.5522 88.4554 242.0044 83.8909 239.0832 80.7871 231.0497 78.0484 221.9207 80.4219 217.904 91.1941 218.9995 100.5056 216.8085 107.8088 212.4266 111.0952 210.7834 120.5893 212.6092 126.797 215.8956 127.7099 214.2524 129.3531 215.5305 136.1086 211.6963 145.7852 217.3563 168.9728 217.7214 171.8941 217.1737 172.6244 214.6176 180.4753 209.3228 185.4049 215.7131 183.214 229.5891 183.9443 231.5974 189.0565 232.3278 188.5088 247.1167 195.0816 252.4115 188.5088 262.2707 187.0481 280.8938 Z" id="LA.XA" fill="#cee3f5" stroke="#6e6e6e" stroke-width="0.4">
      <desc>
        <labelrank>6</labelrank>
        <code_hasc>LA.XA</code_hasc>
        <name>Xaignabouri</name>
        <admin>Laos</admin>
        <type_en>Province</type_en>
        <region/>
        <woe_id>2346010</woe_id>
        <longitude>101</longitude>
        <woe_name>Xaignabouri</woe_name>
        <fips>LA13</fips>
        <woe_label>Xiagnabouli, LA, Laos</woe_label>
        <latitude>17</latitude>
        <iso_a2>LA</iso_a2>
        <postal>XA</postal>
        <type>Khoueng</type>
        <id>LA.XA</id>
      </desc>
    </path>
    <path d="M 541.0691 578.6804 545.0858 580.141 548.7374 584.7055 556.0405 586.5313 564.2566 592.9215 565.7172 599.677 568.6385 601.6853 571.7423 600.7724 575.7591 605.5195 576.672 609.5362 575.2114 616.1091 576.4894 619.3955 571.5598 620.1258 566.4476 628.3419 560.2399 629.8025 551.8412 627.0638 550.198 623.0471 551.4761 614.1007 549.8329 612.4575 545.9987 614.831 541.0691 610.6317 537.0523 611.7272 525.5498 625.238 527.0105 633.4541 532.853 638.0186 534.4962 644.5914 539.0607 649.3385 538.8781 655.7287 535.5917 655.9113 530.2969 652.4423 528.2885 659.7455 525.7324 662.3016 517.1512 662.119 515.1428 664.1274 510.0306 662.6668 513.1344 673.9867 518.2467 678.186 524.0892 687.8627 518.7944 693.8878 517.6989 699 504.3707 698.6348 495.4243 691.5143 491.9553 685.3066 481.9134 684.0285 475.3406 679.0989 468.7677 682.933 461.8297 684.0285 453.4311 677.6382 447.9537 668.8744 447.5885 664.4925 466.029 657.7371 473.1496 646.7824 471.689 628.707 474.4277 624.5077 473.8799 621.2213 476.436 619.2129 475.158 616.6568 479.905 612.0923 476.8012 610.9969 474.0625 606.0672 468.7677 603.6937 468.0374 600.5899 469.498 596.0254 477.5315 589.2699 477.3489 585.4358 471.1413 584.3403 471.3238 581.0539 479.7225 576.672 485.0173 574.2985 488.8514 575.5765 492.3204 574.1159 495.6069 576.3068 517.5163 573.9333 519.7073 577.7675 517.6989 581.7842 524.4544 587.8093 533.7659 580.6887 541.0691 578.6804 Z" id="LA.CH" fill="#cee3f5" stroke="#6e6e6e" stroke-width="0.4">
      <desc>
        <labelrank>7</labelrank>
        <code_hasc>LA.CH</code_hasc>
        <name>Champasak</name>
        <admin>Laos</admin>
        <type_en>Province</type_en>
        <region/>
        <woe_id>20070160</woe_id>
        <longitude>106</longitude>
        <woe_name>Champasak</woe_name>
        <fips>LA02</fips>
        <woe_label>Champasak, LA, Laos</woe_label>
        <latitude>14</latitude>
        <iso_a2>LA</iso_a2>
        <postal>CH</postal>
        <type>Khoueng</type>
        <id>LA.CH</id>
      </desc>
    </path>
    <path d="M 600.4073 514.5951 595.2951 523.3589 588.7222 526.4627 581.9668 527.3756 575.5765 525.7324 573.7507 530.2969 574.6636 532.853 562.796 548.0071 566.6301 552.9367 564.4392 555.6754 566.4476 560.4224 565.8998 565.5347 558.2315 567.9082 548.0071 568.0908 545.6335 571.1946 537.4175 570.2817 535.2265 573.203 536.6872 577.0371 541.0691 578.6804 533.7659 580.6887 524.4544 587.8093 517.6989 581.7842 519.7073 577.7675 517.5163 573.9333 495.6069 576.3068 492.3204 574.1159 488.8514 575.5765 485.0173 574.2985 479.7225 576.672 484.2869 559.8747 483.3741 556.0405 477.7141 550.5632 468.22 549.4677 465.4813 546.5464 461.4646 533.9485 466.2116 529.9317 472.4193 530.4795 495.0591 539.6084 503.2752 539.9736 510.2132 533.5833 516.9686 534.131 522.446 530.8446 520.9854 518.6118 524.2718 515.8731 531.0272 516.6035 535.2265 521.8982 536.1394 518.6118 541.7994 518.977 553.3019 514.7777 557.136 515.8731 560.7876 514.2299 563.3437 503.8229 568.6385 503.8229 573.3856 499.9888 572.6552 495.6069 570.0991 495.0591 575.5765 486.6605 577.5849 486.8431 578.8629 488.8514 578.3152 496.1546 579.9584 495.7894 587.079 505.2835 593.8344 505.6487 598.2163 507.8397 600.4073 514.5951 Z" id="LA.SL" fill="#cee3f5" stroke="#6e6e6e" stroke-width="0.4">
      <desc>
        <labelrank>7</labelrank>
        <code_hasc>LA.SL</code_hasc>
        <name>Saravan</name>
        <admin>Laos</admin>
        <type_en>Province</type_en>
        <region/>
        <woe_id>20070157</woe_id>
        <longitude>106</longitude>
        <woe_name>Saravan</woe_name>
        <fips>LA19</fips>
        <woe_label>Salavan, LA, Laos</woe_label>
        <latitude>15</latitude>
        <iso_a2>LA</iso_a2>
        <postal>SL</postal>
        <type>Khoueng</type>
        <id>LA.SL</id>
      </desc>
    </path>
    <path d="M 542.7123 447.7711 543.9903 449.7795 549.8329 451.7879 552.0238 449.7795 553.4844 476.436 556.0405 480.0876 561.3353 482.2786 561.5179 488.4863 563.8914 493.7811 568.0908 495.972 570.0991 495.0591 572.6552 495.6069 573.3856 499.9888 568.6385 503.8229 563.3437 503.8229 560.7876 514.2299 557.136 515.8731 553.3019 514.7777 541.7994 518.977 536.1394 518.6118 535.2265 521.8982 531.0272 516.6035 524.2718 515.8731 520.9854 518.6118 522.446 530.8446 516.9686 534.131 510.2132 533.5833 503.2752 539.9736 495.0591 539.6084 472.4193 530.4795 466.2116 529.9317 437.7293 520.6202 434.2603 508.0222 425.8616 501.8145 421.8449 493.5985 414.7243 488.8514 413.4462 484.1044 415.8198 473.3322 413.2637 453.9788 415.6372 456.3523 420.0191 456.9001 420.0191 450.1447 418.5585 448.684 417.0978 449.7795 420.5668 443.0241 435.5383 441.3809 439.9202 443.2066 445.9453 440.2854 450.875 444.8499 457.0827 445.0324 462.1949 441.3809 470.9587 441.1983 482.4612 445.7628 484.1044 440.2854 487.0256 439.7376 502.3623 445.0324 510.5783 445.5802 518.4292 444.3021 520.9854 440.2854 531.0272 446.3105 542.7123 447.7711 Z" id="LA.SV" fill="#cee3f5" stroke="#6e6e6e" stroke-width="0.4">
      <desc>
        <labelrank>6</labelrank>
        <code_hasc>LA.SV</code_hasc>
        <name>Savannakhét</name>
        <admin>Laos</admin>
        <type_en>Province</type_en>
        <region/>
        <woe_id>2346008</woe_id>
        <longitude>105</longitude>
        <woe_name>Savannakhét</woe_name>
        <fips>LA20</fips>
        <woe_label>Savannahkhet, LA, Laos</woe_label>
        <latitude>16</latitude>
        <iso_a2>LA</iso_a2>
        <postal>SV</postal>
        <type>Khoueng</type>
        <id>LA.SV</id>
      </desc>
    </path>
    <path d="M 270.6694 343.5184 277.79 346.9874 278.5203 357.2119 280.8938 357.2119 283.4499 353.9255 284.9105 356.299 283.2673 358.3074 283.6325 364.515 280.8938 368.1666 274.5035 366.3408 266.47 369.6273 252.4115 378.0259 253.1418 382.5904 246.3863 380.0343 246.7515 370.7227 234.8839 368.7144 228.8587 363.6021 224.1117 362.5067 212.4266 349.5436 206.7667 349.1784 204.9409 350.8216 203.6628 344.7965 204.7583 332.5637 208.775 334.2069 214.435 331.2856 216.8085 331.4682 223.0162 339.5017 238.5354 342.7881 242.0044 344.9791 242.3696 347.7178 248.5773 348.8132 252.2289 345.7094 260.2624 343.3359 266.6526 342.2404 270.6694 343.5184 Z" id="LA.VT" fill="#cee3f5" stroke="#6e6e6e" stroke-width="0.4">
      <desc>
        <labelrank>6</labelrank>
        <code_hasc>LA.VT</code_hasc>
        <name>Vientiane [prefecture]</name>
        <admin>Laos</admin>
        <type_en>Municipality|Prefecture</type_en>
        <region/>
        <woe_id>20070162</woe_id>
        <longitude>102</longitude>
        <woe_name>Vientiane [prefecture]</woe_name>
        <fips>LA00</fips>
        <woe_label>Viangchan, LA, Laos</woe_label>
        <latitude>18</latitude>
        <iso_a2>LA</iso_a2>
        <postal>VT</postal>
        <type>Kampeng Nakhon</type>
        <id>LA.VT</id>
      </desc>
    </path>
    <path d="M 259.532 260.6275 271.7648 269.7565 282.1719 271.3997 286.006 274.321 299.3343 276.6945 305.9071 274.8687 312.6626 276.6945 314.4884 274.321 318.1399 274.5035 323.7999 279.7983 345.3442 284.3628 347.17 286.1886 347.17 296.9608 338.5888 300.7949 322.887 290.7531 316.1316 292.3963 318.6877 299.6995 315.949 302.2556 317.0445 313.5755 312.2974 319.9657 300.7949 324.3476 264.6443 325.8083 270.6694 335.485 270.6694 343.5184 266.6526 342.2404 260.2624 343.3359 252.2289 345.7094 248.5773 348.8132 242.3696 347.7178 242.0044 344.9791 238.5354 342.7881 223.0162 339.5017 216.8085 331.4682 214.435 331.2856 208.775 334.2069 204.7583 332.5637 203.6628 344.7965 204.9409 350.8216 192.8907 363.237 184.1269 360.1331 179.1972 373.0963 171.8941 374.3743 168.9728 377.6607 167.3296 376.5653 164.7735 380.9472 165.3212 375.8349 162.0348 376.9304 157.8355 375.6524 155.4619 371.2705 156.3748 364.515 154.1839 350.8216 160.3916 341.8752 165.6864 339.3191 173.3547 328.7295 180.1101 326.356 186.5004 315.5838 190.6997 301.8904 186.3178 294.2221 187.0481 280.8938 198.5506 272.6777 201.837 264.6443 208.4099 259.1669 209.6879 254.0547 212.0615 252.7766 216.8085 252.2289 225.9375 256.2456 230.6845 254.0547 237.6225 255.8805 236.5271 258.6191 239.6309 259.7146 246.3863 267.7481 256.2456 263.9139 259.532 260.6275 Z" id="LA.VI" fill="#cee3f5" stroke="#6e6e6e" stroke-width="0.4">
      <desc>
        <labelrank>6</labelrank>
        <code_hasc>LA.VI</code_hasc>
        <name>Vientiane</name>
        <admin>Laos</admin>
        <type_en>Province</type_en>
        <region/>
        <woe_id>20070164</woe_id>
        <longitude>102</longitude>
        <woe_name>Vientiane</woe_name>
        <fips>LA27</fips>
        <woe_label>Viangchan, LA, Laos</woe_label>
        <latitude>18</latitude>
        <iso_a2>LA</iso_a2>
        <postal>VI</postal>
        <type>Khoueng</type>
        <id>LA.VI</id>
      </desc>
    </path>
    <path d="M 371.6356 230.3194 366.706 231.2323 363.0544 234.1535 356.299 231.78 357.577 238.3529 361.7764 241.6393 363.0544 247.847 360.8635 248.7599 359.0377 253.5069 352.4648 255.3327 344.4313 262.6359 347.9003 263.001 353.9255 268.661 358.8551 268.2958 367.4363 272.13 371.2705 275.0513 372.1834 278.8854 376.0175 278.7029 375.4698 288.3795 365.2454 301.1601 358.8551 302.2556 347.17 296.9608 347.17 286.1886 345.3442 284.3628 323.7999 279.7983 318.1399 274.5035 314.4884 274.321 312.6626 276.6945 305.9071 274.8687 299.3343 276.6945 286.006 274.321 282.1719 271.3997 271.7648 269.7565 259.532 260.6275 258.0714 255.8805 254.0547 251.6811 254.0547 243.2825 268.4784 231.2323 269.2087 227.7633 275.2338 227.3981 275.9642 219.9124 283.9976 215.5305 287.8318 215.3479 290.3879 212.244 297.3259 210.966 300.7949 213.8873 304.6291 212.4266 315.7664 216.2608 326.356 212.7918 327.9992 210.6008 332.3811 211.3312 333.1114 206.4015 336.5804 203.6628 340.7798 203.4803 347.9003 209.8705 346.8049 218.2692 352.6474 223.564 359.2202 221.7382 362.6892 216.9911 365.2454 218.6343 369.8098 218.2692 372.1834 213.8873 370.7227 223.1988 371.6356 230.3194 Z" id="LA.XI" fill="#cee3f5" stroke="#6e6e6e" stroke-width="0.4">
      <desc>
        <labelrank>7</labelrank>
        <code_hasc>LA.XI</code_hasc>
        <name>Xiangkhoang</name>
        <admin>Laos</admin>
        <type_en>Province</type_en>
        <region/>
        <woe_id>2346011</woe_id>
        <longitude>103</longitude>
        <woe_name>Xiangkhoang</woe_name>
        <fips>LA14</fips>
        <woe_label>Xiangkhoang, LA, Laos</woe_label>
        <latitude>19</latitude>
        <iso_a2>LA</iso_a2>
        <postal>XI</postal>
        <type>Khoueng</type>
        <id>LA.XI</id>
      </desc>
    </path>
    <path d="M 371.6356 230.3194 370.7227 223.1988 372.1834 213.8873 369.8098 218.2692 365.2454 218.6343 362.6892 216.9911 359.2202 221.7382 352.6474 223.564 346.8049 218.2692 347.9003 209.8705 340.7798 203.4803 336.5804 203.6628 333.1114 206.4015 332.3811 211.3312 327.9992 210.6008 326.356 212.7918 315.7664 216.2608 304.6291 212.4266 300.7949 213.8873 297.3259 210.966 290.3879 212.244 290.5705 200.0112 292.7614 197.2726 288.7447 191.0649 298.0562 180.1101 298.9691 171.8941 296.2304 171.3463 293.8569 166.7818 296.7782 160.0264 296.7782 151.2626 297.6911 147.9762 310.289 141.0382 314.1232 139.395 317.9574 144.5072 324.5302 146.1504 332.7463 152.3581 334.9372 151.2626 334.3895 147.2459 338.4062 144.8724 340.5972 137.204 357.7596 132.2744 361.2286 128.0751 363.9673 127.8925 371.6356 130.6312 373.8266 133.5524 378.2085 133.735 386.4245 143.4117 391.3542 144.142 394.458 149.0717 403.7696 153.6361 398.1096 162.5825 394.6406 164.5909 390.6239 162.7651 384.2336 170.4334 389.711 172.6244 400.6657 172.4418 408.6992 178.4669 409.2469 181.7533 406.8734 183.3965 406.8734 188.8739 409.4295 190.152 419.2888 188.1436 426.0442 191.7952 425.8616 195.2642 430.4261 200.0112 428.7829 200.7416 429.3306 206.4015 423.4881 207.497 416.3675 213.5221 414.3591 216.8085 419.1062 218.4517 418.1933 223.0162 408.1515 228.4936 403.4044 237.9877 395.1883 238.1703 385.5116 231.5974 378.9388 233.971 373.8266 229.7716 371.6356 230.3194 Z" id="LA.HO" fill="#cee3f5" stroke="#6e6e6e" stroke-width="0.4">
      <desc>
        <labelrank>6</labelrank>
        <code_hasc>LA.HO</code_hasc>
        <name>Houaphan</name>
        <admin>Laos</admin>
        <type_en>Province</type_en>
        <region/>
        <woe_id>2346001</woe_id>
        <longitude>104</longitude>
        <woe_name>Houaphan</woe_name>
        <fips>LA03</fips>
        <woe_label>Houaphan, LA, Laos</woe_label>
        <latitude>20</latitude>
        <iso_a2>LA</iso_a2>
        <postal>HO</postal>
        <type>Khoueng</type>
        <id>LA.HO</id>
      </desc>
    </path>
    <path d="M 310.289 141.0382 297.6911 147.9762 296.7782 151.2626 296.7782 160.0264 293.8569 166.7818 296.2304 171.3463 298.9691 171.8941 298.0562 180.1101 288.7447 191.0649 292.7614 197.2726 290.5705 200.0112 290.3879 212.244 287.8318 215.3479 283.9976 215.5305 275.9642 219.9124 275.2338 227.3981 269.2087 227.7633 268.4784 231.2323 254.0547 243.2825 254.0547 251.6811 258.0714 255.8805 259.532 260.6275 256.2456 263.9139 246.3863 267.7481 239.6309 259.7146 236.5271 258.6191 237.6225 255.8805 230.6845 254.0547 225.9375 256.2456 216.8085 252.2289 212.0615 252.7766 209.6879 254.0547 208.4099 259.1669 201.837 264.6443 198.5506 272.6777 187.0481 280.8938 188.5088 262.2707 195.0816 252.4115 188.5088 247.1167 189.0565 232.3278 183.9443 231.5974 183.214 229.5891 185.4049 215.7131 180.4753 209.3228 192.7081 207.3144 201.2893 199.6461 206.7667 199.8287 214.8002 196.7248 218.2692 192.5255 218.8169 189.7868 215.5305 184.1269 216.8085 178.2843 214.6176 170.9812 222.1033 153.271 227.2155 152.5407 231.2323 145.9678 229.9542 138.8472 231.2323 133.9176 228.1284 126.2493 237.8051 129.9009 239.0832 132.457 243.2825 134.1002 249.3076 127.8925 253.8721 127.8925 255.1501 125.519 264.6443 121.3196 266.8352 112.5558 275.2338 112.5558 277.2422 118.3984 281.9893 120.7719 290.5705 135.926 307.0026 141.4033 310.289 141.0382 Z" id="LA.LP" fill="#cee3f5" stroke="#6e6e6e" stroke-width="0.4">
      <desc>
        <labelrank>7</labelrank>
        <code_hasc>LA.LP</code_hasc>
        <name>Louangphrabang</name>
        <admin>Laos</admin>
        <type_en>Province</type_en>
        <region/>
        <woe_id>2346004</woe_id>
        <longitude>102</longitude>
        <woe_name>Louangphrabang</woe_name>
        <fips>LA17</fips>
        <woe_label>Louangphabang, LA, Laos</woe_label>
        <latitude>20</latitude>
        <iso_a2>LA</iso_a2>
        <postal>LP</postal>
        <type>Khoueng</type>
        <id>LA.LP</id>
      </desc>
    </path>
    <path d="M 228.1284 126.2493 231.2323 133.9176 229.9542 138.8472 231.2323 145.9678 227.2155 152.5407 222.1033 153.271 214.6176 170.9812 216.8085 178.2843 215.5305 184.1269 218.8169 189.7868 218.2692 192.5255 214.8002 196.7248 206.7667 199.8287 201.2893 199.6461 192.7081 207.3144 180.4753 209.3228 172.6244 214.6176 171.8941 217.1737 168.9728 217.7214 145.7852 217.3563 136.1086 211.6963 129.3531 215.5305 127.7099 214.2524 126.797 215.8956 120.5893 212.6092 111.0952 210.7834 107.8088 212.4266 106.3482 205.4886 121.5022 202.5674 129.9009 193.4384 132.8221 193.0732 137.3866 196.3597 142.3162 195.6293 145.2375 191.7952 144.5072 177.7366 155.8271 177.0063 161.8522 174.2676 168.6076 164.7735 170.7986 158.3832 170.4334 151.9929 166.2341 146.333 158.9309 143.7769 168.2425 133.9176 175.7282 132.8221 175.5456 127.3448 185.7701 120.0416 187.2307 109.452 186.683 106.5307 191.2474 104.7049 199.4635 110.3649 207.6796 113.2862 215.8956 121.8674 221.0078 121.5022 228.1284 126.2493 Z" id="LA.OU" fill="#cee3f5" stroke="#6e6e6e" stroke-width="0.4">
      <desc>
        <labelrank>6</labelrank>
        <code_hasc>LA.OU</code_hasc>
        <name>Oudômxai</name>
        <admin>Laos</admin>
        <type_en>Province</type_en>
        <region/>
        <woe_id>2346005</woe_id>
        <longitude>101</longitude>
        <woe_name>Oudômxai</woe_name>
        <fips>LA07</fips>
        <woe_label>Oudomxai, LA, Laos</woe_label>
        <latitude>20</latitude>
        <iso_a2>LA</iso_a2>
        <postal>OU</postal>
        <type>Khoueng</type>
        <id>LA.OU</id>
      </desc>
    </path>
    <path d="M 275.2338 112.5558 266.8352 112.5558 264.6443 121.3196 255.1501 125.519 253.8721 127.8925 249.3076 127.8925 243.2825 134.1002 239.0832 132.457 237.8051 129.9009 228.1284 126.2493 221.0078 121.5022 215.8956 121.8674 207.6796 113.2862 199.4635 110.3649 191.2474 104.7049 190.6997 101.6011 183.3965 96.3063 186.3178 80.7871 185.4049 76.04 190.6997 73.3013 187.0481 69.8323 185.0398 64.1724 187.0481 56.1389 181.2056 46.8274 176.276 43.7235 172.6244 33.6817 173.1721 26.7437 169.8857 20.9011 172.6244 18.5276 176.4585 18.5276 180.8404 4.8342 187.4133 1 190.6997 3.0084 194.899 10.3115 196.7248 10.6767 200.0112 6.1122 207.8622 5.5645 214.0698 7.3903 222.1033 21.9966 235.7968 32.7688 238.1703 37.1507 242.7348 40.6197 242.187 45.7319 250.7682 50.4789 253.1418 56.5041 254.9676 70.3801 262.6359 68.5543 267.0178 55.9563 269.9391 66.7285 277.6074 64.1724 279.4332 77.3181 269.7565 89.3683 275.0513 87.5425 272.3126 92.4721 271.5823 99.2276 265.9223 103.2443 271.7648 104.7049 272.13 109.6346 275.2338 112.5558 Z" id="LA.PH" fill="#cee3f5" stroke="#6e6e6e" stroke-width="0.4">
      <desc>
        <labelrank>6</labelrank>
        <code_hasc>LA.PH</code_hasc>
        <name>Phôngsali</name>
        <admin>Laos</admin>
        <type_en>Province</type_en>
        <region/>
        <woe_id>2346006</woe_id>
        <longitude>102</longitude>
        <woe_name>Phôngsali</woe_name>
        <fips>LA18</fips>
        <woe_label>Phongsali, LA, Laos</woe_label>
        <latitude>21</latitude>
        <iso_a2>LA</iso_a2>
        <postal>PH</postal>
        <type>Khoueng</type>
        <id>LA.PH</id>
      </desc>
    </path>
    <path d="M 453.0659 348.2655 451.7879 353.9255 443.3892 368.8969 440.468 372.3659 436.2686 373.0963 427.5048 371.8182 420.0191 367.984 417.0978 362.1415 398.2922 349.5436 395.1883 352.0997 389.1632 353.1951 377.2956 379.3039 371.8182 367.4363 365.0628 360.3157 357.0293 343.8836 353.7429 341.1449 350.2739 341.5101 345.892 344.9791 340.232 340.5972 332.1985 339.3191 320.8786 334.2069 309.011 332.016 302.073 333.1114 296.413 338.7714 301.1601 344.2488 291.1182 347.3526 288.7447 353.9255 284.9105 356.299 283.4499 353.9255 280.8938 357.2119 278.5203 357.2119 277.79 346.9874 270.6694 343.5184 270.6694 335.485 264.6443 325.8083 300.7949 324.3476 312.2974 319.9657 317.0445 313.5755 315.949 302.2556 318.6877 299.6995 316.1316 292.3963 322.887 290.7531 338.5888 300.7949 347.17 296.9608 358.8551 302.2556 365.2454 301.1601 375.4698 288.3795 376.0175 278.7029 383.3207 283.2673 387.8852 288.5621 394.2754 289.6576 398.8399 295.5001 410.7076 303.7162 423.3055 305.1768 426.9571 308.6458 441.746 311.5671 446.1279 318.3225 441.9286 321.2438 439.3725 331.4682 445.7628 338.5888 445.9453 343.3359 453.0659 348.2655 Z" id="LA.BL" fill="#cee3f5" stroke="#6e6e6e" stroke-width="0.4">
      <desc>
        <labelrank>6</labelrank>
        <code_hasc>LA.BL</code_hasc>
        <name>Bolikhamxai</name>
        <admin>Laos</admin>
        <type_en>Province</type_en>
        <region/>
        <woe_id>20070163</woe_id>
        <longitude>104</longitude>
        <woe_name>Bolikhamxai</woe_name>
        <fips>LA00</fips>
        <woe_label>Bolikhamxai, LA, Laos</woe_label>
        <latitude>18</latitude>
        <iso_a2>LA</iso_a2>
        <postal>BL</postal>
        <type>Khoueng</type>
        <id>LA.BL</id>
      </desc>
    </path>
    <path d="M 542.7123 447.7711 531.0272 446.3105 520.9854 440.2854 518.4292 444.3021 510.5783 445.5802 502.3623 445.0324 487.0256 439.7376 484.1044 440.2854 482.4612 445.7628 470.9587 441.1983 462.1949 441.3809 457.0827 445.0324 450.875 444.8499 445.9453 440.2854 439.9202 443.2066 435.5383 441.3809 420.5668 443.0241 417.0978 449.7795 418.5585 448.684 420.0191 450.1447 420.0191 456.9001 415.6372 456.3523 413.2637 453.9788 413.2637 447.2234 418.741 433.53 419.1062 420.0191 416.9152 414.9069 409.9772 406.5082 392.8148 397.3793 382.773 382.773 377.2956 379.3039 389.1632 353.1951 395.1883 352.0997 398.2922 349.5436 417.0978 362.1415 420.0191 367.984 427.5048 371.8182 436.2686 373.0963 440.468 372.3659 443.3892 368.8969 451.7879 353.9255 453.0659 348.2655 455.8046 347.7178 456.7175 353.5603 461.6471 356.1164 464.9336 351.9171 469.3155 353.5603 470.0458 357.9422 480.0876 371.0879 480.0876 380.0343 489.3992 394.6406 496.8849 398.8399 512.4041 417.0978 525.3673 428.2352 528.2885 429.1481 531.2098 425.4965 533.2182 425.8616 534.8614 434.6254 541.0691 442.1112 542.7123 447.7711 Z" id="LA.KH" fill="#cee3f5" stroke="#6e6e6e" stroke-width="0.4">
      <desc>
        <labelrank>7</labelrank>
        <code_hasc>LA.KH</code_hasc>
        <name>Khammouan</name>
        <admin>Laos</admin>
        <type_en>Province</type_en>
        <region>Northeastern</region>
        <woe_id>20070161</woe_id>
        <longitude>105</longitude>
        <woe_name>Khammouan</woe_name>
        <fips>LA15</fips>
        <woe_label>Khammouan, LA, Laos</woe_label>
        <latitude>17</latitude>
        <iso_a2>LA</iso_a2>
        <postal>KH</postal>
        <type>Khoueng</type>
        <id>LA.KH</id>
      </desc>
    </path>
    <path d="M 630.3502 606.7975 625.7858 608.2582 626.5161 613.0052 634.7321 619.3955 629.6199 626.1509 631.9935 634.1844 626.6987 640.2095 623.7774 647.5127 613.7355 643.1308 609.5362 647.5127 608.4408 651.3468 605.3369 651.5294 599.1292 658.65 597.3034 659.1978 593.2867 656.4591 586.8964 665.588 582.1494 664.6751 578.1326 667.0487 574.8462 665.7706 567.9082 657.1894 554.9451 650.6165 552.5715 644.2263 549.2851 646.4172 550.3806 649.7036 546.5464 649.7036 547.2767 651.712 545.2684 654.2681 538.8781 655.7287 539.0607 649.3385 534.4962 644.5914 532.853 638.0186 527.0105 633.4541 525.5498 625.238 537.0523 611.7272 541.0691 610.6317 545.9987 614.831 549.8329 612.4575 551.4761 614.1007 550.198 623.0471 551.8412 627.0638 560.2399 629.8025 566.4476 628.3419 571.5598 620.1258 576.4894 619.3955 575.2114 616.1091 576.672 609.5362 575.7591 605.5195 571.7423 600.7724 568.6385 601.6853 565.7172 599.677 574.1159 590.1828 586.1661 592.1912 603.6937 588.1745 609.1711 590.0003 617.9349 597.1208 626.8812 595.6602 631.6283 603.5111 630.3502 606.7975 Z" id="LA.AT" fill="#cee3f5" stroke="#6e6e6e" stroke-width="0.4">
      <desc>
        <labelrank>7</labelrank>
        <code_hasc>LA.AT</code_hasc>
        <name>Attapu</name>
        <admin>Laos</admin>
        <type_en>Province</type_en>
        <region/>
        <woe_id>20070159</woe_id>
        <longitude>106</longitude>
        <woe_name>Attapu</woe_name>
        <fips>LA01</fips>
        <woe_label>Attapu, LA, Laos</woe_label>
        <latitude>14</latitude>
        <iso_a2>LA</iso_a2>
        <postal>AT</postal>
        <type>Khoueng</type>
        <id>LA.AT</id>
      </desc>
    </path>
    <path d="M 630.3502 606.7975 631.6283 603.5111 626.8812 595.6602 617.9349 597.1208 609.1711 590.0003 603.6937 588.1745 586.1661 592.1912 574.1159 590.1828 565.7172 599.677 564.2566 592.9215 556.0405 586.5313 548.7374 584.7055 545.0858 580.141 541.0691 578.6804 536.6872 577.0371 535.2265 573.203 537.4175 570.2817 545.6335 571.1946 548.0071 568.0908 558.2315 567.9082 565.8998 565.5347 566.4476 560.4224 564.4392 555.6754 566.6301 552.9367 562.796 548.0071 574.6636 532.853 573.7507 530.2969 575.5765 525.7324 581.9668 527.3756 588.7222 526.4627 595.2951 523.3589 600.4073 514.5951 608.6233 518.977 613.3704 524.2718 623.96 523.724 624.8729 528.4711 619.3955 535.9568 608.6233 541.2516 604.6066 540.8865 601.8679 547.8245 607.893 552.389 608.9885 558.2315 615.1962 562.796 619.3955 570.2817 625.238 569.0037 628.707 571.3772 629.2548 576.3068 635.4625 576.8546 636.5579 582.3319 642.2179 587.2616 642.2179 593.4693 640.0269 594.1996 639.114 599.3118 636.3754 602.4156 637.1057 605.5195 630.3502 606.7975 Z" id="LA.XE" fill="#cee3f5" stroke="#6e6e6e" stroke-width="0.4">
      <desc>
        <labelrank>6</labelrank>
        <code_hasc>LA.XE</code_hasc>
        <name>Xékong</name>
        <admin>Laos</admin>
        <type_en>Province</type_en>
        <region/>
        <woe_id>20070158</woe_id>
        <longitude>106</longitude>
        <woe_name>Xékong</woe_name>
        <fips>LA26</fips>
        <woe_label>Xekong, LA, Laos</woe_label>
        <latitude>15</latitude>
        <iso_a2>LA</iso_a2>
        <postal>XE</postal>
        <type>Khoueng</type>
        <id>LA.XE</id>
      </desc>
    </path>
  </g>
</svg>