<?xml version="1.0" encoding="UTF-8"?>
<svg xmlns="http://www.w3.org/2000/svg" width="700" height="700">
  <g id="syria">
    <path d="M 55.4641 221.7228 54.5086 224.5893 55.9418 225.5448 68.3634 225.5448 68.8412 227.4559 65.4969 230.3224 63.1081 232.7112 62.1526 237.4887 59.2861 240.833 61.6749 249.9103 58.8084 272.3648 63.1081 298.6413 57.8528 296.2526 54.9863 297.6858 39.2204 298.1636 29.6653 292.9083 28.232 289.0862 29.6653 284.7864 28.7098 272.8426 18.6769 260.4209 13.8994 260.8987 14.8549 256.5989 10.5551 253.7324 11.0329 250.8658 9.1218 251.8214 14.8549 247.0438 14.3771 239.8775 17.7214 238.4442 22.0212 230.3224 21.5435 224.5893 18.1992 216.9452 25.8433 216.9452 30.1431 208.3457 37.3094 207.3901 39.6982 215.0342 44.4757 215.512 53.553 221.7228 55.4641 221.7228 Z" id="SY.LA" fill="#cee3f5" stroke="#6e6e6e" stroke-width="0.4">
      <desc>
        <labelrank>6</labelrank>
        <code_hasc>SY.LA</code_hasc>
        <name>Lattakia</name>
        <admin>Syria</admin>
        <type_en>Province</type_en>
        <region/>
        <woe_id>2347070</woe_id>
        <longitude>36</longitude>
        <woe_name>Lattakia (Al Ladhiqiyah)</woe_name>
        <fips>SY02</fips>
        <woe_label>Al Ladhiqiyah, SY, Syria</woe_label>
        <latitude>35</latitude>
        <iso_a2>SY</iso_a2>
        <postal>LA</postal>
        <type>Governorate|Muhafazah</type>
        <id>SY.LA</id>
      </desc>
    </path>
    <path d="M 63.1081 298.6413 63.1081 321.0958 60.2416 323.9624 50.2088 326.8289 50.6865 330.1732 63.1081 331.6064 64.5414 336.384 68.3634 340.206 65.0192 341.6393 64.0637 347.3723 54.5086 356.4497 46.8645 369.3491 46.3867 374.1266 38.2649 374.1266 31.0986 371.2601 27.7543 359.3162 27.2765 353.1054 21.5435 335.9062 22.9767 333.0397 22.499 328.7399 25.3655 323.4846 24.41 312.0185 32.5318 301.0301 29.6653 292.9083 39.2204 298.1636 54.9863 297.6858 57.8528 296.2526 63.1081 298.6413 Z" id="SY.TA" fill="#cee3f5" stroke="#6e6e6e" stroke-width="0.4">
      <desc>
        <labelrank>7</labelrank>
        <code_hasc>SY.TA</code_hasc>
        <name>Tartus</name>
        <admin>Syria</admin>
        <type_en>Province</type_en>
        <region/>
        <woe_id>2347082</woe_id>
        <longitude>36</longitude>
        <woe_name>Tartus</woe_name>
        <fips>SY14</fips>
        <woe_label>Tartus, SY, Syria</woe_label>
        <latitude>34</latitude>
        <iso_a2>SY</iso_a2>
        <postal>TA</postal>
        <type>Governorate|Muhafazah</type>
        <id>SY.TA</id>
      </desc>
    </path>
    <path d="M 397.5366 114.2279 400.8809 123.783 407.5695 131.4271 416.6468 130.9493 426.6797 135.2491 432.8905 138.5934 435.2793 143.371 419.0356 220.2895 418.0801 229.3669 422.3799 232.2334 377.4709 299.1191 318.707 283.3532 288.1307 280.9644 279.0534 281.9199 271.8871 275.2313 249.9103 249.4326 253.2546 232.2334 257.0767 223.6338 264.7207 213.601 266.6318 207.3901 257.0767 195.924 254.2101 185.4134 262.332 172.0363 271.4093 168.2142 292.4305 165.3477 310.1075 153.8816 315.3628 145.282 317.7515 131.4271 317.7515 121.3943 310.1075 124.7385 308.1964 119.961 308.1964 118.05 314.885 116.6167 315.8405 113.7502 314.4073 107.5394 323.4846 114.2279 331.1287 115.1834 355.4942 113.2724 371.2601 118.5277 397.5366 114.2279 Z" id="SY.RA" fill="#cee3f5" stroke="#6e6e6e" stroke-width="0.4">
      <desc>
        <labelrank>7</labelrank>
        <code_hasc>SY.RA</code_hasc>
        <name>Ar Raqqah</name>
        <admin>Syria</admin>
        <type_en>Province</type_en>
        <region/>
        <woe_id>2347072</woe_id>
        <longitude>38</longitude>
        <woe_name>Ar Raqqah</woe_name>
        <fips>SY04</fips>
        <woe_label>Ar Raqqah, SY, Syria</woe_label>
        <latitude>36</latitude>
        <iso_a2>SY</iso_a2>
        <postal>RA</postal>
        <type>Governorate|Muhafazah</type>
        <id>SY.RA</id>
      </desc>
    </path>
    <path d="M 314.4073 107.5394 315.8405 113.7502 314.885 116.6167 308.1964 118.05 308.1964 119.961 310.1075 124.7385 317.7515 121.3943 317.7515 131.4271 315.3628 145.282 310.1075 153.8816 292.4305 165.3477 271.4093 168.2142 262.332 172.0363 254.2101 185.4134 257.0767 195.924 266.6318 207.3901 264.7207 213.601 257.0767 223.6338 253.2546 232.2334 249.9103 249.4326 271.8871 275.2313 226.9781 274.7536 213.601 271.8871 203.0903 264.7207 179.6804 265.1985 165.3477 258.9877 156.2704 253.7324 152.4483 248.4771 149.104 237.9665 153.4038 234.1444 153.8816 231.2779 142.8932 222.6783 132.3826 204.5236 131.4271 196.8795 120.4387 190.6687 115.6612 183.9802 127.1273 172.9918 127.6051 169.1697 121.872 162.4812 120.4387 157.7036 108.0171 161.0479 100.8508 157.2259 102.7618 151.9706 98.462 147.6708 96.551 138.5934 100.373 131.9049 100.8508 120.4387 105.1506 104.1951 109.4504 97.0287 108.9726 94.1622 142.4155 104.1951 147.6708 110.4059 147.193 118.5277 151.0151 121.872 156.2704 117.5722 161.5257 119.0055 170.603 117.0945 191.6242 120.4387 213.1232 108.4949 230.3224 104.6728 249.9103 96.551 261.8542 89.3847 272.3648 86.5181 298.6413 93.2067 303.4189 96.0732 314.4073 107.5394 Z" id="SY.HL" fill="#cee3f5" stroke="#6e6e6e" stroke-width="0.4">
      <desc>
        <labelrank>6</labelrank>
        <code_hasc>SY.HL</code_hasc>
        <name>Aleppo</name>
        <admin>Syria</admin>
        <type_en>Province</type_en>
        <region/>
        <woe_id>2347077</woe_id>
        <longitude>37</longitude>
        <woe_name>Aleppo (Halab)</woe_name>
        <fips>SY09</fips>
        <woe_label>H'alab, SY, Syria</woe_label>
        <latitude>36</latitude>
        <iso_a2>SY</iso_a2>
        <postal>HL</postal>
        <type>Governorate|Muhafazah</type>
        <id>SY.HL</id>
      </desc>
    </path>
    <path d="M 165.3477 258.9877 179.6804 265.1985 203.0903 264.7207 213.601 271.8871 226.9781 274.7536 271.8871 275.2313 279.0534 281.9199 278.5756 298.6413 272.3648 311.063 272.3648 318.707 257.5544 325.8734 252.7769 329.6954 248.9548 340.6838 245.6105 343.5503 231.2779 328.7399 227.9336 319.1848 223.6338 318.2293 219.334 315.3628 202.1348 319.1848 195.4463 323.4846 193.5352 334.473 189.2355 331.6064 181.1136 333.0397 177.7693 331.6064 175.8583 333.9952 172.0363 333.9952 167.7365 341.1615 164.3922 340.206 161.0479 336.384 156.2704 340.206 152.4483 338.7728 138.1157 346.8946 132.3826 334.473 128.0828 331.6064 119.961 334.9507 113.2724 334.9507 104.1951 339.2505 94.64 340.6838 89.8624 337.3395 90.3402 334.473 87.9514 333.9952 83.1739 339.7283 81.7406 344.9836 79.3518 346.8946 74.0965 344.0281 71.23 346.8946 67.8857 343.5503 68.3634 340.206 64.5414 336.384 63.1081 331.6064 50.6865 330.1732 50.2088 326.8289 60.2416 323.9624 63.1081 321.0958 63.1081 298.6413 58.8084 272.3648 61.6749 249.9103 59.2861 240.833 62.1526 237.4887 63.1081 232.7112 65.4969 230.3224 67.8857 232.7112 72.6632 231.7556 75.052 235.0999 81.7406 236.5332 78.8741 263.7652 82.2183 271.8871 84.6071 272.3648 88.4292 270.9316 93.6845 275.7091 110.8836 278.5756 124.2608 275.2313 131.9049 282.8754 135.7269 281.9199 141.9377 274.7536 143.8487 277.1424 142.4155 281.9199 142.8932 287.653 151.0151 288.6085 154.3593 284.7864 157.2259 284.7864 156.7481 277.1424 152.9261 280.0089 150.5373 279.5311 152.9261 272.8426 158.1814 269.0205 162.9589 260.4209 165.3477 258.9877 Z" id="SY.HM" fill="#cee3f5" stroke="#6e6e6e" stroke-width="0.4">
      <desc>
        <labelrank>7</labelrank>
        <code_hasc>SY.HM</code_hasc>
        <name>Hamah</name>
        <admin>Syria</admin>
        <type_en>Province</type_en>
        <region/>
        <woe_id>2347078</woe_id>
        <longitude>37</longitude>
        <woe_name>Hamah</woe_name>
        <fips>SY10</fips>
        <woe_label>H'amah, SY, Syria</woe_label>
        <latitude>35</latitude>
        <iso_a2>SY</iso_a2>
        <postal>HM</postal>
        <type>Governorate|Muhafazah</type>
        <id>SY.HM</id>
      </desc>
    </path>
    <path d="M 377.4709 299.1191 391.3258 312.0185 398.4921 327.3066 398.9699 339.2505 477.3217 449.1342 278.5756 570.4839 234.6222 535.13 226.9781 529.8747 218.3785 527.0082 206.9124 518.8864 199.7461 508.8535 196.4018 499.7762 172.514 477.7995 165.8255 464.9001 158.1814 463.4668 146.2375 456.3005 125.694 427.6352 117.0945 430.9795 103.7173 428.5907 97.0287 430.5017 92.729 422.3799 95.1177 417.6023 92.2512 416.1691 88.4292 410.9138 89.3847 401.8364 81.7406 396.5811 79.8296 392.2813 69.319 392.2813 67.8857 389.8925 74.5743 384.6372 75.5298 379.3819 80.3073 379.3819 81.2628 375.0821 73.141 375.0821 67.4079 367.4381 65.0192 368.8713 64.0637 373.6489 62.1526 375.0821 46.3867 374.1266 46.8645 369.3491 54.5086 356.4497 64.0637 347.3723 65.0192 341.6393 68.3634 340.206 67.8857 343.5503 71.23 346.8946 74.0965 344.0281 79.3518 346.8946 81.7406 344.9836 83.1739 339.7283 87.9514 333.9952 90.3402 334.473 89.8624 337.3395 94.64 340.6838 104.1951 339.2505 113.2724 334.9507 119.961 334.9507 128.0828 331.6064 132.3826 334.473 138.1157 346.8946 152.4483 338.7728 156.2704 340.206 161.0479 336.384 164.3922 340.206 167.7365 341.1615 172.0363 333.9952 175.8583 333.9952 177.7693 331.6064 181.1136 333.0397 189.2355 331.6064 193.5352 334.473 195.4463 323.4846 202.1348 319.1848 219.334 315.3628 223.6338 318.2293 227.9336 319.1848 231.2779 328.7399 245.6105 343.5503 248.9548 340.6838 252.7769 329.6954 257.5544 325.8734 272.3648 318.707 272.3648 311.063 278.5756 298.6413 279.0534 281.9199 288.1307 280.9644 318.707 283.3532 377.4709 299.1191 Z" id="SY.HI" fill="#cee3f5" stroke="#6e6e6e" stroke-width="0.4">
      <desc>
        <labelrank>7</labelrank>
        <code_hasc>SY.HI</code_hasc>
        <name>Homs (Hims)</name>
        <admin>Syria</admin>
        <type_en>Province</type_en>
        <region/>
        <woe_id>2347079</woe_id>
        <longitude>38</longitude>
        <woe_name>Homs (Hims)</woe_name>
        <fips>SY11</fips>
        <woe_label>H'ims, SY, Syria</woe_label>
        <latitude>34</latitude>
        <iso_a2>SY</iso_a2>
        <postal>HI</postal>
        <type>Governorate|Muhafazah</type>
        <id>SY.HI</id>
      </desc>
    </path>
    <path d="M 165.3477 258.9877 162.9589 260.4209 158.1814 269.0205 152.9261 272.8426 150.5373 279.5311 152.9261 280.0089 156.7481 277.1424 157.2259 284.7864 154.3593 284.7864 151.0151 288.6085 142.8932 287.653 142.4155 281.9199 143.8487 277.1424 141.9377 274.7536 135.7269 281.9199 131.9049 282.8754 124.2608 275.2313 110.8836 278.5756 93.6845 275.7091 88.4292 270.9316 84.6071 272.3648 82.2183 271.8871 78.8741 263.7652 81.7406 236.5332 75.052 235.0999 72.6632 231.7556 67.8857 232.7112 65.4969 230.3224 68.8412 227.4559 68.3634 225.5448 55.9418 225.5448 54.5086 224.5893 55.4641 221.7228 57.8528 208.8234 60.2416 205.0014 67.4079 204.5236 68.8412 199.7461 70.7522 199.2683 74.5743 200.7016 76.963 200.2238 77.4408 177.7693 79.3518 172.9918 77.9185 171.5585 79.3518 170.1253 81.7406 172.9918 87.4736 173.9473 90.3402 170.603 102.2841 172.0363 109.4504 170.603 110.4059 166.781 108.0171 161.0479 120.4387 157.7036 121.872 162.4812 127.6051 169.1697 127.1273 172.9918 115.6612 183.9802 120.4387 190.6687 131.4271 196.8795 132.3826 204.5236 142.8932 222.6783 153.8816 231.2779 153.4038 234.1444 149.104 237.9665 152.4483 248.4771 156.2704 253.7324 165.3477 258.9877 Z" id="SY.ID" fill="#cee3f5" stroke="#6e6e6e" stroke-width="0.4">
      <desc>
        <labelrank>7</labelrank>
        <code_hasc>SY.ID</code_hasc>
        <name>Idlib</name>
        <admin>Syria</admin>
        <type_en>Province</type_en>
        <region/>
        <woe_id>2347080</woe_id>
        <longitude>36</longitude>
        <woe_name>Idlib</woe_name>
        <fips>SY12</fips>
        <woe_label>Idlib, SY, Syria</woe_label>
        <latitude>35</latitude>
        <iso_a2>SY</iso_a2>
        <postal>ID</postal>
        <type>Governorate|Muhafazah</type>
        <id>SY.ID</id>
      </desc>
    </path>
    <path d="M 593.8939 257.5544 561.4066 256.1211 543.2519 251.8214 537.5188 249.4326 445.3121 161.0479 435.2793 143.371 432.8905 138.5934 426.6797 135.2491 416.6468 130.9493 407.5695 131.4271 400.8809 123.783 397.5366 114.2279 430.9795 107.5394 452.9562 99.4175 462.989 92.729 474.4552 88.9069 497.3874 73.6188 508.8535 70.2745 527.486 60.7194 546.5962 57.3751 578.128 64.0637 606.7933 62.1526 660.7796 47.3422 665.0794 44.9535 680.8453 27.7543 682.2786 32.5318 686.5784 33.9651 688.9671 32.5318 695.6557 39.6982 694.2225 46.8645 696.1335 49.2533 699 60.7194 643.1027 121.872 598.6715 133.8159 588.1608 154.8371 584.8166 192.5797 596.2827 218.3785 598.1937 226.5003 598.6715 248.4771 593.8939 257.5544 Z" id="SY.HA" fill="#cee3f5" stroke="#6e6e6e" stroke-width="0.4">
      <desc>
        <labelrank>6</labelrank>
        <code_hasc>SY.HA</code_hasc>
        <name>Hasaka (Al Haksa)</name>
        <admin>Syria</admin>
        <type_en>Province</type_en>
        <region/>
        <woe_id>2347069</woe_id>
        <longitude>40</longitude>
        <woe_name>Hasaka (Al Haksa)</woe_name>
        <fips>SY01</fips>
        <woe_label>Al H'asakah, SY, Syria</woe_label>
        <latitude>36</latitude>
        <iso_a2>SY</iso_a2>
        <postal>HA</postal>
        <type>Governorate|Muhafazah</type>
        <id>SY.HA</id>
      </desc>
    </path>
    <path d="M 593.8939 257.5544 589.1164 265.1985 587.6831 281.4422 582.4278 305.3299 584.8166 355.0164 563.3176 402.3142 557.5845 408.0472 531.7858 415.2136 477.3217 449.1342 398.9699 339.2505 398.4921 327.3066 391.3258 312.0185 377.4709 299.1191 422.3799 232.2334 418.0801 229.3669 419.0356 220.2895 435.2793 143.371 445.3121 161.0479 537.5188 249.4326 543.2519 251.8214 561.4066 256.1211 593.8939 257.5544 Z" id="SY.DY" fill="#cee3f5" stroke="#6e6e6e" stroke-width="0.4">
      <desc>
        <labelrank>6</labelrank>
        <code_hasc>SY.DY</code_hasc>
        <name>Dayr Az Zawr</name>
        <admin>Syria</admin>
        <type_en>Province</type_en>
        <region/>
        <woe_id>2347075</woe_id>
        <longitude>40</longitude>
        <woe_name>Dayr Az Zawr</woe_name>
        <fips>SY07</fips>
        <woe_label>Dayr az Zawr, SY, Syria</woe_label>
        <latitude>35</latitude>
        <iso_a2>SY</iso_a2>
        <postal>DY</postal>
        <type>Governorate|Muhafazah</type>
        <id>SY.DY</id>
      </desc>
    </path>
    <path d="M 189.2355 625.9035 115.1834 672.2457 102.7618 670.8125 100.8508 671.768 97.0287 668.9014 82.2183 666.5127 83.6516 651.2245 80.3073 645.4914 81.7406 641.6694 80.3073 639.7584 76.4853 638.3251 70.2745 637.8474 70.2745 631.6366 75.052 628.77 76.0075 626.859 65.9747 621.1259 67.4079 617.3039 66.9302 605.8378 64.0637 596.7604 65.0192 590.5496 73.6188 584.3388 86.9959 583.8611 86.0404 577.1725 81.2628 576.217 79.8296 564.7509 83.1739 560.4511 90.3402 559.4956 118.05 556.1513 125.694 562.8398 132.3826 575.2615 144.8042 579.5613 147.6708 581.4723 150.5373 588.6386 155.7926 591.9829 163.9144 592.4606 166.781 603.449 189.2355 625.9035 Z" id="SY.SU" fill="#cee3f5" stroke="#6e6e6e" stroke-width="0.4">
      <desc>
        <labelrank>7</labelrank>
        <code_hasc>SY.SU</code_hasc>
        <name>As Suwayda'</name>
        <admin>Syria</admin>
        <type_en>Province</type_en>
        <region/>
        <woe_id>2347073</woe_id>
        <longitude>36</longitude>
        <woe_name>As Suwayda'</woe_name>
        <fips>SY05</fips>
        <woe_label>As Suwayda', SY, Syria</woe_label>
        <latitude>32</latitude>
        <iso_a2>SY</iso_a2>
        <postal>SU</postal>
        <type>Governorate|Muhafazah</type>
        <id>SY.SU</id>
      </desc>
    </path>
    <path d="M 278.5756 570.4839 189.2355 625.9035 166.781 603.449 163.9144 592.4606 155.7926 591.9829 150.5373 588.6386 147.6708 581.4723 144.8042 579.5613 132.3826 575.2615 125.694 562.8398 118.05 556.1513 90.3402 559.4956 90.3402 555.1958 84.1294 546.5962 75.052 552.3292 70.2745 558.54 59.2861 552.807 54.5086 546.1184 52.1198 554.2402 44.9535 557.1068 35.8761 557.5845 31.5763 559.9733 28.7098 559.9733 24.8877 556.1513 25.3655 550.896 19.1547 549.4627 17.2437 551.3737 16.2882 548.0294 18.1992 544.2074 12.4661 540.8631 11.5106 535.6078 15.8104 530.3525 15.8104 527.0082 21.5435 523.1862 22.9767 515.0643 30.1431 513.1533 33.9651 510.2868 33.4873 506.4648 22.499 500.2539 22.9767 497.8652 25.3655 496.4319 25.3655 491.6543 30.6208 485.4435 36.8316 478.2772 46.3867 473.9774 49.2533 476.8439 56.4196 473.9774 63.5859 477.3217 69.7967 478.2772 70.7522 473.9774 65.0192 472.0664 60.2416 467.2888 62.6304 462.5113 74.0965 450.0897 82.6961 449.1342 84.6071 444.8344 97.0287 430.5017 103.7173 428.5907 117.0945 430.9795 125.694 427.6352 146.2375 456.3005 158.1814 463.4668 165.8255 464.9001 172.514 477.7995 196.4018 499.7762 199.7461 508.8535 206.9124 518.8864 218.3785 527.0082 226.9781 529.8747 234.6222 535.13 278.5756 570.4839 Z M 50.6865 517.4531 54.9863 518.8864 52.5975 520.7974 53.0753 522.2307 55.4641 520.7974 64.0637 524.6194 66.9302 520.7974 67.8857 514.1088 66.4524 511.7201 63.1081 511.2423 54.0308 513.1533 49.731 515.0643 50.6865 517.4531 Z" id="SY.RD" fill="#cee3f5" stroke="#6e6e6e" stroke-width="0.4">
      <desc>
        <labelrank>7</labelrank>
        <code_hasc>SY.RD</code_hasc>
        <name>Rif Dimashq</name>
        <admin>Syria</admin>
        <type_en>Province</type_en>
        <region/>
        <woe_id>2347076</woe_id>
        <longitude>37</longitude>
        <woe_name>Damascus</woe_name>
        <fips>SY08</fips>
        <woe_label>Rif Dimashq, SY, Syria</woe_label>
        <latitude>33</latitude>
        <iso_a2>SY</iso_a2>
        <postal>RD</postal>
        <type>Governorate|Muhafazah</type>
        <id>SY.RD</id>
      </desc>
    </path>
    <path d="M 24.8877 556.1513 23.9322 562.3621 26.7988 566.6619 24.41 570.4839 22.499 579.5613 26.7988 589.1164 24.41 587.2053 21.0657 587.6831 21.5435 593.8939 11.0329 603.449 12.9439 597.7159 20.1102 586.7276 14.8549 583.3833 14.3771 568.5729 18.1992 568.5729 17.2437 566.6619 19.1547 565.2286 19.1547 561.4066 16.7659 559.4956 17.2437 557.1068 13.4216 547.0739 10.0773 546.1184 11.9884 544.2074 12.4661 540.8631 18.1992 544.2074 16.2882 548.0294 17.2437 551.3737 19.1547 549.4627 25.3655 550.896 24.8877 556.1513 Z" id="SY.QU" fill="#cee3f5" stroke="#6e6e6e" stroke-width="0.4">
      <desc>
        <labelrank>9</labelrank>
        <code_hasc>SY.QU</code_hasc>
        <name>Quneitra</name>
        <admin>Syria</admin>
        <type_en>Province</type_en>
        <region/>
        <woe_id>2347071</woe_id>
        <longitude>35</longitude>
        <woe_name>Quneitra</woe_name>
        <fips>SY03</fips>
        <woe_label>Al Qunaytirah, SY, Syria</woe_label>
        <latitude>33</latitude>
        <iso_a2>SY</iso_a2>
        <postal>QU</postal>
        <type>Governorate|Muhafazah</type>
        <id>SY.QU</id>
      </desc>
    </path>
    <path d="M 90.3402 559.4956 83.1739 560.4511 79.8296 564.7509 81.2628 576.217 86.0404 577.1725 86.9959 583.8611 73.6188 584.3388 65.0192 590.5496 64.0637 596.7604 66.9302 605.8378 67.4079 617.3039 65.9747 621.1259 76.0075 626.859 75.052 628.77 70.2745 631.6366 70.2745 637.8474 76.4853 638.3251 80.3073 639.7584 81.7406 641.6694 80.3073 645.4914 83.6516 651.2245 82.2183 666.5127 66.4524 662.2129 45.909 643.5804 43.5202 645.4914 33.9651 644.5359 27.7543 633.0698 27.2765 626.859 22.0212 626.3812 20.588 624.4702 21.0657 622.0815 2.4333 614.4374 7.6886 609.6598 11.0329 603.449 21.5435 593.8939 21.0657 587.6831 24.41 587.2053 26.7988 589.1164 22.499 579.5613 24.41 570.4839 26.7988 566.6619 23.9322 562.3621 24.8877 556.1513 28.7098 559.9733 31.5763 559.9733 35.8761 557.5845 44.9535 557.1068 52.1198 554.2402 54.5086 546.1184 59.2861 552.807 70.2745 558.54 75.052 552.3292 84.1294 546.5962 90.3402 555.1958 90.3402 559.4956 Z" id="SY.DR" fill="#cee3f5" stroke="#6e6e6e" stroke-width="0.4">
      <desc>
        <labelrank>9</labelrank>
        <code_hasc>SY.DR</code_hasc>
        <name>Dar`a</name>
        <admin>Syria</admin>
        <type_en>Province</type_en>
        <region/>
        <woe_id>2347074</woe_id>
        <longitude>36</longitude>
        <woe_name>Dar`a</woe_name>
        <fips>SY06</fips>
        <woe_label>Dar'a, SY, Syria</woe_label>
        <latitude>32</latitude>
        <iso_a2>SY</iso_a2>
        <postal>DR</postal>
        <type>Governorate|Muhafazah</type>
        <id>SY.DR</id>
      </desc>
    </path>
    <path d="M 50.6865 517.4531 49.731 515.0643 54.0308 513.1533 63.1081 511.2423 66.4524 511.7201 67.8857 514.1088 66.9302 520.7974 64.0637 524.6194 55.4641 520.7974 53.0753 522.2307 52.5975 520.7974 54.9863 518.8864 50.6865 517.4531 Z" id="SY.DI" fill="#cee3f5" stroke="#6e6e6e" stroke-width="0.4">
      <desc>
        <labelrank>7</labelrank>
        <code_hasc>SY.DI</code_hasc>
        <name>Damascus</name>
        <admin>Syria</admin>
        <type_en>Province</type_en>
        <region/>
        <woe_id>2347081</woe_id>
        <longitude>36</longitude>
        <woe_name>Dimashq</woe_name>
        <fips>SY13</fips>
        <woe_label>Dimashq, SY, Syria</woe_label>
        <latitude>33</latitude>
        <iso_a2>SY</iso_a2>
        <postal>DI</postal>
        <type>Governorate|Muhafazah</type>
        <id>SY.DI</id>
      </desc>
    </path>
    <path d="M 12.4661 540.8631 11.9884 544.2074 10.0773 546.1184 13.4216 547.0739 17.2437 557.1068 16.7659 559.4956 19.1547 561.4066 19.1547 565.2286 17.2437 566.6619 18.1992 568.5729 14.3771 568.5729 14.8549 583.3833 20.1102 586.7276 12.9439 597.7159 11.0329 603.449 7.6886 609.6598 2.4333 614.4374 1 614.9151 9.5996 604.4045 11.5106 595.8049 15.8104 589.5941 12.9439 583.3833 12.4661 569.5284 8.1663 567.6174 11.0329 561.4066 10.5551 558.0623 8.1663 556.1513 8.1663 550.4182 4.3443 547.0739 8.1663 541.8186 4.3443 538.9521 9.1218 536.0856 10.5551 529.8747 15.8104 527.0082 15.8104 530.3525 11.5106 535.6078 12.4661 540.8631 Z" id="SY.3686" fill="#cee3f5" stroke="#6e6e6e" stroke-width="0.4">
      <desc>
        <labelrank>20</labelrank>
        <code_hasc>SY</code_hasc>
        <name>UNDOF</name>
        <admin>Syria</admin>
        <type_en/>
        <region/>
        <woe_id>23424997</woe_id>
        <longitude>35</longitude>
        <woe_name>United Nations Neutral Zone</woe_name>
        <fips/>
        <woe_label/>
        <latitude>33</latitude>
        <iso_a2>SY</iso_a2>
        <postal/>
        <type/>
        <id>SY.3686</id>
      </desc>
    </path>
  </g>
</svg>