<?xml version="1.0" encoding="UTF-8"?>
<svg xmlns="http://www.w3.org/2000/svg" width="700" height="700">
  <g id="saudi_arabia">
    <path d="M 221.932 618.2996 220.6454 617.3639 221.6981 615.8435 223.2185 617.4809 221.932 618.2996 Z M 76.2034 319.4742 74.683 319.4742 74.9169 318.4216 76.2034 319.4742 Z" id="SA.4293" fill="#cee3f5" stroke="#6e6e6e" stroke-width="0.4">
      <desc>
        <labelrank>20</labelrank>
        <code_hasc>-99</code_hasc>
        <name/>
        <admin>Saudi Arabia</admin>
        <type_en/>
        <region/>
        <woe_id>-99</woe_id>
        <longitude>41</longitude>
        <woe_name/>
        <fips/>
        <woe_label/>
        <latitude>16</latitude>
        <iso_a2>SA</iso_a2>
        <postal/>
        <type/>
        <id>SA.4293</id>
      </desc>
    </path>
    <path d="M 290.2349 599.5865 291.6384 579.2359 290.7027 571.1659 302.9832 558.4176 305.9072 553.3884 313.0416 550.6984 315.7316 548.3592 316.9011 543.2131 315.4977 536.0788 316.5503 533.8566 320.5268 531.0496 320.9946 524.5 334.7956 532.3361 346.9591 533.7396 427.5426 524.383 431.9869 523.0965 422.2795 611.633 422.2795 611.75 414.0925 616.6622 406.3733 616.7792 397.1337 605.3174 383.6836 607.3056 368.5962 605.9021 352.5731 604.2647 343.3334 600.0543 308.0124 600.873 305.7902 603.0952 302.8663 602.1595 299.8254 604.6156 298.7728 602.6273 293.3928 602.7443 290.2349 599.5865 Z" id="SA.NJ" fill="#cee3f5" stroke="#6e6e6e" stroke-width="0.4">
      <desc>
        <labelrank>6</labelrank>
        <code_hasc>SA.NJ</code_hasc>
        <name>Najran</name>
        <admin>Saudi Arabia</admin>
        <type_en>Region</type_en>
        <region/>
        <woe_id>2346960</woe_id>
        <longitude>45</longitude>
        <woe_name>Najran</woe_name>
        <fips>SA16</fips>
        <woe_label>Najran, SA, Saudi Arabia</woe_label>
        <latitude>18</latitude>
        <iso_a2>SA</iso_a2>
        <postal>NJ</postal>
        <type>Emirate|Mintaqah</type>
        <id>SA.NJ</id>
      </desc>
    </path>
    <path d="M 431.9869 523.0965 427.5426 524.383 346.9591 533.7396 334.7956 532.3361 320.9946 524.5 306.9598 511.6347 301.1119 502.8629 302.2815 494.559 305.3224 489.4129 305.3224 486.372 297.1354 475.7289 292.2232 471.2845 282.8666 456.431 284.504 448.127 284.2701 441.3435 287.0771 435.6126 285.5566 422.8643 286.4923 415.8468 280.6444 413.8586 274.4457 415.0282 271.4048 413.9755 269.7674 411.0516 270.5861 403.4494 268.3639 401.4611 253.5104 400.1746 249.4169 398.3033 244.5047 386.8415 240.879 373.0405 236.9025 368.9471 237.0194 362.5144 237.9551 346.0235 240.7621 341.4621 241.2299 338.5382 244.1538 333.8599 247.0777 332.3395 255.1478 335.4973 272.9253 336.433 275.7322 333.1582 274.3288 328.246 274.9135 326.3747 281.3462 319.1233 295.381 315.1468 300.995 310.7024 305.3224 304.7376 328.129 304.5037 328.9477 300.1763 326.7255 293.1588 326.9595 289.1823 317.252 275.1475 317.7198 265.6739 321.5794 263.6857 325.6729 258.3056 332.4564 253.3934 331.0529 248.5982 325.556 244.8556 324.9712 241.5808 325.9068 238.5399 328.7138 235.0312 331.0529 233.9786 334.4447 236.3177 337.2517 233.6277 337.6025 233.7446 340.4095 235.7329 341.696 237.0194 342.7487 238.6568 344.0352 242.7503 345.5556 244.5047 354.7952 249.7678 360.0583 250.9373 367.3097 257.8378 377.6019 259.2413 389.4145 266.7265 397.2507 266.1418 404.9698 273.8609 405.6716 274.2118 416.1977 278.1883 416.6655 278.5392 417.1334 279.007 418.3029 282.0479 420.2912 332.3395 421.5777 334.3277 433.5074 342.5147 442.0452 350.8187 447.3083 360.5261 447.8931 364.8536 447.8931 373.0405 439.94 451.4018 431.9869 523.0965 Z" id="SA.RI" fill="#cee3f5" stroke="#6e6e6e" stroke-width="0.4">
      <desc>
        <labelrank>6</labelrank>
        <code_hasc>SA.RI</code_hasc>
        <name>Ar Riyad</name>
        <admin>Saudi Arabia</admin>
        <type_en>Region</type_en>
        <region/>
        <woe_id>2346951</woe_id>
        <longitude>45</longitude>
        <woe_name>Ar Riyad</woe_name>
        <fips>SA10</fips>
        <woe_label>Ar Riyad, SA, Saudi Arabia</woe_label>
        <latitude>23</latitude>
        <iso_a2>SA</iso_a2>
        <postal>RI</postal>
        <type>Emirate|Mintaqah</type>
        <id>SA.RI</id>
      </desc>
    </path>
    <path d="M 485.6702 237.3703 489.6468 238.5399 485.6702 239.3586 484.5007 237.7212 482.1615 239.8264 483.565 237.1364 485.6702 237.3703 Z M 422.2795 611.75 422.2795 611.633 431.9869 523.0965 439.94 451.4018 447.8931 373.0405 447.8931 364.8536 447.3083 360.5261 442.0452 350.8187 433.5074 342.5147 421.5777 334.3277 420.2912 332.3395 418.3029 282.0479 417.1334 279.007 416.6655 278.5392 416.1977 278.1883 405.6716 274.2118 404.9698 273.8609 397.2507 266.1418 389.4145 266.7265 377.6019 259.2413 367.3097 257.8378 360.0583 250.9373 354.7952 249.7678 345.5556 244.5047 344.0352 242.7503 342.7487 238.6568 342.2808 237.8381 341.696 237.0194 340.4095 235.7329 337.6025 233.7446 337.2517 233.6277 335.6143 230.4698 335.6143 229.7681 335.7312 229.1833 335.9651 228.1307 336.7838 226.0255 337.4856 224.8559 342.8656 218.3063 344.3861 215.9672 355.7309 194.681 357.6022 191.874 360.0583 189.067 363.2162 186.1431 367.6605 183.57 386.4906 176.5526 413.5077 179.4765 415.2621 179.7105 417.2503 182.9853 420.2912 192.8097 423.0982 196.3184 447.6592 195.3827 449.6475 196.7862 450.2322 199.8271 448.9457 200.9966 451.0509 200.1779 450.817 203.3358 453.9749 206.9615 453.507 209.5345 455.2614 213.1602 459.8227 214.4467 458.3023 216.2011 462.9806 220.8794 461.694 224.505 462.1619 221.815 460.5245 223.5694 460.6414 220.8794 459.7058 224.8559 460.7584 224.0372 460.8753 226.0255 461.694 225.3237 462.2788 226.8442 462.9806 226.0255 462.8636 228.7155 461.5771 228.7155 462.7466 228.9494 463.6823 227.8968 464.2671 230.119 464.2671 228.8324 465.9045 228.3646 468.9454 231.1716 469.4132 230.4698 474.7932 230.8207 477.3663 234.2125 476.4306 233.2768 471.0506 234.6803 473.9745 236.2007 475.0271 235.0312 475.7289 235.499 474.5593 238.5399 476.3137 237.4873 477.4832 237.9551 477.9511 242.9842 478.6528 243.8029 479.4715 242.5164 480.875 242.9842 479.7054 244.9725 480.758 245.5573 481.6937 244.2708 481.5767 245.2064 484.6176 245.4403 483.4481 243.9199 486.0211 243.1012 486.1381 246.376 490.5824 251.5221 496.3133 254.7969 499.5881 255.4987 505.9038 261.6974 506.0208 262.633 501.4595 260.5278 500.8747 258.8904 500.2899 259.7091 502.0442 268.0131 507.4243 271.1709 508.3599 273.9779 508.3599 278.7731 506.4886 279.8257 506.2547 284.621 502.5121 278.6562 500.6408 280.9953 501.9273 283.2175 501.3425 286.0245 502.3951 285.9075 502.3951 284.7379 505.0851 286.2584 505.7869 290.7027 510.2312 297.3693 510.6991 299.1237 509.6464 297.1354 506.8395 295.6149 506.9564 296.7845 508.5938 297.1354 513.8569 304.3867 514.7926 305.2054 514.9095 303.3341 518.0674 305.9072 521.5761 319.7081 523.0965 320.059 527.307 325.7899 528.7105 331.0529 530.2309 330.5851 532.804 334.4447 536.1957 336.9008 540.0553 336.9008 544.0318 334.3277 545.7862 334.3277 547.0727 334.7956 547.0727 338.1873 549.9966 333.8599 553.5054 335.4973 548.3592 340.6434 546.6049 345.9065 551.0493 345.0878 556.4293 347.31 557.4819 353.7426 591.2825 393.1572 622.0422 396.1981 679.1173 400.1746 681.6903 396.8998 699 422.3964 680.9886 496.6642 629.2936 518.1843 578.7681 538.4179 477.2493 556.7802 447.1914 573.0372 427.6595 598.183 423.3321 610.3465 422.2795 611.75 Z" id="SA.SH" fill="#cee3f5" stroke="#6e6e6e" stroke-width="0.4">
      <desc>
        <labelrank>4</labelrank>
        <code_hasc>SA.SH</code_hasc>
        <name>Ash Sharqiyah</name>
        <admin>Saudi Arabia</admin>
        <type_en>Region</type_en>
        <region/>
        <woe_id>2346954</woe_id>
        <longitude>50</longitude>
        <woe_name>Ash Sharqiyah</woe_name>
        <fips>SA06</fips>
        <woe_label>Ash Sharqiyah, SA, Saudi Arabia</woe_label>
        <latitude>22</latitude>
        <iso_a2>SA</iso_a2>
        <postal>SH</postal>
        <type>Emirate|Mintaqah</type>
        <id>SA.SH</id>
      </desc>
    </path>
    <path d="M 168.3656 261.9313 169.0674 265.9078 166.8452 271.7557 168.3656 273.5101 171.5235 273.3931 172.5761 275.4983 170.2369 288.7145 171.6404 297.3693 170.9387 306.9598 172.3422 310.1176 175.5 311.1702 184.6227 308.4802 192.9266 308.1294 198.6575 302.9832 201.6984 301.9306 207.3123 301.8137 219.3589 304.3867 226.9611 307.6615 226.8442 320.4099 228.9494 322.5151 234.2125 324.2694 237.4873 335.1464 241.2299 338.5382 240.7621 341.4621 237.9551 346.0235 237.0194 362.5144 232.692 361.8127 229.1833 362.6314 228.4816 364.0349 229.5342 370.3505 227.8968 373.5084 213.1602 381.8123 213.5111 384.1515 218.4233 387.3093 217.6046 389.8824 210.938 393.0402 196.3184 404.8529 191.5231 410.9347 182.8683 409.5312 176.2017 413.8586 171.6404 413.0399 171.4065 405.5546 165.4417 401.5781 168.0147 393.3911 166.7282 389.7654 162.1669 389.7654 152.3425 392.1046 150.1203 387.8941 144.1555 388.3619 142.2842 387.5432 133.9802 377.7188 124.5067 378.0697 123.2202 372.5727 121.9336 372.8066 122.9863 374.3271 121.2319 373.3914 118.191 363.8009 106.6123 353.5087 101.934 350.7017 103.5714 349.883 102.1679 350 102.5188 348.2456 101.3492 348.8304 101.4662 350.3509 99.7118 350.2339 93.63 344.7369 91.8757 344.9708 91.8757 346.2574 88.367 345.3217 85.56 341.5791 85.56 339.5908 86.7296 339.5908 84.2735 335.1464 86.1448 330.936 86.8465 330.7021 87.5483 330.5851 92.3435 330.4682 93.0452 330.1173 93.9809 329.6495 94.7996 328.9477 96.554 327.1934 97.2557 326.7255 97.9574 326.6086 98.7761 326.7255 101.817 327.1934 102.6357 327.0764 103.4544 326.7255 104.2731 326.2577 104.9749 325.3221 105.7936 312.1059 107.314 303.9189 107.314 303.1002 106.2614 301.6967 105.5597 301.5798 103.4544 301.3458 102.9866 301.2289 102.7527 301.1119 102.6357 300.995 102.4018 300.1763 101.4662 295.7319 100.1796 291.8723 94.5657 285.7905 93.2792 281.931 87.0804 277.7205 86.3787 277.6036 85.6769 277.8375 84.3904 278.7731 83.8056 278.7731 83.6887 278.4223 83.4548 277.7205 83.2208 276.2001 82.87 274.6796 80.9987 269.1826 81.1156 268.4809 81.2326 267.7792 81.9343 266.2587 84.5074 262.5161 84.6243 260.8787 84.3904 259.943 83.8056 259.3582 83.1039 258.8904 79.4782 257.4869 78.6595 257.1361 77.9578 256.6682 77.373 255.8495 76.7882 255.1478 76.4373 254.3291 76.2034 253.6273 75.9695 252.8086 75.9695 251.873 75.9695 250.3525 77.1391 243.4521 76.7882 240.1773 76.5543 239.4755 76.3204 239.1247 75.8525 238.5399 75.2678 238.0721 74.683 237.8381 74.3321 237.7212 71.5251 237.9551 70.8234 237.9551 70.3556 237.4873 70.2386 236.9025 70.4725 236.3177 71.0573 235.7329 71.876 235.499 75.6186 234.7973 84.9752 231.1716 86.8465 231.4055 88.25 232.2242 90.94 234.0955 91.8757 234.5633 93.9809 234.9142 102.2849 231.7564 102.8696 231.8733 103.8053 232.5751 104.1562 233.2768 104.3901 233.8616 105.0918 237.2534 105.6766 238.7738 106.2614 240.0603 107.8988 242.9842 108.6005 243.686 109.5362 244.1538 116.0858 245.6743 116.4367 246.259 116.4367 247.8964 116.5536 248.5982 117.1384 249.183 119.0097 250.5865 119.5945 251.1712 119.7115 251.873 119.5945 254.0952 119.8284 254.68 120.5302 254.9139 121.4658 254.68 126.6119 251.6391 132.3428 253.8613 133.1615 253.5104 133.3954 252.9256 133.2785 250.8204 133.7463 250.4695 134.3311 250.5865 135.0328 251.2882 135.3837 251.9899 135.8515 253.5104 136.5533 254.2121 137.7229 254.7969 141.8164 256.5513 146.7286 260.2939 148.366 260.5278 151.6408 260.6448 165.3247 259.1243 166.1434 259.2413 166.8452 259.7091 168.3656 261.9313 Z" id="SA.MD" fill="#cee3f5" stroke="#6e6e6e" stroke-width="0.4">
      <desc>
        <labelrank>6</labelrank>
        <code_hasc>SA.MD</code_hasc>
        <name>Al Madinah</name>
        <admin>Saudi Arabia</admin>
        <type_en>Region</type_en>
        <region/>
        <woe_id>2346958</woe_id>
        <longitude>39</longitude>
        <woe_name>Al Madinah</woe_name>
        <fips>SA05</fips>
        <woe_label>Al Madinah, SA, Saudi Arabia</woe_label>
        <latitude>24</latitude>
        <iso_a2>SA</iso_a2>
        <postal>MD</postal>
        <type>Emirate|Mintaqah</type>
        <id>SA.MD</id>
      </desc>
    </path>
    <path d="M 325.556 244.8556 331.0529 248.5982 332.4564 253.3934 325.6729 258.3056 321.5794 263.6857 317.7198 265.6739 317.252 275.1475 326.9595 289.1823 326.7255 293.1588 328.9477 300.1763 328.129 304.5037 305.3224 304.7376 300.995 310.7024 295.381 315.1468 281.3462 319.1233 274.9135 326.3747 274.3288 328.246 275.7322 333.1582 272.9253 336.433 255.1478 335.4973 247.0777 332.3395 244.1538 333.8599 241.2299 338.5382 237.4873 335.1464 234.2125 324.2694 228.9494 322.5151 226.8442 320.4099 226.9611 307.6615 219.3589 304.3867 231.7564 299.2406 237.2534 297.9541 235.7329 291.0536 237.8381 289.0653 243.8029 290.2349 243.8029 283.6853 245.7912 279.3579 250.9373 278.4223 257.1361 269.8844 269.7674 260.6448 278.4223 256.7852 282.1649 250.8204 286.1414 247.7795 300.878 240.879 303.9189 241.6977 313.7433 249.6508 320.6438 250.2356 325.556 244.8556 Z" id="SA.QS" fill="#cee3f5" stroke="#6e6e6e" stroke-width="0.4">
      <desc>
        <labelrank>4</labelrank>
        <code_hasc>SA.QS</code_hasc>
        <name>Al Quassim</name>
        <admin>Saudi Arabia</admin>
        <type_en>Region</type_en>
        <region/>
        <woe_id>2346952</woe_id>
        <longitude>43</longitude>
        <woe_name>Al Quassim</woe_name>
        <fips>SA08</fips>
        <woe_label>Al Qasim, SA, Saudi Arabia</woe_label>
        <latitude>25</latitude>
        <iso_a2>SA</iso_a2>
        <postal>QS</postal>
        <type>Emirate|Mintaqah</type>
        <id>SA.QS</id>
      </desc>
    </path>
    <path d="M 331.0529 233.9786 328.7138 235.0312 325.9068 238.5399 324.9712 241.5808 325.556 244.8556 320.6438 250.2356 313.7433 249.6508 303.9189 241.6977 300.878 240.879 286.1414 247.7795 282.1649 250.8204 278.4223 256.7852 269.7674 260.6448 257.1361 269.8844 250.9373 278.4223 245.7912 279.3579 243.8029 283.6853 243.8029 290.2349 237.8381 289.0653 235.7329 291.0536 237.2534 297.9541 231.7564 299.2406 219.3589 304.3867 207.3123 301.8137 201.6984 301.9306 198.6575 302.9832 192.9266 308.1294 184.6227 308.4802 175.5 311.1702 172.3422 310.1176 170.9387 306.9598 171.6404 297.3693 170.2369 288.7145 172.5761 275.4983 171.5235 273.3931 168.3656 273.5101 166.8452 271.7557 169.0674 265.9078 168.3656 261.9313 173.3948 251.9899 174.9152 250.0017 179.0087 246.7269 179.7105 246.0251 180.5292 243.1012 173.1609 237.1364 169.8861 222.0489 169.1843 220.4115 167.313 218.4233 163.6873 215.1485 160.8804 213.3941 159.3599 211.6397 158.1903 210.938 156.436 210.2363 146.1438 207.1954 145.442 206.8445 144.8572 206.4936 144.3894 205.6749 149.6525 201.1136 162.1669 195.8505 167.7808 194.564 179.9444 188.2483 192.3418 183.804 195.0318 184.2718 201.2306 186.6109 220.6454 182.9853 231.8733 186.2601 241.6977 185.2074 253.9782 188.7162 259.2413 194.564 262.867 196.6692 266.0248 196.5523 272.4574 194.3301 273.3931 195.0318 274.3288 200.4119 276.2001 201.9323 282.1649 202.1662 288.5975 204.8562 296.3167 201.3475 298.5389 202.9849 308.3633 222.2828 311.1702 223.8033 322.2812 225.7916 331.0529 233.9786 Z" id="SA.HA" fill="#cee3f5" stroke="#6e6e6e" stroke-width="0.4">
      <desc>
        <labelrank>6</labelrank>
        <code_hasc>SA.HA</code_hasc>
        <name>Ha'il</name>
        <admin>Saudi Arabia</admin>
        <type_en>Region</type_en>
        <region/>
        <woe_id>2346957</woe_id>
        <longitude>41</longitude>
        <woe_name>Ha'il</woe_name>
        <fips>SA13</fips>
        <woe_label>Hail, SA, Saudi Arabia</woe_label>
        <latitude>27</latitude>
        <iso_a2>SA</iso_a2>
        <postal>HA</postal>
        <type>Emirate|Mintaqah</type>
        <id>SA.HA</id>
      </desc>
    </path>
    <path d="M 73.5134 300.5271 74.4491 303.1002 71.6421 301.3458 72.2269 300.0593 73.5134 300.5271 Z M 67.6655 300.5271 70.5895 301.9306 70.2386 303.1002 72.1099 302.3985 70.0047 304.2698 66.1451 299.0067 67.6655 300.5271 Z M 68.8351 297.7202 68.0164 297.2523 68.4842 296.5506 68.8351 297.7202 Z M 64.6247 296.4336 69.4199 301.2289 64.3908 296.7845 63.1042 297.1354 64.6247 296.4336 Z M 71.4082 296.1997 71.0573 298.5389 70.4725 295.7319 71.4082 296.1997 Z M 59.5955 293.9775 62.9873 296.6676 57.2564 293.7436 58.8938 291.0536 58.192 292.808 59.5955 293.9775 Z M 60.4142 290.7027 61.2329 290.9367 59.2446 290.4688 59.0107 288.9484 59.7125 286.1414 60.882 285.3227 59.5955 287.6619 60.882 289.0653 60.4142 290.7027 Z M 94.4487 188.0144 95.8522 187.0788 98.7761 181.6987 99.3609 181.2309 101.7001 179.9444 103.8053 178.19 104.507 177.9561 105.2088 178.19 105.7936 178.6578 106.1444 180.2952 105.6766 193.0436 109.5362 198.5405 110.9397 199.3592 116.4367 201.3475 123.9219 202.4001 126.9628 201.5814 129.4189 202.751 130.0037 202.868 131.5241 202.868 132.2259 205.0901 132.6937 205.6749 133.3954 206.2597 134.2141 206.3767 135.0328 206.2597 135.8515 206.0258 139.2433 204.5054 140.179 204.2714 141.3485 204.1545 142.1672 204.1545 142.752 204.3884 143.2198 204.6223 144.3894 205.6749 144.8572 206.4936 145.442 206.8445 146.1438 207.1954 156.436 210.2363 158.1903 210.938 159.3599 211.6397 160.8804 213.3941 163.6873 215.1485 167.313 218.4233 169.1843 220.4115 169.8861 222.0489 173.1609 237.1364 180.5292 243.1012 179.7105 246.0251 179.0087 246.7269 174.9152 250.0017 173.3948 251.9899 168.3656 261.9313 166.8452 259.7091 166.1434 259.2413 165.3247 259.1243 151.6408 260.6448 148.366 260.5278 146.7286 260.2939 136.5533 254.2121 135.8515 253.5104 135.3837 251.9899 135.0328 251.2882 134.3311 250.5865 133.7463 250.4695 133.2785 250.8204 133.3954 252.9256 133.1615 253.5104 132.3428 253.8613 126.6119 251.6391 121.4658 254.68 120.5302 254.9139 119.8284 254.68 119.5945 254.0952 119.7115 251.873 119.5945 251.1712 119.0097 250.5865 117.1384 249.183 116.5536 248.5982 116.4367 247.8964 116.4367 246.259 116.0858 245.6743 109.5362 244.1538 108.6005 243.686 107.8988 242.9842 106.2614 240.0603 105.6766 238.7738 105.0918 237.2534 104.3901 233.8616 104.1562 233.2768 103.8053 232.5751 102.8696 231.8733 102.2849 231.7564 93.9809 234.9142 91.8757 234.5633 90.94 234.0955 88.25 232.2242 86.8465 231.4055 84.9752 231.1716 75.6186 234.7973 71.876 235.499 71.0573 235.7329 70.4725 236.3177 70.2386 236.9025 70.3556 237.4873 70.8234 237.9551 71.5251 237.9551 73.7473 237.7212 74.3321 237.7212 74.683 237.8381 75.2678 238.0721 75.8525 238.5399 76.3204 239.1247 76.5543 239.4755 76.7882 240.1773 77.1391 243.4521 75.9695 250.3525 75.9695 251.873 75.9695 252.8086 76.2034 253.6273 76.4373 254.3291 76.7882 255.1478 77.373 255.8495 77.9578 256.6682 78.6595 257.1361 79.4782 257.4869 83.1039 258.8904 83.8056 259.3582 84.3904 259.943 84.6243 260.8787 84.5074 262.5161 81.9343 266.2587 81.2326 267.7792 81.1156 268.4809 80.9987 269.1826 81.1156 270.7031 82.87 274.6796 83.2208 276.2001 83.4548 277.7205 83.6887 278.4223 83.8056 278.7731 84.3904 278.7731 85.6769 277.8375 86.3787 277.6036 87.0804 277.7205 93.2792 281.931 94.5657 285.7905 100.1796 291.8723 101.4662 295.7319 102.4018 300.1763 102.6357 300.995 102.7527 301.1119 102.9866 301.2289 103.4544 301.3458 105.5597 301.5798 106.2614 301.6967 107.314 303.1002 107.314 303.9189 105.7936 312.1059 104.9749 325.3221 104.2731 326.2577 103.4544 326.7255 102.6357 327.0764 101.817 327.1934 98.7761 326.7255 97.9574 326.6086 97.2557 326.7255 96.554 327.1934 94.7996 328.9477 93.9809 329.6495 93.0452 330.1173 92.3435 330.4682 87.5483 330.5851 86.8465 330.7021 86.1448 330.936 84.2735 335.1464 79.5952 327.6612 79.5952 325.439 78.0747 325.3221 77.1391 323.3338 80.7647 322.866 81.7004 319.4742 80.8817 311.755 76.6712 306.0241 75.9695 302.0476 71.759 293.8606 68.1334 289.5332 67.1977 290.9367 64.3908 288.4806 63.2212 284.8549 64.8586 282.5158 64.7416 279.7088 58.8938 276.0831 53.1629 261.4635 50.8237 256.5513 46.8472 251.6391 45.0928 245.9082 39.0111 238.6568 38.5432 234.5633 31.058 224.622 27.1984 213.5111 22.6371 205.6749 19.8301 203.3358 21.9353 202.634 21.7014 201.8153 16.5553 199.0084 9.6548 200.2949 10.4735 198.7745 9.5379 198.5405 8.3683 200.1779 8.9531 198.6575 7.3157 199.2423 5.4444 197.371 2.0526 201.1136 1.9357 198.6575 1 198.6575 2.8713 195.7336 3.9239 196.0845 4.7426 192.2249 9.7718 183.4531 9.4209 178.307 11.7601 172.9269 11.6431 171.8743 12.1109 170.8217 12.1109 170.4708 14.9179 170.5878 15.9705 170.5878 17.1401 170.7048 24.1575 172.3422 24.9762 172.2252 29.4206 170.2369 36.0871 169.5352 44.9759 169.5352 51.1746 171.5235 53.2798 173.0439 54.3324 174.0965 61.8177 185.5583 64.2738 186.494 76.2034 184.2718 88.0161 187.5466 93.63 188.2483 94.4487 188.0144 Z" id="SA.TB" fill="#cee3f5" stroke="#6e6e6e" stroke-width="0.4">
      <desc>
        <labelrank>6</labelrank>
        <code_hasc>SA.TB</code_hasc>
        <name>Tabuk</name>
        <admin>Saudi Arabia</admin>
        <type_en>Region</type_en>
        <region/>
        <woe_id>2346962</woe_id>
        <longitude>36</longitude>
        <woe_name>Tabuk</woe_name>
        <fips>SA19</fips>
        <woe_label>Tabuk, SA, Saudi Arabia</woe_label>
        <latitude>27</latitude>
        <iso_a2>SA</iso_a2>
        <postal>TB</postal>
        <type>Emirate|Mintaqah</type>
        <id>SA.TB</id>
      </desc>
    </path>
    <path d="M 337.2517 233.6277 334.4447 236.3177 331.0529 233.9786 322.2812 225.7916 311.1702 223.8033 308.3633 222.2828 298.5389 202.9849 296.3167 201.3475 288.5975 204.8562 282.1649 202.1662 276.2001 201.9323 274.3288 200.4119 273.3931 195.0318 272.4574 194.3301 266.0248 196.5523 262.867 196.6692 259.2413 194.564 253.9782 188.7162 241.6977 185.2074 231.8733 186.2601 220.6454 182.9853 201.2306 186.6109 195.0318 184.2718 200.6458 178.5409 202.0493 165.6756 203.5697 162.7517 234.9142 143.8046 239.1247 140.4129 239.5925 138.1907 232.9259 132.2259 228.4816 124.1558 217.3706 121.5828 208.248 115.0332 186.1431 113.9806 182.1666 112.811 176.6696 108.7175 155.6173 104.507 127.6645 105.6766 124.1558 104.741 114.9162 91.6418 115.0332 86.9635 119.7115 73.2795 150.5881 66.379 156.9038 62.0516 194.0962 70.5895 246.1421 103.5714 276.317 130.4715 327.7782 172.9269 380.8767 177.7222 383.0989 177.2544 367.6605 183.57 363.2162 186.1431 360.0583 189.067 357.6022 191.874 355.7309 194.681 344.3861 215.9672 342.8656 218.3063 337.4856 224.8559 336.7838 226.0255 335.9651 228.1307 335.7312 229.1833 335.6143 229.7681 335.6143 230.4698 337.2517 233.6277 Z" id="SA.HS" fill="#cee3f5" stroke="#6e6e6e" stroke-width="0.4">
      <desc>
        <labelrank>4</labelrank>
        <code_hasc>SA.HS</code_hasc>
        <name>Al Hudud ash Shamaliyah</name>
        <admin>Saudi Arabia</admin>
        <type_en>Region</type_en>
        <region/>
        <woe_id>2346961</woe_id>
        <longitude>43</longitude>
        <woe_name>Al Hudud ash Shamaliyah</woe_name>
        <fips>SA15</fips>
        <woe_label>Al Hudud ash Shamaliyah, SA, Saudi Arabia</woe_label>
        <latitude>29</latitude>
        <iso_a2>SA</iso_a2>
        <postal>HS</postal>
        <type>Emirate|Mintaqah</type>
        <id>SA.HS</id>
      </desc>
    </path>
    <path d="M 195.0318 184.2718 192.3418 183.804 179.9444 188.2483 167.7808 194.564 162.1669 195.8505 149.6525 201.1136 144.3894 205.6749 142.752 204.3884 142.1672 204.1545 141.3485 204.1545 140.179 204.2714 139.2433 204.5054 135.0328 206.2597 134.2141 206.3767 133.3954 206.2597 132.6937 205.6749 132.2259 205.0901 131.5241 202.868 130.0037 202.868 129.4189 202.751 126.9628 201.5814 123.9219 202.4001 116.4367 201.3475 110.9397 199.3592 109.5362 198.5405 105.6766 193.0436 106.1444 180.2952 105.7936 178.6578 104.507 177.9561 103.8053 178.19 101.7001 179.9444 99.3609 181.2309 98.7761 181.6987 94.4487 188.0144 93.63 188.2483 88.0161 187.5466 76.2034 184.2718 64.2738 186.494 61.8177 185.5583 54.3324 174.0965 53.2798 173.0439 51.1746 171.5235 44.9759 169.5352 36.0871 169.5352 29.4206 170.2369 26.8475 171.0556 24.9762 172.2252 24.1575 172.3422 17.1401 170.7048 15.9705 170.5878 14.9179 170.5878 12.1109 170.4708 11.6431 170.12 17.0231 153.629 51.6424 162.4008 66.379 152.3425 75.3847 139.8281 99.9457 135.7346 105.6766 124.3897 116.6706 119.0097 86.9635 80.6478 119.7115 73.2795 115.0332 86.9635 114.9162 91.6418 124.1558 104.741 127.6645 105.6766 155.6173 104.507 176.6696 108.7175 182.1666 112.811 186.1431 113.9806 208.248 115.0332 217.3706 121.5828 228.4816 124.1558 232.9259 132.2259 239.5925 138.1907 239.1247 140.4129 234.9142 143.8046 203.5697 162.7517 202.0493 165.6756 200.6458 178.5409 195.0318 184.2718 Z" id="SA.JF" fill="#cee3f5" stroke="#6e6e6e" stroke-width="0.4">
      <desc>
        <labelrank>4</labelrank>
        <code_hasc>SA.JF</code_hasc>
        <name>Al Jawf</name>
        <admin>Saudi Arabia</admin>
        <type_en>Region</type_en>
        <region/>
        <woe_id>2346950</woe_id>
        <longitude>38</longitude>
        <woe_name>Al Jawf</woe_name>
        <fips>SA03</fips>
        <woe_label>Al Jawf, SA, Saudi Arabia</woe_label>
        <latitude>29</latitude>
        <iso_a2>SA</iso_a2>
        <postal>JF</postal>
        <type>Emirate|Mintaqah</type>
        <id>SA.JF</id>
      </desc>
    </path>
    <path d="M 236.2007 483.2141 234.4464 488.8281 235.8499 494.0912 229.4172 499.3542 227.8968 505.6699 224.2711 513.0382 217.2537 514.3247 211.8737 527.307 207.3123 528.2426 199.3592 521.2252 198.6575 506.8395 197.4879 505.0851 194.3301 503.9155 193.6284 501.9273 197.6049 498.0677 205.441 495.7286 209.3006 488.3603 208.8328 480.758 210.821 478.068 213.1602 477.9511 214.9145 479.0037 218.1893 484.7346 227.429 483.565 232.809 481.1089 236.2007 483.2141 Z" id="SA.BA" fill="#cee3f5" stroke="#6e6e6e" stroke-width="0.4">
      <desc>
        <labelrank>4</labelrank>
        <code_hasc>SA.BA</code_hasc>
        <name>Al Bahah</name>
        <admin>Saudi Arabia</admin>
        <type_en>Region</type_en>
        <region/>
        <woe_id>2346949</woe_id>
        <longitude>41</longitude>
        <woe_name>Al Bahah</woe_name>
        <fips>SA02</fips>
        <woe_label>Al Baha, SA, Saudi Arabia</woe_label>
        <latitude>20</latitude>
        <iso_a2>SA</iso_a2>
        <postal>BA</postal>
        <type>Emirate|Mintaqah</type>
        <id>SA.BA</id>
      </desc>
    </path>
    <path d="M 320.9946 524.5 320.5268 531.0496 316.5503 533.8566 315.4977 536.0788 316.9011 543.2131 315.7316 548.3592 313.0416 550.6984 305.9072 553.3884 302.9832 558.4176 290.7027 571.1659 291.6384 579.2359 290.2349 599.5865 284.9718 596.6625 282.3988 596.5456 279.9427 597.8321 277.0188 593.5047 276.434 592.686 272.4574 590.5808 270.3522 586.8381 266.8435 583.7973 265.557 579.2359 263.9196 579.002 262.3991 579.9377 260.8787 580.9903 260.2939 581.5751 259.8261 582.2768 259.0074 583.6803 257.0191 590.3468 256.5513 590.9316 255.8495 591.1655 255.1478 591.1655 254.3291 590.8147 253.5104 590.2299 250.3525 586.8381 249.7678 586.0194 248.7151 583.5633 248.0134 582.8616 239.9434 581.809 238.5399 580.5225 238.189 579.7038 237.7212 578.4172 237.4873 578.0664 237.0194 577.4816 236.0838 576.8968 235.2651 576.6629 232.2242 576.8968 231.5225 576.6629 230.9377 576.0781 230.5868 574.3237 231.2885 567.7741 230.9377 567.1893 229.6511 566.7215 225.6746 566.9554 227.195 560.4058 224.3881 551.4001 220.8794 549.8797 215.0315 549.4119 213.3941 547.7745 212.6924 544.7336 213.628 535.2601 216.0841 536.4296 220.7624 533.7396 227.195 533.9735 229.3003 531.8683 230.4698 528.2426 228.5985 522.2778 229.8851 515.2604 227.8968 512.5704 224.2711 513.0382 227.8968 505.6699 229.4172 499.3542 235.8499 494.0912 234.4464 488.8281 236.2007 483.2141 240.1773 491.5181 243.8029 493.5064 266.7265 477.3663 276.9018 475.1441 282.0479 476.0798 292.2232 471.2845 297.1354 475.7289 305.3224 486.372 305.3224 489.4129 302.2815 494.559 301.1119 502.8629 306.9598 511.6347 320.9946 524.5 Z" id="SA.AS" fill="#cee3f5" stroke="#6e6e6e" stroke-width="0.4">
      <desc>
        <labelrank>4</labelrank>
        <code_hasc>SA.AS</code_hasc>
        <name>`Asir</name>
        <admin>Saudi Arabia</admin>
        <type_en>Region</type_en>
        <region/>
        <woe_id>2346955</woe_id>
        <longitude>42</longitude>
        <woe_name>`Asir</woe_name>
        <fips>SA11</fips>
        <woe_label>Asir, SA, Saudi Arabia</woe_label>
        <latitude>19</latitude>
        <iso_a2>SA</iso_a2>
        <postal>AS</postal>
        <type>Emirate|Mintaqah</type>
        <id>SA.AS</id>
      </desc>
    </path>
    <path d="M 229.1833 623.7966 233.9786 625.0831 235.0312 624.7322 233.5107 623.6796 234.4464 621.6914 236.4347 622.3931 236.7855 624.1475 239.2416 625.5509 238.8908 629.9953 235.2651 628.007 236.7855 627.1883 235.7329 626.0188 231.8733 626.9544 228.1307 624.6153 226.7272 622.0422 225.0898 621.4574 224.3881 618.4166 226.8442 619.82 229.1833 623.7966 Z M 230.9377 616.8961 230.9377 619.0013 232.3412 620.1709 230.4698 620.6387 232.692 622.1592 232.809 623.4457 230.002 622.3931 227.0781 618.6505 230.3529 616.4283 227.7798 614.3231 230.119 615.0248 230.9377 616.8961 Z M 237.7212 578.4172 238.5399 580.5225 239.9434 581.809 248.0134 582.8616 248.7151 583.5633 249.7678 586.0194 250.3525 586.8381 253.5104 590.2299 254.3291 590.8147 255.1478 591.1655 255.8495 591.1655 256.5513 590.9316 257.0191 590.3468 257.37 589.6451 259.0074 583.6803 259.8261 582.2768 260.2939 581.5751 260.8787 580.9903 262.3991 579.9377 263.9196 579.002 265.557 579.2359 266.0248 579.8207 266.8435 583.7973 270.3522 586.8381 272.4574 590.5808 276.434 592.686 277.0188 593.5047 279.9427 597.8321 278.5392 598.6508 275.4983 601.3408 273.744 603.446 276.6679 605.4343 273.3931 607.6565 271.9896 612.2178 272.5744 614.9078 271.7557 618.5335 272.8083 621.3405 275.1475 622.744 273.627 624.8492 273.9779 627.4223 270.7031 627.1883 268.9487 632.1005 264.3874 634.0888 263.1009 636.8958 260.1769 637.9484 260.4109 635.0245 258.1887 631.6327 258.5395 627.0714 257.7208 624.9662 255.0308 621.8083 252.9256 621.2235 251.756 619.4692 251.873 614.9078 248.5982 613.2704 247.3117 609.4109 245.4403 608.3582 246.376 610.5804 245.5573 614.0891 243.686 598.5338 228.8324 584.9668 226.0255 584.382 222.2828 579.7038 222.1659 577.9494 219.5928 573.8559 220.1776 572.3355 220.6454 571.7507 221.1133 571.1659 221.815 570.6981 224.0372 569.5285 224.622 568.9437 225.0898 568.3589 225.6746 566.9554 229.6511 566.7215 230.9377 567.1893 231.2885 567.7741 230.5868 574.3237 230.9377 576.0781 231.5225 576.6629 232.2242 576.8968 235.2651 576.6629 236.0838 576.8968 237.0194 577.4816 237.4873 578.0664 237.7212 578.4172 Z" id="SA.JZ" fill="#cee3f5" stroke="#6e6e6e" stroke-width="0.4">
      <desc>
        <labelrank>7</labelrank>
        <code_hasc>SA.JZ</code_hasc>
        <name>Jizan</name>
        <admin>Saudi Arabia</admin>
        <type_en>Region</type_en>
        <region/>
        <woe_id>2346956</woe_id>
        <longitude>42</longitude>
        <woe_name>Jizan</woe_name>
        <fips>SA17</fips>
        <woe_label>Jizan, SA, Saudi Arabia</woe_label>
        <latitude>17</latitude>
        <iso_a2>SA</iso_a2>
        <postal>JZ</postal>
        <type>Emirate|Mintaqah</type>
        <id>SA.JZ</id>
      </desc>
    </path>
    <path d="M 237.0194 362.5144 236.9025 368.9471 240.879 373.0405 244.5047 386.8415 249.4169 398.3033 253.5104 400.1746 268.3639 401.4611 270.5861 403.4494 269.7674 411.0516 271.4048 413.9755 274.4457 415.0282 280.6444 413.8586 286.4923 415.8468 285.5566 422.8643 287.0771 435.6126 284.2701 441.3435 284.504 448.127 282.8666 456.431 292.2232 471.2845 282.0479 476.0798 276.9018 475.1441 266.7265 477.3663 243.8029 493.5064 240.1773 491.5181 236.2007 483.2141 232.809 481.1089 227.429 483.565 218.1893 484.7346 214.9145 479.0037 213.1602 477.9511 210.821 478.068 208.8328 480.758 209.3006 488.3603 205.441 495.7286 197.6049 498.0677 193.6284 501.9273 194.3301 503.9155 197.4879 505.0851 198.6575 506.8395 199.3592 521.2252 207.3123 528.2426 211.8737 527.307 217.2537 514.3247 224.2711 513.0382 227.8968 512.5704 229.8851 515.2604 228.5985 522.2778 230.4698 528.2426 229.3003 531.8683 227.195 533.9735 220.7624 533.7396 216.0841 536.4296 213.628 535.2601 212.6924 544.7336 213.3941 547.7745 215.0315 549.4119 220.8794 549.8797 224.3881 551.4001 227.195 560.4058 225.6746 566.9554 225.0898 568.3589 224.622 568.9437 224.0372 569.5285 221.815 570.6981 221.1133 571.1659 220.6454 571.7507 220.1776 572.3355 219.5928 573.8559 218.3063 571.3998 216.0841 570.1133 216.5519 568.3589 215.3824 568.008 214.2128 561.1076 211.5228 557.4819 208.7158 556.5462 206.6106 552.6867 208.0141 547.7745 205.3241 546.371 204.1545 543.9149 205.6749 539.2366 202.0493 537.0144 200.9966 531.9853 198.3066 529.0613 198.0727 523.0965 191.757 519.2369 192.9266 519.4708 193.1605 516.196 191.4062 513.0382 188.3653 512.3365 188.3653 513.623 184.0379 508.009 184.3887 506.1377 176.9035 501.3425 174.4474 498.0677 171.8743 497.132 169.1843 494.2081 166.0265 494.559 163.1025 492.9216 164.2721 494.7929 158.1903 491.2842 151.8747 483.2141 152.8103 482.3954 149.4186 478.068 150.0034 476.5476 147.1964 475.6119 147.1964 473.9745 148.366 474.7932 148.132 473.6237 145.0912 472.2202 144.9742 470.1149 142.9859 469.881 141.2316 464.7349 139.1263 462.9806 139.0094 459.9397 136.2024 455.3784 139.3603 452.2205 139.1263 448.4779 138.5416 447.1914 137.7229 448.0101 136.9042 445.9048 136.5533 441.6944 137.7229 439.5891 136.2024 440.4078 132.5767 433.0395 131.992 429.9987 133.0446 429.063 134.565 430.2326 136.0855 421.8117 139.8281 415.8468 138.8924 415.2621 137.255 417.1334 137.9568 410.4668 134.9159 403.9172 135.9685 402.3968 133.7463 399.9407 134.4481 403.0985 132.3428 399.4729 130.7054 395.7302 132.6937 398.7711 134.4481 398.5372 132.2259 395.0285 129.068 393.625 128.4832 392.1046 129.3019 388.128 128.6002 388.4789 126.495 384.8532 124.5067 378.0697 133.9802 377.7188 142.2842 387.5432 144.1555 388.3619 150.1203 387.8941 152.3425 392.1046 162.1669 389.7654 166.7282 389.7654 168.0147 393.3911 165.4417 401.5781 171.4065 405.5546 171.6404 413.0399 176.2017 413.8586 182.8683 409.5312 191.5231 410.9347 196.3184 404.8529 210.938 393.0402 217.6046 389.8824 218.4233 387.3093 213.5111 384.1515 213.1602 381.8123 227.8968 373.5084 229.5342 370.3505 228.4816 364.0349 229.1833 362.6314 232.692 361.8127 237.0194 362.5144 Z" id="SA.MK" fill="#cee3f5" stroke="#6e6e6e" stroke-width="0.4">
      <desc>
        <labelrank>6</labelrank>
        <code_hasc>SA.MK</code_hasc>
        <name>Makkah</name>
        <admin>Saudi Arabia</admin>
        <type_en>Region</type_en>
        <region/>
        <woe_id>2346959</woe_id>
        <longitude>40</longitude>
        <woe_name>Makkah</woe_name>
        <fips>SA14</fips>
        <woe_label>Makka, SA, Saudi Arabia</woe_label>
        <latitude>21</latitude>
        <iso_a2>SA</iso_a2>
        <postal>MK</postal>
        <type>Emirate|Mintaqah</type>
        <id>SA.MK</id>
      </desc>
    </path>
  </g>
</svg>