<?xml version="1.0" encoding="UTF-8"?>
<svg xmlns="http://www.w3.org/2000/svg" width="700" height="700">
  <g id="togo">
    <path d="M 458.2736 385.6508 459.7797 387.2073 461.2048 399.0766 460.492 436.9573 460.6576 575.2286 458.142 575.9644 447.7024 575.8612 450.3572 585.6965 452.128 588.161 450.2743 589.5021 446.5859 595.094 443.1936 597.1633 440.8337 597.9921 438.3404 598.0378 432.2301 596.6136 424.7588 598.422 415.1467 605.4614 407.3524 613.0962 401.2014 610.6613 398.6002 606.8631 395.7757 605.5086 394.5598 603.9278 390.9336 602.9917 390.7478 601.1538 367.5383 599.6118 363.5246 600.7421 361.5822 602.0742 360.5206 604.647 359.9476 618.2355 357.7371 623.6346 352.6905 628.4746 348.5486 633.9332 341.4028 637.7663 334.2277 638.7789 336.2372 633.5995 334.4719 631.8646 328.0521 631.5704 326.8469 629.366 323.1005 626.2663 322.3422 623.3702 323.5768 616.3899 323.4447 614.144 322.2831 611.9038 317.8669 608.6499 315.4961 608.1376 310.6218 599.4709 307.6162 597.3709 307.1799 596.0457 308.1241 593.14 311.065 588.2994 311.4058 585.9699 309.7916 583.0367 305.8773 579.984 304.3022 577.8588 314.1889 575.6222 315.9802 574.6446 318.6481 569.8957 318.1971 557.6437 318.6968 552.2258 322.0682 543.9483 323.387 537.5337 325.2557 532.4664 325.4427 529.4712 323.2776 520.3853 322.3704 519.1719 317.2777 521.0181 314.5338 521.4966 312.0228 521.1396 307.6895 517.2752 305.4966 511.1697 304.8502 504.3505 305.4244 496.3153 306.7985 493.1407 308.2049 491.79 314.1121 489.4564 314.9074 487.6015 315.3382 479.5516 317.1233 476.7441 321.1142 477.4387 321.0844 467.4985 319.8741 459.5824 319.9405 450.6265 329.6712 449.5549 337.1026 445.2269 349.5731 443.4383 352.7323 440.459 356.0513 440.9482 371.2978 439.3412 385.4426 442.8511 403.76 439.1911 408.1991 435.9469 407.1623 433.4727 409.4931 428.2787 409.5324 424.0899 411.4009 413.6471 411.0987 409.3961 408.7128 406.1332 408.7722 402.3448 406.8181 394.9625 406.8486 388.1572 407.6537 384.8225 458.2736 385.6508 Z" id="TG.PL" fill="#cee3f5" stroke="#6e6e6e" stroke-width="0.4">
      <desc>
        <labelrank>6</labelrank>
        <code_hasc>TG.PL</code_hasc>
        <name>Plateaux</name>
        <admin>Togo</admin>
        <type_en>Region</type_en>
        <region/>
        <woe_id>56048438</woe_id>
        <longitude>1</longitude>
        <woe_name>Plateaux</woe_name>
        <fips>TO25</fips>
        <woe_label>Plateaux Region, TG, Togo</woe_label>
        <latitude>7</latitude>
        <iso_a2>TG</iso_a2>
        <postal>PL</postal>
        <type>Région</type>
        <id>TG.PL</id>
      </desc>
    </path>
    <path d="M 334.2277 638.7789 341.4028 637.7663 348.5486 633.9332 352.6905 628.4746 357.7371 623.6346 359.9476 618.2355 360.5206 604.647 361.5822 602.0742 363.5246 600.7421 367.5383 599.6118 390.7478 601.1538 390.9336 602.9917 394.5598 603.9278 395.7757 605.5086 398.6002 606.8631 401.2014 610.6613 407.3524 613.0962 415.1467 605.4614 424.7588 598.422 432.2301 596.6136 438.3404 598.0378 440.8337 597.9921 443.1936 597.1633 446.5859 595.094 450.2743 589.5021 452.128 588.161 455.4117 591.1933 455.6917 593.1166 454.7106 601.2825 457.1576 609.8407 456.5942 611.9795 453.4383 616.1727 452.286 619.2711 454.9498 622.2804 456.4568 625.054 456.1468 628.5622 456.5859 629.9785 460.7346 633.7884 464.3928 634.17 464.9291 636.7156 468.0943 639.7934 468.2084 645.3571 473.2754 648.5288 476.821 654.2439 482.0626 674.7873 479.1877 674.952 461.4001 679.1028 458.5356 680.6068 459.5278 683.4947 433.2008 687.8397 411.2355 694.4409 401.3292 698.7252 399.3678 699 399.7404 694.1383 398.1167 691.9384 386.6601 690.5974 384.7606 689.622 380.4175 683.8694 377.2478 682.0669 375.1132 678.9993 371.5362 667.8977 360.9789 667.8131 358.1494 667.0438 351.8829 660.2617 341.5929 654.6659 338.6879 651.6716 334.8698 645.0229 334.027 641.6227 334.2277 638.7789 Z" id="TG.MA" fill="#cee3f5" stroke="#6e6e6e" stroke-width="0.4">
      <desc>
        <labelrank>6</labelrank>
        <code_hasc>TG.MA</code_hasc>
        <name>Maritime</name>
        <admin>Togo</admin>
        <type_en>Region</type_en>
        <region/>
        <woe_id>56048437</woe_id>
        <longitude>1</longitude>
        <woe_name>Maritime</woe_name>
        <fips>TO24</fips>
        <woe_label>Maritime Region, TG, Togo</woe_label>
        <latitude>6</latitude>
        <iso_a2>TG</iso_a2>
        <postal>MA</postal>
        <type>Région</type>
        <id>TG.MA</id>
      </desc>
    </path>
    <path d="M 433.4984 257.6312 428.0687 261.9444 425.499 263.2622 423.0707 263.1652 404.0678 268.3956 399.7561 268.4167 390.8069 266.8903 375.7979 269.311 374.1631 271.9938 373.7399 275.2446 373.9317 282.8996 375.6285 288.3321 368.9121 294.7225 366.6244 295.7857 357.2911 297.0191 350.6599 295.6286 346.3122 293.9792 345.5358 291.9044 344.2407 290.9597 338.6046 290.8391 335.8301 294.5797 332.4595 296.9648 330.4394 299.3655 326.2293 300.608 324.186 305.4257 317.8856 309.7544 317.7201 311.1408 318.9337 312.6291 318.3241 314.4917 313.8076 315.5706 311.0384 318.0626 304.3459 320.1838 307.4039 315.8641 305.7283 309.0868 299.139 297.7837 297.324 293.4759 298.7686 289.2517 301.127 284.9696 301.8843 278.3518 305.8968 274.2744 307.5794 271.461 307.5522 269.2543 305.8814 264.2897 306.0285 261.5621 310.1182 257.9288 310.6987 256.1913 312.282 245.1309 311.4525 241.878 308.9822 239.6898 304.8031 238.1257 306.0479 234.8946 304.9446 232.2939 295.0935 229.1459 289.5631 229.412 284.3787 230.8317 282.6957 235.8905 281.6449 236.7623 275.342 238.906 272.7808 239.3975 270.2365 239.0984 269.6261 237.2407 270.7609 235.6687 269.8125 233.4506 269.8424 231.4799 277.727 229.5498 279.494 228.3546 280.0307 226.9245 278.8352 225.4165 273.3843 225.9316 269.6118 223.4549 269.2316 222.1713 270.2499 217.3934 280.4621 218.054 282.931 216.4709 284.8063 217.7229 287.3376 218.1717 289.568 217.5593 290.5339 215.6603 289.3774 212.7831 286.6627 212.24 281.0791 213.6129 276.8019 213.1213 274.635 210.2032 274.568 206.1572 276.5657 202.2386 280.194 206.109 282.4908 207.404 284.9562 207.1157 286.4032 205.4209 286.5127 200.4824 285.8899 198.4424 283.3024 194.4733 283.1241 191.8966 286.1537 181.1619 285.9279 172.1074 287.051 170.0168 289.7891 167.2881 289.8831 166.1551 287.1377 159.1908 287.9773 156.1788 287.1729 154.8096 289.58 154.3711 291.697 154.7385 293.3257 153.9263 296.8752 158.9426 296.8231 162.8943 297.3875 164.1683 300.3385 164.953 302.7733 166.4738 310.3902 167.2967 310.6594 168.275 309.8804 170.0395 310.2534 171.3654 315.0765 176.1038 326.7588 174.8648 329.5588 176.0574 332.1974 175.9793 332.3868 173.2308 330.728 167.0759 333.5447 159.7188 333.5876 153.6009 334.5321 150.3214 340.595 140.6592 340.9469 138.9631 340.4171 135.6841 342.5577 134.5297 346.7427 134.8267 348.2895 135.5238 349.8124 137.6723 356.2741 134.419 359.3396 134.7073 361.7539 136.0209 364.9562 133.7892 371.9089 134.3482 373.6444 133.2114 376.1225 129.4632 421.7258 160.1684 423.4596 164.8846 423.8722 201.999 424.9191 208.4628 424.2316 215.7081 420.3367 222.988 422.1376 229.1946 424.1574 231.2737 426.5189 230.1375 428.0761 234.0693 428.9484 248.0912 430.9112 253.6151 433.4984 257.6312 Z" id="TG.KA" fill="#cee3f5" stroke="#6e6e6e" stroke-width="0.4">
      <desc>
        <labelrank>6</labelrank>
        <code_hasc>TG.KA</code_hasc>
        <name>Kara</name>
        <admin>Togo</admin>
        <type_en>Region</type_en>
        <region/>
        <woe_id>56048435</woe_id>
        <longitude>0</longitude>
        <woe_name>Kara</woe_name>
        <fips>TO23</fips>
        <woe_label>Kara Region, TG, Togo</woe_label>
        <latitude>9</latitude>
        <iso_a2>TG</iso_a2>
        <postal>KA</postal>
        <type>Région</type>
        <id>TG.KA</id>
      </desc>
    </path>
    <path d="M 458.2736 385.6508 407.6537 384.8225 406.8486 388.1572 406.8181 394.9625 408.7722 402.3448 408.7128 406.1332 411.0987 409.3961 411.4009 413.6471 409.5324 424.0899 409.4931 428.2787 407.1623 433.4727 408.1991 435.9469 403.76 439.1911 385.4426 442.8511 371.2978 439.3412 356.0513 440.9482 352.7323 440.459 349.5731 443.4383 337.1026 445.2269 329.6712 449.5549 319.9405 450.6265 318.638 441.4611 318.7264 433.6524 317.488 428.4818 316.3069 418.5701 318.0849 416.7678 318.851 414.981 318.6201 413.0666 316.0486 409.3825 316.2161 407.592 319.1446 406.3939 326.0741 400.8035 334.3892 396.7939 335.4412 394.6941 334.9196 391.2872 332.2203 390.063 331.6922 382.9662 326.4346 378.562 322.3108 368.2141 313.3099 363.9277 309.7384 361.316 304.0952 355.5006 298.6105 351.7165 293.1816 344.0374 289.2062 335.3338 288.0764 328.4735 289.0212 327.1676 290.7596 326.8578 292.3845 327.4986 293.8358 330.62 295.2912 329.0315 296.225 326.724 295.4888 326.1754 296.9435 325.7026 301.3911 326.6234 302.9114 325.9077 304.3459 320.1838 311.0384 318.0626 313.8076 315.5706 318.3241 314.4917 318.9337 312.6291 317.7201 311.1408 317.8856 309.7544 324.186 305.4257 326.2293 300.608 330.4394 299.3655 332.4595 296.9648 335.8301 294.5797 338.6046 290.8391 344.2407 290.9597 345.5358 291.9044 346.3122 293.9792 350.6599 295.6286 357.2911 297.0191 366.6244 295.7857 368.9121 294.7225 375.6285 288.3321 373.9317 282.8996 373.7399 275.2446 374.1631 271.9938 375.7979 269.311 390.8069 266.8903 399.7561 268.4167 404.0678 268.3956 423.0707 263.1652 425.499 263.2622 428.0687 261.9444 433.4984 257.6312 453.6275 279.2368 456.4351 284.2047 457.5162 287.5397 458.2406 291.3164 458.869 359.1976 459.754 362.3777 463.8742 368.2423 463.3533 370.6848 458.8011 378.1304 457.8796 385.0743 458.2736 385.6508 Z" id="TG.CE" fill="#cee3f5" stroke="#6e6e6e" stroke-width="0.4">
      <desc>
        <labelrank>6</labelrank>
        <code_hasc>TG.CE</code_hasc>
        <name>Centre</name>
        <admin>Togo</admin>
        <type_en>Region</type_en>
        <region/>
        <woe_id>56048436</woe_id>
        <longitude>1</longitude>
        <woe_name>Centre</woe_name>
        <fips>TO22</fips>
        <woe_label>Centrale Region, TG, Togo</woe_label>
        <latitude>8</latitude>
        <iso_a2>TG</iso_a2>
        <postal>CE</postal>
        <type>Région</type>
        <id>TG.CE</id>
      </desc>
    </path>
    <path d="M 376.1225 129.4632 373.6444 133.2114 371.9089 134.3482 364.9562 133.7892 361.7539 136.0209 359.3396 134.7073 356.2741 134.419 349.8124 137.6723 348.2895 135.5238 346.7427 134.8267 342.5577 134.5297 340.4171 135.6841 340.9469 138.9631 340.595 140.6592 334.5321 150.3214 333.5876 153.6009 333.5447 159.7188 330.728 167.0759 332.3868 173.2308 332.1974 175.9793 329.5588 176.0574 326.7588 174.8648 315.0765 176.1038 310.2534 171.3654 309.8804 170.0395 310.6594 168.275 310.3902 167.2967 302.7733 166.4738 300.3385 164.953 297.3875 164.1683 296.8231 162.8943 296.8752 158.9426 293.3257 153.9263 293.8343 151.6367 293.4454 148.8331 289.1088 146.402 287.7946 142.8147 288.405 128.3553 290.4931 122.1238 293.8784 119.6478 289.7904 116.6707 281.8587 117.6277 283.0864 114.8373 277.832 107.968 278.4555 103.7954 277.1146 102.4282 275.7151 102.0942 271.62 103.4859 266.6802 101.8292 265.3512 103.9388 264.3021 104.0368 257.0446 90.4809 254.8956 88.1573 247.6879 83.5394 243.9298 77.7687 238.422 75.5368 235.3724 73.1815 230.5846 72.3043 227.8941 70.5565 226.5246 67.6803 226.642 64.7938 228.793 53.5688 231.8135 48.7328 235.8195 45.7528 236.0887 44.2849 235.3228 40.2125 238.4251 26.3319 239.1027 25.0363 242.3835 22.2065 243.1636 15.5736 242.7681 11.2832 240.7369 8.0211 236.189 6.2325 226.4517 7.66 223.9422 6.9896 218.9307 3.3009 217.9374 1 307.026 20.0942 307.5693 21.0465 306.5889 23.3452 308.7892 23.9179 307.0865 29.78 324.2246 23.9217 332.8162 22.3333 363.7396 21.9782 360.1752 30.4737 359.7601 33.2203 361.3875 39.0312 359.2244 43.0958 358.2771 49.1533 356.4917 51.6866 349.0027 58.7204 347.0034 63.3331 348.0037 75.8087 347.8662 81.2177 345.802 88.9123 343.79 103.1508 343.8808 106.3338 344.9707 108.4261 376.1225 129.4632 Z" id="TG.SA" fill="#cee3f5" stroke="#6e6e6e" stroke-width="0.4">
      <desc>
        <labelrank>6</labelrank>
        <code_hasc>TG.SA</code_hasc>
        <name>Savanes</name>
        <admin>Togo</admin>
        <type_en>Region</type_en>
        <region/>
        <woe_id>56048434</woe_id>
        <longitude>0</longitude>
        <woe_name>Savanes</woe_name>
        <fips>TO26</fips>
        <woe_label>Savanes Region, TG, Togo</woe_label>
        <latitude>10</latitude>
        <iso_a2>TG</iso_a2>
        <postal>SA</postal>
        <type>Région</type>
        <id>TG.SA</id>
      </desc>
    </path>
  </g>
</svg>