<?xml version="1.0" encoding="UTF-8"?>
<svg xmlns="http://www.w3.org/2000/svg" width="700" height="700">
  <g id="gabon">
    <path d="M 122.4493 324.5247 117.2679 318.2442 103.6078 311.1001 92.7739 290.2959 98.2694 258.1868 91.9104 228.3544 97.1703 220.2682 100.8601 225.6852 98.8189 239.8163 106.0415 236.7546 113.1856 249.0016 114.9912 239.0313 121.9783 241.308 124.255 247.4314 128.9654 242.8781 132.8122 245.8613 138.3861 244.9192 149.6125 257.4018 143.5675 246.0183 150.3976 246.7249 160.4464 239.0313 173.557 239.0313 163.5082 235.891 147.3358 239.8163 133.5187 234.6349 121.9783 224.5076 114.2847 227.4908 103.1368 205.4305 92.6954 199.2285 93.873 190.1218 118.9165 183.9198 121.1932 190.6714 112.0865 190.9069 110.5164 193.1836 116.4043 192.5555 119.7016 196.9519 122.7634 193.1836 122.7634 203.0754 126.6887 207.6287 130.5355 193.1836 127.8663 169.9457 121.5073 152.5173 124.883 146.7863 130.5355 145.9227 133.5187 141.9189 142.0759 141.7619 147.4144 151.8892 148.749 148.5919 152.1247 148.9845 164.4502 156.8351 167.5905 155.108 168.5326 148.749 217.3635 148.1994 216.7355 164.0577 215.0083 169.6316 211.6325 178.3459 211.7896 179.916 214.1448 183.2918 215.5579 187.6096 216.1074 188.6302 216.971 188.8657 218.6196 188.5517 277.1854 168.4541 278.2059 168.4541 278.677 168.7681 279.6191 184.7049 278.4415 187.7666 277.8919 190.4358 277.6564 191.1424 274.9087 194.1256 268.9422 207.7857 264.3103 222.3094 264.0748 223.4085 264.8599 227.0983 265.0169 228.4329 264.9384 229.061 264.7814 229.6105 264.2318 230.9451 263.3682 231.9657 262.7402 232.5152 261.3271 234.1639 245.7828 236.5976 241.7005 244.6052 241.622 244.9978 241.7005 246.3324 241.936 247.1174 242.9566 249.2371 243.0351 250.1792 242.4855 251.1998 238.4817 253.3979 237.3041 254.8896 234.9489 257.2447 233.1433 258.2653 231.8087 259.7569 231.8087 260.071 232.2797 261.2486 232.6723 263.4467 232.7508 264.5458 232.6723 265.0169 232.2797 265.4879 230.7881 265.9589 230.0815 266.3515 229.218 268.6282 215.6364 279.148 204.1744 285.5855 196.6378 293.4362 183.0562 301.9934 172.8504 306.1542 170.8878 306.3112 170.2597 305.6047 168.6111 298.068 168.14 297.0475 167.2765 296.1054 166.3344 295.4773 165.2353 295.0848 159.8184 293.7502 149.848 300.8158 146.7078 300.7373 144.4311 298.7746 143.332 298.5391 141.4479 299.7952 138.6216 301.1298 133.0477 301.7578 128.4943 303.485 122.1353 306.4682 121.5073 307.4103 123.0774 321.777 122.4493 324.5247 Z" id="GA.ES" fill="#cee3f5" stroke="#6e6e6e" stroke-width="0.4">
      <desc>
        <labelrank>5</labelrank>
        <code_hasc>GA.ES</code_hasc>
        <name>Estuaire</name>
        <admin>Gabon</admin>
        <type_en>Province</type_en>
        <region/>
        <woe_id>2345449</woe_id>
        <longitude>10</longitude>
        <woe_name>Estuaire</woe_name>
        <fips>GB01</fips>
        <woe_label>Estuaire, GA, Gabon</woe_label>
        <latitude>0</latitude>
        <iso_a2>GA</iso_a2>
        <postal>ES</postal>
        <type>Province</type>
        <id>GA.ES</id>
      </desc>
    </path>
    <path d="M 607.2261 270.2768 588.6986 261.0916 566.2458 256.2242 539.0826 255.4391 521.4186 250.1792 517.3363 238.4032 513.0184 235.1845 507.7585 235.4985 501.321 231.9657 495.119 235.8125 484.2851 234.0069 478.7897 228.9039 468.8979 232.3582 464.1875 229.1395 446.6021 304.8981 428.9381 313.7693 346.1139 343.9943 340.6185 326.8799 330.8052 314.4759 328.5285 300.9728 321.5414 290.1389 319.9713 273.26 314.4759 267.9216 317.6161 259.8355 322.9546 255.1251 346.9775 242.1715 348.3906 234.3209 336.5362 220.7393 418.2613 165.3923 420.2239 148.5134 435.0616 122.2923 528.2487 123.6269 537.905 123.2344 549.7594 115.6193 568.4439 116.8754 579.5918 108.5537 592.2314 106.6696 596.7062 99.9965 619.7871 102.3517 625.2825 106.434 635.9594 104.7069 648.7559 112.7145 651.5037 133.9113 658.6477 138.7001 664.7712 151.7322 672.3863 158.0912 668.9321 162.3306 670.0312 168.9251 657.7842 182.5852 656.6851 190.6714 645.8512 199.4641 628.3443 199.7781 624.89 204.4885 626.4601 211.4755 613.6636 220.8963 605.3419 238.0892 608.0111 255.1251 612.2505 257.5588 610.9159 265.8804 607.2261 270.2768 Z" id="GA.OI" fill="#cee3f5" stroke="#6e6e6e" stroke-width="0.4">
      <desc>
        <labelrank>5</labelrank>
        <code_hasc>GA.OI</code_hasc>
        <name>Ogooué-Ivindo</name>
        <admin>Gabon</admin>
        <type_en>Province</type_en>
        <region/>
        <woe_id>2345454</woe_id>
        <longitude>12</longitude>
        <woe_name>Ogooué-Ivindo</woe_name>
        <fips>GB06</fips>
        <woe_label>Ogooue-Ivindo, GA, Gabon</woe_label>
        <latitude>0</latitude>
        <iso_a2>GA</iso_a2>
        <postal>OI</postal>
        <type>Province</type>
        <id>GA.OI</id>
      </desc>
    </path>
    <path d="M 528.2487 123.6269 435.0616 122.2923 420.2239 148.5134 418.2613 165.3923 336.5362 220.7393 348.3906 234.3209 261.3271 234.1639 262.0336 233.5358 262.7402 232.5152 263.3682 231.9657 264.2318 230.9451 264.7814 229.6105 264.9384 229.061 265.0169 228.4329 264.8599 227.0983 264.0748 223.4085 264.3103 222.3094 264.5458 221.6814 266.116 219.7972 268.9422 207.7857 274.9087 194.1256 277.6564 191.1424 277.8919 190.4358 278.4415 187.7666 279.6191 184.7049 278.677 168.7681 278.2059 168.4541 277.1854 168.4541 218.6196 188.5517 216.971 188.8657 216.1074 188.6302 215.5579 187.6096 214.1448 183.2918 211.7896 179.916 211.6325 178.3459 212.1036 176.1477 215.0083 169.6316 216.7355 164.0577 217.3635 148.1994 320.7564 148.5919 319.1863 18.5069 322.562 3.4337 356.7908 1 369.2733 5.7889 417.9473 5.7889 431.2933 1.9421 438.4374 5.0823 448.8788 3.9832 479.3392 10.5778 485.9338 7.516 511.9979 9.7142 522.3607 5.2393 535.9423 7.202 540.8882 12.8545 540.1031 29.2623 530.6824 37.6625 530.9964 41.8233 525.658 48.1038 528.8767 56.033 524.3234 64.1191 522.0467 82.4111 534.3722 100.7816 535.4713 111.3799 524.3234 119.8586 528.2487 123.6269 Z" id="GA.WN" fill="#cee3f5" stroke="#6e6e6e" stroke-width="0.4">
      <desc>
        <labelrank>5</labelrank>
        <code_hasc>GA.WN</code_hasc>
        <name>Wouleu-Ntem</name>
        <admin>Gabon</admin>
        <type_en>Province</type_en>
        <region/>
        <woe_id>2345457</woe_id>
        <longitude>11</longitude>
        <woe_name>Wouleu-Ntem</woe_name>
        <fips>GB09</fips>
        <woe_label>Woleu-Ntem, GA, Gabon</woe_label>
        <latitude>1</latitude>
        <iso_a2>GA</iso_a2>
        <postal>WN</postal>
        <type>Province</type>
        <id>GA.WN</id>
      </desc>
    </path>
    <path d="M 261.3271 234.1639 348.3906 234.3209 346.9775 242.1715 322.9546 255.1251 317.6161 259.8355 314.4759 267.9216 319.9713 273.26 321.5414 290.1389 328.5285 300.9728 330.8052 314.4759 340.6185 326.8799 346.1139 343.9943 326.0948 340.7755 300.8943 324.1322 274.9087 326.3303 268.0001 330.5697 263.4467 328.607 258.5008 332.3753 253.5549 328.6855 244.8407 329.7846 245.7043 335.2801 230.003 350.1178 228.5899 360.1666 223.5655 368.4097 217.9131 371.393 218.8551 376.1034 210.8475 389.5279 192.7125 387.4868 178.1888 400.0478 176.3832 399.1842 171.1233 398.3992 170.4952 398.1636 169.6316 397.7711 168.6111 397.1431 161.7025 390.8626 160.6819 389.6065 160.5249 388.5859 160.7604 387.5653 163.7437 382.0698 164.5287 379.7932 164.6857 378.6156 164.6857 377.5165 164.5287 376.3389 162.6446 372.021 162.5661 371.393 162.095 364.7984 156.8351 360.8731 147.7284 360.3236 144.6666 360.5591 142.4685 360.1666 141.5264 359.3815 139.7207 356.9478 134.3823 353.9646 129.8289 347.7626 122.4493 324.5247 121.5073 307.4103 122.1353 306.4682 128.4943 303.485 138.6216 301.1298 141.4479 299.7952 143.332 298.5391 144.4311 298.7746 146.7078 300.7373 149.848 300.8158 159.8184 293.7502 163.1156 294.9278 165.2353 295.0848 166.3344 295.4773 167.2765 296.1054 168.14 297.0475 170.2597 305.6047 170.8878 306.3112 172.8504 306.1542 183.0562 301.9934 196.6378 293.4362 204.1744 285.5855 215.6364 279.148 229.218 268.6282 230.0815 266.3515 230.7881 265.9589 232.2797 265.4879 232.6723 265.0169 232.7508 264.5458 232.6723 263.4467 232.2797 261.2486 231.8087 260.071 231.8087 259.7569 233.1433 258.2653 234.9489 257.2447 237.3041 254.8896 238.4817 253.3979 242.4855 251.1998 243.0351 250.1792 242.9566 249.2371 241.936 247.1174 241.7005 246.3324 241.7005 244.6052 242.407 243.3491 245.1548 240.3659 245.7828 236.5976 261.3271 234.1639 Z" id="GA.MO" fill="#cee3f5" stroke="#6e6e6e" stroke-width="0.4">
      <desc>
        <labelrank>5</labelrank>
        <code_hasc>GA.MO</code_hasc>
        <name>Moyen-Ogooué</name>
        <admin>Gabon</admin>
        <type_en>Province</type_en>
        <region/>
        <woe_id>2345451</woe_id>
        <longitude>10</longitude>
        <woe_name>Moyen-Ogooué</woe_name>
        <fips>GB03</fips>
        <woe_label>Moyen-Ogooue, GA, Gabon</woe_label>
        <latitude>0</latitude>
        <iso_a2>GA</iso_a2>
        <postal>MO</postal>
        <type>Province</type>
        <id>GA.MO</id>
      </desc>
    </path>
    <path d="M 346.1139 343.9943 340.1475 352.2374 338.8914 359.9311 344.4653 374.4547 344.7008 384.111 349.9607 386.1522 367.7032 378.6941 369.1163 388.1148 373.6697 394.7879 391.2551 407.5059 398.1636 415.8276 400.5188 429.2522 396.9861 437.2598 398.3992 442.1272 418.7323 462.3818 433.6485 467.7203 444.7964 467.4063 445.7385 471.8026 443.1478 470.0755 444.6394 488.1319 451.3125 493.6274 448.0152 500.4574 446.7591 519.77 402.246 529.2693 388.3504 519.6915 367.8602 529.2693 356.6338 521.5756 346.585 519.77 347.7626 539.0826 353.101 553.5277 343.2092 572.7618 308.8234 537.1984 305.6047 527.3851 294.5353 519.8485 290.4529 512.4689 239.0313 517.6503 234.4779 510.5062 228.4329 503.0481 221.3673 488.9955 220.9748 487.4254 220.9748 486.1693 221.1318 484.9917 222.5449 481.3019 222.7019 480.2028 222.3879 479.1037 211.8681 473.0587 206.5296 475.2569 195.1462 473.2942 189.0227 469.2119 185.4899 468.2698 181.8786 466.3857 176.2262 464.58 168.2185 463.5594 162.4091 457.2789 156.5996 447.7797 156.4426 446.8376 157.5417 445.7385 158.4837 444.9534 159.1118 443.9329 160.5249 440.3216 166.8054 437.1813 167.7475 434.9046 168.4541 431.3718 168.6111 429.4092 168.5326 427.8391 167.2765 422.1081 167.0409 419.9099 167.1194 417.7902 167.512 416.5341 168.14 415.278 176.0692 407.7414 177.6393 404.5227 178.1888 400.0478 192.7125 387.4868 210.8475 389.5279 218.8551 376.1034 217.9131 371.393 223.5655 368.4097 228.5899 360.1666 230.003 350.1178 245.7043 335.2801 244.8407 329.7846 253.5549 328.6855 258.5008 332.3753 263.4467 328.607 268.0001 330.5697 274.9087 326.3303 300.8943 324.1322 326.0948 340.7755 346.1139 343.9943 Z" id="GA.NG" fill="#cee3f5" stroke="#6e6e6e" stroke-width="0.4">
      <desc>
        <labelrank>5</labelrank>
        <code_hasc>GA.NG</code_hasc>
        <name>Ngounié</name>
        <admin>Gabon</admin>
        <type_en>Province</type_en>
        <region/>
        <woe_id>2345452</woe_id>
        <longitude>11</longitude>
        <woe_name>Ngounié</woe_name>
        <fips>GB04</fips>
        <woe_label>Ngounie, GA, Gabon</woe_label>
        <latitude>-1</latitude>
        <iso_a2>GA</iso_a2>
        <postal>NG</postal>
        <type>Province</type>
        <id>GA.NG</id>
      </desc>
    </path>
    <path d="M 343.2092 572.7618 342.6597 579.6703 354.5141 575.902 370.3724 595.1361 367.6247 599.2184 362.3648 600.082 360.2451 613.5851 388.9784 628.3443 390.2345 631.8771 383.8755 637.9221 375.9464 655.586 376.7314 660.5319 383.8755 663.9077 383.797 668.7751 377.1239 673.7995 357.8114 671.6013 347.056 655.272 337.2427 651.3466 329.6276 660.0608 320.6779 662.416 307.0178 672.3078 296.0269 699 285.664 690.2073 279.148 671.6798 243.5846 644.9876 242.3285 629.6004 233.0648 623.4769 221.7599 609.5028 209.9054 599.611 189.8863 583.9097 175.2841 573.3898 168.5326 567.7374 166.6484 566.3243 170.8092 565.1467 170.9663 565.1467 204.1744 555.4904 207.4717 555.0193 211.083 544.9705 214.3018 542.5368 216.8925 541.6733 217.599 541.1237 217.756 540.3387 217.442 539.5536 215.9504 537.0414 215.6364 536.0208 215.8719 534.7647 219.1692 528.8767 239.0313 517.6503 290.4529 512.4689 294.5353 519.8485 305.6047 527.3851 308.8234 537.1984 343.2092 572.7618 Z" id="GA.NY" fill="#cee3f5" stroke="#6e6e6e" stroke-width="0.4">
      <desc>
        <labelrank>5</labelrank>
        <code_hasc>GA.NY</code_hasc>
        <name>Nyanga</name>
        <admin>Gabon</admin>
        <type_en>Province</type_en>
        <region/>
        <woe_id>2345453</woe_id>
        <longitude>10</longitude>
        <woe_name>Nyanga</woe_name>
        <fips>GB05</fips>
        <woe_label>Nyanga, GA, Gabon</woe_label>
        <latitude>-2</latitude>
        <iso_a2>GA</iso_a2>
        <postal>NY</postal>
        <type>Province</type>
        <id>GA.NY</id>
      </desc>
    </path>
    <path d="M 60.7433 344.3868 55.7974 343.8373 52.6572 333.8669 58.8592 326.1733 58.0741 330.0986 62.0779 330.9622 63.02 334.809 60.7433 344.3868 Z M 122.4493 324.5247 129.8289 347.7626 134.3823 353.9646 139.7207 356.9478 140.8983 358.1254 141.5264 359.3815 142.4685 360.1666 144.6666 360.5591 147.7284 360.3236 156.8351 360.8731 162.095 364.7984 163.5082 367.5462 162.5661 371.393 162.6446 372.021 164.5287 376.3389 164.6857 378.6156 164.5287 379.7932 163.7437 382.0698 160.7604 387.5653 160.6819 389.6065 161.7025 390.8626 168.6111 397.1431 169.6316 397.7711 170.4952 398.1636 171.1233 398.3992 176.3832 399.1842 178.1888 400.0478 177.6393 404.5227 176.0692 407.7414 168.14 415.278 167.512 416.5341 167.1194 417.7902 167.2765 422.1081 168.5326 427.8391 168.6111 429.4092 168.4541 431.3718 167.7475 434.9046 166.8054 437.1813 160.5249 440.3216 159.1118 443.9329 158.4837 444.9534 157.5417 445.7385 156.4426 446.8376 156.5996 447.7797 159.8184 451.548 162.4091 457.2789 168.2185 463.5594 176.2262 464.58 181.8786 466.3857 185.4899 468.2698 189.0227 469.2119 195.1462 473.2942 206.5296 475.2569 211.8681 473.0587 222.3879 479.1037 222.7019 480.2028 222.5449 481.3019 221.1318 484.9917 220.9748 486.1693 220.9748 487.4254 221.3673 488.9955 225.3712 493.2348 239.0313 517.6503 223.016 525.5795 219.1692 528.8767 215.8719 534.7647 215.6364 536.0208 215.9504 537.0414 217.442 539.5536 217.756 540.3387 217.599 541.1237 216.8925 541.6733 214.3018 542.5368 211.083 544.9705 207.4717 555.0193 204.1744 555.4904 170.9663 565.1467 170.8092 565.1467 166.6484 566.3243 159.9754 561.2999 137.6011 532.645 147.8854 539.0826 152.9883 534.1367 154.0874 542.1443 161.7025 544.4995 163.7437 549.4454 167.5905 547.8753 168.3755 553.2922 172.2224 551.7221 172.3009 553.6847 176.8542 548.6603 189.1012 545.5986 179.1309 537.9835 181.4861 545.6771 171.8298 539.4751 169.1606 545.6771 165.8633 540.6527 169.9457 537.9835 160.6819 535.6283 156.8351 528.7982 143.0965 535.7068 140.2703 532.802 142.547 529.2693 139.8777 525.501 137.0515 525.3439 137.6011 531.7815 125.6681 522.5177 122.1353 504.6968 89.0056 469.5259 90.1047 467.6418 98.8974 473.6868 101.2526 470.782 101.0171 475.6494 110.9874 474.5503 112.322 478.7112 109.8098 480.7523 115.6193 483.4215 119.5446 491.1152 121.8213 486.7188 114.4417 478.3971 116.6399 475.0214 110.9089 466.6212 107.4546 466.1502 107.5331 470.782 100.5461 463.0884 96.7778 470.782 92.8524 469.2119 93.873 465.6791 91.3608 463.8735 87.2 464.8941 83.1962 436.3962 60.2723 406.9564 56.5825 397.4571 60.5863 405.7003 76.3661 423.9137 88.2206 431.3718 89.9477 446.9946 91.9104 442.4412 93.559 444.7964 103.6078 440.1645 105.1779 446.3666 105.1779 439.458 121.3502 439.3795 114.9127 436.3177 112.8716 425.6409 109.7313 424.1493 106.9836 424.3848 107.2976 427.9176 101.0171 434.4336 90.6543 434.8261 89.7122 428.3101 86.3364 425.4054 91.8319 422.7361 90.4972 418.0258 95.9927 416.1416 98.2694 410.7247 96.1497 403.2666 94.7366 413.0013 89.7122 411.9023 79.2708 417.4762 76.2091 415.7491 74.8745 408.762 70.4781 410.3321 61.7639 405.0722 62.1565 393.2177 58.0741 388.9784 57.7601 396.2795 54.6198 383.3259 43.4719 369.1163 48.0253 372.6491 51.1656 367.6247 44.571 368.7238 42.2943 362.2862 40.3317 362.9928 24.1594 325.5453 25.651 323.1901 25.494 326.1733 32.7951 330.7267 40.8812 349.3327 42.6869 349.8822 43.3149 340.383 48.7319 340.7755 45.7486 336.1436 50.3805 336.7717 58.8592 349.8822 59.6442 357.6544 64.1976 339.3624 68.1229 337.0072 68.3585 333.7099 71.2632 336.0651 69.6931 326.9584 91.2038 301.6793 92.7739 290.2959 103.6078 311.1001 117.2679 318.2442 122.4493 324.5247 Z" id="GA.OM" fill="#cee3f5" stroke="#6e6e6e" stroke-width="0.4">
      <desc>
        <labelrank>5</labelrank>
        <code_hasc>GA.OM</code_hasc>
        <name>Ogooué-Maritime</name>
        <admin>Gabon</admin>
        <type_en>Province</type_en>
        <region/>
        <woe_id>2345456</woe_id>
        <longitude>8</longitude>
        <woe_name>Ogooué-Maritime</woe_name>
        <fips>GB08</fips>
        <woe_label>Ogooue-Martime, GA, Gabon</woe_label>
        <latitude>0</latitude>
        <iso_a2>GA</iso_a2>
        <postal>OM</postal>
        <type>Province</type>
        <id>GA.OM</id>
      </desc>
    </path>
    <path d="M 607.2261 270.2768 600.9456 279.7761 606.0485 289.0398 610.9944 286.5276 630.5425 290.8455 635.3313 297.5185 637.765 310.7861 652.6813 308.6664 660.0608 311.4926 672.2293 321.6985 675.8406 330.4127 669.8741 346.585 671.1302 355.5347 663.8292 372.5706 667.833 390.5485 672.0723 396.672 667.5975 408.5265 674.506 417.3192 668.9321 427.682 671.7583 432.8635 660.6889 439.929 664.9282 446.4451 670.1097 448.1722 665.3993 453.6676 664.3002 472.8232 647.1858 480.3598 645.8512 498.1807 642.5539 500.1434 641.6119 505.7174 636.2734 508.2296 636.5874 512.0764 645.9297 522.7532 635.8024 526.6786 629.6789 538.7685 617.9814 539.0826 615.8618 535.6283 604.0858 536.8059 602.5157 530.2898 609.1102 523.3028 604.3213 518.9849 590.8182 493.9414 586.1079 504.8538 575.117 518.8279 558.8662 532.2525 510.1922 520.7906 503.9117 524.5589 508.3081 513.882 501.321 503.3622 497.0031 504.8538 494.2554 498.7303 495.6685 495.276 485.5412 474.0008 478.3971 470.8605 482.3225 455.1593 497.3172 423.9922 502.9696 417.1622 511.7623 414.336 526.2075 400.4403 525.2654 384.5035 537.1984 388.9784 570.0926 345.8784 541.5163 286.6846 535.7068 282.4453 532.488 271.8469 538.847 261.1701 539.0826 255.4391 566.2458 256.2242 588.6986 261.0916 607.2261 270.2768 Z" id="GA.HO" fill="#cee3f5" stroke="#6e6e6e" stroke-width="0.4">
      <desc>
        <labelrank>5</labelrank>
        <code_hasc>GA.HO</code_hasc>
        <name>Haut-Ogooué</name>
        <admin>Gabon</admin>
        <type_en>Province</type_en>
        <region/>
        <woe_id>2345450</woe_id>
        <longitude>13</longitude>
        <woe_name>Haut-Ogooué</woe_name>
        <fips>GB02</fips>
        <woe_label>Haut-Ogooue, GA, Gabon</woe_label>
        <latitude>-1</latitude>
        <iso_a2>GA</iso_a2>
        <postal>HO</postal>
        <type>Province</type>
        <id>GA.HO</id>
      </desc>
    </path>
    <path d="M 539.0826 255.4391 538.847 261.1701 532.488 271.8469 535.7068 282.4453 541.5163 286.6846 570.0926 345.8784 537.1984 388.9784 525.2654 384.5035 526.2075 400.4403 511.7623 414.336 502.9696 417.1622 497.3172 423.9922 482.3225 455.1593 478.3971 470.8605 466.2287 463.5594 460.6547 463.6379 453.2751 468.4268 451.3125 473.8438 445.7385 471.8026 444.7964 467.4063 433.6485 467.7203 418.7323 462.3818 398.3992 442.1272 396.9861 437.2598 400.5188 429.2522 398.1636 415.8276 391.2551 407.5059 373.6697 394.7879 369.1163 388.1148 367.7032 378.6941 349.9607 386.1522 344.7008 384.111 344.4653 374.4547 338.8914 359.9311 340.1475 352.2374 346.1139 343.9943 428.9381 313.7693 446.6021 304.8981 464.1875 229.1395 468.8979 232.3582 478.7897 228.9039 484.2851 234.0069 495.119 235.8125 501.321 231.9657 507.7585 235.4985 513.0184 235.1845 517.3363 238.4032 521.4186 250.1792 539.0826 255.4391 Z" id="GA.OL" fill="#cee3f5" stroke="#6e6e6e" stroke-width="0.4">
      <desc>
        <labelrank>5</labelrank>
        <code_hasc>GA.OL</code_hasc>
        <name>Ogooué-Lolo</name>
        <admin>Gabon</admin>
        <type_en>Province</type_en>
        <region/>
        <woe_id>2345455</woe_id>
        <longitude>12</longitude>
        <woe_name>Ogooue-Lolo</woe_name>
        <fips>GB07</fips>
        <woe_label/>
        <latitude>0</latitude>
        <iso_a2>GA</iso_a2>
        <postal>OL</postal>
        <type>Province</type>
        <id>GA.OL</id>
      </desc>
    </path>
  </g>
</svg>