<?xml version="1.0" encoding="UTF-8"?>
<svg xmlns="http://www.w3.org/2000/svg" width="700" height="700">
  <g id="hong_kong_sar">
    <path d="M 385.5481 443.561 381.7816 468.3082 366.8613 469.3029 351.3263 458.3371 340.3604 452.8541 323.3151 452.7577 324.2682 445.3717 326.9366 443.561 332.5595 440.8448 342.6617 436.2226 354.3839 432.6011 367.0593 436.2226 375.4459 440.8448 385.5481 443.561 Z" id="HK.3682" fill="#cee3f5" stroke="#6e6e6e" stroke-width="0.4">
      <desc>
        <labelrank>20</labelrank>
        <code_hasc>HK.</code_hasc>
        <name>Central and Western</name>
        <admin>Hong Kong S.A.R.</admin>
        <type_en/>
        <region>Hong Kong Island</region>
        <woe_id>24703128</woe_id>
        <longitude>114</longitude>
        <woe_name>Central and Western</woe_name>
        <fips/>
        <woe_label/>
        <latitude>22</latitude>
        <iso_a2>HK</iso_a2>
        <postal/>
        <type/>
        <id>HK.3682</id>
      </desc>
    </path>
    <path d="M 412.5889 466.9666 394.2759 467.4753 381.7816 468.3082 385.5481 443.561 400.9872 443.561 409.8108 448.285 419.8629 450.1127 417.1214 457.4232 412.5889 466.9666 Z" id="HK.6655" fill="#cee3f5" stroke="#6e6e6e" stroke-width="0.4">
      <desc>
        <labelrank>20</labelrank>
        <code_hasc>HK.</code_hasc>
        <name>Wan Chai</name>
        <admin>Hong Kong S.A.R.</admin>
        <type_en/>
        <region>Hong Kong Island</region>
        <woe_id>24703129</woe_id>
        <longitude>114</longitude>
        <woe_name>Wan Chai</woe_name>
        <fips/>
        <woe_label/>
        <latitude>22</latitude>
        <iso_a2>HK</iso_a2>
        <postal/>
        <type/>
        <id>HK.6655</id>
      </desc>
    </path>
    <path d="M 412.5889 466.9666 417.1214 457.4232 419.8629 450.1127 409.8108 448.285 400.9872 443.561 411.8517 434.4119 421.9539 428.9319 433.1996 433.1729 443.9689 436.2226 451.2119 443.561 458.6455 441.7502 467.6993 445.3717 476.8484 460.8585 485.9975 467.3391 485.9975 479.252 461.8986 469.3029 427.1734 466.5614 412.5889 466.9666 Z" id="HK.6656" fill="#cee3f5" stroke="#6e6e6e" stroke-width="0.4">
      <desc>
        <labelrank>20</labelrank>
        <code_hasc>HK.</code_hasc>
        <name>Eastern</name>
        <admin>Hong Kong S.A.R.</admin>
        <type_en/>
        <region>Hong Kong Island</region>
        <woe_id>24703131</woe_id>
        <longitude>114</longitude>
        <woe_name>Eastern</woe_name>
        <fips/>
        <woe_label/>
        <latitude>22</latitude>
        <iso_a2>HK</iso_a2>
        <postal/>
        <type/>
        <id>HK.6656</id>
      </desc>
    </path>
    <path d="M 374.5882 499.3133 369.7277 500.2187 360.6739 493.7857 358.0055 488.2581 358.0055 487.4481 374.5882 491.0219 374.5882 499.3133 Z M 351.3263 458.3371 366.8613 469.3029 381.7816 468.3082 394.2759 467.4753 412.5889 466.9666 427.1734 466.5614 461.8986 469.3029 485.9975 479.252 478.7545 487.4481 483.1384 498.4079 488.666 508.4147 483.1384 510.2732 491.4298 532.2882 476.8484 535.0043 473.1316 530.3821 464.0778 523.0438 463.9825 510.7497 460.2657 497.169 452.2602 491.0219 445.3984 496.3112 452.2602 498.4079 452.2602 507.5094 447.5904 508.4147 439.4896 517.6115 447.5904 529.4767 443.9689 537.7204 448.5434 546.0118 434.7245 548.728 432.8184 530.3821 436.6305 527.666 433.3902 521.9954 421.0961 527.666 415.6638 524.8545 421.0961 518.5645 412.9001 513.99 418.3323 506.604 415.6638 500.2187 405.4664 498.4079 406.8007 488.4487 391.9334 497.5025 387.3588 503.8878 384.595 503.8878 381.9265 497.5025 380.0205 489.2112 369.7277 483.7789 350.7624 482.9212 342.6617 479.252 337.8965 470.0552 336.181 464.623 330.6535 455.4739 323.3151 452.7577 340.3604 452.8541 351.3263 458.3371 Z" id="HK.6657" fill="#cee3f5" stroke="#6e6e6e" stroke-width="0.4">
      <desc>
        <labelrank>20</labelrank>
        <code_hasc>HK.</code_hasc>
        <name>Southern</name>
        <admin>Hong Kong S.A.R.</admin>
        <type_en/>
        <region>Hong Kong Island</region>
        <woe_id>24703130</woe_id>
        <longitude>114</longitude>
        <woe_name>Southern</woe_name>
        <fips/>
        <woe_label/>
        <latitude>22</latitude>
        <iso_a2>HK</iso_a2>
        <postal/>
        <type/>
        <id>HK.6657</id>
      </desc>
    </path>
    <path d="M 398.2234 429.8373 392.7911 432.6011 387.3588 426.2158 388.5025 412.9687 385.5481 407.0122 384.595 401.58 378.305 401.58 378.305 393.3362 396.8318 392.3981 396.1035 402.594 398.845 414.4736 398.2234 429.8373 Z" id="HK.6658" fill="#cee3f5" stroke="#6e6e6e" stroke-width="0.4">
      <desc>
        <labelrank>20</labelrank>
        <code_hasc>HK.</code_hasc>
        <name>Yau Tsim Mong</name>
        <admin>Hong Kong S.A.R.</admin>
        <type_en/>
        <region>Kowloon</region>
        <woe_id>24703134</woe_id>
        <longitude>114</longitude>
        <woe_name>Yau Tsim Mong</woe_name>
        <fips/>
        <woe_label/>
        <latitude>22</latitude>
        <iso_a2>HK</iso_a2>
        <postal/>
        <type/>
        <id>HK.6658</id>
      </desc>
    </path>
    <path d="M 431.7566 378.9471 435.3978 391.6281 439.4896 407.0122 443.1111 418.0197 440.3474 418.0197 420.429 398.0061 409.9457 409.1565 415.6638 417.1144 415.6638 420.6882 406.61 417.1144 404.2275 425.9299 398.2234 429.8373 398.845 414.4736 396.1035 402.594 396.8318 392.3981 397.9312 377.007 390.6206 366.955 408.8758 363.1965 418.0352 380.6623 431.7566 378.9471 Z" id="HK.6659" fill="#cee3f5" stroke="#6e6e6e" stroke-width="0.4">
      <desc>
        <labelrank>20</labelrank>
        <code_hasc>HK.</code_hasc>
        <name>Kowloon City</name>
        <admin>Hong Kong S.A.R.</admin>
        <type_en/>
        <region>Kowloon</region>
        <woe_id>24703135</woe_id>
        <longitude>114</longitude>
        <woe_name>Kowloon City</woe_name>
        <fips/>
        <woe_label/>
        <latitude>22</latitude>
        <iso_a2>HK</iso_a2>
        <postal/>
        <type/>
        <id>HK.6659</id>
      </desc>
    </path>
    <path d="M 354.6747 399.3337 357.0524 400.6746 361.7223 399.7215 363.4377 403.3907 357.0524 407.0122 351.6202 403.3907 354.6747 399.3337 Z M 362.1072 381.9218 365.2013 373.9601 378.262 370.3608 390.6206 366.955 397.9312 377.007 396.8318 392.3981 378.305 393.3362 369.7277 385.9979 362.1072 381.9218 Z" id="HK.6660" fill="#cee3f5" stroke="#6e6e6e" stroke-width="0.4">
      <desc>
        <labelrank>20</labelrank>
        <code_hasc>HK.</code_hasc>
        <name>Sham Shui Po</name>
        <admin>Hong Kong S.A.R.</admin>
        <type_en/>
        <region>Kowloon</region>
        <woe_id>24703133</woe_id>
        <longitude>114</longitude>
        <woe_name>Sham Shui Po</woe_name>
        <fips/>
        <woe_label/>
        <latitude>22</latitude>
        <iso_a2>HK</iso_a2>
        <postal/>
        <type/>
        <id>HK.6660</id>
      </desc>
    </path>
    <path d="M 465.5539 380.6623 431.7566 378.9471 418.0352 380.6623 408.8758 363.1965 452.7604 354.1615 465.5539 380.6623 Z" id="HK.6661" fill="#cee3f5" stroke="#6e6e6e" stroke-width="0.4">
      <desc>
        <labelrank>20</labelrank>
        <code_hasc>HK.</code_hasc>
        <name>Wong Tai Sin</name>
        <admin>Hong Kong S.A.R.</admin>
        <type_en/>
        <region>Kowloon</region>
        <woe_id>24703137</woe_id>
        <longitude>114</longitude>
        <woe_name>Wong Tai Sin</woe_name>
        <fips/>
        <woe_label/>
        <latitude>22</latitude>
        <iso_a2>HK</iso_a2>
        <postal/>
        <type/>
        <id>HK.6661</id>
      </desc>
    </path>
    <path d="M 465.5539 380.6623 474.6921 396.1972 468.2954 418.1289 476.597 435.5687 471.3209 440.8448 458.6455 428.9319 439.4896 407.0122 435.3978 391.6281 431.7566 378.9471 465.5539 380.6623 Z" id="HK.6662" fill="#cee3f5" stroke="#6e6e6e" stroke-width="0.4">
      <desc>
        <labelrank>20</labelrank>
        <code_hasc>HK.</code_hasc>
        <name>Kwun Tong</name>
        <admin>Hong Kong S.A.R.</admin>
        <type_en/>
        <region>Kowloon</region>
        <woe_id>24703136</woe_id>
        <longitude>114</longitude>
        <woe_name>Kwun Tong</woe_name>
        <fips/>
        <woe_label/>
        <latitude>22</latitude>
        <iso_a2>HK</iso_a2>
        <postal/>
        <type/>
        <id>HK.6662</id>
      </desc>
    </path>
    <path d="M 538.1283 472.7714 538.1283 480.1574 541.0827 486.5427 537.1753 492.8803 529.0746 498.4079 525.453 491.975 520.9738 491.0219 522.7845 478.2513 522.7845 479.252 538.1283 472.7714 Z M 601.3143 460.8585 597.5022 467.3391 594.8337 462.6692 597.5022 455.4739 601.3143 460.8585 Z M 510.681 447.2778 501.6273 454.5685 502.5803 443.561 510.681 447.2778 Z M 625.0448 413.3499 623.234 413.3499 617.7064 404.2961 620.4702 397.8155 625.0448 406.1068 625.0448 413.3499 Z M 604.0781 404.2961 597.5022 407.9176 604.9358 393.3362 608.462 393.3362 604.0781 404.2961 Z M 579.3946 388.8093 565.6709 391.5255 561.9541 376.8488 570.3408 373.1796 576.6308 375.8958 579.3946 388.8093 Z M 538.1283 346.6854 538.1283 362.2198 530.79 356.7875 529.9323 343.0162 529.9323 338.4893 534.4115 335.7732 538.1283 346.6854 Z M 576.6308 369.5581 551.9473 369.5581 549.1835 365.7936 548.3258 350.3069 546.515 343.0162 555.5688 330.2456 561.9541 330.2456 565.6709 350.3069 576.6308 360.409 576.6308 369.5581 Z M 485.658 307.5566 521.297 302.0737 542.3149 290.194 564.2466 280.142 581.6092 289.2802 601.7132 298.4184 618.162 288.3664 616.3344 263.6932 621.7092 248.0943 625.0448 255.4326 643.2477 256.338 659.6398 259.9595 656.876 269.0133 661.4506 287.3592 647.441 281.3074 638.5778 279.9732 625.0448 304.6567 630.6677 301.6546 642.2946 317.0937 647.9175 342.1585 644.2007 343.0162 643.2477 337.2027 632.2878 336.6785 635.9093 346.6854 631.3348 356.7875 625.0448 362.2198 614.0849 365.7936 610.2728 381.4233 604.0781 373.1796 604.0781 358.5982 591.9746 365.7936 588.5437 357.6929 581.2054 349.4015 583.0161 331.1986 566.7193 324.8133 564.6226 314.7112 554.6158 321.2871 542.8935 323.8603 526.4061 312.8528 517.0664 312.8528 506.2018 327.5294 511.6341 344.8746 519.163 354.9767 515.2556 363.1251 504.391 354.0713 503.438 342.1585 494.0983 346.6854 490.7627 353.9284 502.7709 365.1265 510.681 395.147 516.1133 396.9101 532.6008 400.0075 533.5538 413.3499 538.1283 413.3499 547.3727 411.5391 556.4265 422.5466 549.4694 430.2185 540.1297 436.2226 531.743 433.5065 529.9323 434.4119 530.79 440.8448 530.5994 449.9463 542.8935 446.2771 546.515 455.4739 546.515 463.7176 538.9861 468.2445 529.9323 460.8585 517.4476 453.9967 519.163 443.561 511.6341 424.3574 501.6273 417.1144 502.5803 407.9176 503.438 400.6746 490.7627 393.2409 485.9975 413.3499 487.8083 424.3574 476.597 435.5687 468.2954 418.1289 474.6921 396.1972 465.5539 380.6623 452.7604 354.1615 470.123 328.5745 485.658 307.5566 Z" id="HK.6663" fill="#cee3f5" stroke="#6e6e6e" stroke-width="0.4">
      <desc>
        <labelrank>20</labelrank>
        <code_hasc>HK.</code_hasc>
        <name>Sai Kung</name>
        <admin>Hong Kong S.A.R.</admin>
        <type_en/>
        <region>The New Territories</region>
        <woe_id>24703139</woe_id>
        <longitude>114</longitude>
        <woe_name>Sai Kung</woe_name>
        <fips/>
        <woe_label/>
        <latitude>22</latitude>
        <iso_a2>HK</iso_a2>
        <postal/>
        <type/>
        <id>HK.6663</id>
      </desc>
    </path>
    <path d="M 452.7604 354.1615 408.8758 363.1965 390.6206 366.955 378.262 370.3608 372.3442 355.9891 367.7751 341.368 394.2759 306.6428 391.4936 281.4123 404.3279 281.0558 431.8678 273.1707 439.4896 278.1624 437.393 287.3592 443.1111 291.8861 436.6305 303.8466 443.9689 301.8929 453.118 284.6907 465.7933 273.302 470.4631 260.8649 477.0391 260.6743 485.9975 266.2972 486.5718 287.4525 485.658 307.5566 470.123 328.5745 452.7604 354.1615 Z" id="HK.6664" fill="#cee3f5" stroke="#6e6e6e" stroke-width="0.4">
      <desc>
        <labelrank>20</labelrank>
        <code_hasc>HK.</code_hasc>
        <name>Sha Tin</name>
        <admin>Hong Kong S.A.R.</admin>
        <type_en/>
        <region>The New Territories</region>
        <woe_id>24703138</woe_id>
        <longitude>114</longitude>
        <woe_name>Sha Tin</woe_name>
        <fips/>
        <woe_label/>
        <latitude>22</latitude>
        <iso_a2>HK</iso_a2>
        <postal/>
        <type/>
        <id>HK.6664</id>
      </desc>
    </path>
    <path d="M 354.6747 399.3337 351.6202 403.3907 343.5194 401.58 342.6617 400.6746 348.8564 396.0524 354.6747 399.3337 Z M 314.2613 388.8093 295.7725 393.3362 293.1993 373.1796 284.1455 361.2667 284.1455 354.0713 291.3886 350.3069 301.3001 354.0713 311.5928 356.7875 315.2144 364.0305 318.8359 372.2742 314.2613 388.8093 Z M 378.262 370.3608 365.2013 373.9601 362.1072 381.9218 353.3356 377.23 337.1341 369.9393 336.181 375.8958 324.2682 357.6929 323.2315 351.8662 344.0157 348.6785 353.5757 344.7421 348.5848 329.4883 357.723 325.833 367.7751 341.368 372.3442 355.9891 378.262 370.3608 Z" id="HK.6665" fill="#cee3f5" stroke="#6e6e6e" stroke-width="0.4">
      <desc>
        <labelrank>20</labelrank>
        <code_hasc>HK.</code_hasc>
        <name>Kwai Tsing</name>
        <admin>Hong Kong S.A.R.</admin>
        <type_en/>
        <region>The New Territories</region>
        <woe_id>24703132</woe_id>
        <longitude>114</longitude>
        <woe_name>Kwai Tsing</woe_name>
        <fips/>
        <woe_label/>
        <latitude>22</latitude>
        <iso_a2>HK</iso_a2>
        <postal/>
        <type/>
        <id>HK.6665</id>
      </desc>
    </path>
    <path d="M 227.1669 400.4652 186.3835 400.8503 190.9391 393.3362 211.8105 377.8018 215.5273 385.9979 242.784 365.7936 249.2646 369.9393 255.7452 376.8488 252.1237 385.9979 250.3129 396.0524 245.5478 392.2879 236.3987 390.6201 228.2979 390.6201 227.1669 400.4652 Z M 263.846 373.1796 257.556 373.1796 255.7452 364.0305 259.3667 358.5982 268.5158 362.2198 264.8943 365.7936 263.846 373.1796 Z M 367.7751 341.368 357.723 325.833 348.5848 329.4883 353.5757 344.7421 344.0157 348.6785 323.2315 351.8662 321.5044 342.1585 314.2613 337.5839 305.6841 345.5894 284.1455 342.1585 283.1925 345.78 273.9481 345.78 270.2313 350.3069 259.3667 347.5907 250.3129 350.3069 238.2094 354.9767 215.5273 360.409 227.0466 345.0233 216.9946 334.9712 233.4434 323.0915 276.393 308.4704 325.7393 294.7631 352.2401 288.3664 371.4304 281.9696 391.4936 281.4123 394.2759 306.6428 367.7751 341.368 Z" id="HK.6666" fill="#cee3f5" stroke="#6e6e6e" stroke-width="0.4">
      <desc>
        <labelrank>20</labelrank>
        <code_hasc>HK.</code_hasc>
        <name>Tsuen Wan</name>
        <admin>Hong Kong S.A.R.</admin>
        <type_en/>
        <region>The New Territories</region>
        <woe_id>24703140</woe_id>
        <longitude>114</longitude>
        <woe_name>Tsuen Wan</woe_name>
        <fips/>
        <woe_label/>
        <latitude>22</latitude>
        <iso_a2>HK</iso_a2>
        <postal/>
        <type/>
        <id>HK.6666</id>
      </desc>
    </path>
    <path d="M 55.6087 326.6241 50.8435 337.5839 46.3643 321.1441 55.6087 326.6241 Z M 233.4434 323.0915 216.9946 334.9712 227.0466 345.0233 215.5273 360.409 209.0467 356.7875 209.0467 350.3069 189.8908 350.3069 181.9806 344.3504 171.2114 341.2054 164.2542 326.6241 159.775 325.7187 157.1065 317.4273 149.7682 324.9086 161.7764 335.0107 138.713 337.5839 126.8954 346.6854 110.3127 338.4893 104.7851 338.4893 91.252 330.2456 95.8266 316.5219 86.7728 303.8466 70.8572 292.029 85.4386 280.4973 110.3127 279.0678 122.4162 270.9194 145.7166 282.8834 177.7003 297.5046 232.5296 297.5046 233.4434 323.0915 Z" id="HK.6667" fill="#cee3f5" stroke="#6e6e6e" stroke-width="0.4">
      <desc>
        <labelrank>20</labelrank>
        <code_hasc>HK.</code_hasc>
        <name>Tuen Mun</name>
        <admin>Hong Kong S.A.R.</admin>
        <type_en/>
        <region>The New Territories</region>
        <woe_id>24703141</woe_id>
        <longitude>113</longitude>
        <woe_name>Tuen Mun</woe_name>
        <fips/>
        <woe_label/>
        <latitude>22</latitude>
        <iso_a2>HK</iso_a2>
        <postal/>
        <type/>
        <id>HK.6667</id>
      </desc>
    </path>
    <path d="M 311.1182 219.8298 344.9296 216.1745 354.9816 222.5712 338.5328 241.7615 352.2401 288.3664 325.7393 294.7631 276.393 308.4704 233.4434 323.0915 232.5296 297.5046 177.7003 297.5046 145.7166 282.8834 122.4162 270.9194 137.76 244.3298 165.2073 233.37 189.8908 198.5843 197.2291 198.5843 206.3782 201.4434 205.2346 208.5435 204.5674 216.9302 209.0467 214.214 222.8656 210.6402 226.4872 210.6402 228.2979 205.9703 227.3449 199.6327 227.3449 190.4359 240.9732 184.0029 259.3667 179.476 263.846 174.9015 268.5158 166.6101 277.5696 163.894 283.1925 162.0832 291.3886 158.3188 298.3247 162.2591 304.7214 191.5013 311.1182 219.8298 Z" id="HK.6668" fill="#cee3f5" stroke="#6e6e6e" stroke-width="0.4">
      <desc>
        <labelrank>20</labelrank>
        <code_hasc>HK.</code_hasc>
        <name>Yuen Long</name>
        <admin>Hong Kong S.A.R.</admin>
        <type_en/>
        <region>The New Territories</region>
        <woe_id>24703143</woe_id>
        <longitude>114</longitude>
        <woe_name>Yuen Long</woe_name>
        <fips/>
        <woe_label/>
        <latitude>22</latitude>
        <iso_a2>HK</iso_a2>
        <postal/>
        <type/>
        <id>HK.6668</id>
      </desc>
    </path>
    <path d="M 562.8119 163.894 557.3796 170.184 542.8935 177.6653 535.3646 170.184 541.0827 166.6101 546.515 168.4685 552.805 154.6972 562.8119 163.894 Z M 699 133.7782 686.3247 133.7782 689.9462 124.6291 692.6147 128.2506 699 133.7782 Z M 529.9323 119.1492 540.1297 126.3922 552.805 121.8653 561.9541 124.5815 547.3727 129.156 541.0827 129.156 537.1753 129.156 543.7512 143.8803 529.9323 137.3997 526.4061 130.0614 529.9323 119.1492 Z M 581.2054 171.1847 559.6775 186.9322 539.5734 196.0704 522.2108 192.4151 494.7962 195.1566 469.2092 196.0704 458.2434 186.0184 442.7084 185.1046 425.3458 193.329 405.2417 203.381 398.845 200.6395 385.1377 203.381 383.31 212.5192 354.9816 222.5712 344.9296 216.1745 311.1182 219.8298 304.7214 191.5013 298.3247 162.2591 291.3886 158.3188 287.9577 150.7898 298.6111 144.9068 318.4609 144.9068 324.9968 151.4426 328.6278 152.8951 342.4258 140.5495 353.3189 139.0971 365.6645 140.5495 371.7163 124.4518 381.157 114.2849 394.3507 110.2917 405.8481 119.3684 425.5768 119.3684 449.973 120.6264 460.6469 119.8163 466.3651 119.3874 457.5972 130.0614 451.6884 136.6373 443.1111 144.7857 437.393 144.7857 436.6305 157.4134 446.7327 154.6972 447.5904 150.218 461.314 146.5965 465.8886 141.9266 474.9424 126.3922 479.5169 125.4868 483.1384 129.156 489.6191 125.4868 493.2406 129.156 488.0942 138.9722 495.0513 137.3997 502.5803 143.8803 502.0085 151.8381 507.7267 155.2214 517.0664 150.218 519.163 154.6972 519.163 162.0832 516.6851 171.5182 525.453 172.0901 530.2182 179.0948 541.0827 184.0029 573.9623 174.9015 581.2054 171.1847 Z" id="HK.6669" fill="#cee3f5" stroke="#6e6e6e" stroke-width="0.4">
      <desc>
        <labelrank>20</labelrank>
        <code_hasc>HK.</code_hasc>
        <name>North</name>
        <admin>Hong Kong S.A.R.</admin>
        <type_en/>
        <region>The New Territories</region>
        <woe_id>24703142</woe_id>
        <longitude>114</longitude>
        <woe_name>North</woe_name>
        <fips/>
        <woe_label/>
        <latitude>22</latitude>
        <iso_a2>HK</iso_a2>
        <postal/>
        <type/>
        <id>HK.6669</id>
      </desc>
    </path>
    <path d="M 621.7092 248.0943 616.3344 263.6932 618.162 288.3664 601.7132 298.4184 581.6092 289.2802 564.2466 280.142 542.3149 290.194 521.297 302.0737 485.658 307.5566 486.5718 287.4525 485.9975 266.2972 504.391 266.2972 506.9642 272.3966 504.391 283.5947 510.681 290.9807 515.2556 279.0678 529.9323 271.8248 515.2556 250.7628 529.9323 239.8506 544.7043 236.0861 543.7512 226.1269 570.6267 208.5435 572.1516 214.214 578.8228 215.5006 572.1516 227.0323 584.6363 229.9867 587.4001 247.999 581.2054 255.4326 586.6376 265.2965 592.9276 258.1488 598.5505 275.4463 604.0781 274.5409 603.2204 254.289 612.9413 230.6538 622.281 237.8969 621.7092 248.0943 Z M 619.4219 215.1194 612.0836 225.2215 604.9358 207.8287 611.1305 200.538 616.7534 201.4434 619.4219 215.1194 Z M 391.4936 281.4123 371.4304 281.9696 352.2401 288.3664 338.5328 241.7615 354.9816 222.5712 383.31 212.5192 385.1377 203.381 398.845 200.6395 405.2417 203.381 425.3458 193.329 442.7084 185.1046 458.2434 186.0184 469.2092 196.0704 494.7962 195.1566 522.2108 192.4151 539.5734 196.0704 559.6775 186.9322 581.2054 171.1847 583.9691 177.6653 561.9541 194.1051 549.1835 205.0649 535.3646 210.6402 519.9255 216.9302 506.2018 226.1269 500.7695 234.2753 488.666 241.6613 479.5169 241.6613 462.2671 220.5517 445.7796 223.4108 439.4896 219.6463 436.6305 225.2215 438.5366 235.1807 443.9689 237.8969 445.7796 246.1406 437.393 244.3298 436.6305 238.9452 428.3392 234.2753 414.7108 236.0861 410.1363 241.6613 387.6447 245.9976 398.2234 251.6682 411.0893 259.9595 425.9566 269.2992 431.8678 273.1707 404.3279 281.0558 391.4936 281.4123 Z" id="HK.6670" fill="#cee3f5" stroke="#6e6e6e" stroke-width="0.4">
      <desc>
        <labelrank>20</labelrank>
        <code_hasc>HK.</code_hasc>
        <name>Tai Po</name>
        <admin>Hong Kong S.A.R.</admin>
        <type_en/>
        <region>The New Territories</region>
        <woe_id>24703144</woe_id>
        <longitude>114</longitude>
        <woe_name>Tai Po</woe_name>
        <fips/>
        <woe_label/>
        <latitude>22</latitude>
        <iso_a2>HK</iso_a2>
        <postal/>
        <type/>
        <id>HK.6670</id>
      </desc>
    </path>
    <path d="M 78.2908 585.1814 71.0478 585.1814 73.9069 579.7968 86.7728 576.1276 86.7728 585.1814 78.2908 585.1814 Z M 500.7695 580.6069 491.4298 589.7083 485.0445 580.6069 491.4298 569.6946 503.438 561.4509 507.0595 569.6946 507.0595 577.986 500.7695 580.6069 Z M 86.7728 561.4509 86.7728 564.1671 78.2908 561.4509 78.2908 552.3018 86.7728 561.4509 Z M 483.1384 563.2617 475.8954 565.1201 475.8954 555.018 475.8954 554.1126 482.376 554.1126 488.666 552.3018 491.4298 557.7341 485.9975 563.2617 483.1384 563.2617 Z M 180.6464 546.0118 178.7403 552.3018 173.308 550.4911 165.2073 544.2011 172.4503 537.7204 177.0249 537.7204 180.6464 546.0118 Z M 217.4334 528.5714 222.8656 530.3821 231.9194 530.3821 228.2979 541.342 222.8656 537.7204 209.9997 546.0118 209.0467 538.6258 217.4334 533.1936 217.4334 528.5714 Z M 329.0333 510.8926 338.7542 520.7565 347.0456 517.6115 347.0456 524.8545 338.7542 530.3821 353.3356 529.4291 366.7733 529.4291 372.5868 532.2882 359.0538 541.0561 354.3839 546.9172 361.7223 561.4509 352.3826 561.3556 321.3138 563.357 325.1259 553.2072 325.1259 517.6115 313.5942 517.8021 316.0721 510.2732 316.4533 494.5958 324.1729 497.4549 329.0333 510.8926 Z M 241.831 488.2581 236.3987 488.2581 228.2979 478.2513 215.5273 471.866 219.2441 470.9606 240.9732 470.9606 241.831 488.2581 Z M 247.5492 470.0552 241.831 470.0552 244.5948 463.7176 250.3129 463.7176 252.1237 464.623 247.5492 470.0552 Z M 277.5696 442.6556 273.0904 442.6556 273.0904 436.2226 275.7589 436.2226 278.618 438.0334 277.5696 442.6556 Z M 239.1625 429.8373 236.3987 436.2226 241.831 436.2226 241.831 440.8448 231.9194 443.561 231.9194 432.6011 232.7772 432.6011 239.1625 429.8373 Z M 227.1669 400.4652 226.2013 408.8706 206.3782 406.1068 206.3782 421.6413 217.4334 417.162 212.0964 432.2199 213.6212 460.8585 196.3714 460.8585 186.0786 457.1417 199.9929 475.4875 182.6477 488.2581 209.0467 504.7932 191.7015 517.6115 170.3536 526.8559 168.8288 518.5645 168.8288 492.8803 155.2957 492.8803 144.1453 492.8803 127.8484 492.8803 107.6442 508.4147 99.5434 508.4147 95.8266 513.99 107.6442 516.7061 107.6442 523.9015 96.7796 530.6204 81.7217 531.8117 67.4263 518.5645 65.6155 510.2732 55.6087 513.0846 43.6005 521.1854 26.5412 534.8614 11.6739 539.9124 3.192 530.7633 1.6671 515.4672 1 502.9825 3.192 496.4542 14.9143 496.4542 14.9143 484.8272 23.7774 482.6352 23.7774 475.2969 16.5344 470.0552 16.5344 470.0076 17.1062 469.6264 27.399 462.1927 35.6903 455.7121 36.4528 453.6631 47.222 451.8523 55.6087 443.561 65.6155 427.9313 87.6305 427.9313 99.5434 428.9319 107.6442 437.128 119.6524 432.6011 146.9091 418.0197 164.2542 421.6413 172.4503 408.823 182.6477 407.0122 186.3835 400.8503 227.1669 400.4652 Z M 124.2269 393.3362 120.6054 404.2961 116.698 407.9176 113.9342 418.9251 111.2657 427.9313 109.4549 427.9313 109.4549 418.0197 102.1166 406.1068 102.1166 404.2961 102.1166 403.3907 109.4549 400.6746 113.0765 393.3362 116.698 397.8155 124.2269 393.3362 Z" id="HK.6671" fill="#cee3f5" stroke="#6e6e6e" stroke-width="0.4">
      <desc>
        <labelrank>20</labelrank>
        <code_hasc>HK.</code_hasc>
        <name>Islands</name>
        <admin>Hong Kong S.A.R.</admin>
        <type_en/>
        <region>The New Territories</region>
        <woe_id>24703127</woe_id>
        <longitude>113</longitude>
        <woe_name>Islands</woe_name>
        <fips/>
        <woe_label/>
        <latitude>22</latitude>
        <iso_a2>HK</iso_a2>
        <postal/>
        <type/>
        <id>HK.6671</id>
      </desc>
    </path>
  </g>
</svg>