<?xml version="1.0" encoding="UTF-8"?>
<svg xmlns="http://www.w3.org/2000/svg" width="700" height="700">
  <g id="rwanda">
    <path d="M 387.3626 338.7113 387.1842 339.1523 387.8749 340.3009 388.8999 343.2154 389.819 345.8119 390.5274 346.9429 391.5197 348.2862 392.5461 350.4064 393.5716 352.9855 394.5618 355.4586 393.973 356.958 393.8653 357.5933 393.8097 358.8995 393.5571 361.0704 392.8961 363.2228 391.7207 364.9859 394.9616 370.0758 397.1898 375.3404 395.622 377.9501 394.4119 379.2542 391.6214 380.3611 389.0948 382.8984 388.4316 386.1982 390.5194 390.3504 393.4642 392.1742 394.9556 392.3888 396.908 393.028 399.0734 393.703 399.8892 394.3224 399.4744 397.6227 399.4448 403.8188 399.4016 407.7553 397.1203 411.8993 391.9948 417.4499 388.2871 424.539 388.8329 435.873 386.899 452.6389 382.7796 464.4885 382.5941 465.022 382.4702 465.6614 381.23 472.0624 380.3996 478.6096 380.004 479.4488 379.5435 480.426 378.7301 481.3537 376.3815 479.3373 373.6326 477.7782 370.1167 477.8769 369.1184 479.7812 369.1474 482.9585 366.8735 500.4288 369.2846 526.6995 361.7887 552.4893 360.2673 587.5132 360.1019 591.3183 358.2381 598.8334 354.9544 606.2744 350.7487 613.3248 346.1547 619.4916 339.1093 626.5703 332.6399 630.3321 325.6974 631.6217 317.1615 631.3545 309.5001 629.0423 305.5602 629.0685 302.9973 632.2393 301.8449 639.4021 300.3469 642.5753 297.0059 644.5795 289.3199 645.5147 282.8451 644.5115 268.5718 639.7908 264.9006 638.5767 262.4521 638.4301 252.2232 642.0779 249.6647 643.6252 246.9298 644.678 243.3814 644.529 235.856 645.5007 229.4243 649.5453 222.8902 651.7193 214.9158 647.2203 202.4948 644.8928 195.8683 643.6513 189.7105 644.3444 174.8836 650.7011 166.4376 651.4603 163.417 644.9616 163.0175 640.6911 159.8381 633.5923 159.0653 629.6388 160.2431 626.0771 165.0091 620.2995 165.7618 616.4194 163.6764 612.181 156.2381 605.2154 156.1584 604.9004 162.6537 601.5102 164.3756 601.0018 167.5192 599.367 172.3794 590.7839 173.5382 578.4709 169.5391 572.6058 167.8227 570.0443 167.3657 567.644 167.7797 564.4866 168.4423 561.1532 167.0267 559.0158 165.3293 555.6605 162.7448 552.2507 160.6941 547.9951 159.958 542.8067 157.1256 539.0085 152.5157 536.9009 146.1311 534.8962 141.9828 532.6485 141.6673 530.3545 143.2365 525.876 146.225 521.541 153.4715 517.7073 160.5231 513.8732 161.9303 510.7704 160.9076 506.9225 159.9016 503.7098 162.802 499.1099 166.2539 493.6992 166.5432 490.5592 164.2085 485.7917 161.9462 480.1774 162.8767 475.5565 166.3619 471.4337 171.5663 468.7958 176.6613 468.0279 180.5284 469.1987 184.8978 467.2476 191.2952 462.4767 198.237 461.3591 204.1832 461.228 208.2481 461.0584 210.3421 461.362 215.3563 456.2006 223.9055 449.5805 228.4895 447.0474 232.2406 443.7718 236.6298 441.0618 238.6215 438.983 240.045 436.9738 241.8901 437.6299 244.0544 438.463 246.5768 437.4791 249.383 436.6722 251.7464 435.3528 255.4249 433.1534 258.2323 431.6759 258.1162 426.9994 256.846 422.2855 255.8377 420.1662 256.2165 416.6905 259.3685 410.9606 261.3293 406.2346 261.3513 403.6935 262.6154 401.5427 263.4704 399.8853 265.161 397.4881 267.5461 393.8568 268.1017 390.6812 268.3907 387.717 268.786 384.8588 267.7778 382.563 266.5767 378.7317 266.9257 371.5146 265.7126 363.995 264.1734 360.5514 267.6711 360.557 272.8376 360.7946 276.8168 359.548 279.9641 356.7471 280.7688 353.1659 279.2462 350.3751 277.9383 346.5612 277.8554 342.7669 279.1913 340.1218 280.9737 335.748 280.0288 326.6757 278.4079 318.273 278.5206 314.1437 279.6629 310.1924 280.6181 300.6817 279.4805 289.2092 278.1752 283.0131 277.1857 279.5528 276.2995 278.3162 278.3425 277.7014 282.2679 277.1599 286.1027 277.8712 291.7446 281.603 298.1876 283.9595 302.4864 283.1715 305.1319 283.599 306.3527 286.7599 309.8786 292.2362 314.4503 299.0202 318.4899 305.2389 323.2779 309.7645 324.9928 314.6737 331.5039 318.814 340.8936 322.0061 347.5181 321.9462 354.34 320.7217 360.3428 320.8728 364.4967 322.1152 366.8561 323.8137 369.5889 325.2303 372.1258 326.9468 374.2892 328.9804 377.0908 331.7741 380.3883 335.3101 383.7235 337.5753 386.4578 338.1096 387.3626 338.7113 Z" id="RW.3350" fill="#cee3f5" stroke="#6e6e6e" stroke-width="0.4">
      <desc>
        <labelrank>9</labelrank>
        <code_hasc>RW.</code_hasc>
        <name>Southern</name>
        <admin>Rwanda</admin>
        <type_en>Province</type_en>
        <region/>
        <woe_id>55864752</woe_id>
        <longitude>29</longitude>
        <woe_name>Southern</woe_name>
        <fips/>
        <woe_label>Province du Sud, RW, Rwanda</woe_label>
        <latitude>-2</latitude>
        <iso_a2>RW</iso_a2>
        <postal>S</postal>
        <type>Province</type>
        <id>RW.3350</id>
      </desc>
    </path>
    <path d="M 276.2995 278.3162 277.1857 279.5528 278.1752 283.0131 279.4805 289.2092 280.6181 300.6817 279.6629 310.1924 278.5206 314.1437 278.4079 318.273 280.0288 326.6757 280.9737 335.748 279.1913 340.1218 277.8554 342.7669 277.9383 346.5612 279.2462 350.3751 280.7688 353.1659 279.9641 356.7471 276.8168 359.548 272.8376 360.7946 267.6711 360.557 264.1734 360.5514 265.7126 363.995 266.9257 371.5146 266.5767 378.7317 267.7778 382.563 268.786 384.8588 268.3907 387.717 268.1017 390.6812 267.5461 393.8568 265.161 397.4881 263.4704 399.8853 262.6154 401.5427 261.3513 403.6935 261.3293 406.2346 259.3685 410.9606 256.2165 416.6905 255.8377 420.1662 256.846 422.2855 258.1162 426.9994 258.2323 431.6759 255.4249 433.1534 251.7464 435.3528 249.383 436.6722 246.5768 437.4791 244.0544 438.463 241.8901 437.6299 240.045 436.9738 238.6215 438.983 236.6298 441.0618 232.2406 443.7718 228.4895 447.0474 223.9055 449.5805 215.3563 456.2006 210.3421 461.362 208.2481 461.0584 204.1832 461.228 198.237 461.3591 191.2952 462.4767 184.8978 467.2476 180.5284 469.1987 176.6613 468.0279 171.5663 468.7958 166.3619 471.4337 162.8767 475.5565 161.9462 480.1774 164.2085 485.7917 166.5432 490.5592 166.2539 493.6992 162.802 499.1099 159.9016 503.7098 160.9076 506.9225 161.9303 510.7704 160.5231 513.8732 153.4715 517.7073 146.225 521.541 143.2365 525.876 141.6673 530.3545 141.9828 532.6485 146.1311 534.8962 152.5157 536.9009 157.1256 539.0085 159.958 542.8067 160.6941 547.9951 162.7448 552.2507 165.3293 555.6605 167.0267 559.0158 168.4423 561.1532 167.7797 564.4866 167.3657 567.644 167.8227 570.0443 169.5391 572.6058 173.5382 578.4709 172.3794 590.7839 167.5192 599.367 164.3756 601.0018 162.6537 601.5102 156.1584 604.9004 154.9877 600.2731 155.4388 596.2513 155.1934 594.663 151.012 591.5501 144.7378 587.9747 137.4845 586.2326 122.9926 584.4071 115.3324 582.0649 94.5019 572.9969 88.9149 572.1761 68.9368 573.4485 61.1367 581.0209 55.1734 615.1613 49.9504 609.3316 42.914 605.8629 32.6632 604.7527 28.0898 602.9463 15.2962 594.601 12.6397 591.8806 14.985 565.815 12.6907 557.8744 9.1658 554.3063 5.3191 552.4664 2.271 550.3808 1 546.0048 2.2481 541.5265 8.2162 536.2437 7.0158 532.0794 3.5474 525.9013 2.2795 519.1266 1.5977 511.8236 4.1823 502.8672 9.0135 498.7465 18.2435 495.5843 25.414 493.5128 31.3625 490.0287 36.2486 485.0967 40.2316 478.9286 42.8291 473.8523 44.0053 470.185 44.4175 467.2222 47.953 463.9462 50.8644 462.9272 60.7474 463.2585 76.0311 459.2583 87.8627 449.9966 96.4708 436.7079 101.8888 420.5567 103.8964 406.3056 103.2033 394.0266 94.1502 340.4224 93.4201 327.932 95.1388 315.7268 101.6178 300.7047 114.4646 280.3389 123.2792 266.3649 130.5379 252.7186 134.6989 246.6898 151.2963 233.0533 154.7812 228.576 164.2125 209.3205 168.1953 204.2437 173.5955 201.9912 199.8584 200.9615 200.711 200.7507 201.4751 200.2575 202.1862 199.5173 203.3459 197.7063 203.346 197.7064 204.8353 199.8254 210.9698 208.143 219.2512 217.822 226.653 220.3717 233.1498 222.4264 235.9556 222.3593 238.2297 221.4621 239.596 222.2931 241.4244 222.86 246.9973 225.4608 253.3686 228.6098 260.3127 228.2303 267.0604 228.7153 268.4678 239.0583 268.9289 253.053 268.7735 262.9528 268.3371 270.3992 272.6097 275.5228 276.2995 278.3162 Z" id="RW.3351" fill="#cee3f5" stroke="#6e6e6e" stroke-width="0.4">
      <desc>
        <labelrank>9</labelrank>
        <code_hasc>RW.</code_hasc>
        <name>Western</name>
        <admin>Rwanda</admin>
        <type_en>Province</type_en>
        <region/>
        <woe_id>55864753</woe_id>
        <longitude>29</longitude>
        <woe_name>Province de l'Ouest</woe_name>
        <fips/>
        <woe_label/>
        <latitude>-2</latitude>
        <iso_a2>RW</iso_a2>
        <postal>W</postal>
        <type>Province</type>
        <id>RW.3351</id>
      </desc>
    </path>
    <path d="M 378.7301 481.3537 379.5435 480.426 380.004 479.4488 380.3996 478.6096 381.23 472.0624 382.4702 465.6614 382.5941 465.022 382.7796 464.4885 386.899 452.6389 388.8329 435.873 388.2871 424.539 391.9948 417.4499 397.1203 411.8993 399.4016 407.7553 399.4448 403.8188 399.4744 397.6227 399.8892 394.3224 401.4546 393.0014 404.7608 391.5601 406.8943 390.3991 408.6917 388.5312 411.1617 387.8651 412.4022 389.3327 413.9966 391.4366 416.9443 391.76 419.0584 391.4993 420.0181 391.2011 421.1731 390.9208 423.2164 390.5364 425.4731 390.0465 427.4636 389.4324 430.5554 388.7852 433.3267 388.5435 434.3214 388.5101 435.4941 388.3005 436.3314 387.031 438.3953 385.2872 440.7966 383.5441 442.7702 382.5239 446.4502 380.9422 450.6274 379.4849 454.8349 380.6761 458.4493 385.415 460.7692 388.9685 463.3738 392.2224 465.6058 395.3168 467.9394 392.0374 470.6698 385.8632 472.9682 373.5436 474.0227 361.2213 474.2436 357.2667 476.113 355.1515 481.0735 353.0776 485.768 350.8619 487.3902 347.9869 487.5275 341.2774 486.8275 335.6787 484.806 333.6443 482.6789 331.0447 482.9187 326.3307 481.6131 321.402 479.274 318.0782 478.8332 316.2588 480.203 315.2725 482.6417 312.7167 485.5947 310.7091 487.5512 309.5473 487.454 304.3383 484.8076 293.8452 481.2747 282.1147 480.061 274.9439 481.3823 271.15 482.5438 267.2321 480.526 262.6379 475.6308 257.3504 468.9636 249.094 462.74 241.0328 458.2699 236.3293 454.8857 230.2505 452.249 223.2902 450.8214 215.6433 452.6422 209.908 455.3821 207.4756 455.5266 205.9045 453.6446 204.8954 450.2865 204.8904 446.18 206.3145 443.0693 207.2457 442.8251 204.1027 441.9621 198.8403 440.5098 195.6251 437.5516 189.1946 434.5567 183.6292 430.7267 177.8686 426.4012 170.6598 424.1648 168.8738 422.2671 166.2938 421.1879 162.8146 419.2532 161.2938 418.2586 161.0277 416.8204 160.2844 416.8118 160.2799 426.9691 154.8902 441.0131 149.4708 444.7491 146.0153 446.5326 140.827 448.6461 127.5883 451.1041 122.9304 453.8071 121.3447 456.5442 120.889 459.2811 120.6806 461.8232 119.9422 467.1405 116.806 482.4592 102.3817 486.9623 96.6662 490.6663 90.4906 491.3266 88.2312 492.0965 83.3234 493.0942 81.2763 494.2694 80.317 495.5136 79.3015 501.275 76.7301 503.3743 75.002 505.1576 69.8126 507.3951 55.6886 510.2976 50.8181 515.5608 48.952 521.2477 49.8058 527.1116 51.5075 532.9055 52.2557 538.3108 50.9195 542.828 48.9113 547.5039 48.2807 552.7358 49.9043 556.5037 51.0736 553.7726 53.9038 551.1197 57.6448 550.0309 61.4936 551.1643 65.1683 556.1732 68.6003 557.3053 73.2641 556.574 75.2766 555.274 77.2177 554.3472 79.2652 554.9135 81.3145 557.933 83.3316 560.6711 82.9111 562.9124 81.7129 564.335 81.3261 568.562 84.3691 570.0171 86.4903 571.3569 95.3228 573.4482 100.3061 579.692 110.6289 581.7091 117.5905 584.9033 121.7278 585.5927 124.5195 585.2535 125.5787 584.4692 127.0613 583.6487 129.0736 583.2896 131.6165 585.1306 137.0945 589.57 140.4214 599.6968 144.6046 603.3197 147.1535 608.4679 152.0363 611.6294 153.9488 634.3373 162.3568 641.0918 163.3214 647.7705 167.3599 649.7118 176.3021 649.057 185.2047 647.9835 189.2308 646.149 191.2063 648.186 195.6616 653.8623 203.2324 658.1215 207.7625 659.6459 210.3799 662.9664 222.6819 666.2593 230.3908 671.6387 234.6055 679.8231 231.5113 682.3165 238.7599 682.0153 247.558 677.5175 274.5105 677.4034 278.1852 678.1821 279.9536 681.2306 284.6241 682.0775 287.7708 678.1112 297.162 679.3126 300.7688 682.0213 314.4849 680.1243 320.276 676.611 325.3921 674.6618 330.6528 677.2793 336.7716 671.6878 341.1055 669.5852 343.3269 667.8725 346.0792 678.1792 347.7278 679.1897 356.7761 674.6106 376.6595 681.0487 375.2966 687.2453 378.3855 692.4768 383.628 696.1445 388.5842 699 398.5212 687.0656 436.5499 684.0404 451.5956 685.4354 474.9924 683.9591 481.9497 680.3872 488.3359 675.8999 491.5392 670.1172 494.0675 664.7953 497.0917 659.9941 498.2446 657.5023 499.6511 654.3725 500.4906 651.5667 499.8116 633.6431 490.9658 629.9502 489.7901 625.5064 490.379 621.5537 493.4422 616.6254 502.6148 612.7613 505.8194 605.5645 506.1889 598.1081 504.0496 590.7907 503.112 584.1361 506.9805 572.8384 506.5274 561.4115 501.1644 542.779 485.8943 540.8137 483.2051 539.0489 478.3973 537.4191 476.5214 536.2457 476.9424 525.3803 474.3381 523.7125 473.4865 518.1843 475.098 514.8197 478.198 513.3917 480.0536 511.8085 482.1111 507.3759 486.162 502.4321 488.6578 495.9619 490.7261 489.387 492.0525 483.845 492.2867 479.5847 491.3233 468.8693 486.1074 464.8742 485.7098 463.6435 488.0023 463.4585 491.2153 462.7426 493.6149 447.1764 512.9295 441.3069 516.9412 433.6351 517.1706 425.7578 514.1159 418.5947 509.3684 412.9591 504.448 402.3326 491.8906 398.1489 488.6687 394.2277 487.2833 390.9252 487.1704 388.0303 487.4466 385.3677 487.0526 379.3264 481.8656 378.7301 481.3537 Z" id="RW.3352" fill="#cee3f5" stroke="#6e6e6e" stroke-width="0.4">
      <desc>
        <labelrank>9</labelrank>
        <code_hasc>RW.</code_hasc>
        <name>Eastern</name>
        <admin>Rwanda</admin>
        <type_en>Province</type_en>
        <region/>
        <woe_id>55864749</woe_id>
        <longitude>30</longitude>
        <woe_name>Eastern</woe_name>
        <fips/>
        <woe_label>Province de l'Est, RW, Rwanda</woe_label>
        <latitude>-1</latitude>
        <iso_a2>RW</iso_a2>
        <postal>E</postal>
        <type>Province</type>
        <id>RW.3352</id>
      </desc>
    </path>
    <path d="M 416.8118 160.2799 416.8204 160.2844 418.2586 161.0277 419.2532 161.2938 421.1879 162.8146 422.2671 166.2938 424.1648 168.8738 426.4012 170.6598 430.7267 177.8686 434.5567 183.6292 437.5516 189.1946 440.5098 195.6251 441.9621 198.8403 442.8251 204.1027 443.0693 207.2457 446.18 206.3145 450.2865 204.8904 453.6446 204.8954 455.5266 205.9045 455.3821 207.4756 452.6422 209.908 450.8214 215.6433 452.249 223.2902 454.8857 230.2505 458.2699 236.3293 462.74 241.0328 468.9636 249.094 475.6308 257.3504 480.526 262.6379 482.5438 267.2321 481.3823 271.15 480.061 274.9439 481.2747 282.1147 484.8076 293.8452 487.454 304.3383 487.5512 309.5473 485.5947 310.7091 482.6417 312.7167 480.203 315.2725 478.8332 316.2588 476.311 315.8834 470.6825 314.0192 459.9654 306.4256 448.6441 298.9199 442.9649 295.591 440.2844 294.3859 438.5358 298.8496 436.1453 304.6539 434.2582 307.0516 430.9904 306.5517 422.5676 308.0202 415.599 311.1154 413.6763 313.6189 409.9387 317.8846 405.4224 320.5249 401.1997 317.6932 396.622 314.7197 393.3163 315.8439 390.6983 319.9702 387.8663 324.6256 386.3329 328.0829 388.2067 333.2759 389.5495 337.3736 388.269 338.3599 387.3626 338.7113 386.4578 338.1096 383.7235 337.5753 380.3883 335.3101 377.0908 331.7741 374.2892 328.9804 372.1258 326.9468 369.5889 325.2303 366.8561 323.8137 364.4967 322.1152 360.3428 320.8728 354.34 320.7217 347.5181 321.9462 340.8936 322.0061 331.5039 318.814 324.9928 314.6737 323.2779 309.7645 318.4899 305.2389 314.4503 299.0202 309.8786 292.2362 306.3527 286.7599 305.1319 283.599 302.4864 283.1715 298.1876 283.9595 291.7446 281.603 286.1027 277.8712 282.2679 277.1599 278.3425 277.7014 276.2995 278.3162 272.6097 275.5228 268.3371 270.3992 268.7735 262.9528 268.9289 253.053 268.4678 239.0583 267.0604 228.7153 260.3127 228.2303 253.3686 228.6098 246.9973 225.4608 241.4244 222.86 239.596 222.2931 238.2297 221.4621 235.9556 222.3593 233.1498 222.4264 226.653 220.3717 219.2512 217.822 210.9698 208.143 204.8353 199.8254 203.346 197.7064 203.3459 197.7063 209.9774 187.3512 221.8177 175.1187 235.5381 165.3228 249.0405 160.5731 262.857 161.3294 270.0684 160.808 276.4642 159.0858 283.5553 155.1407 288.8703 151.3347 294.6284 148.3763 302.9783 146.9032 307.0626 147.8255 314.3758 152.2461 316.755 153.096 319.599 151.4402 321.6673 144.7006 324.78 141.0331 327.962 139.06 330.9473 138.1809 333.9995 138.6376 334.0376 138.6433 337.8014 140.5538 347.4487 154.5087 348.9678 161.6767 349.7676 175.7274 353.098 182.9684 358.9886 188.4477 365.7009 190.3628 372.9321 189.5956 380.4858 186.8166 403.8468 173.9965 407.4011 173.2597 410.5378 165.8142 415.0211 161.2301 416.8118 160.2799 Z" id="RW.3353" fill="#cee3f5" stroke="#6e6e6e" stroke-width="0.4">
      <desc>
        <labelrank>9</labelrank>
        <code_hasc>RW.</code_hasc>
        <name>Northern</name>
        <admin>Rwanda</admin>
        <type_en>Province</type_en>
        <region/>
        <woe_id>55864751</woe_id>
        <longitude>29</longitude>
        <woe_name>Northern</woe_name>
        <fips/>
        <woe_label>Province du Nord, RW, Rwanda</woe_label>
        <latitude>-1</latitude>
        <iso_a2>RW</iso_a2>
        <postal>N</postal>
        <type>Province</type>
        <id>RW.3353</id>
      </desc>
    </path>
    <path d="M 478.8332 316.2588 479.274 318.0782 481.6131 321.402 482.9187 326.3307 482.6789 331.0447 484.806 333.6443 486.8275 335.6787 487.5275 341.2774 487.3902 347.9869 485.768 350.8619 481.0735 353.0776 476.113 355.1515 474.2436 357.2667 474.0227 361.2213 472.9682 373.5436 470.6698 385.8632 467.9394 392.0374 465.6058 395.3168 463.3738 392.2224 460.7692 388.9685 458.4493 385.415 454.8349 380.6761 450.6274 379.4849 446.4502 380.9422 442.7702 382.5239 440.7966 383.5441 438.3953 385.2872 436.3314 387.031 435.4941 388.3005 434.3214 388.5101 433.3267 388.5435 430.5554 388.7852 427.4636 389.4324 425.4731 390.0465 423.2164 390.5364 421.1731 390.9208 420.0181 391.2011 419.0584 391.4993 416.9443 391.76 413.9966 391.4366 412.4022 389.3327 411.1617 387.8651 408.6917 388.5312 406.8943 390.3991 404.7608 391.5601 401.4546 393.0014 399.8892 394.3224 399.0734 393.703 396.908 393.028 394.9556 392.3888 393.4642 392.1742 390.5194 390.3504 388.4316 386.1982 389.0948 382.8984 391.6214 380.3611 394.4119 379.2542 395.622 377.9501 397.1898 375.3404 394.9616 370.0758 391.7207 364.9859 392.8961 363.2228 393.5571 361.0704 393.8097 358.8995 393.8653 357.5933 393.973 356.958 394.5618 355.4586 393.5716 352.9855 392.5461 350.4064 391.5197 348.2862 390.5274 346.9429 389.819 345.8119 388.8999 343.2154 387.8749 340.3009 387.1842 339.1523 387.3626 338.7113 388.269 338.3599 389.5495 337.3736 388.2067 333.2759 386.3329 328.0829 387.8663 324.6256 390.6983 319.9702 393.3163 315.8439 396.622 314.7197 401.1997 317.6932 405.4224 320.5249 409.9387 317.8846 413.6763 313.6189 415.599 311.1154 422.5676 308.0202 430.9904 306.5517 434.2582 307.0516 436.1453 304.6539 438.5358 298.8496 440.2844 294.3859 442.9649 295.591 448.6441 298.9199 459.9654 306.4256 470.6825 314.0192 476.311 315.8834 478.8332 316.2588 Z" id="RW.3354" fill="#cee3f5" stroke="#6e6e6e" stroke-width="0.4">
      <desc>
        <labelrank>9</labelrank>
        <code_hasc>RW.</code_hasc>
        <name>Kigali City</name>
        <admin>Rwanda</admin>
        <type_en>Province</type_en>
        <region/>
        <woe_id>55864750</woe_id>
        <longitude>30</longitude>
        <woe_name>Kigali City</woe_name>
        <fips/>
        <woe_label>Kigali Province, RW, Rwanda</woe_label>
        <latitude>-1</latitude>
        <iso_a2>RW</iso_a2>
        <postal>K</postal>
        <type>Province</type>
        <id>RW.3354</id>
      </desc>
    </path>
  </g>
</svg>