<?xml version="1.0" encoding="UTF-8"?>
<svg xmlns="http://www.w3.org/2000/svg" width="700" height="700">
  <g id="s_sudan">
    <path d="M 280.285 262.9625 286.0238 263.8127 289.4245 266.1507 288.1492 267.8511 282.8356 270.6142 279.6474 280.3913 252.4415 282.7293 237.3508 281.8791 226.2984 283.792 223.9604 286.3426 222.6851 289.7433 222.0475 298.8828 216.5213 309.51 212.6955 326.5137 204.1937 328.8517 168.6985 345.4303 162.1096 349.8937 155.5207 352.6568 149.5694 351.5941 126.6145 335.8657 123.0012 330.7646 120.8758 324.1757 116.1998 287.8304 116.4123 248.9345 118.1127 223.8541 122.5761 225.5545 144.8934 251.4851 149.1443 253.8231 153.1827 254.0356 175.9251 246.384 191.2284 245.9589 216.7339 247.6593 224.173 247.0216 230.1242 259.5618 233.0999 262.5375 280.285 262.9625 Z" id="SS.NB" fill="#cee3f5" stroke="#6e6e6e" stroke-width="0.4">
      <desc>
        <labelrank>3</labelrank>
        <code_hasc>SS.NB</code_hasc>
        <name>North Bahr-al-Ghazal</name>
        <admin>S. Sudan</admin>
        <type_en>State</type_en>
        <region>Bahr al Ghazal</region>
        <woe_id>20069897</woe_id>
        <longitude>27</longitude>
        <woe_name>North Bahr-al-Ghazal</woe_name>
        <fips>SU54</fips>
        <woe_label>Shamal Bahr al Ghazal, SD, Sudan</woe_label>
        <latitude>8</latitude>
        <iso_a2>SS</iso_a2>
        <postal>NB</postal>
        <type>Wilayat</type>
        <id>SS.NB</id>
      </desc>
    </path>
    <path d="M 396.9726 395.8036 399.0981 398.7792 402.0737 399.6294 406.1121 403.0301 411.6382 405.3681 412.4884 407.9187 422.2655 415.9954 426.729 423.0094 428.2168 428.9607 430.9799 430.236 432.2552 435.3371 436.5061 440.6507 439.9068 452.3407 442.4574 455.1038 444.5828 461.4802 447.5585 464.0308 444.5828 466.7938 442.4574 466.5813 438.419 464.4558 418.4397 460.8426 411.2132 457.6544 400.1608 448.3024 397.1851 448.3024 392.7217 450.4278 387.6206 451.4906 374.4428 452.5533 371.8922 449.5776 365.7284 437.4625 360.6273 431.9364 344.8989 432.1489 343.4111 433.8493 343.1985 438.9504 344.4738 445.1142 343.4111 453.4035 341.4982 457.8669 334.9093 465.306 331.296 475.7208 328.3203 477.4211 324.0694 477.6337 296.2259 474.4455 285.5987 467.8566 279.8599 459.5673 271.9957 452.7658 267.5323 443.8389 266.0445 433.2116 268.1699 416.208 273.0585 420.0338 279.8599 422.1593 285.8112 421.3091 289.637 419.3962 291.5499 416.4205 299.8392 390.7025 303.8776 384.9638 323.2192 363.7092 330.8709 352.0192 340.0104 352.6568 342.5609 354.1446 361.4775 392.828 368.2789 395.166 396.9726 395.8036 Z" id="SS.EB" fill="#cee3f5" stroke="#6e6e6e" stroke-width="0.4">
      <desc>
        <labelrank>3</labelrank>
        <code_hasc>SS.EB</code_hasc>
        <name>Lakes</name>
        <admin>S. Sudan</admin>
        <type_en>State</type_en>
        <region>Bahr al Ghazal</region>
        <woe_id>20069896</woe_id>
        <longitude>30</longitude>
        <woe_name>Lakes</woe_name>
        <fips>SU37</fips>
        <woe_label>Al Buhayrat, SD, Sudan</woe_label>
        <latitude>6</latitude>
        <iso_a2>SS</iso_a2>
        <postal>EB</postal>
        <type>Wilayat</type>
        <id>SS.EB</id>
      </desc>
    </path>
    <path d="M 268.1699 416.208 266.0445 433.2116 267.5323 443.8389 271.9957 452.7658 279.8599 459.5673 285.5987 467.8566 296.2259 474.4455 324.0694 477.6337 328.3203 477.4211 331.296 475.7208 334.9093 465.306 341.4982 457.8669 343.4111 453.4035 344.4738 445.1142 343.1985 438.9504 343.4111 433.8493 344.8989 432.1489 360.6273 431.9364 365.7284 437.4625 371.8922 449.5776 374.4428 452.5533 388.0457 464.0308 394.6346 472.32 402.4988 478.6964 405.4744 484.6477 405.0493 489.1111 402.2862 493.3621 400.5859 498.8882 399.3106 518.2299 396.9726 520.3554 382.0944 526.5192 369.3417 537.1465 365.9409 537.1465 358.0767 531.1952 353.8258 532.0454 336.1845 546.0734 336.6096 545.2232 333.634 543.5228 331.9336 543.7354 326.1949 540.1221 316.6303 538.4217 315.7801 543.5228 312.592 548.8365 309.6163 551.387 307.4909 555.2129 303.8776 555.2129 302.6023 557.9759 301.1145 558.1885 288.7868 548.8365 278.5847 549.6867 277.0968 549.2616 276.6717 546.711 274.9714 545.2232 271.5706 546.4985 268.1699 552.4498 264.1315 554.1501 263.2814 556.063 259.6681 556.2756 255.6297 560.9516 252.8666 561.8018 251.5914 561.3767 250.3161 558.6136 248.4032 557.3383 240.9641 557.5509 236.2881 551.8121 233.3124 553.2999 230.9744 549.6867 231.187 545.4357 226.0859 544.373 225.2357 545.6483 221.4099 545.4357 216.9464 542.8852 215.6711 532.0454 211.8453 530.7701 210.9951 527.3694 209.0822 525.4565 203.9811 524.8188 201.6431 523.5435 200.7929 520.993 196.9671 518.2299 197.3922 514.8292 193.9915 510.3657 187.8276 505.2646 185.2771 499.7384 184.0018 493.7871 186.5524 484.6477 185.9147 483.7975 184.0018 484.2226 184.2144 480.8219 182.0889 476.996 179.3258 475.5082 178.4756 473.3828 175.5 472.1075 173.3745 472.5326 170.1864 468.0691 166.3605 468.7068 164.8727 466.3688 160.4093 465.9437 159.7716 462.3304 158.0713 460.8426 153.8203 459.1422 147.6565 459.1422 144.2558 457.8669 140.43 453.616 137.2418 455.5289 137.4543 452.9784 141.7052 449.7902 142.1303 447.6647 138.9421 446.1769 138.7296 443.2013 134.2661 441.2884 129.165 436.8249 129.165 432.574 128.1023 432.1489 130.0152 430.4485 134.4787 422.3718 226.511 411.532 237.3508 418.7585 268.1699 416.208 Z" id="SS.WE" fill="#cee3f5" stroke="#6e6e6e" stroke-width="0.4">
      <desc>
        <labelrank>3</labelrank>
        <code_hasc>SS.WE</code_hasc>
        <name>West Equatoria</name>
        <admin>S. Sudan</admin>
        <type_en>State</type_en>
        <region>Equatoria</region>
        <woe_id>20069900</woe_id>
        <longitude>28</longitude>
        <woe_name>West Equatoria</woe_name>
        <fips>SU45</fips>
        <woe_label>Gharb al Istiwa´iyah, SD, Sudan</woe_label>
        <latitude>5</latitude>
        <iso_a2>SS</iso_a2>
        <postal>WE</postal>
        <type>Wilayat</type>
        <id>SS.WE</id>
      </desc>
    </path>
    <path d="M 447.5585 464.0308 479.4403 465.9437 477.9525 472.5326 478.3776 509.7281 480.7156 517.1672 486.2418 527.3694 486.6669 531.4077 476.0396 552.6623 472.6389 563.7147 462.0116 573.2792 455.2101 589.4327 453.9348 589.0076 448.4086 594.9589 441.1821 596.4467 438.8441 598.3596 425.2412 591.3456 420.5652 590.2829 416.3143 590.708 412.4884 593.6836 404.6242 597.0843 398.4604 608.1367 397.6102 607.074 398.2479 603.8858 394.8471 601.5478 393.997 598.1471 392.9342 597.2969 389.746 599.8474 383.7948 601.5478 380.8191 600.9102 382.0944 596.0216 379.7564 585.8194 375.718 585.8194 368.704 582.4187 359.9896 580.7183 355.9513 572.004 351.2753 570.091 348.0871 565.2025 344.2613 563.5021 345.1114 560.9516 344.4738 559.8889 341.7107 557.7634 337.6724 557.5509 336.1845 556.2756 335.5469 554.1501 336.1845 546.0734 353.8258 532.0454 358.0767 531.1952 365.9409 537.1465 369.3417 537.1465 382.0944 526.5192 396.9726 520.3554 399.3106 518.2299 400.5859 498.8882 402.2862 493.3621 405.0493 489.1111 405.4744 484.6477 402.4988 478.6964 394.6346 472.32 388.0457 464.0308 374.4428 452.5533 387.6206 451.4906 392.7217 450.4278 397.1851 448.3024 400.1608 448.3024 411.2132 457.6544 418.4397 460.8426 438.419 464.4558 442.4574 466.5813 444.5828 466.7938 447.5585 464.0308 Z" id="SS.BG" fill="#cee3f5" stroke="#6e6e6e" stroke-width="0.4">
      <desc>
        <labelrank>3</labelrank>
        <code_hasc>SS.BG</code_hasc>
        <name>Central Equatoria</name>
        <admin>S. Sudan</admin>
        <type_en>State</type_en>
        <region>Equatoria</region>
        <woe_id>20069902</woe_id>
        <longitude>31</longitude>
        <woe_name>Central Equatoria</woe_name>
        <fips>SU44</fips>
        <woe_label>Bahr al Jabal, SD, Sudan</woe_label>
        <latitude>4</latitude>
        <iso_a2>SS</iso_a2>
        <postal>EC</postal>
        <type>Wilayat</type>
        <id>SS.BG</id>
      </desc>
    </path>
    <path d="M 526.6255 344.7926 519.6114 341.6044 516.8484 339.479 517.0609 336.0783 520.0365 327.5764 519.1864 320.3499 511.5347 316.099 503.0329 307.8097 488.1547 281.2415 484.5414 280.8164 467.9629 289.5308 463.7119 290.1684 459.461 287.4053 439.0566 260.8371 431.8301 261.8998 428.4294 259.7744 415.2515 256.5862 404.1991 251.6976 404.8368 237.6696 417.5895 237.032 421.8404 235.3316 447.1334 210.4638 455.2101 200.8992 459.0359 195.1605 463.7119 184.3206 491.5554 160.9406 492.4056 159.0277 492.8307 157.5399 488.5798 149.6757 487.7296 145.6373 487.7296 122.2573 471.7887 104.8286 511.1096 104.616 510.0469 96.9644 510.2594 91.8633 538.528 92.2884 538.1029 97.1769 534.7022 108.6544 534.0646 123.32 531.0889 128.4211 537.0402 173.2683 534.4896 179.4321 548.7302 184.9583 554.0438 190.9096 580.3995 212.8018 583.3752 220.2409 582.7375 227.0423 583.8002 231.7183 579.7619 240.2202 578.2741 252.7604 579.5493 255.3109 589.539 255.3109 591.877 304.409 590.6017 308.4473 583.5877 315.0362 574.8733 316.5241 570.6224 319.4997 567.4342 319.2871 562.9708 314.1861 558.9324 315.0362 554.894 313.3359 554.6815 314.3986 549.3678 314.6111 547.6675 315.6739 540.0158 314.3986 536.4026 317.5868 535.7649 319.9248 536.4026 321.2001 535.9775 324.1757 538.528 326.3012 536.19 329.2768 537.0402 333.1026 535.9775 334.5904 533.2144 335.2281 526.6255 344.7926 Z" id="SS.UN" fill="#cee3f5" stroke="#6e6e6e" stroke-width="0.4">
      <desc>
        <labelrank>3</labelrank>
        <code_hasc>SS.UN</code_hasc>
        <name>Upper Nile</name>
        <admin>S. Sudan</admin>
        <type_en>State</type_en>
        <region>Upper Nile</region>
        <woe_id>20069908</woe_id>
        <longitude>32</longitude>
        <woe_name>Upper Nile</woe_name>
        <fips>SU35</fips>
        <woe_label>A`ali an Nil, SD, Sudan</woe_label>
        <latitude>10</latitude>
        <iso_a2>SS</iso_a2>
        <postal>UN</postal>
        <type>Wilayat</type>
        <id>SS.UN</id>
      </desc>
    </path>
    <path d="M 404.1991 251.6976 415.2515 256.5862 428.4294 259.7744 431.8301 261.8998 439.0566 260.8371 459.461 287.4053 463.7119 290.1684 467.9629 289.5308 484.5414 280.8164 488.1547 281.2415 503.0329 307.8097 511.5347 316.099 519.1864 320.3499 520.0365 327.5764 517.0609 336.0783 516.8484 339.479 519.6114 341.6044 526.6255 344.7926 525.5627 346.2805 529.176 353.0819 540.0158 354.1446 543.4166 357.1203 546.8173 357.9705 553.6188 356.2701 558.7199 359.6708 563.821 359.6708 568.497 361.7963 574.2357 367.3225 578.4866 368.8103 586.7759 377.9498 587.4135 385.8139 593.1523 390.915 596.1279 390.7025 597.6157 397.2914 602.9294 402.3925 611.4312 404.518 615.257 407.0685 617.1699 415.7829 621.8459 416.208 626.947 419.1836 628.6474 421.9467 631.8356 433.6367 634.5987 438.7378 635.2363 445.1142 638.637 451.4906 641.6127 454.8913 642.6754 459.3548 596.553 472.9577 479.4403 465.9437 447.5585 464.0308 444.5828 461.4802 442.4574 455.1038 439.9068 452.3407 436.5061 440.6507 432.2552 435.3371 430.9799 430.236 428.2168 428.9607 426.729 423.0094 422.2655 415.9954 412.4884 407.9187 411.6382 405.3681 406.1121 403.0301 402.0737 399.6294 399.0981 398.7792 396.9726 395.8036 396.1224 393.6781 391.0213 389.6398 386.7704 377.9498 380.6066 370.5107 382.0944 369.873 382.3069 367.7476 377.8435 361.5837 378.9062 360.521 378.9062 356.6952 380.394 354.3572 379.9689 353.507 381.2442 353.0819 379.5438 352.8694 380.394 351.8066 378.6937 350.5314 377.4184 346.0679 373.8051 341.817 374.6553 341.1794 371.8922 337.7786 371.4671 334.5904 369.5542 334.803 369.5542 333.7403 367.8538 334.3779 367.0037 332.465 367.2162 328.8517 368.2789 328.4266 367.6413 326.7262 368.704 326.5137 367.4287 323.5381 369.1291 322.6879 367.8538 319.9248 369.9793 314.1861 364.8782 308.4473 365.5158 306.5344 364.6657 306.9595 364.8782 305.4717 367.0037 300.7957 362.1151 296.3322 363.8155 294.4193 359.9896 282.7293 360.8398 280.6038 362.5402 280.1787 364.2406 277.4157 366.366 275.9278 367.6413 272.3146 369.9793 270.4016 370.1918 264.0253 367.8538 261.6873 369.7667 260.6245 373.8051 253.6105 377.6309 251.06 386.9829 250.6349 396.9726 252.5478 401.6486 252.5478 404.1991 251.6976 Z" id="SS.JG" fill="#cee3f5" stroke="#6e6e6e" stroke-width="0.4">
      <desc>
        <labelrank>3</labelrank>
        <code_hasc>SS.JG</code_hasc>
        <name>Jungoli</name>
        <admin>S. Sudan</admin>
        <type_en>State</type_en>
        <region>Upper Nile</region>
        <woe_id>20069909</woe_id>
        <longitude>32</longitude>
        <woe_name>Jungoli</woe_name>
        <fips>SU51</fips>
        <woe_label>Junqali, SD, Sudan</woe_label>
        <latitude>7</latitude>
        <iso_a2>SS</iso_a2>
        <postal>JG</postal>
        <type>Wilayat</type>
        <id>SS.JG</id>
      </desc>
    </path>
    <path d="M 404.8368 237.6696 404.1991 251.6976 401.6486 252.5478 396.9726 252.5478 386.9829 250.6349 377.6309 251.06 373.8051 253.6105 369.7667 260.6245 367.8538 261.6873 370.1918 264.0253 369.9793 270.4016 367.6413 272.3146 366.366 275.9278 364.2406 277.4157 362.5402 280.1787 360.8398 280.6038 359.9896 282.7293 363.8155 294.4193 362.1151 296.3322 367.0037 300.7957 364.8782 305.4717 364.6657 306.9595 365.5158 306.5344 364.8782 308.4473 369.9793 314.1861 367.8538 319.9248 369.1291 322.6879 367.4287 323.5381 368.704 326.5137 367.6413 326.7262 368.2789 328.4266 367.2162 328.8517 367.0037 332.465 367.8538 334.3779 369.5542 333.7403 369.5542 334.803 371.4671 334.5904 371.8922 337.7786 374.6553 341.1794 373.8051 341.817 377.4184 346.0679 378.6937 350.5314 380.394 351.8066 379.5438 352.8694 381.2442 353.0819 379.9689 353.507 380.394 354.3572 378.9062 356.6952 378.9062 360.521 377.8435 361.5837 382.3069 367.7476 382.0944 369.873 380.6066 370.5107 386.7704 377.9498 391.0213 389.6398 396.1224 393.6781 396.9726 395.8036 368.2789 395.166 361.4775 392.828 342.5609 354.1446 340.0104 352.6568 330.8709 352.0192 328.1078 316.3115 310.254 303.3462 295.1632 280.6038 291.7625 279.3286 279.6474 280.3913 282.8356 270.6142 288.1492 267.8511 289.4245 266.1507 286.0238 263.8127 280.285 262.9625 279.4348 257.0113 284.5359 250.8474 290.0621 246.5965 297.2887 242.7707 318.1181 237.2445 323.0067 232.5685 325.7698 228.1051 325.9823 219.6032 349.3624 207.063 377.4184 224.7043 393.997 239.37 398.2479 237.8822 404.8368 237.6696 Z" id="SS.WH" fill="#cee3f5" stroke="#6e6e6e" stroke-width="0.4">
      <desc>
        <labelrank>3</labelrank>
        <code_hasc>SS.WH</code_hasc>
        <name>Unity</name>
        <admin>S. Sudan</admin>
        <type_en>State</type_en>
        <region>Upper Nile</region>
        <woe_id>20069907</woe_id>
        <longitude>29</longitude>
        <woe_name>Unity</woe_name>
        <fips>SU40</fips>
        <woe_label>Al Wahdah, SD, Sudan</woe_label>
        <latitude>8</latitude>
        <iso_a2>SS</iso_a2>
        <postal>WH</postal>
        <type>Wilayat</type>
        <id>SS.WH</id>
      </desc>
    </path>
    <path d="M 330.8709 352.0192 323.2192 363.7092 303.8776 384.9638 299.8392 390.7025 291.5499 416.4205 289.637 419.3962 285.8112 421.3091 279.8599 422.1593 273.0585 420.0338 268.1699 416.208 265.1943 395.3785 266.4695 376.4619 265.6194 372.6361 262.6437 369.6605 263.7065 365.4096 262.8563 364.1343 250.9537 357.9705 241.8143 351.5941 227.9988 347.7683 212.6955 326.5137 216.5213 309.51 222.0475 298.8828 222.6851 289.7433 223.9604 286.3426 226.2984 283.792 237.3508 281.8791 252.4415 282.7293 279.6474 280.3913 291.7625 279.3286 295.1632 280.6038 310.254 303.3462 328.1078 316.3115 330.8709 352.0192 Z" id="SS.WR" fill="#cee3f5" stroke="#6e6e6e" stroke-width="0.4">
      <desc>
        <labelrank>3</labelrank>
        <code_hasc>SS.WR</code_hasc>
        <name>Warap</name>
        <admin>S. Sudan</admin>
        <type_en>State</type_en>
        <region>Bahr al Ghazal</region>
        <woe_id>20069898</woe_id>
        <longitude>28</longitude>
        <woe_name>Warap</woe_name>
        <fips>SU59</fips>
        <woe_label>Warab, SD, Sudan</woe_label>
        <latitude>7</latitude>
        <iso_a2>SS</iso_a2>
        <postal>WR</postal>
        <type>Wilayat</type>
        <id>SS.WR</id>
      </desc>
    </path>
    <path d="M 118.1127 223.8541 116.4123 248.9345 116.1998 287.8304 120.8758 324.1757 123.0012 330.7646 126.6145 335.8657 149.5694 351.5941 155.5207 352.6568 162.1096 349.8937 168.6985 345.4303 204.1937 328.8517 212.6955 326.5137 227.9988 347.7683 241.8143 351.5941 250.9537 357.9705 262.8563 364.1343 263.7065 365.4096 262.6437 369.6605 265.6194 372.6361 266.4695 376.4619 265.1943 395.3785 268.1699 416.208 237.3508 418.7585 226.511 411.532 134.4787 422.3718 134.4787 421.0965 125.9769 417.0582 120.8758 412.1696 117.475 410.6818 116.4123 406.856 114.7119 406.4309 114.0743 405.1556 113.6492 400.6921 110.2485 400.2671 109.6108 399.2043 105.3599 397.504 104.7223 395.3785 100.2588 394.3158 99.4086 392.1903 87.9312 388.1519 83.4677 384.5387 81.3423 384.7512 73.4781 380.0752 71.5652 375.8243 64.1261 370.9357 62.6382 367.1099 63.9135 364.9845 67.7393 363.7092 69.4397 361.5837 68.8021 355.6325 66.4641 350.1063 63.0633 347.9808 58.1748 348.1934 54.5615 346.2805 50.0981 341.6044 47.9726 336.2908 42.8715 331.6148 30.1188 328.6392 23.9549 329.0643 19.2789 325.451 13.3276 326.9388 6.9513 325.0259 2.7004 322.6879 1 319.2871 1.8502 315.4613 5.0384 309.9351 8.4391 307.172 6.1011 304.409 7.5889 301.0082 3.7631 300.5831 4.6133 298.8828 16.0907 291.4437 22.8922 290.5935 26.718 288.8931 26.718 282.3042 32.6693 271.6769 33.9446 260.1995 40.5335 251.4851 40.746 233.8438 47.76 229.5929 51.3733 224.9169 54.5615 217.6903 53.9239 213.2269 57.7497 205.7878 67.1017 203.8748 71.9903 204.5125 102.5968 198.1361 105.785 202.387 106.2101 212.1641 112.5865 215.7774 118.1127 223.8541 Z" id="SS.WB" fill="#cee3f5" stroke="#6e6e6e" stroke-width="0.4">
      <desc>
        <labelrank>3</labelrank>
        <code_hasc>SS.WB</code_hasc>
        <name>West Bahr-al-Ghazal</name>
        <admin>S. Sudan</admin>
        <type_en>State</type_en>
        <region>Bahr al Ghazal</region>
        <woe_id>20069899</woe_id>
        <longitude>26</longitude>
        <woe_name>West Bahr-al-Ghazal</woe_name>
        <fips>SU46</fips>
        <woe_label>Gharb Bahr al Ghazal, SD, Sudan</woe_label>
        <latitude>7</latitude>
        <iso_a2>SS</iso_a2>
        <postal>WB</postal>
        <type>Wilayat</type>
        <id>SS.WB</id>
      </desc>
    </path>
    <path d="M 455.2101 589.4327 462.0116 573.2792 472.6389 563.7147 476.0396 552.6623 486.6669 531.4077 486.2418 527.3694 480.7156 517.1672 478.3776 509.7281 477.9525 472.5326 479.4403 465.9437 596.553 472.9577 642.6754 459.3548 641.8252 462.5429 643.313 464.8809 643.5256 469.1319 649.2643 477.4211 650.327 482.0971 660.1041 488.6861 660.7418 490.599 659.254 493.1495 662.4421 497.8255 664.9927 498.0381 669.8812 493.5746 672.2192 493.3621 679.8709 497.1879 684.972 496.5502 692.1985 500.1635 690.2856 504.4144 692.1985 510.3657 689.2229 515.2543 689.0104 527.5819 690.9233 532.8956 699 541.3974 690.7107 541.3974 690.4982 537.9967 688.1602 537.7841 686.6724 538.8468 686.0347 543.3103 680.7211 541.3974 675.4074 531.8328 678.3831 524.6063 673.9196 523.331 667.9683 523.331 670.0938 518.655 668.8185 517.1672 660.1041 522.0557 659.0414 519.9303 624.8216 532.8956 607.8179 541.3974 557.6571 591.3456 555.3191 592.8334 535.9775 592.1958 525.9878 584.7567 516.8484 590.2829 511.7473 591.7707 489.0049 593.8962 478.165 600.6976 477.3149 606.4364 476.2521 606.8614 471.5761 605.5862 468.813 602.6105 462.8618 601.7604 461.1614 595.5965 455.2101 589.4327 Z" id="SS.EE" fill="#cee3f5" stroke="#6e6e6e" stroke-width="0.4">
      <desc>
        <labelrank>3</labelrank>
        <code_hasc>SS.EE</code_hasc>
        <name>East Equatoria</name>
        <admin>S. Sudan</admin>
        <type_en>State</type_en>
        <region>Equatoria</region>
        <woe_id>20069901</woe_id>
        <longitude>33</longitude>
        <woe_name>East Equatoria</woe_name>
        <fips>SU57</fips>
        <woe_label>Sharq al Istiwa´iyah, SD, Sudan</woe_label>
        <latitude>4</latitude>
        <iso_a2>SS</iso_a2>
        <postal>EE</postal>
        <type>Wilayat</type>
        <id>SS.EE</id>
      </desc>
    </path>
  </g>
</svg>