<?xml version="1.0" encoding="UTF-8"?>
<svg xmlns="http://www.w3.org/2000/svg" width="700" height="700">
  <g id="hawaii">
    <path d="M 647.0678 440.8039 647.8168 441.6081 647.4246 442.4838 647.8893 442.7716 647.5795 443.3234 646.7367 443.3303 645.9465 443.199 645.3713 443.3058 644.5503 443.4759 643.5768 443.5761 642.9439 442.9606 643.3035 442.5245 643.9364 442.0011 644.7687 441.4834 645.6701 441.0108 646.4484 440.746 647.0678 440.8039 Z M 638.5516 432.5193 639.0183 432.9969 639.5036 433.5626 639.8168 434.0558 639.8839 434.4285 639.7 434.9362 639.0603 435.8773 637.7078 436.458 636.6095 436.7415 635.1671 436.8109 634.5696 436.0078 634.4302 435.3107 634.3923 434.7585 634.3851 434.0608 634.2799 433.4249 633.7721 433.1414 632.5365 432.6801 632.1702 432.116 632.4056 431.4925 633.1087 431.1553 634.3311 431.013 637.234 431.4102 638.5516 432.5193 Z M 663.7102 434.7887 664.3682 436.0684 664.2154 437.2506 663.6675 438.1923 662.9363 438.3864 662.3218 439.2326 661.52 439.239 659.9125 440.0175 658.8447 439.9948 658.2509 439.9359 657.7039 439.9709 656.2223 440.6133 655.2952 441.0823 654.7692 441.304 654.0525 441.1259 653.7799 441.0968 653.2859 440.9697 652.901 441.0783 651.6475 441.1249 650.8204 440.3889 650.7284 440.0851 650.3397 439.6828 650.5929 439.4788 650.6046 438.9449 650.3748 436.9894 650.1383 436.4505 650.1517 435.8467 649.9637 435.355 649.8416 435.2598 649.6364 435.074 649.3275 434.901 648.855 434.915 648.4316 435.0964 648.2705 435.5078 647.8962 435.5703 647.4583 435.3334 647.0396 435.0444 646.3931 434.937 645.7544 434.5529 645.3307 434.5912 644.9438 434.0965 644.2367 433.3856 643.409 432.3686 643.3726 431.7168 643.0791 431.3608 643.1905 430.7576 643.3801 429.9217 643.6488 429.2164 643.9569 428.7568 644.3319 428.7177 644.5837 428.4616 644.5994 428.2294 644.8685 428.053 645.1421 428.0816 645.4661 428.1116 645.7164 428.0465 645.8185 427.9083 645.9935 427.8887 646.241 428.0347 646.4851 428.3196 646.7814 428.37 647.2494 428.6113 647.6445 428.7582 647.7884 429.1367 648.1342 429.2357 648.2237 429.6302 648.2186 429.9822 648.6318 430.3359 648.8978 430.7136 649.1116 431.1827 649.448 431.6997 649.971 431.6633 650.3023 431.298 650.8733 431.3041 651.3159 431.2328 652.1828 431.1905 652.5141 431.1179 653.4668 430.4674 653.9347 430.3078 654.3881 430.2571 654.896 430.2643 655.3832 430.3369 655.7786 430.4916 655.9043 430.5073 656.0059 430.5327 656.0905 430.5944 656.1667 430.7117 656.5427 430.5956 657.0191 430.881 657.1686 431.2261 657.3637 431.3928 657.6031 431.6257 657.8993 431.9788 658.436 432.3212 658.8254 432.6778 658.8649 432.9362 659.2146 432.9657 659.3648 432.9684 659.4692 432.8075 659.86 433.0946 660.0247 433.4932 660.2163 433.73 661.2352 433.8673 662.2449 434.3305 663.7102 434.7887 Z M 641.5042 423.7788 641.8015 423.7255 641.9738 423.8446 641.8932 423.9834 642.0944 424.079 642.569 424.064 642.7904 424.2074 642.2224 425.1826 641.3083 426.0204 640.1851 426.6044 639.0679 427.0433 637.9217 427.2731 636.7634 427.1642 635.6091 426.9411 633.3058 426.3695 631.8957 425.9059 629.8767 426.0602 628.4816 426.1317 627.4327 426.2786 626.5889 426.2308 625.9324 426.2635 625.352 426.0446 625.0147 425.6033 625.005 425.0483 625.2372 424.5816 625.5661 424.2213 626.1009 424.0291 626.5831 423.5019 626.7177 422.9233 626.3491 422.4754 626.3277 422.2659 626.652 422.271 627.125 422.348 627.8237 422.3122 628.1955 422.4105 628.4396 422.7633 628.8886 422.7632 631.6963 423.1623 633.2119 423.3733 634.3512 423.4258 634.5868 423.093 634.6171 422.8144 634.7708 422.5848 635.0634 422.5202 635.4603 423.0139 635.5986 423.5743 636.2679 423.7705 637.1055 423.9504 638.6021 423.9047 639.2564 423.8209 639.6731 423.6924 639.9798 423.5794 640.233 423.6284 640.776 423.5934 641.1927 423.718 641.5042 423.7788 Z" id="US.HI.009" fill="#cee3f5" stroke="#6e6e6e" stroke-width="0.4">
      <desc>
        <iso_a2>US</iso_a2>
        <name>Maui</name>
        <type>State</type>
        <type_en>State</type_en>
        <code_hasc>US.HI.009</code_hasc>
        <region>West</region>
        <abbrev>Hawaii</abbrev>
        <postal>HI</postal>
        <labelrank>0</labelrank>
        <fips>US15</fips>
        <woe_id>2347570</woe_id>
        <woe_label>Hawaii, US, United States</woe_label>
        <woe_name>Hawaii</woe_name>
        <latitude>21.4919</latitude>
        <longitude>-157.999</longitude>
        <admin>United States of America</admin>
        <id>US.HI.009</id>
      </desc>
    </path>
    <path d="M 696.4577 471.4392 698.0325 472.0952 698.6658 472.6138 699 473.235 698.9065 474.0331 698.5293 474.4986 697.1971 476.0191 695.8839 476.4819 694.0009 478.2073 692.7293 478.5538 692.6827 478.8929 691.6145 479.141 690.7106 479.7832 688.9275 480.2885 687.4443 480.6933 686.1932 480.3974 685.4735 480.3783 684.8243 480.5762 684.1315 480.9881 683.2031 481.6078 682.6549 482.2386 682.0451 482.3291 681.5848 482.5325 680.9178 482.9355 680.4946 483.2402 678.9809 484.0527 678.5347 484.1966 677.247 485.3694 677.021 485.8523 677.0649 486.9322 676.5189 487.4922 675.5852 488.3656 675.096 489.6087 674.6667 490.0646 674.1238 490.4835 673.4251 491.0774 673.1639 490.9277 673.1821 490.282 672.5511 489.8007 671.3552 489.1987 669.9361 488.3776 669.1908 487.8946 667.9464 487.5802 667.3819 487.4239 667.2061 486.8824 666.998 486.3369 666.616 486.2238 666.3715 485.4295 666.1398 484.1693 666.4829 482.6721 667.162 478.3585 667.1072 477.6034 666.7056 476.9146 666.347 475.9766 665.8558 474.5652 665.6452 473.9859 665.3519 473.6204 665.0565 473.0075 665.1284 472.3585 664.7817 471.7478 664.6115 471.0624 664.2896 470.231 663.7748 469.5029 663.3213 469.1708 662.6833 468.4404 661.9729 466.56 662.2701 465.7194 662.6075 465.017 663.2422 464.4837 663.8565 464.0872 664.1321 463.7922 664.2941 463.2287 664.7125 462.9047 665.959 462.4718 666.5588 461.484 666.855 461.1443 667.5224 460.0198 668.191 459.3077 668.6499 459.2953 668.862 458.3665 668.9879 457.9763 668.7803 457.4034 668.2858 456.9533 667.2504 455.455 666.8218 454.1505 666.751 453.1039 666.7537 452.1345 667.312 451.0847 667.7054 450.7545 668.7785 450.7457 670.7119 451.1693 671.5462 451.3289 671.7058 451.4764 671.8074 451.6989 671.8424 451.9879 672.3282 452.7449 673.4668 453.1751 674.2162 453.5811 674.7355 454.1693 675.4527 454.4741 676.0516 454.9204 676.7429 454.7579 677.8098 454.8213 678.8829 455.2149 680.9737 455.8935 683.6005 457.185 687.0833 459.297 688.4817 460.1533 690.0325 461.6419 690.8857 462.7221 690.9077 463.8914 690.8583 465.4479 690.9383 466.6732 691.7666 466.6399 692.924 466.1257 693.7744 466.6941 694.1682 467.3166 694.068 468.5928 694.4565 469.3819 694.9635 470.119 696.4577 471.4392 Z" id="US.HI.001" fill="#cee3f5" stroke="#6e6e6e" stroke-width="0.4">
      <desc>
        <iso_a2>US</iso_a2>
        <name>Hawaii</name>
        <type>State</type>
        <type_en>State</type_en>
        <code_hasc>US.HI.001</code_hasc>
        <region>West</region>
        <abbrev>Hawaii</abbrev>
        <postal>HI</postal>
        <labelrank>0</labelrank>
        <fips>US15</fips>
        <woe_id>2347570</woe_id>
        <woe_label>Hawaii, US, United States</woe_label>
        <woe_name>Hawaii</woe_name>
        <latitude>21.4919</latitude>
        <longitude>-157.999</longitude>
        <admin>United States of America</admin>
        <id>US.HI.001</id>
      </desc>
    </path>
    <path d="M 541.5228 399.1377 542.0546 398.9141 542.5588 398.9313 543.1213 399.1278 543.3747 399.6482 543.1238 399.918 542.7568 400.3494 542.5396 400.99 542.7573 401.7941 542.37 402.3081 541.8563 402.5236 541.412 402.7579 540.8518 402.9207 540.1885 403.3175 539.8018 403.6419 539.5705 404.0915 539.2267 404.9486 539.0125 405.5663 538.6249 405.6755 538.2364 405.4071 537.9063 405.3008 537.5328 404.2546 537.6093 403.5768 537.9373 402.875 539.0974 401.7581 540.0291 401.0918 541.2298 400.4432 541.4186 400.0466 541.5531 399.6872 541.5228 399.1377 Z M 565.6657 394.6569 565.9172 394.7935 565.9233 395.1163 565.8605 395.9465 565.5801 396.3034 565.1476 397.4342 564.7173 397.6717 564.6731 398.5042 564.7625 399.0241 564.7928 399.5972 564.7601 400.1509 564.6891 400.3909 564.28 400.3894 563.9464 400.5441 564.1694 400.7654 564.2809 401.0252 564.1092 401.2233 563.7595 401.1998 563.2519 401.5984 563.0372 401.9552 562.7801 402.1731 562.2871 402.4697 562.2441 402.6881 561.9227 402.7267 561.7298 402.8851 561.6229 403.044 560.2974 402.6049 559.4849 402.5245 558.8802 402.5424 557.7529 402.3231 557.3252 402.2838 557.0689 402.0651 556.9406 402.1045 556.8975 402.3032 556.6409 402.3626 556.4914 402.1243 556.1063 401.9657 555.7642 401.7075 555.5508 401.4294 555.4228 401.1712 555.2944 400.9331 554.952 400.8538 554.824 400.6155 554.5243 400.4766 553.9328 400.3879 553.4753 400.2187 553.1114 400.0402 552.5333 399.941 552.0406 399.7824 551.7835 399.2863 551.6978 398.9886 551.4405 398.8696 551.226 398.572 551.2257 398.1551 551.2684 397.8176 551.2897 397.4405 551.2466 397.1824 551.5424 397.0787 552.3391 396.2294 552.7572 395.7201 552.7975 395.4307 552.8011 395.1707 552.8483 394.9616 553.0478 394.8769 553.1203 394.7899 553.3261 394.4641 553.9904 394.2857 554.7626 394.1086 555.6188 393.6308 556.1545 393.193 556.8413 392.8789 557.0984 392.5791 557.4843 392.4392 557.806 392.4396 558.0207 392.2213 558.3209 392.2811 558.5351 392.4602 558.642 392.6591 558.8779 392.6792 559.2637 392.7986 559.5207 392.9579 559.7779 392.9388 559.6926 392.7197 559.7788 392.5012 560.3153 392.3033 560.8722 392.3845 561.5378 392.384 561.8803 392.5836 562.1594 392.5439 562.5034 392.3454 562.74 392.147 563.0828 392.3462 563.5115 392.5454 563.9837 392.5263 564.5522 392.8142 564.7753 393.2629 565.1482 393.6243 565.3522 393.6622 565.478 394.0606 565.5647 394.3575 565.6633 394.6557 565.6657 394.6569 Z" id="US.HI.007" fill="#cee3f5" stroke="#6e6e6e" stroke-width="0.4">
      <desc>
        <iso_a2>US</iso_a2>
        <name>Kauai</name>
        <type>State</type>
        <type_en>State</type_en>
        <code_hasc>US.HI.007</code_hasc>
        <region>West</region>
        <abbrev>Hawaii</abbrev>
        <postal>HI</postal>
        <labelrank>0</labelrank>
        <fips>US15</fips>
        <woe_id>2347570</woe_id>
        <woe_label>Hawaii, US, United States</woe_label>
        <woe_name>Hawaii</woe_name>
        <latitude>21.4919</latitude>
        <longitude>-157.999</longitude>
        <admin>United States of America</admin>
        <id>US.HI.007</id>
      </desc>
    </path>
    <path d="M 613.0434 418.3996 613.3607 418.8631 614.0044 419.2629 614.6249 419.5712 614.816 419.7535 614.4679 420.1279 613.7303 420.7562 613.4479 421.0517 613.125 421.1472 613.0204 420.9663 613.0452 420.6873 612.7902 420.4843 611.9952 420.6735 611.35 420.7438 610.813 420.9973 610.4243 421.2918 609.9533 421.3059 609.7405 421.2035 609.5936 420.9423 609.3621 420.6204 608.3827 420.2301 607.8935 420.0052 607.5779 419.5631 607.4528 419.2825 607.4555 419.0031 607.2413 419.1011 606.8522 419.4553 607.1476 419.7773 605.9066 419.8631 605.9296 419.7239 606.1018 419.6262 605.8688 419.4444 605.3984 419.4593 605.3805 419.1602 605.2978 418.9203 605.3642 418.7218 605.2809 418.5217 605.6034 418.3858 605.9041 418.2497 606.2271 418.074 606.357 417.8152 605.9973 417.553 605.6999 417.4308 605.4929 417.3054 605.3577 417.427 605.2468 417.8046 604.9917 417.6824 604.759 417.4203 604.5894 417.2385 604.6073 417.6384 604.7945 418.0985 604.6437 418.1965 603.9868 417.6713 603.7324 417.469 603.9411 417.9503 604.427 418.433 604.7871 418.7157 605.0624 418.9377 604.9075 419.3943 604.3707 419.6077 603.6642 419.72 602.5717 419.948 602.0155 420.0023 601.5295 420.1346 601.3941 420.0814 601.2599 419.9666 600.9067 419.7925 600.6402 418.7935 600.3288 417.9937 599.9272 417.5329 599.6537 417.1321 599.1006 416.8683 598.9594 416.0708 598.7717 415.651 598.2418 415.2281 597.9231 415.0262 597.5688 414.5055 597.5534 413.8889 597.5177 413.0329 597.3207 412.7665 596.0435 411.7653 596.2371 411.6674 597.3092 411.4778 598.5727 411.4096 599.4071 411.4569 599.8995 411.4416 600.2733 411.3482 600.7342 411.4494 600.8367 411.0871 600.9757 410.9143 601.5143 410.6207 602.1394 410.1699 602.3771 409.9732 602.3348 409.7994 602.5476 409.4705 602.8281 408.9119 603.2815 408.5516 603.9026 408.0144 604.8475 407.7662 605.2335 407.7896 605.4481 407.9099 605.6175 408.0909 605.8121 408.3376 606.2956 408.7156 606.313 409.0346 606.5698 409.1562 606.5874 409.4156 606.8417 409.6771 606.7036 410.2146 607.0856 410.7156 607.4886 411.0784 607.6746 411.5984 607.9948 411.7611 608.0781 411.9413 608.1596 412.2808 608.3855 412.225 608.685 412.3277 608.9097 412.5742 609.1917 412.99 609.1957 413.4477 609.1934 413.6669 608.9562 413.6642 608.8031 413.8418 608.8615 414.3405 608.9222 414.66 609.0229 415.1592 609.3011 415.2421 609.665 415.386 609.9399 415.728 610.1703 416.1093 610.6204 416.2545 610.6811 416.4743 610.9811 416.5778 611.1775 416.361 611.4618 415.9857 611.0141 415.7011 611.0614 415.3627 611.3855 415.2271 612.1154 415.3157 612.4823 415.2205 612.5651 415.4408 612.1283 415.8533 612.0413 416.3913 612.0961 416.8112 612.5872 417.0968 612.9697 417.4609 613.0738 417.7189 612.9399 418.0589 613.0434 418.3996 Z M 487.0234 368.3001 487.0682 368.1985 487.0778 368.1054 487.1153 368.0571 487.2447 368.0752 487.2302 368.1828 487.177 368.2215 487.1032 368.2457 487.0234 368.3001 Z M 405.1166 352.2157 405.2726 352.4768 405.0296 352.4164 404.9933 352.3584 405.0562 352.2967 405.1166 352.2157 Z M 307.2838 309.968 307.1048 309.5617 307.1919 309.5133 307.3201 309.6548 307.3346 309.7709 307.3019 309.8724 307.2838 309.968 Z M 196.5658 287.0317 196.3723 287.658 196.0833 287.5286 196.0362 287.1502 196.5658 287.0317 Z M 129.9417 278.1667 130.0058 278.3069 130.0747 278.4109 130.1146 278.5149 130.0917 278.6431 129.9224 278.5463 129.9006 278.446 129.9357 278.3227 129.9417 278.1667 Z M 1.4156 208.9226 1.4891 209.1808 1.3608 209.2669 1.1774 209.3477 1.049 209.3747 1 209.3317 1.1895 209.2401 1.2995 209.1217 1.3545 209.0302 1.4156 208.9226 Z" id="US.HI.003" fill="#cee3f5" stroke="#6e6e6e" stroke-width="0.4">
      <desc>
        <iso_a2>US</iso_a2>
        <name>Honolulu</name>
        <type>State</type>
        <type_en>State</type_en>
        <code_hasc>US.HI.003</code_hasc>
        <region>West</region>
        <abbrev>Hawaii</abbrev>
        <postal>HI</postal>
        <labelrank>0</labelrank>
        <fips>US15</fips>
        <woe_id>2347570</woe_id>
        <woe_label>Hawaii, US, United States</woe_label>
        <woe_name>Hawaii</woe_name>
        <latitude>21.4919</latitude>
        <longitude>-157.999</longitude>
        <admin>United States of America</admin>
        <id>US.HI.003</id>
      </desc>
    </path>
  </g>
</svg>