<?xml version="1.0" encoding="UTF-8"?>
<svg xmlns="http://www.w3.org/2000/svg" width="700" height="700">
  <g id="haiti">
    <path d="M 191.341 468.8054 185.701 472.2248 177.8551 472.2372 171.7073 468.7946 171.1507 461.8928 176.9846 459.0931 185.0325 459.6775 191.21 463.0865 191.341 468.8054 Z M 174.5677 514.4679 166.7205 516.7323 158.8658 518.9153 153.1727 518.9645 147.4868 519.1328 144.1079 524.2444 144.5646 530.3589 132.8648 529.4815 121.1017 526.2159 110.8347 522.8328 100.434 520.341 75.496 522.4454 50.81 527.5864 37.3592 530.4889 23.7238 531.8821 16.8805 530.625 10.985 531.2696 10.0511 531.6988 10.0412 531.7035 9.6028 530.7164 9.0367 525.6816 7.4133 522.1189 1 514.0895 9.5151 501.5888 8.7711 500.5627 7.6824 498.0687 12.1777 494.8653 15.0331 482.9155 18.6874 480.2596 19.3536 478.9143 18.9235 475.8937 17.9424 472.665 16.9754 470.664 16.3364 467.9274 18.2295 465.5289 26.5462 460.6533 37.4533 456.2074 42.1011 455.3716 47.7776 456.7348 50.2878 456.6409 51.3197 454.5382 52.5327 452.7494 55.2599 451.9513 58.1495 451.761 71.9547 452.478 81.746 454.5319 113.9903 468.6616 128.1519 469.2125 128.6644 469.5978 130.2757 471.383 130.619 471.9163 131.191 473.9173 132.5611 473.7625 134.2671 472.871 135.8072 472.694 142.9745 476.3767 146.1539 477.4907 157.2153 477.8309 159.8407 478.3178 162.7313 479.5585 168.0558 484.0573 169.6234 484.96 172.1572 485.132 173.3735 484.3997 174.1882 483.4811 175.4962 483 177.9513 483.3821 181.0045 484.8514 183.207 484.8677 184.7037 484.1646 185.3549 483.6769 185.3447 483.6987 183.3274 487.9513 179.0952 492.832 180.3215 496.4223 184.3847 498.2869 178.9395 504.4821 174.5677 514.4679 Z" id="HT.GR" fill="#cee3f5" stroke="#6e6e6e" stroke-width="0.4">
      <desc>
        <labelrank>7</labelrank>
        <code_hasc>HT.GR</code_hasc>
        <name>Grand'Anse</name>
        <admin>Haiti</admin>
        <type_en>Department</type_en>
        <region/>
        <woe_id>2345617</woe_id>
        <longitude>-74</longitude>
        <woe_name>Grand'Anse</woe_name>
        <fips>HA00</fips>
        <woe_label>Grand 'Anse, HT, Haiti</woe_label>
        <latitude>18</latitude>
        <iso_a2>HT</iso_a2>
        <postal>GR</postal>
        <type>Département</type>
        <id>HT.GR</id>
      </desc>
    </path>
    <path d="M 368.4498 539.0524 367.5596 546.7154 364.4807 554.0422 364.5613 559.7078 365.1069 565.3684 358.7345 556.8908 356.6276 545.7005 348.6811 538.492 339.2576 531.0177 333.2769 529.4261 327.6869 531.1627 321.4553 530.5187 314.9878 529.8094 301.95 530.1888 289.1101 528.5363 281.4384 531.7393 272.619 534.1112 264.8395 533.9129 257.0752 534.7262 241.3952 537.363 228.8834 534.3044 231.2956 528.7269 233.468 524.2576 227.9489 521.5289 224.3584 517.1851 220.0169 513.54 213.3018 513.0049 205.41 514.157 199.8591 518.8628 195.6826 517.5334 190.7225 515.0896 182.5642 515.5198 174.5677 514.4679 178.9395 504.4821 184.3847 498.2869 180.3215 496.4223 179.0952 492.832 183.3274 487.9513 185.3447 483.6987 185.3549 483.6769 187.8304 481.8232 188.8477 481.3018 189.1436 480.6805 192.2389 476.8067 193.8844 475.9658 195.8354 475.8678 197.8582 476.021 199.7993 475.9333 210.9242 472.6282 214.1233 472.163 222.9072 474.2778 223.0822 478.7056 218.1235 482.0924 211.5893 481.1349 211.6015 482.7406 206.2829 480.9965 201.5437 480.3914 196.7932 480.9614 191.4416 482.8891 193.0711 483.9794 197.171 486.1223 201.2325 487.0792 201.5139 488.5884 201.4283 490.5622 202.5245 492.5692 206.8741 494.468 214.6853 493.2755 218.5651 495.1769 227.1552 489.9248 237.717 488.5173 276.6608 491.163 281.6475 492.2303 291.4972 497.1146 296.9758 498.1756 316.6885 497.2705 326.3317 498.0135 335.0487 501.1575 339.6438 503.7553 343.3851 505.1334 347.5353 505.373 353.7343 504.2045 355.1687 507.0641 355.3231 510.1824 351.5683 516.6624 352.1959 523.5888 358.3525 523.776 362.6567 528.0092 364.539 534.2553 368.4498 539.0524 Z" id="HT.NI" fill="#cee3f5" stroke="#6e6e6e" stroke-width="0.4">
      <desc>
        <labelrank>7</labelrank>
        <code_hasc>HT.NI</code_hasc>
        <name>Nippes</name>
        <admin>Haiti</admin>
        <type_en>Department</type_en>
        <region/>
        <woe_id>-2345617</woe_id>
        <longitude>-73</longitude>
        <woe_name/>
        <fips>HA15</fips>
        <woe_label/>
        <latitude>18</latitude>
        <iso_a2>HT</iso_a2>
        <postal>NI</postal>
        <type>Département</type>
        <id>HT.NI</id>
      </desc>
    </path>
    <path d="M 417.7541 120.1096 442.7377 125.5895 448.9283 129.3054 454.0378 131.6493 468.5851 135.9372 469.4643 136.9952 467.5163 138.4328 465.1458 142.0952 463.6257 145.2383 461.6227 146.8409 458.9332 149.4401 455.7733 152.2859 453.1878 152.0021 450.7558 150.5022 446.8294 149.5431 443.4347 150.5104 442.6696 153.6154 442.7542 155.1748 435.3123 154.2361 429.3752 158.6244 425.3421 161.0257 420.2348 162.4271 405.2218 175.5857 386.8209 179.0576 376.8168 177.3262 366.7186 176.6203 356.8424 174.3093 347.4348 175.3377 336.0742 187.5598 334.2786 201.6739 334.5332 202.362 334.205 202.3342 332.978 202.9356 331.8579 204.2078 330.2602 205.4957 327.6601 206.0909 324.0195 205.2379 318.5941 203.0491 313.2916 200.1865 309.9593 197.3238 305.0759 202.1724 294.5864 203.6546 271.2807 202.7068 266.6545 201.5432 263.9469 201.3061 262.2059 200.1991 257.8452 195.4 255.4587 194.3301 252.0471 192.0727 250.6484 186.9416 250.1423 181.54 249.4092 178.5233 257.9972 164.4724 259.2619 161.5423 261.6558 161.457 274.3562 155.3943 274.3376 153.4733 260.857 153.6016 264.7728 150.5938 269.4169 150.0563 274.3974 150.4178 279.3114 150.0549 308.909 136.1054 317.5402 129.6928 322.3516 122.8686 325.3092 126.3745 328.1096 127.2887 335.031 126.4137 338.6014 126.8985 345.0622 129.1559 348.474 129.6312 351.3827 129.5346 352.9985 129.2743 357.8588 127.9154 361.4577 127.4004 365.195 127.6709 368.5962 128.8902 371.2173 131.2842 372.9166 127.2629 377.4837 124.7186 383.0771 124.1036 387.8153 125.7878 394.2954 123.0285 402.0441 120.9028 410.1625 119.7684 417.7541 120.1096 Z M 420.6446 88.2078 443.8489 96.9435 453.7521 103.0115 451.0679 109.0887 447.0833 107.4537 426.3777 104.8922 416.7397 101.2615 404.8553 98.7501 400.7925 96.9544 398.0011 97.5259 395.1173 98.6444 392.4835 99.14 387.37 98.1754 381.3715 96.2551 375.9202 93.5817 372.4083 90.4115 373.4799 90.4089 374.1504 90.0647 375.5536 88.7873 386.7859 84.8672 399.0848 83.0303 406.1236 82.6134 410.8343 83.2132 415.0651 85.0161 420.6446 88.2078 Z" id="HT.NO" fill="#cee3f5" stroke="#6e6e6e" stroke-width="0.4">
      <desc>
        <labelrank>7</labelrank>
        <code_hasc>HT.NO</code_hasc>
        <name>Nord-Ouest</name>
        <admin>Haiti</admin>
        <type_en>Department</type_en>
        <region/>
        <woe_id>2345614</woe_id>
        <longitude>-73</longitude>
        <woe_name>Nord-Ouest</woe_name>
        <fips>HA03</fips>
        <woe_label>Nord-Ouest, HT, Haiti</woe_label>
        <latitude>19</latitude>
        <iso_a2>HT</iso_a2>
        <postal>NO</postal>
        <type>Département</type>
        <id>HT.NO</id>
      </desc>
    </path>
    <path d="M 197.2595 596.2866 198.8468 597.923 201.6627 595.9404 203.0225 596.6337 204.0187 598.3792 205.7329 599.4897 213.4005 599.4333 217.5573 599.6541 222.4426 600.6246 225.9818 602.7175 226.0099 606.3696 222.9532 608.3451 217.9276 608.8554 208.3275 608.4333 204.0044 607.5202 200.2139 605.2595 193.9708 599.5736 194.7456 596.997 195.852 595.9292 197.2595 596.2866 Z M 10.0412 531.7035 10.0511 531.6988 10.985 531.2696 16.8805 530.625 23.7238 531.8821 37.3592 530.4889 50.81 527.5864 75.496 522.4454 100.434 520.341 110.8347 522.8328 121.1017 526.2159 132.8648 529.4815 144.5646 530.3589 144.1079 524.2444 147.4868 519.1328 153.1727 518.9645 158.8658 518.9153 166.7205 516.7323 174.5677 514.4679 182.5642 515.5198 190.7225 515.0896 195.6826 517.5334 199.8591 518.8628 205.41 514.157 213.3018 513.0049 220.0169 513.54 224.3584 517.1851 227.9489 521.5289 233.468 524.2576 231.2956 528.7269 228.8834 534.3044 241.3952 537.363 257.0752 534.7262 264.8395 533.9129 272.619 534.1112 281.4384 531.7393 289.1101 528.5363 301.95 530.1888 314.9878 529.8094 321.4553 530.5187 327.6869 531.1627 333.2769 529.4261 339.2576 531.0177 348.6811 538.492 356.6276 545.7005 358.7345 556.8908 365.1069 565.3684 365.7484 569.8813 366.568 574.3656 366.308 575.6341 345.8757 573.5857 339.3576 573.968 337.3077 573.674 330.0885 569.1913 327.9244 568.4782 295.1341 563.5256 280.4445 565.1713 278.1622 564.562 279.4259 561.1919 282.6837 559.882 291.5898 559.8741 291.5749 558.2682 275.093 556.6541 255.1396 556.9842 249.3471 558.6385 241.4533 563.3844 238.4496 564.0174 236.4757 563.0047 234.312 558.2885 232.4956 556.8546 229.2224 558.8641 227.4768 563.9155 225.681 567.7078 222.3272 565.9075 220.7928 565.9193 217.8985 567.7885 215.4414 566.4847 214.3332 563.1556 215.5347 558.9065 212.0429 559.9718 209.0345 566.7424 205.5146 569.539 205.6597 566.0641 206.4493 562.9623 208.7922 557.0363 206.8686 558.6143 204.1178 562.2867 202.1267 564.2952 201.9216 563.667 200.4734 563.1107 197.822 562.563 196.9427 563.0101 197.0504 564.0378 197.3494 565.1901 197.0851 566.0945 186.3735 574.7332 168.7933 582.9943 164.3473 587.4409 160.0975 594.5198 170.5446 605.4825 172.1265 609.4915 173.4144 614.5518 172.835 616.539 169.5773 617.3472 153.2329 617.3866 150.8412 617.0023 148.435 615.873 146.6274 614.0893 145.6612 610.2963 129.7559 587.8056 128.9701 587.2223 127.0996 586.4142 126.2239 585.9049 125.3458 584.9339 125.1408 584.148 125.0159 583.3302 124.3478 582.232 119.7304 577.9758 95.7735 560.596 91.4825 558.5391 83.9575 557.3154 80.7937 556.0288 78.0982 554.0893 76.9446 551.66 76.411 548.9132 75.0141 548.08 72.9187 547.9528 70.3498 547.282 63.985 544.8433 61.9154 543.6452 60.2597 545.5618 55.6026 543.9229 50.68 546.02 45.4906 549.2507 40.0842 550.9288 35.5403 550.0008 29.9095 547.7541 25.1199 545.1157 23.0984 542.9819 20.9845 540.1033 11.7111 535.4632 10.0412 531.7035 Z" id="HT.SD" fill="#cee3f5" stroke="#6e6e6e" stroke-width="0.4">
      <desc>
        <labelrank>7</labelrank>
        <code_hasc>HT.SD</code_hasc>
        <name>Sud</name>
        <admin>Haiti</admin>
        <type_en>Department</type_en>
        <region/>
        <woe_id>2345621</woe_id>
        <longitude>-73</longitude>
        <woe_name>Sud</woe_name>
        <fips>HA12</fips>
        <woe_label>Sud, HT, Haiti</woe_label>
        <latitude>18</latitude>
        <iso_a2>HT</iso_a2>
        <postal>SD</postal>
        <type>Département</type>
        <id>HT.SD</id>
      </desc>
    </path>
    <path d="M 442.7542 155.1748 445.7371 161.376 450.8098 165.2405 451.597 170.9917 456.8586 170.1979 462.0068 173.8868 459.8314 182.641 462.9444 187.0256 468.8924 189.4754 472.4065 199.6962 476.5889 210.1474 483.4608 216.7176 490.9502 222.5575 499.7475 226.0556 507.059 223.5981 506.9834 216.9157 511.8532 217.0019 516.3007 212.6249 520.4919 212.1868 524.0851 213.9455 528.8319 216.273 530.2704 232.6471 539.8507 241.2353 549.7643 245.8939 554.0314 255.0448 552.8806 262.2148 554.1633 269.5457 558.3709 276.8163 561.0475 283.7245 550.0705 299.6573 548.9657 318.3665 555.6609 324.8247 553.4535 330.3566 554.0852 336.6172 555.8674 344.2339 552.6938 357.3988 554.3939 370.2868 555.2058 377.1182 551.9607 385.5608 551.1581 393.5515 545.4317 396.922 533.7549 395.7397 522.2684 396.6059 516.4232 390.7696 509.7387 386.0389 503.2148 383.5194 497.0467 380.9671 494.5278 377.0282 491.8224 373.332 485.7485 373.6982 479.9659 373.1126 461.3869 370.7408 445.7302 370.3635 441.6594 373.4311 438.2779 377.8364 438.2724 377.8439 437.6088 377.5167 411.5293 350.1366 410.269 343.5368 420.5972 339.2171 430.0015 338.4665 435.1792 336.6666 437.4052 332.8464 435.8846 328.0147 432.2794 325.5414 427.8071 323.8981 423.7054 321.5567 421.0695 318.3141 415.0521 308.0051 413.4443 303.9195 415.1046 302.7014 415.2882 302.237 415.0126 301.7365 415.2146 300.3688 417.5793 298.0915 420.1955 292.1144 421.78 289.7103 424.4448 288.3527 428.3229 287.5358 432.2686 287.3162 435.1463 287.7719 431.5357 280.8568 428.9854 279.4725 424.0757 279.0953 421.1367 276.9175 420.115 271.8901 420.4246 266.5304 421.439 263.2829 423.0042 264.8694 425.065 266.2393 427.4263 266.9541 429.8427 266.5444 432.5174 264.5559 432.6319 262.6641 431.737 260.544 431.2503 254.617 430.6178 253.5017 431.1785 253.7043 434.7032 254.2878 435.9389 255.0485 437.6718 256.4852 440.0394 257.6822 443.1087 257.704 438.261 248.3803 435.7723 247.0273 423.1129 246.3959 419.8757 244.1066 417.6801 240.6906 414.403 236.7843 409.7608 233.5358 394.0816 226.6236 381.0046 218.7612 376.3537 217.7042 372.321 215.8833 363.6076 208.6465 361.9714 208.2771 359.5366 209.3974 344.3312 203.9853 341.8212 203.73 336.9933 202.5869 334.5336 202.3621 334.5332 202.362 334.2786 201.6739 336.0742 187.5598 347.4348 175.3377 356.8424 174.3093 366.7186 176.6203 376.8168 177.3262 386.8209 179.0576 405.2218 175.5857 420.2348 162.4271 425.3421 161.0257 429.3752 158.6244 435.3123 154.2361 442.7542 155.1748 Z" id="HT.AR" fill="#cee3f5" stroke="#6e6e6e" stroke-width="0.4">
      <desc>
        <labelrank>7</labelrank>
        <code_hasc>HT.AR</code_hasc>
        <name>L'Artibonite</name>
        <admin>Haiti</admin>
        <type_en>Department</type_en>
        <region/>
        <woe_id>2345615</woe_id>
        <longitude>-72</longitude>
        <woe_name>L'Artibonite</woe_name>
        <fips>HA06</fips>
        <woe_label>Artibonite, HT, Haiti</woe_label>
        <latitude>19</latitude>
        <iso_a2>HT</iso_a2>
        <postal>AR</postal>
        <type>Département</type>
        <id>HT.AR</id>
      </desc>
    </path>
    <path d="M 671.5903 287.5314 679.8366 295.6265 695.8748 303.0293 699 304.4709 698.1812 319.8918 697.0109 324.3529 694.0037 328.9825 685.7956 335.0919 682.1414 338.4912 674.9871 348.8962 664.5568 360.8609 661.3692 362.9078 648.8265 366.5243 644.6379 369.4552 645.4412 373.9185 649.8341 373.1527 655.9028 370.9616 661.6571 371.0508 663.9372 372.8245 667.5495 380.0728 669.8454 382.6668 675.5657 387.7004 677.4377 390.0017 678.8851 394.7534 679.3325 405.2164 681.5021 415.3272 681.223 420.1843 680.1033 424.9766 678.5054 429.3706 675.6439 434.2347 672.2497 437.1194 665.7224 441.3138 664.0479 442.3896 663.9611 442.2877 662.272 440.3026 652.8668 434.9449 642.5224 432.4447 634.2079 429.6001 625.7691 426.8364 606.0409 430.7729 586.6661 437.4162 567.8098 431.2738 552.7789 416.9268 545.3715 411.9983 536.9563 410.0189 528.8152 405.0724 522.2684 396.6059 533.7549 395.7397 545.4317 396.922 551.1581 393.5515 551.9607 385.5608 555.2058 377.1182 554.3939 370.2868 552.6938 357.3988 555.8674 344.2339 554.0852 336.6172 553.4535 330.3566 555.6609 324.8247 548.9657 318.3665 550.0705 299.6573 561.0475 283.7245 568.3206 286.1414 573.7789 291.4025 576.083 294.7403 580.8326 294.2081 597.6044 283.3846 615.1042 274.0751 623.9211 279.0848 633.0767 283.0593 637.706 286.8201 644.3868 287.6339 649.9936 288.5997 654.4982 288.1969 663.1785 288.7843 671.4766 287.5483 671.5903 287.5314 Z" id="HT.CE" fill="#cee3f5" stroke="#6e6e6e" stroke-width="0.4">
      <desc>
        <labelrank>7</labelrank>
        <code_hasc>HT.CE</code_hasc>
        <name>Centre</name>
        <admin>Haiti</admin>
        <type_en>Department</type_en>
        <region/>
        <woe_id>2345616</woe_id>
        <longitude>-72</longitude>
        <woe_name>Centre</woe_name>
        <fips>HA07</fips>
        <woe_label>Centre, HT, Haiti</woe_label>
        <latitude>19</latitude>
        <iso_a2>HT</iso_a2>
        <postal>CE</postal>
        <type>Département</type>
        <id>HT.CE</id>
      </desc>
    </path>
    <path d="M 671.5903 287.5314 671.4766 287.5483 663.1785 288.7843 654.4982 288.1969 649.9936 288.5997 644.3868 287.6339 637.706 286.8201 633.0767 283.0593 623.9211 279.0848 615.1042 274.0751 610.7947 260.8319 598.2245 248.5453 593.633 247.2895 589.107 246.1388 591.472 242.2956 592.1144 235.439 587.8252 228.7866 585.1913 221.1986 581.7938 215.1579 580.9642 209.1005 581.8695 205.8026 581.6324 202.2571 584.5636 200.2591 588.4744 199.365 593.5628 191.6178 594.4837 181.6467 595.3786 179.6829 596.5114 177.2344 596.5132 177.2305 598.1566 177.9951 601.5217 180.3532 603.76 180.8709 605.6348 179.9552 606.8446 178.0109 608.3734 176.1135 611.165 175.2864 615.7473 171.6529 622.6817 171.5809 634.703 174.8618 641.2859 175.6445 643.0611 176.9148 641.6386 180.1886 639.5446 181.6039 636.6479 182.1406 629.8201 182.1707 632.4735 186.8515 636.722 187.2678 641.2961 185.9016 644.9076 185.2463 649.3953 188.8729 652.1541 190.524 653.3431 189.682 654.5905 186.1168 654.0284 184.2775 648.6084 182.9705 646.8474 181.4163 645.9296 179.1632 646.2795 176.5713 648.1201 174.9291 650.9194 175.066 657.274 176.3654 667.5475 176.4332 669.841 183.4958 670.8006 188.0494 670.6359 192.155 670.3636 198.9368 671.601 204.7799 678.7531 220.8149 682.0637 240.9482 682.1201 252.4805 679.4352 258.4653 678.1084 259.9655 675.1551 267.8971 672.8592 269.7692 666.3183 273.6561 664.7401 275.314 666.0522 280.4417 670.5378 286.4979 671.5903 287.5314 Z" id="HT.NE" fill="#cee3f5" stroke="#6e6e6e" stroke-width="0.4">
      <desc>
        <labelrank>7</labelrank>
        <code_hasc>HT.NE</code_hasc>
        <name>Nord-Est</name>
        <admin>Haiti</admin>
        <type_en>Department</type_en>
        <region/>
        <woe_id>2345619</woe_id>
        <longitude>-71</longitude>
        <woe_name>Nord-Est</woe_name>
        <fips>HA10</fips>
        <woe_label>Nord-Est, HT, Haiti</woe_label>
        <latitude>19</latitude>
        <iso_a2>HT</iso_a2>
        <postal>NE</postal>
        <type>Département</type>
        <id>HT.NE</id>
      </desc>
    </path>
    <path d="M 596.5132 177.2305 596.5114 177.2344 595.3786 179.6829 594.4837 181.6467 593.5628 191.6178 588.4744 199.365 584.5636 200.2591 581.6324 202.2571 581.8695 205.8026 580.9642 209.1005 581.7938 215.1579 585.1913 221.1986 587.8252 228.7866 592.1144 235.439 591.472 242.2956 589.107 246.1388 593.633 247.2895 598.2245 248.5453 610.7947 260.8319 615.1042 274.0751 597.6044 283.3846 580.8326 294.2081 576.083 294.7403 573.7789 291.4025 568.3206 286.1414 561.0475 283.7245 558.3709 276.8163 554.1633 269.5457 552.8806 262.2148 554.0314 255.0448 549.7643 245.8939 539.8507 241.2353 530.2704 232.6471 528.8319 216.273 524.0851 213.9455 520.4919 212.1868 516.3007 212.6249 511.8532 217.0019 506.9834 216.9157 507.059 223.5981 499.7475 226.0556 490.9502 222.5575 483.4608 216.7176 476.5889 210.1474 472.4065 199.6962 468.8924 189.4754 462.9444 187.0256 459.8314 182.641 462.0068 173.8868 456.8586 170.1979 451.597 170.9917 450.8098 165.2405 445.7371 161.376 442.7542 155.1748 442.6696 153.6154 443.4347 150.5104 446.8294 149.5431 450.7558 150.5022 453.1878 152.0021 455.7733 152.2859 458.9332 149.4401 461.6227 146.8409 463.6257 145.2383 465.1458 142.0952 467.5163 138.4328 469.4643 136.9952 469.4648 136.9958 474.6434 143.2333 481.2465 147.5587 488.0802 149.905 491.7807 147.4234 496.2686 149.7299 503.7063 152.4744 510.6612 154.1326 513.6988 153.1823 515.3126 157.2332 527.2858 168.0344 527.3112 169.6518 526.1395 169.1449 522.2841 168.1129 525.4946 175.5842 526.5866 176.7016 530.9283 177.5997 531.838 177.2491 530.8876 175.0265 534.0215 171.2894 533.2153 171.2602 531.6261 171.4115 530.8292 171.3401 530.8839 171.024 531.3738 169.9237 531.9571 169.0741 532.3231 169.5725 532.2974 167.9551 531.7179 167.1659 530.7204 164.4713 532.2417 164.4472 535.9024 166.3639 540.9016 166.746 545.3329 165.2246 547.2201 161.3908 549.6344 158.809 554.4543 158.604 557.7811 161.3228 555.8054 167.5751 559.9932 169.9855 563.9982 170.3394 573.6365 168.4758 574.473 168.5247 575.8515 168.8586 577.5614 169.9644 581.1427 173.4549 583.5228 174.1603 591.9579 174.0153 593.947 174.5377 595.0523 175.7269 595.8492 176.9215 596.5132 177.2305 Z" id="HT.ND" fill="#cee3f5" stroke="#6e6e6e" stroke-width="0.4">
      <desc>
        <labelrank>7</labelrank>
        <code_hasc>HT.ND</code_hasc>
        <name>Nord</name>
        <admin>Haiti</admin>
        <type_en>Department</type_en>
        <region/>
        <woe_id>2345618</woe_id>
        <longitude>-72</longitude>
        <woe_name>Nord</woe_name>
        <fips>HA09</fips>
        <woe_label>Nord, HT, Haiti</woe_label>
        <latitude>19</latitude>
        <iso_a2>HT</iso_a2>
        <postal>ND</postal>
        <type>Département</type>
        <id>HT.ND</id>
      </desc>
    </path>
    <path d="M 410.9512 441.0459 408.3433 442.1697 406.5833 440.6055 404.3265 436.0022 402.2037 434.1798 400.3171 433.6984 394.7715 433.4075 372.8114 428.7907 365.3244 428.2977 357.4429 426.464 335.6365 412.7571 313.7053 407.0518 307.7904 403.2687 302.7751 396.3583 298.1572 393.1493 296.8573 392.0282 295.0373 389.7994 293.3833 387.1595 292.5967 384.3222 293.4084 381.4801 296.4118 378.0498 300.6782 375.1317 305.6622 373.1298 310.9278 372.3422 316.7467 372.9445 350.9896 386.8703 367.8766 392.1729 386.6936 401.3946 404.2538 408.5033 411.4994 417.1826 413.428 422.7451 414.3901 429.3904 413.7701 435.9188 410.9512 441.0459 Z M 479.9659 373.1126 485.7485 373.6982 491.8224 373.332 494.5278 377.0282 497.0467 380.9671 503.2148 383.5194 509.7387 386.0389 516.4232 390.7696 522.2684 396.6059 528.8152 405.0724 536.9563 410.0189 545.3715 411.9983 552.7789 416.9268 567.8098 431.2738 586.6661 437.4162 606.0409 430.7729 625.7691 426.8364 634.2079 429.6001 642.5224 432.4447 652.8668 434.9449 662.272 440.3026 663.9611 442.2877 664.0479 442.3896 663.423 442.7909 660.133 446.6001 655.2243 455.3024 652.0796 458.7945 642.609 462.2099 624.0432 459.1193 614.9308 461.2013 610.7484 464.4537 613.0067 468.6393 635.6601 491.0283 637.2932 493.4491 637.9707 497.3141 636.6837 498.7507 634.8557 499.8362 633.9747 502.687 635.5331 507.4378 639.2605 509.4025 648.9165 511.6449 651.0242 513.4433 654.8648 518.8948 656.9048 521.1613 666.3131 527.1818 679.6527 531.9225 683.2113 534.1742 685.516 536.1547 686.0648 536.8922 683.2511 541.9217 683.0202 541.9658 661.5084 546.0709 648.6143 538.3808 631.9767 537.3833 611.251 537.9948 589.8594 533.524 568.372 529.472 547.3958 531.099 526.9748 530.1735 523.5195 526.4219 520.4616 522.371 513.3391 523.0201 508.6071 520.7131 502.101 517.6169 493.2199 517.1805 485.0992 521.1067 479.112 528.4702 476.6545 530.3971 473.6761 530.5304 467.6619 533.1977 461.9664 533.9794 458.6989 534.4222 455.9345 536.8319 451.2306 537.5061 446.4449 537.7673 443.6044 540.2572 440.9366 542.838 436.6497 542.2783 432.7519 540.2199 432.1357 543.9348 430.8254 547.1648 427.8485 549.5619 425.9696 553.2121 417.7924 551.2578 409.3903 548.5313 405.2549 551.0738 402.5005 554.0931 397.1641 551.4751 394.3343 547.4542 390.6895 547.2828 386.8403 547.0601 380.2978 548.5741 375.0778 549.3391 372.0541 543.706 368.4498 539.0524 364.539 534.2553 362.6567 528.0092 358.3525 523.776 352.1959 523.5888 351.5683 516.6624 355.3231 510.1824 355.1687 507.0641 353.7343 504.2045 353.7344 504.2045 371.0206 500.9287 392.3972 505.8196 391.1737 510.0545 395.8623 509.0865 402.4277 506.6889 406.7758 506.6163 410.3912 508.106 427.9225 510.8426 437.3851 508.5717 443.9965 502.8279 448.8135 494.8168 452.8229 485.7023 458.7053 478.2533 466.4933 476.4171 507.5948 479.504 509.0794 478.9366 509.6929 477.7094 510.076 476.4856 510.9095 475.9275 512.4563 476.2203 513.1868 476.861 513.6769 477.5051 514.4626 477.7984 519.664 483.4578 522.0373 484.7467 526.3477 483.5177 528.2874 479.1617 528.7596 473.1465 528.1167 457.4424 528.484 454.5273 530.1538 451.0047 532.0247 448.8971 532.8867 446.9514 531.5195 443.8942 529.284 442.3414 517.9752 437.0465 514.9456 436.5656 508.9592 436.4635 506.0548 435.6231 501.0109 431.4206 496.5029 426.1283 491.6989 422.4782 485.7372 423.255 477.2648 418.2579 475.1327 415.9662 472.9955 411.091 460.1339 391.7214 456.6085 388.2296 451.6384 384.2843 446.4291 381.0767 442.215 379.7879 438.2724 377.8439 438.2779 377.8364 441.6594 373.4311 445.7302 370.3635 461.3869 370.7408 479.9659 373.1126 Z" id="HT.OU" fill="#cee3f5" stroke="#6e6e6e" stroke-width="0.4">
      <desc>
        <labelrank>7</labelrank>
        <code_hasc>HT.OU</code_hasc>
        <name>Ouest</name>
        <admin>Haiti</admin>
        <type_en>Department</type_en>
        <region/>
        <woe_id>2345620</woe_id>
        <longitude>-72</longitude>
        <woe_name>Ouest</woe_name>
        <fips>HA11</fips>
        <woe_label>Ouest, HT, Haiti</woe_label>
        <latitude>18</latitude>
        <iso_a2>HT</iso_a2>
        <postal>OU</postal>
        <type>Département</type>
        <id>HT.OU</id>
      </desc>
    </path>
    <path d="M 365.1069 565.3684 364.5613 559.7078 364.4807 554.0422 367.5596 546.7154 368.4498 539.0524 372.0541 543.706 375.0778 549.3391 380.2978 548.5741 386.8403 547.0601 390.6895 547.2828 394.3343 547.4542 397.1641 551.4751 402.5005 554.0931 405.2549 551.0738 409.3903 548.5313 417.7924 551.2578 425.9696 553.2121 427.8485 549.5619 430.8254 547.1648 432.1357 543.9348 432.7519 540.2199 436.6497 542.2783 440.9366 542.838 443.6044 540.2572 446.4449 537.7673 451.2306 537.5061 455.9345 536.8319 458.6989 534.4222 461.9664 533.9794 467.6619 533.1977 473.6761 530.5304 476.6545 530.3971 479.112 528.4702 485.0992 521.1067 493.2199 517.1805 502.101 517.6169 508.6071 520.7131 513.3391 523.0201 520.4616 522.371 523.5195 526.4219 526.9748 530.1735 547.3958 531.099 568.372 529.472 589.8594 533.524 611.251 537.9948 631.9767 537.3833 648.6143 538.3808 661.5084 546.0709 683.0202 541.9658 683.2511 541.9217 683.1084 542.1768 672.4847 561.1523 670.6193 566.0365 670.0201 571.1319 670.4329 573.567 673.216 580.9185 673.8536 583.7967 673.7634 588.0957 674.4438 595.5843 673.629 600.0696 670.8111 607.9288 666.7235 605.2572 649.0887 583.1785 641.4415 576.531 632.6848 571.2566 613.1692 564.9497 605.071 560.8999 597.0124 557.9618 587.4076 558.0935 567.7683 561.6979 542.1134 561.8428 506.1752 562.8322 486.8666 566.6057 481.8745 564.0686 478.8895 562.9954 477.5785 564.0211 479.3769 573.9317 477.0822 576.4931 474.2025 576.5943 467.434 574.0896 463.6517 573.4563 434.6825 576.4805 428.7268 576.1757 429.233 577.356 429.9812 580.2554 430.4775 581.4358 426.8109 581.2181 425.3408 580.8369 423.5792 579.5983 416.8072 584.0687 403.182 582.896 396.5474 585.524 390.0213 581.8609 381.2724 578.5579 371.9131 576.1944 366.308 575.6341 366.568 574.3656 365.7484 569.8813 365.1069 565.3684 Z" id="HT.SE" fill="#cee3f5" stroke="#6e6e6e" stroke-width="0.4">
      <desc>
        <labelrank>7</labelrank>
        <code_hasc>HT.SE</code_hasc>
        <name>Sud-Est</name>
        <admin>Haiti</admin>
        <type_en>Department</type_en>
        <region/>
        <woe_id>2345622</woe_id>
        <longitude>-72</longitude>
        <woe_name>Sud-Est</woe_name>
        <fips>HA13</fips>
        <woe_label>Sud-Est, HT, Haiti</woe_label>
        <latitude>18</latitude>
        <iso_a2>HT</iso_a2>
        <postal>SE</postal>
        <type>Département</type>
        <id>HT.SE</id>
      </desc>
    </path>
  </g>
</svg>