<?xml version="1.0" encoding="UTF-8"?>
<svg xmlns="http://www.w3.org/2000/svg" width="700" height="700">
  <g id="guyana">
    <path d="M 390.7704 673.8111 391.5596 668.139 392.3431 665.9817 395.6911 661.2138 400.879 655.5603 405.6919 644.3523 409.6598 638.4563 413.1314 631.8979 428.3014 589.8743 434.8437 577.313 436.0381 574.0716 436.6896 567.5337 435.6652 555.3698 436.0932 551.9274 437.5894 549.1042 445.374 538.4358 445.0659 536.6079 439.0993 522.5462 429.0949 508.2814 427.5341 502.6597 427.7649 494.0003 424.509 481.3637 424.2712 477.0701 420.7209 469.4931 411.1451 454.9013 407.4458 440.7028 407.254 437.8116 407.9636 433.0279 404.1378 419.8792 398.3834 411.9365 396.985 409.2335 402.8654 390.6862 410.9893 376.591 412.028 373.0348 427.922 372.7172 430.8381 372.1328 432.5411 371.2044 439.2638 350.7209 450.9553 337.1128 455.6435 324.9338 460.6845 317.4121 464.4667 308.8479 467.4924 305.6873 468.4906 302.2189 469.2574 293.1673 474.3602 272.0872 476.2893 267.0267 476.1418 265.3676 474.6848 263.988 473.4126 263.7007 471.9096 262.0546 469.015 255.784 469.3199 252.5934 468.9144 248.0751 468.4157 245.8144 466.8045 243.2077 467.9557 242.0925 469.9673 241.3401 471.0848 241.598 472.7539 242.9145 473.7667 242.7911 474.6654 241.9467 476.6383 238.4574 477.1396 236.4031 475.1295 233.9355 474.392 230.8903 474.5002 228.2858 476.3778 226.5947 481.2398 225.7986 483.5956 224.8335 484.2447 223.7029 483.6824 221.1637 484.4422 217.6971 484.7665 214.1907 487.2668 211.9383 489.5622 212.0364 495.0069 214.4183 506.2595 221.804 514.047 229.6901 517.8483 235.9576 520.0883 246.0878 517.9923 243.4681 520.2438 248.191 520.6876 255.1553 517.5832 262.9525 516.3467 269.4021 518.5697 273.043 518.3841 278.1495 515.0273 285.159 510.2173 292.052 509.0386 296.1791 508.5519 300.4177 502.966 306.5401 501.8678 308.5917 502.2444 309.469 504.4537 308.9156 506.3097 309.3831 506.4536 315.9871 507.0996 317.2505 508.7504 317.3782 509.6276 316.3451 508.1688 314.2849 508.3357 313.3786 509.1343 312.9147 511.1621 313.1501 512.2878 315.5252 515.4461 319.3498 516.1558 321.2434 515.69 322.5602 514.5335 323.6568 511.5642 325.1216 510.2425 322.2602 507.3573 321.829 506.289 322.3856 503.2077 331.9222 503.6335 332.9803 507.0914 336.0895 506.1406 336.6388 502.4461 336.2779 497.5205 338.0099 487.1946 339.3639 484.6038 337.3683 479.9922 337.8702 475.8304 339.3544 472.1076 337.7359 468.5448 337.9375 465.3626 339.4904 462.8164 341.926 461.3872 344.6169 460.2834 345.4757 457.9599 345.7931 454.9468 344.8438 453.7555 345.1428 448.0896 352.4314 446.5622 354.6016 445.9059 357.7796 446.6199 359.0829 449.7746 360.9317 451.0395 364.8232 454.3675 369.7335 454.233 371.5268 451.7715 375.6042 450.2651 380.4158 446.9022 387.2922 446.1969 390.4237 443.2687 394.3173 442.8888 396.0467 443.9623 400.5415 443.1427 404.7871 433.8081 414.7906 432.4855 416.7998 432.316 418.7568 433.5079 422.8316 434.739 430.8747 435.6721 434.216 437.9703 437.0972 444.2125 442.0059 450.5642 450.8307 452.5823 455.1379 453.2342 461.2443 454.8605 464.9962 461.083 467.919 464.7043 470.2284 466.9098 475.1019 468.3923 475.4352 470.9393 477.0423 472.4945 478.7951 472.3558 480.4661 470.9104 483.2528 471.1301 485.0389 470.5338 488.1658 471.4601 490.7586 475.4122 492.0365 479.9825 494.5752 481.8926 494.7351 482.8218 492.8789 485.8018 494.2461 487.3141 494.4179 488.4283 495.6083 490.0494 494.2482 492.7358 493.5605 493.3991 492.7326 493.2967 491.02 498.8348 493.0915 501.3736 492.6624 504.3795 490.323 507.0342 496.4827 506.8123 499.7661 505.8886 501.5394 507.032 504.232 506.3187 508.4582 507.5555 511.6833 506.4989 514.1994 508.5074 515.1234 510.9242 513.6826 511.5086 514.269 510.059 517.0391 510.9231 518.764 512.5633 520.2644 514.1046 525.0041 512.1594 525.6536 512.6598 528.3654 511.3822 530.4662 512.5954 531.1602 515.754 531.493 516.2106 532.8954 512.8056 536.3345 514.4552 542.2029 515.2166 542.6037 515.9434 544.3774 517.0831 544.7832 521.0038 543.4938 521.6669 544.1144 520.0256 547.5197 520.6543 549.3032 524.2212 548.5999 525.1399 549.0446 523.8966 552.2057 527.7925 557.7564 528.3623 561.4796 529.119 562.0366 531.0943 560.9275 531.7379 562.1344 531.0941 566.092 533.9589 569.7272 533.6296 573.6017 534.2439 574.4812 537.5265 572.6049 538.3177 573.4795 537.5266 576.4746 538.2835 578.6048 540.3181 580.9744 539.5368 583.3148 540.2618 585.0297 543.6653 587.9806 544.727 590.0912 544.6757 593.4967 545.0837 594.342 549.0084 595.6364 550.2152 597.4733 552.5682 606.5218 561.7279 619.4095 564.3335 620.4717 573.6589 620.621 577.2455 622.4768 579.2543 624.4086 581.2504 625.0457 582.0863 625.7148 582.9792 627.7276 575.6452 631.0351 574.1285 631.1479 569.8115 628.3981 567.9729 628.181 563.7504 630.5223 558.6425 630.4401 554.5528 633.6482 552.0947 634.1664 544.0813 632.5963 541.1118 629.9581 535.8861 630.2905 532.6218 629.9143 528.3597 627.1244 527.2341 625.1748 526.6394 622.4827 523.7441 620.1862 519.1379 622.0058 511.0015 627.0789 509.0794 626.7292 505.6386 624.5911 503.2986 624.3732 501.1994 625.157 497.1034 629.2823 492.8258 631.6364 489.4659 639.6315 483.1361 647.5892 480.2935 649.7237 475.8484 650.8437 472.9277 650.9307 461.4865 649.2921 458.4474 650.0971 445.9354 655.9969 439.9614 654.5549 439.3906 655.2437 440.0622 659.6224 439.7713 661.2568 437.4675 666.0446 435.9372 667.8715 431.9484 668.6124 427.4486 668.4635 424.3851 667.6556 423.0292 664.8082 420.7089 663.0648 417.6247 664.1552 411.694 663.1572 410.0567 662.3425 408.032 659.8781 406.9446 660.6178 405.088 664.4066 401.388 666.5375 401.7544 670.3743 399.176 672.0906 390.7704 673.8111 Z" id="GY.MA" fill="#cee3f5" stroke="#6e6e6e" stroke-width="0.4">
      <desc>
        <labelrank>6</labelrank>
        <code_hasc>GY.MA</code_hasc>
        <name>Mahaica-Berbice</name>
        <admin>Guyana</admin>
        <type_en>Region</type_en>
        <region/>
        <woe_id>2345606</woe_id>
        <longitude>-57</longitude>
        <woe_name>Mahaica-Berbice</woe_name>
        <fips>GY13</fips>
        <woe_label>East Berbice-Corentyne, GY, Guyana</woe_label>
        <latitude>2</latitude>
        <iso_a2>GY</iso_a2>
        <postal>MA</postal>
        <type>Region</type>
        <id>GY.MA</id>
      </desc>
    </path>
    <path d="M 358.8421 299.0557 357.4905 299.653 355.6053 304.0521 355.007 307.3967 361.0832 316.6473 360.9509 323.4594 358.618 337.1046 358.7934 340.9965 361.0862 347.0209 363.4582 360.4807 364.7414 362.0924 369.0701 360.8397 370.447 362.3121 371.8029 366.3361 374.0784 369.4873 384.9217 374.2121 389.3613 374.9281 403.6532 374.8374 412.028 373.0348 410.9893 376.591 402.8654 390.6862 396.985 409.2335 388.2158 405.7756 385.1856 405.8794 381.9934 407.1511 378.6663 409.483 374.7677 415.0179 362.0379 426.2333 357.6381 431.156 355.0837 432.8514 350.8712 432.915 348.0323 431.3243 341.5673 422.9921 339.2917 416.3932 338.528 415.5698 336.0224 415.4018 329.7118 418.1083 325.7214 417.7306 320.1023 418.6244 307.2248 418.1612 304.4629 417.3141 299.875 414.6932 299.1805 413.818 298.8522 412.0392 301.4188 407.8194 300.6326 398.8817 301.5093 395.7252 302.4905 394.4227 302.4943 393.2563 299.5779 385.3531 297.524 384.588 293.262 386.4172 290.8941 389.104 287.7994 395.3049 286.0381 397.0694 283.1833 397.7124 278.5599 397.537 278.2465 396.3056 276.0583 395.833 273.745 393.3445 268.2158 390.2346 266.9529 388.569 265.3704 389.6172 261.857 389.0312 261.057 388.3114 261.3318 387.1114 260.9453 386.7527 256.9864 387.7156 255.1197 385.4453 253.3329 384.7164 251.2968 384.9136 250.3409 386.3213 246.9099 385.3531 243.5899 386.0292 242.5794 385.7656 242.0833 384.0387 240.5466 382.8015 239.518 382.7531 238.7883 384.5874 237.387 384.9827 234.7443 383.9633 233.6847 382.5591 233.2307 380.8125 233.5529 379.0155 236.1034 376.3426 238.8294 376.1832 240.5873 375.0385 241.7514 370.9943 244.4834 367.0795 245.8842 363.8977 245.7138 357.991 247.0675 353.7841 247.3309 348.1094 249.0449 341.8589 249.1498 338.2093 250.8639 332.4851 250.7243 329.7835 243.905 326.045 240.7299 323.1602 250.0068 314.9229 253.0652 307.1725 254.1888 305.0104 255.9808 303.0301 264.5373 300.453 268.6938 300.7315 273.1726 300.2064 281.7983 301.9715 288.742 301.5317 289.757 299.736 288.3938 287.3186 289.2066 285.8034 291.9225 283.3402 296.9265 280.2852 306.0157 282.7099 309.962 282.2123 312.4183 280.5986 314.2161 277.581 317.0757 274.2156 322.2307 271.2454 323.9012 271.2006 325.9403 272.7438 330.1904 277.8036 332.0444 281.1867 334.3701 283.5812 334.328 287.8546 334.7962 289.1545 337.7161 289.9128 341.9967 288.1526 343.7034 288.3344 346.6209 292.0135 347.9969 292.9519 355.3861 294.1342 358.8421 299.0557 Z" id="GY.PT" fill="#cee3f5" stroke="#6e6e6e" stroke-width="0.4">
      <desc>
        <labelrank>6</labelrank>
        <code_hasc>GY.PT</code_hasc>
        <name>Potaro-Siparuni</name>
        <admin>Guyana</admin>
        <type_en>Region</type_en>
        <region/>
        <woe_id>2345610</woe_id>
        <longitude>-59</longitude>
        <woe_name>Potaro-Siparuni</woe_name>
        <fips>GY17</fips>
        <woe_label>Potaro-Siparuni, GY, Guyana</woe_label>
        <latitude>4</latitude>
        <iso_a2>GY</iso_a2>
        <postal>PT</postal>
        <type>Region</type>
        <id>GY.PT</id>
      </desc>
    </path>
    <path d="M 413.0314 233.8557 416.0279 234.9209 422.0006 233.0037 425.1768 235.8355 427.1742 236.3456 428.2173 239.4145 428.2653 241.0812 427.0758 244.9153 428.1219 246.5913 435.8895 249.3286 443.653 250.5961 444.7257 252.8142 448.1841 256.6293 451.2352 256.7587 454.5178 259.1265 458.1693 256.9376 462.4362 257.2147 466.015 256.0613 469.015 255.784 471.9096 262.0546 473.4126 263.7007 474.6848 263.988 476.1418 265.3676 476.2893 267.0267 474.3602 272.0872 469.2574 293.1673 468.4906 302.2189 467.4924 305.6873 464.4667 308.8479 460.6845 317.4121 455.6435 324.9338 450.9553 337.1128 439.2638 350.7209 432.5411 371.2044 430.8381 372.1328 427.922 372.7172 412.028 373.0348 403.6532 374.8374 389.3613 374.9281 384.9217 374.2121 374.0784 369.4873 371.8029 366.3361 370.447 362.3121 369.0701 360.8397 364.7414 362.0924 363.4582 360.4807 361.0862 347.0209 358.7934 340.9965 358.618 337.1046 360.9509 323.4594 361.0832 316.6473 355.007 307.3967 355.6053 304.0521 357.4905 299.653 358.8421 299.0557 362.7426 298.9061 373.2373 296.9615 374.888 295.2796 377.0622 291.1378 379.9341 283.4027 381.0699 266.8419 380.7025 260.8625 381.0929 258.7396 384.71 251.9577 384.9929 249.7075 385.0224 241.9573 383.74 238.6662 383.687 236.7059 385.0746 224.0811 383.8885 221.5528 385.0937 217.6507 384.7807 216.0097 382.5276 211.4787 382.1283 204.3809 383.2419 204.3228 382.5353 203.7355 384.1188 199.8115 386.1366 201.0972 392.6193 210.6802 397.4369 214.003 401.0816 218.1213 402.7884 221.9212 404.7138 230.2404 404.7272 230.7463 404.5954 231.5744 404.9153 231.7952 405.4214 231.8796 409.5963 232.1392 413.0314 233.8557 Z" id="GY.UT" fill="#cee3f5" stroke="#6e6e6e" stroke-width="0.4">
      <desc>
        <labelrank>6</labelrank>
        <code_hasc>GY.UT</code_hasc>
        <name>Upper Takutu-Upper Essequibo</name>
        <admin>Guyana</admin>
        <type_en>Region</type_en>
        <region/>
        <woe_id>2345611</woe_id>
        <longitude>-58</longitude>
        <woe_name>Upper Takutu-Upper Essequibo</woe_name>
        <fips>GY18</fips>
        <woe_label>Upper Demerara-Berbice, GY, Guyana</woe_label>
        <latitude>5</latitude>
        <iso_a2>GY</iso_a2>
        <postal>UT</postal>
        <type>Region</type>
        <id>GY.UT</id>
      </desc>
    </path>
    <path d="M 396.985 409.2335 398.3834 411.9365 404.1378 419.8792 407.9636 433.0279 407.254 437.8116 407.4458 440.7028 411.1451 454.9013 420.7209 469.4931 424.2712 477.0701 424.509 481.3637 427.7649 494.0003 427.5341 502.6597 429.0949 508.2814 439.0993 522.5462 445.0659 536.6079 445.374 538.4358 437.5894 549.1042 436.0932 551.9274 435.6652 555.3698 436.6896 567.5337 436.0381 574.0716 434.8437 577.313 428.3014 589.8743 413.1314 631.8979 409.6598 638.4563 405.6919 644.3523 400.879 655.5603 395.6911 661.2138 392.3431 665.9817 391.5596 668.139 390.7704 673.8111 389.6364 675.2197 392.0676 680.8957 392.7291 685.1532 389.1245 691.4511 386.8275 690.7752 385.5049 689.5916 383.2609 690.9295 372.1038 690.1354 366.8551 696.3838 365.0339 697.678 360.841 699 357.4068 698.8608 355.4933 698.053 353.0443 696.1056 351.7286 692.0912 350.2296 689.8217 346.5166 687.3647 342.2715 685.7138 326.3849 682.9036 318.5827 680.0286 315.3605 673.9059 312.838 671.8765 312.2117 668.47 311.1059 667.0385 307.1442 667.1564 305.769 664.6853 303.6559 664.1303 300.9296 659.7992 297.0777 656.4764 295.4784 654.4326 292.8263 650.1303 290.8526 648.477 288.8307 647.8459 285.4757 648.5187 282.454 648.3482 278.536 644.9702 278.3821 644.1923 281.9146 638.3207 281.8228 637.1589 279.7734 636.8966 276.195 635.4996 271.9933 636.0703 271.1311 635.0442 270.5887 629.5158 272.5686 625.6082 272.429 622.2646 273.2192 619.1182 271.7157 614.8526 273.3952 611.253 272.4891 607.4653 272.8209 597.0273 270.7733 594.7342 267.16 594.2771 263.0671 591.1724 257.4664 587.9272 256.4885 586.115 257.6304 583.6762 257.1395 578.5383 254.3854 572.3678 253.9288 568.6632 252.7525 566.6791 251.0544 565.8581 251.6249 563.8828 248.6474 558.0681 248.3074 556.2423 248.9517 540.7879 250.9473 533.0286 250.8714 525.6112 251.3304 523.2395 254.8277 516.8743 256.836 515.329 255.8956 513.0856 257.6437 512.2784 256.3514 510.1466 256.3721 508.9138 258.1904 506.7223 259.4983 502.4502 262.394 497.4563 263.4062 494.2744 265.4461 493.5637 264.8144 491.0229 265.2506 486.455 263.6019 487.0445 265.521 481.466 264.7491 479.0617 261.5762 475.0185 261.5996 472.2398 264.0064 469.6373 271.8245 466.9318 275.4393 463.6214 278.432 462.0211 279.0151 460.937 279.0211 458.1513 279.8219 455.7766 281.0319 454.5794 284.9187 452.8622 286.7949 451.4274 287.1036 450.0906 286.4393 446.3835 288.4219 442.2713 290.1983 440.4793 292.905 439.6438 293.579 438.4696 292.7124 436.7478 287.065 435.5051 287.1586 433.0697 284.8463 429.6213 281.6363 426.6321 280.7325 425.1593 281.0394 422.9396 282.3728 420.0239 280.3644 418.4519 276.2851 417.1246 274.7297 415.982 273.6235 413.4882 273.6851 409.964 274.9724 407.6914 273.6516 405.5539 274.672 403.7868 277.9321 400.4477 278.5599 397.537 283.1833 397.7124 286.0381 397.0694 287.7994 395.3049 290.8941 389.104 293.262 386.4172 297.524 384.588 299.5779 385.3531 302.4943 393.2563 302.4905 394.4227 301.5093 395.7252 300.6326 398.8817 301.4188 407.8194 298.8522 412.0392 299.1805 413.818 299.875 414.6932 304.4629 417.3141 307.2248 418.1612 320.1023 418.6244 325.7214 417.7306 329.7118 418.1083 336.0224 415.4018 338.528 415.5698 339.2917 416.3932 341.5673 422.9921 348.0323 431.3243 350.8712 432.915 355.0837 432.8514 357.6381 431.156 362.0379 426.2333 374.7677 415.0179 378.6663 409.483 381.9934 407.1511 385.1856 405.8794 388.2158 405.7756 396.985 409.2335 Z" id="GY.UD" fill="#cee3f5" stroke="#6e6e6e" stroke-width="0.4">
      <desc>
        <labelrank>6</labelrank>
        <code_hasc>GY.UD</code_hasc>
        <name>Upper Demerara-Berbice</name>
        <admin>Guyana</admin>
        <type_en>Region</type_en>
        <region/>
        <woe_id>2345612</woe_id>
        <longitude>-58</longitude>
        <woe_name>Upper Demerara-Berbice</woe_name>
        <fips>GY19</fips>
        <woe_label>Upper Takutu-Upper Essequibo, GY, Guyana</woe_label>
        <latitude>2</latitude>
        <iso_a2>GY</iso_a2>
        <postal>UD</postal>
        <type>Region</type>
        <id>GY.UD</id>
      </desc>
    </path>
    <path d="M 365.6714 86.2094 361.0425 91.9142 357.423 95.2528 355.427 96.5081 342.494 101.9045 335.7763 109.1321 335.1804 110.2539 335.3688 111.6925 337.8342 115.8384 337.9964 118.2328 333.5799 122.5129 328.0289 139.7928 328.1142 142.4437 330.0851 150.4701 325.0094 148.1848 319.3025 147.1893 317.3858 148.4638 316.547 151.1397 313.3955 153.5402 312.352 153.5717 305.3085 151.4136 303.339 149.9875 299.9865 149.9994 298.6733 149.2735 290.2634 140.6704 279.8242 137.9524 266.1556 130.4292 263.861 130.4883 259.8852 131.7501 258.1925 134.7364 254.1825 138.9287 252.4617 138.9764 248.7118 137.5991 247.2465 137.8023 243.7826 141.2197 241.8681 142.0439 235.5769 139.7602 232.8397 139.323 230.8306 139.6322 227.9128 137.0472 221.5812 133.997 219.9979 133.5598 217.2703 133.8587 215.0372 131.9865 210.8932 132.0439 207.7177 130.4095 205.2757 130.3763 203.2556 131.11 201.7067 132.5571 199.5926 136.2765 198.3528 136.2915 191.8039 131.0406 189.4287 127.1828 189.4048 124.3622 190.6037 121.811 193.356 119.1008 193.4179 116.8637 190.8859 111.7068 188.6021 110.3514 187.9326 106.7761 184.161 105.0994 182.003 101.0705 181.3891 98.2592 182.7419 95.7929 187.0411 94.4582 190.818 88.9421 191.4399 88.4871 192.808 88.7483 193.7026 88.0899 193.8565 85.4667 195.3286 82.9231 195.1249 79.2638 197.7442 75.8829 199.6389 72.3882 200.9799 71.1412 203.1096 70.449 215.2528 70.2889 217.5658 68.5843 218.3397 66.4121 225.0412 61.448 228.9232 57.0879 233.4718 55.3661 238.591 51.0348 240.608 50.4115 246.4031 50.7046 248.005 49.7794 248.9732 48.13 249.7987 44.3363 250.9112 42.9278 250.8108 39.3719 251.5166 37.9017 254.9588 34.9324 256.6001 34.1591 265.2218 32.3938 267.0418 30.7627 268.2483 28.6796 268.362 26.733 264.6314 20.6122 254.9003 9.5521 249.1885 1 254.1444 3.9208 257.4824 7.3369 262.8109 15.5718 266.3234 18.9994 268.9915 20.4016 273.5866 21.6823 283.7947 28.1737 286.588 28.7739 287.7348 31.1889 293.9893 32.4233 304.2769 41.8731 302.126 38.3669 298.8534 35.1192 294.9214 32.4831 287.8607 29.5488 279.2219 23.4972 273.5268 20.3605 271.6153 16.6795 271.8427 15.456 274.0777 15.1174 278.9454 18.4951 282.7776 19.6653 287.6545 23.5538 293.8379 27.2841 302.4229 31.2319 312.3943 38.4666 329.5713 48.7901 335.2405 53.0899 343.0661 60.9466 355.8947 75.4184 360.7224 79.2607 365.6714 86.2094 Z" id="GY.BA" fill="#cee3f5" stroke="#6e6e6e" stroke-width="0.4">
      <desc>
        <labelrank>6</labelrank>
        <code_hasc>GY.BA</code_hasc>
        <name>Barima-Waini</name>
        <admin>Guyana</admin>
        <type_en>Region</type_en>
        <region/>
        <woe_id>2345603</woe_id>
        <longitude>-59</longitude>
        <woe_name>Barima-Waini</woe_name>
        <fips>GY10</fips>
        <woe_label>Barima-Waini, GY, Guyana</woe_label>
        <latitude>7</latitude>
        <iso_a2>GY</iso_a2>
        <postal>BA</postal>
        <type>Region</type>
        <id>GY.BA</id>
      </desc>
    </path>
    <path d="M 330.0851 150.4701 330.0322 152.4087 328.148 158.4125 328.253 161.1074 338.5532 164.9034 341.4766 164.6885 344.3438 162.131 345.434 162.0256 347.9447 162.8891 348.9653 164.8735 349.2919 168.7008 350.5862 170.7473 354.5457 171.8116 358.3705 171.0857 360.3185 176.1728 361.8773 178.9091 362.1504 180.4061 361.5882 185.7477 361.17 187.8093 360.8719 191.1181 361.2422 192.1632 361.6726 192.7808 369.1943 193.6653 375.7739 197.0265 376.6481 197.3251 377.401 197.3716 379.0576 196.8905 380.7297 197.6058 380.449 198.6712 374.1286 207.5809 374.7736 208.1758 379.5859 203.7339 382.1283 204.3809 382.5276 211.4787 384.7807 216.0097 385.0937 217.6507 383.8885 221.5528 385.0746 224.0811 383.687 236.7059 383.74 238.6662 385.0224 241.9573 384.9929 249.7075 384.71 251.9577 381.0929 258.7396 380.7025 260.8625 381.0699 266.8419 379.9341 283.4027 377.0622 291.1378 374.888 295.2796 373.2373 296.9615 362.7426 298.9061 358.8421 299.0557 355.3861 294.1342 347.9969 292.9519 346.6209 292.0135 343.7034 288.3344 341.9967 288.1526 337.7161 289.9128 334.7962 289.1545 334.328 287.8546 334.3701 283.5812 332.0444 281.1867 330.1904 277.8036 325.9403 272.7438 323.9012 271.2006 322.2307 271.2454 317.0757 274.2156 314.2161 277.581 312.4183 280.5986 309.962 282.2123 306.0157 282.7099 296.9265 280.2852 291.9225 283.3402 289.2066 285.8034 288.3938 287.3186 289.757 299.736 288.742 301.5317 281.7983 301.9715 273.1726 300.2064 268.6938 300.7315 264.5373 300.453 255.9808 303.0301 254.1888 305.0104 253.0652 307.1725 250.0068 314.9229 240.7299 323.1602 236.6867 314.8063 232.4233 316.3239 231.0631 315.1058 230.1866 312.8746 228.9423 312.511 223.2073 314.363 217.5454 319.4088 215.4646 319.454 211.2987 317.9976 209.3181 318.0897 206.5309 321.2 205.8293 321.1522 203.831 319.5087 201.9412 319.1188 195.2067 319.6711 190.9174 317.8255 183.1662 317.4965 178.917 318.3994 118.6147 251.3279 117.0208 247.4951 122.6181 243.6312 127.1256 236.6153 129.2301 232.2635 136.3577 229.8894 138.3307 226.2278 139.56 225.1718 143.316 224.8434 144.0154 217.5149 142.6744 215.6745 141.0111 214.6275 139.6996 210.0533 140.3148 205.4871 141.8432 202.2536 141.7823 200.6927 138.8852 194.2237 135.2303 191.1849 135.0286 189.2429 137.1508 182.4869 139.0311 179.1246 142.9385 174.6697 144.7291 174.337 148.5675 175.0941 149.4511 173.3746 153.4763 174.3215 155.2329 173.0158 159.5547 173.5849 161.5254 173.3167 164.8069 169.8533 164.6489 168.1965 163.5226 165.7997 164.0765 165.4221 167.4023 166.1248 170.6803 168.2129 174.8639 167.5382 176.7983 168.0651 181.6575 170.8254 183.6697 170.1405 187.93 164.7254 189.4786 163.491 198.0965 161.1515 210.2473 153.7452 212.7853 153.1711 214.3732 154.1223 215.2822 149.4344 216.0883 147.8493 220.4914 144.5326 222.1792 141.6566 222.5895 139.9953 222.53 138.3894 221.822 136.8915 217.2703 133.8587 219.9979 133.5598 221.5812 133.997 227.9128 137.0472 230.8306 139.6322 232.8397 139.323 235.5769 139.7602 241.8681 142.0439 243.7826 141.2197 247.2465 137.8023 248.7118 137.5991 252.4617 138.9764 254.1825 138.9287 258.1925 134.7364 259.8852 131.7501 263.861 130.4883 266.1556 130.4292 279.8242 137.9524 290.2634 140.6704 298.6733 149.2735 299.9865 149.9994 303.339 149.9875 305.3085 151.4136 312.352 153.5717 313.3955 153.5402 316.547 151.1397 317.3858 148.4638 319.3025 147.1893 325.0094 148.1848 330.0851 150.4701 Z" id="GY.PM" fill="#cee3f5" stroke="#6e6e6e" stroke-width="0.4">
      <desc>
        <labelrank>6</labelrank>
        <code_hasc>GY.PM</code_hasc>
        <name>Pomeroon-Supenaam</name>
        <admin>Guyana</admin>
        <type_en>Region</type_en>
        <region/>
        <woe_id>2345604</woe_id>
        <longitude>-59</longitude>
        <woe_name>Pomeroon-Supenaam</woe_name>
        <fips>GY11</fips>
        <woe_label>Cuyuni-Mazaruni, GY, Guyana</woe_label>
        <latitude>6</latitude>
        <iso_a2>GY</iso_a2>
        <postal>PM</postal>
        <type>Region</type>
        <id>GY.PM</id>
      </desc>
    </path>
    <path d="M 447.2821 176.5235 447.3573 181.8903 449.2932 186.8103 449.1309 190.1259 450.1911 193.0991 449.3619 193.5521 445.3955 193.5523 444.8797 194.9392 445.8826 198.4696 445.093 201.2269 444.3024 201.8192 438.6925 203.1672 436.0671 206.8738 433.0971 209.1428 431.589 211.3341 426.2875 225.3813 426.3032 231.8009 427.1742 236.3456 425.1768 235.8355 422.0006 233.0037 416.0279 234.9209 413.0314 233.8557 414.5929 231.4009 414.6838 230.1695 414.4171 229.1938 413.0343 225.4612 412.2986 224.2498 411.7174 222.8823 411.7336 222.2664 411.8572 221.7169 413.5054 218.7174 413.8929 217.2448 413.9242 216.409 413.5477 215.372 411.1552 212.8562 410.2711 210.5128 410.1268 209.5594 410.1434 208.7969 410.2572 208.2473 411.3688 205.6816 411.6303 204.7341 411.6369 204.0596 411.5454 203.4875 410.4335 199.5061 410.5792 198.9346 410.8247 198.5246 411.9846 197.0808 416.2634 192.5802 421.2844 182.9199 422.3365 180.2954 422.3529 179.577 422.2566 178.9829 421.604 177.0361 421.2633 175.4786 421.1205 173.9386 421.191 173.0712 421.4404 171.9721 421.684 171.2836 422.7618 167.0145 422.744 166.7724 423.1241 166.9579 423.8317 165.4356 424.6363 165.1836 432.7497 166.197 438.6226 169.0417 447.2821 176.5235 Z" id="GY.EB" fill="#cee3f5" stroke="#6e6e6e" stroke-width="0.4">
      <desc>
        <labelrank>6</labelrank>
        <code_hasc>GY.EB</code_hasc>
        <name>East Berbice-Corentyne</name>
        <admin>Guyana</admin>
        <type_en>Region</type_en>
        <region/>
        <woe_id>2345605</woe_id>
        <longitude>-58</longitude>
        <woe_name>East Berbice-Corentyne</woe_name>
        <fips>GY12</fips>
        <woe_label>Demerara-Mahaica, GY, Guyana</woe_label>
        <latitude>6</latitude>
        <iso_a2>GY</iso_a2>
        <postal>EB</postal>
        <type>Region</type>
        <id>GY.EB</id>
      </desc>
    </path>
    <path d="M 386.4089 173.9922 385.6187 176.0809 384.9572 175.526 384.8559 174.0931 386.5689 166.7232 388.5886 163.1019 391.7048 161.0296 393.0365 160.7076 393.2526 161.5895 386.8695 171.4611 386.4089 173.9922 Z M 414.5929 231.4009 413.0314 233.8557 409.5963 232.1392 405.4214 231.8796 404.9153 231.7952 404.5954 231.5744 404.7272 230.7463 404.7138 230.2404 402.7884 221.9212 401.0816 218.1213 397.4369 214.003 392.6193 210.6802 386.1366 201.0972 384.1188 199.8115 384.5264 187.5371 385.5051 183.5679 395.5329 166.086 398.0629 162.6912 401.5165 160.2843 405.6813 159.2572 409.6731 159.4761 413.2933 160.5867 418.9321 163.5647 422.744 166.7724 422.7618 167.0145 421.684 171.2836 421.4404 171.9721 421.191 173.0712 421.1205 173.9386 421.2633 175.4786 421.604 177.0361 422.2566 178.9829 422.3529 179.577 422.3365 180.2954 421.2844 182.9199 416.2634 192.5802 411.9846 197.0808 410.8247 198.5246 410.5792 198.9346 410.4335 199.5061 410.3951 200.1903 411.6303 204.7341 411.3688 205.6816 410.2572 208.2473 410.1434 208.7969 410.1268 209.5594 410.2711 210.5128 411.1552 212.8562 413.5477 215.372 413.9242 216.409 413.8929 217.2448 413.5054 218.7174 411.8572 221.7169 411.7336 222.2664 411.7174 222.8823 412.2986 224.2498 413.0343 225.4612 414.4171 229.1938 414.6838 230.1695 414.5929 231.4009 Z M 397.4954 158.2479 395.6468 160.2668 395.3709 158.6648 395.9429 156.515 396.941 154.6244 399.603 151.8843 407.6656 152.5544 402.2267 156.834 397.4954 158.2479 Z M 381.2674 195.5675 380.7297 197.6058 379.0576 196.8905 377.401 197.3716 376.6481 197.3251 375.7739 197.0265 369.1943 193.6653 361.6726 192.7808 361.2422 192.1632 360.8719 191.1181 361.17 187.8093 361.5882 185.7477 362.1504 180.4061 361.8773 178.9091 360.3185 176.1728 364.3895 173.626 368.0864 171.6864 372.4368 165.8745 377.8274 164.1309 378.3019 163.2599 378.549 162.4444 379.2854 157.8248 380.0882 156.6592 388.2984 151.8568 390.0923 151.3295 390.0901 151.3312 388.571 152.4964 386.1054 156.0873 384.91 161.6492 382.6523 167.3269 382.6253 175.5255 381.3219 178.7199 381.2674 195.5675 Z M 394.1704 156.6421 392.8282 158.615 391.7208 158.498 392.0631 156.9592 396.8891 147.0829 398.2192 146.9809 400.4234 148.866 395.968 152.6911 394.1704 156.6421 Z" id="GY.DE" fill="#cee3f5" stroke="#6e6e6e" stroke-width="0.4">
      <desc>
        <labelrank>6</labelrank>
        <code_hasc>GY.DE</code_hasc>
        <name>Demerara-Mahaica</name>
        <admin>Guyana</admin>
        <type_en>Region</type_en>
        <region/>
        <woe_id>2345607</woe_id>
        <longitude>-58</longitude>
        <woe_name>Demerara-Mahaica</woe_name>
        <fips>GY14</fips>
        <woe_label>Essequibo Islands-West Demerara, GY, Guyana</woe_label>
        <latitude>6</latitude>
        <iso_a2>GY</iso_a2>
        <postal>DE</postal>
        <type>Region</type>
        <id>GY.DE</id>
      </desc>
    </path>
    <path d="M 484.4422 217.6971 483.6824 221.1637 484.2447 223.7029 483.5956 224.8335 481.2398 225.7986 476.3778 226.5947 474.5002 228.2858 474.392 230.8903 475.1295 233.9355 477.1396 236.4031 476.6383 238.4574 474.6654 241.9467 473.7667 242.7911 472.7539 242.9145 471.0848 241.598 469.9673 241.3401 467.9557 242.0925 466.8045 243.2077 468.4157 245.8144 468.9144 248.0751 469.3199 252.5934 469.015 255.784 466.015 256.0613 462.4362 257.2147 458.1693 256.9376 454.5178 259.1265 451.2352 256.7587 448.1841 256.6293 444.7257 252.8142 443.653 250.5961 435.8895 249.3286 428.1219 246.5913 427.0758 244.9153 428.2653 241.0812 428.2173 239.4145 427.1742 236.3456 426.3032 231.8009 426.2875 225.3813 431.589 211.3341 433.0971 209.1428 436.0671 206.8738 438.6925 203.1672 444.3024 201.8192 445.093 201.2269 445.8826 198.4696 444.8797 194.9392 445.3955 193.5523 449.3619 193.5521 450.1911 193.0991 449.1309 190.1259 449.2932 186.8103 447.3573 181.8903 447.2821 176.5235 454.4424 182.9221 458.3206 187.3879 460.0338 188.1282 472.5065 198.7882 477.0638 203.5752 481.8719 214.9378 482.9065 216.261 483.6382 218.8578 484.4422 217.6971 Z" id="GY.ES" fill="#cee3f5" stroke="#6e6e6e" stroke-width="0.4">
      <desc>
        <labelrank>6</labelrank>
        <code_hasc>GY.ES</code_hasc>
        <name>Essequibo Islands-West Demerara</name>
        <admin>Guyana</admin>
        <type_en>Region</type_en>
        <region/>
        <woe_id>2345608</woe_id>
        <longitude>-57</longitude>
        <woe_name>Essequibo Islands-West Demerara</woe_name>
        <fips>GY15</fips>
        <woe_label>Mahaica-Berbice, GY, Guyana</woe_label>
        <latitude>6</latitude>
        <iso_a2>GY</iso_a2>
        <postal>ES</postal>
        <type>Region</type>
        <id>GY.ES</id>
      </desc>
    </path>
    <path d="M 360.3185 176.1728 358.3705 171.0857 354.5457 171.8116 350.5862 170.7473 349.2919 168.7008 348.9653 164.8735 347.9447 162.8891 345.434 162.0256 344.3438 162.131 341.4766 164.6885 338.5532 164.9034 328.253 161.1074 328.148 158.4125 330.0322 152.4087 330.0851 150.4701 328.1142 142.4437 328.0289 139.7928 333.5799 122.5129 337.9964 118.2328 337.8342 115.8384 335.3688 111.6925 335.1804 110.2539 335.7763 109.1321 342.494 101.9045 355.427 96.5081 357.423 95.2528 361.0425 91.9142 365.6714 86.2094 369.7041 93.4864 370.0569 92.8861 369.1239 90.5495 369.3071 89.5165 372.9443 90.4124 376.7323 93.8103 385.6534 106.3174 393.0354 113.6471 394.7396 116.5587 395.4249 119.7018 394.4734 122.7471 395.1214 122.0448 394.6201 126.1078 395.0693 138.2489 393.369 148.2047 392.1951 149.7137 390.0923 151.3295 388.2984 151.8568 380.0882 156.6592 379.2854 157.8248 378.549 162.4444 378.3019 163.2599 377.8274 164.1309 372.4368 165.8745 368.0864 171.6864 364.3895 173.626 360.3185 176.1728 Z" id="GY.CU" fill="#cee3f5" stroke="#6e6e6e" stroke-width="0.4">
      <desc>
        <labelrank>6</labelrank>
        <code_hasc>GY.CU</code_hasc>
        <name>Cuyuni-Mazaruni</name>
        <admin>Guyana</admin>
        <type_en>Region</type_en>
        <region/>
        <woe_id>2345609</woe_id>
        <longitude>-58</longitude>
        <woe_name>Cuyuni-Mazaruni</woe_name>
        <fips>GY16</fips>
        <woe_label>Pomeroon-Supenaam, GY, Guyana</woe_label>
        <latitude>7</latitude>
        <iso_a2>GY</iso_a2>
        <postal>CU</postal>
        <type>Region</type>
        <id>GY.CU</id>
      </desc>
    </path>
  </g>
</svg>