<?xml version="1.0" encoding="UTF-8"?>
<svg xmlns="http://www.w3.org/2000/svg" width="700" height="700">
  <g id="arizona">
    <path d="M 583.5936 7.9522 699 7.9522 699 89.988 699 174.8048 699 229.0319 699 306.8964 699 397.2749 662.8486 397.2749 660.0677 404.2271 651.7251 405.6175 644.7729 412.5697 632.259 418.1315 612.7928 434.8167 597.498 423.6932 597.498 397.2749 601.6693 397.2749 601.6693 355.5618 603.0598 313.8486 600.2789 302.7251 603.0598 270.745 604.4502 187.3187 604.4502 169.243 583.5936 169.243 583.5936 77.4741 583.5936 7.9522 Z" id="US.AZ.001" fill="#cee3f5" stroke="#6e6e6e" stroke-width="0.4">
      <desc>
        <name>Apache County</name>
        <stateAbbrev>AZ</stateAbbrev>
        <state>Arizona</state>
        <fips>001</fips>
        <incits>04001</incits>
        <id>US.AZ.001</id>
        <population>71934</population>
      </desc>
    </path>
    <path d="M 529.3665 644.7729 529.3665 594.7171 529.3665 561.3466 590.5458 561.3466 678.1434 561.3466 690.6574 561.3466 699 561.3466 699 611.4024 699 693.4382 600.2789 693.4382 527.9761 693.4382 527.9761 658.6773 529.3665 644.7729 Z" id="US.AZ.003" fill="#cee3f5" stroke="#6e6e6e" stroke-width="0.4">
      <desc>
        <name>Cochise County</name>
        <stateAbbrev>AZ</stateAbbrev>
        <state>Arizona</state>
        <fips>003</fips>
        <incits>04003</incits>
        <id>US.AZ.003</id>
        <population>129473</population>
      </desc>
    </path>
    <path d="M 276.3068 7.9522 359.7331 7.9522 429.255 7.9522 493.2151 6.5618 493.2151 338.8765 482.0916 338.8765 469.5777 331.9243 457.0637 324.9721 444.5498 323.5817 432.0359 316.6295 423.6932 319.4104 411.1793 316.6295 407.008 319.4104 395.8845 313.8486 395.8845 273.5259 369.4661 273.5259 369.4661 252.6693 365.2948 252.6693 301.3347 252.6693 301.3347 231.8127 288.8207 231.8127 284.6494 220.6892 272.1355 220.6892 263.7928 213.7371 249.8884 212.3466 226.251 206.7849 223.4701 202.6135 188.7092 185.9283 180.3665 185.9283 180.3665 152.5578 183.1474 145.6056 181.757 133.0916 177.5857 123.3586 183.1474 116.4064 192.8805 117.7968 197.0518 109.4542 204.004 108.0637 219.2988 99.7211 223.4701 101.1116 259.6215 87.2072 265.1833 81.6454 262.4024 62.1793 266.5737 56.6175 263.7928 46.8845 266.5737 34.3705 277.6972 13.5139 276.3068 7.9522 Z" id="US.AZ.005" fill="#cee3f5" stroke="#6e6e6e" stroke-width="0.4">
      <desc>
        <name>Coconino County</name>
        <stateAbbrev>AZ</stateAbbrev>
        <state>Arizona</state>
        <fips>005</fips>
        <incits>04005</incits>
        <id>US.AZ.005</id>
        <population>136539</population>
      </desc>
    </path>
    <path d="M 395.8845 313.8486 407.008 319.4104 411.1793 316.6295 423.6932 319.4104 432.0359 316.6295 444.5498 323.5817 457.0637 324.9721 469.5777 331.9243 482.0916 338.8765 493.2151 338.8765 493.2151 370.8566 583.5936 370.8566 583.5936 422.3028 583.5936 434.8167 562.7371 434.8167 533.5378 443.1594 529.3665 448.7211 529.3665 468.1873 512.6813 475.1394 507.1195 475.1394 495.996 483.4821 489.0438 493.2151 469.5777 461.2351 458.4542 434.8167 444.5498 409.7888 437.5976 415.3506 430.6454 415.3506 415.3506 397.2749 418.1315 393.1036 408.3984 380.5896 409.7888 370.8566 402.8367 370.8566 407.008 362.5139 405.6175 352.7809 376.4183 352.7809 383.3705 323.5817 393.1036 319.4104 395.8845 313.8486 Z" id="US.AZ.007" fill="#cee3f5" stroke="#6e6e6e" stroke-width="0.4">
      <desc>
        <name>Gila County</name>
        <stateAbbrev>AZ</stateAbbrev>
        <state>Arizona</state>
        <fips>007</fips>
        <incits>04007</incits>
        <id>US.AZ.007</id>
        <population>53053</population>
      </desc>
    </path>
    <path d="M 583.5936 422.3028 597.498 423.6932 612.7928 434.8167 632.259 418.1315 644.7729 412.5697 644.7729 482.0916 664.239 511.2908 675.3625 523.8048 679.5339 536.3187 678.1434 548.8327 690.6574 561.3466 678.1434 561.3466 590.5458 561.3466 529.3665 561.3466 529.3665 550.2231 529.3665 468.1873 529.3665 448.7211 533.5378 443.1594 562.7371 434.8167 583.5936 434.8167 583.5936 422.3028 Z" id="US.AZ.009" fill="#cee3f5" stroke="#6e6e6e" stroke-width="0.4">
      <desc>
        <name>Graham County</name>
        <stateAbbrev>AZ</stateAbbrev>
        <state>Arizona</state>
        <fips>009</fips>
        <incits>04009</incits>
        <id>US.AZ.009</id>
        <population>37482</population>
      </desc>
    </path>
    <path d="M 644.7729 412.5697 651.7251 405.6175 660.0677 404.2271 662.8486 397.2749 699 397.2749 699 494.6056 699 561.3466 690.6574 561.3466 678.1434 548.8327 679.5339 536.3187 675.3625 523.8048 664.239 511.2908 644.7729 482.0916 644.7729 412.5697 Z" id="US.AZ.011" fill="#cee3f5" stroke="#6e6e6e" stroke-width="0.4">
      <desc>
        <name>Greenlee County</name>
        <stateAbbrev>AZ</stateAbbrev>
        <state>Arizona</state>
        <fips>011</fips>
        <incits>04011</incits>
        <id>US.AZ.011</id>
        <population>9049</population>
      </desc>
    </path>
    <path d="M 83.0359 333.3147 98.3307 340.2669 117.7968 340.2669 119.1873 344.4382 131.7012 341.6574 140.0438 345.8287 149.7769 341.6574 155.3386 333.3147 176.1952 336.0956 180.3665 331.9243 180.3665 370.8566 180.3665 445.9402 105.2829 445.9402 105.2829 434.8167 67.741 434.8167 67.741 487.6534 35.761 487.6534 24.6375 489.0438 13.5139 480.7012 17.6853 472.3586 17.6853 458.4542 12.1235 457.0637 14.9044 448.7211 31.5896 427.8645 35.761 425.0837 35.761 409.7888 38.5418 408.3984 34.3705 379.1992 45.494 369.4661 49.6653 358.3426 69.1315 350 78.8645 340.2669 83.0359 333.3147 Z" id="US.AZ.012" fill="#cee3f5" stroke="#6e6e6e" stroke-width="0.4">
      <desc>
        <name>La Paz County</name>
        <stateAbbrev>AZ</stateAbbrev>
        <state>Arizona</state>
        <fips>012</fips>
        <incits>04012</incits>
        <id>US.AZ.012</id>
        <population>20324</population>
      </desc>
    </path>
    <path d="M 180.3665 370.8566 251.2789 370.8566 308.2869 384.761 313.8486 376.4183 323.5817 365.2948 376.4183 370.8566 402.8367 370.8566 409.7888 370.8566 408.3984 380.5896 418.1315 393.1036 415.3506 397.2749 430.6454 415.3506 437.5976 415.3506 444.5498 409.7888 458.4542 434.8167 393.1036 434.8167 391.7131 466.7968 331.9243 466.7968 318.0199 459.8446 316.6295 476.5299 316.6295 551.6135 272.1355 551.6135 180.3665 551.6135 180.3665 466.7968 180.3665 445.9402 180.3665 370.8566 Z" id="US.AZ.013" fill="#cee3f5" stroke="#6e6e6e" stroke-width="0.4">
      <desc>
        <name>Maricopa County</name>
        <stateAbbrev>AZ</stateAbbrev>
        <state>Arizona</state>
        <fips>013</fips>
        <incits>04013</incits>
        <id>US.AZ.013</id>
        <population>4009412</population>
      </desc>
    </path>
    <path d="M 276.3068 7.9522 277.6972 13.5139 266.5737 34.3705 263.7928 46.8845 266.5737 56.6175 262.4024 62.1793 265.1833 81.6454 259.6215 87.2072 223.4701 101.1116 219.2988 99.7211 204.004 108.0637 197.0518 109.4542 192.8805 117.7968 183.1474 116.4064 177.5857 123.3586 181.757 133.0916 183.1474 145.6056 180.3665 152.5578 180.3665 185.9283 180.3665 237.3745 180.3665 331.9243 176.1952 336.0956 155.3386 333.3147 149.7769 341.6574 140.0438 345.8287 131.7012 341.6574 119.1873 344.4382 117.7968 340.2669 98.3307 340.2669 83.0359 333.3147 58.008 316.6295 46.8845 295.7729 42.7131 284.6494 31.5896 277.6972 23.247 265.1833 21.8566 247.1076 30.1992 230.4223 27.4183 210.9562 17.6853 190.0996 20.4661 176.1952 16.2948 170.6335 13.5139 152.5578 19.0757 144.2151 10.7331 135.8725 10.7331 116.4064 30.1992 110.8446 38.5418 112.2351 53.8367 110.8446 70.5219 127.5299 80.255 126.1394 91.3785 106.6733 94.1594 105.2829 92.7689 7.9522 205.3944 7.9522 276.3068 7.9522 Z" id="US.AZ.015" fill="#cee3f5" stroke="#6e6e6e" stroke-width="0.4">
      <desc>
        <name>Mohave County</name>
        <stateAbbrev>AZ</stateAbbrev>
        <state>Arizona</state>
        <fips>015</fips>
        <incits>04015</incits>
        <id>US.AZ.015</id>
        <population>203030</population>
      </desc>
    </path>
    <path d="M 493.2151 6.5618 526.5857 7.9522 583.5936 7.9522 583.5936 77.4741 583.5936 169.243 604.4502 169.243 604.4502 187.3187 603.0598 270.745 600.2789 302.7251 603.0598 313.8486 601.6693 355.5618 601.6693 397.2749 597.498 397.2749 597.498 423.6932 583.5936 422.3028 583.5936 370.8566 493.2151 370.8566 493.2151 338.8765 493.2151 6.5618 Z" id="US.AZ.017" fill="#cee3f5" stroke="#6e6e6e" stroke-width="0.4">
      <desc>
        <name>Navajo County</name>
        <stateAbbrev>AZ</stateAbbrev>
        <state>Arizona</state>
        <fips>017</fips>
        <incits>04017</incits>
        <id>US.AZ.017</id>
        <population>107322</population>
      </desc>
    </path>
    <path d="M 180.3665 551.6135 272.1355 551.6135 316.6295 551.6135 394.494 551.6135 444.5498 551.6135 529.3665 550.2231 529.3665 561.3466 529.3665 594.7171 529.3665 644.7729 480.7012 646.1633 443.1594 646.1633 443.1594 671.1912 418.1315 671.1912 418.1315 682.3147 312.4582 648.9442 202.6135 615.5737 180.3665 608.6215 180.3665 551.6135 Z" id="US.AZ.019" fill="#cee3f5" stroke="#6e6e6e" stroke-width="0.4">
      <desc>
        <name>Pima County</name>
        <stateAbbrev>AZ</stateAbbrev>
        <state>Arizona</state>
        <fips>019</fips>
        <incits>04019</incits>
        <id>US.AZ.019</id>
        <population>996554</population>
      </desc>
    </path>
    <path d="M 458.4542 434.8167 469.5777 461.2351 489.0438 493.2151 495.996 483.4821 507.1195 475.1394 512.6813 475.1394 529.3665 468.1873 529.3665 550.2231 444.5498 551.6135 394.494 551.6135 316.6295 551.6135 316.6295 476.5299 318.0199 459.8446 331.9243 466.7968 391.7131 466.7968 393.1036 434.8167 458.4542 434.8167 Z" id="US.AZ.021" fill="#cee3f5" stroke="#6e6e6e" stroke-width="0.4">
      <desc>
        <name>Pinal County</name>
        <stateAbbrev>AZ</stateAbbrev>
        <state>Arizona</state>
        <fips>021</fips>
        <incits>04021</incits>
        <id>US.AZ.021</id>
        <population>389350</population>
      </desc>
    </path>
    <path d="M 529.3665 644.7729 527.9761 658.6773 527.9761 693.4382 454.2829 693.4382 418.1315 682.3147 418.1315 671.1912 443.1594 671.1912 443.1594 646.1633 480.7012 646.1633 529.3665 644.7729 Z" id="US.AZ.023" fill="#cee3f5" stroke="#6e6e6e" stroke-width="0.4">
      <desc>
        <name>Santa Cruz County</name>
        <stateAbbrev>AZ</stateAbbrev>
        <state>Arizona</state>
        <fips>023</fips>
        <incits>04023</incits>
        <id>US.AZ.023</id>
        <population>46768</population>
      </desc>
    </path>
    <path d="M 180.3665 331.9243 180.3665 237.3745 180.3665 185.9283 188.7092 185.9283 223.4701 202.6135 226.251 206.7849 249.8884 212.3466 263.7928 213.7371 272.1355 220.6892 284.6494 220.6892 288.8207 231.8127 301.3347 231.8127 301.3347 252.6693 365.2948 252.6693 369.4661 252.6693 369.4661 273.5259 395.8845 273.5259 395.8845 313.8486 393.1036 319.4104 383.3705 323.5817 376.4183 352.7809 405.6175 352.7809 407.008 362.5139 402.8367 370.8566 376.4183 370.8566 323.5817 365.2948 313.8486 376.4183 308.2869 384.761 251.2789 370.8566 180.3665 370.8566 180.3665 331.9243 Z" id="US.AZ.025" fill="#cee3f5" stroke="#6e6e6e" stroke-width="0.4">
      <desc>
        <name>Yavapai County</name>
        <stateAbbrev>AZ</stateAbbrev>
        <state>Arizona</state>
        <fips>025</fips>
        <incits>04025</incits>
        <id>US.AZ.025</id>
        <population>215133</population>
      </desc>
    </path>
    <path d="M 35.761 487.6534 67.741 487.6534 67.741 434.8167 105.2829 434.8167 105.2829 445.9402 180.3665 445.9402 180.3665 466.7968 180.3665 551.6135 180.3665 608.6215 91.3785 580.8127 1 553.004 1 539.0996 6.5618 534.9283 14.9044 522.4143 24.6375 525.1952 35.761 521.0239 42.7131 511.2908 44.1036 502.9482 35.761 487.6534 Z" id="US.AZ.027" fill="#cee3f5" stroke="#6e6e6e" stroke-width="0.4">
      <desc>
        <name>Yuma County</name>
        <stateAbbrev>AZ</stateAbbrev>
        <state>Arizona</state>
        <fips>027</fips>
        <incits>04027</incits>
        <id>US.AZ.027</id>
        <population>201201</population>
      </desc>
    </path>
  </g>
</svg>