<?xml version="1.0" encoding="UTF-8"?>
<svg xmlns="http://www.w3.org/2000/svg" width="700" height="700">
  <g id="cuba">
    <path d="M 154.0212 337.3279 156.2528 339.4001 153.2243 338.9219 152.9055 335.8934 154.0212 337.3279 Z M 224.953 314.8529 234.198 317.8815 228.9379 318.3597 224.953 314.8529 Z M 435.3572 285.8427 436.6323 288.2336 435.3572 286.1615 432.9662 287.4366 435.3572 285.8427 Z M 402.6807 277.7134 403.9559 279.6262 399.971 276.9164 402.6807 277.7134 Z" id="CU.5812" fill="#cee3f5" stroke="#6e6e6e" stroke-width="0.4">
      <desc>
        <labelrank>20</labelrank>
        <code_hasc>-99</code_hasc>
        <name/>
        <admin>Cuba</admin>
        <type_en/>
        <region/>
        <woe_id>-99</woe_id>
        <longitude>-77</longitude>
        <woe_name/>
        <fips/>
        <woe_label/>
        <latitude>20</latitude>
        <iso_a2>CU</iso_a2>
        <postal/>
        <type/>
        <id>CU.5812</id>
      </desc>
    </path>
    <path d="M 293.3343 281.2201 293.6531 284.5675 294.2907 284.2487 295.7253 283.4517 297.1599 283.2923 301.1448 280.2638 302.1012 293.4937 305.1297 296.6817 305.9267 297.1599 306.2455 297.3193 308.477 297.0005 309.9116 301.3042 310.7086 302.2606 312.3026 303.0575 311.665 305.2891 311.1868 306.2455 311.0274 306.8831 311.3462 311.3462 312.3026 315.0123 314.3747 317.4033 314.5341 320.7506 314.6935 321.3882 314.8529 322.0258 316.2875 323.1416 316.2875 324.098 313.8966 326.4889 312.3026 327.9235 311.5056 328.7205 311.5056 329.0393 311.3462 331.9084 300.5072 327.6047 289.0306 316.4469 292.8561 314.3747 286.799 306.7237 283.2923 308.6364 287.596 317.0845 279.7856 316.2875 278.1916 311.665 277.8728 311.5056 277.0758 311.5056 274.2067 311.9838 273.8879 311.8244 273.5691 311.3462 273.2503 311.1868 272.6127 311.1868 272.1345 311.3462 271.1781 311.3462 270.8593 311.5056 270.3811 311.9838 270.0623 311.9838 269.7435 311.8244 268.7872 311.3462 266.5556 310.3898 264.4834 309.274 263.0489 307.3613 260.3391 305.4485 258.4264 302.5794 258.267 302.2606 258.267 301.623 258.267 300.9854 258.4264 300.5072 258.9045 298.9132 258.5858 297.9568 258.5858 297.4786 259.3827 296.3629 259.3827 296.0441 259.3827 295.7253 258.9045 295.5659 258.7451 295.5659 257.9482 295.8847 257.6294 295.8847 257.47 295.8847 257.47 295.7253 258.4264 291.2622 258.9045 290.784 259.5421 290.1464 260.0203 289.8276 260.1797 289.6682 260.9767 288.8712 264.1646 286.9584 264.6428 286.799 265.4398 286.9584 268.6278 287.7554 270.5405 287.596 276.4382 288.2336 277.0758 288.393 277.3946 288.5524 277.8728 288.5524 280.9013 287.4366 281.5389 286.6396 283.1329 283.6111 287.1178 281.2201 288.0742 280.1044 288.2336 279.945 288.5524 279.6262 289.0306 279.7856 289.3494 279.7856 290.9434 281.0607 292.5373 280.742 293.3343 281.2201 Z" id="CU.CF" fill="#cee3f5" stroke="#6e6e6e" stroke-width="0.4">
      <desc>
        <labelrank>7</labelrank>
        <code_hasc>CU.CF</code_hasc>
        <name>Cienfuegos</name>
        <admin>Cuba</admin>
        <type_en>Province</type_en>
        <region/>
        <woe_id>2345112</woe_id>
        <longitude>-80</longitude>
        <woe_name>Cienfuegos</woe_name>
        <fips>CU08</fips>
        <woe_label>Cienfuegos, CU, Cuba</woe_label>
        <latitude>22</latitude>
        <iso_a2>CU</iso_a2>
        <postal>CF</postal>
        <type>Provincia</type>
        <id>CU.CF</id>
      </desc>
    </path>
    <path d="M 198.0148 344.6602 194.9863 346.2542 193.8705 344.3414 200.087 342.7474 198.0148 344.6602 Z M 227.0251 342.7474 217.9395 347.2106 230.0537 339.5595 227.0251 342.7474 Z M 134.8936 323.7792 145.5732 327.6047 145.4138 331.4302 151.7897 337.4873 150.1957 342.4286 154.9776 347.2106 136.0094 357.412 121.026 355.818 113.2156 344.3414 120.229 349.9203 127.7207 346.7324 128.1989 349.2827 128.9959 346.4136 121.026 335.5746 121.026 329.8363 128.5177 324.4168 126.6049 322.6634 134.8936 323.7792 Z" id="CU.IJ" fill="#cee3f5" stroke="#6e6e6e" stroke-width="0.4">
      <desc>
        <labelrank>6</labelrank>
        <code_hasc>CU.IJ</code_hasc>
        <name>Isla de la Juventud</name>
        <admin>Cuba</admin>
        <type_en>Special Municipality</type_en>
        <region/>
        <woe_id>2345109</woe_id>
        <longitude>-82</longitude>
        <woe_name>Isla de la Juventud</woe_name>
        <fips>CU04</fips>
        <woe_label>Isla de la Juventud, CU, Cuba</woe_label>
        <latitude>21</latitude>
        <iso_a2>CU</iso_a2>
        <postal>IJ</postal>
        <type>Municipio Especial</type>
        <id>CU.IJ</id>
      </desc>
    </path>
    <path d="M 130.4305 251.7317 132.0244 261.6143 128.0395 263.8459 137.6033 277.3946 122.62 285.5239 115.6065 295.7253 109.7088 295.4065 99.5074 306.0861 93.1315 305.7673 89.4654 301.7824 83.2489 306.7237 66.9904 306.4049 61.8897 314.2153 64.5995 315.8093 59.9769 323.6198 54.0792 321.707 46.4282 323.9386 29.0539 333.5024 30.0103 322.0258 19.4901 323.301 7.8541 329.0393 1 326.3295 2.1158 322.6634 5.6225 324.4168 7.5353 321.0694 9.1293 323.1416 28.5757 314.0559 43.559 316.2875 44.5154 312.6214 42.2839 315.1717 40.6899 308.7958 33.6764 303.5357 42.9214 285.2051 47.8628 283.2923 49.1379 277.8728 53.4417 278.8292 57.9048 272.2939 60.1363 272.9315 59.3393 269.106 63.9619 271.0187 71.1347 266.715 85.1617 263.8459 92.6533 258.4264 96.1601 259.7015 98.8698 256.8324 101.739 258.5858 112.4186 250.2971 115.4471 251.4129 116.0847 255.2384 116.5629 251.8911 123.417 249.0219 130.4305 251.7317 Z" id="CU.PR" fill="#cee3f5" stroke="#6e6e6e" stroke-width="0.4">
      <desc>
        <labelrank>7</labelrank>
        <code_hasc>CU.PR</code_hasc>
        <name>Pinar del Río</name>
        <admin>Cuba</admin>
        <type_en>Province</type_en>
        <region/>
        <woe_id>2345106</woe_id>
        <longitude>-83</longitude>
        <woe_name>Pinar del Río</woe_name>
        <fips>CU01</fips>
        <woe_label>Pinar del Rio, CU, Cuba</woe_label>
        <latitude>22</latitude>
        <iso_a2>CU</iso_a2>
        <postal>PR</postal>
        <type>Provincia</type>
        <id>CU.PR</id>
      </desc>
    </path>
    <path d="M 385.9441 291.7404 378.6118 311.1868 384.1907 318.9973 379.2494 323.4604 374.1487 336.3715 375.5832 343.0662 380.8433 338.7625 383.8719 340.3565 384.6689 346.573 366.1788 350.0797 351.8331 346.8918 348.9639 343.7038 347.5293 345.4572 340.1971 340.8347 329.6769 339.5595 327.4453 341.6317 324.5762 340.5159 324.5762 336.2121 317.0845 336.6903 317.7221 338.9219 313.5778 332.3866 311.3462 331.9084 311.5056 329.0393 311.5056 328.7205 312.3026 327.9235 313.8966 326.4889 316.2875 324.098 323.301 319.1567 332.7054 319.6348 335.4152 313.259 332.546 306.4049 346.8918 309.274 352.6301 302.8982 358.5277 303.5357 358.8465 299.0726 353.5864 290.9434 354.7022 287.1178 366.1788 293.4937 385.9441 291.7404 Z" id="CU.SS" fill="#cee3f5" stroke="#6e6e6e" stroke-width="0.4">
      <desc>
        <labelrank>7</labelrank>
        <code_hasc>CU.SS</code_hasc>
        <name>Sancti Spíritus</name>
        <admin>Cuba</admin>
        <type_en>Province</type_en>
        <region/>
        <woe_id>2345118</woe_id>
        <longitude>-79</longitude>
        <woe_name>Sancti Spíritus</woe_name>
        <fips>CU14</fips>
        <woe_label>Sancti Spiritus, CU, Cuba</woe_label>
        <latitude>21</latitude>
        <iso_a2>CU</iso_a2>
        <postal>SS</postal>
        <type>Provincia</type>
        <id>CU.SS</id>
      </desc>
    </path>
    <path d="M 387.538 399.971 392.6387 403.1589 384.9877 400.4492 387.538 399.971 Z M 383.8719 398.377 377.496 394.8703 384.5095 396.4643 383.8719 398.377 Z M 370.8013 387.3786 377.0178 394.8703 368.0916 387.538 370.8013 387.3786 Z M 361.0781 380.2058 363.6285 382.9155 357.412 379.5682 361.0781 380.2058 Z M 385.9441 291.7404 395.3485 292.2185 398.377 297.3193 398.0582 292.2185 399.971 292.3779 440.2985 312.6214 440.6173 315.9687 429.6189 323.6198 435.9947 330.7926 434.2414 334.14 430.5752 334.7776 426.7497 330.952 423.5618 341.1535 418.6205 341.3129 416.7077 345.776 405.0717 350.8767 398.377 348.6451 402.0432 347.2106 397.4206 343.7038 384.6689 346.573 383.8719 340.3565 380.8433 338.7625 375.5832 343.0662 374.1487 336.3715 379.2494 323.4604 384.1907 318.9973 378.6118 311.1868 385.9441 291.7404 Z M 422.6054 281.2201 427.2279 288.393 417.6641 289.987 418.7799 286.4802 412.0852 287.7554 403.1589 282.4953 400.768 284.0893 400.6086 281.6983 422.6054 281.2201 Z" id="CU.CA" fill="#cee3f5" stroke="#6e6e6e" stroke-width="0.4">
      <desc>
        <labelrank>7</labelrank>
        <code_hasc>CU.CA</code_hasc>
        <name>Ciego de Ávila</name>
        <admin>Cuba</admin>
        <type_en>Province</type_en>
        <region/>
        <woe_id>2345111</woe_id>
        <longitude>-78</longitude>
        <woe_name>Ciego de Ávila</woe_name>
        <fips>CU05</fips>
        <woe_label>Ciego de Avila, CU, Cuba</woe_label>
        <latitude>21</latitude>
        <iso_a2>CU</iso_a2>
        <postal>CA</postal>
        <type>Provincia</type>
        <id>CU.CA</id>
      </desc>
    </path>
    <path d="M 422.7648 417.1859 425.3151 416.8671 426.4309 420.055 417.6641 414.6355 422.7648 417.1859 Z M 416.5483 405.8687 419.258 406.0281 412.2446 407.6221 416.5483 405.8687 Z M 405.0717 350.8767 416.7077 345.776 418.6205 341.3129 423.5618 341.1535 426.7497 330.952 430.5752 334.7776 434.2414 334.14 435.9947 330.7926 429.6189 323.6198 440.6173 315.9687 440.2985 312.6214 453.0502 326.9671 454.6442 320.2724 458.1509 320.2724 455.6006 324.098 461.8171 331.2708 476.4816 334.4588 480.9447 332.7054 482.6981 340.8347 488.7552 341.3129 481.2635 330.952 470.5839 325.5325 473.2937 322.3446 484.2921 331.749 501.6664 339.8783 500.5506 347.5293 493.3777 343.5444 487.0018 343.8632 494.1747 346.7324 494.0153 353.1082 500.2318 352.6301 504.6949 343.8632 514.2587 353.9052 504.3761 356.9338 503.4197 360.1217 502.4633 361.5563 502.4633 362.3533 502.7821 363.4691 503.1009 363.7879 503.4197 363.9472 505.8107 363.9472 506.2889 363.9472 506.2889 364.266 506.2889 364.4254 502.6227 367.9322 502.7821 373.6705 492.7401 386.1034 488.5958 387.2192 483.1763 380.8433 473.7719 390.5666 469.7869 388.6538 469.1493 393.4357 462.2953 395.0297 459.1073 399.8116 458.3103 405.3905 443.1676 406.6657 415.1137 384.0313 412.0852 371.4389 414.6355 368.7292 411.607 366.9758 405.0717 350.8767 Z M 452.7314 312.7808 456.8758 311.0274 467.8742 312.7808 469.1493 321.3882 465.3238 321.2288 464.5268 323.7792 457.0352 318.9973 457.354 315.8093 451.9345 316.9251 448.7465 311.0274 452.7314 312.7808 Z M 446.1962 301.9418 453.8472 302.42 451.6157 304.8109 456.557 307.0425 454.3254 311.1868 443.1676 305.6079 445.0804 300.9854 445.0804 298.435 444.124 296.5223 446.8338 297.638 446.1962 301.9418 Z M 432.488 288.393 437.5887 289.8276 440.9361 296.8411 442.3706 298.435 444.6022 298.9132 443.6458 299.8696 434.4008 297.0005 432.1692 293.1749 430.0971 295.4065 429.4595 290.9434 425.1557 290.784 432.488 288.393 Z" id="CU.CM" fill="#cee3f5" stroke="#6e6e6e" stroke-width="0.4">
      <desc>
        <labelrank>7</labelrank>
        <code_hasc>CU.CM</code_hasc>
        <name>Camagüey</name>
        <admin>Cuba</admin>
        <type_en>Province</type_en>
        <region/>
        <woe_id>2345110</woe_id>
        <longitude>-77</longitude>
        <woe_name>Camagüey</woe_name>
        <fips>CU05</fips>
        <woe_label>Camaguey, CU, Cuba</woe_label>
        <latitude>21</latitude>
        <iso_a2>CU</iso_a2>
        <postal>CM</postal>
        <type>Provincia</type>
        <id>CU.CM</id>
      </desc>
    </path>
    <path d="M 618.5045 459.1073 611.1722 446.9931 614.9977 443.9646 611.1722 427.8655 617.7075 421.9678 620.2578 420.6926 623.2864 422.9242 626.6337 423.4024 627.1119 422.2866 627.2713 420.2144 627.4307 419.8956 628.2277 419.0987 634.763 417.0265 638.9073 420.3738 642.8922 421.649 643.5298 421.649 643.5298 421.3302 643.5298 421.1708 643.5298 421.0114 643.211 420.5332 643.0516 420.2144 642.5734 419.8956 642.0952 419.8956 641.7764 418.1423 641.9358 417.9829 642.2546 417.8235 644.008 417.5047 652.6154 421.8084 653.5718 420.2144 656.1222 418.9393 656.6004 413.3604 660.2665 411.1288 681.9445 428.9813 692.7835 426.2715 699 433.9226 690.7113 443.6458 655.1658 447.1525 646.7177 451.6157 644.805 455.4412 637.4727 457.5134 636.9945 452.2533 634.2848 452.4127 637.6321 448.5871 635.7193 446.515 628.2277 457.5134 618.5045 459.1073 Z" id="CU.GU" fill="#cee3f5" stroke="#6e6e6e" stroke-width="0.4">
      <desc>
        <labelrank>7</labelrank>
        <code_hasc>CU.GU</code_hasc>
        <name>Guantánamo</name>
        <admin>Cuba</admin>
        <type_en>Province</type_en>
        <region/>
        <woe_id>2345114</woe_id>
        <longitude>-74</longitude>
        <woe_name>Guantánamo</woe_name>
        <fips>CU10</fips>
        <woe_label>Guantanamo, CU, Cuba</woe_label>
        <latitude>20</latitude>
        <iso_a2>CU</iso_a2>
        <postal>GU</postal>
        <type>Provincia</type>
        <id>CU.GU</id>
      </desc>
    </path>
    <path d="M 529.8797 403.9559 530.1984 404.4341 530.5172 404.7529 530.9954 405.0717 536.0961 406.5063 539.7623 405.5499 540.2405 406.6657 540.2405 407.1439 540.5593 409.5348 551.2389 413.3604 551.5577 413.3604 551.7171 413.3604 552.0359 413.0416 552.6734 413.0416 552.8328 415.4325 561.2809 417.6641 565.5846 422.6054 562.5561 425.6339 559.6869 421.1708 558.4117 427.3873 553.7892 427.7061 550.4419 437.2699 551.3983 445.8774 548.0509 449.7029 541.8344 450.3405 541.5156 453.0502 526.0541 451.1375 517.9249 453.6878 510.1144 458.3103 511.0708 461.8171 498.6378 460.5419 469.7869 466.7584 465.4832 465.005 475.844 450.6593 475.047 448.7465 479.1914 448.2683 497.3626 433.7632 500.0724 434.7196 505.1731 428.9813 507.0859 422.2866 502.6227 417.3453 496.7251 415.7513 499.4348 410.6506 490.1898 405.3905 496.4063 400.6086 508.8392 403.3183 522.5474 402.6807 526.0541 406.1875 529.8797 403.9559 Z" id="CU.GR" fill="#cee3f5" stroke="#6e6e6e" stroke-width="0.4">
      <desc>
        <labelrank>6</labelrank>
        <code_hasc>CU.GR</code_hasc>
        <name>Granma</name>
        <admin>Cuba</admin>
        <type_en>Province</type_en>
        <region/>
        <woe_id>2345113</woe_id>
        <longitude>-76</longitude>
        <woe_name>Granma</woe_name>
        <fips>CU09</fips>
        <woe_label>Granma, CU, Cuba</woe_label>
        <latitude>20</latitude>
        <iso_a2>CU</iso_a2>
        <postal>GR</postal>
        <type>Provincia</type>
        <id>CU.GR</id>
      </desc>
    </path>
    <path d="M 609.897 399.6522 605.5933 399.8116 603.6805 397.2612 607.6654 396.6237 609.897 399.6522 Z M 660.2665 411.1288 656.6004 413.3604 655.4846 415.9107 655.4846 417.1859 656.1222 418.9393 652.6154 421.8084 644.008 417.5047 642.2546 417.8235 641.9358 417.9829 641.7764 418.1423 642.0952 418.6205 642.0952 418.9393 642.0952 419.8956 642.5734 419.8956 643.0516 420.2144 643.211 420.5332 643.5298 421.0114 643.5298 421.1708 643.5298 421.3302 643.5298 421.649 642.8922 421.649 638.9073 420.3738 634.763 417.0265 628.2277 419.0987 627.4307 419.8956 627.2713 420.2144 627.1119 422.2866 626.6337 423.4024 625.1991 422.2866 623.2864 422.9242 620.2578 420.6926 617.7075 421.9678 615.9541 419.7362 614.9977 418.7799 614.5195 418.3017 614.3601 417.9829 615.4759 416.5483 616.2729 416.0701 616.2729 413.3604 615.7947 413.6792 615.4759 413.8385 611.491 414.4761 608.9406 413.3604 607.3467 414.1573 605.9121 415.9107 604.9557 416.7077 604.4775 417.0265 604.1587 417.0265 603.3617 416.7077 602.8835 416.5483 602.4053 416.2295 602.2459 416.3889 602.0865 416.7077 601.9272 417.1859 602.0865 419.258 599.3768 421.1708 596.5077 421.649 594.4355 421.3302 593.7979 421.4896 586.625 423.8806 584.7123 421.4896 583.5965 421.3302 581.6837 420.055 581.2055 419.5768 581.0461 419.4174 581.3649 417.8235 578.4958 417.5047 578.3364 417.1859 578.6552 416.5483 578.0176 415.4325 573.8733 412.8822 573.7139 413.0416 573.5545 413.5198 573.8733 413.9979 574.3515 415.1137 574.3515 415.5919 574.1921 415.9107 572.7575 416.7077 571.9605 417.5047 571.0041 418.1423 570.8447 418.3017 570.8447 418.6205 571.3229 418.7799 571.8011 420.5332 571.8011 422.1272 571.3229 423.5618 570.0477 424.9963 569.8883 424.5182 570.3665 423.4024 570.3665 423.0836 570.3665 422.9242 567.6568 422.446 565.5846 422.6054 561.2809 417.6641 552.8328 415.4325 552.6734 413.0416 552.0359 413.0416 551.7171 413.3604 551.5577 413.3604 551.2389 413.3604 540.5593 409.5348 540.2405 409.216 540.2405 407.1439 540.2405 406.6657 539.7623 405.5499 536.0961 406.5063 532.9082 404.5935 531.4736 405.2311 530.9954 405.0717 530.1984 404.4341 529.8797 403.9559 531.4736 402.5214 529.8797 400.2898 529.8797 399.6522 529.8797 398.8552 532.5894 386.9004 542.472 385.9441 553.9486 374.9456 553.7892 372.8735 555.0644 370.8013 555.2238 366.9758 555.2238 366.8164 566.7004 372.3953 567.6568 376.699 575.3078 378.7712 580.5679 375.4238 584.0747 377.1772 587.2626 373.8299 600.8114 378.4524 603.2023 381.7997 599.855 388.8132 596.8264 390.4072 594.1167 388.1756 592.8415 390.5666 594.2761 392.9575 600.4926 391.2042 605.4339 394.8703 603.9993 396.6237 600.1738 393.5951 591.2475 394.3921 590.61 400.6086 594.4355 403.9559 600.1738 397.8988 605.7527 404.2747 612.4474 403.6371 610.5346 401.7244 612.7662 400.1304 621.2142 405.0717 624.8803 404.5935 619.939 402.5214 622.33 401.0868 634.6036 404.7529 641.4576 401.8838 657.7161 406.8251 660.2665 411.1288 Z" id="CU.HO" fill="#cee3f5" stroke="#6e6e6e" stroke-width="0.4">
      <desc>
        <labelrank>7</labelrank>
        <code_hasc>CU.HO</code_hasc>
        <name>Holguín</name>
        <admin>Cuba</admin>
        <type_en>Province</type_en>
        <region/>
        <woe_id>2345116</woe_id>
        <longitude>-76</longitude>
        <woe_name>Holguín</woe_name>
        <fips>CU12</fips>
        <woe_label>Holguin, CU, Cuba</woe_label>
        <latitude>20</latitude>
        <iso_a2>CU</iso_a2>
        <postal>HO</postal>
        <type>Provincia</type>
        <id>CU.HO</id>
      </desc>
    </path>
    <path d="M 529.8797 403.9559 526.0541 406.1875 522.5474 402.6807 508.8392 403.3183 496.4063 400.6086 490.1898 405.3905 472.0185 408.419 458.3103 405.3905 459.1073 399.8116 462.2953 395.0297 469.1493 393.4357 469.7869 388.6538 473.7719 390.5666 483.1763 380.8433 488.5958 387.2192 492.7401 386.1034 502.7821 373.6705 502.6227 367.9322 506.2889 364.4254 506.2889 364.266 506.2889 363.9472 505.8107 363.9472 503.4197 363.9472 503.1009 363.7879 502.7821 363.4691 502.4633 362.3533 502.4633 361.5563 503.4197 360.1217 504.3761 356.9338 514.2587 353.9052 522.8662 357.7308 517.4467 361.3969 518.2437 364.1066 521.9098 363.4691 523.3444 358.209 531.9518 360.2811 534.3428 362.6721 528.1263 365.2224 535.9367 367.7728 533.227 364.5848 540.2405 364.7442 539.4435 368.5698 536.0961 369.2074 541.0375 371.9171 546.1382 368.8886 541.3562 367.1352 542.7908 364.7442 550.4419 364.7442 552.0359 365.2224 552.9922 365.86 555.0644 366.657 555.2238 366.8164 555.0644 370.8013 553.9486 374.9456 542.472 385.9441 532.5894 386.9004 531.9518 395.0297 530.1984 398.2176 529.8797 398.8552 529.8797 399.6522 529.8797 403.9559 Z" id="CU.LT" fill="#cee3f5" stroke="#6e6e6e" stroke-width="0.4">
      <desc>
        <labelrank>7</labelrank>
        <code_hasc>CU.LT</code_hasc>
        <name>Las Tunas</name>
        <admin>Cuba</admin>
        <type_en>Province</type_en>
        <region/>
        <woe_id>2345117</woe_id>
        <longitude>-77</longitude>
        <woe_name>Las Tunas</woe_name>
        <fips>CU13</fips>
        <woe_label>Las Tunas, CU, Cuba</woe_label>
        <latitude>21</latitude>
        <iso_a2>CU</iso_a2>
        <postal>LT</postal>
        <type>Provincia</type>
        <id>CU.LT</id>
      </desc>
    </path>
    <path d="M 617.7075 421.9678 611.1722 427.8655 614.9977 443.9646 611.1722 446.9931 618.5045 459.1073 603.9993 458.9479 596.3483 454.6442 564.947 453.2096 521.9098 458.1509 511.0708 461.8171 510.1144 458.3103 517.9249 453.6878 526.0541 451.1375 541.5156 453.0502 541.8344 450.3405 548.0509 449.7029 551.3983 445.8774 550.4419 437.2699 553.7892 427.7061 558.4117 427.3873 559.6869 421.1708 562.5561 425.6339 565.5846 422.6054 567.6568 422.446 569.7289 423.0836 570.3665 422.9242 570.3665 423.4024 569.8883 424.5182 570.0477 424.9963 571.3229 423.7212 571.3229 423.5618 571.8011 422.1272 571.8011 420.5332 571.4823 419.4174 571.3229 418.7799 570.8447 418.6205 570.8447 418.3017 571.0041 418.1423 571.9605 417.5047 572.7575 416.7077 574.1921 415.9107 574.3515 415.5919 574.3515 415.1137 573.8733 413.9979 573.5545 413.5198 573.7139 413.0416 573.8733 412.8822 578.0176 415.4325 578.6552 416.5483 578.4958 417.5047 581.3649 417.8235 581.5243 418.4611 581.2055 419.5768 581.6837 420.055 583.5965 421.3302 584.7123 421.4896 586.625 423.8806 593.7979 421.4896 594.4355 421.3302 596.5077 421.649 599.3768 421.1708 602.0865 419.258 602.2459 416.3889 602.4053 416.2295 602.8835 416.5483 603.3617 416.7077 604.1587 417.0265 604.4775 417.0265 604.9557 416.7077 605.9121 415.9107 607.3467 414.1573 608.9406 413.3604 611.491 414.4761 615.4759 413.8385 615.7947 413.6792 616.2729 413.3604 616.5917 413.9979 616.2729 416.0701 615.4759 416.5483 614.9977 417.6641 614.6789 417.8235 614.3601 417.9829 614.5195 418.3017 614.9977 418.7799 617.7075 421.9678 Z" id="CU.SC" fill="#cee3f5" stroke="#6e6e6e" stroke-width="0.4">
      <desc>
        <labelrank>7</labelrank>
        <code_hasc>CU.SC</code_hasc>
        <name>Santiago de Cuba</name>
        <admin>Cuba</admin>
        <type_en>Province</type_en>
        <region/>
        <woe_id>2345119</woe_id>
        <longitude>-76</longitude>
        <woe_name>Santiago de Cuba</woe_name>
        <fips>CU15</fips>
        <woe_label>Santiago de Cuba, CU, Cuba</woe_label>
        <latitude>20</latitude>
        <iso_a2>CU</iso_a2>
        <postal>SC</postal>
        <type>Provincia</type>
        <id>CU.SC</id>
      </desc>
    </path>
    <path d="M 184.1473 238.3423 185.5819 241.6897 183.3503 246.4716 180.003 243.443 176.9744 244.7182 177.4526 249.1813 174.4241 253.0069 162.6287 253.9632 161.9911 251.5723 161.9911 251.4129 161.6723 251.2535 161.3535 251.4129 159.1219 250.2971 158.6438 249.9783 158.4844 249.6595 158.4844 249.5001 159.7595 248.5437 160.2377 247.7467 160.2377 247.1092 159.6001 246.1528 157.528 246.7904 156.4122 246.3122 156.2528 245.834 156.5716 245.6746 158.0062 245.1964 164.5414 240.8927 170.1203 239.2987 184.1473 238.3423 Z" id="CU.CH" fill="#cee3f5" stroke="#6e6e6e" stroke-width="0.4">
      <desc>
        <labelrank>9</labelrank>
        <code_hasc>CU.CH</code_hasc>
        <name>Ciudad de la Habana</name>
        <admin>Cuba</admin>
        <type_en>Province</type_en>
        <region/>
        <woe_id>2345107</woe_id>
        <longitude>-82</longitude>
        <woe_name>Ciudad de la Habana</woe_name>
        <fips>CU02</fips>
        <woe_label>Ciudad de la Habana, CU, Cuba</woe_label>
        <latitude>23</latitude>
        <iso_a2>CU</iso_a2>
        <postal>CH</postal>
        <type>Provincia</type>
        <id>CU.CH</id>
      </desc>
    </path>
    <path d="M 137.6033 277.3946 128.0395 263.8459 132.0244 261.6143 130.4305 251.7317 132.0244 248.3843 156.2528 245.834 156.4122 246.3122 157.528 246.7904 159.6001 246.1528 160.2377 247.1092 160.2377 247.7467 159.7595 248.5437 158.4844 249.5001 158.4844 249.6595 158.6438 249.9783 159.1219 250.2971 161.3535 251.4129 161.6723 251.2535 161.9911 251.4129 161.9911 251.5723 162.6287 253.9632 162.4693 256.3542 162.4693 258.1076 161.1941 264.6428 162.4693 267.1932 163.7445 269.106 165.3384 270.0623 165.3384 272.4533 149.8769 272.7721 141.9071 271.0187 137.6033 277.3946 Z" id="CU.AR" fill="#cee3f5" stroke="#6e6e6e" stroke-width="0.4">
      <desc>
        <labelrank>7</labelrank>
        <code_hasc>CU.AR</code_hasc>
        <name>Artemisa</name>
        <admin>Cuba</admin>
        <type_en>Province</type_en>
        <region/>
        <woe_id>-2345115</woe_id>
        <longitude>-82</longitude>
        <woe_name/>
        <fips>CU17</fips>
        <woe_label/>
        <latitude>22</latitude>
        <iso_a2>CU</iso_a2>
        <postal>AR</postal>
        <type>Provincia</type>
        <id>CU.AR</id>
      </desc>
    </path>
    <path d="M 263.6865 239.2987 266.2368 240.8927 255.5572 243.9212 263.6865 239.2987 Z M 283.9299 238.1829 287.4366 238.5017 280.4232 239.1393 283.9299 238.1829 Z M 279.6262 246.7904 277.2352 253.1662 271.1781 253.485 269.7435 259.7015 275.0037 265.4398 280.2638 264.1646 282.4953 269.2654 281.6983 276.9164 284.4081 282.8141 283.1329 283.6111 282.9735 283.9299 280.9013 287.4366 277.8728 288.5524 277.3946 288.5524 277.0758 288.393 276.4382 288.2336 270.5405 287.596 268.6278 287.7554 265.4398 286.9584 264.6428 286.799 264.1646 286.9584 260.9767 288.8712 260.1797 289.6682 260.0203 289.8276 259.5421 290.1464 258.4264 291.2622 259.2233 292.0591 258.5858 293.6531 257.6294 295.4065 257.47 295.7253 257.47 295.8847 257.6294 295.8847 257.9482 295.8847 258.7451 295.5659 258.9045 295.5659 259.3827 295.7253 259.3827 296.0441 259.3827 296.3629 258.5858 297.4786 258.5858 297.9568 258.267 301.623 258.267 302.2606 258.4264 302.5794 258.7451 302.8982 260.3391 302.8982 260.3391 305.4485 263.0489 307.3613 264.4834 309.274 266.5556 310.3898 268.7872 311.3462 269.7435 311.8244 270.0623 311.9838 270.3811 311.9838 270.8593 311.5056 271.1781 311.3462 272.1345 311.3462 272.6127 311.1868 273.2503 311.1868 273.5691 311.3462 273.8879 311.8244 274.2067 311.9838 277.0758 311.5056 277.8728 311.5056 278.1916 311.665 279.7856 316.2875 259.8609 316.9251 248.2249 314.2153 241.3709 300.6666 240.7333 315.8093 238.5017 309.5928 232.2852 313.8966 228.4597 308.3177 220.3304 305.9267 202.1592 307.3613 197.696 301.9418 179.5248 292.5373 182.5533 290.1464 200.2464 290.3058 212.3606 286.4802 215.7079 271.6563 214.7515 270.6999 212.3606 269.2654 212.0418 268.6278 212.0418 267.512 212.6794 265.2804 212.52 264.9616 211.5636 264.324 210.6072 263.5271 209.6508 261.6143 210.4478 259.0639 210.6072 257.1512 210.7666 256.8324 210.6072 256.3542 210.6072 256.0354 208.3757 253.1662 206.4629 252.2099 209.1726 246.7904 209.8102 246.4716 210.4478 246.9498 210.6072 246.9498 210.4478 240.5739 219.8522 242.4866 220.3304 248.2249 223.359 244.5588 244.3994 236.9077 235.6326 242.9648 244.3994 249.0219 251.2535 243.9212 256.3542 247.428 275.1631 245.3558 278.5104 240.5739 279.6262 246.7904 Z M 259.3827 233.2416 261.9331 234.995 257.47 233.8792 259.3827 233.2416 Z" id="CU.MA" fill="#cee3f5" stroke="#6e6e6e" stroke-width="0.4">
      <desc>
        <labelrank>7</labelrank>
        <code_hasc>CU.MA</code_hasc>
        <name>Matanzas</name>
        <admin>Cuba</admin>
        <type_en>Province</type_en>
        <region/>
        <woe_id>2345108</woe_id>
        <longitude>-81</longitude>
        <woe_name>Matanzas</woe_name>
        <fips>CU03</fips>
        <woe_label>Matanzas, CU, Cuba</woe_label>
        <latitude>22</latitude>
        <iso_a2>CU</iso_a2>
        <postal>MA</postal>
        <type>Provincia</type>
        <id>CU.MA</id>
      </desc>
    </path>
    <path d="M 344.8196 264.4834 360.2811 277.0758 344.6602 265.5992 340.6753 265.918 344.8196 264.4834 Z M 337.6467 260.6579 337.3279 262.4113 334.4588 260.3391 334.6182 257.6294 337.6467 260.6579 Z M 322.9822 253.485 324.4168 254.9196 320.5912 256.1948 322.9822 253.485 Z M 327.7641 257.1512 325.5325 254.7602 327.6047 253.3256 327.7641 257.1512 Z M 301.3042 252.2099 302.5794 254.1226 295.2471 252.2099 301.3042 252.2099 Z M 354.7022 287.1178 353.5864 290.9434 358.8465 299.0726 358.5277 303.5357 352.6301 302.8982 346.8918 309.274 332.546 306.4049 335.4152 313.259 332.7054 319.6348 323.301 319.1567 316.2875 324.098 316.2875 323.1416 314.8529 322.0258 314.6935 321.3882 314.5341 317.8815 314.3747 317.4033 311.3462 311.3462 311.1868 306.2455 311.665 305.2891 312.3026 303.0575 310.7086 302.2606 309.9116 301.3042 308.477 297.0005 306.2455 297.3193 305.9267 297.1599 305.1297 296.6817 302.1012 293.4937 301.1448 280.2638 298.1162 280.9013 297.1599 283.2923 295.7253 283.4517 294.2907 284.2487 293.6531 284.5675 292.8561 284.0893 293.3343 282.3359 293.3343 281.2201 293.0155 280.9013 289.0306 279.7856 288.5524 279.6262 288.2336 279.945 288.0742 280.1044 287.1178 281.2201 284.4081 282.8141 281.6983 276.9164 282.4953 269.2654 280.2638 264.1646 275.0037 265.4398 269.7435 259.7015 271.1781 253.485 277.2352 253.1662 279.6262 246.7904 283.2923 251.8911 299.5508 257.3106 307.9989 253.8038 312.9402 255.876 314.3747 254.1226 322.6634 261.6143 330.4739 258.1076 326.6483 259.8609 326.4889 263.5271 336.5309 268.4684 339.5595 267.6714 341.1535 274.5255 354.7022 287.1178 Z M 313.259 247.2686 313.7372 249.5001 311.3462 247.9061 313.259 247.2686 Z M 308.1583 246.1528 303.0575 244.5588 304.8109 242.8054 308.1583 246.1528 Z" id="CU.VC" fill="#cee3f5" stroke="#6e6e6e" stroke-width="0.4">
      <desc>
        <labelrank>6</labelrank>
        <code_hasc>CU.VC</code_hasc>
        <name>Villa Clara</name>
        <admin>Cuba</admin>
        <type_en>Province</type_en>
        <region/>
        <woe_id>2345120</woe_id>
        <longitude>-79</longitude>
        <woe_name>Villa Clara</woe_name>
        <fips>CU16</fips>
        <woe_label>Villa Clara, CU, Cuba</woe_label>
        <latitude>22</latitude>
        <iso_a2>CU</iso_a2>
        <postal>VC</postal>
        <type>Provincia</type>
        <id>CU.VC</id>
      </desc>
    </path>
    <path d="M 162.6287 253.9632 174.4241 253.0069 177.4526 249.1813 176.9744 244.7182 180.003 243.443 183.3503 246.4716 185.5819 241.6897 184.1473 238.3423 210.4478 240.5739 210.6072 246.9498 210.4478 246.9498 209.8102 246.4716 209.1726 246.7904 206.4629 252.2099 208.3757 253.1662 210.6072 256.0354 210.6072 256.3542 210.7666 256.8324 210.6072 257.1512 210.4478 259.0639 209.6508 261.6143 210.6072 263.5271 211.5636 264.324 212.52 264.9616 212.6794 265.2804 212.6794 265.7586 212.0418 267.512 212.0418 268.6278 212.3606 269.2654 214.7515 270.6999 215.7079 271.6563 212.3606 280.4232 198.0148 273.2503 183.8285 274.8443 165.3384 272.4533 165.4978 271.0187 165.3384 270.0623 163.7445 269.106 162.4693 267.1932 161.1941 264.6428 161.1941 262.0925 162.4693 258.1076 162.6287 253.9632 Z" id="CU.MQ" fill="#cee3f5" stroke="#6e6e6e" stroke-width="0.4">
      <desc>
        <labelrank>7</labelrank>
        <code_hasc>CU.MQ</code_hasc>
        <name>Mayabeque</name>
        <admin>Cuba</admin>
        <type_en>Province</type_en>
        <region/>
        <woe_id>-2345115</woe_id>
        <longitude>-82</longitude>
        <woe_name/>
        <fips>CU18</fips>
        <woe_label/>
        <latitude>22</latitude>
        <iso_a2>CU</iso_a2>
        <postal>MQ</postal>
        <type>Provincia</type>
        <id>CU.MQ</id>
      </desc>
    </path>
  </g>
</svg>