<?xml version="1.0" encoding="UTF-8"?>
<svg xmlns="http://www.w3.org/2000/svg" width="700" height="700">
  <g id="benin">
    <path d="M 397.3259 410.5519 397.2813 410.5514 337.9994 409.8505 338.9596 405.8712 338.2995 405.1843 337.9577 404.9736 337.262 404.6833 326.0475 401.5218 323.8048 400.4399 322.7795 399.781 321.8936 399.0612 321.1299 398.225 320.4476 397.3219 320.032 396.5158 319.6689 395.5785 319.1703 393.2553 319.0185 391.423 319.2769 385.8436 319.5065 384.5753 319.5065 384.5578 320.0909 380.6974 320.7998 377.9835 321.7453 375.6641 321.9035 375.0257 321.9403 374.282 321.7858 373.4911 321.301 372.6148 320.9369 372.185 320.5666 371.8865 317.266 370.3112 316.4152 369.7458 315.8773 369.2718 315.1837 368.5085 314.5195 367.6316 313.9657 366.6557 313.7412 366.0688 313.2611 363.6492 312.941 360.0749 313.0117 353.6372 313.5617 349.8379 315.2156 344.9624 316.2608 344.1865 317.0966 343.6988 317.6359 343.5078 319.4619 343.1979 322.0928 343.03 326.3163 343.1462 326.9423 343.0253 327.5222 342.843 328.0096 342.573 328.4449 342.2503 329.107 341.6219 329.5779 340.9814 329.9987 339.4948 334.4892 310.5232 334.4758 308.9189 333.4735 306.9095 331.6139 305.2509 329.3281 302.8093 327.8585 300.4602 327.6341 299.9491 325.4925 293.6805 325.375 292.21 325.4671 290.2733 326.438 284.3281 327.3144 281.1247 327.3204 278.9282 326.3465 273.3977 327.3055 271.6909 327.3808 271.6386 327.5373 271.4903 327.6775 270.9743 327.7831 270.4496 326.8294 268.16 326.3495 266.0496 326.3161 265.6032 326.5087 264.9445 326.8753 264.1141 327.7513 263.0576 328.3599 262.47 328.9681 262.0779 330.0274 261.5995 331.1556 261.2699 337.2669 261.0844 339.0716 260.7038 343.5209 259.1276 344.5107 258.5611 345.3621 257.8629 346.1328 257.0421 346.5154 256.5354 346.744 255.1591 346.8531 252.8987 345.9987 244.8489 344.4159 239.6588 344.0561 237.8815 342.368 233.5399 341.8502 232.681 341.1592 231.7867 338.3008 229.0989 337.6619 228.2221 337.2483 227.3605 337.1451 227.054 337.0426 226.4761 336.9951 224.752 337.2245 223.1395 337.9568 221.3182 339.3142 218.8976 342.1353 215.232 342.4477 215.0053 342.8122 214.6736 345.2058 213.3054 350.5981 213.3003 356.4435 211.9447 362.096 211.5884 367.784 210.5924 385.3775 211.9398 403.3036 209.5158 409.4049 209.7035 425.7288 213.0628 452.6981 210.8028 479.5962 205.3163 521.892 200.5523 521.936 200.5473 521.9647 204.0147 521.1301 207.0448 518.293 212.6881 517.296 215.701 517.1952 221.5296 516.4612 223.62 514.7685 225.739 513.025 226.0116 505.8552 222.2884 503.4982 221.8764 501.3053 222.5898 499.1268 224.7557 498.3897 225.816 498.0792 226.5342 497.968 228.7571 497.5317 230.0997 494.7211 234.4396 492.4311 239.5513 492.5389 241.6629 494.1382 244.2356 501.7583 252.0558 502.7669 253.4743 503.0942 255.2383 502.7989 257.261 502.7066 257.8935 501.6942 260.372 500.2972 261.4161 498.6685 262.1981 496.9372 263.8611 496.2122 265.6884 495.5359 275.3328 494.4064 277.5778 490.7932 281.9039 487.8518 287.2814 485.8762 289.1309 479.1412 288.4085 474.7807 289.572 466.7311 292.8828 464.9273 294.2234 463.9458 296.4819 463.6936 299.0371 464.0892 301.2564 465.4699 304.7318 466.3645 308.1638 465.5803 311.1221 461.9353 313.1642 459.9555 313.0492 457.767 312.6426 455.9614 313.1981 455.1181 315.9812 455.2576 316.7424 455.8491 318.1799 455.7222 318.7633 448.8952 327.6924 448.0617 328.422 446.2552 329.0324 445.4447 329.6336 443.2917 333.1198 442.8527 336.2466 443.6069 339.3963 445.0334 342.9423 445.4166 344.8262 445.4081 352.1556 444.7137 354.5008 442.4089 358.8882 438.6796 370.4681 436.9644 373.9975 434.205 375.9113 426.5402 377.8978 425.2298 377.9094 424.105 377.3668 423.015 376.6229 421.786 376.0395 420.5684 375.8934 417.1245 376.0034 415.9184 376.2306 414.7238 377.0002 413.7726 377.9973 412.6938 378.796 411.1862 379.0054 402.5355 378.2921 402.8931 381.2847 402.6451 388.4389 402.0283 391.53 401.6683 392.2152 400.4026 394.113 400.124 394.3461 400.3206 395.2708 400.7961 395.519 401.3528 395.7177 401.7815 396.5055 401.734 398.2291 400.328 401.4422 399.9091 403.1831 400.0477 404.1836 400.6267 405.9193 400.4868 406.9196 399.883 407.5141 397.9908 408.379 397.3519 409.2302 397.3162 410.4288 397.3259 410.5519 Z" id="BJ.BO" fill="#cee3f5" stroke="#6e6e6e" stroke-width="0.4">
      <desc>
        <labelrank>7</labelrank>
        <code_hasc>BJ.BO</code_hasc>
        <name>Borgou</name>
        <admin>Benin</admin>
        <type_en>Department</type_en>
        <region/>
        <woe_id>2344826</woe_id>
        <longitude>2</longitude>
        <woe_name>Borgou</woe_name>
        <fips>BN10</fips>
        <woe_label>Borgou, BJ, Benin</woe_label>
        <latitude>9</latitude>
        <iso_a2>BJ</iso_a2>
        <postal>BO</postal>
        <type>Département</type>
        <id>BJ.BO</id>
      </desc>
    </path>
    <path d="M 521.936 200.5473 521.892 200.5523 479.5962 205.3163 452.6981 210.8028 425.7288 213.0628 409.4049 209.7035 403.3036 209.5158 385.3775 211.9398 367.784 210.5924 362.096 211.5884 356.4435 211.9447 350.5981 213.3003 345.2058 213.3054 346.4602 212.6083 345.9862 176.6573 346.1983 174.8026 346.6053 173.4179 347.7518 171.4517 349.972 168.9161 356.6145 163.4031 352.9905 159.9005 351.6898 158.9874 351.396 158.8992 350.8774 158.8455 350.3246 158.5992 349.772 158.2741 348.7875 157.805 347.4047 157.5392 346.3443 157.5016 340.866 149.6318 319.2932 110.665 318.779 110.0637 333.4759 95.1898 341.6289 88.5734 347.5963 85.2577 349.1413 83.768 349.5466 82.6955 349.4577 81.4584 349.5316 79.4865 350.7355 76.2922 355.0243 71.5241 356.5947 68.5931 360.6306 57.6859 360.4148 56.5302 359.1207 54.5728 358.9741 53.3355 359.6093 51.8842 360.552 51.6412 361.5973 51.7894 362.563 51.5172 363.3116 50.6728 364.1882 49.041 364.9596 48.2317 366.0742 48.1289 367.2336 48.5572 368.0497 48.3838 368.1224 46.4469 367.8954 45.0403 367.1728 44.508 366.1165 44.255 364.9345 43.7158 363.7878 42.774 362.9972 41.8563 362.3794 40.7348 358.6595 30.1426 357.5835 23.8504 357.4977 21.283 358.4779 19.3249 361.1664 18.0941 362.6932 17.9049 365.2409 18.0154 366.6643 17.8784 366.9288 17.5872 367.8495 16.323 368.4242 15.904 369.2501 16.0982 369.88 16.7529 370.442 16.9407 371.0754 15.7634 371.5945 14.3699 372.3754 14.0505 373.4194 14.21 374.7274 14.259 375.0368 14.5163 375.2078 15.135 375.5512 15.6432 376.389 15.5864 377.0209 15.2082 378.0323 14.2414 378.5378 13.9155 382.4869 12.8483 382.9228 12.9307 383.8743 13.4922 384.425 13.5514 385.1025 13.2198 386.435 12.2357 387.204 12.0909 391.1154 13.1404 392.1258 12.5582 393.6777 10.1096 394.0459 9.2349 394.2649 8.3483 394.5871 7.5377 395.1844 6.8733 396.3895 6.4078 397.5588 7.1967 398.7178 6.912 399.7396 6.0845 401.5196 3.9625 402.7477 3.1584 403.8147 2.9493 406.0628 3.0328 407.1986 2.8061 409.8369 2.7145 411.157 1 416.477 5.7634 418.7365 6.9778 419.849 8.1858 420.709 9.5746 421.4198 12.1127 422.326 13.0581 423.5537 13.6942 424.8617 14.1787 428.5452 14.5931 429.4746 14.8848 429.8878 15.4741 430.9781 17.5743 435.4783 24.2013 454.5939 41.606 454.9389 42.2066 456.4446 43.343 456.7897 43.9494 457.0677 46.3587 457.6215 48.9194 458.4391 50.9722 460.9827 55.2461 462.5704 57.0822 463.5137 57.9621 464.8823 58.8823 466.4227 59.2772 467.9158 58.581 469.4774 57.6455 470.7878 57.9005 471.9839 58.5989 473.2256 58.9997 478.2181 62.0726 482.2892 63.5127 483.5321 64.374 484.4302 65.2242 488.1646 70.5323 488.9131 71.1901 489.5347 71.5623 490.03 72.0223 490.4456 72.9083 491.0126 74.6924 491.4282 75.5551 491.6487 76.5523 492.0414 77.415 492.9739 77.9207 494.0126 79.7097 494.7959 80.3556 492.3516 82.9278 484.6462 96.0928 483.3318 101.1825 482.6328 102.9019 480.41 108.9789 480.6099 111.5748 482.2726 114.6408 502.299 142.731 505.0012 145.2832 505.9234 145.4356 506.9716 145.2436 507.1032 145.2503 508.0089 145.2965 508.9445 146.1927 507.8141 150.5799 507.8199 153.0244 508.2749 155.2783 509.1098 157.3474 510.2558 159.2728 510.2559 159.302 512.5752 169.3516 512.4566 172.6774 510.0489 178.6283 509.9152 180.5831 510.4837 181.9294 511.3858 182.8665 512.3684 183.6867 513.213 184.6531 513.7698 185.8623 514.8291 189.5644 515.8823 190.8132 517.3143 191.2441 518.896 191.5376 520.3176 192.3506 521.3505 194.5298 521.9134 197.813 521.936 200.5473 Z" id="BJ.AL" fill="#cee3f5" stroke="#6e6e6e" stroke-width="0.4">
      <desc>
        <labelrank>7</labelrank>
        <code_hasc>BJ.AL</code_hasc>
        <name>Alibori</name>
        <admin>Benin</admin>
        <type_en>Department</type_en>
        <region/>
        <woe_id>55967672</woe_id>
        <longitude>2</longitude>
        <woe_name>Alibori</woe_name>
        <fips>BN07</fips>
        <woe_label>Alibori, BJ, Benin</woe_label>
        <latitude>11</latitude>
        <iso_a2>BJ</iso_a2>
        <postal>AL</postal>
        <type>Département</type>
        <id>BJ.AL</id>
      </desc>
    </path>
    <path d="M 397.3259 410.5519 399.4958 438.0653 399.7558 441.36 398.8706 445.1713 397.9753 446.5006 395.7317 449.0217 395.1382 450.4328 395.1142 451.4332 395.3915 453.5187 395.3907 454.5657 394.5274 459.2401 394.3863 461.4011 394.791 464.0904 395.6606 466.5817 397.8654 471.2817 398.6308 473.6853 398.571 476.1613 397.6863 478.2343 396.511 480.1175 395.6378 482.0272 395.3341 484.0918 395.085 490.8402 393.6612 497.9873 393.2255 505.1031 392.8293 506.106 391.6762 508.2574 391.4196 509.1205 391.4882 509.6265 391.5469 510.0597 392.4531 511.4428 393.7186 514.6809 396.4153 517.6867 397.4147 519.3089 397.7278 520.9306 396.6414 536.142 396.6009 536.1417 373.4297 535.9897 371.9283 536.0609 370.2235 540.7485 369.9577 543.9446 370.7225 546.8795 370.4591 548.1274 368.8346 548.6388 367.7161 549.3811 364.1764 554.3783 362.8459 556.841 363.1334 559.5507 363.939 562.3545 343.7452 553.1197 335.7978 550.6 329.2442 550.001 323.3004 550.1374 317.97 549.2332 313.7098 546.298 309.5103 542.5661 303.3643 539.9926 298.3324 538.9293 275.5522 540.1844 273.3383 539.9785 273.3355 537.9924 273.3148 515.6116 273.3043 497.7407 273.6441 479.7542 273.8861 466.817 272.7227 457.1276 272.157 456.0841 271.4954 455.8601 271.4933 455.857 271.1717 455.3863 271.7392 452.6344 271.7462 450.674 271.9239 449.7177 275.6401 443.6396 276.0653 441.6456 275.5928 440.5412 272.7018 436.8581 272.1372 435.5929 271.9794 434.262 271.9492 430.8902 273.983 431.0427 280.0158 431.2827 282.1418 431.0975 282.7341 431.117 283.9772 430.9986 293.7467 428.4195 295.5999 428.1102 296.9589 428.0093 297.6551 428.1865 298.8555 428.6889 299.8117 429.2957 300.6632 429.9983 303.6905 433.2742 304.1425 433.6022 304.6643 433.9013 305.2559 434.1392 305.8826 434.316 306.5792 434.4142 309.9995 434.3887 310.6612 434.4956 311.2007 434.707 311.6876 435.0321 312.0873 435.4095 313.754 437.5783 314.5766 438.3593 315.5505 439.0094 316.6119 439.5634 319.9023 440.5635 320.3894 440.836 321.6819 441.898 322.2215 442.1268 322.831 442.242 325.5665 442.2398 326.9075 442.4792 330.0121 443.6181 330.6913 443.7596 331.3707 443.8224 334.0251 443.7319 335.9428 443.1906 337.2857 442.5547 338.2627 441.9354 339.8564 440.7341 340.7302 439.3825 340.1044 438.7337 339.297 436.0078 340.8264 426.3332 339.0072 416.2462 338.198 414.6986 337.1562 413.343 337.9994 409.8505 397.2813 410.5514 397.3259 410.5519 Z" id="BJ.CL" fill="#cee3f5" stroke="#6e6e6e" stroke-width="0.4">
      <desc>
        <labelrank>7</labelrank>
        <code_hasc>BJ.CL</code_hasc>
        <name>Collines</name>
        <admin>Benin</admin>
        <type_en>Department</type_en>
        <region/>
        <woe_id>55967670</woe_id>
        <longitude>2</longitude>
        <woe_name>Collines</woe_name>
        <fips>BN11</fips>
        <woe_label>Collines, BJ, Benin</woe_label>
        <latitude>8</latitude>
        <iso_a2>BJ</iso_a2>
        <postal>CL</postal>
        <type>Département</type>
        <id>BJ.CL</id>
      </desc>
    </path>
    <path d="M 368.3213 678.6382 362.9933 679.2886 360.5943 679.9508 358.5971 681.2375 357.1892 682.5744 356.1491 685.3329 350.1772 685.8797 341.1218 687.8786 314.1113 690.8965 314.1119 690.8883 314.178 689.9143 313.7967 687.8836 312.8336 684.9388 311.1053 682.43 310.7622 678.9439 311.3447 676.5884 313.8315 670.2263 314.4649 668.6089 314.7826 667.2591 314.9098 664.9406 314.5375 658.5553 314.4212 655.4985 314.5633 654.4458 314.9152 653.4928 315.7755 652.112 316.3544 651.3753 317.2836 650.4497 317.5476 649.6889 317.76 648.4702 317.6416 646.4137 318.2598 643.4983 319.7704 640.4272 319.6699 638.2104 319.4627 636.81 319.6221 635.8449 320.0325 634.717 321.6648 631.891 322.594 630.8166 323.1031 629.826 324.8959 625.2853 325.598 623.9655 326.1434 622.2486 325.1169 619.4875 359.0591 619.4022 362.9159 625.6773 364.0297 630.2777 364.3777 636.7846 364.8186 648.8938 364.9372 652.2769 365.7306 662.5578 366.9707 664.7668 367.6006 664.9162 368.2653 665.1707 368.7551 665.4337 370.0841 666.3712 370.569 671.5131 370.1111 674.2773 368.3213 678.6382 Z" id="BJ.AQ" fill="#cee3f5" stroke="#6e6e6e" stroke-width="0.4">
      <desc>
        <labelrank>7</labelrank>
        <code_hasc>BJ.AQ</code_hasc>
        <name>Atlantique</name>
        <admin>Benin</admin>
        <type_en>Department</type_en>
        <region/>
        <woe_id>2344825</woe_id>
        <longitude>2</longitude>
        <woe_name>Atlantique</woe_name>
        <fips>BN09</fips>
        <woe_label>Atlantique, BJ, Benin</woe_label>
        <latitude>6</latitude>
        <iso_a2>BJ</iso_a2>
        <postal>AQ</postal>
        <type>Département</type>
        <id>BJ.AQ</id>
      </desc>
    </path>
    <path d="M 370.1643 684.047 356.1491 685.3329 357.1892 682.5744 358.5971 681.2375 360.5943 679.9508 362.9933 679.2886 368.3213 678.6382 367.9518 680.9716 368.8047 681.6978 369.3595 681.7837 369.914 682.1256 370.1643 684.047 Z" id="BJ.LI" fill="#cee3f5" stroke="#6e6e6e" stroke-width="0.4">
      <desc>
        <labelrank>7</labelrank>
        <code_hasc>BJ.LI</code_hasc>
        <name>Littoral</name>
        <admin>Benin</admin>
        <type_en>Department</type_en>
        <region/>
        <woe_id>55967673</woe_id>
        <longitude>2</longitude>
        <woe_name>Littoral</woe_name>
        <fips>BN14</fips>
        <woe_label>Littoral, BJ, Benin</woe_label>
        <latitude>6</latitude>
        <iso_a2>BJ</iso_a2>
        <postal>LI</postal>
        <type>Département</type>
        <id>BJ.LI</id>
      </desc>
    </path>
    <path d="M 325.1169 619.4875 326.1434 622.2486 325.598 623.9655 324.8959 625.2853 323.1031 629.826 322.594 630.8166 321.6648 631.891 320.0325 634.717 319.6221 635.8449 319.4627 636.81 319.6699 638.2104 319.7704 640.4272 318.2598 643.4983 311.3854 640.0425 307.9061 639.0521 304.1392 638.895 297.9895 640.2137 290.8565 642.807 280.2349 645.2735 277.7678 645.2231 275.8611 644.9817 269.7042 642.021 269.2321 641.8018 270.1223 640.619 270.5822 638.873 269.9252 636.1465 269.0688 633.8337 268.5846 631.8866 268.5203 629.9582 269.3856 625.2204 269.157 623.6503 268.1461 622.428 266.4764 621.1749 266.2961 621.0397 265.0308 619.163 262.8635 611.1341 271.3858 611.2183 273.4395 610.6176 273.4069 594.0367 273.3864 577.6483 273.3684 560.793 273.3521 549.6965 276.9932 550.4485 279.3774 553.3349 280.2291 554.7318 286.1033 567.2747 286.7416 570.176 287.141 571.0523 287.7849 571.9904 287.9924 572.7611 288.1613 574.8997 288.5957 575.7964 289.4897 576.884 291.2337 578.1926 295.5763 583.8016 296.1149 585.0544 296.5325 585.7584 297.9634 586.6634 299.6862 589.6721 301.1415 594.9464 302.2017 599.8638 303.5947 602.2239 304.3626 602.7858 305.0088 603.0761 306.8064 604.4453 309.1643 608.0617 310.9945 610.65 312.8109 611.599 314.333 613.8948 314.8533 615.8938 315.0971 616.4019 315.7079 616.9719 319.5493 619.8265 320.5336 620.231 321.2679 620.3142 322.4581 619.8324 324.3313 618.8035 325.1169 619.4875 Z" id="BJ.CF" fill="#cee3f5" stroke="#6e6e6e" stroke-width="0.4">
      <desc>
        <labelrank>7</labelrank>
        <code_hasc>BJ.CF</code_hasc>
        <name>Kouffo</name>
        <admin>Benin</admin>
        <type_en>Department</type_en>
        <region/>
        <woe_id>55967668</woe_id>
        <longitude>1</longitude>
        <woe_name>Kouffo</woe_name>
        <fips>BN12</fips>
        <woe_label>Kouffo, BJ, Benin</woe_label>
        <latitude>6</latitude>
        <iso_a2>BJ</iso_a2>
        <postal>CF</postal>
        <type>Département</type>
        <id>BJ.CF</id>
      </desc>
    </path>
    <path d="M 374.3095 611.2248 374.1113 616.9669 375.1897 622.6869 380.57 635.7308 382.8854 648.9639 385.0579 652.506 390.5369 657.1148 392.268 658.9648 396.6617 666.3659 396.6934 666.4193 396.3109 667.5263 395.9145 669.8331 395.0466 674.8832 394.9956 681.7619 394.9343 681.7662 370.1643 684.047 369.914 682.1256 369.3595 681.7837 368.8047 681.6978 367.9518 680.9716 368.3213 678.6382 370.1111 674.2773 370.569 671.5131 370.0841 666.3712 368.7551 665.4337 368.2653 665.1707 367.6006 664.9162 366.9707 664.7668 365.7306 662.5578 364.9372 652.2769 364.8186 648.8938 364.3777 636.7846 364.0297 630.2777 362.9159 625.6773 359.0591 619.4022 359.2544 617.116 360.4987 614.9215 362.3377 612.4362 364.1571 611.4847 367.3104 611.1735 374.3095 611.2248 Z" id="BJ.OU" fill="#cee3f5" stroke="#6e6e6e" stroke-width="0.4">
      <desc>
        <labelrank>7</labelrank>
        <code_hasc>BJ.OU</code_hasc>
        <name>Ouémé</name>
        <admin>Benin</admin>
        <type_en>Department</type_en>
        <region/>
        <woe_id>2344828</woe_id>
        <longitude>2</longitude>
        <woe_name>Ouémé</woe_name>
        <fips>BN16</fips>
        <woe_label>Oueme, BJ, Benin</woe_label>
        <latitude>6</latitude>
        <iso_a2>BJ</iso_a2>
        <postal>OU</postal>
        <type>Département</type>
        <id>BJ.OU</id>
      </desc>
    </path>
    <path d="M 363.939 562.3545 364.5476 564.4668 364.5412 569.5093 364.9301 570.5218 365.558 571.3596 366.0691 572.4451 366.0786 574.2067 366.4438 575.537 368.2005 582.2119 369.9087 585.9468 375.2406 589.5777 375.8865 590.3133 375.9382 590.9432 375.7965 592.8446 378.2895 605.4136 378.8267 610.4389 378.8267 610.4477 378.7917 610.5089 378.7041 610.675 378.4415 611.0072 377.9518 611.2547 377.2873 611.3678 376.4597 611.3845 374.3095 611.2248 367.3104 611.1735 364.1571 611.4847 362.3377 612.4362 360.4987 614.9215 359.2544 617.116 359.0591 619.4022 325.1169 619.4875 324.3313 618.8035 322.4581 619.8324 321.2679 620.3142 320.5336 620.231 319.5493 619.8265 315.7079 616.9719 315.0971 616.4019 314.8533 615.8938 314.333 613.8948 312.8109 611.599 310.9945 610.65 309.1643 608.0617 306.8064 604.4453 305.0088 603.0761 304.3626 602.7858 303.5947 602.2239 302.2017 599.8638 301.1415 594.9464 299.6862 589.6721 297.9634 586.6634 296.5325 585.7584 296.1149 585.0544 295.5763 583.8016 291.2337 578.1926 289.4897 576.884 288.5957 575.7964 288.1613 574.8997 287.9924 572.7611 287.7849 571.9904 287.141 571.0523 286.7416 570.176 286.1033 567.2747 280.2291 554.7318 279.3774 553.3349 276.9932 550.4485 273.3521 549.6965 273.3383 539.9785 275.5522 540.1844 298.3324 538.9293 303.3643 539.9926 309.5103 542.5661 313.7098 546.298 317.97 549.2332 323.3004 550.1374 329.2442 550.001 335.7978 550.6 343.7452 553.1197 363.939 562.3545 Z" id="BJ.ZO" fill="#cee3f5" stroke="#6e6e6e" stroke-width="0.4">
      <desc>
        <labelrank>7</labelrank>
        <code_hasc>BJ.ZO</code_hasc>
        <name>Zou</name>
        <admin>Benin</admin>
        <type_en>Department</type_en>
        <region/>
        <woe_id>2344829</woe_id>
        <longitude>2</longitude>
        <woe_name>Zou</woe_name>
        <fips>BN18</fips>
        <woe_label>Zou, BJ, Benin</woe_label>
        <latitude>7</latitude>
        <iso_a2>BJ</iso_a2>
        <postal>ZO</postal>
        <type>Département</type>
        <id>BJ.ZO</id>
      </desc>
    </path>
    <path d="M 396.6414 536.142 396.3773 539.8395 396.968 544.2669 399.2236 548.4678 402.5508 552.4301 405.0402 556.5667 404.7352 561.2851 404.4669 562.2941 404.3851 562.9298 404.024 563.1571 401.5906 562.6717 400.4146 562.6594 399.5526 563.1547 399.2724 564.4027 401.6217 592.1673 401.5044 593.7303 401.131 594.7975 400.2332 595.9635 399.1949 598.1035 398.7051 598.8557 398.5882 599.6371 399.0185 601.1072 399.985 602.3209 402.9437 604.7429 403.5959 605.8106 403.1524 607.0294 401.9983 607.6413 400.553 608.0663 399.2357 608.6897 396.3079 612.7474 396.6784 616.8421 398.203 621.1707 398.7599 625.9012 397.5564 630.6336 397.2519 633.0773 397.822 635.3027 398.6842 636.4493 399.64 637.1351 400.7943 637.4798 402.1935 637.6117 402.858 638.1224 403.079 639.2686 403.4498 644.4742 402.8194 645.7483 401.4311 646.6604 399.3892 648.4704 398.0933 650.896 398.057 653.2086 399.0227 657.9684 398.7881 660.3566 396.6934 666.4193 396.6617 666.3659 392.268 658.9648 390.5369 657.1148 385.0579 652.506 382.8854 648.9639 380.57 635.7308 375.1897 622.6869 374.1113 616.9669 374.3095 611.2248 376.4597 611.3845 377.2873 611.3678 377.9518 611.2547 378.4415 611.0072 378.7041 610.675 378.7917 610.5089 378.8267 610.4477 378.8267 610.4389 378.2895 605.4136 375.7965 592.8446 375.9382 590.9432 375.8865 590.3133 375.2406 589.5777 369.9087 585.9468 368.2005 582.2119 366.4438 575.537 366.0786 574.2067 366.0691 572.4451 365.558 571.3596 364.9301 570.5218 364.5412 569.5093 364.5476 564.4668 363.939 562.3545 363.1334 559.5507 362.8459 556.841 364.1764 554.3783 367.7161 549.3811 368.8346 548.6388 370.4591 548.1274 370.7225 546.8795 369.9577 543.9446 370.2235 540.7485 371.9283 536.0609 373.4297 535.9897 396.6009 536.1417 396.6414 536.142 Z" id="BJ.PL" fill="#cee3f5" stroke="#6e6e6e" stroke-width="0.4">
      <desc>
        <labelrank>7</labelrank>
        <code_hasc>BJ.PL</code_hasc>
        <name>Plateau</name>
        <admin>Benin</admin>
        <type_en>Department</type_en>
        <region/>
        <woe_id>55967669</woe_id>
        <longitude>2</longitude>
        <woe_name>Plateau</woe_name>
        <fips>BN17</fips>
        <woe_label>Plateau, BJ, Benin</woe_label>
        <latitude>7</latitude>
        <iso_a2>BJ</iso_a2>
        <postal>PL</postal>
        <type>Département</type>
        <id>BJ.PL</id>
      </desc>
    </path>
    <path d="M 318.2598 643.4983 317.6416 646.4137 317.76 648.4702 317.5476 649.6889 317.2836 650.4497 316.3544 651.3753 315.7755 652.112 314.9152 653.4928 314.5633 654.4458 314.4212 655.4985 314.5375 658.5553 314.9098 664.9406 314.7826 667.2591 314.4649 668.6089 313.8315 670.2263 311.3447 676.5884 310.7622 678.9439 311.1053 682.43 312.8336 684.9388 313.7967 687.8836 314.178 689.9143 314.1119 690.8883 314.1113 690.8965 302.4547 692.1951 272.5171 699 271.7071 696.6425 274.0456 695.4147 288.5664 692.0263 290.9133 691.8918 288.8082 683.603 286.6344 675.1213 283.7399 670.4558 282.7731 669.73 280.3488 668.4782 279.6035 667.8666 279.361 666.8801 279.6474 664.4597 279.5104 663.3247 278.8011 662.3602 276.9265 660.8122 276.6369 660.0267 276.4886 658.7341 275.6726 658.446 274.5638 658.548 273.5023 658.4226 272.617 657.8951 271.674 657.137 270.7897 656.2419 270.1155 655.3124 269.7571 654.1562 269.83 653.115 270.031 652.1704 270.0102 651.2923 268.7799 649.0281 267.325 647.8425 266.6054 646.5714 267.546 644.0421 269.2321 641.8018 269.7042 642.021 275.8611 644.9817 277.7678 645.2231 280.2349 645.2735 290.8565 642.807 297.9895 640.2137 304.1392 638.895 307.9061 639.0521 311.3854 640.0425 318.2598 643.4983 Z" id="BJ.1764" fill="#cee3f5" stroke="#6e6e6e" stroke-width="0.4">
      <desc>
        <labelrank>7</labelrank>
        <code_hasc>BJ.CF</code_hasc>
        <name>Mono</name>
        <admin>Benin</admin>
        <type_en>Department</type_en>
        <region/>
        <woe_id>2344827</woe_id>
        <longitude>1</longitude>
        <woe_name>Mono</woe_name>
        <fips>BN15</fips>
        <woe_label>Mono, BJ, Benin</woe_label>
        <latitude>6</latitude>
        <iso_a2>BJ</iso_a2>
        <postal>CF</postal>
        <type>Département</type>
        <id>BJ.1764</id>
      </desc>
    </path>
    <path d="M 318.779 110.0637 319.2932 110.665 340.866 149.6318 346.3443 157.5016 347.4047 157.5392 348.7875 157.805 349.772 158.2741 350.3246 158.5992 350.8774 158.8455 351.396 158.8992 351.6898 158.9874 352.9905 159.9005 356.6145 163.4031 349.972 168.9161 347.7518 171.4517 346.6053 173.4179 346.1983 174.8026 345.9862 176.6573 346.4602 212.6083 345.2058 213.3054 342.8122 214.6736 342.4477 215.0053 342.1353 215.232 339.3142 218.8976 337.9568 221.3182 337.2245 223.1395 336.9951 224.752 337.0426 226.4761 337.1451 227.054 337.2483 227.3605 337.6619 228.2221 338.3008 229.0989 341.1592 231.7867 341.8502 232.681 342.368 233.5399 344.0561 237.8815 344.4159 239.6588 345.9987 244.8489 346.8531 252.8987 346.744 255.1591 346.5154 256.5354 346.1328 257.0421 345.3621 257.8629 344.5107 258.5611 343.5209 259.1276 339.0716 260.7038 337.2669 261.0844 331.1556 261.2699 330.0274 261.5995 328.9681 262.0779 328.3599 262.47 327.7513 263.0576 326.8753 264.1141 326.5087 264.9445 326.3161 265.6032 326.3495 266.0496 326.8294 268.16 295.0572 267.052 290.853 268.6119 286.9176 270.858 283.2217 273.8399 278.4576 276.1869 272.8234 277.5291 265.7576 276.7198 261.0016 275.6045 255.5668 274.9318 250.8412 274.7665 244.4946 275.9902 243.0819 276.5038 243.0731 275.6358 241.6577 271.7858 229.8875 263.8659 213.917 253.1152 204.4297 246.7197 198.0128 242.391 187.4225 235.2435 178.9991 229.5462 178.1094 227.8382 178.0353 225.2398 179.6777 213.6162 181.3629 207.3348 181.4751 202.9192 180.6585 192.7348 182.2906 188.9693 188.4043 183.2273 189.8617 181.1593 190.2161 180 190.4073 177.4211 190.635 176.2143 192.4009 172.8962 192.2479 171.6721 191.3292 169.3714 191.0724 168.1525 191.4112 165.9102 194.321 158.975 197.7109 160.8782 199.2091 161.0928 201.2046 161.1238 201.6816 160.5229 201.9674 159.2056 201.8725 157.8798 201.2307 157.2684 200.3455 156.8421 199.9603 155.812 199.9113 154.545 200.046 153.4046 200.4399 153.1446 201.3954 151.7181 202.062 150.3596 202.8068 149.3606 203.304 149.1655 203.8216 149.3529 206.2636 149.7574 207.0096 150.2936 207.5711 150.8256 208.1691 151.0748 208.4904 151.322 209.0712 152.4291 209.2656 152.6901 209.9692 152.6597 211.1841 152.0548 211.6231 151.938 215.057 152.3366 216.1846 152.7349 216.4809 153.2913 217.2695 154.4199 218.0834 155.1868 218.4557 154.6784 218.5939 152.8669 217.3337 151.5544 216.638 150.3505 216.4613 149.1207 216.4464 147.8423 216.2244 146.4983 216.0168 146.5028 214.9593 146.0116 214.6379 145.7877 214.5721 145.2678 214.7771 143.8653 214.6533 143.4033 213.6058 143.1543 212.8984 143.783 212.4824 143.935 212.3782 142.2299 212.9562 141.9826 216.639 141.1776 217.2874 140.7265 218.0613 138.6739 218.5607 138.0992 219.7478 138.1184 221.9657 139.1918 223.1158 139.6017 222.5517 137.6516 222.1378 133.7996 220.0737 130.3602 220.6358 128.9483 221.795 127.8554 222.97 126.0913 224.0362 126.9502 224.8692 128.2424 224.7158 128.8193 225.6952 128.84 226.2846 128.5577 226.8629 128.2081 227.8321 127.9923 229.9401 128.1102 231.7459 128.6377 235.4342 130.4194 236.8668 127.8072 237.0448 126.9299 236.7978 125.8195 235.7097 124.7304 235.4731 123.8331 236.0341 122.4794 237.2746 123.1083 238.5677 124.5954 239.2634 125.8164 240.0291 124.8899 240.8143 124.5793 241.6074 124.899 242.374 125.8343 244.3303 124.1908 244.1197 122.7393 243.0457 121.1865 242.4117 119.2481 243.3914 117.1147 245.6225 115.6829 248.1508 114.5911 249.9882 113.472 248.9421 111.0588 249.0856 110.1112 250.0142 108.7711 251.4709 107.7024 252.8222 107.269 252.8666 107.2548 254.0098 106.6366 254.6633 105.0177 256.4768 106.0517 258.6274 106.5067 269.0999 107.4036 268.8659 108.1494 268.6047 109.7355 268.4053 110.4814 270.3402 110.3743 272.6566 114.7185 274.8365 113.9849 276.7412 112.9844 281.8931 111.9199 284.0278 110.9054 285.7688 110.3646 290.6949 110.7362 292.8024 110.5934 297.1845 108.8523 299.3161 108.4233 301.2478 109.0145 302.3212 108.3068 303.6788 108.5105 306.5632 109.8782 311.2651 111.7162 315.2014 112.0366 318.2572 110.5914 318.779 110.0637 Z" id="BJ.AK" fill="#cee3f5" stroke="#6e6e6e" stroke-width="0.4">
      <desc>
        <labelrank>7</labelrank>
        <code_hasc>BJ.AK</code_hasc>
        <name>Atakora</name>
        <admin>Benin</admin>
        <type_en>Department</type_en>
        <region/>
        <woe_id>2344824</woe_id>
        <longitude>1</longitude>
        <woe_name>Atakora</woe_name>
        <fips>BN08</fips>
        <woe_label>Atakora, BJ, Benin</woe_label>
        <latitude>10</latitude>
        <iso_a2>BJ</iso_a2>
        <postal>AK</postal>
        <type>Département</type>
        <id>BJ.AK</id>
      </desc>
    </path>
    <path d="M 326.8294 268.16 327.7831 270.4496 327.6775 270.9743 327.5373 271.4903 327.3808 271.6386 327.3055 271.6909 326.3465 273.3977 327.3204 278.9282 327.3144 281.1247 326.438 284.3281 325.4671 290.2733 325.375 292.21 325.4925 293.6805 327.6341 299.9491 327.8585 300.4602 329.3281 302.8093 331.6139 305.2509 333.4735 306.9095 334.4758 308.9189 334.4892 310.5232 329.9987 339.4948 329.5779 340.9814 329.107 341.6219 328.4449 342.2503 328.0096 342.573 327.5222 342.843 326.9423 343.0253 326.3163 343.1462 322.0928 343.03 319.4619 343.1979 317.6359 343.5078 317.0966 343.6988 316.2608 344.1865 315.2156 344.9624 313.5617 349.8379 313.0117 353.6372 312.941 360.0749 313.2611 363.6492 313.7412 366.0688 313.9657 366.6557 314.5195 367.6316 315.1837 368.5085 315.8773 369.2718 316.4152 369.7458 317.266 370.3112 320.5666 371.8865 320.9369 372.185 321.301 372.6148 321.7858 373.4911 321.9403 374.282 321.9035 375.0257 321.7453 375.6641 320.7998 377.9835 320.0909 380.6974 319.5065 384.5578 319.5065 384.5753 319.2769 385.8436 319.0185 391.423 319.1703 393.2553 319.6689 395.5785 320.032 396.5158 320.4476 397.3219 321.1299 398.225 321.8936 399.0612 322.7795 399.781 323.8048 400.4399 326.0475 401.5218 337.262 404.6833 337.9577 404.9736 338.2995 405.1843 338.9596 405.8712 337.9994 409.8505 337.1562 413.343 338.198 414.6986 339.0072 416.2462 340.8264 426.3332 339.297 436.0078 340.1044 438.7337 340.7302 439.3825 339.8564 440.7341 338.2627 441.9354 337.2857 442.5547 335.9428 443.1906 334.0251 443.7319 331.3707 443.8224 330.6913 443.7596 330.0121 443.6181 326.9075 442.4792 325.5665 442.2398 322.831 442.242 322.2215 442.1268 321.6819 441.898 320.3894 440.836 319.9023 440.5635 316.6119 439.5634 315.5505 439.0094 314.5766 438.3593 313.754 437.5783 312.0873 435.4095 311.6876 435.0321 311.2007 434.707 310.6612 434.4956 309.9995 434.3887 306.5792 434.4142 305.8826 434.316 305.2559 434.1392 304.6643 433.9013 304.1425 433.6022 303.6905 433.2742 300.6632 429.9983 299.8117 429.2957 298.8555 428.6889 297.6551 428.1865 296.9589 428.0093 295.5999 428.1102 293.7467 428.4195 283.9772 430.9986 282.7341 431.117 282.1418 431.0975 280.0158 431.2827 273.983 431.0427 271.9492 430.8902 271.8147 415.7742 271.7142 405.3034 271.5981 392.9771 271.4663 378.8476 270.875 375.7645 269.9925 373.0421 267.7004 368.9865 260.7607 361.6499 251.8387 352.2343 251.2682 351.3489 249.1562 348.0704 247.5538 343.561 246.8418 332.1143 245.5706 328.9046 243.6427 329.8321 241.9939 328.1348 240.8717 325.3691 240.5237 323.0682 240.9942 321.6028 243.0015 318.5545 243.7033 317.1253 243.8479 315.9734 243.824 313.7061 244.0958 312.5841 244.2646 311.2106 243.4099 305.9339 243.3137 297.1623 243.1662 284.8218 243.0819 276.5038 244.4946 275.9902 250.8412 274.7665 255.5668 274.9318 261.0016 275.6045 265.7576 276.7198 272.8234 277.5291 278.4576 276.1869 283.2217 273.8399 286.9176 270.858 290.853 268.6119 295.0572 267.052 326.8294 268.16 Z" id="BJ.DO" fill="#cee3f5" stroke="#6e6e6e" stroke-width="0.4">
      <desc>
        <labelrank>7</labelrank>
        <code_hasc>BJ.DO</code_hasc>
        <name>Donga</name>
        <admin>Benin</admin>
        <type_en>Department</type_en>
        <region/>
        <woe_id>55967671</woe_id>
        <longitude>1</longitude>
        <woe_name>Donga</woe_name>
        <fips>BN13</fips>
        <woe_label/>
        <latitude>9</latitude>
        <iso_a2>BJ</iso_a2>
        <postal>DO</postal>
        <type>Département</type>
        <id>BJ.DO</id>
      </desc>
    </path>
  </g>
</svg>