<?xml version="1.0" encoding="UTF-8"?>
<svg xmlns="http://www.w3.org/2000/svg" width="700" height="700">
  <g id="new_zealand">
    <path d="M 114.4459 633.3453 117.0282 633.7731 117.2929 634.3241 113.9073 635.1489 108.7181 634.8596 106.6867 633.3207 107.0868 632.9144 108.7242 633.7331 112.1714 633.2714 112.8916 632.8498 114.4459 633.3453 Z M 118.4717 623.3762 117.8223 623.7794 116.8989 623.524 117.2867 625.3368 116.0525 626.4941 114.9168 627.0111 115.9694 627.8791 116.7697 627.9191 115.9941 629.2118 117.5638 629.1533 117.8962 629.5411 117.9639 631.0246 118.8595 631.5571 118.3455 632.8406 117.7515 633.1853 116.2588 632.4835 113.9935 631.8372 113.3841 631.0185 111.5804 632.0742 112.4238 630.4121 111.3219 629.1564 110.9464 630.5229 110.1092 630.8369 110.0785 632.2742 109.1274 632.5912 107.9548 632.4281 106.7359 631.7202 105.3602 632.8498 104.9723 630.7076 106.4405 629.1718 111.5004 626.885 112.7254 625.3122 112.8916 624.1518 113.6241 622.3821 113.7165 621.548 112.8916 620.9232 114.5567 620.5508 115.7386 620.8062 118.0624 620.4061 117.8254 621.4187 120.1491 621.1817 120.6878 622.4744 118.7518 622.5668 118.4717 623.3762 Z" id="NZ.X06~" fill="#cee3f5" stroke="#6e6e6e" stroke-width="0.4">
      <desc>
        <adm1_code>NZL-5479</adm1_code>
        <iso_a2>NZ</iso_a2>
        <name>Auckland Islands</name>
        <type/>
        <code_hasc>NZ.X06~</code_hasc>
        <region>New Zealand Outlying Islands</region>
        <labelrank>20</labelrank>
        <name_len>16</name_len>
        <fips/>
        <fips_alt/>
        <woe_id/>
        <woe_label/>
        <woe_name/>
        <latitude>-50.7664</latitude>
        <longitude>166.11</longitude>
        <sov_a3>NZ1</sov_a3>
        <adm0_a3>NZL</adm0_a3>
        <admin>New Zealand</admin>
        <geonunit>New Zealand</geonunit>
        <id>NZ.X06~</id>
      </desc>
    </path>
    <path d="M 232.1977 695.9722 232.6195 697.269 231.9927 697.575 231.4092 698.5166 230.1128 699 227.728 698.8214 225.053 697.5234 224.6739 697.8037 223.6966 697.2288 223.6663 696.4825 227.0228 696.963 227.602 695.5672 228.1843 694.8302 229.7709 694.0412 230.4807 694.0408 231.8682 695.0989 232.1977 695.9722 Z" id="NZ.X05~" fill="#cee3f5" stroke="#6e6e6e" stroke-width="0.4">
      <desc>
        <adm1_code>NZL-5478</adm1_code>
        <iso_a2>NZ</iso_a2>
        <name>Campbell Islands</name>
        <type/>
        <code_hasc>NZ.X05~</code_hasc>
        <region>New Zealand Outlying Islands</region>
        <labelrank>20</labelrank>
        <name_len>16</name_len>
        <fips/>
        <fips_alt/>
        <woe_id/>
        <woe_label/>
        <woe_name/>
        <latitude>-52.5455</latitude>
        <longitude>169.183</longitude>
        <sov_a3>NZ1</sov_a3>
        <adm0_a3>NZL</adm0_a3>
        <admin>New Zealand</admin>
        <geonunit>New Zealand</geonunit>
        <id>NZ.X05~</id>
      </desc>
    </path>
    <path d="M 594.843 586.63 595.0277 587.2702 594.3628 589.8063 593.895 590.0956 591.1619 589.8586 590.3032 589.3139 590.2509 588.2705 590.6448 587.8242 592.8793 586.2022 593.9412 586.1098 594.843 586.63 Z" id="NZ.X04~" fill="#cee3f5" stroke="#6e6e6e" stroke-width="0.4">
      <desc>
        <adm1_code>NZL-5477</adm1_code>
        <iso_a2>NZ</iso_a2>
        <name>Antipodes Islands</name>
        <type/>
        <code_hasc>NZ.X04~</code_hasc>
        <region>New Zealand Outlying Islands</region>
        <labelrank>20</labelrank>
        <name_len>17</name_len>
        <fips/>
        <fips_alt/>
        <woe_id/>
        <woe_label/>
        <woe_name/>
        <latitude>-49.6532</latitude>
        <longitude>178.801</longitude>
        <sov_a3>NZ1</sov_a3>
        <adm0_a3>NZL</adm0_a3>
        <admin>New Zealand</admin>
        <geonunit>New Zealand</geonunit>
        <id>NZ.X04~</id>
      </desc>
    </path>
    <path d="M 133.3653 524.7718 132.8483 525.8059 133.2545 526.5261 130.7615 526.3168 132.6697 524.938 133.3653 524.7718 Z" id="NZ.X07~" fill="#cee3f5" stroke="#6e6e6e" stroke-width="0.4">
      <desc>
        <adm1_code>NZL-5480</adm1_code>
        <iso_a2>NZ</iso_a2>
        <name>The Snares</name>
        <type/>
        <code_hasc>NZ.X07~</code_hasc>
        <region>New Zealand Outlying Islands</region>
        <labelrank>20</labelrank>
        <name_len>10</name_len>
        <fips/>
        <fips_alt/>
        <woe_id/>
        <woe_label/>
        <woe_name/>
        <latitude>-48.0227</latitude>
        <longitude>166.608</longitude>
        <sov_a3>NZ1</sov_a3>
        <adm0_a3>NZL</adm0_a3>
        <admin>New Zealand</admin>
        <geonunit>New Zealand</geonunit>
        <id>NZ.X07~</id>
      </desc>
    </path>
    <path d="M 162.9217 495.991 164.2668 495.0399 165.1378 494.9722 165.504 495.4739 164.0852 496.2495 162.9217 495.991 Z M 173.9096 479.029 172.9032 479.4445 172.1552 478.8167 172.7554 478.0626 173.8142 478.1057 173.9096 479.029 Z M 207.221 477.0715 207.815 477.9118 206.5623 479.3183 205.4112 478.1057 206.5438 477.8964 207.221 477.0715 Z M 192.4505 488.9951 194.1587 489.7891 193.7431 490.5432 192.9675 489.7707 191.9334 490.0046 192.1704 490.9341 190.8808 491.3188 188.0584 491.3188 185.71 491.5989 184.7651 491.9005 181.1948 494.3197 180.5239 494.3074 178.7757 493.5626 176.9351 493.6672 176.0148 492.393 174.3066 493.1286 174.0481 494.1843 173.4479 493.8857 171.5089 494.9537 172.266 495.5693 174.5652 494.9568 173.6849 496.1664 172.4969 497.0467 172.026 496.1356 170.8164 497.1636 168.8589 497.6314 166.7906 497.5206 166.5813 496.7881 167.283 494.9106 168.1079 494.0673 169.616 493.5718 170.2716 492.8146 170.7148 491.5989 170.5271 490.1708 171.6012 489.0104 173.1155 488.438 174.5652 488.7365 175.2177 488.2256 174.7806 486.3143 174.9622 485.4986 176.5411 485.2986 177.6676 484.246 177.9693 483.3134 177.2737 481.6513 175.7655 479.9093 176.3688 479.0198 175.8394 477.9672 176.3442 476.2898 176.8674 475.7419 178.8588 475.5203 180.4561 475.8435 181.9027 475.2064 183.6786 475.8404 185.0606 476.7822 188.4339 480.0632 190.1421 481.0973 190.3606 481.6144 191.6841 482.0669 191.2347 483.7843 187.7999 483.5473 188.0584 483.0302 185.9285 482.9748 185.2145 483.2272 185.4884 484.3783 183.6448 486.1573 184.5989 486.0773 185.9162 484.9077 186.7472 484.6061 188.1753 485.2616 190.6222 485.8988 190.2991 486.9206 193.6139 486.1204 194.7773 487.1637 194.2602 488.7365 192.4505 488.9951 Z M 136.1723 434.8622 137.385 435.9763 137.8066 437.6538 137.2249 439.0849 135.7168 439.5097 133.8516 439.5097 133.3653 437.1644 132.8298 436.4503 132.1742 436.5088 129.8197 438.4632 128.41 438.968 128.9702 437.783 129.8566 436.9058 130.6969 435.6501 132.1003 435.5885 135.1289 434.8498 136.1723 434.8622 Z M 146.0891 417.7279 146.9755 420.3717 148.3882 422.9171 146.6123 422.9879 145.3319 422.2307 143.7684 421.7568 142.962 420.4641 145.8059 417.2108 146.0891 417.7279 Z M 230.0148 472.7471 229.1967 472.9257 229.2275 473.7721 228.3595 474.4923 226.5313 474.3323 225.6202 473.4335 225.1339 473.4797 225.1032 474.7508 224.0875 475.1633 220.4556 474.2338 218.5351 474.1845 218.0919 473.7382 216.8607 470.5588 211.3514 471.3745 211.8685 470.5958 210.1603 470.1218 208.2736 470.0787 209.2831 471.2298 209.3077 472.1408 207.2764 472.6087 200.7606 472.1408 201.2377 471.4883 202.3087 471.0082 204.1185 471.1313 204.5094 471.5622 205.602 471.7161 205.4112 470.8482 204.3155 470.5404 201.0191 470.5958 198.7385 469.8048 198.4122 470.4665 198.6523 471.236 199.8003 472.2578 199.2063 472.8149 197.8336 471.6515 196.9779 471.3652 196.547 470.4911 195.2728 470.0479 195.0358 469.2785 196.1993 469.0292 197.4919 469.42 199.471 468.2689 199.8219 467.2594 199.5602 466.0344 198.8585 465.1419 197.8982 465.148 198.2029 466.1021 197.8213 466.9886 197.0949 467.5303 196.3254 467.4687 195.1005 465.3912 193.0783 462.7781 192.4505 462.3072 191.3794 462.1071 187.6767 462.5657 187.132 462.7689 187.1474 463.8553 185.2822 463.3598 182.9369 463.3783 182.4075 464.1354 180.5854 463.8923 179.2373 464.3724 177.6615 463.4737 176.7905 462.4364 175.0823 461.5531 176.5781 460.9591 176.9351 460.4974 174.9992 458.7061 174.0573 457.6166 173.4818 456.5116 171.1796 456.2285 169.4006 455.4098 164.5191 454.9789 163.3742 456.8225 162.9217 458.4076 162.4324 458.8723 160.5764 458.9246 158.2496 459.7218 155.9443 459.2447 154.4977 459.3309 153.6975 459.7033 152.7464 459.1339 150.3273 458.3337 148.3882 458.4076 145.8059 457.9151 140.6136 458.0074 138.0837 457.6935 135.9507 456.6009 134.8242 455.539 134.8796 454.9389 136.3324 454.3941 137.7789 453.243 139.0716 451.9503 140.7429 449.4141 142.6296 448.8909 144.3593 447.8937 144.464 447.3397 142.1649 448.3123 139.6318 449.1002 139.0716 449.5834 138.9147 450.9777 137.5697 452.0211 137.4219 450.8946 136.4986 451.7995 135.3044 452.2888 132.5651 452.7043 132.6913 451.4455 133.6239 451.4117 133.7531 450.2021 134.1717 449.3803 135.9507 448.3123 138.2314 447.9306 139.2132 447.5982 139.8472 446.7426 137.2372 447.4936 135.9969 447.3212 135.3044 446.8719 137.3665 445.099 136.9726 444.1695 136.2031 444.6743 135.7168 445.5792 134.7873 446.0932 133.0637 448.0599 129.4688 448.8078 127.7883 449.8635 127.0188 448.7493 127.1604 448.0045 126.908 446.7426 126.9204 443.3416 127.1697 442.4644 127.7883 442.0951 130.2383 441.8365 133.7839 441.8119 134.9043 441.5872 138.2345 441.458 141.2784 440.8024 142.9128 440.9193 144.7718 439.7436 146.6062 439.1711 147.4064 438.7279 147.8742 437.94 145.6767 438.4571 142.962 438.2232 139.4287 438.9495 138.5484 438.7402 139.2501 437.6322 140.3643 436.9058 138.6777 436.3888 138.4161 434.6467 138.8408 434.025 140.7337 433.6187 142.6296 432.9077 143.7438 432.7754 145.7382 433.274 146.3199 432.7969 145.2889 432.2337 147.7327 431.6889 148.8407 431.1011 149.1638 430.1469 144.1316 432.0244 141.0199 432.4645 138.9362 433.2925 137.2619 433.5264 136.2924 433.3232 135.8338 432.0675 137.2372 429.913 137.9144 427.6354 138.296 427.0445 139.9857 426.4104 141.8324 426.9583 143.6576 427.8078 145.2889 428.0786 144.2732 426.2504 143.6822 425.9088 143.2205 426.7859 141.0353 425.8441 139.7488 424.6499 140.4874 423.5481 142.5988 422.1261 143.9746 423.3788 145.5474 423.9235 144.5194 424.9823 147.8065 424.4591 148.8838 425.2409 149.3116 425.9272 148.8838 426.7859 147.9112 427.3307 149.1361 427.7893 150.078 427.1861 150.7612 426.0042 152.6449 427.2014 152.8973 428.0909 153.836 429.1374 154.8671 429.6545 154.6578 428.4203 152.7003 426.6105 148.8838 423.9235 150.0687 423.1387 153.9129 422.3231 154.6116 422.3723 156.1844 423.9235 157.6679 424.1144 158.1573 423.271 156.8276 423.3203 155.8304 422.4739 156.1167 421.3443 155.0179 421.1443 152.6172 421.7998 149.5363 422.0276 148.8838 421.7537 148.2313 419.7439 147.3756 418.9005 147.271 417.2108 147.5418 416.5798 148.3882 416.1766 149.5147 416.1951 150.4104 416.6568 151.8877 418.1249 152.9588 418.5404 153.6298 418.0264 152.2663 417.2108 150.0964 415.4564 149.1638 415.401 150.6566 413.6682 151.5676 413.0373 152.4048 413.185 154.4423 415.4164 155.181 414.9394 156.9015 414.647 153.9622 413.7113 152.8757 412.4617 153.3189 411.246 154.2392 410.9967 158.0064 412.0616 158.9421 412.631 159.6069 412.394 155.0517 410.5165 154.7809 409.6609 157.3047 407.9804 159.5392 407.608 158.7667 406.8354 161.6752 405.592 162.9217 405.5366 163.4357 406.7062 164.2114 407.7372 163.6943 409.1807 164.7284 410.5411 164.4699 411.246 166.532 411.2737 165.9134 409.587 165.1286 409.0392 165.1224 407.5126 163.9282 404.8841 164.396 403.5852 165.5102 402.7481 166.8768 402.6188 168.0833 403.4529 168.351 403.9607 167.4061 405.7243 167.8924 406.7216 168.6465 406.2383 169.6591 404.5086 169.5791 403.7391 168.588 402.9512 167.8432 401.5108 169.7453 400.5166 169.893 399.5779 170.4932 399.224 172.4969 398.8084 173.2725 397.7989 174.1651 397.5435 175.5255 396.5462 176.6335 396.2108 177.7507 396.3954 179.422 397.4881 181.1948 398.4206 182.3582 400.095 182.626 399.6579 182.3582 398.0328 179.6898 396.5001 179.2496 393.8347 178.7203 392.8436 179.6128 391.9141 182.7461 389.3472 185.2145 387.9591 186.1624 387.0942 185.9716 385.8508 189.3757 385.8508 190.1821 385.0505 190.0766 384.3526 192.1302 383.8607 194.0416 383.7786 196.6645 384.8438 198.1772 386.292 199.0488 387.7168 197.3446 392.2647 195.269 393.5136 193.9986 394.6706 192.6618 396.2986 191.9347 397.7078 190.9732 400.5417 191.0826 401.9059 190.465 404.9313 189.6754 406.3717 190.25 409.0317 190.9849 410.2083 193.0957 411.9125 195.226 412.6161 195.3433 413.3334 193.9478 416.5367 194.1237 417.637 194.7648 418.9074 195.9609 420.6977 196.0234 421.7452 196.5394 422.8807 198.3961 423.5687 199.9088 423.6273 202.3987 423.4886 209.0281 421.3172 209.892 421.6495 211.0021 423.557 213.4139 425.9883 214.3481 427.3114 217.0999 427.8489 218.7533 427.2977 222.9045 423.0371 224.6049 422.3921 225.973 422.9628 229.4362 425.6834 230.1046 427.2919 228.5059 428.3453 225.8792 433.2099 223.5417 436.5734 222.9553 438.2503 222.7169 440.5018 223.1977 443.2712 224.9567 444.5006 225.5977 446.2674 225.4805 448.4485 225.8205 449.6681 227.8336 451.9196 228.2479 453.2075 228.1854 454.1691 228.6075 455.2167 229.8232 457.304 229.7411 459.7568 229.4948 460.8454 228.9476 461.8031 228.6701 462.9562 229.4479 464.9126 229.6277 466.7048 231.1913 468.1843 231.2382 468.9406 230.1398 470.7348 230.0148 472.7471 Z" id="NZ.SO" fill="#cee3f5" stroke="#6e6e6e" stroke-width="0.4">
      <desc>
        <adm1_code>NZL-3408</adm1_code>
        <iso_a2>NZ</iso_a2>
        <name>Southland</name>
        <type>Regional Council</type>
        <code_hasc>NZ.SO</code_hasc>
        <region>South Island</region>
        <labelrank>6</labelrank>
        <name_len>9</name_len>
        <fips>NZF8</fips>
        <fips_alt>NZ72</fips_alt>
        <woe_id>15021750</woe_id>
        <woe_label>Southland, NZ, New Zealand</woe_label>
        <woe_name>Southland</woe_name>
        <latitude>-45.6455</latitude>
        <longitude>167.928</longitude>
        <sov_a3>NZ1</sov_a3>
        <adm0_a3>NZL</adm0_a3>
        <admin>New Zealand</admin>
        <geonunit>New Zealand</geonunit>
        <id>NZ.SO</id>
      </desc>
    </path>
    <path d="M 426.2333 264.2949 426.855 264.3688 427.0089 265.5876 426.4918 267.2127 425.67 267.9329 423.6294 267.9329 421.8012 268.9671 421.6811 268.3207 423.6294 266.6464 424.2758 267.145 425.1129 266.908 425.7285 266.2801 425.6977 265.5876 424.8236 265.0275 426.2333 264.2949 Z M 403.6758 256.7604 403.4573 255.5508 403.6758 254.1812 405.2117 255.3846 404.8208 254.0458 404.8023 252.8731 405.2794 251.4327 406.2581 251.8574 406.5936 250.9864 407.4708 251.0541 407.3846 252.2914 408.348 251.8574 410.6717 249.8107 410.1547 251.8574 410.4563 252.4945 409.3544 253.4271 408.8651 255.2338 407.9509 255.2338 407.0553 255.9848 405.8642 256.3541 405.4856 257.0436 403.9067 257.5114 403.6758 256.7604 Z M 396.3399 262.3777 397.4894 262.399 398.4681 263.5624 399.5208 264.2949 399.53 263.1438 400.0655 262.7191 401.9861 262.0881 402.2816 261.6788 401.469 260.9155 400.0163 261.6849 399.8162 260.8662 400.758 260.0537 402.3985 259.3519 404.3222 259.1057 405.3563 257.9484 406.2889 257.4683 406.1473 259.2073 407.0553 259.3642 408.348 258.3362 408.585 257.536 411.2104 256.5265 412.74 256.7604 413.1463 257.7576 410.9149 258.0346 410.1547 259.1057 409.3237 258.9672 408.7266 260.343 406.3012 260.6816 405.7626 260.2691 404.1036 260.3245 403.5281 260.7031 404.4514 261.4572 403.8205 263.4085 403.8944 264.4365 405.3563 262.4913 407.8494 262.1404 409.179 262.0974 408.9943 263.4731 407.3877 263.07 407.5724 263.9133 406.7783 264.2949 406.5013 265.169 405.3656 265.5692 405.5564 266.1324 406.8152 266.7449 407.0553 267.2773 406.5167 268.9671 404.9716 269.8227 402.9002 270.2844 403.9344 271.2939 407.9325 269.5149 407.5724 268.45 409.9546 268.3146 411.1396 268.7516 412.0568 268.6654 416.0703 267.5882 416.8951 266.9049 412.6323 266.985 411.8044 267.5882 410.9334 266.9049 408.9051 267.5574 407.9078 267.5205 407.5724 266.3632 407.7663 265.7631 409.1236 264.8366 409.8961 263.2608 411.2104 263.4947 410.7148 264.6827 410.9334 265.8462 411.9213 264.2088 412.4107 263.7871 413.5557 263.784 412.7462 262.6698 413.3925 261.9004 413.1032 260.9216 412.4815 260.9155 411.8352 262.2728 410.1762 261.1278 411.2104 260.6816 412.4292 259.3088 413.7957 260.3984 415.3931 260.9955 416.6797 260.1399 417.3229 260.6262 417.9539 260.4169 418.7541 259.2534 419.8252 260.2568 419.9729 261.5156 418.9757 261.7526 418.9819 262.4913 419.6652 262.9407 420.3977 262.7375 423.3462 260.2937 424.1742 260.6262 423.8818 261.2787 421.9397 263.6394 421.6781 264.7443 420.0283 265.8462 418.7233 264.8366 418.7233 265.8462 419.5174 266.5017 420.016 267.4159 418.4648 267.9329 417.6892 268.6285 415.1777 268.7178 414.1682 268.9394 413.5557 269.4842 412.6477 269.1887 411.9829 269.7427 410.7025 269.7058 409.496 270.3983 410.2685 270.8261 411.7274 270.3983 412.5554 270.6106 414.3097 269.7427 415.5593 269.8412 417.4337 269.2256 418.8926 270.1859 422.586 269.361 424.1465 268.45 423.0877 270.2844 421.6811 271.4324 421.1056 272.4666 419.9237 272.7066 418.9942 271.8541 418.2063 272.4512 416.8613 272.3773 414.8268 275.4213 413.9281 276.3292 413.7957 277.5111 414.2759 279.207 415.1838 280.4166 415.2269 281.1491 416.1934 281.3954 416.2611 279.4502 418.3479 282.1402 419.0127 284.6517 419.8067 286.7231 420.3731 287.631 422.1705 288.0927 422.6599 288.8099 419.9668 292.6725 419.3143 293.4051 414.9183 296.9237 413.6054 295.6928 410.8184 295.3605 409.8372 294.9618 408.5747 294.9208 405.4124 295.4309 403.7121 296.2303 402.4261 295.0967 401.7342 294.911 400.6319 296.5371 398.6188 297.7528 396.985 298.3254 395.2729 299.2303 392.8611 300.8192 391.8135 302.9691 391.7315 304.0401 390.5705 305.6506 387.0565 306.6923 385.8174 307.1946 381.6036 310.1594 381.1502 310.7008 382.1548 311.2246 381.3808 312.8878 379.7743 314.4103 378.371 314.85 376.444 315.9152 375.7365 315.9093 374.771 315.1901 373.1527 314.5921 373.4302 313.0109 371.9683 312.1236 370.4986 310.0363 368.4856 309.3933 368.1689 309.0024 368.4152 307.9666 367.8523 306.9698 367.1214 304.9216 365.8979 304.2727 363.9396 303.8642 363.3102 302.6447 362.8998 302.4785 364.2093 299.2108 368.0243 295.5873 368.3761 294.8622 369.1931 291.7038 371.1748 289.6556 371.6752 288.567 373.8915 287.107 375.4941 285.6392 376.5612 284.2711 379.5554 281.6815 380.56 280.46 383.1945 280.0164 384.2812 279.1271 384.117 278.2828 384.4454 275.9121 384.7972 274.97 387.0213 274.0339 388.7646 272.742 392.0559 268.884 393.6273 267.7426 395.3823 265.8742 396.0273 264.551 396.3399 262.3777 Z" id="NZ.MA" fill="#cee3f5" stroke="#6e6e6e" stroke-width="0.4">
      <desc>
        <adm1_code>NZL-3401</adm1_code>
        <iso_a2>NZ</iso_a2>
        <name>Marlborough District</name>
        <type>Unitary Authority</type>
        <code_hasc>NZ.MA</code_hasc>
        <region>South Island</region>
        <labelrank>6</labelrank>
        <name_len>20</name_len>
        <fips>NZF4</fips>
        <fips_alt/>
        <woe_id>15021759</woe_id>
        <woe_label>Marlborough, NZ, New Zealand</woe_label>
        <woe_name>Marlborough</woe_name>
        <latitude>-41.638</latitude>
        <longitude>173.656</longitude>
        <sov_a3>NZ1</sov_a3>
        <adm0_a3>NZL</adm0_a3>
        <admin>New Zealand</admin>
        <geonunit>New Zealand</geonunit>
        <id>NZ.MA</id>
      </desc>
    </path>
    <path d="M 381.004 272.0038 382.0541 271.6879 383.4545 270.7645 384.7626 270.1582 386.8709 268.0622 389.2193 266.3078 390.1611 266.0031 390.5858 265.4522 392.2848 265.9446 393.442 265.1998 394.3592 264.0425 395.338 264.1964 395.2641 263.3716 396.3399 262.3777 396.0273 264.551 395.3823 265.8742 393.6273 267.7426 392.0559 268.884 388.7646 272.742 387.0213 274.0339 384.7972 274.97 383.4213 274.4502 381.9633 273.4124 381.004 272.0038 Z" id="NZ.NE" fill="#cee3f5" stroke="#6e6e6e" stroke-width="0.4">
      <desc>
        <adm1_code>NZL-3402</adm1_code>
        <iso_a2>NZ</iso_a2>
        <name>Nelson City</name>
        <type>Unitary Authority</type>
        <code_hasc>NZ.NE</code_hasc>
        <region>South Island</region>
        <labelrank>9</labelrank>
        <name_len>11</name_len>
        <fips/>
        <fips_alt/>
        <woe_id>15021758</woe_id>
        <woe_label>Nelson, NZ, New Zealand</woe_label>
        <woe_name>Nelson</woe_name>
        <latitude>-41.2508</latitude>
        <longitude>173.388</longitude>
        <sov_a3>NZ1</sov_a3>
        <adm0_a3>NZL</adm0_a3>
        <admin>New Zealand</admin>
        <geonunit>New Zealand</geonunit>
        <id>NZ.NE</id>
      </desc>
    </path>
    <path d="M 345.0155 251.8605 345.7972 251.842 349.9369 249.5275 353.7196 245.9664 355.3662 244.7445 356.7728 244.3198 356.1572 245.5694 356.6435 246.1511 357.3237 245.3663 357.9423 245.6063 358.838 245.117 358.6687 244.566 359.8352 244.1721 359.3089 243.3103 358.284 243.9074 357.2683 243.8243 358.7241 242.4116 360.4477 241.7283 367.9422 241.442 370.3952 241.6821 372.6513 242.1776 373.0237 242.5408 364.849 242.0299 364.2581 242.153 363.5071 243.3103 362.7561 245.5232 362.199 245.8926 362.3375 246.9729 361.1648 246.9483 361.6819 247.9578 362.713 248.4503 362.2513 250.2139 362.4544 250.8233 363.5071 250.3062 364.0272 251.3804 365.3291 252.393 368.5793 254.3597 369.0656 254.4951 371.3001 253.5779 371.8849 252.4514 372.5744 252.91 373.5962 251.9836 374.6642 252.6053 374.8396 254.846 376.0585 255.4215 376.3539 256.1695 375.9754 257.8407 376.2123 258.8749 375.6953 259.6289 373.8886 260.9155 375.1782 260.9155 375.9107 263.9564 375.4367 264.5535 375.1782 265.9108 376.2123 267.4159 377.1665 267.4282 377.5235 268.9671 377.9913 269.9889 377.1542 270.7522 377.2773 271.5955 378.7731 272.0603 381.004 272.0038 381.9633 273.4124 383.4213 274.4502 384.7972 274.97 384.4454 275.9121 384.117 278.2828 384.2812 279.1271 383.1945 280.0164 380.56 280.46 379.5554 281.6815 376.5612 284.2711 375.4941 285.6392 373.8915 287.107 371.6752 288.567 371.1748 289.6556 369.1931 291.7038 368.3761 294.8622 368.0243 295.5873 364.2093 299.2108 362.8998 302.4785 361.1917 302.2147 360.4998 302.4903 360.2613 303.4206 358.7213 306.3737 356.9896 307.9372 355.6216 308.7053 354.5153 308.9086 352.8697 309.0063 351.6775 309.9112 350.587 309.106 349.8208 307.8219 349.215 305.3379 348.4918 304.2219 347.8234 303.9053 346.3615 303.9287 345.095 303.4128 344.1335 302.1776 342.4761 302.1326 341.5458 301.8394 340.9204 300.7684 340.764 299.0466 339.263 298.0537 338.6103 296.3768 339.0559 294.5162 339.9588 293.9377 340.764 292.4055 340.8813 291.4732 340.4161 289.5794 341.0494 288.1565 343.0859 287.1598 344.9895 286.9389 345.3491 285.7194 345.9276 284.8438 347.4599 284.3337 347.925 283.9193 348.785 282.1115 349.2384 280.5831 349.8208 279.6509 351.615 278.6932 352.1192 277.3877 351.8495 276.4456 353.4052 275.9961 355.4926 276.3264 356.8489 275.7772 358.0529 274.5733 358.4594 271.7746 357.7831 271.0495 358.1818 270.4592 360.8399 269.6677 362.5832 268.4872 362.2705 267.6136 361.5747 267.2559 359.6946 266.8357 358.6822 266.3901 357.06 265.0924 355.7818 264.5882 354.66 263.2435 354.2574 262.4168 353.3036 261.9438 349.942 262.0884 349.2189 262.88 348.4175 262.6318 348.4918 260.9119 349.555 259.7842 349.6801 258.8656 348.2886 257.6988 347.2996 256.1138 345.7048 254.7496 345.0155 251.8605 Z" id="NZ.TS" fill="#cee3f5" stroke="#6e6e6e" stroke-width="0.4">
      <desc>
        <adm1_code>NZL-3403</adm1_code>
        <iso_a2>NZ</iso_a2>
        <name>Tasman District</name>
        <type>Unitary Authority</type>
        <code_hasc>NZ.TS</code_hasc>
        <region>South Island</region>
        <labelrank>6</labelrank>
        <name_len>15</name_len>
        <fips>NZG4</fips>
        <fips_alt/>
        <woe_id>15021757</woe_id>
        <woe_label>Tasman, NZ, New Zealand</woe_label>
        <woe_name>Tasman</woe_name>
        <latitude>-41.6713</latitude>
        <longitude>172.675</longitude>
        <sov_a3>NZ1</sov_a3>
        <adm0_a3>NZL</adm0_a3>
        <admin>New Zealand</admin>
        <geonunit>New Zealand</geonunit>
        <id>NZ.TS</id>
      </desc>
    </path>
    <path d="M 190.0766 384.3526 188.8125 383.4993 191.2963 382.7422 192.6721 381.5726 195.0358 380.4246 196.5224 379.3627 197.7689 378.2085 198.2706 376.6573 199.708 375.657 200.4251 374.7891 202.7643 374.6783 204.1678 374.4382 205.442 373.9642 207.0979 373.0655 208.0704 373.1455 209.3324 372.3914 209.9756 372.65 211.3514 373.9242 213.1489 374.1242 215.3033 373.6287 217.3624 372.7023 219.6431 371.0433 221.3975 370.1754 222.7886 369.2859 225.2017 368.3441 225.8004 367.9389 226.1619 366.9283 228.5565 365.8695 229.9938 364.6076 231.425 364.1213 234.1674 362.7701 237.1036 361.9053 237.7161 361.0558 238.9688 360.4248 240.6491 360.447 241.982 359.76 243.4963 359.443 244.7859 358.7166 247.1497 358.8951 249.1072 357.7687 250.4737 357.307 252.3204 355.4018 252.5697 354.5123 253.333 353.8537 254.7332 353.3659 255.0351 352.0316 256.6448 350.8312 261.6863 348.9907 262.4927 347.3902 263.8854 346.8055 264.5179 345.6728 266.7708 344.6263 267.8881 344.3678 269.5778 344.9095 272.0278 342.0471 270.8213 341.8747 269.033 343.6383 268.8576 342.4657 270.1411 341.3484 271.1208 340.812 271.4892 339.9542 274.2795 339.8131 275.1164 339.5162 275.1087 338.9262 276.8907 337.6581 280.0024 336.1623 283.3819 335.2728 284.85 334.4048 287.0494 334.1976 288.2756 333.2445 289.6607 332.7243 291.6766 330.7022 293.0124 329.9882 296.2441 325.8454 298.5433 324.7835 299.7529 323.26 300.7501 322.826 302.3383 320.7977 303.0123 320.4961 305.7177 316.3841 306.8927 315.1373 307.2505 313.057 309.0972 310.9425 309.8974 309.2343 310.9069 303.6604 311.581 302.2631 312.3227 300.1886 314.1694 298.3296 315.182 295.0917 315.7145 294.3469 316.0777 293.1127 316.8533 291.6753 316.1146 291.0351 316.0715 289.2531 316.6686 288.9207 318.9308 289.1792 322.5504 288.9207 324.4248 288.3205 327.995 286.5969 329.2816 285.5412 330.7128 285.4396 330.9744 284.5532 332.5502 283.2236 334.5139 279.721 335.1787 279.1116 335.5327 277.8866 336.9638 276.6924 338.8659 275.9384 338.7736 274.858 339.2845 274.1255 339.5031 271.9495 341.4698 271.2939 340.5157 269.7612 340.1771 265.5876 340.6696 263.9133 340.4356 261.9496 340.4356 257.8407 340.2263 255.994 341.3651 255.5785 343.021 253.6856 343.298 252.91 344.3076 252.6053 345.0155 251.8605 345.7048 254.7496 347.2996 256.1138 348.2886 257.6988 349.6801 258.8656 349.555 259.7842 348.4918 260.9119 348.4175 262.6318 349.2189 262.88 349.942 262.0884 353.3036 261.9438 354.2574 262.4168 354.66 263.2435 355.7818 264.5882 357.06 265.0924 358.6822 266.3901 359.6946 266.8357 361.5747 267.2559 362.2705 267.6136 362.5832 268.4872 360.8399 269.6677 358.1818 270.4592 357.7831 271.0495 358.4594 271.7746 358.0529 274.5733 356.8489 275.7772 355.4926 276.3264 353.4052 275.9961 351.8495 276.4456 352.1192 277.3877 351.615 278.6932 349.8208 279.6509 349.2384 280.5831 348.785 282.1115 347.925 283.9193 347.4599 284.3337 345.9276 284.8438 345.3491 285.7194 344.9895 286.9389 343.0859 287.1598 341.0494 288.1565 340.4161 289.5794 340.8813 291.4732 340.764 292.4055 339.9588 293.9377 339.0559 294.5162 338.6103 296.3768 339.263 298.0537 340.764 299.0466 340.9204 300.7684 341.5458 301.8394 342.4761 302.1326 344.1335 302.1776 345.095 303.4128 346.3615 303.9287 347.8234 303.9053 348.4918 304.2219 349.215 305.3379 349.8208 307.8219 350.587 309.106 351.6775 309.9112 352.8697 309.0063 354.5153 308.9086 353.0925 312.0533 352.6235 312.4441 349.8365 313.2376 345.5954 315.8546 342.7067 318.7804 340.9986 319.783 339.994 321.3035 338.8956 322.013 337.2187 322.5817 335.5418 322.7674 333.6851 323.8502 331.9183 325.6111 331.6095 326.7525 329.2798 327.7883 327.3059 328.2457 325.8674 331.7812 324.8941 332.4047 322.9983 332.3578 320.0237 332.6802 318.6204 332.9969 317.0139 332.821 315.6106 333.2216 314.2386 333.9272 312.3115 334.1109 310.7636 334.5721 308.2737 336.1982 307.359 337.9083 306.2059 338.6373 303.2235 339.3253 302.3987 339.2706 300.9407 339.9487 298.5837 342.939 297.1765 343.6485 293.381 345.0693 286.7555 348.9234 283.0812 351.9293 281.4473 351.7476 280.1535 351.8903 278.3437 352.4219 273.2583 354.5522 269.4589 355.5372 268.2862 356.0512 265.335 357.9705 264.3422 358.8187 263.2321 360.5933 261.2503 362.4754 260.5467 363.5015 259.675 364.1718 258.6509 365.5204 252.7564 369.0423 250.157 371.0749 248.14 372.8065 247.0299 372.3198 245.3804 372.4449 243.4416 374.6202 239.3608 376.3225 236.6168 377.5929 235.3855 377.3544 233.7828 376.6157 232.6571 376.645 231.2382 377.1883 228.8733 377.4541 227.0166 377.3818 225.414 377.5694 223.6785 378.1323 221.8765 379.1799 221.0713 380.245 219.7345 381.4314 218.4094 381.9884 216.8419 383.2216 215.2784 386.5949 214.4184 387.5487 212.9956 388.6197 211.9402 389.0927 209.4698 389.3409 202.0743 391.9071 197.3446 392.2647 199.0488 387.7168 198.1772 386.292 196.6645 384.8438 194.0416 383.7786 192.1302 383.8607 190.0766 384.3526 Z" id="NZ.WC" fill="#cee3f5" stroke="#6e6e6e" stroke-width="0.4">
      <desc>
        <adm1_code>NZL-3406</adm1_code>
        <iso_a2>NZ</iso_a2>
        <name>West Coast</name>
        <type>Regional Council</type>
        <code_hasc>NZ.WC</code_hasc>
        <region>South Island</region>
        <labelrank>6</labelrank>
        <name_len>10</name_len>
        <fips>NZG3</fips>
        <fips_alt>NZB3</fips_alt>
        <woe_id>15021752</woe_id>
        <woe_label>West Coast, NZ, New Zealand</woe_label>
        <woe_name>West Coast</woe_name>
        <latitude>-43.362</latitude>
        <longitude>170.402</longitude>
        <sov_a3>NZ1</sov_a3>
        <adm0_a3>NZL</adm0_a3>
        <admin>New Zealand</admin>
        <geonunit>New Zealand</geonunit>
        <id>NZ.WC</id>
      </desc>
    </path>
    <path d="M 304.893 409.788 304.3696 410.9289 301.815 414.3392 297.623 417.4139 295.5732 420.5687 294.6683 423.2649 293.7142 425.0131 294.8961 425.918 294.8222 426.7859 293.0678 428.4726 293.2987 429.7837 292.7724 430.4701 290.938 431.5627 291.2088 432.4922 290.3039 433.1663 289.1436 432.7754 289.6607 434.302 288.5434 434.8683 286.4197 435.0284 286.9922 435.7855 287.854 435.8717 286.9614 437.2444 284.9885 438.2232 284.2498 438.2662 284.2283 439.1527 286.2904 439.6851 286.7952 439.2511 289.2452 440.4269 288.5927 441.2917 285.995 441.8365 284.9885 442.8953 283.8528 443.1846 283.3788 444.1449 281.9692 444.8036 282.3139 445.1883 283.6774 444.9328 284.8254 444.2311 286.5367 443.7632 288.091 442.0951 289.516 441.5841 290.4547 442.1258 290.3224 444.1941 289.436 444.8836 287.854 444.8959 287.0384 445.887 279.2084 446.4594 275.9766 447.2289 273.1696 448.6755 270.9752 450.8977 270.3811 451.781 270.1226 453.3507 269.4301 455.1974 268.753 455.9145 267.1032 456.8594 264.167 457.8536 261.9787 459.8141 256.7433 462.418 255.4321 463.683 254.9212 465.6651 254.835 467.0563 253.7701 467.3302 252.579 467.9858 250.6553 467.5518 249.3626 467.5333 248.2577 468.1612 251.3017 468.2689 250.5445 469.5739 247.9961 470.5096 246.7465 471.2483 244.1672 470.7435 240.8986 472.1408 241.7019 472.9411 240.677 473.1658 238.2455 472.8364 237.5438 473.7167 236.5127 473.1996 234.5459 473.0765 233.2625 473.9075 231.0372 474.363 230.0338 473.9506 230.0148 472.7471 230.1398 470.7348 231.2382 468.9406 231.1913 468.1843 229.6277 466.7048 229.4479 464.9126 228.6701 462.9562 228.9476 461.8031 229.4948 460.8454 229.7411 459.7568 229.8232 457.304 228.6075 455.2167 228.1854 454.1691 228.2479 453.2075 227.8336 451.9196 225.8205 449.6681 225.4805 448.4485 225.5977 446.2674 224.9567 444.5006 223.1977 443.2712 222.7169 440.5018 222.9553 438.2503 223.5417 436.5734 225.8792 433.2099 228.5059 428.3453 230.1046 427.2919 229.4362 425.6834 225.973 422.9628 224.6049 422.3921 222.9045 423.0371 218.7533 427.2977 217.0999 427.8489 214.3481 427.3114 213.4139 425.9883 211.0021 423.557 209.892 421.6495 209.0281 421.3172 202.3987 423.4886 199.9088 423.6273 198.3961 423.5687 196.5394 422.8807 196.0234 421.7452 195.9609 420.6977 194.7648 418.9074 194.1237 417.637 193.9478 416.5367 195.3433 413.3334 195.226 412.6161 193.0957 411.9125 190.9849 410.2083 190.25 409.0317 189.6754 406.3717 190.465 404.9313 191.0826 401.9059 190.9732 400.5417 191.9347 397.7078 192.6618 396.2986 193.9986 394.6706 195.269 393.5136 197.3446 392.2647 202.0743 391.9071 209.4698 389.3409 211.9402 389.0927 212.9956 388.6197 214.4184 387.5487 215.2784 386.5949 216.8419 383.2216 218.4094 381.9884 219.7345 381.4314 221.0713 380.245 221.8765 379.1799 223.6785 378.1323 225.414 377.5694 227.0166 377.3818 228.8733 377.4541 231.2382 377.1883 232.6571 376.645 233.7828 376.6157 235.3855 377.3544 236.6168 377.5929 239.3608 376.3225 243.4416 374.6202 245.3804 372.4449 247.0299 372.3198 248.14 372.8065 248.4332 374.8997 247.9876 375.8358 246.385 378.0131 244.6612 379.8014 243.4142 381.4196 243.3126 382.2522 243.3087 389.1064 243.6253 390.6015 244.8058 390.9533 245.8807 391.6413 246.467 392.6243 247.069 395.1338 248.6638 396.2087 249.7231 396.0856 250.7551 397.098 252.8815 398.7202 255.6685 398.4563 256.888 398.8726 258.0372 399.9104 258.9324 401.2551 260.1285 403.9893 261.4418 406.2428 263.3963 408.2675 264.5767 408.7151 267.2582 408.8636 270.5924 408.3418 272.0348 408.3965 273.2231 409.489 273.0902 410.3197 273.6922 412.3405 275.2987 413.8376 278.9886 412.3347 284.8871 408.4845 287.7171 407.7164 289.2025 407.6929 292.3926 407.0793 299.1132 408.3978 303.0972 409.5483 304.893 409.788 Z" id="NZ.OT" fill="#cee3f5" stroke="#6e6e6e" stroke-width="0.4">
      <desc>
        <adm1_code>NZL-3407</adm1_code>
        <iso_a2>NZ</iso_a2>
        <name>Otago</name>
        <type>Regional Council</type>
        <code_hasc>NZ.OT</code_hasc>
        <region>South Island</region>
        <labelrank>6</labelrank>
        <name_len>5</name_len>
        <fips>NZF7</fips>
        <fips_alt/>
        <woe_id>15021754</woe_id>
        <woe_label>Otago, NZ, New Zealand</woe_label>
        <woe_name>Otago</woe_name>
        <latitude>-45.4296</latitude>
        <longitude>169.887</longitude>
        <sov_a3>NZ1</sov_a3>
        <adm0_a3>NZL</adm0_a3>
        <admin>New Zealand</admin>
        <geonunit>New Zealand</geonunit>
        <id>NZ.OT</id>
      </desc>
    </path>
    <path d="M 414.9183 296.9237 411.9829 299.2714 410.8872 300.6318 410.1547 302.2692 410.0931 304.0974 409.1513 305.4886 407.7016 307.1999 404.4514 309.1328 403.2788 310.564 402.2631 310.7086 401.7276 311.5981 400.6195 312.4107 400.7026 313.374 401.6075 314.322 401.072 314.8637 400.2964 314.0881 398.8005 313.925 397.1201 314.8637 395.1349 316.6673 394.3839 318.117 393.796 319.7759 392.9003 321.1671 391.2322 321.8104 392.0324 322.349 389.0961 327.0396 388.6806 328.3569 387.388 329.8404 386.2061 330.2898 386.3169 332.2627 385.1073 333.3738 384.8734 334.1678 382.8728 335.1835 381.3862 335.4113 379.8196 336.0084 379.3086 337.138 377.1572 338.446 372.0511 339.3725 370.7954 339.8003 369.7704 340.7482 366.8681 342.3056 365.4646 344.6202 364.3812 345.9498 364.7813 346.9778 364.3565 348.8429 364.2858 350.8497 363.7838 351.6021 364.5658 354.7708 365.6492 357.0084 364.4673 357.3624 366.5941 359.0213 364.098 359.1414 362.9715 359.4184 362.4021 360.3848 364.2858 360.7049 365.0706 359.9631 366.4802 359.7015 368.4408 359.7939 368.9579 360.905 369.475 361.0804 369.9921 359.1537 370.9923 359.6123 371.2817 360.5695 371.1647 361.6159 371.8203 361.7391 372.7406 360.6003 374.3595 360.6433 374.9412 361.4805 376.0092 360.6187 377.5912 361.7821 378.059 362.5301 377.7636 363.2872 378.2745 364.0844 378.413 365.1154 377.9975 367.2792 377.0557 367.7039 376.1231 368.5965 375.4367 368.4764 375.1997 369.2797 373.8886 369.5321 373.0914 367.7039 373.1499 366.5097 372.5128 365.5248 372.559 364.5091 371.4786 364.4876 371.8203 365.6356 371.2817 366.6574 371.2386 367.6916 371.6387 368.7073 372.8329 370.0738 369.3457 370.0277 367.9607 369.052 367.0958 369.249 364.3689 367.1099 364.3966 365.9311 363.3624 366.2973 360.2753 366.6205 359.2227 367.0268 357.0313 367.1837 353.7042 368.0548 352.1714 368.2333 351.996 367.6854 353.8519 367.1191 359.549 365.691 360.3985 365.2262 358.8842 364.6445 357.0313 364.5799 356.0033 363.5734 354.9876 363.2133 351.9714 363.8043 351.3404 364.2013 350.9803 365.1431 350.8079 367.1837 350.9803 367.9624 350.0139 368.7565 345.6369 369.2421 344.962 369.809 343.218 370.2462 342.4362 370.7479 338.5028 372.0929 331.2083 375.9463 328.8759 376.0455 325.5882 377.6884 323.603 378.0793 322.3134 379.0211 321.2484 379.2519 319.1927 380.0591 317.8782 381.2587 316.4378 381.788 314.1263 383.5793 313.2061 383.9671 312.452 383.7579 311.4534 384.2708 311.0085 385.0598 308.9587 387.7837 308.8109 390.3783 308.6047 391.0831 307.0042 392.5851 306.7826 393.7208 304.9421 394.4195 305.7793 395.1705 305.9762 396.4724 305.9762 399.3194 306.4102 401.1414 306.2717 402.5018 305.3114 402.9912 306.0255 403.5852 306.401 404.5024 306.0501 407.9804 304.893 409.788 303.0972 409.5483 299.1132 408.3978 292.3926 407.0793 289.2025 407.6929 287.7171 407.7164 284.8871 408.4845 278.9886 412.3347 275.2987 413.8376 273.6922 412.3405 273.0902 410.3197 273.2231 409.489 272.0348 408.3965 270.5924 408.3418 267.2582 408.8636 264.5767 408.7151 263.3963 408.2675 261.4418 406.2428 260.1285 403.9893 258.9324 401.2551 258.0372 399.9104 256.888 398.8726 255.6685 398.4563 252.8815 398.7202 250.7551 397.098 249.7231 396.0856 248.6638 396.2087 247.069 395.1338 246.467 392.6243 245.8807 391.6413 244.8058 390.9533 243.6253 390.6015 243.3087 389.1064 243.3126 382.2522 243.4142 381.4196 244.6612 379.8014 246.385 378.0131 247.9876 375.8358 248.4332 374.8997 248.14 372.8065 250.157 371.0749 252.7564 369.0423 258.6509 365.5204 259.675 364.1718 260.5467 363.5015 261.2503 362.4754 263.2321 360.5933 264.3422 358.8187 265.335 357.9705 268.2862 356.0512 269.4589 355.5372 273.2583 354.5522 278.3437 352.4219 280.1535 351.8903 281.4473 351.7476 283.0812 351.9293 286.7555 348.9234 293.381 345.0693 297.1765 343.6485 298.5837 342.939 300.9407 339.9487 302.3987 339.2706 303.2235 339.3253 306.2059 338.6373 307.359 337.9083 308.2737 336.1982 310.7636 334.5721 312.3115 334.1109 314.2386 333.9272 315.6106 333.2216 317.0139 332.821 318.6204 332.9969 320.0237 332.6802 322.9983 332.3578 324.8941 332.4047 325.8674 331.7812 327.3059 328.2457 329.2798 327.7883 331.6095 326.7525 331.9183 325.6111 333.6851 323.8502 335.5418 322.7674 337.2187 322.5817 338.8956 322.013 339.994 321.3035 340.9986 319.783 342.7067 318.7804 345.5954 315.8546 349.8365 313.2376 352.6235 312.4441 353.0925 312.0533 354.5153 308.9086 355.6216 308.7053 356.9896 307.9372 358.7213 306.3737 360.2613 303.4206 360.4998 302.4903 361.1917 302.2147 362.8998 302.4785 363.3102 302.6447 363.9396 303.8642 365.8979 304.2727 367.1214 304.9216 367.8523 306.9698 368.4152 307.9666 368.1689 309.0024 368.4856 309.3933 370.4986 310.0363 371.9683 312.1236 373.4302 313.0109 373.1527 314.5921 374.771 315.1901 375.7365 315.9093 376.444 315.9152 378.371 314.85 379.7743 314.4103 381.3808 312.8878 382.1548 311.2246 381.1502 310.7008 381.6036 310.1594 385.8174 307.1946 387.0565 306.6923 390.5705 305.6506 391.7315 304.0401 391.8135 302.9691 392.8611 300.8192 395.2729 299.2303 396.985 298.3254 398.6188 297.7528 400.6319 296.5371 401.7342 294.911 402.4261 295.0967 403.7121 296.2303 405.4124 295.4309 408.5747 294.9208 409.8372 294.9618 410.8184 295.3605 413.6054 295.6928 414.9183 296.9237 Z" id="NZ.CA" fill="#cee3f5" stroke="#6e6e6e" stroke-width="0.4">
      <desc>
        <adm1_code>NZL-3400</adm1_code>
        <iso_a2>NZ</iso_a2>
        <name>Canterbury</name>
        <type>Regional Council</type>
        <code_hasc>NZ.CA</code_hasc>
        <region>South Island</region>
        <labelrank>6</labelrank>
        <name_len>10</name_len>
        <fips>NZE9</fips>
        <fips_alt/>
        <woe_id>15021751</woe_id>
        <woe_label>Canterbury, NZ, New Zealand</woe_label>
        <woe_name>Canterbury</woe_name>
        <latitude>-43.4</latitude>
        <longitude>171.813</longitude>
        <sov_a3>NZ1</sov_a3>
        <adm0_a3>NZL</adm0_a3>
        <admin>New Zealand</admin>
        <geonunit>New Zealand</geonunit>
        <id>NZ.CA</id>
      </desc>
    </path>
    <path d="M 456.0267 99.2001 456.8577 98.8246 457.7872 99.8557 456.9562 100.1727 456.5006 100.8621 456.8269 101.9978 454.22 102.6349 453.4074 102.5365 450.9328 101.0837 450.0926 101.5269 450.0187 100.4312 450.3419 99.9695 452.5395 99.9695 453.6567 100.7421 456.0267 99.2001 Z M 444.1001 85.9839 444.6017 85.7192 445.6975 86.3563 446.1684 87.7875 445.522 88.3107 444.1739 88.2799 444.3771 87.372 444.1001 85.9839 Z M 454.737 77.8245 455.5096 79.2465 454.5985 79.742 453.4444 79.7851 452.7057 78.948 453.2566 78.2277 454.737 77.8245 Z M 470.0123 81.8503 471.0526 82.8845 470.3078 84.1556 469.1321 84.2049 468.7689 82.866 467.7101 83.2631 467.1068 82.8814 466.5928 81.4071 465.3648 81.5918 465.0816 80.5361 464.2075 80.7762 463.1303 80.3945 463.6289 79.4773 463.5427 78.4924 463.9859 77.4275 462.7055 76.7873 464.3122 75.6301 463.5643 75.0022 463.4196 74.245 463.8505 73.6602 464.8293 73.5402 465.5433 73.8911 466.0481 74.9437 467.1746 75.6301 466.5159 76.3564 468.0487 77.3075 469.7168 77.8399 468.9843 78.8679 468.6273 80.296 470.0123 81.8503 Z M 437.2781 120.1007 436.4578 118.5442 436.0669 117.3439 435.1805 115.9866 434.8112 114.8478 433.2076 112.4132 432.9429 111.3637 434.6265 111.5176 436.1377 111.1482 437.0672 111.6191 436.5625 112.6533 438.4646 115.648 438.6154 116.8668 439.1601 117.8148 439.8157 118.2334 440.222 117.3439 439.6588 115.7773 439.4987 114.54 441.5516 113.0996 441.7763 114.0106 443.3429 112.4963 444.2016 111.9515 445.1311 111.8777 447.0702 113.4474 447.698 112.838 447.2671 111.4683 445.3374 110.8466 444.6141 110.348 444.0262 110.5203 443.0659 108.7537 442.0964 109.6832 441.5485 109.3108 441.4747 108.4705 443.1736 107.2425 443.3244 106.8269 440.8868 106.4761 438.3291 106.5807 437.0672 106.8762 436.0669 107.4856 435.319 109.2923 434.645 109.6986 433.7493 109.0338 432.4074 110.2803 431.5148 110.5296 430.3206 109.5416 428.7879 105.2265 427.9568 101.6654 427.2428 99.9695 425.2822 97.0887 420.0714 91.7856 418.9573 90.0466 418.7233 88.3107 419.3451 88.3046 419.499 89.3633 420.4777 87.9537 421.555 88.0737 422.1213 89.3141 422.8784 89.8866 423.7341 91.1392 424.9098 91.5732 425.2422 92.3488 426.1902 93.1798 425.6977 93.6969 425.4392 95.045 427.0089 95.5867 427.3844 95.0542 428.1446 96.3439 428.9387 95.6175 429.5942 93.2352 429.268 92.4966 429.625 90.8068 428.8433 90.6591 428.8371 88.6862 429.5942 87.7936 428.5232 86.544 429.4527 85.2852 428.2646 84.685 426.578 85.8792 424.3558 86.0147 423.1585 85.7931 422.3275 85.1529 422.8846 83.2723 424.405 83.6601 426.775 83.3739 428.4678 82.2597 429.5942 81.8503 430.6222 81.0747 431.5517 80.7947 431.1639 79.7851 432.2779 79.1213 435.96 76.5649 436.647 76.2176 439.2463 79.3204 440.459 80.4315 443.0105 81.6472 442.8074 82.3674 442.1149 82.7275 442.3272 83.8356 443.9893 84.6173 440.8683 84.4819 440.222 84.5742 440.8468 86.661 441.4562 87.6674 441.2838 89.5972 440.5144 87.806 439.9173 87.055 438.9324 86.7349 439.6218 88.4031 439.0432 89.4587 439.9665 90.1143 438.9016 90.9084 438.6677 91.6717 439.0801 92.3396 439.1694 93.6231 440.2128 94.3494 441.7763 94.5279 443.3891 94.0201 444.0631 94.4818 441.3885 95.5867 439.9665 95.7006 440.5452 96.6332 442.8074 102.321 440.9576 101.6285 439.9665 102.0625 438.9755 100.8929 438.4399 99.8557 437.8921 99.8557 435.953 100.7328 435.6453 101.5762 436.981 101.41 436.3901 102.4072 437.3688 103.1428 437.3873 104.9741 438.3291 105.5066 438.3476 104.5247 439.3387 103.6198 440.816 103.0412 442.5765 103.3552 444.9465 103.3552 445.7713 103.7891 445.6482 104.931 444.7002 105.9652 445.2912 107.4425 445.9098 106.9685 446.9409 102.8381 447.1994 102.8381 448.3198 105.4881 448.2551 106.4761 450.0803 106.2606 450.5543 105.9775 449.7879 104.4262 450.6743 104.2477 452.6687 104.6232 453.1212 105.4881 452.6964 107.2148 453.7675 107.9996 456.1775 106.9439 456.7961 107.2271 458.0334 106.7531 458.7628 106.8085 460.3726 107.6333 461.9792 109.3477 459.9074 110.2226 458.6818 109.6099 457.8647 111.0397 457.0477 113.0823 456.8434 115.7377 453.371 116.1462 444.9963 117.7803 441.7282 118.5973 439.4813 119.8229 437.2781 120.1007 Z" id="NZ.AU" fill="#cee3f5" stroke="#6e6e6e" stroke-width="0.4">
      <desc>
        <adm1_code>NZL-3398</adm1_code>
        <iso_a2>NZ</iso_a2>
        <name>Auckland</name>
        <type>Unitary Authority</type>
        <code_hasc>NZ.AU</code_hasc>
        <region>North Island</region>
        <labelrank>7</labelrank>
        <name_len>8</name_len>
        <fips>NZE7</fips>
        <fips_alt/>
        <woe_id>15021756</woe_id>
        <woe_label>Auckland, NZ, New Zealand</woe_label>
        <woe_name>Auckland</woe_name>
        <latitude>-36.6334</latitude>
        <longitude>174.597</longitude>
        <sov_a3>NZ1</sov_a3>
        <adm0_a3>NZL</adm0_a3>
        <admin>New Zealand</admin>
        <geonunit>New Zealand</geonunit>
        <id>NZ.AU</id>
      </desc>
    </path>
    <path d="M 435.1867 173.5636 436.0669 170.8428 436.1685 164.3147 436.4824 162.9019 437.8121 160.5105 438.5815 157.722 438.7723 155.4967 439.1909 153.3545 438.4953 151.3385 438.6738 150.7722 439.9788 151.08 441.2838 150.7722 441.5301 151.5601 442.2688 151.5263 443.8508 152.6251 443.5614 151.5263 444.5587 151.2308 446.7932 151.2893 447.4795 150.4921 445.9098 150.4921 446.0176 149.7442 445.2604 149.181 444.2016 148.9194 443.4383 149.0856 442.7612 150.1566 442.1518 150.2551 441.7363 149.4672 442.3734 148.0514 443.5614 147.7005 445.3712 146.2909 444.9649 144.912 444.1001 144.8382 442.6781 146.8541 441.6347 146.254 441.4962 145.5584 441.7763 141.9696 442.7981 140.1876 444.5894 139.6674 446.7316 139.652 448.7722 139.3904 448.0889 138.6763 448.7814 137.3529 448.5137 136.7804 446.9409 137.556 446.4269 138.3316 445.7898 138.1008 444.6356 138.5224 443.9893 137.9192 441.5701 130.4924 439.3817 126.3035 438.9816 124.1613 439.7511 123.4965 441.2838 123.0502 442.9397 119.8708 441.0007 120.9603 439.9173 122.5054 439.3817 122.7178 438.5446 122.1453 437.2781 120.1007 439.4813 119.8229 441.7282 118.5973 444.9963 117.7803 453.371 116.1462 456.8434 115.7377 457.0477 113.0823 457.8647 111.0397 458.6818 109.6099 459.9074 110.2226 461.9792 109.3477 462.2316 111.2221 461.7545 113.8567 462.367 115.5434 463.5366 116.8268 464.9031 117.4547 466.5898 117.4947 468.3134 117.1408 469.7784 116.5683 470.4063 115.8758 471.3573 116.3682 471.5328 117.9625 472.0314 118.415 472.807 118.0087 472.1791 117.0515 471.5882 114.3615 470.8126 112.6717 470.8556 110.6773 469.6122 107.5718 468.9843 106.6884 467.1746 105.4173 466.6267 104.2293 466.9437 103.6383 467.9994 103.1428 468.141 102.0532 469.9631 100.899 469.7784 99.9695 468.9843 100.4928 468.535 99.7356 468.7504 98.9662 467.8948 97.8243 468.6519 95.9006 468.4672 95.045 467.3408 94.7311 466.3805 93.5184 464.2937 92.7859 463.6658 92.3211 463.1549 91.1977 463.0472 89.7388 463.358 89.2033 465.0509 89.3387 466.3066 89.1233 467.0915 90.2559 468.7904 91.2716 469.7784 90.3729 470.9049 92.0349 470.8403 93.0075 470.0123 93.7523 470.8033 94.2694 472.3392 94.4602 472.6223 95.4574 472.6223 96.9102 473.6442 97.8151 473.1394 98.9662 473.4041 100.0588 473.9335 100.1665 475.4601 99.2001 475.9587 98.5599 476.842 99.0031 478.3225 98.1659 479.5536 97.932 480.5354 98.5537 481.862 98.3383 481.9389 98.9662 481.3449 99.5971 480.2738 99.4832 479.3628 100.7759 477.4237 101.6654 476.2603 103.1212 476.6358 104.2693 477.5161 104.8448 478.384 104.02 478.0885 102.8319 478.581 102.321 479.412 102.6719 480.9571 102.401 481.825 102.9766 481.9174 104.3708 483.0008 106.1929 483.2316 107.9996 483.0746 111.062 483.7487 110.348 484.432 111.0559 484.3027 112.0069 483.1177 113.8567 484.2873 114.5031 484.3612 116.0697 483.8995 116.0666 483.7394 117.7132 485.3184 119.6707 485.909 122.933 484.3828 123.43 484.2147 124.843 482.573 126.772 483.4603 127.3779 483.3587 127.8685 480.9939 127.0887 480.2551 128.2046 481.1697 129.3675 480.7828 130.847 481.4082 131.8887 481.4356 133.0125 482.1821 134.3435 483.1242 135.5494 484.4649 138.1781 484.9418 141.225 486.2473 142.7221 485.9385 144.4361 486.9353 146.6485 489.433 147.2544 489.8669 148.3059 491.8448 149.5 494.5615 149.8577 496.8012 151.7261 496.7778 152.5665 497.5869 155.7366 498.0872 156.7724 499.553 158.7014 505.3225 160.7223 506.3154 161.4591 506.6671 162.9445 505.8267 165.9309 505.0762 166.9608 502.8052 166.0989 502.1446 166.4918 501.4488 168.0983 500.6006 168.4286 499.1113 168.0866 500.0847 166.7204 500.2097 165.5087 499.3029 165.0475 498.4508 165.1764 497.5048 165.8214 495.0266 166.0813 494.0377 165.1393 492.5367 164.2852 491.5673 165.067 490.7581 166.097 489.6988 166.3198 489.3353 167.1602 489.7418 167.9654 491.9308 168.4247 495.0618 169.4195 495.6442 169.9726 494.7452 171.5948 494.3152 173.0821 495.8162 174.4795 496.6722 175.9082 495.1712 176.6919 492.6383 175.9355 491.88 175.9121 491.278 178.017 493.7406 181.4763 494.7295 182.2014 495.8983 182.3949 496.7817 182.0021 497.4266 182.5219 498.142 185.9559 496.4025 188.2875 494.5145 190.1012 493.4904 189.8413 491.2819 190.4413 488.4011 190.3455 486.7516 190.5214 485.4421 191.8055 483.9294 192.2432 483.4799 192.6693 481.9163 195.2921 480.431 195.8746 478.8596 195.7319 475.4003 195.7671 472.1208 195.0127 471.9683 193.5253 473.6648 190.5429 474.1221 188.8054 473.313 187.4315 473.5358 186.5676 474.8413 184.7715 474.8218 183.9467 472.367 184.0347 471.0302 183.4386 471.6009 180.9701 470.866 180.2959 470.6471 179.3577 471.3468 178.3199 471.3312 177.2255 470.2328 176.4984 469.5566 175.4665 470.8934 173.8326 472.2146 171.0065 473.2934 170.0488 473.8954 168.9719 473.4107 168.5322 471.1709 169.3648 468.3175 168.1139 466.0034 168.1081 462.8529 168.5459 462.2119 168.0827 461.4223 168.5009 461.1565 169.3531 458.131 170.7798 457.2163 170.8599 454.1674 170.5765 453.4091 170.9967 452.5687 170.9029 450.9192 171.7453 448.5583 172.1029 448.4254 173.3029 447.4833 174.5303 447.413 175.1811 445.9901 175.5662 444.669 176.1994 442.48 174.7531 441.194 174.8059 437.8676 174.6378 435.1867 173.5636 Z" id="NZ.WK" fill="#cee3f5" stroke="#6e6e6e" stroke-width="0.4">
      <desc>
        <adm1_code>NZL-5468</adm1_code>
        <iso_a2>NZ</iso_a2>
        <name>Waikato</name>
        <type>Regional Council</type>
        <code_hasc>NZ.WK</code_hasc>
        <region>North Island</region>
        <labelrank>7</labelrank>
        <name_len>7</name_len>
        <fips/>
        <fips_alt/>
        <woe_id>15021765</woe_id>
        <woe_label>Waikato, NZ, New Zealand</woe_label>
        <woe_name>Waikato</woe_name>
        <latitude>-38.0409</latitude>
        <longitude>175.445</longitude>
        <sov_a3>NZ1</sov_a3>
        <adm0_a3>NZL</adm0_a3>
        <admin>New Zealand</admin>
        <geonunit>New Zealand</geonunit>
        <id>NZ.WK</id>
      </desc>
    </path>
    <path d="M 341.7094 1 341.3943 1.9301 340.5872 1.2921 341.7094 1 Z" id="NZ.X03~" fill="#cee3f5" stroke="#6e6e6e" stroke-width="0.4">
      <desc>
        <adm1_code>NZL-5476</adm1_code>
        <iso_a2>NZ</iso_a2>
        <name>Three Kings Islands</name>
        <type/>
        <code_hasc>NZ.X03~</code_hasc>
        <region>New Zealand Outlying Islands</region>
        <labelrank>20</labelrank>
        <name_len>19</name_len>
        <fips/>
        <fips_alt/>
        <woe_id/>
        <woe_label/>
        <woe_name/>
        <latitude>-34.1566</latitude>
        <longitude>172.135</longitude>
        <sov_a3>NZ1</sov_a3>
        <adm0_a3>NZL</adm0_a3>
        <admin>New Zealand</admin>
        <geonunit>New Zealand</geonunit>
        <id>NZ.X03~</id>
      </desc>
    </path>
    <path d="M 498.3099 252.7161 496.9895 255.2338 496.3801 257.0189 495.8045 257.7484 493.9332 258.3393 493.133 259.0257 492.0588 260.6816 490.8492 264.1287 490.0459 265.5599 486.214 269.6134 480.4431 273.2022 479.0488 274.3225 477.1529 275.3567 474.9399 276.2184 466.6082 281.143 464.0167 281.9217 462.1423 283.3344 461.5298 283.5252 458.6305 283.7314 458.0334 283.4821 456.5068 279.561 457.1162 276.7478 456.5253 276.0769 452.0039 274.7596 450.0095 274.858 449.1415 275.3197 447.2856 276.8402 445.9098 276.9941 444.5648 276.1384 444.9834 275.1043 444.6141 272.8636 445.7344 270.5799 445.9098 269.6134 445.4759 268.7639 444.4786 268.5423 442.5765 268.9671 441.5332 269.7058 441.0007 270.7768 442.7704 271.1154 443.306 271.4847 443.0659 272.3527 442.0595 272.9621 441.2377 272.6143 439.8373 273.3807 438.1075 273.1129 436.2608 272.3896 434.8758 271.3124 434.5188 270.0012 434.9558 269.2502 437.3627 268.7085 440.4036 266.2771 441.33 264.6643 443.6015 263.5686 444.1001 264.5535 444.7803 263.8763 444.6141 262.9838 443.6722 261.925 445.0696 260.8416 446.4361 260.3184 447.4826 259.1611 447.7165 257.8407 448.8615 255.5416 451.096 253.6856 452.0931 252.4118 453.2579 252.4381 457.2145 251.7951 462.1108 251.894 464.9299 251.3005 468.0952 252.1413 474.0672 251.639 479.9403 250.9435 487.2817 250.1707 492.3821 250.3253 495.8596 250.9435 497.0188 252.18 498.3099 252.7161 Z" id="NZ.WG" fill="#cee3f5" stroke="#6e6e6e" stroke-width="0.4">
      <desc>
        <adm1_code>NZL-5469</adm1_code>
        <iso_a2>NZ</iso_a2>
        <name>Wellington</name>
        <type>Regional Council</type>
        <code_hasc>NZ.WG</code_hasc>
        <region>North Island</region>
        <labelrank>6</labelrank>
        <name_len>10</name_len>
        <fips/>
        <fips_alt/>
        <woe_id>15021762</woe_id>
        <woe_label>Wellington, NZ, New Zealand</woe_label>
        <woe_name>Wellington</woe_name>
        <latitude>-41.2275</latitude>
        <longitude>175.2</longitude>
        <sov_a3>NZ1</sov_a3>
        <adm0_a3>NZL</adm0_a3>
        <admin>New Zealand</admin>
        <geonunit>New Zealand</geonunit>
        <id>NZ.WG</id>
      </desc>
    </path>
    <path d="M 452.0931 252.4118 453.2135 250.9802 454.9925 247.9578 456.0205 245.3786 456.7407 243.9628 457.0731 240.3002 458.0703 240.0385 457.6702 238.3119 458.058 237.327 458.532 235.1602 458.6179 233.2647 457.8026 232.0454 457.3132 229.577 456.5991 227.5364 455.5096 225.6805 452.6318 223.3813 451.8716 222.3256 448.4121 219.2909 445.7713 218.0105 443.6722 217.2503 441.0376 217.1241 442.0578 215.6592 443.7973 214.596 445.8299 213.0344 446.6781 212.8155 447.3074 212.1862 447.3934 210.652 448.6286 210.3197 449.3478 209.8233 448.7498 209.1412 448.785 207.3881 449.3752 205.6819 448.4996 203.401 446.7563 202.2049 445.6305 201.1144 445.2631 199.502 445.4703 198.1984 442.996 196.9475 444.1061 194.6101 445.1654 193.713 446.6976 193.3514 447.4677 192.04 450.6534 188.7859 451.7244 188.8543 451.8065 187.9611 451.056 187.4432 448.5504 186.9663 448.5583 185.7995 447.968 184.8321 446.4318 184.5741 445.5875 183.8275 445.2045 182.7702 445.3178 181.5213 444.7198 180.6183 443.4181 181.0991 442.3979 179.8346 442.0383 178.3766 443.2227 176.733 444.669 176.1994 445.9901 175.5662 447.413 175.1811 447.4833 174.5303 448.4254 173.3029 448.5583 172.1029 450.9192 171.7453 452.5687 170.9029 453.4091 170.9967 454.1674 170.5765 457.2163 170.8599 458.131 170.7798 461.1565 169.3531 461.4223 168.5009 462.2119 168.0827 462.8529 168.5459 466.0034 168.1081 468.3175 168.1139 471.1709 169.3648 473.4107 168.5322 473.8954 168.9719 473.2934 170.0488 472.2146 171.0065 470.8934 173.8326 469.5566 175.4665 470.2328 176.4984 471.3312 177.2255 471.3468 178.3199 470.6471 179.3577 470.866 180.2959 471.6009 180.9701 471.0302 183.4386 472.367 184.0347 474.8218 183.9467 474.8413 184.7715 473.5358 186.5676 473.313 187.4315 474.1221 188.8054 473.6648 190.5429 471.9683 193.5253 472.1208 195.0127 475.4003 195.7671 478.8596 195.7319 480.431 195.8746 481.9163 195.2921 483.4799 192.6693 483.9294 192.2432 485.4421 191.8055 486.7516 190.5214 488.4011 190.3455 491.2819 190.4413 493.4904 189.8413 494.5145 190.1012 494.71 191.8934 495.8396 193.2732 498.3921 193.8205 499.1504 195.8687 498.353 196.3788 497.8879 197.4928 498.0755 197.9678 499.983 198.9411 499.4983 199.9104 499.342 201.0655 499.5022 203.2134 498.6931 203.661 496.3009 204.3743 494.5497 206.1587 493.2481 206.9425 494.1276 207.2747 494.1158 208.336 495.097 210.1223 494.4051 211.3751 492.6539 216.2377 492.2474 218.7648 491.4227 221.6593 491.5204 222.3785 492.2122 223.0684 492.9745 223.2267 495.4409 223.1505 498.2475 224.9427 499.4475 225.2359 499.7368 226.7584 501.441 228.1714 501.3081 230.5226 502.3557 232.5474 502.4886 233.7141 502.1837 236.1474 503.3016 237.1129 504.6228 237.8184 508.6528 238.092 509.7669 238.5513 511.2836 239.6244 510.5904 240.7772 508.7191 240.651 507.9866 240.8326 505.789 243.5688 503.5361 245.2924 502.7881 247.0098 502.0341 248.0994 500.6306 248.795 499.184 251.6266 498.3099 252.7161 497.0188 252.18 495.8596 250.9435 492.3821 250.3253 487.2817 250.1707 479.9403 250.9435 474.0672 251.639 468.0952 252.1413 464.9299 251.3005 462.1108 251.894 457.2145 251.7951 453.2579 252.4381 452.0931 252.4118 Z" id="NZ.MW" fill="#cee3f5" stroke="#6e6e6e" stroke-width="0.4">
      <desc>
        <adm1_code>NZL-3334</adm1_code>
        <iso_a2>NZ</iso_a2>
        <name>Manawatu-Wanganui</name>
        <type>Regional Council</type>
        <code_hasc>NZ.MW</code_hasc>
        <region>North Island</region>
        <labelrank>6</labelrank>
        <name_len>17</name_len>
        <fips>NZF3</fips>
        <fips_alt/>
        <woe_id>15021764</woe_id>
        <woe_label>Manawatu Wanganui, NZ, New Zealand</woe_label>
        <woe_name>Manawatu-Wanganui</woe_name>
        <latitude>-39.8518</latitude>
        <longitude>175.627</longitude>
        <sov_a3>NZ1</sov_a3>
        <adm0_a3>NZL</adm0_a3>
        <admin>New Zealand</admin>
        <geonunit>New Zealand</geonunit>
        <id>NZ.MW</id>
      </desc>
    </path>
    <path d="M 441.0376 217.1241 439.628 217.1364 436.584 216.2623 433.2969 215.8991 432.392 215.4405 428.3662 212.5012 427.6429 211.8056 425.4392 209.1063 423.8941 207.8475 422.0043 207.0165 419.9637 206.5117 413.5157 205.7177 411.3212 205.139 406.2027 202.1781 404.8208 201.0209 403.6758 199.5035 402.9525 197.7522 402.7248 196.0286 402.9187 194.2927 403.4173 192.4861 404.5345 190.7963 406.2581 189.716 410.1547 188.3525 419.8314 183.6219 420.6624 183.428 425.6977 183.7112 427.5259 183.2341 429.188 182.2584 433.7216 178.5589 434.2941 177.7709 434.9558 175.4934 435.1867 173.5636 437.8676 174.6378 441.194 174.8059 442.48 174.7531 444.669 176.1994 443.2227 176.733 442.0383 178.3766 442.3979 179.8346 443.4181 181.0991 444.7198 180.6183 445.3178 181.5213 445.2045 182.7702 445.5875 183.8275 446.4318 184.5741 447.968 184.8321 448.5583 185.7995 448.5504 186.9663 451.056 187.4432 451.8065 187.9611 451.7244 188.8543 450.6534 188.7859 447.4677 192.04 446.6976 193.3514 445.1654 193.713 444.1061 194.6101 442.996 196.9475 445.4703 198.1984 445.2631 199.502 445.6305 201.1144 446.7563 202.2049 448.4996 203.401 449.3752 205.6819 448.785 207.3881 448.7498 209.1412 449.3478 209.8233 448.6286 210.3197 447.3934 210.652 447.3074 212.1862 446.6781 212.8155 445.8299 213.0344 443.7973 214.596 442.0578 215.6592 441.0376 217.1241 Z" id="NZ.TK" fill="#cee3f5" stroke="#6e6e6e" stroke-width="0.4">
      <desc>
        <adm1_code>NZL-3405</adm1_code>
        <iso_a2>NZ</iso_a2>
        <name>Taranaki</name>
        <type>Regional Council</type>
        <code_hasc>NZ.TK</code_hasc>
        <region>North Island</region>
        <labelrank>6</labelrank>
        <name_len>8</name_len>
        <fips>NZF9</fips>
        <fips_alt>NZ76</fips_alt>
        <woe_id>15021763</woe_id>
        <woe_label>Taranaki, NZ, New Zealand</woe_label>
        <woe_name>Taranaki</woe_name>
        <latitude>-39.3382</latitude>
        <longitude>174.414</longitude>
        <sov_a3>NZ1</sov_a3>
        <adm0_a3>NZL</adm0_a3>
        <admin>New Zealand</admin>
        <geonunit>New Zealand</geonunit>
        <id>NZ.TK</id>
      </desc>
    </path>
    <path d="M 431.1639 79.7851 430.2714 80.3576 428.8371 80.6839 427.5259 81.5918 427.2305 81.1517 425.1806 82.3674 423.3709 81.8503 423.5555 81.0224 425.5777 81.8319 426.3625 79.6559 427.4767 78.3139 427.766 77.1567 428.9787 77.0028 428.16 76.1995 426.7257 75.867 426.9104 77.0274 426.4087 78.3078 425.4884 79.3481 424.0172 78.9326 423.7864 78.0061 422.109 77.7107 421.9951 75.6608 420.3792 75.59 418.7233 76.6611 419.1235 77.7907 420.7947 78.0246 421.5611 78.7294 423.217 79.4681 423.8879 80.3022 422.3121 80.6777 421.3087 81.3117 420.5146 80.6531 419.4836 80.3514 417.8246 78.1754 417.1752 77.6953 414.6729 77.526 413.5095 76.4611 411.7551 75.5716 411.2258 72.8385 410.1393 71.9151 409.7053 70.7855 408.0679 69.6437 409.456 68.5941 409.8161 68.0093 409.6407 67.0614 409.022 66.4766 408.271 66.7628 409.1236 67.5784 408.8928 68.4033 407.4523 69.0343 407.2954 69.6437 409.496 72.2475 410.2839 72.6353 411.0719 75.2207 412.106 76.7904 413.3741 77.4214 413.7034 78.1539 414.7099 78.8679 416.7874 81.4533 418.3848 81.6318 417.9508 82.3951 419.0804 83.4908 419.499 84.3157 419.1912 85.1098 418.4402 85.6207 416.6797 86.2424 414.8484 86.2793 413.9435 84.9559 412.74 81.3117 407.8278 75.867 406.4674 73.651 389.4101 54.9532 389.447 53.6359 390.6935 52.2693 391.3245 49.9117 392.808 49.173 393.9468 50.3087 394.5716 50.1979 394.6178 48.3974 395.6458 49.7147 396.049 47.6126 396.7045 47.0862 397.9911 47.0862 398.385 46.0429 397.6187 45.5258 397.1601 44.6917 396.4275 44.704 396.0028 45.5104 395.3872 43.7314 394.7224 44.2977 395.6458 46.3106 395.4303 46.9847 394.0822 47.3079 393.1127 46.7908 392.8819 47.6341 391.543 48.185 390.8505 47.4833 389.4009 48.145 389.7333 48.6806 388.6529 49.4316 388.9115 49.9486 388.7822 52.7556 388.0004 52.8849 384.7564 49.173 384.3009 48.1512 384.4979 47.5202 385.7906 46.3106 384.8949 44.9348 384.2086 45.5258 383.4391 47.3694 381.8479 45.9598 381.9433 45.2488 383.279 44.4362 383.1621 43.8422 381.3769 44.5009 380.2012 43.9592 377.8005 41.6693 377.6097 40.432 378.1514 40.2227 379.5672 40.6505 380.7922 39.2501 381.5124 37.4742 381.6478 35.5352 381.143 33.6331 379.9365 31.2693 379.4379 30.6414 377.1603 28.7362 376.4647 27.9268 375.2921 25.4553 374.1287 24.772 366.4187 16.3664 364.8921 15.2769 361.6819 13.6795 362.713 12.3929 362.7684 11.1033 364.2396 11.8389 366.4556 11.919 367.4067 12.3929 367.8899 11.9744 369.0718 11.7528 370.2137 11.1218 374.5134 11.4357 375.1782 11.3342 376.4186 10.5678 377.0064 11.1003 375.9169 11.6727 375.6245 12.4299 375.6953 14.4551 375.449 15.2738 374.5195 15.4892 373.63 13.3963 372.5928 13.2455 372.1804 15.0276 371.2817 14.9475 370.5091 16.0063 372.0788 17.0836 374.0948 17.2251 374.1471 19.8936 374.6642 19.9028 375.0889 19.0164 375.1844 17.9023 374.9566 16.8127 375.3629 16.4187 375.9292 18.2716 376.3047 20.4846 376.7233 21.965 377.9513 23.1253 379.5118 24.2611 380.786 25.5445 381.143 27.1327 379.3025 25.326 378.6623 26.1508 380.2443 27.4805 385.2858 29.9243 384.0116 31.8695 383.9869 33.433 386.0029 33.9316 386.6031 33.5777 386.9232 32.7466 387.945 32.1095 387.8589 31.0477 387.3356 29.2194 387.5449 28.3853 389.1885 27.9914 390.3334 27.0373 390.0749 25.9846 390.8043 25.6461 391.2322 26.3786 390.9798 27.6713 392.1247 27.1973 393.0388 28.4254 391.4907 28.9609 389.9087 28.9609 389.29 29.6965 389.8533 31.0815 390.7212 32.1403 392.097 32.9867 392.925 33.116 394.7594 32.9405 395.4857 33.1437 396.1875 33.9131 396.7045 33.116 395.4396 31.8818 395.7566 30.6322 396.2552 30.6075 397.1939 31.5678 397.6464 31.1862 398.5943 31.3247 398.9945 32.1588 401.7522 32.3681 402.3093 33.2976 403.1772 33.4576 402.6232 34.9257 401.4075 35.7783 402.7617 37.0156 403.5496 36.9663 403.6758 36.2154 404.4514 34.9257 404.7192 33.7162 406.0365 33.3407 407.6001 33.5777 408.5727 34.6641 410.6933 36.2184 411.4504 37.8404 412.6477 37.9943 414.8268 37.7881 416.6674 38.5114 417.3937 39.2932 417.6923 40.2442 416.1195 40.6505 415.6886 40.512 415.3654 39.3609 414.4759 39.601 414.0266 39.0808 412.7216 39.7456 413.7957 40.8906 412.5123 41.0229 412.9832 41.9432 413.7957 41.6631 414.5714 41.9771 415.3654 41.6631 415.8271 42.2571 415.3654 43.7314 415.6055 44.2054 417.0305 45.4181 417.8031 46.9262 418.1816 45.7936 419.7606 46.3106 420.0468 45.5289 420.9055 46.0767 421.2164 45.1842 418.9819 44.7163 418.0524 44.3224 418.4771 43.5529 421.3087 43.7314 421.4195 43.1774 422.7338 43.2697 422.9831 42.5895 425.1806 40.8906 425.4761 41.8232 424.6389 43.3621 424.405 44.2423 424.6943 45.1411 425.3345 45.5258 427.0089 45.5596 426.6457 46.3291 427.8029 47.4833 427.2428 47.8865 424.7682 46.0983 426.4179 49.1792 427.2674 49.7147 428.8186 49.9486 429.7851 50.5119 430.8808 52.3001 429.5635 52.928 431.5394 54.2453 433.3677 55.8273 433.7031 56.7199 433.2076 58.0002 432.6321 57.7355 430.2498 57.4832 430.4807 58.111 431.9119 58.7512 432.6905 59.69 432.2258 60.3517 431.3979 60.6102 433.62 61.7244 434.0079 62.1307 433.7863 63.5034 434.7773 65.2516 433.737 65.4794 431.3979 63.9897 431.6625 63.2818 430.5792 63.0233 430.6222 62.4138 428.2708 62.8478 426.4672 62.1307 426.1594 61.1396 425.2637 61.1581 425.4453 63.2079 425.1129 64.2328 425.1683 65.1931 426.0209 65.5655 426.8704 64.3406 427.5567 64.2421 430.0652 64.5068 430.8808 64.7407 431.5056 65.3993 431.3486 66.1442 429.8528 67.5784 430.4745 68.1201 430.6222 70.6994 431.0839 71.1734 433.4908 72.5061 434.9066 72.5768 435.6884 73.254 435.319 74.3374 435.5098 75.2299 436.647 76.2176 435.96 76.5649 432.2779 79.1213 431.1639 79.7851 Z" id="NZ.NO" fill="#cee3f5" stroke="#6e6e6e" stroke-width="0.4">
      <desc>
        <adm1_code>NZL-3404</adm1_code>
        <iso_a2>NZ</iso_a2>
        <name>Northland</name>
        <type>Regional Council</type>
        <code_hasc>NZ.NO</code_hasc>
        <region>North Island</region>
        <labelrank>6</labelrank>
        <name_len>9</name_len>
        <fips>NZF6</fips>
        <fips_alt/>
        <woe_id>15021755</woe_id>
        <woe_label>Northland, NZ, New Zealand</woe_label>
        <woe_name>Northland</woe_name>
        <latitude>-35.5874</latitude>
        <longitude>173.981</longitude>
        <sov_a3>NZ1</sov_a3>
        <adm0_a3>NZL</adm0_a3>
        <admin>New Zealand</admin>
        <geonunit>New Zealand</geonunit>
        <id>NZ.NO</id>
      </desc>
    </path>
    <path d="M 485.909 122.933 486.9619 125.2662 486.8973 127.0114 488.4177 127.2053 489.7289 127.7624 490.88 128.6118 492.1789 130.6924 492.0588 131.5973 490.3322 131.5481 489.7104 131.0803 491.2832 130.5632 488.07 128.501 485.3184 128.7288 486.0724 129.529 486.0848 130.8433 487.3651 131.0803 487.1281 131.8497 487.3651 132.8839 488.7163 133.0808 489.8643 132.8931 490.7661 134.4597 491.354 134.1304 492.4374 134.9768 493.4223 134.0781 494.8658 134.7737 495.0905 136.2172 496.731 136.0048 496.2139 134.1766 495.3644 133.0501 496.4078 132.8839 497.7467 134.8044 501.9848 136.3249 503.5114 136.6819 504.4225 137.396 507.0817 137.8145 514.6347 142.1851 516.1675 142.7699 518.5559 143.0838 520.8335 143.7794 523.4065 144.0749 525.4748 145.1213 528.9928 145.4968 528.011 146.4663 529.7592 147.4482 530.7933 147.7005 531.372 147.0419 531.5689 145.9954 532.7416 146.6418 535.2162 146.6418 535.9456 147.4112 536.6381 146.5033 538.4479 146.1247 541.8366 145.9308 543.4247 144.992 546.3487 143.5516 547.5059 142.7699 548.0507 142.0189 548.0476 141.0555 549.0264 139.532 550.6022 138.8487 551.187 138.1839 551.6179 136.7989 553.2307 134.5644 556.998 133.7026 558.4446 133.4933 559.8419 131.979 560.4236 131.7297 562.8089 131.3388 563.4368 130.5386 562.8089 129.529 566.0348 129.8434 566.0308 130.4698 565.2725 131.4197 562.2861 132.2913 562.1923 132.733 562.7552 134.1656 562.7278 135.4047 562.2587 137.0249 563.1226 137.5878 564.0803 136.9429 564.9754 136.9839 565.3389 137.7891 564.2913 139.2178 562.8646 140.3201 560.9102 143.2811 558.7525 149.242 557.2124 150.874 555.5942 150.0746 554.0736 149.0935 552.6664 147.9248 551.357 147.6218 551.1733 151.1437 550.3798 151.8356 549.9772 152.7502 548.867 153.2349 547.1002 154.5014 544.0904 155.2949 543.8442 157.9216 543.0741 159.1197 541.6357 160.1692 537.0662 161.6585 534.5177 163.0657 534.9398 165.6338 534.291 166.6208 532.6805 167.1309 531.5509 168.7628 529.7684 169.2886 529.2329 169.9882 527.7632 170.2775 526.3912 171.2801 525.8009 172.3922 524.683 173.4573 522.67 173.2599 520.481 172.2495 517.2562 172.9316 515.1923 173.9518 514.4106 174.8508 514.4966 176.7681 514.0119 177.5108 514.1721 178.7421 512.7376 180.2705 510.8652 181.8047 510.3024 182.6861 510.1734 184.5174 508.2932 184.7109 505.5297 184.7011 503.6495 186.5344 504.0404 188.8484 502.942 189.0771 502.0469 189.6028 502.4808 190.3807 501.8788 190.9299 498.9511 190.1833 496.4025 188.2875 498.142 185.9559 497.4266 182.5219 496.7817 182.0021 495.8983 182.3949 494.7295 182.2014 493.7406 181.4763 491.278 178.017 491.88 175.9121 492.6383 175.9355 495.1712 176.6919 496.6722 175.9082 495.8162 174.4795 494.3152 173.0821 494.7452 171.5948 495.6442 169.9726 495.0618 169.4195 491.9308 168.4247 489.7418 167.9654 489.3353 167.1602 489.6988 166.3198 490.7581 166.097 491.5673 165.067 492.5367 164.2852 494.0377 165.1393 495.0266 166.0813 497.5048 165.8214 498.4508 165.1764 499.3029 165.0475 500.2097 165.5087 500.0847 166.7204 499.1113 168.0866 500.6006 168.4286 501.4488 168.0983 502.1446 166.4918 502.8052 166.0989 505.0762 166.9608 505.8267 165.9309 506.6671 162.9445 506.3154 161.4591 505.3225 160.7223 499.553 158.7014 498.0872 156.7724 497.5869 155.7366 496.7778 152.5665 496.8012 151.7261 494.5615 149.8577 491.8448 149.5 489.8669 148.3059 489.433 147.2544 486.9353 146.6485 485.9385 144.4361 486.2473 142.7221 484.9418 141.225 484.4649 138.1781 483.1242 135.5494 482.1821 134.3435 481.4356 133.0125 481.4082 131.8887 480.7828 130.847 481.1697 129.3675 480.2551 128.2046 480.9939 127.0887 483.3587 127.8685 483.4603 127.3779 482.573 126.772 484.2147 124.843 484.3828 123.43 485.909 122.933 Z" id="NZ.BP" fill="#cee3f5" stroke="#6e6e6e" stroke-width="0.4">
      <desc>
        <adm1_code>NZL-3399</adm1_code>
        <iso_a2>NZ</iso_a2>
        <name>Bay of Plenty</name>
        <type>Regional Council</type>
        <code_hasc>NZ.BP</code_hasc>
        <region>North Island</region>
        <labelrank>6</labelrank>
        <name_len>13</name_len>
        <fips>NZE8</fips>
        <fips_alt/>
        <woe_id>15021753</woe_id>
        <woe_label>Bay of Plenty, NZ, New Zealand</woe_label>
        <woe_name>Bay of Plenty</woe_name>
        <latitude>-38.2161</latitude>
        <longitude>176.858</longitude>
        <sov_a3>NZ1</sov_a3>
        <adm0_a3>NZL</adm0_a3>
        <admin>New Zealand</admin>
        <geonunit>New Zealand</geonunit>
        <id>NZ.BP</id>
      </desc>
    </path>
    <path d="M 566.0348 129.8434 573.6121 130.1415 574.4954 130.36 574.4554 131.0803 576.0251 132.3729 577.2932 132.6346 578.6228 132.6253 579.817 133.2809 581.476 133.3825 582.507 133.6595 583.9321 134.7306 584.523 135.4969 584.4522 136.1341 583.4181 137.4267 581.993 138.6148 580.7034 141.3048 579.343 142.062 578.7983 142.893 577.7364 145.266 576.4068 146.8757 576.5668 148.1745 577.524 149.7873 577.3209 150.7722 575.9451 151.7325 575.5758 152.3296 576.5237 153.9239 576.3945 154.6811 575.3665 156.0784 575.1572 156.8602 576.8038 158.7807 575.742 160.095 575.231 161.9017 576.0805 162.3018 576.019 163.5514 574.4308 164.4716 574.4616 166.9185 574.2523 167.2263 569.9864 170.9536 566.1299 173.6282 565.4651 173.9083 563.9723 172.8218 563.009 172.6525 560.9314 173.4312 560.7222 174.6008 561.7501 175.6072 560.756 177.8263 560.7222 179.8146 560.3159 182.0307 559.7988 183.1448 558.6024 181.6583 556.8619 181.4262 552.8007 178.6414 546.5349 173.0717 546.4188 170.1709 543.0538 168.4304 542.3576 170.403 534.291 166.6208 534.9398 165.6338 534.5177 163.0657 537.0662 161.6585 541.6357 160.1692 543.0741 159.1197 543.8442 157.9216 544.0904 155.2949 547.1002 154.5014 548.867 153.2349 549.9772 152.7502 550.3798 151.8356 551.1733 151.1437 551.357 147.6218 552.6664 147.9248 554.0736 149.0935 555.5942 150.0746 557.2124 150.874 558.7525 149.242 560.9102 143.2811 562.8646 140.3201 564.2913 139.2178 565.3389 137.7891 564.9754 136.9839 564.0803 136.9429 563.1226 137.5878 562.2587 137.0249 562.7278 135.4047 562.7552 134.1656 562.1923 132.733 562.2861 132.2913 565.2725 131.4197 566.0308 130.4698 566.0348 129.8434 Z" id="NZ.GI" fill="#cee3f5" stroke="#6e6e6e" stroke-width="0.4">
      <desc>
        <adm1_code>NZL-3396</adm1_code>
        <iso_a2>NZ</iso_a2>
        <name>Gisborne District</name>
        <type>Unitary Authority</type>
        <code_hasc>NZ.GI</code_hasc>
        <region>North Island</region>
        <labelrank>7</labelrank>
        <name_len>17</name_len>
        <fips>NZF1</fips>
        <fips_alt>NZ31</fips_alt>
        <woe_id>15021761</woe_id>
        <woe_label>Gisborne, NZ, New Zealand</woe_label>
        <woe_name>Gisborne</woe_name>
        <latitude>-38.3442</latitude>
        <longitude>177.93</longitude>
        <sov_a3>NZ1</sov_a3>
        <adm0_a3>NZL</adm0_a3>
        <admin>New Zealand</admin>
        <geonunit>New Zealand</geonunit>
        <id>NZ.GI</id>
      </desc>
    </path>
    <path d="M 559.7988 183.1448 559.4295 185.2562 559.7588 186.0041 558.6785 187.8662 561.2916 188.0878 562.5381 188.5864 563.0675 189.5406 561.0053 191.1934 560.1097 193.0985 559.7803 194.3112 558.1368 195.607 557.1026 193.2894 556.8195 192.0767 557.0441 190.3408 558.0506 188.3125 556.8041 188.0509 556.3085 188.6357 554.1818 187.6939 548.2077 187.4784 542.0828 187.3492 540.9194 186.8629 539.9406 187.5585 527.7463 192.1721 526.2197 195.0376 525.2994 196.0102 522.9264 197.8199 522.5078 198.8602 521.7691 199.7713 521.7445 201.5564 522.9264 202.5844 523.1972 203.3539 523.4188 206.8749 523.8036 208.2476 526.6383 209.7373 528.5865 209.6234 529.7869 209.8666 528.4111 212.3565 526.666 213.1321 526.3705 213.5538 525.5118 216.0776 525.5118 216.8779 524.5792 217.2534 524.0713 217.989 522.8156 221.3223 521.3198 223.8399 521.2582 225.7236 519.1345 229.18 517.6141 230.8789 515.9643 232.0516 514.6224 231.5591 513.2558 232.8364 514.0807 233.4274 511.6523 237.2346 511.2836 239.6244 509.7669 238.5513 508.6528 238.092 504.6228 237.8184 503.3016 237.1129 502.1837 236.1474 502.4886 233.7141 502.3557 232.5474 501.3081 230.5226 501.441 228.1714 499.7368 226.7584 499.4475 225.2359 498.2475 224.9427 495.4409 223.1505 492.9745 223.2267 492.2122 223.0684 491.5204 222.3785 491.4227 221.6593 492.2474 218.7648 492.6539 216.2377 494.4051 211.3751 495.097 210.1223 494.1158 208.336 494.1276 207.2747 493.2481 206.9425 494.5497 206.1587 496.3009 204.3743 498.6931 203.661 499.5022 203.2134 499.342 201.0655 499.4983 199.9104 499.983 198.9411 498.0755 197.9678 497.8879 197.4928 498.353 196.3788 499.1504 195.8687 498.3921 193.8205 495.8396 193.2732 494.71 191.8934 494.5145 190.1012 496.4025 188.2875 498.9511 190.1833 501.8788 190.9299 502.4808 190.3807 502.0469 189.6028 502.942 189.0771 504.0404 188.8484 503.6495 186.5344 505.5297 184.7011 508.2932 184.7109 510.1734 184.5174 510.3024 182.6861 510.8652 181.8047 512.7376 180.2705 514.1721 178.7421 514.0119 177.5108 514.4966 176.7681 514.4106 174.8508 515.1923 173.9518 517.2562 172.9316 520.481 172.2495 522.67 173.2599 524.683 173.4573 525.8009 172.3922 526.3912 171.2801 527.7632 170.2775 529.2329 169.9882 529.7684 169.2886 531.5509 168.7628 532.6805 167.1309 534.291 166.6208 542.3576 170.403 543.0538 168.4304 546.4188 170.1709 546.5349 173.0717 552.8007 178.6414 556.8619 181.4262 558.6024 181.6583 559.7988 183.1448 Z" id="NZ.HB" fill="#cee3f5" stroke="#6e6e6e" stroke-width="0.4">
      <desc>
        <adm1_code>NZL-3397</adm1_code>
        <iso_a2>NZ</iso_a2>
        <name>Hawke's Bay</name>
        <type>Regional Council</type>
        <code_hasc>NZ.HB</code_hasc>
        <region>North Island</region>
        <labelrank>6</labelrank>
        <name_len>11</name_len>
        <fips>NZF2</fips>
        <fips_alt>NZ31</fips_alt>
        <woe_id>15021760</woe_id>
        <woe_label>Hawke's Bay, NZ, New Zealand</woe_label>
        <woe_name>Hawke's Bay</woe_name>
        <latitude>-39.5434</latitude>
        <longitude>176.605</longitude>
        <sov_a3>NZ1</sov_a3>
        <adm0_a3>NZL</adm0_a3>
        <admin>New Zealand</admin>
        <geonunit>New Zealand</geonunit>
        <id>NZ.HB</id>
      </desc>
    </path>
  </g>
</svg>