<?xml version="1.0" encoding="UTF-8"?>
<svg xmlns="http://www.w3.org/2000/svg" width="700" height="700">
  <g id="brunei">
    <path d="M 382.5061 250.7561 382.4351 250.5815 378.9127 241.9212 382.7794 225.4083 384.4744 214.1393 388.9502 203.8104 390.9365 190.7008 392.0224 176.6509 391.2141 164.5721 477.4232 112.3962 543.7379 84.9528 556.5837 83.3679 566.2599 87.1216 567.0106 93.7948 559.545 99.0499 543.5293 106.2027 539.2752 113.1053 530.7669 133.4793 529.2654 139.6103 525.8037 146.638 509.8715 161.3815 504.7415 169.5353 493.0591 181.2058 491.417 189.0848 490.9933 197.6524 487.6563 205.4785 479.4992 210.4973 470.4945 210.7091 461.0662 209.1201 451.6908 208.6169 440.1967 211.7685 430.9272 217.5818 414.4011 233.3399 405.7143 238.8089 386.9105 246.6879 382.5061 250.7561 Z" id="BN.BM" fill="#cee3f5" stroke="#6e6e6e" stroke-width="0.4">
      <desc>
        <iso_a2>BN</iso_a2>
        <name>Brunei and Muara</name>
        <type>Daerah-Daerah</type>
        <type_en>District</type_en>
        <code_hasc>BN.BM</code_hasc>
        <region/>
        <postal>BM</postal>
        <labelrank>9</labelrank>
        <fips>BX02</fips>
        <woe_id>20069846</woe_id>
        <woe_label>Brunei-Muara, BN, Brunei</woe_label>
        <woe_name>Brunei and Muara</woe_name>
        <latitude>4.90214</latitude>
        <longitude>114.92</longitude>
        <admin>Brunei</admin>
        <id>BN.BM</id>
      </desc>
    </path>
    <path d="M 382.5061 250.7561 381.8785 251.3359 381.5607 259.7976 385.3744 269.3054 395.2795 288.2151 398.2457 298.8088 399.9937 310.1705 402.4832 370.0644 405.5554 388.8152 414.7189 403.1034 424.7829 406.7582 432.3573 405.5135 436.1711 408.0162 435.0058 422.6885 430.2916 442.1014 426.4779 450.6822 420.9691 459.4088 408.6289 471.3083 408.469 471.2211 407.3037 470.5855 390.1685 461.1704 380.6077 447.8224 376.6086 432.1702 368.5839 417.2067 358.7053 405.0107 346.2842 392.9736 335.2403 379.0959 323.4548 367.3767 307.4849 357.4849 304.4127 344.6798 306.8228 329.0938 300.1488 318.6855 288.3368 317.9837 278.9084 316.7522 272.2874 308.1184 264.4216 300.0936 259.3631 288.3612 255.022 276.0392 272.8903 269.6121 283.6508 259.0393 291.5335 244.2124 310.0515 225.444 371.987 176.2085 391.2141 164.5721 392.0224 176.6509 390.9365 190.7008 388.9502 203.8104 384.4744 214.1393 382.7794 225.4083 378.9127 241.9212 382.4351 250.5815 382.5061 250.7561 Z" id="BN.TU" fill="#cee3f5" stroke="#6e6e6e" stroke-width="0.4">
      <desc>
        <iso_a2>BN</iso_a2>
        <name>Tutong</name>
        <type>Daerah-Daerah</type>
        <type_en>District</type_en>
        <code_hasc>BN.TU</code_hasc>
        <region/>
        <postal>TU</postal>
        <labelrank>9</labelrank>
        <fips>BX04</fips>
        <woe_id>20069848</woe_id>
        <woe_label>Tutong, BN, Brunei</woe_label>
        <woe_name>Tutong</woe_name>
        <latitude>4.64496</latitude>
        <longitude>114.671</longitude>
        <admin>Brunei</admin>
        <id>BN.TU</id>
      </desc>
    </path>
    <path d="M 255.022 276.0392 259.3631 288.3612 264.4216 300.0936 272.2874 308.1184 278.9084 316.7522 288.3368 317.9837 300.1488 318.6855 306.8228 329.0938 304.4127 344.6798 307.4849 357.4849 323.4548 367.3767 335.2403 379.0959 346.2842 392.9736 358.7053 405.0107 368.5839 417.2067 376.6086 432.1702 380.6077 447.8224 390.1685 461.1704 407.3037 470.5855 408.469 471.2211 408.6289 471.3083 405.3964 474.4253 402.3773 479.1527 402.6951 489.667 418.6915 483.1651 420.4395 492.1035 416.7317 501.5186 405.0257 518.9849 401.4238 528.9562 398.5635 550.1171 394.6439 557.6253 347.502 602.5955 323.3485 616.6321 302.2671 614.1955 299.7246 610.1435 295.9109 597.4311 293.4214 592.1739 289.3428 588.2675 278.4843 580.6268 246.2795 550.8851 238.9699 541.0595 233.9379 531.0352 223.2913 498.6318 216.8291 491.8651 207.3478 491.309 186.3723 495.0697 163.9667 490.6469 146.4872 489.4154 144.1036 484.7277 143.2031 477.0605 144.8451 474.0545 151.9959 467.8175 153.6909 462.8915 150.1949 440.0091 143.2031 429.4817 143.2031 415.1935 139.2305 400.839 136.2113 395.2111 130.8085 389.2522 129.1135 385.902 128.6368 381.8631 127.4715 378.4467 123.7637 377.0165 115.8715 376.8046 112.6934 375.2553 108.7737 364.7543 102.7353 360.8214 90.1288 356.0013 73.3908 342.9711 62.5853 337.3432 34.5121 333.0395 1 317.096 130.6265 321.4335 169.039 314.1556 204.4485 294.2403 255.022 276.0392 Z" id="BN.BE" fill="#cee3f5" stroke="#6e6e6e" stroke-width="0.4">
      <desc>
        <iso_a2>BN</iso_a2>
        <name>Belait</name>
        <type>Daerah-Daerah</type>
        <type_en>District</type_en>
        <code_hasc>BN.BE</code_hasc>
        <region/>
        <postal>BE</postal>
        <labelrank>9</labelrank>
        <fips>BX01</fips>
        <woe_id>20069849</woe_id>
        <woe_label>Belait, BN, Brunei</woe_label>
        <woe_name>Belait</woe_name>
        <latitude>4.45555</latitude>
        <longitude>114.408</longitude>
        <admin>Brunei</admin>
        <id>BN.BE</id>
      </desc>
    </path>
    <path d="M 589.0321 159.5673 589.3555 171.3007 594.0697 176.0811 600.9026 179.3122 607.5237 183.8012 620.395 202.0621 653.871 298.8352 656.0956 310.9915 655.3011 319.8637 651.1696 340.1241 650.9047 360.2918 653.765 381.9161 660.492 402.0573 672.304 417.7757 690.3132 434.699 697.7288 445.6635 699 456.2836 691.5844 464.3746 680.3551 463.9508 668.4902 458.7732 659.2208 452.5891 654.7185 450.9206 644.8663 451.3179 639.5165 449.0535 631.5183 442.3397 627.2279 440.8037 611.92 442.3397 601.2204 440.0356 572.0349 429.2168 565.2549 424.6748 561.1764 417.4049 555.032 366.8996 549.0466 346.7054 532.3086 306.7937 527.8593 286.9174 525.7935 245.2313 529.3816 204.6023 538.7747 214.2456 548.1589 208.2398 558.2938 196.9162 569.7633 190.8478 580.8574 188.5122 581.1911 182.5272 576.8118 174.4985 573.8089 165.9485 574.935 162.0071 578.2716 160.0052 583.0679 159.4004 588.8652 159.5673 589.0321 159.5673 Z" id="BN.TE" fill="#cee3f5" stroke="#6e6e6e" stroke-width="0.4">
      <desc>
        <iso_a2>BN</iso_a2>
        <name>Temburong</name>
        <type>Daerah-Daerah</type>
        <type_en>District</type_en>
        <code_hasc>BN.TE</code_hasc>
        <region/>
        <postal>TE</postal>
        <labelrank>9</labelrank>
        <fips>BX03</fips>
        <woe_id>20069847</woe_id>
        <woe_label>Temburong, BN, Brunei</woe_label>
        <woe_name>Temburong</woe_name>
        <latitude>4.60249</latitude>
        <longitude>115.191</longitude>
        <admin>Brunei</admin>
        <id>BN.TE</id>
      </desc>
    </path>
  </g>
</svg>