<?xml version="1.0" encoding="UTF-8"?>
<svg xmlns="http://www.w3.org/2000/svg" width="700" height="700">
  <g id="poland">
    <path d="M 582.992 68.346 578.2513 78.9429 559.4279 84.9385 553.7111 94.0016 573.2317 121.6093 568.9093 138.8989 529.8682 171.6656 502.2605 179.0555 494.1734 179.8921 488.0384 186.7243 479.1147 187.0032 474.0951 193.1382 447.7423 199.5521 428.7795 210.5673 421.9473 219.2121 392.1087 214.6109 383.4638 221.1642 378.8626 202.2014 352.0915 190.9073 341.4946 169.4347 351.2549 151.0296 365.477 145.3128 369.3811 136.2497 369.66 132.6245 357.3899 131.0907 358.6448 126.6288 348.0479 118.4023 346.6536 111.2913 352.3704 102.9253 349.3028 89.5398 358.2265 88.2849 356.8322 93.7227 363.1067 84.3807 379.5597 75.8753 382.4878 70.298 575.8809 74.3416 582.992 68.346 Z" id="PL.WN" fill="#cee3f5" stroke="#6e6e6e" stroke-width="0.4">
      <desc>
        <labelrank>5</labelrank>
        <code_hasc>PL.WN</code_hasc>
        <name>Warmian-Masurian</name>
        <admin>Poland</admin>
        <type_en>Voivodeship|Province</type_en>
        <region/>
        <woe_id>12577948</woe_id>
        <longitude>20</longitude>
        <woe_name>Warmian-Masurian</woe_name>
        <fips>PL61</fips>
        <woe_label>Warmian-Masurian, PL, Poland</woe_label>
        <latitude>53</latitude>
        <iso_a2>PL</iso_a2>
        <postal>WN</postal>
        <type>Województwo</type>
        <id>PL.WN</id>
      </desc>
    </path>
    <path d="M 382.4878 70.298 379.5597 75.8753 363.1067 84.3807 356.8322 93.7227 358.2265 88.2849 349.3028 89.5398 352.3704 102.9253 346.6536 111.2913 348.0479 118.4023 358.6448 126.6288 357.3899 131.0907 369.66 132.6245 369.3811 136.2497 365.477 145.3128 351.2549 151.0296 341.4946 169.4347 330.2006 171.5262 316.815 161.6264 304.9632 163.8574 287.2553 158.2801 283.0723 153.6788 261.0419 153.2605 249.6085 163.1602 248.7719 168.5981 232.8765 167.7615 225.2078 181.9836 218.7938 176.4063 205.1294 175.4303 195.5086 163.8574 194.672 151.7267 199.5521 145.4523 196.4846 138.2018 203.5957 137.3652 192.4411 121.4698 188.3975 96.0931 198.7155 92.4678 196.7635 86.3328 199.5521 74.2022 187.9792 52.4507 224.5106 34.0455 260.3448 26.2373 288.3708 24.9824 316.5362 41.8538 321.2769 48.4071 320.8586 52.1718 313.7475 40.5989 295.6213 31.3963 294.5058 36.9736 304.6844 57.4702 304.8238 68.7643 314.1658 76.4331 332.9892 80.6161 357.5294 76.9908 372.7275 67.9277 382.4878 70.298 Z" id="PL.PM" fill="#cee3f5" stroke="#6e6e6e" stroke-width="0.4">
      <desc>
        <labelrank>5</labelrank>
        <code_hasc>PL.PM</code_hasc>
        <name>Pomeranian</name>
        <admin>Poland</admin>
        <type_en>Voivodeship|Province</type_en>
        <region/>
        <woe_id>12577945</woe_id>
        <longitude>18</longitude>
        <woe_name>Pomeranian</woe_name>
        <fips>PL31</fips>
        <woe_label>Pomeranian, PL, Poland</woe_label>
        <latitude>54</latitude>
        <iso_a2>PL</iso_a2>
        <postal>PM</postal>
        <type>Województwo</type>
        <id>PL.PM</id>
      </desc>
    </path>
    <path d="M 149.4958 369.3811 155.6308 368.5445 166.0883 373.843 170.2713 385.8342 188.6764 397.2677 203.1774 395.1762 208.8941 388.6229 224.9289 391.1326 231.7611 395.7339 227.5781 410.0955 229.1119 414.2785 242.7763 417.346 242.0791 439.2369 230.6456 443.6988 223.8134 462.1039 199.4127 502.6788 191.1862 506.0252 185.33 520.1079 181.7048 518.5741 179.7527 521.2233 189.3736 543.8114 186.0272 541.3016 175.5697 546.0423 163.8574 556.3604 142.1059 524.4303 136.2497 524.8486 131.7879 519.9684 132.9033 514.9489 143.2213 510.6264 148.6592 502.3999 142.2453 493.6157 135.2737 491.3847 131.0907 495.4283 124.8162 492.6396 117.1474 497.2409 116.7291 488.7355 107.8054 488.7355 104.1802 480.9273 96.5114 481.9033 79.5006 473.3979 73.2261 475.9077 66.8122 461.5461 68.0671 455.69 59.5617 448.5789 56.7731 451.9253 49.662 447.0451 46.4551 449.9732 47.1522 465.1714 34.8821 464.4742 52.3112 422.7839 48.1282 404.6576 61.0955 398.662 69.1826 402.7056 75.4571 394.2002 80.6161 392.6664 90.2369 398.5226 95.2565 397.5465 119.7966 366.0348 130.3935 368.4051 135.8314 379.4203 141.4087 378.4443 149.4958 369.3811 Z" id="PL.DS" fill="#cee3f5" stroke="#6e6e6e" stroke-width="0.4">
      <desc>
        <labelrank>5</labelrank>
        <code_hasc>PL.DS</code_hasc>
        <name>Lower Silesian</name>
        <admin>Poland</admin>
        <type_en>Voivodeship|Province</type_en>
        <region/>
        <woe_id>12577935</woe_id>
        <longitude>16</longitude>
        <woe_name>Lower Silesian</woe_name>
        <fips>PL66</fips>
        <woe_label>Lower Silesia, PL, Poland</woe_label>
        <latitude>51</latitude>
        <iso_a2>PL</iso_a2>
        <postal>DS</postal>
        <type>Województwo</type>
        <id>PL.DS</id>
      </desc>
    </path>
    <path d="M 195.5086 163.8574 187.9792 163.9968 182.8202 177.8006 166.9249 179.4738 167.7615 188.1187 181.2865 197.8789 177.8006 206.3843 160.7899 215.0292 148.2409 229.3907 139.7355 231.2034 131.9273 227.1598 131.9273 216.2841 124.8162 215.7263 111.1518 228.2753 81.5921 231.0639 84.799 233.2948 77.5485 242.7763 62.7687 238.7327 55.9365 241.9397 45.2002 258.5322 35.8582 260.3448 32.2329 268.4319 1 237.7567 3.2309 225.4866 17.3136 216.4235 25.4007 193.9748 18.0108 164.5545 16.7559 142.9425 19.1262 137.5046 34.3244 148.7986 37.8102 155.6308 40.4594 149.7747 35.5793 143.6396 38.0891 136.3891 41.296 136.5286 42.2721 127.4654 39.0651 131.6484 38.6468 126.7683 29.8626 124.5374 29.4443 120.4938 24.7036 123.143 27.2133 127.326 21.3572 129.8358 12.4335 119.2389 14.9433 115.8925 27.9105 118.5417 53.5661 107.3871 125.9317 86.8905 144.0579 83.823 139.875 86.0539 146.986 86.3328 149.6352 82.2893 144.4762 83.1258 153.8182 75.7359 150.7507 79.7795 156.8857 76.8514 157.1646 74.3416 154.2365 75.8753 169.2952 56.7731 187.9792 52.4507 199.5521 74.2022 196.7635 86.3328 198.7155 92.4678 188.3975 96.0931 192.4411 121.4698 203.5957 137.3652 196.4846 138.2018 199.5521 145.4523 194.672 151.7267 195.5086 163.8574 Z" id="PL.ZP" fill="#cee3f5" stroke="#6e6e6e" stroke-width="0.4">
      <desc>
        <labelrank>5</labelrank>
        <code_hasc>PL.ZP</code_hasc>
        <name>West Pomeranian</name>
        <admin>Poland</admin>
        <type_en>Voivodeship|Province</type_en>
        <region/>
        <woe_id>12577950</woe_id>
        <longitude>15</longitude>
        <woe_name>West Pomeranian</woe_name>
        <fips>PL62</fips>
        <woe_label>West Pomeranian, PL, Poland</woe_label>
        <latitude>53</latitude>
        <iso_a2>PL</iso_a2>
        <postal>ZP</postal>
        <type>Województwo</type>
        <id>PL.ZP</id>
      </desc>
    </path>
    <path d="M 131.9273 227.1598 130.2541 240.8242 123.2825 249.0507 125.7922 258.3927 116.3108 261.8785 118.96 287.813 115.4742 292.1354 119.3783 300.7803 115.3348 328.2485 127.326 344.0044 132.2062 344.4227 131.9273 355.7167 138.0623 359.0631 143.2213 355.8562 149.4958 369.3811 141.4087 378.4443 135.8314 379.4203 130.3935 368.4051 119.7966 366.0348 95.2565 397.5465 90.2369 398.5226 80.6161 392.6664 75.4571 394.2002 69.1826 402.7056 61.0955 398.662 48.1282 404.6576 46.8734 397.2677 32.0935 388.6229 34.6033 374.2613 25.2613 357.3899 39.344 327.4119 34.3244 322.1135 36.9736 309.2857 28.4682 302.5929 26.3767 292.1354 26.3767 287.6736 33.2089 279.7259 32.2329 268.4319 35.8582 260.3448 45.2002 258.5322 55.9365 241.9397 62.7687 238.7327 77.5485 242.7763 84.799 233.2948 81.5921 231.0639 111.1518 228.2753 124.8162 215.7263 131.9273 216.2841 131.9273 227.1598 Z" id="PL.LB" fill="#cee3f5" stroke="#6e6e6e" stroke-width="0.4">
      <desc>
        <labelrank>5</labelrank>
        <code_hasc>PL.LB</code_hasc>
        <name>Lubusz</name>
        <admin>Poland</admin>
        <type_en>Voivodeship|Province</type_en>
        <region/>
        <woe_id>12577939</woe_id>
        <longitude>15</longitude>
        <woe_name>Lubusz</woe_name>
        <fips>PL71</fips>
        <woe_label>Lubusz, PL, Poland</woe_label>
        <latitude>52</latitude>
        <iso_a2>PL</iso_a2>
        <postal>LB</postal>
        <type>Województwo</type>
        <id>PL.LB</id>
      </desc>
    </path>
    <path d="M 195.5086 163.8574 205.1294 175.4303 218.7938 176.4063 225.2078 181.9836 218.2361 192.4411 227.7175 207.7787 221.3036 212.7982 223.8134 221.7219 219.491 235.6652 230.0879 241.8002 233.2948 249.1902 226.7415 262.5757 231.6217 269.9656 238.3144 268.5713 241.8002 274.4275 256.7195 279.7259 275.1247 293.3903 282.0963 295.203 288.5102 289.4862 293.3903 296.4579 301.7563 295.6213 316.9545 311.656 329.0851 308.1702 335.6384 313.1898 338.4271 320.998 327.133 327.9696 325.8781 338.1482 322.2529 342.3312 313.0503 343.3072 313.3292 361.7123 309.9828 367.5685 299.1071 367.2897 293.2509 371.6121 288.0919 386.2525 286.4187 411.2109 275.6824 412.6053 272.7543 418.8797 267.5953 419.9952 266.4798 426.1302 271.7783 432.9624 272.8937 441.3284 256.3012 448.9972 251.8394 448.7183 246.8198 440.3524 242.0791 439.2369 242.7763 417.346 229.1119 414.2785 227.5781 410.0955 231.7611 395.7339 224.9289 391.1326 208.8941 388.6229 203.1774 395.1762 188.6764 397.2677 170.2713 385.8342 166.0883 373.843 155.6308 368.5445 149.4958 369.3811 143.2213 355.8562 138.0623 359.0631 131.9273 355.7167 132.2062 344.4227 127.326 344.0044 115.3348 328.2485 119.3783 300.7803 115.4742 292.1354 118.96 287.813 116.3108 261.8785 125.7922 258.3927 123.2825 249.0507 130.2541 240.8242 131.9273 227.1598 139.7355 231.2034 148.2409 229.3907 160.7899 215.0292 177.8006 206.3843 181.2865 197.8789 167.7615 188.1187 166.9249 179.4738 182.8202 177.8006 187.9792 163.9968 195.5086 163.8574 Z" id="PL.WP" fill="#cee3f5" stroke="#6e6e6e" stroke-width="0.4">
      <desc>
        <labelrank>5</labelrank>
        <code_hasc>PL.WP</code_hasc>
        <name>Greater Poland</name>
        <admin>Poland</admin>
        <type_en>Voivodeship|Province</type_en>
        <region/>
        <woe_id>12577949</woe_id>
        <longitude>17</longitude>
        <woe_name>Greater Poland</woe_name>
        <fips>PL34</fips>
        <woe_label>Greater Poland, PL, Poland</woe_label>
        <latitude>52</latitude>
        <iso_a2>PL</iso_a2>
        <postal>WP</postal>
        <type>Województwo</type>
        <id>PL.WP</id>
      </desc>
    </path>
    <path d="M 341.4946 169.4347 352.0915 190.9073 378.8626 202.2014 383.4638 221.1642 376.7711 225.4866 376.7711 239.5693 372.867 237.8961 364.0827 243.334 362.9672 255.8829 366.8714 268.7107 363.9433 269.5473 357.6688 286.6976 359.0631 294.6452 353.3464 306.7759 335.6384 313.1898 329.0851 308.1702 316.9545 311.656 301.7563 295.6213 293.3903 296.4579 288.5102 289.4862 282.0963 295.203 275.1247 293.3903 256.7195 279.7259 241.8002 274.4275 238.3144 268.5713 231.6217 269.9656 226.7415 262.5757 233.2948 249.1902 230.0879 241.8002 219.491 235.6652 223.8134 221.7219 221.3036 212.7982 227.7175 207.7787 218.2361 192.4411 225.2078 181.9836 232.8765 167.7615 248.7719 168.5981 249.6085 163.1602 261.0419 153.2605 283.0723 153.6788 287.2553 158.2801 304.9632 163.8574 316.815 161.6264 330.2006 171.5262 341.4946 169.4347 Z" id="PL.KP" fill="#cee3f5" stroke="#6e6e6e" stroke-width="0.4">
      <desc>
        <labelrank>5</labelrank>
        <code_hasc>PL.KP</code_hasc>
        <name>Kuyavian-Pomeranian</name>
        <admin>Poland</admin>
        <type_en>Voivodeship|Province</type_en>
        <region/>
        <woe_id>12577936</woe_id>
        <longitude>18</longitude>
        <woe_name>Kuyavian-Pomeranian</woe_name>
        <fips>PL68</fips>
        <woe_label>Kuiavia-Pomerania, PL, Poland</woe_label>
        <latitude>53</latitude>
        <iso_a2>PL</iso_a2>
        <postal>KP</postal>
        <type>Województwo</type>
        <id>PL.KP</id>
      </desc>
    </path>
    <path d="M 386.5314 478.5569 393.7819 482.8793 385.9736 489.7115 395.8734 495.2889 401.3112 503.7942 392.2481 511.6025 401.5901 514.3911 402.4267 518.853 393.3636 524.5697 383.185 525.4063 374.9584 530.8442 369.1023 528.6133 362.1306 540.0467 355.0196 541.1622 362.2701 549.5282 342.0523 574.4866 341.2157 578.2513 354.8801 597.493 364.9193 601.8154 362.8278 609.6237 365.8953 614.0855 357.9477 622.1726 350.2789 624.6824 345.817 636.5342 330.34 637.9285 330.2006 626.3556 320.8586 624.4035 317.6516 606.5561 305.2421 601.3971 301.0591 579.6456 295.4818 580.7611 287.2553 576.857 281.678 579.5062 262.018 563.8897 266.6193 553.7111 287.1159 545.4846 286.837 521.9205 290.7411 518.7135 291.02 512.1602 303.5689 511.7419 294.9241 496.6832 299.9437 481.0667 305.521 477.4415 308.5885 457.3632 326.7147 452.7619 340.658 460.4307 358.2265 460.0124 369.2417 474.5134 386.5314 478.5569 Z" id="PL.SL" fill="#cee3f5" stroke="#6e6e6e" stroke-width="0.4">
      <desc>
        <labelrank>5</labelrank>
        <code_hasc>PL.SL</code_hasc>
        <name>Silesian</name>
        <admin>Poland</admin>
        <type_en>Voivodeship|Province</type_en>
        <region/>
        <woe_id>12577946</woe_id>
        <longitude>18</longitude>
        <woe_name>Silesian</woe_name>
        <fips>PL29</fips>
        <woe_label>Silesian, PL, Poland</woe_label>
        <latitude>50</latitude>
        <iso_a2>PL</iso_a2>
        <postal>SL</postal>
        <type>Województwo</type>
        <id>PL.SL</id>
      </desc>
    </path>
    <path d="M 353.3464 306.7759 377.1894 319.6037 396.2917 313.8869 406.4702 322.2529 409.1195 332.1526 419.7163 337.1722 416.7883 344.1438 421.529 355.0196 436.03 356.8322 445.372 366.0348 445.0931 374.9584 449.8338 384.3004 434.2173 383.4638 432.5441 389.8777 440.0735 409.3983 433.9385 423.2022 429.4766 431.2893 417.7643 438.6792 405.4942 439.2369 402.1478 448.3 407.5857 454.8534 407.8646 462.3827 406.3308 464.3348 394.3396 458.0603 392.6664 472.143 386.5314 478.5569 369.2417 474.5134 358.2265 460.0124 340.658 460.4307 326.7147 452.7619 308.5885 457.3632 299.8042 447.4634 292.2749 450.1127 276.519 445.7903 272.8937 441.3284 271.7783 432.9624 266.4798 426.1302 267.5953 419.9952 272.7543 418.8797 275.6824 412.6053 286.4187 411.2109 288.0919 386.2525 293.2509 371.6121 299.1071 367.2897 309.9828 367.5685 313.3292 361.7123 313.0503 343.3072 322.2529 342.3312 325.8781 338.1482 327.133 327.9696 338.4271 320.998 335.6384 313.1898 353.3464 306.7759 Z" id="PL.LD" fill="#cee3f5" stroke="#6e6e6e" stroke-width="0.4">
      <desc>
        <labelrank>7</labelrank>
        <code_hasc>PL.LD</code_hasc>
        <name>Łódź</name>
        <admin>Poland</admin>
        <type_en>Voivodeship|Province</type_en>
        <region/>
        <woe_id>12577937</woe_id>
        <longitude>19</longitude>
        <woe_name>Łódź</woe_name>
        <fips>PL51</fips>
        <woe_label>Lodz, PL, Poland</woe_label>
        <latitude>51</latitude>
        <iso_a2>PL</iso_a2>
        <postal>LD</postal>
        <type>Województwo</type>
        <id>PL.LD</id>
      </desc>
    </path>
    <path d="M 614.6432 303.4295 602.7915 325.5993 588.9876 322.3923 582.4343 331.1766 572.1163 331.1766 563.332 337.3116 540.3256 339.5425 530.2865 345.1199 538.513 364.6404 532.2385 371.0543 535.5849 378.8626 529.0316 382.6272 518.853 381.7907 518.1558 384.7187 522.3388 389.32 530.7048 389.7383 534.0511 399.0803 529.0316 436.03 532.5174 446.7663 510.0687 452.3436 492.6396 448.7183 481.7639 435.4722 475.35 441.8861 456.9449 442.165 433.9385 423.2022 440.0735 409.3983 432.5441 389.8777 434.2173 383.4638 449.8338 384.3004 445.0931 374.9584 445.372 366.0348 436.03 356.8322 421.529 355.0196 416.7883 344.1438 419.7163 337.1722 409.1195 332.1526 406.4702 322.2529 396.2917 313.8869 377.1894 319.6037 353.3464 306.7759 359.0631 294.6452 357.6688 286.6976 363.9433 269.5473 366.8714 268.7107 362.9672 255.8829 364.0827 243.334 372.867 237.8961 376.7711 239.5693 376.7711 225.4866 383.4638 221.1642 392.1087 214.6109 421.9473 219.2121 428.7795 210.5673 447.7423 199.5521 474.0951 193.1382 479.1147 187.0032 488.0384 186.7243 494.1734 179.8921 502.2605 179.0555 512.4391 213.0771 515.2277 217.6784 525.8246 222.2797 525.1274 227.1598 535.5849 243.1946 540.465 245.4255 548.831 240.6848 555.5238 252.9549 563.1926 249.6085 566.539 271.2205 574.2078 278.8893 577.9724 292.8326 604.8829 295.6213 611.4363 303.9872 614.6432 303.4295 Z" id="PL.MZ" fill="#cee3f5" stroke="#6e6e6e" stroke-width="0.4">
      <desc>
        <labelrank>5</labelrank>
        <code_hasc>PL.MZ</code_hasc>
        <name>Masovian</name>
        <admin>Poland</admin>
        <type_en>Voivodeship|Province</type_en>
        <region/>
        <woe_id>12577941</woe_id>
        <longitude>21</longitude>
        <woe_name>Masovian</woe_name>
        <fips>PL59</fips>
        <woe_label>Masovian, PL, Poland</woe_label>
        <latitude>52</latitude>
        <iso_a2>PL</iso_a2>
        <postal>MZ</postal>
        <type>Województwo</type>
        <id>PL.MZ</id>
      </desc>
    </path>
    <path d="M 532.5174 446.7663 531.8202 460.2913 535.5849 472.0036 534.4694 485.9469 520.2473 505.8857 497.9381 520.5262 489.9904 529.171 485.5286 527.9161 464.3348 536.8398 461.5461 534.1906 450.9493 548.4127 441.4678 548.2733 436.1694 545.2058 425.2936 523.5937 408.4223 514.2517 401.5901 514.3911 392.2481 511.6025 401.3112 503.7942 395.8734 495.2889 385.9736 489.7115 393.7819 482.8793 386.5314 478.5569 392.6664 472.143 394.3396 458.0603 406.3308 464.3348 407.8646 462.3827 407.5857 454.8534 402.1478 448.3 405.4942 439.2369 417.7643 438.6792 429.4766 431.2893 433.9385 423.2022 456.9449 442.165 475.35 441.8861 481.7639 435.4722 492.6396 448.7183 510.0687 452.3436 532.5174 446.7663 Z" id="PL.SK" fill="#cee3f5" stroke="#6e6e6e" stroke-width="0.4">
      <desc>
        <labelrank>5</labelrank>
        <code_hasc>PL.SK</code_hasc>
        <name>Świętokrzyskie</name>
        <admin>Poland</admin>
        <type_en>Voivodeship|Province</type_en>
        <region/>
        <woe_id>12577947</woe_id>
        <longitude>20</longitude>
        <woe_name>Świętokrzyskie</woe_name>
        <fips>PL36</fips>
        <woe_label>Swietokrzyskie, PL, Poland</woe_label>
        <latitude>50</latitude>
        <iso_a2>PL</iso_a2>
        <postal>SK</postal>
        <type>Województwo</type>
        <id>PL.SK</id>
      </desc>
    </path>
    <path d="M 620.9177 303.8478 614.6432 303.4295 611.4363 303.9872 604.8829 295.6213 577.9724 292.8326 574.2078 278.8893 566.539 271.2205 563.1926 249.6085 555.5238 252.9549 548.831 240.6848 540.465 245.4255 535.5849 243.1946 525.1274 227.1598 525.8246 222.2797 515.2277 217.6784 512.4391 213.0771 502.2605 179.0555 529.8682 171.6656 568.9093 138.8989 573.2317 121.6093 553.7111 94.0016 559.4279 84.9385 578.2513 78.9429 582.992 68.346 592.8917 69.0431 599.3056 78.5246 603.628 77.2697 617.153 84.1019 626.495 92.6073 630.3991 104.8773 628.3076 112.1278 639.8805 153.1211 663.5841 203.3168 661.9109 212.9377 666.7911 224.9289 668.1854 254.0703 634.3032 277.7739 620.9177 303.8478 Z" id="PL.PD" fill="#cee3f5" stroke="#6e6e6e" stroke-width="0.4">
      <desc>
        <labelrank>5</labelrank>
        <code_hasc>PL.PD</code_hasc>
        <name>Podlachian</name>
        <admin>Poland</admin>
        <type_en>Voivodeship|Province</type_en>
        <region/>
        <woe_id>12577944</woe_id>
        <longitude>22</longitude>
        <woe_name>Podlachian</woe_name>
        <fips>PL44</fips>
        <woe_label>Podlaskie, PL, Poland</woe_label>
        <latitude>53</latitude>
        <iso_a2>PL</iso_a2>
        <postal>PD</postal>
        <type>Województwo</type>
        <id>PL.PD</id>
      </desc>
    </path>
    <path d="M 620.9177 303.8478 622.1726 308.8674 643.0875 314.1658 645.179 320.5797 654.1027 324.4838 657.4491 334.523 649.9197 372.7275 652.5689 384.3004 663.3052 400.6141 659.68 412.187 676.8302 428.64 686.7299 451.7859 699 460.0124 686.1722 466.4263 695.6536 476.4654 698.8606 495.986 692.3072 501.5633 690.9129 511.6025 671.8106 515.3672 668.3248 521.9205 648.2465 511.8813 626.9133 525.964 600.7 524.012 601.5366 519.6896 591.4974 522.1994 586.3384 515.646 589.127 510.7659 595.4015 508.8138 591.6368 499.0535 563.1926 489.9904 565.7024 478.5569 560.6828 475.2105 545.2058 477.9992 535.5849 472.0036 531.8202 460.2913 532.5174 446.7663 529.0316 436.03 534.0511 399.0803 530.7048 389.7383 522.3388 389.32 518.1558 384.7187 518.853 381.7907 529.0316 382.6272 535.5849 378.8626 532.2385 371.0543 538.513 364.6404 530.2865 345.1199 540.3256 339.5425 563.332 337.3116 572.1163 331.1766 582.4343 331.1766 588.9876 322.3923 602.7915 325.5993 614.6432 303.4295 620.9177 303.8478 Z" id="PL.LU" fill="#cee3f5" stroke="#6e6e6e" stroke-width="0.4">
      <desc>
        <labelrank>7</labelrank>
        <code_hasc>PL.LU</code_hasc>
        <name>Lublin</name>
        <admin>Poland</admin>
        <type_en>Voivodeship|Province</type_en>
        <region/>
        <woe_id>12577938</woe_id>
        <longitude>22</longitude>
        <woe_name>Lublin</woe_name>
        <fips>PL23</fips>
        <woe_label>Lublin, PL, Poland</woe_label>
        <latitude>51</latitude>
        <iso_a2>PL</iso_a2>
        <postal>LU</postal>
        <type>Województwo</type>
        <id>PL.LU</id>
      </desc>
    </path>
    <path d="M 668.3248 521.9205 630.5386 565.8418 599.4451 615.7587 607.9505 643.7847 604.4646 656.8913 617.5713 664.839 618.2685 675.0176 610.5997 669.7191 602.2337 670.2769 597.493 666.2333 586.0595 666.2333 570.3036 660.7954 568.7699 657.3096 554.966 653.4055 550.9225 642.6692 541.4411 636.1159 535.5849 638.7651 525.2669 630.678 517.4586 631.654 509.9293 600.1422 495.2889 590.5214 503.5154 581.8765 494.7311 572.674 492.7791 540.0467 497.9381 520.5262 520.2473 505.8857 534.4694 485.9469 535.5849 472.0036 545.2058 477.9992 560.6828 475.2105 565.7024 478.5569 563.1926 489.9904 591.6368 499.0535 595.4015 508.8138 589.127 510.7659 586.3384 515.646 591.4974 522.1994 601.5366 519.6896 600.7 524.012 626.9133 525.964 648.2465 511.8813 668.3248 521.9205 Z" id="PL.PK" fill="#cee3f5" stroke="#6e6e6e" stroke-width="0.4">
      <desc>
        <labelrank>5</labelrank>
        <code_hasc>PL.PK</code_hasc>
        <name>Subcarpathian</name>
        <admin>Poland</admin>
        <type_en>Voivodeship|Province</type_en>
        <region/>
        <woe_id>12577943</woe_id>
        <longitude>22</longitude>
        <woe_name>Subcarpathian</woe_name>
        <fips>PL63</fips>
        <woe_label>Subcarpathia, PL, Poland</woe_label>
        <latitude>49</latitude>
        <iso_a2>PL</iso_a2>
        <postal>PK</postal>
        <type>Województwo</type>
        <id>PL.PK</id>
      </desc>
    </path>
    <path d="M 272.8937 441.3284 276.519 445.7903 292.2749 450.1127 299.8042 447.4634 308.5885 457.3632 305.521 477.4415 299.9437 481.0667 294.9241 496.6832 303.5689 511.7419 291.02 512.1602 290.7411 518.7135 286.837 521.9205 287.1159 545.4846 266.6193 553.7111 262.018 563.8897 262.994 568.6304 248.9113 571.698 241.3819 557.8941 234.2709 556.4998 230.7851 552.038 241.9397 545.9029 239.9876 533.6328 234.2709 538.9313 222.698 538.3736 219.491 541.1622 216.8418 537.537 213.4954 538.7918 213.356 532.7962 204.2928 530.0076 202.7591 525.2669 185.33 520.1079 191.1862 506.0252 199.4127 502.6788 223.8134 462.1039 230.6456 443.6988 242.0791 439.2369 246.8198 440.3524 251.8394 448.7183 256.3012 448.9972 272.8937 441.3284 Z" id="PL.OP" fill="#cee3f5" stroke="#6e6e6e" stroke-width="0.4">
      <desc>
        <labelrank>7</labelrank>
        <code_hasc>PL.OP</code_hasc>
        <name>Opole</name>
        <admin>Poland</admin>
        <type_en>Voivodeship|Province</type_en>
        <region/>
        <woe_id>12577942</woe_id>
        <longitude>17</longitude>
        <woe_name>Opole</woe_name>
        <fips>PL48</fips>
        <woe_label>Opole, PL, Poland</woe_label>
        <latitude>50</latitude>
        <iso_a2>PL</iso_a2>
        <postal>OP</postal>
        <type>Województwo</type>
        <id>PL.OP</id>
      </desc>
    </path>
    <path d="M 497.9381 520.5262 492.7791 540.0467 494.7311 572.674 503.5154 581.8765 495.2889 590.5214 509.9293 600.1422 517.4586 631.654 498.7747 628.5865 494.034 634.3032 484.8314 632.4906 482.3216 634.7215 485.2497 639.4622 474.2345 647.2705 463.7771 642.9481 457.0843 635.2793 446.4874 638.7651 438.5398 635.4187 429.7555 636.813 427.3851 642.8086 416.6488 646.2944 410.5138 661.632 402.1478 655.9153 390.9932 660.2377 388.2046 658.2857 392.527 650.8957 389.5989 637.2313 379.1414 636.3947 379.6992 631.9329 373.843 630.5386 365.8953 614.0855 362.8278 609.6237 364.9193 601.8154 354.8801 597.493 341.2157 578.2513 342.0523 574.4866 362.2701 549.5282 355.0196 541.1622 362.1306 540.0467 369.1023 528.6133 374.9584 530.8442 383.185 525.4063 393.3636 524.5697 402.4267 518.853 401.5901 514.3911 408.4223 514.2517 425.2936 523.5937 436.1694 545.2058 441.4678 548.2733 450.9493 548.4127 461.5461 534.1906 464.3348 536.8398 485.5286 527.9161 489.9904 529.171 497.9381 520.5262 Z" id="PL.MA" fill="#cee3f5" stroke="#6e6e6e" stroke-width="0.4">
      <desc>
        <labelrank>5</labelrank>
        <code_hasc>PL.MA</code_hasc>
        <name>Lesser Poland</name>
        <admin>Poland</admin>
        <type_en>Voivodeship|Province</type_en>
        <region/>
        <woe_id>12577940</woe_id>
        <longitude>20</longitude>
        <woe_name>Lesser Poland</woe_name>
        <fips>PL39</fips>
        <woe_label>Lesser Poland, PL, Poland</woe_label>
        <latitude>49</latitude>
        <iso_a2>PL</iso_a2>
        <postal>MA</postal>
        <type>Województwo</type>
        <id>PL.MA</id>
      </desc>
    </path>
  </g>
</svg>