<?xml version="1.0" encoding="UTF-8"?>
<svg xmlns="http://www.w3.org/2000/svg" width="700" height="700">
  <g id="iraq">
    <path d="M 376.2186 7.4152 378.171 16.3407 375.2424 20.5245 359.7622 32.6575 347.7686 30.0078 346.9319 35.1678 352.5103 37.3992 352.9287 38.9333 351.2551 41.7225 351.1157 46.0458 348.187 46.1852 347.4897 48.1377 336.3329 45.209 329.0809 39.6306 325.4549 38.6543 320.8527 43.1171 316.1111 51.7636 302.3045 54.1345 292.8212 58.4577 290.4503 55.6685 286.8244 56.7842 286.5455 55.3896 288.7768 54.4134 282.6406 49.2533 277.3411 49.9506 274.2729 45.9063 270.2286 44.6511 272.3205 43.6749 270.368 38.6543 270.647 34.4705 269.2523 35.8651 266.8815 34.8889 262.0004 26.6607 260.7453 22.6164 274.5518 19.8272 285.4298 2.5341 289.1952 1 291.9844 3.3708 300.2126 5.8811 312.2062 1.6973 322.5263 7.1363 326.989 6.2995 336.6118 12.8541 339.9588 12.0174 344.2821 14.1093 354.4627 14.2488 358.6466 16.8985 364.3644 14.8066 370.9191 7.5546 376.2186 7.4152 Z" id="IQ.DA" fill="#cee3f5" stroke="#6e6e6e" stroke-width="0.4">
      <desc>
        <labelrank>5</labelrank>
        <code_hasc>IQ.DA</code_hasc>
        <name>Dihok</name>
        <admin>Iraq</admin>
        <type_en>Province</type_en>
        <region>Kurdistan</region>
        <woe_id>2345840</woe_id>
        <longitude>43</longitude>
        <woe_name>Dihok</woe_name>
        <fips>IZ08</fips>
        <woe_label>Dahuk, IQ, Iraq</woe_label>
        <latitude>37</latitude>
        <iso_a2>IQ</iso_a2>
        <postal>DA</postal>
        <type>Muhafazah</type>
        <id>IQ.DA</id>
      </desc>
    </path>
    <path d="M 413.3151 127.7696 417.0805 135.9978 424.193 144.5049 421.8222 157.4747 425.3087 163.4715 421.8222 169.4683 421.8222 176.3019 420.4276 180.2068 417.7778 182.2987 417.7778 186.2036 408.7129 191.2242 405.2264 194.9896 406.621 200.7075 397.556 209.9119 396.3009 214.6535 392.1171 219.8136 391.9776 223.9974 393.2328 224.5552 391.2803 226.9261 389.6068 226.6472 378.5894 216.7455 363.6671 209.633 334.9383 192.0609 327.8258 183.2749 330.1966 178.9516 325.3155 177.6965 326.4312 172.2575 319.8765 166.5397 320.2949 161.9375 323.0841 165.424 326.1522 162.7742 332.7069 165.424 340.5167 163.0531 342.6086 158.7299 351.813 156.4985 356.6941 147.1546 354.0444 142.1341 364.5039 130.6983 374.2661 136.4162 376.7764 136.2767 378.8683 135.5794 382.0759 131.1167 390.7225 132.6507 393.0933 131.1167 396.4404 131.9534 402.7161 129.0248 407.7367 130.5588 407.5972 129.1642 409.1313 129.4432 412.4783 125.8172 413.3151 127.7696 Z" id="IQ.TS" fill="#cee3f5" stroke="#6e6e6e" stroke-width="0.4">
      <desc>
        <labelrank>5</labelrank>
        <code_hasc>IQ.TS</code_hasc>
        <name>At-Ta'mim</name>
        <admin>Iraq</admin>
        <type_en>Province</type_en>
        <region>Iraq</region>
        <woe_id>2345845</woe_id>
        <longitude>44</longitude>
        <woe_name>At-Ta'mim</woe_name>
        <fips>IZ13</fips>
        <woe_label>At Ta'mim, IQ, Iraq</woe_label>
        <latitude>35</latitude>
        <iso_a2>IQ</iso_a2>
        <postal>TS</postal>
        <type>Muhafazah</type>
        <id>IQ.TS</id>
      </desc>
    </path>
    <path d="M 439.5337 74.7746 436.1866 78.6795 429.4925 77.8428 421.5433 80.7714 414.0124 80.9109 407.5972 87.0472 411.781 95.8332 413.594 94.7175 418.0567 100.1564 412.7572 105.5954 413.4545 107.4084 422.6589 113.5447 430.4687 122.1912 437.3023 126.6539 435.2104 128.4669 429.2136 126.9329 429.7714 128.8853 427.4006 130.5588 426.4244 128.188 425.3087 130.001 423.6352 128.7459 417.4989 128.7459 416.9411 127.3512 413.3151 127.7696 412.4783 125.8172 409.1313 129.4432 407.5972 129.1642 407.7367 130.5588 402.7161 129.0248 396.4404 131.9534 393.0933 131.1167 390.7225 132.6507 382.0759 131.1167 378.8683 135.5794 376.7764 136.2767 374.2661 136.4162 364.5039 130.6983 354.0444 142.1341 356.6941 147.1546 351.813 156.4985 342.6086 158.7299 340.5167 163.0531 332.7069 165.424 326.1522 162.7742 327.5469 159.1483 327.4074 151.8963 323.9209 143.6681 324.7576 140.4605 323.642 136.5556 328.5231 129.3037 329.2204 123.4464 328.9415 121.215 326.2917 120.3782 326.4312 117.3101 336.0539 113.1263 339.6799 103.364 356.4152 86.3499 357.6703 79.6557 361.2963 78.2611 361.1568 74.9141 364.0855 74.7746 364.7828 71.9854 367.2931 71.846 372.5926 65.4308 375.2424 66.5465 375.6607 68.3594 378.171 66.5465 380.2629 67.3832 385.8414 63.6178 391.5592 56.2264 388.6306 51.2058 379.0078 45.6274 375.2424 45.4879 374.1267 42.5592 372.0348 42.1409 371.7558 39.6306 359.7622 32.6575 375.2424 20.5245 378.171 16.3407 376.2186 7.4152 384.0284 10.3439 387.3754 13.9698 388.2122 19.6877 384.1678 23.0348 383.61 26.5213 387.7938 35.7257 391.4198 36.423 394.4879 30.4262 402.0188 27.637 412.6178 18.9904 422.2406 20.6639 423.0773 27.4975 425.4482 30.4262 428.0979 30.1473 431.3055 32.797 430.0503 36.8414 431.0266 43.6749 427.6795 47.9982 427.4006 51.6242 438.5574 55.808 441.9045 61.9443 439.6731 71.2881 438.418 71.9854 439.5337 74.7746 Z" id="IQ.AR" fill="#cee3f5" stroke="#6e6e6e" stroke-width="0.4">
      <desc>
        <labelrank>5</labelrank>
        <code_hasc>IQ.AR</code_hasc>
        <name>Arbil</name>
        <admin>Iraq</admin>
        <type_en>Province</type_en>
        <region>Kurdistan</region>
        <woe_id>2345843</woe_id>
        <longitude>44</longitude>
        <woe_name>Arbil</woe_name>
        <fips>IZ11</fips>
        <woe_label>Arbil, IQ, Iraq</woe_label>
        <latitude>36</latitude>
        <iso_a2>IQ</iso_a2>
        <postal>AR</postal>
        <type>Muhafazah</type>
        <id>IQ.AR</id>
      </desc>
    </path>
    <path d="M 359.7622 32.6575 371.7558 39.6306 372.0348 42.1409 374.1267 42.5592 375.2424 45.4879 379.0078 45.6274 388.6306 51.2058 391.5592 56.2264 385.8414 63.6178 380.2629 67.3832 378.171 66.5465 375.6607 68.3594 375.2424 66.5465 372.5926 65.4308 367.2931 71.846 364.7828 71.9854 364.0855 74.7746 361.1568 74.9141 361.2963 78.2611 357.6703 79.6557 356.4152 86.3499 339.6799 103.364 336.0539 113.1263 326.4312 117.3101 326.2917 120.3782 328.9415 121.215 329.2204 123.4464 328.5231 129.3037 323.642 136.5556 324.7576 140.4605 318.4819 146.8757 293.2396 160.2639 294.6342 163.611 294.0763 170.0262 299.7942 178.5333 299.0969 182.8565 303.1413 187.3193 303.4202 192.2004 275.5281 192.6188 267.5788 194.1528 265.6264 202.381 250.5646 204.0545 244.8468 201.5443 230.6218 202.1021 202.8691 189.969 186.8312 185.3668 176.5111 184.1117 182.229 156.0801 188.0863 147.9914 189.7598 142.8314 189.6204 128.4669 182.229 108.5241 185.8549 83.979 193.6647 70.5908 223.0909 64.594 262.0004 26.6607 266.8815 34.8889 269.2523 35.8651 270.647 34.4705 270.368 38.6543 272.3205 43.6749 270.2286 44.6511 274.2729 45.9063 277.3411 49.9506 282.6406 49.2533 288.7768 54.4134 286.5455 55.3896 286.8244 56.7842 290.4503 55.6685 292.8212 58.4577 302.3045 54.1345 316.1111 51.7636 320.8527 43.1171 325.4549 38.6543 329.0809 39.6306 336.3329 45.209 347.4897 48.1377 348.187 46.1852 351.1157 46.0458 351.2551 41.7225 352.9287 38.9333 352.5103 37.3992 346.9319 35.1678 347.7686 30.0078 359.7622 32.6575 Z" id="IQ.NI" fill="#cee3f5" stroke="#6e6e6e" stroke-width="0.4">
      <desc>
        <labelrank>5</labelrank>
        <code_hasc>IQ.NI</code_hasc>
        <name>Ninawa</name>
        <admin>Iraq</admin>
        <type_en>Province</type_en>
        <region>Iraq</region>
        <woe_id>2345847</woe_id>
        <longitude>42</longitude>
        <woe_name>Ninawa</woe_name>
        <fips>IZ15</fips>
        <woe_label>Ninawa, IQ, Iraq</woe_label>
        <latitude>35</latitude>
        <iso_a2>IQ</iso_a2>
        <postal>NI</postal>
        <type>Muhafazah</type>
        <id>IQ.NI</id>
      </desc>
    </path>
    <path d="M 326.1522 162.7742 323.0841 165.424 320.2949 161.9375 319.8765 166.5397 326.4312 172.2575 325.3155 177.6965 330.1966 178.9516 327.8258 183.2749 334.9383 192.0609 363.6671 209.633 378.5894 216.7455 389.6068 226.6472 391.2803 226.9261 393.2328 224.5552 391.9776 223.9974 392.1171 219.8136 396.3009 214.6535 397.556 209.9119 406.621 200.7075 405.2264 194.9896 408.7129 191.2242 415.5465 198.4761 429.632 199.8707 435.4893 204.0545 436.4655 213.2589 428.3768 218.6979 425.4482 224.9736 419.4513 228.1812 420.0092 232.9229 413.1756 241.9878 405.6448 237.5251 404.5291 238.6408 405.3658 242.964 404.2501 245.0559 405.3658 246.1716 403.1345 247.8452 404.808 249.2398 402.4372 257.7469 405.5053 261.2334 404.6685 263.8831 403.2739 266.8118 399.7874 267.0907 397.4166 270.9956 396.4404 270.0194 393.3722 271.9718 393.7906 274.761 391.8382 275.4583 392.396 277.5502 390.4436 279.5027 389.1884 284.6627 395.7431 285.9179 400.2058 291.2174 399.9269 295.959 396.1614 303.9083 398.6717 308.5105 396.3009 315.623 396.8587 319.6673 385.7019 333.195 380.5419 332.9161 375.6607 330.4058 378.0316 328.5928 372.3137 317.2965 368.8272 313.81 355.0206 313.3916 328.9415 304.7451 308.4408 284.8022 303.6991 278.387 300.2126 269.4615 296.4472 255.376 295.0525 242.964 286.6849 247.5662 284.4535 247.1479 268.2761 234.0386 265.7658 221.9055 265.6264 202.381 267.5788 194.1528 275.5281 192.6188 303.4202 192.2004 303.1413 187.3193 299.0969 182.8565 299.7942 178.5333 294.0763 170.0262 294.6342 163.611 293.2396 160.2639 318.4819 146.8757 324.7576 140.4605 323.9209 143.6681 327.4074 151.8963 327.5469 159.1483 326.1522 162.7742 Z" id="IQ.SD" fill="#cee3f5" stroke="#6e6e6e" stroke-width="0.4">
      <desc>
        <labelrank>5</labelrank>
        <code_hasc>IQ.SD</code_hasc>
        <name>Sala ad-Din</name>
        <admin>Iraq</admin>
        <type_en>Province</type_en>
        <region>Iraq</region>
        <woe_id>2345850</woe_id>
        <longitude>43</longitude>
        <woe_name>Sala ad-Din</woe_name>
        <fips>IZ18</fips>
        <woe_label>S-Alah Ad Din, IQ, Iraq</woe_label>
        <latitude>34</latitude>
        <iso_a2>IQ</iso_a2>
        <postal>SD</postal>
        <type>Muhafazah</type>
        <id>IQ.SD</id>
      </desc>
    </path>
    <path d="M 412.4783 440.1612 409.1313 445.1818 411.2232 448.6683 404.808 451.8759 403.1345 457.4543 405.3658 469.3085 405.9237 483.5335 404.5291 485.4859 399.9269 484.3702 397.835 488.1357 404.1107 496.5033 419.1724 503.1974 411.9205 536.6679 398.6717 554.5189 390.3041 559.2605 386.1203 564.2811 370.0823 606.8166 352.9287 636.2428 278.0384 573.2066 287.8006 554.24 290.5898 541.828 297.8418 530.8106 302.165 516.5856 302.3045 509.6126 310.951 491.4827 313.7403 481.581 327.1285 463.0328 340.3772 458.4306 352.5103 450.2024 352.9287 446.0186 345.5373 438.9061 385.423 427.6098 388.77 428.586 390.4436 424.5417 392.396 429.8412 389.8857 434.025 394.209 441.2769 403.2739 435.2801 412.4783 440.1612 Z" id="IQ.NA" fill="#cee3f5" stroke="#6e6e6e" stroke-width="0.4">
      <desc>
        <labelrank>5</labelrank>
        <code_hasc>IQ.NA</code_hasc>
        <name>An-Najaf</name>
        <admin>Iraq</admin>
        <type_en>Province</type_en>
        <region>Iraq</region>
        <woe_id>2345849</woe_id>
        <longitude>43</longitude>
        <woe_name>An-Najaf</woe_name>
        <fips>IZ17</fips>
        <woe_label>An Najaf, IQ, Iraq</woe_label>
        <latitude>30</latitude>
        <iso_a2>IQ</iso_a2>
        <postal>NA</postal>
        <type>Muhafazah</type>
        <id>IQ.NA</id>
      </desc>
    </path>
    <path d="M 377.1948 387.8635 383.8889 388.2819 386.6781 391.2106 383.7495 405.575 388.77 414.2216 388.2122 418.9632 390.4436 424.5417 388.77 428.586 385.423 427.6098 345.5373 438.9061 330.4755 426.9125 314.0192 409.7588 311.9273 404.5988 319.0398 401.5307 330.0571 399.9966 345.3978 387.3057 350.9762 384.6559 365.2012 383.9586 377.1948 387.8635 Z" id="IQ.KA" fill="#cee3f5" stroke="#6e6e6e" stroke-width="0.4">
      <desc>
        <labelrank>5</labelrank>
        <code_hasc>IQ.KA</code_hasc>
        <name>Karbala'</name>
        <admin>Iraq</admin>
        <type_en>Province</type_en>
        <region>Iraq</region>
        <woe_id>2345844</woe_id>
        <longitude>43</longitude>
        <woe_name>Karbala'</woe_name>
        <fips>IZ12</fips>
        <woe_label>Karbala', IQ, Iraq</woe_label>
        <latitude>32</latitude>
        <iso_a2>IQ</iso_a2>
        <postal>KA</postal>
        <type>Muhafazah</type>
        <id>IQ.KA</id>
      </desc>
    </path>
    <path d="M 403.9712 354.9508 388.6306 353.6957 385.1441 350.767 384.0284 347.6989 384.4468 344.3518 388.0727 337.7972 391.6987 336.821 393.0933 333.3345 399.2296 333.8923 403.2739 336.9604 405.7842 335.4264 406.3421 346.1648 403.9712 354.9508 Z" id="IQ.BG" fill="#cee3f5" stroke="#6e6e6e" stroke-width="0.4">
      <desc>
        <labelrank>9</labelrank>
        <code_hasc>IQ.BG</code_hasc>
        <name>Baghdad</name>
        <admin>Iraq</admin>
        <type_en>Province</type_en>
        <region>Iraq</region>
        <woe_id>2345839</woe_id>
        <longitude>44</longitude>
        <woe_name>Baghdad</woe_name>
        <fips>IZ07</fips>
        <woe_label>Baghdad, IQ, Iraq</woe_label>
        <latitude>33</latitude>
        <iso_a2>IQ</iso_a2>
        <postal>BG</postal>
        <type>Muhafazah</type>
        <id>IQ.BG</id>
      </desc>
    </path>
    <path d="M 631.5708 515.0515 631.7103 535.2733 656.2553 535.1339 657.65 579.2034 666.157 580.3191 669.0857 583.6661 671.4565 590.4997 679.2663 591.197 686.9367 600.1225 685.1237 605.0036 690.7021 616.8577 698.6513 621.3205 695.8621 622.8545 687.9129 622.2967 666.2965 614.0685 660.4392 614.9053 655.4186 617.6945 652.7688 609.1874 653.8845 618.6707 633.8022 610.4426 610.7912 611.5582 599.0765 616.5788 592.9403 622.8545 583.5964 648.5153 574.9499 666.5057 553.8913 693.7005 555.5648 674.5944 559.6092 665.8084 560.5854 644.4709 566.0244 612.5345 564.6298 604.8641 556.2621 592.4521 553.0545 577.2509 576.6234 570.2779 590.2905 571.5331 590.2905 561.213 592.243 549.3588 592.1035 524.9532 592.8008 519.7932 595.59 516.3067 607.8625 512.2623 621.3902 512.8202 631.5708 515.0515 Z" id="IQ.BA" fill="#cee3f5" stroke="#6e6e6e" stroke-width="0.4">
      <desc>
        <labelrank>5</labelrank>
        <code_hasc>IQ.BA</code_hasc>
        <name>Al-Basrah</name>
        <admin>Iraq</admin>
        <type_en>Province</type_en>
        <region>Iraq</region>
        <woe_id>2345834</woe_id>
        <longitude>47</longitude>
        <woe_name>Al-Basrah</woe_name>
        <fips>IZ02</fips>
        <woe_label>Al Basrah, IQ, Iraq</woe_label>
        <latitude>30</latitude>
        <iso_a2>IQ</iso_a2>
        <postal>BA</postal>
        <type>Muhafazah</type>
        <id>IQ.BA</id>
      </desc>
    </path>
    <path d="M 495.1784 482.5572 497.8282 486.3227 497.6887 490.0881 495.5968 489.1119 494.3417 491.9011 496.8519 498.5952 490.8551 507.3812 491.1341 508.4969 496.9914 508.9153 492.2498 521.4667 495.8757 524.3954 496.1546 526.6268 495.1784 530.1133 491.6919 529.8344 491.2735 531.0895 489.8789 539.0388 490.8551 550.7534 526.4176 555.0767 538.1323 558.9816 548.7313 577.1115 553.0545 577.2509 556.2621 592.4521 564.6298 604.8641 566.0244 612.5345 560.5854 644.4709 559.6092 665.8084 555.5648 674.5944 553.8913 693.7005 551.7994 696.0713 538.8296 699 418.0567 688.6799 352.9287 636.2428 370.0823 606.8166 386.1203 564.2811 390.3041 559.2605 398.6717 554.5189 411.9205 536.6679 419.1724 503.1974 437.3023 515.3305 438.8364 506.5445 446.6462 486.8805 443.8569 482.4178 440.6494 480.4653 453.8981 477.3972 454.5954 476.1421 477.188 479.6286 490.0184 483.8124 495.1784 482.5572 Z" id="IQ.MU" fill="#cee3f5" stroke="#6e6e6e" stroke-width="0.4">
      <desc>
        <labelrank>5</labelrank>
        <code_hasc>IQ.MU</code_hasc>
        <name>Al-Muthannia</name>
        <admin>Iraq</admin>
        <type_en>Province</type_en>
        <region>Iraq</region>
        <woe_id>2345835</woe_id>
        <longitude>45</longitude>
        <woe_name>Al-Muthannia</woe_name>
        <fips>IZ03</fips>
        <woe_label>Al Muthanna, IQ, Iraq</woe_label>
        <latitude>30</latitude>
        <iso_a2>IQ</iso_a2>
        <postal>MU</postal>
        <type>Muhafazah</type>
        <id>IQ.MU</id>
      </desc>
    </path>
    <path d="M 452.9219 420.4973 466.7285 425.3784 466.1706 431.6541 477.188 443.7872 487.787 447.5526 487.2292 449.9235 490.7157 457.7333 490.1578 462.7538 495.1784 482.5572 490.0184 483.8124 477.188 479.6286 454.5954 476.1421 453.8981 477.3972 440.6494 480.4653 443.8569 482.4178 446.6462 486.8805 438.8364 506.5445 437.3023 515.3305 419.1724 503.1974 404.1107 496.5033 397.835 488.1357 399.9269 484.3702 404.5291 485.4859 405.9237 483.5335 405.3658 469.3085 403.1345 457.4543 404.808 451.8759 411.2232 448.6683 409.1313 445.1818 412.4783 440.1612 420.9854 443.3688 425.5876 439.185 424.6114 436.5353 425.8665 434.4434 428.5163 435.559 447.0645 422.8681 452.9219 420.4973 Z" id="IQ.QA" fill="#cee3f5" stroke="#6e6e6e" stroke-width="0.4">
      <desc>
        <labelrank>5</labelrank>
        <code_hasc>IQ.QA</code_hasc>
        <name>Al-Qadisiyah</name>
        <admin>Iraq</admin>
        <type_en>Province</type_en>
        <region>Iraq</region>
        <woe_id>2345836</woe_id>
        <longitude>45</longitude>
        <woe_name>Al-Qadisiyah</woe_name>
        <fips>IZ04</fips>
        <woe_label>Al Qadisiyah, IQ, Iraq</woe_label>
        <latitude>31</latitude>
        <iso_a2>IQ</iso_a2>
        <postal>QA</postal>
        <type>Muhafazah</type>
        <id>IQ.QA</id>
      </desc>
    </path>
    <path d="M 592.1035 524.9532 592.243 549.3588 590.2905 561.213 590.2905 571.5331 576.6234 570.2779 553.0545 577.2509 548.7313 577.1115 538.1323 558.9816 526.4176 555.0767 490.8551 550.7534 489.8789 539.0388 491.2735 531.0895 491.6919 529.8344 495.1784 530.1133 496.1546 526.6268 495.8757 524.3954 492.2498 521.4667 496.9914 508.9153 491.1341 508.4969 490.8551 507.3812 496.8519 498.5952 494.3417 491.9011 495.5968 489.1119 497.6887 490.0881 497.8282 486.3227 495.1784 482.5572 490.1578 462.7538 490.7157 457.7333 497.8282 458.1516 514.2845 452.7127 532.8328 452.4338 535.4825 455.9203 532.5538 458.4306 540.0847 471.4004 541.4793 478.6523 553.6124 491.0643 552.9151 499.0136 554.1702 503.1974 563.2352 509.8915 564.9087 519.6537 571.8817 524.5349 592.1035 524.9532 Z" id="IQ.DQ" fill="#cee3f5" stroke="#6e6e6e" stroke-width="0.4">
      <desc>
        <labelrank>5</labelrank>
        <code_hasc>IQ.DQ</code_hasc>
        <name>Dhi-Qar</name>
        <admin>Iraq</admin>
        <type_en>Province</type_en>
        <region>Iraq</region>
        <woe_id>2345841</woe_id>
        <longitude>46</longitude>
        <woe_name>Dhi-Qar</woe_name>
        <fips>IZ09</fips>
        <woe_label>Dhi Qar, IQ, Iraq</woe_label>
        <latitude>31</latitude>
        <iso_a2>IQ</iso_a2>
        <postal>DQ</postal>
        <type>Muhafazah</type>
        <id>IQ.DQ</id>
      </desc>
    </path>
    <path d="M 631.5708 515.0515 621.3902 512.8202 607.8625 512.2623 595.59 516.3067 592.8008 519.7932 592.1035 524.9532 571.8817 524.5349 564.9087 519.6537 563.2352 509.8915 554.1702 503.1974 552.9151 499.0136 553.6124 491.0643 541.4793 478.6523 540.0847 471.4004 532.5538 458.4306 535.4825 455.9203 532.8328 452.4338 541.7582 452.0154 551.381 454.1073 553.194 441.4164 550.8232 437.9299 542.1766 434.3039 540.5031 431.9331 543.8501 421.0551 541.4793 418.4054 543.5712 412.5481 543.8501 402.5069 548.3129 388.4214 552.0783 383.8192 587.3618 412.2691 591.6851 413.8032 599.6344 411.1534 605.3522 413.2454 610.6517 419.1027 609.6755 424.5417 617.2064 432.4909 616.3696 439.0456 622.6454 442.3926 625.574 447.6921 629.3395 450.0629 636.5914 462.3355 641.612 467.0771 631.2919 500.6871 631.5708 515.0515 Z" id="IQ.MA" fill="#cee3f5" stroke="#6e6e6e" stroke-width="0.4">
      <desc>
        <labelrank>5</labelrank>
        <code_hasc>IQ.MA</code_hasc>
        <name>Maysan</name>
        <admin>Iraq</admin>
        <type_en>Province</type_en>
        <region>Iraq</region>
        <woe_id>2345846</woe_id>
        <longitude>47</longitude>
        <woe_name>Maysan</woe_name>
        <fips>IZ14</fips>
        <woe_label>Maysan, IQ, Iraq</woe_label>
        <latitude>31</latitude>
        <iso_a2>IQ</iso_a2>
        <postal>MA</postal>
        <type>Muhafazah</type>
        <id>IQ.MA</id>
      </desc>
    </path>
    <path d="M 552.0783 383.8192 548.3129 388.4214 543.8501 402.5069 543.5712 412.5481 541.4793 418.4054 543.8501 421.0551 540.5031 431.9331 542.1766 434.3039 550.8232 437.9299 553.194 441.4164 551.381 454.1073 541.7582 452.0154 532.8328 452.4338 514.2845 452.7127 497.8282 458.1516 490.7157 457.7333 487.2292 449.9235 487.787 447.5526 477.188 443.7872 466.1706 431.6541 466.7285 425.3784 452.9219 420.4973 452.643 416.174 446.2278 415.6162 442.4623 411.8507 436.7445 395.5339 434.2342 392.7447 418.4751 386.0505 406.7604 384.2376 405.2264 369.8731 406.3421 369.1758 408.434 369.3153 411.5021 363.179 413.8729 367.5023 417.6384 368.3391 418.3357 364.0158 427.1217 355.0903 437.4418 357.1822 446.7856 356.6244 473.562 363.8763 479.5588 358.2979 489.1816 343.2362 502.7093 335.2869 506.6142 327.8955 510.5191 332.6372 511.7742 338.634 520.8392 348.954 521.1181 355.2298 516.7948 359.4136 511.4953 360.5293 512.4715 362.3423 517.9105 364.1552 517.9105 366.805 514.8424 369.8731 516.3764 373.2202 528.7884 372.6623 536.3193 374.8937 552.0783 383.8192 Z" id="IQ.WA" fill="#cee3f5" stroke="#6e6e6e" stroke-width="0.4">
      <desc>
        <labelrank>5</labelrank>
        <code_hasc>IQ.WA</code_hasc>
        <name>Wasit</name>
        <admin>Iraq</admin>
        <type_en>Province</type_en>
        <region>Iraq</region>
        <woe_id>2345848</woe_id>
        <longitude>45</longitude>
        <woe_name>Wasit</woe_name>
        <fips>IZ16</fips>
        <woe_label>Wasit, IQ, Iraq</woe_label>
        <latitude>32</latitude>
        <iso_a2>IQ</iso_a2>
        <postal>WA</postal>
        <type>Muhafazah</type>
        <id>IQ.WA</id>
      </desc>
    </path>
    <path d="M 493.9233 210.0513 492.8076 200.847 495.5968 200.568 488.0659 192.7582 484.7189 198.0577 482.3481 199.034 482.9059 200.568 480.9534 203.7756 482.3481 205.8675 476.0723 213.8168 469.9361 229.5758 464.6366 231.6677 453.8981 242.964 451.8062 240.1748 453.6192 231.8072 451.6667 220.232 448.0408 217.1638 442.7413 218.2795 436.4655 213.2589 435.4893 204.0545 429.632 199.8707 415.5465 198.4761 408.7129 191.2242 417.7778 186.2036 417.7778 182.2987 420.4276 180.2068 421.8222 176.3019 421.8222 169.4683 425.3087 163.4715 421.8222 157.4747 424.193 144.5049 417.0805 135.9978 413.3151 127.7696 416.9411 127.3512 417.4989 128.7459 423.6352 128.7459 425.3087 130.001 426.4244 128.188 427.4006 130.5588 429.7714 128.8853 429.2136 126.9329 435.2104 128.4669 437.3023 126.6539 430.4687 122.1912 422.6589 113.5447 413.4545 107.4084 412.7572 105.5954 418.0567 100.1564 413.594 94.7175 411.781 95.8332 407.5972 87.0472 414.0124 80.9109 421.5433 80.7714 429.4925 77.8428 436.1866 78.6795 439.5337 74.7746 444.5542 83.4212 446.3672 84.2579 453.8981 82.7239 455.0138 84.2579 458.0819 94.9964 456.4084 96.1121 459.0581 99.0408 459.616 106.2927 462.5447 110.7554 460.3133 117.3101 461.9868 119.8204 469.7966 117.1706 475.6539 118.5652 483.0454 123.5858 490.0184 133.9059 495.8757 133.7664 498.9439 131.6745 507.5904 131.3956 511.3558 129.7221 515.1213 130.6983 518.4683 134.7427 526.4176 132.0929 529.6252 134.0454 528.649 136.8346 523.6284 141.5762 507.5904 145.2022 507.3115 153.7093 504.6617 153.2909 506.3353 157.1958 505.0801 160.2639 510.3796 169.7473 515.958 174.9073 514.7029 182.0198 519.3051 183.5538 516.7948 190.6663 518.1894 192.3399 508.4272 196.6631 501.8725 194.4318 500.8963 197.9183 497.9676 200.0102 498.8044 204.4729 497.5493 209.633 496.573 211.0276 493.9233 210.0513 Z" id="IQ.SU" fill="#cee3f5" stroke="#6e6e6e" stroke-width="0.4">
      <desc>
        <labelrank>5</labelrank>
        <code_hasc>IQ.SU</code_hasc>
        <name>As-Sulaymaniyah</name>
        <admin>Iraq</admin>
        <type_en>Province</type_en>
        <region>Kurdistan</region>
        <woe_id>2345837</woe_id>
        <longitude>45</longitude>
        <woe_name>As-Sulaymaniyah</woe_name>
        <fips>IZ05</fips>
        <woe_label>As Sulaymaniyah, IQ, Iraq</woe_label>
        <latitude>35</latitude>
        <iso_a2>IQ</iso_a2>
        <postal>SU</postal>
        <type>Muhafazah</type>
        <id>IQ.SU</id>
      </desc>
    </path>
    <path d="M 493.9233 210.0513 490.9946 209.4935 490.4368 215.2114 485.6951 217.1638 482.3481 225.392 486.5319 230.9704 487.5081 239.617 473.562 236.2699 473.841 244.4981 467.8442 248.6819 470.9123 257.3285 472.1674 258.3047 475.0961 257.189 478.0248 261.6517 475.5145 270.8561 476.7696 274.2032 470.6334 280.0605 468.1231 286.3363 465.4733 288.1493 468.402 291.0779 472.7253 291.0779 482.0691 305.1634 484.0216 311.1602 489.4605 315.9019 490.4368 320.6436 496.0152 317.157 500.8963 316.5992 500.7568 319.249 503.9644 323.2933 498.6649 328.035 502.012 329.569 506.6142 327.8955 502.7093 335.2869 489.1816 343.2362 479.5588 358.2979 473.562 363.8763 446.7856 356.6244 437.4418 357.1822 427.1217 355.0903 418.3357 364.0158 417.6384 368.3391 413.8729 367.5023 411.5021 363.179 408.434 369.3153 406.3421 369.1758 406.621 363.0396 403.9712 354.9508 406.3421 346.1648 405.7842 335.4264 403.2739 336.9604 399.2296 333.8923 393.0933 333.3345 391.6987 336.821 388.0727 337.7972 385.7019 333.195 396.8587 319.6673 396.3009 315.623 398.6717 308.5105 396.1614 303.9083 399.9269 295.959 400.2058 291.2174 395.7431 285.9179 389.1884 284.6627 390.4436 279.5027 392.396 277.5502 391.8382 275.4583 393.7906 274.761 393.3722 271.9718 396.4404 270.0194 397.4166 270.9956 399.7874 267.0907 403.2739 266.8118 404.6685 263.8831 405.5053 261.2334 402.4372 257.7469 404.808 249.2398 403.1345 247.8452 405.3658 246.1716 404.2501 245.0559 405.3658 242.964 404.5291 238.6408 405.6448 237.5251 413.1756 241.9878 420.0092 232.9229 419.4513 228.1812 425.4482 224.9736 428.3768 218.6979 436.4655 213.2589 442.7413 218.2795 448.0408 217.1638 451.6667 220.232 453.6192 231.8072 451.8062 240.1748 453.8981 242.964 464.6366 231.6677 469.9361 229.5758 476.0723 213.8168 482.3481 205.8675 480.9534 203.7756 482.9059 200.568 482.3481 199.034 484.7189 198.0577 488.0659 192.7582 495.5968 200.568 492.8076 200.847 493.9233 210.0513 Z" id="IQ.DI" fill="#cee3f5" stroke="#6e6e6e" stroke-width="0.4">
      <desc>
        <labelrank>5</labelrank>
        <code_hasc>IQ.DI</code_hasc>
        <name>Diyala</name>
        <admin>Iraq</admin>
        <type_en>Province</type_en>
        <region>Iraq</region>
        <woe_id>2345842</woe_id>
        <longitude>45</longitude>
        <woe_name>Diyala</woe_name>
        <fips>IZ10</fips>
        <woe_label>Diyala, IQ, Iraq</woe_label>
        <latitude>33</latitude>
        <iso_a2>IQ</iso_a2>
        <postal>DI</postal>
        <type>Muhafazah</type>
        <id>IQ.DI</id>
      </desc>
    </path>
    <path d="M 265.6264 202.381 265.7658 221.9055 268.2761 234.0386 284.4535 247.1479 286.6849 247.5662 295.0525 242.964 296.4472 255.376 300.2126 269.4615 303.6991 278.387 308.4408 284.8022 328.9415 304.7451 355.0206 313.3916 368.8272 313.81 372.3137 317.2965 378.0316 328.5928 375.6607 330.4058 380.5419 332.9161 385.7019 333.195 388.0727 337.7972 384.4468 344.3518 384.0284 347.6989 385.1441 350.767 388.6306 353.6957 383.7495 358.2979 375.9397 354.6719 355.7179 352.4406 356.973 355.3692 369.385 361.9239 373.1504 375.4515 378.0316 379.9143 377.1948 387.8635 365.2012 383.9586 350.9762 384.6559 345.3978 387.3057 330.0571 399.9966 319.0398 401.5307 311.9273 404.5988 314.0192 409.7588 330.4755 426.9125 345.5373 438.9061 352.9287 446.0186 352.5103 450.2024 340.3772 458.4306 327.1285 463.0328 313.7403 481.581 310.951 491.4827 302.3045 509.6126 302.165 516.5856 297.8418 530.8106 290.5898 541.828 287.8006 554.24 278.0384 573.2066 227.972 527.7425 111.9409 453.1311 21.7099 432.212 32.5878 422.1708 30.4959 413.8032 29.1013 412.827 15.4342 415.8951 14.3185 414.0821 11.3898 401.6701 17.1077 400.1361 1.3487 325.8036 139.1357 252.029 158.5207 247.0084 176.2322 214.793 176.5111 184.1117 186.8312 185.3668 202.8691 189.969 230.6218 202.1021 244.8468 201.5443 250.5646 204.0545 265.6264 202.381 Z" id="IQ.AN" fill="#cee3f5" stroke="#6e6e6e" stroke-width="0.4">
      <desc>
        <labelrank>5</labelrank>
        <code_hasc>IQ.AN</code_hasc>
        <name>Al-Anbar</name>
        <admin>Iraq</admin>
        <type_en>Province</type_en>
        <region>Iraq</region>
        <woe_id>2345833</woe_id>
        <longitude>41</longitude>
        <woe_name>Al-Anbar</woe_name>
        <fips>IZ01</fips>
        <woe_label>Al Anbar, IQ, Iraq</woe_label>
        <latitude>33</latitude>
        <iso_a2>IQ</iso_a2>
        <postal>AN</postal>
        <type>Muhafazah</type>
        <id>IQ.AN</id>
      </desc>
    </path>
    <path d="M 388.6306 353.6957 403.9712 354.9508 406.621 363.0396 406.3421 369.1758 405.2264 369.8731 406.7604 384.2376 418.4751 386.0505 434.2342 392.7447 436.7445 395.5339 442.4623 411.8507 446.2278 415.6162 452.643 416.174 452.9219 420.4973 447.0645 422.8681 428.5163 435.559 425.8665 434.4434 424.6114 436.5353 425.5876 439.185 420.9854 443.3688 412.4783 440.1612 403.2739 435.2801 394.209 441.2769 389.8857 434.025 392.396 429.8412 390.4436 424.5417 388.2122 418.9632 388.77 414.2216 383.7495 405.575 386.6781 391.2106 383.8889 388.2819 377.1948 387.8635 378.0316 379.9143 373.1504 375.4515 369.385 361.9239 356.973 355.3692 355.7179 352.4406 375.9397 354.6719 383.7495 358.2979 388.6306 353.6957 Z" id="IQ.BB" fill="#cee3f5" stroke="#6e6e6e" stroke-width="0.4">
      <desc>
        <labelrank>5</labelrank>
        <code_hasc>IQ.BB</code_hasc>
        <name>Babil</name>
        <admin>Iraq</admin>
        <type_en>Province</type_en>
        <region>Iraq</region>
        <woe_id>2345838</woe_id>
        <longitude>44</longitude>
        <woe_name>Babil</woe_name>
        <fips>IZ06</fips>
        <woe_label>Babil, IQ, Iraq</woe_label>
        <latitude>32</latitude>
        <iso_a2>IQ</iso_a2>
        <postal>BB</postal>
        <type>Muhafazah</type>
        <id>IQ.BB</id>
      </desc>
    </path>
  </g>
</svg>