<?xml version="1.0" encoding="UTF-8"?>
<svg xmlns="http://www.w3.org/2000/svg" width="700" height="700">
  <g id="dominica">
    <path d="M 507.2884 200.4414 498.6875 211.4281 496.1557 217.4101 496.771 219.7055 498.0163 252.534 497.6217 255.6683 497.0149 255.921 496.0451 256.6761 490.3927 262.5014 488.7767 263.8435 487.887 264.3478 487.0371 264.6013 486.3082 264.729 483.756 264.7793 483.2297 264.9064 482.6229 265.159 478.6637 268.5557 475.9994 271.4886 474.6663 272.6626 473.5745 273.2928 473.0478 273.2945 471.9937 273.0891 471.3858 273.0494 470.2522 273.3037 469.8068 273.3887 469.2794 273.1816 468.5899 272.9332 467.9809 272.5593 460.8261 277.5953 431.2177 305.8447 422.5186 284.1093 398.5548 264.9273 389.3428 259.9012 383.258 257.33 378.5165 256.8431 373.5303 255.8138 367.8122 253.8677 351.4646 246.7316 349.5188 246.3196 347.8183 246.6588 341.3865 249.9357 335.0725 251.9591 325.8386 252.9464 318.2939 249.6263 312.6525 246.0082 292.5037 226.0981 289.2654 212.2809 285.3703 180.5457 283.3232 172.5731 273.0533 164.1635 271.6504 154.6435 272.4544 107.816 270.9085 90.3181 270.1788 90.0277 268.9998 88.2765 268.5536 87.9853 268.0266 87.7779 267.5404 87.6539 266.9737 87.739 266.4475 87.824 265.7596 87.9929 264.3017 87.9133 263.451 87.7903 260.6539 86.5865 260.0454 86.1704 259.4363 85.5455 258.7035 84.0855 258.2968 83.4182 252.622 81.1778 242.0262 70.6796 237.7964 63.5061 223.6762 2.1709 223.6802 2.171 242.4246 2.8455 260.1652 9.5078 279.3304 23.8617 304.7459 60.8916 325.0606 74.1873 348.3622 61.8837 367.7982 58.0103 445.6875 88.5527 448.529 99.5291 458.5581 124.1649 474.2064 150.3606 482.996 165.7902 507.2884 200.4414 Z" id="DM.AN" fill="#cee3f5" stroke="#6e6e6e" stroke-width="0.4">
      <desc>
        <labelrank>10</labelrank>
        <code_hasc>DM.AN</code_hasc>
        <name>Saint Andrew</name>
        <admin>Dominica</admin>
        <type_en>Parish</type_en>
        <region/>
        <woe_id>2345161</woe_id>
        <longitude>-61</longitude>
        <woe_name>Saint Andrew</woe_name>
        <fips>DO02</fips>
        <woe_label>Saint Andrew, DM, Dominica</woe_label>
        <latitude>15</latitude>
        <iso_a2>DM</iso_a2>
        <postal>AN</postal>
        <type>Parish</type>
        <id>DM.AN</id>
      </desc>
    </path>
    <path d="M 531.1182 486.9287 464.7478 498.7205 458.7981 501.8308 446.2251 513.0658 448.6277 503.6596 448.7032 501.905 448.3689 498.815 447.6306 496.144 446.3634 492.8899 446.0758 491.6795 445.9911 490.5519 446.6312 487.8765 441.3863 483.1313 415.7132 466.5036 415.7034 398.208 404.4316 370.4651 431.2177 305.8447 460.8261 277.5953 467.9809 272.5593 468.5899 272.9332 469.2794 273.1816 469.8068 273.3887 470.2522 273.3037 471.3858 273.0494 471.9937 273.0891 473.0478 273.2945 473.5745 273.2928 474.6663 272.6626 475.9994 271.4886 478.6637 268.5557 482.6229 265.159 483.2297 264.9064 483.756 264.7793 486.3082 264.729 487.0371 264.6013 487.887 264.3478 488.7767 263.8435 490.3927 262.5014 496.0451 256.6761 497.0149 255.921 497.6217 255.6683 498.0163 252.534 496.771 219.7055 496.1557 217.4101 498.6875 211.4281 507.2884 200.4414 509.5966 203.8543 524.6566 260.7046 527.4776 319.9651 516.7845 365.326 523.9413 367.867 530.4698 373.2386 538.2669 376.3034 528.6415 435.3434 531.1173 486.9081 531.1182 486.9287 Z" id="DM.DA" fill="#cee3f5" stroke="#6e6e6e" stroke-width="0.4">
      <desc>
        <labelrank>10</labelrank>
        <code_hasc>DM.DA</code_hasc>
        <name>Saint David</name>
        <admin>Dominica</admin>
        <type_en>Parish</type_en>
        <region/>
        <woe_id>2345162</woe_id>
        <longitude>-61</longitude>
        <woe_name>Saint David</woe_name>
        <fips>DO03</fips>
        <woe_label>Saint David, DM, Dominica</woe_label>
        <latitude>15</latitude>
        <iso_a2>DM</iso_a2>
        <postal>DA</postal>
        <type>Parish</type>
        <id>DM.DA</id>
      </desc>
    </path>
    <path d="M 446.2251 513.0658 451.8739 517.183 452.6067 518.0997 452.3712 520.5231 433.2134 552.6223 428.7263 557.0223 422.4549 561.4278 407.9616 569.0749 392.3877 581.6535 370.588 614.9262 344.6022 604.4341 344.5531 604.4143 344.3653 594.5899 345.1118 587.6808 336.438 569.3531 316.5137 546.3865 312.8836 526.9916 312.2626 518.4778 312.2839 518.4791 330.5317 519.5136 331.0181 519.4704 333.8161 519.6295 334.7483 519.5433 337.7463 518.7411 338.5571 518.697 339.2464 518.7368 339.9363 518.9437 340.5852 519.0253 341.6792 518.7716 342.8945 518.4339 345.1996 516.3805 346.6519 513.87 350.1055 502.4567 350.3873 501.7875 350.6289 501.202 351.112 500.031 415.7132 466.5036 441.3863 483.1313 446.6312 487.8765 445.9911 490.5519 446.0758 491.6795 446.3634 492.8899 447.6306 496.144 448.3689 498.815 448.7032 501.905 448.6277 503.6596 446.2251 513.0658 Z" id="DM.GO" fill="#cee3f5" stroke="#6e6e6e" stroke-width="0.4">
      <desc>
        <labelrank>10</labelrank>
        <code_hasc>DM.GO</code_hasc>
        <name>Saint George</name>
        <admin>Dominica</admin>
        <type_en>Parish</type_en>
        <region/>
        <woe_id>2345163</woe_id>
        <longitude>-61</longitude>
        <woe_name>Saint George</woe_name>
        <fips>DO04</fips>
        <woe_label>Saint George, DM, Dominica</woe_label>
        <latitude>15</latitude>
        <iso_a2>DM</iso_a2>
        <postal>GO</postal>
        <type>Parish</type>
        <id>DM.GO</id>
      </desc>
    </path>
    <path d="M 223.6762 2.1709 237.7964 63.5061 242.0262 70.6796 252.622 81.1778 258.2968 83.4182 258.7035 84.0855 259.4363 85.5455 260.0454 86.1704 260.6539 86.5865 263.451 87.7903 264.3017 87.9133 265.7596 87.9929 266.4475 87.824 266.9737 87.739 267.5404 87.6539 268.0266 87.7779 268.5536 87.9853 268.9998 88.2765 270.1788 90.0277 270.9085 90.3181 272.4544 107.816 271.6504 154.6435 273.0533 164.1635 283.3232 172.5731 285.3703 180.5457 289.2654 212.2809 202.1404 165.9779 201.574 166.23 200.5618 166.3578 199.3465 166.2773 192.6607 164.9991 191.9723 165.0426 183.7859 162.9325 182.4895 162.7686 181.0321 163.0228 180.06 163.0251 176.575 162.1982 175.3617 162.9113 174.715 163.4558 169.5862 169.6085 169.5726 169.6249 168.2366 168.406 161.8377 159.7384 161.8654 144.6088 169.4931 134.0656 195.6586 115.5829 203.6531 99.3808 192.8072 97.3029 173.7876 90.4428 161.7331 89.3536 174.6313 70.3118 192.6947 1 223.6762 2.1709 Z" id="DM.JN" fill="#cee3f5" stroke="#6e6e6e" stroke-width="0.4">
      <desc>
        <labelrank>10</labelrank>
        <code_hasc>DM.JN</code_hasc>
        <name>Saint John</name>
        <admin>Dominica</admin>
        <type_en>Parish</type_en>
        <region/>
        <woe_id>2345164</woe_id>
        <longitude>-61</longitude>
        <woe_name>Saint John</woe_name>
        <fips>DO05</fips>
        <woe_label/>
        <latitude>15</latitude>
        <iso_a2>DM</iso_a2>
        <postal>JN</postal>
        <type>Parish</type>
        <id>DM.JN</id>
      </desc>
    </path>
    <path d="M 431.2177 305.8447 404.4316 370.4651 352.0221 395.2258 347.1604 395.8665 340.3487 394.9256 313.541 388.5694 294.2105 389.1245 276.7985 394.7693 276.7674 394.7794 273.4468 369.2277 268.4945 355.0325 232.3457 319.409 226.5683 306.0047 223.53 290.6199 216.4697 274.1929 214.7769 271.7724 214.8024 271.7508 240.0679 250.3828 249.6031 240.7087 251.1354 238.0313 253.3559 235.185 264.0366 230.0187 292.5037 226.0981 312.6525 246.0082 318.2939 249.6263 325.8386 252.9464 335.0725 251.9591 341.3865 249.9357 347.8183 246.6588 349.5188 246.3196 351.4646 246.7316 367.8122 253.8677 373.5303 255.8138 378.5165 256.8431 383.258 257.33 389.3428 259.9012 398.5548 264.9273 422.5186 284.1093 431.2177 305.8447 Z" id="DM.JH" fill="#cee3f5" stroke="#6e6e6e" stroke-width="0.4">
      <desc>
        <labelrank>10</labelrank>
        <code_hasc>DM.JH</code_hasc>
        <name>Saint Joseph</name>
        <admin>Dominica</admin>
        <type_en>Parish</type_en>
        <region/>
        <woe_id>2345165</woe_id>
        <longitude>-61</longitude>
        <woe_name>Saint Joseph</woe_name>
        <fips>DO06</fips>
        <woe_label>Saint Joseph, DM, Dominica</woe_label>
        <latitude>15</latitude>
        <iso_a2>DM</iso_a2>
        <postal>JH</postal>
        <type>Parish</type>
        <id>DM.JH</id>
      </desc>
    </path>
    <path d="M 370.588 614.9262 372.1364 631.0868 345.2025 643.9053 345.0404 643.9475 344.989 643.9611 345.2677 641.8172 344.5531 604.4143 344.6022 604.4341 370.588 614.9262 Z" id="DM.LU" fill="#cee3f5" stroke="#6e6e6e" stroke-width="0.4">
      <desc>
        <labelrank>10</labelrank>
        <code_hasc>DM.LU</code_hasc>
        <name>Saint Luke</name>
        <admin>Dominica</admin>
        <type_en>Parish</type_en>
        <region/>
        <woe_id>2345166</woe_id>
        <longitude>-61</longitude>
        <woe_name>Saint Luke</woe_name>
        <fips>DO07</fips>
        <woe_label>Saint Luke, DM, Dominica</woe_label>
        <latitude>15</latitude>
        <iso_a2>DM</iso_a2>
        <postal>LU</postal>
        <type>Parish</type>
        <id>DM.LU</id>
      </desc>
    </path>
    <path d="M 386.8448 682.938 386.844 682.9392 380.0404 693.5501 361.0195 699 343.374 694.1833 340.1429 681.234 344.989 643.9611 345.0404 643.9475 345.2025 643.9053 372.1364 631.0868 386.8448 682.938 Z" id="DM.MA" fill="#cee3f5" stroke="#6e6e6e" stroke-width="0.4">
      <desc>
        <labelrank>10</labelrank>
        <code_hasc>DM.MA</code_hasc>
        <name>Saint Mark</name>
        <admin>Dominica</admin>
        <type_en>Parish</type_en>
        <region/>
        <woe_id>2345167</woe_id>
        <longitude>-61</longitude>
        <woe_name>Saint Mark</woe_name>
        <fips>DO08</fips>
        <woe_label>Saint Mark, DM, Dominica</woe_label>
        <latitude>15</latitude>
        <iso_a2>DM</iso_a2>
        <postal>MA</postal>
        <type>Parish</type>
        <id>DM.MA</id>
      </desc>
    </path>
    <path d="M 386.8448 682.938 372.1364 631.0868 370.588 614.9262 392.3877 581.6535 407.9616 569.0749 422.4549 561.4278 428.7263 557.0223 433.2134 552.6223 452.3712 520.5231 452.6067 518.0997 451.8739 517.183 446.2251 513.0658 458.7981 501.8308 464.7478 498.7205 531.1182 486.9287 531.6724 499.7995 527.2933 563.4255 495.2335 620.3029 483.9575 629.089 476.2995 631.0875 470.1664 630.647 454.2055 632.8034 440.8466 629.6884 430.9525 631.5613 422.4818 639.3498 414.4988 660.4242 392.6182 670.029 387.5435 681.8846 386.8448 682.938 Z" id="DM.PK" fill="#cee3f5" stroke="#6e6e6e" stroke-width="0.4">
      <desc>
        <labelrank>10</labelrank>
        <code_hasc>DM.PK</code_hasc>
        <name>Saint Patrick</name>
        <admin>Dominica</admin>
        <type_en>Parish</type_en>
        <region/>
        <woe_id>2345168</woe_id>
        <longitude>-61</longitude>
        <woe_name>Saint Patrick</woe_name>
        <fips>DO09</fips>
        <woe_label>Saint Patrick, DM, Dominica</woe_label>
        <latitude>15</latitude>
        <iso_a2>DM</iso_a2>
        <postal>PK</postal>
        <type>Parish</type>
        <id>DM.PK</id>
      </desc>
    </path>
    <path d="M 415.7132 466.5036 351.112 500.031 350.6289 501.202 350.3873 501.7875 350.1055 502.4567 346.6519 513.87 345.1996 516.3805 342.8945 518.4339 341.6792 518.7716 340.5852 519.0253 339.9363 518.9437 339.2464 518.7368 338.5571 518.697 337.7463 518.7411 334.7483 519.5433 333.8161 519.6295 331.0181 519.4704 330.5317 519.5136 312.2839 518.4791 312.2626 518.4778 309.9625 486.9397 302.7311 457.7535 280.387 410.2557 277.2923 398.8184 276.7674 394.7794 276.7985 394.7693 294.2105 389.1245 313.541 388.5694 340.3487 394.9256 347.1604 395.8665 352.0221 395.2258 404.4316 370.4651 415.7034 398.208 415.7132 466.5036 Z" id="DM.PL" fill="#cee3f5" stroke="#6e6e6e" stroke-width="0.4">
      <desc>
        <labelrank>10</labelrank>
        <code_hasc>DM.PL</code_hasc>
        <name>Saint Paul</name>
        <admin>Dominica</admin>
        <type_en>Parish</type_en>
        <region/>
        <woe_id>2345169</woe_id>
        <longitude>-61</longitude>
        <woe_name>Saint Paul</woe_name>
        <fips>DO10</fips>
        <woe_label>Saint Paul, DM, Dominica</woe_label>
        <latitude>15</latitude>
        <iso_a2>DM</iso_a2>
        <postal>PL</postal>
        <type>Parish</type>
        <id>DM.PL</id>
      </desc>
    </path>
    <path d="M 289.2654 212.2809 292.5037 226.0981 264.0366 230.0187 253.3559 235.185 251.1354 238.0313 249.6031 240.7087 240.0679 250.3828 214.8024 271.7508 214.7769 271.7724 207.3772 261.1914 198.6874 255.9507 188.4588 247.4904 184.966 227.9623 183.4026 188.6953 176.8663 176.2788 169.5726 169.6249 169.5862 169.6085 174.715 163.4558 175.3617 162.9113 176.575 162.1982 180.06 163.0251 181.0321 163.0228 182.4895 162.7686 183.7859 162.9325 191.9723 165.0426 192.6607 164.9991 199.3465 166.2773 200.5618 166.3578 201.574 166.23 202.1404 165.9779 289.2654 212.2809 Z" id="DM.PR" fill="#cee3f5" stroke="#6e6e6e" stroke-width="0.4">
      <desc>
        <labelrank>10</labelrank>
        <code_hasc>DM.PR</code_hasc>
        <name>Saint Peter</name>
        <admin>Dominica</admin>
        <type_en>Parish</type_en>
        <region/>
        <woe_id>2345170</woe_id>
        <longitude>-61</longitude>
        <woe_name>Saint Peter</woe_name>
        <fips>DO11</fips>
        <woe_label>Saint Peter, DM, Dominica</woe_label>
        <latitude>15</latitude>
        <iso_a2>DM</iso_a2>
        <postal>PR</postal>
        <type>Parish</type>
        <id>DM.PR</id>
      </desc>
    </path>
  </g>
</svg>