<?xml version="1.0" encoding="UTF-8"?>
<svg xmlns="http://www.w3.org/2000/svg" width="700" height="700">
  <g id="liaoning">
    <path d="M 315.2893 450.3454 343.0579 459.1808 369.5642 468.0163 373.3508 455.3942 389.7595 452.8698 402.3816 449.0832 407.4304 438.9855 418.7902 452.8698 425.1013 456.6564 431.4123 452.8698 455.3942 460.443 459.1808 459.1808 457.9186 468.0163 466.7541 470.5407 470.5407 481.9005 446.5588 486.9494 444.0344 491.9982 421.3146 494.5226 412.4792 499.5714 385.9729 509.6691 372.0886 518.5045 358.2043 522.2911 332.9602 538.6998 322.8626 552.5841 315.2893 557.6329 290.0452 560.1573 279.9476 566.4684 290.0452 568.9928 284.9964 575.3038 274.8987 574.0416 268.5877 579.0904 252.179 579.0904 243.3436 582.877 238.2948 589.1881 231.9837 589.1881 226.9349 570.255 233.2459 565.2061 252.179 563.9439 255.9656 555.1085 264.8011 558.8951 287.5208 550.0597 279.9476 541.2242 292.5696 529.8644 288.783 524.8156 274.8987 528.6022 264.8011 521.0289 258.4901 524.8156 245.868 523.5533 245.868 514.7179 254.7034 510.9313 259.7523 510.9313 271.1121 508.4069 276.1609 505.8825 271.1121 494.5226 264.8011 486.9494 272.3743 474.3273 279.9476 474.3273 306.4539 461.7052 315.2893 450.3454 Z M 259.7523 510.9313 253.4412 509.6691 248.3924 512.1935 240.8192 508.4069 244.6058 502.0958 258.4901 500.8336 268.5877 495.7848 272.3743 503.358 259.7523 510.9313 Z" id="CN.liaoning.2764565" fill="#cee3f5" stroke="#6e6e6e" stroke-width="0.4">
      <desc>
        <name>Dalian City</name>
        <admin_leve>5</admin_leve>
        <wikipedia>zh:大连市</wikipedia>
        <localname>大连市 / Liaoyuan</localname>
        <boundary>administrative</boundary>
        <id>CN.liaoning.2764565</id>
      </desc>
    </path>
    <path d="M 459.1808 459.1808 465.4919 454.132 474.3273 450.3454 479.3761 445.2966 476.8517 436.4611 488.2116 431.4123 494.5226 420.0524 491.9982 396.0705 473.0651 388.4973 476.8517 382.1863 471.8029 378.3996 476.8517 374.613 489.4738 378.3996 502.0958 374.613 510.9313 378.3996 517.2423 373.3508 532.3888 375.8752 532.3888 364.5154 528.6022 356.9421 561.4195 353.1555 570.255 355.6799 574.0416 350.6311 585.4014 350.6311 591.7125 345.5823 610.6456 348.1067 624.5298 349.3689 629.5787 351.8933 642.2007 349.3689 649.774 353.1555 654.8228 360.7288 664.9204 363.2532 671.2315 369.5642 677.5425 368.302 685.1157 369.5642 690.1646 374.613 682.5913 380.9241 661.1338 393.5461 638.4141 399.8571 620.7432 408.6926 623.2676 411.217 595.4991 422.5769 590.4503 428.8879 581.6148 432.6745 570.255 438.9855 555.1085 452.8698 556.3707 459.1808 541.2242 470.5407 541.2242 475.5895 532.3888 483.1627 528.6022 478.1139 519.7667 480.6383 502.0958 476.8517 480.6383 483.1627 470.5407 481.9005 466.7541 470.5407 457.9186 468.0163 459.1808 459.1808 Z" id="CN.liaoning.2764861" fill="#cee3f5" stroke="#6e6e6e" stroke-width="0.4">
      <desc>
        <name>Dandong City</name>
        <admin_leve>5</admin_leve>
        <wikipedia>zh:丹东市</wikipedia>
        <localname>丹东市 / Dandong</localname>
        <boundary>administrative</boundary>
        <id>CN.liaoning.2764861</id>
      </desc>
    </path>
    <path d="M 476.8517 374.613 483.1627 365.7776 484.425 346.8445 478.1139 336.7468 485.6872 334.2224 483.1627 315.2893 476.8517 311.5027 484.425 307.7161 493.2604 307.7161 503.358 308.9783 505.8825 303.9295 517.2423 305.1917 531.1266 310.2405 542.4864 305.1917 548.7975 306.4539 553.8463 317.8137 561.4195 329.1736 566.4684 327.9114 579.0904 334.2224 590.4503 334.2224 605.5967 327.9114 604.3345 319.0759 614.4322 308.9783 624.5298 312.7649 632.1031 310.2405 642.2007 312.7649 652.2984 311.5027 657.3472 303.9295 664.9204 302.6673 672.4937 317.8137 683.8535 326.6492 683.8535 332.9602 695.2134 336.7468 699 343.0579 690.1646 350.6311 687.6401 363.2532 677.5425 368.302 671.2315 369.5642 664.9204 363.2532 654.8228 360.7288 649.774 353.1555 642.2007 349.3689 629.5787 351.8933 624.5298 349.3689 610.6456 348.1067 591.7125 345.5823 585.4014 350.6311 574.0416 350.6311 570.255 355.6799 561.4195 353.1555 528.6022 356.9421 532.3888 364.5154 532.3888 375.8752 517.2423 373.3508 510.9313 378.3996 502.0958 374.613 489.4738 378.3996 476.8517 374.613 Z" id="CN.liaoning.2766193" fill="#cee3f5" stroke="#6e6e6e" stroke-width="0.4">
      <desc>
        <name>Benxi City</name>
        <admin_leve>5</admin_leve>
        <wikipedia>zh:本溪市</wikipedia>
        <localname>本溪市 / Benxi</localname>
        <boundary>administrative</boundary>
        <id>CN.liaoning.2766193</id>
      </desc>
    </path>
    <path d="M 498.3092 261.0145 508.4069 257.2278 522.2911 258.4901 528.6022 253.4412 545.0108 253.4412 555.1085 258.4901 571.5172 252.179 576.566 244.6058 570.255 237.0325 576.566 225.6727 587.9259 229.4593 596.7613 226.9349 599.2857 219.3617 615.6944 223.1483 629.5787 211.7884 638.4141 220.6239 635.8897 225.6727 644.7251 229.4593 651.0362 242.0814 668.7071 245.868 654.8228 259.7523 648.5118 264.8011 648.5118 276.1609 653.5606 283.7342 652.2984 291.3074 664.9204 293.8318 664.9204 302.6673 657.3472 303.9295 652.2984 311.5027 642.2007 312.7649 632.1031 310.2405 624.5298 312.7649 614.4322 308.9783 604.3345 319.0759 605.5967 327.9114 590.4503 334.2224 579.0904 334.2224 566.4684 327.9114 561.4195 329.1736 553.8463 317.8137 548.7975 306.4539 542.4864 305.1917 531.1266 310.2405 517.2423 305.1917 505.8825 303.9295 503.358 308.9783 493.2604 307.7161 491.9982 305.1917 499.5714 291.3074 490.736 266.0633 498.3092 261.0145 Z" id="CN.liaoning.2766526" fill="#cee3f5" stroke="#6e6e6e" stroke-width="0.4">
      <desc>
        <name>Fushun City</name>
        <admin_leve>5</admin_leve>
        <wikipedia>en:Fushun</wikipedia>
        <localname>抚顺市 / Fushun</localname>
        <boundary>administrative</boundary>
        <id>CN.liaoning.2766526</id>
      </desc>
    </path>
    <path d="M 474.3273 161.3002 478.1139 158.7758 485.6872 142.3671 485.6872 133.5316 490.736 128.4828 489.4738 118.3852 498.3092 110.8119 504.6203 119.6474 521.0289 131.0072 531.1266 134.7939 539.962 133.5316 547.5353 138.5805 548.7975 143.6293 561.4195 152.4647 553.8463 158.7758 561.4195 162.5624 557.6329 172.66 572.7794 172.66 584.1392 163.8246 587.9259 153.7269 598.0235 148.6781 608.1212 147.4159 605.5967 156.2514 604.3345 173.9222 618.2188 182.7577 620.7432 197.9042 629.5787 211.7884 615.6944 223.1483 599.2857 219.3617 596.7613 226.9349 587.9259 229.4593 576.566 225.6727 570.255 237.0325 576.566 244.6058 571.5172 252.179 555.1085 258.4901 545.0108 253.4412 528.6022 253.4412 522.2911 258.4901 508.4069 257.2278 498.3092 261.0145 489.4738 252.179 475.5895 248.3924 466.7541 234.5081 471.8029 224.4105 465.4919 221.8861 468.0163 213.0506 494.5226 206.7396 474.3273 187.8065 479.3761 182.7577 476.8517 172.66 479.3761 167.6112 474.3273 161.3002 Z" id="CN.liaoning.2767515" fill="#cee3f5" stroke="#6e6e6e" stroke-width="0.4">
      <desc>
        <name>Tieling City</name>
        <admin_leve>5</admin_leve>
        <wikipedia>zh:铁岭市</wikipedia>
        <localname>铁岭市 / Tieling</localname>
        <boundary>administrative</boundary>
        <id>CN.liaoning.2767515</id>
      </desc>
    </path>
    <path d="M 360.7288 247.1302 406.1682 226.9349 399.8571 211.7884 407.4304 210.5262 415.0036 201.6908 397.3327 194.1175 402.3816 187.8065 407.4304 184.0199 425.1013 182.7577 436.4611 175.1844 436.4611 167.6112 444.0344 161.3002 466.7541 156.2514 474.3273 161.3002 479.3761 167.6112 476.8517 172.66 479.3761 182.7577 474.3273 187.8065 494.5226 206.7396 468.0163 213.0506 465.4919 221.8861 471.8029 224.4105 466.7541 234.5081 475.5895 248.3924 489.4738 252.179 498.3092 261.0145 490.736 266.0633 499.5714 291.3074 491.9982 305.1917 493.2604 307.7161 484.425 307.7161 476.8517 311.5027 464.2297 315.2893 438.9855 305.1917 430.1501 303.9295 415.0036 310.2405 402.3816 322.8626 393.5461 325.387 379.6618 340.5335 374.613 336.7468 384.7107 325.387 380.9241 308.9783 367.0398 303.9295 375.8752 288.783 369.5642 277.4231 368.302 261.0145 360.7288 247.1302 Z" id="CN.liaoning.2769604" fill="#cee3f5" stroke="#6e6e6e" stroke-width="0.4">
      <desc>
        <name>Shenyang City</name>
        <admin_leve>5</admin_leve>
        <wikipedia>zh:沈阳市</wikipedia>
        <localname>沈阳市 / Shenyang</localname>
        <boundary>administrative</boundary>
        <id>CN.liaoning.2769604</id>
      </desc>
    </path>
    <path d="M 379.6618 340.5335 393.5461 325.387 402.3816 322.8626 415.0036 310.2405 430.1501 303.9295 438.9855 305.1917 464.2297 315.2893 476.8517 311.5027 483.1627 315.2893 485.6872 334.2224 478.1139 336.7468 484.425 346.8445 483.1627 365.7776 476.8517 374.613 471.8029 378.3996 450.3454 383.4485 436.4611 389.7595 428.8879 387.2351 428.8879 378.3996 423.8391 373.3508 430.1501 360.7288 438.9855 360.7288 442.7722 355.6799 433.9367 350.6311 431.4123 343.0579 411.217 340.5335 401.1193 351.8933 378.3996 343.0579 379.6618 340.5335 Z" id="CN.liaoning.2769643" fill="#cee3f5" stroke="#6e6e6e" stroke-width="0.4">
      <desc>
        <name>Liaoyang City</name>
        <admin_leve>5</admin_leve>
        <wikipedia>zh:辽阳市</wikipedia>
        <localname>辽阳市 / Liaoyang</localname>
        <boundary>administrative</boundary>
        <id>CN.liaoning.2769643</id>
      </desc>
    </path>
    <path d="M 336.7468 316.5515 341.7957 311.5027 355.6799 305.1917 367.0398 303.9295 380.9241 308.9783 384.7107 325.387 374.613 336.7468 379.6618 340.5335 378.3996 343.0579 401.1193 351.8933 411.217 340.5335 431.4123 343.0579 433.9367 350.6311 442.7722 355.6799 438.9855 360.7288 430.1501 360.7288 423.8391 373.3508 428.8879 378.3996 428.8879 387.2351 436.4611 389.7595 450.3454 383.4485 471.8029 378.3996 476.8517 382.1863 473.0651 388.4973 491.9982 396.0705 494.5226 420.0524 488.2116 431.4123 476.8517 436.4611 479.3761 445.2966 474.3273 450.3454 465.4919 454.132 459.1808 459.1808 455.3942 460.443 431.4123 452.8698 425.1013 456.6564 418.7902 452.8698 407.4304 438.9855 404.906 433.9367 412.4792 421.3146 418.7902 413.7414 409.9548 407.4304 401.1193 407.4304 398.5949 402.3816 382.1863 401.1193 383.4485 385.9729 370.8264 384.7107 367.0398 375.8752 369.5642 368.302 351.8933 369.5642 354.4177 360.7288 360.7288 359.4665 355.6799 344.3201 341.7957 340.5335 345.5823 329.1736 336.7468 316.5515 Z" id="CN.liaoning.2769683" fill="#cee3f5" stroke="#6e6e6e" stroke-width="0.4">
      <desc>
        <name>Anshan City</name>
        <admin_leve>5</admin_leve>
        <wikipedia>zh:鞍山市</wikipedia>
        <localname>鞍山市 / Anshan</localname>
        <boundary>administrative</boundary>
        <id>CN.liaoning.2769683</id>
      </desc>
    </path>
    <path d="M 220.6239 235.7703 245.868 223.1483 248.3924 216.8373 262.2767 210.5262 277.4231 208.0018 284.9964 215.575 308.9783 202.953 312.7649 191.5931 325.387 187.8065 351.8933 192.8553 358.2043 191.5931 364.5154 184.0199 355.6799 182.7577 360.7288 175.1844 374.613 177.7089 380.9241 182.7577 391.0217 181.4955 402.3816 187.8065 397.3327 194.1175 415.0036 201.6908 407.4304 210.5262 399.8571 211.7884 406.1682 226.9349 360.7288 247.1302 339.2712 257.2278 334.2224 257.2278 300.1429 282.472 296.3562 279.9476 286.2586 282.472 272.3743 282.472 267.3255 288.783 252.179 287.5208 244.6058 281.2098 248.3924 273.6365 239.557 268.5877 237.0325 263.5389 221.8861 262.2767 226.9349 249.6546 220.6239 235.7703 Z" id="CN.liaoning.2769803" fill="#cee3f5" stroke="#6e6e6e" stroke-width="0.4">
      <desc>
        <name>Fuxin City</name>
        <admin_leve>5</admin_leve>
        <wikipedia>zh:阜新市</wikipedia>
        <localname>阜新市 / Fuxin</localname>
        <boundary>administrative</boundary>
        <id>CN.liaoning.2769803</id>
      </desc>
    </path>
    <path d="M 220.6239 235.7703 226.9349 249.6546 221.8861 262.2767 237.0325 263.5389 239.557 268.5877 248.3924 273.6365 244.6058 281.2098 239.557 291.3074 228.1971 298.8807 216.8373 301.4051 208.0018 308.9783 205.4774 319.0759 196.642 321.6004 191.5931 327.9114 195.3797 341.7957 181.4955 341.7957 177.7089 350.6311 163.8246 353.1555 160.038 364.5154 149.9403 360.7288 144.8915 365.7776 132.2694 359.4665 128.4828 351.8933 118.3852 351.8933 118.3852 364.5154 86.83 378.3996 75.4702 378.3996 61.5859 387.2351 48.9638 397.3327 41.3906 401.1193 22.4575 394.8083 1 379.6618 7.311 364.5154 13.6221 353.1555 24.9819 351.8933 24.9819 348.1067 35.0796 343.0579 42.6528 332.9602 41.3906 329.1736 48.9638 324.1248 57.7993 312.7649 47.7016 290.0452 50.226 269.8499 50.226 263.5389 56.5371 250.9168 47.7016 247.1302 45.1772 234.5081 60.3237 228.1971 71.6835 230.7215 81.7812 235.7703 101.9765 238.2948 101.9765 249.6546 113.3363 263.5389 127.2206 291.3074 131.0072 283.7342 151.2025 262.2767 165.0868 258.4901 165.0868 249.6546 176.4467 243.3436 180.2333 244.6058 191.5931 238.2948 196.642 238.2948 213.0506 233.2459 220.6239 235.7703 Z" id="CN.liaoning.2769829" fill="#cee3f5" stroke="#6e6e6e" stroke-width="0.4">
      <desc>
        <name>Chaoyang City</name>
        <admin_leve>5</admin_leve>
        <wikipedia>zh:朝阳市</wikipedia>
        <localname>朝阳市 / Chaoyang</localname>
        <boundary>administrative</boundary>
        <id>CN.liaoning.2769829</id>
      </desc>
    </path>
    <path d="M 41.3906 401.1193 48.9638 397.3327 61.5859 387.2351 75.4702 378.3996 86.83 378.3996 118.3852 364.5154 118.3852 351.8933 128.4828 351.8933 132.2694 359.4665 144.8915 365.7776 149.9403 360.7288 160.038 364.5154 163.8246 353.1555 177.7089 350.6311 181.4955 341.7957 195.3797 341.7957 199.1664 346.8445 211.7884 348.1067 213.0506 355.6799 221.8861 355.6799 219.3617 375.8752 214.3128 391.0217 204.2152 392.2839 197.9042 401.1193 184.0199 412.4792 177.7089 413.7414 177.7089 423.8391 168.8734 427.6257 167.6112 437.7233 162.5624 441.5099 148.6781 442.7722 146.1537 445.2966 110.8119 456.6564 95.6655 456.6564 91.8788 441.5099 85.5678 438.9855 77.9946 427.6257 77.9946 415.0036 70.4213 406.1682 47.7016 407.4304 41.3906 401.1193 Z" id="CN.liaoning.2769902" fill="#cee3f5" stroke="#6e6e6e" stroke-width="0.4">
      <desc>
        <name>Huludao City</name>
        <admin_leve>5</admin_leve>
        <wikipedia>zh:葫芦岛市</wikipedia>
        <localname>葫芦岛市 / Huludao</localname>
        <boundary>administrative</boundary>
        <id>CN.liaoning.2769902</id>
      </desc>
    </path>
    <path d="M 244.6058 281.2098 252.179 287.5208 267.3255 288.783 272.3743 282.472 286.2586 282.472 296.3562 279.9476 300.1429 282.472 334.2224 257.2278 339.2712 257.2278 360.7288 247.1302 368.302 261.0145 369.5642 277.4231 375.8752 288.783 367.0398 303.9295 355.6799 305.1917 341.7957 311.5027 336.7468 316.5515 321.6004 324.1248 314.0271 321.6004 291.3074 327.9114 274.8987 336.7468 278.6854 340.5335 277.4231 349.3689 284.9964 350.6311 286.2586 359.4665 281.2098 369.5642 274.8987 373.3508 266.0633 370.8264 254.7034 375.8752 240.8192 372.0886 219.3617 375.8752 221.8861 355.6799 213.0506 355.6799 211.7884 348.1067 199.1664 346.8445 195.3797 341.7957 191.5931 327.9114 196.642 321.6004 205.4774 319.0759 208.0018 308.9783 216.8373 301.4051 228.1971 298.8807 239.557 291.3074 244.6058 281.2098 Z" id="CN.liaoning.2770977" fill="#cee3f5" stroke="#6e6e6e" stroke-width="0.4">
      <desc>
        <name>Jinzhou City</name>
        <admin_leve>5</admin_leve>
        <wikidata>Q28996</wikidata>
        <localname>锦州市 / Jinzhou</localname>
        <boundary>administrative</boundary>
        <id>CN.liaoning.2770977</id>
      </desc>
    </path>
    <path d="M 274.8987 373.3508 281.2098 369.5642 286.2586 359.4665 284.9964 350.6311 277.4231 349.3689 278.6854 340.5335 274.8987 336.7468 291.3074 327.9114 314.0271 321.6004 321.6004 324.1248 336.7468 316.5515 345.5823 329.1736 341.7957 340.5335 355.6799 344.3201 360.7288 359.4665 354.4177 360.7288 351.8933 369.5642 346.8445 374.613 335.4846 374.613 329.1736 382.1863 336.7468 385.9729 334.2224 392.2839 324.1248 394.8083 316.5515 389.7595 314.0271 380.9241 305.1917 378.3996 301.4051 370.8264 292.5696 370.8264 287.5208 375.8752 274.8987 373.3508 Z" id="CN.liaoning.2771970" fill="#cee3f5" stroke="#6e6e6e" stroke-width="0.4">
      <desc>
        <name>Panjin City</name>
        <admin_leve>5</admin_leve>
        <wikipedia>de:Panjin</wikipedia>
        <localname>盘锦市 / Panjin</localname>
        <boundary>administrative</boundary>
        <id>CN.liaoning.2771970</id>
      </desc>
    </path>
    <path d="M 334.2224 392.2839 336.7468 385.9729 329.1736 382.1863 335.4846 374.613 346.8445 374.613 351.8933 369.5642 369.5642 368.302 367.0398 375.8752 370.8264 384.7107 383.4485 385.9729 382.1863 401.1193 398.5949 402.3816 401.1193 407.4304 409.9548 407.4304 418.7902 413.7414 412.4792 421.3146 404.906 433.9367 407.4304 438.9855 402.3816 449.0832 389.7595 452.8698 373.3508 455.3942 369.5642 468.0163 343.0579 459.1808 315.2893 450.3454 319.0759 442.7722 327.9114 437.7233 329.1736 430.1501 338.009 423.8391 344.3201 416.2658 339.2712 403.6438 331.698 398.5949 334.2224 392.2839 Z" id="CN.liaoning.2771992" fill="#cee3f5" stroke="#6e6e6e" stroke-width="0.4">
      <desc>
        <name>Yingkou City</name>
        <admin_leve>5</admin_leve>
        <wikipedia>zh:营口市</wikipedia>
        <localname>营口市 / Yingkou</localname>
        <boundary>administrative</boundary>
        <id>CN.liaoning.2771992</id>
      </desc>
    </path>
  </g>
</svg>