<?xml version="1.0" encoding="UTF-8"?>
<svg xmlns="http://www.w3.org/2000/svg" width="700" height="700">
  <g id="guinea_bissau">
    <path d="M 169.7099 330.2007 168.8909 336.1973 163.0151 344.8505 159.6191 357.5341 156.8695 360.7827 154.537 359.1352 147.2457 360.7464 144.3666 358.9268 138.7211 350.3712 131.0642 348.494 128.6759 333.7907 132.6614 332.4133 148.1865 333.4079 158.3983 328.8787 158.0048 327.4268 167.6047 327.4901 169.7099 330.2007 Z M 250.7185 307.4955 252.1443 312.2829 241.3101 331.8725 239.913 339.6433 239.7266 343.6137 240.0533 349.5479 239.4228 349.8096 224.6636 352.475 209.3561 361.4077 204.9913 362.5062 209.7134 343.7315 213.9381 335.9456 219.4768 335.6221 222.4877 337.0429 226.9956 337.1586 226.9998 335.5764 222.7058 335.3012 217.4033 330.7567 213.0252 330.8009 209.3627 333.512 207.9283 341.8615 200.5 356.2488 198.1482 357.6072 193.6884 356.4538 192.7698 353.5031 194.2905 344.9563 190.4716 346.7525 187.8703 359.3078 181.4216 361.8484 176.9928 365.2147 174.7493 364.5007 173.2689 357.7993 178.5926 344.9051 181.9199 332.0605 184.2429 328.0561 189.734 325.145 191.2546 319.5179 199.0692 308.6176 207.1291 304.7619 216.1999 303.6393 219.4664 309.2239 230.1781 311.8709 230.9099 308.5954 232.5781 305.2564 233.4476 302.4239 233.2948 302.2653 233.3225 302.2386 233.5586 302.0119 242.6955 297.083 249.9916 306.1423 250.7185 307.4955 Z" id="GW.BM" fill="#cee3f5" stroke="#6e6e6e" stroke-width="0.4">
      <desc>
        <labelrank>7</labelrank>
        <code_hasc>GW.BM</code_hasc>
        <name>Biombo</name>
        <admin>Guinea Bissau</admin>
        <type_en>Region</type_en>
        <region>Norte</region>
        <woe_id>2346611</woe_id>
        <longitude>-15</longitude>
        <woe_name/>
        <fips>PU05</fips>
        <woe_label/>
        <latitude>11</latitude>
        <iso_a2>GW</iso_a2>
        <postal>BL</postal>
        <type>Região</type>
        <id>GW.BM</id>
      </desc>
    </path>
    <path d="M 270.0188 328.0126 267.7704 329.1916 259.1211 340.3805 254.5543 341.6514 240.0533 349.5479 239.7266 343.6137 239.913 339.6433 241.3101 331.8725 252.1443 312.2829 255.6821 318.0078 261.5589 320.7473 265.8185 325.5163 270.0188 328.0126 Z" id="GW.BS" fill="#cee3f5" stroke="#6e6e6e" stroke-width="0.4">
      <desc>
        <labelrank>9</labelrank>
        <code_hasc>GW.BS</code_hasc>
        <name>Bissau</name>
        <admin>Guinea Bissau</admin>
        <type_en>Autonomous Sector</type_en>
        <region>Bissau</region>
        <woe_id>2346610</woe_id>
        <longitude>-15</longitude>
        <woe_name>Bissau</woe_name>
        <fips>PU11</fips>
        <woe_label>Bissau, GW, Guinea-Bissau</woe_label>
        <latitude>11</latitude>
        <iso_a2>GW</iso_a2>
        <postal>BS</postal>
        <type>Sector Autónomo</type>
        <id>GW.BS</id>
      </desc>
    </path>
    <path d="M 188.313 502.7334 189.8265 512.7866 193.7624 518.6372 192.5814 521.6473 189.8421 523.0895 184.4013 522.6397 182.5839 523.7454 174.159 522.6075 170.7386 524.4799 170.0042 521.5015 170.8196 519.63 174.9247 518.824 182.7142 514.7237 181.6805 512.1212 179.1068 511.2467 176.7867 512.5013 176.4584 516.2862 173.3436 512.9705 176.4422 506.8213 175.2983 495.2808 175.6521 492.2871 178.1166 489.2813 186.0237 497.1606 188.313 502.7334 Z M 171.8276 498.754 171.6368 508.7175 164.5178 518.0363 161.861 519.6849 158.387 507.4484 160.7633 503.4446 155.5364 503.4452 152.9962 501.157 152.8132 497.6905 154.6767 494.09 157.9685 491.474 170.1719 487.6732 171.8276 498.754 Z M 150.803 495.5171 150.3543 501.3077 154.6268 508.1698 151.3714 508.1583 153.5911 514.3632 151.5266 522.0222 153.0264 524.0995 148.3264 527.1718 140.2324 527.0387 135.5552 528.7823 134.5187 524.8698 135.5856 520.7487 134.1436 520.7432 131.1571 525.6199 132.5779 528.771 129.7062 527.8935 127.9008 525.6072 122.6507 526.2647 117.0274 522.5501 109.0925 511.1491 115.8415 505.4129 119.7258 504.0253 123.1452 504.8868 118.5998 506.4508 120.1491 509.7724 124.7941 506.5887 127.0147 504.8362 128.8499 496.9885 132.876 494.7908 134.2527 492.2909 138.9368 495.4733 139.5628 489.7964 143.0312 487.3231 147.595 487.792 151.4333 490.9139 152.9148 492.6804 150.803 495.5171 Z M 200.944 489.1812 195.2717 489.3342 189.6311 485.1641 189.5597 478.1006 193.1703 470.7375 198.5952 465.6398 204.5161 465.591 205.727 467.9771 203.2579 476.5683 202.9981 486.1734 200.944 489.1812 Z M 243.2553 469.9371 243.9353 481.7007 242.7898 482.6021 239.2886 476.9815 236.0079 476.6536 236.0038 478.3864 237.7143 478.3904 237.7106 479.9725 234.7432 484.6741 233.0104 486.1391 231.1196 483.7237 228.3096 484.6774 229.7736 490.5008 228.2784 497.3341 226.5935 494.307 222.0652 494.2956 219.8175 496.889 217.654 495.6874 215.69 489.3914 220.8353 484.4042 217.2687 483.0859 217.2725 481.6357 222.1104 476.6194 222.1226 471.8919 226.0822 471.9961 229.098 466.5699 234.5855 465.0105 243.9711 465.7575 243.2553 469.9371 Z M 118.7753 463.6345 120.8277 466.3555 129.6755 466.8432 130.6635 468.5236 131.3487 476.3248 126.4111 478.8388 125.3797 481.0104 126.3612 484.3485 111.3763 485.5586 101.2656 481.955 102.4126 476.9209 106.2523 474.7994 105.9531 470.8705 109.1296 467.2296 113.5639 465.0067 117.067 465.351 118.7753 463.6345 Z M 242.5115 421.3706 245.6291 422.8186 244.0611 426.1205 245.3759 427.9505 239.2219 433.8691 237.8263 430.8335 236.1171 430.8294 233.4913 433.328 229.7939 433.3189 226.5467 431.6533 225.3452 429.2205 226.4746 427.1233 231.4433 427.5219 236.144 419.6322 237.8489 421.3597 242.5192 418.0652 243.7043 419.6594 242.5115 421.3706 Z M 119.133 431.1979 117.2002 433.4692 115.258 433.5363 97.0888 430.3486 107.7936 423.6333 109.4814 420.0614 112.0829 417.8027 124.3265 415.4243 128.3364 416.1188 129.4417 418.4403 128.6247 420.6315 119.133 431.1979 Z M 110.8061 401.6343 110.3345 407.5756 104.7986 416.019 103.1989 420.6555 99.4434 421.1944 94.4414 424.0823 89.2154 419.1131 76.7393 419.0539 72.8325 421.9643 70.3415 422.1876 72.0572 419.031 70.6223 416.1321 72.0805 414.2837 68.8279 412.6851 77.3202 408.4598 95.4011 407.2075 101.6276 400.2091 103.32 401.7991 109.5677 400.2443 110.8061 401.6343 Z M 181.9403 401.7073 183.8713 401.8643 184.7911 398.8064 187.6045 401.7821 186.8512 407.9672 189.4172 410.019 186.5791 414.6813 185.8646 420.311 186.9056 425.9838 189.3526 430.7004 173.8826 436.8569 172.0497 432.0947 170.3588 432.0889 168.9261 435.3804 165.8158 432.0733 162.428 436.4504 157.9986 438.356 155.826 435.3249 147.9865 429.7581 146.9925 427.2585 154.9341 422.5505 161.066 417.0347 165.8584 403.885 171.8966 400.5719 177.0869 395.1929 179.9731 395.6263 180.2396 399.3002 181.9403 401.7073 Z M 286.3386 389.5618 286.2312 392.7258 283.72 395.3866 283.0652 398.2577 286.731 404.8652 282.3564 405.4982 277.5127 403.6157 275.4044 403.9038 270.5948 408.6411 264.3545 408.629 264.3514 410.2111 269.2047 412.0098 268.3248 415.6243 265.1074 417.7087 262.9396 414.9451 260.3564 415.6462 253.5614 414.1346 252.4638 414.9138 250.5168 413.3934 249.9086 411.2543 255.7465 408.5171 260.7183 402.1803 266.0663 402.3229 266.5189 398.8017 273.7379 391.263 277.5888 392.2871 286.3386 389.5618 Z M 312.9821 381.6999 314.9578 390.4037 317.6379 392.7705 316.0744 395.9328 309.5923 390.1897 305.0345 383.2715 304.3233 387.3575 309.6921 399.0888 305.0149 397.5005 303.9893 400.6161 302.058 400.6511 300.4458 398.2945 300.3587 394.3299 298.799 394.3276 297.1862 398.7983 297.0764 403.9398 294.2561 402.3723 294.249 406.9678 291.8743 405.4197 287.3868 395.6941 291.0042 392.0085 296.6285 380.7356 296.8377 378.4485 297.546 377.813 305.293 375.9585 308.4701 375.616 313.9028 376.496 316.4182 377.5037 316.4942 377.9096 314.5361 378.5378 316.0916 381.7038 312.9821 381.6999 Z" id="GW.BL" fill="#cee3f5" stroke="#6e6e6e" stroke-width="0.4">
      <desc>
        <labelrank>7</labelrank>
        <code_hasc>GW.BL</code_hasc>
        <name>Bolama</name>
        <admin>Guinea Bissau</admin>
        <type_en>Region</type_en>
        <region>Sul</region>
        <woe_id>2346606</woe_id>
        <longitude>-15</longitude>
        <woe_name>Bolama</woe_name>
        <fips>PU05</fips>
        <woe_label>Bolama, GW, Guinea-Bissau</woe_label>
        <latitude>11</latitude>
        <iso_a2>GW</iso_a2>
        <postal>BL</postal>
        <type>Região</type>
        <id>GW.BL</id>
      </desc>
    </path>
    <path d="M 242.6955 297.083 233.5586 302.0119 233.3225 302.2386 233.2948 302.2653 231.7648 300.6773 225.1232 305.4911 220.8678 305.3947 217.9667 301.7702 214.2076 300.036 203.6542 301.0502 200.7178 300.203 199.1041 297.4196 197.5559 297.4148 195.9215 301.224 191.686 303.6215 181.8339 305.2748 183.3805 308.5669 181.7749 308.9948 181.8178 310.0121 178.7185 307.9672 179.0745 315.0415 173.7768 321.0604 170.6467 322.3679 153.7658 322.5508 145.1829 325.8235 140.6029 329.9025 138.0216 330.542 135.8171 329.7419 130.2565 324.0393 124.6859 325.2874 117.392 323.8901 111.0596 321.1682 108.3726 318.481 103.7452 308.2493 92.8553 304.9106 89.5136 299.8739 85.2149 280.3728 91.4817 266.9712 96.5293 261.8903 102.2792 258.96 103.4798 263.7602 105.2013 264.2204 107.2033 262.148 105.5352 254.2467 108.1094 250.6134 132.9795 236.7178 143.111 225.8153 152.4483 222.8296 146.3932 222.5792 142.3396 224.258 136.0308 231.3807 131.405 234.5447 114.9465 238.4844 104.8168 245.4644 97.0667 254.2065 92.804 252.396 94.8794 242.9111 94.7347 238.3889 90.61 246.3754 89.1878 254.8085 86.9381 258.1413 83.4854 259.2544 79.1032 257.2635 77.5383 258.838 74.3022 255.6562 73.823 258.7246 72.0181 260.0905 65.7336 260.3589 62.4435 263.8645 60.4844 261.0844 52.6792 258.1025 50.9922 253.1757 44.1682 245.7327 44.0374 244.2906 37.6733 239.327 35.5405 238.071 29.3065 239.4661 24.6754 233.1075 13.7009 225.1451 10.3108 225.1239 2.6664 228.3822 1 226.3212 6.2178 222.7652 14.5938 220.8079 45.4343 223.0502 61.5301 220.0176 72.9977 219.9835 116.317 198.5921 125.5217 201.3373 129.1273 199.4871 146.3266 196.5815 154.3994 197.3319 172.9755 202.9531 191.0367 201.7366 232.5143 204.3019 240.3593 202.6837 298.4797 175.5326 304.0095 196.306 303.3123 202.7396 300.8572 209.2781 289.6413 216.5317 287.4732 215.894 284.6729 210.5786 274.1017 211.7427 254.5365 222.9198 250.9509 227.5522 246.4532 229.7781 237.148 230.8672 235.6459 236.4132 231.7748 236.9532 229.9092 233.0968 224.689 238.8477 225.1695 243.741 223.0039 246.2707 224.125 249.2162 235.5664 260.3822 243.7361 263.5603 246.0481 266.0895 243.167 279.8372 243.6111 285.9979 241.7995 292.7392 241.8254 294.1985 242.0523 295.2755 242.6955 297.083 Z" id="GW.CA" fill="#cee3f5" stroke="#6e6e6e" stroke-width="0.4">
      <desc>
        <labelrank>7</labelrank>
        <code_hasc>GW.CA</code_hasc>
        <name>Cacheu</name>
        <admin>Guinea Bissau</admin>
        <type_en>Region</type_en>
        <region>Norte</region>
        <woe_id>2346607</woe_id>
        <longitude>-16</longitude>
        <woe_name>Cacheu</woe_name>
        <fips>PU06</fips>
        <woe_label>Cacheu, GW, Guinea-Bissau</woe_label>
        <latitude>12</latitude>
        <iso_a2>GW</iso_a2>
        <postal>CA</postal>
        <type>Região</type>
        <id>GW.CA</id>
      </desc>
    </path>
    <path d="M 423.4153 147.6007 425.9833 152.2564 426.3268 157.6263 417.4594 173.9321 416.0339 179.4702 426.0259 188.3999 428.2856 194.4385 419.6969 200.351 405.1228 203.8716 403.6008 205.618 404.6923 229.765 406.351 232.8742 411.6325 237.4775 412.7396 242.4764 411.527 259.5315 402.356 259.2941 393.5616 255.2762 385.2853 255.5865 380.3491 260.0107 378.2184 264.3874 386.4291 280.3433 387.6759 287.2083 405.0332 297.4691 403.3507 303.8319 405.7539 311.7847 401.4857 314.1533 395.7816 314.3673 392.7157 309.5612 387.7742 308.6757 383.741 309.9935 376.2041 307.3362 362.2851 313.527 350.539 324.5755 345.3451 325.4475 323.0199 320.0585 312.671 313.0114 302.2134 312.0646 297.2137 313.4603 290.3442 318.318 281.0143 319.0271 273.8603 326.1993 270.0188 328.0126 265.8185 325.5163 261.5589 320.7473 255.6821 318.0078 252.1443 312.2829 250.7185 307.4955 249.9916 306.1423 242.6955 297.083 242.0523 295.2755 241.8254 294.1985 241.7995 292.7392 243.6111 285.9979 243.167 279.8372 246.0481 266.0895 243.7361 263.5603 235.5664 260.3822 224.125 249.2162 223.0039 246.2707 225.1695 243.741 224.689 238.8477 229.9092 233.0968 231.7748 236.9532 235.6459 236.4132 237.148 230.8672 246.4532 229.7781 250.9509 227.5522 254.5365 222.9198 274.1017 211.7427 284.6729 210.5786 287.4732 215.894 289.6413 216.5317 300.8572 209.2781 303.3123 202.7396 304.0095 196.306 298.4797 175.5326 310.562 166.7015 324.3961 160.3923 337.6078 150.9338 343.5057 148.2601 350.0241 147.2845 423.4153 147.6007 Z" id="GW.OI" fill="#cee3f5" stroke="#6e6e6e" stroke-width="0.4">
      <desc>
        <labelrank>8</labelrank>
        <code_hasc>GW.OI</code_hasc>
        <name>Oio</name>
        <admin>Guinea Bissau</admin>
        <type_en>Region</type_en>
        <region>Norte</region>
        <woe_id>2346605</woe_id>
        <longitude>-15</longitude>
        <woe_name>Oio</woe_name>
        <fips>PU04</fips>
        <woe_label>Oio, GW, Guinea-Bissau</woe_label>
        <latitude>12</latitude>
        <iso_a2>GW</iso_a2>
        <postal>OI</postal>
        <type>Região</type>
        <id>GW.OI</id>
      </desc>
    </path>
    <path d="M 411.3734 357.9055 413.8739 353.6051 418.3693 354.369 422.2849 362.6912 425.5192 361.6373 432.2089 365.1856 425.6312 373.8119 425.9677 375.0316 433.1867 374.2862 417.431 399.4801 414.3556 406.1424 413.2153 418.4966 403.121 433.2325 372.4217 441.7084 366.6532 439.0872 361.2703 432.9377 349.5482 426.4967 345.3831 427.8691 332.0003 438.7304 333.1663 435.7371 316.0118 448.3657 312.5115 446.2804 311.7809 443.558 312.9138 436.5062 318.7937 428.8668 317.5969 427.6789 313.6944 428.7006 310.709 431.6067 306.6448 442.2519 297.013 446.7585 291.7219 455.5742 281.4762 458.6086 279.5629 457.965 278.5679 453.0476 279.2691 450.5816 284.5385 438.8288 290.9451 429.3562 286.9511 429.1803 285.5419 427.5865 286.2857 421.4573 290.1011 422.7065 294.2295 419.7466 295.6431 424.6361 298.3543 418.9712 300.2497 418.4089 301.8614 421.4811 303.561 421.4835 302.7591 417.1035 300.3312 413.4275 301.875 411.857 313.4891 414.415 314.7437 413.6726 312.9463 410.2897 314.5029 405.5455 316.0628 405.5474 317.8984 408.0827 323.7209 407.7597 323.8465 411.8844 328.2126 410.3258 328.0951 407.1899 325.4246 403.6275 322.15 400.8272 317.6265 402.404 317.6284 400.822 327.1131 395.9451 331.6656 402.1554 335.3872 403.9763 339.5761 402.4262 336.8003 402 336.4621 395.9541 331.1068 394.3953 330.2278 391.3434 339.5829 394.3748 342.6942 392.7953 340.9994 399.1221 346.6414 403.1286 348.3501 402.7908 350.4881 399.1291 345.8233 392.0726 350.0042 387.1977 351.8983 386.4833 360.5012 390.4434 361.5187 397.5536 365.9294 395.9737 364.5104 392.809 367.9267 393.0082 370.2842 394.2804 373.8476 399.1407 361.5171 400.8589 363.0944 402.9785 365.9259 404.0062 364.9493 407.6595 366.2298 409.7317 368.18 409.5348 370.383 403.3865 384.2084 402.8063 388.9438 401.1306 390.7637 399.6241 392.695 394.3979 385.4255 397.3353 376.1227 397.5876 375.873 394.141 380.2181 392.8143 379.2719 389.4806 380.2194 386.4957 377.6298 385.8924 375.5687 387.1066 373.8496 392.8126 370.7224 389.252 365.9328 388.2048 365.9336 386.491 370.8922 381.7469 369.1954 377.019 367.6362 377.0184 364.5141 384.9083 361.7847 385.5662 358.3513 383.6057 355.1584 383.3213 357.5366 379.782 363.5342 376.395 364.52 372.1297 360.4535 375.2352 355.1642 373.7067 354.2709 377.5576 350.502 378.5722 351.1773 381.9533 349.4966 382.8656 347.1677 381.6398 345.8334 378.5689 342.3489 383.5383 340.4564 382.2184 341.592 378.283 347.2372 375.4247 344.3905 372.0701 345.8417 367.5135 351.9098 368.9585 348.879 363.6547 344.2876 361.2029 342.7195 361.2017 339.2963 371.1525 339.5989 375.4186 337.2314 376.3771 335.2054 379.3134 333.2184 380.1402 331.8269 379.3667 334.7837 373.6911 332.1119 372.5114 331.6414 369.6671 333.2349 362.7566 329.5755 366.0489 328.5493 371.3779 320.7807 372.0946 323.888 373.6801 323.8861 375.4034 329.1357 378.8555 330.2381 380.9283 329.344 384.0256 327.3103 384.7863 323.8792 381.7127 320.7607 389.6101 317.6281 377.5433 316.4942 377.9096 316.4182 377.5037 313.9028 376.496 308.4701 375.616 305.293 375.9585 297.546 377.813 296.885 378.41 296.8377 378.4485 297.1193 375.3686 289.6921 382.4574 285.7437 384.4474 281.6828 381.6529 282.7816 379.6584 283.1103 372.0405 280.1221 371.894 271.6252 379.3651 268.636 370.0645 268.6158 366.1845 276.2786 352.4216 284.8571 343.7354 289.3984 340.6919 291.4411 333.7735 294.3672 330.9813 295.7863 330.9835 298.8884 334.2749 300.8962 331.2832 303.6883 330.9953 323.078 334.3067 351.2372 334.332 357.473 329.3073 363.4556 327.8791 373.8734 318.4004 379.1032 318.4019 380.039 321.9053 374.4989 334.5507 374.6641 340.3234 378.5297 349.9956 393.7815 354.6495 398.3745 361.4484 403.6823 362.6532 408.9804 361.7105 411.3734 357.9055 Z" id="GW.QU" fill="#cee3f5" stroke="#6e6e6e" stroke-width="0.4">
      <desc>
        <labelrank>8</labelrank>
        <code_hasc>GW.QU</code_hasc>
        <name>Quinara</name>
        <admin>Guinea Bissau</admin>
        <type_en>Region</type_en>
        <region>Sul</region>
        <woe_id>2346604</woe_id>
        <longitude>-15</longitude>
        <woe_name>Quinara</woe_name>
        <fips>PU02</fips>
        <woe_label>Quinara, GW, Guinea-Bissau</woe_label>
        <latitude>11</latitude>
        <iso_a2>GW</iso_a2>
        <postal>QU</postal>
        <type>Região</type>
        <id>GW.QU</id>
      </desc>
    </path>
    <path d="M 543.6464 147.9319 536.9338 161.4472 533.4338 161.6827 528.8538 157.0524 527.5723 159.1365 529.4355 175.3272 536.8448 180.788 533.707 188.247 531.1047 188.5998 527.508 185.6894 525.1568 185.264 519.8952 189.5811 518.0213 189.8241 515.3579 186.1696 510.4635 186.251 507.675 184.4383 503.8274 184.9359 503.7502 181.2402 502.7086 180.3331 500.6122 180.887 499.9252 184.5003 502.2304 192.1629 504.5231 192.6611 511.9629 189.7884 516.7966 194.3956 517.8441 198.0295 516.0687 200.6285 511.414 203.6756 508.1107 200.5124 506.6944 200.5151 506.129 203.0517 507.9327 209.0047 507.0133 210.8244 503.3302 212.2185 498.156 211.4382 494.8413 215.3428 496.79 217.1097 495.6496 220.6758 500.4668 221.9354 504.2547 226.1626 510.1969 228.161 514.4787 231.7887 514.8491 234.7302 511.9452 244.4835 515.911 257.2614 522.3784 261.2311 523.3313 263.98 519.4616 273.4964 515.7738 274.317 511.3606 277.4351 503.8696 277.4488 501.6949 282.3203 503.3757 287.7593 510.5576 291.7649 511.1258 296.6197 507.4659 310.4283 508.8143 313.7866 515.5037 320.2685 512.3221 331.9475 512.653 345.1746 514.2941 359.5474 517.5909 364.2414 515.5465 367.5103 508.8649 371.3975 506.8124 387.4034 491.1926 388.182 477.5576 392.3509 472.6726 389.1519 468.8997 388.9411 466.6193 389.733 460.5363 395.9105 455.0847 397.638 448.7862 395.0245 443.0582 390.1018 439.2937 384.9141 437.2015 376.3765 433.1867 374.2862 425.9677 375.0316 425.6312 373.8119 432.2089 365.1856 425.5192 361.6373 422.2849 362.6912 418.3693 354.369 413.8739 353.6051 411.3734 357.9055 405.4448 359.9408 395.0897 348.4344 386.323 346.9931 383.7165 345.4012 379.3764 339.7502 378.3568 336.7742 384.7673 328.6016 389.1086 315.8704 395.7816 314.3673 401.4857 314.1533 405.7539 311.7847 403.3507 303.8319 405.0332 297.4691 387.6759 287.2083 386.4291 280.3433 378.2184 264.3874 380.3491 260.0107 385.2853 255.5865 393.5616 255.2762 402.356 259.2941 411.527 259.5315 412.7396 242.4764 411.6325 237.4775 406.351 232.8742 404.6923 229.765 403.6008 205.618 405.1228 203.8716 419.6969 200.351 428.2856 194.4385 426.0259 188.3999 416.0339 179.4702 417.4594 173.9321 426.3268 157.6263 425.9833 152.2564 423.4153 147.6007 543.6464 147.9319 Z" id="GW.BA" fill="#cee3f5" stroke="#6e6e6e" stroke-width="0.4">
      <desc>
        <labelrank>7</labelrank>
        <code_hasc>GW.BA</code_hasc>
        <name>Bafatá</name>
        <admin>Guinea Bissau</admin>
        <type_en>Region</type_en>
        <region>Leste</region>
        <woe_id>2346603</woe_id>
        <longitude>-14</longitude>
        <woe_name>Bafatá</woe_name>
        <fips>PU01</fips>
        <woe_label>Bafata, GW, Guinea-Bissau</woe_label>
        <latitude>12</latitude>
        <iso_a2>GW</iso_a2>
        <postal>BA</postal>
        <type>Região</type>
        <id>GW.BA</id>
      </desc>
    </path>
    <path d="M 523.9205 406.1151 518.6826 398.7435 516.6727 389.6579 506.8124 387.4034 508.8649 371.3975 515.5465 367.5103 517.5909 364.2414 514.2941 359.5474 512.653 345.1746 512.3221 331.9475 515.5037 320.2685 508.8143 313.7866 507.4659 310.4283 511.1258 296.6197 510.5576 291.7649 503.3757 287.7593 501.6949 282.3203 503.8696 277.4488 511.3606 277.4351 515.7738 274.317 519.4616 273.4964 523.3313 263.98 522.3784 261.2311 515.911 257.2614 511.9452 244.4835 514.8491 234.7302 514.4787 231.7887 510.1969 228.161 504.2547 226.1626 500.4668 221.9354 495.6496 220.6758 496.79 217.1097 494.8413 215.3428 498.156 211.4382 503.3302 212.2185 507.0133 210.8244 507.9327 209.0047 506.129 203.0517 506.6944 200.5151 508.1107 200.5124 511.414 203.6756 516.0687 200.6285 517.8441 198.0295 516.7966 194.3956 511.9629 189.7884 504.5231 192.6611 502.2304 192.1629 499.9252 184.5003 500.6122 180.887 502.7086 180.3331 503.7502 181.2402 503.8274 184.9359 507.675 184.4383 510.4635 186.251 515.3579 186.1696 518.0213 189.8241 519.8952 189.5811 525.1568 185.264 527.508 185.6894 531.1047 188.5998 533.707 188.247 536.8448 180.788 529.4355 175.3272 527.5723 159.1365 528.8538 157.0524 533.4338 161.6827 536.9338 161.4472 543.6464 147.9319 683.3887 147.9967 682.0424 168.3883 684.2466 174.6702 695.7766 188.9813 698.3687 193.6698 699 197.6265 693.7448 213.0852 694.0643 225.4296 691.3811 236.03 687.5861 241.934 680.9917 244.4175 665.5747 244.6789 668.4807 239.4264 664.6172 238.3191 658.3949 239.8415 648.6017 246.9884 634.7914 253.4795 629.8477 259.1445 628.3377 269.0306 640.6783 272.1766 651.8009 280.7082 658.0313 282.8593 660.962 288.2178 665.9718 293.7108 672.3923 297.1397 682.5943 299.4263 685.1143 303.2307 685.4408 307.6075 682.7835 326.6043 686.3616 358.0133 684.0571 371.0508 674.9363 375.9837 669.0815 377.0854 664.4985 376.4589 663.1415 374.754 663.4818 371.5468 658.2625 369.4392 657.4892 364.8131 655.4854 363.3978 652.0611 363.3518 651.9563 372.503 648.3928 379.1319 644.4701 381.5036 639.8841 381.605 634.9291 379.1595 619.0563 388.1397 609.0819 386.5708 595.4566 388.0139 591.7223 387.1523 585.5665 382.7333 577.9986 383.0423 556.3954 380.9831 552.1772 384.3065 548.0284 392.1743 545.1273 394.4894 523.9205 406.1151 Z" id="GW.GA" fill="#cee3f5" stroke="#6e6e6e" stroke-width="0.4">
      <desc>
        <labelrank>7</labelrank>
        <code_hasc>GW.GA</code_hasc>
        <name>Gabú</name>
        <admin>Guinea Bissau</admin>
        <type_en>Region</type_en>
        <region>Leste</region>
        <woe_id>2346609</woe_id>
        <longitude>-14</longitude>
        <woe_name>Gabu</woe_name>
        <fips>PU10</fips>
        <woe_label/>
        <latitude>12</latitude>
        <iso_a2>GW</iso_a2>
        <postal>GA</postal>
        <type>Região</type>
        <id>GW.GA</id>
      </desc>
    </path>
    <path d="M 506.8124 387.4034 516.6727 389.6579 518.6826 398.7435 523.9205 406.1151 503.7026 417.1881 494.2753 418.8894 475.3004 416.727 465.8541 417.7426 460.3136 420.7921 433.5964 458.4849 430.1668 467.1871 425.6309 485.3671 403.7239 527.6962 389.565 543.4994 374.88 552.7155 372.2373 552.3192 372.871 549.2685 378.483 545.221 383.3132 538.7529 383.3134 537.1709 381.6109 537.1706 379.4795 541.2098 375.3664 543.497 370.1654 543.0434 368.2957 541.715 367.5708 539.6054 371.6516 522.6197 373.0291 519.7952 375.4478 518.5153 379.3376 509.4577 384.7409 508.5923 384.7416 503.8464 394.2359 503.0561 392.6365 499.5532 389.5682 497.5379 392.6088 494.2988 394.4218 489.9296 394.1615 485.8051 390.9822 483.3191 388.918 489.3455 385.5147 493.7144 380.949 496.435 375.3792 497.5354 376.6521 501.2459 375.6565 503.5244 373.3874 504.004 370.8494 502.2611 369.1459 507.0064 365.8825 505.4231 365.7783 509.8771 364.4568 511.9764 358.9863 515.8345 347.0597 533.7374 341.745 537.1517 335.2734 532.796 332.653 529.3567 332.3855 526.8705 341.7383 521.6427 345.332 517.1067 347.1434 506.9946 344.7026 487.4912 347.1609 481.8525 342.0196 482.6397 340.6782 486.0662 342.9282 498.0082 342.6729 503.6014 340.9959 507.5927 335.0927 505.2525 327.0021 505.3956 320.6355 502.225 312.4985 502.5453 309.0107 495.7045 304.1774 494.4552 300.787 492.0305 299.9859 486.4264 300.695 471.2946 297.2946 470.3199 296.9817 468.163 299.8308 458.0534 308.0676 448.3558 314.1412 450.8495 319.0754 450.6575 322.3031 447.5159 326.9137 445.4962 332.0003 438.7304 345.3831 427.8691 349.5482 426.4967 361.2703 432.9377 366.6532 439.0872 372.4217 441.7084 403.121 433.2325 413.2153 418.4966 414.3556 406.1424 417.431 399.4801 433.1867 374.2862 437.2015 376.3765 439.2937 384.9141 443.0582 390.1018 448.7862 395.0245 455.0847 397.638 460.5363 395.9105 466.6193 389.733 468.8997 388.9411 472.6726 389.1519 477.5576 392.3509 491.1926 388.182 506.8124 387.4034 Z" id="GW.TO" fill="#cee3f5" stroke="#6e6e6e" stroke-width="0.4">
      <desc>
        <labelrank>8</labelrank>
        <code_hasc>GW.TO</code_hasc>
        <name>Tombali</name>
        <admin>Guinea Bissau</admin>
        <type_en>Region</type_en>
        <region>Sul</region>
        <woe_id>2346608</woe_id>
        <longitude>-14</longitude>
        <woe_name>Tombali</woe_name>
        <fips>PU07</fips>
        <woe_label>Tombali, GW, Guinea-Bissau</woe_label>
        <latitude>11</latitude>
        <iso_a2>GW</iso_a2>
        <postal>TO</postal>
        <type>Região</type>
        <id>GW.TO</id>
      </desc>
    </path>
  </g>
</svg>