<?xml version="1.0" encoding="UTF-8"?>
<svg xmlns="http://www.w3.org/2000/svg" width="700" height="700">
  <g id="united_arab_emirates">
    <path d="M 676.9321 210.2365 677.7494 214.3232 678.5667 215.1405 677.7494 216.7752 673.6628 218.4098 673.6628 222.4965 666.3068 224.1311 667.1241 231.4871 665.4895 242.1124 667.1241 247.8337 665.4895 248.6511 665.4895 250.2857 667.9415 254.3724 671.2108 260.0937 669.5761 266.6323 670.3934 268.267 672.8454 269.9016 680.2014 270.719 682.6534 272.3536 683.4707 273.9883 678.5667 278.0749 676.1148 279.7096 670.3934 280.5269 667.9415 281.3443 658.9508 281.3443 650.7775 274.8056 647.5082 272.3536 645.8735 266.6323 644.2389 261.7283 640.1522 259.2763 639.3349 255.1897 636.0656 249.4684 636.0656 245.3817 636.0656 243.7471 640.1522 234.7564 636.8829 229.8525 636.0656 228.2178 637.7002 226.5831 640.1522 224.9485 641.7869 223.3138 649.1429 224.1311 653.2295 223.3138 660.5855 224.1311 663.8548 221.6792 664.6721 217.5925 667.9415 215.1405 669.5761 212.6885 666.3068 212.6885 664.6721 211.0539 662.2201 211.0539 663.8548 207.7845 667.1241 206.9672 672.0281 208.6019 672.0281 210.2365 672.8454 211.0539 676.9321 210.2365 Z M 665.4895 160.3794 663.8548 161.1967 657.3162 162.8314 652.4122 162.8314 646.6909 167.7354 643.4215 169.37 640.1522 169.37 639.3349 170.1874 638.5176 171.822 640.9696 184.082 645.0562 184.8993 652.4122 184.8993 656.4988 183.2646 658.1335 183.2646 661.4028 185.7166 662.2201 188.1686 660.5855 190.6206 656.4988 194.7073 658.1335 197.1593 662.2201 197.9766 663.0375 198.7939 663.0375 202.8806 660.5855 203.6979 657.3162 206.1499 654.8642 206.1499 647.5082 203.6979 643.4215 200.4286 640.1522 198.7939 638.5176 199.6112 637.7002 204.5152 635.2482 208.6019 632.7963 205.3326 626.2576 198.7939 626.2576 197.1593 626.2576 196.3419 627.0749 194.7073 627.0749 193.8899 626.2576 192.2553 620.5363 187.3513 619.719 184.8993 618.9016 176.726 614.815 164.466 613.9977 163.6487 613.1803 162.8314 609.911 162.8314 606.6417 159.5621 609.911 156.2927 613.1803 155.4754 616.4496 153.0234 620.5363 152.2061 625.4403 148.1194 633.6136 139.1288 637.7002 135.8595 634.4309 143.2155 635.2482 144.0328 636.0656 144.0328 636.8829 144.0328 638.5176 135.0422 645.8735 128.5035 647.5082 125.2342 649.1429 120.3302 648.3255 120.3302 646.6909 122.7822 644.2389 124.4169 651.5948 112.1569 654.8642 101.5316 665.4895 99.897 667.1241 99.897 670.3934 108.8876 668.7588 115.4262 667.9415 128.5035 664.6721 134.2248 663.8548 136.6768 664.6721 139.1288 667.9415 143.2155 668.7588 144.8501 667.1241 146.4848 663.8548 149.7541 664.6721 158.7447 665.4895 160.3794 Z" id="AE.RK" fill="#cee3f5" stroke="#6e6e6e" stroke-width="0.4">
      <desc>
        <labelrank>9</labelrank>
        <code_hasc>AE.RK</code_hasc>
        <name>Ras Al Khaymah</name>
        <admin>United Arab Emirates</admin>
        <type_en>Emirate</type_en>
        <region/>
        <woe_id>2347113</woe_id>
        <longitude>55</longitude>
        <woe_name>Ras Al Khaymah</woe_name>
        <fips>AE05</fips>
        <woe_label>Ras Al Khaimah, AE, United Arab Emirates</woe_label>
        <latitude>25</latitude>
        <iso_a2>AE</iso_a2>
        <postal>RK</postal>
        <type>Emirate</type>
        <id>AE.RK</id>
      </desc>
    </path>
    <path d="M 632.7963 205.3326 630.3443 205.3326 629.5269 206.1499 631.1616 210.2365 631.1616 211.0539 630.3443 211.8712 629.5269 212.6885 621.3536 215.1405 618.0843 215.1405 616.4496 215.1405 615.6323 214.3232 613.9977 212.6885 613.1803 209.4192 611.5457 205.3326 610.7283 203.6979 609.0937 202.0632 602.555 196.3419 599.2857 194.7073 589.4778 191.4379 582.9391 186.534 573.9485 181.63 573.1311 180.8126 576.4005 174.274 578.0351 171.822 580.4871 171.0047 577.2178 176.726 578.0351 179.178 580.4871 179.9953 589.4778 177.5433 593.5644 169.37 600.103 163.6487 605.007 162.0141 606.6417 159.5621 609.911 162.8314 613.1803 162.8314 613.9977 163.6487 614.815 164.466 618.9016 176.726 619.719 184.8993 620.5363 187.3513 626.2576 192.2553 627.0749 193.8899 627.0749 194.7073 626.2576 196.3419 626.2576 197.1593 626.2576 198.7939 632.7963 205.3326 Z" id="AE.UQ" fill="#cee3f5" stroke="#6e6e6e" stroke-width="0.4">
      <desc>
        <labelrank>9</labelrank>
        <code_hasc>AE.UQ</code_hasc>
        <name>Umm Al Qaywayn</name>
        <admin>United Arab Emirates</admin>
        <type_en>Emirate</type_en>
        <region/>
        <woe_id>2347115</woe_id>
        <longitude>55</longitude>
        <woe_name>Umm Al Qaywayn</woe_name>
        <fips>AE07</fips>
        <woe_label>Umm Al Quwain, AE, United Arab Emirates</woe_label>
        <latitude>25</latitude>
        <iso_a2>AE</iso_a2>
        <postal>UQ</postal>
        <type>Emirate</type>
        <id>AE.UQ</id>
      </desc>
    </path>
    <path d="M 683.4707 268.267 687.5574 269.0843 689.192 268.267 688.3747 270.719 683.4707 273.9883 682.6534 272.3536 680.2014 270.719 681.0187 268.267 683.4707 268.267 Z M 695.7307 245.3817 687.5574 243.7471 685.1054 244.5644 687.5574 253.555 687.5574 256.8244 685.9227 258.459 684.2881 262.5457 682.6534 264.1803 680.2014 259.2763 669.5761 248.6511 667.1241 247.8337 665.4895 242.1124 667.1241 231.4871 666.3068 224.1311 673.6628 222.4965 673.6628 223.3138 677.7494 224.9485 680.2014 224.1311 685.9227 220.0445 693.2787 216.7752 694.096 212.6885 699 209.4192 696.548 224.9485 695.7307 245.3817 Z M 696.548 193.8899 690.0094 199.6112 682.6534 203.6979 681.0187 207.7845 676.9321 210.2365 672.8454 211.0539 672.0281 210.2365 672.0281 208.6019 667.1241 206.9672 663.8548 207.7845 662.2201 211.0539 664.6721 211.0539 666.3068 212.6885 669.5761 212.6885 667.9415 215.1405 664.6721 217.5925 663.8548 221.6792 660.5855 224.1311 653.2295 223.3138 649.1429 224.1311 641.7869 223.3138 641.7869 219.2272 640.1522 214.3232 643.4215 211.8712 644.2389 210.2365 644.2389 208.6019 640.9696 207.7845 643.4215 200.4286 647.5082 203.6979 654.8642 206.1499 657.3162 206.1499 660.5855 203.6979 663.0375 202.8806 663.0375 198.7939 662.2201 197.9766 658.1335 197.1593 656.4988 194.7073 660.5855 190.6206 662.2201 188.1686 661.4028 185.7166 658.1335 183.2646 656.4988 183.2646 652.4122 184.8993 645.0562 184.8993 640.9696 184.082 638.5176 171.822 639.3349 170.1874 640.1522 169.37 643.4215 169.37 646.6909 167.7354 652.4122 162.8314 657.3162 162.8314 663.8548 161.1967 665.4895 160.3794 669.5761 161.1967 671.2108 162.0141 673.6628 166.1007 675.2974 166.918 684.2881 164.466 686.74 166.1007 692.4614 167.7354 694.096 169.37 697.3653 179.178 696.548 193.8899 Z" id="AE.FU" fill="#cee3f5" stroke="#6e6e6e" stroke-width="0.4">
      <desc>
        <labelrank>9</labelrank>
        <code_hasc>AE.FU</code_hasc>
        <name>Fujayrah</name>
        <admin>United Arab Emirates</admin>
        <type_en>Emirate</type_en>
        <region/>
        <woe_id>2347112</woe_id>
        <longitude>56</longitude>
        <woe_name>Fujayrah</woe_name>
        <fips>AE04</fips>
        <woe_label>Fujairah, AE, United Arab Emirates</woe_label>
        <latitude>25</latitude>
        <iso_a2>AE</iso_a2>
        <postal>FU</postal>
        <type>Emirate</type>
        <id>AE.FU</id>
      </desc>
    </path>
    <path d="M 689.192 265.815 689.192 268.267 687.5574 269.0843 683.4707 268.267 682.6534 265.815 682.6534 264.1803 684.2881 262.5457 686.74 264.9977 688.3747 265.815 689.192 265.815 Z" id="AE.740" fill="#cee3f5" stroke="#6e6e6e" stroke-width="0.4">
      <desc>
        <labelrank>9</labelrank>
        <code_hasc>AE.</code_hasc>
        <name>Neutral Zone</name>
        <admin>United Arab Emirates</admin>
        <type_en>Emirate</type_en>
        <region/>
        <woe_id>-2347114</woe_id>
        <longitude>56</longitude>
        <woe_name/>
        <fips/>
        <woe_label/>
        <latitude>24</latitude>
        <iso_a2>AE</iso_a2>
        <postal>FU</postal>
        <type>Emirate</type>
        <id>AE.740</id>
      </desc>
    </path>
    <path d="M 640.1522 214.3232 638.5176 211.0539 638.5176 210.2365 638.5176 209.4192 640.9696 207.7845 644.2389 208.6019 644.2389 210.2365 643.4215 211.8712 640.1522 214.3232 Z M 560.0539 198.7939 562.5059 195.5246 563.3232 195.5246 563.3232 197.1593 564.1405 197.9766 565.7752 194.7073 566.5925 195.5246 569.8618 188.9859 579.6698 193.0726 589.4778 194.7073 590.2951 195.5246 587.0258 202.8806 585.3911 203.6979 573.1311 202.8806 563.3232 200.4286 560.0539 198.7939 Z" id="AE.AJ" fill="#cee3f5" stroke="#6e6e6e" stroke-width="0.4">
      <desc>
        <labelrank>9</labelrank>
        <code_hasc>AE.AJ</code_hasc>
        <name>Ajman</name>
        <admin>United Arab Emirates</admin>
        <type_en>Emirate</type_en>
        <region/>
        <woe_id>2347110</woe_id>
        <longitude>55</longitude>
        <woe_name>Ajman</woe_name>
        <fips>AE02</fips>
        <woe_label>Ajman, AE, United Arab Emirates</woe_label>
        <latitude>25</latitude>
        <iso_a2>AE</iso_a2>
        <postal>AJ</postal>
        <type>Emirate</type>
        <id>AE.AJ</id>
      </desc>
    </path>
    <path d="M 647.5082 272.3536 650.7775 274.8056 658.9508 281.3443 654.0468 291.9696 654.8642 294.4215 652.4122 294.4215 648.3255 291.1522 643.4215 281.3443 638.5176 276.4403 637.7002 274.8056 637.7002 273.171 640.1522 272.3536 644.2389 273.171 647.5082 275.623 647.5082 272.3536 Z" id="AE.742" fill="#cee3f5" stroke="#6e6e6e" stroke-width="0.4">
      <desc>
        <labelrank>9</labelrank>
        <code_hasc>AE.</code_hasc>
        <name>Neutral Zone</name>
        <admin>United Arab Emirates</admin>
        <type_en>Emirate</type_en>
        <region/>
        <woe_id>-2347110</woe_id>
        <longitude>56</longitude>
        <woe_name/>
        <fips/>
        <woe_label/>
        <latitude>24</latitude>
        <iso_a2>AE</iso_a2>
        <postal/>
        <type>Emirate</type>
        <id>AE.742</id>
      </desc>
    </path>
    <path d="M 683.4707 268.267 681.0187 268.267 680.2014 270.719 672.8454 269.9016 670.3934 268.267 669.5761 266.6323 671.2108 260.0937 667.9415 254.3724 665.4895 250.2857 665.4895 248.6511 667.1241 247.8337 669.5761 248.6511 680.2014 259.2763 682.6534 264.1803 682.6534 265.815 683.4707 268.267 Z M 684.2881 262.5457 685.9227 258.459 687.5574 256.8244 687.5574 253.555 685.1054 244.5644 687.5574 243.7471 695.7307 245.3817 695.7307 247.0164 699 258.459 690.8267 259.2763 690.0094 260.911 689.192 265.815 688.3747 265.815 686.74 264.9977 684.2881 262.5457 Z M 684.2881 218.4098 681.8361 219.2272 681.0187 215.9578 681.8361 215.1405 683.4707 215.1405 685.1054 215.9578 684.2881 218.4098 Z M 694.096 212.6885 688.3747 211.8712 685.9227 207.7845 681.0187 207.7845 682.6534 203.6979 690.0094 199.6112 696.548 193.8899 696.548 197.9766 695.7307 201.2459 695.7307 202.0632 699 209.4192 694.096 212.6885 Z M 632.7963 205.3326 635.2482 208.6019 637.7002 204.5152 638.5176 199.6112 640.1522 198.7939 643.4215 200.4286 640.9696 207.7845 638.5176 209.4192 638.5176 210.2365 638.5176 211.0539 640.1522 214.3232 641.7869 219.2272 641.7869 223.3138 640.1522 224.9485 637.7002 226.5831 636.0656 228.2178 636.8829 229.8525 640.1522 234.7564 636.0656 243.7471 636.0656 245.3817 636.0656 249.4684 639.3349 255.1897 640.1522 259.2763 634.4309 258.459 628.7096 260.0937 623.8056 263.363 618.9016 266.6323 613.9977 272.3536 613.1803 276.4403 613.9977 287.8829 613.1803 296.0562 614.815 300.1429 606.6417 300.1429 596.0164 297.6909 596.8337 293.6042 596.8337 288.7002 595.1991 278.0749 594.3817 270.719 593.5644 267.4496 588.6604 256.007 589.4778 253.555 592.7471 250.2857 593.5644 248.6511 589.4778 231.4871 587.8431 229.0351 585.3911 226.5831 575.5831 220.0445 571.4965 217.5925 567.4098 215.1405 563.3232 211.0539 557.6019 212.6885 553.5152 213.5059 545.3419 211.0539 547.7939 209.4192 551.0632 208.6019 550.2459 205.3326 551.0632 203.6979 553.5152 202.8806 554.3326 203.6979 557.6019 201.2459 560.0539 198.7939 563.3232 200.4286 573.1311 202.8806 585.3911 203.6979 587.0258 202.8806 590.2951 195.5246 589.4778 194.7073 579.6698 193.0726 569.8618 188.9859 572.3138 186.534 569.8618 185.7166 570.6792 184.082 573.1311 181.63 573.1311 180.8126 573.9485 181.63 582.9391 186.534 589.4778 191.4379 599.2857 194.7073 602.555 196.3419 609.0937 202.0632 610.7283 203.6979 611.5457 205.3326 613.1803 209.4192 613.9977 212.6885 615.6323 214.3232 616.4496 215.1405 618.0843 215.1405 621.3536 215.1405 623.8056 215.1405 629.5269 212.6885 630.3443 211.8712 631.1616 211.0539 631.1616 210.2365 629.5269 206.1499 630.3443 205.3326 632.7963 205.3326 Z" id="AE.SH" fill="#cee3f5" stroke="#6e6e6e" stroke-width="0.4">
      <desc>
        <labelrank>7</labelrank>
        <code_hasc>AE.SH</code_hasc>
        <name>Sharjah</name>
        <admin>United Arab Emirates</admin>
        <type_en>Emirate</type_en>
        <region/>
        <woe_id>2347114</woe_id>
        <longitude>55</longitude>
        <woe_name>Sharjah</woe_name>
        <fips>AE06</fips>
        <woe_label>Sharjah, AE, United Arab Emirates</woe_label>
        <latitude>25</latitude>
        <iso_a2>AE</iso_a2>
        <postal>SH</postal>
        <type>Emirate</type>
        <id>AE.SH</id>
      </desc>
    </path>
    <path d="M 66.3864 368.7986 64.7518 369.6159 63.1171 368.7986 64.7518 363.8946 66.3864 363.0773 67.2037 364.7119 66.3864 368.7986 Z M 333.6534 366.3466 337.74 368.7986 342.644 369.6159 346.7307 371.2506 348.3653 375.3372 346.7307 378.6066 341.8267 380.2412 336.9227 380.2412 332.8361 378.6066 332.8361 376.9719 332.0187 375.3372 330.3841 374.5199 328.7494 377.7892 329.5667 378.6066 325.4801 381.0585 320.5761 381.8759 315.6721 381.0585 307.4988 377.7892 299.3255 376.9719 299.3255 375.3372 301.7775 373.7026 309.1335 370.4333 313.2201 367.1639 317.3068 366.3466 320.5761 367.9813 324.6628 364.7119 330.3841 362.26 331.2014 360.6253 332.0187 362.26 331.2014 363.8946 333.6534 366.3466 Z M 382.6932 363.8946 381.0585 367.9813 379.4239 364.7119 372.8852 363.0773 369.6159 361.4426 367.9813 357.356 370.4333 354.0867 373.7026 353.2693 381.0585 360.6253 382.6932 363.8946 Z M 389.2319 359.808 386.7799 359.808 383.5105 356.5386 380.2412 354.904 379.4239 354.0867 380.2412 351.6347 382.6932 349.1827 387.5972 348.3653 390.0492 353.2693 393.3185 356.5386 389.2319 359.808 Z M 152.2061 361.4426 149.7541 363.8946 147.3021 362.26 144.0328 355.7213 144.8501 353.2693 148.9368 348.3653 152.2061 346.7307 155.4754 347.548 157.1101 350 157.9274 353.2693 157.9274 355.7213 154.6581 359.808 152.2061 361.4426 Z M 402.3091 347.548 402.3091 350 400.6745 354.0867 398.2225 354.904 394.1358 347.548 396.5878 347.548 399.0398 349.1827 398.2225 347.548 396.5878 345.9133 395.7705 345.096 397.4052 344.2787 402.3091 347.548 Z M 270.719 353.2693 262.5457 356.5386 258.459 357.356 256.8244 358.9906 256.8244 360.6253 255.1897 362.26 253.555 359.808 251.103 359.808 248.6511 358.9906 247.0164 360.6253 239.6604 359.808 235.5738 360.6253 235.5738 359.808 236.3911 356.5386 242.1124 357.356 243.7471 357.356 256.007 351.6347 257.6417 351.6347 259.2763 354.0867 260.0937 354.904 261.7283 354.0867 261.7283 350.8173 260.911 350 266.6323 342.644 269.0843 341.0094 269.9016 343.4614 273.171 345.096 272.3536 350.8173 270.719 353.2693 Z M 421.9251 338.5574 419.4731 339.3747 416.2037 338.5574 402.3091 334.4707 402.3091 332.8361 408.0304 327.9321 409.6651 324.6628 411.2998 324.6628 409.6651 327.9321 411.2998 330.3841 413.7518 332.0187 418.6557 334.4707 421.9251 336.9227 421.9251 338.5574 Z M 111.3396 331.2014 108.8876 331.2014 104.8009 328.7494 104.8009 326.2974 107.2529 323.0281 108.8876 322.2108 112.1569 324.6628 112.9742 327.9321 111.3396 331.2014 Z M 23.0679 315.6721 23.0679 314.0375 23.0679 314.8548 23.0679 315.6721 22.2506 314.8548 22.2506 313.2201 23.8852 312.4028 25.5199 314.0375 25.5199 314.8548 24.7026 318.9415 23.8852 318.1241 23.8852 314.8548 23.0679 315.6721 Z M 220.8618 273.9883 220.0445 276.4403 217.5925 273.9883 216.7752 272.3536 217.5925 270.719 220.0445 271.5363 220.8618 273.9883 Z M 596.0164 297.6909 606.6417 300.1429 614.815 300.1429 616.4496 304.2295 617.267 307.4988 613.1803 310.7681 612.363 315.6721 608.2763 319.7588 609.0937 323.0281 610.7283 328.7494 609.911 336.9227 610.7283 338.5574 615.6323 342.644 615.6323 350.8173 609.0937 362.26 607.459 364.7119 608.2763 367.1639 618.9016 369.6159 621.3536 369.6159 629.5269 367.1639 633.6136 368.7986 636.0656 373.7026 637.7002 380.2412 643.4215 388.4145 641.7869 390.8665 631.9789 393.3185 615.6323 399.8571 613.1803 399.0398 609.0937 396.5878 604.1897 397.4052 591.9297 396.5878 587.8431 397.4052 577.2178 402.3091 570.6792 404.7611 564.9578 405.5785 564.1405 408.0304 565.7752 410.4824 568.2272 412.9344 573.1311 415.3864 575.5831 418.6557 576.4005 434.185 575.5831 435.8197 568.2272 447.2623 563.3232 465.2436 552.6979 477.5035 551.0632 482.4075 548.6112 497.1194 545.3419 505.2927 531.4473 528.178 526.5433 542.0726 526.5433 546.1593 527.3607 567.4098 525.726 588.6604 515.918 600.103 513.466 600.103 412.9344 587.8431 312.4028 575.5831 191.4379 560.8712 148.1194 555.1499 144.8501 554.3326 141.5808 551.8806 81.0984 479.9555 5.0867 389.2319 2.6347 385.9625 1.8173 381.8759 1.8173 368.7986 1 363.0773 4.2693 358.9906 4.2693 353.2693 1.8173 347.548 5.0867 345.096 9.1733 351.6347 9.9906 354.0867 9.9906 362.26 10.808 367.9813 12.4426 368.7986 14.8946 367.1639 16.5293 360.6253 18.9813 366.3466 20.6159 367.9813 23.0679 367.9813 23.8852 367.1639 23.0679 366.3466 26.3372 360.6253 28.7892 358.1733 32.0585 362.26 32.0585 365.5293 30.4239 375.3372 30.4239 378.6066 32.8759 385.1452 32.8759 393.3185 36.1452 400.6745 39.4145 401.4918 46.7705 401.4918 48.4052 402.3091 53.3091 405.5785 54.1265 405.5785 54.9438 404.7611 54.1265 402.3091 56.5785 401.4918 66.3864 402.3091 73.7424 405.5785 81.0984 404.7611 83.5504 405.5785 84.3677 404.7611 86.0023 405.5785 88.4543 404.7611 95.8103 403.9438 103.9836 400.6745 112.9742 399.8571 118.6956 394.9532 126.0515 393.3185 127.6862 391.6838 130.1382 388.4145 134.2248 386.7799 140.7635 381.0585 147.3021 378.6066 148.1194 371.2506 150.5714 370.4333 153.0234 371.2506 155.4754 372.8852 160.3794 379.4239 162.0141 380.2412 164.466 378.6066 167.7354 378.6066 176.726 380.2412 183.2646 378.6066 188.9859 379.4239 201.2459 380.2412 207.7845 378.6066 208.6019 376.1546 209.4192 376.1546 215.9578 381.8759 218.4098 382.6932 224.1311 380.2412 229.8525 382.6932 232.3044 382.6932 230.6698 381.0585 229.0351 376.1546 232.3044 376.1546 236.3911 377.7892 239.6604 380.2412 245.3817 385.9625 253.555 386.7799 273.171 383.5105 278.0749 386.7799 282.1616 387.5972 283.7963 386.7799 289.5176 389.2319 291.9696 392.5012 294.4215 394.1358 297.6909 393.3185 300.1429 392.5012 304.2295 393.3185 310.7681 390.0492 314.8548 391.6838 332.0187 391.6838 336.1054 390.8665 346.7307 385.1452 355.7213 384.3279 365.5293 380.2412 371.2506 379.4239 376.1546 376.9719 378.6066 374.5199 379.4239 372.0679 381.0585 371.2506 390.0492 368.7986 398.2225 363.0773 399.0398 363.0773 400.6745 361.4426 403.1265 361.4426 408.8478 363.8946 410.4824 362.26 415.3864 358.1733 417.8384 354.904 423.5597 344.2787 422.7424 341.0094 423.5597 338.5574 426.0117 337.74 423.5597 336.9227 423.5597 336.1054 426.0117 336.1054 431.733 337.74 430.9157 336.1054 428.4637 333.6534 427.6464 332.0187 434.185 334.4707 435.8197 336.1054 436.637 336.1054 436.637 332.0187 433.3677 330.3841 426.0117 329.5667 417.0211 324.6628 413.7518 323.8454 413.7518 323.0281 417.8384 321.3934 418.6557 319.7588 419.4731 322.2108 421.1077 323.0281 420.2904 321.3934 421.1077 320.5761 422.7424 318.1241 423.5597 318.1241 425.1944 322.2108 427.6464 325.4801 431.733 327.9321 435.0023 327.9321 431.733 325.4801 438.2717 327.1148 440.7237 323.8454 445.6276 314.0375 443.1756 313.2201 442.3583 311.5855 443.1756 310.7681 446.445 309.1335 448.0796 305.0468 450.5316 304.2295 450.5316 303.4122 449.7143 302.5948 448.0796 296.8735 448.897 296.0562 446.445 294.4215 446.445 291.9696 453.8009 287.0656 456.2529 283.7963 460.3396 286.2482 462.7916 285.4309 465.2436 284.6136 466.0609 282.1616 463.6089 280.5269 479.1382 271.5363 493.8501 261.7283 497.1194 260.911 499.5714 260.0937 500.3888 261.7283 518.37 308.3162 521.6393 313.2201 527.3607 314.0375 558.4192 313.2201 562.5059 312.4028 566.5925 310.7681 576.4005 305.8642 592.7471 300.1429 596.0164 297.6909 Z M 192.2553 233.9391 192.2553 236.3911 190.6206 234.7564 190.6206 232.3044 192.2553 233.9391 Z M 386.7799 220.0445 388.4145 225.7658 386.7799 224.9485 384.3279 224.9485 381.8759 221.6792 384.3279 219.2272 386.7799 220.0445 Z" id="AE.AZ" fill="#cee3f5" stroke="#6e6e6e" stroke-width="0.4">
      <desc>
        <labelrank>6</labelrank>
        <code_hasc>AE.AZ</code_hasc>
        <name>Abu Dhabi</name>
        <admin>United Arab Emirates</admin>
        <type_en>Emirate</type_en>
        <region/>
        <woe_id>2347109</woe_id>
        <longitude>54</longitude>
        <woe_name>Abu Dhabi</woe_name>
        <fips>AE01</fips>
        <woe_label>Abu Dhabi, AE, United Arab Emirates</woe_label>
        <latitude>23</latitude>
        <iso_a2>AE</iso_a2>
        <postal>AZ</postal>
        <type>Emirate</type>
        <id>AE.AZ</id>
      </desc>
    </path>
    <path d="M 658.9508 281.3443 667.9415 281.3443 665.4895 286.2482 663.0375 290.3349 662.2201 292.7869 660.5855 293.6042 654.8642 294.4215 654.0468 291.9696 658.9508 281.3443 Z M 519.1874 242.1124 520.0047 241.2951 520.0047 242.9297 519.1874 242.1124 Z M 518.37 238.8431 520.822 237.2084 518.37 238.8431 520.822 238.0258 518.37 238.8431 520.822 238.8431 519.1874 239.6604 520.822 238.8431 519.1874 239.6604 520.822 239.6604 520.822 241.2951 519.1874 240.4778 519.1874 239.6604 518.37 241.2951 518.37 239.6604 518.37 241.2951 518.37 239.6604 517.5527 241.2951 518.37 239.6604 516.7354 241.2951 518.37 238.8431 515.918 240.4778 518.37 238.8431 515.918 239.6604 517.5527 238.8431 515.918 238.8431 517.5527 238.8431 516.7354 238.8431 516.7354 238.0258 517.5527 238.0258 517.5527 237.2084 517.5527 238.8431 518.37 237.2084 518.37 238.8431 520.0047 237.2084 518.37 238.8431 Z M 521.6393 239.6604 520.822 236.3911 521.6393 238.0258 521.6393 239.6604 Z M 520.822 236.3911 518.37 236.3911 515.918 238.0258 515.1007 239.6604 515.918 241.2951 515.1007 238.8431 515.918 237.2084 517.5527 236.3911 520.0047 236.3911 520.822 236.3911 Z M 520.822 229.8525 523.274 229.8525 523.274 229.0351 523.274 229.8525 520.822 229.8525 519.1874 229.0351 519.1874 228.2178 520.822 229.8525 Z M 524.9087 229.0351 524.0913 229.0351 526.5433 228.2178 524.9087 229.0351 Z M 524.9087 228.2178 524.9087 227.4005 525.726 228.2178 524.9087 228.2178 Z M 526.5433 225.7658 526.5433 226.5831 526.5433 225.7658 527.3607 224.1311 528.178 224.1311 526.5433 225.7658 Z M 519.1874 228.2178 518.37 227.4005 519.1874 226.5831 518.37 226.5831 518.37 224.1311 519.1874 225.7658 519.1874 227.4005 519.1874 228.2178 Z M 528.178 225.7658 528.9953 223.3138 528.178 225.7658 527.3607 227.4005 526.5433 227.4005 528.178 225.7658 Z M 527.3607 221.6792 528.178 222.4965 527.3607 221.6792 526.5433 222.4965 526.5433 221.6792 527.3607 221.6792 Z M 528.178 222.4965 527.3607 221.6792 528.178 221.6792 528.178 222.4965 Z M 523.274 220.0445 524.0913 220.8618 523.274 220.8618 523.274 220.0445 Z M 517.5527 226.5831 517.5527 224.1311 519.1874 220.0445 520.0047 220.0445 519.1874 220.0445 518.37 222.4965 517.5527 224.1311 517.5527 225.7658 517.5527 226.5831 518.37 229.0351 517.5527 226.5831 Z M 523.274 220.0445 524.0913 219.2272 524.0913 220.0445 523.274 220.0445 Z M 527.3607 219.2272 524.0913 218.4098 521.6393 219.2272 520.0047 220.0445 521.6393 219.2272 524.0913 218.4098 524.9087 218.4098 527.3607 219.2272 Z M 596.0164 297.6909 592.7471 300.1429 576.4005 305.8642 566.5925 310.7681 562.5059 312.4028 558.4192 313.2201 527.3607 314.0375 521.6393 313.2201 518.37 308.3162 500.3888 261.7283 499.5714 260.0937 497.1194 260.911 497.1194 260.0937 495.4848 260.0937 496.3021 260.0937 493.8501 259.2763 493.0328 258.459 495.4848 260.0937 493.0328 257.6417 492.2155 259.2763 492.2155 258.459 493.0328 257.6417 492.2155 255.1897 494.6674 251.9204 495.4848 251.103 497.1194 251.103 493.8501 253.555 493.0328 256.007 493.0328 257.6417 494.6674 259.2763 496.3021 259.2763 497.9368 260.0937 499.5714 259.2763 497.9368 256.007 497.1194 258.459 497.1194 256.007 496.3021 258.459 497.1194 256.007 495.4848 257.6417 497.1194 256.007 494.6674 257.6417 497.1194 255.1897 493.8501 256.8244 495.4848 256.007 497.1194 255.1897 495.4848 255.1897 493.8501 256.007 494.6674 255.1897 496.3021 255.1897 494.6674 255.1897 496.3021 254.3724 494.6674 253.555 496.3021 254.3724 495.4848 253.555 496.3021 253.555 496.3021 252.7377 496.3021 253.555 497.9368 252.7377 497.1194 254.3724 498.7541 252.7377 497.1194 254.3724 499.5714 252.7377 497.1194 255.1897 499.5714 253.555 500.3888 253.555 497.9368 255.1897 498.7541 254.3724 501.2061 254.3724 497.9368 255.1897 501.2061 255.1897 497.9368 256.007 501.2061 256.007 497.9368 256.007 500.3888 256.8244 497.9368 256.007 500.3888 259.2763 501.2061 259.2763 502.0234 255.1897 502.0234 253.555 500.3888 251.9204 497.9368 251.9204 497.9368 251.103 500.3888 251.9204 502.0234 253.555 502.8407 253.555 503.6581 253.555 502.0234 253.555 502.8407 256.007 502.8407 253.555 502.8407 256.007 502.8407 256.8244 502.8407 256.007 501.2061 257.6417 501.2061 259.2763 506.1101 256.8244 505.2927 253.555 509.3794 252.7377 510.1967 253.555 521.6393 241.2951 536.3513 224.1311 537.1686 222.4965 536.3513 220.0445 539.6206 217.5925 542.0726 218.4098 543.7073 220.8618 544.5246 223.3138 543.7073 224.9485 542.0726 227.4005 546.1593 226.5831 546.9766 224.1311 542.8899 214.3232 545.3419 211.0539 553.5152 213.5059 557.6019 212.6885 563.3232 211.0539 567.4098 215.1405 571.4965 217.5925 575.5831 220.0445 585.3911 226.5831 587.8431 229.0351 589.4778 231.4871 593.5644 248.6511 592.7471 250.2857 589.4778 253.555 588.6604 256.007 593.5644 267.4496 594.3817 270.719 595.1991 278.0749 596.8337 288.7002 596.8337 293.6042 596.0164 297.6909 Z" id="AE.DU" fill="#cee3f5" stroke="#6e6e6e" stroke-width="0.4">
      <desc>
        <labelrank>7</labelrank>
        <code_hasc>AE.DU</code_hasc>
        <name>Dubay</name>
        <admin>United Arab Emirates</admin>
        <type_en>Emirate</type_en>
        <region/>
        <woe_id>2347111</woe_id>
        <longitude>55</longitude>
        <woe_name>Dubay</woe_name>
        <fips>AE03</fips>
        <woe_label>Dubai, AE, United Arab Emirates</woe_label>
        <latitude>24</latitude>
        <iso_a2>AE</iso_a2>
        <postal>DU</postal>
        <type>Emirate</type>
        <id>AE.DU</id>
      </desc>
    </path>
  </g>
</svg>