<?xml version="1.0" encoding="UTF-8"?>
<svg xmlns="http://www.w3.org/2000/svg" width="700" height="700">
  <g id="qatar">
    <path d="M 466.1382 432.5608 460.2225 437.9836 447.3003 420.6772 456.552 412.686 472.8598 427.9644 466.1382 432.5608 Z M 517.8894 394.9267 519.3254 402.583 519.3257 402.5846 516.6176 402.2756 504.5546 400.1979 492.4867 411.1985 485.3408 398.1361 479.6561 392.974 453.2079 349.6923 481.1451 339.4435 481.1448 339.4486 479.7907 362.3988 480.3282 371.9773 482.5814 376.844 487.529 378.9451 510.8423 382.4791 514.4797 386.3246 517.8894 394.9267 Z" id="QA.DA" fill="#cee3f5" stroke="#6e6e6e" stroke-width="0.4">
      <desc>
        <labelrank>9</labelrank>
        <code_hasc>QA.DA</code_hasc>
        <name>Ad Dawhah</name>
        <admin>Qatar</admin>
        <type_en>Municipality</type_en>
        <region/>
        <woe_id>20070008</woe_id>
        <longitude>51</longitude>
        <woe_name>Ad Dawhah</woe_name>
        <fips>QA01</fips>
        <woe_label>Doha, QA, Qatar</woe_label>
        <latitude>25</latitude>
        <iso_a2>QA</iso_a2>
        <postal>DA</postal>
        <type>Baladiyah</type>
        <id>QA.DA</id>
      </desc>
    </path>
    <path d="M 256.6441 169.1112 317.8986 169.0223 317.9472 187.7013 360.968 187.5716 363.9481 210.5101 374.4861 236.996 390.4106 260.1115 390.4245 294.6447 397.4092 339.1889 428.4581 341.4304 453.2079 349.6923 479.6561 392.974 485.3408 398.1361 492.4867 411.1985 482.6431 421.2712 472.8598 427.9644 456.552 412.686 447.3003 420.6772 460.2225 437.9836 450.9929 446.4407 444.8705 465.2976 437.3697 480.0817 408.8303 467.5575 409.4433 502.5626 364.9777 502.7317 365.4827 662.025 362.1577 666.6309 363.0751 669.4664 363.238 670.0471 336.275 691.7424 315.5652 698.8148 293.0021 699 269.0733 695.6184 249.0147 687.1525 230.0221 665.7235 200.8608 617.6752 208.3453 616.7851 218.7399 607.4831 221.4532 596.3223 218.025 554.811 214.7172 543.7959 197.6879 512.1178 196.3603 505.6426 200.6244 493.4176 201.5589 484.8836 201.1036 477.0599 198.6464 473.6543 188.0461 467.1631 185.1373 452.3669 184.5552 436.3286 180.9386 426.0207 183.7797 418.1434 183.1662 408.9887 181.4234 399.3017 180.9396 389.7743 184.1008 366.142 183.8425 357.0226 178.2344 324.2527 182.778 305.4638 183.3255 296.8765 178.2369 291.5181 188.9274 277.4126 196.4786 276.1678 200.9872 281.6853 202.2422 289.6873 205.7497 292.9971 205.7447 301.4843 216.3113 303.4302 210.0206 285.798 208.6644 278.2758 208.1776 270.3984 208.9477 265.5011 210.3613 260.355 210.6159 254.9611 208.1673 249.5686 204.9484 247.441 196.2598 245.7762 191.6903 243.6126 196.1934 238.0759 201.4049 236.6193 206.9059 235.9428 212.2125 233.0302 213.4978 230.5455 216.0026 223.8549 217.6099 222.4877 220.2158 223.4262 222.7277 227.5229 225.6556 228.4432 227.7171 231.7239 226.9835 239.07 224.3869 250.8888 224.3942 259.9553 224.7831 263.2196 227.9768 271.485 229.8784 273.8608 232.7139 276.3244 236.6728 275.1317 237.4764 273.9776 237.2166 271.8488 238.8154 261.6451 239.0616 251.2121 240.7942 246.5616 245.2935 241.9255 248.0301 243.3061 251.2838 246.2827 256.7543 246.5414 259.2598 243.5038 264.774 230.7738 267.7891 225.4106 256.859 229.6501 246.7607 231.4733 238.3932 228.0763 232.6565 216.5138 232.2003 210.3042 235.0735 189.7195 236.0358 187.7668 239.8571 184.5512 240.7223 182.2969 240.2382 180.4876 238.2108 177.8639 237.7589 176.0368 237.745 162.9246 243.208 164.267 245.0672 160.8049 246.3786 156.1013 250.0374 153.7191 252.7375 155.2059 255.0556 158.9998 256.5083 164.0013 256.6441 169.1112 Z" id="QA.RA" fill="#cee3f5" stroke="#6e6e6e" stroke-width="0.4">
      <desc>
        <labelrank>9</labelrank>
        <code_hasc>QA.RA</code_hasc>
        <name>Ar Rayyān</name>
        <admin>Qatar</admin>
        <type_en>Municipality</type_en>
        <region/>
        <woe_id>20070010</woe_id>
        <longitude>51</longitude>
        <woe_name>Ar Rayyan</woe_name>
        <fips>QA06</fips>
        <woe_label>Al Rayyan, QA, Qatar</woe_label>
        <latitude>25</latitude>
        <iso_a2>QA</iso_a2>
        <postal>RA</postal>
        <type>Baladiyah</type>
        <id>QA.RA</id>
      </desc>
    </path>
    <path d="M 365.4827 662.025 364.9777 502.7317 409.4433 502.5626 408.8303 467.5575 437.3697 480.0817 444.8705 465.2976 450.9929 446.4407 460.2225 437.9836 466.1382 432.5608 472.8598 427.9644 482.6431 421.2712 492.4867 411.1985 504.5546 400.1979 516.6176 402.2756 519.3257 402.5846 520.7622 410.3101 521.7656 446.3233 517.7503 491.2394 519.884 496.4071 516.4478 500.1546 510.4974 526.5219 505.4361 534.8561 491.7425 550.4256 487.5955 561.1124 484.4327 562.7979 480.8139 564.0067 478.201 565.6711 476.2793 569.4784 466.1281 609.163 466.1267 609.1685 465.5874 611.3713 463.5057 616.066 458.8577 619.5849 456.7284 627.8812 454.1294 646.1682 448.91 652.847 432.8397 662.5211 429.4817 665.7653 427.3865 675.8873 422.3885 682.6866 416.9294 688.1745 413.2887 694.2574 408.622 687.7836 410.0889 681.6391 413.6282 674.7229 415.6663 665.8259 412.565 660.9957 405.3949 660.156 391.3917 661.5951 390.7465 653.9689 388.2166 653.7656 384.1746 656.7434 378.8638 658.6787 371.8623 659.4663 365.4827 662.025 Z" id="QA.WA" fill="#cee3f5" stroke="#6e6e6e" stroke-width="0.4">
      <desc>
        <labelrank>9</labelrank>
        <code_hasc>QA.WA</code_hasc>
        <name>Al Wakrah</name>
        <admin>Qatar</admin>
        <type_en>Municipality</type_en>
        <region/>
        <woe_id>20070012</woe_id>
        <longitude>51</longitude>
        <woe_name>Al Wakrah</woe_name>
        <fips>QA05</fips>
        <woe_label>Al Wakra, QA, Qatar</woe_label>
        <latitude>24</latitude>
        <iso_a2>QA</iso_a2>
        <postal>WA</postal>
        <type>Baladiyah</type>
        <id>QA.WA</id>
      </desc>
    </path>
    <path d="M 488.5311 234.9472 478.2324 228.7061 455.5522 219.7495 437.137 240.2719 435.2077 266.4096 396.2001 266.4654 390.4106 260.1115 374.4861 236.996 363.9481 210.5101 360.968 187.5716 317.9472 187.7013 317.8986 169.0223 256.6441 169.1112 262.229 165.3591 265.882 159.4094 267.0269 152.3102 265.6277 147.3766 265.6995 147.35 317.5324 147.6525 317.4139 102.2545 372.832 102.0799 372.8726 114.7083 393.7159 114.6274 393.8341 128.5211 412.8843 128.4692 413.0386 145.1916 441.0168 144.8005 440.5756 93.1625 440.6258 91.4241 443.704 91.9402 460.7322 90.467 470.3619 91.3547 478.2685 93.8297 485.1889 97.6226 491.7637 102.4812 497.059 107.826 501.4007 114.5071 504.2728 122.1375 511.3793 169.6142 511.3205 175.5592 510.1955 180.6236 507.0272 182.7728 504.7043 181.3499 502.4481 175.0644 499.0008 173.6126 495.8949 175.4592 493.1249 179.77 491.6763 184.7826 492.2789 188.8248 495.834 192.0508 499.2388 191.6044 501.8589 189.0332 503.2853 185.7771 509.7122 195.7807 504.5348 205.9452 496.6437 209.0631 495.0324 197.7517 489.6732 199.3805 476.2118 206.7688 481.9809 209.1138 488.0154 212.7696 492.8651 217.1417 495.175 221.5641 493.8808 231.0828 488.5311 234.9472 Z" id="QA.KH" fill="#cee3f5" stroke="#6e6e6e" stroke-width="0.4">
      <desc>
        <labelrank>9</labelrank>
        <code_hasc>QA.KH</code_hasc>
        <name>Al Khawr</name>
        <admin>Qatar</admin>
        <type_en>Municipality</type_en>
        <region/>
        <woe_id>20070006</woe_id>
        <longitude>51</longitude>
        <woe_name>Al Khawr</woe_name>
        <fips>QA04</fips>
        <woe_label>Al Khor, QA, Qatar</woe_label>
        <latitude>25</latitude>
        <iso_a2>QA</iso_a2>
        <postal>KH</postal>
        <type>Baladiyah</type>
        <id>QA.KH</id>
      </desc>
    </path>
    <path d="M 440.6258 91.4241 440.5756 93.1625 441.0168 144.8005 413.0386 145.1916 412.8843 128.4692 393.8341 128.5211 393.7159 114.6274 372.8726 114.7083 372.832 102.0799 317.4139 102.2545 317.5324 147.6525 265.6995 147.35 265.6277 147.3766 264.9597 145.021 262.2666 148.0061 256.5408 141.7867 257.2339 132.4882 267.4994 107.5427 269.1219 99.0763 270.179 79.2371 273.4549 81.68 274.6761 82.9377 275.8354 85.4729 278.2734 85.4685 287.138 59.3323 295.0003 47.9241 306.2402 43.1605 312.1984 41.815 328.75 35.1696 332.1718 32.6756 334.267 25.9976 343.4334 16.6005 345.5909 10.046 352.7747 12.6665 360.8382 10.1016 375.122 1 406.4853 17.854 412.8604 24.9237 413.5391 33.3139 412.7547 44.195 413.1177 53.6513 417.2717 57.6782 424.7559 60.6246 427.0991 67.9066 427.5267 76.8834 429.5219 84.9654 435.6765 90.5784 440.6214 91.4234 440.6258 91.4241 Z" id="QA.MS" fill="#cee3f5" stroke="#6e6e6e" stroke-width="0.4">
      <desc>
        <labelrank>9</labelrank>
        <code_hasc>QA.MS</code_hasc>
        <name>Madinat ach Shamal</name>
        <admin>Qatar</admin>
        <type_en>Municipality</type_en>
        <region/>
        <woe_id>20070005</woe_id>
        <longitude>51</longitude>
        <woe_name>Madinat ach Shamal</woe_name>
        <fips>QA07</fips>
        <woe_label>Madinat Al Shamal, QA, Qatar</woe_label>
        <latitude>26</latitude>
        <iso_a2>QA</iso_a2>
        <postal>MS</postal>
        <type>Baladiyah</type>
        <id>QA.MS</id>
      </desc>
    </path>
    <path d="M 435.2077 266.4096 437.3793 290.2089 438.558 320.8467 453.2079 349.6923 428.4581 341.4304 397.4092 339.1889 390.4245 294.6447 390.4106 260.1115 396.2001 266.4654 435.2077 266.4096 Z" id="QA.US" fill="#cee3f5" stroke="#6e6e6e" stroke-width="0.4">
      <desc>
        <labelrank>9</labelrank>
        <code_hasc>QA.US</code_hasc>
        <name>Umm Salal</name>
        <admin>Qatar</admin>
        <type_en>Municipality</type_en>
        <region/>
        <woe_id>20070007</woe_id>
        <longitude>51</longitude>
        <woe_name>Umm Salal</woe_name>
        <fips>QA09</fips>
        <woe_label>Umm Slal, QA, Qatar</woe_label>
        <latitude>25</latitude>
        <iso_a2>QA</iso_a2>
        <postal>US</postal>
        <type>Baladiyah</type>
        <id>QA.US</id>
      </desc>
    </path>
    <path d="M 488.5311 234.9472 481.7844 236.5831 476.3959 239.5415 473.6839 237.8532 470.9437 236.8569 471.9706 259.7057 471.1702 266.3286 471.109 266.9145 468.941 270.7591 465.6795 274.8933 463.4806 279.1282 464.436 283.1686 479.1003 308.3021 481.4869 314.4458 482.2625 320.5275 481.1451 339.4435 453.2079 349.6923 438.558 320.8467 437.3793 290.2089 435.2077 266.4096 437.137 240.2719 455.5522 219.7495 478.2324 228.7061 488.5311 234.9472 Z" id="QA.DY" fill="#cee3f5" stroke="#6e6e6e" stroke-width="0.4">
      <desc>
        <labelrank>9</labelrank>
        <code_hasc>QA.DY</code_hasc>
        <name>Al Daayen</name>
        <admin>Qatar</admin>
        <type_en>Municipality</type_en>
        <region/>
        <woe_id>-20070007</woe_id>
        <longitude>51</longitude>
        <woe_name/>
        <fips>QA09</fips>
        <woe_label/>
        <latitude>25</latitude>
        <iso_a2>QA</iso_a2>
        <postal>DA</postal>
        <type>Baladiyah</type>
        <id>QA.DY</id>
      </desc>
    </path>
  </g>
</svg>