<?xml version="1.0" encoding="UTF-8"?>
<svg xmlns="http://www.w3.org/2000/svg" width="700" height="700">
  <g id="andorra">
    <path d="M 301.7286 302.4605 325.6313 300.69 395.5189 301.6095 470.9239 289.6551 510.4656 288.7355 538.0528 281.3789 552.7659 320.9206 602.4229 345.7491 603.0958 346.4219 602.6799 365.4214 599.4692 369.68 596.9006 389.0825 587.9108 394.2886 580.2052 395.7085 585.9844 400.9149 584.058 424.1098 570.5731 429.7908 560.9411 442.5743 544.2456 447.7828 518.5603 437.3661 508.2861 436.8926 501.2226 440.2069 492.5167 431.334 484.7175 403.6822 462.6477 387.1299 439.6584 379.7733 398.2776 377.0146 373.4491 381.6124 345.8619 370.5775 339.4249 354.9448 325.6313 348.5078 301.6233 349.397 300.8135 304.044 301.7224 302.5291 301.7286 302.4605 Z" id="AD.EN" fill="#cee3f5" stroke="#6e6e6e" stroke-width="0.4">
      <desc>
        <code_hasc>AD.EN</code_hasc>
        <labelrank>20</labelrank>
        <name>Encamp</name>
        <woe-id>20070558</woe-id>
        <woe_name>Encamp</woe_name>
        <fips>AN03</fips>
        <woe_label>Encamp, AD, Andorra</woe_label>
        <iso_a2>AD</iso_a2>
        <id>AD.EN</id>
        <admin>Andorra</admin>
      </desc>
    </path>
    <path d="M 98.2959 412.5026 102.0537 412.8981 173.156 387.3743 176.1945 416.5444 184.0948 434.168 196.8567 442.0683 252.1585 454.8302 317.1836 446.3223 336.0226 450.5762 323.8684 468.1999 330.1417 499.1972 322.7093 503.6701 316.2879 521.1996 310.5087 522.621 289.9604 504.6175 277.1178 506.0388 270.6964 513.6189 274.5492 524.5162 266.8436 528.3068 262.9908 534.9407 261.0644 554.3706 227.6734 553.8967 198.1352 558.1622 192.9982 561.9539 187.8611 561.9539 159.6072 552.9488 140.3431 553.8967 118.5106 549.6313 96.678 547.2617 80.6247 549.1574 63.287 541.1011 55.5814 531.6237 63.9292 534.4668 62.6449 524.9901 54.9393 517.883 54.2971 510.7763 61.3606 502.2489 51.0865 496.5643 52.3707 474.7758 36.3174 461.0417 9.3477 461.0417 22.1904 441.6273 34.391 443.5213 57.5078 436.4191 87.6881 420.3225 98.2959 412.5026 Z" id="AD.JL" fill="#cee3f5" stroke="#6e6e6e" stroke-width="0.4">
      <desc>
        <code_hasc>AD.JL</code_hasc>
        <labelrank>20</labelrank>
        <name>Sant Julia de Loria</name>
        <woe-id>20070564</woe-id>
        <woe_name>Sant Julia de Loria</woe_name>
        <fips>AN06</fips>
        <woe_label>Sant Julia de Loria, AD, Andorra</woe_label>
        <iso_a2>AD</iso_a2>
        <id>AD.JL</id>
        <admin>Andorra</admin>
      </desc>
    </path>
    <path d="M 195.6572 441.3258 232.7544 423.9128 249.3067 401.843 266.7786 380.6929 288.8484 364.1405 300.8028 349.4274 325.6313 348.5078 339.4249 354.9448 345.8619 370.5775 373.4491 381.6124 398.2776 377.0146 439.6584 379.7733 462.6477 387.1299 484.7175 403.6822 492.5167 431.334 479.3901 417.9556 467.1895 441.6273 466.5474 457.7269 468.4738 465.3039 464.621 468.1454 465.9052 477.6176 458.8418 486.6169 444.0727 489.4589 435.7249 487.0905 426.7351 491.3536 417.103 488.5116 411.966 491.8273 408.1132 497.5117 392.7019 492.7747 379.2171 493.2484 363.1638 495.6169 347.1104 488.9852 330.1417 499.1972 323.8684 468.1999 336.0226 450.5762 317.1836 446.3223 252.1585 454.8302 196.8567 442.0683 195.6572 441.3258 Z" id="AD.EE" fill="#cee3f5" stroke="#6e6e6e" stroke-width="0.4">
      <desc>
        <code_hasc>AD.EE</code_hasc>
        <labelrank>20</labelrank>
        <name>Escaldes-Engordany</name>
        <woe-id>20070554</woe-id>
        <woe_name>Escaldes-Engordany</woe_name>
        <fips>AN08</fips>
        <woe_label>Escaldes-Engordany, AD, Andorra</woe_label>
        <iso_a2>AD</iso_a2>
        <id>AD.EE</id>
        <admin>Andorra</admin>
      </desc>
    </path>
    <path d="M 172.9796 387.4376 232.7544 359.5427 277.8135 349.4274 299.8832 349.4274 300.4797 349.825 288.8484 364.1405 266.7786 380.6929 249.3067 401.843 232.7544 423.9128 195.6572 441.3258 184.0948 434.168 176.1945 416.5444 173.156 387.3743 172.9796 387.4376 Z" id="AD.AN" fill="#cee3f5" stroke="#6e6e6e" stroke-width="0.4">
      <desc>
        <code_hasc>AD.AN</code_hasc>
        <labelrank>20</labelrank>
        <name>Andorra la Vella</name>
        <woe-id>20070553</woe-id>
        <woe_name>Andorra la Vella</woe_name>
        <fips>AN07</fips>
        <woe_label>Andorra la Vella, AD, Andorra</woe_label>
        <iso_a2>AD</iso_a2>
        <id>AD.AN</id>
        <admin>Andorra</admin>
      </desc>
    </path>
    <path d="M 104.4392 228.9394 120.5664 239.9981 146.3145 239.9981 161.0277 242.7568 172.0625 254.7113 183.0974 275.8615 200.5693 288.7355 257.5829 298.8508 300.8028 303.4487 301.6233 349.397 300.8028 349.4274 300.4797 349.825 299.8832 349.4274 277.8135 349.4274 232.7544 359.5427 172.9796 387.4376 102.0537 412.8981 98.2959 412.5026 103.0994 408.9615 79.3404 379.6175 76.1297 367.3141 74.2033 355.9583 47.8758 346.969 36.3174 353.1195 24.759 355.012 1 363.0555 2.9264 353.1195 11.9163 346.4959 11.9163 337.0343 17.6955 327.5735 23.4747 320.0054 53.0129 308.1813 58.7921 302.0332 56.8657 293.9938 38.8859 288.7922 25.4011 272.2432 28.6118 265.1514 42.0966 257.5874 50.4443 253.3328 56.2236 242.9334 55.5814 234.4255 74.8454 236.7888 85.7617 235.3708 90.8988 228.7539 103.7415 230.1718 104.4392 228.9394 Z" id="AD.MA" fill="#cee3f5" stroke="#6e6e6e" stroke-width="0.4">
      <desc>
        <code_hasc>AD.MA</code_hasc>
        <labelrank>20</labelrank>
        <name>La Massana</name>
        <woe-id>20070555</woe-id>
        <woe_name>Massana</woe_name>
        <fips>AN04</fips>
        <woe_label>Massana, AD, Andorra</woe_label>
        <iso_a2>AD</iso_a2>
        <id>AD.MA</id>
        <admin>Andorra</admin>
      </desc>
    </path>
    <path d="M 376.9171 187.5802 378.047 192.1803 381.7253 239.0786 337.5858 249.1939 315.516 263.907 303.5615 282.2985 301.7224 302.5291 300.8135 304.044 300.8028 303.4487 257.5829 298.8508 200.5693 288.7355 183.0974 275.8615 172.0625 254.7113 161.0277 242.7568 146.3145 239.9981 120.5664 239.9981 104.4392 228.9394 106.9522 224.5004 122.3634 215.0487 109.5207 197.5652 109.5207 188.5881 103.7415 182.4463 106.9522 174.8876 120.437 162.6058 119.7948 157.8824 123.0055 144.6578 137.1325 144.6578 150.6173 140.4074 163.46 156.4654 198.7774 155.9931 205.1987 148.4361 216.7571 145.1301 225.747 148.4361 255.2852 138.0461 271.9807 144.6578 275.1914 141.8242 283.5391 141.8242 289.9604 151.2699 302.8031 153.1592 306.0138 161.6611 313.7194 172.0533 322.0672 178.6669 339.4048 180.5566 353.5317 194.2577 376.0064 187.1707 376.9171 187.5802 Z" id="AD.OR" fill="#cee3f5" stroke="#6e6e6e" stroke-width="0.4">
      <desc>
        <code_hasc>AD.OR</code_hasc>
        <labelrank>20</labelrank>
        <name>Ordino</name>
        <woe-id>20070556</woe-id>
        <woe_name>Ordino</woe_name>
        <fips>AN05</fips>
        <woe_label>Ordino, AD, Andorra</woe_label>
        <iso_a2>AD</iso_a2>
        <id>AD.OR</id>
        <admin>Andorra</admin>
      </desc>
    </path>
    <path d="M 603.0958 346.4219 602.4229 345.7491 552.7659 320.9206 538.0528 281.3789 510.4656 288.7355 470.9239 289.6551 395.5189 301.6095 325.6313 300.69 301.7286 302.4605 303.5615 282.2985 315.516 263.907 337.5858 249.1939 381.7253 239.0786 378.047 192.1803 376.9171 187.5802 387.5649 192.3678 393.3441 189.533 401.6918 191.4229 419.6716 184.3361 424.8086 188.1157 450.494 191.8954 454.3468 200.4002 469.1159 206.5429 476.8215 200.8727 485.8114 202.2902 496.7277 198.5101 503.149 194.7302 523.0552 200.4002 537.8243 198.9826 566.0782 214.1036 579.563 209.8507 597.5428 214.1036 603.9641 208.433 609.1012 220.2471 600.1113 226.8635 600.7534 232.0623 594.3321 241.0427 588.5529 240.0974 589.195 263.2604 615.5225 264.2059 647.6293 276.0256 666.2511 278.3897 686.1573 275.5528 699 292.1023 666.8933 307.2354 657.2613 306.2895 626.4388 310.546 612.954 322.3704 603.322 336.0882 603.0958 346.4219 Z" id="AD.CA" fill="#cee3f5" stroke="#6e6e6e" stroke-width="0.4">
      <desc>
        <code_hasc>AD.CA</code_hasc>
        <labelrank>20</labelrank>
        <name>Canillo</name>
        <woe-id>20070557</woe-id>
        <woe_name>Canillo</woe_name>
        <fips>AN02</fips>
        <woe_label>Canillo, AD, Andorra</woe_label>
        <iso_a2>AD</iso_a2>
        <id>AD.CA</id>
        <admin>Andorra</admin>
      </desc>
    </path>
  </g>
</svg>