<?xml version="1.0" encoding="UTF-8"?>
<svg xmlns="http://www.w3.org/2000/svg" width="700" height="700">
  <g id="rhode_island">
    <path d="M 131.875 224.5781 388.1719 219.125 399.0781 197.3125 437.25 191.8594 437.25 219.125 453.6094 251.8438 399.0781 251.8438 399.0781 284.5625 371.8125 295.4688 366.3594 317.2813 131.875 317.2813 131.875 224.5781 Z" id="US.RI.003" fill="#cee3f5" stroke="#6e6e6e" stroke-width="0.4">
      <desc>
        <name>Kent County</name>
        <stateAbbrev>RI</stateAbbrev>
        <state>Rhode Island</state>
        <fips>003</fips>
        <incits>44003</incits>
        <id>US.RI.003</id>
        <population>165035</population>
      </desc>
    </path>
    <path d="M 344.5469 546.3125 382.7188 491.7813 420.8906 420.8906 442.7031 279.1094 480.875 257.2969 491.7813 279.1094 535.4063 290.0156 573.5781 251.8438 584.4844 262.75 633.5625 273.6563 639.0156 399.0781 655.375 442.7031 606.2969 469.9688 584.4844 469.9688 393.625 535.4063 344.5469 546.3125 Z" id="US.RI.005" fill="#cee3f5" stroke="#6e6e6e" stroke-width="0.4">
      <desc>
        <name>Newport County</name>
        <stateAbbrev>RI</stateAbbrev>
        <state>Rhode Island</state>
        <fips>005</fips>
        <incits>44005</incits>
        <id>US.RI.005</id>
        <population>82397</population>
      </desc>
    </path>
    <path d="M 464.5156 202.7656 491.7813 186.4063 535.4063 202.7656 573.5781 251.8438 535.4063 290.0156 491.7813 279.1094 480.875 257.2969 453.6094 213.6719 464.5156 202.7656 Z" id="US.RI.001" fill="#cee3f5" stroke="#6e6e6e" stroke-width="0.4">
      <desc>
        <name>Bristol County</name>
        <stateAbbrev>RI</stateAbbrev>
        <state>Rhode Island</state>
        <fips>001</fips>
        <incits>44001</incits>
        <id>US.RI.001</id>
        <population>49220</population>
      </desc>
    </path>
    <path d="M 491.7813 186.4063 464.5156 202.7656 437.25 191.8594 399.0781 197.3125 388.1719 219.125 131.875 224.5781 126.4219 11.9063 442.7031 1 442.7031 99.1563 475.4219 93.7031 480.875 120.9688 469.9688 148.2344 491.7813 186.4063 Z" id="US.RI.007" fill="#cee3f5" stroke="#6e6e6e" stroke-width="0.4">
      <desc>
        <name>Providence County</name>
        <stateAbbrev>RI</stateAbbrev>
        <state>Rhode Island</state>
        <fips>007</fips>
        <incits>44007</incits>
        <id>US.RI.007</id>
        <population>628600</population>
      </desc>
    </path>
    <path d="M 131.875 317.2813 366.3594 317.2813 371.8125 295.4688 399.0781 284.5625 442.7031 279.1094 420.8906 420.8906 382.7188 491.7813 344.5469 546.3125 306.375 529.9531 208.2188 557.2188 131.875 568.125 131.875 633.5625 44.625 540.8594 104.6094 513.5938 93.7031 464.5156 126.4219 459.0625 131.875 317.2813 Z M 219.125 655.375 246.3906 579.0313 262.75 562.6719 295.4688 551.7656 328.1875 562.6719 355.4531 589.9375 371.8125 660.8281 339.0938 693.5469 279.1094 699 230.0313 682.6406 219.125 655.375 Z" id="US.RI.009" fill="#cee3f5" stroke="#6e6e6e" stroke-width="0.4">
      <desc>
        <name>Washington County</name>
        <stateAbbrev>RI</stateAbbrev>
        <state>Rhode Island</state>
        <fips>009</fips>
        <incits>44009</incits>
        <id>US.RI.009</id>
        <population>126259</population>
      </desc>
    </path>
  </g>
</svg>