<?xml version="1.0" encoding="UTF-8"?>
<svg xmlns="http://www.w3.org/2000/svg" width="700" height="700">
  <g id="kuwait">
    <path d="M 483.5125 350.7913 481.4797 346.7389 481.0644 345.3654 487.7127 342.9353 495.7154 340.0108 497.7193 330.0064 503.0381 327.5484 510.035 329.6275 517.1745 324.0563 520.8321 317.827 526.5163 314.9779 529.2167 317.328 534.9967 324.9545 534.9874 324.9614 524.7694 332.6325 529.3806 341.1912 499.4623 345.899 483.5125 350.7913 Z M 669.4946 294.3926 672.468 298.0864 676.5902 309.261 675.948 313.486 670.5162 311.7394 667.0371 311.0815 663.5121 308.8949 653.2625 300.4156 646.2721 297.9525 636.6297 296.7181 628.9649 297.3336 628.9459 286.4723 628.945 286.4386 632.7818 280.0535 639.0726 279.0318 653.5953 282.9038 659.3256 284.9665 662.2285 287.2959 666.5222 290.7156 669.4946 294.3926 Z" id="KW.KU" fill="#cee3f5" stroke="#6e6e6e" stroke-width="0.4">
      <desc>
        <labelrank>8</labelrank>
        <code_hasc>KW.KU</code_hasc>
        <name>Al Asimah</name>
        <admin>Kuwait</admin>
        <type_en>Province</type_en>
        <region/>
        <woe_id>20070169</woe_id>
        <longitude>48</longitude>
        <woe_name>Al Asimah</woe_name>
        <fips>KU02</fips>
        <woe_label>Al `Asimah, KW, Kuwait</woe_label>
        <latitude>29</latitude>
        <iso_a2>KW</iso_a2>
        <postal>KU</postal>
        <type>Muhafazah</type>
        <id>KW.KU</id>
      </desc>
    </path>
    <path d="M 535.9046 355.5262 541.7008 368.2541 546.2206 391.1789 489.2679 402.4358 488.4229 384.8377 482.8343 376.0419 475.5276 369.1081 476.6509 351.9656 483.5125 350.7913 499.4623 345.899 529.3806 341.1912 535.9046 355.5262 Z" id="KW.FA" fill="#cee3f5" stroke="#6e6e6e" stroke-width="0.4">
      <desc>
        <labelrank>8</labelrank>
        <code_hasc>KW.FA</code_hasc>
        <name>Al Farwaniyah</name>
        <admin>Kuwait</admin>
        <type_en>Province</type_en>
        <region/>
        <woe_id>20070168</woe_id>
        <longitude>47</longitude>
        <woe_name>Al Farwaniyah</woe_name>
        <fips>KU06</fips>
        <woe_label>Al Farwaniyah, KW, Kuwait</woe_label>
        <latitude>29</latitude>
        <iso_a2>KW</iso_a2>
        <postal>FA</postal>
        <type>Muhafazah</type>
        <id>KW.FA</id>
      </desc>
    </path>
    <path d="M 546.2206 391.1789 569.0204 389.0189 572.1806 388.5132 575.5032 396.8289 580.7297 404.715 582.9019 413.0667 593.3838 469.3148 600.1587 483.0179 619.0731 509.6688 624.7045 514.7453 638.8676 519.0121 640.1087 525.2206 638.791 533.4234 638.5462 541.7652 641.8004 549.8415 652.1703 563.6253 654.4494 568.5899 658.4131 574.2328 667.1024 577.6165 682.261 580.4266 678.8759 586.9014 677.5677 594.2618 678.1689 601.8211 680.5689 608.7894 674.9289 605.102 672.9159 603.3703 672.5622 606.6537 672.9785 608.7512 674.6584 610.273 678.1583 611.9457 675.5218 615.5469 673.8253 616.6072 672.381 616.0574 670.7959 614.7353 668.2976 614.8056 668.2138 623.4808 671.6332 625.4432 676.5596 622.7732 680.8173 617.5399 681.9493 621.76 684.0027 641.6465 685.4573 646.718 688.5921 652.1973 694.5245 659.6215 698.8815 664.0022 699 664.0972 634.0527 666.5739 569.0138 668.957 503.9793 671.2644 438.9674 673.4745 419.3318 674.1087 416.0445 663.1852 409.0463 656.2089 400.5282 650.4964 392.5701 643.4854 386.8331 634.2196 381.5849 622.1054 377.8027 609.5525 375.9275 587.2582 374.006 576.8494 352.6093 522.0141 334.4338 492.4688 344.4909 486.0928 362.0099 473.3342 443.1684 459.9353 451.5289 456.9124 452.8096 451.3563 455.2325 395.5347 475.5276 369.1081 482.8343 376.0419 488.4229 384.8377 489.2679 402.4358 546.2206 391.1789 Z" id="KW.AH" fill="#cee3f5" stroke="#6e6e6e" stroke-width="0.4">
      <desc>
        <labelrank>7</labelrank>
        <code_hasc>KW.AH</code_hasc>
        <name>Al Ahmadi</name>
        <admin>Kuwait</admin>
        <type_en>Province</type_en>
        <region/>
        <woe_id>20070166</woe_id>
        <longitude>47</longitude>
        <woe_name>Al Ahmadi</woe_name>
        <fips>KU04</fips>
        <woe_label>Al Ahmadi, KW, Kuwait</woe_label>
        <latitude>28</latitude>
        <iso_a2>KW</iso_a2>
        <postal>AH</postal>
        <type>Muhafazah</type>
        <id>KW.AH</id>
      </desc>
    </path>
    <path d="M 572.1806 388.5132 569.0204 389.0189 546.2206 391.1789 541.7008 368.2541 535.9046 355.5262 550.8815 355.1384 566.6472 348.4868 566.4187 350.4577 566.265 358.1096 567.7877 370.295 572.1806 388.5132 Z" id="KW.1922" fill="#cee3f5" stroke="#6e6e6e" stroke-width="0.4">
      <desc>
        <labelrank>8</labelrank>
        <code_hasc>KW.</code_hasc>
        <name>Mubarak Al-Kabeer</name>
        <admin>Kuwait</admin>
        <type_en>Province</type_en>
        <region/>
        <woe_id>55943079</woe_id>
        <longitude>48</longitude>
        <woe_name>Mubarak Al-Kabeer</woe_name>
        <fips/>
        <woe_label>Mubarak Al Kabeer, KW, Kuwait</woe_label>
        <latitude>29</latitude>
        <iso_a2>KW</iso_a2>
        <postal/>
        <type>Muhafazah</type>
        <id>KW.1922</id>
      </desc>
    </path>
    <path d="M 593.4251 68.646 651.9434 147.0025 657.8218 161.8174 655.8879 180.4036 649.4229 193.2474 638.6948 207.6798 625.7223 220.1807 612.4124 227.2021 609.9889 227.0165 596.7184 225.9661 587.6752 215.5335 574.2233 185.7822 558.4555 159.0598 556.2698 156.5875 554.2056 154.2468 546.8562 150.1569 543.9774 145.9142 543.977 145.8973 550.7587 140.8584 554.9041 138.5208 562.5789 132.8653 566.5481 131.6784 567.8357 129.2478 569.5645 114.8932 563.772 112.7554 560.7321 112.3481 557.2692 112.6099 557.2108 112.6284 560.63 106.3781 565.7547 106.6953 574.6953 112.1552 578.7975 112.6843 583.7831 112.1763 586.5275 109.3167 584.2924 102.899 590.7349 99.8358 595.9903 96.3995 597.2387 92.6694 591.3404 88.8006 591.3106 88.7845 587.1833 88.342 582.4862 90.6819 579.0045 89.124 577.3436 86.4361 576.3435 82.1103 575.871 77.7363 575.8706 77.7194 576.1439 74.8266 576.143 74.7929 569.7743 75.0514 568.8737 74.3504 567.5521 73.2896 568.9667 70.214 573.4521 66.6495 578.588 64.332 583.6869 63.8877 588.6616 65.3193 593.4251 68.646 Z M 536.7016 75.3827 534.0425 75.9253 531.3292 74.411 529.2594 71.6648 528.6611 69.0149 533.5602 65.4442 540.6939 55.3685 544.6243 53.0029 558.6549 50.635 558.6842 50.6342 564.2444 51.0233 563.2457 55.3361 553.5667 61.233 551.3075 63.5039 547.9397 68.2677 546.3979 69.9286 536.7016 75.3827 Z M 481.0644 345.3654 481.4797 346.7389 483.5125 350.7913 476.6509 351.9656 475.5276 369.1081 455.2325 395.5347 452.8096 451.3563 451.5289 456.9124 443.1684 459.9353 362.0099 473.3342 344.4909 486.0928 334.4338 492.4688 329.8204 484.9625 329.7826 484.9526 329.5935 484.9137 329.5559 484.9144 309.1792 482.6422 272.8486 478.5944 236.4896 474.5063 200.1398 470.3879 163.8374 466.2599 123.0456 461.8734 82.378 457.4789 41.7025 453.0573 1 448.5873 11.4025 436.6799 65.1932 374.9538 87.3547 336.4598 110.1991 310.6553 115.4658 302.4591 125.7624 274.1446 152.0767 229.0003 158.8797 213.3318 159.7056 209.1431 160.874 196.5992 162.6401 190.6173 175.4354 165.7532 204.735 87.0153 216.744 69.2137 235.3889 56.0558 292.9657 30.9252 313.6488 27.9658 406.7208 25.8913 427.4427 29.4064 506.4824 66.6226 509.215 73.5026 513.1356 79.7108 516.8683 87.695 518.7107 96.4028 519.0215 111.7805 520.4221 121.5626 525.4507 135.0969 535.4095 154.727 546.9016 169.6587 556.454 169 563.1605 187.3962 572.0201 205.6663 587.8749 227.1701 595.4241 243.3063 594.1478 251.7593 586.1215 253.1503 571.1002 247.111 563.3705 242.6782 560.8815 238.9316 553.7553 238.0687 544.8596 236.4217 538.2884 235.4677 517.2558 239.5394 506.7864 249.0393 497.832 258.4829 475.903 271.3839 460.9477 285.9895 453.2421 298.847 445.8326 309.0199 429.5182 317.1699 428.1531 323.7188 424.8526 329.9455 432.9548 330.4643 446.3792 327.7561 456.3455 325.5368 464.3459 322.2305 472.7265 318.914 477.8245 321.8186 467.6372 329.0165 467.7874 333.9859 465.6537 339.7896 474.6914 345.6334 480.8536 345.4424 481.0644 345.3654 Z" id="KW.JA" fill="#cee3f5" stroke="#6e6e6e" stroke-width="0.4">
      <desc>
        <labelrank>8</labelrank>
        <code_hasc>KW.JA</code_hasc>
        <name>Al Jahrah</name>
        <admin>Kuwait</admin>
        <type_en>Province</type_en>
        <region/>
        <woe_id>20070165</woe_id>
        <longitude>48</longitude>
        <woe_name>Al Jahrah</woe_name>
        <fips>KU05</fips>
        <woe_label>Al Jahra´, KW, Kuwait</woe_label>
        <latitude>29</latitude>
        <iso_a2>KW</iso_a2>
        <postal>JA</postal>
        <type>Muhafazah</type>
        <id>KW.JA</id>
      </desc>
    </path>
    <path d="M 566.6472 348.4868 550.8815 355.1384 535.9046 355.5262 529.3806 341.1912 524.7694 332.6325 534.9874 324.9614 534.9967 324.9545 534.9979 324.9561 535.794 326.032 541.2647 330.7153 544.9902 331.9007 555.1953 335.1271 568.5516 332.0441 566.6472 348.4868 Z" id="KW.HW" fill="#cee3f5" stroke="#6e6e6e" stroke-width="0.4">
      <desc>
        <labelrank>9</labelrank>
        <code_hasc>KW.HW</code_hasc>
        <name>Hawalli</name>
        <admin>Kuwait</admin>
        <type_en>Province</type_en>
        <region/>
        <woe_id>20070167</woe_id>
        <longitude>48</longitude>
        <woe_name>Hawalli</woe_name>
        <fips>KU03</fips>
        <woe_label>Hawalli, KW, Kuwait</woe_label>
        <latitude>29</latitude>
        <iso_a2>KW</iso_a2>
        <postal>HW</postal>
        <type>Muhafazah</type>
        <id>KW.HW</id>
      </desc>
    </path>
  </g>
</svg>