<?xml version="1.0" encoding="UTF-8"?>
<svg xmlns="http://www.w3.org/2000/svg" width="700" height="700">
  <g id="new_jersey">
    <path d="M 473.1765 126.2294 512.1824 146.7588 508.0765 157.0235 503.9706 165.2353 503.9706 169.3412 510.1294 169.3412 516.2882 169.3412 514.2353 173.4471 518.3412 179.6059 510.1294 187.8176 503.9706 181.6588 493.7059 183.7118 487.5471 177.5529 471.1235 173.4471 467.0176 175.5 458.8059 175.5 446.4882 169.3412 450.5941 165.2353 446.4882 163.1824 448.5412 154.9706 458.8059 146.7588 460.8588 134.4412 454.7 130.3353 456.7529 124.1765 469.0706 124.1765 473.1765 126.2294 Z" id="US.NJ.013" fill="#cee3f5" stroke="#6e6e6e" stroke-width="0.4">
      <desc>
        <name>Essex County</name>
        <stateAbbrev>NJ</stateAbbrev>
        <state>New Jersey</state>
        <fips>013</fips>
        <incits>34013</incits>
        <id>US.NJ.013</id>
        <population>789565</population>
      </desc>
    </path>
    <path d="M 421.8529 206.2941 430.0647 204.2412 434.1706 200.1353 438.2765 191.9235 432.1176 189.8706 425.9588 191.9235 421.8529 187.8176 446.4882 169.3412 458.8059 175.5 467.0176 175.5 471.1235 173.4471 487.5471 177.5529 493.7059 183.7118 503.9706 181.6588 510.1294 187.8176 503.9706 193.9765 497.8118 193.9765 493.7059 198.0824 493.7059 208.3471 485.4941 208.3471 469.0706 208.3471 464.9647 204.2412 423.9059 208.3471 421.8529 206.2941 Z" id="US.NJ.039" fill="#cee3f5" stroke="#6e6e6e" stroke-width="0.4">
      <desc>
        <name>Union County</name>
        <stateAbbrev>NJ</stateAbbrev>
        <state>New Jersey</state>
        <fips>039</fips>
        <incits>34039</incits>
        <id>US.NJ.039</id>
        <population>548256</population>
      </desc>
    </path>
    <path d="M 508.0765 157.0235 516.2882 161.1294 524.5 159.0765 530.6588 150.8647 538.8706 150.8647 542.9765 146.7588 551.1882 152.9176 545.0294 165.2353 540.9235 179.6059 532.7118 193.9765 524.5 193.9765 510.1294 196.0294 503.9706 193.9765 510.1294 187.8176 518.3412 179.6059 514.2353 173.4471 516.2882 169.3412 510.1294 169.3412 503.9706 169.3412 503.9706 165.2353 508.0765 157.0235 Z" id="US.NJ.017" fill="#cee3f5" stroke="#6e6e6e" stroke-width="0.4">
      <desc>
        <name>Hudson County</name>
        <stateAbbrev>NJ</stateAbbrev>
        <state>New Jersey</state>
        <fips>017</fips>
        <incits>34017</incits>
        <id>US.NJ.017</id>
        <population>660282</population>
      </desc>
    </path>
    <path d="M 489.6 62.5882 510.1294 70.8 573.7706 99.5412 575.8235 103.6471 567.6118 128.2824 557.3471 144.7059 551.1882 152.9176 542.9765 146.7588 538.8706 150.8647 530.6588 150.8647 524.5 159.0765 516.2882 161.1294 508.0765 157.0235 512.1824 146.7588 516.2882 132.3882 512.1824 130.3353 510.1294 115.9647 508.0765 113.9118 510.1294 107.7529 501.9176 103.6471 487.5471 103.6471 481.3882 99.5412 473.1765 93.3824 489.6 62.5882 Z" id="US.NJ.003" fill="#cee3f5" stroke="#6e6e6e" stroke-width="0.4">
      <desc>
        <name>Bergen County</name>
        <stateAbbrev>NJ</stateAbbrev>
        <state>New Jersey</state>
        <fips>003</fips>
        <incits>34003</incits>
        <id>US.NJ.003</id>
        <population>925328</population>
      </desc>
    </path>
    <path d="M 380.7941 267.8824 389.0059 263.7765 389.0059 257.6176 403.3765 251.4588 407.4824 247.3529 409.5353 245.3 417.7471 239.1412 423.9059 237.0882 409.5353 222.7176 405.4294 218.6118 407.4824 212.4529 421.8529 206.2941 423.9059 208.3471 464.9647 204.2412 469.0706 208.3471 485.4941 208.3471 493.7059 208.3471 489.6 218.6118 485.4941 218.6118 479.3353 222.7176 481.3882 228.8765 477.2824 235.0353 485.4941 241.1941 487.5471 247.3529 481.3882 253.5118 481.3882 259.6706 446.4882 286.3588 440.3294 294.5706 423.9059 300.7294 415.6941 300.7294 417.7471 296.6235 405.4294 290.4647 399.2706 290.4647 384.9 284.3059 376.6882 278.1471 380.7941 267.8824 Z" id="US.NJ.023" fill="#cee3f5" stroke="#6e6e6e" stroke-width="0.4">
      <desc>
        <name>Middlesex County</name>
        <stateAbbrev>NJ</stateAbbrev>
        <state>New Jersey</state>
        <fips>023</fips>
        <incits>34023</incits>
        <id>US.NJ.023</id>
        <population>828919</population>
      </desc>
    </path>
    <path d="M 415.6941 300.7294 423.9059 300.7294 440.3294 294.5706 446.4882 286.3588 481.3882 259.6706 481.3882 253.5118 487.5471 247.3529 485.4941 241.1941 520.3941 235.0353 553.2412 228.8765 573.7706 235.0353 569.6647 241.1941 569.6647 245.3 573.7706 271.9882 571.7176 290.4647 565.5588 313.0471 557.3471 337.6824 557.3471 343.8412 540.9235 343.8412 536.8176 341.7882 528.6059 345.8941 522.4471 339.7353 518.3412 333.5765 508.0765 343.8412 503.9706 341.7882 493.7059 339.7353 483.4412 339.7353 477.2824 323.3118 438.2765 323.3118 405.4294 345.8941 397.2176 347.9471 389.0059 331.5235 380.7941 321.2588 386.9529 321.2588 395.1647 319.2059 401.3235 310.9941 417.7471 304.8353 415.6941 300.7294 Z" id="US.NJ.025" fill="#cee3f5" stroke="#6e6e6e" stroke-width="0.4">
      <desc>
        <name>Monmouth County</name>
        <stateAbbrev>NJ</stateAbbrev>
        <state>New Jersey</state>
        <fips>025</fips>
        <incits>34025</incits>
        <id>US.NJ.025</id>
        <population>629672</population>
      </desc>
    </path>
    <path d="M 292.5176 278.1471 294.5706 278.1471 315.1 276.0941 310.9941 267.8824 329.4706 265.8294 329.4706 257.6176 343.8412 255.5647 352.0529 267.8824 370.5294 263.7765 378.7412 265.8294 380.7941 267.8824 376.6882 278.1471 384.9 284.3059 399.2706 290.4647 405.4294 290.4647 417.7471 296.6235 415.6941 300.7294 417.7471 304.8353 401.3235 310.9941 395.1647 319.2059 386.9529 321.2588 380.7941 321.2588 389.0059 331.5235 384.9 333.5765 376.6882 329.4706 358.2118 319.2059 356.1588 325.3647 352.0529 329.4706 352.0529 325.3647 343.8412 319.2059 337.6824 310.9941 319.2059 302.7824 310.9941 288.4118 300.7294 284.3059 292.5176 278.1471 Z" id="US.NJ.021" fill="#cee3f5" stroke="#6e6e6e" stroke-width="0.4">
      <desc>
        <name>Mercer County</name>
        <stateAbbrev>NJ</stateAbbrev>
        <state>New Jersey</state>
        <fips>021</fips>
        <incits>34021</incits>
        <id>US.NJ.021</id>
        <population>370414</population>
      </desc>
    </path>
    <path d="M 397.2176 347.9471 405.4294 345.8941 438.2765 323.3118 477.2824 323.3118 483.4412 339.7353 493.7059 339.7353 503.9706 341.7882 508.0765 343.8412 518.3412 333.5765 522.4471 339.7353 528.6059 345.8941 536.8176 341.7882 540.9235 343.8412 557.3471 343.8412 549.1353 376.6882 545.0294 395.1647 538.8706 442.3824 532.7118 448.5412 526.5529 458.8059 512.1824 477.2824 499.8647 495.7588 485.4941 512.1824 467.0176 512.1824 462.9118 506.0235 458.8059 503.9706 444.4353 506.0235 438.2765 495.7588 434.1706 489.6 442.3824 479.3353 442.3824 432.1176 425.9588 401.3235 397.2176 347.9471 Z" id="US.NJ.029" fill="#cee3f5" stroke="#6e6e6e" stroke-width="0.4">
      <desc>
        <name>Ocean County</name>
        <stateAbbrev>NJ</stateAbbrev>
        <state>New Jersey</state>
        <fips>029</fips>
        <incits>34029</incits>
        <id>US.NJ.029</id>
        <population>583414</population>
      </desc>
    </path>
    <path d="M 239.1412 401.3235 241.1941 393.1118 239.1412 382.8471 243.2471 378.7412 255.5647 376.6882 259.6706 372.5824 265.8294 370.5294 271.9882 374.6353 271.9882 384.9 278.1471 386.9529 288.4118 393.1118 294.5706 401.3235 302.7824 425.9588 310.9941 430.0647 321.2588 425.9588 329.4706 428.0118 337.6824 438.2765 347.9471 442.3824 308.9412 477.2824 302.7824 469.0706 300.7294 460.8588 294.5706 454.7 288.4118 450.5941 278.1471 448.5412 269.9353 442.3824 269.9353 438.2765 263.7765 434.1706 263.7765 430.0647 257.6176 425.9588 253.5118 421.8529 253.5118 413.6412 243.2471 405.4294 239.1412 401.3235 Z" id="US.NJ.007" fill="#cee3f5" stroke="#6e6e6e" stroke-width="0.4">
      <desc>
        <name>Camden County</name>
        <stateAbbrev>NJ</stateAbbrev>
        <state>New Jersey</state>
        <fips>007</fips>
        <incits>34007</incits>
        <id>US.NJ.007</id>
        <population>512854</population>
      </desc>
    </path>
    <path d="M 259.6706 372.5824 263.7765 366.4235 271.9882 364.3706 284.3059 356.1588 296.6235 350 302.7824 350 315.1 347.9471 321.2588 341.7882 323.3118 335.6294 335.6294 337.6824 347.9471 333.5765 352.0529 329.4706 356.1588 325.3647 358.2118 319.2059 376.6882 329.4706 384.9 333.5765 389.0059 331.5235 397.2176 347.9471 425.9588 401.3235 442.3824 432.1176 442.3824 479.3353 434.1706 489.6 428.0118 493.7059 425.9588 491.6529 419.8 491.6529 411.5882 487.5471 401.3235 485.4941 397.2176 479.3353 391.0588 479.3353 389.0059 475.2294 378.7412 471.1235 368.4765 471.1235 368.4765 460.8588 364.3706 454.7 347.9471 442.3824 337.6824 438.2765 329.4706 428.0118 321.2588 425.9588 310.9941 430.0647 302.7824 425.9588 294.5706 401.3235 288.4118 393.1118 278.1471 386.9529 271.9882 384.9 271.9882 374.6353 265.8294 370.5294 259.6706 372.5824 Z" id="US.NJ.005" fill="#cee3f5" stroke="#6e6e6e" stroke-width="0.4">
      <desc>
        <name>Burlington County</name>
        <stateAbbrev>NJ</stateAbbrev>
        <state>New Jersey</state>
        <fips>005</fips>
        <incits>34005</incits>
        <id>US.NJ.005</id>
        <population>450838</population>
      </desc>
    </path>
    <path d="M 352.0529 175.5 397.2176 163.1824 399.2706 171.3941 405.4294 171.3941 407.4824 179.6059 405.4294 185.7647 405.4294 193.9765 421.8529 187.8176 425.9588 191.9235 432.1176 189.8706 438.2765 191.9235 434.1706 200.1353 430.0647 204.2412 421.8529 206.2941 407.4824 212.4529 405.4294 218.6118 409.5353 222.7176 423.9059 237.0882 417.7471 239.1412 409.5353 245.3 407.4824 247.3529 403.3765 251.4588 389.0059 257.6176 389.0059 263.7765 380.7941 267.8824 378.7412 265.8294 370.5294 263.7765 352.0529 267.8824 343.8412 255.5647 331.5235 230.9294 337.6824 232.9824 345.8941 218.6118 354.1059 210.4 352.0529 206.2941 356.1588 202.1882 350 198.0824 352.0529 191.9235 352.0529 183.7118 354.1059 179.6059 352.0529 175.5 Z" id="US.NJ.035" fill="#cee3f5" stroke="#6e6e6e" stroke-width="0.4">
      <desc>
        <name>Somerset County</name>
        <stateAbbrev>NJ</stateAbbrev>
        <state>New Jersey</state>
        <fips>035</fips>
        <incits>34035</incits>
        <id>US.NJ.035</id>
        <population>330585</population>
      </desc>
    </path>
    <path d="M 224.7706 208.3471 228.8765 208.3471 237.0882 200.1353 247.3529 196.0294 255.5647 189.8706 269.9353 181.6588 284.3059 177.5529 296.6235 165.2353 306.8882 154.9706 323.3118 169.3412 343.8412 171.3941 352.0529 175.5 354.1059 179.6059 352.0529 183.7118 352.0529 191.9235 350 198.0824 356.1588 202.1882 352.0529 206.2941 354.1059 210.4 345.8941 218.6118 337.6824 232.9824 331.5235 230.9294 343.8412 255.5647 329.4706 257.6176 329.4706 265.8294 310.9941 267.8824 315.1 276.0941 294.5706 278.1471 292.5176 278.1471 290.4647 269.9353 284.3059 261.7235 276.0941 257.6176 267.8824 259.6706 259.6706 255.5647 257.6176 245.3 259.6706 237.0882 257.6176 222.7176 249.4059 216.5588 237.0882 214.5059 228.8765 216.5588 222.7176 212.4529 224.7706 208.3471 Z" id="US.NJ.019" fill="#cee3f5" stroke="#6e6e6e" stroke-width="0.4">
      <desc>
        <name>Hunterdon County</name>
        <stateAbbrev>NJ</stateAbbrev>
        <state>New Jersey</state>
        <fips>019</fips>
        <incits>34019</incits>
        <id>US.NJ.019</id>
        <population>126250</population>
      </desc>
    </path>
    <path d="M 154.9706 432.1176 165.2353 428.0118 175.5 442.3824 177.5529 446.4882 185.7647 450.5941 191.9235 454.7 206.2941 456.7529 210.4 460.8588 222.7176 460.8588 251.4588 481.3882 259.6706 487.5471 255.5647 493.7059 257.6176 499.8647 255.5647 506.0235 255.5647 510.1294 253.5118 518.3412 212.4529 489.6 189.8706 508.0765 183.7118 510.1294 175.5 516.2882 167.2882 516.2882 163.1824 528.6059 165.2353 538.8706 154.9706 545.0294 124.1765 518.3412 124.1765 506.0235 132.3882 506.0235 132.3882 495.7588 136.4941 487.5471 136.4941 485.4941 126.2294 477.2824 124.1765 469.0706 132.3882 464.9647 136.4941 458.8059 138.5471 452.6471 146.7588 442.3824 150.8647 434.1706 154.9706 432.1176 Z" id="US.NJ.033" fill="#cee3f5" stroke="#6e6e6e" stroke-width="0.4">
      <desc>
        <name>Salem County</name>
        <stateAbbrev>NJ</stateAbbrev>
        <state>New Jersey</state>
        <fips>033</fips>
        <incits>34033</incits>
        <id>US.NJ.033</id>
        <population>65166</population>
      </desc>
    </path>
    <path d="M 154.9706 545.0294 165.2353 538.8706 163.1824 528.6059 167.2882 516.2882 175.5 516.2882 183.7118 510.1294 189.8706 508.0765 212.4529 489.6 253.5118 518.3412 255.5647 510.1294 255.5647 506.0235 257.6176 499.8647 255.5647 493.7059 259.6706 487.5471 280.2 501.9176 315.1 526.5529 315.1 534.7647 317.1529 538.8706 313.0471 547.0824 315.1 553.2412 306.8882 559.4 304.8353 577.8765 298.6765 579.9294 296.6235 586.0882 294.5706 592.2471 228.8765 623.0412 204.2412 592.2471 181.6588 567.6118 154.9706 545.0294 Z" id="US.NJ.011" fill="#cee3f5" stroke="#6e6e6e" stroke-width="0.4">
      <desc>
        <name>Cumberland County</name>
        <stateAbbrev>NJ</stateAbbrev>
        <state>New Jersey</state>
        <fips>011</fips>
        <incits>34011</incits>
        <id>US.NJ.011</id>
        <population>157332</population>
      </desc>
    </path>
    <path d="M 280.2 501.9176 308.9412 477.2824 347.9471 442.3824 364.3706 454.7 368.4765 460.8588 368.4765 471.1235 378.7412 471.1235 389.0059 475.2294 391.0588 479.3353 397.2176 479.3353 401.3235 485.4941 411.5882 487.5471 419.8 491.6529 425.9588 491.6529 428.0118 493.7059 434.1706 489.6 438.2765 495.7588 444.4353 506.0235 458.8059 503.9706 462.9118 506.0235 467.0176 512.1824 485.4941 512.1824 481.3882 514.2353 473.1765 530.6588 460.8588 542.9765 454.7 547.0824 446.4882 555.2941 434.1706 559.4 417.7471 567.6118 413.6412 569.6647 397.2176 559.4 386.9529 557.3471 380.7941 561.4529 370.5294 563.5059 364.3706 561.4529 343.8412 561.4529 335.6294 557.3471 323.3118 559.4 315.1 553.2412 313.0471 547.0824 317.1529 538.8706 315.1 534.7647 315.1 526.5529 280.2 501.9176 Z" id="US.NJ.001" fill="#cee3f5" stroke="#6e6e6e" stroke-width="0.4">
      <desc>
        <name>Atlantic County</name>
        <stateAbbrev>NJ</stateAbbrev>
        <state>New Jersey</state>
        <fips>001</fips>
        <incits>34001</incits>
        <id>US.NJ.001</id>
        <population>275862</population>
      </desc>
    </path>
    <path d="M 228.8765 623.0412 294.5706 592.2471 296.6235 586.0882 298.6765 579.9294 304.8353 577.8765 306.8882 559.4 315.1 553.2412 323.3118 559.4 335.6294 557.3471 343.8412 561.4529 364.3706 561.4529 370.5294 563.5059 380.7941 561.4529 386.9529 557.3471 397.2176 559.4 413.6412 569.6647 405.4294 575.8235 399.2706 579.9294 391.0588 588.1412 386.9529 594.3 380.7941 600.4588 374.6353 610.7235 372.5824 618.9353 368.4765 623.0412 362.3176 627.1471 354.1059 639.4647 350 651.7824 345.8941 653.8353 337.6824 657.9412 325.3647 670.2588 317.1529 672.3118 302.7824 674.3647 271.9882 699 230.9294 627.1471 228.8765 623.0412 Z" id="US.NJ.009" fill="#cee3f5" stroke="#6e6e6e" stroke-width="0.4">
      <desc>
        <name>Cape May County</name>
        <stateAbbrev>NJ</stateAbbrev>
        <state>New Jersey</state>
        <fips>009</fips>
        <incits>34009</incits>
        <id>US.NJ.009</id>
        <population>95897</population>
      </desc>
    </path>
    <path d="M 239.1412 401.3235 243.2471 405.4294 253.5118 413.6412 253.5118 421.8529 257.6176 425.9588 263.7765 430.0647 263.7765 434.1706 269.9353 438.2765 269.9353 442.3824 278.1471 448.5412 288.4118 450.5941 294.5706 454.7 300.7294 460.8588 302.7824 469.0706 308.9412 477.2824 280.2 501.9176 259.6706 487.5471 251.4588 481.3882 222.7176 460.8588 210.4 460.8588 206.2941 456.7529 191.9235 454.7 185.7647 450.5941 177.5529 446.4882 175.5 442.3824 165.2353 428.0118 154.9706 432.1176 167.2882 425.9588 167.2882 421.8529 179.6059 413.6412 187.8176 411.5882 204.2412 411.5882 216.5588 407.4824 224.7706 403.3765 239.1412 401.3235 Z" id="US.NJ.015" fill="#cee3f5" stroke="#6e6e6e" stroke-width="0.4">
      <desc>
        <name>Gloucester County</name>
        <stateAbbrev>NJ</stateAbbrev>
        <state>New Jersey</state>
        <fips>015</fips>
        <incits>34015</incits>
        <id>US.NJ.015</id>
        <population>290265</population>
      </desc>
    </path>
    <path d="M 306.8882 154.9706 317.1529 150.8647 327.4176 138.5471 329.4706 130.3353 339.7353 122.1235 345.8941 120.0706 350 122.1235 354.1059 126.2294 364.3706 122.1235 374.6353 113.9118 374.6353 107.7529 384.9 99.5412 411.5882 74.9059 415.6941 81.0647 411.5882 87.2235 425.9588 83.1176 440.3294 93.3824 450.5941 95.4353 464.9647 99.5412 471.1235 103.6471 473.1765 109.8059 471.1235 120.0706 475.2294 122.1235 473.1765 126.2294 469.0706 124.1765 456.7529 124.1765 454.7 130.3353 460.8588 134.4412 458.8059 146.7588 448.5412 154.9706 446.4882 163.1824 450.5941 165.2353 446.4882 169.3412 421.8529 187.8176 405.4294 193.9765 405.4294 185.7647 407.4824 179.6059 405.4294 171.3941 399.2706 171.3941 397.2176 163.1824 352.0529 175.5 343.8412 171.3941 323.3118 169.3412 306.8882 154.9706 Z" id="US.NJ.027" fill="#cee3f5" stroke="#6e6e6e" stroke-width="0.4">
      <desc>
        <name>Morris County</name>
        <stateAbbrev>NJ</stateAbbrev>
        <state>New Jersey</state>
        <fips>027</fips>
        <incits>34027</incits>
        <id>US.NJ.027</id>
        <population>499397</population>
      </desc>
    </path>
    <path d="M 411.5882 74.9059 448.5412 44.1118 467.0176 52.3235 489.6 62.5882 473.1765 93.3824 481.3882 99.5412 487.5471 103.6471 501.9176 103.6471 510.1294 107.7529 508.0765 113.9118 510.1294 115.9647 512.1824 130.3353 516.2882 132.3882 512.1824 146.7588 473.1765 126.2294 475.2294 122.1235 471.1235 120.0706 473.1765 109.8059 471.1235 103.6471 464.9647 99.5412 450.5941 95.4353 440.3294 93.3824 425.9588 83.1176 411.5882 87.2235 415.6941 81.0647 411.5882 74.9059 Z" id="US.NJ.031" fill="#cee3f5" stroke="#6e6e6e" stroke-width="0.4">
      <desc>
        <name>Passaic County</name>
        <stateAbbrev>NJ</stateAbbrev>
        <state>New Jersey</state>
        <fips>031</fips>
        <incits>34031</incits>
        <id>US.NJ.031</id>
        <population>505672</population>
      </desc>
    </path>
    <path d="M 448.5412 44.1118 411.5882 74.9059 384.9 99.5412 374.6353 107.7529 374.6353 113.9118 364.3706 122.1235 354.1059 126.2294 350 122.1235 345.8941 120.0706 339.7353 122.1235 323.3118 107.7529 286.3588 72.8529 282.2529 68.7471 294.5706 62.5882 308.9412 48.2176 315.1 37.9529 313.0471 35.9 323.3118 19.4765 337.6824 9.2118 343.8412 5.1059 352.0529 3.0529 360.2647 1 423.9059 31.7941 448.5412 44.1118 Z" id="US.NJ.037" fill="#cee3f5" stroke="#6e6e6e" stroke-width="0.4">
      <desc>
        <name>Sussex County</name>
        <stateAbbrev>NJ</stateAbbrev>
        <state>New Jersey</state>
        <fips>037</fips>
        <incits>34037</incits>
        <id>US.NJ.037</id>
        <population>145992</population>
      </desc>
    </path>
    <path d="M 286.3588 72.8529 323.3118 107.7529 339.7353 122.1235 329.4706 130.3353 327.4176 138.5471 317.1529 150.8647 306.8882 154.9706 296.6235 165.2353 284.3059 177.5529 269.9353 181.6588 255.5647 189.8706 247.3529 196.0294 237.0882 200.1353 228.8765 208.3471 224.7706 208.3471 220.6647 202.1882 224.7706 200.1353 222.7176 193.9765 228.8765 185.7647 220.6647 181.6588 226.8235 171.3941 222.7176 165.2353 230.9294 159.0765 239.1412 159.0765 247.3529 154.9706 253.5118 146.7588 251.4588 138.5471 259.6706 140.6 261.7235 132.3882 255.5647 126.2294 255.5647 122.1235 249.4059 118.0176 239.1412 105.7 241.1941 99.5412 251.4588 93.3824 259.6706 91.3294 267.8824 87.2235 271.9882 81.0647 286.3588 72.8529 Z" id="US.NJ.041" fill="#cee3f5" stroke="#6e6e6e" stroke-width="0.4">
      <desc>
        <name>Warren County</name>
        <stateAbbrev>NJ</stateAbbrev>
        <state>New Jersey</state>
        <fips>041</fips>
        <incits>34041</incits>
        <id>US.NJ.041</id>
        <population>107379</population>
      </desc>
    </path>
  </g>
</svg>