<?xml version="1.0" encoding="UTF-8"?>
<svg xmlns="http://www.w3.org/2000/svg" width="700" height="700">
  <g id="greece">
    <path d="M 99.2864 389.3562 101.3687 390.6056 103.8675 390.1891 109.6981 393.9374 112.1969 398.935 117.611 402.6832 118.4439 405.5984 115.1122 403.0996 110.1146 401.8502 105.9499 404.7655 106.3663 409.7631 103.0346 409.3467 88.8747 392.2715 88.8747 388.1068 94.2888 381.8598 96.3711 382.2763 99.2864 389.3562 Z M 87.2088 326.886 91.3735 340.213 88.8747 344.3777 92.2064 349.3753 95.5382 346.46 94.7053 347.7094 96.3711 348.1259 97.2041 352.2906 100.5358 355.2058 103.8675 361.8693 104.7005 365.2011 103.4511 368.5328 97.6205 368.1163 94.7053 364.7846 89.2912 362.7023 86.7924 362.7023 85.543 365.2011 80.9618 363.1187 78.0465 354.7894 81.3783 356.0388 76.7971 346.46 75.1313 347.7094 74.7148 356.4553 70.9666 358.5376 68.4678 355.6223 69.3007 348.9588 72.6325 343.9612 73.4654 337.2977 73.8819 339.3801 75.5477 337.7142 79.2959 343.1283 83.4606 340.6295 83.8771 335.2154 85.543 335.6319 84.71 326.886 87.2088 326.886 Z M 95.5382 326.0531 94.2888 328.5519 98.037 330.2178 95.1217 336.8813 98.4535 337.7142 97.2041 336.0483 100.1193 336.4648 101.7852 337.7142 100.1193 337.7142 101.7852 342.7118 97.2041 343.1283 93.0394 333.966 92.6229 329.8013 90.5406 327.719 90.957 326.4696 93.0394 326.886 93.8723 324.3872 95.5382 326.0531 Z M 113.8628 320.639 113.0298 319.8061 116.778 314.8085 113.8628 320.639 Z M 111.7804 316.8908 111.364 314.8085 113.8628 311.0603 118.0274 310.6438 111.7804 316.8908 Z M 105.1169 307.7285 105.9499 309.3944 102.6181 312.3097 105.9499 315.6414 102.2017 312.3097 100.9523 309.8109 105.1169 307.7285 Z M 98.037 306.4791 100.1193 303.9803 99.2864 312.3097 97.6205 311.0603 98.037 313.1426 97.2041 312.3097 96.3711 314.392 93.8723 313.9755 93.8723 316.0579 90.5406 311.8932 85.543 317.3073 87.6253 305.2297 90.957 296.4839 97.6205 289.8204 100.1193 292.7357 100.9523 296.4839 100.5358 301.898 98.037 306.4791 Z M 63.8866 258.5853 65.5525 260.2512 62.2208 258.5853 63.8866 258.5853 Z M 60.5549 253.1712 61.3878 255.2536 58.889 254.8371 55.5573 249.423 56.8067 249.0066 60.5549 253.1712 Z M 12.6611 194.8658 11.4117 194.8658 10.5788 192.3669 12.6611 194.8658 Z M 42.6468 193.1999 44.3126 193.1999 43.8962 196.5316 43.0632 198.1975 35.5668 201.5292 35.1504 204.028 36.8162 205.2774 35.5668 206.9433 41.8138 209.8586 41.3974 211.9409 39.7315 211.9409 41.8138 225.2679 49.3103 228.5996 53.0585 228.1832 55.5573 235.2631 54.7243 236.5125 43.0632 229.849 39.7315 229.4326 40.9809 227.7667 37.2327 226.9338 33.901 214.8562 28.0704 209.8586 25.9881 204.4445 23.0728 203.6116 22.6563 199.0304 20.9905 199.8634 20.9905 197.3646 19.3246 196.5316 22.6563 191.9505 32.6516 191.534 36.8162 189.4517 42.6468 193.1999 Z M 4.7482 184.0376 3.0823 186.1199 1 185.7035 1 184.0376 4.7482 184.0376 Z M 16.4093 183.2047 15.1599 181.9553 15.9928 181.1223 17.6587 181.9553 16.4093 183.2047 Z" id="GR.II" fill="#cee3f5" stroke="#6e6e6e" stroke-width="0.4">
      <desc>
        <labelrank>6</labelrank>
        <code_hasc>GR.II</code_hasc>
        <name>Ionioi Nisoi</name>
        <admin>Greece</admin>
        <type_en>Region</type_en>
        <region/>
        <woe_id>12577882</woe_id>
        <longitude>20</longitude>
        <woe_name>Ionioi Nisoi</woe_name>
        <fips>GR25</fips>
        <woe_label>Nisia Ionioy, GR, Greece</woe_label>
        <latitude>38</latitude>
        <iso_a2>GR</iso_a2>
        <postal>II</postal>
        <type>Diamerismata</type>
        <id>GR.II</id>
      </desc>
    </path>
    <path d="M 302.5227 595.9242 299.6074 593.0089 297.5251 588.4278 302.1062 592.5925 302.5227 595.9242 Z M 280.0334 558.4421 280.0334 564.2727 275.0358 565.1056 268.3723 558.0257 269.2053 550.1128 267.9558 544.6987 271.2876 539.7011 276.7017 548.0304 283.3652 553.4445 284.1981 555.1104 281.2828 556.3598 280.0334 558.4421 Z M 289.6122 454.7416 287.1134 454.7416 284.6146 451.4099 287.1134 450.1605 289.6122 451.8264 289.6122 454.7416 Z M 320.8473 444.33 317.099 444.33 316.6826 447.2452 306.6874 448.9111 313.7673 443.497 323.7625 442.2476 320.8473 444.33 Z M 317.5155 428.0877 313.3508 428.0877 311.685 426.4218 314.1838 426.0054 315.4332 423.5066 317.099 426.0054 318.7649 426.4218 317.5155 428.0877 Z M 312.1014 437.6665 311.2685 433.9183 301.2733 433.9183 299.1909 431.8359 291.278 428.5042 289.6122 425.5889 292.111 418.0925 303.7721 425.5889 305.8544 424.3395 305.8544 421.8407 302.1062 417.2595 308.7697 415.5937 309.1862 419.3419 307.1038 423.5066 310.852 426.4218 308.7697 427.6712 315.4332 430.17 318.7649 433.0853 318.7649 435.1677 312.1014 437.6665 Z M 352.9153 415.1772 351.6659 413.5113 353.3317 414.3443 352.9153 415.1772 Z M 365.4093 414.7607 366.6587 405.182 367.9081 403.9326 368.3246 407.2643 365.4093 414.7607 Z M 316.6826 411.0125 313.7673 410.1796 314.6002 407.6808 311.685 406.0149 311.2685 402.2667 322.0967 402.2667 319.1814 410.1796 316.6826 411.0125 Z M 319.5979 381.0268 320.8473 383.9421 322.9296 383.9421 320.4308 385.1915 318.7649 389.3562 317.099 388.5233 314.6002 391.0221 310.0191 389.3562 309.1862 388.1068 310.852 386.0245 314.6002 386.0245 317.099 382.6927 314.1838 383.9421 310.852 383.1092 313.7673 381.8598 311.685 380.6104 315.0167 381.0268 315.0167 379.7774 316.6826 378.9445 319.5979 379.7774 319.5979 381.0268 Z M 290.0286 385.1915 283.7816 373.114 291.278 371.0316 295.0263 368.9493 291.6945 366.034 291.6945 364.7846 295.4427 363.9517 294.6098 363.1187 291.278 361.0364 298.358 361.8693 300.0239 356.0388 305.8544 353.1235 307.9368 355.6223 306.6874 358.1211 310.852 359.3705 315.0167 364.3681 321.2637 366.8669 326.2613 362.7023 327.0943 353.54 328.7601 350.6247 331.2589 348.1259 338.3389 345.2106 352.9153 350.2082 362.494 359.787 362.9105 362.7023 361.2446 366.4505 359.5788 365.2011 355.8305 367.2834 359.1623 378.528 357.4964 386.8574 360.4117 388.9397 357.4964 390.1891 362.0776 393.1044 360.8282 397.2691 363.7434 401.0173 363.327 403.9326 361.2446 406.0149 362.494 406.4314 361.2446 407.2643 362.494 410.5961 359.1623 414.3443 352.9153 411.429 352.0823 406.4314 350.4165 407.2643 349.1671 401.0173 347.9177 401.8502 346.2518 398.5185 342.0871 396.4362 341.2542 398.5185 339.1718 398.935 332.9248 385.1915 327.0943 386.0245 328.3437 383.9421 322.0967 381.8598 321.2637 381.4433 325.0119 377.2786 323.7625 374.7798 313.3508 377.2786 308.7697 380.6104 311.685 381.0268 310.0191 381.8598 295.4427 381.8598 290.0286 385.1915 Z" id="GR.AT" fill="#cee3f5" stroke="#6e6e6e" stroke-width="0.4">
      <desc>
        <labelrank>6</labelrank>
        <code_hasc>GR.AT</code_hasc>
        <name>Attiki</name>
        <admin>Greece</admin>
        <type_en>Region</type_en>
        <region>Peloponnisos</region>
        <woe_id>12577879</woe_id>
        <longitude>23</longitude>
        <woe_name>Attiki</woe_name>
        <fips>GR35</fips>
        <woe_label>Attiki, GR, Greece</woe_label>
        <latitude>38</latitude>
        <iso_a2>GR</iso_a2>
        <postal>AT</postal>
        <type>Diamerismata</type>
        <id>GR.AT</id>
      </desc>
    </path>
    <path d="M 275.0358 531.3717 275.0358 533.0376 273.3699 531.3717 270.0382 531.7882 273.7864 527.6235 275.0358 531.3717 Z M 177.9988 505.1342 177.9988 507.2166 176.7494 505.1342 175.9165 505.9672 177.1659 501.8025 178.4153 502.6354 177.9988 505.1342 Z M 173.4177 497.2214 174.2506 498.0543 171.3353 503.0519 172.1683 498.0543 173.4177 497.2214 Z M 160.9236 472.6498 160.0907 473.4827 159.6742 470.9839 160.9236 470.151 160.9236 472.6498 Z M 283.7816 373.114 290.0286 385.1915 285.031 388.1068 278.784 386.4409 277.1181 390.6056 278.3675 394.3538 286.6969 393.9374 292.111 398.102 291.6945 401.4338 287.5298 403.0996 287.1134 404.7655 291.278 407.2643 290.4451 411.0125 291.278 414.7607 290.0286 414.7607 290.4451 417.676 292.111 418.0925 289.6122 425.5889 291.278 428.5042 299.1909 431.8359 301.2733 433.9183 311.2685 433.9183 312.1014 437.6665 297.9415 438.9159 295.4427 441.4147 297.5251 441.8311 297.1086 443.497 299.1909 443.9135 291.6945 445.1629 293.3604 448.9111 290.4451 448.9111 288.3628 448.0782 290.0286 446.8288 286.6969 446.4123 285.864 445.1629 287.5298 445.9958 286.6969 444.33 282.9487 443.497 282.9487 438.9159 284.6146 440.1653 286.2804 436.4171 288.3628 437.6665 287.5298 434.3347 284.6146 432.6689 280.8663 433.0853 281.6993 432.2524 280.8663 430.17 277.5346 433.0853 275.4523 428.0877 272.1205 425.1724 269.2053 424.756 270.8711 426.0054 267.9558 425.5889 265.457 427.2548 262.9582 425.1724 263.3747 423.923 259.6265 418.9254 256.2947 420.5913 255.0453 424.3395 258.3771 435.5841 257.5442 438.9159 262.5418 444.33 262.5418 447.2452 269.2053 459.3228 268.7888 466.8192 273.3699 466.4027 273.3699 469.318 275.0358 470.5674 273.7864 470.5674 276.7017 475.565 277.5346 480.1462 275.8687 480.1462 277.5346 481.3956 277.5346 485.1438 280.0334 491.8073 283.7816 497.2214 282.9487 500.1366 285.4475 500.9696 283.3652 505.5507 280.4499 504.3013 278.784 506.3837 278.784 509.7154 280.8663 509.7154 279.2005 511.3813 279.2005 513.8801 282.5322 520.96 288.7792 524.7082 287.1134 528.04 292.5274 533.4541 291.6945 535.5364 289.1957 534.287 287.1134 535.5364 283.7816 534.7035 281.2828 531.3717 281.6993 529.7058 280.0334 526.7906 273.7864 526.7906 270.4547 519.2942 266.29 515.5459 266.7064 513.4636 262.9582 510.1319 261.2924 511.7977 261.7088 506.8001 259.21 499.3037 251.2971 497.6378 245.8831 498.0543 242.5513 500.1366 242.5513 504.3013 239.636 506.3837 237.9702 509.7154 240.0525 510.5483 240.0525 513.4636 238.8031 511.3813 237.5537 511.7977 237.9702 517.2118 236.7208 518.0447 236.3043 515.9624 234.6384 517.6283 234.6384 525.9576 236.7208 531.7882 234.6384 539.2846 233.389 533.0376 228.3914 529.2894 226.3091 530.1223 224.2267 526.7906 225.0597 523.4588 226.3091 523.8753 226.7255 522.6259 225.8926 519.7106 226.7255 518.0447 225.0597 518.0447 225.4761 513.8801 227.142 513.8801 225.4761 512.6307 227.142 507.6331 224.6432 508.0495 220.4785 500.5531 219.6456 495.972 213.815 488.0591 212.1492 487.2261 210.4833 488.892 207.1516 485.9767 208.8174 475.565 200.4881 474.3156 191.7422 478.0638 190.0764 490.9743 190.4928 495.139 193.8246 498.0543 191.7422 498.4708 190.9093 500.9696 186.3282 504.7178 181.747 496.3884 177.1659 497.6378 173.8341 494.7226 172.5847 495.139 171.3353 488.0591 173.0012 482.645 171.3353 480.5626 169.6695 480.9791 170.9189 479.7297 169.253 480.9791 168.8365 477.6474 164.2554 472.2333 163.006 469.318 162.173 460.9887 164.2554 454.7416 171.7518 448.4946 173.0012 445.5794 171.7518 439.3323 183.8294 440.1653 188.4105 435.5841 188.4105 433.0853 190.4928 430.5865 191.7422 429.3371 193.4081 431.003 195.9069 428.9206 186.3282 420.1748 180.9141 419.3419 180.0811 399.3514 185.0788 391.855 187.994 391.4385 188.4105 394.3538 198.8222 399.7679 203.8198 396.8526 206.7351 397.2691 208.401 398.935 216.3138 394.3538 216.7303 393.1044 215.0644 390.1891 216.3138 383.1092 225.4761 376.8622 227.9749 369.3658 226.3091 366.034 227.142 361.8693 231.7232 364.3681 239.2196 365.6175 252.5465 371.8646 267.1229 384.7751 273.3699 384.3586 275.8687 381.0268 268.7888 375.6128 266.29 375.1963 267.9558 373.9469 273.3699 370.6152 283.7816 373.114 Z" id="GR.PP" fill="#cee3f5" stroke="#6e6e6e" stroke-width="0.4">
      <desc>
        <labelrank>6</labelrank>
        <code_hasc>GR.PP</code_hasc>
        <name>Peloponnisos</name>
        <admin>Greece</admin>
        <type_en>Region</type_en>
        <region>Peloponnisos</region>
        <woe_id>12577887</woe_id>
        <longitude>22</longitude>
        <woe_name>Peloponnisos</woe_name>
        <fips>GR36</fips>
        <woe_label>Peloponnisos, GR, Greece</woe_label>
        <latitude>37</latitude>
        <iso_a2>GR</iso_a2>
        <postal>PP</postal>
        <type>Diamerismata</type>
        <id>GR.PP</id>
      </desc>
    </path>
    <path d="M 227.142 361.8693 226.3091 366.034 227.9749 369.3658 225.4761 376.8622 216.3138 383.1092 215.0644 390.1891 216.7303 393.1044 216.3138 394.3538 208.401 398.935 206.7351 397.2691 203.8198 396.8526 198.8222 399.7679 188.4105 394.3538 187.994 391.4385 185.0788 391.855 180.0811 399.3514 180.9141 419.3419 186.3282 420.1748 195.9069 428.9206 193.4081 431.003 191.7422 429.3371 190.4928 430.5865 188.4105 433.0853 188.4105 435.5841 183.8294 440.1653 171.7518 439.3323 161.7566 420.5913 150.5119 411.0125 145.5143 409.3467 144.2649 409.7631 143.0155 412.6784 142.1826 408.9302 143.432 403.5161 141.3496 397.6856 128.0227 391.4385 127.6062 388.1068 130.105 381.4433 132.1874 383.1092 135.9356 381.4433 145.5143 374.3634 144.6814 372.6975 142.1826 374.7798 148.8461 364.3681 149.679 354.3729 152.1778 358.1211 151.7613 355.2058 157.5919 356.8717 161.3401 360.2035 169.253 361.4529 175.5 356.4553 180.4976 347.7094 187.5776 343.1283 195.9069 343.9612 200.9045 346.46 202.9869 350.2082 206.3186 351.8741 207.9845 351.0412 210.4833 353.1235 211.7327 356.4553 216.3138 359.3705 225.0597 360.2035 227.142 361.8693 Z M 187.5776 338.5471 186.3282 337.7142 182.1635 341.0459 180.4976 344.3777 177.1659 341.4624 168.0036 341.8789 161.3401 347.293 154.2601 343.5447 159.2578 345.6271 158.0084 342.2953 159.2578 341.0459 157.5919 341.0459 158.0084 339.3801 153.8437 340.213 153.4272 337.2977 150.5119 336.4648 149.2625 329.8013 146.3473 326.886 145.5143 327.719 148.8461 333.1331 147.5967 333.1331 147.1802 336.8813 143.432 338.5471 143.432 339.7965 141.7661 339.3801 142.1826 340.6295 139.2673 343.1283 135.5191 341.8789 134.6862 343.1283 136.352 343.9612 132.6038 345.6271 131.7709 342.2953 127.1897 341.4624 128.8556 340.6295 128.8556 338.5471 128.0227 339.3801 129.2721 337.2977 129.6885 338.5471 131.7709 336.0483 127.6062 334.7989 127.6062 331.8837 129.2721 333.1331 130.5215 331.8837 129.2721 332.7166 129.2721 327.719 127.1897 326.886 128.8556 326.4696 128.0227 325.6366 128.8556 322.7214 123.4415 324.3872 122.6086 321.0555 123.4415 314.8085 120.5263 308.9779 115.1122 306.8956 113.0298 297.3168 111.364 294.818 107.1993 298.9827 106.7828 297.7333 104.284 298.9827 100.9523 294.4016 102.6181 288.9875 107.1993 288.1545 103.4511 284.4063 104.7005 278.9922 105.5334 281.4911 108.0322 283.1569 111.7804 278.9922 112.1969 282.7405 115.1122 282.7405 116.3616 279.8252 124.6909 282.324 124.2745 285.6557 128.8556 289.4039 130.5215 284.8228 136.352 288.571 133.4368 281.9075 135.1026 276.077 129.6885 269.4135 128.8556 272.3288 127.6062 271.9123 128.4391 268.1641 131.3544 266.4982 142.599 266.0817 145.5143 264.8323 149.679 261.5006 151.3449 261.0841 151.3449 264.4159 153.8437 268.5805 151.7613 276.4934 159.2578 281.4911 159.6742 287.3216 160.5072 288.1545 170.0859 291.9027 170.0859 293.1521 165.5048 295.651 163.4224 298.1498 165.9212 303.9803 172.5847 308.145 179.6647 307.7285 180.0811 310.6438 184.6623 308.145 185.0788 303.9803 189.2434 304.3968 197.1563 300.6486 200.0716 303.5638 197.1563 316.8908 199.2387 321.0555 198.4057 326.886 189.6599 331.8837 187.5776 338.5471 Z" id="GR.GW" fill="#cee3f5" stroke="#6e6e6e" stroke-width="0.4">
      <desc>
        <labelrank>6</labelrank>
        <code_hasc>GR.GW</code_hasc>
        <name>Dytiki Ellada</name>
        <admin>Greece</admin>
        <type_en>Region</type_en>
        <region>Peloponnisos</region>
        <woe_id>12577880</woe_id>
        <longitude>21</longitude>
        <woe_name>Dytiki Ellada</woe_name>
        <fips>GR38</fips>
        <woe_label>Dytiki Ellada, GR, Greece</woe_label>
        <latitude>38</latitude>
        <iso_a2>GR</iso_a2>
        <postal>GW</postal>
        <type>Diamerismata</type>
        <id>GR.GW</id>
      </desc>
    </path>
    <path d="M 148.0131 195.6987 148.0131 194.4493 143.0155 191.534 131.3544 192.7834 129.2721 184.0376 126.7733 181.5388 129.2721 174.4588 128.4391 173.6259 125.1074 174.8753 121.3592 166.9624 123.4415 161.5483 120.9427 152.8025 115.1122 142.3908 109.6981 145.3061 107.1993 144.0567 110.1146 137.3932 110.1146 132.8121 113.0298 131.5626 115.5286 128.2309 120.9427 129.4803 123.0251 128.2309 124.6909 124.0662 129.2721 119.9016 130.9379 109.9063 124.2745 99.0782 126.3568 95.33 126.3568 90.7488 137.6014 90.7488 143.0155 89.0829 151.3449 90.3323 160.0907 85.7512 168.0036 87.0006 173.0012 90.3323 181.3305 84.5018 186.7446 84.9183 187.1611 88.6665 189.6599 89.9159 190.9093 91.1653 190.4928 92.4147 189.2434 93.6641 187.5776 94.0805 182.1635 94.497 181.3305 95.7464 182.58 96.9958 184.6623 103.2428 187.1611 104.4922 187.1611 105.7416 185.0788 109.9063 186.3282 110.7393 187.994 110.3228 190.9093 111.5722 192.1587 111.5722 193.4081 112.4051 195.074 112.4051 193.4081 116.5698 193.4081 119.4851 195.4905 122.4004 194.2411 124.8992 194.2411 126.1486 195.4905 127.398 197.1563 130.7297 197.9893 131.9791 203.4033 135.3109 203.4033 136.5603 204.6527 137.3932 208.8174 136.5603 209.6504 141.1414 212.1492 144.0567 212.1492 146.5555 212.9821 148.2214 216.7303 149.8872 215.4809 152.386 215.0644 155.3013 214.2315 156.5507 210.8998 157.8001 210.4833 161.1319 208.8174 163.2142 207.9845 166.1295 205.4857 169.4612 201.7375 173.2094 200.9045 176.1247 199.2387 178.6235 196.3234 180.2894 192.5752 183.6211 190.9093 184.8705 193.4081 186.5364 193.8246 187.7858 194.2411 191.9505 194.2411 193.1999 192.9916 194.4493 180.4976 194.4493 161.3401 190.2846 158.4248 191.534 156.7589 192.3669 155.0931 194.8658 153.4272 195.6987 150.0955 196.9481 148.8461 196.9481 148.0131 195.6987 Z" id="GR.MW" fill="#cee3f5" stroke="#6e6e6e" stroke-width="0.4">
      <desc>
        <labelrank>6</labelrank>
        <code_hasc>GR.MW</code_hasc>
        <name>Dytiki Makedonia</name>
        <admin>Greece</admin>
        <type_en>Region</type_en>
        <region/>
        <woe_id>12577881</woe_id>
        <longitude>21</longitude>
        <woe_name>Dytiki Makedonia</woe_name>
        <fips>GR08</fips>
        <woe_label>Dytiki Makedonia, GR, Greece</woe_label>
        <latitude>40</latitude>
        <iso_a2>GR</iso_a2>
        <postal>MW</postal>
        <type>Diamerismata</type>
        <id>GR.MW</id>
      </desc>
    </path>
    <path d="M 365.4093 271.9123 366.2422 273.1617 364.5764 273.9946 365.4093 272.3288 364.5764 270.2464 365.8258 268.997 365.4093 271.9123 Z M 318.7649 261.5006 314.6002 266.0817 312.1014 264.4159 309.6026 264.8323 310.0191 262.75 315.4332 258.1689 318.7649 261.5006 Z M 325.8449 258.5853 335.8401 264.8323 335.4236 266.0817 340.4212 267.7476 336.673 271.4958 330.8425 270.2464 330.8425 267.7476 327.0943 263.9994 324.5955 258.5853 325.8449 258.5853 Z M 348.7506 263.1665 346.2518 265.2488 343.753 264.8323 353.3317 250.6724 354.1647 254.4206 348.7506 263.1665 Z M 362.0776 244.0089 364.1599 244.8419 364.1599 246.5078 361.6611 249.8395 359.9952 246.5078 361.2446 243.176 362.0776 244.0089 Z M 382.4845 244.0089 381.6516 246.5078 381.6516 242.7595 382.4845 244.0089 Z M 370.4069 241.0937 368.7411 243.176 367.9081 242.3431 369.9905 236.929 370.4069 241.0937 Z M 257.5442 185.287 258.7936 190.2846 267.9558 199.8634 274.6193 221.1032 286.6969 229.0161 288.7792 233.5973 300.0239 246.9242 305.4379 259.8347 305.8544 261.5006 302.5227 263.9994 295.0263 266.0817 296.6921 267.3311 294.6098 268.5805 287.9463 270.2464 282.9487 269.4135 285.031 264.4159 287.9463 263.1665 286.6969 268.5805 292.111 265.6653 292.9439 263.1665 294.6098 263.9994 295.8592 261.0841 292.5274 255.67 292.111 252.3383 289.6122 249.423 280.8663 247.3407 278.784 243.176 274.2029 242.7595 273.7864 246.5078 274.6193 248.5901 266.7064 250.256 265.457 255.67 267.5394 263.1665 269.2053 259.8347 271.2876 261.0841 272.537 266.4982 273.7864 267.7476 273.7864 265.6653 275.8687 266.9147 278.784 271.9123 278.784 273.9946 275.4523 276.4934 275.8687 278.1593 284.6146 274.8276 280.4499 278.1593 278.3675 282.7405 275.8687 281.4911 268.3723 283.1569 266.29 280.6581 256.2947 279.4087 250.0477 275.244 240.8854 275.6605 239.2196 273.5782 239.636 266.4982 234.222 266.9147 232.5561 261.5006 219.6456 254.0042 212.5656 261.9171 210.0668 267.3311 203.8198 270.2464 201.7375 272.7452 195.4905 274.8276 194.2411 274.4111 192.9916 267.3311 187.994 263.9994 180.4976 267.7476 177.9988 266.4982 177.9988 262.3335 175.0835 259.4183 174.6671 255.2536 173.0012 252.7548 166.3377 254.4206 163.006 257.7524 160.5072 255.67 159.2578 256.0865 152.5943 261.5006 151.3449 261.0841 149.679 258.1689 149.2625 256.503 153.4272 248.5901 152.5943 245.6748 150.5119 243.176 145.0979 242.7595 138.0179 234.0137 138.0179 230.682 136.352 227.3502 136.352 226.1008 137.6014 224.8514 137.6014 219.4374 134.2697 216.1056 134.2697 213.1903 133.4368 209.8586 134.6862 208.6092 135.9356 208.1927 139.2673 208.1927 140.1002 209.4421 141.7661 209.4421 141.7661 206.5268 140.5167 200.6963 140.9332 199.4469 141.7661 197.781 144.2649 195.6987 145.9308 195.2822 148.0131 195.6987 148.8461 196.9481 150.0955 196.9481 153.4272 195.6987 155.0931 194.8658 156.7589 192.3669 158.4248 191.534 161.3401 190.2846 180.4976 194.4493 192.9916 194.4493 194.2411 193.1999 194.2411 191.9505 193.8246 189.0352 193.8246 187.7858 193.4081 186.5364 190.9093 184.8705 196.3234 180.2894 199.2387 178.6235 200.9045 176.1247 201.7375 173.2094 205.4857 169.4612 207.9845 166.1295 208.8174 163.2142 210.4833 161.1319 211.3162 162.7977 213.3986 160.7154 217.5632 161.5483 216.3138 167.3789 218.3962 169.0447 222.9773 164.4636 226.3091 163.2142 228.3914 164.8801 229.6408 173.6259 237.1372 179.8729 240.8854 185.287 243.8007 186.5364 250.0477 184.8705 252.5465 186.1199 257.5442 185.287 Z" id="GR.TS" fill="#cee3f5" stroke="#6e6e6e" stroke-width="0.4">
      <desc>
        <labelrank>6</labelrank>
        <code_hasc>GR.TS</code_hasc>
        <name>Thessalia</name>
        <admin>Greece</admin>
        <type_en>Region</type_en>
        <region/>
        <woe_id>12577889</woe_id>
        <longitude>22</longitude>
        <woe_name>Thessalia</woe_name>
        <fips>GR21</fips>
        <woe_label>Thessalia, GR, Greece</woe_label>
        <latitude>39</latitude>
        <iso_a2>GR</iso_a2>
        <postal>TS</postal>
        <type>Diamerismata</type>
        <id>GR.TS</id>
      </desc>
    </path>
    <path d="M 148.0131 195.6987 145.9308 195.2822 144.2649 195.6987 143.432 196.9481 141.7661 197.781 140.9332 199.4469 140.5167 200.6963 141.7661 206.5268 141.7661 209.4421 140.1002 209.4421 139.2673 208.1927 135.9356 208.1927 134.6862 208.6092 133.4368 209.8586 134.2697 216.1056 137.6014 219.4374 136.7685 222.3526 137.6014 224.8514 136.352 226.1008 136.352 227.3502 138.0179 234.0137 145.0979 242.7595 150.5119 243.176 152.5943 245.6748 153.4272 248.5901 149.2625 256.503 149.679 258.1689 151.3449 261.0841 149.679 261.5006 145.5143 264.8323 142.599 266.0817 131.3544 266.4982 129.6885 266.9147 128.4391 268.1641 125.9403 273.5782 127.1897 274.8276 119.2768 271.9123 118.0274 269.83 118.8604 268.5805 116.778 268.997 115.5286 267.7476 112.6134 269.83 113.8628 271.4958 110.9475 271.4958 111.7804 269.4135 110.9475 267.3311 109.2816 268.1641 110.1146 264.4159 108.0322 263.9994 105.5334 266.0817 106.7828 266.9147 105.9499 270.2464 103.0346 273.1617 109.6981 278.5758 104.284 277.3264 101.7852 279.8252 99.7029 274.8276 100.5358 273.1617 98.4535 267.3311 91.79 261.9171 83.0442 251.5054 83.4606 246.0913 78.463 245.6748 76.7971 244.0089 74.2983 244.8419 71.3831 243.176 68.8842 240.2607 67.2184 234.8467 64.7196 233.5973 65.5525 232.3479 63.4702 229.4326 67.6348 228.5996 63.4702 224.0185 66.8019 224.0185 67.6348 222.7691 64.3031 221.1032 64.3031 222.3526 61.3878 219.8538 57.6396 220.2703 58.4726 216.1056 59.722 216.5221 60.9714 215.6891 61.3878 210.6915 54.7243 205.6939 47.6444 203.1951 49.3103 202.3622 54.7243 204.4445 61.8043 209.4421 64.3031 206.5268 66.8019 206.9433 67.2184 204.861 70.9666 200.6963 69.3007 197.3646 69.7172 193.1999 76.7971 195.2822 78.8795 191.9505 73.4654 181.9553 72.216 174.8753 78.0465 174.4588 80.1289 169.4612 82.6277 167.7953 93.8723 167.7953 99.2864 165.2965 100.9523 160.7154 100.5358 156.9672 103.4511 153.219 103.8675 146.972 107.1993 144.0567 109.6981 145.3061 115.1122 142.3908 120.9427 152.8025 123.4415 161.5483 121.3592 166.9624 125.1074 174.8753 128.4391 173.6259 129.2721 174.4588 126.7733 181.5388 129.2721 184.0376 131.3544 192.7834 143.0155 191.534 148.0131 194.4493 148.0131 195.6987 Z" id="GR.EP" fill="#cee3f5" stroke="#6e6e6e" stroke-width="0.4">
      <desc>
        <labelrank>6</labelrank>
        <code_hasc>GR.EP</code_hasc>
        <name>Ipeiros</name>
        <admin>Greece</admin>
        <type_en>Region</type_en>
        <region/>
        <woe_id>12577883</woe_id>
        <longitude>20</longitude>
        <woe_name>Ipeiros</woe_name>
        <fips>GR17</fips>
        <woe_label>Ipiros, GR, Greece</woe_label>
        <latitude>39</latitude>
        <iso_a2>GR</iso_a2>
        <postal>EP</postal>
        <type>Diamerismata</type>
        <id>GR.EP</id>
      </desc>
    </path>
    <path d="M 541.1587 413.5113 532.8294 420.5913 526.1659 421.8407 520.3353 425.5889 514.0883 426.0054 514.0883 422.6736 521.5847 413.9278 531.1635 413.9278 537.827 409.7631 544.074 408.5137 541.1587 413.5113 Z M 591.1348 399.7679 591.9678 401.0173 590.3019 396.8526 594.0501 396.0197 594.0501 397.2691 599.8807 398.102 597.3819 400.1844 598.6313 402.6832 599.8807 402.2667 599.8807 404.7655 594.8831 404.7655 587.8031 408.0973 584.0549 411.429 578.2243 411.429 575.7255 407.2643 571.5609 404.7655 566.5632 406.4314 564.8974 408.5137 563.2315 408.9302 561.9821 406.0149 562.3986 400.1844 566.5632 399.3514 567.3962 397.2691 576.5585 394.7703 581.9726 395.1868 591.1348 399.7679 Z M 530.3305 323.9708 534.9117 326.0531 533.6623 326.886 529.9141 326.0531 528.2482 323.1378 530.3305 323.9708 Z M 476.1897 325.2202 474.1074 325.2202 474.9403 323.1378 476.1897 325.2202 Z M 518.6695 319.3896 522.0012 323.1378 523.6671 320.639 526.5823 323.1378 524.9165 328.1354 523.2506 328.5519 525.7494 330.6342 524.9165 335.6319 526.9988 347.293 523.2506 348.9588 523.2506 355.2058 517.42 357.7047 515.3377 361.8693 511.5895 360.6199 507.4248 355.2058 505.7589 355.6223 505.7589 353.1235 503.6766 353.54 505.3425 349.7918 511.5895 347.293 513.6718 343.5447 513.2554 339.7965 509.9236 337.2977 509.5072 332.3001 504.0931 329.3848 500.3449 323.5543 501.5943 319.8061 513.2554 317.3073 518.6695 319.3896 Z M 481.1874 317.3073 484.1026 320.2226 482.8532 324.8037 479.105 324.8037 479.105 321.8884 476.1897 318.5567 481.1874 317.3073 Z M 544.074 244.8419 541.5752 249.423 554.4857 260.2512 553.6527 261.5006 560.3162 271.4958 559.0668 275.244 555.7351 275.244 553.2363 273.1617 553.6527 268.5805 551.9869 265.6653 546.5728 266.4982 555.3186 275.6605 555.3186 277.7428 553.2363 278.9922 545.7399 280.2416 539.0764 278.9922 534.0788 276.077 524.9165 274.8276 519.5024 269.83 520.3353 268.5805 524.9165 267.7476 526.5823 265.2488 529.9141 263.9994 534.9117 259.4183 533.2458 257.3359 529.9141 256.503 525.7494 257.7524 519.9189 266.9147 517.42 268.5805 509.0907 266.0817 499.5119 260.2512 501.1778 251.9218 505.7589 248.1736 507.0084 250.256 514.5048 249.423 515.7542 247.3407 516.5871 248.5901 519.0859 246.5078 524.5 245.2584 524.5 239.4278 539.9093 239.0113 539.4928 241.5101 544.4905 244.0089 544.074 244.8419 Z M 433.71 232.3479 432.4606 225.2679 434.9594 222.7691 437.8747 224.435 433.71 232.3479 Z M 467.0274 176.5412 468.2768 179.8729 464.5286 182.3717 463.6957 186.5364 460.364 188.2023 462.0298 188.6187 459.9475 191.1175 462.4463 196.9481 460.7804 199.8634 456.6158 198.1975 456.1993 195.6987 452.0346 193.1999 455.3663 189.8681 452.8675 186.9529 448.7029 189.4517 451.2017 190.2846 448.7029 191.534 447.4535 194.4493 448.2864 193.6163 449.5358 194.8658 450.3687 198.614 444.9547 197.3646 446.6205 193.1999 444.1217 195.2822 443.2888 193.1999 437.4582 195.2822 439.1241 193.1999 437.4582 191.1175 439.1241 186.9529 436.2088 179.4564 443.7053 178.207 445.7876 179.4564 450.7852 177.7906 453.7005 179.8729 455.3663 183.6211 460.364 180.7058 462.8628 176.5412 468.2768 174.8753 467.0274 176.5412 Z" id="GR.AN" fill="#cee3f5" stroke="#6e6e6e" stroke-width="0.4">
      <desc>
        <labelrank>6</labelrank>
        <code_hasc>GR.AN</code_hasc>
        <name>Voreio Aigaio</name>
        <admin>Greece</admin>
        <type_en>Region</type_en>
        <region/>
        <woe_id>12577890</woe_id>
        <longitude>25</longitude>
        <woe_name>Voreio Aigaio</woe_name>
        <fips>GR48</fips>
        <woe_label>Voreio Aigaio, GR, Greece</woe_label>
        <latitude>39</latitude>
        <iso_a2>GR</iso_a2>
        <postal>AN</postal>
        <type>Diamerismata</type>
        <id>GR.AN</id>
      </desc>
    </path>
    <path d="M 378.7363 381.0268 374.9881 381.0268 376.6539 377.2786 378.3198 378.528 378.7363 381.0268 Z M 385.8162 295.2345 384.5668 296.4839 383.3174 296.0674 384.1504 294.4016 385.8162 295.2345 Z M 401.642 290.6533 409.9714 298.9827 409.9714 300.6486 408.3055 302.3144 404.5573 301.898 403.7243 299.8156 401.2255 303.1474 398.3103 299.8156 401.642 298.1498 400.3926 294.818 396.2279 294.818 394.1456 291.4863 390.8138 291.4863 392.8962 288.1545 393.3126 281.4911 394.9785 281.0746 401.642 286.0722 401.642 290.6533 Z M 313.3508 289.4039 316.2661 295.651 325.0119 300.6486 325.0119 302.3144 330.426 303.9803 335.0072 303.1474 337.506 307.3121 342.0871 310.2273 352.4988 312.3097 355.4141 310.6438 362.494 311.4767 368.7411 313.9755 366.6587 316.0579 366.6587 319.3896 374.9881 327.3025 371.6563 331.8837 371.2399 335.6319 372.9057 338.1307 371.2399 338.5471 376.6539 350.2082 376.6539 356.4553 382.4845 360.6199 383.7339 363.5352 387.4821 363.1187 394.5621 365.6175 402.8914 363.1187 402.4749 370.6152 403.7243 373.114 401.642 380.6104 397.0609 383.1092 394.5621 383.1092 390.8138 377.2786 387.0656 379.7774 388.315 381.4433 386.2327 382.2763 381.6516 376.4457 382.4845 375.1963 379.1527 370.6152 376.2375 369.7822 372.9057 370.1987 373.3222 366.8669 371.2399 366.034 373.3222 362.7023 371.2399 357.7047 369.1575 356.4553 367.9081 356.8717 368.3246 358.1211 366.6587 357.7047 369.574 352.707 368.7411 351.4576 365.4093 353.9564 365.8258 351.8741 364.5764 351.8741 366.2422 348.5424 358.7458 346.46 362.0776 344.3777 359.9952 339.3801 350 340.213 344.5859 338.9636 329.1766 338.9636 326.2613 333.1331 325.0119 333.966 327.9272 329.3848 326.2613 323.5543 317.932 319.3896 317.5155 316.0579 313.3508 311.4767 294.1933 296.0674 289.6122 293.9851 283.7816 294.4016 281.2828 291.4863 276.2852 290.2369 275.0358 291.0698 277.9511 292.7357 277.1181 294.4016 265.457 296.4839 265.8735 293.5686 281.2828 286.4887 282.1158 284.4063 285.4475 283.5734 286.2804 280.2416 288.7792 278.5758 294.1933 278.1593 302.1062 274.8276 308.3532 278.9922 307.9368 281.0746 312.1014 283.9899 313.3508 289.4039 Z M 278.3675 282.7405 273.7864 284.4063 274.2029 285.6557 271.7041 286.9051 266.7064 286.0722 265.8735 289.4039 262.5418 291.0698 257.5442 291.4863 256.7112 289.8204 254.2124 291.0698 249.2148 287.3216 242.5513 290.6533 241.7184 289.8204 241.3019 292.7357 245.0501 292.3192 243.8007 293.5686 245.8831 295.2345 247.1325 293.9851 246.716 295.651 250.4642 295.651 255.4618 293.5686 261.2924 300.6486 265.0406 300.2321 267.9558 303.5638 271.7041 301.4815 274.2029 303.1474 281.6993 304.3968 286.6969 315.2249 292.5274 313.9755 293.7768 312.7261 291.6945 311.0603 292.9439 310.6438 302.5227 313.9755 304.1885 316.0579 304.605 318.9732 301.2733 321.472 300.4403 323.5543 302.5227 322.3049 308.3532 325.6366 305.0215 326.886 304.605 328.9684 318.7649 330.2178 320.8473 328.1354 325.4284 331.8837 323.3461 333.966 325.0119 334.7989 324.5955 336.8813 327.0943 338.1307 330.8425 343.5447 333.7578 345.6271 338.3389 345.2106 331.2589 348.1259 328.7601 350.6247 327.0943 353.54 326.2613 362.7023 321.2637 366.8669 315.0167 364.3681 310.852 359.3705 306.6874 358.1211 307.9368 355.6223 305.8544 353.1235 300.0239 356.0388 298.358 361.8693 291.278 361.0364 294.6098 363.1187 287.9463 361.8693 289.6122 360.6199 287.5298 358.1211 282.9487 360.6199 280.4499 360.2035 282.1158 359.787 280.0334 357.2882 274.2029 356.4553 271.7041 358.1211 273.7864 358.1211 275.4523 359.787 270.4547 359.787 269.6217 354.7894 268.3723 356.0388 267.9558 354.7894 262.5418 356.0388 259.21 353.9564 262.1253 350.6247 254.2124 346.8765 252.5465 344.3777 253.3795 342.7118 250.4642 339.7965 248.7983 341.4624 250.0477 342.2953 247.5489 342.2953 245.4666 344.7942 247.1325 346.46 246.2995 348.1259 243.3842 349.3753 236.3043 336.4648 231.3067 333.1331 231.7232 336.8813 228.8079 338.9636 230.8902 340.6295 229.2243 343.9612 217.1468 341.8789 214.2315 345.6271 209.6504 340.6295 203.4033 338.1307 200.4881 338.5471 198.4057 336.4648 196.3234 336.4648 190.0764 339.7965 187.5776 338.5471 189.6599 331.8837 198.4057 326.886 199.2387 321.0555 197.1563 316.8908 200.0716 303.5638 197.1563 300.6486 189.2434 304.3968 185.0788 303.9803 184.6623 308.145 180.0811 310.6438 179.6647 307.7285 172.5847 308.145 165.9212 303.9803 163.4224 298.1498 165.5048 295.651 170.0859 293.1521 170.0859 291.9027 160.5072 288.1545 159.6742 287.3216 159.2578 281.4911 151.7613 276.4934 153.8437 268.5805 151.3449 264.4159 151.3449 261.0841 152.5943 261.5006 159.2578 256.0865 160.5072 255.67 163.006 257.7524 166.3377 254.4206 173.0012 252.7548 174.6671 255.2536 175.0835 259.4183 177.9988 262.3335 177.9988 266.4982 180.4976 267.7476 187.994 263.9994 192.9916 267.3311 194.2411 274.4111 195.4905 274.8276 201.7375 272.7452 203.8198 270.2464 210.0668 267.3311 212.5656 261.9171 219.6456 254.0042 232.5561 261.5006 234.222 266.9147 239.636 266.4982 239.2196 273.5782 240.8854 275.6605 250.0477 275.244 256.2947 279.4087 266.29 280.6581 268.3723 283.1569 275.8687 281.4911 278.3675 282.7405 Z" id="GR.GC" fill="#cee3f5" stroke="#6e6e6e" stroke-width="0.4">
      <desc>
        <labelrank>6</labelrank>
        <code_hasc>GR.GC</code_hasc>
        <name>Stere치 Ell치da</name>
        <admin>Greece</admin>
        <type_en>Region</type_en>
        <region/>
        <woe_id>12577888</woe_id>
        <longitude>22</longitude>
        <woe_name>Stere치 Ell치da</woe_name>
        <fips>GR33</fips>
        <woe_label>Sterea Ellada, GR, Greece</woe_label>
        <latitude>38</latitude>
        <iso_a2>GR</iso_a2>
        <postal>GC</postal>
        <type>Diamerismata</type>
        <id>GR.GC</id>
      </desc>
    </path>
    <path d="M 367.9081 696.7094 365.8258 697.5424 360.4117 693.3777 363.327 692.1283 367.4916 692.5447 366.6587 695.46 367.9081 696.7094 Z M 499.0955 690.0459 497.4296 691.2953 494.9308 690.4624 499.0955 690.0459 Z M 532.8294 684.2154 531.9964 685.0483 531.58 682.5495 533.2458 682.966 532.8294 684.2154 Z M 457.8652 634.6557 457.8652 635.9051 453.284 634.2393 456.6158 632.1569 458.6981 633.4063 457.8652 634.6557 Z M 348.7506 626.3264 359.5788 626.7428 361.2446 623.8276 364.5764 623.8276 363.327 620.0794 369.9905 619.2464 371.6563 620.4958 373.3222 625.077 372.0728 627.1593 368.3246 628.4087 363.327 627.5758 362.494 629.2416 372.0728 633.8228 377.4869 631.324 378.3198 642.1521 384.5668 644.2345 391.6468 642.1521 394.5621 642.5686 415.8019 636.3216 425.3807 638.4039 429.9618 636.3216 434.9594 638.4039 436.2088 636.3216 442.8723 638.4039 442.8723 642.9851 444.9547 644.2345 469.1098 643.818 473.2745 648.3992 475.7733 648.8156 492.432 642.9851 501.1778 644.2345 497.8461 648.3992 498.2625 651.3144 499.0955 651.7309 499.9284 649.2321 500.7613 651.7309 498.679 653.3968 497.0131 659.6438 498.679 664.6414 504.0931 666.3073 507.0084 665.4743 512.4224 659.2273 519.0859 657.9779 525.7494 653.8132 530.3305 655.4791 529.4976 656.7285 531.1635 657.5615 535.3282 656.3121 541.5752 648.3992 544.4905 647.9827 544.074 646.7333 544.4905 645.4839 546.5728 645.4839 546.1563 647.1498 542.4081 650.898 545.3234 658.3944 546.9893 657.145 544.074 661.7261 544.4905 665.0579 540.7422 672.9708 531.9964 677.1354 519.9189 673.3872 505.3425 677.1354 488.2673 676.719 480.3544 679.6342 467.4439 679.2178 457.4487 682.966 451.2017 682.966 447.8699 684.6319 417.4678 685.4648 418.7172 682.966 419.1337 675.886 417.8842 671.3049 414.969 669.2226 402.8914 668.3896 397.8938 663.8085 394.9785 663.8085 389.9809 661.3097 389.5644 660.0603 380.8186 660.8932 374.5716 660.0603 373.3222 658.3944 363.7434 658.8109 360.8282 660.0603 355.8305 655.8956 348.7506 655.8956 342.5036 653.8132 338.7554 655.4791 330.8425 656.3121 329.5931 655.4791 322.9296 655.0626 322.5131 652.9803 317.099 649.6486 317.099 648.3992 320.0143 646.7333 318.7649 641.7357 321.6802 635.4887 320.8473 633.8228 322.0967 628.8252 321.2637 626.3264 324.5955 617.997 325.8449 626.7428 328.7601 628.8252 332.5084 628.8252 334.5907 623.8276 333.3413 614.2488 336.2566 610.5006 338.7554 611.75 337.9224 615.0817 340.4212 624.6605 348.7506 626.3264 Z" id="GR.CR" fill="#cee3f5" stroke="#6e6e6e" stroke-width="0.4">
      <desc>
        <labelrank>6</labelrank>
        <code_hasc>GR.CR</code_hasc>
        <name>Kriti</name>
        <admin>Greece</admin>
        <type_en>Region</type_en>
        <region/>
        <woe_id>12577885</woe_id>
        <longitude>25</longitude>
        <woe_name>Kriti</woe_name>
        <fips>GR43</fips>
        <woe_label>Kriti, GR, Greece</woe_label>
        <latitude>35</latitude>
        <iso_a2>GR</iso_a2>
        <postal>CR</postal>
        <type>Diamerismata</type>
        <id>GR.CR</id>
      </desc>
    </path>
    <path d="M 350.4165 147.3884 352.0823 148.6378 347.9177 146.5555 350 145.3061 350.4165 147.3884 Z M 328.3437 41.6056 329.1766 48.2691 335.4236 51.6008 334.5907 58.2643 342.92 67.0101 352.9153 73.2572 354.5811 72.0078 357.08 71.5913 365.8258 79.9206 365.8258 85.3347 363.7434 89.0829 353.7482 98.2452 345.8353 101.577 342.0871 101.577 336.2566 104.4922 333.7578 107.4075 333.3413 109.9063 335.4236 113.6545 337.9224 114.9039 340.8377 120.7345 345.0024 123.6498 348.3341 123.2333 350.4165 125.7321 349.5835 126.9815 343.3365 128.6474 343.3365 133.2285 346.6683 138.2261 350.4165 140.7249 353.7482 141.5579 357.08 140.7249 357.08 146.5555 356.6635 147.3884 350.8329 142.3908 344.1695 142.3908 338.3389 144.4732 336.2566 143.6402 333.7578 146.972 333.3413 150.3037 335.0072 154.0519 339.5883 159.0495 348.7506 162.3813 356.247 167.7953 354.9976 170.2942 357.08 172.793 355.8305 175.2918 357.4964 175.2918 358.3294 177.7906 355.8305 180.7058 356.6635 181.9553 354.5811 182.7882 355.8305 184.0376 350.4165 184.0376 350.8329 181.9553 349.1671 182.3717 349.1671 180.7058 345.0024 176.9576 343.3365 177.3741 343.3365 178.6235 340.4212 172.793 340.8377 170.2942 331.6754 157.8001 313.7673 151.5531 307.9368 153.219 306.2709 156.5507 307.9368 164.4636 310.852 164.8801 318.3484 175.2918 326.2613 179.4564 331.2589 180.7058 333.3413 185.287 337.506 186.5364 333.7578 188.2023 327.0943 186.9529 315.8496 182.3717 307.5203 183.2047 309.1862 179.04 303.3556 169.0447 305.0215 161.9648 302.9391 155.7178 282.5322 146.5555 277.5346 141.1414 271.7041 140.3085 271.7041 136.9767 266.7064 128.6474 275.8687 127.398 279.2005 123.6498 275.8687 120.318 275.4523 116.1533 271.7041 114.071 269.6217 114.9039 269.6217 118.6521 268.3723 120.7345 262.1253 121.9839 261.2924 126.565 260.4594 125.7321 258.7936 127.8144 255.4618 126.1486 254.2124 128.2309 255.4618 129.0638 253.7959 131.5626 250.0477 130.7297 248.3819 131.9791 250.0477 134.4779 250.0477 137.3932 254.2124 141.9743 245.8831 161.9648 247.1325 173.2094 249.2148 176.9576 257.1277 182.7882 257.5442 185.287 252.5465 186.1199 250.0477 184.8705 243.8007 186.5364 240.8854 185.287 237.1372 179.8729 229.6408 173.6259 228.3914 164.8801 226.3091 163.2142 222.9773 164.4636 218.3962 169.0447 216.3138 167.3789 217.5632 161.5483 213.3986 160.7154 211.3162 162.7977 210.4833 161.1319 210.4833 159.466 210.8998 157.8001 214.2315 156.5507 215.0644 155.3013 215.4809 152.386 216.7303 149.8872 212.9821 148.2214 212.1492 146.5555 212.1492 144.0567 209.6504 141.1414 208.8174 136.5603 204.6527 137.3932 203.4033 136.5603 203.4033 135.3109 197.9893 131.9791 197.1563 130.7297 195.4905 127.398 194.2411 126.1486 194.2411 124.8992 195.4905 122.4004 193.4081 119.4851 193.4081 116.5698 195.074 112.4051 193.4081 112.4051 192.1587 111.5722 190.9093 111.5722 187.994 110.3228 186.3282 110.7393 185.0788 109.9063 187.1611 105.7416 187.1611 104.4922 184.6623 103.2428 181.3305 95.7464 182.1635 94.497 187.5776 94.0805 189.2434 93.6641 190.4928 92.4147 190.9093 91.1653 189.6599 89.9159 187.1611 88.6665 186.7446 84.9183 187.1611 84.9183 188.4105 84.0853 188.827 81.17 197.5728 72.4242 198.4057 67.8431 209.2339 62.8455 213.3986 65.7607 221.3115 62.0125 228.3914 63.6784 228.8079 65.7607 234.222 65.3443 239.636 67.0101 250.0477 66.1772 254.2124 60.7631 258.7936 64.9278 260.4594 62.429 262.5418 47.4362 265.0406 45.3538 275.0358 45.3538 290.0286 47.8526 295.8592 46.6032 297.1086 42.4385 301.6897 39.5233 305.8544 42.4385 312.5179 39.5233 320.0143 39.5233 325.0119 42.4385 328.3437 41.6056 Z" id="GR.MC" fill="#cee3f5" stroke="#6e6e6e" stroke-width="0.4">
      <desc>
        <labelrank>6</labelrank>
        <code_hasc>GR.MC</code_hasc>
        <name>Kentriki Makedonia</name>
        <admin>Greece</admin>
        <type_en>Region</type_en>
        <region/>
        <woe_id>12577884</woe_id>
        <longitude>22</longitude>
        <woe_name>Kentriki Makedonia</woe_name>
        <fips>GR05</fips>
        <woe_label>Kentriki Makedonia, GR, Greece</woe_label>
        <latitude>40</latitude>
        <iso_a2>GR</iso_a2>
        <postal>MC</postal>
        <type>Diamerismata</type>
        <id>GR.MC</id>
      </desc>
    </path>
    <path d="M 356.6635 147.3884 357.08 140.7249 357.4964 139.4755 356.247 134.8944 357.4964 134.4779 363.327 142.8073 370.4069 144.4732 372.4893 147.8049 374.5716 147.8049 386.2327 161.5483 387.0656 164.0471 384.5668 166.1295 379.5692 166.5459 378.7363 163.6307 374.9881 160.7154 369.574 151.9696 360.4117 149.4708 358.3294 148.6378 356.6635 147.3884 Z" id="GR.MA" fill="#cee3f5" stroke="#6e6e6e" stroke-width="0.4">
      <desc>
        <labelrank>6</labelrank>
        <code_hasc>GR.MA</code_hasc>
        <name>Ayion Oros</name>
        <admin>Greece</admin>
        <type_en>Autonomous Monastic State</type_en>
        <region>Macedonia</region>
        <woe_id>12577877</woe_id>
        <longitude>24</longitude>
        <woe_name>Ayion Oros</woe_name>
        <fips>GR15</fips>
        <woe_label>Agio Oros, GR, Greece</woe_label>
        <latitude>40</latitude>
        <iso_a2>GR</iso_a2>
        <postal>MA</postal>
        <type>Aftonomi Monastiki Politia</type>
        <id>GR.MA</id>
      </desc>
    </path>
    <path d="M 484.1026 129.4803 486.185 132.3956 486.185 134.8944 478.2721 138.6426 473.6909 136.9767 467.0274 130.3132 474.5239 126.9815 484.1026 129.4803 Z M 416.2184 117.4027 408.722 119.9016 405.8067 122.4004 401.2255 117.4027 396.2279 115.3204 396.2279 110.3228 399.9761 103.6593 405.3902 99.0782 411.2208 100.3276 416.6348 105.7416 414.5525 106.9911 416.6348 108.6569 414.969 112.4051 416.2184 117.4027 Z M 345.8353 101.577 353.7482 98.2452 363.7434 89.0829 365.8258 85.3347 365.8258 79.9206 357.08 71.5913 354.5811 72.0078 352.9153 73.2572 342.92 67.0101 334.5907 58.2643 335.4236 51.6008 329.1766 48.2691 328.3437 41.6056 332.0919 39.1068 338.3389 39.5233 340.0048 36.608 345.4189 35.7751 348.7506 33.2763 352.9153 35.7751 356.6635 33.2763 359.1623 34.5257 360.8282 33.2763 360.4117 27.0292 362.494 25.7798 369.574 28.2786 371.6563 24.9469 375.4045 23.281 379.1527 27.8622 389.5644 26.6128 391.2303 24.5304 394.9785 23.281 396.6444 24.5304 400.3926 35.3586 409.1384 38.2739 414.969 44.5209 416.6348 44.5209 417.0513 39.9397 423.2983 39.1068 439.5406 45.3538 445.3711 49.5185 448.7029 54.0996 453.7005 54.9326 466.1945 50.7679 470.3592 50.3514 473.6909 47.0197 483.2697 48.6856 493.2649 44.1044 498.679 47.4362 516.5871 42.0221 520.3353 34.5257 518.253 29.9445 519.0859 24.5304 516.5871 22.4481 515.3377 15.7846 511.5895 14.1187 510.3401 10.3705 510.7566 7.4553 514.5048 4.9564 523.2506 2.4576 526.9988 5.7894 533.6623 5.7894 542.4081 9.5376 541.5752 12.0364 549.9045 17.4505 551.5704 15.3681 551.5704 22.8646 555.3186 36.608 554.4857 42.4385 551.9869 43.6879 548.2387 41.6056 538.6599 50.3514 531.9964 52.4338 532.8294 54.0996 531.9964 58.2643 533.2458 62.0125 531.9964 64.9278 533.6623 65.7607 532.4129 69.9254 534.4952 73.2572 536.5776 74.0901 536.1611 76.1724 533.2458 78.2548 535.3282 80.7536 530.747 84.5018 531.58 86.1677 528.2482 85.3347 526.5823 88.6665 525.7494 87.4171 524.5 92.8311 520.7518 96.1629 517.42 102.8264 514.9212 104.0758 512.006 104.0758 510.7566 98.2452 509.0907 97.4123 512.8389 96.1629 512.8389 94.497 509.5072 95.33 508.2578 94.0805 508.6742 96.1629 502.4272 92.8311 488.2673 93.2476 478.2721 90.7488 473.2745 91.5817 455.3663 83.6689 452.8675 86.1677 446.2041 84.5018 442.4558 82.8359 443.2888 80.7536 445.3711 79.5042 442.8723 77.8383 435.3759 78.6712 435.3759 80.3371 432.0442 82.4195 431.6277 84.9183 424.5477 87.0006 417.4678 94.0805 414.969 92.8311 410.3878 94.0805 407.0561 91.5817 404.5573 93.6641 399.5597 84.0853 394.9785 83.2524 392.0632 85.3347 388.315 84.9183 380.4021 91.5817 381.6516 94.0805 379.9857 95.33 382.4845 96.5794 364.9928 106.5746 355.8305 106.1581 345.8353 101.577 Z" id="GR.MT" fill="#cee3f5" stroke="#6e6e6e" stroke-width="0.4">
      <desc>
        <labelrank>6</labelrank>
        <code_hasc>GR.MT</code_hasc>
        <name>Anatoliki Makedonia kai Thraki</name>
        <admin>Greece</admin>
        <type_en>Region</type_en>
        <region/>
        <woe_id>12577878</woe_id>
        <longitude>25</longitude>
        <woe_name>Anatoliki Makedonia kai Thraki</woe_name>
        <fips>GR01</fips>
        <woe_label>Anatoliki Makedonia, GR, Greece</woe_label>
        <latitude>41</latitude>
        <iso_a2>GR</iso_a2>
        <postal>MT</postal>
        <type>Diamerismata</type>
        <id>GR.MT</id>
      </desc>
    </path>
    <path d="M 601.963 632.9899 602.7959 635.4887 598.6313 636.3216 591.9678 640.9027 590.3019 639.2369 589.8854 638.4039 593.6337 632.9899 595.716 633.8228 602.7959 631.7405 601.963 632.9899 Z M 619.4547 593.8419 618.2053 597.1736 619.0382 602.1712 614.457 609.6677 614.0406 612.9994 619.4547 619.6629 618.2053 622.1617 621.1205 625.4934 620.7041 627.5758 616.5394 627.9922 615.29 630.0746 615.7064 632.5734 613.2076 634.6557 613.6241 632.9899 609.4594 630.0746 610.7088 628.4087 610.2924 627.1593 611.5418 626.7428 610.7088 620.0794 607.7936 617.1641 606.9606 615.0817 610.7088 610.9171 611.5418 605.9195 613.6241 603.0042 613.6241 594.6748 615.7064 594.6748 618.6217 591.7595 619.4547 593.8419 Z M 649.4403 551.7786 642.7768 552.6116 641.5274 550.9457 644.0263 549.6963 649.4403 549.2798 649.4403 551.7786 Z M 657.7697 546.3646 656.5203 548.8634 656.1038 546.781 654.8544 547.1975 656.1038 545.1152 657.7697 546.3646 Z M 506.5919 541.3669 505.7589 542.6163 503.6766 541.3669 500.3449 542.6163 497.4296 542.1999 496.5967 540.1175 499.5119 537.6187 506.5919 541.3669 Z M 699 528.4564 697.7506 530.1223 699 534.287 696.9177 535.9529 693.5859 548.0304 691.0871 553.4445 689.0048 553.4445 687.7554 555.5268 686.0895 560.5245 689.0048 561.7739 687.3389 564.6891 688.5883 566.7715 684.0072 565.5221 680.6754 566.355 675.6778 570.1032 667.7649 581.7643 664.0167 584.2631 659.852 581.7643 658.1862 578.0161 661.5179 569.6868 661.5179 564.6891 657.3532 560.5245 657.3532 558.8586 655.2709 557.6092 662.3508 553.4445 664.4332 545.9481 666.932 545.1152 671.9296 538.8681 689.4212 529.2894 694.4189 529.2894 696.9177 526.3741 699 528.4564 Z M 477.0227 540.534 473.6909 544.6987 466.611 542.6163 470.7757 542.1999 472.858 539.2846 471.6086 533.4541 467.0274 530.9553 471.1921 531.3717 474.1074 533.4541 476.1897 535.9529 477.0227 540.534 Z M 628.6169 527.207 631.1158 533.4541 634.4475 532.6211 632.7816 536.3693 629.4499 536.3693 626.9511 531.3717 624.8687 533.4541 622.7864 531.7882 623.2029 527.207 624.0358 528.8729 627.3675 526.3741 628.6169 527.207 Z M 612.3747 518.8777 609.8759 518.8777 608.6265 517.2118 609.4594 515.1295 613.2076 513.4636 614.8735 516.3789 612.3747 518.8777 Z M 554.9021 517.2118 554.9021 518.8777 553.6527 517.6283 547.8222 519.7106 545.7399 525.9576 542.4081 525.5412 539.4928 522.2094 539.0764 517.6283 541.5752 517.2118 545.3234 520.1271 547.4057 518.0447 550.321 518.0447 546.9893 513.0471 549.4881 513.0471 554.9021 517.2118 Z M 664.4332 510.5483 664.0167 512.2142 665.6826 512.6307 668.1814 510.5483 669.0143 511.3813 667.7649 512.6307 668.5979 512.2142 669.0143 516.7953 668.1814 517.6283 669.4308 518.8777 666.5155 520.1271 665.2661 519.7106 666.932 518.0447 662.3508 516.3789 663.6002 515.5459 659.852 515.5459 661.9344 511.3813 667.7649 508.466 664.4332 510.5483 Z M 434.1265 518.4612 431.2112 518.4612 424.5477 512.6307 426.6301 512.2142 432.8771 516.3789 434.1265 518.4612 Z M 447.4535 512.6307 444.5382 515.1295 442.4558 515.1295 445.3711 508.8825 448.7029 506.8001 452.0346 506.8001 447.4535 512.6307 Z M 392.8962 503.8848 394.9785 504.3013 399.5597 502.219 400.8091 503.8848 399.9761 510.9648 382.901 514.2965 384.1504 508.0495 382.901 507.2166 384.9833 503.8848 388.315 505.5507 389.5644 508.466 393.7291 509.2989 394.5621 508.8825 393.7291 506.3837 391.2303 505.9672 389.5644 503.0519 390.3974 502.219 392.8962 503.8848 Z M 409.5549 503.8848 408.722 504.3013 405.3902 500.9696 406.6396 499.7202 410.3878 501.8025 409.5549 503.8848 Z M 469.1098 505.5507 469.9427 507.2166 468.6933 508.0495 469.1098 510.5483 467.4439 513.0471 464.5286 511.7977 459.531 505.9672 457.4487 505.9672 458.2816 501.8025 461.6134 498.8872 464.9451 503.8848 469.1098 505.5507 Z M 403.3079 495.139 404.9737 494.7226 405.3902 496.3884 402.8914 500.9696 399.9761 500.5531 399.1432 496.3884 401.642 494.7226 403.3079 495.139 Z M 473.6909 495.972 471.1921 495.139 475.3568 491.3908 475.3568 494.7226 473.6909 495.972 Z M 613.2076 493.8896 608.21 498.8872 601.5465 497.6378 597.3819 500.1366 596.1325 501.386 596.9654 503.4684 595.2995 505.1342 596.1325 507.6331 591.9678 505.1342 591.9678 499.3037 592.8007 499.7202 594.4666 497.6378 596.5489 498.8872 602.3795 491.3908 610.7088 485.9767 619.8711 483.8944 626.1181 488.0591 613.2076 493.8896 Z M 491.1826 490.1414 485.7685 489.7249 489.1002 486.8097 492.0155 488.892 491.1826 490.1414 Z M 523.2506 487.6426 517.8365 488.4755 511.173 493.4732 507.8413 498.4708 497.8461 500.9696 496.5967 498.4708 504.926 496.8049 506.1754 494.3061 505.3425 494.7226 504.926 493.0567 514.9212 487.6426 513.2554 485.9767 517.0036 483.8944 523.2506 487.6426 Z M 610.2924 479.3132 611.5418 482.645 608.21 482.645 606.1277 480.1462 610.2924 479.3132 Z M 442.4558 482.2285 443.2888 483.4779 440.79 481.8121 438.7076 478.0638 441.2064 475.565 443.7053 474.7321 441.6229 481.3956 442.4558 482.2285 Z M 409.1384 474.3156 412.0537 475.9815 413.3031 475.565 417.8842 483.4779 413.7196 488.4755 410.3878 481.3956 410.8043 478.8968 408.3055 476.398 408.3055 474.3156 409.1384 474.3156 Z M 594.8831 471.4004 597.7983 475.565 600.2971 474.7321 599.8807 480.1462 601.1301 479.3132 600.7136 480.9791 596.5489 480.1462 596.1325 482.645 592.8007 483.0615 590.3019 480.9791 593.2172 472.2333 590.3019 471.4004 587.8031 468.0686 587.8031 466.8192 595.716 470.5674 594.8831 471.4004 Z M 502.8437 465.5698 503.6766 467.6521 500.7613 468.4851 499.0955 465.5698 503.2601 464.3204 502.8437 465.5698 Z M 459.1146 466.4027 457.8652 470.9839 459.1146 471.8168 458.2816 473.0662 459.1146 473.8992 455.3663 478.0638 453.284 479.7297 449.1193 480.1462 444.9547 477.6474 445.7876 472.6498 449.1193 469.7345 447.4535 469.318 450.7852 465.5698 455.7828 463.4875 454.5334 465.1533 457.4487 466.4027 457.8652 463.4875 459.9475 463.4875 459.1146 466.4027 Z M 581.9726 456.4075 584.8878 457.6569 584.0549 459.7393 587.8031 464.3204 586.5537 465.9863 583.6384 465.5698 584.8878 463.4875 581.9726 463.9039 581.9726 461.4051 578.6408 458.9063 579.0573 456.824 581.9726 456.4075 Z M 484.5191 468.0686 483.2697 476.398 481.1874 481.3956 472.858 486.3932 470.7757 481.8121 467.8604 479.7297 467.4439 475.1486 464.1122 470.151 466.611 469.7345 476.1897 459.3228 479.105 458.0734 483.6862 462.2381 484.5191 468.0686 Z M 395.395 458.4899 398.7267 459.3228 399.5597 462.2381 399.1432 465.9863 398.3103 464.7369 396.6444 468.0686 395.8115 466.4027 393.7291 466.8192 393.3126 465.5698 390.3974 466.8192 390.3974 465.5698 391.6468 460.5722 395.395 458.4899 Z M 604.4618 447.6617 602.7959 447.6617 603.2124 445.1629 604.4618 445.1629 604.4618 447.6617 Z M 575.3091 443.9135 579.4737 445.5794 578.6408 448.4946 576.9749 446.4123 575.3091 446.8288 572.8103 444.7464 573.6432 443.497 575.3091 443.9135 Z M 561.5656 438.9159 564.4809 442.6641 561.9821 441.8311 559.8998 443.9135 561.5656 445.5794 560.7327 449.3276 558.6504 446.4123 558.6504 440.5817 559.0668 439.3323 561.5656 438.9159 Z M 574.0597 436.0006 576.5585 438.4994 575.7255 440.1653 572.8103 436.0006 573.2267 434.7512 574.0597 436.0006 Z M 590.3019 428.0877 594.4666 428.0877 596.1325 430.17 594.8831 429.7536 592.3842 431.4195 590.3019 428.0877 Z M 394.1456 436.4171 394.9785 440.1653 392.8962 440.9982 392.0632 444.33 386.2327 448.4946 388.7315 442.2476 387.4821 440.9982 388.315 438.0829 386.2327 438.0829 386.6492 435.5841 392.0632 430.5865 390.8138 434.7512 394.1456 436.4171 Z M 464.1122 427.6712 466.1945 431.8359 467.8604 428.9206 473.2745 431.4195 472.858 433.9183 468.6933 434.7512 468.2768 436.8335 460.7804 437.25 462.4463 432.2524 460.7804 431.4195 461.1969 429.7536 464.1122 427.6712 Z M 433.71 438.9159 427.0465 442.6641 427.463 439.3323 425.3807 439.3323 427.0465 436.4171 425.7971 436.0006 428.2959 433.9183 427.8795 428.0877 430.7947 428.0877 432.0442 430.5865 432.8771 433.0853 432.0442 435.5841 433.71 438.9159 Z M 551.5704 417.2595 551.5704 420.1748 547.4057 419.3419 550.321 416.8431 551.5704 417.2595 Z M 415.8019 419.3419 409.1384 418.5089 414.969 416.0101 415.8019 419.3419 Z M 557.8174 416.8431 555.3186 419.3419 556.568 421.8407 555.7351 423.923 553.6527 419.7584 553.2363 416.4266 555.3186 418.0925 556.568 416.8431 554.9021 413.0949 556.568 411.429 558.6504 414.7607 557.8174 416.8431 Z M 442.8723 413.9278 455.7828 416.4266 457.0322 419.7584 454.5334 424.756 449.9523 424.756 445.3711 422.6736 439.957 417.2595 435.7924 415.1772 434.543 411.8455 435.7924 410.5961 440.3735 411.0125 441.6229 411.429 440.79 413.0949 442.8723 413.9278 Z M 386.6492 410.5961 388.7315 413.5113 388.315 416.8431 381.6516 425.5889 379.9857 426.8383 378.7363 426.0054 379.5692 414.7607 382.901 412.6784 382.901 411.0125 386.6492 410.5961 Z M 423.7148 387.6903 432.8771 389.3562 431.6277 394.7703 434.9594 397.2691 432.4606 401.4338 435.3759 402.2667 435.7924 403.5161 432.8771 408.0973 433.2936 410.1796 429.5453 406.8479 427.463 402.2667 425.3807 401.8502 421.6325 396.8526 419.9666 397.6856 419.5501 394.7703 415.3854 389.7727 413.3031 391.4385 413.7196 389.3562 410.8043 386.0245 411.6372 382.6927 418.3007 378.9445 419.5501 381.4433 422.4654 382.6927 423.7148 387.6903 Z" id="GR.AS" fill="#cee3f5" stroke="#6e6e6e" stroke-width="0.4">
      <desc>
        <labelrank>6</labelrank>
        <code_hasc>GR.AS</code_hasc>
        <name>Notio Aigaio</name>
        <admin>Greece</admin>
        <type_en>Region</type_en>
        <region/>
        <woe_id>12577886</woe_id>
        <longitude>25</longitude>
        <woe_name>Notio Aigaio</woe_name>
        <fips>GR47</fips>
        <woe_label>Notio Aigaio, GR, Greece</woe_label>
        <latitude>37</latitude>
        <iso_a2>GR</iso_a2>
        <postal>AS</postal>
        <type>Diamerismata</type>
        <id>GR.AS</id>
      </desc>
    </path>
  </g>
</svg>