<?xml version="1.0" encoding="UTF-8"?>
<svg xmlns="http://www.w3.org/2000/svg" width="700" height="700">
  <g id="cyprus">
    <path d="M 574.654 313.5304 576.1689 315.366 577.9459 315.3521 579.4465 315.3404 581.2318 316.3819 582.4732 318.5313 581.8808 318.5361 580.067 318.9103 578.885 319.2795 577.7198 319.2886 577.6948 319.2839 577.3718 319.233 577.0571 317.8543 575.2772 317.5082 573.5001 317.522 572.8939 315.7273 571.3876 314.9951 569.0073 313.5737 569.8704 312.8234 571.6473 312.8098 574.654 313.5304 Z M 595.771 307.5529 599.2923 308.3895 601.8945 307.9357 607.6965 307.6702 609.7709 307.8442 609.8905 307.9752 610.4324 308.9901 611.2423 311.3104 611.9077 315.1674 612.5133 316.6736 614.0306 318.5558 621.4788 325.5195 621.4837 325.5242 619.8128 327.3192 619.8069 327.3274 609.3085 325.1705 602.2113 326.7427 599.2332 324.9204 603.9364 320.562 607.2079 319.7663 607.1394 311.8014 599.9864 311.1424 595.7709 307.5548 595.771 307.5529 Z M 564.1746 307.0897 562.6912 307.787 561.5061 307.172 561.1375 305.9271 561.6855 303.6773 562.0835 301.9901 563.9259 301.2901 566.1867 301.6475 566.222 306.3258 564.1746 307.0897 Z M 547.509 314.0669 547.0174 321.0589 547.0131 321.0606 538.9484 324.1767 528.9685 334.2554 526.1759 340.2052 523.6107 347.778 521.7344 356.1584 521.1019 364.4364 521.9363 373.2908 521.0263 377.1313 517.3924 378.7408 515.0674 380.512 512.4703 388.8018 510.804 391.4565 504.8947 393.2107 492.1837 393.4156 487.2992 394.7269 483.9839 398.2205 480.0546 403.606 475.4984 408.5031 470.2728 410.6829 458.0683 413.764 446.9943 419.1785 438.0237 421.2189 432.2281 414.31 431.9058 427.345 421.0788 434.0921 392.621 440.0799 386.889 442.7975 383.4394 445.1258 383.2399 444.1491 381.0126 433.4079 381.0078 431.6088 383.2835 416.3456 383.2193 414.5825 382.5017 412.7253 379.8751 407.4547 375.8618 401.3117 364.1968 387.8934 362.2942 386.2423 359.5018 384.593 341.1954 378.0539 340.1273 377.9237 335.8561 378.1342 334.313 377.7046 331.2658 376.4135 328.7115 373.85 328.9375 365.2136 330.2967 361.5893 330.8882 360.485 331.8352 359.1883 333.1383 358.107 340.3255 353.5021 343.5838 351.9254 347.969 350.8382 350.3997 350.8098 352.357 351.2619 353.5643 352.2191 355.3477 354.5906 356.7131 355.4275 358.3151 355.976 360.1535 356.1161 361.8725 355.9085 369.634 353.4079 371.0583 353.9563 372.1871 354.8772 374.3837 356.0113 375.1558 356.5131 375.4746 357.5559 375.4777 358.7673 375.8759 359.9178 377.1818 360.4183 379.926 359.1277 383.9499 356.0702 391.6946 348.3235 401.1748 340.5816 404.6105 339.9827 406.3905 340.5646 407.8163 341.5674 409.7796 343.7078 411.7366 343.953 414.3428 343.4161 418.9004 341.6244 421.6454 341.2904 428.8816 342.5702 430.4232 342.6841 431.9007 341.5986 433.6109 339.4326 436.3727 333.6397 437.1298 330.4459 437.2382 327.9984 436.9953 326.584 437.2874 325.5752 437.9958 324.9485 439.8914 324.8926 441.3153 325.3424 442.3449 325.9617 445.6748 328.7063 447.2183 329.3712 448.9967 329.5433 451.0678 328.9223 456.9173 325.3689 459.1657 324.7346 460.8261 325.0386 462.094 325.8722 463.6967 326.4882 465.4159 326.6718 467.1326 326.3515 468.5492 325.2649 472.2301 315.0504 472.7519 312.8167 473.3968 311.5179 474.2794 310.3858 477.8249 308.8561 477.7637 308.4725 477.4044 307.7067 476.3281 305.721 474.96 304.5285 473.8284 303.2628 473.0518 301.9233 471.7838 297.0716 470.9494 294.5998 473.7888 291.723 477.3234 288.418 480.3397 291.689 480.3991 302.9164 482.8005 309.0693 487.5499 311.1789 494.4433 308.2616 497.3691 302.1033 500.67 299.5172 504.8583 300.2123 509.2574 303.113 512.5689 302.3731 515.5598 300.8672 519.6941 302.3288 523.3175 304.1051 531.676 308.4171 536.4581 309.1048 540.6282 309.7722 546.5985 313.7374 547.509 314.0669 Z" id="CY.LA" fill="#cee3f5" stroke="#6e6e6e" stroke-width="0.4">
      <desc>
        <labelrank>9</labelrank>
        <code_hasc>CY.LA</code_hasc>
        <name>Larnaca</name>
        <admin>Cyprus</admin>
        <type_en>District</type_en>
        <region/>
        <woe_id>12577964</woe_id>
        <longitude>33</longitude>
        <woe_name>Larnaca</woe_name>
        <fips>CY03</fips>
        <woe_label/>
        <latitude>34</latitude>
        <iso_a2>CY</iso_a2>
        <postal>LA</postal>
        <type>District</type>
        <id>CY.LA</id>
      </desc>
    </path>
    <path d="M 547.509 314.0669 546.5985 313.7374 540.6282 309.7722 536.4581 309.1048 531.676 308.4171 523.3175 304.1051 519.6941 302.3288 515.5598 300.8672 512.5689 302.3731 509.2574 303.113 504.8583 300.2123 500.67 299.5172 497.3691 302.1033 494.4433 308.2616 487.5499 311.1789 482.8005 309.0693 480.3991 302.9164 480.3397 291.689 477.3234 288.418 473.7888 291.723 470.9494 294.5998 471.7838 297.0716 473.0518 301.9233 473.8284 303.2628 474.96 304.5285 476.3281 305.721 477.4044 307.7067 477.7637 308.4725 477.8249 308.8561 474.2794 310.3858 473.3968 311.5179 472.7519 312.8167 472.2301 315.0504 468.5492 325.2649 467.1326 326.3515 465.4159 326.6718 463.6967 326.4882 462.094 325.8722 460.8261 325.0386 459.1657 324.7346 456.9173 325.3689 451.0678 328.9223 448.9967 329.5433 447.2183 329.3712 445.6748 328.7063 442.3449 325.9617 441.3153 325.3424 439.8914 324.8926 437.9958 324.9485 437.2874 325.5752 436.9953 326.584 437.2382 327.9984 437.1298 330.4459 436.3727 333.6397 433.6109 339.4326 431.9007 341.5986 430.4232 342.6841 428.8816 342.5702 421.6454 341.2904 418.9004 341.6244 414.3428 343.4161 411.7366 343.953 409.7796 343.7078 407.8163 341.5674 406.3905 340.5646 404.6105 339.9827 401.1748 340.5816 391.6946 348.3235 383.9499 356.0702 379.926 359.1277 377.1818 360.4183 375.8759 359.9178 375.4777 358.7673 375.4746 357.5559 375.1558 356.5131 374.3837 356.0113 372.1871 354.8772 371.0583 353.9563 369.634 353.4079 361.8725 355.9085 360.1535 356.1161 358.3151 355.976 356.7131 355.4275 355.3477 354.5906 353.5643 352.2191 352.357 351.2619 350.3997 350.8098 347.969 350.8382 343.5838 351.9254 340.3255 353.5021 333.1383 358.107 331.8352 359.1883 330.8882 360.485 330.2967 361.5893 328.9375 365.2136 314.6387 359.0283 312.3062 358.8265 309.045 359.0451 306.733 359.9704 302.5826 360.8368 300.5068 360.2743 299.3202 359.0515 298.8449 357.4204 297.0056 354.9264 293.9213 351.9051 279.9689 341.7844 279.1984 340.9208 278.7835 340.1771 278.3687 338.8817 277.4798 336.7466 275.9984 334.1076 272.3843 329.849 269.7776 328.2772 267.4473 327.6168 265.729 327.9401 262.8844 329.2825 249.5456 338.6785 246.3836 340.0673 243.064 340.6641 234.8254 340.8474 232.2178 340.6044 229.9071 339.9538 225.0516 336.7806 222.6033 335.9614 220.0556 335.5857 217.5667 335.5099 214.3069 335.7804 212.2334 335.369 210.1612 334.3338 204.4796 330.5327 202.2684 330.0725 200.6676 330.5611 199.0028 333.2805 197.8156 334.2376 196.2146 334.678 194.4954 334.9621 193.0127 335.4986 192.3581 336.6966 192.1771 338.1355 192.2327 339.731 191.9326 341.3976 190.7399 344.5615 190.3208 346.3358 190.0795 348.1584 190.0053 354.5635 180.7459 350.7625 179.0853 350.9741 177.1865 351.6169 176.4711 353.0663 175.1616 354.982 173.1995 356.9678 168.8636 359.5224 166.2527 360.1026 164.771 359.8223 164.8329 358.9469 165.0731 357.94 164.8388 356.9917 162.5292 356.0012 161.4998 356.5378 161.2591 357.7006 161.3339 359.0802 160.7364 360.5538 159.7684 360.3709 158.7032 359.6478 157.6391 358.6009 153.4403 355.1449 151.4317 352.9192 150.2515 351.2599 149.3678 349.6016 148.0795 344.9552 147.9659 343.4914 148.146 342.8323 148.7412 342.1266 151.0522 342.3143 151.8834 341.8853 152.1837 340.7108 152.252 337.9761 152.4929 336.8014 153.8645 334.203 154.5214 332.6578 154.824 330.7276 154.9488 328.7728 154.8364 326.9012 154.1363 323.5763 153.9047 321.9202 153.9777 317.7342 153.3327 315.7169 152.2156 313.2182 144.3282 299.3008 142.2036 297.386 136.3955 293.7542 134.1571 290.8429 131.1 285.4333 129.8683 282.5736 129.3446 280.2924 129.9417 278.9393 130.8923 277.9714 132.4914 277.5937 134.1483 277.576 135.8062 277.2944 136.9339 276.387 137.4721 274.8536 137.7048 260.0042 136.9424 258.274 135.4102 256.8048 133.4043 255.5257 130.3979 253.067 129.106 250.7468 128.5272 247.5897 127.7654 245.8833 125.4689 243.583 123.583 242.1238 113.2678 230.6364 113.7007 228.8728 113.701 228.873 114.3505 229.3103 116.83 229.8688 120.6805 228.9972 127.2064 226.1903 127.2128 226.1875 127.5204 228.1766 132.2482 233.2573 136.4474 232.5056 139.7309 228.9191 141.5221 223.8635 142.0082 222.3185 142.0169 222.3174 145.7094 221.8772 149.2948 222.3417 149.3057 222.3431 161.3854 223.9489 161.3971 223.9504 168.9443 224.9342 168.6323 227.8627 169.424 233.3829 172.4054 238.0695 176.5697 242.8072 181.3124 245.3387 187.2792 247.2008 200.674 250.4695 208.1154 255.2103 214.0555 262.8258 217.5892 272.2599 223.5839 272.6289 225.9166 268.6259 229.5116 263.9047 231.9184 262.8521 236.3754 261.7538 245.2859 262.8663 249.4652 263.5655 253.9018 262.873 258.6934 261.7723 267.3303 257.0498 274.7828 248.3908 284.2816 243.6646 290.823 240.0406 300.3385 237.1335 308.9451 232.7614 315.4836 230.5965 320.5519 235.6773 324.7476 234.9528 333.0482 225.5135 338.9735 223.3455 351.4564 221.1645 364.3282 226.1517 370.522 229.7839 382.1867 230.8335 393.1682 233.7289 399.1388 234.0703 403.3083 231.8497 410.4004 231.8258 421.7145 228.2102 424.0911 226.3778 427.0273 221.6642 431.5003 217.3041 436.5384 216.5157 439.5426 219.0702 440.7473 224.4871 441.9966 231.0073 446.7252 240.0314 450.9371 247.6417 458.1725 260.6354 460.8746 264.965 460.9145 273.3137 460.9576 282.3341 458.908 291.1005 456.8687 302.3137 457.1652 306.6307 461.0789 307.7158 461.065 304.813 461.6346 300.108 462.7908 294.2967 464.5905 291.0732 467.4692 282.6623 469.8651 280.4911 472.5478 280.4776 476.0824 281.1792 480.8855 282.9773 483.2507 282.5808 483.8369 277.8754 485.3004 274.9406 487.6671 274.9277 490.9575 277.8364 493.3863 281.8054 495.2008 288.6806 500.0163 292.2996 504.8155 292.9912 508.8981 289.3681 513.3831 287.1336 522.3866 294.3225 527.9908 294.2863 529.4858 293.5568 535.1737 294.2387 538.389 292.7978 540.5264 294.9221 547.1206 298.1392 548.3278 301.3935 545.0322 304.3196 546.2369 307.2142 552.2559 309.6907 550.7746 315.1474 547.509 314.0669 Z" id="CY.NI" fill="#cee3f5" stroke="#6e6e6e" stroke-width="0.4">
      <desc>
        <labelrank>9</labelrank>
        <code_hasc>CY.NI</code_hasc>
        <name>Nicosia</name>
        <admin>Cyprus</admin>
        <type_en>District</type_en>
        <region/>
        <woe_id>12577971</woe_id>
        <longitude>33</longitude>
        <woe_name>Nicosia</woe_name>
        <fips>CY04</fips>
        <woe_label/>
        <latitude>35</latitude>
        <iso_a2>CY</iso_a2>
        <postal>NI</postal>
        <type>District</type>
        <id>CY.NI</id>
      </desc>
    </path>
    <path d="M 190.0053 354.5635 191.5919 360.8165 195.9673 366.7876 196.0814 368.851 195.3656 370.7326 193.5215 373.0915 191.9172 374.2873 190.1951 375.0511 188.055 376.9412 185.911 380.3186 180.4023 392.2036 178.5566 394.4538 177.1306 395.0258 175.4676 395.4292 174.1598 396.1693 172.3141 398.1914 165.9358 407.3251 164.7392 410.4162 164.4954 412.5385 165.3238 413.5365 166.5089 414.4156 167.6914 416.1823 168.5154 418.7635 168.2613 424.5441 167.4214 427.3844 166.2278 429.2761 162.2999 431.6153 159.1211 434.8921 156.4408 436.9707 154.7721 438.5127 148.1612 442.9648 145.2965 446.4574 143.0315 448.3087 140.4102 449.9906 139.9307 451.1043 140.2038 452.2928 141.0514 453.5433 141.5811 455.0325 141.8126 456.8085 141.5202 466.571 141.5195 466.5932 135.5933 463.9701 116.0121 451.6712 108.9736 448.5997 100.9952 446.6181 84.718 444.8207 78.0248 442.0285 71.589 437.971 56.3748 425.7589 54.1758 423.196 51.8541 409.7516 50.3084 407.589 50.0851 403.2241 41.3544 378.7461 37.0796 375.0357 28.9868 369.6001 25.5545 365.9506 22.441 361.2828 20.175 355.6948 19.9666 349.6862 23.3053 343.7391 16.045 331.5998 15.3632 326.7213 15.433 316.5962 13.8147 307.8385 5.6175 293.4044 2.5928 286.2417 1 274.5931 2.3661 266.1397 6.7649 263.3377 14.4592 268.7571 25.7425 281.3021 32.0784 286.3687 39.2988 289.3996 55.1496 288.7781 68.9857 281.5273 80.3829 270.3863 88.9531 258.2456 94.7044 243.8792 98.838 236.0782 104.9085 231.7239 105.6631 229.536 106.7279 227.3307 108.9347 226.3772 110.8246 226.9146 113.7007 228.8728 113.2678 230.6364 123.583 242.1238 125.4689 243.583 127.7654 245.8833 128.5272 247.5897 129.106 250.7468 130.3979 253.067 133.4043 255.5257 135.4102 256.8048 136.9424 258.274 137.7048 260.0042 137.4721 274.8536 136.9339 276.387 135.8062 277.2944 134.1483 277.576 132.4914 277.5937 130.8923 277.9714 129.9417 278.9393 129.3446 280.2924 129.8683 282.5736 131.1 285.4333 134.1571 290.8429 136.3955 293.7542 142.2036 297.386 144.3282 299.3008 152.2156 313.2182 153.3327 315.7169 153.9777 317.7342 153.9047 321.9202 154.1363 323.5763 154.8364 326.9012 154.9488 328.7728 154.824 330.7276 154.5214 332.6578 153.8645 334.203 152.4929 336.8014 152.252 337.9761 152.1837 340.7108 151.8834 341.8853 151.0522 342.3143 148.7412 342.1266 148.146 342.8323 147.9659 343.4914 148.0795 344.9552 149.3678 349.6016 150.2515 351.2599 151.4317 352.9192 153.4403 355.1449 157.6391 358.6009 158.7032 359.6478 159.7684 360.3709 160.7364 360.5538 161.3339 359.0802 161.2591 357.7006 161.4998 356.5378 162.5292 356.0012 164.8388 356.9917 165.0731 357.94 164.8329 358.9469 164.771 359.8223 166.2527 360.1026 168.8636 359.5224 173.1995 356.9678 175.1616 354.982 176.4711 353.0663 177.1865 351.6169 179.0853 350.9741 180.7459 350.7625 190.0053 354.5635 Z" id="CY.PA" fill="#cee3f5" stroke="#6e6e6e" stroke-width="0.4">
      <desc>
        <labelrank>9</labelrank>
        <code_hasc>CY.PA</code_hasc>
        <name>Paphos</name>
        <admin>Cyprus</admin>
        <type_en>District</type_en>
        <region/>
        <woe_id>12577966</woe_id>
        <longitude>32</longitude>
        <woe_name>Paphos</woe_name>
        <fips>CY06</fips>
        <woe_label/>
        <latitude>34</latitude>
        <iso_a2>CY</iso_a2>
        <postal>PA</postal>
        <type>District</type>
        <id>CY.PA</id>
      </desc>
    </path>
    <path d="M 621.4837 325.5242 621.4788 325.5195 614.0306 318.5558 612.5133 316.6736 611.9077 315.1674 611.2423 311.3104 610.4324 308.9901 609.8905 307.9752 609.7709 307.8442 607.6965 307.6702 601.8945 307.9357 599.2923 308.3895 595.771 307.5529 596.0024 297.4041 592.9757 294.1662 584.0246 290.3041 586.0355 285.1776 589.6025 282.2456 594.6711 279.6607 597.6481 281.7952 600.0765 284.342 605.394 283.2171 610.1396 279.8891 612.7938 276.6029 614.8619 274.0175 621.775 279.4262 624.9443 275.7608 624.9773 275.7863 627.3969 277.2158 632.184 278.6353 638.1941 279.9946 646.4803 275.9326 664.0757 279.7416 665.3461 277.8373 665.35 277.8406 669.0703 280.9504 669.079 280.9576 674.4387 285.4555 680.2871 291.9691 684.6797 304.6187 689.0573 312.7336 694.3628 320.1957 699 323.2812 693.6856 323.7171 683.815 322.765 674.2698 320.1444 669.9924 315.5031 665.4288 313.2069 644.7149 316.0559 626.7605 321.6834 622.8629 324.0424 621.4837 325.5242 Z" id="CY.FA" fill="#cee3f5" stroke="#6e6e6e" stroke-width="0.4">
      <desc>
        <labelrank>9</labelrank>
        <code_hasc>CY.FA</code_hasc>
        <name>Famagusta</name>
        <admin>Cyprus</admin>
        <type_en>District</type_en>
        <region/>
        <woe_id>12577963</woe_id>
        <longitude>33</longitude>
        <woe_name>Famagusta</woe_name>
        <fips>CY01</fips>
        <woe_label/>
        <latitude>35</latitude>
        <iso_a2>CY</iso_a2>
        <postal>FA</postal>
        <type>District</type>
        <id>CY.FA</id>
      </desc>
    </path>
    <path d="M 141.5195 466.5932 141.5202 466.571 141.8126 456.8085 141.5811 455.0325 141.0514 453.5433 140.2038 452.2928 139.9307 451.1043 140.4102 449.9906 143.0315 448.3087 145.2965 446.4574 148.1612 442.9648 154.7721 438.5127 156.4408 436.9707 159.1211 434.8921 162.2999 431.6153 166.2278 429.2761 167.4214 427.3844 168.2613 424.5441 168.5154 418.7635 167.6914 416.1823 166.5089 414.4156 165.3238 413.5365 164.4954 412.5385 164.7392 410.4162 165.9358 407.3251 172.3141 398.1914 174.1598 396.1693 175.4676 395.4292 177.1306 395.0258 178.5566 394.4538 180.4023 392.2036 185.911 380.3186 188.055 376.9412 190.1951 375.0511 191.9172 374.2873 193.5215 373.0915 195.3656 370.7326 196.0814 368.851 195.9673 366.7876 191.5919 360.8165 190.0053 354.5635 190.0795 348.1584 190.3208 346.3358 190.7399 344.5615 191.9326 341.3976 192.2327 339.731 192.1771 338.1355 192.3581 336.6966 193.0127 335.4986 194.4954 334.9621 196.2146 334.678 197.8156 334.2376 199.0028 333.2805 200.6676 330.5611 202.2684 330.0725 204.4796 330.5327 210.1612 334.3338 212.2334 335.369 214.3069 335.7804 217.5667 335.5099 220.0556 335.5857 222.6033 335.9614 225.0516 336.7806 229.9071 339.9538 232.2178 340.6044 234.8254 340.8474 243.064 340.6641 246.3836 340.0673 249.5456 338.6785 262.8844 329.2825 265.729 327.9401 267.4473 327.6168 269.7776 328.2772 272.3843 329.849 275.9984 334.1076 277.4798 336.7466 278.3687 338.8817 278.7835 340.1771 279.1984 340.9208 279.9689 341.7844 293.9213 351.9051 297.0056 354.9264 298.8449 357.4204 299.3202 359.0515 300.5068 360.2743 302.5826 360.8368 306.733 359.9704 309.045 359.0451 312.3062 358.8265 314.6387 359.0283 328.9375 365.2136 328.7115 373.85 331.2658 376.4135 334.313 377.7046 335.8561 378.1342 340.1273 377.9237 341.1954 378.0539 359.5018 384.593 362.2942 386.2423 364.1968 387.8934 375.8618 401.3117 379.8751 407.4547 382.5017 412.7253 383.2193 414.5825 383.2835 416.3456 381.0078 431.6088 381.0126 433.4079 383.2399 444.1491 383.4394 445.1258 383.4326 445.1304 378.6676 448.3163 373.1166 449.3881 345.4984 446.2345 318.0161 449.4832 312.0894 451.0754 306.6629 454.8196 288.8803 471.2803 284.9481 479.1198 284.9477 479.1206 275.3921 479.1209 267.2624 480.2228 264.5646 483.4843 261.9082 481.6841 261.3163 475.159 265.7586 471.1546 267.542 473.698 275.0357 473.6995 274.165 461.0334 261.5812 459.2067 256.8025 463.93 254.4214 468.2945 252.0046 466.0859 247.2097 463.9233 245.8341 467.1047 234.6514 464.1565 227.4137 458.5173 225.4318 454.39 225.1563 448.3747 222.8846 448.887 219.904 448.8825 217.9169 448.8795 215.9301 448.7044 214.6535 448.1867 212.8048 450.2459 210.9554 452.6487 209.6747 454.365 204.5627 455.2147 201.7098 462.0834 194.0449 461.0362 189.5047 459.6511 186.9413 462.9103 187.1421 470.2848 182.7365 471.8418 166.684 473.8574 150.7407 470.6723 141.5195 466.5932 Z" id="CY.LI" fill="#cee3f5" stroke="#6e6e6e" stroke-width="0.4">
      <desc>
        <labelrank>9</labelrank>
        <code_hasc>CY.LI</code_hasc>
        <name>Limassol</name>
        <admin>Cyprus</admin>
        <type_en>District</type_en>
        <region/>
        <woe_id>12577965</woe_id>
        <longitude>32</longitude>
        <woe_name>Limassol</woe_name>
        <fips>CY05</fips>
        <woe_label/>
        <latitude>34</latitude>
        <iso_a2>CY</iso_a2>
        <postal>LI</postal>
        <type>District</type>
        <id>CY.LI</id>
      </desc>
    </path>
  </g>
</svg>