<?xml version="1.0" encoding="UTF-8"?>
<svg xmlns="http://www.w3.org/2000/svg" width="700" height="700">
  <g id="morocco">
    <path d="M 547.1815 35.5872 548.572 40.4537 545.7911 44.9726 520.4156 59.2246 511.2039 58.5294 507.3802 54.7057 502.5137 54.7057 496.4305 49.6653 483.0476 46.363 477.6596 46.8845 489.3045 8.8212 498.5162 5.8665 502.1661 6.3879 509.6397 1 516.4181 17.3376 524.0655 25.1589 536.058 33.1539 547.1815 35.5872 Z" id="MA.TO" fill="#cee3f5" stroke="#6e6e6e" stroke-width="0.4">
      <desc>
        <labelrank>5</labelrank>
        <code_hasc>MA.TO</code_hasc>
        <name>Tanger - Tétouan</name>
        <admin>Morocco</admin>
        <type_en>Region</type_en>
        <region/>
        <woe_id>-56120062</woe_id>
        <longitude>-5</longitude>
        <woe_name/>
        <fips>MO57</fips>
        <woe_label/>
        <latitude>35</latitude>
        <iso_a2>MA</iso_a2>
        <postal>TO</postal>
        <type>Region</type>
        <id>MA.TO</id>
      </desc>
    </path>
    <path d="M 606.6228 100.4163 608.7084 101.8068 608.3608 103.5448 601.7562 112.4089 612.7059 121.6205 615.313 127.8775 611.1417 131.1798 588.1995 135.3511 578.1188 148.7341 572.9046 158.9885 563.1716 158.8147 552.2219 146.8222 541.2722 144.2151 530.6701 121.9681 534.32 115.7112 533.9724 113.2779 531.0177 109.8018 523.8917 107.5423 526.1511 101.8068 519.199 88.7714 515.8967 89.2928 511.8992 80.7764 515.8967 81.124 521.806 78.8645 524.5869 80.4288 529.801 79.5598 536.7532 84.0787 540.4031 88.9452 545.6173 91.3785 547.1815 95.2022 550.6576 97.4617 562.4763 96.9402 567.8643 106.1519 567.8643 112.7565 571.8618 114.3207 575.3379 113.4517 576.9021 115.0159 578.814 108.759 590.1113 95.376 606.6228 100.4163 Z" id="MA.FB" fill="#cee3f5" stroke="#6e6e6e" stroke-width="0.4">
      <desc>
        <labelrank>6</labelrank>
        <code_hasc>MA.FB</code_hasc>
        <name>Fès - Boulemane</name>
        <admin>Morocco</admin>
        <type_en>Region</type_en>
        <region/>
        <woe_id>-56120057</woe_id>
        <longitude>-4</longitude>
        <woe_name/>
        <fips>MO14</fips>
        <woe_label/>
        <latitude>33</latitude>
        <iso_a2>MA</iso_a2>
        <postal>FB</postal>
        <type>Region</type>
        <id>MA.FB</id>
      </desc>
    </path>
    <path d="M 573.9475 33.1539 574.9903 46.363 583.1591 50.3606 582.8115 59.0508 586.6352 62.1793 597.0635 52.9676 599.8444 52.4462 609.2298 56.4437 610.2727 59.5722 607.318 60.2674 605.9275 65.8292 601.2348 70.6957 606.7966 82.8621 605.4061 87.0334 601.5824 90.5095 606.6228 100.4163 590.1113 95.376 578.814 108.759 576.9021 115.0159 575.3379 113.4517 571.8618 114.3207 567.8643 112.7565 567.8643 106.1519 562.4763 96.9402 550.6576 97.4617 547.1815 95.2022 545.6173 91.3785 540.4031 88.9452 536.7532 84.0787 529.801 79.5598 524.5869 80.4288 521.806 78.8645 515.8967 81.124 511.8992 80.7764 508.9445 76.4313 520.4156 66.1768 520.4156 59.2246 545.7911 44.9726 548.572 40.4537 547.1815 35.5872 553.0909 36.8038 569.95 30.373 570.6452 32.8063 573.9475 33.1539 Z" id="MA.TH" fill="#cee3f5" stroke="#6e6e6e" stroke-width="0.4">
      <desc>
        <labelrank>6</labelrank>
        <code_hasc>MA.TH</code_hasc>
        <name>Taza - Al Hoceima - Taounate</name>
        <admin>Morocco</admin>
        <type_en>Region</type_en>
        <region/>
        <woe_id>-56120063</woe_id>
        <longitude>-4</longitude>
        <woe_name/>
        <fips>MO58</fips>
        <woe_label/>
        <latitude>34</latitude>
        <iso_a2>MA</iso_a2>
        <postal>TH</postal>
        <type>Region</type>
        <id>MA.TH</id>
      </desc>
    </path>
    <path d="M 520.4156 59.2246 520.4156 66.1768 508.9445 76.4313 511.8992 80.7764 510.1611 86.3381 501.8185 88.25 497.2996 84.6001 493.4758 89.2928 488.2617 89.988 474.1835 87.381 466.5361 89.8142 459.7577 87.0334 477.6596 46.8845 483.0476 46.363 496.4305 49.6653 502.5137 54.7057 507.3802 54.7057 511.2039 58.5294 520.4156 59.2246 Z" id="MA.GB" fill="#cee3f5" stroke="#6e6e6e" stroke-width="0.4">
      <desc>
        <labelrank>5</labelrank>
        <code_hasc>MA.GB</code_hasc>
        <name>Gharb - Chrarda - Béni Hssen</name>
        <admin>Morocco</admin>
        <type_en>Region</type_en>
        <region/>
        <woe_id>-56120053</woe_id>
        <longitude>-5</longitude>
        <woe_name/>
        <fips>MO05</fips>
        <woe_label/>
        <latitude>34</latitude>
        <iso_a2>MA</iso_a2>
        <postal>GB</postal>
        <type>Region</type>
        <id>MA.GB</id>
      </desc>
    </path>
    <path d="M 472.9669 132.3964 484.9594 142.9985 484.2642 147.3436 488.2617 148.5603 488.9569 153.6006 487.0451 155.8601 478.8762 158.2933 467.0575 157.5981 463.7552 159.51 455.7602 159.3362 450.8937 161.9432 444.9843 176.1952 434.9036 170.9811 424.6492 169.5906 409.3543 153.0792 406.7473 149.2555 403.9664 136.9153 409.3543 130.8322 409.8757 126.6609 408.1377 122.4895 413.178 120.4039 425.3444 123.3586 424.3015 126.3132 425.692 127.3561 431.949 121.9681 435.2512 109.2804 444.1153 104.0662 449.8508 114.6683 457.6721 117.623 457.1506 130.6584 467.5789 135.0035 472.9669 132.3964 Z" id="MA.CO" fill="#cee3f5" stroke="#6e6e6e" stroke-width="0.4">
      <desc>
        <labelrank>5</labelrank>
        <code_hasc>MA.CO</code_hasc>
        <name>Chaouia - Ouardigha</name>
        <admin>Morocco</admin>
        <type_en>Region</type_en>
        <region/>
        <woe_id>-56120050</woe_id>
        <longitude>-7</longitude>
        <woe_name/>
        <fips>MO06</fips>
        <woe_label/>
        <latitude>33</latitude>
        <iso_a2>MA</iso_a2>
        <postal>CO</postal>
        <type>Region</type>
        <id>MA.CO</id>
      </desc>
    </path>
    <path d="M 435.2512 109.2804 431.949 121.9681 425.692 127.3561 424.3015 126.3132 425.3444 123.3586 413.178 120.4039 435.2512 109.2804 Z" id="MA.GC" fill="#cee3f5" stroke="#6e6e6e" stroke-width="0.4">
      <desc>
        <labelrank>9</labelrank>
        <code_hasc>MA.GC</code_hasc>
        <name>Grand Casablanca</name>
        <admin>Morocco</admin>
        <type_en>Region</type_en>
        <region/>
        <woe_id>-56120054</woe_id>
        <longitude>-7</longitude>
        <woe_name/>
        <fips>MO09</fips>
        <woe_label/>
        <latitude>33</latitude>
        <iso_a2>MA</iso_a2>
        <postal>GC</postal>
        <type>Region</type>
        <id>MA.GC</id>
      </desc>
    </path>
    <path d="M 493.4758 89.2928 498.3424 95.7236 497.821 100.4163 500.428 104.9353 498.1686 113.2779 498.5162 126.3132 488.9569 128.2251 481.8309 125.9656 481.1357 122.4895 476.443 120.9253 473.6621 125.4442 472.9669 132.3964 467.5789 135.0035 457.1506 130.6584 457.6721 117.623 449.8508 114.6683 444.1153 104.0662 451.7627 98.6783 459.7577 87.0334 466.5361 89.8142 474.1835 87.381 488.2617 89.988 493.4758 89.2928 Z" id="MA.RZ" fill="#cee3f5" stroke="#6e6e6e" stroke-width="0.4">
      <desc>
        <labelrank>5</labelrank>
        <code_hasc>MA.RZ</code_hasc>
        <name>Rabat - Salé - Zemmour - Zaer</name>
        <admin>Morocco</admin>
        <type_en>Region</type_en>
        <region/>
        <woe_id>-56120059</woe_id>
        <longitude>-6</longitude>
        <woe_name/>
        <fips>MO49</fips>
        <woe_label/>
        <latitude>33</latitude>
        <iso_a2>MA</iso_a2>
        <postal>RZ</postal>
        <type>Region</type>
        <id>MA.RZ</id>
      </desc>
    </path>
    <path d="M 572.9046 158.9885 586.9828 180.8879 594.9778 178.8023 605.7537 179.8451 605.9275 189.4044 609.7512 194.9661 609.5774 200.0065 589.2423 205.2206 589.2423 217.7346 583.5067 220.6892 582.9853 229.5533 587.3304 228.1628 592.0232 232.3342 595.3254 238.5911 591.1541 244.5005 592.0232 250.5837 584.3757 255.1026 565.9524 259.2739 551.8743 273.0045 545.7911 275.9592 526.4988 263.619 526.8464 256.1454 519.8942 245.7171 525.2821 219.2988 514.8538 210.0872 503.2089 209.0443 509.6397 197.3994 508.9445 194.4447 505.9898 192.8805 499.9066 195.1399 497.6472 191.1424 499.0376 186.7973 506.3374 181.0618 512.942 179.3237 510.6825 172.3715 514.1586 166.636 488.9569 153.6006 488.2617 148.5603 484.2642 147.3436 484.9594 142.9985 472.9669 132.3964 473.6621 125.4442 476.443 120.9253 481.1357 122.4895 481.8309 125.9656 488.9569 128.2251 498.5162 126.3132 498.1686 113.2779 500.428 104.9353 497.821 100.4163 498.3424 95.7236 493.4758 89.2928 497.2996 84.6001 501.8185 88.25 510.1611 86.3381 511.8992 80.7764 515.8967 89.2928 519.199 88.7714 526.1511 101.8068 523.8917 107.5423 531.0177 109.8018 533.9724 113.2779 534.32 115.7112 530.6701 121.9681 541.2722 144.2151 552.2219 146.8222 563.1716 158.8147 572.9046 158.9885 Z" id="MA.MT" fill="#cee3f5" stroke="#6e6e6e" stroke-width="0.4">
      <desc>
        <labelrank>5</labelrank>
        <code_hasc>MA.MT</code_hasc>
        <name>Meknès - Tafilalet</name>
        <admin>Morocco</admin>
        <type_en>Region</type_en>
        <region/>
        <woe_id>-56120057</woe_id>
        <longitude>-4</longitude>
        <woe_name/>
        <fips>MO48</fips>
        <woe_label/>
        <latitude>31</latitude>
        <iso_a2>MA</iso_a2>
        <postal>MT</postal>
        <type>Region</type>
        <id>MA.MT</id>
      </desc>
    </path>
    <path d="M 499.9066 195.1399 489.8259 204.004 463.4076 217.0393 459.2363 222.0797 451.7627 223.1225 443.2463 219.8202 444.8105 214.0847 439.075 207.6539 441.5082 204.6992 447.4176 203.3088 449.5032 198.616 446.5486 189.752 444.9843 176.1952 450.8937 161.9432 455.7602 159.3362 463.7552 159.51 467.0575 157.5981 478.8762 158.2933 487.0451 155.8601 488.9569 153.6006 514.1586 166.636 510.6825 172.3715 512.942 179.3237 506.3374 181.0618 499.0376 186.7973 497.6472 191.1424 499.9066 195.1399 Z" id="MA.TD" fill="#cee3f5" stroke="#6e6e6e" stroke-width="0.4">
      <desc>
        <labelrank>5</labelrank>
        <code_hasc>MA.TD</code_hasc>
        <name>Tadla - Azilal</name>
        <admin>Morocco</admin>
        <type_en>Region</type_en>
        <region/>
        <woe_id>-56120061</woe_id>
        <longitude>-6</longitude>
        <woe_name/>
        <fips>MO56</fips>
        <woe_label/>
        <latitude>32</latitude>
        <iso_a2>MA</iso_a2>
        <postal>TD</postal>
        <type>Region</type>
        <id>MA.TD</id>
      </desc>
    </path>
    <path d="M 609.5774 200.0065 609.7512 194.9661 605.9275 189.4044 605.7537 179.8451 594.9778 178.8023 586.9828 180.8879 572.9046 158.9885 578.1188 148.7341 588.1995 135.3511 611.1417 131.1798 615.313 127.8775 612.7059 121.6205 601.7562 112.4089 608.3608 103.5448 608.7084 101.8068 606.6228 100.4163 601.5824 90.5095 605.4061 87.0334 606.7966 82.8621 601.2348 70.6957 605.9275 65.8292 607.318 60.2674 610.2727 59.5722 609.2298 56.4437 599.8444 52.4462 597.0635 52.9676 586.6352 62.1793 582.8115 59.0508 583.1591 50.3606 574.9903 46.363 573.9475 33.1539 578.4664 28.8088 582.9853 31.242 593.935 32.2849 603.3205 27.4183 607.1442 19.5971 607.8394 27.2445 610.4465 28.4612 610.2727 31.9373 612.5321 34.5443 616.8772 35.0657 611.3155 28.9826 620.1795 35.2395 626.0889 35.2395 630.0864 32.6325 635.822 34.0229 637.9076 34.8919 639.2981 39.0632 646.7717 42.1917 648.3359 45.1464 657.2 50.5344 653.7239 57.8342 660.8499 63.0483 656.8523 68.6101 663.6307 82.3406 662.2403 91.3785 663.2831 97.9831 661.7189 100.9377 667.4544 107.7161 665.5426 116.9278 666.2378 123.1848 674.059 131.3536 674.2328 135.5249 672.1472 137.6106 678.2303 146.6484 695.2632 157.4243 686.9206 164.7241 685.0087 174.1096 689.7014 174.8048 689.3538 177.5857 635.3005 179.1499 620.3533 182.7998 618.0939 184.1902 623.308 196.3566 609.5774 200.0065 Z" id="MA.OR" fill="#cee3f5" stroke="#6e6e6e" stroke-width="0.4">
      <desc>
        <labelrank>5</labelrank>
        <code_hasc>MA.OR</code_hasc>
        <name>Oriental</name>
        <admin>Morocco</admin>
        <type_en>Region</type_en>
        <region/>
        <woe_id>-56120058</woe_id>
        <longitude>-2</longitude>
        <woe_name/>
        <fips>MO54</fips>
        <woe_label/>
        <latitude>33</latitude>
        <iso_a2>MA</iso_a2>
        <postal>OR</postal>
        <type>Region</type>
        <id>MA.OR</id>
      </desc>
    </path>
    <path d="M 545.7911 275.9592 529.1058 288.8207 514.5062 311.2415 510.3349 312.632 506.8588 311.4153 505.1208 307.0702 480.4405 309.8511 473.6621 294.5563 476.9644 286.7351 472.7931 285.866 470.186 279.4353 471.9241 272.1355 463.7552 265.8785 458.5411 267.6165 455.7602 271.2664 444.4629 270.745 438.5535 280.6519 425.692 279.4353 420.304 283.7804 411.44 284.6494 409.3543 288.8207 406.052 291.0802 401.0117 289.8635 394.7547 292.4706 383.1098 292.123 380.6765 300.4656 382.067 318.0199 379.1123 319.0627 373.3767 316.6295 368.8578 316.9771 364.8603 318.1937 361.7318 322.5388 360.1676 321.496 346.437 323.2341 341.3967 325.6673 337.3992 324.1031 334.7921 325.1459 331.1422 330.5339 326.7971 330.7077 321.4091 334.7052 308.7214 330.5339 333.5754 298.0324 340.5276 284.128 342.4395 270.745 338.7896 263.9666 330.9684 258.9263 334.0969 250.7575 333.7493 243.8053 339.311 250.2361 345.2204 247.629 366.0769 249.0194 375.6362 243.4577 378.4171 247.9766 408.3115 244.5005 417.0017 234.9412 437.5107 225.0344 443.2463 219.8202 451.7627 223.1225 459.2363 222.0797 463.4076 217.0393 489.8259 204.004 499.9066 195.1399 505.9898 192.8805 508.9445 194.4447 509.6397 197.3994 503.2089 209.0443 514.8538 210.0872 525.2821 219.2988 519.8942 245.7171 526.8464 256.1454 526.4988 263.619 545.7911 275.9592 Z" id="MA.SM" fill="#cee3f5" stroke="#6e6e6e" stroke-width="0.4">
      <desc>
        <labelrank>5</labelrank>
        <code_hasc>MA.SM</code_hasc>
        <name>Souss - Massa - Draâ</name>
        <admin>Morocco</admin>
        <type_en>Region</type_en>
        <region/>
        <woe_id>-56120060</woe_id>
        <longitude>-7</longitude>
        <woe_name/>
        <fips>MO55</fips>
        <woe_label/>
        <latitude>30</latitude>
        <iso_a2>MA</iso_a2>
        <postal>SM</postal>
        <type>Region</type>
        <id>MA.SM</id>
      </desc>
    </path>
    <path d="M 444.9843 176.1952 446.5486 189.752 449.5032 198.616 447.4176 203.3088 441.5082 204.6992 439.075 207.6539 444.8105 214.0847 443.2463 219.8202 437.5107 225.0344 417.0017 234.9412 408.3115 244.5005 378.4171 247.9766 375.6362 243.4577 366.0769 249.0194 345.2204 247.629 339.311 250.2361 333.7493 243.8053 332.8802 235.9841 334.6183 225.2082 332.8802 222.4273 339.311 211.6514 340.5276 206.6111 349.2179 196.1828 354.2582 198.2684 360.5152 197.0518 365.7293 198.0946 369.3792 203.3088 374.072 205.0468 386.0645 205.9158 390.7572 204.5254 398.4046 188.1877 393.1905 183.8426 390.5834 177.4119 405.3568 165.2455 406.9211 155.3386 409.3543 153.0792 424.6492 169.5906 434.9036 170.9811 444.9843 176.1952 Z" id="MA.MK" fill="#cee3f5" stroke="#6e6e6e" stroke-width="0.4">
      <desc>
        <labelrank>6</labelrank>
        <code_hasc>MA.MK</code_hasc>
        <name>Marrakech - Tensift - Al Haouz</name>
        <admin>Morocco</admin>
        <type_en>Region</type_en>
        <region/>
        <woe_id>-56120056</woe_id>
        <longitude>-8</longitude>
        <woe_name/>
        <fips>MO47</fips>
        <woe_label/>
        <latitude>31</latitude>
        <iso_a2>MA</iso_a2>
        <postal>MK</postal>
        <type>Region</type>
        <id>MA.MK</id>
      </desc>
    </path>
    <path d="M 409.3543 153.0792 406.9211 155.3386 405.3568 165.2455 390.5834 177.4119 393.1905 183.8426 398.4046 188.1877 390.7572 204.5254 386.0645 205.9158 374.072 205.0468 369.3792 203.3088 365.7293 198.0946 360.5152 197.0518 354.2582 198.2684 349.2179 196.1828 353.0416 192.3591 356.6915 184.0164 357.3867 165.7669 373.5505 150.9935 387.2811 132.2226 390.4096 132.3964 397.188 126.3132 408.1377 122.4895 409.8757 126.6609 409.3543 130.8322 403.9664 136.9153 406.7473 149.2555 409.3543 153.0792 Z" id="MA.DA" fill="#cee3f5" stroke="#6e6e6e" stroke-width="0.4">
      <desc>
        <labelrank>5</labelrank>
        <code_hasc>MA.DA</code_hasc>
        <name>Doukkala - Abda</name>
        <admin>Morocco</admin>
        <type_en>Region</type_en>
        <region/>
        <woe_id>-56120051</woe_id>
        <longitude>-8</longitude>
        <woe_name/>
        <fips>MO11</fips>
        <woe_label/>
        <latitude>32</latitude>
        <iso_a2>MA</iso_a2>
        <postal>DA</postal>
        <type>Region</type>
        <id>MA.DA</id>
      </desc>
    </path>
    <path d="M 234.5067 482.4392 218.1691 535.9711 213.6501 541.1853 193.4888 553.873 180.801 552.4826 160.6397 557.8705 140.4783 552.8302 118.5789 555.7849 111.9744 549.7017 102.0675 546.0518 107.4554 540.6638 110.5839 530.4094 112.1482 510.5956 121.8812 488.87 126.9216 481.744 129.5286 469.4039 142.3902 458.628 153.8613 455.4995 170.0251 444.0284 188.4485 399.1868 194.0102 395.8845 197.6601 388.4109 203.2219 385.9776 217.3 385.1086 236.7662 381.1111 248.9325 375.5493 258.6656 396.0583 247.0207 401.9676 237.1138 412.5697 226.6855 437.9452 216.6048 448.7211 212.4335 459.3232 217.4739 482.0916 234.5067 482.4392 Z" id="MA.LB" fill="#cee3f5" stroke="#6e6e6e" stroke-width="0.4">
      <desc>
        <labelrank>5</labelrank>
        <code_hasc>MA.LB</code_hasc>
        <name>Laâyoune - Boujdour - Sakia El Hamra</name>
        <admin>Morocco</admin>
        <type_en>Region</type_en>
        <region/>
        <woe_id>-56120089</woe_id>
        <longitude>-13</longitude>
        <woe_name/>
        <fips>MO59</fips>
        <woe_label/>
        <latitude>25</latitude>
        <iso_a2>MA</iso_a2>
        <postal>LB</postal>
        <type>Region</type>
        <id>MA.LB</id>
      </desc>
    </path>
    <path d="M 480.4405 309.8511 465.3195 312.8058 461.8434 316.2819 449.677 313.1534 441.8558 315.5867 438.0321 319.758 426.561 319.5842 382.2408 352.6071 381.7194 403.3581 375.9838 403.5319 377.8957 413.0911 376.8528 420.5647 378.7647 426.1265 377.0266 429.6026 350.2607 431.1668 336.1825 442.1165 332.7064 442.6379 323.321 439.5095 313.9355 441.9427 300.9001 435.512 292.0361 433.9477 284.9101 434.2953 264.4011 440.0309 267.5296 446.8093 266.4868 452.1972 258.8394 460.0184 249.4539 477.5727 235.7234 480.7012 234.5067 482.4392 217.4739 482.0916 212.4335 459.3232 216.6048 448.7211 226.6855 437.9452 237.1138 412.5697 247.0207 401.9676 258.6656 396.0583 248.9325 375.5493 261.7941 370.1614 280.2174 350 301.2478 338.7027 308.7214 330.5339 321.4091 334.7052 326.7971 330.7077 331.1422 330.5339 334.7921 325.1459 337.3992 324.1031 341.3967 325.6673 346.437 323.2341 360.1676 321.496 361.7318 322.5388 364.8603 318.1937 368.8578 316.9771 373.3767 316.6295 379.1123 319.0627 382.067 318.0199 380.6765 300.4656 383.1098 292.123 394.7547 292.4706 401.0117 289.8635 406.052 291.0802 409.3543 288.8207 411.44 284.6494 420.304 283.7804 425.692 279.4353 438.5535 280.6519 444.4629 270.745 455.7602 271.2664 458.5411 267.6165 463.7552 265.8785 471.9241 272.1355 470.186 279.4353 472.7931 285.866 476.9644 286.7351 473.6621 294.5563 480.4405 309.8511 Z" id="MA.GE" fill="#cee3f5" stroke="#6e6e6e" stroke-width="0.4">
      <desc>
        <labelrank>6</labelrank>
        <code_hasc>MA.GE</code_hasc>
        <name>Guelmim - Es-Semara</name>
        <admin>Morocco</admin>
        <type_en>Region</type_en>
        <region/>
        <woe_id>-56120055</woe_id>
        <longitude>-10</longitude>
        <woe_name/>
        <fips>MO03</fips>
        <woe_label/>
        <latitude>28</latitude>
        <iso_a2>MA</iso_a2>
        <postal>GE</postal>
        <type>Region</type>
        <id>MA.GE</id>
      </desc>
    </path>
    <path d="M 193.4888 553.873 188.2747 558.3919 176.6297 578.3795 155.7732 587.0697 150.3852 591.5886 143.9544 604.9716 139.9569 619.9188 133.1785 657.9821 113.8862 679.1863 114.5814 684.5742 107.803 696.3929 103.6317 698.6524 97.7224 699 49.2308 693.9597 17.7722 693.9597 4.7368 695.6977 10.2986 671.0174 20.9006 654.8536 29.2433 653.2893 31.8503 650.5085 33.936 644.0777 37.4121 640.7754 41.2358 625.4806 47.1452 621.1355 47.4928 616.7903 45.0595 616.0951 66.4375 583.4198 66.6113 577.5105 56.183 589.8506 58.9639 583.7674 63.6566 577.6843 73.9111 572.1225 93.3772 551.6135 100.3294 548.4851 102.0675 546.0518 111.9744 549.7017 118.5789 555.7849 140.4783 552.8302 160.6397 557.8705 180.801 552.4826 193.4888 553.873 Z" id="MA.OD" fill="#cee3f5" stroke="#6e6e6e" stroke-width="0.4">
      <desc>
        <labelrank>5</labelrank>
        <code_hasc>MA.OD</code_hasc>
        <name>Oued el Dahab</name>
        <admin>Morocco</admin>
        <type_en>Region</type_en>
        <region/>
        <woe_id>24549935</woe_id>
        <longitude>-14</longitude>
        <woe_name>Oued el Dahab</woe_name>
        <fips>WI00</fips>
        <woe_label>Oued Ed-Dahab, EH, Western Sahara</woe_label>
        <latitude>23</latitude>
        <iso_a2>MA</iso_a2>
        <postal>OD</postal>
        <type>Region</type>
        <id>MA.OD</id>
      </desc>
    </path>
  </g>
</svg>