<?xml version="1.0" encoding="UTF-8"?>
<svg xmlns="http://www.w3.org/2000/svg" width="700" height="700">
  <g id="california">
    <path d="M 23.6787 66.5162 48.8773 66.5162 48.8773 72.3959 56.4368 72.3959 67.3562 72.3959 69.0361 73.2359 70.716 80.7954 69.8761 82.4753 73.2359 85.8351 71.556 87.515 71.556 90.0349 70.716 91.7148 73.2359 95.9146 71.556 98.4344 70.716 101.7942 68.1961 103.4741 62.3165 102.6342 58.9567 104.3141 59.7966 105.994 63.1564 109.3538 63.9964 116.0734 63.9964 143.7918 63.9964 165.6306 32.0782 165.6306 24.5187 165.6306 22.8387 161.4308 17.799 158.911 13.5993 156.3911 6.8797 151.3514 5.1998 149.6715 4.3598 147.1516 5.1998 143.7918 4.3598 141.272 1 137.0722 1 134.5523 2.6799 132.0325 2.6799 129.5126 8.5596 120.2732 17.799 106.8339 20.3189 101.7942 21.1588 97.5945 19.4789 96.7545 16.9591 91.7148 16.9591 87.515 20.3189 85.8351 22.8387 78.2756 20.3189 78.2756 16.9591 76.5957 17.799 73.2359 20.3189 71.556 23.6787 72.3959 23.6787 66.5162 Z" id="US.CA.023" fill="#cee3f5" stroke="#6e6e6e" stroke-width="0.4">
      <desc>
        <name>Humboldt County</name>
        <stateAbbrev>CA</stateAbbrev>
        <state>California</state>
        <fips>023</fips>
        <incits>06023</incits>
        <id>US.CA.023</id>
        <population>134493</population>
      </desc>
    </path>
    <path d="M 331.941 402.497 339.5006 396.6173 350.42 396.6173 350.42 390.7377 371.4188 390.7377 371.4188 385.698 388.2178 385.698 400.8171 385.698 400.8171 384.858 408.3767 384.858 413.4164 384.858 415.0963 386.5379 415.9362 388.2178 413.4164 388.2178 416.7762 392.4176 418.4561 395.7774 418.4561 397.4573 420.136 398.2972 421.8159 399.9771 420.9759 402.497 423.4958 405.0168 424.3357 406.6968 427.6955 405.8568 427.6955 408.3767 430.2154 411.7365 431.0554 411.7365 429.3755 416.7762 431.0554 420.9759 433.5752 423.4958 432.7353 426.0156 433.5752 429.3755 434.4152 429.3755 436.0951 434.4152 437.775 436.0951 436.935 437.775 438.6149 439.4549 439.4549 442.8147 437.775 444.4946 437.775 449.5343 413.4164 449.5343 406.6968 449.5343 399.9771 449.5343 371.4188 449.5343 334.4609 449.5343 334.4609 426.0156 335.3008 426.0156 335.3008 417.6161 338.6606 417.6161 338.6606 408.3767 335.3008 408.3767 335.3008 402.497 331.941 402.497 Z" id="US.CA.107" fill="#cee3f5" stroke="#6e6e6e" stroke-width="0.4">
      <desc>
        <name>Tulare County</name>
        <stateAbbrev>CA</stateAbbrev>
        <state>California</state>
        <fips>107</fips>
        <incits>06107</incits>
        <id>US.CA.107</id>
        <population>454143</population>
      </desc>
    </path>
    <path d="M 177.3899 295.8231 179.0698 294.9832 181.5897 296.6631 185.7894 294.9832 187.4693 294.9832 189.1492 289.9434 190.8291 288.2635 194.1889 287.4236 195.0289 285.7437 195.0289 280.704 195.8688 279.0241 200.9085 275.6643 200.9085 273.1444 200.0686 271.4645 201.7485 270.6245 201.7485 268.9446 199.2286 268.1047 198.3887 265.5848 200.9085 263.9049 201.7485 260.5451 198.3887 259.7052 197.5487 257.1853 195.0289 257.1853 193.349 254.6655 193.349 253.8255 195.0289 250.4657 203.4284 251.3057 226.1071 252.1456 227.787 252.1456 233.6667 266.4248 233.6667 279.864 231.1468 280.704 226.1071 282.3839 221.9073 284.0638 217.7076 283.2238 212.6679 284.9037 208.4681 284.9037 206.7882 283.2238 204.2684 283.2238 201.7485 286.5836 200.0686 287.4236 199.2286 289.9434 196.7088 292.4633 196.7088 294.1432 195.0289 293.3032 192.509 294.1432 189.9892 294.1432 189.9892 296.6631 184.9495 299.1829 180.7497 299.1829 177.3899 295.8231 Z" id="US.CA.067" fill="#cee3f5" stroke="#6e6e6e" stroke-width="0.4">
      <desc>
        <name>Sacramento County</name>
        <stateAbbrev>CA</stateAbbrev>
        <state>California</state>
        <fips>067</fips>
        <incits>06067</incits>
        <id>US.CA.067</id>
        <population>1462131</population>
      </desc>
    </path>
    <path d="M 96.7545 285.7437 97.5945 282.3839 95.9146 280.704 100.1143 280.704 103.4741 279.0241 107.6739 279.0241 118.5933 286.5836 124.4729 288.2635 130.3526 288.2635 134.5523 293.3032 144.6318 295.8231 138.7521 302.5427 138.7521 305.0626 139.5921 310.1023 134.5523 312.6221 132.8724 312.6221 126.9928 313.4621 122.793 310.9422 120.2732 310.9422 117.7533 310.1023 115.2335 307.5824 111.8736 305.9025 111.0337 304.2226 108.5138 302.5427 104.3141 304.2226 99.2744 304.2226 95.9146 303.3827 95.0746 301.7028 95.0746 299.1829 96.7545 298.343 100.1143 290.7834 96.7545 285.7437 Z" id="US.CA.041" fill="#cee3f5" stroke="#6e6e6e" stroke-width="0.4">
      <desc>
        <name>Marin County</name>
        <stateAbbrev>CA</stateAbbrev>
        <state>California</state>
        <fips>041</fips>
        <incits>06041</incits>
        <id>US.CA.041</id>
        <population>258365</population>
      </desc>
    </path>
    <path d="M 144.6318 295.8231 155.5511 296.6631 158.911 298.343 165.6306 295.8231 173.1901 297.503 175.71 297.503 177.3899 295.8231 180.7497 299.1829 184.9495 299.1829 189.9892 296.6631 189.9892 294.1432 192.509 294.1432 195.0289 293.3032 196.7088 294.1432 196.7088 297.503 197.5487 299.1829 196.7088 300.8628 198.3887 305.0626 196.7088 309.2623 200.0686 310.9422 198.3887 312.6221 170.6703 319.3418 167.3105 317.6619 168.1504 316.8219 164.7906 314.302 158.911 313.4621 155.5511 311.7822 150.5114 306.7425 142.9519 308.4224 138.7521 305.0626 138.7521 302.5427 144.6318 295.8231 Z" id="US.CA.013" fill="#cee3f5" stroke="#6e6e6e" stroke-width="0.4">
      <desc>
        <name>Contra Costa County</name>
        <stateAbbrev>CA</stateAbbrev>
        <state>California</state>
        <fips>013</fips>
        <incits>06013</incits>
        <id>US.CA.013</id>
        <population>1094205</population>
      </desc>
    </path>
    <path d="M 126.1528 255.5054 137.0722 252.9856 140.432 247.9458 142.9519 245.426 141.272 242.0662 144.6318 243.7461 148.8315 243.7461 152.1913 250.4657 153.8712 253.8255 157.231 256.3454 158.911 259.7052 161.4308 265.5848 159.7509 271.4645 163.1107 276.5042 163.9507 279.0241 154.7112 279.0241 153.8712 284.0638 154.7112 285.7437 153.8712 287.4236 154.7112 289.9434 140.432 289.9434 142.9519 289.9434 143.7918 288.2635 143.7918 284.9037 141.272 281.5439 141.272 279.864 138.7521 276.5042 137.9122 274.8243 134.5523 271.4645 133.7124 269.7846 131.1925 267.2647 131.1925 265.5848 128.6727 263.065 125.3129 262.225 124.4729 259.7052 126.1528 258.8652 126.1528 255.5054 Z" id="US.CA.055" fill="#cee3f5" stroke="#6e6e6e" stroke-width="0.4">
      <desc>
        <name>Napa County</name>
        <stateAbbrev>CA</stateAbbrev>
        <state>California</state>
        <fips>055</fips>
        <incits>06055</incits>
        <id>US.CA.055</id>
        <population>140326</population>
      </desc>
    </path>
    <path d="M 234.5066 206.7882 236.1865 205.1083 240.3863 205.1083 247.1059 203.4284 249.6258 203.4284 252.1456 202.5884 255.5054 199.2286 258.8652 197.5487 263.9049 197.5487 268.9446 202.5884 303.3827 202.5884 302.5427 211.8279 259.7052 211.8279 253.8255 213.5078 248.7858 217.7076 245.426 218.5475 244.586 221.0674 242.9061 221.0674 237.8664 224.4272 236.1865 227.787 232.8267 231.9868 228.627 231.9868 226.1071 230.3069 222.7473 231.9868 221.0674 231.9868 216.8676 230.3069 216.8676 217.7076 217.7076 214.3478 221.0674 214.3478 221.9073 211.8279 225.2671 210.148 226.9471 207.6282 230.3069 206.7882 234.5066 206.7882 Z" id="US.CA.057" fill="#cee3f5" stroke="#6e6e6e" stroke-width="0.4">
      <desc>
        <name>Nevada County</name>
        <stateAbbrev>CA</stateAbbrev>
        <state>California</state>
        <fips>057</fips>
        <incits>06057</incits>
        <id>US.CA.057</id>
        <population>98200</population>
      </desc>
    </path>
    <path d="M 349.58 315.142 331.1011 330.2611 331.1011 334.4609 329.4212 334.4609 329.4212 336.9807 326.9013 336.9807 326.9013 339.5006 319.3418 339.5006 300.0229 355.4597 297.503 352.9398 293.3032 352.0999 290.7834 350.42 290.7834 347.9001 284.9037 341.1805 284.0638 338.6606 284.0638 336.9807 277.3442 325.2214 279.864 322.7016 282.3839 322.7016 280.704 320.1817 284.0638 317.6619 284.9037 318.5018 287.4236 316.8219 289.9434 316.8219 291.6233 314.302 294.9832 315.142 297.503 311.7822 301.7028 313.4621 306.7425 315.9819 313.4621 316.8219 317.6619 316.8219 320.1817 315.142 323.5415 314.302 326.9013 312.6221 326.0614 311.7822 330.2611 310.1023 331.1011 307.5824 332.781 306.7425 338.6606 310.1023 340.3406 309.2623 345.3803 311.7822 347.0602 313.4621 349.58 314.302 349.58 315.142 Z" id="US.CA.043" fill="#cee3f5" stroke="#6e6e6e" stroke-width="0.4">
      <desc>
        <name>Mariposa County</name>
        <stateAbbrev>CA</stateAbbrev>
        <state>California</state>
        <fips>043</fips>
        <incits>06043</incits>
        <id>US.CA.043</id>
        <population>17755</population>
      </desc>
    </path>
    <path d="M 429.3755 590.6462 430.2154 588.1264 431.8953 586.4465 431.8953 585.6065 433.5752 582.2467 434.4152 580.5668 436.0951 578.8869 439.4549 577.207 439.4549 573.8472 452.8941 573.8472 460.4537 578.8869 466.3333 586.4465 469.6931 586.4465 469.6931 589.8063 473.8929 590.6462 478.0927 593.1661 471.373 601.5656 471.373 604.0854 471.373 605.7653 468.8532 607.4452 466.3333 607.4452 464.6534 615.0048 457.0939 609.9651 455.414 609.9651 450.3742 604.9254 442.8147 600.7256 436.0951 596.5259 431.8953 594.006 429.3755 590.6462 Z" id="US.CA.059" fill="#cee3f5" stroke="#6e6e6e" stroke-width="0.4">
      <desc>
        <name>Orange County</name>
        <stateAbbrev>CA</stateAbbrev>
        <state>California</state>
        <fips>059</fips>
        <incits>06059</incits>
        <id>US.CA.059</id>
        <population>3114363</population>
      </desc>
    </path>
    <path d="M 233.6667 279.864 236.1865 284.9037 239.5463 294.1432 240.3863 294.9832 240.3863 308.4224 241.2262 317.6619 238.7064 318.5018 236.1865 316.8219 233.6667 317.6619 229.4669 317.6619 225.2671 320.1817 220.2274 321.8616 218.5475 324.3815 204.2684 335.3008 201.7485 332.781 198.3887 331.1011 198.3887 312.6221 200.0686 310.9422 196.7088 309.2623 198.3887 305.0626 196.7088 300.8628 197.5487 299.1829 196.7088 297.503 196.7088 294.1432 196.7088 292.4633 199.2286 289.9434 200.0686 287.4236 201.7485 286.5836 204.2684 283.2238 206.7882 283.2238 208.4681 284.9037 212.6679 284.9037 217.7076 283.2238 221.9073 284.0638 226.1071 282.3839 231.1468 280.704 233.6667 279.864 Z" id="US.CA.077" fill="#cee3f5" stroke="#6e6e6e" stroke-width="0.4">
      <desc>
        <name>San Joaquin County</name>
        <stateAbbrev>CA</stateAbbrev>
        <state>California</state>
        <fips>077</fips>
        <incits>06077</incits>
        <id>US.CA.077</id>
        <population>704379</population>
      </desc>
    </path>
    <path d="M 58.1167 249.6258 64.8363 248.7858 67.3562 247.9458 75.7557 247.9458 75.7557 246.2659 91.7148 246.2659 91.7148 243.7461 95.0746 242.9061 112.7136 242.9061 117.7533 246.2659 117.7533 247.1059 120.2732 249.6258 121.9531 252.1456 124.4729 252.9856 126.1528 255.5054 126.1528 258.8652 124.4729 259.7052 125.3129 262.225 128.6727 263.065 131.1925 265.5848 131.1925 267.2647 133.7124 269.7846 134.5523 271.4645 137.9122 274.8243 138.7521 276.5042 141.272 279.864 141.272 281.5439 143.7918 284.9037 143.7918 288.2635 142.9519 289.9434 140.432 289.9434 144.6318 295.8231 134.5523 293.3032 130.3526 288.2635 124.4729 288.2635 118.5933 286.5836 107.6739 279.0241 103.4741 279.0241 100.1143 280.704 95.9146 280.704 97.5945 282.3839 96.7545 285.7437 91.7148 280.704 91.7148 277.3442 90.0349 273.9844 85.8351 270.6245 82.4753 269.7846 79.1155 267.2647 76.5957 266.4248 74.0758 263.065 69.8761 258.8652 66.5162 254.6655 61.4765 252.1456 60.6366 250.4657 58.1167 249.6258 Z" id="US.CA.097" fill="#cee3f5" stroke="#6e6e6e" stroke-width="0.4">
      <desc>
        <name>Sonoma County</name>
        <stateAbbrev>CA</stateAbbrev>
        <state>California</state>
        <fips>097</fips>
        <incits>06097</incits>
        <id>US.CA.097</id>
        <population>495025</population>
      </desc>
    </path>
    <path d="M 213.5078 85.8351 254.6655 85.8351 278.1841 85.8351 303.3827 85.8351 303.3827 113.5535 303.3827 126.9928 303.3827 164.7906 303.3827 184.1095 301.7028 184.9495 293.3032 184.9495 293.3032 183.2696 295.8231 181.5897 295.8231 169.8303 292.4633 167.3105 289.9434 164.7906 289.1035 159.7509 286.5836 158.071 279.864 158.071 275.6643 155.5511 273.9844 153.8712 272.3045 151.3514 270.6245 151.3514 269.7846 149.6715 263.9049 146.3117 261.3851 146.3117 258.8652 144.6318 253.8255 144.6318 251.3057 144.6318 249.6258 145.4717 249.6258 147.1516 247.1059 147.1516 244.586 149.6715 244.586 152.1913 240.3863 152.1913 239.5463 150.5114 235.3466 150.5114 231.1468 147.9916 231.1468 135.3923 213.5078 135.3923 213.5078 132.0325 214.3478 109.3538 214.3478 104.3141 213.5078 104.3141 213.5078 85.8351 Z" id="US.CA.035" fill="#cee3f5" stroke="#6e6e6e" stroke-width="0.4">
      <desc>
        <name>Lassen County</name>
        <stateAbbrev>CA</stateAbbrev>
        <state>California</state>
        <fips>035</fips>
        <incits>06035</incits>
        <id>US.CA.035</id>
        <population>32163</population>
      </desc>
    </path>
    <path d="M 236.1865 284.9037 237.8664 285.7437 243.7461 284.0638 246.2659 282.3839 253.8255 279.864 258.8652 278.1841 261.3851 276.5042 262.225 273.9844 268.1047 272.3045 269.7846 269.7846 272.3045 270.6245 274.8243 268.9446 277.3442 269.7846 284.9037 268.1047 289.9434 266.4248 294.9832 267.2647 298.343 266.4248 299.1829 269.7846 301.7028 271.4645 297.503 273.1444 294.1432 273.9844 291.6233 274.8243 289.1035 278.1841 287.4236 279.0241 281.5439 286.5836 278.1841 289.9434 276.5042 292.4633 271.4645 300.0229 267.2647 300.8628 268.1047 303.3827 264.7449 307.5824 260.5451 310.1023 258.8652 311.7822 240.3863 294.9832 239.5463 294.1432 236.1865 284.9037 Z" id="US.CA.009" fill="#cee3f5" stroke="#6e6e6e" stroke-width="0.4">
      <desc>
        <name>Calaveras County</name>
        <stateAbbrev>CA</stateAbbrev>
        <state>California</state>
        <fips>009</fips>
        <incits>06009</incits>
        <id>US.CA.009</id>
        <population>44515</population>
      </desc>
    </path>
    <path d="M 258.8652 311.7822 260.5451 310.1023 264.7449 307.5824 268.1047 303.3827 267.2647 300.8628 271.4645 300.0229 276.5042 292.4633 278.1841 289.9434 281.5439 286.5836 287.4236 279.0241 289.1035 278.1841 291.6233 274.8243 294.1432 273.9844 297.503 273.1444 301.7028 271.4645 310.9422 276.5042 316.8219 273.1444 320.1817 272.3045 323.5415 273.1444 323.5415 275.6643 327.7413 278.1841 326.9013 281.5439 329.4212 283.2238 328.5812 287.4236 331.941 288.2635 331.941 289.9434 338.6606 291.6233 340.3406 294.1432 342.0205 293.3032 347.0602 294.9832 350.42 299.1829 349.58 300.8628 349.58 304.2226 356.2996 307.5824 356.2996 309.2623 357.1396 314.302 352.9398 318.5018 349.58 315.142 349.58 314.302 347.0602 313.4621 345.3803 311.7822 340.3406 309.2623 338.6606 310.1023 332.781 306.7425 331.1011 307.5824 330.2611 310.1023 326.0614 311.7822 326.9013 312.6221 323.5415 314.302 320.1817 315.142 317.6619 316.8219 313.4621 316.8219 306.7425 315.9819 301.7028 313.4621 297.503 311.7822 294.9832 315.142 291.6233 314.302 289.9434 316.8219 287.4236 316.8219 284.9037 318.5018 284.0638 317.6619 280.704 320.1817 282.3839 322.7016 279.864 322.7016 277.3442 325.2214 258.8652 311.7822 Z" id="US.CA.109" fill="#cee3f5" stroke="#6e6e6e" stroke-width="0.4">
      <desc>
        <name>Tuolumne County</name>
        <stateAbbrev>CA</stateAbbrev>
        <state>California</state>
        <fips>109</fips>
        <incits>06109</incits>
        <id>US.CA.109</id>
        <population>53874</population>
      </desc>
    </path>
    <path d="M 327.7413 278.1841 329.4212 275.6643 328.5812 273.9844 332.781 273.1444 331.941 271.4645 334.4609 268.1047 330.2611 260.5451 328.5812 258.8652 329.4212 255.5054 331.1011 252.1456 366.3791 277.3442 385.698 290.7834 410.8965 308.4224 431.8953 323.5415 449.5343 336.9807 425.1757 336.9807 385.698 336.9807 384.0181 335.3008 380.6582 336.1408 379.8183 333.6209 376.4585 331.1011 370.5788 329.4212 368.8989 328.5812 368.8989 326.0614 366.3791 323.5415 366.3791 321.8616 362.1793 318.5018 357.1396 318.5018 356.2996 320.1817 352.9398 318.5018 357.1396 314.302 356.2996 309.2623 356.2996 307.5824 349.58 304.2226 349.58 300.8628 350.42 299.1829 347.0602 294.9832 342.0205 293.3032 340.3406 294.1432 338.6606 291.6233 331.941 289.9434 331.941 288.2635 328.5812 287.4236 329.4212 283.2238 326.9013 281.5439 327.7413 278.1841 Z" id="US.CA.051" fill="#cee3f5" stroke="#6e6e6e" stroke-width="0.4">
      <desc>
        <name>Mono County</name>
        <stateAbbrev>CA</stateAbbrev>
        <state>California</state>
        <fips>051</fips>
        <incits>06051</incits>
        <id>US.CA.051</id>
        <population>14074</population>
      </desc>
    </path>
    <path d="M 158.071 348.7401 162.2708 352.9398 166.4705 355.4597 166.4705 356.2996 168.9904 357.9795 174.0301 360.4994 179.9097 362.1793 180.7497 363.0193 184.9495 364.6992 187.4693 367.219 189.1492 369.7389 196.7088 373.0987 196.7088 374.7786 193.349 373.9386 192.509 374.7786 187.4693 373.9386 185.7894 373.9386 182.4296 375.6185 180.7497 378.1384 164.7906 379.8183 163.1107 373.9386 156.3911 372.2587 151.3514 368.8989 149.6715 366.3791 147.1516 364.6992 148.8315 360.4994 147.1516 357.9795 147.1516 355.4597 151.3514 355.4597 151.3514 353.7798 158.071 353.7798 158.071 348.7401 Z" id="US.CA.087" fill="#cee3f5" stroke="#6e6e6e" stroke-width="0.4">
      <desc>
        <name>Santa Cruz County</name>
        <stateAbbrev>CA</stateAbbrev>
        <state>California</state>
        <fips>087</fips>
        <incits>06087</incits>
        <id>US.CA.087</id>
        <population>269419</population>
      </desc>
    </path>
    <path d="M 235.3466 189.9892 237.0265 189.1492 239.5463 186.6294 240.3863 183.2696 244.586 180.7497 249.6258 184.9495 252.9856 184.1095 257.1853 187.4693 258.8652 184.9495 273.1444 184.9495 293.3032 184.9495 301.7028 184.9495 303.3827 184.1095 303.3827 202.5884 268.9446 202.5884 263.9049 197.5487 258.8652 197.5487 255.5054 199.2286 252.1456 202.5884 249.6258 203.4284 247.1059 203.4284 240.3863 205.1083 236.1865 205.1083 234.5066 206.7882 233.6667 198.3887 231.9868 196.7088 234.5066 195.0289 235.3466 189.9892 Z" id="US.CA.091" fill="#cee3f5" stroke="#6e6e6e" stroke-width="0.4">
      <desc>
        <name>Sierra County</name>
        <stateAbbrev>CA</stateAbbrev>
        <state>California</state>
        <fips>091</fips>
        <incits>06091</incits>
        <id>US.CA.091</id>
        <population>3047</population>
      </desc>
    </path>
    <path d="M 193.349 212.6679 194.1889 211.8279 197.5487 212.6679 200.0686 211.8279 202.5884 211.8279 208.4681 210.148 210.148 208.4681 212.6679 201.7485 214.3478 200.9085 215.1877 198.3887 219.3875 197.5487 225.2671 197.5487 225.2671 195.8688 228.627 195.0289 230.3069 192.509 235.3466 189.9892 234.5066 195.0289 231.9868 196.7088 233.6667 198.3887 234.5066 206.7882 230.3069 206.7882 226.9471 207.6282 225.2671 210.148 221.9073 211.8279 221.0674 214.3478 217.7076 214.3478 216.8676 217.7076 216.8676 230.3069 214.3478 229.4669 210.988 231.1468 207.6282 233.6667 205.1083 232.8267 196.7088 237.0265 195.8688 233.6667 196.7088 232.8267 194.1889 229.4669 195.8688 226.9471 193.349 219.3875 192.509 216.8676 193.349 212.6679 Z" id="US.CA.115" fill="#cee3f5" stroke="#6e6e6e" stroke-width="0.4">
      <desc>
        <name>Yuba County</name>
        <stateAbbrev>CA</stateAbbrev>
        <state>California</state>
        <fips>115</fips>
        <incits>06115</incits>
        <id>US.CA.115</id>
        <population>73340</population>
      </desc>
    </path>
    <path d="M 118.5933 206.7882 129.5126 206.7882 138.7521 206.7882 158.911 206.7882 158.911 205.1083 167.3105 205.1083 168.1504 206.7882 175.71 206.7882 174.0301 212.6679 171.5102 216.8676 173.1901 219.3875 171.5102 221.0674 174.0301 222.7473 173.1901 224.4272 175.71 227.787 179.0698 228.627 180.7497 233.6667 179.0698 236.1865 179.0698 237.8664 166.4705 237.8664 145.4717 237.8664 140.432 235.3466 140.432 231.9868 138.7521 231.1468 135.3923 227.787 134.5523 225.2671 136.2323 223.5872 133.7124 218.5475 129.5126 219.3875 125.3129 217.7076 123.633 218.5475 121.1131 216.0277 116.9134 213.5078 116.0734 211.8279 118.5933 208.4681 118.5933 206.7882 Z" id="US.CA.011" fill="#cee3f5" stroke="#6e6e6e" stroke-width="0.4">
      <desc>
        <name>Colusa County</name>
        <stateAbbrev>CA</stateAbbrev>
        <state>California</state>
        <fips>011</fips>
        <incits>06011</incits>
        <id>US.CA.011</id>
        <population>21358</population>
      </desc>
    </path>
    <path d="M 202.5884 135.3923 213.5078 135.3923 231.1468 135.3923 231.1468 147.9916 235.3466 150.5114 239.5463 150.5114 240.3863 152.1913 244.586 152.1913 244.586 149.6715 247.1059 147.1516 249.6258 147.1516 249.6258 145.4717 251.3057 144.6318 253.8255 144.6318 258.8652 144.6318 261.3851 146.3117 263.9049 146.3117 269.7846 149.6715 270.6245 151.3514 272.3045 151.3514 273.9844 153.8712 275.6643 155.5511 279.864 158.071 286.5836 158.071 289.1035 159.7509 289.9434 164.7906 292.4633 167.3105 295.8231 169.8303 295.8231 181.5897 293.3032 183.2696 293.3032 184.9495 273.1444 184.9495 258.8652 184.9495 257.1853 187.4693 252.9856 184.1095 249.6258 184.9495 244.586 180.7497 240.3863 183.2696 239.5463 186.6294 237.0265 189.1492 235.3466 189.9892 230.3069 192.509 229.4669 190.8291 226.1071 190.8291 225.2671 188.3093 221.9073 185.7894 218.5475 182.4296 214.3478 179.0698 210.988 175.71 207.6282 174.0301 207.6282 170.6703 207.6282 164.7906 210.148 162.2708 210.148 158.071 208.4681 158.071 208.4681 155.5511 205.9483 155.5511 205.9483 153.0313 210.988 151.3514 212.6679 144.6318 210.148 142.9519 206.7882 142.1119 204.2684 142.1119 202.5884 139.5921 203.4284 137.0722 202.5884 135.3923 Z" id="US.CA.063" fill="#cee3f5" stroke="#6e6e6e" stroke-width="0.4">
      <desc>
        <name>Plumas County</name>
        <stateAbbrev>CA</stateAbbrev>
        <state>California</state>
        <fips>063</fips>
        <incits>06063</incits>
        <id>US.CA.063</id>
        <population>18859</population>
      </desc>
    </path>
    <path d="M 174.0301 212.6679 193.349 212.6679 192.509 216.8676 193.349 219.3875 195.8688 226.9471 194.1889 229.4669 196.7088 232.8267 195.8688 233.6667 196.7088 237.0265 205.1083 232.8267 207.6282 233.6667 207.6282 237.8664 204.2684 237.8664 204.2684 249.6258 203.4284 251.3057 195.0289 250.4657 195.8688 248.7858 189.1492 248.7858 189.1492 247.1059 186.6294 246.2659 186.6294 242.9061 180.7497 241.2262 181.5897 239.5463 179.0698 237.8664 179.0698 236.1865 180.7497 233.6667 179.0698 228.627 175.71 227.787 173.1901 224.4272 174.0301 222.7473 171.5102 221.0674 173.1901 219.3875 171.5102 216.8676 174.0301 212.6679 Z" id="US.CA.101" fill="#cee3f5" stroke="#6e6e6e" stroke-width="0.4">
      <desc>
        <name>Sutter County</name>
        <stateAbbrev>CA</stateAbbrev>
        <state>California</state>
        <fips>101</fips>
        <incits>06101</incits>
        <id>US.CA.101</id>
        <population>95350</population>
      </desc>
    </path>
    <path d="M 373.9386 570.4874 374.7786 565.4477 384.858 558.728 393.2575 558.728 393.2575 554.5283 395.7774 554.5283 394.9374 550.3285 388.2178 536.0493 378.9783 517.5704 380.6582 515.0505 405.0168 515.0505 438.6149 515.0505 460.4537 515.0505 460.4537 532.6895 462.1336 551.1685 459.6137 559.568 456.2539 568.8075 453.7341 568.8075 451.2142 572.1673 452.8941 573.8472 439.4549 573.8472 439.4549 577.207 436.0951 578.8869 434.4152 580.5668 433.5752 582.2467 431.8953 585.6065 431.8953 586.4465 430.2154 588.1264 429.3755 590.6462 421.8159 591.4862 419.296 593.1661 415.0963 593.1661 409.2166 590.6462 406.6968 588.9663 405.0168 587.2864 405.0168 583.9266 408.3767 581.4067 402.497 573.8472 400.8171 571.3273 389.0578 571.3273 385.698 573.8472 382.3381 573.8472 378.1384 571.3273 373.9386 570.4874 Z M 397.4573 605.7653 401.657 605.7653 404.1769 607.4452 413.4164 609.9651 413.4164 611.645 416.7762 615.0048 417.6161 616.6847 415.9362 617.5247 412.5764 616.6847 409.2166 616.6847 406.6968 615.8448 405.0168 613.3249 405.8568 611.645 405.0168 609.9651 399.9771 608.2852 397.4573 605.7653 Z M 396.6173 636.8436 398.2972 635.1637 399.9771 636.0036 401.657 638.5235 405.0168 642.7232 414.2563 650.2828 411.7365 650.2828 410.0566 651.1227 407.5367 650.2828 404.1769 647.7629 401.657 643.5632 399.1372 640.2034 398.2972 637.6835 396.6173 636.8436 Z" id="US.CA.037" fill="#cee3f5" stroke="#6e6e6e" stroke-width="0.4">
      <desc>
        <name>Los Angeles County</name>
        <stateAbbrev>CA</stateAbbrev>
        <state>California</state>
        <fips>037</fips>
        <incits>06037</incits>
        <id>US.CA.037</id>
        <population>10017068</population>
      </desc>
    </path>
    <path d="M 281.5439 441.9747 305.9025 423.4958 305.9025 408.3767 320.1817 408.3767 323.5415 406.6968 326.0614 407.5367 331.941 402.497 335.3008 402.497 335.3008 408.3767 338.6606 408.3767 338.6606 417.6161 335.3008 417.6161 335.3008 426.0156 334.4609 426.0156 334.4609 449.5343 312.6221 449.5343 289.9434 449.5343 289.1035 449.5343 288.2635 447.8544 285.7437 445.3345 286.5836 443.6546 284.9037 441.9747 281.5439 441.9747 Z" id="US.CA.031" fill="#cee3f5" stroke="#6e6e6e" stroke-width="0.4">
      <desc>
        <name>Kings County</name>
        <stateAbbrev>CA</stateAbbrev>
        <state>California</state>
        <fips>031</fips>
        <incits>06031</incits>
        <id>US.CA.031</id>
        <population>150960</population>
      </desc>
    </path>
    <path d="M 303.3827 228.627 303.3827 232.8267 309.2623 237.8664 310.9422 238.7064 311.7822 242.0662 305.9025 247.9458 298.343 252.9856 295.8231 252.9856 294.1432 257.1853 289.1035 258.0253 287.4236 260.5451 284.9037 263.065 281.5439 263.9049 279.0241 263.9049 268.9446 265.5848 260.5451 266.4248 257.1853 265.5848 254.6655 263.9049 248.7858 263.065 246.2659 263.065 243.7461 264.7449 239.5463 264.7449 233.6667 266.4248 227.787 252.1456 226.1071 252.1456 229.4669 244.586 231.9868 242.9061 231.9868 239.5463 238.7064 237.0265 239.5463 235.3466 244.586 236.1865 247.1059 233.6667 252.1456 232.8267 253.8255 232.8267 258.8652 236.1865 262.225 237.0265 265.5848 238.7064 269.7846 237.0265 271.4645 234.5066 273.9844 231.1468 280.704 231.1468 286.5836 231.1468 290.7834 231.1468 293.3032 228.627 303.3827 228.627 Z" id="US.CA.017" fill="#cee3f5" stroke="#6e6e6e" stroke-width="0.4">
      <desc>
        <name>El Dorado County</name>
        <stateAbbrev>CA</stateAbbrev>
        <state>California</state>
        <fips>017</fips>
        <incits>06017</incits>
        <id>US.CA.017</id>
        <population>181737</population>
      </desc>
    </path>
    <path d="M 464.6534 615.0048 466.3333 607.4452 468.8532 607.4452 471.373 605.7653 471.373 604.0854 480.6125 604.0854 480.6125 604.9254 489.012 607.4452 489.012 609.1252 495.7316 608.2852 506.651 609.1252 517.5704 609.1252 552.8484 609.1252 567.1276 609.1252 567.9675 632.6438 566.2876 632.6438 566.2876 650.2828 566.2876 663.722 524.29 667.0818 497.4116 669.6017 491.5319 669.6017 490.6919 663.722 486.4922 662.8821 484.8123 661.2022 483.9723 658.6823 483.1324 651.1227 482.2924 648.6029 483.9723 644.4031 480.6125 632.6438 476.4128 625.9242 470.5331 620.0445 467.1733 616.6847 464.6534 615.0048 Z" id="US.CA.073" fill="#cee3f5" stroke="#6e6e6e" stroke-width="0.4">
      <desc>
        <name>San Diego County</name>
        <stateAbbrev>CA</stateAbbrev>
        <state>California</state>
        <fips>073</fips>
        <incits>06073</incits>
        <id>US.CA.073</id>
        <population>3211252</population>
      </desc>
    </path>
    <path d="M 65.6763 30.3983 77.4356 30.3983 90.8748 30.3983 97.5945 30.3983 120.2732 30.3983 142.9519 30.3983 168.1504 30.3983 205.1083 30.3983 205.1083 33.7581 205.1083 45.5174 205.9483 69.0361 205.9483 85.8351 185.7894 85.8351 152.1913 85.8351 134.5523 85.8351 132.8724 83.3153 134.5523 74.9158 132.0325 74.9158 130.3526 73.2359 128.6727 75.7557 125.3129 75.7557 124.4729 77.4356 121.1131 79.1155 119.4332 81.6354 116.0734 82.4753 113.5535 84.1552 107.6739 84.1552 105.154 85.8351 102.6342 90.8748 102.6342 92.5548 105.994 93.3947 107.6739 96.7545 105.994 98.4344 101.7942 96.7545 98.4344 97.5945 96.7545 95.0746 93.3947 93.3947 86.6751 93.3947 84.1552 92.5548 82.4753 90.0349 79.1155 88.355 77.4356 87.515 75.7557 87.515 73.2359 85.8351 69.8761 82.4753 70.716 80.7954 69.0361 73.2359 67.3562 72.3959 56.4368 72.3959 58.9567 69.0361 57.2768 62.3165 53.917 60.6366 54.7569 58.1167 52.2371 58.1167 53.917 55.5969 53.917 53.077 56.4368 49.7172 54.7569 48.0373 53.917 43.8375 53.077 42.1576 55.5969 41.3177 57.2768 37.9579 59.7966 38.7978 60.6366 37.1179 62.3165 37.1179 64.8363 33.7581 63.9964 31.2383 65.6763 30.3983 Z" id="US.CA.093" fill="#cee3f5" stroke="#6e6e6e" stroke-width="0.4">
      <desc>
        <name>Siskiyou County</name>
        <stateAbbrev>CA</stateAbbrev>
        <state>California</state>
        <fips>093</fips>
        <incits>06093</incits>
        <id>US.CA.093</id>
        <population>43799</population>
      </desc>
    </path>
    <path d="M 73.2359 85.8351 75.7557 87.515 77.4356 87.515 79.1155 88.355 82.4753 90.0349 84.1552 92.5548 86.6751 93.3947 93.3947 93.3947 96.7545 95.0746 98.4344 97.5945 101.7942 96.7545 105.994 98.4344 107.6739 96.7545 105.994 93.3947 102.6342 92.5548 102.6342 90.8748 105.154 85.8351 107.6739 84.1552 113.5535 84.1552 116.0734 82.4753 119.4332 81.6354 121.1131 79.1155 124.4729 77.4356 125.3129 75.7557 128.6727 75.7557 130.3526 73.2359 132.0325 74.9158 134.5523 74.9158 132.8724 83.3153 134.5523 85.8351 137.9122 87.515 137.9122 90.8748 132.8724 92.5548 132.8724 94.2347 132.0325 97.5945 128.6727 99.2744 126.9928 100.9543 127.8327 105.154 125.3129 108.5138 123.633 110.1937 123.633 112.7136 119.4332 116.0734 120.2732 116.9134 118.5933 120.2732 120.2732 122.793 121.1131 126.9928 119.4332 126.9928 116.0734 127.8327 114.3935 131.1925 111.0337 132.0325 107.6739 135.3923 105.154 137.0722 100.9543 137.0722 97.5945 142.1119 95.9146 142.1119 96.7545 146.3117 97.5945 147.1516 101.7942 148.8315 102.6342 153.0313 101.7942 155.5511 103.4741 158.911 104.3141 161.4308 104.3141 165.6306 105.154 167.3105 63.9964 167.3105 63.9964 165.6306 63.9964 143.7918 63.9964 116.0734 63.1564 109.3538 59.7966 105.994 58.9567 104.3141 62.3165 102.6342 68.1961 103.4741 70.716 101.7942 71.556 98.4344 73.2359 95.9146 70.716 91.7148 71.556 90.0349 71.556 87.515 73.2359 85.8351 Z" id="US.CA.105" fill="#cee3f5" stroke="#6e6e6e" stroke-width="0.4">
      <desc>
        <name>Trinity County</name>
        <stateAbbrev>CA</stateAbbrev>
        <state>California</state>
        <fips>105</fips>
        <incits>06105</incits>
        <id>US.CA.105</id>
        <population>13448</population>
      </desc>
    </path>
    <path d="M 164.7906 379.8183 180.7497 378.1384 182.4296 375.6185 185.7894 373.9386 187.4693 373.9386 192.509 374.7786 193.349 378.1384 196.7088 379.8183 201.7485 384.0181 203.4284 384.0181 205.1083 386.5379 202.5884 387.3779 205.9483 389.8977 208.4681 390.7377 210.988 390.7377 214.3478 394.0975 213.5078 398.2972 216.8676 401.657 219.3875 401.657 222.7473 405.0168 232.8267 413.4164 232.8267 416.7762 238.7064 416.7762 241.2262 414.2563 244.586 415.9362 248.7858 418.4561 252.1456 421.8159 254.6655 421.8159 255.5054 420.136 254.6655 417.6161 257.1853 417.6161 257.1853 418.4561 260.5451 421.8159 258.0253 424.3357 259.7052 428.5355 263.065 429.3755 264.7449 431.8953 270.6245 434.4152 273.9844 437.775 275.6643 436.935 279.0241 437.775 281.5439 441.9747 284.9037 441.9747 286.5836 443.6546 285.7437 445.3345 288.2635 447.8544 289.1035 449.5343 255.5054 449.5343 230.3069 449.5343 205.9483 449.5343 205.1083 447.8544 200.9085 444.4946 197.5487 439.4549 194.1889 437.775 191.6691 435.2551 189.9892 431.0554 186.6294 426.8556 184.1095 424.3357 178.2298 422.6558 176.5499 420.9759 174.0301 418.4561 170.6703 415.9362 169.8303 409.2166 168.1504 404.1769 166.4705 400.8171 167.3105 399.1372 165.6306 397.4573 165.6306 394.9374 168.1504 391.5776 164.7906 379.8183 Z" id="US.CA.053" fill="#cee3f5" stroke="#6e6e6e" stroke-width="0.4">
      <desc>
        <name>Monterey County</name>
        <stateAbbrev>CA</stateAbbrev>
        <state>California</state>
        <fips>053</fips>
        <incits>06053</incits>
        <id>US.CA.053</id>
        <population>428826</population>
      </desc>
    </path>
    <path d="M 96.7545 146.3117 102.6342 144.6318 105.994 144.6318 109.3538 142.1119 111.0337 142.1119 117.7533 141.272 124.4729 143.7918 129.5126 140.432 132.8724 139.5921 137.9122 140.432 147.1516 140.432 153.0313 139.5921 159.7509 138.7521 161.4308 137.9122 168.1504 137.0722 172.3502 137.9122 176.5499 136.2323 181.5897 135.3923 187.4693 135.3923 195.0289 137.0722 197.5487 135.3923 202.5884 135.3923 203.4284 137.0722 202.5884 139.5921 204.2684 142.1119 206.7882 142.1119 210.148 142.9519 212.6679 144.6318 210.988 151.3514 205.9483 153.0313 205.9483 155.5511 205.1083 157.231 203.4284 157.231 200.9085 158.911 195.8688 158.911 195.8688 161.4308 193.349 163.1107 192.509 166.4705 188.3093 166.4705 185.7894 169.8303 184.9495 171.5102 181.5897 173.1901 166.4705 173.1901 163.9507 176.5499 164.7906 179.0698 137.9122 179.0698 111.8736 179.0698 105.154 179.0698 103.4741 175.71 104.3141 172.3502 105.994 171.5102 105.154 167.3105 104.3141 165.6306 104.3141 161.4308 103.4741 158.911 101.7942 155.5511 102.6342 153.0313 101.7942 148.8315 97.5945 147.1516 96.7545 146.3117 Z" id="US.CA.103" fill="#cee3f5" stroke="#6e6e6e" stroke-width="0.4">
      <desc>
        <name>Tehama County</name>
        <stateAbbrev>CA</stateAbbrev>
        <state>California</state>
        <fips>103</fips>
        <incits>06103</incits>
        <id>US.CA.103</id>
        <population>63057</population>
      </desc>
    </path>
    <path d="M 126.9928 313.4621 132.8724 312.6221 134.5523 312.6221 139.5921 310.1023 138.7521 305.0626 142.9519 308.4224 144.6318 313.4621 148.8315 320.1817 129.5126 320.1817 128.6727 314.302 126.9928 313.4621 Z M 89.1949 315.9819 89.1949 314.302 92.5548 312.6221 95.9146 313.4621 98.4344 315.142 100.9543 315.9819 104.3141 318.5018 105.154 321.0217 104.3141 323.5415 100.9543 324.3815 95.9146 322.7016 94.2347 320.1817 91.7148 319.3418 90.0349 317.6619 89.1949 315.9819 Z" id="US.CA.075" fill="#cee3f5" stroke="#6e6e6e" stroke-width="0.4">
      <desc>
        <name>San Francisco County</name>
        <stateAbbrev>CA</stateAbbrev>
        <state>California</state>
        <fips>075</fips>
        <incits>06075</incits>
        <id>US.CA.075</id>
        <population>837442</population>
      </desc>
    </path>
    <path d="M 266.4248 364.6992 270.6245 361.3394 275.6643 360.4994 277.3442 359.6594 279.864 359.6594 284.9037 357.9795 287.4236 357.1396 290.7834 357.1396 295.8231 357.1396 300.0229 355.4597 319.3418 339.5006 326.9013 339.5006 326.9013 336.9807 329.4212 336.9807 329.4212 334.4609 331.1011 334.4609 331.1011 330.2611 349.58 315.142 352.9398 318.5018 356.2996 320.1817 357.1396 318.5018 362.1793 318.5018 366.3791 321.8616 366.3791 323.5415 368.8989 326.0614 368.8989 328.5812 349.58 344.5403 347.9001 347.0602 348.7401 351.2599 348.7401 353.7798 344.5403 357.9795 342.8604 357.1396 339.5006 357.9795 338.6606 360.4994 335.3008 358.8195 331.941 363.8592 329.4212 363.0193 328.5812 366.3791 323.5415 367.219 321.0217 369.7389 321.0217 371.4188 318.5018 373.9386 317.6619 375.6185 315.9819 378.1384 310.9422 378.1384 306.7425 378.9783 302.5427 379.8183 301.7028 380.6582 298.343 379.8183 291.6233 381.4982 290.7834 383.1781 288.2635 382.3381 285.7437 383.1781 283.2238 383.1781 279.864 382.3381 276.5042 379.8183 273.1444 377.2984 271.4645 375.6185 272.3045 373.9386 270.6245 369.7389 266.4248 364.6992 Z" id="US.CA.039" fill="#cee3f5" stroke="#6e6e6e" stroke-width="0.4">
      <desc>
        <name>Madera County</name>
        <stateAbbrev>CA</stateAbbrev>
        <state>California</state>
        <fips>039</fips>
        <incits>06039</incits>
        <id>US.CA.039</id>
        <population>152389</population>
      </desc>
    </path>
    <path d="M 24.5187 165.6306 32.0782 165.6306 63.9964 165.6306 63.9964 167.3105 105.154 167.3105 105.994 171.5102 104.3141 172.3502 103.4741 175.71 105.154 179.0698 105.154 182.4296 106.8339 182.4296 107.6739 184.9495 108.5138 194.1889 108.5138 197.5487 105.154 198.3887 99.2744 198.3887 96.7545 199.2286 96.7545 202.5884 95.9146 205.9483 98.4344 208.4681 99.2744 210.988 99.2744 214.3478 100.1143 216.0277 97.5945 221.0674 95.9146 221.0674 94.2347 227.787 96.7545 228.627 96.7545 231.9868 99.2744 233.6667 101.7942 232.8267 102.6342 237.0265 104.3141 239.5463 106.8339 239.5463 107.6739 241.2262 112.7136 242.9061 95.0746 242.9061 91.7148 243.7461 91.7148 246.2659 75.7557 246.2659 75.7557 247.9458 67.3562 247.9458 64.8363 248.7858 58.1167 249.6258 52.2371 244.586 50.5572 242.9061 48.0373 240.3863 46.3574 235.3466 47.1974 233.6667 48.8773 232.8267 49.7172 230.3069 46.3574 223.5872 43.8375 221.0674 42.9976 217.7076 40.4777 210.148 40.4777 202.5884 42.1576 198.3887 44.6775 195.8688 43.8375 194.1889 42.9976 187.4693 40.4777 184.9495 39.6378 179.0698 37.1179 178.2298 32.9182 172.3502 31.2383 169.8303 27.8785 167.3105 24.5187 165.6306 Z" id="US.CA.045" fill="#cee3f5" stroke="#6e6e6e" stroke-width="0.4">
      <desc>
        <name>Mendocino County</name>
        <stateAbbrev>CA</stateAbbrev>
        <state>California</state>
        <fips>045</fips>
        <incits>06045</incits>
        <id>US.CA.045</id>
        <population>87192</population>
      </desc>
    </path>
    <path d="M 233.6667 266.4248 239.5463 264.7449 243.7461 264.7449 246.2659 263.065 248.7858 263.065 254.6655 263.9049 257.1853 265.5848 260.5451 266.4248 268.9446 265.5848 279.0241 263.9049 281.5439 263.9049 284.9037 263.065 287.4236 260.5451 289.1035 258.0253 294.1432 257.1853 295.8231 252.9856 298.343 252.9856 298.343 266.4248 294.9832 267.2647 289.9434 266.4248 284.9037 268.1047 277.3442 269.7846 274.8243 268.9446 272.3045 270.6245 269.7846 269.7846 268.1047 272.3045 262.225 273.9844 261.3851 276.5042 258.8652 278.1841 253.8255 279.864 246.2659 282.3839 243.7461 284.0638 237.8664 285.7437 236.1865 284.9037 233.6667 279.864 233.6667 266.4248 Z" id="US.CA.005" fill="#cee3f5" stroke="#6e6e6e" stroke-width="0.4">
      <desc>
        <name>Amador County</name>
        <stateAbbrev>CA</stateAbbrev>
        <state>California</state>
        <fips>005</fips>
        <incits>06005</incits>
        <id>US.CA.005</id>
        <population>36519</population>
      </desc>
    </path>
    <path d="M 385.698 336.9807 425.1757 336.9807 449.5343 336.9807 477.2527 357.1396 494.0517 369.7389 518.4103 388.2178 551.1685 413.4164 578.8869 434.4152 583.0866 437.775 596.5259 448.6943 590.6462 448.6943 590.6462 449.5343 554.5283 449.5343 539.4091 449.5343 504.9711 449.5343 481.4525 449.5343 462.9735 449.5343 442.8147 448.6943 443.6546 449.5343 437.775 449.5343 437.775 444.4946 439.4549 442.8147 438.6149 439.4549 436.935 437.775 437.775 436.0951 436.0951 434.4152 434.4152 429.3755 433.5752 429.3755 432.7353 426.0156 433.5752 423.4958 431.0554 420.9759 429.3755 416.7762 431.0554 411.7365 430.2154 411.7365 427.6955 408.3767 427.6955 405.8568 424.3357 406.6968 423.4958 405.0168 420.9759 402.497 421.8159 399.9771 420.136 398.2972 418.4561 397.4573 418.4561 395.7774 416.7762 392.4176 413.4164 388.2178 415.9362 388.2178 415.0963 386.5379 413.4164 384.858 412.5764 381.4982 411.7365 378.9783 413.4164 378.1384 413.4164 375.6185 412.5764 372.2587 410.0566 368.059 408.3767 363.8592 405.0168 363.0193 401.657 360.4994 399.9771 360.4994 398.2972 358.8195 394.0975 358.8195 392.4176 356.2996 392.4176 351.2599 393.2575 350.42 389.8977 346.2202 388.2178 347.0602 384.858 344.5403 386.5379 342.8604 384.858 341.1805 386.5379 337.8207 385.698 336.9807 Z" id="US.CA.027" fill="#cee3f5" stroke="#6e6e6e" stroke-width="0.4">
      <desc>
        <name>Inyo County</name>
        <stateAbbrev>CA</stateAbbrev>
        <state>California</state>
        <fips>027</fips>
        <incits>06027</incits>
        <id>US.CA.027</id>
        <population>18467</population>
      </desc>
    </path>
    <path d="M 241.2262 385.698 258.8652 371.4188 263.065 371.4188 263.065 368.059 266.4248 364.6992 270.6245 369.7389 272.3045 373.9386 271.4645 375.6185 273.1444 377.2984 276.5042 379.8183 279.864 382.3381 283.2238 383.1781 285.7437 383.1781 288.2635 382.3381 290.7834 383.1781 291.6233 381.4982 298.343 379.8183 301.7028 380.6582 302.5427 379.8183 306.7425 378.9783 310.9422 378.1384 315.9819 378.1384 317.6619 375.6185 318.5018 373.9386 321.0217 371.4188 321.0217 369.7389 323.5415 367.219 328.5812 366.3791 329.4212 363.0193 331.941 363.8592 335.3008 358.8195 338.6606 360.4994 339.5006 357.9795 342.8604 357.1396 344.5403 357.9795 348.7401 353.7798 348.7401 351.2599 347.9001 347.0602 349.58 344.5403 368.8989 328.5812 370.5788 329.4212 376.4585 331.1011 379.8183 333.6209 380.6582 336.1408 384.0181 335.3008 385.698 336.9807 386.5379 337.8207 384.858 341.1805 386.5379 342.8604 384.858 344.5403 388.2178 347.0602 389.8977 346.2202 393.2575 350.42 392.4176 351.2599 392.4176 356.2996 394.0975 358.8195 398.2972 358.8195 399.9771 360.4994 401.657 360.4994 405.0168 363.0193 408.3767 363.8592 410.0566 368.059 412.5764 372.2587 413.4164 375.6185 413.4164 378.1384 411.7365 378.9783 412.5764 381.4982 413.4164 384.858 408.3767 384.858 400.8171 384.858 400.8171 385.698 388.2178 385.698 371.4188 385.698 371.4188 390.7377 350.42 390.7377 350.42 396.6173 339.5006 396.6173 331.941 402.497 326.0614 407.5367 323.5415 406.6968 320.1817 408.3767 305.9025 408.3767 305.9025 423.4958 281.5439 441.9747 279.0241 437.775 275.6643 436.935 273.9844 437.775 270.6245 434.4152 264.7449 431.8953 263.065 429.3755 259.7052 428.5355 258.0253 424.3357 260.5451 421.8159 257.1853 418.4561 257.1853 417.6161 257.1853 415.9362 258.0253 414.2563 263.065 413.4164 263.065 402.497 262.225 402.497 241.2262 385.698 Z" id="US.CA.019" fill="#cee3f5" stroke="#6e6e6e" stroke-width="0.4">
      <desc>
        <name>Fresno County</name>
        <stateAbbrev>CA</stateAbbrev>
        <state>California</state>
        <fips>019</fips>
        <incits>06019</incits>
        <id>US.CA.019</id>
        <population>955272</population>
      </desc>
    </path>
    <path d="M 105.154 179.0698 111.8736 179.0698 137.9122 179.0698 164.7906 179.0698 168.9904 183.2696 171.5102 184.1095 172.3502 185.7894 169.8303 187.4693 170.6703 189.1492 168.1504 192.509 168.1504 195.8688 169.8303 197.5487 171.5102 196.7088 178.2298 196.7088 176.5499 198.3887 176.5499 202.5884 175.71 206.7882 168.1504 206.7882 167.3105 205.1083 158.911 205.1083 158.911 206.7882 138.7521 206.7882 129.5126 206.7882 118.5933 206.7882 118.5933 202.5884 118.5933 194.1889 108.5138 194.1889 107.6739 184.9495 106.8339 182.4296 105.154 182.4296 105.154 179.0698 Z" id="US.CA.021" fill="#cee3f5" stroke="#6e6e6e" stroke-width="0.4">
      <desc>
        <name>Glenn County</name>
        <stateAbbrev>CA</stateAbbrev>
        <state>California</state>
        <fips>021</fips>
        <incits>06021</incits>
        <id>US.CA.021</id>
        <population>27940</population>
      </desc>
    </path>
    <path d="M 289.9434 449.5343 312.6221 449.5343 334.4609 449.5343 371.4188 449.5343 399.9771 449.5343 406.6968 449.5343 413.4164 449.5343 437.775 449.5343 443.6546 449.5343 442.8147 448.6943 462.9735 449.5343 462.9735 455.414 461.2936 457.0939 462.9735 458.7738 462.9735 479.7726 462.9735 496.5716 462.9735 497.4116 462.9735 515.0505 460.4537 515.0505 438.6149 515.0505 405.0168 515.0505 380.6582 515.0505 378.9783 517.5704 372.2587 516.7304 372.2587 515.8905 354.6197 515.0505 354.6197 512.5307 352.0999 511.6907 344.5403 511.6907 344.5403 510.0108 340.3406 509.1709 338.6606 509.1709 338.6606 497.4116 337.8207 496.5716 332.781 497.4116 333.6209 490.6919 325.2214 491.5319 326.0614 484.8123 315.9819 484.8123 315.9819 478.9326 310.9422 478.9326 310.9422 473.0529 303.3827 473.0529 303.3827 471.373 298.343 467.1733 297.503 467.1733 297.503 461.2936 289.9434 461.2936 289.9434 449.5343 Z" id="US.CA.029" fill="#cee3f5" stroke="#6e6e6e" stroke-width="0.4">
      <desc>
        <name>Kern County</name>
        <stateAbbrev>CA</stateAbbrev>
        <state>California</state>
        <fips>029</fips>
        <incits>06029</incits>
        <id>US.CA.029</id>
        <population>864124</population>
      </desc>
    </path>
    <path d="M 678.8412 564.6077 678.0012 569.6474 672.1215 574.6871 673.8014 576.367 673.8014 578.8869 672.1215 579.7268 672.1215 583.0866 673.8014 586.4465 673.8014 588.1264 673.8014 590.6462 672.1215 591.4862 672.1215 594.006 672.9615 596.5259 671.2816 598.2058 672.9615 600.7256 670.4416 601.5656 666.2419 606.6053 665.4019 608.2852 651.9627 609.1252 636.8436 609.1252 609.1252 609.1252 583.9266 609.1252 567.1276 609.1252 552.8484 609.1252 517.5704 609.1252 506.651 609.1252 495.7316 608.2852 489.012 609.1252 489.012 607.4452 480.6125 604.9254 480.6125 604.0854 471.373 604.0854 471.373 601.5656 478.0927 593.1661 473.8929 590.6462 469.6931 589.8063 469.6931 586.4465 466.3333 586.4465 460.4537 578.8869 461.2936 578.0469 461.2936 575.5271 464.6534 575.5271 464.6534 572.1673 468.0132 571.3273 468.0132 567.9675 480.6125 567.9675 480.6125 568.8075 490.6919 568.8075 490.6919 570.4874 510.0108 569.6474 510.0108 567.9675 533.5295 567.9675 552.8484 567.9675 573.8472 567.9675 619.2046 567.9675 619.2046 565.4477 631.8039 564.6077 657.0024 565.4477 678.8412 564.6077 Z" id="US.CA.065" fill="#cee3f5" stroke="#6e6e6e" stroke-width="0.4">
      <desc>
        <name>Riverside County</name>
        <stateAbbrev>CA</stateAbbrev>
        <state>California</state>
        <fips>065</fips>
        <incits>06065</incits>
        <id>US.CA.065</id>
        <population>2292507</population>
      </desc>
    </path>
    <path d="M 205.9483 449.5343 230.3069 449.5343 255.5054 449.5343 289.1035 449.5343 289.9434 449.5343 289.9434 461.2936 297.503 461.2936 297.503 467.1733 298.343 467.1733 303.3827 471.373 303.3827 473.0529 310.9422 473.0529 310.9422 478.9326 315.9819 478.9326 315.9819 484.8123 326.0614 484.8123 325.2214 491.5319 333.6209 490.6919 332.781 497.4116 337.8207 496.5716 338.6606 497.4116 338.6606 509.1709 334.4609 510.0108 329.4212 506.651 325.2214 504.9711 320.1817 504.9711 314.302 502.4513 312.6221 500.7714 310.1023 499.9314 308.4224 499.0915 303.3827 498.2515 302.5427 497.4116 299.1829 496.5716 296.6631 494.8917 293.3032 496.5716 291.6233 498.2515 290.7834 500.7714 283.2238 501.6113 280.704 503.2912 282.3839 504.9711 283.2238 507.491 283.2238 509.1709 278.1841 505.8111 273.9844 504.1312 269.7846 503.2912 264.7449 504.1312 260.5451 505.8111 255.5054 503.2912 256.3454 496.5716 253.8255 494.8917 248.7858 494.8917 246.2659 493.2118 241.2262 490.6919 238.7064 486.4922 238.7064 483.1324 241.2262 479.7726 240.3863 476.4128 232.8267 474.7329 225.2671 468.0132 221.9073 463.8135 213.5078 460.4537 210.988 457.0939 208.4681 451.2142 205.9483 449.5343 Z" id="US.CA.079" fill="#cee3f5" stroke="#6e6e6e" stroke-width="0.4">
      <desc>
        <name>San Luis Obispo County</name>
        <stateAbbrev>CA</stateAbbrev>
        <state>California</state>
        <fips>079</fips>
        <incits>06079</incits>
        <id>US.CA.079</id>
        <population>276443</population>
      </desc>
    </path>
    <path d="M 298.343 266.4248 298.343 252.9856 305.9025 247.9458 311.7822 242.0662 310.9422 238.7064 309.2623 237.8664 331.1011 252.1456 329.4212 255.5054 328.5812 258.8652 330.2611 260.5451 334.4609 268.1047 331.941 271.4645 332.781 273.1444 328.5812 273.9844 329.4212 275.6643 327.7413 278.1841 323.5415 275.6643 323.5415 273.1444 320.1817 272.3045 316.8219 273.1444 310.9422 276.5042 301.7028 271.4645 299.1829 269.7846 298.343 266.4248 Z" id="US.CA.003" fill="#cee3f5" stroke="#6e6e6e" stroke-width="0.4">
      <desc>
        <name>Alpine County</name>
        <stateAbbrev>CA</stateAbbrev>
        <state>California</state>
        <fips>003</fips>
        <incits>06003</incits>
        <id>US.CA.003</id>
        <population>1159</population>
      </desc>
    </path>
    <path d="M 129.5126 320.1817 148.8315 320.1817 160.5909 334.4609 163.1107 336.1408 161.4308 336.9807 157.231 336.9807 155.5511 338.6606 155.5511 341.1805 154.7112 343.7004 155.5511 347.0602 158.071 348.7401 158.071 353.7798 151.3514 353.7798 151.3514 355.4597 147.1516 355.4597 147.1516 357.9795 148.8315 360.4994 147.1516 364.6992 142.9519 363.8592 141.272 360.4994 137.9122 357.9795 137.0722 356.2996 135.3923 351.2599 137.0722 344.5403 134.5523 340.3406 133.7124 337.8207 131.1925 336.9807 129.5126 334.4609 128.6727 327.7413 130.3526 325.2214 129.5126 320.1817 Z" id="US.CA.081" fill="#cee3f5" stroke="#6e6e6e" stroke-width="0.4">
      <desc>
        <name>San Mateo County</name>
        <stateAbbrev>CA</stateAbbrev>
        <state>California</state>
        <fips>081</fips>
        <incits>06081</incits>
        <id>US.CA.081</id>
        <population>747373</population>
      </desc>
    </path>
    <path d="M 142.9519 308.4224 150.5114 306.7425 155.5511 311.7822 158.911 313.4621 164.7906 314.302 168.1504 316.8219 167.3105 317.6619 170.6703 319.3418 198.3887 312.6221 198.3887 331.1011 201.7485 332.781 204.2684 335.3008 177.3899 335.3008 173.1901 336.9807 172.3502 336.9807 168.1504 336.1408 164.7906 336.9807 163.1107 336.1408 160.5909 334.4609 148.8315 320.1817 144.6318 313.4621 142.9519 308.4224 Z" id="US.CA.001" fill="#cee3f5" stroke="#6e6e6e" stroke-width="0.4">
      <desc>
        <name>Alameda County</name>
        <stateAbbrev>CA</stateAbbrev>
        <state>California</state>
        <fips>001</fips>
        <incits>06001</incits>
        <id>US.CA.001</id>
        <population>1578891</population>
      </desc>
    </path>
    <path d="M 192.509 374.7786 193.349 373.9386 196.7088 374.7786 200.9085 371.4188 202.5884 368.8989 205.9483 369.7389 207.6282 370.5788 221.0674 370.5788 220.2274 373.0987 223.5872 373.9386 226.1071 378.9783 240.3863 384.858 241.2262 385.698 262.225 402.497 263.065 402.497 263.065 413.4164 258.0253 414.2563 257.1853 415.9362 257.1853 417.6161 254.6655 417.6161 255.5054 420.136 254.6655 421.8159 252.1456 421.8159 248.7858 418.4561 244.586 415.9362 241.2262 414.2563 238.7064 416.7762 232.8267 416.7762 232.8267 413.4164 222.7473 405.0168 219.3875 401.657 216.8676 401.657 213.5078 398.2972 214.3478 394.0975 210.988 390.7377 208.4681 390.7377 205.9483 389.8977 202.5884 387.3779 205.1083 386.5379 203.4284 384.0181 201.7485 384.0181 196.7088 379.8183 193.349 378.1384 192.509 374.7786 Z" id="US.CA.069" fill="#cee3f5" stroke="#6e6e6e" stroke-width="0.4">
      <desc>
        <name>San Benito County</name>
        <stateAbbrev>CA</stateAbbrev>
        <state>California</state>
        <fips>069</fips>
        <incits>06069</incits>
        <id>US.CA.069</id>
        <population>57600</population>
      </desc>
    </path>
    <path d="M 163.1107 336.1408 164.7906 336.9807 168.1504 336.1408 172.3502 336.9807 173.1901 336.9807 177.3899 335.3008 204.2684 335.3008 203.4284 336.9807 204.2684 338.6606 205.1083 341.1805 207.6282 342.0205 206.7882 343.7004 208.4681 347.0602 205.1083 348.7401 205.1083 351.2599 206.7882 352.9398 208.4681 357.1396 210.988 355.4597 213.5078 356.2996 219.3875 357.1396 220.2274 358.8195 220.2274 361.3394 221.9073 363.8592 219.3875 366.3791 220.2274 368.059 219.3875 369.7389 221.0674 370.5788 207.6282 370.5788 205.9483 369.7389 202.5884 368.8989 200.9085 371.4188 196.7088 374.7786 196.7088 373.0987 189.1492 369.7389 187.4693 367.219 184.9495 364.6992 180.7497 363.0193 179.9097 362.1793 174.0301 360.4994 168.9904 357.9795 166.4705 356.2996 166.4705 355.4597 162.2708 352.9398 158.071 348.7401 155.5511 347.0602 154.7112 343.7004 155.5511 341.1805 155.5511 338.6606 157.231 336.9807 161.4308 336.9807 163.1107 336.1408 Z" id="US.CA.085" fill="#cee3f5" stroke="#6e6e6e" stroke-width="0.4">
      <desc>
        <name>Santa Clara County</name>
        <stateAbbrev>CA</stateAbbrev>
        <state>California</state>
        <fips>085</fips>
        <incits>06085</incits>
        <id>US.CA.085</id>
        <population>1862041</population>
      </desc>
    </path>
    <path d="M 108.5138 194.1889 118.5933 194.1889 118.5933 202.5884 118.5933 206.7882 118.5933 208.4681 116.0734 211.8279 116.9134 213.5078 121.1131 216.0277 123.633 218.5475 125.3129 217.7076 129.5126 219.3875 133.7124 218.5475 136.2323 223.5872 134.5523 225.2671 135.3923 227.787 138.7521 231.1468 140.432 231.9868 140.432 235.3466 145.4717 237.8664 141.272 237.8664 139.5921 239.5463 141.272 242.0662 142.9519 245.426 140.432 247.9458 137.0722 252.9856 126.1528 255.5054 124.4729 252.9856 121.9531 252.1456 120.2732 249.6258 117.7533 247.1059 117.7533 246.2659 112.7136 242.9061 107.6739 241.2262 106.8339 239.5463 104.3141 239.5463 102.6342 237.0265 101.7942 232.8267 99.2744 233.6667 96.7545 231.9868 96.7545 228.627 94.2347 227.787 95.9146 221.0674 97.5945 221.0674 100.1143 216.0277 99.2744 214.3478 99.2744 210.988 98.4344 208.4681 95.9146 205.9483 96.7545 202.5884 96.7545 199.2286 99.2744 198.3887 105.154 198.3887 108.5138 197.5487 108.5138 194.1889 Z" id="US.CA.033" fill="#cee3f5" stroke="#6e6e6e" stroke-width="0.4">
      <desc>
        <name>Lake County</name>
        <stateAbbrev>CA</stateAbbrev>
        <state>California</state>
        <fips>033</fips>
        <incits>06033</incits>
        <id>US.CA.033</id>
        <population>63860</population>
      </desc>
    </path>
    <path d="M 65.6763 30.3983 63.9964 31.2383 64.8363 33.7581 62.3165 37.1179 60.6366 37.1179 59.7966 38.7978 57.2768 37.9579 55.5969 41.3177 53.077 42.1576 53.917 43.8375 54.7569 48.0373 56.4368 49.7172 53.917 53.077 53.917 55.5969 52.2371 58.1167 54.7569 58.1167 53.917 60.6366 57.2768 62.3165 58.9567 69.0361 56.4368 72.3959 48.8773 72.3959 48.8773 66.5162 23.6787 66.5162 22.8387 61.4765 20.3189 58.9567 20.3189 57.2768 18.639 54.7569 18.639 52.2371 11.0794 48.8773 6.0397 45.5174 3.5199 42.1576 4.3598 40.4777 5.1998 38.7978 8.5596 37.9579 11.9194 40.4777 14.4392 40.4777 14.4392 37.1179 13.5993 36.278 14.4392 33.7581 12.7593 31.2383 18.639 30.3983 32.9182 31.2383 51.3971 31.2383 65.6763 30.3983 Z" id="US.CA.015" fill="#cee3f5" stroke="#6e6e6e" stroke-width="0.4">
      <desc>
        <name>Del Norte County</name>
        <stateAbbrev>CA</stateAbbrev>
        <state>California</state>
        <fips>015</fips>
        <incits>06015</incits>
        <id>US.CA.015</id>
        <population>27873</population>
      </desc>
    </path>
    <path d="M 220.2274 358.8195 236.1865 346.2202 237.0265 344.5403 237.0265 341.1805 277.3442 325.2214 284.0638 336.9807 284.0638 338.6606 284.9037 341.1805 290.7834 347.9001 290.7834 350.42 293.3032 352.0999 297.503 352.9398 300.0229 355.4597 295.8231 357.1396 290.7834 357.1396 287.4236 357.1396 284.9037 357.9795 279.864 359.6594 277.3442 359.6594 275.6643 360.4994 270.6245 361.3394 266.4248 364.6992 263.065 368.059 263.065 371.4188 258.8652 371.4188 241.2262 385.698 240.3863 384.858 226.1071 378.9783 223.5872 373.9386 220.2274 373.0987 221.0674 370.5788 219.3875 369.7389 220.2274 368.059 219.3875 366.3791 221.9073 363.8592 220.2274 361.3394 220.2274 358.8195 Z" id="US.CA.047" fill="#cee3f5" stroke="#6e6e6e" stroke-width="0.4">
      <desc>
        <name>Merced County</name>
        <stateAbbrev>CA</stateAbbrev>
        <state>California</state>
        <fips>047</fips>
        <incits>06047</incits>
        <id>US.CA.047</id>
        <population>263228</population>
      </desc>
    </path>
    <path d="M 336.9807 548.6486 338.6606 545.2888 340.3406 543.6089 341.1805 539.4091 340.3406 509.1709 344.5403 510.0108 344.5403 511.6907 352.0999 511.6907 354.6197 512.5307 354.6197 515.0505 372.2587 515.8905 372.2587 516.7304 378.9783 517.5704 388.2178 536.0493 394.9374 550.3285 395.7774 554.5283 393.2575 554.5283 393.2575 558.728 384.858 558.728 374.7786 565.4477 373.9386 570.4874 368.8989 569.6474 359.6594 567.9675 356.2996 566.2876 351.2599 561.2479 347.9001 554.5283 345.3803 553.6883 343.7004 552.0084 339.5006 550.3285 336.9807 548.6486 Z" id="US.CA.111" fill="#cee3f5" stroke="#6e6e6e" stroke-width="0.4">
      <desc>
        <name>Ventura County</name>
        <stateAbbrev>CA</stateAbbrev>
        <state>California</state>
        <fips>111</fips>
        <incits>06111</incits>
        <id>US.CA.111</id>
        <population>839620</population>
      </desc>
    </path>
    <path d="M 205.1083 30.3983 225.2671 31.2383 233.6667 31.2383 284.0638 31.2383 303.3827 31.2383 303.3827 63.9964 303.3827 85.8351 278.1841 85.8351 254.6655 85.8351 213.5078 85.8351 205.9483 85.8351 205.9483 69.0361 205.1083 45.5174 205.1083 33.7581 205.1083 30.3983 Z" id="US.CA.049" fill="#cee3f5" stroke="#6e6e6e" stroke-width="0.4">
      <desc>
        <name>Modoc County</name>
        <stateAbbrev>CA</stateAbbrev>
        <state>California</state>
        <fips>049</fips>
        <incits>06049</incits>
        <id>US.CA.049</id>
        <population>9147</population>
      </desc>
    </path>
    <path d="M 145.4717 237.8664 166.4705 237.8664 179.0698 237.8664 181.5897 239.5463 180.7497 241.2262 186.6294 242.9061 186.6294 246.2659 189.1492 247.1059 189.1492 248.7858 195.8688 248.7858 195.0289 250.4657 193.349 253.8255 193.349 254.6655 195.0289 257.1853 197.5487 257.1853 198.3887 259.7052 201.7485 260.5451 200.9085 263.9049 198.3887 265.5848 199.2286 268.1047 201.7485 268.9446 201.7485 270.6245 200.0686 271.4645 200.9085 273.1444 200.9085 275.6643 195.8688 279.0241 189.1492 279.0241 189.1492 264.7449 184.9495 263.9049 180.7497 264.7449 177.3899 263.9049 172.3502 264.7449 167.3105 267.2647 164.7906 265.5848 161.4308 265.5848 158.911 259.7052 157.231 256.3454 153.8712 253.8255 152.1913 250.4657 148.8315 243.7461 144.6318 243.7461 141.272 242.0662 139.5921 239.5463 141.272 237.8664 145.4717 237.8664 Z" id="US.CA.113" fill="#cee3f5" stroke="#6e6e6e" stroke-width="0.4">
      <desc>
        <name>Yolo County</name>
        <stateAbbrev>CA</stateAbbrev>
        <state>California</state>
        <fips>113</fips>
        <incits>06113</incits>
        <id>US.CA.113</id>
        <population>204593</population>
      </desc>
    </path>
    <path d="M 205.9483 155.5511 208.4681 155.5511 208.4681 158.071 210.148 158.071 210.148 162.2708 207.6282 164.7906 207.6282 170.6703 207.6282 174.0301 210.988 175.71 214.3478 179.0698 218.5475 182.4296 221.9073 185.7894 225.2671 188.3093 226.1071 190.8291 229.4669 190.8291 230.3069 192.509 228.627 195.0289 225.2671 195.8688 225.2671 197.5487 219.3875 197.5487 215.1877 198.3887 214.3478 200.9085 212.6679 201.7485 210.148 208.4681 208.4681 210.148 202.5884 211.8279 200.0686 211.8279 197.5487 212.6679 194.1889 211.8279 193.349 212.6679 174.0301 212.6679 175.71 206.7882 176.5499 202.5884 176.5499 198.3887 178.2298 196.7088 171.5102 196.7088 169.8303 197.5487 168.1504 195.8688 168.1504 192.509 170.6703 189.1492 169.8303 187.4693 172.3502 185.7894 171.5102 184.1095 168.9904 183.2696 164.7906 179.0698 163.9507 176.5499 166.4705 173.1901 181.5897 173.1901 184.9495 171.5102 185.7894 169.8303 188.3093 166.4705 192.509 166.4705 193.349 163.1107 195.8688 161.4308 195.8688 158.911 200.9085 158.911 203.4284 157.231 205.1083 157.231 205.9483 155.5511 Z" id="US.CA.007" fill="#cee3f5" stroke="#6e6e6e" stroke-width="0.4">
      <desc>
        <name>Butte County</name>
        <stateAbbrev>CA</stateAbbrev>
        <state>California</state>
        <fips>007</fips>
        <incits>06007</incits>
        <id>US.CA.007</id>
        <population>222090</population>
      </desc>
    </path>
    <path d="M 460.4537 515.0505 462.9735 515.0505 462.9735 497.4116 462.9735 496.5716 462.9735 479.7726 462.9735 458.7738 461.2936 457.0939 462.9735 455.414 462.9735 449.5343 481.4525 449.5343 504.9711 449.5343 539.4091 449.5343 554.5283 449.5343 590.6462 449.5343 590.6462 448.6943 596.5259 448.6943 614.1649 462.1336 640.2034 483.1324 665.4019 502.4513 665.4019 506.651 665.4019 511.6907 667.9218 513.3706 670.4416 518.4103 673.8014 520.9302 676.3213 522.6101 678.0012 526.8099 678.8412 530.1697 680.5211 531.8496 682.201 536.0493 682.201 539.4091 684.7208 540.2491 689.7605 543.6089 692.2804 545.2888 696.4801 546.9687 699 549.4886 699 552.8484 696.4801 552.8484 693.1203 557.0481 688.9206 558.728 685.5608 561.2479 679.6811 562.9278 678.8412 564.6077 657.0024 565.4477 631.8039 564.6077 619.2046 565.4477 619.2046 567.9675 573.8472 567.9675 552.8484 567.9675 533.5295 567.9675 510.0108 567.9675 510.0108 569.6474 490.6919 570.4874 490.6919 568.8075 480.6125 568.8075 480.6125 567.9675 468.0132 567.9675 468.0132 571.3273 464.6534 572.1673 464.6534 575.5271 461.2936 575.5271 461.2936 578.0469 460.4537 578.8869 452.8941 573.8472 451.2142 572.1673 453.7341 568.8075 456.2539 568.8075 459.6137 559.568 462.1336 551.1685 460.4537 532.6895 460.4537 515.0505 Z" id="US.CA.071" fill="#cee3f5" stroke="#6e6e6e" stroke-width="0.4">
      <desc>
        <name>San Bernardino County</name>
        <stateAbbrev>CA</stateAbbrev>
        <state>California</state>
        <fips>071</fips>
        <incits>06071</incits>
        <id>US.CA.071</id>
        <population>2088371</population>
      </desc>
    </path>
    <path d="M 255.5054 503.2912 260.5451 505.8111 264.7449 504.1312 269.7846 503.2912 273.9844 504.1312 278.1841 505.8111 283.2238 509.1709 283.2238 507.491 282.3839 504.9711 280.704 503.2912 283.2238 501.6113 290.7834 500.7714 291.6233 498.2515 293.3032 496.5716 296.6631 494.8917 299.1829 496.5716 302.5427 497.4116 303.3827 498.2515 308.4224 499.0915 310.1023 499.9314 312.6221 500.7714 314.302 502.4513 320.1817 504.9711 325.2214 504.9711 329.4212 506.651 334.4609 510.0108 338.6606 509.1709 340.3406 509.1709 341.1805 539.4091 340.3406 543.6089 338.6606 545.2888 336.9807 548.6486 331.1011 546.1288 326.9013 545.2888 322.7016 547.8087 316.8219 546.1288 314.302 546.1288 310.1023 546.1288 308.4224 545.2888 300.0229 542.769 296.6631 542.769 294.1432 541.929 284.0638 541.929 278.1841 542.769 273.1444 543.6089 269.7846 542.769 268.1047 541.929 265.5848 537.7292 263.065 536.0493 259.7052 536.0493 257.1853 535.2094 255.5054 531.8496 255.5054 528.4898 258.0253 523.4501 255.5054 520.0903 258.0253 514.2106 254.6655 512.5307 253.8255 510.0108 253.8255 506.651 255.5054 503.2912 Z" id="US.CA.083" fill="#cee3f5" stroke="#6e6e6e" stroke-width="0.4">
      <desc>
        <name>Santa Barbara County</name>
        <stateAbbrev>CA</stateAbbrev>
        <state>California</state>
        <fips>083</fips>
        <incits>06083</incits>
        <id>US.CA.083</id>
        <population>435697</population>
      </desc>
    </path>
    <path d="M 207.6282 233.6667 210.988 231.1468 214.3478 229.4669 216.8676 230.3069 221.0674 231.9868 222.7473 231.9868 226.1071 230.3069 228.627 231.9868 232.8267 231.9868 236.1865 227.787 237.8664 224.4272 242.9061 221.0674 244.586 221.0674 245.426 218.5475 248.7858 217.7076 253.8255 213.5078 259.7052 211.8279 302.5427 211.8279 303.3827 228.627 293.3032 228.627 290.7834 231.1468 286.5836 231.1468 280.704 231.1468 273.9844 231.1468 271.4645 234.5066 269.7846 237.0265 265.5848 238.7064 262.225 237.0265 258.8652 236.1865 253.8255 232.8267 252.1456 232.8267 247.1059 233.6667 244.586 236.1865 239.5463 235.3466 238.7064 237.0265 231.9868 239.5463 231.9868 242.9061 229.4669 244.586 226.1071 252.1456 203.4284 251.3057 204.2684 249.6258 204.2684 237.8664 207.6282 237.8664 207.6282 233.6667 Z" id="US.CA.061" fill="#cee3f5" stroke="#6e6e6e" stroke-width="0.4">
      <desc>
        <name>Placer County</name>
        <stateAbbrev>CA</stateAbbrev>
        <state>California</state>
        <fips>061</fips>
        <incits>06061</incits>
        <id>US.CA.061</id>
        <population>367309</population>
      </desc>
    </path>
    <path d="M 134.5523 85.8351 152.1913 85.8351 185.7894 85.8351 205.9483 85.8351 213.5078 85.8351 213.5078 104.3141 214.3478 104.3141 214.3478 109.3538 213.5078 132.0325 213.5078 135.3923 202.5884 135.3923 197.5487 135.3923 195.0289 137.0722 187.4693 135.3923 181.5897 135.3923 176.5499 136.2323 172.3502 137.9122 168.1504 137.0722 161.4308 137.9122 159.7509 138.7521 153.0313 139.5921 147.1516 140.432 137.9122 140.432 132.8724 139.5921 129.5126 140.432 124.4729 143.7918 117.7533 141.272 111.0337 142.1119 109.3538 142.1119 105.994 144.6318 102.6342 144.6318 96.7545 146.3117 95.9146 142.1119 97.5945 142.1119 100.9543 137.0722 105.154 137.0722 107.6739 135.3923 111.0337 132.0325 114.3935 131.1925 116.0734 127.8327 119.4332 126.9928 121.1131 126.9928 120.2732 122.793 118.5933 120.2732 120.2732 116.9134 119.4332 116.0734 123.633 112.7136 123.633 110.1937 125.3129 108.5138 127.8327 105.154 126.9928 100.9543 128.6727 99.2744 132.0325 97.5945 132.8724 94.2347 132.8724 92.5548 137.9122 90.8748 137.9122 87.515 134.5523 85.8351 Z" id="US.CA.089" fill="#cee3f5" stroke="#6e6e6e" stroke-width="0.4">
      <desc>
        <name>Shasta County</name>
        <stateAbbrev>CA</stateAbbrev>
        <state>California</state>
        <fips>089</fips>
        <incits>06089</incits>
        <id>US.CA.089</id>
        <population>178980</population>
      </desc>
    </path>
    <path d="M 140.432 289.9434 154.7112 289.9434 153.8712 287.4236 154.7112 285.7437 153.8712 284.0638 154.7112 279.0241 163.9507 279.0241 163.1107 276.5042 159.7509 271.4645 161.4308 265.5848 164.7906 265.5848 167.3105 267.2647 172.3502 264.7449 177.3899 263.9049 180.7497 264.7449 184.9495 263.9049 189.1492 264.7449 189.1492 279.0241 195.8688 279.0241 195.0289 280.704 195.0289 285.7437 194.1889 287.4236 190.8291 288.2635 189.1492 289.9434 187.4693 294.9832 185.7894 294.9832 181.5897 296.6631 179.0698 294.9832 177.3899 295.8231 175.71 297.503 173.1901 297.503 165.6306 295.8231 158.911 298.343 155.5511 296.6631 144.6318 295.8231 140.432 289.9434 Z" id="US.CA.095" fill="#cee3f5" stroke="#6e6e6e" stroke-width="0.4">
      <desc>
        <name>Solano County</name>
        <stateAbbrev>CA</stateAbbrev>
        <state>California</state>
        <fips>095</fips>
        <incits>06095</incits>
        <id>US.CA.095</id>
        <population>424788</population>
      </desc>
    </path>
    <path d="M 204.2684 335.3008 218.5475 324.3815 220.2274 321.8616 225.2671 320.1817 229.4669 317.6619 233.6667 317.6619 236.1865 316.8219 238.7064 318.5018 241.2262 317.6619 240.3863 308.4224 240.3863 294.9832 258.8652 311.7822 277.3442 325.2214 237.0265 341.1805 237.0265 344.5403 236.1865 346.2202 220.2274 358.8195 219.3875 357.1396 213.5078 356.2996 210.988 355.4597 208.4681 357.1396 206.7882 352.9398 205.1083 351.2599 205.1083 348.7401 208.4681 347.0602 206.7882 343.7004 207.6282 342.0205 205.1083 341.1805 204.2684 338.6606 203.4284 336.9807 204.2684 335.3008 Z" id="US.CA.099" fill="#cee3f5" stroke="#6e6e6e" stroke-width="0.4">
      <desc>
        <name>Stanislaus County</name>
        <stateAbbrev>CA</stateAbbrev>
        <state>California</state>
        <fips>099</fips>
        <incits>06099</incits>
        <id>US.CA.099</id>
        <population>525491</population>
      </desc>
    </path>
    <path d="M 566.2876 663.722 566.2876 650.2828 566.2876 632.6438 567.9675 632.6438 567.1276 609.1252 583.9266 609.1252 609.1252 609.1252 636.8436 609.1252 651.9627 609.1252 665.4019 608.2852 664.562 609.9651 661.2022 609.9651 659.5223 610.8051 661.2022 613.3249 660.3622 615.8448 658.6823 617.5247 659.5223 618.3646 662.0421 619.2046 661.2022 621.7244 662.8821 622.5644 662.0421 626.7641 660.3622 631.8039 666.2419 636.0036 669.6017 635.1637 672.9615 636.0036 674.6414 637.6835 675.4813 641.8833 677.1613 644.4031 676.3213 648.6029 672.1215 651.9627 672.1215 654.4826 666.2419 656.1625 660.3622 655.3225 659.5223 657.0024 628.444 658.6823 592.3261 661.2022 566.2876 663.722 Z" id="US.CA.025" fill="#cee3f5" stroke="#6e6e6e" stroke-width="0.4">
      <desc>
        <name>Imperial County</name>
        <stateAbbrev>CA</stateAbbrev>
        <state>California</state>
        <fips>025</fips>
        <incits>06025</incits>
        <id>US.CA.025</id>
        <population>176584</population>
      </desc>
    </path>
  </g>
</svg>