<?xml version="1.0" encoding="UTF-8"?>
<svg xmlns="http://www.w3.org/2000/svg" width="700" height="700">
  <g id="kazakhstan">
    <path d="M 299.9206 353.6075 303.9033 359.5536 280.6375 374.6233 273.9349 373.2324 263.8376 361.7749 254.7489 362.7099 245.1374 376.4367 241.2606 376.1756 239.1006 380.2358 230.7183 383.7675 216.9051 398.6378 215.9231 414.4232 206.9739 409.4434 175.8068 417.856 175.8062 417.8498 175.7974 417.7492 172.9627 401.0334 171.8005 398.2438 170.9245 396.7503 170.5536 395.3972 170.1704 394.338 168.7716 392.5057 168.3494 390.2674 155.0643 385.9209 151.6043 383.0926 149.4743 380.3761 146.5831 375.3061 146.6555 372.1816 147.8653 364.6145 147.6605 362.0716 146.1681 356.638 144.4531 354.9265 143.2168 340.6772 141.6802 340.5647 140.3467 339.2331 139.4071 339.0893 138.7077 339.5157 137.9677 340.5488 137.1005 342.5142 130.7635 341.2146 130.9348 337.2997 130.4473 334.8568 129.1757 332.1597 127.9164 333.694 127.1199 332.6897 125.14 331.8276 123.9531 330.9074 124.6402 324.7476 134.5378 320.5897 137.2824 316.9295 138.9568 312.1002 136.228 304.7909 138.8592 300.9283 141.0938 299.3107 140.4439 292.9375 138.1319 291.9785 140.4439 289.7346 157.9043 300.9389 171.8888 288.7103 175.4777 291.0563 175.951 288.7232 183.4431 288.1019 188.7947 293.5514 193.1483 292.419 193.9413 287.6563 200.757 289.1137 203.1625 286.9698 208.0601 289.8321 209.2452 295.0961 222.4597 298.6686 223.915 302.1821 228.9204 300.201 232.4333 293.6515 237.2037 297.465 244.3479 298.1842 255.5172 295.2637 260.2022 284.4089 264.0814 283.6689 266.7624 288.8884 271.2697 289.4645 271.6088 297.2093 281.4517 312.2599 281.8509 315.0928 276.6813 316.0292 273.9861 323.467 271.0171 324.1787 274.5354 329.9428 270.9907 330.8714 277.6032 337.6617 283.8643 337.9968 283.8431 341.7609 294.6397 346.6372 299.9206 353.6075 Z" id="KZ.AT" fill="#cee3f5" stroke="#6e6e6e" stroke-width="0.4">
      <desc>
        <labelrank>6</labelrank>
        <code_hasc>KZ.AT</code_hasc>
        <name>Aqtöbe</name>
        <admin>Kazakhstan</admin>
        <type_en>Region</type_en>
        <region/>
        <woe_id>2345980</woe_id>
        <longitude>58</longitude>
        <woe_name>Aqtöbe</woe_name>
        <fips>KZ04</fips>
        <woe_label>Aqtobe, KZ, Kazakhstan</woe_label>
        <latitude>48</latitude>
        <iso_a2>KZ</iso_a2>
        <postal>AT</postal>
        <type>Oblasy</type>
        <id>KZ.AT</id>
      </desc>
    </path>
    <path d="M 336.2732 206.3614 338.508 214.3789 336.5175 215.1182 340.9576 218.958 334.9403 221.5035 338.5468 227.3489 336.6517 231.1873 342.7026 241.4315 336.4115 244.4299 335.5072 258.435 332.2186 270.0666 324.8643 274.6269 328.5273 277.7442 326.1147 284.4356 329.8325 295.0089 335.6309 292.6731 342.7538 297.9275 353.8207 298.9665 357.4007 305.3685 370.4316 301.4887 373.4429 303.5889 372.3761 305.3917 364.6032 308.5716 360.6664 316.4992 345.2018 329.8074 330.0709 338.0212 313.0927 338.4922 309.0711 342.601 309.7758 345.924 304.1294 348.1165 299.9206 353.6075 294.6397 346.6372 283.8431 341.7609 283.8643 337.9968 277.6032 337.6617 270.9907 330.8714 274.5354 329.9428 271.0171 324.1787 273.9861 323.467 276.6813 316.0292 281.8509 315.0928 281.4517 312.2599 271.6088 297.2093 271.2697 289.4645 266.7624 288.8884 264.0814 283.6689 260.2022 284.4089 248.0887 276.5118 238.493 275.3432 239.7947 272.0875 231.8257 268.7375 249.8407 259.976 243.5637 252.2225 250.1568 246.4518 248.7245 245.3171 267.8566 244.8258 267.113 241.7621 251.9389 237.7157 253.1788 232.9731 256.2042 234.5395 258.6486 232.9105 257.7549 230.9704 247.112 229.9483 252.5606 226.1103 249.0918 222.7338 252.7602 223.5241 254.929 219.8796 266.3094 222.9541 266.2917 220.9535 273.2999 220.7366 275.2233 224.3624 276.9983 219.6917 295.446 215.4804 298.6728 216.8035 300.5016 213.8498 310.311 212.2992 320.6616 214.0687 320.9001 209.2197 325.1998 206.5905 330.2272 207.2195 333.454 204.8147 336.2732 206.3614 Z" id="KZ.QS" fill="#cee3f5" stroke="#6e6e6e" stroke-width="0.4">
      <desc>
        <labelrank>6</labelrank>
        <code_hasc>KZ.QS</code_hasc>
        <name>Qostanay</name>
        <admin>Kazakhstan</admin>
        <type_en>Region</type_en>
        <region/>
        <woe_id>20070176</woe_id>
        <longitude>64</longitude>
        <woe_name>Qostanay</woe_name>
        <fips>KZ13</fips>
        <woe_label>Qostanay, KZ, Kazakhstan</woe_label>
        <latitude>51</latitude>
        <iso_a2>KZ</iso_a2>
        <postal>QS</postal>
        <type>Oblasy</type>
        <id>KZ.QS</id>
      </desc>
    </path>
    <path d="M 280.6375 374.6233 277.393 377.5578 282.4884 376.864 296.8033 381.4193 326.966 393.8325 355.926 398.8287 356.4028 400.9508 359.1439 406.4739 356.6837 415.918 361.8338 419.7644 362.0687 435.7942 372.2366 442.8594 364.476 455.5891 368.2892 459.0511 337.752 476.4681 334.8272 476.0569 336.3329 463.3075 331.1033 465.6489 326.347 456.9425 316.1968 448.162 307.7173 451.7478 286.8906 450.0724 266.6935 453.1299 249.7789 434.2749 215.9231 414.4232 216.9051 398.6378 230.7183 383.7675 239.1006 380.2358 241.2606 376.1756 245.1374 376.4367 254.7489 362.7099 263.8376 361.7749 273.9349 373.2324 280.6375 374.6233 Z M 289.8966 409.2924 296.9446 406.7239 299.8632 400.5098 296.9446 394.2766 289.8966 391.6892 282.8487 394.2766 279.9292 400.5098 282.8487 406.7239 289.8966 409.2924 Z" id="KZ.QO" fill="#cee3f5" stroke="#6e6e6e" stroke-width="0.4">
      <desc>
        <labelrank>6</labelrank>
        <code_hasc>KZ.QO</code_hasc>
        <name>Qyzylorda</name>
        <admin>Kazakhstan</admin>
        <type_en>Region</type_en>
        <region/>
        <woe_id>2345990</woe_id>
        <longitude>63</longitude>
        <woe_name>Qyzylorda</woe_name>
        <fips>KZ14</fips>
        <woe_label>Qyzylorda, KZ, Kazakhstan</woe_label>
        <latitude>44</latitude>
        <iso_a2>KZ</iso_a2>
        <postal>QO</postal>
        <type>Oblasy</type>
        <id>KZ.QO</id>
      </desc>
    </path>
    <path d="M 171.8005 398.2438 169.9319 397.4698 167.7578 397.048 165.9792 397.1562 160.8361 395.0236 154.7746 389.7686 150.8396 392.6496 128.667 396.0416 121.6094 403.7632 110.0881 405.004 115.1269 394.2281 112.4206 389.6797 115.9446 386.0027 113.3357 380.7827 103.1503 378.5678 97.283 382.6281 95.6823 379.9514 90.9832 380.1706 89.8942 377.3624 88.3923 378.8679 81.9034 375.9832 71.7096 379.9812 70.9072 382.2768 68.5333 380.8195 58.0614 388.481 54.7321 387.5707 53.9867 389.3733 52.1092 387.3226 52.5153 389.3576 49.3112 387.4685 50.4404 391.5066 47.9108 389.973 47.9745 393.0379 34.7816 385.8959 36.5178 383.7253 40.0607 385.4222 44.2006 383.5668 35.9773 369.7251 27.7646 361.9221 16.9592 360.4824 16.0619 363.7994 12.8969 361.9041 11.2014 352.4288 51.4764 358.2557 51.8985 356.6031 59.6591 356.0125 84.5922 342.3967 104.3327 348.0407 110.9682 335.3001 119.8644 335.087 120.6468 333.6256 123.9531 330.9074 127.1199 332.6897 127.9164 333.694 129.1757 332.1597 130.4473 334.8568 130.9348 337.2997 130.7635 341.2146 137.1005 342.5142 137.9677 340.5488 138.7077 339.5157 139.4071 339.0893 140.3467 339.2331 141.6802 340.5647 143.2168 340.6772 144.4531 354.9265 146.1681 356.638 147.6605 362.0716 147.8653 364.6145 146.6555 372.1816 146.5831 375.3061 149.4743 380.3761 151.6043 383.0926 155.0643 385.9209 168.3494 390.2674 168.7716 392.5057 170.1704 394.338 170.5536 395.3972 170.9245 396.7503 171.8005 398.2438 Z" id="KZ.AR" fill="#cee3f5" stroke="#6e6e6e" stroke-width="0.4">
      <desc>
        <labelrank>6</labelrank>
        <code_hasc>KZ.AR</code_hasc>
        <name>Atyrau</name>
        <admin>Kazakhstan</admin>
        <type_en>Region</type_en>
        <region/>
        <woe_id>2345986</woe_id>
        <longitude>51</longitude>
        <woe_name>Atyrau</woe_name>
        <fips>KZ06</fips>
        <woe_label>Atyrau, KZ, Kazakhstan</woe_label>
        <latitude>47</latitude>
        <iso_a2>KZ</iso_a2>
        <postal>AR</postal>
        <type>Oblasy</type>
        <id>KZ.AR</id>
      </desc>
    </path>
    <path d="M 138.8592 300.9283 136.228 304.7909 138.9568 312.1002 137.2824 316.9295 134.5378 320.5897 124.6402 324.7476 123.9531 330.9074 120.6468 333.6256 119.8644 335.087 110.9682 335.3001 104.3327 348.0407 84.5922 342.3967 59.6591 356.0125 51.4764 358.2557 42.5131 355.5959 11.8316 351.6181 1 347.9337 5.7086 336.8729 10.2724 332.842 6.0725 327.6318 8.5928 315.8905 15.5303 311.1716 15.1391 306.2108 20.1568 302.6747 31.0938 315.8145 34.3507 317.0411 40.4122 314.2854 41.9417 311.242 36.7156 298.5466 41.1955 299.457 51.0728 293.7819 51.5532 287.8222 57.4063 288.0517 66.7423 283.4968 71.1224 275.9628 74.6936 276.8273 74.2892 273.1374 84.6266 276.0927 83.4697 279.6823 88.2561 278.2451 90.1185 280.0806 93.1236 275.1033 100.6193 272.7924 104.6868 279.9574 119.4087 279.3977 123.9637 285.3897 128.441 286.165 137.7151 293.6643 136.092 299.3699 138.8592 300.9283 Z" id="KZ.WK" fill="#cee3f5" stroke="#6e6e6e" stroke-width="0.4">
      <desc>
        <labelrank>4</labelrank>
        <code_hasc>KZ.WK</code_hasc>
        <name>West Kazakhstan</name>
        <admin>Kazakhstan</admin>
        <type_en>Region</type_en>
        <region/>
        <woe_id>2345998</woe_id>
        <longitude>50</longitude>
        <woe_name>West Kazakhstan</woe_name>
        <fips>KZ07</fips>
        <woe_label>Batys Qazaqstan, KZ, Kazakhstan</woe_label>
        <latitude>49</latitude>
        <iso_a2>KZ</iso_a2>
        <postal>WK</postal>
        <type>Oblasy</type>
        <id>KZ.WK</id>
      </desc>
    </path>
    <path d="M 470.7626 254.6289 472.2073 269.7817 468.5143 276.2344 475.9887 278.1928 466.4231 284.5602 459.2048 284.5064 460.4022 288.4068 464.6411 288.1627 455.4375 293.8705 452.5216 293.3173 441.8433 303.5194 434.6832 303.9028 436.1156 298.2353 430.923 295.736 419.1974 303.531 418.2154 307.9562 414.4782 307.5476 413.4573 311.1763 407.931 313.0883 407.1803 307.8505 400.0521 308.9453 395.672 305.1834 390.4988 309.7543 382.8089 308.6247 385.7902 297.136 382.0759 295.914 369.3136 299.0553 370.4316 301.4887 357.4007 305.3685 353.8207 298.9665 342.7538 297.9275 335.6309 292.6731 329.8325 295.0089 326.1147 284.4356 328.5273 277.7442 324.8643 274.6269 332.2186 270.0666 335.5072 258.435 354.2198 262.8779 359.4301 262.2651 361.4877 258.5762 369.2288 261.6141 372.6251 258.3364 371.2917 255.907 383.367 249.3079 384.5468 242.0699 378.7326 235.3553 381.343 232.246 389.7924 229.1265 394.3491 233.0008 394.4445 230.1677 400.1828 228.6675 402.4382 233.3619 406.3856 233.5351 404.8914 236.2332 412.1115 239.1035 414.4446 235.4845 421.066 235.0602 425.402 237.9396 430.4426 235.8414 434.1463 240.0898 433.491 245.9936 441.2181 246.7983 451.4848 243.6943 453.5848 250.1546 470.7626 254.6289 Z M 428.0703 290.9309 430.4229 286.7387 426.5019 283.4415 424.3198 286.829 428.0703 290.9309 Z" id="KZ.AM" fill="#cee3f5" stroke="#6e6e6e" stroke-width="0.4">
      <desc>
        <labelrank>4</labelrank>
        <code_hasc>KZ.AM</code_hasc>
        <name>Aqmola</name>
        <admin>Kazakhstan</admin>
        <type_en>Region</type_en>
        <region/>
        <woe_id>2345996</woe_id>
        <longitude>69</longitude>
        <woe_name>Aqmola</woe_name>
        <fips>KZ03</fips>
        <woe_label>Aqmola, KZ, Kazakhstan</woe_label>
        <latitude>51</latitude>
        <iso_a2>KZ</iso_a2>
        <postal>AM</postal>
        <type>Oblasy</type>
        <id>KZ.AM</id>
      </desc>
    </path>
    <path d="M 466.4231 284.5602 472.7708 288.4762 470.8633 298.3747 482.5942 299.9457 491.1672 307.7037 486.5187 310.8209 487.5466 312.3066 517.545 306.8088 522.2378 298.5739 533.2393 302.4881 535.1026 308.2758 525.8955 315.0404 525.4699 320.7039 516.2575 327.1936 523.3752 333.8058 520.6694 338.0076 528.7532 339.0211 528.9598 341.277 521.3247 348.5308 529.5727 355.3546 523.8061 365.051 525.3127 369.3282 520.4663 373.3084 527.0947 376.6733 532.5063 374.8182 532.826 385.5744 525.3074 388.3482 519.8481 385.2523 521.473 388.0565 517.8347 385.4033 514.3801 386.9102 495.2842 385.4944 484.3321 391.5032 474.4628 400.9893 388.7874 401.3939 356.4028 400.9508 355.926 398.8287 326.966 393.8325 296.8033 381.4193 282.4884 376.864 277.393 377.5578 280.6375 374.6233 303.9033 359.5536 299.9206 353.6075 304.1294 348.1165 309.7758 345.924 309.0711 342.601 313.0927 338.4922 330.0709 338.0212 345.2018 329.8074 360.6664 316.4992 364.6032 308.5716 372.3761 305.3917 373.4429 303.5889 370.4316 301.4887 369.3136 299.0553 382.0759 295.914 385.7902 297.136 382.8089 308.6247 390.4988 309.7543 395.672 305.1834 400.0521 308.9453 407.1803 307.8505 407.931 313.0883 413.4573 311.1763 414.4782 307.5476 418.2154 307.9562 419.1974 303.531 430.923 295.736 436.1156 298.2353 434.6832 303.9028 441.8433 303.5194 452.5216 293.3173 455.4375 293.8705 464.6411 288.1627 460.4022 288.4068 459.2048 284.5064 466.4231 284.5602 Z" id="KZ.QG" fill="#cee3f5" stroke="#6e6e6e" stroke-width="0.4">
      <desc>
        <labelrank>4</labelrank>
        <code_hasc>KZ.QG</code_hasc>
        <name>Qaraghandy</name>
        <admin>Kazakhstan</admin>
        <type_en>Region</type_en>
        <region/>
        <woe_id>20070178</woe_id>
        <longitude>70</longitude>
        <woe_name>Qaraghandy</woe_name>
        <fips>KZ12</fips>
        <woe_label>Qaraghandy, KZ, Kazakhstan</woe_label>
        <latitude>48</latitude>
        <iso_a2>KZ</iso_a2>
        <postal>QG</postal>
        <type>Oblasy</type>
        <id>KZ.QG</id>
      </desc>
    </path>
    <path d="M 461.9257 234.2416 462.5287 241.6729 467.361 240.1899 463.4701 246.0092 465.9198 245.7062 465.2433 248.6219 471.8523 248.0102 469.7347 252.9911 466.8029 251.1403 470.7626 254.6289 453.5848 250.1546 451.4848 243.6943 441.2181 246.7983 433.491 245.9936 434.1463 240.0898 430.4426 235.8414 425.402 237.9396 421.066 235.0602 414.4446 235.4845 412.1115 239.1035 404.8914 236.2332 406.3856 233.5351 402.4382 233.3619 400.1828 228.6675 394.4445 230.1677 394.3491 233.0008 389.7924 229.1265 381.343 232.246 378.7326 235.3553 384.5468 242.0699 383.367 249.3079 371.2917 255.907 372.6251 258.3364 369.2288 261.6141 361.4877 258.5762 359.4301 262.2651 354.2198 262.8779 335.5072 258.435 336.4115 244.4299 342.7026 241.4315 336.6517 231.1873 338.5468 227.3489 334.9403 221.5035 340.9576 218.958 336.5175 215.1182 338.508 214.3789 336.2732 206.3614 371.6175 198.8045 374.046 196.032 371.8065 193.7067 379.1238 193.1098 380.7522 189.1777 385.3663 191.1307 384.6263 187.4287 389.0497 190.0065 397.3842 189.8092 406.609 194.6244 410.4963 191.0185 416.2452 190.454 420.1485 203.118 424.5692 205.7804 423.3037 213.8862 419.548 214.1964 422.5019 218.6935 425.5247 216.6419 431.1067 218.8136 433.076 215.546 439.7857 218.3489 437.8729 212.477 445.388 218.179 443.8373 223.5108 449.1005 222.3537 445.7324 220.1682 447.8023 218.1936 460.381 222.804 466.8806 220.0021 465.8933 224.3092 461.6032 224.5123 457.9896 229.7084 461.9257 234.2416 Z" id="KZ.NK" fill="#cee3f5" stroke="#6e6e6e" stroke-width="0.4">
      <desc>
        <labelrank>4</labelrank>
        <code_hasc>KZ.NK</code_hasc>
        <name>North Kazakhstan</name>
        <admin>Kazakhstan</admin>
        <type_en>Region</type_en>
        <region/>
        <woe_id>20070174</woe_id>
        <longitude>69</longitude>
        <woe_name>North Kazakhstan</woe_name>
        <fips>KZ16</fips>
        <woe_label>Soltustik Qazaqstan, KZ, Kazakhstan</woe_label>
        <latitude>54</latitude>
        <iso_a2>KZ</iso_a2>
        <postal>NK</postal>
        <type>Oblasy</type>
        <id>KZ.NK</id>
      </desc>
    </path>
    <path d="M 561.957 274.8004 552.6213 283.6466 541.4997 288.3274 551.4326 297.0954 553.6845 304.9495 551.1324 309.3212 547.7466 312.1936 535.1026 308.2758 533.2393 302.4881 522.2378 298.5739 517.545 306.8088 487.5466 312.3066 486.5187 310.8209 491.1672 307.7037 482.5942 299.9457 470.8633 298.3747 472.7708 288.4762 466.4231 284.5602 475.9887 278.1928 468.5143 276.2344 472.2073 269.7817 470.7626 254.6289 466.8029 251.1403 469.7347 252.9911 471.8523 248.0102 465.2433 248.6219 465.9198 245.7062 463.4701 246.0092 467.361 240.1899 462.5287 241.6729 461.9257 234.2416 469.6746 229.8 477.9492 233.9237 478.8058 229.0004 484.5052 225.3212 488.8783 225.8578 495.8176 221.6767 495.7363 219.2478 520.8001 210.4536 516.8474 218.2154 511.9268 217.7408 513.9526 221.5411 537.3915 238.3386 561.957 274.8004 Z" id="KZ.PA" fill="#cee3f5" stroke="#6e6e6e" stroke-width="0.4">
      <desc>
        <labelrank>6</labelrank>
        <code_hasc>KZ.PA</code_hasc>
        <name>Pavlodar</name>
        <admin>Kazakhstan</admin>
        <type_en>Region</type_en>
        <region/>
        <woe_id>2345993</woe_id>
        <longitude>76</longitude>
        <woe_name>Pavlodar</woe_name>
        <fips>KZ11</fips>
        <woe_label>Pavlodar, KZ, Kazakhstan</woe_label>
        <latitude>52</latitude>
        <iso_a2>KZ</iso_a2>
        <postal>PA</postal>
        <type>Oblasy</type>
        <id>KZ.PA</id>
      </desc>
    </path>
    <path d="M 613.1005 409.532 610.1597 408.8285 606.5443 398.6919 597.3125 389.4793 587.1659 387.3741 574.1651 381.1894 565.154 381.5668 562.0279 377.9235 553.4178 377.11 544.3715 372.0189 532.5063 374.8182 527.0947 376.6733 520.4663 373.3084 525.3127 369.3282 523.8061 365.051 529.5727 355.3546 521.3247 348.5308 528.9598 341.277 528.7532 339.0211 520.6694 338.0076 523.3752 333.8058 516.2575 327.1936 525.4699 320.7039 525.8955 315.0404 535.1026 308.2758 547.7466 312.1936 551.1324 309.3212 553.6845 304.9495 551.4326 297.0954 541.4997 288.3274 552.6213 283.6466 561.957 274.8004 574.785 295.9303 574.1085 293.9799 581.3481 291.3047 581.0567 286.1206 585.5127 283.5295 593.532 286.144 591.8144 291.3595 597.7832 291.2825 598.7988 296.4373 616.1541 296.8047 620.437 292.5997 632.5274 290.5257 641.3556 295.3102 646.4722 306.9927 659.0624 311.3055 658.5131 314.8751 663.1105 321.7971 669.7963 321.322 679.4069 324.7344 686.8055 317.3562 689.1668 317.6356 686.62 322.2904 699 333.0976 691.0655 332.6549 686.0345 345.3743 671.5704 349.0665 668.0964 358.6442 670.8922 372.655 667.8102 377.4747 663.1484 377.6961 654.8395 382.5843 653.5396 378.9412 640.5829 379.1546 625.4786 374.1469 613.1005 409.532 Z" id="KZ.EK" fill="#cee3f5" stroke="#6e6e6e" stroke-width="0.4">
      <desc>
        <labelrank>4</labelrank>
        <code_hasc>KZ.EK</code_hasc>
        <name>East Kazakhstan</name>
        <admin>Kazakhstan</admin>
        <type_en>Region</type_en>
        <region/>
        <woe_id>20070175</woe_id>
        <longitude>81</longitude>
        <woe_name>East Kazakhstan</woe_name>
        <fips>KZ15</fips>
        <woe_label>Shyghys Qazaqstan, KZ, Kazakhstan</woe_label>
        <latitude>48</latitude>
        <iso_a2>KZ</iso_a2>
        <postal>EK</postal>
        <type>Oblasy</type>
        <id>KZ.EK</id>
      </desc>
    </path>
    <path d="M 613.1005 409.532 618.8228 412.4766 617.2464 418.6652 612.2146 416.3765 607.1704 418.2247 602.302 413.9154 571.4222 423.3115 573.7041 425.633 582.2577 427.017 579.9263 428.5981 579.6366 439.7537 587.4043 460.0095 580.1365 462.5176 583.2202 465.6227 578.0877 466.9104 576.4505 470.1298 578.1018 479.5125 572.443 474.9949 564.0307 474.0644 559.2903 467.4318 521.8421 463.345 512.5662 465.4773 502.193 464.4162 494.1362 459.0629 495.7187 453.3826 488.7087 451.4212 493.9807 440.657 481.7465 433.644 480.5331 428.5464 468.1204 417.6387 472.9209 415.582 472.2762 404.8054 474.4628 400.9893 484.3321 391.5032 495.2842 385.4944 514.3801 386.9102 517.8347 385.4033 521.473 388.0565 519.8481 385.2523 525.3074 388.3482 532.826 385.5744 532.5063 374.8182 544.3715 372.0189 553.4178 377.11 562.0279 377.9235 565.154 381.5668 574.1651 381.1894 587.1659 387.3741 597.3125 389.4793 606.5443 398.6919 610.1597 408.8285 613.1005 409.532 Z M 519.9223 458.9214 522.6206 458.4746 522.5163 454.7828 519.9223 458.9214 Z" id="KZ.AA" fill="#cee3f5" stroke="#6e6e6e" stroke-width="0.4">
      <desc>
        <labelrank>6</labelrank>
        <code_hasc>KZ.AA</code_hasc>
        <name>Almaty</name>
        <admin>Kazakhstan</admin>
        <type_en>Region</type_en>
        <region/>
        <woe_id>20070180</woe_id>
        <longitude>78</longitude>
        <woe_name>Almaty</woe_name>
        <fips>KZ01</fips>
        <woe_label>Almaty, KZ, Kazakhstan</woe_label>
        <latitude>45</latitude>
        <iso_a2>KZ</iso_a2>
        <postal>AA</postal>
        <type>Oblasy</type>
        <id>KZ.AA</id>
      </desc>
    </path>
    <path d="M 61.6939 422.7389 64.0914 424.8636 60.9443 422.403 63.1207 419.5904 61.6939 422.7389 Z M 171.8005 398.2438 172.9627 401.0334 175.7974 417.7492 175.8062 417.8498 175.8068 417.856 174.5575 418.2072 172.9574 418.6576 169.7535 419.558 163.3441 421.3586 163.3017 421.3969 163.3459 497.593 157.4857 498.7622 150.5287 494.51 145.0377 485.112 131.6324 476.7829 112.0844 481.1207 102.8387 488.8665 102.2297 481.8213 106.9163 472.6446 104.9943 468.4387 107.5004 471.677 107.5421 468.6757 98.2509 465.4455 93.8633 466.3697 89.3964 459.1396 82.9825 459.9052 83.6487 453.5077 75.6592 438.334 65.2401 434.5581 66.5001 428.399 76.0986 429.1039 80.7199 432.1338 87.8458 431.5745 77.6284 424.1564 77.5755 421.726 82.9352 420.7582 85.3745 413.0254 87.5621 414.1926 91.2293 411.5976 94.3361 413.5051 116.7582 414.1486 107.9788 410.1473 110.0881 405.004 121.6094 403.7632 128.667 396.0416 150.8396 392.6496 154.7746 389.7686 160.8361 395.0236 165.9792 397.1562 167.7578 397.048 169.9319 397.4698 171.8005 398.2438 Z" id="KZ.MG" fill="#cee3f5" stroke="#6e6e6e" stroke-width="0.4">
      <desc>
        <labelrank>4</labelrank>
        <code_hasc>KZ.MG</code_hasc>
        <name>Mangghystau</name>
        <admin>Kazakhstan</admin>
        <type_en>Region</type_en>
        <region/>
        <woe_id>2345991</woe_id>
        <longitude>53</longitude>
        <woe_name>Mangghystau</woe_name>
        <fips>KZ09</fips>
        <woe_label>Mangghystau, KZ, Kazakhstan</woe_label>
        <latitude>44</latitude>
        <iso_a2>KZ</iso_a2>
        <postal>MG</postal>
        <type>Oblasy</type>
        <id>KZ.MG</id>
      </desc>
    </path>
    <path d="M 388.7874 401.3939 394.69 413.0509 401.4403 438.7266 394.9425 454.5471 397.3904 457.6298 404.7218 459.8616 408.4802 469.2885 418.1464 476.7628 419.1541 478.6232 413.3858 483.1578 409.0737 482.4429 401.4606 489.6037 386.487 496.5264 386.4022 499.895 378.5356 505.9004 379.2765 512.0761 376.6706 512.5713 368.6247 507.98 371.0241 503.5403 367.7108 500.0656 347.1278 500.9274 343.2174 483.8539 334.7504 483.6657 334.8272 476.0569 337.752 476.4681 368.2892 459.0511 364.476 455.5891 372.2366 442.8594 362.0687 435.7942 361.8338 419.7644 356.6837 415.918 359.1439 406.4739 356.4028 400.9508 388.7874 401.3939 Z" id="KZ.SK" fill="#cee3f5" stroke="#6e6e6e" stroke-width="0.4">
      <desc>
        <labelrank>4</labelrank>
        <code_hasc>KZ.SK</code_hasc>
        <name>South Kazakhstan</name>
        <admin>Kazakhstan</admin>
        <type_en>Region</type_en>
        <region/>
        <woe_id>2345982</woe_id>
        <longitude>68</longitude>
        <woe_name>South Kazakhstan</woe_name>
        <fips>KZ10</fips>
        <woe_label>Ongtustik Qazaqstan, KZ, Kazakhstan</woe_label>
        <latitude>42</latitude>
        <iso_a2>KZ</iso_a2>
        <postal>SK</postal>
        <type>Oblasy</type>
        <id>KZ.SK</id>
      </desc>
    </path>
    <path d="M 502.193 464.4162 499.4435 467.1193 491.4533 466.2186 474.3674 457.6803 463.9805 462.4459 461.2765 470.8119 462.8554 475.4376 434.5331 466.5413 424.2407 468.3379 418.1464 476.7628 408.4802 469.2885 404.7218 459.8616 397.3904 457.6298 394.9425 454.5471 401.4403 438.7266 394.69 413.0509 388.7874 401.3939 474.4628 400.9893 472.2762 404.8054 472.9209 415.582 468.1204 417.6387 480.5331 428.5464 481.7465 433.644 493.9807 440.657 488.7087 451.4212 495.7187 453.3826 494.1362 459.0629 502.193 464.4162 Z" id="KZ.ZM" fill="#cee3f5" stroke="#6e6e6e" stroke-width="0.4">
      <desc>
        <labelrank>4</labelrank>
        <code_hasc>KZ.ZM</code_hasc>
        <name>Zhambyl</name>
        <admin>Kazakhstan</admin>
        <type_en>Region</type_en>
        <region/>
        <woe_id>2345983</woe_id>
        <longitude>72</longitude>
        <woe_name>Zhambyl</woe_name>
        <fips>KZ17</fips>
        <woe_label>Zhambyl, KZ, Kazakhstan</woe_label>
        <latitude>44</latitude>
        <iso_a2>KZ</iso_a2>
        <postal>ZM</postal>
        <type>Oblasy</type>
        <id>KZ.ZM</id>
      </desc>
    </path>
    <path d="M 519.9223 458.9214 522.5163 454.7828 522.6206 458.4746 519.9223 458.9214 Z" id="KZ.AC" fill="#cee3f5" stroke="#6e6e6e" stroke-width="0.4">
      <desc>
        <labelrank>6</labelrank>
        <code_hasc>KZ.AC</code_hasc>
        <name>Almaty City</name>
        <admin>Kazakhstan</admin>
        <type_en>City</type_en>
        <region/>
        <woe_id>20070179</woe_id>
        <longitude>76</longitude>
        <woe_name>Almaty</woe_name>
        <fips>KZ02</fips>
        <woe_label>Almaty, KZ, Kazakhstan</woe_label>
        <latitude>43</latitude>
        <iso_a2>KZ</iso_a2>
        <postal>AC</postal>
        <type/>
        <id>KZ.AC</id>
      </desc>
    </path>
    <path d="M 428.0703 290.9309 424.3198 286.829 426.5019 283.4415 430.4229 286.7387 428.0703 290.9309 Z" id="KZ.AS" fill="#cee3f5" stroke="#6e6e6e" stroke-width="0.4">
      <desc>
        <labelrank>4</labelrank>
        <code_hasc>KZ.AS</code_hasc>
        <name>Astana</name>
        <admin>Kazakhstan</admin>
        <type_en>City</type_en>
        <region/>
        <woe_id>20070181</woe_id>
        <longitude>71</longitude>
        <woe_name>Astana</woe_name>
        <fips>KZ05</fips>
        <woe_label>Astana, KZ, Kazakhstan</woe_label>
        <latitude>51</latitude>
        <iso_a2>KZ</iso_a2>
        <postal>AS</postal>
        <type/>
        <id>KZ.AS</id>
      </desc>
    </path>
  </g>
</svg>