<?xml version="1.0" encoding="UTF-8"?>
<svg xmlns="http://www.w3.org/2000/svg" width="700" height="700">
  <g id="idaho">
    <path d="M 547.8445 493.5686 559.5167 493.5686 559.5167 484.2308 572.3562 484.2308 577.0251 479.5619 578.1923 467.8896 584.0284 466.7224 584.0284 458.5518 601.5368 458.5518 601.5368 444.5452 613.209 444.5452 610.8746 438.709 615.5435 431.7057 614.3763 429.3712 624.8813 423.5351 629.5502 425.8696 641.2224 436.3746 649.393 449.214 657.5635 451.5485 657.5635 500.5719 643.5569 505.2408 622.5468 506.408 613.209 505.2408 607.3729 509.9097 593.3662 508.7425 579.3595 508.7425 579.3595 506.408 565.3528 506.408 565.3528 501.7391 547.8445 501.7391 547.8445 493.5686 Z" id="US.ID.043" fill="#cee3f5" stroke="#6e6e6e" stroke-width="0.4">
      <desc>
        <name>Fremont County</name>
        <stateAbbrev>ID</stateAbbrev>
        <state>Idaho</state>
        <fips>043</fips>
        <incits>16043</incits>
        <id>US.ID.043</id>
        <population>12927</population>
      </desc>
    </path>
    <path d="M 511.6605 535.5886 558.3495 535.5886 600.3696 535.5886 622.5468 536.7559 638.888 536.7559 642.3896 543.7592 656.3963 546.0936 658.7308 548.4281 658.7308 596.2843 603.8712 596.2843 603.8712 570.6054 580.5268 570.6054 580.5268 562.4348 558.3495 561.2676 558.3495 557.7659 552.5134 555.4314 511.6605 556.5987 511.6605 535.5886 Z" id="US.ID.019" fill="#cee3f5" stroke="#6e6e6e" stroke-width="0.4">
      <desc>
        <name>Bonneville County</name>
        <stateAbbrev>ID</stateAbbrev>
        <state>Idaho</state>
        <fips>019</fips>
        <incits>16019</incits>
        <id>US.ID.019</id>
        <population>107517</population>
      </desc>
    </path>
    <path d="M 557.1823 596.2843 603.8712 596.2843 658.7308 596.2843 657.5635 646.4749 647.0585 649.9766 638.888 649.9766 641.2224 640.6388 634.2191 642.9732 627.2157 639.4716 602.704 639.4716 599.2023 640.6388 605.0385 654.6455 602.704 656.9799 574.6906 655.8127 574.6906 648.8094 571.189 645.3077 571.189 634.8027 566.5201 626.6321 557.1823 626.6321 550.1789 623.1304 551.3462 614.9599 549.0117 609.1237 550.1789 604.4548 558.3495 599.786 557.1823 596.2843 Z" id="US.ID.029" fill="#cee3f5" stroke="#6e6e6e" stroke-width="0.4">
      <desc>
        <name>Caribou County</name>
        <stateAbbrev>ID</stateAbbrev>
        <state>Idaho</state>
        <fips>029</fips>
        <incits>16029</incits>
        <id>US.ID.029</id>
        <population>6808</population>
      </desc>
    </path>
    <path d="M 657.5635 646.4749 657.5635 697.8328 612.0418 697.8328 610.8746 690.8294 603.8712 688.495 603.8712 683.8261 600.3696 677.99 606.2057 670.9866 603.8712 666.3177 607.3729 662.8161 602.704 656.9799 605.0385 654.6455 599.2023 640.6388 602.704 639.4716 627.2157 639.4716 634.2191 642.9732 641.2224 640.6388 638.888 649.9766 647.0585 649.9766 657.5635 646.4749 Z" id="US.ID.007" fill="#cee3f5" stroke="#6e6e6e" stroke-width="0.4">
      <desc>
        <name>Bear Lake County</name>
        <stateAbbrev>ID</stateAbbrev>
        <state>Idaho</state>
        <fips>007</fips>
        <incits>16007</incits>
        <id>US.ID.007</id>
        <population>5943</population>
      </desc>
    </path>
    <path d="M 622.5468 506.408 643.5569 505.2408 657.5635 500.5719 658.7308 548.4281 656.3963 546.0936 642.3896 543.7592 638.888 536.7559 622.5468 536.7559 622.5468 506.408 Z" id="US.ID.081" fill="#cee3f5" stroke="#6e6e6e" stroke-width="0.4">
      <desc>
        <name>Teton County</name>
        <stateAbbrev>ID</stateAbbrev>
        <state>Idaho</state>
        <fips>081</fips>
        <incits>16081</incits>
        <id>US.ID.081</id>
        <population>10275</population>
      </desc>
    </path>
    <path d="M 62.2793 16.1739 62.2793 1 160.3261 1 160.3261 51.1906 86.791 51.1906 86.791 16.1739 62.2793 16.1739 Z" id="US.ID.021" fill="#cee3f5" stroke="#6e6e6e" stroke-width="0.4">
      <desc>
        <name>Boundary County</name>
        <stateAbbrev>ID</stateAbbrev>
        <state>Idaho</state>
        <fips>021</fips>
        <incits>16021</incits>
        <id>US.ID.021</id>
        <population>10853</population>
      </desc>
    </path>
    <path d="M 61.112 102.5485 62.2793 64.0301 62.2793 16.1739 86.791 16.1739 86.791 51.1906 160.3261 51.1906 160.3261 102.5485 154.49 97.8796 148.6538 97.8796 141.6505 94.3779 132.3127 99.0468 132.3127 111.8863 114.8043 111.8863 114.8043 101.3813 101.9649 102.5485 61.112 102.5485 Z" id="US.ID.017" fill="#cee3f5" stroke="#6e6e6e" stroke-width="0.4">
      <desc>
        <name>Bonner County</name>
        <stateAbbrev>ID</stateAbbrev>
        <state>Idaho</state>
        <fips>017</fips>
        <incits>16017</incits>
        <id>US.ID.017</id>
        <population>40699</population>
      </desc>
    </path>
    <path d="M 61.112 102.5485 101.9649 102.5485 114.8043 101.3813 114.8043 111.8863 132.3127 111.8863 132.3127 158.5753 106.6338 158.5753 101.9649 163.2441 61.112 163.2441 61.112 102.5485 Z" id="US.ID.055" fill="#cee3f5" stroke="#6e6e6e" stroke-width="0.4">
      <desc>
        <name>Kootenai County</name>
        <stateAbbrev>ID</stateAbbrev>
        <state>Idaho</state>
        <fips>055</fips>
        <incits>16055</incits>
        <id>US.ID.055</id>
        <population>144265</population>
      </desc>
    </path>
    <path d="M 132.3127 158.5753 132.3127 111.8863 132.3127 99.0468 141.6505 94.3779 148.6538 97.8796 154.49 97.8796 160.3261 102.5485 174.3328 116.5552 180.1689 117.7224 182.5033 124.7258 193.0084 130.5619 190.6739 135.2308 195.3428 141.0669 194.1756 148.0702 195.3428 155.0736 190.6739 156.2408 209.3495 165.5786 211.6839 170.2475 230.3595 173.7492 235.0284 180.7525 244.3662 186.5886 253.704 194.7592 259.5401 202.9298 268.8779 206.4314 204.6806 207.5987 132.3127 206.4314 132.3127 198.2609 132.3127 158.5753 Z" id="US.ID.079" fill="#cee3f5" stroke="#6e6e6e" stroke-width="0.4">
      <desc>
        <name>Shoshone County</name>
        <stateAbbrev>ID</stateAbbrev>
        <state>Idaho</state>
        <fips>079</fips>
        <incits>16079</incits>
        <id>US.ID.079</id>
        <population>12690</population>
      </desc>
    </path>
    <path d="M 113.6371 518.0803 136.9816 518.0803 166.1622 539.0903 167.3294 539.0903 167.3294 561.2676 167.3294 586.9465 138.1488 586.9465 135.8144 586.9465 126.4766 578.7759 127.6438 575.2742 121.8077 569.4381 113.6371 569.4381 113.6371 553.097 118.306 553.097 118.306 535.5886 113.6371 535.5886 113.6371 518.0803 Z" id="US.ID.001" fill="#cee3f5" stroke="#6e6e6e" stroke-width="0.4">
      <desc>
        <name>Ada County</name>
        <stateAbbrev>ID</stateAbbrev>
        <state>Idaho</state>
        <fips>001</fips>
        <incits>16001</incits>
        <id>US.ID.001</id>
        <population>416464</population>
      </desc>
    </path>
    <path d="M 75.1187 415.3645 82.1221 406.0268 80.9548 396.689 92.6271 385.0167 96.1288 372.1773 131.1455 372.1773 136.9816 386.1839 150.9883 388.5184 155.6572 393.1873 150.9883 399.0234 153.3227 401.3579 146.3194 410.6957 143.9849 422.3679 148.6538 428.204 146.3194 438.709 148.6538 449.214 134.6472 455.0502 124.1421 455.0502 112.4699 449.214 112.4699 437.5418 103.1321 432.8729 103.1321 415.3645 75.1187 415.3645 Z" id="US.ID.003" fill="#cee3f5" stroke="#6e6e6e" stroke-width="0.4">
      <desc>
        <name>Adams County</name>
        <stateAbbrev>ID</stateAbbrev>
        <state>Idaho</state>
        <fips>003</fips>
        <incits>16003</incits>
        <id>US.ID.003</id>
        <population>3828</population>
      </desc>
    </path>
    <path d="M 488.3161 603.2876 489.4833 599.786 496.4866 596.2843 557.1823 596.2843 558.3495 599.786 550.1789 604.4548 549.0117 609.1237 551.3462 614.9599 550.1789 623.1304 557.1823 626.6321 566.5201 626.6321 571.189 634.8027 571.189 645.3077 574.6906 648.8094 574.6906 655.8127 573.5234 672.1538 564.1856 669.8194 551.3462 668.6522 544.3428 662.8161 533.8378 659.3144 533.8378 653.4783 520.9983 647.6421 524.5 635.9699 520.9983 630.1338 513.995 625.4649 511.6605 619.6288 511.6605 606.7893 503.49 600.9532 492.9849 604.4548 488.3161 603.2876 Z" id="US.ID.005" fill="#cee3f5" stroke="#6e6e6e" stroke-width="0.4">
      <desc>
        <name>Bannock County</name>
        <stateAbbrev>ID</stateAbbrev>
        <state>Idaho</state>
        <fips>005</fips>
        <incits>16005</incits>
        <id>US.ID.005</id>
        <population>83249</population>
      </desc>
    </path>
    <path d="M 61.112 163.2441 101.9649 163.2441 106.6338 158.5753 132.3127 158.5753 132.3127 198.2609 119.4732 195.9264 82.1221 197.0936 68.1154 188.9231 61.112 187.7559 61.112 163.2441 Z" id="US.ID.009" fill="#cee3f5" stroke="#6e6e6e" stroke-width="0.4">
      <desc>
        <name>Benewah County</name>
        <stateAbbrev>ID</stateAbbrev>
        <state>Idaho</state>
        <fips>009</fips>
        <incits>16009</incits>
        <id>US.ID.009</id>
        <population>9044</population>
      </desc>
    </path>
    <path d="M 462.6371 586.9465 462.6371 569.4381 468.4732 569.4381 469.6405 554.2642 482.4799 554.2642 481.3127 544.9264 494.1522 544.9264 494.1522 536.7559 511.6605 535.5886 511.6605 556.5987 552.5134 555.4314 558.3495 557.7659 558.3495 561.2676 580.5268 562.4348 580.5268 570.6054 603.8712 570.6054 603.8712 596.2843 557.1823 596.2843 496.4866 596.2843 489.4833 599.786 488.3161 603.2876 482.4799 611.4582 462.6371 612.6254 462.6371 586.9465 Z" id="US.ID.011" fill="#cee3f5" stroke="#6e6e6e" stroke-width="0.4">
      <desc>
        <name>Bingham County</name>
        <stateAbbrev>ID</stateAbbrev>
        <state>Idaho</state>
        <fips>011</fips>
        <incits>16011</incits>
        <id>US.ID.011</id>
        <population>45290</population>
      </desc>
    </path>
    <path d="M 267.7107 505.2408 277.0485 499.4047 282.8846 499.4047 282.8846 506.408 295.7241 506.408 303.8946 509.9097 313.2324 508.7425 336.5769 511.0769 336.5769 515.7458 356.4197 525.0836 363.4231 521.5819 366.9247 527.4181 376.2625 533.2542 384.4331 541.4247 391.4365 539.0903 400.7742 553.097 400.7742 561.2676 427.6204 561.2676 427.6204 569.4381 462.6371 569.4381 462.6371 586.9465 439.2926 586.9465 440.4599 621.9632 446.296 621.9632 446.296 631.301 441.6271 634.8027 433.4565 634.8027 427.6204 630.1338 415.9482 631.301 417.1154 613.7926 422.9515 613.7926 422.9515 578.7759 392.6037 578.7759 326.0719 578.7759 323.7375 565.9365 310.898 565.9365 308.5635 548.4281 305.0619 542.592 295.7241 539.0903 298.0585 533.2542 293.3896 518.0803 288.7207 519.2475 265.3763 513.4114 267.7107 505.2408 Z" id="US.ID.013" fill="#cee3f5" stroke="#6e6e6e" stroke-width="0.4">
      <desc>
        <name>Blaine County</name>
        <stateAbbrev>ID</stateAbbrev>
        <state>Idaho</state>
        <fips>013</fips>
        <incits>16013</incits>
        <id>US.ID.013</id>
        <population>21329</population>
      </desc>
    </path>
    <path d="M 384.4331 541.4247 389.102 535.5886 414.7809 525.0836 424.1187 513.4114 418.2826 511.0769 421.7843 493.5686 421.7843 476.0602 432.2893 474.893 464.9716 476.0602 463.8043 501.7391 494.1522 501.7391 494.1522 536.7559 494.1522 544.9264 481.3127 544.9264 482.4799 554.2642 469.6405 554.2642 468.4732 569.4381 462.6371 569.4381 427.6204 569.4381 427.6204 561.2676 400.7742 561.2676 400.7742 553.097 391.4365 539.0903 384.4331 541.4247 Z" id="US.ID.023" fill="#cee3f5" stroke="#6e6e6e" stroke-width="0.4">
      <desc>
        <name>Butte County</name>
        <stateAbbrev>ID</stateAbbrev>
        <state>Idaho</state>
        <fips>023</fips>
        <incits>16023</incits>
        <id>US.ID.023</id>
        <population>2642</population>
      </desc>
    </path>
    <path d="M 265.3763 513.4114 288.7207 519.2475 293.3896 518.0803 298.0585 533.2542 295.7241 539.0903 305.0619 542.592 308.5635 548.4281 310.898 565.9365 323.7375 565.9365 326.0719 578.7759 305.0619 578.7759 256.0385 578.7759 256.0385 537.9231 260.7074 535.5886 263.0418 527.4181 260.7074 523.9164 265.3763 513.4114 Z" id="US.ID.025" fill="#cee3f5" stroke="#6e6e6e" stroke-width="0.4">
      <desc>
        <name>Camas County</name>
        <stateAbbrev>ID</stateAbbrev>
        <state>Idaho</state>
        <fips>025</fips>
        <incits>16025</incits>
        <id>US.ID.025</id>
        <population>1042</population>
      </desc>
    </path>
    <path d="M 66.9482 511.0769 79.7876 519.2475 93.7943 518.0803 113.6371 518.0803 113.6371 535.5886 118.306 535.5886 118.306 553.097 113.6371 553.097 113.6371 569.4381 106.6338 565.9365 87.9582 550.7625 84.4565 541.4247 62.2793 530.9197 62.2793 515.7458 66.9482 511.0769 Z" id="US.ID.027" fill="#cee3f5" stroke="#6e6e6e" stroke-width="0.4">
      <desc>
        <name>Canyon County</name>
        <stateAbbrev>ID</stateAbbrev>
        <state>Idaho</state>
        <fips>027</fips>
        <incits>16027</incits>
        <id>US.ID.027</id>
        <population>198871</population>
      </desc>
    </path>
    <path d="M 363.4231 645.3077 370.4264 644.1405 386.7676 642.9732 390.2692 646.4749 399.607 644.1405 406.6104 633.6355 415.9482 631.301 427.6204 630.1338 433.4565 634.8027 441.6271 634.8027 446.296 639.4716 462.6371 639.4716 463.8043 665.1505 463.8043 697.8328 375.0953 699 336.5769 699 336.5769 665.1505 335.4097 655.8127 357.587 655.8127 356.4197 647.6421 363.4231 645.3077 Z" id="US.ID.031" fill="#cee3f5" stroke="#6e6e6e" stroke-width="0.4">
      <desc>
        <name>Cassia County</name>
        <stateAbbrev>ID</stateAbbrev>
        <state>Idaho</state>
        <fips>031</fips>
        <incits>16031</incits>
        <id>US.ID.031</id>
        <population>23331</population>
      </desc>
    </path>
    <path d="M 464.9716 476.0602 482.4799 476.0602 482.4799 460.8863 480.1455 456.2174 484.8144 451.5485 491.8177 448.0468 497.6538 450.3813 516.3294 451.5485 524.5 453.8829 528.0017 445.7124 535.005 442.2107 544.3428 445.7124 553.6806 446.8796 559.5167 444.5452 577.0251 443.3779 582.8612 446.8796 592.199 443.3779 601.5368 444.5452 601.5368 458.5518 584.0284 458.5518 584.0284 466.7224 578.1923 467.8896 577.0251 479.5619 572.3562 484.2308 559.5167 484.2308 559.5167 493.5686 547.8445 493.5686 494.1522 492.4013 494.1522 501.7391 463.8043 501.7391 464.9716 476.0602 Z" id="US.ID.033" fill="#cee3f5" stroke="#6e6e6e" stroke-width="0.4">
      <desc>
        <name>Clark County</name>
        <stateAbbrev>ID</stateAbbrev>
        <state>Idaho</state>
        <fips>033</fips>
        <incits>16033</incits>
        <id>US.ID.033</id>
        <population>867</population>
      </desc>
    </path>
    <path d="M 119.4732 236.7793 132.3127 236.7793 132.3127 206.4314 204.6806 207.5987 268.8779 206.4314 272.3796 216.9365 287.5535 223.9398 302.7274 229.7759 305.0619 236.7793 264.209 242.6154 202.3462 253.1204 196.51 260.1237 191.8411 263.6254 187.1722 272.9632 164.995 269.4615 159.1589 264.7926 147.4866 262.4582 145.1522 258.9565 134.6472 258.9565 127.6438 253.1204 120.6405 249.6187 119.4732 236.7793 Z" id="US.ID.035" fill="#cee3f5" stroke="#6e6e6e" stroke-width="0.4">
      <desc>
        <name>Clearwater County</name>
        <stateAbbrev>ID</stateAbbrev>
        <state>Idaho</state>
        <fips>035</fips>
        <incits>16035</incits>
        <id>US.ID.035</id>
        <population>8577</population>
      </desc>
    </path>
    <path d="M 136.9816 518.0803 138.1488 500.5719 136.9816 483.0635 143.9849 484.2308 153.3227 484.2308 154.49 474.893 210.5167 474.893 224.5234 472.5585 230.3595 466.7224 235.0284 465.5552 246.7007 469.0569 247.8679 478.3946 253.704 481.8963 261.8746 483.0635 261.8746 497.0702 267.7107 500.5719 265.3763 504.0736 257.2057 504.0736 251.3696 500.5719 249.0351 492.4013 244.3662 492.4013 236.1957 505.2408 228.0251 506.408 212.8512 511.0769 210.5167 519.2475 203.5134 520.4147 201.1789 527.4181 195.3428 532.087 187.1722 534.4214 177.8344 539.0903 167.3294 539.0903 166.1622 539.0903 136.9816 518.0803 Z" id="US.ID.015" fill="#cee3f5" stroke="#6e6e6e" stroke-width="0.4">
      <desc>
        <name>Boise County</name>
        <stateAbbrev>ID</stateAbbrev>
        <state>Idaho</state>
        <fips>015</fips>
        <incits>16015</incits>
        <id>US.ID.015</id>
        <population>6795</population>
      </desc>
    </path>
    <path d="M 282.8846 418.8662 282.8846 425.8696 293.3896 434.0401 302.7274 435.2074 307.3963 441.0435 319.0686 437.5418 326.0719 431.7057 324.9047 423.5351 341.2458 413.0301 344.7475 416.5318 342.413 424.7023 350.5836 425.8696 355.2525 423.5351 364.5903 436.3746 384.4331 450.3813 413.6137 456.2174 419.4498 453.8829 427.6204 464.388 432.2893 474.893 421.7843 476.0602 421.7843 493.5686 418.2826 511.0769 424.1187 513.4114 414.7809 525.0836 389.102 535.5886 384.4331 541.4247 376.2625 533.2542 366.9247 527.4181 363.4231 521.5819 356.4197 525.0836 336.5769 515.7458 336.5769 511.0769 313.2324 508.7425 303.8946 509.9097 295.7241 506.408 282.8846 506.408 282.8846 499.4047 277.0485 499.4047 267.7107 505.2408 265.3763 504.0736 267.7107 500.5719 261.8746 497.0702 261.8746 483.0635 253.704 481.8963 247.8679 478.3946 246.7007 469.0569 235.0284 465.5552 242.0318 456.2174 240.8645 448.0468 235.0284 445.7124 236.1957 437.5418 247.8679 434.0401 250.2023 425.8696 256.0385 422.3679 268.8779 427.0368 282.8846 418.8662 Z" id="US.ID.037" fill="#cee3f5" stroke="#6e6e6e" stroke-width="0.4">
      <desc>
        <name>Custer County</name>
        <stateAbbrev>ID</stateAbbrev>
        <state>Idaho</state>
        <fips>037</fips>
        <incits>16037</incits>
        <id>US.ID.037</id>
        <population>4249</population>
      </desc>
    </path>
    <path d="M 138.1488 586.9465 167.3294 586.9465 167.3294 561.2676 167.3294 539.0903 177.8344 539.0903 187.1722 534.4214 195.3428 532.087 201.1789 527.4181 203.5134 520.4147 210.5167 519.2475 212.8512 511.0769 228.0251 506.408 236.1957 505.2408 244.3662 492.4013 249.0351 492.4013 251.3696 500.5719 257.2057 504.0736 265.3763 504.0736 267.7107 505.2408 265.3763 513.4114 260.7074 523.9164 263.0418 527.4181 260.7074 535.5886 256.0385 537.9231 256.0385 578.7759 256.0385 605.6221 260.7074 606.7893 260.7074 620.796 219.8545 620.796 221.0217 604.4548 205.8478 604.4548 201.1789 602.1204 187.1722 604.4548 171.9983 597.4515 163.8278 603.2876 143.9849 592.7826 138.1488 586.9465 Z" id="US.ID.039" fill="#cee3f5" stroke="#6e6e6e" stroke-width="0.4">
      <desc>
        <name>Elmore County</name>
        <stateAbbrev>ID</stateAbbrev>
        <state>Idaho</state>
        <fips>039</fips>
        <incits>16039</incits>
        <id>US.ID.039</id>
        <population>26170</population>
      </desc>
    </path>
    <path d="M 551.3462 668.6522 564.1856 669.8194 573.5234 672.1538 574.6906 655.8127 602.704 656.9799 607.3729 662.8161 603.8712 666.3177 606.2057 670.9866 600.3696 677.99 603.8712 683.8261 603.8712 688.495 610.8746 690.8294 612.0418 697.8328 552.5134 697.8328 552.5134 681.4916 556.0151 673.3211 551.3462 668.6522 Z" id="US.ID.041" fill="#cee3f5" stroke="#6e6e6e" stroke-width="0.4">
      <desc>
        <name>Franklin County</name>
        <stateAbbrev>ID</stateAbbrev>
        <state>Idaho</state>
        <fips>041</fips>
        <incits>16041</incits>
        <id>US.ID.041</id>
        <population>12854</population>
      </desc>
    </path>
    <path d="M 120.6405 483.0635 129.9783 483.0635 131.1455 466.7224 134.6472 455.0502 148.6538 449.214 149.8211 466.7224 143.9849 466.7224 143.9849 484.2308 136.9816 483.0635 138.1488 500.5719 136.9816 518.0803 113.6371 518.0803 93.7943 518.0803 93.7943 500.5719 107.801 500.5719 111.3027 498.2375 111.3027 492.4013 119.4732 492.4013 120.6405 483.0635 Z" id="US.ID.045" fill="#cee3f5" stroke="#6e6e6e" stroke-width="0.4">
      <desc>
        <name>Gem County</name>
        <stateAbbrev>ID</stateAbbrev>
        <state>Idaho</state>
        <fips>045</fips>
        <incits>16045</incits>
        <id>US.ID.045</id>
        <population>16686</population>
      </desc>
    </path>
    <path d="M 256.0385 578.7759 305.0619 578.7759 305.0619 612.6254 302.7274 612.6254 302.7274 633.6355 288.7207 631.301 284.0518 631.301 279.3829 623.1304 270.0452 618.4615 273.5468 611.4582 268.8779 606.7893 260.7074 606.7893 256.0385 605.6221 256.0385 578.7759 Z" id="US.ID.047" fill="#cee3f5" stroke="#6e6e6e" stroke-width="0.4">
      <desc>
        <name>Gooding County</name>
        <stateAbbrev>ID</stateAbbrev>
        <state>Idaho</state>
        <fips>047</fips>
        <incits>16047</incits>
        <id>US.ID.047</id>
        <population>15080</population>
      </desc>
    </path>
    <path d="M 147.4866 262.4582 159.1589 264.7926 164.995 269.4615 187.1722 272.9632 191.8411 263.6254 196.51 260.1237 202.3462 253.1204 264.209 242.6154 305.0619 236.7793 317.9013 236.7793 328.4064 233.2776 331.908 235.612 329.5736 248.4515 323.7375 251.9532 327.2391 255.4548 322.5702 261.291 321.403 269.4615 316.7341 272.9632 320.2358 283.4682 312.0652 286.9699 317.9013 290.4716 316.7341 296.3077 322.5702 302.1438 321.403 305.6455 323.7375 312.6488 314.3997 314.9833 307.3963 321.9866 314.3997 327.8227 314.3997 332.4916 307.3963 344.1639 301.5602 347.6656 298.0585 352.3344 285.2191 348.8328 285.2191 355.8361 305.0619 369.8428 294.5569 379.1806 233.8612 379.1806 167.3294 379.1806 153.3227 383.8495 150.9883 388.5184 136.9816 386.1839 131.1455 372.1773 96.1288 372.1773 98.4632 367.5084 110.1355 348.8328 118.306 339.495 111.3027 330.1572 111.3027 326.6555 105.4666 321.9866 98.4632 320.8194 94.9615 317.3177 89.1254 318.4849 85.6237 313.8161 92.6271 309.1472 90.2926 305.6455 94.9615 299.8094 103.1321 296.3077 112.4699 299.8094 115.9716 288.1371 121.8077 279.9666 146.3194 284.6355 149.8211 278.7993 163.8278 277.6321 152.1555 269.4615 147.4866 262.4582 Z" id="US.ID.049" fill="#cee3f5" stroke="#6e6e6e" stroke-width="0.4">
      <desc>
        <name>Idaho County</name>
        <stateAbbrev>ID</stateAbbrev>
        <state>Idaho</state>
        <fips>049</fips>
        <incits>16049</incits>
        <id>US.ID.049</id>
        <population>16116</population>
      </desc>
    </path>
    <path d="M 494.1522 501.7391 494.1522 492.4013 547.8445 493.5686 547.8445 501.7391 565.3528 501.7391 565.3528 506.408 565.3528 523.9164 570.0217 521.5819 591.0318 533.2542 600.3696 535.5886 558.3495 535.5886 511.6605 535.5886 494.1522 536.7559 494.1522 501.7391 Z" id="US.ID.051" fill="#cee3f5" stroke="#6e6e6e" stroke-width="0.4">
      <desc>
        <name>Jefferson County</name>
        <stateAbbrev>ID</stateAbbrev>
        <state>Idaho</state>
        <fips>051</fips>
        <incits>16051</incits>
        <id>US.ID.051</id>
        <population>26914</population>
      </desc>
    </path>
    <path d="M 305.0619 612.6254 327.2391 613.7926 329.5736 617.2943 358.7542 617.2943 358.7542 621.9632 370.4264 621.9632 370.4264 644.1405 363.4231 645.3077 350.5836 648.8094 344.7475 644.1405 330.7408 640.6388 326.0719 638.3043 317.9013 638.3043 312.0652 634.8027 302.7274 633.6355 302.7274 612.6254 305.0619 612.6254 Z" id="US.ID.053" fill="#cee3f5" stroke="#6e6e6e" stroke-width="0.4">
      <desc>
        <name>Jerome County</name>
        <stateAbbrev>ID</stateAbbrev>
        <state>Idaho</state>
        <fips>053</fips>
        <incits>16053</incits>
        <id>US.ID.053</id>
        <population>22514</population>
      </desc>
    </path>
    <path d="M 61.112 187.7559 68.1154 188.9231 82.1221 197.0936 119.4732 195.9264 132.3127 198.2609 132.3127 206.4314 132.3127 236.7793 119.4732 236.7793 103.1321 236.7793 93.7943 244.9498 61.112 246.1171 61.112 187.7559 Z" id="US.ID.057" fill="#cee3f5" stroke="#6e6e6e" stroke-width="0.4">
      <desc>
        <name>Latah County</name>
        <stateAbbrev>ID</stateAbbrev>
        <state>Idaho</state>
        <fips>057</fips>
        <incits>16057</incits>
        <id>US.ID.057</id>
        <population>38078</population>
      </desc>
    </path>
    <path d="M 282.8846 418.8662 291.0552 410.6957 292.2224 395.5217 291.0552 383.8495 294.5569 379.1806 305.0619 369.8428 285.2191 355.8361 285.2191 348.8328 298.0585 352.3344 301.5602 347.6656 307.3963 344.1639 312.0652 342.9967 320.2358 345.3311 329.5736 353.5017 337.7441 351.1672 338.9114 345.3311 344.7475 345.3311 362.2559 333.6589 365.7575 328.99 383.2659 339.495 380.9314 347.6656 386.7676 347.6656 386.7676 359.3378 390.2692 360.505 390.2692 366.3411 394.9381 373.3445 404.2759 380.3478 406.6104 386.1839 418.2826 393.1873 419.4498 403.6923 414.7809 404.8595 418.2826 413.0301 427.6204 416.5318 429.9548 421.2007 439.2926 416.5318 443.9615 418.8662 453.2993 425.8696 457.9682 437.5418 454.4666 438.709 462.6371 446.8796 463.8043 453.8829 482.4799 460.8863 482.4799 476.0602 464.9716 476.0602 432.2893 474.893 427.6204 464.388 419.4498 453.8829 413.6137 456.2174 384.4331 450.3813 364.5903 436.3746 355.2525 423.5351 350.5836 425.8696 342.413 424.7023 344.7475 416.5318 341.2458 413.0301 324.9047 423.5351 326.0719 431.7057 319.0686 437.5418 307.3963 441.0435 302.7274 435.2074 293.3896 434.0401 282.8846 425.8696 282.8846 418.8662 Z" id="US.ID.059" fill="#cee3f5" stroke="#6e6e6e" stroke-width="0.4">
      <desc>
        <name>Lemhi County</name>
        <stateAbbrev>ID</stateAbbrev>
        <state>Idaho</state>
        <fips>059</fips>
        <incits>16059</incits>
        <id>US.ID.059</id>
        <population>7712</population>
      </desc>
    </path>
    <path d="M 305.0619 612.6254 305.0619 578.7759 326.0719 578.7759 392.6037 578.7759 392.6037 613.7926 387.9348 613.7926 387.9348 621.9632 370.4264 621.9632 358.7542 621.9632 358.7542 617.2943 329.5736 617.2943 327.2391 613.7926 305.0619 612.6254 Z" id="US.ID.063" fill="#cee3f5" stroke="#6e6e6e" stroke-width="0.4">
      <desc>
        <name>Lincoln County</name>
        <stateAbbrev>ID</stateAbbrev>
        <state>Idaho</state>
        <fips>063</fips>
        <incits>16063</incits>
        <id>US.ID.063</id>
        <population>5315</population>
      </desc>
    </path>
    <path d="M 565.3528 506.408 579.3595 506.408 579.3595 508.7425 593.3662 508.7425 607.3729 509.9097 613.209 505.2408 622.5468 506.408 622.5468 536.7559 600.3696 535.5886 591.0318 533.2542 570.0217 521.5819 565.3528 523.9164 565.3528 506.408 Z" id="US.ID.065" fill="#cee3f5" stroke="#6e6e6e" stroke-width="0.4">
      <desc>
        <name>Madison County</name>
        <stateAbbrev>ID</stateAbbrev>
        <state>Idaho</state>
        <fips>065</fips>
        <incits>16065</incits>
        <id>US.ID.065</id>
        <population>37450</population>
      </desc>
    </path>
    <path d="M 370.4264 621.9632 387.9348 621.9632 387.9348 613.7926 392.6037 613.7926 392.6037 578.7759 422.9515 578.7759 422.9515 613.7926 417.1154 613.7926 415.9482 631.301 406.6104 633.6355 399.607 644.1405 390.2692 646.4749 386.7676 642.9732 370.4264 644.1405 370.4264 621.9632 Z" id="US.ID.067" fill="#cee3f5" stroke="#6e6e6e" stroke-width="0.4">
      <desc>
        <name>Minidoka County</name>
        <stateAbbrev>ID</stateAbbrev>
        <state>Idaho</state>
        <fips>067</fips>
        <incits>16067</incits>
        <id>US.ID.067</id>
        <population>20292</population>
      </desc>
    </path>
    <path d="M 463.8043 665.1505 497.6538 665.1505 497.6538 656.9799 513.995 655.8127 513.995 647.6421 520.9983 647.6421 533.8378 653.4783 533.8378 659.3144 544.3428 662.8161 551.3462 668.6522 556.0151 673.3211 552.5134 681.4916 552.5134 697.8328 545.51 697.8328 463.8043 697.8328 463.8043 665.1505 Z" id="US.ID.071" fill="#cee3f5" stroke="#6e6e6e" stroke-width="0.4">
      <desc>
        <name>Oneida County</name>
        <stateAbbrev>ID</stateAbbrev>
        <state>Idaho</state>
        <fips>071</fips>
        <incits>16071</incits>
        <id>US.ID.071</id>
        <population>4275</population>
      </desc>
    </path>
    <path d="M 62.2793 530.9197 84.4565 541.4247 87.9582 550.7625 106.6338 565.9365 113.6371 569.4381 121.8077 569.4381 127.6438 575.2742 126.4766 578.7759 135.8144 586.9465 138.1488 586.9465 143.9849 592.7826 163.8278 603.2876 171.9983 597.4515 187.1722 604.4548 201.1789 602.1204 205.8478 604.4548 221.0217 604.4548 219.8545 620.796 260.7074 620.796 260.7074 670.9866 260.7074 697.8328 177.8344 697.8328 114.8043 697.8328 62.2793 697.8328 62.2793 635.9699 62.2793 572.9398 62.2793 530.9197 Z" id="US.ID.073" fill="#cee3f5" stroke="#6e6e6e" stroke-width="0.4">
      <desc>
        <name>Owyhee County</name>
        <stateAbbrev>ID</stateAbbrev>
        <state>Idaho</state>
        <fips>073</fips>
        <incits>16073</incits>
        <id>US.ID.073</id>
        <population>11472</population>
      </desc>
    </path>
    <path d="M 66.9482 511.0769 68.1154 501.7391 71.6171 499.4047 71.6171 488.8997 76.286 483.0635 120.6405 483.0635 119.4732 492.4013 111.3027 492.4013 111.3027 498.2375 107.801 500.5719 93.7943 500.5719 93.7943 518.0803 79.7876 519.2475 66.9482 511.0769 Z" id="US.ID.075" fill="#cee3f5" stroke="#6e6e6e" stroke-width="0.4">
      <desc>
        <name>Payette County</name>
        <stateAbbrev>ID</stateAbbrev>
        <state>Idaho</state>
        <fips>075</fips>
        <incits>16075</incits>
        <id>US.ID.075</id>
        <population>22610</population>
      </desc>
    </path>
    <path d="M 462.6371 586.9465 462.6371 612.6254 482.4799 611.4582 488.3161 603.2876 492.9849 604.4548 503.49 600.9532 511.6605 606.7893 511.6605 619.6288 513.995 625.4649 520.9983 630.1338 524.5 635.9699 520.9983 647.6421 513.995 647.6421 513.995 655.8127 497.6538 656.9799 497.6538 665.1505 463.8043 665.1505 462.6371 639.4716 446.296 639.4716 441.6271 634.8027 446.296 631.301 446.296 621.9632 440.4599 621.9632 439.2926 586.9465 462.6371 586.9465 Z" id="US.ID.077" fill="#cee3f5" stroke="#6e6e6e" stroke-width="0.4">
      <desc>
        <name>Power County</name>
        <stateAbbrev>ID</stateAbbrev>
        <state>Idaho</state>
        <fips>077</fips>
        <incits>16077</incits>
        <id>US.ID.077</id>
        <population>7719</population>
      </desc>
    </path>
    <path d="M 260.7074 606.7893 268.8779 606.7893 273.5468 611.4582 270.0452 618.4615 279.3829 623.1304 284.0518 631.301 288.7207 631.301 302.7274 633.6355 312.0652 634.8027 317.9013 638.3043 326.0719 638.3043 330.7408 640.6388 344.7475 644.1405 350.5836 648.8094 363.4231 645.3077 356.4197 647.6421 357.587 655.8127 335.4097 655.8127 336.5769 665.1505 336.5769 699 305.0619 699 284.0518 697.8328 260.7074 697.8328 260.7074 670.9866 260.7074 620.796 260.7074 606.7893 Z" id="US.ID.083" fill="#cee3f5" stroke="#6e6e6e" stroke-width="0.4">
      <desc>
        <name>Twin Falls County</name>
        <stateAbbrev>ID</stateAbbrev>
        <state>Idaho</state>
        <fips>083</fips>
        <incits>16083</incits>
        <id>US.ID.083</id>
        <population>79957</population>
      </desc>
    </path>
    <path d="M 143.9849 484.2308 143.9849 466.7224 149.8211 466.7224 148.6538 449.214 146.3194 438.709 148.6538 428.204 143.9849 422.3679 146.3194 410.6957 153.3227 401.3579 150.9883 399.0234 155.6572 393.1873 150.9883 388.5184 153.3227 383.8495 167.3294 379.1806 233.8612 379.1806 294.5569 379.1806 291.0552 383.8495 292.2224 395.5217 291.0552 410.6957 282.8846 418.8662 268.8779 427.0368 256.0385 422.3679 250.2023 425.8696 247.8679 434.0401 236.1957 437.5418 235.0284 445.7124 240.8645 448.0468 242.0318 456.2174 235.0284 465.5552 230.3595 466.7224 224.5234 472.5585 210.5167 474.893 154.49 474.893 153.3227 484.2308 143.9849 484.2308 Z" id="US.ID.085" fill="#cee3f5" stroke="#6e6e6e" stroke-width="0.4">
      <desc>
        <name>Valley County</name>
        <stateAbbrev>ID</stateAbbrev>
        <state>Idaho</state>
        <fips>085</fips>
        <incits>16085</incits>
        <id>US.ID.085</id>
        <population>9606</population>
      </desc>
    </path>
    <path d="M 75.1187 415.3645 103.1321 415.3645 103.1321 432.8729 112.4699 437.5418 112.4699 449.214 124.1421 455.0502 134.6472 455.0502 131.1455 466.7224 129.9783 483.0635 120.6405 483.0635 76.286 483.0635 68.1154 479.5619 68.1154 474.893 59.9448 476.0602 55.2759 471.3913 48.2726 472.5585 43.6037 470.2241 47.1054 465.5552 41.2692 459.7191 42.4365 451.5485 50.607 444.5452 52.9415 437.5418 61.112 424.7023 71.6171 421.2007 75.1187 415.3645 Z" id="US.ID.087" fill="#cee3f5" stroke="#6e6e6e" stroke-width="0.4">
      <desc>
        <name>Washington County</name>
        <stateAbbrev>ID</stateAbbrev>
        <state>Idaho</state>
        <fips>087</fips>
        <incits>16087</incits>
        <id>US.ID.087</id>
        <population>9944</population>
      </desc>
    </path>
  </g>
</svg>