<?xml version="1.0" encoding="UTF-8"?>
<svg xmlns="http://www.w3.org/2000/svg" width="700" height="700">
  <g id="indonesia">
    <path d="M 11.1565 267.3041 19.8221 275.7368 9.2463 271.1244 7.8952 268.3757 11.1565 267.3041 Z M 47.6358 246.8514 44.5144 247.3639 39.9952 255.0977 43.1167 261.2941 41.2065 262.4122 44.6075 278.6719 39.2032 277.181 37.1067 268.2825 34.1249 267.0712 26.298 255.6568 20.1482 254.0728 6.3578 240.6085 1 230.4054 1.0932 226.4919 7.4759 225.467 19.4959 232.0826 36.6408 232.1292 47.6358 246.8514 Z" id="ID.AC" fill="#cee3f5" stroke="#6e6e6e" stroke-width="0.4">
      <desc>
        <labelrank>6</labelrank>
        <code_hasc>ID.AC</code_hasc>
        <name>Aceh</name>
        <admin>Indonesia</admin>
        <type_en>Autonomous Province</type_en>
        <region/>
        <woe_id>2345710</woe_id>
        <longitude>96</longitude>
        <woe_name>Aceh</woe_name>
        <fips>ID01</fips>
        <woe_label>Aceh, ID, Indonesia</woe_label>
        <latitude>4</latitude>
        <iso_a2>ID</iso_a2>
        <postal>AC</postal>
        <type>Propinsi</type>
        <id>ID.AC</id>
      </desc>
    </path>
    <path d="M 336.0232 263.8565 334.2528 261.2941 336.3494 261.4804 336.0232 263.8565 Z M 319.9965 346.6922 309.4208 346.366 305.1346 334.2062 306.7652 332.8552 307.3708 332.8552 307.6038 332.6222 307.8367 332.2961 308.5822 330.8984 308.6753 330.5723 308.7219 329.8269 308.8151 329.6405 308.6288 327.8235 307.6504 328.1031 303.5505 324.8884 300.8018 316.4557 300.9415 314.5922 301.0347 314.3126 301.5006 313.474 301.5472 313.2877 301.7335 312.3093 301.8733 311.8434 301.8733 311.7968 301.8733 311.7036 301.7801 311.6571 301.7335 311.6105 300.8018 311.4241 300.1029 311.5173 299.87 311.5173 299.4973 311.7968 298.3325 313.1479 298.1928 313.3809 298.0996 313.474 298.0064 313.6138 297.8666 313.6604 297.4007 313.8933 297.261 313.9399 296.7485 314.499 296.5156 314.499 296.3758 314.3126 296.3758 313.6138 296.2826 313.4274 296.236 313.2877 296.236 313.1479 296.2826 312.8684 296.5156 312.1229 296.9814 311.0048 297.028 310.865 297.028 310.6787 296.9349 310.4923 296.8883 310.2594 296.3292 309.281 296.0031 307.2777 296.236 306.5322 297.0746 304.8084 297.8666 303.8301 297.8666 303.6437 297.6337 303.1312 297.5871 302.479 297.4939 302.3858 297.3542 302.1994 297.1212 301.7801 296.3758 301.0347 295.0713 301.0347 291.7169 302.7119 282.6785 302.3392 282.1661 302.479 281.8399 302.8051 281.7002 302.9449 281.4672 302.9915 280.8616 303.038 280.6286 303.1312 279.9764 303.3642 279.79 303.4108 279.0446 303.5039 278.6253 303.6437 281.1411 299.1711 279.9298 297.4939 284.8682 293.86 284.9614 290.6919 290.226 290.5521 291.9032 284.9148 294.2327 283.8899 293.4407 278.8116 299.7302 274.9447 297.5405 273.5005 297.6803 270.2858 300.2427 267.1177 303.5505 267.2575 305.5539 261.3873 304.5755 254.1659 309.0946 247.2707 311.7036 248.9945 313.2411 247.4105 329.1746 247.6434 334.579 250.4854 331.6904 250.3922 338.4459 257.1942 335.5573 258.2658 333.1813 255.9363 333.7869 258.6385 326.7054 258.8714 332.8552 261.2009 330.2462 264.1826 335.4176 266.3257 334.6256 267.8632 336.4425 268.1427 334.346 268.7484 337.188 269.0745 335.4642 270.1926 342.3594 277.3674 337.4675 281.8865 356.243 297.4473 353.0749 299.9632 346.9251 299.9632 339.6106 295.444 341.7071 300.0563 337.3743 300.9415 333.3211 310.2594 332.9017 319.6238 335.6971 318.0398 333.5074 322.1862 335.6039 323.3975 331.3643 325.1679 330.5257 323.8168 325.727 330.153 323.6771 330.4325 322.5589 326.9849 322.8385 331.97 314.8251 338.2129 318.0398 338.0266 318.2727 341.9401 315.7103 343.8036 320.3692 344.0366 319.9965 346.6922 Z" id="ID.KI" fill="#cee3f5" stroke="#6e6e6e" stroke-width="0.4">
      <desc>
        <labelrank>2</labelrank>
        <code_hasc>ID.KI</code_hasc>
        <name>Kalimantan Timur</name>
        <admin>Indonesia</admin>
        <type_en>Province</type_en>
        <region/>
        <woe_id>2345723</woe_id>
        <longitude>116</longitude>
        <woe_name>Kalimantan Timur</woe_name>
        <fips>ID14</fips>
        <woe_label>East Kalimantan, ID, Indonesia</woe_label>
        <latitude>1</latitude>
        <iso_a2>ID</iso_a2>
        <postal>KI</postal>
        <type>Propinsi</type>
        <id>ID.KI</id>
      </desc>
    </path>
    <path d="M 175.2438 404.9287 175.4301 405.0219 175.9892 405.6276 177.8993 405.9537 178.5516 401.6209 179.3436 399.1516 188.7546 403.8572 198.8179 403.9038 202.4985 411.4512 206.7381 412.1966 205.7131 413.408 205.387 413.967 205.2938 414.2 205.2006 414.9454 205.2938 415.6442 205.2006 415.8306 205.1075 416.017 204.9211 416.1567 204.5484 416.576 204.1757 416.8556 204.0359 416.9487 203.8496 416.9953 203.4768 417.0419 202.6382 416.9487 202.3587 417.0419 202.2189 417.1817 202.0792 417.368 201.6599 419.0918 201.7996 419.5111 204.0825 420.8156 204.595 422.819 204.595 423.2383 204.4552 423.6576 204.4552 423.8439 204.5018 423.9371 204.595 424.0303 205.4336 424.7291 198.5384 427.0586 185.0275 422.4463 170.0258 420.9088 172.1223 415.5045 171.6564 414.759 170.0724 415.1783 169.9792 414.992 169.9792 414.8056 170.1655 413.8738 170.7246 412.8955 171.5632 411.8705 170.5848 411.358 170.4917 411.1717 170.3519 410.799 169.9792 408.2831 170.2121 406.0003 170.3519 405.7207 170.8178 405.4878 171.1905 406.0934 171.8427 405.7207 173.287 406.1866 174.9176 406.1866 175.2903 405.9537 175.2438 405.7207 175.2438 404.9287 Z" id="ID.JR" fill="#cee3f5" stroke="#6e6e6e" stroke-width="0.4">
      <desc>
        <labelrank>2</labelrank>
        <code_hasc>ID.JR</code_hasc>
        <name>Jawa Barat</name>
        <admin>Indonesia</admin>
        <type_en>Province</type_en>
        <region/>
        <woe_id>2345715</woe_id>
        <longitude>107</longitude>
        <woe_name>Jawa Barat</woe_name>
        <fips>ID30</fips>
        <woe_label>West Java, ID, Indonesia</woe_label>
        <latitude>-6</latitude>
        <iso_a2>ID</iso_a2>
        <postal>JR</postal>
        <type>Propinsi</type>
        <id>ID.JR</id>
      </desc>
    </path>
    <path d="M 207.763 425.5212 209.021 426.3598 205.387 425.5212 207.763 425.5212 Z M 247.5968 410.799 246.6651 416.9953 244.2424 419.3248 240.7016 418.6725 242.2391 427.0586 236.9745 432.7891 235.4836 432.4164 235.3905 431.438 234.9712 431.4846 234.878 431.3914 234.8314 431.2516 234.7382 428.6892 234.645 428.3165 234.5985 427.6177 234.5985 427.4313 234.5519 427.3381 234.4121 427.1518 234.1326 427.012 233.2008 426.8257 230.9645 426.6859 230.4986 426.3132 230.0327 425.3814 229.5202 423.1451 229.4736 423.0053 229.1009 423.4712 227.4703 424.636 226.8646 425.3348 226.6783 424.6826 225.4204 424.636 225.0942 424.7757 225.0011 424.9155 224.9079 425.0553 224.9545 425.4746 224.9079 425.7541 224.7681 425.9871 224.0227 427.1052 223.7897 427.3847 223.7432 427.5245 223.6966 427.8972 223.6034 427.804 222.0659 427.3847 221.6932 427.1518 218.0593 426.3598 214.6583 426.2666 213.8197 425.3814 208.6017 425.7075 206.5051 423.9371 205.4336 424.7291 204.595 424.0303 204.5018 423.9371 204.4552 423.8439 204.4552 423.6576 204.595 423.2383 204.595 422.819 204.0825 420.8156 203.3837 419.977 201.7996 419.5111 201.6599 419.0918 202.0326 417.9271 202.0792 417.368 202.2189 417.1817 202.3587 417.0419 202.6382 416.9487 202.9178 416.9487 203.8496 416.9953 204.1757 416.8556 204.5484 416.576 204.9211 416.1567 205.1075 416.017 205.2006 415.8306 205.2938 415.6442 205.2938 414.2 205.387 413.967 205.7131 413.408 206.7381 412.1966 208.3221 411.8239 229.9395 414.0136 232.8281 407.3979 236.5552 406.0003 239.8164 410.2399 244.9413 409.2149 247.5968 410.799 Z" id="ID.JT" fill="#cee3f5" stroke="#6e6e6e" stroke-width="0.4">
      <desc>
        <labelrank>2</labelrank>
        <code_hasc>ID.JT</code_hasc>
        <name>Jawa Tengah</name>
        <admin>Indonesia</admin>
        <type_en>Province</type_en>
        <region/>
        <woe_id>2345716</woe_id>
        <longitude>109</longitude>
        <woe_name>Jawa Tengah</woe_name>
        <fips>ID07</fips>
        <woe_label>Central Java, ID, Indonesia</woe_label>
        <latitude>-7</latitude>
        <iso_a2>ID</iso_a2>
        <postal>JT</postal>
        <type>Propinsi</type>
        <id>ID.JT</id>
      </desc>
    </path>
    <path d="M 109.9722 393.4678 105.686 391.5576 108.3416 391.1849 109.9722 393.4678 Z M 130.4715 383.3113 130.0522 383.8238 129.5863 384.1499 128.142 384.9885 108.6211 371.4776 107.1769 366.2596 98.3249 360.4826 89.0537 349.0682 93.666 346.2729 94.9239 345.3877 95.1569 345.3411 95.2966 345.4343 95.4364 345.5274 95.9023 345.9933 96.1352 346.1331 96.3216 346.2729 96.4148 346.366 96.7409 347.0649 97.1136 348.5557 97.2534 348.7421 97.4397 348.8819 97.9056 349.0682 98.1386 349.2546 98.3715 349.8136 98.9306 350.2795 99.2567 350.792 99.7692 351.3045 100.2817 351.7238 101.1203 352.1431 101.3532 352.1897 101.7259 352.2829 102.3782 352.8885 104.7076 353.4476 105.0338 353.8669 105.5928 354.2862 106.1519 355.218 107.2235 356.1498 106.8973 356.9884 107.5496 357.6406 109.32 357.6406 110.2518 357.9668 110.8574 358.4792 110.9972 358.619 111.137 358.8985 110.9506 359.7837 110.8574 359.9235 110.6711 360.203 110.6711 360.2496 110.7177 360.3894 110.8108 360.436 110.9972 360.5292 111.1836 360.6223 112.2551 361.7405 115.2834 360.7621 118.7776 362.6257 118.8708 362.7655 119.0105 363.045 119.1037 363.7904 118.9174 364.9551 118.731 365.2813 118.3583 365.2347 117.7992 365.3279 117.1004 365.1415 117.0538 365.2347 117.1004 365.3744 117.3333 365.7938 117.2867 365.9801 114.3982 368.4027 113.3267 368.7289 113.4198 368.9618 114.3516 369.847 114.8641 370.1731 115.4232 370.9186 115.8891 371.2447 117.7992 371.4311 118.6378 371.9901 120.4082 371.7106 120.5014 371.7572 120.8275 371.9435 121.0139 372.1299 121.573 373.5276 121.9457 375.3911 128.0023 377.1615 128.4216 379.258 129.3068 380.6557 129.8192 382.6125 130.3783 383.0318 130.4715 383.3113 Z" id="ID.BE" fill="#cee3f5" stroke="#6e6e6e" stroke-width="0.4">
      <desc>
        <labelrank>7</labelrank>
        <code_hasc>ID.BE</code_hasc>
        <name>Bengkulu</name>
        <admin>Indonesia</admin>
        <type_en>Province</type_en>
        <region/>
        <woe_id>2345712</woe_id>
        <longitude>102</longitude>
        <woe_name>Bengkulu</woe_name>
        <fips>ID03</fips>
        <woe_label>Bengkulu, ID, Indonesia</woe_label>
        <latitude>-3</latitude>
        <iso_a2>ID</iso_a2>
        <postal>BE</postal>
        <type>Propinsi</type>
        <id>ID.BE</id>
      </desc>
    </path>
    <path d="M 174.7313 401.3413 174.6847 401.3879 174.2188 401.7606 174.0324 401.9936 174.312 403.5776 175.2438 404.9287 175.2438 405.7207 175.2903 405.9537 174.9176 406.1866 173.287 406.1866 171.8427 405.7207 171.1905 406.0934 170.8178 405.4878 170.678 405.4878 170.3519 405.7207 170.2121 406.0003 170.3985 407.0252 169.9792 408.2831 170.3519 410.799 170.4917 411.1717 170.5848 411.358 171.0973 411.4978 171.2837 411.591 171.5632 411.8705 170.1655 413.8738 170.0724 415.1783 170.0258 415.1783 169.6996 415.3181 169.3269 415.3647 168.3486 415.1318 163.7362 412.7091 153.0673 413.2216 154.6047 410.566 156.5149 412.6625 158.8909 407.6775 160.8011 408.19 164.2021 399.0119 166.252 400.6891 174.6847 401.155 174.7313 401.3413 Z" id="ID.BT" fill="#cee3f5" stroke="#6e6e6e" stroke-width="0.4">
      <desc>
        <labelrank>2</labelrank>
        <code_hasc>ID.BT</code_hasc>
        <name>Banten</name>
        <admin>Indonesia</admin>
        <type_en>Province</type_en>
        <region/>
        <woe_id>28350158</woe_id>
        <longitude>106</longitude>
        <woe_name>Banten</woe_name>
        <fips>ID33</fips>
        <woe_label>Banten, ID, Indonesia</woe_label>
        <latitude>-6</latitude>
        <iso_a2>ID</iso_a2>
        <postal>BT</postal>
        <type>Propinsi</type>
        <id>ID.BT</id>
      </desc>
    </path>
    <path d="M 178.5516 401.6209 177.8993 405.9537 175.9892 405.6276 175.4301 405.0219 175.2438 404.9287 174.312 403.5776 174.0324 401.9936 174.2188 401.7606 174.6847 401.3879 174.7313 401.3413 174.8245 401.7141 175.0574 401.9004 175.6631 401.9936 178.5516 401.6209 Z" id="ID.JK" fill="#cee3f5" stroke="#6e6e6e" stroke-width="0.4">
      <desc>
        <labelrank>9</labelrank>
        <code_hasc>ID.JK</code_hasc>
        <name>Jakarta Raya</name>
        <admin>Indonesia</admin>
        <type_en>Special district</type_en>
        <region/>
        <woe_id>2345713</woe_id>
        <longitude>106</longitude>
        <woe_name>Jakarta Raya</woe_name>
        <fips>ID04</fips>
        <woe_label>DKI Jakarta, ID, Indonesia</woe_label>
        <latitude>-6</latitude>
        <iso_a2>ID</iso_a2>
        <postal>JK</postal>
        <type>Daerah Khusus Ibukota</type>
        <id>ID.JK</id>
      </desc>
    </path>
    <path d="M 216.8945 326.1929 219.4569 328.6621 214.8446 330.8984 214.7514 326.3793 216.8945 326.1929 Z M 284.9614 290.6919 284.8682 293.86 279.9298 297.4939 281.1411 299.1711 278.6253 303.6437 278.2526 303.9232 277.6469 304.4357 276.7151 305.8334 276.5754 306.0663 276.5288 306.2993 276.4822 307.1379 276.3424 307.2777 275.8299 307.464 275.1777 307.9765 273.4073 307.7901 272.4289 308.0697 271.9164 308.256 272.3357 308.8617 272.5687 309.3276 273.5005 310.2128 274.2459 312.915 270.8449 316.8285 271.5903 318.2727 270.9381 319.9499 270.6119 319.9965 270.4722 319.9034 269.4006 318.7852 260.8748 322.2328 257.7533 322.9782 255.8897 322.6987 254.0728 322.6521 253.8864 322.6987 239.5369 334.346 239.304 334.4392 239.1642 334.4392 238.0926 334.2062 236.9279 334.9051 236.6018 335.2778 236.462 335.4176 236.3688 335.5573 236.3688 335.6971 236.3688 335.8369 236.5086 336.0232 236.6484 336.2096 236.8347 336.3494 237.6268 336.1164 237.7199 336.163 237.8131 336.2562 237.8597 336.6289 237.7665 337.0016 237.7665 337.1414 238.0926 337.7004 237.487 342.3128 239.5835 347.2046 239.4437 349.7671 239.9562 351.0716 239.9562 351.5374 239.863 351.7238 239.7699 351.9102 239.5835 352.0499 239.3971 352.1431 238.5585 352.5158 238.3722 352.6556 238.1858 352.8885 237.9529 353.4942 237.6733 353.9601 237.5336 354.0533 237.3938 354.0999 236.9745 354.2862 234.5053 355.1248 232.5951 357.1747 230.9179 354.0067 226.6783 356.01 225.0942 350.4193 226.9112 348.8819 224.1159 340.5424 221.3205 338.7254 223.65 331.6438 219.224 324.6555 217.9661 326.3327 212.0027 324.4225 211.8163 321.6737 215.4503 322.4192 209.9993 319.6238 208.6017 315.4774 211.2572 315.3376 210.2323 311.5639 212.3754 311.7036 206.7381 306.8584 206.8313 294.7452 211.9095 291.3441 207.7165 293.9531 213.0276 283.3774 217.5002 281.2343 215.7764 284.0762 217.6866 288.3624 230.9645 299.3575 240.4687 296.0497 249.74 297.028 253.7 295.0713 254.725 290.7851 259.2907 288.8283 266.745 288.7817 266.5121 291.0646 276.389 293.8134 280.582 290.6453 284.9614 290.6919 Z" id="ID.KB" fill="#cee3f5" stroke="#6e6e6e" stroke-width="0.4">
      <desc>
        <labelrank>2</labelrank>
        <code_hasc>ID.KB</code_hasc>
        <name>Kalimantan Barat</name>
        <admin>Indonesia</admin>
        <type_en>Province</type_en>
        <region/>
        <woe_id>2345720</woe_id>
        <longitude>111</longitude>
        <woe_name>Kalimantan Barat</woe_name>
        <fips>ID11</fips>
        <woe_label>West Kalimantan, ID, Indonesia</woe_label>
        <latitude>0</latitude>
        <iso_a2>ID</iso_a2>
        <postal>KB</postal>
        <type>Propinsi</type>
        <id>ID.KB</id>
      </desc>
    </path>
    <path d="M 128.142 384.9885 129.5863 384.1499 130.0522 383.8238 130.4715 383.3113 131.8226 384.0101 131.8226 384.6158 131.9624 384.8953 131.9624 385.0351 132.1021 385.1283 132.3817 385.1749 135.2236 385.3612 137.1338 384.5226 137.6462 384.476 138.1121 384.5692 138.4383 384.476 139.0439 383.4045 138.3451 382.7056 137.8792 381.6807 137.9724 381.2148 138.019 381.1682 138.2519 380.9818 138.3451 380.9353 138.4383 380.7955 138.5314 380.5625 138.578 380.3296 138.5314 380.0966 138.2985 378.6058 138.3917 378.1865 138.5314 377.7672 141.7461 375.9502 148.9208 373.6673 149.8526 372.4094 149.9924 372.2697 150.4117 372.0367 150.4583 371.9435 150.3185 371.5242 150.6446 371.0583 150.6446 370.4993 150.7378 370.3595 150.831 370.2197 151.0639 370.1731 151.2037 370.0334 151.4832 369.8004 151.5764 369.7538 152.1355 369.8004 152.3219 369.7538 152.4616 369.6607 152.6946 369.4277 152.7412 369.3345 152.9275 368.8221 152.9741 368.3096 153.1605 368.1232 153.1605 367.8903 153.207 367.7039 153.2536 367.6107 153.3468 367.471 153.5332 367.4244 153.6264 367.6107 153.9059 368.0766 156.3751 369.1482 159.3102 373.2946 160.5216 373.0617 161.0806 373.3878 162.292 377.9535 160.6613 398.0801 157.9592 397.8471 153.1139 392.4894 151.4832 397.5676 143.1438 393.1416 144.8676 399.6641 142.5381 399.8039 128.142 384.9885 Z" id="ID.LA" fill="#cee3f5" stroke="#6e6e6e" stroke-width="0.4">
      <desc>
        <labelrank>2</labelrank>
        <code_hasc>ID.LA</code_hasc>
        <name>Lampung</name>
        <admin>Indonesia</admin>
        <type_en>Province</type_en>
        <region/>
        <woe_id>2345724</woe_id>
        <longitude>105</longitude>
        <woe_name>Lampung</woe_name>
        <fips>ID15</fips>
        <woe_label>Lampung, ID, Indonesia</woe_label>
        <latitude>-4</latitude>
        <iso_a2>ID</iso_a2>
        <postal>LA</postal>
        <type>Propinsi</type>
        <id>ID.LA</id>
      </desc>
    </path>
    <path d="M 141.5597 337.6073 141.0473 340.589 142.0256 339.4242 142.3983 341.8469 146.8243 343.3843 142.6779 347.4842 144.2619 347.0183 144.3085 349.8136 141.6063 352.9817 144.588 350.2795 146.4982 345.807 157.633 347.3444 164.7146 359.5508 160.8943 366.2131 162.8976 368.5891 162.6647 369.7072 161.6863 371.1049 161.4533 372.0833 161.1272 373.1083 161.0806 373.3878 159.3102 373.2946 156.3751 369.1482 153.9059 368.0766 153.6264 367.6107 153.5332 367.4244 153.3934 367.4244 153.3468 367.471 153.2536 367.6107 153.207 367.7039 153.1605 367.8903 153.1605 368.1232 152.9741 368.3096 152.9275 368.8221 152.7412 369.3345 152.6946 369.4277 152.4616 369.6607 152.3219 369.7538 152.1355 369.8004 151.5764 369.7538 151.4832 369.8004 151.2037 370.0334 151.0639 370.1731 150.831 370.2197 150.7378 370.3595 150.6446 370.4993 150.6446 371.0583 150.3185 371.5242 150.4583 371.9435 150.4117 372.0367 149.9924 372.2697 149.8526 372.4094 148.9208 373.6673 141.7461 375.9502 139.8359 377.2547 138.5314 377.7672 138.3917 378.1865 138.2985 378.6058 138.5314 380.0966 138.578 380.3296 138.5314 380.5625 138.4383 380.7955 138.3451 380.9353 138.2519 380.9818 138.019 381.1682 137.9724 381.2148 137.8792 381.6807 138.4383 384.476 138.1121 384.5692 137.6462 384.476 137.1338 384.5226 135.2236 385.3612 133.7793 385.3146 132.3817 385.1749 132.1021 385.1283 131.9624 385.0351 131.9624 384.8953 131.8226 384.6158 131.8226 384.0101 130.4715 383.3113 130.3783 383.0318 129.8192 382.6125 128.4216 379.258 128.0023 377.1615 121.9457 375.3911 121.0139 372.1299 120.8275 371.9435 120.5014 371.7572 118.6378 371.9901 117.7992 371.4311 116.5879 371.4776 115.8891 371.2447 115.4232 370.9186 114.8641 370.1731 114.3516 369.847 113.7926 369.1948 113.3267 368.7289 117.2867 365.9801 117.3333 365.7938 117.1004 365.1415 117.7992 365.3279 118.731 365.2813 118.9174 364.9551 119.1037 363.7904 119.0105 363.045 118.8708 362.7655 118.7776 362.6257 118.4515 362.4393 116.6345 362.1132 115.2834 360.7621 113.2801 362.1598 112.2551 361.7405 111.6494 361.1814 111.5097 360.9951 111.3233 360.8087 111.1836 360.6223 110.9972 360.5292 110.8108 360.436 110.7177 360.3894 110.6711 360.2496 110.6711 360.203 110.7177 360.1099 110.8574 359.9235 110.9506 359.7837 110.9972 359.3178 111.137 358.8985 110.9972 358.619 110.2518 357.9668 109.32 357.6406 108.528 357.9202 108.0155 357.6872 107.5496 357.6406 107.3632 357.5475 106.8973 356.9884 106.8973 356.8486 107.2235 356.1498 106.1519 355.218 105.5928 354.2862 105.0338 353.8669 104.7076 353.4476 105.3133 352.8419 105.4997 352.7488 107.2235 351.9567 107.5962 351.2579 112.6744 352.2829 116.6345 346.9717 121.6661 347.1581 122.132 344.3161 125.533 347.6239 126.4182 341.2878 131.9158 338.539 141.5597 337.6073 Z" id="ID.SL" fill="#cee3f5" stroke="#6e6e6e" stroke-width="0.4">
      <desc>
        <labelrank>2</labelrank>
        <code_hasc>ID.SL</code_hasc>
        <name>Sumatera Selatan</name>
        <admin>Indonesia</admin>
        <type_en>Province</type_en>
        <region/>
        <woe_id>2345734</woe_id>
        <longitude>104</longitude>
        <woe_name>Sumatera Selatan</woe_name>
        <fips>ID32</fips>
        <woe_label>South Sumatra, ID, Indonesia</woe_label>
        <latitude>-3</latitude>
        <iso_a2>ID</iso_a2>
        <postal>SL</postal>
        <type>Propinsi</type>
        <id>ID.SL</id>
      </desc>
    </path>
    <path d="M 176.3619 356.5691 174.2654 355.5441 176.7346 354.985 176.3619 356.5691 Z M 190.8977 349.4409 197.1407 352.4692 196.3021 358.0599 192.9477 359.5974 191.1773 356.8486 187.7297 359.644 186.5184 354.7055 188.2887 349.6273 190.8977 349.4409 Z M 161.5465 333.8801 164.0158 335.2778 168.2088 347.8103 175.8494 349.7671 172.495 354.8453 174.5915 357.3611 171.4234 357.7338 163.3169 353.5874 160.1954 343.7105 150.4583 342.173 155.5365 334.9517 157.3535 334.4392 160.6613 338.3993 158.8909 334.5324 161.5465 333.8801 Z" id="ID.BB" fill="#cee3f5" stroke="#6e6e6e" stroke-width="0.4">
      <desc>
        <labelrank>2</labelrank>
        <code_hasc>ID.BB</code_hasc>
        <name>Bangka-Belitung</name>
        <admin>Indonesia</admin>
        <type_en>Province</type_en>
        <region/>
        <woe_id>28350154</woe_id>
        <longitude>106</longitude>
        <woe_name>Bangka-Belitung</woe_name>
        <fips>ID35</fips>
        <woe_label>Bangka-Belitung, ID, Indonesia</woe_label>
        <latitude>-2</latitude>
        <iso_a2>ID</iso_a2>
        <postal>BB</postal>
        <type>Propinsi</type>
        <id>ID.BB</id>
      </desc>
    </path>
    <path d="M 304.7153 439.4513 304.9016 441.4547 303.1312 440.3365 304.7153 439.4513 Z M 303.7369 432.1368 306.5788 435.7708 298.2394 442.0603 298.5655 439.265 290.5521 435.1651 288.2693 431.2516 294.2793 432.3698 299.1711 430.3664 303.7369 432.1368 Z" id="ID.BA" fill="#cee3f5" stroke="#6e6e6e" stroke-width="0.4">
      <desc>
        <labelrank>2</labelrank>
        <code_hasc>ID.BA</code_hasc>
        <name>Bali</name>
        <admin>Indonesia</admin>
        <type_en>Province</type_en>
        <region/>
        <woe_id>2345711</woe_id>
        <longitude>115</longitude>
        <woe_name>Bali</woe_name>
        <fips>ID02</fips>
        <woe_label>Bali, ID, Indonesia</woe_label>
        <latitude>-8</latitude>
        <iso_a2>ID</iso_a2>
        <postal>BA</postal>
        <type>Propinsi</type>
        <id>ID.BA</id>
      </desc>
    </path>
    <path d="M 281.607 412.9421 283.6103 414.4795 274.6186 418.393 262.5986 415.8306 265.2076 413.2216 281.607 412.9421 Z M 302.0597 412.4296 304.855 413.8273 300.7552 414.9454 300.0563 412.5693 302.0597 412.4296 Z M 236.9745 432.7891 242.2391 427.0586 240.7016 418.6725 244.2424 419.3248 246.6651 416.9953 247.5968 410.799 253.9796 413.408 260.968 412.8023 261.2475 417.5544 264.4622 418.5794 263.577 422.5394 269.0279 425.428 282.399 423.7508 288.2693 426.4529 287.1977 437.1219 290.7851 440.3831 270.5653 433.5345 262.2725 436.0037 236.9745 432.7891 Z" id="ID.JI" fill="#cee3f5" stroke="#6e6e6e" stroke-width="0.4">
      <desc>
        <labelrank>2</labelrank>
        <code_hasc>ID.JI</code_hasc>
        <name>Jawa Timur</name>
        <admin>Indonesia</admin>
        <type_en>Province</type_en>
        <region/>
        <woe_id>2345717</woe_id>
        <longitude>112</longitude>
        <woe_name>Jawa Timur</woe_name>
        <fips>ID08</fips>
        <woe_label>East Java, ID, Indonesia</woe_label>
        <latitude>-7</latitude>
        <iso_a2>ID</iso_a2>
        <postal>JI</postal>
        <type>Propinsi</type>
        <id>ID.JI</id>
      </desc>
    </path>
    <path d="M 313.2411 371.1981 311.6571 365.2813 315.4308 359.2713 315.9899 369.1948 313.2411 371.1981 Z M 319.9965 346.6922 319.1579 349.4875 315.9899 349.0682 315.7103 355.8702 313.5206 353.4476 313.0081 356.01 315.3842 358.0599 310.9582 365.0017 291.0646 373.2014 289.9931 361.0882 288.9215 363.3245 286.4523 362.3461 288.8749 356.01 289.2476 354.426 289.3408 354.2396 289.8067 353.7271 289.8999 353.6805 290.9248 353.4476 291.2044 353.3544 291.2976 353.3078 291.3907 353.2147 291.5771 353.0283 291.6237 352.8885 291.6703 352.7954 291.6703 352.609 291.7169 352.5158 292.8816 352.0965 292.9748 352.0033 293.0679 351.9102 293.3475 351.6306 293.4873 351.3977 295.3042 347.5774 294.9315 345.2945 301.5938 341.8469 301.2677 341.148 302.0597 339.5174 301.687 338.3527 301.7335 337.8402 302.7119 333.554 302.8051 333.2279 302.8983 333.0881 303.038 332.9483 303.7369 332.7154 304.9016 332.529 306.2061 331.97 306.5788 331.8768 306.7652 331.8768 306.8584 332.0166 306.8584 332.2029 306.7652 332.8552 305.1346 334.2062 309.4208 346.366 319.9965 346.6922 Z" id="ID.KS" fill="#cee3f5" stroke="#6e6e6e" stroke-width="0.4">
      <desc>
        <labelrank>2</labelrank>
        <code_hasc>ID.KS</code_hasc>
        <name>Kalimantan Selatan</name>
        <admin>Indonesia</admin>
        <type_en>Province</type_en>
        <region/>
        <woe_id>2345721</woe_id>
        <longitude>115</longitude>
        <woe_name>Kalimantan Selatan</woe_name>
        <fips>ID12</fips>
        <woe_label>South Kalimantan, ID, Indonesia</woe_label>
        <latitude>-3</latitude>
        <iso_a2>ID</iso_a2>
        <postal>KS</postal>
        <type>Propinsi</type>
        <id>ID.KS</id>
      </desc>
    </path>
    <path d="M 418.7191 470.0139 416.2033 473.5081 410.4262 474.533 410.3797 472.8092 418.9987 467.9174 418.7191 470.0139 Z M 397.6608 467.2185 396.729 469.6878 393.9337 469.0821 397.6608 467.2185 Z M 369.6607 450.5396 381.2148 460.0904 379.8637 463.2119 376.09 464.8425 371.4776 463.3982 363.9768 456.503 356.1032 455.6178 353.8203 453.102 358.7122 450.3998 369.6607 450.5396 Z M 442.7126 448.3965 446.1602 448.3033 445.9272 450.1669 443.0387 450.4464 444.4364 454.6394 435.7242 463.7243 420.3032 466.939 424.8223 462.7926 422.027 461.7676 425.5212 454.4531 429.1085 451.9373 433.2084 454.2667 435.4913 449.701 442.5728 446.6727 442.7126 448.3965 Z M 364.9086 440.1036 366.6324 439.5911 365.2347 442.2001 364.9086 440.1036 Z M 361.9268 437.3548 363.6506 438.6593 360.5758 441.2217 361.9268 437.3548 Z M 418.5794 435.2117 418.5328 437.5412 414.5261 437.2616 418.5794 435.2117 Z M 428.3165 435.4447 422.819 440.1036 417.5544 439.3582 421.4679 436.8423 420.4429 435.5844 422.7258 435.3515 422.6792 437.2616 423.9837 434.9322 428.3165 435.4447 Z M 432.6027 437.6344 430.646 440.1502 427.7109 438.5661 433.255 434.6061 432.6027 437.6344 Z M 437.7275 434.0004 445.5079 434.6992 446.1136 437.4014 434.4197 438.7991 437.4014 435.4913 435.1185 435.3049 437.7275 434.0004 Z M 414.0602 433.814 414.6659 436.1901 411.2649 437.8673 411.2649 440.4297 395.937 444.1569 390.2997 442.666 389.4145 444.483 384.2897 444.6693 372.1299 441.874 368.3096 443.3182 366.8187 441.3615 367.8437 436.5162 376.09 433.9072 391.9303 439.8241 399.6641 437.4014 403.5776 440.5695 412.4762 435.631 413.408 434.2799 410.4262 434.7458 411.3114 432.9754 414.0602 433.814 Z" id="ID.NT" fill="#cee3f5" stroke="#6e6e6e" stroke-width="0.4">
      <desc>
        <labelrank>2</labelrank>
        <code_hasc>ID.NT</code_hasc>
        <name>Nusa Tenggara Timur</name>
        <admin>Indonesia</admin>
        <type_en>Province</type_en>
        <region/>
        <woe_id>2345727</woe_id>
        <longitude>120</longitude>
        <woe_name>Nusa Tenggara Timur</woe_name>
        <fips>ID18</fips>
        <woe_label>East Nusa Tenggara, ID, Indonesia</woe_label>
        <latitude>-8</latitude>
        <iso_a2>ID</iso_a2>
        <postal>NT</postal>
        <type>Propinsi</type>
        <id>ID.NT</id>
      </desc>
    </path>
    <path d="M 394.6791 356.1032 387.0384 355.1248 386.2464 351.6772 382.4727 350.6988 373.8537 355.7305 377.1615 360.1565 377.3013 380.7955 374.4594 388.2498 377.3479 395.2382 375.2514 393.5609 366.3528 396.3563 362.0666 394.5859 360.9019 391.1383 365.4676 370.7788 362.6723 366.8653 363.5575 364.629 362.6723 360.436 362.0666 359.4576 362.2064 359.1315 362.3461 359.0383 362.4859 358.9917 362.9984 359.1315 363.2313 359.0849 363.5109 358.9451 363.9768 358.619 364.3029 358.4327 364.5824 358.2929 365.2813 358.1531 365.4676 358.0599 365.4676 357.9202 364.0234 354.8919 363.9768 354.6123 363.9768 354.3328 364.0234 353.3544 363.6506 352.7022 364.5824 352.5158 365.421 352.7022 365.7938 352.7022 366.8187 352.4226 367.3778 352.1431 367.5641 351.9567 367.6573 351.7704 367.7039 351.6772 367.3778 351.2113 367.5176 350.5591 367.0051 349.8602 366.9119 348.6955 366.6324 348.1364 366.8653 347.1581 366.7255 347.0183 366.5392 346.7388 366.0267 346.2729 365.8403 346.1797 365.5142 346.0399 365.3279 345.9467 365.2813 345.807 365.2813 345.6206 365.3744 345.3411 365.421 344.6422 365.4676 344.3627 365.654 344.0832 367.238 342.6855 367.7505 342.6389 367.9369 342.5457 368.1232 342.406 369.055 340.8219 376.9752 339.1447 382.2863 344.782 392.536 347.391 397.5676 351.6306 394.6791 356.1032 Z" id="ID.SE" fill="#cee3f5" stroke="#6e6e6e" stroke-width="0.4">
      <desc>
        <labelrank>2</labelrank>
        <code_hasc>ID.SE</code_hasc>
        <name>Sulawesi Selatan</name>
        <admin>Indonesia</admin>
        <type_en>Province</type_en>
        <region/>
        <woe_id>2345729</woe_id>
        <longitude>119</longitude>
        <woe_name>Sulawesi Selatan</woe_name>
        <fips>ID38</fips>
        <woe_label>South Sulawesi, ID, Indonesia</woe_label>
        <latitude>-3</latitude>
        <iso_a2>ID</iso_a2>
        <postal>SE</postal>
        <type>Propinsi</type>
        <id>ID.SE</id>
      </desc>
    </path>
    <path d="M 369.055 340.8219 368.1232 342.406 367.9369 342.5457 367.7505 342.6389 367.238 342.6855 365.4676 344.3627 365.421 344.6422 365.3744 345.3411 365.2813 345.6206 365.2813 345.807 365.3279 345.9467 365.5142 346.0399 365.8403 346.1797 366.0267 346.2729 366.5392 346.7388 366.7255 347.0183 366.8653 347.1581 366.6324 348.1364 366.9119 348.6955 367.0051 349.8602 367.5176 350.5591 367.3778 351.2113 367.7039 351.6772 367.6573 351.7704 367.5641 351.9567 367.3778 352.1431 366.8187 352.4226 365.7938 352.7022 365.421 352.7022 364.5824 352.5158 363.6506 352.7022 364.0234 353.3544 363.9768 354.3328 363.9768 354.6123 364.0234 354.8919 365.4676 357.9202 365.4676 358.0599 365.2813 358.1531 364.5824 358.2929 364.3029 358.4327 363.9768 358.619 363.5109 358.9451 363.2313 359.0849 362.9984 359.1315 362.4859 358.9917 362.3461 359.0383 362.2064 359.1315 362.1132 359.2713 362.0666 359.4576 362.1598 359.7837 362.6723 360.436 363.1848 363.4643 360.3428 362.5791 354.985 364.7222 352.4226 357.5475 354.2396 354.2862 352.3761 352.8885 358.0133 348.183 359.2247 341.6139 361.1814 340.8685 360.7155 330.2928 364.4893 324.1896 364.5358 327.0781 365.0483 328.8951 363.6972 330.1996 363.3245 330.945 363.3245 331.2711 363.4177 331.5507 363.6041 331.6904 365.6074 332.4824 365.8403 332.6222 366.0267 332.8552 366.2131 333.0881 366.3528 333.5074 366.5858 335.0449 366.6789 335.4176 366.8187 335.7437 367.471 336.5823 368.3096 337.4675 368.5425 337.8868 368.263 340.1231 369.055 340.8219 Z" id="ID.SR" fill="#cee3f5" stroke="#6e6e6e" stroke-width="0.4">
      <desc>
        <labelrank>2</labelrank>
        <code_hasc>ID.SR</code_hasc>
        <name>Sulawesi Barat</name>
        <admin>Indonesia</admin>
        <type_en>Province</type_en>
        <region/>
        <woe_id>28350155</woe_id>
        <longitude>119</longitude>
        <woe_name>Sulawesi Barat</woe_name>
        <fips>ID41</fips>
        <woe_label>West Sulawesi, ID, Indonesia</woe_label>
        <latitude>-2</latitude>
        <iso_a2>ID</iso_a2>
        <postal>SR</postal>
        <type>Propinsi</type>
        <id>ID.SR</id>
      </desc>
    </path>
    <path d="M 141.7461 317.7602 141.187 320.9749 138.8576 321.6737 137.786 317.8068 141.7461 317.7602 Z M 142.3052 311.7502 148.5015 316.2228 140.2087 315.1512 142.3052 311.7502 Z M 136.1088 298.7518 137.5531 299.1711 136.202 300.0097 135.0372 297.7735 136.1088 298.7518 Z M 135.8293 294.9315 134.9441 297.1678 132.1487 295.9565 135.8293 294.9315 Z M 142.3983 294.0929 142.4915 299.4973 140.3018 296.1428 137.2269 296.7485 138.6712 294.3724 142.3983 294.0929 Z M 160.1954 267.8166 159.2171 269.7733 158.8909 266.6053 160.1954 267.8166 Z M 197.793 251.6501 199.2838 254.8182 195.976 258.126 194.6249 257.3806 197.1407 255.9829 193.0408 252.7217 196.6282 249.3207 197.793 251.6501 Z" id="ID.KR" fill="#cee3f5" stroke="#6e6e6e" stroke-width="0.4">
      <desc>
        <labelrank>2</labelrank>
        <code_hasc>ID.KR</code_hasc>
        <name>Kepulauan Riau</name>
        <admin>Indonesia</admin>
        <type_en>Province</type_en>
        <region/>
        <woe_id>55949082</woe_id>
        <longitude>104</longitude>
        <woe_name>Kepulauan Riau</woe_name>
        <fips>ID40</fips>
        <woe_label>Kepulauan Riau, ID, Indonesia</woe_label>
        <latitude>0</latitude>
        <iso_a2>ID</iso_a2>
        <postal>KR</postal>
        <type>Propinsi</type>
        <id>ID.KR</id>
      </desc>
    </path>
    <path d="M 417.368 297.9598 423.1451 303.5505 422.819 307.1845 417.0419 304.1562 390.9054 304.9948 391.0451 304.6221 391.0917 304.4823 390.9054 303.3176 389.6009 303.038 388.2964 301.687 389.135 301.3142 389.4611 301.0813 389.5077 300.9415 389.8338 300.2893 390.0667 299.9166 390.4395 299.5904 391.0451 299.2177 391.2781 299.1245 391.5576 299.078 391.8371 299.0314 393.1416 299.3109 393.328 299.3109 393.5144 299.2643 398.7323 297.3542 398.8721 297.3542 399.0119 297.3542 399.2448 297.4007 400.7823 297.9132 401.5743 297.8201 403.8572 296.5621 413.6409 299.637 417.368 297.9598 Z" id="ID.GO" fill="#cee3f5" stroke="#6e6e6e" stroke-width="0.4">
      <desc>
        <labelrank>7</labelrank>
        <code_hasc>ID.GO</code_hasc>
        <name>Gorontalo</name>
        <admin>Indonesia</admin>
        <type_en>Province</type_en>
        <region/>
        <woe_id>2345732</woe_id>
        <longitude>122</longitude>
        <woe_name>Gorontalo</woe_name>
        <fips>ID34</fips>
        <woe_label>Gorontalo, ID, Indonesia</woe_label>
        <latitude>0</latitude>
        <iso_a2>ID</iso_a2>
        <postal>GO</postal>
        <type>Propinsi</type>
        <id>ID.GO</id>
      </desc>
    </path>
    <path d="M 141.5597 337.6073 131.9158 338.539 126.4182 341.2878 125.533 347.6239 122.132 344.3161 121.6661 347.1581 116.6345 346.9717 112.6744 352.2829 107.5962 351.2579 107.2235 351.9567 105.4997 352.7488 105.3133 352.8419 104.7076 353.4476 102.3782 352.8885 101.7259 352.2829 101.3532 352.1897 101.1203 352.1431 100.2817 351.7238 99.7692 351.3045 99.2567 350.792 98.9306 350.2795 98.3715 349.8136 98.1386 349.2546 97.9056 349.0682 97.4397 348.8819 97.2534 348.7421 97.1136 348.5557 96.7409 347.0649 96.4148 346.366 96.1352 346.1331 95.9023 345.9933 95.2966 345.4343 94.9239 345.3877 93.666 346.2729 90.7309 340.6356 90.3582 338.9584 90.265 337.4209 90.8241 337.5141 91.1036 337.4675 91.9422 337.747 94.5978 337.3743 95.2966 337.5607 95.7159 337.3277 96.3682 336.3959 96.9272 335.8835 98.1852 334.9517 98.5113 334.579 98.6976 334.2994 98.7442 331.1314 101.1669 329.3144 101.1669 329.0348 100.2817 328.8019 100.0953 327.4042 101.7725 326.7986 101.9123 326.752 103.31 325.1213 106.3849 324.6555 106.5712 324.6555 107.1769 324.8418 107.3632 324.8884 107.4564 325.0282 107.6894 325.5872 108.528 326.3793 108.7143 326.5656 108.7609 326.7054 108.8075 326.8451 108.8075 326.8917 108.9007 326.9383 109.4598 327.0781 110.0188 327.6838 111.696 328.0565 115.6561 323.6771 125.1603 322.9782 130.984 327.8235 139.1837 327.1713 141.5597 337.6073 Z" id="ID.JA" fill="#cee3f5" stroke="#6e6e6e" stroke-width="0.4">
      <desc>
        <labelrank>6</labelrank>
        <code_hasc>ID.JA</code_hasc>
        <name>Jambi</name>
        <admin>Indonesia</admin>
        <type_en>Province</type_en>
        <region/>
        <woe_id>2345714</woe_id>
        <longitude>102</longitude>
        <woe_name>Jambi</woe_name>
        <fips>ID05</fips>
        <woe_label>Jambi, ID, Indonesia</woe_label>
        <latitude>-1</latitude>
        <iso_a2>ID</iso_a2>
        <postal>JA</postal>
        <type>Propinsi</type>
        <id>ID.JA</id>
      </desc>
    </path>
    <path d="M 296.7485 314.499 297.261 313.9399 297.4007 313.8933 297.8666 313.6604 298.0064 313.6138 298.0996 313.474 298.1928 313.3809 298.3325 313.1479 299.4973 311.7968 299.87 311.5173 300.1029 311.5173 300.8018 311.4241 301.7335 311.6105 301.7801 311.6571 301.8733 311.7036 301.8733 311.7968 301.8733 311.8434 301.7335 312.3093 301.5472 313.2877 301.5006 313.474 301.0347 314.3126 300.9415 314.5922 300.8018 316.4557 302.8517 323.2578 303.5505 324.8884 304.3891 325.6804 307.6504 328.1031 307.8367 328.1496 308.3492 327.9167 308.6288 327.8235 308.8151 329.6405 308.7219 329.8269 308.6753 330.5723 308.5822 330.8984 307.8367 332.2961 307.6038 332.6222 307.3708 332.8552 306.7652 332.8552 306.8584 332.2029 306.8584 332.0166 306.7652 331.8768 306.5788 331.8768 306.2061 331.97 304.9016 332.529 303.7369 332.7154 303.038 332.9483 302.8983 333.0881 301.7335 337.8402 301.687 338.3527 302.0597 339.5174 301.2677 341.148 301.5938 341.8469 294.9315 345.2945 295.3042 347.5774 293.86 349.8136 293.6736 350.4193 293.4873 351.3977 293.3475 351.6306 293.0679 351.9102 292.9748 352.0033 292.8816 352.0965 291.7169 352.5158 291.6703 352.609 291.6703 352.7954 291.5771 353.0283 291.3907 353.2147 291.2976 353.3078 291.2044 353.3544 290.9248 353.4476 289.8999 353.6805 289.8067 353.7271 289.3408 354.2396 289.2476 354.426 289.201 354.6123 288.8749 356.01 286.4523 362.3461 287.2909 359.0849 284.6353 361.6007 283.6103 358.7588 282.4922 361.1814 276.4356 362.6723 276.1561 358.5258 271.5903 358.3395 272.2891 359.9701 267.6302 354.7987 267.4439 358.3395 261.76 362.0666 255.3307 360.8087 250.6717 364.3029 248.715 352.0965 246.0128 356.1964 242.9379 354.7987 237.3472 357.2679 233.9462 356.3361 237.0677 354.4726 236.9745 354.2862 237.3938 354.0999 237.5336 354.0533 237.6733 353.9601 237.9529 353.4942 238.1858 352.8885 238.3722 352.6556 238.5585 352.5158 239.3971 352.1431 239.5835 352.0499 239.7699 351.9102 239.863 351.7238 239.9562 351.5374 239.4437 349.7671 239.5835 347.2046 237.487 342.3128 238.0926 337.7004 237.7665 337.1414 237.7665 337.0016 237.8597 336.6289 237.8131 336.2562 237.7199 336.163 237.6268 336.1164 236.8347 336.3494 236.6484 336.2096 236.5086 336.0232 236.3688 335.8369 236.3688 335.6971 236.3688 335.5573 236.462 335.4176 236.6018 335.2778 236.9279 334.9051 238.0926 334.2062 239.1642 334.4392 239.304 334.4392 239.5369 334.346 253.8864 322.6987 254.0728 322.6521 255.8897 322.6987 257.7533 322.9782 260.8748 322.2328 269.4006 318.7852 270.4722 319.9034 270.6119 319.9965 270.9381 319.9499 271.5903 318.2727 270.8449 316.8285 274.2459 312.915 271.9164 308.256 272.4289 308.0697 273.4073 307.7901 275.1777 307.9765 276.3424 307.2777 276.4822 307.1379 276.5288 306.2993 276.5754 306.0663 276.7151 305.8334 277.1344 305.3675 277.6469 304.4357 278.0196 304.2028 278.2526 303.9232 278.6253 303.6437 279.0446 303.5039 279.79 303.4108 279.9764 303.3642 280.6286 303.1312 280.8616 303.038 281.4672 302.9915 281.7002 302.9449 281.8399 302.8051 282.1661 302.479 282.6785 302.3392 291.7169 302.7119 296.3758 301.0347 296.5621 301.4074 297.1212 301.7801 297.3542 302.1994 297.4939 302.3858 297.6337 303.1312 297.8666 303.6437 297.8666 303.8301 297.7269 304.2028 297.5871 304.3891 297.2144 304.6687 297.0746 304.8084 296.236 306.5322 296.0031 307.2777 296.3292 309.281 296.8883 310.2594 296.9349 310.4923 297.028 310.6787 297.028 310.865 296.9814 311.0048 296.5156 312.1229 296.2826 312.8684 296.236 313.1479 296.236 313.2877 296.2826 313.4274 296.3758 313.6138 296.3758 314.3126 296.5156 314.499 296.6553 314.499 296.7485 314.499 Z" id="ID.KT" fill="#cee3f5" stroke="#6e6e6e" stroke-width="0.4">
      <desc>
        <labelrank>2</labelrank>
        <code_hasc>ID.KT</code_hasc>
        <name>Kalimantan Tengah</name>
        <admin>Indonesia</admin>
        <type_en>Province</type_en>
        <region/>
        <woe_id>2345722</woe_id>
        <longitude>113</longitude>
        <woe_name>Kalimantan Tengah</woe_name>
        <fips>ID13</fips>
        <woe_label>Central Kalimantan, ID, Indonesia</woe_label>
        <latitude>-1</latitude>
        <iso_a2>ID</iso_a2>
        <postal>KT</postal>
        <type>Propinsi</type>
        <id>ID.KT</id>
      </desc>
    </path>
    <path d="M 577.5884 378.5126 578.66 379.6308 573.9545 376.4627 577.5884 378.5126 Z M 528.1573 338.0266 529.3686 342.406 526.0142 343.6173 518.1872 340.8219 528.1573 338.0266 Z M 537.2422 326.1929 539.4319 326.9849 537.6149 332.8552 532.7696 327.1713 537.2422 326.1929 Z M 535.7513 323.7703 528.9027 326.2395 529.8811 324.2827 535.7513 323.7703 Z M 595.7582 356.8952 588.6301 365.421 604.9363 371.8038 598.4604 379.491 594.9196 377.2081 595.4787 374.7389 600.091 374.4594 595.4321 373.9003 593.0095 375.7173 590.0278 373.1083 589.6551 375.5309 586.8131 371.0583 584.5302 372.7355 582.294 368.5425 582.061 370.5924 580.1043 369.7538 579.9645 362.812 583.878 361.0416 582.853 358.0133 579.7315 361.0882 578.9861 365.7006 577.2157 365.0483 578.3805 367.7039 575.4453 370.4527 576.0976 372.689 568.6433 376.4161 564.7764 369.5209 567.9911 367.6107 566.1741 363.2779 563.9378 363.9768 558.6266 357.9202 553.1757 357.5475 552.8961 355.3112 556.763 353.634 565.1491 355.8702 572.1375 349.9068 575.3987 351.3977 575.3522 353.9601 576.4237 351.1181 576.4703 353.4476 576.843 351.584 579.4986 351.9567 580.1043 354.7055 580.6633 351.4909 582.2474 353.6805 581.2224 350.3261 585.3223 349.5807 583.1326 348.8353 584.4836 346.6456 581.9678 347.5308 584.3439 345.1547 579.6384 347.1115 558.4869 347.2512 552.8496 341.4276 553.5484 335.8369 537.3819 333.7404 541.9011 329.2212 542.0408 324.5623 551.9644 322.6055 560.1641 317.3875 569.2956 318.8318 575.8646 323.2578 585.1359 323.3044 588.2574 325.5406 586.0677 326.9849 589.9346 333.2279 586.7665 338.4459 587.8847 348.5557 592.497 357.2213 592.9163 352.0965 595.3855 351.7238 595.7582 356.8952 Z M 535.5649 311.9366 543.6715 316.3626 537.8478 317.4341 532.8162 313.1013 537.4751 317.5739 534.1207 318.692 533.4218 316.3626 531.2321 318.5989 530.8594 315.8501 526.1073 314.9649 535.5649 311.9366 Z" id="ID.IB" fill="#cee3f5" stroke="#6e6e6e" stroke-width="0.4">
      <desc>
        <labelrank>2</labelrank>
        <code_hasc>ID.IB</code_hasc>
        <name>Irian Jaya Barat</name>
        <admin>Indonesia</admin>
        <type_en>Province</type_en>
        <region/>
        <woe_id>28350157</woe_id>
        <longitude>132</longitude>
        <woe_name>Irian Jaya Barat</woe_name>
        <fips>ID39</fips>
        <woe_label>West Papua, ID, Indonesia</woe_label>
        <latitude>-1</latitude>
        <iso_a2>ID</iso_a2>
        <postal>IB</postal>
        <type>Propinsi</type>
        <id>ID.IB</id>
      </desc>
    </path>
    <path d="M 50.338 319.6238 47.1233 319.8102 49.4528 315.5706 50.338 319.6238 Z M 51.4561 316.083 51.1766 317.6205 47.4495 311.9832 51.4561 316.083 Z M 52.4345 309.2344 55.7889 310.5855 51.13 310.4923 52.4345 309.2344 Z M 33.4261 288.7351 41.9985 296.8883 40.1816 303.3642 28.7206 290.5987 33.4261 288.7351 Z M 78.2915 273.4539 77.8722 283.0047 80.1551 287.5704 74.4246 291.1112 76.7541 294.419 76.0087 300.4756 68.9271 298.5189 71.9554 304.296 66.7374 303.3642 60.4479 308.0697 53.8322 288.1761 55.5094 286.4057 44.6075 278.6719 41.2065 262.4122 43.1167 261.2941 39.9952 255.0977 44.5144 247.3639 47.6358 246.8514 46.2382 249.5536 47.4961 248.5286 69.8589 263.9497 73.3065 267.4905 73.6792 272.7085 74.3781 270.8449 75.4496 273.8266 76.6143 271.1244 78.2915 273.4539 Z" id="ID.SU" fill="#cee3f5" stroke="#6e6e6e" stroke-width="0.4">
      <desc>
        <labelrank>2</labelrank>
        <code_hasc>ID.SU</code_hasc>
        <name>Sumatera Utara</name>
        <admin>Indonesia</admin>
        <type_en>Province</type_en>
        <region/>
        <woe_id>2345735</woe_id>
        <longitude>99</longitude>
        <woe_name>Sumatera Utara</woe_name>
        <fips>ID26</fips>
        <woe_label>North Sumatra, ID, Indonesia</woe_label>
        <latitude>2</latitude>
        <iso_a2>ID</iso_a2>
        <postal>SU</postal>
        <type>Propinsi</type>
        <id>ID.SU</id>
      </desc>
    </path>
    <path d="M 129.9124 317.0148 125.4865 316.8285 126.9307 315.1978 129.9124 317.0148 Z M 121.2934 304.2028 121.7593 301.3142 123.0638 303.3176 121.2934 304.2028 Z M 113.2801 296.9814 118.9174 299.2643 119.0571 301.3608 109.6461 298.845 111.0904 297.6337 110.904 294.9781 113.2801 296.9814 Z M 119.1503 296.2826 120.5014 299.4507 112.9539 296.6087 114.9107 294.4656 119.1503 296.2826 Z M 110.5313 297.4939 109.1336 297.9132 107.1769 295.7235 106.8508 290.8317 110.6711 293.3475 110.5313 297.4939 Z M 107.1769 288.409 110.9506 289.6203 111.2301 292.7884 103.7293 287.7102 107.1769 288.409 Z M 99.4431 281.0945 99.3499 285.2875 95.9489 285.8466 94.8773 281.2343 99.4431 281.0945 Z M 100.0953 327.4042 86.3049 316.6887 84.6277 313.1013 86.0254 308.8617 77.3598 305.088 76.0087 300.4756 76.7541 294.419 74.4246 291.1112 80.1551 287.5704 77.8722 283.0047 78.2915 273.4539 80.0619 277.6935 87.7492 284.4955 85.5595 278.7185 89.3798 277.5071 94.9705 286.2659 99.8158 287.0113 105.3599 291.1578 106.711 296.5621 109.9256 299.87 116.7277 301.0347 119.8026 304.2028 112.3017 309.1878 110.1586 308.3026 112.2085 309.514 123.9956 303.8767 129.959 308.3026 130.5647 311.9832 122.5979 315.7103 125.9058 315.0115 123.7626 317.3409 127.5364 318.3659 124.1354 318.5523 125.1603 322.9782 115.6561 323.6771 111.696 328.0565 110.0188 327.6838 109.4598 327.0781 108.9007 326.9383 108.8075 326.8917 108.8075 326.8451 108.7609 326.7054 108.7143 326.5656 108.528 326.3793 107.6894 325.5872 107.5962 325.2145 107.4564 325.0282 107.3632 324.8884 107.1769 324.8418 106.5712 324.6555 106.3849 324.6555 103.31 325.1213 100.0953 327.4042 Z" id="ID.RI" fill="#cee3f5" stroke="#6e6e6e" stroke-width="0.4">
      <desc>
        <labelrank>2</labelrank>
        <code_hasc>ID.RI</code_hasc>
        <name>Riau</name>
        <admin>Indonesia</admin>
        <type_en>Province</type_en>
        <region/>
        <woe_id>2345728</woe_id>
        <longitude>101</longitude>
        <woe_name>Riau</woe_name>
        <fips>ID37</fips>
        <woe_label>Riau, ID, Indonesia</woe_label>
        <latitude>0</latitude>
        <iso_a2>ID</iso_a2>
        <postal>RI</postal>
        <type>Propinsi</type>
        <id>ID.RI</id>
      </desc>
    </path>
    <path d="M 422.819 307.1845 423.1451 303.5505 417.368 297.9598 430.0403 299.4041 439.9172 293.9066 439.2184 291.4373 446.9522 286.6386 449.8407 289.4806 438.0071 305.1346 422.819 307.1845 Z M 455.2451 258.7783 455.2451 260.5952 453.4747 259.6169 452.4032 255.517 455.2451 258.7783 Z M 473.974 243.6834 474.7194 246.898 471.0854 251.1842 472.949 247.8298 471.7843 243.1243 473.974 243.6834 Z" id="ID.SW" fill="#cee3f5" stroke="#6e6e6e" stroke-width="0.4">
      <desc>
        <labelrank>2</labelrank>
        <code_hasc>ID.SW</code_hasc>
        <name>Sulawesi Utara</name>
        <admin>Indonesia</admin>
        <type_en>Province</type_en>
        <region/>
        <woe_id>28350156</woe_id>
        <longitude>124</longitude>
        <woe_name>Sulawesi Utara</woe_name>
        <fips>ID31</fips>
        <woe_label>North Sulawesi, ID, Indonesia</woe_label>
        <latitude>0</latitude>
        <iso_a2>ID</iso_a2>
        <postal>SW</postal>
        <type>Propinsi</type>
        <id>ID.SW</id>
      </desc>
    </path>
    <path d="M 462.2801 349.1148 459.0654 343.3843 460.1836 341.5673 462.2801 349.1148 Z M 452.4032 338.9118 466.4731 339.3777 452.5429 341.2412 452.4032 338.9118 Z M 438.9389 336.4425 450.3532 337.9334 450.8657 340.2163 437.0287 341.9401 435.9106 339.2845 438.9389 336.4425 Z M 489.2087 333.6938 494.1005 337.3277 482.2669 336.6755 483.0123 333.3676 486.1803 332.1097 489.2087 333.6938 Z M 481.3817 323.7237 478.9124 323.5839 479.6113 321.3476 481.3817 323.7237 Z M 486.2269 318.1795 486.5065 322.6521 490.2802 323.5839 488.0905 325.4009 486.0872 323.3044 483.5248 324.2827 481.0089 319.1113 482.0805 316.8285 486.2269 318.1795 Z M 479.7976 315.6637 480.5896 318.925 478.3534 319.8568 479.7976 315.6637 Z M 492.5631 278.4389 489.395 283.6569 492.004 285.6603 492.0506 291.9498 486.2269 297.8666 489.9075 299.3109 494.5664 294.2327 493.2153 292.6952 494.9391 290.6453 502.8593 287.85 502.6264 295.4906 495.1255 300.0563 502.3468 303.3642 502.4866 306.5788 505.7012 308.4424 490.4666 305.1812 491.5847 315.8967 498.6197 325.7736 492.3301 322.5123 486.8326 315.3842 487.4848 307.0913 484.5963 303.3176 486.0872 299.2177 482.593 295.6769 485.3417 285.1944 492.5631 278.4389 Z M 500.7628 271.963 502.3002 274.5254 500.5298 279.4173 495.8709 281.374 494.8459 276.9481 500.7628 271.963 Z" id="ID.133" fill="#cee3f5" stroke="#6e6e6e" stroke-width="0.4">
      <desc>
        <labelrank>2</labelrank>
        <code_hasc>ID.LA</code_hasc>
        <name>Maluku Utara</name>
        <admin>Indonesia</admin>
        <type_en>Province</type_en>
        <region/>
        <woe_id>20069998</woe_id>
        <longitude>125</longitude>
        <woe_name>Maluku Utara</woe_name>
        <fips>ID29</fips>
        <woe_label>North Maluku, ID, Indonesia</woe_label>
        <latitude>-2</latitude>
        <iso_a2>ID</iso_a2>
        <postal>LA</postal>
        <type>Propinsi</type>
        <id>ID.133</id>
      </desc>
    </path>
    <path d="M 80.6676 357.9668 80.621 361.9734 76.428 353.8669 80.6676 357.9668 Z M 76.6609 353.3544 73.819 354.5192 73.2599 349.2546 76.6609 353.3544 Z M 69.0203 343.9434 71.3032 347.6705 66.3181 344.2229 67.2965 342.2196 69.0203 343.9434 Z M 56.9537 326.0997 61.9853 338.7254 56.4878 337.2811 52.0152 330.0132 53.1334 326.3327 56.9537 326.0997 Z M 76.0087 300.4756 77.3598 305.088 86.0254 308.8617 84.6277 313.1013 86.3049 316.6887 100.0953 327.4042 100.2817 327.7769 100.3283 328.1496 100.2817 328.8019 101.1669 329.0348 101.1669 329.3144 100.8407 329.9666 100.1885 330.6189 98.7442 331.1314 98.8374 333.8335 98.6976 334.2994 98.5113 334.579 98.1852 334.9517 96.9272 335.8835 96.3682 336.3959 95.7159 337.3277 95.2966 337.5607 94.5978 337.3743 91.9422 337.747 91.1036 337.4675 90.8241 337.5141 90.265 337.4209 90.3582 338.9584 90.7309 340.6356 92.5013 343.0582 93.1069 344.5025 93.666 346.2729 89.0537 349.0682 77.9188 324.143 67.7624 310.6321 60.4479 308.0697 66.7374 303.3642 71.9554 304.296 68.9271 298.5189 76.0087 300.4756 Z" id="ID.SB" fill="#cee3f5" stroke="#6e6e6e" stroke-width="0.4">
      <desc>
        <labelrank>2</labelrank>
        <code_hasc>ID.SB</code_hasc>
        <name>Sumatera Barat</name>
        <admin>Indonesia</admin>
        <type_en>Province</type_en>
        <region/>
        <woe_id>2345733</woe_id>
        <longitude>100</longitude>
        <woe_name>Sumatera Barat</woe_name>
        <fips>ID24</fips>
        <woe_label>West Sumatra, ID, Indonesia</woe_label>
        <latitude>0</latitude>
        <iso_a2>ID</iso_a2>
        <postal>SB</postal>
        <type>Propinsi</type>
        <id>ID.SB</id>
      </desc>
    </path>
    <path d="M 233.2008 426.8257 234.1326 427.012 234.4121 427.1518 234.5519 427.3381 234.5985 427.4313 234.5985 427.6177 234.645 428.3165 234.7382 428.6892 234.8314 431.2516 234.878 431.3914 234.9712 431.4846 235.3905 431.438 235.4836 432.4164 223.6966 427.8972 223.7432 427.5245 223.7897 427.3847 224.0227 427.1052 224.7681 425.9871 224.9079 425.7541 224.9545 425.4746 224.9079 425.0553 225.0942 424.7757 225.4204 424.636 226.6783 424.6826 226.8646 425.3348 227.4703 424.636 229.1009 423.4712 229.4736 423.0053 229.5202 423.1451 230.0327 425.3814 230.2657 425.8939 230.4986 426.3132 230.9645 426.6859 231.5702 426.8257 233.2008 426.8257 Z" id="ID.YO" fill="#cee3f5" stroke="#6e6e6e" stroke-width="0.4">
      <desc>
        <labelrank>7</labelrank>
        <code_hasc>ID.YO</code_hasc>
        <name>Yogyakarta</name>
        <admin>Indonesia</admin>
        <type_en>Special region</type_en>
        <region/>
        <woe_id>2345719</woe_id>
        <longitude>110</longitude>
        <woe_name>Yogyakarta</woe_name>
        <fips>ID10</fips>
        <woe_label>Special Region of Yogyakarta, ID, Indonesia</woe_label>
        <latitude>-7</latitude>
        <iso_a2>ID</iso_a2>
        <postal>YO</postal>
        <type>Daerah Istimewa</type>
        <id>ID.YO</id>
      </desc>
    </path>
    <path d="M 486.9258 435.2117 491.3518 436.3765 489.4882 437.7741 486.9258 435.2117 Z M 536.4967 438.0071 538.1274 437.8207 531.5117 441.0354 536.4967 438.0071 Z M 516.5565 432.0437 516.5565 435.7708 513.7146 433.3016 516.5565 432.0437 Z M 470.34 428.0836 471.9706 429.4812 466.3333 432.463 460.137 431.0187 455.8973 432.7425 458.9722 427.5711 468.9423 426.4064 470.34 428.0836 Z M 480.4499 428.1302 480.2635 425.9405 481.9407 426.4064 480.4499 428.1302 Z M 546.0941 423.2849 545.4419 430.3199 540.2705 436.2833 537.1956 435.864 539.4784 428.037 546.0941 423.2849 Z M 550.2406 422.4929 550.8928 424.9155 547.352 422.9588 550.2406 422.4929 Z M 592.9163 413.6875 591.7982 415.3647 588.8164 412.5228 590.4471 411.4046 592.9163 413.6875 Z M 590.1675 413.967 591.0527 417.0419 585.8813 421.2349 583.878 418.7191 585.0427 413.9204 586.5802 414.759 585.0893 409.541 590.1675 413.967 Z M 586.0211 406.8389 587.8381 407.7707 587.3256 409.0286 590.0744 411.3114 586.0211 409.8206 586.0211 406.8389 Z M 593.1492 397.8937 595.8048 401.9004 595.2458 406.6059 593.1492 406.2332 595.7582 408.5627 592.9629 412.8489 588.071 409.2615 588.1642 407.6775 589.4221 407.2116 589.7016 403.5776 586.9529 402.2265 593.1492 397.8937 Z M 568.7831 400.5027 565.3821 405.8139 570.6932 394.912 568.7831 400.5027 Z M 498.014 367.2846 497.9674 365.7006 499.9708 366.446 498.014 367.2846 Z M 496.3368 366.3994 494.9857 368.6823 490.3268 369.2414 491.9108 366.5858 496.3368 366.3994 Z M 501.5548 365.9335 502.5798 367.1914 500.0174 365.2813 501.5548 365.9335 Z M 474.3001 359.0383 480.1237 363.0916 479.7976 366.6789 472.1104 370.3595 463.9573 366.7721 461.0687 362.6723 462.3732 358.8985 474.3001 359.0383 Z M 515.2986 354.6123 531.4185 360.2496 535.7513 367.1914 535.1456 371.7106 520.5632 363.1848 514.693 362.6257 514.2737 365.0949 506.2137 363.2779 504.9558 360.9019 498.8526 364.8154 494.0539 358.6656 489.8609 365.5608 489.1155 360.1099 493.1221 358.6656 494.2403 355.4509 507.7512 354.8453 509.6613 357.2213 515.2986 354.6123 Z" id="ID.MA" fill="#cee3f5" stroke="#6e6e6e" stroke-width="0.4">
      <desc>
        <labelrank>2</labelrank>
        <code_hasc>ID.MA</code_hasc>
        <name>Maluku</name>
        <admin>Indonesia</admin>
        <type_en>Province</type_en>
        <region/>
        <woe_id>20069997</woe_id>
        <longitude>128</longitude>
        <woe_name>Maluku</woe_name>
        <fips>ID28</fips>
        <woe_label>Maluku, ID, Indonesia</woe_label>
        <latitude>-8</latitude>
        <iso_a2>ID</iso_a2>
        <postal>MA</postal>
        <type>Propinsi</type>
        <id>ID.MA</id>
      </desc>
    </path>
    <path d="M 321.8601 435.4913 319.2045 442.8989 308.5822 441.641 312.2161 440.4763 311.3775 436.1901 315.1978 433.1618 321.8601 435.4913 Z M 333.7869 435.4447 332.8552 432.5561 335.4642 432.0902 333.7869 435.4447 Z M 339.9833 431.438 344.9218 435.4913 349.9068 434.3731 350.1398 438.1934 351.4443 434.9322 354.8919 434.7458 357.6406 440.8956 347.0649 442.8058 346.4126 438.6593 342.5457 442.8058 326.5656 446.0204 322.093 444.7159 323.2578 437.2151 328.5224 435.072 334.8119 436.3299 337.4209 440.5229 344.4093 439.4979 336.0698 433.3016 339.9833 431.438 Z" id="ID.NB" fill="#cee3f5" stroke="#6e6e6e" stroke-width="0.4">
      <desc>
        <labelrank>2</labelrank>
        <code_hasc>ID.NB</code_hasc>
        <name>Nusa Tenggara Barat</name>
        <admin>Indonesia</admin>
        <type_en>Province</type_en>
        <region/>
        <woe_id>2345726</woe_id>
        <longitude>116</longitude>
        <woe_name>Nusa Tenggara Barat</woe_name>
        <fips>ID17</fips>
        <woe_label>West Nusa Tenggara, ID, Indonesia</woe_label>
        <latitude>-8</latitude>
        <iso_a2>ID</iso_a2>
        <postal>NB</postal>
        <type>Propinsi</type>
        <id>ID.NB</id>
      </desc>
    </path>
    <path d="M 399.1516 387.7373 401.2948 389.1816 400.7357 393.2814 397.4278 390.1599 399.1516 387.7373 Z M 412.0103 385.7805 409.2149 392.7689 407.957 390.7656 404.4628 391.9303 406.14 382.6591 411.0785 380.7955 412.0103 385.7805 Z M 418.5794 381.8205 418.5328 384.2897 416.1567 382.7056 414.4795 389.135 418.4396 391.1383 413.3614 393.4212 412.3364 396.8222 409.9604 396.6358 408.7024 394.0268 412.4762 389.694 414.0602 378.699 416.7624 377.4877 418.5794 381.8205 Z M 416.7624 371.664 419.2782 372.456 417.5544 375.2514 414.8056 372.3162 416.7624 371.664 Z M 394.6791 356.1032 405.7673 360.1565 406.3264 363.1382 404.4162 362.2064 403.7174 365.421 410.4262 369.9402 408.7956 371.1049 410.8455 373.6673 413.2216 372.456 413.967 377.4411 410.5194 376.2763 411.8239 378.8387 403.9503 378.466 401.155 380.7955 401.7606 383.9636 395.9836 383.8238 392.6292 380.6557 394.9586 372.689 383.8238 363.837 387.0384 355.1248 394.6791 356.1032 Z" id="ID.SG" fill="#cee3f5" stroke="#6e6e6e" stroke-width="0.4">
      <desc>
        <labelrank>2</labelrank>
        <code_hasc>ID.SG</code_hasc>
        <name>Sulawesi Tenggara</name>
        <admin>Indonesia</admin>
        <type_en>Province</type_en>
        <region/>
        <woe_id>2345731</woe_id>
        <longitude>122</longitude>
        <woe_name>Sulawesi Tenggara</woe_name>
        <fips>ID22</fips>
        <woe_label>South East Sulawesi, ID, Indonesia</woe_label>
        <latitude>-4</latitude>
        <iso_a2>ID</iso_a2>
        <postal>SG</postal>
        <type>Propinsi</type>
        <id>ID.SG</id>
      </desc>
    </path>
    <path d="M 424.4496 335.8369 423.2849 337.4675 423.8439 334.0199 424.4496 335.8369 Z M 418.9055 329.128 419.3714 332.7154 422.027 330.1064 424.1701 331.0848 423.8439 333.3211 420.21 333.1347 418.5328 336.1164 418.0669 331.3177 413.967 335.5573 414.3863 329.5473 418.9055 329.128 Z M 398.7323 317.8534 399.338 319.4375 395.5177 319.9965 398.7323 317.8534 Z M 405.8139 315.291 406.5593 317.0148 404.2765 314.8251 405.8139 315.291 Z M 405.7673 360.1565 394.6791 356.1032 397.5676 351.6306 392.536 347.391 382.2863 344.782 376.9752 339.1447 369.055 340.8219 368.263 340.1231 368.5425 337.8868 368.3096 337.4675 367.471 336.5823 366.8187 335.7437 366.6789 335.4176 366.5858 335.0449 366.3528 333.5074 366.2131 333.0881 366.0267 332.8552 365.8403 332.6222 365.6074 332.4824 363.6041 331.6904 363.4177 331.5507 363.3245 331.2711 363.3245 330.945 365.0017 329.1746 365.0483 328.8951 364.9551 328.4292 364.5358 327.0781 364.4893 324.1896 365.8869 322.1862 367.0051 321.2544 368.9152 324.2362 367.9834 313.707 365.421 312.1229 368.7289 312.7752 367.7971 308.3026 371.664 300.9881 375.1116 297.1212 379.4444 300.2427 384.5226 291.7634 392.6292 292.5555 394.6791 296.0497 403.764 296.469 401.5743 297.8201 400.7823 297.9132 399.2448 297.4007 399.0119 297.3542 398.8721 297.3542 398.7323 297.3542 393.5144 299.2643 393.328 299.3109 393.1416 299.3109 392.2564 299.078 391.8371 299.0314 391.5576 299.078 391.2781 299.1245 391.0451 299.2177 390.4395 299.5904 389.8338 300.2893 389.5077 300.9415 389.4611 301.0813 388.2964 301.687 389.135 302.5256 389.6009 303.038 390.9054 303.3176 391.0917 304.4823 391.0451 304.6221 390.9054 304.9948 390.8588 304.9948 390.719 304.9482 390.2065 304.6687 389.8338 304.7153 387.5509 305.8334 376.6025 304.7618 370.9186 314.9649 372.3162 321.6272 378.4194 326.3327 381.0284 332.5756 387.4577 332.762 395.1916 323.7703 399.7573 326.0997 403.9969 323.2578 414.8522 323.2112 411.9171 321.534 416.809 320.2295 422.2133 321.6737 421.1884 327.4042 417.368 324.3293 413.5011 325.3077 406.373 334.1131 398.7789 336.7221 396.2165 340.2628 390.2997 338.8652 405.0219 354.9385 404.8821 357.1747 407.7707 358.8985 405.7673 360.1565 Z" id="ID.ST" fill="#cee3f5" stroke="#6e6e6e" stroke-width="0.4">
      <desc>
        <labelrank>2</labelrank>
        <code_hasc>ID.ST</code_hasc>
        <name>Sulawesi Tengah</name>
        <admin>Indonesia</admin>
        <type_en>Province</type_en>
        <region/>
        <woe_id>2345730</woe_id>
        <longitude>120</longitude>
        <woe_name>Sulawesi Tengah</woe_name>
        <fips>ID21</fips>
        <woe_label>Central Sulawesi, ID, Indonesia</woe_label>
        <latitude>-1</latitude>
        <iso_a2>ID</iso_a2>
        <postal>ST</postal>
        <type>Propinsi</type>
        <id>ID.ST</id>
      </desc>
    </path>
    <path d="M 660.0514 448.7692 654.2743 448.2567 658.3276 445.4614 660.0514 448.7692 Z M 660.2378 443.6444 651.4324 449.0953 639.5055 448.4897 646.261 436.1435 652.8301 432.7425 659.5389 432.6493 663.7319 436.2833 660.2378 443.6444 Z M 609.0362 337.2345 631.9581 340.9151 621.6619 342.5457 609.0362 337.2345 Z M 598.4604 379.491 604.9363 371.8038 588.6301 365.421 595.7582 356.8952 596.6434 359.2713 598.6468 357.9668 598.0411 361.6939 600.6035 364.8154 608.6635 365.4676 621.4755 352.9817 623.4323 347.7637 636.3841 345.9467 635.592 340.9151 647.3325 335.7903 679.153 350.8386 685.4425 350.3727 695.1797 353.5874 694.7604 355.8237 699 355.3578 696.391 417.7408 693.9218 423.7508 695.8319 427.1052 693.0366 463.8641 677.9883 447.4181 681.0166 442.5728 677.8485 445.8341 668.2511 446.859 665.6421 442.5728 660.2843 447.7908 659.306 444.8557 660.7036 444.1569 664.0115 436.0037 657.4424 429.6676 666.8534 429.4812 660.3775 428.9688 655.9981 425.0087 662.1013 424.1235 666.2478 426.4995 658.1878 421.794 660.5639 421.7474 654.9266 416.4828 652.038 408.3763 654.4141 407.165 650.4074 406.0003 653.855 404.6026 649.0563 405.1617 649.2893 399.9903 648.078 401.0618 636.7568 391.7905 629.4889 391.4178 615.5587 384.0567 604.0045 382.9386 598.4604 379.491 Z M 608.2907 322.326 615.4655 323.118 623.6652 329.92 615.6518 330.8052 613.7417 325.3077 608.8498 324.5157 608.2907 322.326 Z" id="ID.PA" fill="#cee3f5" stroke="#6e6e6e" stroke-width="0.4">
      <desc>
        <labelrank>2</labelrank>
        <code_hasc>ID.PA</code_hasc>
        <name>Papua</name>
        <admin>Indonesia</admin>
        <type_en>Province</type_en>
        <region/>
        <woe_id>2345718</woe_id>
        <longitude>138</longitude>
        <woe_name>Papua</woe_name>
        <fips>ID36</fips>
        <woe_label>Papua, ID, Indonesia</woe_label>
        <latitude>-4</latitude>
        <iso_a2>ID</iso_a2>
        <postal>PA</postal>
        <type>Propinsi</type>
        <id>ID.PA</id>
      </desc>
    </path>
  </g>
</svg>