<?xml version="1.0" encoding="UTF-8"?>
<svg xmlns="http://www.w3.org/2000/svg" width="700" height="700">
  <g id="new_hampshire">
    <path d="M 433.6045 543.4568 435.5487 541.5125 456.9359 522.0696 447.2145 479.2953 454.9916 473.4624 470.546 481.2396 509.4318 471.5181 503.5989 508.4596 505.5432 520.1253 517.2089 525.9582 548.3175 559.0111 548.3175 584.2869 532.7632 595.9526 517.2089 592.0641 480.2674 595.9526 491.9331 580.3983 433.6045 543.4568 Z" id="US.NH.017" fill="#cee3f5" stroke="#6e6e6e" stroke-width="0.4">
      <desc>
        <name>Strafford County</name>
        <stateAbbrev>NH</stateAbbrev>
        <state>New Hampshire</state>
        <fips>017</fips>
        <incits>33017</incits>
        <id>US.NH.017</id>
        <population>124593</population>
      </desc>
    </path>
    <path d="M 394.7187 615.3955 394.7187 607.6184 433.6045 543.4568 491.9331 580.3983 480.2674 595.9526 517.2089 592.0641 532.7632 595.9526 548.3175 584.2869 604.7019 623.1727 616.3677 638.727 593.0362 638.727 581.3705 630.9499 571.649 650.3928 548.3175 652.337 519.1532 648.4485 491.9331 654.2813 482.2117 669.8357 464.7131 664.0028 449.1588 673.7242 451.1031 687.3343 433.6045 685.39 406.3844 677.6128 396.663 664.0028 384.9972 664.0028 379.1643 634.8384 398.6072 632.8942 394.7187 615.3955 Z" id="US.NH.015" fill="#cee3f5" stroke="#6e6e6e" stroke-width="0.4">
      <desc>
        <name>Rockingham County</name>
        <stateAbbrev>NH</stateAbbrev>
        <state>New Hampshire</state>
        <fips>015</fips>
        <incits>33015</incits>
        <id>US.NH.015</id>
        <population>299134</population>
      </desc>
    </path>
    <path d="M 221.6769 582.3426 229.454 566.7883 254.7298 560.9554 270.2841 586.2312 320.8357 576.5097 328.6128 601.7855 361.6657 597.8969 379.1643 611.507 394.7187 615.3955 398.6072 632.8942 379.1643 634.8384 384.9972 664.0028 396.663 664.0028 406.3844 677.6128 433.6045 685.39 419.9944 699 250.8412 695.1114 246.9526 673.7242 239.1755 673.7242 229.454 632.8942 215.844 630.9499 221.6769 582.3426 Z" id="US.NH.011" fill="#cee3f5" stroke="#6e6e6e" stroke-width="0.4">
      <desc>
        <name>Hillsborough County</name>
        <stateAbbrev>NH</stateAbbrev>
        <state>New Hampshire</state>
        <fips>011</fips>
        <incits>33011</incits>
        <id>US.NH.011</id>
        <population>403985</population>
      </desc>
    </path>
    <path d="M 248.8969 475.4067 272.2284 454.0195 280.0056 471.5181 305.2813 465.6852 336.39 500.6825 353.8886 494.8496 435.5487 541.5125 433.6045 543.4568 394.7187 607.6184 394.7187 615.3955 379.1643 611.507 361.6657 597.8969 328.6128 601.7855 320.8357 576.5097 270.2841 586.2312 254.7298 560.9554 229.454 566.7883 213.8997 549.2897 208.0669 529.8468 217.7883 514.2925 217.7883 498.7382 229.454 500.6825 248.8969 475.4067 Z" id="US.NH.013" fill="#cee3f5" stroke="#6e6e6e" stroke-width="0.4">
      <desc>
        <name>Merrimack County</name>
        <stateAbbrev>NH</stateAbbrev>
        <state>New Hampshire</state>
        <fips>013</fips>
        <incits>33013</incits>
        <id>US.NH.013</id>
        <population>146849</population>
      </desc>
    </path>
    <path d="M 357.7772 411.2451 429.7159 463.7409 454.9916 473.4624 447.2145 479.2953 456.9359 522.0696 435.5487 541.5125 353.8886 494.8496 336.39 500.6825 305.2813 465.6852 324.7242 450.1309 326.6685 432.6323 359.7214 430.688 357.7772 411.2451 Z" id="US.NH.001" fill="#cee3f5" stroke="#6e6e6e" stroke-width="0.4">
      <desc>
        <name>Belknap County</name>
        <stateAbbrev>NH</stateAbbrev>
        <state>New Hampshire</state>
        <fips>001</fips>
        <incits>33001</incits>
        <id>US.NH.001</id>
        <population>60179</population>
      </desc>
    </path>
    <path d="M 110.8524 574.5655 130.2953 574.5655 190.5682 568.7326 184.7354 582.3426 221.6769 582.3426 215.844 630.9499 229.454 632.8942 239.1755 673.7242 246.9526 673.7242 250.8412 695.1114 108.9081 689.2786 87.5209 667.8914 83.6323 648.4485 89.4652 629.0056 105.0195 625.117 106.9638 601.7855 114.7409 594.0084 110.8524 574.5655 Z" id="US.NH.005" fill="#cee3f5" stroke="#6e6e6e" stroke-width="0.4">
      <desc>
        <name>Cheshire County</name>
        <stateAbbrev>NH</stateAbbrev>
        <state>New Hampshire</state>
        <fips>005</fips>
        <incits>33005</incits>
        <id>US.NH.005</id>
        <population>76610</population>
      </desc>
    </path>
    <path d="M 143.9053 455.9638 175.0139 459.8524 213.8997 471.5181 248.8969 475.4067 229.454 500.6825 217.7883 498.7382 217.7883 514.2925 208.0669 529.8468 213.8997 549.2897 229.454 566.7883 221.6769 582.3426 184.7354 582.3426 190.5682 568.7326 130.2953 574.5655 110.8524 574.5655 114.7409 549.2897 126.4067 533.7354 120.5738 518.1811 126.4067 492.9053 124.4624 479.2953 132.2396 461.7967 143.9053 455.9638 Z" id="US.NH.019" fill="#cee3f5" stroke="#6e6e6e" stroke-width="0.4">
      <desc>
        <name>Sullivan County</name>
        <stateAbbrev>NH</stateAbbrev>
        <state>New Hampshire</state>
        <fips>019</fips>
        <incits>33019</incits>
        <id>US.NH.019</id>
        <population>42984</population>
      </desc>
    </path>
    <path d="M 388.8858 292.6435 418.0501 312.0864 431.6602 282.922 488.0446 284.8663 497.766 273.2006 501.6546 405.4123 507.4875 463.7409 509.4318 471.5181 470.546 481.2396 454.9916 473.4624 429.7159 463.7409 357.7772 411.2451 348.0557 378.1922 402.4958 372.3593 396.663 343.195 400.5515 331.5292 388.8858 292.6435 Z" id="US.NH.003" fill="#cee3f5" stroke="#6e6e6e" stroke-width="0.4">
      <desc>
        <name>Carroll County</name>
        <stateAbbrev>NH</stateAbbrev>
        <state>New Hampshire</state>
        <fips>003</fips>
        <incits>33003</incits>
        <id>US.NH.003</id>
        <population>47499</population>
      </desc>
    </path>
    <path d="M 295.5599 240.1476 313.0585 259.5905 342.2228 267.3677 346.1114 280.9777 363.61 279.0334 381.1086 282.922 388.8858 292.6435 400.5515 331.5292 396.663 343.195 402.4958 372.3593 348.0557 378.1922 357.7772 411.2451 359.7214 430.688 326.6685 432.6323 324.7242 450.1309 305.2813 465.6852 280.0056 471.5181 272.2284 454.0195 248.8969 475.4067 213.8997 471.5181 175.0139 459.8524 143.9053 455.9638 149.7382 430.688 169.1811 417.078 182.7911 399.5794 186.6797 380.1365 200.2897 370.415 200.2897 350.9721 223.6212 327.6407 213.8997 298.4763 219.7326 284.8663 213.8997 277.0891 235.2869 259.5905 266.3955 259.5905 281.9499 253.7577 295.5599 240.1476 Z" id="US.NH.009" fill="#cee3f5" stroke="#6e6e6e" stroke-width="0.4">
      <desc>
        <name>Grafton County</name>
        <stateAbbrev>NH</stateAbbrev>
        <state>New Hampshire</state>
        <fips>009</fips>
        <incits>33009</incits>
        <id>US.NH.009</id>
        <population>89629</population>
      </desc>
    </path>
    <path d="M 295.5599 240.1476 309.1699 238.2033 326.6685 222.649 338.3343 218.7604 355.8329 191.5404 332.5014 154.5989 348.0557 133.2117 353.8886 117.6574 367.4986 105.9916 355.8329 82.6602 363.61 78.7716 367.4986 63.2173 384.9972 47.663 392.7744 26.2758 404.4401 12.6657 421.9387 1 437.493 14.61 478.3231 14.61 489.9889 158.4875 497.766 273.2006 488.0446 284.8663 431.6602 282.922 418.0501 312.0864 388.8858 292.6435 381.1086 282.922 363.61 279.0334 346.1114 280.9777 342.2228 267.3677 313.0585 259.5905 295.5599 240.1476 Z" id="US.NH.007" fill="#cee3f5" stroke="#6e6e6e" stroke-width="0.4">
      <desc>
        <name>Coos County</name>
        <stateAbbrev>NH</stateAbbrev>
        <state>New Hampshire</state>
        <fips>007</fips>
        <incits>33007</incits>
        <id>US.NH.007</id>
        <population>31997</population>
      </desc>
    </path>
  </g>
</svg>