<?xml version="1.0" encoding="UTF-8"?>
<svg xmlns="http://www.w3.org/2000/svg" width="700" height="700">
  <g id="new_brunswick">
    <path d="M 411.212 497.0916 407.5576 500.7461 403.9031 498.9188 404.8168 496.178 402.0759 494.3508 402.0759 491.6099 396.5942 493.4372 396.5942 495.2644 392.0262 496.178 392.0262 498.0052 384.7173 498.9188 382.8901 500.7461 385.6309 503.4869 380.1492 507.1414 376.4948 508.9686 372.8403 508.9686 372.8403 500.7461 372.8403 489.7827 381.9764 487.9555 400.2487 482.4738 402.9895 480.6466 403.9031 477.9058 404.8168 472.4241 408.4712 474.2513 410.2984 473.3377 417.6073 476.0785 415.7801 478.8194 424.9162 483.3874 423.089 486.1283 420.3482 486.1283 419.4346 488.8691 420.3482 490.6963 416.6937 494.3508 411.212 496.178 411.212 497.0916 Z" id="CA.NB.13009" fill="#cee3f5" stroke="#6e6e6e" stroke-width="0.4">
      <desc>
        <feduid>13009</feduid>
        <name>Saint John</name>
        <prname>New Brunswick / Nouveau-Brunswick</prname>
        <fedfname>Saint John</fedfname>
        <pruid>13</pruid>
        <fedename>Saint John</fedename>
        <id>CA.NB.13009</id>
        <fedname>Saint John</fedname>
      </desc>
    </path>
    <path d="M 265.9476 215.699 272.3429 224.8351 279.6518 234.8848 290.6152 250.4162 299.7513 263.2068 313.4555 284.2199 321.678 297.9241 343.6047 335.3822 350.9136 337.2094 382.8901 343.6047 368.2723 360.0497 336.2958 396.5942 330.8141 396.5942 331.7277 395.6806 321.678 392.9398 314.3691 392.9398 314.3691 394.767 312.5419 396.5942 309.801 396.5942 307.9738 398.4215 301.5785 397.5079 297.9241 398.4215 295.1832 400.2487 292.4424 400.2487 288.788 402.9895 286.9607 405.7304 281.4791 412.1257 275.0838 411.212 269.6021 407.5576 265.034 405.7304 254.0707 400.2487 248.589 399.3351 244.0209 396.5942 241.2801 397.5079 239.4529 401.1623 233.0576 401.1623 233.9712 403.9031 219.3534 420.3482 196.5131 448.6702 191.945 447.7565 187.377 445.0157 187.377 446.8429 182.8089 444.1021 178.2408 437.7068 172.7592 439.534 170.9319 438.6204 166.3639 438.6204 165.4503 431.3115 169.1047 431.3115 165.4503 426.7435 166.3639 421.2618 172.7592 419.4346 168.1911 415.7801 166.3639 413.0393 166.3639 411.212 170.9319 409.3848 172.7592 406.644 169.1047 403.9031 169.1047 401.1623 169.1047 385.6309 169.1047 359.1361 168.1911 332.6414 168.1911 318.0236 168.1911 296.0969 168.1911 254.0707 160.8822 251.3298 164.5366 247.6754 170.0183 239.4529 172.7592 238.5393 171.8455 235.7984 180.9817 233.0576 180.9817 203.822 180.9817 188.2906 214.7853 199.2539 265.9476 215.699 Z" id="CA.NB.13010" fill="#cee3f5" stroke="#6e6e6e" stroke-width="0.4">
      <desc>
        <feduid>13010</feduid>
        <name>Tobique - Mactaquac</name>
        <prname>New Brunswick / Nouveau-Brunswick</prname>
        <fedfname>Tobique - Mactaquac</fedfname>
        <pruid>13</pruid>
        <fedename>Tobique - Mactaquac</fedename>
        <id>CA.NB.13010</id>
        <fedname>Tobique - Mactaquac</fedname>
      </desc>
    </path>
    <path d="M 371.9267 133.4738 370.0995 136.2147 368.2723 136.2147 362.7906 134.3874 360.0497 134.3874 355.4817 133.4738 355.4817 167.2775 355.4817 195.5995 321.678 202.9084 285.1335 211.1309 265.9476 215.699 214.7853 199.2539 180.9817 188.2906 180.9817 203.822 180.9817 233.0576 171.8455 235.7984 172.7592 238.5393 170.0183 239.4529 164.5366 247.6754 160.8822 251.3298 155.4005 249.5026 154.4869 246.7618 151.7461 244.0209 149.9188 242.1937 146.2644 239.4529 146.2644 237.6257 141.6963 235.7984 137.1283 232.144 131.6466 229.4031 128.9058 227.5759 122.5105 223.9215 119.7696 222.0942 119.7696 220.267 110.6335 217.5262 108.8063 216.6126 105.1518 216.6126 103.3246 215.699 99.6702 216.6126 96.0157 215.699 92.3613 216.6126 89.6204 218.4398 88.7068 220.267 89.6204 225.7487 85.0524 224.8351 83.2251 225.7487 79.5707 225.7487 76.8298 223.9215 71.3482 223.9215 67.6937 225.7487 63.1257 225.7487 61.2984 227.5759 59.4712 230.3168 52.1623 232.144 49.4215 231.2304 43.0262 232.144 38.4581 233.9712 32.9764 234.8848 26.5812 237.6257 20.1859 239.4529 18.3586 237.6257 14.7042 236.712 9.2225 233.9712 1.9136 231.2304 1 229.4031 1 223.9215 33.8901 217.5262 64.9529 206.5628 89.6204 190.1178 89.6204 159.9686 89.6204 141.6963 123.4241 141.6963 123.4241 130.733 192.8586 130.733 191.0314 133.4738 191.945 139.8691 198.3403 141.6963 200.1675 141.6963 208.3901 143.5236 210.2173 145.3508 216.6126 147.178 222.0942 149.9188 223.0079 151.7461 227.5759 145.3508 232.144 146.2644 233.0576 144.4372 241.2801 146.2644 244.0209 147.178 249.5026 146.2644 250.4162 144.4372 254.0707 145.3508 254.9843 142.6099 258.6387 142.6099 263.2068 140.7827 264.1204 139.8691 271.4293 142.6099 275.9974 145.3508 279.6518 144.4372 276.911 142.6099 276.911 138.0419 279.6518 137.1283 279.6518 135.301 282.3927 133.4738 292.4424 130.733 300.6649 131.6466 303.4058 130.733 308.8874 129.8194 312.5419 129.8194 334.4686 124.3377 338.123 120.6832 342.6911 119.7696 353.6545 119.7696 358.2225 120.6832 361.877 123.4241 356.3953 123.4241 355.4817 127.0785 356.3953 128.9058 360.0497 129.8194 370.0995 132.5602 371.9267 133.4738 Z" id="CA.NB.13005" fill="#cee3f5" stroke="#6e6e6e" stroke-width="0.4">
      <desc>
        <feduid>13005</feduid>
        <name>Madawaska - Restigouche</name>
        <prname>New Brunswick / Nouveau-Brunswick</prname>
        <fedfname>Madawaska - Restigouche</fedfname>
        <pruid>13</pruid>
        <fedename>Madawaska - Restigouche</fedename>
        <id>CA.NB.13005</id>
        <fedname>Madawaska - Restigouche</fedname>
      </desc>
    </path>
    <path d="M 424.0026 350.9136 461.4607 358.2225 456.8927 361.877 445.9293 370.0995 441.3613 372.8403 438.6204 373.7539 437.7068 375.5812 431.3115 378.322 429.4843 380.1492 420.3482 382.8901 419.4346 384.7173 404.8168 390.199 402.0759 395.6806 397.5079 410.2984 392.0262 411.212 386.5445 413.0393 382.8901 417.6073 380.1492 417.6073 374.6675 416.6937 371.0131 413.9529 355.4817 433.1387 337.2094 431.3115 309.801 427.6571 322.5916 413.0393 319.8508 411.212 317.1099 414.8665 309.801 410.2984 312.5419 406.644 310.7147 404.8168 311.6283 401.1623 301.5785 401.1623 300.6649 399.3351 306.1466 400.2487 313.4555 400.2487 312.5419 398.4215 307.9738 398.4215 309.801 396.5942 312.5419 396.5942 314.3691 394.767 314.3691 392.9398 321.678 392.9398 331.7277 395.6806 330.8141 396.5942 336.2958 396.5942 368.2723 360.0497 382.8901 343.6047 424.0026 350.9136 Z" id="CA.NB.13003" fill="#cee3f5" stroke="#6e6e6e" stroke-width="0.4">
      <desc>
        <feduid>13003</feduid>
        <name>Fredericton</name>
        <prname>New Brunswick / Nouveau-Brunswick</prname>
        <fedfname>Fredericton</fedfname>
        <pruid>13</pruid>
        <fedename>Fredericton</fedename>
        <id>CA.NB.13003</id>
        <fedname>Fredericton</fedname>
      </desc>
    </path>
    <path d="M 371.9267 133.4738 376.4948 134.3874 378.322 134.3874 385.6309 135.301 387.4581 137.1283 390.199 138.0419 392.9398 140.7827 402.9895 140.7827 405.7304 141.6963 413.0393 141.6963 417.6073 141.6963 421.2618 142.6099 427.6571 144.4372 432.2251 147.178 428.5707 150.8325 421.2618 153.5733 415.7801 153.5733 406.644 166.3639 400.2487 174.5864 390.199 187.377 375.5812 190.1178 382.8901 196.5131 424.0026 228.4895 428.5707 232.144 443.1885 229.4031 475.1649 222.0942 531.8089 208.3901 552.822 203.822 549.1675 211.1309 546.4267 212.0445 544.5995 214.7853 542.7723 219.3534 540.945 221.1806 541.8586 223.0079 540.0314 226.6623 534.5497 226.6623 527.2408 230.3168 525.4136 233.0576 523.5864 233.0576 521.7592 235.7984 513.5366 241.2801 501.6597 247.6754 497.0916 248.589 491.6099 251.3298 491.6099 253.1571 495.2644 254.0707 497.0916 254.9843 509.8822 252.2435 509.8822 257.7251 515.3639 258.6387 523.5864 253.1571 526.3272 254.0707 534.5497 252.2435 538.2042 255.8979 542.7723 255.8979 545.5131 253.1571 555.5628 252.2435 562.8717 253.1571 560.1309 256.8115 561.0445 261.3796 561.9581 264.1204 561.9581 266.8613 552.822 272.3429 550.0812 277.8246 548.2539 280.5654 546.4267 280.5654 544.5995 284.2199 549.1675 286.0471 549.1675 289.7016 540.945 291.5288 539.1178 290.6152 538.2042 292.4424 531.8089 292.4424 527.2408 294.2696 486.1283 315.2827 480.6466 315.2827 468.7696 306.1466 459.6335 312.5419 445.9293 327.1597 424.0026 350.9136 382.8901 343.6047 350.9136 337.2094 343.6047 335.3822 321.678 297.9241 313.4555 284.2199 299.7513 263.2068 290.6152 250.4162 279.6518 234.8848 272.3429 224.8351 265.9476 215.699 285.1335 211.1309 321.678 202.9084 355.4817 195.5995 355.4817 167.2775 355.4817 133.4738 360.0497 134.3874 362.7906 134.3874 368.2723 136.2147 370.0995 136.2147 371.9267 133.4738 Z M 379.2356 129.8194 386.5445 131.6466 385.6309 132.5602 381.9764 130.733 379.2356 129.8194 Z" id="CA.NB.13006" fill="#cee3f5" stroke="#6e6e6e" stroke-width="0.4">
      <desc>
        <feduid>13006</feduid>
        <name>Miramichi</name>
        <prname>New Brunswick / Nouveau-Brunswick</prname>
        <fedfname>Miramichi</fedfname>
        <pruid>13</pruid>
        <fedename>Miramichi</fedename>
        <id>CA.NB.13006</id>
        <fedname>Miramichi</fedname>
      </desc>
    </path>
    <path d="M 549.1675 289.7016 548.2539 291.5288 551.9084 292.4424 552.822 295.1832 550.9948 297.0105 560.1309 298.8377 560.1309 301.5785 556.4764 303.4058 566.5262 304.3194 566.5262 307.0602 572.0079 303.4058 573.8351 305.233 575.6623 307.9738 575.6623 313.4555 573.8351 315.2827 574.7487 321.678 577.4895 325.3325 580.2304 330.8141 577.4895 331.7277 575.6623 333.555 579.3168 335.3822 581.144 333.555 586.6257 338.123 587.5393 342.6911 587.5393 350.9136 593.0209 351.8272 593.0209 348.1728 594.8482 347.2592 598.5026 348.1728 599.4162 350.9136 601.2435 352.7408 599.4162 355.4817 595.7618 356.3953 593.9346 358.2225 594.8482 360.0497 594.8482 366.445 601.2435 363.7042 605.8115 364.6178 614.034 364.6178 617.6885 366.445 619.5157 366.445 625.911 365.5314 634.1335 364.6178 638.7016 365.5314 641.4424 367.3586 647.8377 370.0995 648.7513 371.9267 646.9241 373.7539 649.6649 374.6675 653.3194 371.9267 660.6283 372.8403 664.2827 371.9267 668.8508 371.9267 671.5916 371.0131 674.3325 372.8403 678.9005 373.7539 682.555 375.5812 688.0366 375.5812 691.6911 375.5812 692.6047 377.4084 698.0864 378.322 699 381.9764 695.3455 383.8037 689.8639 384.7173 678.9005 388.3717 676.1597 388.3717 669.7644 388.3717 667.0236 388.3717 664.2827 389.2853 659.7147 388.3717 659.7147 390.199 656.0602 392.9398 663.3691 397.5079 659.7147 398.4215 649.6649 398.4215 647.8377 401.1623 638.7016 409.3848 635.9607 411.212 633.2199 414.8665 630.4791 415.7801 628.6518 413.9529 624.9974 413.0393 621.3429 414.8665 619.5157 416.6937 616.7749 417.6073 612.2068 424.0026 604.8979 427.6571 605.8115 429.4843 603.9843 432.2251 598.5026 432.2251 596.6754 430.3979 600.3298 428.5707 600.3298 426.7435 602.1571 423.089 604.8979 421.2618 601.2435 417.6073 599.4162 416.6937 596.6754 416.6937 595.7618 414.8665 591.1937 411.212 588.4529 407.5576 586.6257 404.8168 580.2304 399.3351 576.5759 395.6806 576.5759 392.0262 575.6623 389.2853 572.0079 386.5445 578.4031 385.6309 577.4895 382.8901 582.9712 383.8037 583.8848 381.9764 587.5393 382.8901 588.4529 381.0628 584.7984 379.2356 581.144 378.322 578.4031 379.2356 577.4895 375.5812 572.9215 377.4084 570.1806 371.9267 565.6126 373.7539 565.6126 371.9267 559.2173 373.7539 555.5628 375.5812 554.6492 374.6675 548.2539 376.4948 550.9948 379.2356 552.822 383.8037 548.2539 384.7173 550.0812 389.2853 548.2539 388.3717 542.7723 389.2853 537.2906 389.2853 535.4634 391.1126 531.8089 389.2853 520.8455 360.9634 481.5602 361.877 461.4607 358.2225 424.0026 350.9136 445.9293 327.1597 459.6335 312.5419 468.7696 306.1466 480.6466 315.2827 486.1283 315.2827 527.2408 294.2696 531.8089 292.4424 538.2042 292.4424 539.1178 290.6152 540.945 291.5288 549.1675 289.7016 Z" id="CA.NB.13002" fill="#cee3f5" stroke="#6e6e6e" stroke-width="0.4">
      <desc>
        <feduid>13002</feduid>
        <name>Beausjour</name>
        <prname>New Brunswick / Nouveau-Brunswick</prname>
        <fedfname>Beausjour</fedfname>
        <pruid>13</pruid>
        <fedename>Beausjour</fedename>
        <id>CA.NB.13002</id>
        <fedname>Beausjour</fedname>
      </desc>
    </path>
    <path d="M 550.0812 389.2853 555.5628 389.2853 558.3037 388.3717 560.1309 389.2853 567.4398 387.4581 568.3534 383.8037 572.0079 386.5445 575.6623 389.2853 576.5759 392.0262 576.5759 395.6806 580.2304 399.3351 586.6257 404.8168 588.4529 407.5576 591.1937 411.212 595.7618 414.8665 596.6754 416.6937 593.9346 417.6073 592.1073 420.3482 581.144 429.4843 582.0576 431.3115 578.4031 433.1387 577.4895 434.966 577.4895 436.7932 573.8351 441.3613 571.0942 443.1885 567.4398 447.7565 561.0445 445.0157 559.2173 445.0157 554.6492 444.1021 549.1675 447.7565 543.6859 448.6702 540.945 451.411 540.945 453.2382 532.7225 456.8927 523.5864 458.7199 520.8455 458.7199 515.3639 460.5471 502.5733 465.1152 498.0052 466.0288 496.178 466.9424 491.6099 468.7696 489.7827 470.5969 476.9921 475.1649 476.0785 477.9058 473.3377 478.8194 466.0288 480.6466 465.1152 483.3874 466.0288 485.2147 460.5471 487.9555 458.7199 487.0419 453.2382 488.8691 450.4974 488.8691 445.9293 491.6099 442.2749 491.6099 440.4476 494.3508 437.7068 494.3508 430.3979 493.4372 425.8298 497.0916 424.0026 499.8325 419.4346 501.6597 414.8665 501.6597 413.9529 499.8325 411.212 499.8325 411.212 497.0916 411.212 496.178 416.6937 494.3508 420.3482 490.6963 419.4346 488.8691 420.3482 486.1283 423.089 486.1283 424.9162 483.3874 415.7801 478.8194 417.6073 476.0785 410.2984 473.3377 408.4712 474.2513 404.8168 472.4241 403.9031 477.9058 402.9895 480.6466 400.2487 482.4738 381.9764 487.9555 380.1492 484.301 377.4084 483.3874 374.6675 480.6466 382.8901 471.5105 394.767 461.4607 398.4215 457.8063 401.1623 455.0654 404.8168 455.0654 409.3848 452.3246 415.7801 448.6702 419.4346 453.2382 445.9293 434.966 448.6702 441.3613 450.4974 439.534 457.8063 434.966 463.288 433.1387 466.9424 431.3115 468.7696 429.4843 474.2513 429.4843 476.9921 429.4843 476.0785 425.8298 486.1283 418.5209 476.9921 414.8665 476.0785 412.1257 473.3377 413.0393 467.856 399.3351 448.6702 413.0393 437.7068 388.3717 412.1257 410.2984 409.3848 412.1257 405.7304 411.212 402.0759 411.212 397.5079 410.2984 402.0759 395.6806 404.8168 390.199 419.4346 384.7173 420.3482 382.8901 429.4843 380.1492 431.3115 378.322 437.7068 375.5812 438.6204 373.7539 441.3613 372.8403 445.9293 370.0995 456.8927 361.877 461.4607 358.2225 481.5602 361.877 520.8455 360.9634 531.8089 389.2853 535.4634 391.1126 537.2906 389.2853 542.7723 389.2853 548.2539 388.3717 550.0812 389.2853 Z" id="CA.NB.13004" fill="#cee3f5" stroke="#6e6e6e" stroke-width="0.4">
      <desc>
        <feduid>13004</feduid>
        <name>Fundy Royal</name>
        <prname>New Brunswick / Nouveau-Brunswick</prname>
        <fedfname>Fundy Royal</fedfname>
        <pruid>13</pruid>
        <fedename>Fundy Royal</fedename>
        <id>CA.NB.13004</id>
        <fedname>Fundy Royal</fedname>
      </desc>
    </path>
    <path d="M 565.6126 153.5733 570.1806 154.4869 567.4398 159.055 564.699 159.055 563.7853 156.3141 563.7853 154.4869 565.6126 153.5733 Z M 552.822 203.822 531.8089 208.3901 475.1649 222.0942 443.1885 229.4031 428.5707 232.144 424.0026 228.4895 382.8901 196.5131 375.5812 190.1178 390.199 187.377 400.2487 174.5864 406.644 166.3639 415.7801 153.5733 421.2618 153.5733 428.5707 150.8325 432.2251 147.178 435.8796 149.0052 439.534 153.5733 441.3613 157.2277 443.1885 161.7958 443.1885 167.2775 444.1021 169.1047 447.7565 171.8455 453.2382 175.5 447.7565 178.2408 449.5838 180.9817 453.2382 180.9817 455.9791 176.4136 461.4607 174.5864 466.0288 175.5 471.5105 174.5864 479.733 170.9319 487.9555 165.4503 489.7827 163.623 494.3508 162.7094 498.0052 160.8822 505.3141 157.2277 512.623 154.4869 514.4503 155.4005 522.6728 153.5733 527.2408 153.5733 536.377 152.6597 539.1178 154.4869 527.2408 159.9686 528.1545 160.8822 532.7225 159.9686 536.377 160.8822 541.8586 158.1414 548.2539 158.1414 556.4764 156.3141 561.0445 156.3141 563.7853 158.1414 565.6126 161.7958 562.8717 163.623 559.2173 163.623 558.3037 165.4503 563.7853 165.4503 565.6126 169.1047 569.267 170.0183 569.267 167.2775 567.4398 167.2775 567.4398 163.623 571.0942 163.623 571.0942 161.7958 576.5759 164.5366 576.5759 166.3639 580.2304 167.2775 580.2304 169.1047 573.8351 171.8455 569.267 171.8455 569.267 173.6728 566.5262 176.4136 562.8717 176.4136 561.0445 178.2408 563.7853 180.0681 561.9581 182.8089 557.3901 185.5497 552.822 186.4634 550.0812 189.2042 550.9948 194.6859 549.1675 196.5131 551.9084 198.3403 553.7356 201.9948 552.822 203.822 Z M 586.6257 146.2644 593.9346 147.178 594.8482 149.0052 598.5026 149.0052 602.1571 147.178 602.1571 150.8325 598.5026 155.4005 593.0209 161.7958 587.5393 165.4503 582.9712 166.3639 582.0576 164.5366 578.4031 164.5366 577.4895 162.7094 584.7984 159.9686 582.0576 158.1414 579.3168 159.055 578.4031 157.2277 575.6623 155.4005 575.6623 152.6597 578.4031 149.9188 579.3168 149.9188 582.9712 147.178 586.6257 146.2644 Z M 599.4162 128.9058 604.8979 129.8194 603.9843 132.5602 604.8979 138.0419 607.6387 138.9555 604.8979 140.7827 603.0707 139.8691 599.4162 141.6963 595.7618 142.6099 594.8482 144.4372 591.1937 144.4372 590.2801 141.6963 591.1937 138.9555 595.7618 135.301 596.6754 132.5602 596.6754 128.9058 599.4162 128.9058 Z" id="CA.NB.13001" fill="#cee3f5" stroke="#6e6e6e" stroke-width="0.4">
      <desc>
        <feduid>13001</feduid>
        <name>Acadie - Bathurst</name>
        <prname>New Brunswick / Nouveau-Brunswick</prname>
        <fedfname>Acadie - Bathurst</fedfname>
        <pruid>13</pruid>
        <fedename>Acadie - Bathurst</fedename>
        <id>CA.NB.13001</id>
        <fedname>Acadie - Bathurst</fedname>
      </desc>
    </path>
    <path d="M 572.0079 386.5445 568.3534 383.8037 567.4398 387.4581 560.1309 389.2853 558.3037 388.3717 555.5628 389.2853 550.0812 389.2853 548.2539 384.7173 552.822 383.8037 550.9948 379.2356 548.2539 376.4948 554.6492 374.6675 555.5628 375.5812 559.2173 373.7539 565.6126 371.9267 565.6126 373.7539 570.1806 371.9267 572.9215 377.4084 577.4895 375.5812 578.4031 379.2356 581.144 378.322 584.7984 379.2356 588.4529 381.0628 587.5393 382.8901 583.8848 381.9764 582.9712 383.8037 577.4895 382.8901 578.4031 385.6309 572.0079 386.5445 Z" id="CA.NB.13007" fill="#cee3f5" stroke="#6e6e6e" stroke-width="0.4">
      <desc>
        <feduid>13007</feduid>
        <name>Moncton - Riverview - Dieppe</name>
        <prname>New Brunswick / Nouveau-Brunswick</prname>
        <fedfname>Moncton - Riverview - Dieppe</fedfname>
        <pruid>13</pruid>
        <fedename>Moncton - Riverview - Dieppe</fedename>
        <id>CA.NB.13007</id>
        <fedname>Moncton - Riverview - Dieppe</fedname>
      </desc>
    </path>
    <path d="M 313.4555 574.7487 313.4555 578.4031 308.8874 577.4895 311.6283 574.7487 313.4555 574.7487 Z M 301.5785 554.6492 304.3194 558.3037 303.4058 560.1309 304.3194 562.8717 307.0602 564.699 307.0602 569.267 304.3194 569.267 302.4921 572.9215 298.8377 572.9215 296.0969 574.7487 294.2696 573.8351 292.4424 576.5759 288.788 578.4031 287.8743 580.2304 284.2199 579.3168 286.0471 576.5759 286.9607 572.9215 289.7016 568.3534 289.7016 566.5262 294.2696 561.0445 295.1832 558.3037 297.9241 556.4764 301.5785 554.6492 Z M 285.1335 533.6361 284.2199 534.5497 286.9607 539.1178 285.1335 542.7723 281.4791 545.5131 283.3063 548.2539 278.7382 549.1675 275.0838 544.5995 277.8246 544.5995 277.8246 540.945 280.5654 537.2906 283.3063 534.5497 285.1335 533.6361 Z M 279.6518 524.5 280.5654 525.4136 277.8246 532.7225 275.9974 534.5497 273.2565 536.377 272.3429 535.4634 270.5157 529.9817 272.3429 528.1545 279.6518 524.5 Z M 381.9764 487.9555 372.8403 489.7827 372.8403 500.7461 372.8403 508.9686 370.0995 508.9686 360.9634 511.7094 358.2225 510.7958 355.4817 512.623 353.6545 514.4503 350 515.3639 348.1728 518.1047 342.6911 519.0183 342.6911 515.3639 340.8639 513.5366 340.8639 511.7094 336.2958 510.7958 333.555 509.8822 328.9869 510.7958 327.1597 511.7094 327.1597 514.4503 324.4188 514.4503 321.678 515.3639 319.8508 515.3639 318.9372 518.1047 313.4555 518.1047 306.1466 519.0183 307.0602 520.8455 305.233 521.7592 301.5785 520.8455 298.8377 522.6728 296.0969 519.9319 293.356 518.1047 290.6152 519.9319 289.7016 520.8455 286.9607 522.6728 286.0471 519.9319 283.3063 518.1047 282.3927 516.2775 283.3063 512.623 286.9607 514.4503 288.788 513.5366 286.0471 510.7958 282.3927 509.8822 278.7382 507.1414 274.1702 508.9686 271.4293 508.055 267.7749 506.2277 267.7749 510.7958 264.1204 511.7094 264.1204 514.4503 266.8613 516.2775 265.9476 519.0183 261.3796 516.2775 259.5524 515.3639 258.6387 511.7094 254.9843 508.9686 249.5026 498.0052 247.6754 502.5733 251.3298 504.4005 247.6754 505.3141 245.8482 505.3141 242.1937 506.2277 238.5393 503.4869 234.8848 502.5733 233.0576 505.3141 233.0576 508.055 230.3168 510.7958 227.5759 511.7094 222.0942 508.055 215.699 501.6597 213.8717 498.0052 211.1309 495.2644 209.3037 491.6099 212.0445 486.1283 212.0445 484.301 215.699 482.4738 214.7853 479.733 216.6126 477.9058 215.699 476.0785 210.2173 471.5105 208.3901 466.9424 205.6492 464.2016 206.5628 463.288 212.0445 461.4607 215.699 461.4607 216.6126 460.5471 214.7853 457.8063 216.6126 455.0654 215.699 450.4974 212.0445 447.7565 207.4764 448.6702 206.5628 450.4974 203.822 450.4974 200.1675 448.6702 196.5131 448.6702 219.3534 420.3482 233.9712 403.9031 233.0576 401.1623 239.4529 401.1623 241.2801 397.5079 244.0209 396.5942 248.589 399.3351 254.0707 400.2487 265.034 405.7304 269.6021 407.5576 275.0838 411.212 281.4791 412.1257 286.9607 405.7304 288.788 402.9895 292.4424 400.2487 295.1832 400.2487 297.9241 398.4215 301.5785 397.5079 307.9738 398.4215 312.5419 398.4215 313.4555 400.2487 306.1466 400.2487 300.6649 399.3351 301.5785 401.1623 311.6283 401.1623 310.7147 404.8168 312.5419 406.644 309.801 410.2984 317.1099 414.8665 319.8508 411.212 322.5916 413.0393 309.801 427.6571 337.2094 431.3115 355.4817 433.1387 371.0131 413.9529 374.6675 416.6937 380.1492 417.6073 382.8901 417.6073 386.5445 413.0393 392.0262 411.212 397.5079 410.2984 402.0759 411.212 405.7304 411.212 409.3848 412.1257 412.1257 410.2984 437.7068 388.3717 448.6702 413.0393 467.856 399.3351 473.3377 413.0393 476.0785 412.1257 476.9921 414.8665 486.1283 418.5209 476.0785 425.8298 476.9921 429.4843 474.2513 429.4843 468.7696 429.4843 466.9424 431.3115 463.288 433.1387 457.8063 434.966 450.4974 439.534 448.6702 441.3613 445.9293 434.966 419.4346 453.2382 415.7801 448.6702 409.3848 452.3246 404.8168 455.0654 401.1623 455.0654 398.4215 457.8063 394.767 461.4607 382.8901 471.5105 374.6675 480.6466 377.4084 483.3874 380.1492 484.301 381.9764 487.9555 Z" id="CA.NB.13008" fill="#cee3f5" stroke="#6e6e6e" stroke-width="0.4">
      <desc>
        <feduid>13008</feduid>
        <name>New Brunswick Southwest / Nouveau-Brunswick-Sud-Ouest</name>
        <prname>New Brunswick / Nouveau-Brunswick</prname>
        <fedfname>Nouveau-Brunswick-Sud-Ouest</fedfname>
        <pruid>13</pruid>
        <fedename>New Brunswick Southwest</fedename>
        <id>CA.NB.13008</id>
        <fedname>New Brunswick Southwest / Nouveau-Brunswick-Sud-Ouest</fedname>
      </desc>
    </path>
  </g>
</svg>