<?xml version="1.0" encoding="UTF-8"?>
<svg xmlns="http://www.w3.org/2000/svg" width="700" height="700">
  <g id="jiangsu">
    <path d="M 339.3319 409.4367 336.2838 435.345 359.1441 439.917 343.9039 455.1572 334.7598 471.9214 345.4279 479.5415 336.2838 493.2576 360.6681 513.0699 348.476 535.9301 354.5721 554.2183 342.3799 563.3624 305.8035 563.3624 296.6594 551.1703 311.8996 543.5502 316.4716 529.8341 313.4236 514.5939 285.9913 511.5459 272.2751 499.3537 269.2271 487.1616 250.9389 476.4934 253.9869 459.7293 269.2271 442.9651 285.9913 441.441 293.6114 426.2009 287.5153 392.6725 316.4716 395.7205 339.3319 409.4367 Z" id="CN.jiangsu.2131524" fill="#cee3f5" stroke="#6e6e6e" stroke-width="0.4">
      <desc>
        <name>Nanjing City</name>
        <admin_leve>5</admin_leve>
        <wikipedia>zh:南京市</wikipedia>
        <localname>南京市</localname>
        <boundary>administrative</boundary>
        <id>CN.jiangsu.2131524</id>
      </desc>
    </path>
    <path d="M 255.5109 164.0699 285.9913 162.5459 287.5153 171.69 278.3712 179.31 275.3231 196.0742 264.655 203.6943 241.7948 202.1703 225.0306 197.5983 206.7424 199.1223 229.6026 237.2227 226.5546 247.8908 199.1223 250.9389 173.214 246.3668 176.262 231.1266 151.8777 218.9345 145.7817 209.7904 124.4454 206.7424 104.6332 208.2664 84.821 196.0742 71.1048 167.1179 58.9127 168.6419 46.7205 157.9738 29.9563 153.4017 10.1441 135.1135 1 135.1135 13.1921 104.6332 34.5284 100.0611 61.9607 101.5852 77.2009 107.6812 87.869 119.8734 107.6812 159.4978 124.4454 142.7336 141.2096 156.4498 151.8777 159.4978 180.8341 138.1616 217.4105 135.1135 228.0786 148.8297 228.0786 168.6419 255.5109 164.0699 Z" id="CN.jiangsu.3218572" fill="#cee3f5" stroke="#6e6e6e" stroke-width="0.4">
      <desc>
        <name>Xuzhou City</name>
        <admin_leve>5</admin_leve>
        <wikipedia>en:Xuzhou</wikipedia>
        <localname>徐州市 / Xuzhou</localname>
        <boundary>administrative</boundary>
        <id>CN.jiangsu.3218572</id>
      </desc>
    </path>
    <path d="M 226.5546 247.8908 229.6026 237.2227 206.7424 199.1223 225.0306 197.5983 241.7948 202.1703 264.655 203.6943 275.3231 196.0742 278.3712 179.31 287.5153 171.69 307.3275 171.69 339.3319 165.5939 343.9039 191.5022 354.5721 205.2183 331.7118 231.1266 314.9476 231.1266 305.8035 240.2707 307.3275 270.7511 295.1354 302.7555 253.9869 319.5197 234.1747 319.5197 211.3144 324.0917 199.1223 308.8515 209.7904 295.1354 226.5546 247.8908 Z" id="CN.jiangsu.3293941" fill="#cee3f5" stroke="#6e6e6e" stroke-width="0.4">
      <desc>
        <name>Suqian City</name>
        <admin_leve>5</admin_leve>
        <wikipedia>en:Suqian</wikipedia>
        <localname>宿迁市 / Suqian</localname>
        <boundary>administrative</boundary>
        <id>CN.jiangsu.3293941</id>
      </desc>
    </path>
    <path d="M 255.5109 164.0699 258.559 142.7336 272.2751 129.0175 298.1834 130.5415 298.1834 118.3493 321.0437 86.345 345.4279 86.345 360.6681 77.2009 356.0961 113.7773 429.2489 159.4978 423.1528 177.786 394.1965 196.0742 401.8166 214.3624 363.7162 212.8384 354.5721 205.2183 343.9039 191.5022 339.3319 165.5939 307.3275 171.69 287.5153 171.69 285.9913 162.5459 255.5109 164.0699 Z" id="CN.jiangsu.3320347" fill="#cee3f5" stroke="#6e6e6e" stroke-width="0.4">
      <desc>
        <name>Lianyungang City</name>
        <admin_leve>5</admin_leve>
        <wikipedia>en:Lianyungang</wikipedia>
        <localname>连云港市</localname>
        <boundary>administrative</boundary>
        <id>CN.jiangsu.3320347</id>
      </desc>
    </path>
    <path d="M 360.6681 513.0699 371.3362 508.4978 372.8603 485.6376 388.1004 481.0655 423.1528 496.3057 432.2969 485.6376 430.7729 459.7293 452.1092 464.3013 459.7293 470.3974 456.6812 487.1616 476.4934 488.6856 481.0655 497.8297 465.8253 516.1179 471.9214 528.31 436.869 526.786 417.0568 516.1179 407.9127 522.214 397.2445 548.1223 397.2445 572.5066 377.4323 567.9345 354.5721 554.2183 348.476 535.9301 360.6681 513.0699 Z" id="CN.jiangsu.3429666" fill="#cee3f5" stroke="#6e6e6e" stroke-width="0.4">
      <desc>
        <name>Changzhou City</name>
        <admin_leve>5</admin_leve>
        <wikipedia>en:Changzhou</wikipedia>
        <localname>常州市 / Changzhou</localname>
        <boundary>administrative</boundary>
        <id>CN.jiangsu.3429666</id>
      </desc>
    </path>
    <path d="M 359.1441 439.917 380.4803 438.393 423.1528 427.7249 435.345 429.2489 441.441 435.345 452.1092 464.3013 430.7729 459.7293 432.2969 485.6376 423.1528 496.3057 388.1004 481.0655 372.8603 485.6376 371.3362 508.4978 360.6681 513.0699 336.2838 493.2576 345.4279 479.5415 334.7598 471.9214 343.9039 455.1572 359.1441 439.917 Z" id="CN.jiangsu.3429680" fill="#cee3f5" stroke="#6e6e6e" stroke-width="0.4">
      <desc>
        <name>Zhenjiang City</name>
        <admin_leve>5</admin_leve>
        <wikipedia>en:Zhenjiang</wikipedia>
        <localname>镇江市 / Zhenjiang</localname>
        <boundary>administrative</boundary>
        <id>CN.jiangsu.3429680</id>
      </desc>
    </path>
    <path d="M 234.1747 319.5197 253.9869 319.5197 295.1354 302.7555 307.3275 270.7511 305.8035 240.2707 314.9476 231.1266 331.7118 231.1266 354.5721 205.2183 363.7162 212.8384 401.8166 214.3624 410.9607 229.6026 400.2926 237.2227 389.6245 264.655 401.8166 293.6114 360.6681 298.1834 350 314.9476 369.8122 325.6157 369.8122 363.7162 354.5721 363.7162 343.9039 363.7162 333.2358 346.952 311.8996 346.952 299.7074 374.3843 258.559 377.4323 237.2227 362.1921 234.1747 319.5197 Z" id="CN.jiangsu.3429722" fill="#cee3f5" stroke="#6e6e6e" stroke-width="0.4">
      <desc>
        <name>Huai'an City</name>
        <admin_leve>5</admin_leve>
        <wikipedia>en:Huai'an</wikipedia>
        <localname>淮安市 / Huai'an</localname>
        <boundary>administrative</boundary>
        <id>CN.jiangsu.3429722</id>
      </desc>
    </path>
    <path d="M 401.8166 214.3624 394.1965 196.0742 423.1528 177.786 429.2489 159.4978 458.2052 164.0699 490.2096 179.31 496.3057 202.1703 540.5022 276.8472 569.4585 342.3799 574.0306 386.5764 540.5022 392.6725 529.8341 388.1004 511.5459 388.1004 505.4498 378.9563 484.1135 383.5284 481.0655 392.6725 470.3974 388.1004 476.4934 369.8122 494.7817 342.3799 491.7336 325.6157 465.8253 319.5197 424.6769 325.6157 421.6288 316.4716 401.8166 293.6114 389.6245 264.655 400.2926 237.2227 410.9607 229.6026 401.8166 214.3624 Z" id="CN.jiangsu.3473496" fill="#cee3f5" stroke="#6e6e6e" stroke-width="0.4">
      <desc>
        <name>Yancheng City</name>
        <admin_leve>5</admin_leve>
        <wikipedia>en:Yancheng</wikipedia>
        <localname>盐城市 / Yancheng</localname>
        <boundary>administrative</boundary>
        <id>CN.jiangsu.3473496</id>
      </desc>
    </path>
    <path d="M 339.3319 409.4367 359.1441 395.7205 354.5721 363.7162 369.8122 363.7162 369.8122 325.6157 350 314.9476 360.6681 298.1834 401.8166 293.6114 421.6288 316.4716 410.9607 324.0917 417.0568 348.476 444.4891 389.6245 435.345 397.2445 439.917 412.4847 435.345 429.2489 423.1528 427.7249 380.4803 438.393 359.1441 439.917 336.2838 435.345 339.3319 409.4367 Z" id="CN.jiangsu.4430826" fill="#cee3f5" stroke="#6e6e6e" stroke-width="0.4">
      <desc>
        <name>Yangzhou City</name>
        <admin_leve>5</admin_leve>
        <wikipedia>en:Yangzhou</wikipedia>
        <localname>扬州市 / Yangzhou</localname>
        <boundary>administrative</boundary>
        <id>CN.jiangsu.4430826</id>
      </desc>
    </path>
    <path d="M 421.6288 316.4716 424.6769 325.6157 465.8253 319.5197 491.7336 325.6157 494.7817 342.3799 476.4934 369.8122 470.3974 388.1004 481.0655 392.6725 491.7336 418.5808 499.3537 420.1048 500.8777 450.5852 520.69 455.1572 523.738 465.8253 502.4017 467.3493 488.6856 474.9694 459.7293 470.3974 452.1092 464.3013 441.441 435.345 435.345 429.2489 439.917 412.4847 435.345 397.2445 444.4891 389.6245 417.0568 348.476 410.9607 324.0917 421.6288 316.4716 Z" id="CN.jiangsu.4430874" fill="#cee3f5" stroke="#6e6e6e" stroke-width="0.4">
      <desc>
        <name>Taizhou City</name>
        <admin_leve>5</admin_leve>
        <wikipedia>en:Taizhou, Jiangsu</wikipedia>
        <localname>泰州市 / Taizhou</localname>
        <boundary>administrative</boundary>
        <id>CN.jiangsu.4430874</id>
      </desc>
    </path>
    <path d="M 574.0306 386.5764 587.7467 398.7686 628.8952 414.0087 639.5633 438.393 641.0873 450.5852 683.7598 462.7773 699 499.3537 683.7598 513.0699 634.9913 496.3057 616.7031 482.5895 593.8428 496.3057 569.4585 491.7336 552.6943 467.3493 523.738 465.8253 520.69 455.1572 500.8777 450.5852 499.3537 420.1048 491.7336 418.5808 481.0655 392.6725 484.1135 383.5284 505.4498 378.9563 511.5459 388.1004 529.8341 388.1004 540.5022 392.6725 574.0306 386.5764 Z" id="CN.jiangsu.4430899" fill="#cee3f5" stroke="#6e6e6e" stroke-width="0.4">
      <desc>
        <name>Nantong City</name>
        <admin_leve>5</admin_leve>
        <wikipedia>en:Nantong</wikipedia>
        <localname>南通市 / Nantong</localname>
        <boundary>administrative</boundary>
        <id>CN.jiangsu.4430899</id>
      </desc>
    </path>
    <path d="M 446.0131 570.9825 456.6812 560.3144 470.3974 558.7904 484.1135 546.5983 523.738 532.8821 531.3581 526.786 529.8341 494.7817 503.9258 478.0175 502.4017 467.3493 523.738 465.8253 552.6943 467.3493 569.4585 491.7336 593.8428 496.3057 628.8952 525.262 599.9389 535.9301 590.7948 572.5066 566.4105 575.5546 569.4585 589.2707 545.0742 595.3668 545.0742 606.0349 529.8341 610.607 519.1659 622.7991 502.4017 598.4148 476.4934 599.9389 456.6812 589.2707 446.0131 570.9825 Z" id="CN.jiangsu.4430941" fill="#cee3f5" stroke="#6e6e6e" stroke-width="0.4">
      <desc>
        <name>Suzhou City</name>
        <admin_leve>5</admin_leve>
        <wikipedia>en:Suzhou</wikipedia>
        <localname>苏州市 / Suzhou</localname>
        <boundary>administrative</boundary>
        <id>CN.jiangsu.4430941</id>
      </desc>
    </path>
    <path d="M 459.7293 470.3974 488.6856 474.9694 502.4017 467.3493 503.9258 478.0175 529.8341 494.7817 531.3581 526.786 523.738 532.8821 484.1135 546.5983 470.3974 558.7904 456.6812 560.3144 446.0131 570.9825 397.2445 572.5066 397.2445 548.1223 407.9127 522.214 417.0568 516.1179 436.869 526.786 471.9214 528.31 465.8253 516.1179 481.0655 497.8297 476.4934 488.6856 456.6812 487.1616 459.7293 470.3974 Z" id="CN.jiangsu.4430942" fill="#cee3f5" stroke="#6e6e6e" stroke-width="0.4">
      <desc>
        <name>Wuxi City</name>
        <admin_leve>5</admin_leve>
        <wikipedia>en:Wuxi</wikipedia>
        <localname>无锡市 / Wuxi</localname>
        <boundary>administrative</boundary>
        <id>CN.jiangsu.4430942</id>
      </desc>
    </path>
  </g>
</svg>