<?xml version="1.0" encoding="UTF-8"?>
<svg xmlns="http://www.w3.org/2000/svg" width="700" height="700">
  <g id="egypt">
    <path d="M 684.7749 634.6055 684.7749 635.7158 683.0402 635.2994 684.0116 633.4259 684.7749 634.6055 Z M 657.0187 610.7352 655.0758 609.0698 656.533 608.931 657.0187 610.7352 Z M 648.7612 605.5309 647.5122 606.9881 648.8306 604.0737 648.7612 605.5309 Z M 657.782 601.8532 659.5168 602.2695 656.3942 602.2695 657.6432 602.0613 657.3656 600.8123 657.782 601.8532 Z M 626.2787 575.4153 627.7359 577.9828 625.0296 576.0399 620.7968 576.6644 621.907 577.5665 619.6865 576.0399 626.2787 575.4153 Z M 655.0064 551.2674 654.2431 551.8225 653.8267 549.8796 655.0064 551.2674 Z" id="EG.5847" fill="#cee3f5" stroke="#6e6e6e" stroke-width="0.4">
      <desc>
        <labelrank>20</labelrank>
        <code_hasc>-99</code_hasc>
        <name/>
        <admin>Egypt</admin>
        <type_en/>
        <region/>
        <woe_id>-99</woe_id>
        <longitude>36</longitude>
        <woe_name/>
        <fips/>
        <woe_label/>
        <latitude>22</latitude>
        <iso_a2>EG</iso_a2>
        <postal/>
        <type/>
        <id>EG.5847</id>
      </desc>
    </path>
    <path d="M 367.1048 85.1708 366.7578 85.1014 366.6884 84.9626 366.5497 84.8932 366.4803 85.032 366.0639 88.0158 365.5782 89.6812 365.5088 90.1669 365.7864 90.5139 366.1333 90.6526 367.1048 90.9996 368.1456 90.5139 369.7416 90.0281 370.0192 90.0975 370.2274 90.2363 370.2274 90.9996 369.811 93.0813 369.1865 93.4977 368.562 93.5671 368.0069 93.7058 367.5211 94.3997 367.9375 96.9672 366.966 97.9387 366.8272 98.4244 367.5211 99.1183 366.8272 99.4653 366.4109 99.5346 367.4517 100.3673 367.5211 100.6449 367.5211 101.2694 367.3823 101.4776 366.8272 101.6858 365.5782 102.1021 365.3006 102.3103 368.4232 113.4128 368.3538 115.0781 367.5211 117.9925 367.3823 119.4497 363.0801 115.0087 358.6391 114.3148 356.9738 111.678 353.5042 112.2331 349.7571 109.9432 342.6099 112.1637 341.4303 109.9432 342.4711 106.9594 340.32 106.1961 343.7895 102.9348 340.8057 102.9348 342.5405 100.3673 340.5282 99.2571 341.916 96.9672 340.8751 93.1507 341.7772 91.8323 345.5243 93.2201 355.8635 90.5139 357.5289 84.4769 362.178 85.1708 364.6067 83.7136 365.717 83.9218 366.0639 84.1299 367.1048 85.1708 Z" id="EG.GH" fill="#cee3f5" stroke="#6e6e6e" stroke-width="0.4">
      <desc>
        <labelrank>6</labelrank>
        <code_hasc>EG.GH</code_hasc>
        <name>Al Gharbiyah</name>
        <admin>Egypt</admin>
        <type_en>Governorate</type_en>
        <region/>
        <woe_id>2345227</woe_id>
        <longitude>31</longitude>
        <woe_name>Al Gharbiyah</woe_name>
        <fips>EG05</fips>
        <woe_label>Al Gharbiyah, EG, Egypt</woe_label>
        <latitude>30</latitude>
        <iso_a2>EG</iso_a2>
        <postal>GH</postal>
        <type>Muhafazah</type>
        <id>EG.GH</id>
      </desc>
    </path>
    <path d="M 440.4506 93.1507 443.0181 114.87 443.1569 120.4906 443.365 121.7396 443.5732 122.6417 443.712 122.8499 448.8469 130.7604 451.8307 138.1852 439.7567 137.8383 433.3034 141.6547 421.7846 139.2955 402.147 140.1281 399.649 133.4666 397.7754 124.654 397.2203 123.1274 395.4855 121.1151 395.208 120.4212 395.208 119.7967 395.3468 119.5885 395.4855 119.4497 395.7631 119.5191 396.1101 119.5885 396.3876 119.5885 399.0245 120.3518 401.3837 120.3518 402.8409 120.1437 403.6736 119.8661 405.0614 119.5885 406.6574 119.5191 409.78 116.8823 414.4986 109.6657 415.0537 108.0003 414.2904 104.6695 414.2904 102.3103 414.9843 100.7143 415.3312 99.604 416.0252 98.2856 416.7884 95.9263 418.3844 93.914 418.662 92.9425 418.7314 91.4159 418.2457 89.473 415.47 86.281 420.1192 85.7259 422.0621 85.2402 423.4499 84.5463 440.4506 93.1507 Z" id="EG.IS" fill="#cee3f5" stroke="#6e6e6e" stroke-width="0.4">
      <desc>
        <labelrank>7</labelrank>
        <code_hasc>EG.IS</code_hasc>
        <name>Al Isma`iliyah</name>
        <admin>Egypt</admin>
        <type_en>Governorate</type_en>
        <region/>
        <woe_id>2345229</woe_id>
        <longitude>32</longitude>
        <woe_name>Al Isma`iliyah</woe_name>
        <fips>EG07</fips>
        <woe_label>Al Isma'iliyah, EG, Egypt</woe_label>
        <latitude>30</latitude>
        <iso_a2>EG</iso_a2>
        <postal>IS</postal>
        <type>Muhafazah</type>
        <id>EG.IS</id>
      </desc>
    </path>
    <path d="M 367.3823 119.4497 367.9375 120.213 366.1333 119.7967 366.1333 122.3642 361.1372 126.8745 360.5127 129.6502 359.1943 128.7481 359.5412 130.8992 356.7656 131.3849 359.333 134.0218 359.7494 140.6833 361.6229 143.9446 356.9738 140.8914 353.2267 141.3772 349.202 133.8136 344.6222 133.9524 344.6222 132.2176 347.1203 131.5237 345.2467 129.7196 344.4834 123.6826 345.5937 120.6294 344.1365 120.213 344.8998 118.0619 343.0956 116.3966 342.6099 112.1637 349.7571 109.9432 353.5042 112.2331 356.9738 111.678 358.6391 114.3148 363.0801 115.0087 367.3823 119.4497 Z" id="EG.MF" fill="#cee3f5" stroke="#6e6e6e" stroke-width="0.4">
      <desc>
        <labelrank>6</labelrank>
        <code_hasc>EG.MF</code_hasc>
        <name>Al Minufiyah</name>
        <admin>Egypt</admin>
        <type_en>Governorate</type_en>
        <region/>
        <woe_id>2345231</woe_id>
        <longitude>31</longitude>
        <woe_name>Al Minufiyah</woe_name>
        <fips>EG09</fips>
        <woe_label>Al Minufiyah, EG, Egypt</woe_label>
        <latitude>30</latitude>
        <iso_a2>EG</iso_a2>
        <postal>MF</postal>
        <type>Muhafazah</type>
        <id>EG.MF</id>
      </desc>
    </path>
    <path d="M 402.147 140.1281 404.6451 168.3701 369.6722 170.0355 369.5335 162.125 365.7864 154.4226 366.6884 147.6917 371.5458 144.5691 386.1178 142.9038 399.649 133.4666 402.147 140.1281 Z" id="EG.QH" fill="#cee3f5" stroke="#6e6e6e" stroke-width="0.4">
      <desc>
        <labelrank>9</labelrank>
        <code_hasc>EG.QH</code_hasc>
        <name>Al Qahirah</name>
        <admin>Egypt</admin>
        <type_en>Governorate</type_en>
        <region/>
        <woe_id>2345233</woe_id>
        <longitude>31</longitude>
        <woe_name>Al Qahirah</woe_name>
        <fips>EG11</fips>
        <woe_label>Al Qahirah, EG, Egypt</woe_label>
        <latitude>29</latitude>
        <iso_a2>EG</iso_a2>
        <postal>QH</postal>
        <type>Muhafazah</type>
        <id>EG.QH</id>
      </desc>
    </path>
    <path d="M 386.1178 142.9038 371.5458 144.5691 366.6884 147.6917 366.2027 146.0263 361.6229 143.9446 359.7494 140.6833 359.333 134.0218 356.7656 131.3849 359.5412 130.8992 359.1943 128.7481 360.5127 129.6502 361.1372 126.8745 366.1333 122.3642 366.1333 119.7967 367.9375 120.213 367.3823 119.4497 367.5211 117.9925 369.1171 118.5477 369.811 119.1028 371.6846 118.5477 372.8642 118.8946 370.2967 120.9069 369.6722 121.7396 368.562 127.4991 368.9089 127.9154 369.8804 128.6787 370.3661 129.7889 371.8233 131.5237 372.3785 132.3564 372.7948 133.883 373.7663 136.1729 374.7377 137.2831 386.1178 142.9038 Z" id="EG.QL" fill="#cee3f5" stroke="#6e6e6e" stroke-width="0.4">
      <desc>
        <labelrank>6</labelrank>
        <code_hasc>EG.QL</code_hasc>
        <name>Al Qalyubiyah</name>
        <admin>Egypt</admin>
        <type_en>Governorate</type_en>
        <region/>
        <woe_id>2345234</woe_id>
        <longitude>31</longitude>
        <woe_name>Al Qalyubiyah</woe_name>
        <fips>EG12</fips>
        <woe_label>Al Qalyobiyah, EG, Egypt</woe_label>
        <latitude>30</latitude>
        <iso_a2>EG</iso_a2>
        <postal>QL</postal>
        <type>Muhafazah</type>
        <id>EG.QL</id>
      </desc>
    </path>
    <path d="M 372.8642 118.8946 374.3908 116.1884 373.1418 109.2493 374.1132 105.9186 384.9382 104.2532 396.1101 87.8076 404.992 86.628 410.6127 83.783 411.5842 85.1014 410.127 86.4198 412.3475 86.4892 413.5965 88.4322 414.9149 87.6689 413.1107 85.9341 415.47 86.7668 416.4415 88.3628 417.2742 88.7791 418.2457 89.473 418.7314 91.4159 418.662 92.9425 418.3844 93.914 416.7884 95.9263 416.0252 98.2856 415.3312 99.604 414.9843 100.7143 414.2904 102.3103 414.2904 104.6695 415.0537 108.0003 414.4986 109.6657 409.78 116.8823 406.6574 119.5191 405.0614 119.5885 403.6736 119.8661 401.3837 120.3518 399.0245 120.3518 396.3876 119.5885 396.1101 119.5885 395.7631 119.5191 395.4855 119.4497 395.3468 119.5885 395.208 119.7967 395.208 120.4212 395.4855 121.1151 397.2203 123.1274 397.7754 124.654 399.649 133.4666 386.1178 142.9038 374.7377 137.2831 373.7663 136.1729 372.7948 133.883 372.3785 132.3564 371.8233 131.5237 370.3661 129.7889 369.8804 128.6787 368.9089 127.9154 368.562 127.4991 369.6722 121.7396 370.2967 120.9069 372.8642 118.8946 Z M 423.4499 84.5463 422.0621 85.2402 420.1192 85.7259 415.2619 85.9341 417.6905 83.9218 419.5641 85.1708 422.4785 84.2687 421.9234 81.0767 423.2418 81.0074 423.3112 81.0767 423.4499 84.5463 Z" id="EG.SQ" fill="#cee3f5" stroke="#6e6e6e" stroke-width="0.4">
      <desc>
        <labelrank>6</labelrank>
        <code_hasc>EG.SQ</code_hasc>
        <name>Ash Sharqiyah</name>
        <admin>Egypt</admin>
        <type_en>Governorate</type_en>
        <region/>
        <woe_id>2345236</woe_id>
        <longitude>31</longitude>
        <woe_name>Ash Sharqiyah</woe_name>
        <fips>EG14</fips>
        <woe_label>Ash Sharquiyah, EG, Egypt</woe_label>
        <latitude>30</latitude>
        <iso_a2>EG</iso_a2>
        <postal>SQ</postal>
        <type>Muhafazah</type>
        <id>EG.SQ</id>
      </desc>
    </path>
    <path d="M 451.8307 138.1852 453.843 156.7819 454.3288 158.1003 454.8145 158.933 455.2308 159.5575 444.2671 167.468 444.1977 167.468 441.6303 165.3863 442.6711 162.1944 439.6873 158.7942 439.618 153.6593 439.6873 157.9615 436.4954 156.7819 434.5524 158.6554 434.3443 161.8474 436.3566 162.7495 430.0421 171.1457 427.1276 179.6808 429.9727 184.2606 440.7282 193.9752 445.0304 209.5187 439.7567 209.6575 438.7159 209.7963 436.426 210.5596 416.9272 219.4416 404.09 220.6212 401.7307 219.5804 404.6451 168.3701 402.147 140.1281 421.7846 139.2955 433.3034 141.6547 439.7567 137.8383 451.8307 138.1852 Z" id="EG.SW" fill="#cee3f5" stroke="#6e6e6e" stroke-width="0.4">
      <desc>
        <labelrank>9</labelrank>
        <code_hasc>EG.SW</code_hasc>
        <name>As Suways</name>
        <admin>Egypt</admin>
        <type_en>Governorate</type_en>
        <region/>
        <woe_id>2345237</woe_id>
        <longitude>32</longitude>
        <woe_name>As Suways</woe_name>
        <fips>EG15</fips>
        <woe_label>As Suways, EG, Egypt</woe_label>
        <latitude>29</latitude>
        <iso_a2>EG</iso_a2>
        <postal>SW</postal>
        <type>Muhafazah</type>
        <id>EG.SW</id>
      </desc>
    </path>
    <path d="M 421.507 73.5826 419.2171 74.2765 418.8702 73.2356 421.507 73.5826 Z M 413.2495 69.0722 418.4538 73.2356 411.4454 69.5579 413.2495 69.0722 Z M 410.6127 83.783 404.992 86.628 396.1101 87.8076 384.9382 104.2532 374.1132 105.9186 373.1418 109.2493 374.3908 116.1884 372.8642 118.8946 371.6846 118.5477 369.811 119.1028 369.1171 118.5477 367.5211 117.9925 368.3538 115.0781 368.4232 113.4128 365.3006 102.3103 365.5782 102.1021 366.8272 101.6858 367.3823 101.4776 367.5211 101.2694 367.5211 100.6449 367.4517 100.3673 367.1048 100.0204 366.7578 99.7428 366.4109 99.5346 366.8272 99.4653 367.2436 99.1877 367.5211 99.1183 366.8272 98.4244 366.966 97.9387 367.9375 96.9672 367.5211 94.3997 368.0069 93.7058 368.562 93.5671 369.1865 93.4977 369.811 93.0813 370.2274 90.9996 370.2274 90.2363 370.0192 90.0975 369.7416 90.0281 368.1456 90.5139 367.1048 90.9996 366.1333 90.6526 365.7864 90.5139 365.5088 90.1669 365.5782 89.6812 366.0639 88.0158 366.4803 85.032 366.5497 84.8932 366.6884 84.9626 366.7578 85.1014 367.1048 85.1708 369.1171 84.0605 369.8804 83.8524 369.7416 83.2972 368.7702 82.3952 368.4926 81.9094 368.4232 81.3543 368.9089 79.8971 369.1171 78.8562 369.0477 77.0521 368.8395 74.901 368.9089 70.1824 368.4232 66.3659 368.2844 65.7414 368.0069 65.1863 367.0354 64.0067 366.8966 63.4515 367.1048 62.4107 367.2436 61.9943 368.6314 60.9535 372.5172 58.8024 384.5218 64.1454 384.4524 64.2842 384.3136 64.8393 384.1749 65.1863 383.8973 65.672 381.6768 67.4068 380.7747 68.517 380.6359 68.7946 380.7053 69.1416 381.1217 69.4191 383.8973 69.9743 384.1749 71.5702 387.922 73.7213 388.824 71.5008 389.8649 71.0845 390.1425 71.0151 390.4894 71.0151 390.6976 71.5008 390.9751 72.4723 390.767 72.7499 390.767 73.2356 391.1139 73.7213 390.9058 73.9989 390.4894 73.9989 390.0037 73.5826 389.6567 73.5826 389.5179 73.7907 389.4486 73.9989 389.3098 74.4846 390.2812 75.0398 390.2119 75.7337 389.4486 76.3582 387.5056 76.7051 387.8526 78.3705 386.8811 79.7583 385.9096 80.0359 386.2566 81.3543 386.6729 81.6319 390.3506 78.995 391.7384 78.2317 394.1671 77.6072 395.7631 76.497 396.5958 74.4846 396.6652 74.4846 396.3182 74.0683 401.5225 77.8848 402.6328 76.0806 401.9389 78.3011 403.743 78.6481 403.743 80.1747 407.0044 77.399 409.7106 78.2317 408.6004 83.783 410.6127 83.783 Z" id="EG.DQ" fill="#cee3f5" stroke="#6e6e6e" stroke-width="0.4">
      <desc>
        <labelrank>6</labelrank>
        <code_hasc>EG.DQ</code_hasc>
        <name>Ad Daqahliyah</name>
        <admin>Egypt</admin>
        <type_en>Governorate</type_en>
        <region/>
        <woe_id>2345223</woe_id>
        <longitude>31</longitude>
        <woe_name>Ad Daqahliyah</woe_name>
        <fips>EG01</fips>
        <woe_label>Ad Daqahliyah, EG, Egypt</woe_label>
        <latitude>31</latitude>
        <iso_a2>EG</iso_a2>
        <postal>DQ</postal>
        <type>Muhafazah</type>
        <id>EG.DQ</id>
      </desc>
    </path>
    <path d="M 440.4506 93.1507 423.4499 84.5463 423.3112 81.0767 423.2418 81.0074 423.3806 81.0767 423.6581 78.3011 421.507 73.5826 425.6011 74.6234 435.3157 84.8238 440.2425 87.5995 440.2425 87.6689 440.4506 93.1507 Z" id="EG.BS" fill="#cee3f5" stroke="#6e6e6e" stroke-width="0.4">
      <desc>
        <labelrank>9</labelrank>
        <code_hasc>EG.BS</code_hasc>
        <name>Bur Sa`id</name>
        <admin>Egypt</admin>
        <type_en>Governorate</type_en>
        <region/>
        <woe_id>2345241</woe_id>
        <longitude>32</longitude>
        <woe_name>Bur Sa`id</woe_name>
        <fips>EG19</fips>
        <woe_label>Bur Sa'id, EG, Egypt</woe_label>
        <latitude>31</latitude>
        <iso_a2>EG</iso_a2>
        <postal>BS</postal>
        <type>Muhafazah</type>
        <id>EG.BS</id>
      </desc>
    </path>
    <path d="M 396.5958 74.4846 395.7631 76.497 394.1671 77.6072 391.7384 78.2317 390.3506 78.995 386.6729 81.6319 386.2566 81.3543 385.9096 80.0359 386.8811 79.7583 387.8526 78.3705 387.5056 76.7051 389.4486 76.3582 390.2119 75.7337 390.2812 75.0398 389.3098 74.4846 389.4486 73.9989 389.5179 73.7907 389.6567 73.5826 390.0037 73.5826 390.4894 73.9989 390.9058 73.9989 391.1139 73.7213 390.767 73.2356 390.767 72.7499 390.9751 72.4723 390.6976 71.5008 390.4894 71.0151 390.1425 71.0151 389.8649 71.0845 388.824 71.5008 388.7546 71.7784 388.7546 71.9866 388.7546 73.1662 387.922 73.7213 384.1749 71.5702 383.8973 69.9743 381.1217 69.4191 380.7053 69.1416 380.6359 68.7946 380.7747 68.517 381.6768 67.4068 383.8973 65.672 384.1749 65.1863 384.5218 64.1454 385.9096 64.0761 394.0283 61.7168 400.7592 58.2472 404.5757 59.1493 408.9473 66.7129 412.6944 68.864 407.3513 67.0598 405.8941 64.423 407.2125 64.3536 403.1185 59.0105 400.2735 58.9411 399.1632 60.6759 400.2735 60.6065 401.0368 64.9781 399.0245 62.7576 398.1224 64.0761 399.9265 64.0761 401.0368 65.8108 398.4693 66.2966 398.3305 68.7946 399.9959 69.6967 396.6652 69.3497 396.6652 72.4029 395.208 73.1662 395.4161 74.6234 396.5958 74.4846 Z" id="EG.DT" fill="#cee3f5" stroke="#6e6e6e" stroke-width="0.4">
      <desc>
        <labelrank>9</labelrank>
        <code_hasc>EG.DT</code_hasc>
        <name>Dumyat</name>
        <admin>Egypt</admin>
        <type_en>Governorate</type_en>
        <region/>
        <woe_id>2345242</woe_id>
        <longitude>31</longitude>
        <woe_name>Dumyat</woe_name>
        <fips>EG20</fips>
        <woe_label>Dumyat, EG, Egypt</woe_label>
        <latitude>31</latitude>
        <iso_a2>EG</iso_a2>
        <postal>DT</postal>
        <type>Muhafazah</type>
        <id>EG.DT</id>
      </desc>
    </path>
    <path d="M 277.7991 91.069 278.7706 133.3279 281.2686 138.6709 316.9354 161.2229 274.052 186.9668 237.6913 222.4254 226.3807 230.6829 177.946 242.6874 173.7132 247.753 148.1081 298.3387 16.8211 293.2732 21.609 197.8611 16.1965 177.2521 17.0292 168.7171 13.5597 158.586 14.6006 152.6185 8.8411 133.883 13.976 124.7928 21.956 114.6618 27.646 96.8284 22.4417 80.5216 21.6784 60.8841 22.4417 58.9411 31.6706 52.2797 35.5565 44.9242 39.026 42.4262 40.8302 50.4061 52.0715 52.7654 75.1785 46.8672 82.8809 47.1447 103.9063 54.0144 124.9316 57.6921 130.8992 60.4677 136.3117 59.8432 150.1898 65.5333 155.2553 64.8393 158.933 72.958 161.778 74.9704 173.2275 78.093 183.7748 74.6234 185.9259 82.6033 187.5219 83.5748 199.8041 84.2687 208.6167 86.628 214.3761 85.2402 235.1933 93.6364 236.4423 96.5508 246.7815 102.0327 257.1207 101.547 277.7991 91.069 Z" id="EG.MT" fill="#cee3f5" stroke="#6e6e6e" stroke-width="0.4">
      <desc>
        <labelrank>6</labelrank>
        <code_hasc>EG.MT</code_hasc>
        <name>Matruh</name>
        <admin>Egypt</admin>
        <type_en>Governorate</type_en>
        <region/>
        <woe_id>2345244</woe_id>
        <longitude>27</longitude>
        <woe_name>Matruh</woe_name>
        <fips>EG22</fips>
        <woe_label>Matruh, EG, Egypt</woe_label>
        <latitude>29</latitude>
        <iso_a2>EG</iso_a2>
        <postal>MT</postal>
        <type>Muhafazah</type>
        <id>EG.MT</id>
      </desc>
    </path>
    <path d="M 321.307 64.1454 324.499 70.1824 325.8174 69.7661 327.6909 71.4315 326.3725 77.1215 327.4828 77.1215 328.0379 79.6889 330.4665 79.5502 337.475 86.281 340.8751 93.1507 341.916 96.9672 340.5282 99.2571 342.5405 100.3673 340.8057 102.9348 343.7895 102.9348 340.32 106.1961 342.4711 106.9594 341.4303 109.9432 342.6099 112.1637 343.0956 116.3966 344.8998 118.0619 344.1365 120.213 345.5937 120.6294 344.4834 123.6826 345.2467 129.7196 347.1203 131.5237 344.6222 132.2176 344.6222 133.9524 319.1559 156.7125 316.9354 161.2229 281.2686 138.6709 278.7706 133.3279 282.1013 125.4867 284.53 122.9887 295.4243 117.5068 300.0735 110.8453 292.3017 97.0366 294.7304 91.4853 292.4405 87.0443 300.2816 82.5339 305.0696 73.9989 309.0249 74.901 307.2901 77.0521 308.6085 78.3011 310.8984 76.9827 311.5923 78.093 314.2291 75.3173 315.27 77.0521 315.27 74.4846 309.4412 74.4846 316.6578 69.9743 318.6008 65.5333 318.3926 60.7453 321.307 64.1454 Z" id="EG.BH" fill="#cee3f5" stroke="#6e6e6e" stroke-width="0.4">
      <desc>
        <labelrank>6</labelrank>
        <code_hasc>EG.BH</code_hasc>
        <name>Al Buhayrah</name>
        <admin>Egypt</admin>
        <type_en>Governorate</type_en>
        <region/>
        <woe_id>2345225</woe_id>
        <longitude>30</longitude>
        <woe_name>Al Buhayrah</woe_name>
        <fips>EG03</fips>
        <woe_label>Al Buhayrah, EG, Egypt</woe_label>
        <latitude>30</latitude>
        <iso_a2>EG</iso_a2>
        <postal>BH</postal>
        <type>Muhafazah</type>
        <id>EG.BH</id>
      </desc>
    </path>
    <path d="M 359.333 192.6568 346.2182 210.2126 341.569 212.5719 318.5314 218.9559 315.9639 219.164 312.2862 216.4578 288.3465 211.878 318.2538 183.983 339.7649 172.8805 351.2837 171.4927 353.8512 173.4356 355.3778 175.0316 359.333 192.6568 Z" id="EG.FY" fill="#cee3f5" stroke="#6e6e6e" stroke-width="0.4">
      <desc>
        <labelrank>9</labelrank>
        <code_hasc>EG.FY</code_hasc>
        <name>Al Fayyum</name>
        <admin>Egypt</admin>
        <type_en>Governorate</type_en>
        <region/>
        <woe_id>2345226</woe_id>
        <longitude>30</longitude>
        <woe_name>Al Fayyum</woe_name>
        <fips>EG04</fips>
        <woe_label>Al Fayyum, EG, Egypt</woe_label>
        <latitude>29</latitude>
        <iso_a2>EG</iso_a2>
        <postal>FY</postal>
        <type>Muhafazah</type>
        <id>EG.FY</id>
      </desc>
    </path>
    <path d="M 305.0696 73.9989 300.2816 82.5339 292.4405 87.0443 294.7304 91.4853 292.3017 97.0366 300.0735 110.8453 295.4243 117.5068 284.53 122.9887 282.1013 125.4867 278.7706 133.3279 277.7991 91.069 287.8607 82.4646 290.9139 82.1176 293.4814 79.8971 292.3017 79.4808 293.065 78.3705 294.1753 79.0644 302.0164 71.7784 303.543 70.9457 303.3348 72.7499 305.0696 73.9989 Z" id="EG.IK" fill="#cee3f5" stroke="#6e6e6e" stroke-width="0.4">
      <desc>
        <labelrank>9</labelrank>
        <code_hasc>EG.IK</code_hasc>
        <name>Al Iskandariyah</name>
        <admin>Egypt</admin>
        <type_en>Governorate</type_en>
        <region/>
        <woe_id>2345228</woe_id>
        <longitude>29</longitude>
        <woe_name>Al Iskandariyah</woe_name>
        <fips>EG06</fips>
        <woe_label>Al Iskandariyah, EG, Egypt</woe_label>
        <latitude>30</latitude>
        <iso_a2>EG</iso_a2>
        <postal>IK</postal>
        <type>Muhafazah</type>
        <id>EG.IK</id>
      </desc>
    </path>
    <path d="M 361.6229 143.9446 366.2027 146.0263 366.6884 147.6917 365.7864 154.4226 369.5335 162.125 369.6722 170.0355 404.6451 168.3701 401.7307 219.5804 381.3299 213.5434 380.289 213.0577 378.693 212.0862 375.4317 208.9636 373.3499 205.3553 371.8233 203.8981 367.7293 198.9714 366.1333 193.9752 359.333 192.6568 355.3778 175.0316 353.8512 173.4356 351.2837 171.4927 339.7649 172.8805 318.2538 183.983 288.3465 211.878 284.4606 232.487 275.2316 255.941 268.015 265.17 259.5494 271.3458 229.5032 287.4444 222.4948 300.2122 148.1081 298.3387 173.7132 247.753 177.946 242.6874 226.3807 230.6829 237.6913 222.4254 274.052 186.9668 316.9354 161.2229 319.1559 156.7125 344.6222 133.9524 349.202 133.8136 353.2267 141.3772 356.9738 140.8914 361.6229 143.9446 Z" id="EG.JZ" fill="#cee3f5" stroke="#6e6e6e" stroke-width="0.4">
      <desc>
        <labelrank>6</labelrank>
        <code_hasc>EG.JZ</code_hasc>
        <name>Al Jizah</name>
        <admin>Egypt</admin>
        <type_en>Governorate</type_en>
        <region/>
        <woe_id>2345230</woe_id>
        <longitude>29</longitude>
        <woe_name>Al Jizah</woe_name>
        <fips>EG08</fips>
        <woe_label>Al Jizah, EG, Egypt</woe_label>
        <latitude>29</latitude>
        <iso_a2>EG</iso_a2>
        <postal>JZ</postal>
        <type>Muhafazah</type>
        <id>EG.JZ</id>
      </desc>
    </path>
    <path d="M 350.5898 235.6096 348.8551 250.9449 348.5775 252.2633 345.5243 257.6064 343.9283 261.7699 343.5814 263.1577 343.4426 264.3373 344.0671 267.8068 344.3447 270.5131 344.4141 271.2764 348.5775 280.3665 351.1449 294.0365 350.451 304.4451 344.4141 305.139 335.3239 303.543 336.226 301.3919 222.4948 300.2122 229.5032 287.4444 259.5494 271.3458 268.015 265.17 275.2316 255.941 284.4606 232.487 340.8751 231.5156 341.916 232.5564 350.5898 235.6096 Z" id="EG.MN" fill="#cee3f5" stroke="#6e6e6e" stroke-width="0.4">
      <desc>
        <labelrank>9</labelrank>
        <code_hasc>EG.MN</code_hasc>
        <name>Al Minya</name>
        <admin>Egypt</admin>
        <type_en>Governorate</type_en>
        <region/>
        <woe_id>2345232</woe_id>
        <longitude>30</longitude>
        <woe_name>Al Minya</woe_name>
        <fips>EG10</fips>
        <woe_label>Al Minya, EG, Egypt</woe_label>
        <latitude>28</latitude>
        <iso_a2>EG</iso_a2>
        <postal>MN</postal>
        <type>Muhafazah</type>
        <id>EG.MN</id>
      </desc>
    </path>
    <path d="M 367.7293 198.9714 367.5211 201.6082 367.7293 204.1063 367.6599 205.0084 365.6476 210.0739 364.9537 211.4617 364.1904 212.6413 361.7617 215.2782 360.2351 217.2905 357.0431 222.4948 353.2961 227.4215 352.1164 229.5726 351.0756 232.487 350.7286 234.3606 350.5898 235.6096 341.916 232.5564 340.8751 231.5156 284.4606 232.487 288.3465 211.878 312.2862 216.4578 315.9639 219.164 318.5314 218.9559 341.569 212.5719 346.2182 210.2126 359.333 192.6568 366.1333 193.9752 367.7293 198.9714 Z" id="EG.BN" fill="#cee3f5" stroke="#6e6e6e" stroke-width="0.4">
      <desc>
        <labelrank>9</labelrank>
        <code_hasc>EG.BN</code_hasc>
        <name>Bani Suwayf</name>
        <admin>Egypt</admin>
        <type_en>Governorate</type_en>
        <region/>
        <woe_id>2345240</woe_id>
        <longitude>30</longitude>
        <woe_name>Bani Suwayf</woe_name>
        <fips>EG18</fips>
        <woe_label>Bani Suwayf, EG, Egypt</woe_label>
        <latitude>28</latitude>
        <iso_a2>EG</iso_a2>
        <postal>BN</postal>
        <type>Muhafazah</type>
        <id>EG.BN</id>
      </desc>
    </path>
    <path d="M 367.1048 85.1708 366.0639 84.1299 365.717 83.9218 364.6067 83.7136 362.178 85.1708 357.5289 84.4769 355.8635 90.5139 345.5243 93.2201 341.7772 91.8323 340.8751 93.1507 337.475 86.281 330.4665 79.5502 328.0379 79.6889 327.4828 77.1215 326.3725 77.1215 327.6909 71.4315 325.8174 69.7661 324.499 70.1824 321.307 64.1454 319.3641 60.0514 324.4296 62.9658 328.7318 62.8964 352.3246 55.2634 333.6585 64.77 329.9114 65.5333 329.0787 67.268 333.5891 67.6844 336.226 65.6026 339.4179 67.6844 342.8181 64.0761 347.8836 65.7414 350.451 63.3821 352.6715 64.7006 355.3084 59.4963 359.68 61.231 360.7208 59.6351 357.5289 56.5819 352.5328 55.4022 358.9167 53.945 365.5782 55.6798 372.5172 58.8024 368.6314 60.9535 367.2436 61.9943 367.1048 62.4107 366.966 62.9658 366.8966 63.4515 367.0354 64.0067 367.313 64.3536 368.0069 65.1863 368.2844 65.7414 368.4232 66.3659 368.9089 70.1824 368.8395 74.901 369.0477 77.0521 369.1171 78.8562 368.9089 79.8971 368.4232 81.3543 368.4926 81.9094 368.7702 82.3952 369.7416 83.2972 369.8804 83.8524 367.1048 85.1708 Z" id="EG.KS" fill="#cee3f5" stroke="#6e6e6e" stroke-width="0.4">
      <desc>
        <labelrank>9</labelrank>
        <code_hasc>EG.KS</code_hasc>
        <name>Kafr ash Shaykh</name>
        <admin>Egypt</admin>
        <type_en>Governorate</type_en>
        <region/>
        <woe_id>2345243</woe_id>
        <longitude>30</longitude>
        <woe_name>Kafr ash Shaykh</woe_name>
        <fips>EG21</fips>
        <woe_label>Kafr ash Shaykh, EG, Egypt</woe_label>
        <latitude>31</latitude>
        <iso_a2>EG</iso_a2>
        <postal>KS</postal>
        <type>Muhafazah</type>
        <id>EG.KS</id>
      </desc>
    </path>
    <path d="M 372.1009 650.8429 367.313 646.2631 367.4517 643.0712 371.3376 639.6017 382.4401 636.8954 388.5465 630.0257 389.8649 625.6541 388.2689 616.4946 390.767 612.0536 394.6528 610.4576 402.2858 611.776 423.103 602.2695 429.14 605.8778 433.7198 605.8084 437.2587 608.3759 440.4506 602.8246 448.5 580.4115 455.786 571.1825 454.9533 567.5742 440.6588 568.5457 436.9811 567.5742 436.2872 565.9088 439.2016 553.2104 441.9772 549.1857 445.2386 546.8264 453.843 545.3692 455.5084 543.9814 454.4675 541.414 448.7081 537.7363 449.1939 531.2135 451.4144 529.6176 459.2555 528.6461 462.3781 523.0948 461.6148 500.2653 464.4598 490.2037 463.7659 486.6648 459.6718 477.2277 457.1738 466.1946 454.9533 463.3495 448.2224 459.2555 450.4429 457.1044 451.0674 451.4144 462.725 460.0882 466.9578 466.1946 469.4559 484.1667 476.1174 497.9061 474.8684 503.1103 468.9008 511.8536 467.7905 516.8497 467.3048 521.1519 469.109 531.8381 469.6641 533.2953 471.0519 535.7933 472.6479 540.0261 473.1336 541.1364 474.1051 542.3854 477.0889 544.6059 477.7134 545.3692 478.4073 546.6876 479.1012 553.9737 477.644 557.582 477.5052 558.6228 477.5746 560.2188 478.9624 566.0476 481.6687 570.9744 481.9462 571.9458 482.0156 572.8479 481.8768 573.5418 481.4605 575.0684 479.5175 580.4809 479.1706 581.1054 478.8236 581.6605 477.0195 583.1177 476.4644 583.7422 476.1174 584.5055 475.0072 587.2811 473.4806 589.1547 473.1336 590.0568 474.3133 592.0691 482.432 596.0244 483.0565 596.5101 483.5422 597.1346 484.3055 598.5224 486.526 600.7429 489.4404 609.5555 489.5792 611.1515 489.371 611.8454 488.8853 612.1924 488.3302 612.1924 487.0811 611.7066 477.1583 603.3798 474.3133 602.8246 469.5253 603.7267 467.7211 603.4492 465.7088 602.1307 463.072 599.4245 462.4475 598.8694 461.7536 598.3836 460.5739 598.3836 457.2432 603.8655 457.5901 609.278 456.2717 612.5393 454.8145 614.5516 445.5162 623.503 443.365 625.446 442.3242 626.1399 441.2139 626.7644 438.5771 627.5971 435.8015 628.0828 432.5401 628.0828 431.7768 627.944 430.2502 627.4583 428.8624 626.8338 428.2379 626.4174 425.2541 623.2255 422.5479 621.0744 421.9234 620.658 421.2294 620.3805 420.6049 620.3111 419.9804 620.5192 419.4253 621.005 419.0089 621.6295 418.3844 623.0173 414.6373 633.6341 413.6659 635.2994 412.6944 636.6179 411.8617 637.4505 408.8779 639.6017 408.184 639.8792 407.4901 640.018 403.9512 640.5037 400.3429 644.9447 387.0199 651.4674 385.7015 652.5083 384.383 654.0349 382.7177 657.2269 382.6483 657.5044 379.1787 657.5044 382.3707 647.9285 380.6359 643.6957 376.1949 643.7651 372.1009 650.8429 Z" id="EG.AN" fill="#cee3f5" stroke="#6e6e6e" stroke-width="0.4">
      <desc>
        <labelrank>7</labelrank>
        <code_hasc>EG.AN</code_hasc>
        <name>Aswan</name>
        <admin>Egypt</admin>
        <type_en>Governorate</type_en>
        <region/>
        <woe_id>2345238</woe_id>
        <longitude>32</longitude>
        <woe_name>Aswan</woe_name>
        <fips>EG16</fips>
        <woe_label>Aswan, EG, Egypt</woe_label>
        <latitude>22</latitude>
        <iso_a2>EG</iso_a2>
        <postal>AN</postal>
        <type>Muhafazah</type>
        <id>EG.AN</id>
      </desc>
    </path>
    <path d="M 350.451 304.4451 350.2429 309.9963 350.3123 311.8005 351.0062 314.4373 351.3531 315.27 351.7695 315.9639 352.2552 316.5884 352.8103 317.0742 357.7371 319.9192 369.8804 325.5398 372.8642 331.3686 381.1911 339.071 388.5465 353.7818 384.8688 353.5042 379.7339 347.1203 370.5743 353.5736 362.8026 338.3771 358.2228 334.0055 350.3123 330.2584 341.9854 322.1397 335.879 309.6494 335.3239 303.543 344.4141 305.139 350.451 304.4451 Z" id="EG.AT" fill="#cee3f5" stroke="#6e6e6e" stroke-width="0.4">
      <desc>
        <labelrank>7</labelrank>
        <code_hasc>EG.AT</code_hasc>
        <name>Asyut</name>
        <admin>Egypt</admin>
        <type_en>Governorate</type_en>
        <region/>
        <woe_id>2345239</woe_id>
        <longitude>31</longitude>
        <woe_name>Asyut</woe_name>
        <fips>EG17</fips>
        <woe_label>Asyut, EG, Egypt</woe_label>
        <latitude>27</latitude>
        <iso_a2>EG</iso_a2>
        <postal>AT</postal>
        <type>Muhafazah</type>
        <id>EG.AT</id>
      </desc>
    </path>
    <path d="M 335.3239 303.543 335.879 309.6494 341.9854 322.1397 350.3123 330.2584 358.2228 334.0055 362.8026 338.3771 370.5743 353.5736 383.8279 367.7293 407.6983 397.2203 417.2742 405.9635 421.5764 407.6289 430.9441 405.7553 445.4468 399.0245 449.8878 398.8857 452.1083 400.6898 452.8716 405.4084 447.9448 418.5926 438.7159 426.7113 435.8709 431.0135 440.4506 452.1083 448.2224 459.2555 454.9533 463.3495 457.1738 466.1946 459.6718 477.2277 463.7659 486.6648 464.4598 490.2037 461.6148 500.2653 462.3781 523.0948 459.2555 528.6461 451.4144 529.6176 449.1939 531.2135 448.7081 537.7363 454.4675 541.414 455.5084 543.9814 453.843 545.3692 445.2386 546.8264 441.9772 549.1857 439.2016 553.2104 436.2872 565.9088 436.9811 567.5742 440.6588 568.5457 454.9533 567.5742 455.786 571.1825 448.5 580.4115 440.4506 602.8246 437.2587 608.3759 433.7198 605.8084 429.14 605.8778 423.103 602.2695 402.2858 611.776 394.6528 610.4576 390.767 612.0536 388.2689 616.4946 389.8649 625.6541 388.5465 630.0257 382.4401 636.8954 371.3376 639.6017 367.4517 643.0712 367.313 646.2631 372.1009 650.8429 368.215 657.5738 246.3651 656.9493 120.9069 654.5206 1 650.5654 4.7471 558.6228 8.7024 466.7497 12.8658 374.8071 16.8211 293.2732 148.1081 298.3387 222.4948 300.2122 336.226 301.3919 335.3239 303.543 Z" id="EG.WJ" fill="#cee3f5" stroke="#6e6e6e" stroke-width="0.4">
      <desc>
        <labelrank>6</labelrank>
        <code_hasc>EG.WJ</code_hasc>
        <name>Al Wadi at Jadid</name>
        <admin>Egypt</admin>
        <type_en>Governorate</type_en>
        <region/>
        <woe_id>2345235</woe_id>
        <longitude>28</longitude>
        <woe_name>Al Wadi at Jadid</woe_name>
        <fips>EG13</fips>
        <woe_label>Al Wadi al Jadid, EG, Egypt</woe_label>
        <latitude>24</latitude>
        <iso_a2>EG</iso_a2>
        <postal>WJ</postal>
        <type>Muhafazah</type>
        <id>EG.WJ</id>
      </desc>
    </path>
    <path d="M 451.0674 451.4144 450.4429 457.1044 448.2224 459.2555 440.4506 452.1083 435.8709 431.0135 438.7159 426.7113 447.9448 418.5926 452.8716 405.4084 452.1083 400.6898 449.8878 398.8857 445.4468 399.0245 430.9441 405.7553 421.5764 407.6289 417.2742 405.9635 407.6983 397.2203 418.1069 391.0445 424.9071 397.5673 427.8216 395.8325 440.867 389.8649 449.0551 389.3098 453.4961 390.4894 454.6063 391.1139 455.9941 392.016 458.0065 393.8202 460.2964 396.804 461.129 398.1918 461.7536 399.649 462.5862 402.5634 463.2801 407.1432 462.5169 414.221 459.6718 420.3274 458.631 421.7846 457.3819 423.2418 451.9695 428.2379 448.2918 432.4707 447.4591 433.7198 446.8346 434.9688 446.2101 437.0505 446.2101 441.2833 447.2509 446.0019 447.9448 447.7367 448.7081 449.0551 449.1939 449.749 451.0674 451.4144 Z M 447.5285 422.5479 446.1407 425.2541 447.6673 425.4623 448.6387 423.103 447.5285 422.5479 Z" id="EG.QN" fill="#cee3f5" stroke="#6e6e6e" stroke-width="0.4">
      <desc>
        <labelrank>9</labelrank>
        <code_hasc>EG.QN</code_hasc>
        <name>Qina</name>
        <admin>Egypt</admin>
        <type_en>Governorate</type_en>
        <region/>
        <woe_id>2345245</woe_id>
        <longitude>32</longitude>
        <woe_name>Qina</woe_name>
        <fips>EG02</fips>
        <woe_label>Qina, EG, Egypt</woe_label>
        <latitude>26</latitude>
        <iso_a2>EG</iso_a2>
        <postal>QN</postal>
        <type>Muhafazah</type>
        <id>EG.QN</id>
      </desc>
    </path>
    <path d="M 388.5465 353.7818 398.053 360.3045 400.551 362.6638 408.8085 379.5257 419.0783 384.1055 427.8216 395.8325 424.9071 397.5673 418.1069 391.0445 407.6983 397.2203 383.8279 367.7293 370.5743 353.5736 379.7339 347.1203 384.8688 353.5042 388.5465 353.7818 Z" id="EG.SJ" fill="#cee3f5" stroke="#6e6e6e" stroke-width="0.4">
      <desc>
        <labelrank>6</labelrank>
        <code_hasc>EG.SJ</code_hasc>
        <name>Suhaj</name>
        <admin>Egypt</admin>
        <type_en>Governorate</type_en>
        <region/>
        <woe_id>2345246</woe_id>
        <longitude>31</longitude>
        <woe_name>Suhaj</woe_name>
        <fips>EG24</fips>
        <woe_label>Suhaj, EG, Egypt</woe_label>
        <latitude>26</latitude>
        <iso_a2>EG</iso_a2>
        <postal>SJ</postal>
        <type>Muhafazah</type>
        <id>EG.SJ</id>
      </desc>
    </path>
    <path d="M 523.0948 358.2228 523.1642 359.68 520.3192 354.6145 521.4295 354.6145 523.0948 358.2228 Z M 522.1234 309.3024 524.6908 313.1189 519.2784 309.7188 518.0293 310.3433 516.8497 308.5391 519.6947 307.8452 522.1234 309.3024 Z M 401.7307 219.5804 404.09 220.6212 416.9272 219.4416 436.426 210.5596 438.7159 209.7963 439.7567 209.6575 445.0304 209.5187 445.308 211.5311 443.365 214.0985 443.5038 218.8865 450.5123 229.2951 453.7042 230.9604 457.3126 243.3814 464.8761 248.9326 467.166 254.4145 470.7743 257.7452 471.954 261.4923 478.4767 268.4314 478.9624 270.4437 483.9585 273.9826 484.3055 276.1337 489.8567 278.146 496.2407 285.5708 498.5306 292.1629 492.7018 288.8322 491.8691 290.2894 494.7141 294.7304 496.657 294.1753 495.5468 297.4366 498.6694 301.2531 496.7264 299.102 496.7958 300.4898 494.9916 299.3796 493.3263 301.3225 497.2815 305.9717 496.9346 308.1922 501.1674 310.6902 504.7063 320.2661 513.0332 326.3031 513.172 334.0055 516.8497 337.822 516.9191 340.5976 522.4703 347.8836 522.5397 351.5613 520.458 350.8674 519.8335 352.047 519.6947 363.2189 523.8581 365.7864 543.2181 403.6042 555.5002 420.7437 560.7045 430.389 563.6883 439.1322 582.285 471.5376 583.1177 477.1583 586.726 480.2808 592.6936 492.0079 591.9303 496.7264 594.2896 497.5591 597.3428 502.9022 606.5717 509.98 608.8616 516.017 612.8169 520.7356 613.7883 520.5274 613.3026 518.7232 618.3681 522.6091 619.409 526.2174 627.1807 528.1604 630.5115 533.1565 628.0134 531.3523 624.2663 532.8095 619.2008 531.8381 614.2047 528.993 612.6087 532.7401 612.3311 540.3037 614.4823 542.8712 613.7883 559.2473 617.3273 565.6313 619.2702 576.9419 624.1969 585.5464 625.6541 592.2773 630.9972 598.1061 628.4992 594.359 630.4421 594.9141 632.3156 600.4654 638.422 606.3636 658.4759 611.9842 662.3618 616.1476 663.8884 620.8662 670.758 624.7521 671.5907 629.1237 678.9461 632.6626 688.1057 640.3649 692.1303 640.5037 694.3508 643.9039 699 646.4019 698.5143 650.8429 616.4946 653.6879 534.6137 655.7003 456.1329 656.9493 420.1886 657.2963 402.2164 657.435 390.2119 657.435 384.2443 657.5044 382.6483 657.5044 382.7177 657.2269 384.383 654.0349 385.7015 652.5083 387.0199 651.4674 400.3429 644.9447 403.9512 640.5037 404.7145 640.1568 407.4901 640.018 408.184 639.8792 408.8779 639.6017 411.8617 637.4505 412.6944 636.6179 413.6659 635.2994 414.6373 633.6341 418.3844 623.0173 419.0089 621.6295 419.4253 621.005 419.9804 620.5192 420.6049 620.3111 421.2294 620.3805 421.9234 620.658 422.5479 621.0744 425.2541 623.2255 428.2379 626.4174 428.8624 626.8338 430.2502 627.4583 431.7768 627.944 432.5401 628.0828 435.8015 628.0828 438.5771 627.5971 441.2139 626.7644 442.3242 626.1399 443.365 625.446 454.8145 614.5516 456.2717 612.5393 457.5901 609.278 457.2432 603.8655 460.5739 598.3836 461.7536 598.3836 462.4475 598.8694 463.072 599.4245 465.7088 602.1307 467.0966 603.1716 467.7211 603.4492 469.5253 603.7267 474.3133 602.8246 477.1583 603.3798 487.0811 611.7066 488.3302 612.1924 488.8853 612.1924 489.371 611.8454 489.5792 611.1515 489.4404 609.5555 486.526 600.7429 484.3055 598.5224 483.5422 597.1346 483.0565 596.5101 482.432 596.0244 474.3133 592.0691 473.1336 590.0568 475.0072 587.2811 476.1174 584.5055 476.4644 583.7422 477.0195 583.1177 478.8236 581.6605 479.1706 581.1054 479.5175 580.4809 481.4605 575.0684 481.8768 573.5418 482.0156 572.8479 481.9462 571.9458 481.6687 570.9744 478.9624 566.0476 477.5746 560.2188 477.5052 558.6228 477.644 557.582 479.1012 553.9737 478.4073 546.6876 477.7134 545.3692 477.0889 544.6059 474.1051 542.3854 473.1336 541.1364 472.6479 540.0261 471.0519 535.7933 469.6641 533.2953 469.109 531.8381 467.3048 521.1519 467.7905 516.8497 468.9008 511.8536 474.8684 503.1103 476.1174 497.9061 469.4559 484.1667 466.9578 466.1946 462.725 460.0882 451.0674 451.4144 449.1939 449.749 447.9448 447.7367 447.2509 446.0019 446.2101 441.2833 446.2101 437.0505 446.8346 434.9688 447.4591 433.7198 448.2918 432.4707 451.9695 428.2379 457.3819 423.2418 458.631 421.7846 459.6718 420.3274 462.5169 414.221 463.2801 407.1432 462.5862 402.5634 461.7536 399.649 461.129 398.1918 460.2964 396.804 458.0065 393.8202 455.9941 392.016 454.6063 391.1139 453.4961 390.4894 449.0551 389.3098 440.867 389.8649 427.8216 395.8325 419.0783 384.1055 408.8085 379.5257 400.551 362.6638 398.053 360.3045 388.5465 353.7818 382.5095 341.2221 381.1911 339.071 372.8642 331.3686 369.8804 325.5398 366.966 323.4581 357.7371 319.9192 352.8103 317.0742 352.2552 316.5884 351.7695 315.9639 351.3531 315.27 351.0062 314.4373 350.451 312.7026 350.3123 311.8005 350.2429 309.9963 350.451 304.4451 351.1449 294.0365 348.5775 280.3665 344.4141 271.2764 344.3447 270.5131 344.0671 267.8068 343.4426 264.3373 343.5814 263.1577 343.9283 261.7699 345.5243 257.6064 348.5775 252.2633 348.8551 250.9449 350.5898 235.6096 350.7286 234.3606 351.0756 232.487 352.1164 229.5726 353.2961 227.4215 357.0431 222.4948 360.2351 217.2905 361.7617 215.2782 364.1904 212.6413 364.9537 211.4617 365.6476 210.0739 367.6599 205.0084 367.7293 204.1063 367.5211 201.6082 367.7293 198.9714 373.3499 205.3553 378.693 212.0862 380.289 213.0577 381.3299 213.5434 401.7307 219.5804 Z" id="EG.BA" fill="#cee3f5" stroke="#6e6e6e" stroke-width="0.4">
      <desc>
        <labelrank>6</labelrank>
        <code_hasc>EG.BA</code_hasc>
        <name>Al Bahr al Ahmar</name>
        <admin>Egypt</admin>
        <type_en>Governorate</type_en>
        <region/>
        <woe_id>2345224</woe_id>
        <longitude>33</longitude>
        <woe_name>Al Bahr al Ahmar</woe_name>
        <fips>EG02</fips>
        <woe_label>Al Bahr al Ahmar, EG, Egypt</woe_label>
        <latitude>25</latitude>
        <iso_a2>EG</iso_a2>
        <postal>BA</postal>
        <type>Muhafazah</type>
        <id>EG.BA</id>
      </desc>
    </path>
    <path d="M 562.023 282.5176 560.4964 283.2116 558.0677 281.8931 559.1086 280.089 561.8842 280.089 562.023 282.5176 Z M 551.3368 277.9379 549.1163 279.3257 553.141 279.3951 555.7778 282.587 550.0184 282.1013 548.2836 278.0073 549.8102 276.6888 551.3368 277.9379 Z M 455.2308 159.5575 470.2886 158.586 505.4002 163.9985 519.6253 171.1457 544.259 180.5829 567.366 183.4279 559.5249 194.9467 559.3167 202.0246 556.4717 207.9228 557.3044 215.2782 554.8757 217.915 554.4594 231.3074 548.4918 243.9365 549.2551 245.81 546.3407 249.2102 543.2875 257.8146 543.6345 263.2271 546.0631 266.8354 544.6753 272.7336 545.2998 279.3951 539.6098 283.4197 539.1241 286.7505 536.8342 287.028 535.7933 290.6363 533.2953 291.3303 533.7116 292.6487 535.7239 292.6487 535.377 295.2161 531.9074 291.6772 524.3439 290.0812 520.458 285.6402 515.7394 282.3095 514.3516 282.7952 507.7595 277.3134 507.7595 275.7174 505.0533 274.1214 496.3101 260.382 488.9547 256.2186 478.893 245.1855 479.1706 243.1732 477.7828 243.8671 478.8236 244.7692 477.297 243.6589 475.2847 237.0668 477.0195 231.4462 473.9663 226.8664 473.6193 216.4578 468.4151 212.6413 461.6148 204.1757 457.5901 201.6776 453.7042 194.3916 453.6349 190.9915 449.4714 188.424 449.0551 186.6892 448.0142 188.424 448.4306 183.1503 446.0019 179.4032 446.557 171.7009 444.1977 167.468 444.2671 167.468 455.2308 159.5575 Z" id="EG.JS" fill="#cee3f5" stroke="#6e6e6e" stroke-width="0.4">
      <desc>
        <labelrank>6</labelrank>
        <code_hasc>EG.JS</code_hasc>
        <name>Janub Sina'</name>
        <admin>Egypt</admin>
        <type_en>Governorate</type_en>
        <region/>
        <woe_id>2345247</woe_id>
        <longitude>33</longitude>
        <woe_name>Janub Sina'</woe_name>
        <fips>EG26</fips>
        <woe_label>Janub Sina', EG, Egypt</woe_label>
        <latitude>28</latitude>
        <iso_a2>EG</iso_a2>
        <postal>JS</postal>
        <type>Muhafazah</type>
        <id>EG.JS</id>
      </desc>
    </path>
    <path d="M 485.2076 79.8277 487.5669 81.7013 476.3256 77.2603 485.2076 79.8277 Z M 467.3742 75.9418 475.9092 76.8439 467.2354 76.7745 458.284 81.9094 467.3742 75.9418 Z M 567.366 183.4279 544.259 180.5829 519.6253 171.1457 505.4002 163.9985 470.2886 158.586 455.2308 159.5575 454.8145 158.933 454.3288 158.1003 453.843 156.7819 451.8307 138.1852 448.8469 130.7604 443.712 122.8499 443.5732 122.6417 443.365 121.7396 443.1569 120.4906 443.0181 114.87 440.4506 93.1507 440.2425 87.6689 440.2425 87.5995 440.3119 87.6689 442.7405 87.6689 444.961 87.3913 448.9857 86.281 457.8677 81.4237 453.1491 84.8932 443.8508 88.1546 449.4714 88.5015 456.0635 84.8932 457.3819 86.0035 458.7004 85.3096 457.1738 84.8932 457.8677 84.1993 460.1576 85.7259 459.8106 87.0443 462.4475 87.5995 462.3781 85.7259 464.9455 84.7544 465.2925 82.6033 463.4883 84.7544 459.3943 84.4769 467.6518 78.6481 468.5538 79.0644 467.0966 79.5502 470.358 83.5748 468.2763 84.2687 469.7335 86.0729 469.109 88.1546 473.8969 87.1831 472.4397 86.3504 476.048 84.5463 478.3379 85.7953 479.0318 84.4769 476.8113 84.1299 482.7095 83.5054 482.2238 82.3952 483.7504 80.938 488.8159 82.5339 496.8652 83.0197 518.2375 75.4561 526.4256 69.8355 542.8018 111.1229 546.2019 121.6009 545.855 126.1806 549.8796 130.2053 557.8595 150.8143 567.366 183.4279 Z" id="EG.SS" fill="#cee3f5" stroke="#6e6e6e" stroke-width="0.4">
      <desc>
        <labelrank>6</labelrank>
        <code_hasc>EG.SS</code_hasc>
        <name>Shamal Sina'</name>
        <admin>Egypt</admin>
        <type_en>Governorate</type_en>
        <region/>
        <woe_id>2345248</woe_id>
        <longitude>33</longitude>
        <woe_name>Shamal Sina'</woe_name>
        <fips>EG32</fips>
        <woe_label>Shamal Sina', EG, Egypt</woe_label>
        <latitude>30</latitude>
        <iso_a2>EG</iso_a2>
        <postal>SS</postal>
        <type>Muhafazah</type>
        <id>EG.SS</id>
      </desc>
    </path>
    <path d="M 447.5285 422.5479 448.6387 423.103 447.6673 425.4623 446.1407 425.2541 447.5285 422.5479 Z" id="EG.UQ" fill="#cee3f5" stroke="#6e6e6e" stroke-width="0.4">
      <desc>
        <labelrank>9</labelrank>
        <code_hasc>EG.UQ</code_hasc>
        <name>Luxor</name>
        <admin>Egypt</admin>
        <type_en>Governorate</type_en>
        <region/>
        <woe_id>56120896</woe_id>
        <longitude>32</longitude>
        <woe_name/>
        <fips>EG28</fips>
        <woe_label/>
        <latitude>25</latitude>
        <iso_a2>EG</iso_a2>
        <postal>QN</postal>
        <type>Muhafazah</type>
        <id>EG.UQ</id>
      </desc>
    </path>
  </g>
</svg>