<?xml version="1.0" encoding="UTF-8"?>
<svg xmlns="http://www.w3.org/2000/svg" width="700" height="700">
  <g id="australia">
    <path d="M 625.8358 518.5543 627.3925 517.5165 628.1709 518.7273 625.8358 518.5543 Z" id="AU.JB" fill="#cee3f5" stroke="#6e6e6e" stroke-width="0.4">
      <desc>
        <labelrank>2</labelrank>
        <code_hasc>AU.JB</code_hasc>
        <name>Jervis Bay Territory</name>
        <admin>Australia</admin>
        <type_en>Territory</type_en>
        <region/>
        <woe_id>1102841</woe_id>
        <longitude>150</longitude>
        <woe_name>Jervis Bay</woe_name>
        <fips/>
        <woe_label/>
        <latitude>-35</latitude>
        <iso_a2>AU</iso_a2>
        <postal>JB</postal>
        <type>Territory</type>
        <id>AU.JB</id>
      </desc>
    </path>
    <path d="M 419.9211 126.3563 421.5642 127.5671 421.2183 131.2858 418.7103 128.7778 419.9211 126.3563 Z M 412.4836 126.5293 410.581 126.7887 411.0999 125.0591 412.5701 124.7132 412.4836 126.5293 Z M 396.9167 112.2597 395.4465 112.5191 396.2249 111.1354 396.9167 112.2597 Z M 407.1217 89.9472 406.2568 92.0228 405.1326 90.3796 403.9218 91.4174 405.8244 88.3905 407.1217 89.9472 Z M 415.597 89.0824 415.6834 92.1093 417.4996 92.1093 417.8455 90.3796 419.4022 91.5039 416.3753 94.1849 415.251 98.6819 420.267 98.2495 419.6616 100.7575 407.727 99.5468 409.9756 97.4712 409.5432 91.5904 413.089 91.5039 412.743 88.9959 415.597 89.0824 Z M 405.6515 84.4123 404.5272 86.4014 403.6624 82.5097 405.6515 84.4123 Z M 335.9466 48.6086 336.8979 49.8194 334.6494 49.1275 335.9466 48.6086 Z M 411.3593 46.533 405.8244 49.6464 411.7917 45.3223 411.3593 46.533 Z M 293.2243 46.0141 294.5215 50.5112 298.0673 52.5003 286.6516 52.9327 287.1705 50.1653 289.6785 49.7329 288.5542 46.533 290.8892 43.5061 292.273 42.9872 293.2243 46.0141 Z M 295.4728 42.1224 299.1915 45.1493 303.5157 42.5548 305.5913 44.5439 308.0128 41.2576 309.3965 44.198 310.3478 40.0468 310.9532 41.7765 313.3747 41.1711 315.6232 45.3223 314.4125 48.0897 312.6828 47.6573 304.6399 54.8353 295.4728 49.4734 292.9648 40.0468 295.4728 42.1224 Z M 438.2554 145.296 435.315 236.362 432.461 326.5633 354.8863 325.439 277.398 327.1686 275.3224 274.0684 273.1603 220.8817 270.9983 167.4355 268.9227 113.4704 272.4685 115.546 273.2468 120.4755 273.1603 112.6921 277.9169 114.4218 281.8951 119.4377 281.1167 112.3462 287.4299 111.5678 287.3435 109.7517 283.9706 111.9138 281.4626 110.7895 279.8195 108.1085 283.6247 106.3789 278.7817 106.8113 275.5818 102.7466 277.398 97.2117 279.3871 97.9901 279.733 96.0875 282.241 95.9145 284.8355 84.9312 286.3921 86.7474 293.2243 82.9421 289.0731 79.4828 289.0731 75.0722 292.7054 74.2939 293.3107 69.7103 296.1647 68.1536 297.7213 70.3157 299.7969 70.0563 297.2025 68.6725 297.4619 64.2619 301.4401 64.7808 301.6131 67.7212 303.7751 68.759 305.0724 68.4996 303.1697 66.3375 305.0724 66.6834 302.2184 64.089 306.5426 63.4836 305.9372 58.9865 310.5208 60.7161 311.1261 56.9109 314.153 61.6675 322.8877 60.0243 326.0011 61.7539 329.7199 58.727 332.2279 59.9378 332.4008 63.1377 333.3521 58.6406 339.4924 58.2082 337.0709 56.9109 336.206 51.376 338.1951 48.7816 332.6603 44.6304 326.2606 46.2736 324.0985 42.9872 320.0338 42.2089 322.1959 39.4415 323.4066 40.9981 324.0985 38.5766 326.7795 40.1333 328.5956 44.1115 327.3848 38.6631 330.0658 41.2576 331.1901 38.3172 331.8819 41.517 333.7845 40.5657 337.7627 45.9276 342.0004 44.1115 342.3463 42.3819 347.3623 49.6464 354.4538 50.5112 354.4538 52.8462 361.8913 49.9923 360.5076 52.5868 366.2155 53.1057 367.1668 56.9974 369.0694 54.8353 375.0367 56.738 378.4095 54.4894 380.2256 58.0352 387.0577 61.4945 386.1929 60.0243 389.3928 60.4567 387.2307 59.3324 389.9981 57.3433 394.3223 57.6028 396.7438 56.0461 394.1493 56.738 394.4087 54.9218 397.9545 54.1435 400.4625 50.9436 396.8303 55.7002 400.722 55.0948 395.4465 58.9 397.0032 61.8404 403.3164 56.9974 400.9814 59.9378 403.4029 60.3702 402.6246 64.6943 407.0352 64.5214 409.3702 60.6297 405.6515 59.1595 413.2619 53.7975 411.4458 55.6137 415.0781 61.1486 416.6347 61.235 415.3375 60.0243 416.9807 59.2459 421.2183 62.9647 416.9807 66.6834 417.6725 65.0403 416.4618 65.3862 413.7808 72.3048 412.8295 70.5751 411.0999 71.094 414.6456 75.5911 411.5323 75.0722 412.8295 76.7154 410.9269 80.3477 408.073 81.5584 409.3702 79.9153 408.3324 76.456 404.9596 80.6071 404.7866 77.8397 402.884 81.5584 402.1057 79.6558 399.6842 81.7314 401.2409 83.7205 399.0788 84.3259 399.5977 89.3418 403.23 88.3905 399.8571 98.7684 389.4792 108.8869 390.9494 112.6921 405.4785 122.4646 406.3433 125.405 412.3106 128.4319 414.4727 132.929 419.7481 131.6318 426.4937 136.8207 433.6718 139.5017 438.2554 145.296 Z M 417.4996 36.674 416.5483 40.3928 411.7917 45.0628 417.4996 36.674 Z M 335.9466 36.674 336.206 42.7278 333.6116 36.5011 336.1196 35.2038 335.9466 36.674 Z" id="AU.NT" fill="#cee3f5" stroke="#6e6e6e" stroke-width="0.4">
      <desc>
        <labelrank>2</labelrank>
        <code_hasc>AU.NT</code_hasc>
        <name>Northern Territory</name>
        <admin>Australia</admin>
        <type_en>Territory</type_en>
        <region/>
        <woe_id>2344701</woe_id>
        <longitude>133</longitude>
        <woe_name>Northern Territory</woe_name>
        <fips>AS03</fips>
        <woe_label>Northern Territory, AU, Australia</woe_label>
        <latitude>-20</latitude>
        <iso_a2>AU</iso_a2>
        <postal>NT</postal>
        <type>Territory</type>
        <id>AU.NT</id>
      </desc>
    </path>
    <path d="M 1 345.9353 7.3132 357.6105 1.7783 351.4702 1 345.9353 Z M 29.8851 251.583 27.8096 252.1883 30.0581 248.2101 29.8851 251.583 Z M 185.5536 125.8374 187.4562 128.4319 185.2941 129.4697 186.159 128.086 183.7375 127.9995 185.5536 125.8374 Z M 192.1263 119.6972 192.1263 120.9079 190.829 119.8702 192.1263 119.6972 Z M 196.7098 109.9247 195.5856 113.211 194.9802 110.3571 196.7098 109.9247 Z M 268.9227 113.4704 270.9983 167.4355 273.1603 220.8817 275.3224 274.0684 277.398 327.1686 279.56 381.3931 281.7221 435.7041 254.3071 448.1576 233.0325 449.6278 215.3036 461.9948 205.3581 466.0595 202.1582 476.5239 195.845 484.1343 193.51 483.4424 190.0507 486.0369 187.7156 483.356 180.5376 485.9504 177.0783 485.3451 175.7811 487.5936 173.1866 487.7666 171.3705 484.1343 168.1706 485.864 160.6466 485.0856 146.0311 489.6692 139.8908 489.3233 133.2317 494.3392 132.0209 497.7985 133.5776 499.0093 131.1561 499.0093 128.7346 502.3821 122.3349 501.6038 120.9512 505.3225 116.8 507.917 116.4541 511.0304 112.8218 512.4141 113.6002 513.7113 107.8923 514.6626 109.8814 516.1328 105.5573 515.268 104.779 517.1706 97.6874 515.5274 89.1256 517.603 85.061 516.2193 86.7041 515.7869 84.715 514.4032 84.6285 515.6139 78.2288 514.9221 71.3102 508.3494 65.8619 506.3603 63.3539 507.917 61.2783 505.9279 58.8568 492.2637 62.489 494.0798 65.17 493.4744 69.5806 485.7775 66.1213 474.4483 67.3321 471.4214 68.2834 476.4374 65.6024 457.3247 51.3328 435.2717 47.96 426.2775 47.0087 415.8132 43.6359 409.154 38.9658 404.6569 36.8037 398.8626 29.4527 392.0305 24.5232 377.5014 6.4484 358.0429 8.7834 359.2536 8.524 354.6701 11.032 361.6751 9.5618 354.843 13.1075 363.2318 13.4535 359.4266 14.6642 364.6155 15.2696 362.1075 16.7398 365.9993 19.6802 362.9724 19.4208 359.5996 13.367 355.6214 9.6482 349.3081 10.5996 344.8975 15.875 351.2972 16.3074 357.2645 18.1235 355.5349 17.6911 352.1621 21.8423 360.1184 23.399 360.9833 25.3016 358.1294 24.2638 349.1352 11.9833 336.4223 4.3728 321.5473 5.3241 312.0342 8.6105 305.548 7.6592 295.516 3.7674 289.2893 8.351 274.2414 10.686 273.2036 10.0807 280.4681 12.1562 282.8896 11.8968 286.5219 15.6155 285.7435 16.9993 276.0575 18.037 276.6629 19.1613 272.5982 32.912 263.9499 43.8088 249.6803 48.3059 248.3831 53.6678 242.2428 55.2245 245.4427 60.327 242.5023 64.2187 244.5779 70.8778 242.3293 77.537 235.5837 89.1256 232.7298 93.6227 226.1571 102.7899 226.9354 105.1249 224.6869 116.3676 221.5735 129.4265 213.5307 135.6532 204.1906 136.691 197.1855 139.4584 195.8018 139.8044 191.9965 149.231 183.8672 148.7121 181.8781 145.5122 182.1375 143.9555 169.9435 145.8581 164.841 149.231 161.2088 151.566 161.9871 151.0471 158.3549 155.4577 157.9224 154.074 154.4631 158.2251 149.7931 158.1386 154.7226 161.079 155.6739 161.6844 159.998 170.7651 172.365 170.1597 160.6899 176.3864 164.6681 173.8785 160.6899 175.1757 161.0358 176.5594 157.1441 173.619 158.5278 167.9976 154.3767 169.7273 152.2146 166.1815 151.4363 170.3327 151.7822 167.5652 149.7066 171.4569 149.7931 169.8138 148.6688 171.284 147.8905 167.9976 146.8527 168.2571 145.296 172.1488 144.5177 173.2731 145.7284 171.5434 146.4203 174.0514 147.5445 174.2244 149.5336 174.6568 147.7175 176.5594 148.3229 174.8298 145.3825 180.8835 148.3229 193.5965 147.5445 184.1699 146.8527 184.3428 141.4908 186.159 143.7393 187.4562 142.4421 187.3697 138.2044 189.5318 136.2153 187.2832 136.3883 185.2077 140.28 182.4402 131.2858 187.1968 130.5075 187.2832 128.7778 188.1481 129.9021 187.4562 125.578 197.6611 130.0751 195.4126 128.259 196.6233 126.0969 191.6938 126.1834 194.7207 123.3295 191.3479 125.3185 190.6561 123.243 194.0289 122.2052 193.4235 119.6972 194.8072 119.5242 196.7963 123.1565 196.6233 120.2161 199.0449 122.5511 201.8123 122.3781 200.4286 120.735 201.5528 119.8702 196.8828 118.9188 199.1313 117.6216 195.672 114.9407 199.3043 110.0112 199.3908 112.1732 200.1691 110.7895 201.2934 112.6921 202.0717 109.6652 203.9744 110.6165 203.8879 104.4763 206.3094 105.0817 205.0121 112.3462 206.2229 107.6761 208.8174 108.6274 210.2011 112.0867 210.2876 109.6652 212.3632 109.5787 211.1524 106.9843 214.0928 101.9683 211.0659 100.9305 210.72 99.3738 212.9685 99.8927 211.3254 97.9901 213.8334 97.8171 213.228 99.7197 215.2171 98.4225 214.3522 101.017 216.8602 103.6114 217.3791 100.2386 221.0114 97.4712 219.8006 100.4981 222.8275 103.2655 224.5572 98.336 227.3246 97.5577 225.0761 94.6173 226.8922 95.0497 227.2381 93.493 230.265 94.0119 232.5136 97.6442 233.1189 95.9145 233.8108 97.2117 238.0484 96.7793 248.6858 108.6274 254.2207 111.1354 252.1451 113.9029 251.0208 126.4428 252.664 120.3026 255.9503 124.4537 253.8747 117.7946 255.9503 114.7677 256.7287 117.2757 258.6313 117.2757 257.4205 112.5191 268.9227 113.4704 Z" id="AU.WA" fill="#cee3f5" stroke="#6e6e6e" stroke-width="0.4">
      <desc>
        <labelrank>2</labelrank>
        <code_hasc>AU.WA</code_hasc>
        <name>Western Australia</name>
        <admin>Australia</admin>
        <type_en>State</type_en>
        <region/>
        <woe_id>2344706</woe_id>
        <longitude>121</longitude>
        <woe_name>Western Australia</woe_name>
        <fips>AS08</fips>
        <woe_label>Western Australia, AU, Australia</woe_label>
        <latitude>-25</latitude>
        <iso_a2>AU</iso_a2>
        <postal>WA</postal>
        <type>State</type>
        <id>AU.WA</id>
      </desc>
    </path>
    <path d="M 605.5989 519.3327 602.2261 520.284 600.4965 528.4133 598.075 528.7593 595.8264 523.8298 597.1237 517.776 602.572 514.7491 605.5989 519.3327 Z" id="AU.CT" fill="#cee3f5" stroke="#6e6e6e" stroke-width="0.4">
      <desc>
        <labelrank>9</labelrank>
        <code_hasc>AU.CT</code_hasc>
        <name>Australian Capital Territory</name>
        <admin>Australia</admin>
        <type_en>Territory</type_en>
        <region/>
        <woe_id>1100968</woe_id>
        <longitude>148</longitude>
        <woe_name>Canberra</woe_name>
        <fips>AS01</fips>
        <woe_label/>
        <latitude>-35</latitude>
        <iso_a2>AU</iso_a2>
        <postal>CT</postal>
        <type>Territory</type>
        <id>AU.CT</id>
      </desc>
    </path>
    <path d="M 627.3925 517.5165 625.8358 518.5543 619.4361 528.1539 617.8794 528.0674 618.3119 530.143 615.285 534.6401 615.6309 539.3101 609.5771 553.7527 611.9122 557.385 610.269 557.4714 610.442 558.5092 610.096 559.9794 610.269 561.6226 610.096 561.882 603.8693 557.7309 597.6425 553.4932 594.5292 551.4177 591.3293 549.3421 585.0161 545.1909 584.6702 544.9315 583.8054 544.7585 583.3729 544.672 583.2 544.4991 584.7567 542.4235 585.0161 541.3857 581.5568 529.1052 578.7029 527.462 576.1084 528.3268 575.849 528.1539 575.7625 527.808 575.5895 527.5485 575.3301 527.2891 575.0706 527.2026 572.5626 529.5376 572.3032 529.1917 572.0437 529.0187 570.1411 529.0187 569.4493 528.4133 568.7574 529.0187 568.6709 529.1917 568.6709 529.2782 568.4115 529.6241 568.498 530.8348 568.8439 531.4402 570.0546 532.0456 568.5844 532.305 567.7196 530.9213 567.7196 530.2295 567.8926 529.6241 567.2872 529.1917 566.5089 529.7106 565.2981 528.9322 564.7792 529.1052 561.4929 526.7702 555.0067 527.2891 544.1099 521.9271 536.4994 521.9271 536.24 522.0136 535.8941 522.2731 535.8076 522.446 535.6346 523.5703 535.2022 524.1757 535.1157 524.5216 535.2022 524.8676 535.6346 525.6459 535.7211 525.9918 535.5481 526.3378 531.8294 526.7702 522.6622 515.3545 514.9653 510.1655 514.7923 509.7331 515.0518 509.3007 515.1383 508.5224 515.0518 508.1764 514.7923 507.917 514.5329 507.744 513.1492 507.3116 512.5438 506.7927 512.0249 506.0144 511.7655 505.236 511.679 498.9228 503.3767 494.4257 503.2037 494.5122 502.8578 494.6852 502.3389 494.7717 500.7822 498.231 499.312 497.7985 498.9661 497.3661 498.9661 496.8472 498.2742 495.2905 498.2742 494.5122 497.1499 493.3879 497.0634 493.1285 496.977 491.3988 496.977 490.9664 497.4958 489.3233 492.2204 484.7397 488.8476 484.8262 487.4639 484.1343 486.772 484.2208 484.0911 486.2099 479.3345 483.183 479.248 483.183 479.1616 483.183 478.8156 483.356 478.5562 483.356 478.0373 482.9236 476.2212 482.7506 475.9617 482.4911 475.5293 481.8858 478.2103 433.888 480.8912 385.8902 489.0206 386.4091 497.1499 386.8415 513.4951 387.9658 545.926 390.5603 578.4434 393.5872 594.6157 395.3168 602.745 396.2681 610.7879 397.2194 614.0742 397.5654 614.1607 397.5654 616.4957 394.9709 617.62 394.7114 617.9659 394.5385 622.2901 392.4629 623.6738 390.7332 637.338 391.5116 637.7704 391.771 638.3758 392.3764 639.1541 393.5007 639.5865 394.0196 640.2784 394.279 642.4405 394.625 643.1323 394.625 644.689 394.452 645.3809 394.5385 649.3591 396.96 649.4455 397.3924 649.2726 398.4302 649.3591 398.7761 649.6185 399.0356 650.9157 399.3815 652.9048 401.0247 652.9048 404.484 653.2508 405.0028 653.1643 405.6082 653.2508 405.8677 653.6832 405.9542 653.8562 405.9542 654.2021 405.8677 654.548 405.7812 656.3641 404.2245 656.3641 404.138 656.4506 403.6191 656.6236 403.2732 657.056 402.5813 657.229 402.3219 657.4019 402.2354 657.5749 402.2354 657.9208 402.2354 658.9586 401.976 660.2559 401.4571 661.6396 403.3597 665.0124 402.3219 665.7042 400.7652 666.0502 399.3815 666.0502 399.295 666.1367 399.2085 666.3096 398.9491 666.3961 398.7761 665.1854 395.4898 674.6119 391.5116 675.7362 392.9818 676.6875 392.3764 676.8605 392.4629 677.2064 392.8953 677.2929 393.0683 678.7631 393.9331 684.7304 394.7979 692.8597 392.5494 691.5625 405.7812 686.1141 412.8728 683.6061 423.0777 675.9092 439.4229 676.947 443.3146 672.8823 453.433 665.0124 463.1191 663.8016 470.643 657.9208 474.7077 655.4128 474.3618 657.229 476.005 650.6563 477.4752 645.8998 484.5667 643.9972 484.4802 642.9594 488.7179 639.846 488.3719 641.4027 490.1881 639.5865 496.5013 636.4732 497.1932 638.5488 498.058 630.4194 506.7927 632.0626 508.09 628.4303 512.8465 630.0735 515.9599 629.0357 517.5165 629.0357 515.7004 627.5655 515.7004 627.3925 517.5165 Z M 605.5989 519.3327 602.572 514.7491 597.1237 517.776 595.8264 523.8298 598.075 528.7593 600.4965 528.4133 602.2261 520.284 605.5989 519.3327 Z" id="AU.NS" fill="#cee3f5" stroke="#6e6e6e" stroke-width="0.4">
      <desc>
        <labelrank>2</labelrank>
        <code_hasc>AU.NS</code_hasc>
        <name>New South Wales</name>
        <admin>Australia</admin>
        <type_en>State</type_en>
        <region/>
        <woe_id>2344700</woe_id>
        <longitude>146</longitude>
        <woe_name>New South Wales</woe_name>
        <fips>AS02</fips>
        <woe_label>New South Wales, AU, Australia</woe_label>
        <latitude>-32</latitude>
        <iso_a2>AU</iso_a2>
        <postal>NS</postal>
        <type>State</type>
        <id>AU.NS</id>
      </desc>
    </path>
    <path d="M 420.6994 509.6466 420.267 512.76 423.5533 514.2302 425.9748 512.6735 428.3964 515.3545 420.6129 516.0463 417.8455 519.2462 414.2132 517.1706 406.1704 518.6408 403.3164 515.6139 404.4407 512.6735 420.6994 509.6466 Z M 475.5293 481.8858 470.7728 559.8065 466.4486 559.8065 462.1245 556.6931 452.6114 541.8181 451.7466 537.4075 454.9465 533.9482 453.2168 526.1648 449.2386 517.949 441.1093 510.252 449.1521 517.3436 452.4385 523.3109 449.5846 516.8247 443.0119 510.8574 444.9145 509.0413 445.9523 512.6735 447.5955 512.6735 445.8658 509.1277 448.1144 508.8683 448.2873 506.7062 445.4334 505.409 441.8876 507.1386 442.9254 509.2142 439.2067 508.4359 442.32 509.7331 438.4283 509.3872 434.969 511.3763 428.3099 510.6844 433.6718 505.4955 435.8338 494.6852 428.7423 481.8858 422.948 500.9984 408.4189 503.074 411.4458 496.3283 418.2779 496.7607 418.7103 482.1452 421.3048 476.7833 426.7532 471.9403 425.0235 465.1082 428.8288 461.7353 424.8506 450.8386 424.5911 459.7463 422.2561 459.2274 419.2292 462.6002 415.3375 472.3727 410.8404 472.8051 409.8026 474.1888 411.0999 474.1888 405.3055 476.9563 397.6951 485.518 397.0032 488.9773 394.4087 488.8908 392.1602 494.0798 395.6195 492.9555 394.6682 497.9715 391.8143 495.1176 389.4792 496.8472 384.0309 489.8422 381.1769 489.9286 382.8201 486.7288 385.3281 490.534 387.4901 490.2746 385.674 489.4097 383.6849 478.4265 377.0258 471.3349 374.9502 462.5137 372.9611 461.9948 373.653 463.8974 371.2314 462.1678 368.8964 463.1191 365.956 459.6598 366.9938 458.7949 364.6588 457.8436 364.5723 453.8654 367.0803 453.8654 367.0803 455.4221 367.9451 451.271 365.6966 448.6765 361.1995 450.3197 362.7562 447.4657 358.1726 442.1038 351.6864 444.1794 343.5571 439.1634 334.7358 440.8066 327.2984 435.0987 317.2664 430.5152 310.9532 433.1961 300.5753 432.7637 281.7221 435.7041 279.56 381.3931 277.398 327.1686 354.8863 325.439 432.461 326.5633 484.0911 328.8118 480.8912 385.8902 480.5453 391.8575 480.2858 397.9113 479.594 409.8459 478.2103 433.888 476.913 457.9301 476.2212 469.9512 475.8752 475.9185 475.5293 481.8858 Z" id="AU.SA" fill="#cee3f5" stroke="#6e6e6e" stroke-width="0.4">
      <desc>
        <labelrank>2</labelrank>
        <code_hasc>AU.SA</code_hasc>
        <name>South Australia</name>
        <admin>Australia</admin>
        <type_en>State</type_en>
        <region/>
        <woe_id>2344703</woe_id>
        <longitude>135</longitude>
        <woe_name>South Australia</woe_name>
        <fips>AS05</fips>
        <woe_label>South Australia, AU, Australia</woe_label>
        <latitude>-29</latitude>
        <iso_a2>AU</iso_a2>
        <postal>SA</postal>
        <type>State</type>
        <id>AU.SA</id>
      </desc>
    </path>
    <path d="M 537.1048 573.6437 533.559 573.5572 536.24 572.2599 537.1048 573.6437 Z M 537.7102 569.9249 539.6993 570.8762 536.9319 571.741 536.6724 569.406 537.7102 569.9249 Z M 470.7728 559.8065 475.5293 481.8858 475.9617 482.4911 476.2212 482.7506 478.5562 483.356 478.8156 483.356 478.9021 483.356 479.1616 483.183 479.248 483.183 479.3345 483.183 483.5722 485.2586 484.0911 486.2099 486.772 484.2208 487.4639 484.1343 488.8476 484.8262 492.2204 484.7397 497.4958 489.3233 496.977 490.9664 496.977 491.3988 497.0634 493.1285 497.1499 493.3879 498.1012 494.2528 498.2742 494.5122 499.312 497.7985 500.7822 498.231 502.3389 494.7717 502.8578 494.6852 503.2037 494.5122 503.3767 494.4257 511.679 498.9228 511.7655 505.236 512.5438 506.7927 513.1492 507.3116 514.5329 507.744 514.7923 507.917 515.0518 508.1764 515.1383 508.5224 515.0518 509.3007 514.9653 510.1655 522.6622 515.3545 531.8294 526.7702 534.2509 525.8189 535.2887 526.3378 535.5481 526.3378 535.7211 525.9918 535.6346 525.6459 535.1157 524.5216 535.2022 524.1757 535.6346 523.5703 535.8076 522.446 535.8941 522.2731 536.24 522.0136 536.4994 521.9271 544.1099 521.9271 555.0067 527.2891 561.4929 526.7702 564.7792 529.1052 565.2981 528.9322 566.5089 529.7106 567.8926 529.6241 567.7196 530.2295 567.7196 530.9213 568.5844 532.305 570.0546 532.0456 569.8817 531.7861 568.8439 531.4402 568.498 530.8348 568.4115 529.6241 568.6709 529.2782 568.6709 529.1917 568.7574 529.0187 569.4493 528.4133 570.1411 529.0187 572.0437 529.0187 572.3032 529.1917 572.5626 529.5376 575.0706 527.2026 575.3301 527.2891 575.5895 527.5485 576.1084 528.3268 578.7029 527.462 581.5568 529.1052 582.854 530.3159 585.0161 541.3857 584.7567 542.4235 583.2 544.4991 583.3729 544.672 583.8054 544.7585 584.6702 544.9315 585.0161 545.1909 591.3293 549.3421 594.5292 551.4177 597.6425 553.4932 603.8693 557.7309 607.0691 559.8065 610.096 561.882 608.7988 562.4874 606.9827 562.4009 606.1178 561.4496 605.08 564.8225 602.0532 566.2062 583.8054 564.8225 574.9841 566.9845 559.6767 579.0921 550.1637 578.7461 550.6826 582.6378 553.7959 580.9947 551.8933 587.3079 549.2124 581.6865 547.9151 580.5623 545.1477 582.0325 543.9369 576.8435 540.7371 577.1894 537.5372 574.0761 540.5641 571.3951 539.4398 568.2817 536.24 568.1953 535.5481 571.4816 531.051 572.9518 527.2458 569.1466 531.9159 569.752 534.2509 566.3791 531.9159 560.4983 522.9217 564.563 527.9377 565.6008 526.8999 568.1953 523.0947 568.1953 508.998 577.9678 493.8636 567.4169 488.8476 567.5899 482.7073 564.4765 479.3345 567.7629 476.913 566.898 476.7401 564.736 470.7728 559.8065 Z" id="AU.VI" fill="#cee3f5" stroke="#6e6e6e" stroke-width="0.4">
      <desc>
        <labelrank>2</labelrank>
        <code_hasc>AU.VI</code_hasc>
        <name>Victoria</name>
        <admin>Australia</admin>
        <type_en>State</type_en>
        <region/>
        <woe_id>2344705</woe_id>
        <longitude>144</longitude>
        <woe_name>Victoria</woe_name>
        <fips>AS07</fips>
        <woe_label>Victoria, AU, Australia</woe_label>
        <latitude>-37</latitude>
        <iso_a2>AU</iso_a2>
        <postal>VI</postal>
        <type>State</type>
        <id>AU.VI</id>
      </desc>
    </path>
    <path d="M 693.0327 376.8096 692.7733 371.1882 694.4164 370.4963 693.0327 376.8096 Z M 698.3081 327.0821 699 332.4441 691.2166 346.4542 690.0058 342.1301 692.8597 337.633 692.2544 335.298 696.4055 332.3576 695.4542 328.2064 698.3081 327.0821 Z M 662.8503 297.0727 666.2231 298.2835 666.1367 303.7319 661.7261 297.6781 662.8503 297.0727 Z M 657.4019 274.0684 655.8452 274.8467 656.1047 272.4252 657.4019 274.0684 Z M 635.2624 232.2974 633.1004 232.2974 634.4841 229.7894 635.2624 232.2974 Z M 594.8751 198.0503 593.6644 198.3962 594.0103 196.926 594.8751 198.0503 Z M 588.5619 187.4994 590.2915 191.3047 589.0808 192.7749 585.7944 188.1048 588.5619 187.4994 Z M 467.054 157.1441 463.9407 157.0576 465.7568 154.8956 467.054 157.1441 Z M 469.9944 144.6906 470.0809 146.1608 467.227 145.2095 465.0649 148.6688 461.1732 149.6201 460.1354 148.4094 459.4436 150.2255 459.876 147.5445 462.2975 144.7771 469.9944 144.6906 Z M 480.8912 385.8902 484.0911 328.8118 432.461 326.5633 435.315 236.362 438.2554 145.296 443.6173 149.3607 456.7626 152.82 459.4436 155.5874 460.7408 161.2088 474.4915 169.2516 483.9181 168.3868 490.4043 164.9275 492.7393 156.8846 499.7444 147.1121 502.7713 138.8963 503.4631 130.9399 508.2197 120.389 506.3171 108.368 508.2197 101.2764 505.9711 96.2604 511.0736 84.4988 509.2575 79.2234 514.014 73.2561 516.1761 78.0991 515.7437 75.1587 517.7327 74.3804 514.2734 72.9967 517.2139 71.8724 513.841 71.5265 511.9384 69.8833 512.9762 69.0185 509.9493 70.4887 512.7168 64.6079 514.5329 64.7808 515.2248 60.2837 516.8679 59.4189 516.7814 62.3593 519.03 61.235 517.5598 58.2946 521.8839 47.4843 522.7487 39.8739 530.8781 35.2903 532.0888 36.5875 529.5808 40.3063 531.397 38.7496 532.6942 41.6035 534.2509 41.1711 536.24 49.3869 535.3752 58.2946 542.6397 61.408 539.2669 64.6943 538.8345 68.2401 542.1208 69.7103 545.3207 74.2939 543.5045 79.4828 547.0503 78.791 547.0503 92.3687 545.4936 96.6929 549.2988 109.7517 552.1528 112.0867 557.4282 107.4167 559.3308 108.8004 563.0496 106.1194 565.99 114.0758 570.1411 115.6325 572.2167 119.5242 577.9245 122.7241 575.503 126.8752 577.4921 128.6914 575.1571 131.9777 578.184 144.5177 576.3679 151.8687 581.6433 159.3062 582.3352 162.9384 585.8809 161.0358 584.1513 164.4951 588.043 175.9973 584.4107 187.413 587.5241 193.0343 589.8591 193.5532 587.9565 199.607 588.9078 201.769 598.6803 209.466 601.1018 207.2174 602.572 211.8875 607.8475 212.4929 607.6745 210.4173 611.7392 220.9682 613.5553 221.3141 613.2094 218.4602 614.5066 219.0655 615.9768 222.7843 622.1171 224.7734 621.6847 227.0219 623.8467 229.4434 624.8845 226.9354 627.0466 227.0219 627.5655 230.2218 630.5924 231.0866 632.7544 237.0539 628.6898 234.7189 627.652 237.1404 630.5059 241.4645 629.987 243.5401 634.0517 244.1455 633.3598 245.6157 636.7326 248.2101 636.8191 256.3395 640.1919 257.2043 638.7217 261.9608 640.2784 271.6469 642.0081 273.0306 641.0567 275.798 643.9972 273.9819 647.4564 279.5168 646.1592 272.6847 648.8402 270.0037 650.7428 274.8467 657.4884 280.2086 656.883 275.4521 658.8721 276.6629 659.3045 275.5386 660.4288 277.8736 658.7857 279.4303 659.564 280.814 660.5153 279.0844 661.0342 282.3707 658.8721 286.6084 659.9964 297.4187 658.7857 297.6781 662.072 299.2348 670.0284 310.4775 672.5364 310.9099 671.931 308.5749 674.266 309.6992 678.5901 321.2878 684.0385 326.2173 685.8547 333.0494 684.6439 333.5683 690.2653 336.5087 688.968 339.8816 690.6112 340.5734 688.7086 343.6868 690.1788 349.5676 691.3031 346.8866 693.3786 349.4811 690.0923 356.3132 690.1788 371.0152 686.8925 372.7449 692.0814 385.0254 690.7842 387.9658 691.9949 391.944 684.7304 394.7979 678.7631 393.9331 677.2929 393.0683 676.8605 392.4629 676.6875 392.3764 675.7362 392.9818 674.6119 391.5116 665.1854 395.4898 666.3961 398.7761 666.3096 398.9491 666.1367 399.2085 666.0502 399.295 666.0502 399.3815 665.0124 402.3219 661.6396 403.3597 660.2559 401.4571 657.4019 402.2354 657.3155 402.3219 657.229 402.3219 657.056 402.5813 656.6236 403.2732 656.3641 404.2245 656.2777 404.311 655.6723 404.6569 654.548 405.7812 654.2021 405.8677 653.8562 405.9542 653.6832 405.9542 653.2508 405.8677 653.1643 405.6082 653.2508 405.0028 652.9048 404.484 652.9048 401.0247 650.9157 399.3815 649.6185 399.0356 649.3591 398.7761 649.2726 398.4302 649.4455 397.3924 649.3591 396.96 649.0131 396.787 648.2348 396.6141 645.3809 394.5385 644.689 394.452 643.1323 394.625 642.4405 394.625 640.2784 394.279 639.5865 394.0196 639.1541 393.5007 638.3758 392.3764 637.7704 391.771 637.338 391.5116 623.6738 390.7332 622.2901 392.4629 619.6091 393.2412 617.9659 394.5385 617.62 394.7114 616.4957 394.9709 614.1607 397.5654 614.0742 397.5654 610.7879 397.2194 602.745 396.2681 594.6157 395.3168 578.4434 393.5872 545.926 390.5603 480.8912 385.8902 Z M 525.6027 35.3768 523.7 36.4146 522.4893 33.9931 524.3919 33.0418 525.6027 35.3768 Z M 526.8999 25.5178 524.5649 24.9989 526.554 24.0476 526.8999 25.5178 Z" id="AU.QL" fill="#cee3f5" stroke="#6e6e6e" stroke-width="0.4">
      <desc>
        <labelrank>2</labelrank>
        <code_hasc>AU.QL</code_hasc>
        <name>Queensland</name>
        <admin>Australia</admin>
        <type_en>State</type_en>
        <region/>
        <woe_id>2344702</woe_id>
        <longitude>144</longitude>
        <woe_name>Queensland</woe_name>
        <fips>AS04</fips>
        <woe_label>Queensland, AU, Australia</woe_label>
        <latitude>-23</latitude>
        <iso_a2>AU</iso_a2>
        <postal>QL</postal>
        <type>State</type>
        <id>AU.QL</id>
      </desc>
    </path>
    <path d="M 557.6876 671.9742 556.5634 674.4822 553.623 672.5796 554.9202 673.185 557.0823 669.5527 557.6876 671.9742 Z M 559.0714 669.2933 557.1688 667.6501 558.293 665.9205 559.0714 669.2933 Z M 571.0924 658.8289 568.498 660.5585 569.1898 657.7046 571.0924 658.8289 Z M 524.5649 615.9336 529.6673 618.2686 532.0888 616.539 532.7807 618.874 535.6346 619.3064 539.6128 623.2846 550.769 627.4358 553.3635 625.3602 556.2174 627.6087 554.4878 625.7061 557.6012 624.0629 563.9144 625.3602 567.3737 622.1603 570.1411 623.6305 572.4761 620.8631 575.5895 623.2846 577.0597 626.6574 574.2923 642.2243 574.8977 650.3536 573.168 650.959 574.3788 648.624 572.2167 647.1538 572.7356 644.9917 571.7843 647.1538 572.9086 647.9321 571.0924 647.8456 568.9304 655.8885 567.1142 656.3209 567.7196 659.8667 565.817 662.5476 568.0655 663.6719 567.2007 669.9851 565.7305 667.9096 564.1738 669.9851 562.2712 665.7475 563.3955 663.6719 566.0764 666.0069 565.644 663.2395 561.3199 661.5099 561.4064 664.2773 559.5038 665.488 560.3686 662.8071 557.8606 659.9532 558.639 662.9801 556.4769 669.2933 552.5852 666.4394 554.0554 669.9851 551.9798 670.5905 553.277 671.0229 551.2015 672.3202 552.4987 673.4444 550.942 675.9524 547.7422 675.9524 545.8395 672.5796 537.9696 673.4444 537.1913 669.6392 540.2182 670.9364 541.4289 669.1203 538.4021 668.9473 537.1048 666.1799 535.7211 667.996 528.716 653.6399 528.2836 645.4241 531.9159 652.0833 533.4726 648.7969 530.7051 644.6458 528.889 645.5106 528.9755 640.927 523.1811 629.4249 521.7109 621.0361 524.046 614.2039 524.5649 615.9336 Z M 528.8025 615.5012 526.208 615.9336 527.2458 614.031 528.8025 615.5012 Z M 576.1084 618.2686 574.7247 617.0579 577.0597 616.539 576.1084 618.2686 Z M 579.5677 614.2904 580.692 615.7606 578.357 616.9714 578.2705 615.5877 573.4275 614.7228 578.5299 612.9932 579.5677 614.2904 Z M 574.2923 600.8856 578.9623 606.334 577.4056 609.3609 578.6164 609.015 578.4434 611.6959 574.5517 611.35 572.8221 604.2585 571.0059 603.826 574.2923 600.8856 Z M 515.2248 601.9234 512.6303 603.1342 511.9384 599.329 514.5329 592.4104 516.4355 594.6589 515.2248 601.9234 Z" id="AU.TS" fill="#cee3f5" stroke="#6e6e6e" stroke-width="0.4">
      <desc>
        <labelrank>2</labelrank>
        <code_hasc>AU.TS</code_hasc>
        <name>Tasmania</name>
        <admin>Australia</admin>
        <type_en>State</type_en>
        <region/>
        <woe_id>2344704</woe_id>
        <longitude>146</longitude>
        <woe_name/>
        <fips>AS06</fips>
        <woe_label/>
        <latitude>-42</latitude>
        <iso_a2>AU</iso_a2>
        <postal>TS</postal>
        <type>State</type>
        <id>AU.TS</id>
      </desc>
    </path>
  </g>
</svg>