<?xml version="1.0" encoding="UTF-8"?>
<svg xmlns="http://www.w3.org/2000/svg" width="700" height="700">
  <g id="myanmar">
    <path d="M 400.2833 640.1941 400.3898 642.0052 398.6853 640.6203 400.2833 640.1941 Z M 408.0601 591.0827 408.3797 592.3611 407.3144 590.0174 408.0601 591.0827 Z" id="MM.5760" fill="#cee3f5" stroke="#6e6e6e" stroke-width="0.4">
      <desc>
        <labelrank>20</labelrank>
        <code_hasc>-99</code_hasc>
        <name/>
        <admin>Myanmar</admin>
        <type_en/>
        <region/>
        <woe_id>-99</woe_id>
        <longitude>97</longitude>
        <woe_name/>
        <fips/>
        <woe_label/>
        <latitude>9</latitude>
        <iso_a2>MM</iso_a2>
        <postal/>
        <type/>
        <id>MM.5760</id>
      </desc>
    </path>
    <path d="M 391.7607 336.1508 388.0321 342.5427 389.5235 353.196 384.0904 360.1206 386.3275 362.8904 387.2863 373.011 378.6572 376.3135 375.7808 376.3135 373.7567 374.0763 371.8391 369.2824 364.7015 368.3236 355.1136 346.2714 358.3095 341.9035 357.2442 338.388 358.7357 335.2985 365.8733 329.9719 367.0452 320.2775 370.4542 323.8996 374.9286 321.6624 376.9527 324.3257 379.4029 323.793 382.7054 331.6764 390.6954 333.2744 391.7607 336.1508 Z" id="MM.KH" fill="#cee3f5" stroke="#6e6e6e" stroke-width="0.4">
      <desc>
        <labelrank>7</labelrank>
        <code_hasc>MM.KH</code_hasc>
        <name>Kayah</name>
        <admin>Myanmar</admin>
        <type_en>State</type_en>
        <region/>
        <woe_id>2344815</woe_id>
        <longitude>97</longitude>
        <woe_name>Kayah</woe_name>
        <fips>BM06</fips>
        <woe_label>Kayan State, MM, Myanmar</woe_label>
        <latitude>19</latitude>
        <iso_a2>MM</iso_a2>
        <postal>KH</postal>
        <type>Pyine</type>
        <id>MM.KH</id>
      </desc>
    </path>
    <path d="M 355.1136 346.2714 364.7015 368.3236 371.8391 369.2824 373.7567 374.0763 377.8049 383.7708 379.2964 384.7295 380.8944 382.1728 383.1316 383.2381 382.4924 385.6883 387.2863 395.8089 384.41 401.029 387.3929 406.2491 395.5958 413.5998 406.5687 429.6862 410.83 431.0711 414.1325 436.1847 414.3455 439.4872 412.2149 442.4701 418.5003 452.1645 419.5656 458.7695 425.9576 451.8449 428.1947 455.254 424.7857 465.3745 420.2048 464.7353 417.9676 467.6117 415.4109 467.7183 416.6893 470.3816 414.8782 494.6709 412.7476 492.4338 409.8712 493.4991 409.7647 497.1212 406.2491 495.8428 403.9054 498.293 403.0531 498.6126 403.0531 498.1865 403.0531 497.4408 403.0531 497.0147 402.4139 495.5232 401.1355 494.5644 400.8159 494.2448 400.1767 493.286 399.0049 491.1554 398.2592 490.5162 397.0873 487.9594 396.1285 486.8941 395.9154 486.5745 395.5958 485.8288 395.4893 485.6157 395.3828 485.5092 395.3828 485.4026 394.9567 485.083 394.5305 484.87 393.8913 484.2308 393.7848 484.1242 393.7848 483.9112 393.7848 483.1654 393.5717 482.8458 390.9084 481.1413 389.63 473.2579 390.6954 467.9313 389.2039 464.7353 389.3104 464.4158 390.8019 464.0962 395.9154 463.67 396.1285 463.7766 396.9808 464.3092 398.3657 464.7353 400.3898 463.3504 400.6029 463.1374 400.6029 463.0308 400.4963 462.1786 399.431 461.1132 399.2179 460.9002 399.2179 460.6871 399.1114 460.5806 399.0049 460.4741 398.8984 460.4741 398.7918 460.3675 398.6853 460.261 398.6853 460.1545 398.7918 459.5153 398.6853 459.1957 398.5788 458.9826 398.4722 458.8761 398.3657 458.7695 398.0461 458.5565 397.9396 458.4499 397.1938 457.3846 396.235 457.065 395.9154 456.852 395.9154 456.7454 395.8089 456.6389 395.8089 456.3193 395.5958 455.0409 395.3828 453.869 395.2763 453.5495 395.1697 453.4429 394.9567 453.4429 394.6371 453.656 394.424 453.656 393.4652 453.5495 392.826 453.3364 390.6954 451.2057 390.4823 449.3947 388.0321 450.0339 386.7537 448.7555 386.4341 448.4359 386.0079 448.0098 385.0491 447.9032 384.9426 447.051 384.8361 446.8379 384.623 446.8379 384.3034 446.9444 384.0904 447.051 383.8773 447.051 383.5577 446.9444 383.3446 446.8379 383.2381 446.6248 382.7054 445.9857 382.5989 445.1334 381.8532 444.7073 381.214 443.9615 380.0421 442.4701 379.8291 442.1505 379.616 440.7656 379.7225 439.8068 379.0833 439.0611 379.0833 438.848 379.0833 438.6349 379.0833 437.9957 377.6984 436.2912 376.7396 431.3907 379.0833 427.3425 378.7637 420.7375 373.8632 408.3797 374.1828 407.2079 375.2482 406.1426 375.3547 405.823 375.1416 405.5034 375.1416 405.3968 375.0351 405.3968 374.9286 405.5034 374.822 405.7164 374.7155 405.823 374.0763 405.6099 373.7567 405.6099 373.6502 405.7164 368.5366 411.4692 366.619 404.8642 367.4713 401.3486 364.9145 395.8089 367.5778 388.8843 364.808 382.812 362.9969 383.5577 359.5879 378.9768 358.7357 370.5607 350 371.7326 348.5085 369.9216 346.9106 362.3578 349.4673 359.9075 343.1819 352.2372 344.4603 350.2131 339.6664 339.2402 346.4844 340.8382 349.3608 338.4945 354.5809 342.7558 355.1136 346.2714 Z" id="MM.KN" fill="#cee3f5" stroke="#6e6e6e" stroke-width="0.4">
      <desc>
        <labelrank>7</labelrank>
        <code_hasc>MM.KN</code_hasc>
        <name>Kayin</name>
        <admin>Myanmar</admin>
        <type_en>State</type_en>
        <region/>
        <woe_id>2344814</woe_id>
        <longitude>97</longitude>
        <woe_name>Kayin</woe_name>
        <fips>BM05</fips>
        <woe_label>Karan State, MM, Myanmar</woe_label>
        <latitude>17</latitude>
        <iso_a2>MM</iso_a2>
        <postal>KN</postal>
        <type>Pyine</type>
        <id>MM.KN</id>
      </desc>
    </path>
    <path d="M 339.4533 188.3904 338.9206 191.2668 334.8724 194.2497 333.594 201.2808 335.0855 205.0095 339.986 206.714 345.9518 205.2225 352.7698 210.0165 349.8935 214.2778 334.8724 217.0476 339.1337 226.529 338.7076 230.5772 342.3297 232.1752 344.2473 238.8868 352.9829 242.0827 358.0965 254.0143 351.598 255.5058 347.1236 259.9802 338.8141 262.0043 336.8965 264.8806 339.7729 275.7469 335.0855 276.3861 333.9136 279.7952 335.5116 282.9911 347.0171 287.7851 346.3779 290.8745 343.7146 291.0876 342.2231 294.0705 345.5256 297.5861 342.8623 303.765 345.3126 311.4353 341.9035 314.5247 341.9035 318.2534 339.1337 318.786 341.797 324.8584 344.6734 325.178 348.9347 330.7176 345.3126 334.2332 348.8281 335.7247 349.3608 338.4945 346.4844 340.8382 339.6664 339.2402 331.8895 338.601 329.4393 341.1578 323.793 338.601 318.3599 339.1337 316.2292 337.5357 315.8031 333.7005 319.2121 325.391 317.5076 320.0644 319.9579 314.3117 312.9267 291.6203 308.2393 290.4484 297.5861 294.9228 294.8162 298.7579 293.2183 295.775 294.177 287.572 284.9087 282.6716 285.2283 273.2967 290.768 271.9118 292.4725 269.4615 296.6273 269.4615 303.4454 264.0284 303.978 258.5952 305.3629 254.9731 310.37 253.6947 314.9509 258.1691 318.9991 258.2756 323.0473 249.9661 328.587 247.4093 327.9478 232.0687 326.2433 229.8315 327.3086 224.7179 324.3257 218.0064 326.5629 215.7692 327.2021 201.3874 325.178 192.8648 331.3568 183.703 332.7418 183.9161 333.1679 187.7512 339.4533 188.3904 Z" id="MM.MD" fill="#cee3f5" stroke="#6e6e6e" stroke-width="0.4">
      <desc>
        <labelrank>7</labelrank>
        <code_hasc>MM.MD</code_hasc>
        <name>Mandalay</name>
        <admin>Myanmar</admin>
        <type_en>Division</type_en>
        <region/>
        <woe_id>2344817</woe_id>
        <longitude>96</longitude>
        <woe_name>Mandalay</woe_name>
        <fips>BM08</fips>
        <woe_label>Mandalay, MM, Myanmar</woe_label>
        <latitude>20</latitude>
        <iso_a2>MM</iso_a2>
        <postal>MD</postal>
        <type>Yin</type>
        <id>MM.MD</id>
      </desc>
    </path>
    <path d="M 339.6664 339.2402 344.4603 350.2131 343.1819 352.2372 349.4673 359.9075 346.9106 362.3578 348.5085 369.9216 350 371.7326 358.7357 370.5607 359.5879 378.9768 362.9969 383.5577 364.808 382.812 367.5778 388.8843 364.9145 395.8089 367.4713 401.3486 366.619 404.8642 368.5366 411.4692 368.3236 412.0018 367.8974 412.3214 367.2582 412.7476 365.2341 413.7063 364.4884 413.8129 364.3819 413.8129 364.2753 413.7063 364.1688 413.2802 364.0623 413.0672 364.0623 412.5345 363.7427 411.7888 360.2271 409.1255 358.7357 408.8059 356.2854 409.232 355.9658 410.5104 355.8593 414.6651 353.6221 417.0089 356.8181 419.8852 354.5809 423.8269 356.7115 430.8581 353.6221 435.8651 349.6804 432.5626 338.1749 431.9234 334.7659 418.2872 326.5629 403.0531 315.1639 413.9194 313.3529 410.9365 312.6071 409.9777 305.4695 405.3968 306.3217 396.8742 304.7237 395.2763 304.9368 392.3999 303.3388 387.819 303.3388 386.9667 303.0192 386.3275 302.8062 385.3687 302.6996 384.9426 299.2906 381.5336 294.6032 375.7808 292.2595 373.8632 291.5137 372.3718 292.1529 368.4301 296.7338 364.7015 296.2012 359.801 300.569 354.0482 306.2152 350.8523 318.9991 350.3196 320.2775 345.206 318.3599 339.1337 323.793 338.601 329.4393 341.1578 331.8895 338.601 339.6664 339.2402 Z" id="MM.BA" fill="#cee3f5" stroke="#6e6e6e" stroke-width="0.4">
      <desc>
        <labelrank>7</labelrank>
        <code_hasc>MM.BA</code_hasc>
        <name>Bago</name>
        <admin>Myanmar</admin>
        <type_en>Division</type_en>
        <region/>
        <woe_id>2344818</woe_id>
        <longitude>96</longitude>
        <woe_name>Bago</woe_name>
        <fips>BM16</fips>
        <woe_label>Bago, MM, Myanmar</woe_label>
        <latitude>18</latitude>
        <iso_a2>MM</iso_a2>
        <postal>BA</postal>
        <type>Yin</type>
        <id>MM.BA</id>
      </desc>
    </path>
    <path d="M 353.6221 435.8651 352.6633 441.5113 345.8452 449.6078 339.4533 451.0992 334.1267 447.6902 331.996 441.1917 333.1679 438.3153 329.9719 440.0198 335.8312 452.4841 333.9136 455.1474 327.8413 456.7454 323.2604 453.869 321.1297 453.7625 320.384 453.5495 320.1709 453.4429 319.4252 453.0168 317.6142 450.6731 317.8272 450.1404 318.0403 449.9274 319.3187 448.649 319.7448 448.0098 319.6383 447.7967 319.6383 447.5836 319.4252 447.264 319.5317 445.6661 318.786 444.2811 320.4905 440.9786 319.3187 437.9957 320.384 433.841 313.5659 423.5073 313.0333 421.0571 313.0333 419.9918 313.3529 418.3938 314.7378 415.6239 315.1639 413.9194 326.5629 403.0531 334.7659 418.2872 338.1749 431.9234 349.6804 432.5626 353.6221 435.8651 Z" id="MM.YA" fill="#cee3f5" stroke="#6e6e6e" stroke-width="0.4">
      <desc>
        <labelrank>7</labelrank>
        <code_hasc>MM.YA</code_hasc>
        <name>Yangon</name>
        <admin>Myanmar</admin>
        <type_en>Division</type_en>
        <region/>
        <woe_id>2344823</woe_id>
        <longitude>96</longitude>
        <woe_name>Yangon</woe_name>
        <fips>BM17</fips>
        <woe_label>Yangon, MM, Myanmar</woe_label>
        <latitude>17</latitude>
        <iso_a2>MM</iso_a2>
        <postal>YA</postal>
        <type>Yin</type>
        <id>MM.YA</id>
      </desc>
    </path>
    <path d="M 380.2552 461.0067 378.2311 461.4328 376.207 458.0238 375.9939 452.4841 377.9115 450.3535 381.5336 451.3123 380.2552 461.0067 Z M 402.4139 507.0287 399.1114 506.8156 396.235 502.9805 391.9737 503.7262 388.0321 511.1835 389.0974 498.8257 387.1798 498.293 385.5818 494.0317 388.1386 491.475 385.7949 475.1755 380.1487 466.9725 383.1316 459.1957 382.7054 451.5253 385.0491 448.7555 386.4341 448.4359 386.7537 448.7555 388.0321 450.0339 390.4823 449.3947 390.6954 451.2057 392.826 453.3364 393.4652 453.5495 394.424 453.656 394.6371 453.656 394.9567 453.4429 395.1697 453.4429 395.2763 453.5495 395.3828 453.869 395.5958 455.0409 395.8089 456.3193 395.8089 456.6389 395.9154 456.7454 395.9154 456.852 396.235 457.065 397.1938 457.3846 397.9396 458.4499 398.0461 458.5565 398.3657 458.7695 398.4722 458.8761 398.5788 458.9826 398.6853 459.1957 398.7918 459.5153 398.6853 460.1545 398.6853 460.261 398.7918 460.3675 398.8984 460.4741 399.0049 460.4741 399.1114 460.5806 400.4963 462.1786 400.6029 463.0308 400.6029 463.1374 400.3898 463.3504 398.3657 464.7353 396.9808 464.3092 396.1285 463.7766 395.9154 463.67 392.826 464.0962 390.8019 464.0962 389.3104 464.4158 389.2039 464.7353 390.6954 467.9313 390.9084 481.1413 393.5717 482.8458 393.7848 483.1654 393.7848 483.9112 393.7848 484.1242 393.8913 484.2308 394.5305 484.87 394.9567 485.083 395.3828 485.4026 395.3828 485.5092 395.4893 485.6157 395.5958 485.8288 395.9154 486.5745 396.1285 486.8941 397.0873 487.9594 398.2592 490.5162 399.0049 491.1554 400.1767 493.286 400.8159 494.2448 402.4139 495.5232 403.0531 497.0147 403.0531 497.4408 403.0531 498.6126 401.8813 498.5061 401.3486 502.7674 402.4139 507.0287 Z M 375.3547 405.823 375.2482 406.1426 373.8632 408.3797 378.7637 420.7375 379.0833 427.3425 376.7396 431.3907 377.8049 434.054 377.6984 436.2912 379.0833 437.9957 379.0833 438.6349 379.0833 438.848 379.0833 439.0611 379.7225 439.8068 379.616 440.7656 379.8291 442.1505 380.0421 442.4701 381.214 443.9615 381.8532 444.7073 382.5989 445.1334 382.812 445.5595 382.812 445.6661 382.7054 445.8791 382.7054 445.9857 383.2381 446.6248 383.3446 446.8379 383.5577 446.9444 383.8773 447.051 384.0904 447.051 384.3034 446.9444 384.623 446.8379 384.7295 446.8379 384.8361 446.8379 384.9426 446.9444 384.9426 447.051 385.0491 447.9032 383.2381 449.1816 382.3858 449.5012 373.011 451.2057 371.6261 443.855 368.9628 443.2158 368.5366 436.6108 367.7909 438.4219 366.5125 434.7998 365.5537 428.6209 369.2824 427.8752 365.6603 427.0229 364.5949 428.8339 362.4643 422.442 356.0723 417.0089 355.9658 410.5104 356.2854 409.232 356.9246 409.0189 358.7357 408.8059 360.2271 409.1255 363.7427 411.7888 364.0623 412.5345 364.0623 413.0672 364.1688 413.2802 364.2753 413.7063 364.3819 413.8129 364.4884 413.8129 365.2341 413.7063 367.2582 412.7476 367.8974 412.3214 368.3236 412.0018 368.5366 411.4692 369.0693 411.4692 370.3477 409.5516 371.8391 409.8712 373.6502 406.6752 373.6502 406.036 373.6502 405.7164 374.7155 405.823 374.822 405.7164 374.9286 405.5034 375.0351 405.3968 375.1416 405.3968 375.1416 405.5034 375.2482 405.6099 375.3547 405.823 Z" id="MM.MO" fill="#cee3f5" stroke="#6e6e6e" stroke-width="0.4">
      <desc>
        <labelrank>7</labelrank>
        <code_hasc>MM.MO</code_hasc>
        <name>Mon</name>
        <admin>Myanmar</admin>
        <type_en>State</type_en>
        <region/>
        <woe_id>2344822</woe_id>
        <longitude>97</longitude>
        <woe_name>Mon</woe_name>
        <fips>BM13</fips>
        <woe_label>Mon State, MM, Myanmar</woe_label>
        <latitude>16</latitude>
        <iso_a2>MM</iso_a2>
        <postal>MO</postal>
        <type>Pyine</type>
        <id>MM.MO</id>
      </desc>
    </path>
    <path d="M 242.6154 359.5879 244.9591 359.801 245.1722 363.9557 242.7219 366.9386 235.4777 359.1618 240.4847 357.9899 242.6154 359.5879 Z M 247.5159 336.5769 253.4817 339.3468 253.1621 341.3709 249.2204 344.4603 246.7701 344.0342 241.8697 336.1508 243.8938 333.7005 247.5159 336.5769 Z M 237.8214 325.9237 235.0516 324.0061 233.8797 318.6795 237.2888 321.2363 237.8214 325.9237 Z M 283.2042 379.8291 285.0153 384.41 284.3761 403.2662 279.4756 416.5827 272.8706 413.0672 272.6575 408.5928 274.5751 409.9777 269.0354 393.8913 270.6334 390.1627 268.3962 383.7708 264.8806 382.7054 268.1832 381.1074 262.75 373.6502 262.5369 368.7497 259.0214 365.2341 263.7088 365.0211 261.3651 364.9145 259.2344 360.1206 258.0626 361.9316 255.2927 360.3336 257.5299 351.8111 255.1862 351.4915 256.7842 340.5186 255.3993 347.3367 253.2686 349.4673 251.0314 347.7628 253.4817 356.1789 251.4576 360.2271 242.6154 353.9417 236.0104 341.2643 238.5672 338.388 247.0897 345.9518 251.8837 343.7146 253.8013 341.0513 254.2274 337.8553 251.7772 337.6422 245.1722 331.0372 247.6224 330.185 248.0485 326.8825 246.344 329.4393 244.533 327.9478 246.0244 326.0302 240.6978 327.6282 240.9109 324.7518 245.8114 320.0644 240.1651 321.5559 238.3541 317.0815 234.6255 318.2534 233.3471 313.5659 232.6013 315.8031 231.9621 313.0333 229.4054 314.9509 224.3984 313.0333 227.9139 323.3669 224.3984 316.3358 223.333 319.1056 225.4637 323.793 224.2918 322.8342 218.8587 311.5418 223.2265 310.9026 224.2918 308.5589 219.6044 310.583 223.4396 302.2735 223.8657 300.3559 222.2677 302.9127 221.4154 301.1016 223.4396 296.5208 221.0958 299.5037 220.7763 304.1911 214.917 311.5418 212.1471 307.3871 218.1129 304.2976 214.8104 302.0604 214.2778 297.5861 212.1471 299.0775 210.6557 293.8574 207.7793 289.7027 210.2295 294.2836 210.5491 306.3217 203.0919 292.8987 198.8306 289.2766 195.5281 276.0665 192.3321 271.1661 194.8889 262.2173 199.0437 261.0455 200.2155 263.9219 204.9029 264.6676 206.3944 269.0354 207.8858 268.5027 208.6316 267.8636 208.9512 267.2244 208.9512 266.7982 209.91 267.3309 211.5079 270.2073 213.5321 272.764 214.3843 274.149 215.3431 276.4927 216.0888 277.1319 219.0717 275.8535 219.7109 275.96 225.7833 277.4515 226.2094 277.7711 226.3159 278.4103 226.6355 282.1389 226.8486 282.7781 228.7662 284.4826 229.0858 285.761 229.1923 285.9741 229.5119 286.5067 230.0446 287.0394 235.2647 290.6615 237.3953 291.7268 241.8697 292.2595 242.2958 292.1529 243.148 291.5137 243.5742 291.3007 244.3199 291.0876 244.6395 290.768 244.746 290.4484 244.6395 290.0223 243.7872 287.359 244.0003 285.2283 244.2134 284.6957 244.4264 284.2695 245.1722 283.8434 247.3028 284.6957 248.5812 287.0394 249.0073 288.8504 249.3269 288.957 250.2857 289.0635 250.8184 289.2766 251.351 289.7027 252.2033 290.5549 252.5229 291.1941 252.4164 295.6685 256.145 298.2253 267.1178 320.384 266.5852 324.7518 269.7811 338.4945 274.0424 345.6322 274.0424 351.2784 278.3037 354.6874 282.565 361.8251 282.2454 362.7839 281.8193 362.9969 281.1801 363.21 280.0082 363.3165 279.5821 363.5296 279.4756 363.7427 279.4756 364.0623 279.7952 364.4884 281.2866 365.8733 281.9258 367.0452 281.9258 367.5778 281.7128 368.004 280.6474 369.0693 280.2213 369.815 280.2213 370.4542 281.1801 372.3718 281.2866 373.1175 280.754 375.6743 283.2042 379.8291 Z" id="MM.RA" fill="#cee3f5" stroke="#6e6e6e" stroke-width="0.4">
      <desc>
        <labelrank>7</labelrank>
        <code_hasc>MM.RA</code_hasc>
        <name>Rakhine</name>
        <admin>Myanmar</admin>
        <type_en>State</type_en>
        <region/>
        <woe_id>2344810</woe_id>
        <longitude>93</longitude>
        <woe_name>Rakhine</woe_name>
        <fips>BM01</fips>
        <woe_label>Rakhine State, MM, Myanmar</woe_label>
        <latitude>20</latitude>
        <iso_a2>MM</iso_a2>
        <postal>RA</postal>
        <type>Pyine</type>
        <id>MM.RA</id>
      </desc>
    </path>
    <path d="M 264.2415 173.3694 264.348 186.6859 261.152 186.5794 260.8324 192.2256 259.1279 192.8648 258.5952 217.2607 259.341 244.533 257.4234 250.4988 261.4716 258.8083 257.5299 270.2073 260.1932 272.4444 260.6194 276.0665 257.5299 283.3107 260.8324 291.7268 256.6777 293.2183 252.5229 291.1941 252.2033 290.5549 251.351 289.7027 250.8184 289.2766 250.2857 289.0635 249.3269 288.957 249.0073 288.8504 245.1722 283.8434 244.4264 284.2695 244.2134 284.6957 244.0003 285.2283 243.7872 287.359 244.6395 290.0223 244.746 290.4484 244.6395 290.768 244.3199 291.0876 243.5742 291.3007 243.148 291.5137 242.2958 292.1529 241.8697 292.2595 237.3953 291.7268 235.2647 290.6615 230.0446 287.0394 229.5119 286.5067 229.1923 285.9741 229.0858 285.761 228.7662 284.4826 226.8486 282.7781 226.6355 282.1389 226.3159 278.4103 226.2094 277.7711 225.7833 277.4515 219.7109 275.96 219.0717 275.8535 216.9411 277.3449 216.0888 277.1319 215.3431 276.4927 214.3843 274.149 213.5321 272.764 211.5079 270.2073 209.91 267.3309 208.9512 266.7982 207.7793 262.6435 207.6728 241.6566 210.3361 240.1651 211.721 235.1581 218.2195 242.8284 219.2848 240.5913 221.4154 241.8697 223.6526 233.8797 227.8074 234.6255 228.9792 231.9621 226.4225 212.5733 229.938 208.6316 229.4054 202.2396 233.5601 204.0507 237.2888 199.5763 239.9521 180.294 236.0104 167.0839 236.8626 163.888 241.2305 168.5754 250.0726 167.1905 253.1621 169.9603 264.2415 173.3694 Z" id="MM.CH" fill="#cee3f5" stroke="#6e6e6e" stroke-width="0.4">
      <desc>
        <labelrank>7</labelrank>
        <code_hasc>MM.CH</code_hasc>
        <name>Chin</name>
        <admin>Myanmar</admin>
        <type_en>State</type_en>
        <region/>
        <woe_id>2344811</woe_id>
        <longitude>93</longitude>
        <woe_name>Chin</woe_name>
        <fips>BM02</fips>
        <woe_label>Chin State, MM, Myanmar</woe_label>
        <latitude>21</latitude>
        <iso_a2>MM</iso_a2>
        <postal>CH</postal>
        <type>Pyine</type>
        <id>MM.CH</id>
      </desc>
    </path>
    <path d="M 280.0082 475.6016 277.1319 474.6429 280.8605 469.9554 280.0082 475.6016 Z M 265.8394 473.6841 265.2002 467.6117 274.5751 458.663 273.9359 465.0549 268.3962 468.9966 265.8394 473.6841 Z M 272.8706 413.0672 279.4756 416.5827 284.3761 403.2662 285.0153 384.41 283.2042 379.8291 283.8434 379.2964 285.0153 378.4441 285.9741 377.8049 286.8263 377.5919 287.8916 377.9115 288.7439 378.5507 289.4896 379.4029 290.4484 379.8291 291.4072 379.9356 293.1117 376.3135 293.7509 375.8874 294.3901 375.7808 294.6032 375.7808 302.6996 384.9426 302.8062 385.3687 303.0192 386.3275 303.2323 386.6471 303.3388 386.9667 304.9368 392.3999 304.7237 395.2763 306.3217 396.8742 305.4695 405.3968 312.6071 409.9777 313.3529 410.9365 315.1639 413.9194 314.7378 415.6239 313.0333 419.9918 313.5659 423.5073 320.384 433.841 319.3187 437.9957 320.4905 440.9786 318.786 444.2811 319.5317 445.6661 319.4252 447.264 319.6383 447.5836 319.6383 447.7967 319.7448 448.0098 319.3187 448.649 318.0403 449.9274 317.6142 450.6731 318.573 451.4188 319.4252 453.0168 320.1709 453.4429 320.384 453.5495 321.1297 453.7625 323.2604 453.869 326.0302 456.2128 322.8342 460.3675 321.7689 459.0891 319.3187 460.7937 319.5317 459.5153 316.2292 463.1374 313.5659 460.261 311.2222 470.3816 302.167 478.6911 297.4795 478.0519 297.373 474.3233 300.4625 468.8901 300.4625 462.8178 299.6102 468.8901 296.3077 473.1514 297.16 468.1444 294.8162 476.2408 291.7268 474.9625 292.2595 467.9313 291.9399 466.7595 291.1941 468.7836 290.768 467.1856 292.366 464.4158 295.562 463.7766 292.2595 462.6047 289.9158 465.3745 288.3178 475.3886 286.1871 476.88 281.6062 475.8147 283.4173 473.6841 281.8193 474.0037 281.2866 469.8489 284.5891 466.6529 283.3107 467.3987 282.4585 463.2439 287.1459 458.663 282.1389 461.9655 282.565 466.4399 277.0253 473.2579 272.764 470.7012 277.558 467.2921 279.9017 461.859 276.5992 467.0791 271.4857 470.1685 275.7469 463.3504 277.9841 448.3294 275.96 448.0098 276.0665 454.2952 274.0424 458.1303 272.4444 458.9826 274.149 454.9344 272.4444 457.4911 270.2073 456.6389 269.5681 460.6871 263.3892 467.7183 260.1932 468.677 258.9148 466.9725 261.2585 447.7967 263.9219 447.051 265.7329 433.9475 268.7158 432.1364 268.5027 423.5073 271.5922 423.2943 271.9118 418.3938 273.6163 419.4591 272.8706 413.0672 Z" id="MM.AY" fill="#cee3f5" stroke="#6e6e6e" stroke-width="0.4">
      <desc>
        <labelrank>7</labelrank>
        <code_hasc>MM.AY</code_hasc>
        <name>Ayeyarwady</name>
        <admin>Myanmar</admin>
        <type_en>Division</type_en>
        <region/>
        <woe_id>2344812</woe_id>
        <longitude>95</longitude>
        <woe_name>Ayeyarwady</woe_name>
        <fips>BM03</fips>
        <woe_label>Ayeyarwady, MM, Myanmar</woe_label>
        <latitude>16</latitude>
        <iso_a2>MM</iso_a2>
        <postal>AY</postal>
        <type>Yin</type>
        <id>MM.AY</id>
      </desc>
    </path>
    <path d="M 303.978 258.5952 303.4454 264.0284 296.6273 269.4615 292.4725 269.4615 290.768 271.9118 285.2283 273.2967 284.9087 282.6716 294.177 287.572 293.2183 295.775 294.8162 298.7579 297.5861 294.9228 308.2393 290.4484 312.9267 291.6203 319.9579 314.3117 317.5076 320.0644 319.2121 325.391 315.8031 333.7005 316.2292 337.5357 318.3599 339.1337 320.2775 345.206 318.9991 350.3196 306.2152 350.8523 300.569 354.0482 296.2012 359.801 296.7338 364.7015 292.1529 368.4301 291.5137 372.3718 292.2595 373.8632 294.6032 375.7808 291.4072 379.9356 290.4484 379.8291 289.4896 379.4029 288.7439 378.5507 287.8916 377.9115 286.8263 377.5919 285.9741 377.8049 285.0153 378.4441 283.8434 379.2964 283.2042 379.8291 280.754 375.6743 281.2866 373.1175 281.1801 372.3718 280.2213 370.4542 280.2213 369.815 281.7128 368.004 281.9258 367.5778 281.9258 367.0452 281.2866 365.8733 279.7952 364.4884 279.4756 364.0623 279.4756 363.7427 279.5821 363.5296 280.0082 363.3165 281.1801 363.21 281.8193 362.9969 282.2454 362.7839 282.565 361.8251 278.3037 354.6874 274.0424 351.2784 274.0424 345.6322 269.7811 338.4945 266.5852 324.7518 267.1178 320.384 256.145 298.2253 252.4164 295.6685 252.5229 291.1941 256.6777 293.2183 260.8324 291.7268 257.5299 283.3107 260.6194 276.0665 260.1932 272.4444 257.5299 270.2073 261.4716 258.8083 257.4234 250.4988 259.341 244.533 258.5952 217.2607 262.3239 216.3019 268.0766 227.2747 266.5852 237.5018 271.6987 241.0174 271.4857 250.4988 274.362 251.8837 278.3037 250.0726 296.6273 250.1792 303.978 258.5952 Z" id="MM.MG" fill="#cee3f5" stroke="#6e6e6e" stroke-width="0.4">
      <desc>
        <labelrank>7</labelrank>
        <code_hasc>MM.MG</code_hasc>
        <name>Magway</name>
        <admin>Myanmar</admin>
        <type_en>Division</type_en>
        <region/>
        <woe_id>2344816</woe_id>
        <longitude>94</longitude>
        <woe_name>Magway</woe_name>
        <fips>BM15</fips>
        <woe_label>Magway, MM, Myanmar</woe_label>
        <latitude>19</latitude>
        <iso_a2>MM</iso_a2>
        <postal>MG</postal>
        <type>Yin</type>
        <id>MM.MG</id>
      </desc>
    </path>
    <path d="M 391.7607 336.1508 390.6954 333.2744 382.7054 331.6764 379.4029 323.793 376.9527 324.3257 374.9286 321.6624 370.4542 323.8996 367.0452 320.2775 365.8733 329.9719 358.7357 335.2985 357.2442 338.388 358.3095 341.9035 355.1136 346.2714 354.5809 342.7558 349.3608 338.4945 348.8281 335.7247 345.3126 334.2332 348.9347 330.7176 344.6734 325.178 341.797 324.8584 339.1337 318.786 341.9035 318.2534 341.9035 314.5247 345.3126 311.4353 342.8623 303.765 345.5256 297.5861 342.2231 294.0705 343.7146 291.0876 346.3779 290.8745 347.0171 287.7851 335.5116 282.9911 333.9136 279.7952 335.0855 276.3861 339.7729 275.7469 336.8965 264.8806 338.8141 262.0043 347.1236 259.9802 351.598 255.5058 358.0965 254.0143 352.9829 242.0827 344.2473 238.8868 342.3297 232.1752 338.7076 230.5772 339.1337 226.529 334.8724 217.0476 349.8935 214.2778 352.7698 210.0165 345.9518 205.2225 339.986 206.714 335.0855 205.0095 333.594 201.2808 334.8724 194.2497 338.9206 191.2668 339.4533 188.3904 347.8694 175.8196 346.2714 169.6407 342.8623 170.706 342.1166 169.0015 352.0241 164.8468 353.8352 169.2146 357.3507 171.5583 359.1618 170.706 360.014 173.0498 359.3748 176.8849 355.5397 179.5482 362.7839 181.2527 363.6361 183.5965 373.6502 181.4658 384.1969 177.4176 385.2622 175.5 401.029 166.9774 412.3214 165.9121 417.5415 168.0427 427.1294 165.3794 426.8098 167.7231 419.9918 172.304 420.2048 178.3764 424.6792 179.8678 426.8098 185.4075 424.1465 188.2839 427.9817 192.9713 426.7033 196.0607 428.6209 197.1261 426.9164 201.4939 432.6691 202.2396 439.2741 206.0748 443.2158 203.3049 448.7555 205.9683 450.3535 210.8687 445.9857 210.7622 446.0922 213.5321 442.3636 217.6868 444.1746 227.0617 440.1264 230.8968 436.7173 239.8455 440.5525 241.6566 450.46 241.5501 455.5736 244.0003 456.9585 242.8284 460.3675 244.746 464.5223 243.6807 464.8419 255.8254 471.66 258.2756 469.8489 262.9631 473.2579 266.6917 478.5846 262.8565 482.6328 265.6264 488.3855 265.0937 495.8428 257.956 504.3654 253.8013 507.6679 259.4475 507.1352 262.9631 501.8086 267.2244 495.2036 271.2726 492.1142 270.953 490.9423 276.5992 488.7051 280.5409 485.8288 281.6062 484.9765 286.0806 489.6639 287.1459 485.7222 289.8092 479.6499 289.0635 474.3233 293.964 470.4881 308.2393 464.7353 303.4454 461.2198 304.6172 459.4087 307.7067 454.7213 308.6654 447.264 305.8956 449.7143 314.4182 442.1505 317.8272 437.9957 315.6966 434.3736 316.4423 432.3495 318.6795 431.8168 326.8825 428.1947 329.5458 424.9988 327.4151 415.1978 332.3156 413.7063 331.1438 404.7576 332.6352 398.0461 327.3086 396.6612 333.594 391.7607 336.1508 Z" id="MM.SH" fill="#cee3f5" stroke="#6e6e6e" stroke-width="0.4">
      <desc>
        <labelrank>7</labelrank>
        <code_hasc>MM.SH</code_hasc>
        <name>Shan</name>
        <admin>Myanmar</admin>
        <type_en>State</type_en>
        <region/>
        <woe_id>2344820</woe_id>
        <longitude>98</longitude>
        <woe_name>Shan</woe_name>
        <fips>BM11</fips>
        <woe_label>Shan State, MM, Myanmar</woe_label>
        <latitude>21</latitude>
        <iso_a2>MM</iso_a2>
        <postal>SH</postal>
        <type>Pyine</type>
        <id>MM.SH</id>
      </desc>
    </path>
    <path d="M 404.225 690.9035 405.3968 693.0342 399.6441 699 399.431 694.7387 404.225 690.9035 Z M 401.9878 690.6905 401.3486 686.1096 403.6923 686.8553 401.9878 690.6905 Z M 391.4411 675.5629 392.7195 676.7347 391.5476 678.2262 391.4411 675.5629 Z M 415.3043 662.2463 413.2802 663.7378 413.0672 660.1157 415.3043 662.2463 Z M 391.5476 661.2875 391.015 659.1569 393.1456 658.9438 391.5476 661.2875 Z M 403.0531 658.7308 405.7164 664.1639 404.1184 667.4664 402.2009 660.4353 400.2833 658.8373 397.7265 660.1157 400.4963 656.7067 403.0531 658.7308 Z M 414.8782 656.4936 414.5586 657.8785 412.428 657.0263 414.239 652.765 414.8782 656.4936 Z M 405.0772 646.6926 404.0119 647.971 403.0531 645.9469 405.0772 646.6926 Z M 405.3968 636.9982 401.029 639.0223 405.1838 626.1319 406.8883 628.6886 405.3968 636.9982 Z M 414.9847 626.2384 414.6651 636.2524 410.83 634.8675 408.9124 630.1801 410.1908 627.1972 408.5928 626.558 414.9847 626.2384 Z M 396.8742 628.0495 398.2592 632.4173 395.3828 629.6474 395.4893 623.6816 396.8742 628.0495 Z M 414.1325 618.4615 419.1395 621.1248 412.5345 622.7228 411.1496 614.5198 414.1325 618.4615 Z M 398.6853 611.2173 400.0702 613.4545 396.4481 610.8977 397.7265 607.8083 399.431 608.341 398.6853 611.2173 Z M 398.5788 605.0385 395.0632 608.6606 393.0391 607.0626 392.826 604.9319 395.7024 603.6535 396.5546 605.2515 397.833 602.6947 398.5788 605.0385 Z M 405.5034 599.9249 403.4792 599.3922 404.5446 597.2616 405.5034 599.9249 Z M 409.7647 597.3681 410.7234 598.9661 412.2149 596.942 411.7888 601.6294 407.8471 606.5299 406.1426 606.1038 406.6752 593.0003 409.9777 594.8114 409.7647 597.3681 Z M 405.9295 578.1923 407.4209 578.6184 406.1426 584.5842 404.225 573.3984 405.9295 578.1923 Z M 402.4139 507.0287 404.225 514.0598 415.3043 530.0397 429.3666 540.906 435.0128 549.0024 437.25 554.7552 438.6349 572.8657 435.4389 574.9963 435.1194 580.0034 437.7827 582.3471 439.9133 591.935 446.5183 597.2616 448.3294 613.8806 451.6319 613.4545 450.7796 617.7158 452.8037 619.6334 452.3776 623.4686 454.9344 625.5992 451.7384 632.0977 448.3294 633.163 439.5937 652.0192 433.7344 658.0916 431.4973 657.985 430.7515 662.5659 423.0812 667.6795 424.04 674.7106 422.442 680.2503 414.8782 693.7799 411.7888 666.6142 414.3455 667.4664 418.1807 661.6071 416.2631 660.4353 421.1636 658.8373 421.4832 654.3629 419.1395 651.0604 421.5897 650.2082 422.8681 645.9469 420.631 641.5791 423.5073 639.1288 421.3767 636.1459 422.0159 632.0977 425.2118 629.6474 427.7686 630.1801 423.7204 627.8364 424.6792 624.2143 419.7787 630.4997 417.1154 626.0253 420.9505 623.2555 415.1978 623.2555 419.3526 621.6575 421.4832 618.7811 418.1807 613.7741 420.844 609.8324 416.9023 611.4304 414.8782 609.7259 420.9505 605.7842 417.2219 602.6947 417.648 600.5641 421.0571 599.6053 417.9676 597.9008 420.5244 591.6154 417.7546 590.1239 418.9264 588.9521 416.6893 584.3712 416.3697 574.4637 412.7476 570.8416 412.5345 565.9411 411.7888 567.2195 406.2491 555.1813 404.225 554.7552 402.3074 541.6517 402.0943 561.0406 400.4963 561.3602 401.4551 555.927 399.0049 555.1813 399.3245 547.7241 397.5134 543.6758 399.3245 537.8165 395.1697 531.7442 395.3828 526.5241 394.1044 527.2698 391.228 518.5342 393.3587 517.1493 396.4481 519.9191 393.5717 514.1664 389.9496 517.0427 388.0321 511.1835 391.9737 503.7262 396.235 502.9805 399.1114 506.8156 402.4139 507.0287 Z" id="MM.TN" fill="#cee3f5" stroke="#6e6e6e" stroke-width="0.4">
      <desc>
        <labelrank>7</labelrank>
        <code_hasc>MM.TN</code_hasc>
        <name>Tanintharyi</name>
        <admin>Myanmar</admin>
        <type_en>Division</type_en>
        <region/>
        <woe_id>2344821</woe_id>
        <longitude>98</longitude>
        <woe_name>Tanintharyi</woe_name>
        <fips>BM12</fips>
        <woe_label>Tenasserim, MM, Myanmar</woe_label>
        <latitude>13</latitude>
        <iso_a2>MM</iso_a2>
        <postal>TN</postal>
        <type>Yin</type>
        <id>MM.TN</id>
      </desc>
    </path>
    <path d="M 385.2622 175.5 384.1969 177.4176 373.6502 181.4658 363.6361 183.5965 362.7839 181.2527 355.5397 179.5482 359.3748 176.8849 360.014 173.0498 359.1618 170.706 357.3507 171.5583 353.8352 169.2146 352.0241 164.8468 349.7869 160.7985 351.598 154.6197 343.7146 151.3172 337.2161 152.8086 332.8483 145.9905 327.5217 143.8599 324.1126 133.5263 330.398 130.3303 330.0784 133.7393 331.8895 132.9936 332.1026 129.478 329.0131 123.2991 328.9066 113.072 329.7589 111.1545 332.1026 112.2198 336.3639 107.4258 332.9548 99.7555 335.9377 93.8962 335.8312 89.7415 331.0372 79.4078 335.9377 76.4249 332.6352 70.1395 340.4121 63.1084 341.0513 60.9777 339.2402 59.2732 363.6361 58.5275 366.8321 54.7988 369.3889 53.5205 361.0794 41.5888 360.5467 35.7295 372.6914 24.7567 376.42 24.9698 376.207 12.9316 380.3617 9.9487 383.7708 1 388.7778 2.9176 390.9084 8.0311 395.2763 7.9246 398.3657 13.2512 402.5205 16.0211 402.0943 22.3065 404.438 24.5437 403.1596 25.822 408.2732 38.7125 411.1496 37.9667 412.1084 33.1728 421.0571 37.221 420.844 52.2421 422.9747 56.9295 423.5073 72.8028 419.6722 86.652 421.8028 89.6349 419.7787 92.5113 418.9264 90.7002 416.3697 92.1917 421.2701 101.1404 418.5003 103.5907 414.7717 102.4188 409.1255 112.2198 402.627 110.5153 401.4551 118.8248 394.7436 125.6429 391.7607 123.5122 387.6059 130.5433 387.7125 135.9765 389.9496 138.7463 381.8532 142.7946 380.8944 153.3413 385.2622 154.1935 386.8602 157.7091 385.3687 159.3071 387.819 160.2659 387.3929 165.9121 380.7879 172.7302 385.2622 175.5 Z" id="MM.KC" fill="#cee3f5" stroke="#6e6e6e" stroke-width="0.4">
      <desc>
        <labelrank>7</labelrank>
        <code_hasc>MM.KC</code_hasc>
        <name>Kachin</name>
        <admin>Myanmar</admin>
        <type_en>State</type_en>
        <region/>
        <woe_id>2344813</woe_id>
        <longitude>97</longitude>
        <woe_name>Kachin</woe_name>
        <fips>BM04</fips>
        <woe_label>Kachin State, MM, Myanmar</woe_label>
        <latitude>25</latitude>
        <iso_a2>MM</iso_a2>
        <postal>KC</postal>
        <type>Pyine</type>
        <id>MM.KC</id>
      </desc>
    </path>
    <path d="M 366.8321 54.7988 363.6361 58.5275 339.2402 59.2732 341.0513 60.9777 340.4121 63.1084 332.6352 70.1395 335.9377 76.4249 331.0372 79.4078 335.8312 89.7415 335.9377 93.8962 332.9548 99.7555 336.3639 107.4258 332.1026 112.2198 329.7589 111.1545 328.9066 113.072 329.0131 123.2991 332.1026 129.478 331.8895 132.9936 330.0784 133.7393 330.398 130.3303 324.1126 133.5263 327.5217 143.8599 332.8483 145.9905 337.2161 152.8086 343.7146 151.3172 351.598 154.6197 349.7869 160.7985 352.0241 164.8468 342.1166 169.0015 342.8623 170.706 346.2714 169.6407 347.8694 175.8196 339.4533 188.3904 333.1679 187.7512 332.7418 183.9161 331.3568 183.703 325.178 192.8648 327.2021 201.3874 326.5629 215.7692 324.3257 218.0064 327.3086 224.7179 326.2433 229.8315 327.9478 232.0687 328.587 247.4093 323.0473 249.9661 318.9991 258.2756 314.9509 258.1691 310.37 253.6947 305.3629 254.9731 303.978 258.5952 296.6273 250.1792 278.3037 250.0726 274.362 251.8837 271.4857 250.4988 271.6987 241.0174 266.5852 237.5018 268.0766 227.2747 262.3239 216.3019 258.5952 217.2607 259.1279 192.8648 260.8324 192.2256 261.152 186.5794 264.348 186.6859 264.2415 173.3694 270.6334 155.685 278.6233 142.0488 280.8605 141.09 285.5479 130.2237 285.1218 125.9625 280.5409 123.4057 282.6716 116.268 296.6273 103.9103 296.5208 96.9857 301.8474 92.4048 298.3318 83.3495 298.5449 76.3184 301.4212 71.3114 311.2222 68.2219 313.9921 64.1737 321.1297 61.1908 336.2573 48.0873 355.2201 44.5717 360.014 48.833 359.6944 51.0702 366.8321 54.7988 Z" id="MM.SA" fill="#cee3f5" stroke="#6e6e6e" stroke-width="0.4">
      <desc>
        <labelrank>7</labelrank>
        <code_hasc>MM.SA</code_hasc>
        <name>Sagaing</name>
        <admin>Myanmar</admin>
        <type_en>Division</type_en>
        <region/>
        <woe_id>2344819</woe_id>
        <longitude>95</longitude>
        <woe_name>Sagaing</woe_name>
        <fips>BM10</fips>
        <woe_label>Sagaing, MM, Myanmar</woe_label>
        <latitude>23</latitude>
        <iso_a2>MM</iso_a2>
        <postal>SA</postal>
        <type>Yin</type>
        <id>MM.SA</id>
      </desc>
    </path>
  </g>
</svg>