<?xml version="1.0" encoding="UTF-8"?>
<svg xmlns="http://www.w3.org/2000/svg" width="700" height="700">
  <g id="nigeria">
    <path d="M 647.3517 238.6534 635.526 240.933 628.3309 239.722 627.1911 251.1915 622.2043 267.0778 619.2835 268.7163 604.6083 261.3074 594.7773 261.8061 582.0968 273.8455 568.9888 277.3362 552.4613 293.365 542.9865 292.9375 524.8918 275.484 529.2374 265.9379 528.4538 260.8087 533.7967 256.9618 534.7228 245.2786 537.9998 241.6454 555.2396 233.8804 556.8069 219.9175 567.7065 204.6011 564.572 198.4746 558.7304 197.6197 562.7197 185.794 562.2923 151.3143 572.4795 138.0639 565.0706 125.6683 566.2817 114.2701 572.0521 114.6263 576.1839 104.4391 590.1468 96.5315 593.78 91.2598 592.1415 89.6926 614.2968 85.7744 619.9959 76.1572 635.9535 76.1572 663.1668 112.4891 671.2168 154.0214 688.5991 155.5887 695.9367 164.4936 699 164.2086 695.7942 173.5409 695.2956 188.1449 692.5885 192.5617 697.6465 198.3321 695.8655 205.0998 671.2168 220.7724 660.5309 218.7777 648.2066 233.3105 647.3517 238.6534 Z" id="NG.BO" fill="#cee3f5" stroke="#6e6e6e" stroke-width="0.4">
      <desc>
        <labelrank>3</labelrank>
        <code_hasc>NG.BO</code_hasc>
        <name>Borno</name>
        <admin>Nigeria</admin>
        <type_en>State</type_en>
        <region/>
        <woe_id>2346355</woe_id>
        <longitude>13</longitude>
        <woe_name>Borno</woe_name>
        <fips>NI27</fips>
        <woe_label>Borno, NG, Nigeria</woe_label>
        <latitude>12</latitude>
        <iso_a2>NG</iso_a2>
        <postal>BO</postal>
        <type>State</type>
        <id>NG.BO</id>
      </desc>
    </path>
    <path d="M 285.7424 532.8706 285.315 540.0657 297.3544 541.9179 305.9743 549.4693 310.6048 566.9941 309.8212 569.06 307.0429 568.5613 295.7871 559.229 292.0114 559.9414 292.5101 570.6273 285.1725 572.0521 284.7451 586.941 281.4681 591.0016 281.753 595.8459 283.0353 598.1968 283.4627 600.6189 274.1304 597.057 264.6556 597.3419 263.872 592.7114 269.9273 583.5215 270.2123 580.672 269.0725 578.4636 273.418 566.1392 278.1198 558.018 277.1937 540.4932 269.0725 535.5777 275.7689 530.021 281.8955 529.9498 285.7424 532.8706 Z" id="NG.AB" fill="#cee3f5" stroke="#6e6e6e" stroke-width="0.4">
      <desc>
        <labelrank>3</labelrank>
        <code_hasc>NG.AB</code_hasc>
        <name>Abia</name>
        <admin>Nigeria</admin>
        <type_en>State</type_en>
        <region/>
        <woe_id>2346362</woe_id>
        <longitude>7</longitude>
        <woe_name>Abia</woe_name>
        <fips>NI45</fips>
        <woe_label>Abia, NG, Nigeria</woe_label>
        <latitude>5</latitude>
        <iso_a2>NG</iso_a2>
        <postal>AB</postal>
        <type>State</type>
        <id>NG.AB</id>
      </desc>
    </path>
    <path d="M 307.0429 568.5613 305.4044 570.4136 307.0429 573.9755 316.8026 577.4662 318.7261 590.7879 330.6942 602.7561 334.0425 611.9459 330.0531 616.434 314.9504 615.8641 295.5734 619.426 285.9561 616.7902 286.6685 606.8879 285.5999 607.3866 285.6712 605.9618 285.1725 603.7534 283.4627 600.6189 283.0353 598.1968 281.753 595.8459 281.4681 591.0016 284.7451 586.941 285.1725 572.0521 292.5101 570.6273 292.0114 559.9414 295.7871 559.229 307.0429 568.5613 Z" id="NG.AK" fill="#cee3f5" stroke="#6e6e6e" stroke-width="0.4">
      <desc>
        <labelrank>3</labelrank>
        <code_hasc>NG.AK</code_hasc>
        <name>Akwa Ibom</name>
        <admin>Nigeria</admin>
        <type_en>State</type_en>
        <region/>
        <woe_id>2346349</woe_id>
        <longitude>7</longitude>
        <woe_name>Akwa Ibom</woe_name>
        <fips>NI21</fips>
        <woe_label>Akwa Ibom, NG, Nigeria</woe_label>
        <latitude>4</latitude>
        <iso_a2>NG</iso_a2>
        <postal>AK</postal>
        <type>State</type>
        <id>NG.AK</id>
      </desc>
    </path>
    <path d="M 269.0725 578.4636 246.6322 578.3923 240.4344 574.4029 238.0835 571.9096 238.0122 569.9149 238.8671 567.9914 239.3658 563.8596 236.9437 561.295 232.7406 561.6512 232.3131 560.3689 234.1653 551.1078 234.8777 549.0418 238.7959 545.9786 248.2707 545.1237 253.5424 536.6463 269.0725 535.5777 277.1937 540.4932 278.1198 558.018 273.418 566.1392 269.0725 578.4636 Z" id="NG.IM" fill="#cee3f5" stroke="#6e6e6e" stroke-width="0.4">
      <desc>
        <labelrank>3</labelrank>
        <code_hasc>NG.IM</code_hasc>
        <name>Imo</name>
        <admin>Nigeria</admin>
        <type_en>State</type_en>
        <region/>
        <woe_id>2346356</woe_id>
        <longitude>7</longitude>
        <woe_name>Imo</woe_name>
        <fips>NI28</fips>
        <woe_label>Imo, NG, Nigeria</woe_label>
        <latitude>5</latitude>
        <iso_a2>NG</iso_a2>
        <postal>IM</postal>
        <type>State</type>
        <id>NG.IM</id>
      </desc>
    </path>
    <path d="M 280.8269 620.7083 288.592 620.1384 279.6158 623.0592 274.0592 621.5632 278.0486 619.3548 280.8269 620.7083 Z M 269.4287 619.3548 273.7742 619.711 271.7795 624.2703 262.8747 625.98 267.7189 617.2888 269.4287 619.3548 Z M 238.8671 567.9914 238.0835 571.9096 240.4344 574.4029 246.6322 578.3923 269.0725 578.4636 270.2123 580.672 269.9273 583.5215 263.872 592.7114 264.6556 597.3419 274.1304 597.057 279.5446 597.9831 283.4627 600.6189 285.1725 603.7534 285.6712 605.9618 285.5999 607.3866 284.6738 608.7402 284.4601 611.8747 284.3176 614.5818 280.9694 616.149 270.7822 613.2994 270.141 615.7216 273.8455 617.5026 270.711 618.9273 258.4578 604.1096 265.0831 618.1437 260.8087 622.1331 258.814 618.9273 258.814 622.5605 256.7481 622.9167 254.326 614.5105 256.8194 610.8773 252.0463 605.6769 253.5424 612.872 248.4844 609.3813 249.9804 614.8667 253.1862 614.7242 255.4658 625.7663 247.1308 625.7663 243.4977 616.7189 245.1362 611.661 240.7193 604.822 241.5742 600.5477 237.5136 599.5503 243.9251 613.2282 242.2154 615.6503 246.5609 627.3335 237.4423 627.6897 238.6534 612.872 233.5954 610.7348 232.2419 606.6742 228.6087 604.3946 221.9122 606.3893 221.556 603.4685 219.4189 602.2574 218.0653 600.4764 218.0653 598.1255 218.7777 596.1308 220.7012 592.2127 221.7697 591.0729 220.9149 589.933 220.7012 589.3631 220.5587 588.6507 220.5587 587.5109 220.8436 586.0149 224.2631 577.8937 226.9702 575.6852 229.7485 571.6246 230.8171 571.4109 231.9569 570.1998 231.9569 569.7724 231.8145 569.4874 229.891 567.2078 224.4768 566.7091 223.4795 564.1445 223.4082 564.0733 224.6905 562.9335 226.0441 562.2923 227.6826 560.3689 231.1733 547.3321 232.9543 548.8994 234.8777 549.0418 234.1653 551.1078 232.3131 560.3689 232.7406 561.6512 236.9437 561.295 239.3658 563.8596 238.8671 567.9914 Z" id="NG.RI" fill="#cee3f5" stroke="#6e6e6e" stroke-width="0.4">
      <desc>
        <labelrank>3</labelrank>
        <code_hasc>NG.RI</code_hasc>
        <name>Rivers</name>
        <admin>Nigeria</admin>
        <type_en>State</type_en>
        <region/>
        <woe_id>2346344</woe_id>
        <longitude>6</longitude>
        <woe_name>Rivers</woe_name>
        <fips>NI50</fips>
        <woe_label>Rivers, NG, Nigeria</woe_label>
        <latitude>4</latitude>
        <iso_a2>NG</iso_a2>
        <postal>RI</postal>
        <type>State</type>
        <id>NG.RI</id>
      </desc>
    </path>
    <path d="M 163.6387 581.6693 175.6781 588.1521 188.0024 584.2339 192.348 580.3158 198.3321 583.5928 207.8069 578.9622 207.7357 574.9016 212.4374 574.2605 215.0733 569.9861 224.4768 566.7091 229.891 567.2078 231.8145 569.4874 231.9569 569.7724 231.9569 570.1998 230.8171 571.4109 229.7485 571.6246 226.9702 575.6852 224.2631 577.8937 222.6246 583.7353 220.8436 586.0149 220.5587 587.5109 220.5587 588.6507 220.7012 589.3631 220.9149 589.933 221.2711 590.5742 221.7697 591.0729 220.7012 592.2127 219.9888 594.3499 218.7777 596.1308 218.0653 598.1255 218.0653 600.4764 221.9122 606.3893 228.6087 604.3946 232.2419 606.6742 233.5954 610.7348 237.8698 613.7981 236.2313 623.7003 235.0202 617.2176 233.8091 618.4999 235.1627 628.972 231.3158 628.7583 229.4636 618.7136 227.6826 618.8561 229.9622 622.2043 228.8224 628.8296 225.9016 629.5419 220.8436 628.1172 211.1551 631.2517 209.8016 629.6132 214.8596 622.8455 210.7277 625.1964 209.5879 619.2123 209.9441 624.4127 207.1657 622.418 208.0206 631.3942 200.8967 632.1066 201.4666 626.4074 198.5458 623.7716 198.902 631.1092 195.0551 629.6844 194.5564 623.9853 192.9892 628.8296 188.7861 626.7636 187.3613 622.7742 182.4458 621.5632 169.7653 608.6689 159.2219 582.168 164.4936 584.0202 163.6387 581.6693 Z" id="NG.BY" fill="#cee3f5" stroke="#6e6e6e" stroke-width="0.4">
      <desc>
        <labelrank>3</labelrank>
        <code_hasc>NG.BY</code_hasc>
        <name>Bayelsa</name>
        <admin>Nigeria</admin>
        <type_en>State</type_en>
        <region/>
        <woe_id>20070152</woe_id>
        <longitude>5</longitude>
        <woe_name>Bayelsa</woe_name>
        <fips>NI52</fips>
        <woe_label>Bayelsa, NG, Nigeria</woe_label>
        <latitude>4</latitude>
        <iso_a2>NG</iso_a2>
        <postal>BY</postal>
        <type>State</type>
        <id>NG.BY</id>
      </desc>
    </path>
    <path d="M 381.7014 418.9594 379.1368 425.0859 387.258 422.4501 405.2102 423.1625 423.0912 439.5475 425.7271 446.3152 423.0912 460.278 413.4027 471.1063 409.6983 500.6705 400.5085 506.7259 390.6775 493.6179 385.477 490.982 371.3005 492.4781 369.3058 484.9267 358.05 479.3701 350.2137 480.4387 347.0792 487.2776 337.3195 487.5626 330.338 491.6944 325.9924 484.8555 320.1508 489.6285 313.0982 490.4834 309.0376 500.813 303.0535 494.3303 305.1194 485.9953 302.9822 480.8661 292.0827 480.7236 286.3835 475.2382 283.534 468.1855 291.7265 471.7475 292.8663 466.7608 300.6314 462.5577 306.188 448.2386 300.5601 446.4576 298.8504 428.2205 294.2911 421.8802 293.7212 412.4054 320.2933 419.0306 337.7469 427.1519 333.9712 413.9014 338.1743 406.9912 345.9394 406.1364 361.9682 410.9806 370.5168 410.6957 381.7014 418.9594 Z" id="NG.BE" fill="#cee3f5" stroke="#6e6e6e" stroke-width="0.4">
      <desc>
        <labelrank>3</labelrank>
        <code_hasc>NG.BE</code_hasc>
        <name>Benue</name>
        <admin>Nigeria</admin>
        <type_en>State</type_en>
        <region/>
        <woe_id>2346354</woe_id>
        <longitude>8</longitude>
        <woe_name>Benue</woe_name>
        <fips>NI26</fips>
        <woe_label>Benue, NG, Nigeria</woe_label>
        <latitude>7</latitude>
        <iso_a2>NG</iso_a2>
        <postal>BE</postal>
        <type>State</type>
        <id>NG.BE</id>
      </desc>
    </path>
    <path d="M 400.5085 506.7259 391.8885 512.8524 370.873 537.4299 367.3111 536.9312 362.823 541.2056 363.8204 545.8361 361.2558 548.6857 366.2425 555.0259 362.7518 561.0812 360.1159 580.6007 348.504 596.9145 349.1451 599.8353 345.4407 601.4738 344.3009 607.0304 337.177 604.6795 337.8894 598.9092 334.1849 601.83 323.4278 590.503 330.6942 602.7561 318.7261 590.7879 316.8026 577.4662 307.0429 573.9755 305.4044 570.4136 307.0429 568.5613 309.8212 569.06 310.6048 566.9941 305.9743 549.4693 311.6734 531.7308 318.8685 534.2241 324.3539 529.5224 327.6309 530.2347 335.4672 517.483 335.2535 509.7891 338.7442 505.9422 330.338 491.6944 337.3195 487.5626 347.0792 487.2776 350.2137 480.4387 358.05 479.3701 369.3058 484.9267 371.3005 492.4781 385.477 490.982 390.6775 493.6179 400.5085 506.7259 Z" id="NG.CR" fill="#cee3f5" stroke="#6e6e6e" stroke-width="0.4">
      <desc>
        <labelrank>3</labelrank>
        <code_hasc>NG.CR</code_hasc>
        <name>Cross River</name>
        <admin>Nigeria</admin>
        <type_en>State</type_en>
        <region/>
        <woe_id>2346350</woe_id>
        <longitude>8</longitude>
        <woe_name>Cross River</woe_name>
        <fips>NI22</fips>
        <woe_label>Cross River, NG, Nigeria</woe_label>
        <latitude>5</latitude>
        <iso_a2>NG</iso_a2>
        <postal>CR</postal>
        <type>State</type>
        <id>NG.CR</id>
      </desc>
    </path>
    <path d="M 492.1219 320.3646 518.8365 319.7947 524.3219 329.8394 533.0131 335.0398 536.575 346.9367 544.7675 355.058 545.1949 359.1186 539.4246 371.3005 538.7834 379.4217 512.425 409.912 518.979 422.0227 526.744 416.6085 536.0051 424.5873 541.9179 445.2466 532.2294 456.5023 540.2794 467.2594 536.575 467.7581 522.1135 479.3701 520.5462 492.9055 513.7073 497.2511 509.5042 504.8736 495.9688 505.4436 491.3382 487.4913 483.8581 484.9267 479.2988 475.5232 466.832 469.824 464.3386 464.6948 459.5656 479.7263 442.8245 479.5838 438.8351 472.0325 423.1625 484.998 418.1045 484.5705 412.5479 500.0294 409.6983 500.6705 413.4027 471.1063 423.0912 460.278 425.7271 446.3152 423.0912 439.5475 405.2102 423.1625 387.258 422.4501 379.1368 425.0859 381.7014 418.9594 393.3846 410.5532 392.6722 403.8567 389.5377 399.9386 391.3186 395.308 403.7142 397.374 407.7036 393.3133 419.5293 391.9598 436.2705 379.0655 443.4656 369.9469 466.1909 361.9682 467.6869 348.7889 462.5577 325.7787 480.2249 320.1508 492.1219 320.3646 Z" id="NG.TA" fill="#cee3f5" stroke="#6e6e6e" stroke-width="0.4">
      <desc>
        <labelrank>3</labelrank>
        <code_hasc>NG.TA</code_hasc>
        <name>Taraba</name>
        <admin>Nigeria</admin>
        <type_en>State</type_en>
        <region/>
        <woe_id>2346371</woe_id>
        <longitude>10</longitude>
        <woe_name>Taraba</woe_name>
        <fips>NI43</fips>
        <woe_label>Taraba, NG, Nigeria</woe_label>
        <latitude>7</latitude>
        <iso_a2>NG</iso_a2>
        <postal>TA</postal>
        <type>State</type>
        <id>NG.TA</id>
      </desc>
    </path>
    <path d="M 209.1604 370.7306 201.4666 391.2474 179.24 388.3266 168.1268 382.2 165.4909 384.5509 158.2958 394.7381 168.6967 405.7802 169.1241 409.2709 160.7179 410.0545 158.367 414.7563 154.9475 415.1837 141.4834 411.3368 131.7949 408.2735 111.6342 410.8381 100.3072 394.4532 91.2598 371.8704 91.3311 364.7465 99.0961 356.6252 98.0988 354.3456 93.6107 356.0553 82.4262 352.4934 72.0253 343.1611 66.5399 345.2982 61.9094 354.1319 35.266 367.9522 29.4956 366.6699 16.1027 376.7146 5.7018 380.4903 4.7757 365.4589 7.6965 349.2876 25.7199 347.3642 30.2792 336.0372 29.3531 326.0637 36.1208 315.8053 41.1788 314.7367 40.9651 305.9743 53.0045 302.5548 61.0545 287.0247 75.801 285.9561 81.4289 287.8796 100.7346 311.3172 104.5103 312.5995 106.5762 328.9845 115.9798 329.2694 116.4785 335.0398 123.3174 338.0318 124.8847 345.4407 138.705 342.8049 147.04 347.7916 150.4595 353.9894 169.6228 358.7624 184.298 369.662 209.1604 370.7306 Z" id="NG.KW" fill="#cee3f5" stroke="#6e6e6e" stroke-width="0.4">
      <desc>
        <labelrank>3</labelrank>
        <code_hasc>NG.KW</code_hasc>
        <name>Kwara</name>
        <admin>Nigeria</admin>
        <type_en>State</type_en>
        <region/>
        <woe_id>2346358</woe_id>
        <longitude>4</longitude>
        <woe_name>Kwara</woe_name>
        <fips>NI30</fips>
        <woe_label>Kwara, NG, Nigeria</woe_label>
        <latitude>8</latitude>
        <iso_a2>NG</iso_a2>
        <postal>KW</postal>
        <type>State</type>
        <id>NG.KW</id>
      </desc>
    </path>
    <path d="M 98.2413 508.5781 70.5293 504.7312 45.3819 505.7998 41.9624 503.7338 44.527 502.879 51.1523 503.2352 52.9333 500.0294 69.8881 494.6865 64.9014 493.4754 50.4399 498.8896 47.5191 498.1059 47.6616 494.4727 43.031 497.3935 41.0363 503.3776 41.8912 506.5121 1.7124 507.7944 2.2823 501.5254 9.5487 502.0953 12.8969 498.6046 29.2107 498.8896 35.6934 488.3462 43.1735 492.0506 45.8093 489.486 80.1466 489.6285 83.7085 490.6258 81.7138 496.8949 90.5475 496.3962 87.2705 502.1666 98.455 505.2298 98.2413 508.5781 Z" id="NG.LA" fill="#cee3f5" stroke="#6e6e6e" stroke-width="0.4">
      <desc>
        <labelrank>7</labelrank>
        <code_hasc>NG.LA</code_hasc>
        <name>Lagos</name>
        <admin>Nigeria</admin>
        <type_en>State</type_en>
        <region/>
        <woe_id>2346342</woe_id>
        <longitude>3</longitude>
        <woe_name>Lagos</woe_name>
        <fips>NI05</fips>
        <woe_label>Lagos, NG, Nigeria</woe_label>
        <latitude>6</latitude>
        <iso_a2>NG</iso_a2>
        <postal>LA</postal>
        <type>State</type>
        <id>NG.LA</id>
      </desc>
    </path>
    <path d="M 199.1157 230.8171 206.8808 245.4923 204.0312 248.7693 202.6777 267.7902 207.3082 274.9853 222.1259 262.5897 226.2578 261.7348 230.3184 264.9406 239.0096 262.9459 241.9304 258.9565 245.8485 259.8114 246.7034 265.7242 252.83 268.1464 252.1176 274.9141 259.2415 278.9034 259.099 280.8981 248.9831 290.2305 255.7508 295.4309 271.4946 297.853 272.4207 309.3938 267.8614 311.6734 272.3495 314.9504 274.8428 320.792 267.8614 330.7655 270.3548 337.8894 273.2043 337.7469 264.5844 349.4301 252.9012 341.4513 240.7193 342.5199 240.7906 386.0469 245.2074 389.8939 236.8012 401.5771 223.622 388.3266 218.1366 373.6514 209.1604 370.7306 184.298 369.662 169.6228 358.7624 150.4595 353.9894 147.04 347.7916 138.705 342.8049 124.8847 345.4407 123.3174 338.0318 116.4785 335.0398 115.9798 329.2694 106.5762 328.9845 104.5103 312.5995 100.7346 311.3172 81.4289 287.8796 75.801 285.9561 61.0545 287.0247 55.7828 277.6924 60.6271 268.93 67.6085 270.6397 71.5266 259.384 70.8142 253.3286 65.4713 247.0596 66.9673 241.218 64.3315 228.6087 70.1019 228.8937 81.6426 235.3052 106.7187 234.664 123.2462 242.2154 121.109 257.3893 110.067 268.1464 109.8532 274.7716 113.4152 279.3309 112.0616 287.9508 117.4046 289.4468 118.8294 283.534 129.6577 280.8269 132.8634 275.8402 128.4466 268.2176 129.159 255.8932 144.6891 251.6901 141.1272 244.78 143.9767 241.2892 142.6232 234.8777 129.444 229.8198 125.8108 226.9702 126.8081 223.2658 134.8581 219.7751 156.2298 216.7118 164.2799 228.1813 167.1294 239.5795 190.852 234.1653 195.3401 229.7485 199.1157 230.8171 Z" id="NG.NI" fill="#cee3f5" stroke="#6e6e6e" stroke-width="0.4">
      <desc>
        <labelrank>3</labelrank>
        <code_hasc>NG.NI</code_hasc>
        <name>Niger</name>
        <admin>Nigeria</admin>
        <type_en>State</type_en>
        <region/>
        <woe_id>2346359</woe_id>
        <longitude>5</longitude>
        <woe_name>Niger</woe_name>
        <fips>NI31</fips>
        <woe_label>Niger, NG, Nigeria</woe_label>
        <latitude>9</latitude>
        <iso_a2>NG</iso_a2>
        <postal>NI</postal>
        <type>State</type>
        <id>NG.NI</id>
      </desc>
    </path>
    <path d="M 83.0674 464.8373 87.1992 462.8426 88.909 468.0431 96.2466 466.2621 99.8798 472.7448 111.4205 472.3887 110.067 480.0825 99.1674 492.2643 102.5869 496.7524 106.6475 497.1086 111.6342 493.4754 112.7028 495.0427 112.9878 502.7365 105.5789 506.5121 111.6342 510.7152 107.0749 511.5701 98.2413 508.5781 98.455 505.2298 87.2705 502.1666 90.5475 496.3962 81.7138 496.8949 83.7085 490.6258 80.1466 489.6285 45.8093 489.486 43.1735 492.0506 35.6934 488.3462 29.2107 498.8896 12.8969 498.6046 9.5487 502.0953 2.2823 501.5254 3.4934 491.6944 6.3429 488.3462 3.2084 482.3621 2.8522 471.7475 6.6991 468.1855 4.0633 464.9086 4.7044 446.5289 7.3403 445.7453 7.7677 442.4683 3.5646 435.9855 4.1345 423.8036 1 417.8196 6.4854 414.1151 12.1845 414.4001 14.8204 427.0094 20.1633 421.5952 18.3111 433.9908 30.4217 450.2333 36.9045 451.3019 44.1709 441.8983 49.0151 447.3838 58.4187 445.959 65.4001 462.7714 61.5532 468.4705 83.0674 464.8373 Z" id="NG.OG" fill="#cee3f5" stroke="#6e6e6e" stroke-width="0.4">
      <desc>
        <labelrank>3</labelrank>
        <code_hasc>NG.OG</code_hasc>
        <name>Ogun</name>
        <admin>Nigeria</admin>
        <type_en>State</type_en>
        <region/>
        <woe_id>2346346</woe_id>
        <longitude>3</longitude>
        <woe_name>Ogun</woe_name>
        <fips>NI16</fips>
        <woe_label>Ogun, NG, Nigeria</woe_label>
        <latitude>7</latitude>
        <iso_a2>NG</iso_a2>
        <postal>OG</postal>
        <type>State</type>
        <id>NG.OG</id>
      </desc>
    </path>
    <path d="M 197.7622 438.6214 192.2056 443.3231 193.2741 454.6501 188.7148 458.8532 183.3719 470.394 183.5144 477.0192 179.0263 486.7077 173.1135 486.209 168.9104 488.7024 168.9816 481.721 166.2745 479.5838 149.8183 479.4413 142.4807 489.2723 141.3409 495.0427 144.1192 500.4568 135.713 513.921 143.6205 523.2533 136.9241 539.2109 122.0351 522.3984 107.0749 511.5701 111.6342 510.7152 105.5789 506.5121 112.9878 502.7365 112.7028 495.0427 111.6342 493.4754 106.6475 497.1086 102.5869 496.7524 99.1674 492.2643 110.067 480.0825 111.4205 472.3887 119.2568 463.7687 129.5864 466.0484 131.3674 451.8718 136.8528 449.8771 136.9241 447.5262 156.7998 447.3838 159.4356 454.2939 162.7126 455.5762 168.9104 450.447 174.0396 435.7006 185.0816 427.793 191.6356 427.793 197.7622 438.6214 Z" id="NG.ON" fill="#cee3f5" stroke="#6e6e6e" stroke-width="0.4">
      <desc>
        <labelrank>3</labelrank>
        <code_hasc>NG.ON</code_hasc>
        <name>Ondo</name>
        <admin>Nigeria</admin>
        <type_en>State</type_en>
        <region/>
        <woe_id>2346347</woe_id>
        <longitude>5</longitude>
        <woe_name>Ondo</woe_name>
        <fips>NI48</fips>
        <woe_label>Ondo, NG, Nigeria</woe_label>
        <latitude>7</latitude>
        <iso_a2>NG</iso_a2>
        <postal>ON</postal>
        <type>State</type>
        <id>NG.ON</id>
      </desc>
    </path>
    <path d="M 185.0816 427.793 174.0396 435.7006 168.9104 450.447 162.7126 455.5762 159.4356 454.2939 156.7998 447.3838 136.9241 447.5262 132.3648 434.9882 133.2909 422.3076 140.0586 416.1098 141.4834 411.3368 154.9475 415.1837 158.367 414.7563 160.7179 410.0545 169.1241 409.2709 167.9843 413.4027 176.9604 412.9753 173.8259 417.1784 174.2533 422.1651 185.0816 427.793 Z" id="NG.EK" fill="#cee3f5" stroke="#6e6e6e" stroke-width="0.4">
      <desc>
        <labelrank>7</labelrank>
        <code_hasc>NG.EK</code_hasc>
        <name>Ekiti</name>
        <admin>Nigeria</admin>
        <type_en>State</type_en>
        <region/>
        <woe_id>20070151</woe_id>
        <longitude>5</longitude>
        <woe_name>Ekiti</woe_name>
        <fips>NI51</fips>
        <woe_label>Ekiti, NG, Nigeria</woe_label>
        <latitude>7</latitude>
        <iso_a2>NG</iso_a2>
        <postal>EK</postal>
        <type>State</type>
        <id>NG.EK</id>
      </desc>
    </path>
    <path d="M 141.4834 411.3368 140.0586 416.1098 133.2909 422.3076 132.3648 434.9882 136.9241 447.5262 136.8528 449.8771 131.3674 451.8718 129.5864 466.0484 119.2568 463.7687 111.4205 472.3887 99.8798 472.7448 96.2466 466.2621 88.909 468.0431 87.1992 462.8426 83.0674 464.8373 87.2705 443.5368 80.859 434.632 84.0647 421.524 87.9829 422.6638 94.4656 415.3974 102.4444 421.5952 111.1355 415.9673 111.6342 410.8381 131.7949 408.2735 141.4834 411.3368 Z" id="NG.OS" fill="#cee3f5" stroke="#6e6e6e" stroke-width="0.4">
      <desc>
        <labelrank>3</labelrank>
        <code_hasc>NG.OS</code_hasc>
        <name>Osun</name>
        <admin>Nigeria</admin>
        <type_en>State</type_en>
        <region/>
        <woe_id>2346370</woe_id>
        <longitude>4</longitude>
        <woe_name>Osun</woe_name>
        <fips>NI42</fips>
        <woe_label>Osun, NG, Nigeria</woe_label>
        <latitude>7</latitude>
        <iso_a2>NG</iso_a2>
        <postal>OS</postal>
        <type>State</type>
        <id>NG.OS</id>
      </desc>
    </path>
    <path d="M 111.6342 410.8381 111.1355 415.9673 102.4444 421.5952 94.4656 415.3974 87.9829 422.6638 84.0647 421.524 80.859 434.632 87.2705 443.5368 83.0674 464.8373 61.5532 468.4705 65.4001 462.7714 58.4187 445.959 49.0151 447.3838 44.1709 441.8983 36.9045 451.3019 30.4217 450.2333 18.3111 433.9908 20.1633 421.5952 14.8204 427.0094 12.1845 414.4001 6.4854 414.1151 1 417.8196 4.9181 400.4372 2.8522 392.6722 5.7018 380.4903 16.1027 376.7146 29.4956 366.6699 35.266 367.9522 61.9094 354.1319 66.5399 345.2982 72.0253 343.1611 82.4262 352.4934 93.6107 356.0553 98.0988 354.3456 99.0961 356.6252 91.3311 364.7465 91.2598 371.8704 100.3072 394.4532 111.6342 410.8381 Z" id="NG.OY" fill="#cee3f5" stroke="#6e6e6e" stroke-width="0.4">
      <desc>
        <labelrank>3</labelrank>
        <code_hasc>NG.OY</code_hasc>
        <name>Oyo</name>
        <admin>Nigeria</admin>
        <type_en>State</type_en>
        <region/>
        <woe_id>2346360</woe_id>
        <longitude>3</longitude>
        <woe_name>Oyo</woe_name>
        <fips>NI32</fips>
        <woe_label>Oyo, NG, Nigeria</woe_label>
        <latitude>8</latitude>
        <iso_a2>NG</iso_a2>
        <postal>OY</postal>
        <type>State</type>
        <id>NG.OY</id>
      </desc>
    </path>
    <path d="M 275.7689 530.021 269.0725 535.5777 253.5424 536.6463 248.2707 545.1237 238.7959 545.9786 234.8777 549.0418 232.9543 548.8994 231.1733 547.3321 231.387 544.8387 232.3844 541.7755 236.0888 536.1476 237.0149 526.6728 240.1494 523.9657 235.5189 499.7444 242.2866 497.8922 244.9937 489.3435 248.9831 485.6391 249.4817 489.1298 260.3813 492.0506 255.7508 505.3723 260.6663 508.2931 261.8773 517.2692 265.0831 517.6967 268.7163 527.3139 275.7689 530.021 Z" id="NG.AN" fill="#cee3f5" stroke="#6e6e6e" stroke-width="0.4">
      <desc>
        <labelrank>3</labelrank>
        <code_hasc>NG.AN</code_hasc>
        <name>Anambra</name>
        <admin>Nigeria</admin>
        <type_en>State</type_en>
        <region/>
        <woe_id>2346353</woe_id>
        <longitude>6</longitude>
        <woe_name>Anambra</woe_name>
        <fips>NI25</fips>
        <woe_label>Anambra, NG, Nigeria</woe_label>
        <latitude>6</latitude>
        <iso_a2>NG</iso_a2>
        <postal>AN</postal>
        <type>State</type>
        <id>NG.AN</id>
      </desc>
    </path>
    <path d="M 488.2037 220.06 468.5417 235.0914 460.8479 254.4685 467.117 257.1043 469.6103 265.7955 477.5179 269.9986 478.8002 285.1012 471.8187 290.5154 486.3515 302.6973 492.1219 320.3646 480.2249 320.1508 462.5577 325.7787 422.3789 306.0455 418.9594 308.3252 421.4527 315.5203 414.4713 321.9318 400.9359 323.7128 389.039 321.077 380.9177 312.5283 383.4111 305.6181 381.9151 296.8557 369.3058 295.2884 367.881 279.7583 365.8151 277.265 359.0474 276.9088 353.9181 271.7795 356.554 264.4419 360.8283 257.6742 356.0553 245.991 358.05 232.9543 363.5354 231.8145 373.2952 220.5587 384.4797 217.7804 402.4319 219.9888 407.6324 223.9069 418.4607 222.4821 422.3076 228.3237 423.1625 239.1521 441.5422 240.5769 442.0408 234.5215 450.447 230.7459 452.0855 227.1839 429.4315 222.3397 421.4527 210.7989 417.3921 209.5166 419.5293 204.0312 417.6058 195.8387 407.5611 195.0551 411.9067 187.86 438.1227 178.4564 445.674 154.0214 451.8006 152.5254 456.5736 154.4489 464.1962 149.3197 472.2462 157.3697 478.3015 186.5064 485.3542 203.6038 483.8581 217.6379 488.2037 220.06 Z" id="NG.BA" fill="#cee3f5" stroke="#6e6e6e" stroke-width="0.4">
      <desc>
        <labelrank>7</labelrank>
        <code_hasc>NG.BA</code_hasc>
        <name>Bauchi</name>
        <admin>Nigeria</admin>
        <type_en>State</type_en>
        <region/>
        <woe_id>2346343</woe_id>
        <longitude>9</longitude>
        <woe_name>Bauchi</woe_name>
        <fips>NI46</fips>
        <woe_label>Bauchi, NG, Nigeria</woe_label>
        <latitude>10</latitude>
        <iso_a2>NG</iso_a2>
        <postal>BA</postal>
        <type>State</type>
        <id>NG.BA</id>
      </desc>
    </path>
    <path d="M 528.4538 260.8087 529.2374 265.9379 524.8918 275.484 542.9865 292.9375 541.9892 308.2539 529.0949 316.6601 518.8365 319.7947 492.1219 320.3646 486.3515 302.6973 471.8187 290.5154 478.8002 285.1012 477.5179 269.9986 469.6103 265.7955 467.117 257.1043 460.8479 254.4685 468.5417 235.0914 488.2037 220.06 496.1825 217.8516 507.9369 224.4768 521.4011 239.2233 522.1847 260.6663 528.4538 260.8087 Z" id="NG.GO" fill="#cee3f5" stroke="#6e6e6e" stroke-width="0.4">
      <desc>
        <labelrank>3</labelrank>
        <code_hasc>NG.GO</code_hasc>
        <name>Gombe</name>
        <admin>Nigeria</admin>
        <type_en>State</type_en>
        <region/>
        <woe_id>20070155</woe_id>
        <longitude>11</longitude>
        <woe_name>Gombe</woe_name>
        <fips>NI55</fips>
        <woe_label>Gombe, NG, Nigeria</woe_label>
        <latitude>10</latitude>
        <iso_a2>NG</iso_a2>
        <postal>GO</postal>
        <type>State</type>
        <id>NG.GO</id>
      </desc>
    </path>
    <path d="M 231.1733 547.3321 227.6826 560.3689 226.0441 562.2923 224.6905 562.9335 223.7644 563.7883 223.4082 564.0733 224.4768 566.7091 215.0733 569.9861 212.4374 574.2605 207.7357 574.9016 207.8069 578.9622 198.3321 583.5928 192.348 580.3158 188.0024 584.2339 175.6781 588.1521 163.6387 581.6693 165.7046 581.2419 163.0688 578.3923 158.0821 579.9596 156.9422 568.5613 164.1374 569.5587 170.6201 567.1366 168.0555 561.5799 174.3246 557.8755 167.0582 560.2976 165.1347 565.4268 161.5728 563.9308 162.1427 566.2817 152.098 563.8596 148.3223 560.0127 149.2484 555.6671 159.7918 556.5932 161.7865 553.0312 165.6334 555.4534 166.2033 553.3162 161.929 551.0365 160.0055 553.9573 155.8736 553.9573 156.586 546.9759 153.1666 553.2449 147.2537 555.2396 144.2617 552.5326 141.9108 547.8308 142.7657 542.844 145.7577 543.6989 153.879 536.0051 139.9873 544.4113 136.9241 539.2109 143.6205 523.2533 150.4595 528.4538 151.5281 536.2901 156.0161 533.0131 156.3011 529.5936 167.9843 531.8732 175.8206 528.525 189.4985 538.071 188.9998 545.8361 196.8361 544.9812 208.733 532.5144 201.5379 523.1108 199.8281 511.7126 203.2476 510.7152 207.5219 514.206 211.5113 510.1453 235.5189 499.7444 240.1494 523.9657 237.0149 526.6728 236.0888 536.1476 232.3844 541.7755 231.387 544.8387 231.1733 547.3321 Z" id="NG.DE" fill="#cee3f5" stroke="#6e6e6e" stroke-width="0.4">
      <desc>
        <labelrank>3</labelrank>
        <code_hasc>NG.DE</code_hasc>
        <name>Delta</name>
        <admin>Nigeria</admin>
        <type_en>State</type_en>
        <region/>
        <woe_id>2346364</woe_id>
        <longitude>5</longitude>
        <woe_name>Delta</woe_name>
        <fips>NI36</fips>
        <woe_label>Delta, NG, Nigeria</woe_label>
        <latitude>5</latitude>
        <iso_a2>NG</iso_a2>
        <postal>DE</postal>
        <type>State</type>
        <id>NG.DE</id>
      </desc>
    </path>
    <path d="M 235.5189 499.7444 211.5113 510.1453 207.5219 514.206 203.2476 510.7152 199.8281 511.7126 201.5379 523.1108 208.733 532.5144 196.8361 544.9812 188.9998 545.8361 189.4985 538.071 175.8206 528.525 167.9843 531.8732 156.3011 529.5936 156.0161 533.0131 151.5281 536.2901 150.4595 528.4538 143.6205 523.2533 135.713 513.921 144.1192 500.4568 141.3409 495.0427 142.4807 489.2723 149.8183 479.4413 166.2745 479.5838 168.9816 481.721 168.9104 488.7024 173.1135 486.209 179.0263 486.7077 183.5144 477.0192 183.3719 470.394 188.7148 458.8532 193.2741 454.6501 192.2056 443.3231 197.7622 438.6214 202.6065 441.3284 203.8175 447.2413 211.5826 445.1041 216.6405 450.1621 221.4136 449.8059 225.9729 457.7134 232.8118 456.0749 236.8724 459.4944 238.1547 463.6975 233.9516 481.5785 235.5189 499.7444 Z" id="NG.ED" fill="#cee3f5" stroke="#6e6e6e" stroke-width="0.4">
      <desc>
        <labelrank>3</labelrank>
        <code_hasc>NG.ED</code_hasc>
        <name>Edo</name>
        <admin>Nigeria</admin>
        <type_en>State</type_en>
        <region/>
        <woe_id>2346365</woe_id>
        <longitude>5</longitude>
        <woe_name>Edo</woe_name>
        <fips>NI37</fips>
        <woe_label>Edo, NG, Nigeria</woe_label>
        <latitude>6</latitude>
        <iso_a2>NG</iso_a2>
        <postal>ED</postal>
        <type>State</type>
        <id>NG.ED</id>
      </desc>
    </path>
    <path d="M 283.534 468.1855 286.3835 475.2382 292.0827 480.7236 302.9822 480.8661 305.1194 485.9953 303.0535 494.3303 295.3597 495.6838 297.6393 503.1639 295.0035 515.1321 297.4256 525.3905 294.861 528.6675 295.1459 534.6516 285.7424 532.8706 281.8955 529.9498 275.7689 530.021 268.7163 527.3139 265.0831 517.6967 261.8773 517.2692 260.6663 508.2931 255.7508 505.3723 260.3813 492.0506 249.4817 489.1298 248.9831 485.6391 252.545 481.2935 255.7508 485.4966 278.761 466.2621 283.534 468.1855 Z" id="NG.EN" fill="#cee3f5" stroke="#6e6e6e" stroke-width="0.4">
      <desc>
        <labelrank>7</labelrank>
        <code_hasc>NG.EN</code_hasc>
        <name>Enugu</name>
        <admin>Nigeria</admin>
        <type_en>State</type_en>
        <region/>
        <woe_id>2346366</woe_id>
        <longitude>7</longitude>
        <woe_name>Enugu</woe_name>
        <fips>NI47</fips>
        <woe_label>Enugu, NG, Nigeria</woe_label>
        <latitude>6</latitude>
        <iso_a2>NG</iso_a2>
        <postal>EN</postal>
        <type>State</type>
        <id>NG.EN</id>
      </desc>
    </path>
    <path d="M 330.338 491.6944 338.7442 505.9422 335.2535 509.7891 335.4672 517.483 327.6309 530.2347 324.3539 529.5224 318.8685 534.2241 311.6734 531.7308 305.9743 549.4693 297.3544 541.9179 285.315 540.0657 285.7424 532.8706 295.1459 534.6516 294.861 528.6675 297.4256 525.3905 295.0035 515.1321 297.6393 503.1639 295.3597 495.6838 303.0535 494.3303 309.0376 500.813 313.0982 490.4834 320.1508 489.6285 325.9924 484.8555 330.338 491.6944 Z" id="NG.EB" fill="#cee3f5" stroke="#6e6e6e" stroke-width="0.4">
      <desc>
        <labelrank>3</labelrank>
        <code_hasc>NG.EB</code_hasc>
        <name>Ebonyi</name>
        <admin>Nigeria</admin>
        <type_en>State</type_en>
        <region/>
        <woe_id>20070153</woe_id>
        <longitude>7</longitude>
        <woe_name>Ebonyi</woe_name>
        <fips>NI53</fips>
        <woe_label/>
        <latitude>6</latitude>
        <iso_a2>NG</iso_a2>
        <postal>EB</postal>
        <type>State</type>
        <id>NG.EB</id>
      </desc>
    </path>
    <path d="M 356.554 264.4419 353.9181 271.7795 359.0474 276.9088 351.8522 286.7397 350.1425 311.9584 345.9394 318.5123 345.9394 326.8473 353.277 336.3933 351.8522 343.3035 343.8022 355.058 341.5938 355.3429 335.8947 348.504 328.6995 346.2956 319.1535 354.9867 317.0876 342.4487 310.5336 334.9686 306.9004 335.5385 302.6973 340.5964 291.584 337.0345 286.5973 334.6124 283.4627 338.1031 273.2043 337.7469 270.3548 337.8894 267.8614 330.7655 274.8428 320.792 272.3495 314.9504 267.8614 311.6734 272.4207 309.3938 271.4946 297.853 255.7508 295.4309 248.9831 290.2305 259.099 280.8981 259.2415 278.9034 252.1176 274.9141 252.83 268.1464 246.7034 265.7242 245.8485 259.8114 241.9304 258.9565 239.0096 262.9459 230.3184 264.9406 226.2578 261.7348 222.1259 262.5897 207.3082 274.9853 202.6777 267.7902 204.0312 248.7693 206.8808 245.4923 216.2843 235.5901 225.0467 237.0149 237.3711 233.168 241.3605 223.1233 248.7693 216.2131 257.1755 218.9202 255.1809 225.4029 266.3654 231.1733 269.7136 228.6799 269.6424 222.3397 276.1251 223.1233 282.6791 216.2131 293.8636 221.7697 300.6314 216.8543 311.3884 211.4401 321.5756 209.8728 321.3619 217.9941 339.0292 226.8277 344.942 233.168 345.8681 252.83 341.3801 257.2468 356.554 264.4419 Z" id="NG.KD" fill="#cee3f5" stroke="#6e6e6e" stroke-width="0.4">
      <desc>
        <labelrank>7</labelrank>
        <code_hasc>NG.KD</code_hasc>
        <name>Kaduna</name>
        <admin>Nigeria</admin>
        <type_en>State</type_en>
        <region/>
        <woe_id>2346351</woe_id>
        <longitude>7</longitude>
        <woe_name>Kaduna</woe_name>
        <fips>NI23</fips>
        <woe_label>Kaduna, NG, Nigeria</woe_label>
        <latitude>10</latitude>
        <iso_a2>NG</iso_a2>
        <postal>KD</postal>
        <type>State</type>
        <id>NG.KD</id>
      </desc>
    </path>
    <path d="M 245.2074 389.8939 253.6136 389.6801 251.6189 395.4505 254.6822 404.2841 251.1202 421.1678 271.4946 412.1917 293.7212 412.4054 294.2911 421.8802 298.8504 428.2205 300.5601 446.4576 306.188 448.2386 300.6314 462.5577 292.8663 466.7608 291.7265 471.7475 283.534 468.1855 278.761 466.2621 255.7508 485.4966 252.545 481.2935 248.9831 485.6391 244.9937 489.3435 242.2866 497.8922 235.5189 499.7444 233.9516 481.5785 238.1547 463.6975 236.8724 459.4944 232.8118 456.0749 225.9729 457.7134 221.4136 449.8059 216.6405 450.1621 211.5826 445.1041 203.8175 447.2413 202.6065 441.3284 197.7622 438.6214 191.6356 427.793 185.0816 427.793 174.2533 422.1651 173.8259 417.1784 176.9604 412.9753 167.9843 413.4027 169.1241 409.2709 168.6967 405.7802 158.2958 394.7381 165.4909 384.5509 168.1268 382.2 179.24 388.3266 201.4666 391.2474 209.1604 370.7306 218.1366 373.6514 223.622 388.3266 236.8012 401.5771 245.2074 389.8939 Z" id="NG.KO" fill="#cee3f5" stroke="#6e6e6e" stroke-width="0.4">
      <desc>
        <labelrank>3</labelrank>
        <code_hasc>NG.KO</code_hasc>
        <name>Kogi</name>
        <admin>Nigeria</admin>
        <type_en>State</type_en>
        <region/>
        <woe_id>2346369</woe_id>
        <longitude>6</longitude>
        <woe_name>Kogi</woe_name>
        <fips>NI41</fips>
        <woe_label>Kogi, NG, Nigeria</woe_label>
        <latitude>7</latitude>
        <iso_a2>NG</iso_a2>
        <postal>KO</postal>
        <type>State</type>
        <id>NG.KO</id>
      </desc>
    </path>
    <path d="M 462.5577 325.7787 467.6869 348.7889 466.1909 361.9682 443.4656 369.9469 436.2705 379.0655 419.5293 391.9598 407.7036 393.3133 395.5217 385.4058 377.3558 387.258 368.8783 383.7673 364.9602 371.3005 375.931 355.9128 373.2952 353.4907 361.7544 353.9181 358.05 347.0792 351.8522 343.3035 353.277 336.3933 345.9394 326.8473 345.9394 318.5123 350.1425 311.9584 351.8522 286.7397 359.0474 276.9088 365.8151 277.265 367.881 279.7583 369.3058 295.2884 381.9151 296.8557 383.4111 305.6181 380.9177 312.5283 389.039 321.077 400.9359 323.7128 414.4713 321.9318 421.4527 315.5203 418.9594 308.3252 422.3789 306.0455 462.5577 325.7787 Z" id="NG.PL" fill="#cee3f5" stroke="#6e6e6e" stroke-width="0.4">
      <desc>
        <labelrank>3</labelrank>
        <code_hasc>NG.PL</code_hasc>
        <name>Plateau</name>
        <admin>Nigeria</admin>
        <type_en>State</type_en>
        <region/>
        <woe_id>2346348</woe_id>
        <longitude>9</longitude>
        <woe_name>Plateau</woe_name>
        <fips>NI49</fips>
        <woe_label>Plateau, NG, Nigeria</woe_label>
        <latitude>8</latitude>
        <iso_a2>NG</iso_a2>
        <postal>PL</postal>
        <type>State</type>
        <id>NG.PL</id>
      </desc>
    </path>
    <path d="M 351.8522 343.3035 358.05 347.0792 361.7544 353.9181 373.2952 353.4907 375.931 355.9128 364.9602 371.3005 368.8783 383.7673 377.3558 387.258 395.5217 385.4058 407.7036 393.3133 403.7142 397.374 391.3186 395.308 389.5377 399.9386 392.6722 403.8567 393.3846 410.5532 381.7014 418.9594 370.5168 410.6957 361.9682 410.9806 345.9394 406.1364 338.1743 406.9912 333.9712 413.9014 337.7469 427.1519 320.2933 419.0306 293.7212 412.4054 271.4946 412.1917 251.1202 421.1678 254.6822 404.2841 251.6189 395.4505 253.6136 389.6801 270.2835 386.1894 280.3282 379.7067 284.9588 369.377 291.584 337.0345 302.6973 340.5964 306.9004 335.5385 310.5336 334.9686 317.0876 342.4487 319.1535 354.9867 328.6995 346.2956 335.8947 348.504 341.5938 355.3429 343.8022 355.058 351.8522 343.3035 Z" id="NG.NA" fill="#cee3f5" stroke="#6e6e6e" stroke-width="0.4">
      <desc>
        <labelrank>3</labelrank>
        <code_hasc>NG.NA</code_hasc>
        <name>Nassarawa</name>
        <admin>Nigeria</admin>
        <type_en>State</type_en>
        <region/>
        <woe_id>20070154</woe_id>
        <longitude>8</longitude>
        <woe_name>Nassarawa</woe_name>
        <fips>NI56</fips>
        <woe_label>Nassarawa, NG, Nigeria</woe_label>
        <latitude>8</latitude>
        <iso_a2>NG</iso_a2>
        <postal>NA</postal>
        <type>State</type>
        <id>NG.NA</id>
      </desc>
    </path>
    <path d="M 464.1962 149.3197 456.5736 154.4489 451.8006 152.5254 445.674 154.0214 438.1227 178.4564 411.9067 187.86 407.5611 195.0551 417.6058 195.8387 419.5293 204.0312 417.3921 209.5166 421.4527 210.7989 429.4315 222.3397 452.0855 227.1839 450.447 230.7459 442.0408 234.5215 441.5422 240.5769 423.1625 239.1521 422.3076 228.3237 418.4607 222.4821 407.6324 223.9069 402.4319 219.9888 384.4797 217.7804 386.1182 211.2976 391.7461 205.3135 384.5509 197.1923 378.923 195.91 383.2686 184.6542 381.8438 177.4591 373.5801 178.5277 373.0814 175.6069 367.7385 175.6069 368.2372 166.2745 365.8863 163.2113 358.9761 161.7152 357.8363 156.3011 353.4907 153.5228 352.7783 147.6099 340.8102 146.1851 334.5411 154.3064 329.9818 145.8289 328.0584 142.7657 320.4358 140.771 321.6469 131.5099 344.5858 130.5838 348.219 137.2803 357.9788 139.4887 366.385 135.2143 370.0182 129.8002 405.3527 132.1511 408.6297 130.3701 415.6824 132.5785 423.305 126.5944 440.4736 121.9639 444.0355 131.5099 459.9931 133.4334 464.1962 149.3197 Z" id="NG.JI" fill="#cee3f5" stroke="#6e6e6e" stroke-width="0.4">
      <desc>
        <labelrank>3</labelrank>
        <code_hasc>NG.JI</code_hasc>
        <name>Jigawa</name>
        <admin>Nigeria</admin>
        <type_en>State</type_en>
        <region/>
        <woe_id>2346367</woe_id>
        <longitude>9</longitude>
        <woe_name>Jigawa</woe_name>
        <fips>NI39</fips>
        <woe_label>Jigawa, NG, Nigeria</woe_label>
        <latitude>12</latitude>
        <iso_a2>NG</iso_a2>
        <postal>JI</postal>
        <type>State</type>
        <id>NG.JI</id>
      </desc>
    </path>
    <path d="M 384.4797 217.7804 373.2952 220.5587 363.5354 231.8145 358.05 232.9543 356.0553 245.991 360.8283 257.6742 356.554 264.4419 341.3801 257.2468 345.8681 252.83 344.942 233.168 339.0292 226.8277 321.3619 217.9941 321.5756 209.8728 311.3884 211.4401 300.6314 216.8543 295.7159 210.4427 297.1406 204.8149 307.4703 199.7569 303.9796 184.2268 304.4783 163.6387 319.0823 156.7998 324.4964 146.6838 329.9818 145.8289 334.5411 154.3064 340.8102 146.1851 352.7783 147.6099 353.4907 153.5228 357.8363 156.3011 358.9761 161.7152 365.8863 163.2113 368.2372 166.2745 367.7385 175.6069 373.0814 175.6069 373.5801 178.5277 381.8438 177.4591 383.2686 184.6542 378.923 195.91 384.5509 197.1923 391.7461 205.3135 386.1182 211.2976 384.4797 217.7804 Z" id="NG.KN" fill="#cee3f5" stroke="#6e6e6e" stroke-width="0.4">
      <desc>
        <labelrank>7</labelrank>
        <code_hasc>NG.KN</code_hasc>
        <name>Kano</name>
        <admin>Nigeria</admin>
        <type_en>State</type_en>
        <region/>
        <woe_id>2346357</woe_id>
        <longitude>8</longitude>
        <woe_name>Kano</woe_name>
        <fips>NI29</fips>
        <woe_label>Kano, NG, Nigeria</woe_label>
        <latitude>11</latitude>
        <iso_a2>NG</iso_a2>
        <postal>KN</postal>
        <type>State</type>
        <id>NG.KN</id>
      </desc>
    </path>
    <path d="M 370.0182 129.8002 366.385 135.2143 357.9788 139.4887 348.219 137.2803 344.5858 130.5838 321.6469 131.5099 320.4358 140.771 328.0584 142.7657 329.9818 145.8289 324.4964 146.6838 319.0823 156.7998 304.4783 163.6387 303.9796 184.2268 307.4703 199.7569 297.1406 204.8149 295.7159 210.4427 300.6314 216.8543 293.8636 221.7697 282.6791 216.2131 276.1251 223.1233 269.6424 222.3397 269.7136 228.6799 266.3654 231.1733 255.1809 225.4029 257.1755 218.9202 248.7693 216.2131 250.764 192.7042 259.5977 191.9918 265.7242 185.4378 269.2862 185.2954 268.645 181.8047 262.376 176.8179 265.0118 170.0502 260.5238 150.9582 259.8114 120.6103 267.6477 113.4864 278.761 113.8426 303.6946 100.3072 319.7947 103.0143 337.0345 116.4072 344.4434 116.8347 352.8496 125.0984 370.0182 129.8002 Z" id="NG.KT" fill="#cee3f5" stroke="#6e6e6e" stroke-width="0.4">
      <desc>
        <labelrank>7</labelrank>
        <code_hasc>NG.KT</code_hasc>
        <name>Katsina</name>
        <admin>Nigeria</admin>
        <type_en>State</type_en>
        <region/>
        <woe_id>2346352</woe_id>
        <longitude>7</longitude>
        <woe_name>Katsina</woe_name>
        <fips>NI24</fips>
        <woe_label>Katsina, NG, Nigeria</woe_label>
        <latitude>12</latitude>
        <iso_a2>NG</iso_a2>
        <postal>KT</postal>
        <type>State</type>
        <id>NG.KT</id>
      </desc>
    </path>
    <path d="M 242.0729 109.9957 234.664 114.7687 215.572 110.4944 213.7197 116.6209 202.179 118.6156 200.683 133.5046 183.4432 136.0692 172.4723 147.3962 173.3984 160.148 170.4776 163.2113 144.3329 162.2139 142.1245 169.1953 141.3409 196.7648 132.721 195.9812 117.0484 204.8149 112.5603 201.8228 117.9032 181.5909 117.832 158.9369 119.9692 155.3037 130.655 154.3776 130.7263 131.8661 127.5918 124.8134 130.5838 112.774 122.1063 115.6948 103.1568 105.2227 90.405 106.0063 91.0461 90.6187 98.0988 89.4789 110.067 79.078 133.3621 73.5926 137.2803 76.0147 156.6573 75.4448 161.5728 70.0306 171.6887 67.8934 207.1657 82.355 212.2237 80.1466 220.1313 83.2811 237.4423 101.3758 242.0729 109.9957 Z" id="NG.SO" fill="#cee3f5" stroke="#6e6e6e" stroke-width="0.4">
      <desc>
        <labelrank>7</labelrank>
        <code_hasc>NG.SO</code_hasc>
        <name>Sokoto</name>
        <admin>Nigeria</admin>
        <type_en>State</type_en>
        <region/>
        <woe_id>2346361</woe_id>
        <longitude>5</longitude>
        <woe_name>Sokoto</woe_name>
        <fips>NI51</fips>
        <woe_label>Sokoto, NG, Nigeria</woe_label>
        <latitude>13</latitude>
        <iso_a2>NG</iso_a2>
        <postal>SO</postal>
        <type>State</type>
        <id>NG.SO</id>
      </desc>
    </path>
    <path d="M 259.8114 120.6103 260.5238 150.9582 265.0118 170.0502 262.376 176.8179 268.645 181.8047 269.2862 185.2954 265.7242 185.4378 259.5977 191.9918 250.764 192.7042 248.7693 216.2131 241.3605 223.1233 237.3711 233.168 225.0467 237.0149 216.2843 235.5901 206.8808 245.4923 199.1157 230.8171 198.6883 221.841 190.9945 212.0812 192.7755 203.675 190.0684 200.968 172.8998 200.683 162.2852 194.8414 155.09 194.6277 148.1798 198.4033 141.3409 196.7648 142.1245 169.1953 144.3329 162.2139 170.4776 163.2113 173.3984 160.148 172.4723 147.3962 183.4432 136.0692 200.683 133.5046 202.179 118.6156 213.7197 116.6209 215.572 110.4944 234.664 114.7687 242.0729 109.9957 250.8353 119.8979 259.8114 120.6103 Z" id="NG.ZA" fill="#cee3f5" stroke="#6e6e6e" stroke-width="0.4">
      <desc>
        <labelrank>3</labelrank>
        <code_hasc>NG.ZA</code_hasc>
        <name>Zamfara</name>
        <admin>Nigeria</admin>
        <type_en>State</type_en>
        <region/>
        <woe_id>20070150</woe_id>
        <longitude>6</longitude>
        <woe_name>Zamfara</woe_name>
        <fips>NI57</fips>
        <woe_label>Zamfara, NG, Nigeria</woe_label>
        <latitude>12</latitude>
        <iso_a2>NG</iso_a2>
        <postal>ZA</postal>
        <type>State</type>
        <id>NG.ZA</id>
      </desc>
    </path>
    <path d="M 566.2817 114.2701 565.0706 125.6683 572.4795 138.0639 562.2923 151.3143 562.7197 185.794 558.7304 197.6197 564.572 198.4746 567.7065 204.6011 556.8069 219.9175 555.2396 233.8804 537.9998 241.6454 534.7228 245.2786 533.7967 256.9618 528.4538 260.8087 522.1847 260.6663 521.4011 239.2233 507.9369 224.4768 496.1825 217.8516 488.2037 220.06 483.8581 217.6379 485.3542 203.6038 478.3015 186.5064 472.2462 157.3697 464.1962 149.3197 459.9931 133.4334 444.0355 131.5099 440.4736 121.9639 423.305 126.5944 415.6824 132.5785 408.6297 130.3701 424.801 111.7767 435.6293 105.5789 467.5444 98.0276 511.5701 98.17 535.364 104.8665 547.3321 112.2754 566.2817 114.2701 Z" id="NG.YO" fill="#cee3f5" stroke="#6e6e6e" stroke-width="0.4">
      <desc>
        <labelrank>3</labelrank>
        <code_hasc>NG.YO</code_hasc>
        <name>Yobe</name>
        <admin>Nigeria</admin>
        <type_en>State</type_en>
        <region/>
        <woe_id>2346372</woe_id>
        <longitude>11</longitude>
        <woe_name>Yobe</woe_name>
        <fips>NI44</fips>
        <woe_label>Yobe, NG, Nigeria</woe_label>
        <latitude>12</latitude>
        <iso_a2>NG</iso_a2>
        <postal>YO</postal>
        <type>State</type>
        <id>NG.YO</id>
      </desc>
    </path>
    <path d="M 141.3409 196.7648 148.1798 198.4033 155.09 194.6277 162.2852 194.8414 172.8998 200.683 190.0684 200.968 192.7755 203.675 190.9945 212.0812 198.6883 221.841 199.1157 230.8171 195.3401 229.7485 190.852 234.1653 167.1294 239.5795 164.2799 228.1813 156.2298 216.7118 134.8581 219.7751 126.8081 223.2658 125.8108 226.9702 129.444 229.8198 142.6232 234.8777 143.9767 241.2892 141.1272 244.78 144.6891 251.6901 129.159 255.8932 128.4466 268.2176 132.8634 275.8402 129.6577 280.8269 118.8294 283.534 117.4046 289.4468 112.0616 287.9508 113.4152 279.3309 109.8532 274.7716 110.067 268.1464 121.109 257.3893 123.2462 242.2154 106.7187 234.664 81.6426 235.3052 70.1019 228.8937 64.3315 228.6087 50.7961 209.4454 57.2788 195.9812 62.7642 190.9945 59.2023 182.3033 62.1943 177.6016 62.0518 146.3276 78.9355 132.9347 88.4103 118.6156 90.405 106.0063 103.1568 105.2227 122.1063 115.6948 130.5838 112.774 127.5918 124.8134 130.7263 131.8661 130.655 154.3776 119.9692 155.3037 117.832 158.9369 117.9032 181.5909 112.5603 201.8228 117.0484 204.8149 132.721 195.9812 141.3409 196.7648 Z" id="NG.KE" fill="#cee3f5" stroke="#6e6e6e" stroke-width="0.4">
      <desc>
        <labelrank>3</labelrank>
        <code_hasc>NG.KE</code_hasc>
        <name>Kebbi</name>
        <admin>Nigeria</admin>
        <type_en>State</type_en>
        <region/>
        <woe_id>2346368</woe_id>
        <longitude>4</longitude>
        <woe_name>Kebbi</woe_name>
        <fips>NI40</fips>
        <woe_label>Kebbi, NG, Nigeria</woe_label>
        <latitude>11</latitude>
        <iso_a2>NG</iso_a2>
        <postal>KE</postal>
        <type>State</type>
        <id>NG.KE</id>
      </desc>
    </path>
    <path d="M 541.9179 445.2466 536.0051 424.5873 526.744 416.6085 518.979 422.0227 512.425 409.912 538.7834 379.4217 539.4246 371.3005 545.1949 359.1186 544.7675 355.058 536.575 346.9367 533.0131 335.0398 524.3219 329.8394 518.8365 319.7947 529.0949 316.6601 541.9892 308.2539 542.9865 292.9375 552.4613 293.365 568.9888 277.3362 582.0968 273.8455 594.7773 261.8061 604.6083 261.3074 619.2835 268.7163 622.2043 267.0778 627.1911 251.1915 628.3309 239.722 635.526 240.933 647.3517 238.6534 635.3835 257.8167 629.7557 285.4574 617.93 292.0114 617.0751 302.3411 620.0672 306.3305 616.2915 321.6469 603.8959 325.7787 596.5583 331.5491 599.1229 338.3168 594.8485 348.1478 592.1415 368.0235 588.437 368.5221 585.6587 373.9363 579.6746 377.2133 568.6326 377.0708 570.6985 383.6961 560.4401 390.2501 558.9441 414.4713 548.6144 429.6452 548.7569 437.9802 541.9179 445.2466 Z" id="NG.AD" fill="#cee3f5" stroke="#6e6e6e" stroke-width="0.4">
      <desc>
        <labelrank>3</labelrank>
        <code_hasc>NG.AD</code_hasc>
        <name>Adamawa</name>
        <admin>Nigeria</admin>
        <type_en>State</type_en>
        <region/>
        <woe_id>2346363</woe_id>
        <longitude>12</longitude>
        <woe_name>Adamawa</woe_name>
        <fips>NI35</fips>
        <woe_label>Adamawa, NG, Nigeria</woe_label>
        <latitude>9</latitude>
        <iso_a2>NG</iso_a2>
        <postal>AD</postal>
        <type>State</type>
        <id>NG.AD</id>
      </desc>
    </path>
    <path d="M 291.584 337.0345 284.9588 369.377 280.3282 379.7067 270.2835 386.1894 253.6136 389.6801 245.2074 389.8939 240.7906 386.0469 240.7193 342.5199 252.9012 341.4513 264.5844 349.4301 273.2043 337.7469 283.4627 338.1031 286.5973 334.6124 291.584 337.0345 Z" id="NG.FC" fill="#cee3f5" stroke="#6e6e6e" stroke-width="0.4">
      <desc>
        <labelrank>3</labelrank>
        <code_hasc>NG.FC</code_hasc>
        <name>Federal Capital Territory</name>
        <admin>Nigeria</admin>
        <type_en>State</type_en>
        <region/>
        <woe_id>2346345</woe_id>
        <longitude>7</longitude>
        <woe_name>Federal Capital Territory</woe_name>
        <fips>NI11</fips>
        <woe_label>Abuja Capital Territory, NG, Nigeria</woe_label>
        <latitude>8</latitude>
        <iso_a2>NG</iso_a2>
        <postal>FC</postal>
        <type>State</type>
        <id>NG.FC</id>
      </desc>
    </path>
  </g>
</svg>