<?xml version="1.0" encoding="UTF-8"?>
<svg xmlns="http://www.w3.org/2000/svg" width="700" height="700">
  <g id="sudan">
    <path d="M 565.1776 500.61 560.9688 505.1058 562.3079 514.6714 557.3338 526.724 558.96 530.4546 556.2816 540.6897 557.9078 544.229 550.1597 552.6467 549.4901 549.8727 541.8376 544.0377 534.6634 549.5857 529.498 558.0991 531.8894 572.8301 522.6108 596.5527 521.6542 606.3096 514.3844 606.4052 513.5235 599.3267 517.1584 589.0915 516.6801 580.7695 514.3844 575.3171 491.1401 555.4207 480.7136 551.6901 482.4354 547.0987 477.5569 514.5757 479.5657 510.8451 482.3397 488.1747 486.9312 485.9746 494.9663 486.8355 525.2892 467.0348 532.1764 464.2608 538.8723 468.661 548.7248 483.105 563.1688 496.7837 565.1776 500.61 Z" id="SD.BN" fill="#cee3f5" stroke="#6e6e6e" stroke-width="0.4">
      <desc>
        <labelrank>3</labelrank>
        <code_hasc>SD.BN</code_hasc>
        <name>Blue Nile</name>
        <admin>Sudan</admin>
        <type_en>State</type_en>
        <region>Blue Nile</region>
        <woe_id>20069913</woe_id>
        <longitude>34</longitude>
        <woe_name>Blue Nile</woe_name>
        <fips>SU42</fips>
        <woe_label>An Nil al Azraq, SD, Sudan</woe_label>
        <latitude>11</latitude>
        <iso_a2>SD</iso_a2>
        <postal>BN</postal>
        <type>Wilayat</type>
        <id>SD.BN</id>
      </desc>
    </path>
    <path d="M 594.4483 277.3495 593.2047 277.0625 578.0911 269.984 556.9512 257.1661 554.5598 254.8704 550.2553 248.6527 543.5594 237.2697 536.8635 231.1477 512.1843 220.5299 490.7574 174.0412 492.6705 167.154 488.94 149.3621 489.5139 141.4226 490.2792 138.9356 490.8531 137.7877 490.9487 137.5964 490.1835 130.0396 489.6096 128.6048 487.5051 124.8742 484.3485 119.5175 479.9483 117.8913 473.0611 110.9085 473.5394 101.1516 475.7395 95.6992 474.6873 90.1512 472.2959 87.5685 483.2963 77.9072 466.8435 66.2372 541.7419 62.698 617.023 58.2978 615.3012 59.7326 616.7361 60.8805 618.1709 73.3157 628.4061 88.812 637.1107 97.8993 634.815 100.2907 631.9453 96.4644 635.4846 98.1862 633.5715 95.0296 630.6061 94.36 629.9365 91.299 628.2147 91.9686 629.0756 97.134 627.9278 99.2385 630.7018 103.4473 635.0063 119.5175 633.4758 129.083 636.1542 138.9356 634.9106 143.6227 638.6412 153.284 638.3543 162.4669 648.1111 193.0767 652.7983 199.1031 658.3463 197.6682 661.216 198.9117 662.0769 202.3554 669.1554 203.8858 677.7644 210.8687 676.0426 213.834 679.4862 217.9472 683.4081 217.8516 685.7995 214.9819 684.6516 217.9472 682.2602 219.0951 688.9561 219.8604 689.5301 218.3299 691.5389 221.8691 693.9302 221.6778 694.9825 224.6431 696.226 223.9736 695.3651 222.1561 697.9478 224.2605 699 227.0345 693.2607 232.7739 690.104 241.3829 685.6082 245.8787 684.8429 249.2267 679.9645 248.6527 678.3384 251.6181 676.6166 248.7484 670.8772 253.7225 666.764 252.3833 663.703 256.6878 654.5201 260.3227 654.807 266.349 651.2678 272.8536 647.3459 271.8971 640.0761 274.0015 634.3367 271.8014 594.4483 277.3495 Z" id="SD.RS" fill="#cee3f5" stroke="#6e6e6e" stroke-width="0.4">
      <desc>
        <labelrank>3</labelrank>
        <code_hasc>SD.RS</code_hasc>
        <name>Red Sea</name>
        <admin>Sudan</admin>
        <type_en>State</type_en>
        <region>Kassala</region>
        <woe_id>20069904</woe_id>
        <longitude>35</longitude>
        <woe_name>Red Sea</woe_name>
        <fips>EG02</fips>
        <woe_label>Al Bahr al Ahmar, SD, Sudan</woe_label>
        <latitude>19</latitude>
        <iso_a2>SD</iso_a2>
        <postal>RS</postal>
        <type>Wilayat</type>
        <id>SD.RS</id>
      </desc>
    </path>
    <path d="M 146.0141 454.2169 148.3099 470.7654 147.449 482.6267 143.1444 488.4617 143.3358 517.7324 160.7451 535.1417 170.789 563.1688 170.502 567.856 138.1703 573.404 133.7702 587.0828 126.1177 593.3961 125.8308 606.2139 120.9523 612.5272 120.0914 620.9449 115.6912 628.5017 115.4043 633.6671 108.0388 635.102 99.0471 641.7022 74.5593 639.5978 71.4983 640.937 69.6808 637.3977 72.7418 633.1888 73.4114 629.267 72.3592 628.3104 69.5852 629.8409 67.7677 627.2582 69.4895 620.7536 72.7418 620.1797 76.2811 616.2578 76.9507 609.9445 75.2289 605.0661 78.1942 598.5615 77.0463 591.1003 62.2197 566.1342 50.2627 555.4207 62.8893 537.4374 82.8813 524.6196 91.7773 496.3055 94.647 477.4613 119.6131 452.4951 132.431 454.5039 146.0141 454.2169 Z" id="SD.SD" fill="#cee3f5" stroke="#6e6e6e" stroke-width="0.4">
      <desc>
        <labelrank>3</labelrank>
        <code_hasc>SD.SD</code_hasc>
        <name>Southern Darfur</name>
        <admin>Sudan</admin>
        <type_en>State</type_en>
        <region>Darfur</region>
        <woe_id>20069893</woe_id>
        <longitude>24</longitude>
        <woe_name>South Darfur</woe_name>
        <fips>SU49</fips>
        <woe_label>Janub Darfur, SD, Sudan</woe_label>
        <latitude>11</latitude>
        <iso_a2>SD</iso_a2>
        <postal>SD</postal>
        <type>Wilayat</type>
        <id>SD.SD</id>
      </desc>
    </path>
    <path d="M 227.8954 507.5928 229.3303 524.9065 232.7739 543.0811 257.9313 603.2486 223.2083 602.7703 203.8858 608.2227 184.946 587.6567 181.6937 586.4132 177.7718 580.6738 173.276 578.0911 172.7977 570.8213 170.502 567.856 170.789 563.1688 160.7451 535.1417 143.3358 517.7324 143.1444 488.4617 147.449 482.6267 148.3099 470.7654 146.0141 454.2169 152.2317 456.2257 177.7718 476.1221 177.8675 478.5135 171.4585 481.8614 185.6156 498.6012 195.6594 500.2274 205.4163 506.6363 227.8954 507.5928 Z" id="SD.7282" fill="#cee3f5" stroke="#6e6e6e" stroke-width="0.4">
      <desc>
        <labelrank>3</labelrank>
        <code_hasc>SD.SD</code_hasc>
        <name>Eastern Darfur</name>
        <admin>Sudan</admin>
        <type_en>State</type_en>
        <region>Darfur</region>
        <woe_id>20069893</woe_id>
        <longitude>26</longitude>
        <woe_name>South Darfur</woe_name>
        <fips>SU49</fips>
        <woe_label>Janub Darfur, SD, Sudan</woe_label>
        <latitude>11</latitude>
        <iso_a2>SD</iso_a2>
        <postal>SD</postal>
        <type>Wilayat</type>
        <id>SD.7282</id>
      </desc>
    </path>
    <path d="M 94.4557 339.6214 92.4469 366.0223 98.8558 376.4488 100.7689 386.684 90.6294 404.4759 77.0463 419.0156 72.6462 428.5812 73.794 432.3118 68.9156 437.5728 60.7848 439.3903 47.2974 458.6171 35.4361 471.435 37.4448 486.9312 34.3839 495.5402 27.8793 497.262 29.0271 491.5227 24.5313 478.6092 27.2097 471.7219 17.7398 466.4609 13.4352 470.3828 6.2611 470.6697 1 463.9738 7.7916 450.9646 15.3484 446.9471 20.8007 441.0164 18.0267 430.3987 15.3484 427.816 13.0526 421.694 19.0789 414.2328 33.236 406.5804 32.6621 403.1368 28.3575 401.128 28.3575 392.3277 25.8705 389.0754 30.2707 385.4405 39.071 383.0491 38.4971 375.7792 41.9407 370.6138 49.4018 364.6832 51.6019 360.283 52.1758 353.8741 49.1148 347.9434 50.2627 345.6477 57.4369 339.717 66.8112 340.8649 78.1942 338.1865 92.8295 340.8649 94.4557 339.6214 Z" id="SD.WD" fill="#cee3f5" stroke="#6e6e6e" stroke-width="0.4">
      <desc>
        <labelrank>3</labelrank>
        <code_hasc>SD.WD</code_hasc>
        <name>Western Darfur</name>
        <admin>Sudan</admin>
        <type_en>State</type_en>
        <region>Darfur</region>
        <woe_id>20069894</woe_id>
        <longitude>23</longitude>
        <woe_name>West Darfur</woe_name>
        <fips>SU47</fips>
        <woe_label>Gharb Darfur, SD, Sudan</woe_label>
        <latitude>14</latitude>
        <iso_a2>SD</iso_a2>
        <postal>WD</postal>
        <type>Wilayat</type>
        <id>SD.WD</id>
      </desc>
    </path>
    <path d="M 119.6131 452.4951 94.647 477.4613 91.7773 496.3055 82.8813 524.6196 62.8893 537.4374 50.2627 555.4207 44.3321 546.5247 48.4453 532.9416 46.8191 524.8109 40.7928 524.4283 39.5493 521.7499 33.236 518.3063 31.1316 514.3844 34.3839 495.5402 37.4448 486.9312 35.4361 471.435 47.2974 458.6171 60.7848 439.3903 68.9156 437.5728 73.794 432.3118 78.4812 432.7901 93.4991 439.9642 110.7171 432.8857 116.9348 432.8857 118.5609 434.5119 118.2739 437.1902 110.1432 445.7992 108.6127 449.7211 111.865 451.9212 119.6131 452.4951 Z" id="SD.7281" fill="#cee3f5" stroke="#6e6e6e" stroke-width="0.4">
      <desc>
        <labelrank>3</labelrank>
        <code_hasc>SD.WD</code_hasc>
        <name>Central Darfur</name>
        <admin>Sudan</admin>
        <type_en>State</type_en>
        <region>Darfur</region>
        <woe_id>20069894</woe_id>
        <longitude>23</longitude>
        <woe_name>West Darfur</woe_name>
        <fips>SU47</fips>
        <woe_label>Gharb Darfur, SD, Sudan</woe_label>
        <latitude>12</latitude>
        <iso_a2>SD</iso_a2>
        <postal>WD</postal>
        <type>Wilayat</type>
        <id>SD.7281</id>
      </desc>
    </path>
    <path d="M 519.1672 322.5946 526.724 341.3432 501.6622 336.656 498.1229 339.3344 492.6705 348.8043 479.2787 350.7174 474.3046 354.2567 464.3564 355.1176 454.8865 358.2742 454.1213 360.1873 445.034 361.0482 441.2078 359.8047 437.3815 349.8565 421.407 326.3252 410.5023 303.2722 420.7374 297.3415 427.816 306.2375 431.9291 308.6289 453.8343 311.5942 469.2349 319.151 489.9922 324.0295 498.8882 327.5687 503.2883 327.5687 519.1672 322.5946 Z" id="SD.KH" fill="#cee3f5" stroke="#6e6e6e" stroke-width="0.4">
      <desc>
        <labelrank>7</labelrank>
        <code_hasc>SD.KH</code_hasc>
        <name>Khartoum</name>
        <admin>Sudan</admin>
        <type_en>Region</type_en>
        <region>Khartum</region>
        <woe_id>20069819</woe_id>
        <longitude>32</longitude>
        <woe_name>Khartoum</woe_name>
        <fips>SU29</fips>
        <woe_label>Al Khartum, SD, Sudan</woe_label>
        <latitude>15</latitude>
        <iso_a2>SD</iso_a2>
        <postal>KH</postal>
        <type>Region</type>
        <id>SD.KH</id>
      </desc>
    </path>
    <path d="M 512.9496 408.9718 498.3142 406.2934 487.6008 414.4241 482.9137 409.6414 477.7483 409.0674 473.922 412.9893 470.2871 422.0766 465.026 420.4505 463.6869 426.8594 459.8606 431.1639 457.1823 431.2596 456.2257 419.3982 447.0428 401.2237 449.3385 393.7625 456.8953 382.2838 456.1301 371.666 451.0603 368.605 451.3473 366.9789 455.2692 366.118 454.1213 360.1873 454.8865 358.2742 464.3564 355.1176 474.3046 354.2567 479.2787 350.7174 492.6705 348.8043 497.836 353.5871 513.1409 359.4221 523.1847 375.2053 509.6016 403.1368 512.9496 408.9718 Z" id="SD.GZ" fill="#cee3f5" stroke="#6e6e6e" stroke-width="0.4">
      <desc>
        <labelrank>3</labelrank>
        <code_hasc>SD.GZ</code_hasc>
        <name>Gezira</name>
        <admin>Sudan</admin>
        <type_en>State</type_en>
        <region>Blue Nile</region>
        <woe_id>20069916</woe_id>
        <longitude>33</longitude>
        <woe_name>Gezira</woe_name>
        <fips>SU38</fips>
        <woe_label>Al Jazirah, SD, Sudan</woe_label>
        <latitude>14</latitude>
        <iso_a2>SD</iso_a2>
        <postal>GZ</postal>
        <type>Wilayat</type>
        <id>SD.GZ</id>
      </desc>
    </path>
    <path d="M 526.724 341.3432 537.8201 344.2128 548.9161 350.4305 553.8902 356.2655 560.1079 370.0399 572.2561 381.8055 599.3267 372.6226 616.3534 371.8573 620.084 394.8147 616.6404 407.7282 617.9796 414.2328 615.1099 425.1376 609.1793 434.5119 604.7791 453.2604 606.1183 456.5127 605.5443 462.4433 587.6567 465.5043 569.1951 461.1998 555.1338 452.4951 547.003 444.6514 532.4633 437.0946 525.0978 426.1898 526.9153 421.2157 520.3151 420.5461 512.9496 408.9718 509.6016 403.1368 523.1847 375.2053 513.1409 359.4221 497.836 353.5871 492.6705 348.8043 498.1229 339.3344 501.6622 336.656 526.724 341.3432 Z" id="SD.GD" fill="#cee3f5" stroke="#6e6e6e" stroke-width="0.4">
      <desc>
        <labelrank>3</labelrank>
        <code_hasc>SD.GD</code_hasc>
        <name>Gedarif</name>
        <admin>Sudan</admin>
        <type_en>State</type_en>
        <region>Kassala</region>
        <woe_id>20069906</woe_id>
        <longitude>35</longitude>
        <woe_name>Gedarif</woe_name>
        <fips>SU39</fips>
        <woe_label>Al Qadarif, SD, Sudan</woe_label>
        <latitude>14</latitude>
        <iso_a2>SD</iso_a2>
        <postal>GD</postal>
        <type>Wilayat</type>
        <id>SD.GD</id>
      </desc>
    </path>
    <path d="M 578.0911 269.984 579.0477 289.2108 575.0301 296.6719 569.0038 300.7851 562.4992 302.6982 531.8894 304.1331 519.1672 322.5946 503.2883 327.5687 498.8882 327.5687 489.9922 324.0295 469.2349 319.151 453.8343 311.5942 431.9291 308.6289 427.816 306.2375 420.7374 297.3415 453.8343 244.9222 448.2863 227.9911 448.6689 209.9122 431.1639 200.4422 441.3034 67.1938 466.8435 66.2372 483.2963 77.9072 472.2959 87.5685 474.6873 90.1512 475.7395 95.6992 473.5394 101.1516 473.0611 110.9085 479.9483 117.8913 484.3485 119.5175 485.592 122.2915 487.5051 124.8742 489.6096 128.6048 490.1835 130.0396 490.9487 137.5964 490.8531 137.7877 490.2792 138.9356 489.5139 141.4226 488.94 149.3621 492.6705 167.154 490.7574 174.0412 512.1843 220.5299 536.8635 231.1477 543.5594 237.2697 550.2553 248.6527 554.5598 254.8704 555.3251 255.7313 556.9512 257.1661 578.0911 269.984 Z" id="SD.RN" fill="#cee3f5" stroke="#6e6e6e" stroke-width="0.4">
      <desc>
        <labelrank>3</labelrank>
        <code_hasc>SD.RN</code_hasc>
        <name>River Nile</name>
        <admin>Sudan</admin>
        <type_en>State</type_en>
        <region>Northern</region>
        <woe_id>20069903</woe_id>
        <longitude>33</longitude>
        <woe_name>River Nile</woe_name>
        <fips>SU53</fips>
        <woe_label>Nahr an Nil, SD, Sudan</woe_label>
        <latitude>17</latitude>
        <iso_a2>SD</iso_a2>
        <postal>RN</postal>
        <type>Wilayat</type>
        <id>SD.RN</id>
      </desc>
    </path>
    <path d="M 441.3034 67.1938 431.1639 200.4422 448.6689 209.9122 448.2863 227.9911 453.8343 244.9222 420.7374 297.3415 410.5023 303.2722 402.3715 301.0721 388.0232 302.6982 240.3307 299.4459 239.3741 156.8232 137.8834 156.058 138.9356 70.733 263.6707 71.1157 390.0319 68.9156 394.2408 60.4022 396.8235 58.6804 399.5975 60.9762 397.5887 68.6286 441.3034 67.1938 Z" id="SD.NO" fill="#cee3f5" stroke="#6e6e6e" stroke-width="0.4">
      <desc>
        <labelrank>3</labelrank>
        <code_hasc>SD.NO</code_hasc>
        <name>Northern</name>
        <admin>Sudan</admin>
        <type_en>State</type_en>
        <region>Northern</region>
        <woe_id>20069999</woe_id>
        <longitude>28</longitude>
        <woe_name>Northern</woe_name>
        <fips>SU43</fips>
        <woe_label>Ash Shamaliyah, SD, Sudan</woe_label>
        <latitude>19</latitude>
        <iso_a2>SD</iso_a2>
        <postal>NO</postal>
        <type>Wilayat</type>
        <id>SD.NO</id>
      </desc>
    </path>
    <path d="M 454.1213 360.1873 455.2692 366.118 451.3473 366.9789 451.0603 368.605 456.1301 371.666 456.8953 382.2838 449.3385 393.7625 447.0428 401.2237 456.2257 419.3982 457.1823 431.2596 459.8606 431.1639 463.6869 426.8594 466.7478 430.9726 468.661 445.6079 476.983 458.9997 476.1221 468.7566 482.3397 488.1747 462.0607 488.366 462.826 497.549 434.7032 498.2186 428.0073 491.0444 420.5461 488.8443 417.5808 472.9655 415.3807 456.991 420.5461 451.6342 431.3552 445.034 432.5031 434.3205 424.755 429.1551 417.6764 417.0069 411.7458 412.7023 409.1631 403.615 409.6414 392.0407 412.1284 386.7796 417.8678 383.0491 422.1723 372.9096 427.242 369.0833 427.4333 366.2136 441.2078 359.8047 445.034 361.0482 454.1213 360.1873 Z" id="SD.WN" fill="#cee3f5" stroke="#6e6e6e" stroke-width="0.4">
      <desc>
        <labelrank>3</labelrank>
        <code_hasc>SD.WN</code_hasc>
        <name>White Nile</name>
        <admin>Sudan</admin>
        <type_en>State</type_en>
        <region>Blue Nile</region>
        <woe_id>20069914</woe_id>
        <longitude>32</longitude>
        <woe_name>White Nile</woe_name>
        <fips>SU41</fips>
        <woe_label>An Nil al Abyad, SD, Sudan</woe_label>
        <latitude>13</latitude>
        <iso_a2>SD</iso_a2>
        <postal>WN</postal>
        <type>Wilayat</type>
        <id>SD.WN</id>
      </desc>
    </path>
    <path d="M 512.9496 408.9718 520.3151 420.5461 526.9153 421.2157 525.0978 426.1898 532.4633 437.0946 547.003 444.6514 555.1338 452.4951 569.1951 461.1998 587.6567 465.5043 573.5953 488.4617 572.1605 493.8184 567.9516 499.4621 565.1776 500.61 563.1688 496.7837 548.7248 483.105 538.8723 468.661 532.1764 464.2608 525.2892 467.0348 494.9663 486.8355 486.9312 485.9746 482.3397 488.1747 476.1221 468.7566 476.983 458.9997 468.661 445.6079 466.7478 430.9726 463.6869 426.8594 465.026 420.4505 470.2871 422.0766 473.922 412.9893 477.7483 409.0674 482.9137 409.6414 487.6008 414.4241 498.3142 406.2934 512.9496 408.9718 Z" id="SD.SI" fill="#cee3f5" stroke="#6e6e6e" stroke-width="0.4">
      <desc>
        <labelrank>3</labelrank>
        <code_hasc>SD.SI</code_hasc>
        <name>Sennar</name>
        <admin>Sudan</admin>
        <type_en>Region</type_en>
        <region>Blue Nile</region>
        <woe_id>20069915</woe_id>
        <longitude>34</longitude>
        <woe_name>Sennar</woe_name>
        <fips>SU58</fips>
        <woe_label>Sinnar, SD, Sudan</woe_label>
        <latitude>13</latitude>
        <iso_a2>SD</iso_a2>
        <postal>SI</postal>
        <type>Region</type>
        <id>SD.SI</id>
      </desc>
    </path>
    <path d="M 240.3307 299.4459 217.182 299.7329 216.4167 300.7851 225.3127 376.8314 229.3303 382.3795 240.1394 414.3285 238.3219 424.6593 241.7655 431.2596 240.9046 435.2771 235.5479 441.686 234.974 446.5645 224.7388 461.8694 224.2605 474.6873 220.5299 482.7224 221.9648 495.2533 227.8954 507.5928 205.4163 506.6363 195.6594 500.2274 185.6156 498.6012 171.4585 481.8614 177.8675 478.5135 177.7718 476.1221 152.2317 456.2257 146.0141 454.2169 132.431 454.5039 119.6131 452.4951 111.865 451.9212 108.6127 449.7211 110.1432 445.7992 118.2739 437.1902 118.5609 434.5119 116.9348 432.8857 110.7171 432.8857 93.4991 439.9642 78.4812 432.7901 73.794 432.3118 72.6462 428.5812 77.0463 419.0156 90.6294 404.4759 100.7689 386.684 98.8558 376.4488 92.4469 366.0223 94.4557 339.6214 95.7948 247.3136 97.3253 155.9623 137.8834 156.058 239.3741 156.8232 240.3307 299.4459 Z" id="SD.ND" fill="#cee3f5" stroke="#6e6e6e" stroke-width="0.4">
      <desc>
        <labelrank>3</labelrank>
        <code_hasc>SD.ND</code_hasc>
        <name>North Darfur</name>
        <admin>Sudan</admin>
        <type_en>State</type_en>
        <region>Darfur</region>
        <woe_id>20069895</woe_id>
        <longitude>25</longitude>
        <woe_name>North Darfur</woe_name>
        <fips>SU55</fips>
        <woe_label>Shamal Darfur, SD, Sudan</woe_label>
        <latitude>16</latitude>
        <iso_a2>SD</iso_a2>
        <postal>ND</postal>
        <type>Wilayat</type>
        <id>SD.ND</id>
      </desc>
    </path>
    <path d="M 417.5808 472.9655 420.5461 488.8443 428.0073 491.0444 434.7032 498.2186 446.1819 510.7495 446.5645 527.7762 450.1994 537.4374 429.7291 556.186 423.9897 568.2386 400.1714 593.683 380.1794 596.9353 368.0311 586.4132 347.8477 573.7866 331.0123 583.0652 331.0123 589.1872 325.4643 595.7874 310.542 599.9006 301.3591 605.927 297.7241 610.3271 298.3937 614.7273 264.3403 614.536 257.9313 603.2486 232.7739 543.0811 229.3303 524.9065 235.5479 528.4458 247.1222 525.6718 257.5487 515.341 264.8186 501.4709 275.532 503.9579 287.2977 501.8535 288.6368 500.8969 291.2195 488.0791 300.3068 478.7048 303.1765 478.8961 314.5595 486.9312 325.3686 487.6008 336.5604 470.1914 344.1172 468.087 346.8912 470.4784 346.9868 475.9308 348.5173 477.7483 363.8223 477.8439 370.9008 485.4964 376.1618 487.4095 387.9275 479.9483 394.7191 472.0089 399.8845 472.2959 408.2065 468.374 417.5808 472.9655 Z" id="SD.KS" fill="#cee3f5" stroke="#6e6e6e" stroke-width="0.4">
      <desc>
        <labelrank>3</labelrank>
        <code_hasc>SD.KS</code_hasc>
        <name>South Kordufan</name>
        <admin>Sudan</admin>
        <type_en>State</type_en>
        <region>Kordofan</region>
        <woe_id>20069910</woe_id>
        <longitude>29</longitude>
        <woe_name>South Kordufan</woe_name>
        <fips>SU50</fips>
        <woe_label>Janub Kurdufan, SD, Sudan</woe_label>
        <latitude>11</latitude>
        <iso_a2>SD</iso_a2>
        <postal>KS</postal>
        <type>Wilayat</type>
        <id>SD.KS</id>
      </desc>
    </path>
    <path d="M 410.5023 303.2722 421.407 326.3252 437.3815 349.8565 441.2078 359.8047 427.4333 366.2136 427.242 369.0833 422.1723 372.9096 417.8678 383.0491 412.1284 386.7796 409.6414 392.0407 409.1631 403.615 411.7458 412.7023 417.6764 417.0069 424.755 429.1551 432.5031 434.3205 431.3552 445.034 420.5461 451.6342 415.3807 456.991 417.5808 472.9655 408.2065 468.374 399.8845 472.2959 394.7191 472.0089 387.9275 479.9483 376.1618 487.4095 370.9008 485.4964 363.8223 477.8439 348.5173 477.7483 346.9868 475.9308 346.8912 470.4784 344.1172 468.087 336.5604 470.1914 325.3686 487.6008 314.5595 486.9312 303.1765 478.8961 300.3068 478.7048 291.2195 488.0791 288.6368 500.8969 287.2977 501.8535 275.532 503.9579 264.8186 501.4709 257.5487 515.341 247.1222 525.6718 235.5479 528.4458 229.3303 524.9065 227.8954 507.5928 221.9648 495.2533 220.5299 482.7224 224.2605 474.6873 224.7388 461.8694 234.974 446.5645 235.5479 441.686 240.9046 435.2771 241.7655 431.2596 238.3219 424.6593 240.1394 414.3285 229.3303 382.3795 225.3127 376.8314 216.4167 300.7851 217.182 299.7329 240.3307 299.4459 388.0232 302.6982 402.3715 301.0721 410.5023 303.2722 Z" id="SD.KN" fill="#cee3f5" stroke="#6e6e6e" stroke-width="0.4">
      <desc>
        <labelrank>3</labelrank>
        <code_hasc>SD.KN</code_hasc>
        <name>North Kordufan</name>
        <admin>Sudan</admin>
        <type_en>State</type_en>
        <region>Kordofan</region>
        <woe_id>20069912</woe_id>
        <longitude>29</longitude>
        <woe_name>North Kordufan</woe_name>
        <fips>SU56</fips>
        <woe_label>Shamal Kurdufan, SD, Sudan</woe_label>
        <latitude>14</latitude>
        <iso_a2>SD</iso_a2>
        <postal>KN</postal>
        <type>Wilayat</type>
        <id>SD.KN</id>
      </desc>
    </path>
    <path d="M 616.3534 371.8573 599.3267 372.6226 572.2561 381.8055 560.1079 370.0399 553.8902 356.2655 548.9161 350.4305 537.8201 344.2128 526.724 341.3432 519.1672 322.5946 531.8894 304.1331 562.4992 302.6982 569.0038 300.7851 575.0301 296.6719 579.0477 289.2108 578.0911 269.984 593.2047 277.0625 594.4483 277.3495 633.2845 272.3754 634.1454 274.1928 634.4324 285.1932 630.7975 291.0282 630.4148 296.385 634.1454 306.4288 626.8756 326.0382 623.432 331.108 622.0928 343.2563 614.1534 357.222 616.3534 371.8573 Z" id="SD.KA" fill="#cee3f5" stroke="#6e6e6e" stroke-width="0.4">
      <desc>
        <labelrank>3</labelrank>
        <code_hasc>SD.KA</code_hasc>
        <name>Kassala</name>
        <admin>Sudan</admin>
        <type_en>State</type_en>
        <region>Kassala</region>
        <woe_id>20069905</woe_id>
        <longitude>35</longitude>
        <woe_name>Kassala</woe_name>
        <fips>SU52</fips>
        <woe_label>Kassala, SD, Sudan</woe_label>
        <latitude>15</latitude>
        <iso_a2>SD</iso_a2>
        <postal>KA</postal>
        <type>Wilayat</type>
        <id>SD.KA</id>
      </desc>
    </path>
  </g>
</svg>