<?xml version="1.0" encoding="UTF-8"?>
<svg xmlns="http://www.w3.org/2000/svg" width="700" height="700">
  <g id="djibouti">
    <path d="M 586.0943 390.0015 584.7388 394.0879 580.7711 390.8827 577.7752 389.1772 579.8444 387.3437 583.5692 388.9093 586.0943 390.0015 Z M 678.3101 94.0766 679.2423 96.555 677.038 95.723 676.2948 93.326 678.3101 94.0766 Z" id="DJ.5766" fill="#cee3f5" stroke="#6e6e6e" stroke-width="0.4">
      <desc>
        <labelrank>20</labelrank>
        <code_hasc>-99</code_hasc>
        <name/>
        <admin>Djibouti</admin>
        <type_en/>
        <region/>
        <woe_id>-99</woe_id>
        <longitude>43</longitude>
        <woe_name/>
        <fips/>
        <woe_label/>
        <latitude>11</latitude>
        <iso_a2>DJ</iso_a2>
        <postal/>
        <type/>
        <id>DJ.5766</id>
      </desc>
    </path>
    <path d="M 581.0023 514.3227 476.6387 675.0549 470.5676 672.8812 466.6346 676.2092 462.6914 680.9649 456.9126 683.0252 451.7996 682.1321 442.1858 679.2891 426.0746 677.5298 417.3821 675.548 410.8132 669.9401 401.1414 648.3653 393.6671 645.5031 384.3608 645.0641 356.7668 638.2874 353.8502 638.49 353.8646 638.3869 353.9929 637.4698 356.1266 597.723 361.1686 586.9812 392.7686 569.1565 442.3759 540.5669 454.585 530.9778 473.5088 497.0296 530.4446 486.0458 542.6834 491.033 581.0023 514.3227 Z" id="DJ.AS" fill="#cee3f5" stroke="#6e6e6e" stroke-width="0.4">
      <desc>
        <labelrank>8</labelrank>
        <code_hasc>DJ.AS</code_hasc>
        <name>Ali Sabieh</name>
        <admin>Djibouti</admin>
        <type_en>Region</type_en>
        <region/>
        <woe_id>2345156</woe_id>
        <longitude>42</longitude>
        <woe_name>Ali Sabieh</woe_name>
        <fips>DJ01</fips>
        <woe_label>'Ali Sabini, DJ, Djibouti</woe_label>
        <latitude>11</latitude>
        <iso_a2>DJ</iso_a2>
        <postal>AS</postal>
        <type>Region</type>
        <id>DJ.AS</id>
      </desc>
    </path>
    <path d="M 575.2269 461.4523 573.731 461.7836 527.4749 470.0754 513.1528 470.0486 490.8215 467.5663 469.785 444.9248 469.3239 443.9816 469.3318 443.9815 523.7464 443.6299 532.055 442.0164 539.8119 442.3098 548.1708 447.3282 555.8463 445.5963 559.9671 440.1791 562.9464 434.9471 567.1342 433.7217 569.4506 437.864 574.876 460.9602 575.2213 461.4442 575.2269 461.4523 Z" id="DJ.DB" fill="#cee3f5" stroke="#6e6e6e" stroke-width="0.4">
      <desc>
        <labelrank>9</labelrank>
        <code_hasc>DJ.DB</code_hasc>
        <name>Djibouti</name>
        <admin>Djibouti</admin>
        <type_en>City</type_en>
        <region/>
        <woe_id>2345158</woe_id>
        <longitude>43</longitude>
        <woe_name>Djibouti</woe_name>
        <fips>DJ07</fips>
        <woe_label>Djibouti, DJ, Djibouti</woe_label>
        <latitude>11</latitude>
        <iso_a2>DJ</iso_a2>
        <postal>DB</postal>
        <type>City</type>
        <id>DJ.DB</id>
      </desc>
    </path>
    <path d="M 325.8768 457.2768 326.0171 466.7404 328.1656 474.8561 340.9256 479.913 348.6298 487.0787 353.3679 488.9818 358.7952 488.0308 365.0218 482.347 369.4058 481.0335 372.7889 481.9769 376.4192 483.6932 380.184 484.4787 383.7483 482.6119 386.0701 477.6186 383.4326 474.6094 379.4568 472.537 377.4788 470.304 380.9537 463.794 388.7913 458.3956 406.6179 451.6625 432.9965 448.7519 441.439 446.5676 445.5156 443.643 448.6442 440.406 451.8837 439.2257 456.1985 442.4866 459.3858 444.0524 469.3239 443.9816 469.785 444.9248 490.8215 467.5663 513.1528 470.0486 527.4749 470.0754 573.731 461.7836 575.2269 461.4523 579.3642 467.4286 583.7462 470.7163 595.8372 477.2634 601.4098 482.8379 581.0023 514.3227 542.6834 491.033 530.4446 486.0458 473.5088 497.0296 454.585 530.9778 442.3759 540.5669 392.7686 569.1565 312.0972 554.2854 280.5773 506.9867 270.9566 475.6178 262.5513 431.0854 261.1959 414.5434 274.7993 431.5041 280.6908 436.2613 325.8768 457.2768 Z" id="DJ.1166" fill="#cee3f5" stroke="#6e6e6e" stroke-width="0.4">
      <desc>
        <labelrank>8</labelrank>
        <code_hasc>DJ.</code_hasc>
        <name>Arta</name>
        <admin>Djibouti</admin>
        <type_en>Region</type_en>
        <region/>
        <woe_id>1310928</woe_id>
        <longitude>42</longitude>
        <woe_name>Arta</woe_name>
        <fips/>
        <woe_label/>
        <latitude>11</latitude>
        <iso_a2>DJ</iso_a2>
        <postal/>
        <type>Region</type>
        <id>DJ.1166</id>
      </desc>
    </path>
    <path d="M 261.1959 414.5434 262.5513 431.0854 270.9566 475.6178 280.5773 506.9867 312.0972 554.2854 392.7686 569.1565 361.1686 586.9812 356.1266 597.723 353.9929 637.4698 353.8646 638.3869 353.8502 638.49 338.8622 639.53 303.6685 649.9088 277.6027 666.7343 269.1825 670.6302 263.2988 670.2728 257.2692 668.1589 248.4523 666.6525 235.673 670.8442 232.3235 671.1405 225.3502 670.8326 222.0004 671.1491 208.0318 677.266 202.7369 678.5437 195.358 678.3936 175.3592 673.6034 153.8421 675.7444 143.3227 679.1018 131.1025 691.2494 120.3058 693.8474 98.1907 694.5447 95.5172 695.5995 93.7223 697.5512 91.6499 699 88.2661 698.4757 85.9462 696.4924 84.9615 694.1449 83.6509 692.1106 37.638 682.3007 27.9552 678.4916 25.1503 674.743 23.1426 672.0595 30.2826 660.8868 32.9246 644.0409 34.6778 568.0689 30.3564 525.0741 20.7952 479.5481 20.7577 457.9863 32.6781 422.2885 38.3707 392.4007 44.6694 379.9157 50.4668 376.0817 65.8294 369.5577 69.7477 364.5383 71.9826 358.9285 75.3067 356.6381 79.7056 355.3599 85.1641 352.8276 90.5991 348.7432 94.95 344.4427 110.0799 323.4869 116.4384 324.8141 179.3038 340.539 195.4229 347.06 261.1959 414.5434 Z" id="DJ.DK" fill="#cee3f5" stroke="#6e6e6e" stroke-width="0.4">
      <desc>
        <labelrank>7</labelrank>
        <code_hasc>DJ.DK</code_hasc>
        <name>Dikhil</name>
        <admin>Djibouti</admin>
        <type_en>Region</type_en>
        <region/>
        <woe_id>2345157</woe_id>
        <longitude>42</longitude>
        <woe_name>Dikhil</woe_name>
        <fips>DJ06</fips>
        <woe_label>Dikhil, DJ, Djibouti</woe_label>
        <latitude>11</latitude>
        <iso_a2>DJ</iso_a2>
        <postal>DK</postal>
        <type>Region</type>
        <id>DJ.DK</id>
      </desc>
    </path>
    <path d="M 542.1157 343.9281 532.9299 334.5548 529.7096 329.637 518.8888 305.971 514.4208 298.8406 434.9146 209.3543 425.0028 206.5298 420.9824 204.8546 417.4487 202.5915 398.3028 185.8753 395.4408 182.6173 393.4187 179.7233 384.4695 161.0698 383.5929 158.0324 383.499 154.9814 384.1864 152.0493 385.3508 149.6314 386.8123 147.6548 392.0448 143.3541 393.2358 135.4889 392.349 129.0942 404.6305 125.7725 409.9891 118.208 413.3076 114.6861 424.9155 112.6006 429.7892 110.0501 432.1228 99.4403 428.6175 87.0275 427.3528 75.2655 444.4004 59.4533 453.5927 38.169 460.1303 32.5305 463.5726 32.9869 468.35 36.8403 472.3199 36.4846 556.8301 1 563.1068 5.2692 566.6837 12.2813 569.656 20.108 573.7406 26.8502 611.3675 70.2762 620.4237 84.8694 625.878 90.6378 631.9266 92.3787 638.2977 88.051 638.2102 101.9416 638.8944 108.5943 640.7784 115.2384 643.8066 120.6852 647.3155 125.0268 650.1272 129.8617 651.2525 136.8541 651.6342 151.9194 652.7855 159.9236 655.1524 165.43 669.5291 185.717 670.6272 192.3716 669.3553 215.3593 672.0263 245.1302 669.8673 257.7392 664.1409 269.4444 655.6745 279.142 645.2647 285.7444 642.1924 286.6252 631.7474 288.3605 621.0899 293.6907 613.3337 295.0716 596.6349 295.335 589.2855 297.2789 576.5766 306.2053 546.4761 341.7049 544.4425 342.9759 542.1263 343.9237 542.1157 343.9281 Z" id="DJ.OB" fill="#cee3f5" stroke="#6e6e6e" stroke-width="0.4">
      <desc>
        <labelrank>7</labelrank>
        <code_hasc>DJ.OB</code_hasc>
        <name>Obock</name>
        <admin>Djibouti</admin>
        <type_en>Region</type_en>
        <region/>
        <woe_id>2345159</woe_id>
        <longitude>43</longitude>
        <woe_name>Obock</woe_name>
        <fips>DJ04</fips>
        <woe_label>Obock, DJ, Djibouti</woe_label>
        <latitude>12</latitude>
        <iso_a2>DJ</iso_a2>
        <postal>OB</postal>
        <type>Region</type>
        <id>DJ.OB</id>
      </desc>
    </path>
    <path d="M 392.349 129.0942 393.2358 135.4889 392.0448 143.3541 386.8123 147.6548 385.3508 149.6314 384.1864 152.0493 383.499 154.9814 383.5929 158.0324 384.4695 161.0698 393.4187 179.7233 395.4408 182.6173 398.3028 185.8753 417.4487 202.5915 420.9824 204.8546 425.0028 206.5298 434.9146 209.3543 514.4208 298.8406 518.8888 305.971 529.7096 329.637 532.9299 334.5548 542.1157 343.9281 538.2866 345.5354 535.5535 347.2672 533.7946 349.9532 532.2695 355.4193 530.1647 357.7496 524.708 359.7192 503.4356 360.532 497.8509 362.5637 491.998 366.6169 486.1872 369.1925 475.6766 365.2601 468.2619 366.3933 431.9535 378.9817 421.7115 385.1178 412.6444 394.6359 385.0109 444.0356 382.3858 447.4039 378.6948 449.3979 366.596 452.8488 362.9829 453.0116 353.6832 451.2311 343.4156 451.5301 340.1558 451.1168 338.0144 449.5884 334.3837 444.4002 332.2732 442.9843 323.8103 443.4415 319.2198 446.6952 319.1326 449.4257 324.2436 448.2811 325.8803 456.8746 325.8768 457.2762 325.8768 457.2768 280.6908 436.2613 274.7993 431.5041 261.1959 414.5434 195.4229 347.06 179.3038 340.539 116.4384 324.8141 110.0799 323.4869 142.7075 278.2683 158.7287 249.2492 163.0772 244.5801 172.2834 240.1865 175.4276 235.3411 181.4823 221.0146 233.9562 150.9556 246.0531 125.2602 269.7515 94.0881 289.9322 72.797 296.76 71.6592 307.2783 74.5355 325.0057 82.6411 385.3198 136.9708 390.5184 129.5892 392.349 129.0942 Z" id="DJ.TA" fill="#cee3f5" stroke="#6e6e6e" stroke-width="0.4">
      <desc>
        <labelrank>8</labelrank>
        <code_hasc>DJ.TA</code_hasc>
        <name>Tadjourah</name>
        <admin>Djibouti</admin>
        <type_en>Region</type_en>
        <region/>
        <woe_id>2345160</woe_id>
        <longitude>42</longitude>
        <woe_name>Tadjourah</woe_name>
        <fips>DJ05</fips>
        <woe_label>Tadjoura, DJ, Djibouti</woe_label>
        <latitude>11</latitude>
        <iso_a2>DJ</iso_a2>
        <postal>TA</postal>
        <type>Region</type>
        <id>DJ.TA</id>
      </desc>
    </path>
  </g>
</svg>