<?xml version="1.0" encoding="UTF-8"?>
<svg xmlns="http://www.w3.org/2000/svg" width="700" height="700">
  <g id="austria">
    <path d="M 61.2911 402.4854 62.6578 406.4277 63.4988 412.5777 63.4988 413.8918 63.1834 417.6764 61.6591 420.988 57.8745 426.2444 56.8232 428.7675 55.5091 434.129 55.2463 436.2316 55.1411 443.5906 54.5104 445.22 53.4065 446.5867 52.2501 447.5329 50.9886 449.0047 50.6206 450.1085 50.7783 451.4752 54.3527 459.938 49.0962 458.3611 43.6296 453.5252 33.8001 449.8983 31.5924 448.0059 30.4885 446.2713 31.5924 438.3341 30.3308 437.5457 30.5411 436.0213 13.3 429.7136 6.8872 429.7662 5.1526 429.2405 7.8859 426.1392 8.6744 422.6174 7.9385 419.1482 5.8885 415.9944 3.2077 414.2072 4.4167 410.1072 2.5244 405.7443 3.2603 403.9046 1 401.0661 4.2064 396.2302 7.518 392.6033 8.9898 388.1353 12.7744 383.7725 13.7731 381.7751 14.0885 376.0456 11.5654 373.575 8.2539 371.893 5.7308 367.6353 5.2051 364.4289 11.0923 366.4263 16.9795 366.584 19.5026 365.5327 22.1834 361.1173 24.2859 358.8571 27.0193 358.1212 29.3321 359.9084 29.5949 364.5866 31.4347 365.6378 33.8001 364.8494 39.2142 366.3212 41.7898 365.2699 41.9475 367.5302 43.945 370.0007 44.786 373.5225 45.7847 374.1532 48.518 372.734 53.4591 381.1443 52.986 382.5635 50.8309 384.0879 51.777 385.2969 52.4604 389.502 53.3014 390.3956 55.877 389.3969 57.7168 390.0802 59.2937 388.661 63.3411 388.0828 64.9706 389.0815 64.8129 391.4994 62.9732 396.4405 62.8681 399.0687 60.8181 400.0148 59.504 402.3277 61.2911 402.4854 Z" id="AT.VO" fill="#cee3f5" stroke="#6e6e6e" stroke-width="0.4">
      <desc>
        <labelrank>6</labelrank>
        <code_hasc>AT.VO</code_hasc>
        <name>Vorarlberg</name>
        <admin>Austria</admin>
        <type_en>State</type_en>
        <region/>
        <woe_id>2344715</woe_id>
        <longitude>9</longitude>
        <woe_name>Vorarlberg</woe_name>
        <fips>AU08</fips>
        <woe_label>Vorarlberg, AT, Austria</woe_label>
        <latitude>47</latitude>
        <iso_a2>AT</iso_a2>
        <postal>VO</postal>
        <type>Bundesländ|Länd</type>
        <id>AT.VO</id>
      </desc>
    </path>
    <path d="M 602.755 463.0393 602.3344 460.6214 600.2844 458.5714 600.8101 452.7893 608.905 442.329 611.2178 438.7021 611.9011 436.3367 611.6383 435.1803 607.2229 429.5559 606.6447 426.2969 607.4857 422.0392 607.328 418.4123 604.4896 408.6879 602.387 397.702 599.2857 389.3969 601.8088 385.2969 602.9126 385.1392 604.1216 387.3469 605.7511 386.3481 610.8498 380.6186 618.4716 379.9879 622.2037 377.4122 626.7768 372.1032 626.146 362.5891 630.7191 352.4968 624.6217 344.9276 622.3614 340.9327 622.0986 332.6275 625.1999 332.1545 627.355 329.8942 628.0909 327.0557 628.0909 321.7993 629.3524 319.1185 635.0294 313.9147 637.605 313.0211 640.7589 312.7057 647.2243 314.5454 650.6935 312.548 656.6858 307.0813 658.6307 301.93 660.8384 299.9326 662.7307 298.9864 664.8333 298.8288 674.1897 292.889 676.0294 292.5736 681.8641 295.8852 683.4936 293.8877 683.3884 288.789 684.5448 287.4223 685.1756 287.1595 688.0141 288.2633 690.4846 286.371 692.2192 288.3685 691.3256 289.5775 690.5372 293.4672 692.0615 294.5711 691.641 296.7787 696.7923 298.7236 699 300.5634 693.5333 305.6095 694.532 307.5018 693.9538 309.5518 692.7449 310.8134 694.0064 312.0224 693.3231 316.2275 692.482 317.6467 691.0628 318.9083 686.8051 320.4326 686.9102 321.9044 690.2218 323.7967 691.8513 327.1083 690.5372 328.6852 691.9038 338.1468 692.4295 339.4609 694.3218 341.0904 692.482 342.0365 678.7102 345.4006 675.1884 344.9276 673.7166 341.4058 670.8782 345.4532 669.1435 346.7147 662.941 345.5583 661.8897 344.5596 660.1551 340.5647 658.9986 339.8288 651.5345 337.3057 647.6973 336.9904 644.3858 338.6199 644.123 341.7211 642.9666 343.7186 637.7627 347.1878 636.2909 346.084 635.6601 346.7673 633.5576 350.1314 635.2922 351.025 640.496 352.9173 642.9666 352.234 649.1166 354.4417 652.1127 353.8109 654.1627 354.6519 655.8448 356.7019 656.7384 359.3827 656.3179 362.0635 659.2615 364.1135 660.0499 365.743 659.9974 367.8455 659.1038 369.6327 656.4756 370.8417 655.4768 372.0507 656.1076 377.4648 651.5345 381.3545 641.8102 386.2956 639.3922 383.7199 638.2358 384.0879 637.3948 385.8751 637.8153 391.0264 636.8166 392.8661 638.1832 393.97 641.1794 399.752 641.6525 401.9597 641.1268 403.7995 637.0794 406.6905 637.4473 409.0559 636.1858 412.1046 636.5537 414.3123 638.6563 414.7328 639.2871 415.5738 638.7089 419.8315 640.023 420.62 643.0717 418.9905 644.5961 419.0956 645.7525 420.6726 645.3845 422.3021 643.3871 425.1405 641.4948 426.4546 640.9691 428.4521 641.7576 430.1867 644.7537 431.238 644.7537 432.7098 638.5512 436.3367 642.5461 436.9675 643.9127 438.1239 644.3858 439.5957 637.8678 441.0675 635.2396 439.4905 624.7794 439.5431 623.6229 443.17 621.0999 444.9047 620.364 448.3213 615.5281 451.5278 610.1665 458.5714 602.755 463.0393 Z" id="AT.BU" fill="#cee3f5" stroke="#6e6e6e" stroke-width="0.4">
      <desc>
        <labelrank>6</labelrank>
        <code_hasc>AT.BU</code_hasc>
        <name>Burgenland</name>
        <admin>Austria</admin>
        <type_en>State</type_en>
        <region/>
        <woe_id>2344708</woe_id>
        <longitude>16</longitude>
        <woe_name>Burgenland</woe_name>
        <fips>AU01</fips>
        <woe_label>Burgenland, AT, Austria</woe_label>
        <latitude>47</latitude>
        <iso_a2>AT</iso_a2>
        <postal>BU</postal>
        <type>Bundesländ|Länd</type>
        <id>AT.BU</id>
      </desc>
    </path>
    <path d="M 610.8498 380.6186 605.7511 386.3481 604.1216 387.3469 602.9126 385.1392 601.8088 385.2969 599.2857 389.3969 602.387 397.702 604.4896 408.6879 607.328 418.4123 607.4857 422.0392 606.6447 426.2969 607.2229 429.5559 611.6383 435.1803 611.9011 436.3367 611.2178 438.7021 608.905 442.329 600.8101 452.7893 600.2844 458.5714 602.3344 460.6214 602.755 463.0393 598.9703 464.0906 597.5511 465.4573 598.1819 466.9816 597.7614 475.9701 598.9703 479.2291 600.9678 480.4381 602.1242 482.4881 602.4396 485.5894 599.5485 482.7509 595.7113 482.2252 589.2985 479.2291 586.7229 478.8086 584.1472 479.124 577.8921 481.8573 575.4216 482.0676 568.2728 481.2265 566.7485 480.3855 566.0651 485.3791 563.91 486.4829 560.4933 486.2201 558.5485 486.7983 557.1292 487.9022 555.4472 492.7906 553.7651 494.2099 550.9792 494.7355 546.7215 491.6868 543.9356 490.7406 526.8522 492.0547 517.6009 491.2663 510.8202 483.7496 509.6112 480.4906 509.2958 476.0227 505.9317 465.0367 507.6663 459.6752 507.7189 455.6278 500.2022 444.6418 496.4701 440.2264 494.1048 438.5444 492.6855 438.3341 482.4881 440.9623 471.1342 442.0136 468.6111 441.0149 460.0432 441.3303 450.6342 444.8521 448.1636 444.6418 445.3777 442.8021 438.7547 440.8047 432.6046 437.1252 429.2931 437.1252 426.6123 437.6508 416.52 442.5918 414.3123 444.6418 412.1572 448.6893 408.6879 450.3713 403.011 454.8393 399.6995 455.5752 393.97 451.3701 397.4918 446.797 401.4341 439.3854 402.9059 435.2328 402.8533 430.8175 408.1097 424.6674 408.32 423.2482 404.7982 420.1469 401.7495 416.3097 399.8046 411.211 396.2302 405.0084 395.0212 404.22 392.2353 405.5866 389.6597 405.902 385.6122 408.0046 382.6161 406.5328 379.7251 403.852 377.3071 398.8584 374.5212 389.7123 373.6276 384.9289 375.152 379.3571 383.6674 380.9866 385.6122 380.2507 388.6084 377.3071 389.2392 375.2571 388.7135 371.2622 384.9815 365.6904 383.8776 362.8519 384.7187 355.2827 387.3994 352.4968 397.1238 347.5558 398.911 347.5032 402.4328 349.2904 408.9507 351.025 412.9982 350.3942 417.1508 355.2827 418.8328 360.1712 421.2508 358.8045 430.3444 355.5981 438.3867 360.1712 442.9072 360.6443 445.1675 359.9609 451.4752 355.3878 455.9431 353.6532 458.2034 350.2891 471.2919 344.8224 477.0214 340.0391 480.2804 342.5096 489.7945 342.2993 493.9471 345.716 495.8919 345.9263 498.2048 345.3481 504.0394 342.2468 505.8791 341.7211 509.6638 341.8788 520.5445 338.1993 525.2753 332.207 529.6907 332.6275 535.2625 331.1557 537.1023 331.2609 538.5741 331.8391 542.5164 335.2557 550.1382 338.725 553.7651 341.1955 559.9151 341.5634 564.3305 345.8211 567.1164 346.8724 569.9549 346.8724 571.1113 348.4494 572.8985 355.5981 574.7382 356.0712 577.787 354.284 579.6793 354.4417 581.0459 357.175 580.8357 361.8532 584.3575 362.2212 586.828 363.9558 589.246 369.1071 596.7626 370.1584 600.6524 372.3661 604.7524 371.052 607.5909 377.9379 610.8498 380.6186 Z" id="AT.ST" fill="#cee3f5" stroke="#6e6e6e" stroke-width="0.4">
      <desc>
        <labelrank>6</labelrank>
        <code_hasc>AT.ST</code_hasc>
        <name>Steiermark</name>
        <admin>Austria</admin>
        <type_en>State</type_en>
        <region/>
        <woe_id>2344713</woe_id>
        <longitude>14</longitude>
        <woe_name>Steiermark</woe_name>
        <fips>AU06</fips>
        <woe_label>Styria, AT, Austria</woe_label>
        <latitude>47</latitude>
        <iso_a2>AT</iso_a2>
        <postal>ST</postal>
        <type>Bundesländ|Länd</type>
        <id>AT.ST</id>
      </desc>
    </path>
    <path d="M 393.97 451.3701 399.6995 455.5752 403.011 454.8393 408.6879 450.3713 412.1572 448.6893 414.3123 444.6418 416.52 442.5918 426.6123 437.6508 429.2931 437.1252 432.6046 437.1252 438.7547 440.8047 445.3777 442.8021 448.1636 444.6418 450.6342 444.8521 460.0432 441.3303 468.6111 441.0149 471.1342 442.0136 482.4881 440.9623 492.6855 438.3341 494.1048 438.5444 496.4701 440.2264 500.2022 444.6418 507.7189 455.6278 507.6663 459.6752 505.9317 465.0367 509.2958 476.0227 509.6112 480.4906 510.8202 483.7496 517.6009 491.2663 513.5009 490.9509 508.192 492.7906 504.8278 497.7842 502.9355 495.2612 501.6214 495.0509 498.3099 497.206 493.8945 497.8894 491.3714 502.515 488.3753 510.8202 485.7996 512.2394 483.4342 512.7125 482.5932 512.1343 481.0163 512.8702 478.3355 517.4433 476.6534 517.3907 473.8675 520.0189 469.9778 520.9125 468.6111 522.9099 467.0342 527.7984 465.4047 528.5343 461.7778 523.2253 458.5714 524.0138 456.9944 523.8035 454.0508 522.4894 452.7893 520.492 448.6367 521.0176 428.7675 520.7022 427.5585 520.3869 420.8828 515.183 417.729 514.7625 413.0508 515.183 404.4302 511.1881 401.6443 510.715 394.2853 511.7663 388.1353 510.2945 383.8251 510.3471 372.5238 506.7202 368.5289 506.615 365.8481 504.3548 360.1712 504.7753 356.0712 504.0394 346.557 506.0894 342.7724 505.8791 334.8878 501.4112 327.266 499.624 305.3993 497.9419 300.1429 494.4727 296.989 493.3689 293.8877 494.1048 293.0467 493.6842 291.3646 492.3701 290.6287 492.0547 290.6287 492.0022 291.0493 491.0035 294.2031 484.9586 295.6749 479.0714 297.6723 478.0727 305.9775 476.8637 309.7095 475.2868 310.8134 475.1291 315.0711 478.0201 315.8596 478.1252 316.1749 478.0727 316.4903 477.7573 316.648 477.4419 316.7531 477.1265 316.8057 476.6534 316.2275 475.6022 310.7083 467.8227 306.4506 463.2496 305.5044 461.8829 303.507 454.6816 302.3506 453.3675 301.4044 452.6842 299.5647 450.9495 298.7762 449.3726 297.8826 448.2162 297.2518 447.0072 296.8839 445.0624 297.0416 443.538 297.3044 442.5393 298.4608 439.7008 298.6185 438.2816 297.83 437.1777 289.8928 434.497 287.948 432.3944 287.6851 429.8187 288.8941 429.0828 289.2095 428.7149 290.1557 426.7174 291.4172 426.6123 300.4582 431.6585 313.5993 434.8649 322.4826 440.5418 327.0032 441.3303 337.5686 440.1739 342.4045 437.8085 346.8724 433.9187 350.0263 433.4457 362.1686 436.8098 379.9353 439.9636 383.2469 441.6457 391.2366 447.7957 393.97 451.3701 Z" id="AT.KA" fill="#cee3f5" stroke="#6e6e6e" stroke-width="0.4">
      <desc>
        <labelrank>6</labelrank>
        <code_hasc>AT.KA</code_hasc>
        <name>Kärnten</name>
        <admin>Austria</admin>
        <type_en>State</type_en>
        <region/>
        <woe_id>2344709</woe_id>
        <longitude>13</longitude>
        <woe_name>Kärnten</woe_name>
        <fips>AU02</fips>
        <woe_label>Carinthia, AT, Austria</woe_label>
        <latitude>46</latitude>
        <iso_a2>AT</iso_a2>
        <postal>KA</postal>
        <type>Bundesländ|Länd</type>
        <id>AT.KA</id>
      </desc>
    </path>
    <path d="M 474.3406 229.3389 476.2329 231.2838 481.9099 232.4402 487.797 235.1209 492.5278 236.0145 493.8419 237.0133 494.7355 238.4851 494.8407 240.4825 492.1599 240.6402 491.8445 244.6351 494.3676 248.7876 496.6278 249.5761 497.206 253.9389 498.9407 255.2005 499.4137 256.4094 500.6227 263.0851 500.2548 277.8031 497.7317 275.5428 492.265 275.6479 490.6355 276.3838 486.7983 280.6941 473.8675 284.1108 471.9752 283.5326 466.6662 277.33 463.7752 275.9108 459.6752 275.8582 456.7316 278.6441 455.2598 288.0005 456.3111 293.6249 454.7867 295.6749 453.2624 299.8275 451.6329 301.4044 453.3149 303.2967 468.138 314.1775 475.8124 317.2788 480.7534 320.9583 481.3842 321.957 481.3842 324.4801 479.8073 326.8455 478.7034 331.8916 478.5457 336.675 477.0214 340.0391 471.2919 344.8224 458.2034 350.2891 455.9431 353.6532 451.4752 355.3878 445.1675 359.9609 442.9072 360.6443 438.3867 360.1712 430.3444 355.5981 421.2508 358.8045 418.8328 360.1712 417.1508 355.2827 412.9982 350.3942 408.9507 351.025 402.4328 349.2904 398.911 347.5032 397.1238 347.5558 387.3994 352.4968 384.7187 355.2827 383.8776 362.8519 384.9815 365.6904 388.7135 371.2622 389.2392 375.2571 388.6084 377.3071 385.6122 380.2507 383.6674 380.9866 375.152 379.3571 369.843 376.0456 366.584 372.734 365.9007 370.8943 366.2161 367.0571 368.3712 362.2212 366.584 358.384 369.8955 348.0814 368.7917 345.6635 364.5866 344.6122 363.2199 343.6134 362.484 342.1417 363.2725 340.9852 368.3712 340.5647 369.475 339.1455 367.3199 337.2006 350.8147 333.5737 349.3955 332.575 348.1865 330.2096 346.7673 323.5339 347.4506 315.1762 348.8699 314.0198 351.3404 314.7557 353.916 314.5454 354.8622 312.4954 354.0737 311.5493 349.5532 308.5006 343.3506 311.339 338.1468 311.9698 334.6775 311.5493 330.6827 310.0775 327.5814 306.9762 325.3211 305.6095 323.0608 305.2941 317.489 306.03 316.3852 306.8711 315.439 309.4993 308.2377 312.1275 306.6608 307.607 299.4595 299.5121 298.2505 296.0954 298.9864 293.3095 300.7211 292.889 302.4031 290.471 306.03 287.948 309.7095 283.1121 316.1224 281.43 325.1634 274.1236 334.5198 270.4441 346.9776 268.289 350.0263 266.5543 358.8571 258.88 360.1186 256.7248 361.5904 251.521 361.8007 245.0556 363.6404 239.9043 361.9584 233.8594 363.2199 232.1773 369.1597 230.653 378.5161 233.2286 381.5122 235.1735 382.9315 237.2761 386.8212 239.1158 388.3456 233.9645 390.5007 233.7017 391.9725 232.6504 394.443 226.8684 394.7584 222.6632 394.2853 218.3004 394.4956 216.6709 395.7046 215.5145 394.1276 214.5683 393.1289 212.676 392.7084 212.8863 395.5469 205.9478 399.1212 206.894 404.4828 210.6786 410.5277 213.9376 415.2585 220.035 415.1008 220.876 413.9969 221.1389 412.7354 222.9786 413.5764 225.5543 415.8892 228.1299 418.9379 229.3914 431.711 230.7056 441.5406 233.6491 448.6367 229.7594 450.056 228.2876 452.0008 222.926 453.3149 222.0325 455.4701 224.503 460.1483 226.553 465.5624 224.7658 466.5611 227.6043 469.2419 227.2889 471.5021 230.7056 472.9739 230.7581 474.3406 229.3389 Z" id="AT.OO" fill="#cee3f5" stroke="#6e6e6e" stroke-width="0.4">
      <desc>
        <labelrank>6</labelrank>
        <code_hasc>AT.OO</code_hasc>
        <name>Oberösterreich</name>
        <admin>Austria</admin>
        <type_en>State</type_en>
        <region/>
        <woe_id>2344711</woe_id>
        <longitude>13</longitude>
        <woe_name>Oberösterreich</woe_name>
        <fips>AU04</fips>
        <woe_label>Upper Austria, AT, Austria</woe_label>
        <latitude>48</latitude>
        <iso_a2>AT</iso_a2>
        <postal>OO</postal>
        <type>Bundesländ|Länd</type>
        <id>AT.OO</id>
      </desc>
    </path>
    <path d="M 375.152 379.3571 373.6276 384.9289 374.5212 389.7123 377.3071 398.8584 379.7251 403.852 382.6161 406.5328 385.6122 408.0046 389.6597 405.902 392.2353 405.5866 395.0212 404.22 396.2302 405.0084 399.8046 411.211 401.7495 416.3097 404.7982 420.1469 408.32 423.2482 408.1097 424.6674 402.8533 430.8175 402.9059 435.2328 401.4341 439.3854 397.4918 446.797 393.97 451.3701 391.2366 447.7957 383.2469 441.6457 379.9353 439.9636 362.1686 436.8098 350.0263 433.4457 346.8724 433.9187 342.4045 437.8085 337.5686 440.1739 327.0032 441.3303 322.4826 440.5418 313.5993 434.8649 300.4582 431.6585 291.4172 426.6123 290.1557 426.7174 289.2095 428.7149 288.8941 429.0828 287.6851 429.8187 284.1108 426.2969 282.5339 425.4033 280.7467 424.9828 278.2762 424.72 275.6479 423.8264 273.1774 423.7213 265.8184 424.5098 264.2941 425.1931 258.7223 430.4495 250.4171 434.129 247.8415 435.4431 247.894 433.7085 245.7389 432.92 241.3235 433.7611 241.3235 433.6559 241.4286 433.0777 241.271 428.0316 240.9556 426.6649 240.2197 424.7726 238.012 422.7226 237.4863 421.8815 237.0133 420.4623 236.803 418.9905 236.8556 416.52 237.1184 414.5226 238.4851 409.2136 238.3274 406.4802 240.903 405.1661 242.2171 404.9033 245.0556 405.061 255.4107 401.5392 258.6171 399.5943 261.0877 399.6469 263.1377 400.8033 264.3466 401.2238 265.7659 401.3289 268.762 400.9084 270.5492 400.2777 271.7056 399.6469 272.862 398.543 273.8082 397.1238 275.8582 392.7084 276.5415 392.393 277.4877 392.1302 282.0082 391.7097 283.0595 391.2892 284.7941 389.9751 285.5826 389.134 286.2133 388.1353 288.2108 383.9302 290.9967 380.093 291.6275 378.9892 292.1005 377.9904 292.2582 377.4648 292.1005 376.6238 290.3134 372.0507 289.998 370.4738 289.8928 369.3699 290.3134 368.3186 290.4185 367.6879 290.1031 367.0571 289.2621 366.1109 286.0557 363.9032 284.2159 362.116 281.9031 358.016 286.8441 354.3365 293.3621 353.6006 298.5134 354.9673 300.0903 354.7571 299.0916 357.1224 304.7159 362.2737 302.1929 363.4827 301.0364 366.6366 301.5095 369.9481 303.7698 371.7879 306.03 372.3661 310.9711 377.6225 315.439 381.0392 316.4378 381.4597 318.9608 380.7763 320.9057 382.143 321.9044 382.0904 325.1634 378.4635 324.375 371.893 325.5839 369.1071 325.3211 366.1109 327.0557 364.2712 328.4224 360.9596 328.4224 355.9135 325.9519 350.9199 323.6916 348.6596 322.2724 348.4494 318.5929 349.6583 313.4942 348.7122 312.0224 347.1878 314.3352 343.6134 315.2288 339.8814 321.1685 330.4724 318.8031 327.1083 315.7019 319.9596 309.4993 314.8083 308.2377 312.1275 315.439 309.4993 316.3852 306.8711 317.489 306.03 323.0608 305.2941 325.3211 305.6095 327.5814 306.9762 330.6827 310.0775 334.6775 311.5493 338.1468 311.9698 343.3506 311.339 349.5532 308.5006 354.0737 311.5493 354.8622 312.4954 353.916 314.5454 351.3404 314.7557 348.8699 314.0198 347.4506 315.1762 346.7673 323.5339 348.1865 330.2096 349.3955 332.575 350.8147 333.5737 367.3199 337.2006 369.475 339.1455 368.3712 340.5647 363.2725 340.9852 362.484 342.1417 363.2199 343.6134 364.5866 344.6122 368.7917 345.6635 369.8955 348.0814 366.584 358.384 368.3712 362.2212 366.2161 367.0571 365.9007 370.8943 366.584 372.734 369.843 376.0456 375.152 379.3571 Z" id="AT.SZ" fill="#cee3f5" stroke="#6e6e6e" stroke-width="0.4">
      <desc>
        <labelrank>7</labelrank>
        <code_hasc>AT.SZ</code_hasc>
        <name>Salzburg</name>
        <admin>Austria</admin>
        <type_en>State</type_en>
        <region/>
        <woe_id>2344712</woe_id>
        <longitude>13</longitude>
        <woe_name>Salzburg</woe_name>
        <fips>AU05</fips>
        <woe_label>Salzburg, AT, Austria</woe_label>
        <latitude>47</latitude>
        <iso_a2>AT</iso_a2>
        <postal>SZ</postal>
        <type>Bundesländ|Länd</type>
        <id>AT.SZ</id>
      </desc>
    </path>
    <path d="M 287.6851 429.8187 287.948 432.3944 289.8928 434.497 297.83 437.1777 298.6185 438.2816 298.4608 439.7008 297.3044 442.5393 297.0416 443.538 297.2518 447.0072 297.8826 448.2162 298.7762 449.3726 299.5647 450.9495 301.4044 452.6842 302.3506 453.3675 303.507 454.6816 305.5044 461.8829 306.4506 463.2496 310.7083 467.8227 316.2275 475.6022 316.8057 476.6534 316.7531 477.1265 316.648 477.4419 316.4903 477.7573 316.1749 478.0727 315.8596 478.1252 315.0711 478.0201 310.8134 475.1291 309.7095 475.2868 305.9775 476.8637 297.6723 478.0727 295.6749 479.0714 294.2031 484.9586 291.0493 491.0035 290.6287 492.0022 290.6287 492.0547 285.8454 491.4765 279.0646 492.0022 274.6492 489.2688 269.6031 488.3227 265.871 486.6932 262.6646 483.8022 260.1941 476.4957 258.6171 475.4445 254.78 474.3932 253.3607 473.2368 253.203 470.556 254.0966 465.4047 253.3082 462.4611 251.8364 461.4098 246.6851 460.7265 244.5825 458.0983 240.3774 456.7316 241.7966 455.4175 241.7966 454.156 239.1158 445.3252 240.1145 442.9598 245.7915 439.9111 247.7889 437.2829 247.8415 435.4431 250.4171 434.129 258.7223 430.4495 264.2941 425.1931 265.8184 424.5098 273.1774 423.7213 275.6479 423.8264 278.2762 424.72 280.7467 424.9828 282.5339 425.4033 284.1108 426.2969 287.6851 429.8187 Z M 281.9031 358.016 284.2159 362.116 286.0557 363.9032 289.2621 366.1109 290.1031 367.0571 290.4185 367.6879 290.3134 368.3186 289.8928 369.3699 289.998 370.4738 290.3134 372.0507 292.1005 376.6238 292.2582 377.4648 292.1005 377.9904 291.6275 378.9892 290.9967 380.093 288.2108 383.9302 286.2133 388.1353 285.5826 389.134 284.7941 389.9751 283.0595 391.2892 282.0082 391.7097 277.4877 392.1302 276.5415 392.393 275.8582 392.7084 274.6492 394.6007 273.8082 397.1238 271.7056 399.6469 270.5492 400.2777 268.762 400.9084 265.7659 401.3289 264.3466 401.2238 263.1377 400.8033 261.0877 399.6469 258.6171 399.5943 255.4107 401.5392 245.0556 405.061 242.2171 404.9033 240.903 405.1661 238.3274 406.4802 238.4851 409.2136 237.1184 414.5226 236.8556 416.52 236.803 418.9905 237.0133 420.4623 237.4863 421.8815 238.012 422.7226 240.2197 424.7726 240.9556 426.6649 241.271 428.0316 241.4286 433.0777 241.3235 433.6559 241.3235 433.7611 239.7466 434.0239 230.3376 438.7547 223.7145 438.9649 219.6145 440.279 212.3606 444.8521 208.1555 445.4303 204.2132 447.7431 199.535 444.747 191.4401 443.4329 184.7644 444.9047 181.558 442.697 179.9285 442.2765 178.1414 443.0649 174.199 447.0598 171.3606 446.8495 165.2106 444.5893 158.6926 445.4829 152.2272 447.4277 144.3951 454.156 140.6105 464.6688 140.4003 467.2444 138.5079 468.4534 134.9861 473.2893 128.8887 472.4483 123.2118 473.6047 119.9002 471.3445 116.2733 471.6598 112.5412 469.6624 109.5976 470.1355 109.072 468.9265 112.1207 465.7726 111.2797 464.3534 102.8694 459.4649 91.7258 461.8303 87.8886 461.2521 84.945 458.729 84.8399 455.838 86.154 451.2649 85.7335 448.9521 81.8963 445.3252 79.163 441.0675 78.1642 440.5944 74.9053 442.1188 72.4347 444.6944 70.7001 447.7431 70.595 450.2662 64.9706 449.9508 63.4463 452.2636 62.5527 456.1534 61.5014 457.4675 57.4014 459.4124 54.3527 459.938 52.7757 454.997 50.7783 451.4752 50.6206 450.1085 50.9886 449.0047 52.2501 447.5329 53.4065 446.5867 54.5104 445.22 55.1411 443.5906 55.5091 441.2252 55.5091 439.7534 55.2988 437.8611 55.2463 436.2316 55.5091 434.129 56.8232 428.7675 57.8745 426.2444 61.6591 420.988 63.1834 417.6764 63.4988 413.8918 63.4988 412.5777 62.6578 406.4277 61.2911 402.4854 67.2309 402.0123 73.486 398.911 77.113 395.1789 79.8989 390.343 83.6309 388.6084 85.2604 386.6635 87.6258 380.934 87.7309 378.043 86.9425 375.152 84.945 373.4699 86.2591 366.8994 84.8399 362.6417 88.5194 361.6955 89.2027 363.2199 88.204 365.2173 88.7822 367.0571 90.9373 368.3186 94.8271 369.0545 97.0874 368.0032 100.3463 364.6391 102.554 364.7443 114.4861 369.7379 115.59 371.525 116.3259 371.7879 119.0592 371.5776 124.1579 369.6853 125.4195 369.7904 128.4156 372.0507 124.5784 374.8366 125.2092 375.9404 129.8349 378.3058 134.2502 383.352 134.5131 384.9289 133.7772 386.4533 134.6182 388.3456 135.8797 389.134 145.499 389.5546 147.2862 389.0289 153.4362 385.034 155.749 384.5084 157.6939 385.3494 157.3785 389.0289 159.5862 389.3443 161.6362 388.4507 166.0516 383.8776 173.2529 382.7738 174.0939 381.4597 173.7785 380.461 171.676 379.4097 176.0913 374.5738 178.1939 374.1007 182.5042 375.2045 188.8644 373.8379 190.5465 371.9981 192.4914 366.2161 195.435 363.693 201.1119 364.6917 208.576 364.8494 213.7273 366.0058 214.6735 365.743 215.6196 363.4302 216.6709 362.8519 224.3978 361.4327 246.1594 362.5366 248.7876 359.225 249.2607 357.1224 249.1556 353.4955 247.053 350.7622 246.6325 348.9224 252.6774 345.4532 250.8376 350.2891 251.3633 351.8135 252.2569 352.6545 257.303 351.1827 262.5595 352.3917 267.7107 350.8147 269.2351 351.1301 271.0223 355.9135 274.4915 359.0673 277.6454 359.7507 279.5377 359.3827 281.9031 358.016 Z" id="AT.TR" fill="#cee3f5" stroke="#6e6e6e" stroke-width="0.4">
      <desc>
        <labelrank>6</labelrank>
        <code_hasc>AT.TR</code_hasc>
        <name>Tirol</name>
        <admin>Austria</admin>
        <type_en>State</type_en>
        <region/>
        <woe_id>2344714</woe_id>
        <longitude>11</longitude>
        <woe_name>Tirol</woe_name>
        <fips>AU07</fips>
        <woe_label>Tyrol, AT, Austria</woe_label>
        <latitude>47</latitude>
        <iso_a2>AT</iso_a2>
        <postal>TR</postal>
        <type>Bundesländ|Länd</type>
        <id>AT.TR</id>
      </desc>
    </path>
    <path d="M 690.4846 286.371 688.0141 288.2633 685.1756 287.1595 684.5448 287.4223 683.3884 288.789 683.4936 293.8877 681.8641 295.8852 676.0294 292.5736 674.1897 292.889 664.8333 298.8288 662.7307 298.9864 660.8384 299.9326 658.6307 301.93 656.6858 307.0813 650.6935 312.548 647.2243 314.5454 640.7589 312.7057 637.605 313.0211 635.0294 313.9147 629.3524 319.1185 628.0909 321.7993 628.0909 327.0557 627.355 329.8942 625.1999 332.1545 622.0986 332.6275 622.3614 340.9327 624.6217 344.9276 630.7191 352.4968 626.146 362.5891 626.7768 372.1032 622.2037 377.4122 618.4716 379.9879 610.8498 380.6186 607.5909 377.9379 604.7524 371.052 600.6524 372.3661 596.7626 370.1584 589.246 369.1071 586.828 363.9558 584.3575 362.2212 580.8357 361.8532 581.0459 357.175 579.6793 354.4417 577.787 354.284 574.7382 356.0712 572.8985 355.5981 571.1113 348.4494 569.9549 346.8724 567.1164 346.8724 564.3305 345.8211 559.9151 341.5634 553.7651 341.1955 550.1382 338.725 542.5164 335.2557 538.5741 331.8391 537.1023 331.2609 535.2625 331.1557 529.6907 332.6275 525.2753 332.207 520.5445 338.1993 509.6638 341.8788 505.8791 341.7211 504.0394 342.2468 498.2048 345.3481 495.8919 345.9263 493.9471 345.716 489.7945 342.2993 480.2804 342.5096 477.0214 340.0391 478.5457 336.675 478.7034 331.8916 479.8073 326.8455 481.3842 324.4801 481.3842 321.957 480.7534 320.9583 475.8124 317.2788 468.138 314.1775 453.3149 303.2967 451.6329 301.4044 453.2624 299.8275 454.7867 295.6749 456.3111 293.6249 455.2598 288.0005 456.7316 278.6441 459.6752 275.8582 463.7752 275.9108 466.6662 277.33 471.9752 283.5326 473.8675 284.1108 486.7983 280.6941 490.6355 276.3838 492.265 275.6479 497.7317 275.5428 500.2548 277.8031 500.6227 263.0851 499.4137 256.4094 498.9407 255.2005 497.206 253.9389 496.6278 249.5761 494.3676 248.7876 491.8445 244.6351 492.1599 240.6402 494.8407 240.4825 494.7355 238.4851 493.8419 237.0133 492.5278 236.0145 487.797 235.1209 481.9099 232.4402 476.2329 231.2838 474.3406 229.3389 475.1291 225.3966 475.2868 217.6171 476.9163 214.8312 481.5419 210.5735 483.6445 203.4247 485.0111 202.8991 489.6894 203.4247 494.3676 205.2645 496.1548 205.0542 497.1535 202.6363 495.8919 199.6401 498.3625 188.4439 497.7842 176.6696 499.256 171.7811 501.2009 171.4657 506.1945 173.0426 513.133 173.4631 514.2368 177.1952 513.7112 180.9798 515.4984 180.9798 522.2266 178.9824 523.9087 177.1426 524.6971 174.0413 525.3805 173.9888 526.6946 175.5131 532.8446 175.9862 541.2023 179.2452 547.6677 184.0285 555.1318 186.6568 562.1754 190.3362 566.2228 190.7042 570.8485 188.3914 574.3703 188.076 575.7895 190.8093 580.5203 192.0183 579.6793 193.2273 581.7818 192.9645 582.4652 193.5427 582.6229 194.9619 584.0947 194.4888 584.6203 195.067 584.778 196.6965 594.0293 202.8991 598.8126 204.7914 607.0652 204.0029 619.6806 205.3696 621.6255 204.9491 623.3601 206.0004 625.6729 204.5811 629.9306 196.5914 631.455 195.4875 634.9768 195.6978 637.3422 194.8042 639.7601 195.9606 648.5909 198.0106 650.4832 203.1093 651.6922 203.8978 656.5281 203.7927 662.941 206.7363 668.0397 205.0542 669.5115 205.1068 671.7717 207.9978 673.4538 216.8812 676.7128 220.3504 677.8692 226.6581 677.291 229.0761 674.4525 231.9671 673.4538 235.1209 670.4576 240.4825 669.1435 253.0979 669.4589 253.8864 672.0346 254.412 674.5051 256.4094 674.9782 257.4607 674.3474 259.5633 676.1346 262.9274 679.6564 265.1351 679.8141 267.921 681.4436 272.7043 682.8628 280.1685 685.2807 282.5864 689.0128 284.0056 690.4846 286.371 Z M 614.5293 270.4966 612.3216 269.4979 610.9024 271.6531 610.6396 273.9133 612.8473 277.4877 612.2165 281.43 613.9511 284.1633 615.055 284.689 620.6268 285.0044 625.4101 284.321 628.3537 285.7928 631.2447 285.9505 633.873 282.9018 635.1871 282.4287 639.4448 282.0608 645.7525 282.9544 642.914 277.0146 643.8076 270.0236 642.7037 268.5518 641.9678 265.8184 639.4973 262.9274 637.7627 263.2428 636.9217 264.9248 633.4524 259.721 630.6665 259.5633 629.6678 261.2979 624.9896 263.453 619.1024 267.6056 616.8947 269.9184 614.5293 270.4966 Z" id="AT.NO" fill="#cee3f5" stroke="#6e6e6e" stroke-width="0.4">
      <desc>
        <labelrank>6</labelrank>
        <code_hasc>AT.NO</code_hasc>
        <name>Niederösterreich</name>
        <admin>Austria</admin>
        <type_en>State</type_en>
        <region/>
        <woe_id>2344710</woe_id>
        <longitude>15</longitude>
        <woe_name>Niederösterreich</woe_name>
        <fips>AU03</fips>
        <woe_label>Lower Austria, AT, Austria</woe_label>
        <latitude>48</latitude>
        <iso_a2>AT</iso_a2>
        <postal>NO</postal>
        <type>Bundesländ|Länd</type>
        <id>AT.NO</id>
      </desc>
    </path>
    <path d="M 614.5293 270.4966 616.8947 269.9184 619.1024 267.6056 624.9896 263.453 629.6678 261.2979 630.6665 259.5633 633.4524 259.721 636.9217 264.9248 637.7627 263.2428 639.4973 262.9274 641.9678 265.8184 642.7037 268.5518 643.8076 270.0236 642.914 277.0146 645.7525 282.9544 639.4448 282.0608 635.1871 282.4287 633.873 282.9018 631.2447 285.9505 628.3537 285.7928 625.4101 284.321 620.6268 285.0044 615.055 284.689 613.9511 284.1633 612.2165 281.43 612.8473 277.4877 610.6396 273.9133 610.9024 271.6531 612.3216 269.4979 614.5293 270.4966 Z" id="AT.WI" fill="#cee3f5" stroke="#6e6e6e" stroke-width="0.4">
      <desc>
        <labelrank>9</labelrank>
        <code_hasc>AT.WI</code_hasc>
        <name>Wien</name>
        <admin>Austria</admin>
        <type_en>State</type_en>
        <region/>
        <woe_id>2344716</woe_id>
        <longitude>16</longitude>
        <woe_name>Wien</woe_name>
        <fips>AU09</fips>
        <woe_label>Vienna, AT, Austria</woe_label>
        <latitude>48</latitude>
        <iso_a2>AT</iso_a2>
        <postal>WI</postal>
        <type>Bundesländ|Länd</type>
        <id>AT.WI</id>
      </desc>
    </path>
  </g>
</svg>