<?xml version="1.0" encoding="UTF-8"?>
<svg xmlns="http://www.w3.org/2000/svg" width="700" height="700">
  <g id="burundi">
    <path d="M 577.0666 348.4895 577.0011 348.5138 571.2459 350.6496 570.8695 343.3742 568.8835 335.006 566.4095 331.3517 562.9573 328.6638 559.5677 327.2638 556.516 325.3467 554.1046 322.947 550.8156 321.5809 546.7429 323.2553 543.3402 325.5507 534.3405 323.4457 527.1352 317.5688 526.5115 313.2364 526.8294 308.7567 524.8602 304.7541 521.8806 301.3165 517.149 299.1605 511.8067 298.7414 506.5705 296.7511 502.179 293.3762 498.2196 291.4574 490.7541 292.904 488.0703 291.4743 485.1502 290.3281 472.7963 286.2763 486.2757 274.7848 488.8345 273.3553 493.2079 272.0152 495.3641 270.3839 499.1227 261.686 499.6279 261.37 501.3817 248.8706 503.881 245.1003 512.3923 242.8368 513.3409 240.4825 513.0598 233.6939 514.1134 230.0359 516.4033 228.739 518.6923 227.7431 520.3216 222.7325 521.9408 220.9487 524.365 219.7358 527.4256 219.2939 529.2123 217.7112 534.3116 210.4208 537.7475 208.2747 537.8905 208.1854 537.932 208.3085 539.4976 207.5777 545.9636 198.7697 549.84 195.605 554.3843 193.9471 557.0223 194.3901 578.1147 207.0318 582.4127 208.8518 583.8219 209.7928 584.6561 211.7688 585.5466 217.056 586.4162 218.4636 590.7506 219.4144 594.1495 218.5895 597.3986 217.3293 601.4177 217.0751 605.4143 218.5602 612.8462 223.4351 617.1293 224.7207 624.7315 224.0777 639.9463 219.9153 647.5467 220.0085 645.3619 223.8586 644.3827 225.584 634.2705 237.0894 632.1003 242.2332 633.6977 246.9888 641.6743 254.5102 644.8695 259.0042 644.9138 260.7105 643.3514 265.0201 643.0756 266.8924 644.2268 269.3386 648.4356 272.4316 649.7722 274.7447 650.0934 278.8271 649.5068 282.8727 646.6536 290.5896 642.0228 297.0955 642.182 299.4712 643.6062 305.2302 643.7672 307.1041 638.8256 315.7829 630.972 321.0718 621.9416 322.0412 613.3514 317.761 612.3453 321.6039 610.2502 324.506 607.0669 326.2669 603.0647 326.7537 594.1613 330.0653 586.9685 334.4535 580.8133 340.1164 574.8041 347.2512 577.0666 348.4895 Z" id="BI.CA" fill="#cee3f5" stroke="#6e6e6e" stroke-width="0.4">
      <desc>
        <labelrank>7</labelrank>
        <code_hasc>BI.CA</code_hasc>
        <name>Cankuzo</name>
        <admin>Burundi</admin>
        <type_en>Province</type_en>
        <region/>
        <woe_id>2344904</woe_id>
        <longitude>30</longitude>
        <woe_name>Cankuzo</woe_name>
        <fips>BY11</fips>
        <woe_label>Cankuzo, BI, Burundi</woe_label>
        <latitude>-3</latitude>
        <iso_a2>BI</iso_a2>
        <postal>CA</postal>
        <type>Province</type>
        <id>BI.CA</id>
      </desc>
    </path>
    <path d="M 488.8345 273.3553 486.2757 274.7848 472.7963 286.2763 468.5085 292.5145 435.9812 324.5039 429.5837 328.9128 422.8925 330.6465 408.0052 332.1539 404.81 333.3639 403.3609 334.8134 401.7447 336.0117 394.2507 336.9243 391.089 338.218 388.8309 340.6176 387.98 344.2248 385.3498 347.4922 379.6448 345.7699 374.1849 340.7731 372.2901 334.2499 373.3347 333.1668 380.0864 322.1241 383.0522 318.9243 384.7402 316.1719 385.4886 313.0657 385.6694 308.788 383.7775 301.0948 379.2907 296.0346 374.1287 292.0755 370.2109 287.669 366.1065 277.948 363.2207 276.7701 355.7966 276.5987 353.5746 278.3136 352.1545 281.5514 350.0665 283.4004 345.8069 280.9821 343.5656 277.5837 343.5075 274.3084 345.8443 267.5306 348.9047 254.1374 361.8817 251.0315 364.5856 245.2235 371.2479 241.7326 376.8403 236.3669 383.8935 225.3399 396.7115 219.8604 409.1465 219.4271 430.3599 204.8959 439.8706 193.2728 453.9461 196.0038 467.34 202.0601 472.7514 213.5768 472.8136 226.482 467.8663 239.7898 461.0392 252.3394 459.3446 256.9979 458.1875 261.7082 460.7654 264.8754 467.5383 269.8945 470.8602 271.5598 474.8958 270.6698 479.0336 269.3623 483.4658 270.6468 486.6206 272.0109 488.8345 273.3553 Z" id="BI.KR" fill="#cee3f5" stroke="#6e6e6e" stroke-width="0.4">
      <desc>
        <labelrank>9</labelrank>
        <code_hasc>BI.KR</code_hasc>
        <name>Karuzi</name>
        <admin>Burundi</admin>
        <type_en>Province</type_en>
        <region/>
        <woe_id>2344907</woe_id>
        <longitude>30</longitude>
        <woe_name>Karuzi</woe_name>
        <fips>BY14</fips>
        <woe_label>Karuzi, BI, Burundi</woe_label>
        <latitude>-3</latitude>
        <iso_a2>BI</iso_a2>
        <postal>KR</postal>
        <type>Province</type>
        <id>BI.KR</id>
      </desc>
    </path>
    <path d="M 499.5595 454.3165 499.1813 460.3276 500.5375 465.7829 502.3656 470.772 503.3537 475.8247 502.2232 481.5045 487.749 476.734 479.5175 481.9183 466.9425 503.3342 449.8179 520.653 445.8977 527.2573 440.1672 550.5361 435.064 562.6452 434.9001 562.6007 432.1503 561.8545 427.8404 565.1807 418.6913 569.9589 391.0961 570.9399 376.3638 579.3244 367.901 589.7544 362.6191 593.2608 354.571 582.4858 348.7466 578.3537 342.7179 575.0233 339.4856 568.595 342.3051 559.0467 343.1306 543.8766 345.3717 536.4817 343.822 528.5054 354.6434 515.141 352.3518 508.0143 348.8106 503.0224 348.1603 496.8205 354.9267 491.3457 358.3725 494.8501 362.4673 495.0981 363.5909 490.5398 363.7084 485.6606 378.3298 471.0212 379.1942 463.721 383.2438 457.7687 394.0703 453.6444 404.7676 448.1827 410.6702 440.749 412.0442 431.8455 419.8354 431.9225 427.1492 434.1375 430.8588 439.332 434.7417 442.9895 452.5448 432.8902 471.9328 440.048 479.642 444.4563 488.2649 447.0294 495.8964 454.1799 499.3893 454.3102 499.5595 454.3165 Z" id="BI.RT" fill="#cee3f5" stroke="#6e6e6e" stroke-width="0.4">
      <desc>
        <labelrank>7</labelrank>
        <code_hasc>BI.RT</code_hasc>
        <name>Rutana</name>
        <admin>Burundi</admin>
        <type_en>Province</type_en>
        <region/>
        <woe_id>2344913</woe_id>
        <longitude>30</longitude>
        <woe_name>Rutana</woe_name>
        <fips>BY20</fips>
        <woe_label>Rutana, BI, Burundi</woe_label>
        <latitude>-3</latitude>
        <iso_a2>BI</iso_a2>
        <postal>RT</postal>
        <type>Province</type>
        <id>BI.RT</id>
      </desc>
    </path>
    <path d="M 577.0666 348.4895 586.8625 353.8514 586.4097 362.4786 577.8419 370.6735 562.5579 377.6723 558.3048 382.6727 555.7089 384.9035 553.4712 385.6977 544.8111 387.6382 544.3041 388.4389 543.7391 391.2458 543.3837 391.9467 537.1656 392.425 536.9998 391.8225 536.3617 391.7532 530.949 392.5356 530.1053 393.5357 528.8815 397.3432 528.0703 398.6443 518.9916 405.0641 517.2133 408.9363 517.9618 415.426 517.822 421.344 515.3637 427.3535 501.8809 448.2675 499.5746 454.0766 499.5595 454.3165 499.3893 454.3102 495.8964 454.1799 488.2649 447.0294 479.642 444.4563 471.9328 440.048 452.5448 432.8902 434.7417 442.9895 430.8588 439.332 427.1492 434.1375 419.8354 431.9225 412.0442 431.8455 412.8144 422.6891 412.2408 413.595 408.8734 406.2298 405.0836 394.4845 402.6791 390.315 402.5393 381.7074 405.3861 363.5495 402.8457 359.6472 399.9013 355.9945 399.1104 351.1787 391.089 338.218 394.2507 336.9243 401.7447 336.0117 403.3609 334.8134 404.81 333.3639 408.0052 332.1539 422.8925 330.6465 429.5837 328.9128 435.9812 324.5039 468.5085 292.5145 472.7963 286.2763 485.1502 290.3281 488.0703 291.4743 490.7541 292.904 498.2196 291.4574 502.179 293.3762 506.5705 296.7511 511.8067 298.7414 517.149 299.1605 521.8806 301.3165 524.8602 304.7541 526.8294 308.7567 526.5115 313.2364 527.1352 317.5688 534.3405 323.4457 543.3402 325.5507 546.7429 323.2553 550.8156 321.5809 554.1046 322.947 556.516 325.3467 559.5677 327.2638 562.9573 328.6638 566.4095 331.3517 568.8835 335.006 570.8695 343.3742 571.2459 350.6496 577.0011 348.5138 577.0666 348.4895 Z" id="BI.RY" fill="#cee3f5" stroke="#6e6e6e" stroke-width="0.4">
      <desc>
        <labelrank>7</labelrank>
        <code_hasc>BI.RY</code_hasc>
        <name>Ruyigi</name>
        <admin>Burundi</admin>
        <type_en>Province</type_en>
        <region/>
        <woe_id>2344914</woe_id>
        <longitude>30</longitude>
        <woe_name>Ruyigi</woe_name>
        <fips>BY21</fips>
        <woe_label>Ruyigi, BI, Burundi</woe_label>
        <latitude>-3</latitude>
        <iso_a2>BI</iso_a2>
        <postal>RY</postal>
        <type>Province</type>
        <id>BI.RY</id>
      </desc>
    </path>
    <path d="M 235.5317 255.0821 232.1566 261.9399 231.2318 269.3548 235.4434 277.5507 234.4137 286.5189 229.895 294.0084 227.4215 302.856 229.3298 305.1828 230.2967 307.9416 227.7328 312.6126 223.7949 316.2276 214.3416 309.7894 201.11 310.4417 194.7939 311.8796 188.9896 309.9614 183.1165 308.7447 176.9372 309.2479 168.3038 311.1317 160.2375 314.6706 149.2996 326.0864 138.0279 322.3193 130.5754 312.9995 132.1263 311.5833 126.5965 307.1618 124.361 300.8438 123.501 279.2974 124.623 272.7529 127.0688 267.3135 131.2205 265.0175 132.7058 261.3129 132.4539 259.1866 147.2006 258.7722 156.8929 248.9723 154.2206 242.4192 150.0005 237.1657 147.9956 232.4515 149.647 229.6323 170.0161 221.3577 174.8773 209.7429 185.5914 209.7158 188.6082 212.4784 196.2448 206.8325 207.0321 204.384 214.9085 196.9346 223.1131 208.0783 227.6027 227.7002 230.8469 233.6214 234.7856 244.0882 235.5317 255.0821 Z" id="BI.BB" fill="#cee3f5" stroke="#6e6e6e" stroke-width="0.4">
      <desc>
        <labelrank>9</labelrank>
        <code_hasc>BI.BB</code_hasc>
        <name>Bubanza</name>
        <admin>Burundi</admin>
        <type_en>Province</type_en>
        <region/>
        <woe_id>2344902</woe_id>
        <longitude>29</longitude>
        <woe_name>Bubanza</woe_name>
        <fips>BY09</fips>
        <woe_label>Bubanza, BI, Burundi</woe_label>
        <latitude>-3</latitude>
        <iso_a2>BI</iso_a2>
        <postal>BB</postal>
        <type>Province</type>
        <id>BI.BB</id>
      </desc>
    </path>
    <path d="M 289.4147 432.9031 298.7787 433.8171 307.534 436.1832 308.0153 443.3527 306.1124 450.6819 302.3103 474.7636 302.6339 478.5408 300.9453 481.7601 298.8537 485.0283 304.3735 490.8606 313.1185 485.4418 319.7236 477.5431 323.9582 465.7433 326.8265 461.1909 335.4162 472.9324 330.6898 480.971 341.2164 485.3338 349.9104 485.6136 354.9267 491.3457 348.1603 496.8205 348.8106 503.0224 352.3518 508.0143 354.6434 515.141 343.822 528.5054 345.3717 536.4817 343.1306 543.8766 342.3051 559.0467 339.4856 568.595 334.9095 571.9541 329.5981 574.5086 324.8081 572.002 322.5868 564.2409 322.8319 551.6595 318.8066 541.2692 319.2295 535.3723 318.7417 530.7588 314.2362 533.1497 312.8688 540.5138 306.911 555.5817 294.6591 566.4508 282.702 569.7855 272.4789 576.5847 260.9956 589.2273 245.4387 596.3766 236.9485 597.1508 225.8145 606.4366 176.4961 609.5397 172.367 609.9287 163.4549 578.9336 143.5073 545.171 131.2316 531.9095 126.3019 524.9484 123.2382 516.3223 120.5856 478.2028 124.0715 454.7244 132.1008 456.2029 154.2355 461.3375 192.7304 460.5391 199.684 458.2365 206.9696 457.2879 212.1043 457.4527 215.4702 454.0377 215.9178 450.0298 215.7614 445.9701 216.7119 442.164 218.7018 438.7451 226.4817 417.3675 231.0035 408.8937 236.9889 405.3353 243.3421 402.3794 248.5856 412.0502 262.2997 429.3808 270.8108 434.7354 273.067 443.6303 272.7574 457.2791 281.6194 446.2624 282.9761 441.6719 286.4131 437.4386 289.4147 432.9031 Z" id="BI.BR" fill="#cee3f5" stroke="#6e6e6e" stroke-width="0.4">
      <desc>
        <labelrank>7</labelrank>
        <code_hasc>BI.BR</code_hasc>
        <name>Bururi</name>
        <admin>Burundi</admin>
        <type_en>Province</type_en>
        <region/>
        <woe_id>2344903</woe_id>
        <longitude>29</longitude>
        <woe_name>Bururi</woe_name>
        <fips>BY10</fips>
        <woe_label>Bururi, BI, Burundi</woe_label>
        <latitude>-3</latitude>
        <iso_a2>BI</iso_a2>
        <postal>BR</postal>
        <type>Province</type>
        <id>BI.BR</id>
      </desc>
    </path>
    <path d="M 198.6662 163.2668 204.4561 168.4645 205.2765 177.5867 209.3197 187.4509 214.9085 196.9346 207.0321 204.384 196.2448 206.8325 188.6082 212.4784 185.5914 209.7158 174.8773 209.7429 170.0161 221.3577 149.647 229.6323 147.9956 232.4515 150.0005 237.1657 154.2206 242.4192 156.8929 248.9723 147.2006 258.7722 132.4539 259.1866 130.2477 240.5645 127.2522 235.7818 122.7595 232.3321 117.2231 230.2166 111.2138 229.5031 104.9729 227.019 102.1972 221.2352 100.9342 214.5526 99.0468 209.4052 94.1671 206.1226 88.2271 204.1408 83.2622 201.5263 81.1562 196.3455 80.6621 191.1343 79.3247 187.9255 74.5018 180.8696 71.5285 172.214 70.089 169.6397 65.2233 167.4937 58.4241 166.8473 52.4999 165.1338 49.9066 159.6856 50.5395 152.8069 52.7316 147.3 56.8683 143.7668 63.4857 142.943 59.2001 135.1206 64.8454 102.8007 72.2296 95.632 91.1424 94.4274 96.4316 95.2045 116.1513 103.789 123.4031 106.0063 137.1222 107.7344 143.9888 109.3837 149.9285 112.7684 153.8869 115.7153 154.1193 117.219 153.6922 121.0262 154.8005 125.4069 154.8759 125.7051 161.9176 132.2992 163.8918 136.3117 163.1792 139.9848 158.6674 145.4544 157.5523 148.8261 158.284 152.5689 161.2938 159.2892 161.672 163.3319 164.5316 169.4842 172.5273 168.7655 186.5635 162.7476 192.393 162.0915 198.6662 163.2668 Z" id="BI.CI" fill="#cee3f5" stroke="#6e6e6e" stroke-width="0.4">
      <desc>
        <labelrank>9</labelrank>
        <code_hasc>BI.CI</code_hasc>
        <name>Cibitoke</name>
        <admin>Burundi</admin>
        <type_en>Province</type_en>
        <region/>
        <woe_id>2344905</woe_id>
        <longitude>29</longitude>
        <woe_name>Cibitoke</woe_name>
        <fips>BY12</fips>
        <woe_label>Cibitoke, BI, Burundi</woe_label>
        <latitude>-2</latitude>
        <iso_a2>BI</iso_a2>
        <postal>CI</postal>
        <type>Province</type>
        <id>BI.CI</id>
      </desc>
    </path>
    <path d="M 348.9047 254.1374 345.8443 267.5306 343.5075 274.3084 343.5656 277.5837 345.8069 280.9821 350.0665 283.4004 352.1545 281.5514 353.5746 278.3136 355.7966 276.5987 363.2207 276.7701 366.1065 277.948 370.2109 287.669 374.1287 292.0755 379.2907 296.0346 383.7775 301.0948 385.6694 308.788 385.4886 313.0657 384.7402 316.1719 383.0522 318.9243 380.0864 322.1241 373.3347 333.1668 372.2901 334.2499 374.1849 340.7731 379.6448 345.7699 385.3498 347.4922 387.98 344.2248 388.8309 340.6176 391.089 338.218 399.1104 351.1787 399.9013 355.9945 402.8457 359.6472 405.3861 363.5495 402.5393 381.7074 402.6791 390.315 405.0836 394.4845 408.8734 406.2298 412.2408 413.595 412.8144 422.6891 412.0442 431.8455 410.6702 440.749 404.7676 448.1827 394.0703 453.6444 383.2438 457.7687 379.1942 463.721 378.3298 471.0212 363.7084 485.6606 363.5909 490.5398 362.4673 495.0981 358.3725 494.8501 354.9267 491.3457 349.9104 485.6136 341.2164 485.3338 330.6898 480.971 335.4162 472.9324 326.8265 461.1909 323.9582 465.7433 319.7236 477.5431 313.1185 485.4418 304.3735 490.8606 298.8537 485.0283 300.9453 481.7601 302.6339 478.5408 302.3103 474.7636 306.1124 450.6819 308.0153 443.3527 307.534 436.1832 298.7787 433.8171 289.4147 432.9031 301.1907 424.5346 316.3607 426.4025 315.4746 419.7997 312.8415 413.4589 308.7647 407.0137 303.7435 401.9359 321.6062 391.062 336.0459 380.0273 337.5766 373.6154 337.8311 367.1661 339.2244 361.7229 341.9941 356.4675 337.4539 347.2468 327.7992 341.1195 326.2929 327.7142 312.814 319.6222 321.209 308.2837 335.2017 301.3719 329.8679 298.8505 325.0747 295.2112 322.2365 289.0543 318.6563 283.9316 323.6657 282.3579 327.103 278.3571 324.7318 260.8393 339.3212 244.9042 342.4778 245.4474 347.8799 248.0186 348.9047 254.1374 Z" id="BI.GI" fill="#cee3f5" stroke="#6e6e6e" stroke-width="0.4">
      <desc>
        <labelrank>9</labelrank>
        <code_hasc>BI.GI</code_hasc>
        <name>Gitega</name>
        <admin>Burundi</admin>
        <type_en>Province</type_en>
        <region/>
        <woe_id>2344906</woe_id>
        <longitude>29</longitude>
        <woe_name>Gitega</woe_name>
        <fips>BY13</fips>
        <woe_label>Gitega, BI, Burundi</woe_label>
        <latitude>-3</latitude>
        <iso_a2>BI</iso_a2>
        <postal>GI</postal>
        <type>Province</type>
        <id>BI.GI</id>
      </desc>
    </path>
    <path d="M 261.2199 158.4369 261.2193 158.465 261.1814 160.4195 262.7277 174.824 250.748 183.5005 254.674 185.5142 258.3046 184.4868 265.2102 190.9348 269.1086 190.3424 272.8715 190.251 276.3932 192.7153 288.2791 195.7009 294.9053 192.5424 301.3567 192.274 308.1361 195.2647 311.6702 206.251 314.6903 221.0123 326.412 222.4292 330.9734 225.4488 335.9757 226.8822 339.3293 229.2304 338.142 233.5216 337.8242 239.3358 339.3212 244.9042 324.7318 260.8393 327.103 278.3571 323.6657 282.3579 318.6563 283.9316 310.8915 285.9656 302.9945 287.2476 299.159 289.6265 294.3196 290.6495 288.4502 287.4761 285.174 281.6365 285.6906 276.7426 283.7849 273.346 275.5808 276.6662 268.2566 277.4995 267.5177 264.2658 263.4273 261.3486 258.4525 262.8898 255.0984 261.0104 252.0508 257.4444 244.1247 257.2413 235.5317 255.0821 234.7856 244.0882 230.8469 233.6214 227.6027 227.7002 223.1131 208.0783 214.9085 196.9346 209.3197 187.4509 205.2765 177.5867 204.4561 168.4645 198.6662 163.2668 210.4249 165.4702 217.9741 169.7293 224.1597 167.6713 230.2486 163.8423 237.3727 162.9224 240.7319 163.0634 243.3209 162.0668 245.743 160.602 255.4265 157.1487 257.7444 157.2875 261.2199 158.4369 Z" id="BI.KY" fill="#cee3f5" stroke="#6e6e6e" stroke-width="0.4">
      <desc>
        <labelrank>9</labelrank>
        <code_hasc>BI.KY</code_hasc>
        <name>Kayanza</name>
        <admin>Burundi</admin>
        <type_en>Province</type_en>
        <region/>
        <woe_id>2344908</woe_id>
        <longitude>29</longitude>
        <woe_name>Kayanza</woe_name>
        <fips>BY15</fips>
        <woe_label>Kayanza, BI, Burundi</woe_label>
        <latitude>-3</latitude>
        <iso_a2>BI</iso_a2>
        <postal>KY</postal>
        <type>Province</type>
        <id>BI.KY</id>
      </desc>
    </path>
    <path d="M 339.4856 568.595 342.7179 575.0233 348.7466 578.3537 354.571 582.4858 362.6191 593.2608 367.901 589.7544 376.3638 579.3244 391.0961 570.9399 418.6913 569.9589 427.8404 565.1807 432.1503 561.8545 434.9001 562.6007 435.064 562.6452 434.2035 564.6871 426.5322 577.7613 416.6845 589.5897 394.4956 607.821 391.1209 612.6212 382.7554 632.3094 378.6416 637.4407 371.4118 641.4568 368.1134 644.0845 356.9499 650.3248 345.2665 661.1419 327.9928 669.1304 325.1378 670.0887 319.7069 669.166 316.1913 667.3816 312.7379 666.9343 307.4596 670.1228 306.8684 671.2568 306.1611 676.5342 304.4737 679.3016 298.9298 681.8542 296.8767 683.7513 295.6523 688.3249 295.4691 692.5014 294.4662 696.1401 290.716 699 289.2424 698.4265 275.9989 697.3418 260.0491 693.5418 184.0935 694.2513 174.1448 616.1134 172.367 609.9287 176.4961 609.5397 225.8145 606.4366 236.9485 597.1508 245.4387 596.3766 260.9956 589.2273 272.4789 576.5847 282.702 569.7855 294.6591 566.4508 306.911 555.5817 312.8688 540.5138 314.2362 533.1497 318.7417 530.7588 319.2295 535.3723 318.8066 541.2692 322.8319 551.6595 322.5868 564.2409 324.8081 572.002 329.5981 574.5086 334.9095 571.9541 339.4856 568.595 Z" id="BI.MA" fill="#cee3f5" stroke="#6e6e6e" stroke-width="0.4">
      <desc>
        <labelrank>7</labelrank>
        <code_hasc>BI.MA</code_hasc>
        <name>Makamba</name>
        <admin>Burundi</admin>
        <type_en>Province</type_en>
        <region/>
        <woe_id>2344910</woe_id>
        <longitude>29</longitude>
        <woe_name>Makamba</woe_name>
        <fips>BY17</fips>
        <woe_label>Makamba, BI, Burundi</woe_label>
        <latitude>-4</latitude>
        <iso_a2>BI</iso_a2>
        <postal>MA</postal>
        <type>Province</type>
        <id>BI.MA</id>
      </desc>
    </path>
    <path d="M 404.6149 155.3373 412.7042 159.5201 417.9246 168.108 413.1585 178.19 405.9387 188.3655 413.4563 192.2634 420.9353 185.7824 425.5867 180.9648 431.0969 181.6652 435.2582 184.0168 439.9636 184.0967 439.5475 188.6586 439.8706 193.2728 430.3599 204.8959 409.1465 219.4271 396.7115 219.8604 383.8935 225.3399 376.8403 236.3669 371.2479 241.7326 364.5856 245.2235 361.8817 251.0315 348.9047 254.1374 347.8799 248.0186 342.4778 245.4474 339.3212 244.9042 337.8242 239.3358 338.142 233.5216 339.3293 229.2304 335.9757 226.8822 330.9734 225.4488 326.412 222.4292 314.6903 221.0123 311.6702 206.251 308.1361 195.2647 301.3567 192.274 294.9053 192.5424 288.2791 195.7009 276.3932 192.7153 272.8715 190.251 269.1086 190.3424 265.2102 190.9348 258.3046 184.4868 254.674 185.5142 250.748 183.5005 262.7277 174.824 261.1814 160.4195 261.2193 158.465 261.2199 158.4369 274.7321 162.9059 280.8617 163.8556 288.1379 162.9702 291.3007 161.0729 292.7189 158.0689 293.8098 151.2881 296.236 148.2863 299.9658 148.2615 307.2187 150.4504 315.2995 150.7034 321.8718 149.4825 327.9962 145.9213 334.666 139.2201 339.0151 133.382 342.9965 126.7076 346.1051 119.6633 347.8695 112.549 348.0261 108.9467 356.5298 110.1633 372.3167 114.3954 382.0348 126.3344 386.4511 134.5007 393.1254 140.1662 404.6149 155.3373 Z" id="BI.NG" fill="#cee3f5" stroke="#6e6e6e" stroke-width="0.4">
      <desc>
        <labelrank>9</labelrank>
        <code_hasc>BI.NG</code_hasc>
        <name>Ngozi</name>
        <admin>Burundi</admin>
        <type_en>Province</type_en>
        <region/>
        <woe_id>2344912</woe_id>
        <longitude>29</longitude>
        <woe_name>Ngozi</woe_name>
        <fips>BY19</fips>
        <woe_label>Ngozi, BI, Burundi</woe_label>
        <latitude>-2</latitude>
        <iso_a2>BI</iso_a2>
        <postal>NG</postal>
        <type>Province</type>
        <id>BI.NG</id>
      </desc>
    </path>
    <path d="M 492.9858 7.217 500.1221 12.6963 503.3882 25.0084 505.8366 27.7227 507.7104 31.5892 507.9676 36.3377 509.8746 40.3214 514.7061 44.8308 517.9195 50.7741 513.2097 64.4041 515.7177 69.8608 518.0543 76.4708 517.0947 83.2393 514.5894 89.502 508.0561 93.0956 501.0598 93.8794 497.5164 98.6511 493.7731 102.7369 470.3846 123.1522 468.3707 121.9433 465.7841 121.1173 462.5198 122.3456 455.3482 126.4051 448.6116 131.3182 440.035 132.9336 432.7326 135.923 427.8432 141.7266 425.808 148.691 417.6287 152.9982 404.6149 155.3373 393.1254 140.1662 386.4511 134.5007 382.0348 126.3344 372.3167 114.3954 356.5298 110.1633 348.0261 108.9467 349.4663 75.7904 356.5626 51.3757 354.28 26.5057 356.4327 9.967 356.4053 6.9591 357.3504 5.1563 360.6788 5.0629 363.2811 6.5389 365.5045 8.4477 366.069 8.9324 371.7881 13.8428 374.3088 14.2158 377.0493 13.9543 380.1757 14.0612 383.8879 15.3727 387.8484 18.4228 397.9083 30.3106 403.2435 34.9687 410.0246 39.4631 417.4819 42.3549 424.7446 42.1377 430.3012 38.3399 445.0373 20.0551 445.7151 17.7835 445.8902 14.7418 447.0553 12.5716 450.8374 12.948 460.9814 17.8857 465.0146 18.7978 470.2611 18.5761 476.4854 17.3204 482.6106 15.3624 487.2908 12.9997 491.487 9.1648 492.9858 7.217 Z" id="BI.KI" fill="#cee3f5" stroke="#6e6e6e" stroke-width="0.4">
      <desc>
        <labelrank>7</labelrank>
        <code_hasc>BI.KI</code_hasc>
        <name>Kirundo</name>
        <admin>Burundi</admin>
        <type_en>Province</type_en>
        <region/>
        <woe_id>2344909</woe_id>
        <longitude>30</longitude>
        <woe_name>Kirundo</woe_name>
        <fips>BY16</fips>
        <woe_label>Kirundo, BI, Burundi</woe_label>
        <latitude>-2</latitude>
        <iso_a2>BI</iso_a2>
        <postal>KI</postal>
        <type>Province</type>
        <id>BI.KI</id>
      </desc>
    </path>
    <path d="M 537.8905 208.1854 537.7475 208.2747 534.3116 210.4208 529.2123 217.7112 527.4256 219.2939 524.365 219.7358 521.9408 220.9487 520.3216 222.7325 518.6923 227.7431 516.4033 228.739 514.1134 230.0359 513.0598 233.6939 513.3409 240.4825 512.3923 242.8368 503.881 245.1003 501.3817 248.8706 499.6279 261.37 499.1227 261.686 495.3641 270.3839 493.2079 272.0152 488.8345 273.3553 486.6206 272.0109 483.4658 270.6468 479.0336 269.3623 474.8958 270.6698 470.8602 271.5598 467.5383 269.8945 460.7654 264.8754 458.1875 261.7082 459.3446 256.9979 461.0392 252.3394 467.8663 239.7898 472.8136 226.482 472.7514 213.5768 467.34 202.0601 453.9461 196.0038 439.8706 193.2728 439.5475 188.6586 439.9636 184.0967 435.2582 184.0168 431.0969 181.6652 425.5867 180.9648 420.9353 185.7824 413.4563 192.2634 405.9387 188.3655 413.1585 178.19 417.9246 168.108 412.7042 159.5201 404.6149 155.3373 417.6287 152.9982 425.808 148.691 427.8432 141.7266 432.7326 135.923 440.035 132.9336 448.6116 131.3182 455.3482 126.4051 462.5198 122.3456 465.7841 121.1173 468.3707 121.9433 470.3846 123.1522 493.7731 102.7369 497.5164 98.6511 501.0598 93.8794 508.0561 93.0956 514.5894 89.502 517.0947 83.2393 518.0543 76.4708 515.7177 69.8608 513.2097 64.4041 517.9195 50.7741 514.7061 44.8308 509.8746 40.3214 507.9676 36.3377 507.7104 31.5892 505.8366 27.7227 503.3882 25.0084 500.1221 12.6963 492.9858 7.217 494.3376 5.4603 497.5228 2.5256 502.7563 1 504.3352 1.8062 514.6212 4.2717 515.7321 3.8731 517.275 5.649 518.9456 10.2005 520.8061 12.7462 538.4451 27.2021 549.2628 32.2792 559.9581 32.7081 549.1426 46.1566 544.769 53.0004 532.3464 82.8286 529.6618 93.0869 528.2401 96.4937 525.1016 100.5311 517.3136 107.8326 514.6461 111.8377 513.3632 119.7921 516.9682 123.2795 523.2895 123.3642 530.1555 121.1432 541.8392 115.8928 549.3125 113.172 547.1933 119.2855 528.424 138.7603 525.7891 142.9994 524.7154 148.012 524.5738 156.2373 517.4516 165.7461 513.6986 172.9241 514.3881 178.5101 522.4927 189.0003 527.4207 193.6297 533.3329 195.2529 531.8427 198.7928 533.7175 201.3734 536.5329 204.1576 537.8905 208.1854 Z" id="BI.MY" fill="#cee3f5" stroke="#6e6e6e" stroke-width="0.4">
      <desc>
        <labelrank>7</labelrank>
        <code_hasc>BI.MY</code_hasc>
        <name>Muyinga</name>
        <admin>Burundi</admin>
        <type_en>Province</type_en>
        <region/>
        <woe_id>2344911</woe_id>
        <longitude>30</longitude>
        <woe_name>Muyinga</woe_name>
        <fips>BY18</fips>
        <woe_label/>
        <latitude>-2</latitude>
        <iso_a2>BI</iso_a2>
        <postal>MY</postal>
        <type>Province</type>
        <id>BI.MY</id>
      </desc>
    </path>
    <path d="M 126.3817 410.0713 122.6221 356.975 140.5024 346.0581 156.5413 336.2664 162.2225 331.1187 168.1269 326.8319 175.596 325.6767 180.7512 325.9395 186.2414 330.6448 187.7989 336.5137 187.3847 345.1149 185.5108 352.7952 182.7379 361.7814 179.962 371.9405 177.965 384.8384 176.3666 395.3913 170.4566 402.0232 165.3375 406.702 153.5423 410.5821 126.3817 410.0713 Z" id="BI.BM" fill="#cee3f5" stroke="#6e6e6e" stroke-width="0.4">
      <desc>
        <labelrank>9</labelrank>
        <code_hasc>BI.BM</code_hasc>
        <name>Bujumbura Mairie</name>
        <admin>Burundi</admin>
        <type_en>Province</type_en>
        <region/>
        <woe_id>2344900</woe_id>
        <longitude>29</longitude>
        <woe_name>Bujumbura Mairie</woe_name>
        <fips>BY24</fips>
        <woe_label>Bujumbura Mairie, BI, Burundi</woe_label>
        <latitude>-3</latitude>
        <iso_a2>BI</iso_a2>
        <postal>BM</postal>
        <type>Province</type>
        <id>BI.BM</id>
      </desc>
    </path>
    <path d="M 318.6563 283.9316 322.2365 289.0543 325.0747 295.2112 329.8679 298.8505 335.2017 301.3719 321.209 308.2837 312.814 319.6222 326.2929 327.7142 327.7992 341.1195 319.9324 344.2758 296.1539 348.5737 283.3632 348.2883 273.7635 350.1773 269.4538 352.501 267.4268 354.3854 264.6952 354.6707 262.8753 351.7554 258.1296 349.1961 251.5443 350.9972 246.2591 354.7922 243.0458 350.9914 239.4803 353.3708 237.4259 355.7208 234.1844 349.8987 231.5837 342.9091 228.3425 336.8533 228.6278 330.3724 223.7949 316.2276 227.7328 312.6126 230.2967 307.9416 229.3298 305.1828 227.4215 302.856 229.895 294.0084 234.4137 286.5189 235.4434 277.5507 231.2318 269.3548 232.1566 261.9399 235.5317 255.0821 244.1247 257.2413 252.0508 257.4444 255.0984 261.0104 258.4525 262.8898 263.4273 261.3486 267.5177 264.2658 268.2566 277.4995 275.5808 276.6662 283.7849 273.346 285.6906 276.7426 285.174 281.6365 288.4502 287.4761 294.3196 290.6495 299.159 289.6265 302.9945 287.2476 310.8915 285.9656 318.6563 283.9316 Z" id="BI.MV" fill="#cee3f5" stroke="#6e6e6e" stroke-width="0.4">
      <desc>
        <labelrank>7</labelrank>
        <code_hasc>BI.MV</code_hasc>
        <name>Muramvya</name>
        <admin>Burundi</admin>
        <type_en>Province</type_en>
        <region/>
        <woe_id>2344901</woe_id>
        <longitude>29</longitude>
        <woe_name>Muramvya</woe_name>
        <fips>BY22</fips>
        <woe_label>Muramvya, BI, Burundi</woe_label>
        <latitude>-3</latitude>
        <iso_a2>BI</iso_a2>
        <postal>MV</postal>
        <type>Province</type>
        <id>BI.MV</id>
      </desc>
    </path>
    <path d="M 223.7949 316.2276 228.6278 330.3724 228.3425 336.8533 231.5837 342.9091 234.1844 349.8987 237.4259 355.7208 239.4803 353.3708 243.0458 350.9914 246.2591 354.7922 245.6388 360.6877 249.9964 375.6849 245.9688 387.3848 246.2493 395.2039 243.3421 402.3794 236.9889 405.3353 231.0035 408.8937 226.4817 417.3675 218.7018 438.7451 216.7119 442.164 215.7614 445.9701 215.9178 450.0298 215.4702 454.0377 212.1043 457.4527 206.9696 457.2879 199.684 458.2365 192.7304 460.5391 154.2355 461.3375 132.1008 456.2029 124.0715 454.7244 126.0981 441.0727 126.7813 415.7215 126.3817 410.0713 153.5423 410.5821 165.3375 406.702 170.4566 402.0232 176.3666 395.3913 177.965 384.8384 179.962 371.9405 182.7379 361.7814 185.5108 352.7952 187.3847 345.1149 187.7989 336.5137 186.2414 330.6448 180.7512 325.9395 175.596 325.6767 168.1269 326.8319 162.2225 331.1187 156.5413 336.2664 140.5024 346.0581 122.6221 356.975 120.9649 333.6041 121.6574 324.1528 123.077 319.847 130.5754 312.9995 138.0279 322.3193 149.2996 326.0864 160.2375 314.6706 168.3038 311.1317 176.9372 309.2479 183.1165 308.7447 188.9896 309.9614 194.7939 311.8796 201.11 310.4417 214.3416 309.7894 223.7949 316.2276 Z" id="BI.BU" fill="#cee3f5" stroke="#6e6e6e" stroke-width="0.4">
      <desc>
        <labelrank>9</labelrank>
        <code_hasc>BI.BU</code_hasc>
        <name>Bujumbura Rural</name>
        <admin>Burundi</admin>
        <type_en>Province</type_en>
        <region/>
        <woe_id>56017453</woe_id>
        <longitude>29</longitude>
        <woe_name>Bujumbura Rural</woe_name>
        <fips>BY25</fips>
        <woe_label>Bujumbura Rural, BI, Burundi</woe_label>
        <latitude>-3</latitude>
        <iso_a2>BI</iso_a2>
        <postal>BU</postal>
        <type>Province</type>
        <id>BI.BU</id>
      </desc>
    </path>
    <path d="M 289.4147 432.9031 286.4131 437.4386 282.9761 441.6719 281.6194 446.2624 272.7574 457.2791 273.067 443.6303 270.8108 434.7354 262.2997 429.3808 248.5856 412.0502 243.3421 402.3794 246.2493 395.2039 245.9688 387.3848 249.9964 375.6849 245.6388 360.6877 246.2591 354.7922 251.5443 350.9972 258.1296 349.1961 262.8753 351.7554 264.6952 354.6707 267.4268 354.3854 269.4538 352.501 273.7635 350.1773 283.3632 348.2883 296.1539 348.5737 319.9324 344.2758 327.7992 341.1195 337.4539 347.2468 341.9941 356.4675 339.2244 361.7229 337.8311 367.1661 337.5766 373.6154 336.0459 380.0273 321.6062 391.062 303.7435 401.9359 308.7647 407.0137 312.8415 413.4589 315.4746 419.7997 316.3607 426.4025 301.1907 424.5346 289.4147 432.9031 Z" id="BI.MW" fill="#cee3f5" stroke="#6e6e6e" stroke-width="0.4">
      <desc>
        <labelrank>7</labelrank>
        <code_hasc>BI.MW</code_hasc>
        <name>Mwaro</name>
        <admin>Burundi</admin>
        <type_en>Province</type_en>
        <region/>
        <woe_id>-2344901</woe_id>
        <longitude>29</longitude>
        <woe_name>Muramvya</woe_name>
        <fips>BY23</fips>
        <woe_label>Muramvya, BI, Burundi</woe_label>
        <latitude>-3</latitude>
        <iso_a2>BI</iso_a2>
        <postal>MV</postal>
        <type>Province</type>
        <id>BI.MW</id>
      </desc>
    </path>
  </g>
</svg>