<?xml version="1.0" encoding="UTF-8"?>
<svg xmlns="http://www.w3.org/2000/svg" width="700" height="700">
  <g id="lebanon">
    <path d="M 352.0047 541.3723 351.7703 541.3161 345.9682 539.9251 329.6572 538.2706 328.3871 537.3008 326.839 535.5093 323.1875 528.2313 322.0648 525.2173 319.9666 522.6546 312.6715 518.5599 305.6858 516.4414 303.9511 517.2287 301.5826 518.9596 296.8323 524.0469 293.1692 528.789 290.3313 533.6513 286.972 538.1885 284.2576 539.3488 277.4522 537.1875 276.0164 528.1694 274.3695 525.9639 272.5179 522.1599 271.8744 520.5725 270.3109 515.1248 269.1084 505.1298 272.1299 502.4681 273.5695 500.8608 276.1055 497.0983 276.9888 495.1885 277.8529 492.5265 282.2087 472.124 285.9988 461.1717 288.2371 456.6519 307.801 425.3855 311.1972 423.4626 312.5357 422.3578 314.2732 419.8022 317.0851 416.5195 317.327 415.3347 317.2482 414.4312 311.6343 409.0275 320.9304 394.7043 323.5525 394.6228 327.5712 394.9616 328.6086 394.9117 329.6432 394.7527 330.7243 394.2979 331.6353 393.6185 332.3771 392.7473 334.5685 388.9014 332.954 385.8248 321.0772 377.8105 343.2265 349.9832 348.9032 339.3945 350.3345 335.8956 350.5799 334.9067 354.3722 329.967 369.8516 315.0937 373.8873 313.1127 383.2887 297.9253 398.1139 265.9549 398.6311 240.2929 399.1231 237.2772 401.7632 230.1818 409.7929 229.2562 410.7642 228.9653 411.6205 228.4705 412.9366 226.9688 419.8704 214.3624 420.8455 210.6003 421.713 199.6706 434.2512 182.7322 444.6276 171.2799 448.113 157.4623 448.7747 156.0228 449.9686 154.2283 452.9098 150.9712 459.8616 145.1211 462.6476 142.1627 464.318 140.0142 473.2939 119.9604 473.6036 118.8917 472.0104 113.7462 478.423 104.9501 478.8784 103.9203 479.0652 102.9754 479.0607 101.1416 479.1425 100.3093 479.3369 99.6044 479.6946 98.9161 480.9915 97.0623 496.1728 84.5405 496.9556 83.5979 501.2862 81.6878 508.6059 80.5303 508.7305 80.5106 509.7864 82.347 510.7352 82.6105 511.7129 82.6546 512.6856 82.5461 513.615 82.2206 520.3371 79.9449 530.5424 79.1342 540.1392 79.575 545.0004 81.1026 545.0026 81.168 547.4822 88.1483 551.1365 93.4833 555.9682 97.249 561.9833 99.6195 567.2599 105.7273 569.8479 107.3085 572.3834 106.3253 578.0896 110.1345 580.1346 113.7651 580.0084 118.4541 579.0201 125.4226 578.181 128.3674 576.9843 130.4073 575.939 132.6385 575.7699 136.1168 576.8279 139.4652 578.6783 142.6768 586.6122 153.0363 590.483 156.9741 593.0191 157.9771 595.5826 157.6905 597.8825 158.1556 599.8085 161.3747 599.2777 166.8863 596.0737 171.662 593.6212 177.2081 595.566 185.0896 598.0619 191.0845 606.8382 199.1837 608.8579 203.2331 609.0648 203.6478 599.5517 214.9034 591.9043 228.8097 576.6595 242.7791 570.0976 251.6846 568.2685 257.7196 567.7479 262.7054 565.9564 266.6752 560.3165 269.7381 555.495 270.1411 547.8476 267.5812 543.8056 267.367 536.5233 271.376 525.318 286.6043 511.7293 299.3181 506.4252 306.3015 501.8334 314.0033 494.794 329.4892 495.4609 330.9961 497.8446 334.9591 500.1458 337.4618 510.7735 345.1986 524.677 347.1056 530.8766 350.6474 531.8523 359.2944 527.7758 365.0173 521.0395 366.3283 507.6493 363.5949 489.2758 355.2838 483.1246 354.2989 477.838 356.4842 473.0491 360.6287 467.4768 364.2183 460.129 364.6199 457.2345 362.908 452.5848 357.4077 450.2143 356.1268 437.8199 364.2522 431.7837 367.0641 425.2824 368.9721 419.7094 371.4842 416.3495 376.1565 411.8807 385.2917 400.5162 395.5876 395.8806 402.9681 393.8696 407.8387 387.5894 413.9448 385.0728 417.7816 384.6634 421.3289 385.9029 428.954 385.0707 433.0371 383.4399 434.7205 378.8946 436.5956 377.5131 438.0752 376.4187 447.1304 381.1707 449.9092 389.0197 451.1478 397.398 455.5231 402.4738 456.7733 409.0635 459.8229 415.1038 464.0335 418.3461 468.7074 417.4441 476.5694 412.1907 483.1288 405.0627 488.1375 398.4315 491.4171 390.1373 491.5456 381.8861 494.4753 378.0259 500.1821 383.0541 508.6168 377.8057 522.2408 367.097 531.8041 360.6958 535.855 352.0047 541.3723 Z" id="LB.BI" fill="#cee3f5" stroke="#6e6e6e" stroke-width="0.4">
      <desc>
        <labelrank>9</labelrank>
        <code_hasc>LB.BI</code_hasc>
        <name>Beqaa</name>
        <admin>Lebanon</admin>
        <type_en>Province</type_en>
        <region/>
        <woe_id>2346013</woe_id>
        <longitude>36</longitude>
        <woe_name>Beqaa</woe_name>
        <fips>LE11</fips>
        <woe_label>Al Biqa', LB, Lebanon</woe_label>
        <latitude>34</latitude>
        <iso_a2>LB</iso_a2>
        <postal>BI</postal>
        <type>Muhafazah</type>
        <id>LB.BI</id>
      </desc>
    </path>
    <path d="M 508.7305 80.5106 508.6059 80.5303 501.2862 81.6878 496.9556 83.5979 496.1728 84.5405 480.9915 97.0623 479.6946 98.9161 479.3369 99.6044 479.1425 100.3093 479.0607 101.1416 479.0652 102.9754 478.8784 103.9203 478.423 104.9501 472.0104 113.7462 473.6036 118.8917 473.2939 119.9604 464.318 140.0142 462.6476 142.1627 459.8616 145.1211 452.9098 150.9712 449.9686 154.2283 448.7747 156.0228 448.113 157.4623 444.6276 171.2799 434.2512 182.7322 421.713 199.6706 420.8455 210.6003 419.8704 214.3624 412.9366 226.9688 411.6205 228.4705 410.7642 228.9653 409.7929 229.2562 401.7632 230.1818 398.3207 228.5153 396.1657 229.2771 393.8771 229.2024 391.4705 228.8145 379.5934 223.4415 377.5828 221.6662 376.9199 221.3252 375.1073 220.7445 374.1254 220.6636 373.2066 220.8865 372.4273 222.1748 371.6168 224.2716 370.9855 225.0317 370.1829 225.5131 369.2093 225.7265 368.2848 225.753 365.6529 225.0752 363.5029 224.1107 360.9504 224.3033 358.9198 223.7062 351.8175 219.5092 349.0655 218.3971 344.5668 215.1295 342.6488 214.6375 340.0161 214.5254 335.3535 215.1132 330.979 216.2817 328.5055 217.3429 326.934 217.5716 318.2636 217.5141 313.2384 218.7854 311.9891 218.8629 305.6035 218.1185 282.0084 206.9614 272.9456 206.3034 272.5244 206.1398 272.5139 206.1357 273.4314 204.2157 273.2857 190.9379 274.5955 177.708 278.578 166.4182 286.6236 159.041 292.7383 163.8272 298.2295 154.8655 303.1668 141.3297 307.6297 132.514 326.7234 121.3534 332.5844 112.9418 325.9562 102.9183 325.8833 100.2911 332.4167 101.8278 359.9446 93.8133 378.1106 75.4984 383.6189 71.2461 387.0897 67.3969 388.8748 61.3971 388.5717 41.5713 387.3419 32.6872 384.963 25.2809 381.0746 20.6004 381.0745 20.5999 385.5132 20.3045 388.6025 21.0642 391.1976 22.1876 397.4381 26.9565 405.0759 28.9317 413.0511 28.9086 422.2416 27.3183 430.9499 27.6762 446.2371 28.2993 447.7365 27.772 451.8396 25.1105 453.9503 24.5199 455.7412 25.2275 459.9491 28.1727 462.1002 28.8467 483.1215 26.9933 486.5323 25.3106 489.6292 21.76 490.8005 17.8352 490.6749 9.5638 491.7227 6.2979 498.8002 1 504.1016 4.2316 512.8145 18.8787 520.0558 24.9481 528.4092 27.5066 537.0586 27.0396 545.4044 24.0258 544.4879 37.3785 542.0655 39.4264 538.2475 36.5424 533.0389 35.2338 527.9885 38.6141 527.437 43.6988 528.0788 49.9008 526.7134 56.5851 520.0707 62.179 510.6755 67.666 505.0311 74.0751 508.7305 80.5106 Z" id="LB.AS" fill="#cee3f5" stroke="#6e6e6e" stroke-width="0.4">
      <desc>
        <labelrank>9</labelrank>
        <code_hasc>LB.AS</code_hasc>
        <name>North Lebanon</name>
        <admin>Lebanon</admin>
        <type_en>Province</type_en>
        <region/>
        <woe_id>2346015</woe_id>
        <longitude>36</longitude>
        <woe_name>North Lebanon</woe_name>
        <fips>LE09</fips>
        <woe_label>Ash Shamal, LB, Lebanon</woe_label>
        <latitude>34</latitude>
        <iso_a2>LB</iso_a2>
        <postal>AS</postal>
        <type>Muhafazah</type>
        <id>LB.AS</id>
      </desc>
    </path>
    <path d="M 241.8351 338.4264 241.8285 340.3452 238.0467 352.9622 234.1813 353.4065 233.2794 354.4759 232.0174 356.4487 230.7815 357.2644 226.0927 357.5534 219.3534 356.3002 219.3534 356.2939 219.3651 353.2187 218.0992 348.2674 215.8251 344.2682 214.5677 340.8284 216.377 337.4521 220.1253 336.0903 224.7815 336.733 228.8611 338.3857 231.0551 340.2389 233.4602 340.1798 236.8204 338.1901 241.8351 338.4264 Z" id="LB.BA" fill="#cee3f5" stroke="#6e6e6e" stroke-width="0.4">
      <desc>
        <labelrank>9</labelrank>
        <code_hasc>LB.BA</code_hasc>
        <name>Beirut</name>
        <admin>Lebanon</admin>
        <type_en>Province</type_en>
        <region/>
        <woe_id>2346016</woe_id>
        <longitude>35</longitude>
        <woe_name>Beirut</woe_name>
        <fips>LE04</fips>
        <woe_label>Bayrut, LB, Lebanon</woe_label>
        <latitude>33</latitude>
        <iso_a2>LB</iso_a2>
        <postal>BA</postal>
        <type>Muhafazah</type>
        <id>LB.BA</id>
      </desc>
    </path>
    <path d="M 401.7632 230.1818 399.1231 237.2772 398.6311 240.2929 398.1139 265.9549 383.2887 297.9253 373.8873 313.1127 369.8516 315.0937 354.3722 329.967 350.5799 334.9067 350.3345 335.8956 348.9032 339.3945 343.2265 349.9832 321.0772 377.8105 332.954 385.8248 334.5685 388.9014 332.3771 392.7473 331.6353 393.6185 330.7243 394.2979 329.6432 394.7527 328.6086 394.9117 327.5712 394.9616 323.5525 394.6228 320.9304 394.7043 311.6343 409.0275 317.2482 414.4312 317.327 415.3347 317.0851 416.5195 314.2732 419.8022 312.5357 422.3578 311.1972 423.4626 307.801 425.3855 288.2371 456.6519 285.9988 461.1717 282.2087 472.124 277.8529 492.5265 276.9888 495.1885 276.1055 497.0983 273.5695 500.8608 272.1299 502.4681 269.1084 505.1298 270.907 493.1282 270.5502 492.0245 270.1819 490.4629 268.8331 489.8643 267.0285 489.2988 265.8976 488.64 264.2153 487.1224 263.6874 485.7393 263.7668 484.5373 264.4141 481.9466 264.6533 478.3842 264.6037 469.8765 263.4812 466.6212 262.0057 464.5746 260.4111 464.3201 259.2696 464.665 258.1907 465.3247 257.3343 466.1206 256.5233 466.5445 255.6513 466.7189 254.7761 466.7626 251.617 467.4738 249.9218 467.5812 249.2143 467.7624 248.5663 468.1384 248.1419 468.6943 247.8291 469.3347 247.4041 469.8688 246.7544 470.1794 245.2139 470.6428 244.788 471.1442 244.1075 472.4263 243.6263 472.9072 241.9581 474.1262 241.2523 474.3835 239.6683 474.575 237.3286 475.2212 235.4098 475.1589 234.5359 475.2675 233.2347 475.8227 232.5862 476.1875 228.4984 477.8027 225.9937 478.4412 222.4852 478.3401 221.5578 478.5041 221.021 478.9642 220.6526 479.5948 220.1186 480.1748 218.7466 480.0767 214.862 480.2892 206.155 478.8918 196.9567 474.3952 186.5269 474.1895 184.7584 473.4994 184.7434 473.4936 192.548 450.6681 190.2699 447.8352 195.6433 442.9351 199.3715 425.516 205.222 421.5648 204.8727 416.5057 217.9712 382.198 219.1746 373.8203 219.3534 356.3002 226.0927 357.5534 230.7815 357.2644 232.0174 356.4487 233.2794 354.4759 234.1813 353.4065 238.0467 352.9622 241.8285 340.3452 241.8351 338.4264 241.8398 338.4266 245.1379 338.5679 250.2173 336.6199 252.3793 333.731 255.517 325.2509 257.2615 321.7536 257.3317 319.9995 256.8005 319.3772 254.5918 319.2268 257.507 315.614 261.4851 305.411 263.9241 301.1568 266.2198 300.2734 272.0524 300.0378 273.4664 298.2661 273.1956 294.4245 271.5143 292.4748 269.5961 291.3215 268.4403 289.7705 268.09 279.4709 273.3575 260.831 274.5606 247.6904 273.3186 242.7743 268.1107 233.6309 266.8438 227.7017 266.472 213.2789 267.5049 210.1595 272.3755 206.4252 272.5139 206.1357 272.5244 206.1398 272.9456 206.3034 282.0084 206.9614 305.6035 218.1185 311.9891 218.8629 313.2384 218.7854 318.2636 217.5141 326.934 217.5716 328.5055 217.3429 330.979 216.2817 335.3535 215.1132 340.0161 214.5254 342.6488 214.6375 344.5668 215.1295 349.0655 218.3971 351.8175 219.5092 358.9198 223.7062 360.9504 224.3033 363.5029 224.1107 365.6529 225.0752 368.2848 225.753 369.2093 225.7265 370.1829 225.5131 370.9855 225.0317 371.6168 224.2716 372.4273 222.1748 373.2066 220.8865 374.1254 220.6636 375.1073 220.7445 376.9199 221.3252 377.5828 221.6662 379.5934 223.4415 391.4705 228.8145 393.8771 229.2024 396.1657 229.2771 398.3207 228.5153 401.7632 230.1818 Z" id="LB.JL" fill="#cee3f5" stroke="#6e6e6e" stroke-width="0.4">
      <desc>
        <labelrank>9</labelrank>
        <code_hasc>LB.JL</code_hasc>
        <name>Mount Lebanon</name>
        <admin>Lebanon</admin>
        <type_en>Province</type_en>
        <region/>
        <woe_id>2346017</woe_id>
        <longitude>35</longitude>
        <woe_name>Mount Lebanon</woe_name>
        <fips>LE05</fips>
        <woe_label>Jabal Lubnan, LB, Lebanon</woe_label>
        <latitude>33</latitude>
        <iso_a2>LB</iso_a2>
        <postal>JL</postal>
        <type>Muhafazah</type>
        <id>LB.JL</id>
      </desc>
    </path>
    <path d="M 277.4522 537.1875 284.2576 539.3488 286.972 538.1885 290.3313 533.6513 293.1692 528.789 296.8323 524.0469 301.5826 518.9596 303.9511 517.2287 305.6858 516.4414 312.6715 518.5599 319.9666 522.6546 322.0648 525.2173 323.1875 528.2313 326.839 535.5093 328.3871 537.3008 329.6572 538.2706 345.9682 539.9251 351.7703 541.3161 352.0047 541.3723 343.6443 546.6762 338.3695 553.3106 331.687 567.6189 326.0759 574.2056 321.9373 576.9883 317.0894 579.2873 312.0748 580.8373 307.4009 581.4176 301.1852 583.2919 288.0725 597.7343 281.1474 603.5719 275.5696 604.9483 270.5108 606.1958 267.4399 609.4577 268.7322 617.1813 268.7328 617.2031 268.7333 617.2249 268.5324 618.8884 268.5206 618.9865 266.4249 617.2824 266.3503 617.2297 266.3139 617.2415 261.725 614.0393 255.0645 604.0809 252.9518 601.624 248.8246 602.1941 246.5415 606.253 244.5937 612.0706 241.5089 617.8938 238.9854 627.2699 238.6432 648.0897 236.9943 658.8841 234.1192 666.0427 227.7955 678.0166 226.1858 684.4789 215.3057 685.6508 198.4777 693.3363 178.549 699 173.8344 698.4398 170.4347 694.2074 167.8645 689.2585 164.2465 685.0522 160.2125 681.9345 158.1339 681.0395 158.1366 681.0205 158.5661 677.9903 158.736 673.1663 158.5471 672.0799 158.3327 669.8271 158.4223 668.8873 158.8744 666.9035 158.942 664.9608 159.0313 664.0101 163.1243 652.382 164.0805 650.8232 166.0008 650.5627 168.709 651.0917 169.5891 651.0722 170.2969 650.7293 170.893 650.3125 172.5076 648.6843 173.357 647.2912 173.9441 645.6531 174.1234 641.3631 174.4292 640.2765 175.9059 639.8836 179.2047 639.7878 180.1898 639.5584 181.2786 639.0431 184.6942 636.8175 185.175 636.1849 184.6461 634.6918 183.8601 633.9898 182.9124 633.4332 181.9696 633.0946 181.0794 632.6457 180.4034 631.9411 180.492 630.9902 181.1284 629.9398 183.0796 628.6633 184.4946 627.9988 186.7851 627.1398 188.4594 625.7929 190.3905 623.6549 199.9066 611.0357 201.5177 609.3842 202.6238 607.2972 203.2318 605.069 203.0175 598.2027 202.7035 596.5085 202.9234 594.1475 206.2181 589.3263 200.7508 590.5004 199.1857 591.7255 197.7633 591.9983 195.4542 591.9424 186.0601 590.4124 179.1454 588.3442 173.4672 582.5826 174.9094 575.8755 173.9704 573.1918 173.0731 572.3613 172.1251 571.7173 168.2717 569.6549 167.3353 569.5231 166.4052 569.6747 162.4497 569.5881 161.4579 569.4356 160.4609 569.0432 159.5159 568.5188 158.7343 567.9362 158.3956 567.5184 159.0994 567.0666 162.4437 566.8399 163.747 566.1893 164.7623 564.9344 165.8562 562.2816 166.2619 560.7785 166.3995 559.5648 166.3322 559.0101 166.4021 557.2199 166.5997 556.2339 167.509 555.1666 169.1878 554.1475 172.7495 553.0643 174.564 553.2088 175.8398 553.8018 176.4095 554.7269 177.11 556.576 177.5684 557.4273 178.354 558.1839 180.0294 559.4439 180.6493 560.1496 181.0502 560.8822 181.9015 562.1062 182.6804 562.5575 183.4434 562.3111 184.0222 561.2073 183.5013 557.6199 184.0033 555.5581 190.1017 543.8356 190.372 542.8587 190.4576 541.8097 190.3642 540.9284 189.8 540.2542 189.03 540.1737 187.1774 540.7397 186.4594 540.538 186.2797 539.8768 186.7426 538.5247 189.5058 533.815 190.2709 532.0959 191.1368 530.789 192.1071 530.0468 196.1014 529.6055 198.3396 529.1391 199.2605 528.6378 200.0631 527.7683 200.3448 525.7331 199.9337 524.5647 199.0931 523.7989 198.2059 523.3832 197.6451 522.8509 200.9964 520.7442 216.2243 516.8738 218.924 517.3987 221.1704 517.3124 222.2611 517.0573 224.2729 516.3329 228.1653 514.0033 229.1426 513.598 230.2512 513.3313 232.2781 513.2496 233.2059 513.0636 234.1828 512.6472 235.0422 511.9064 235.6808 511.1056 236.4226 510.0404 236.4753 509.9518 237.3963 509.4931 238.1635 509.4744 238.8274 509.7201 239.1052 509.866 239.2169 509.9506 239.2174 509.9724 239.2738 510.0364 239.0869 513.6189 237.6418 524.104 237.6146 525.2391 239.431 552.574 238.8553 558.2601 240.0362 561.6674 245.8219 573.7325 249.4984 562.3854 251.2031 559.5074 252.6743 559.0458 253.3799 558.7121 254.5693 557.9628 255.2219 557.7067 255.9893 557.655 256.7621 557.8213 257.4287 558.1321 258.3147 558.4374 259.4155 558.541 261.4382 558.1853 262.5738 557.4807 263.4245 556.3686 263.7874 555.5087 265.211 550.957 271.173 544.9932 273.2363 544.1012 274.6294 542.757 277.4522 537.1875 Z" id="LB.NA" fill="#cee3f5" stroke="#6e6e6e" stroke-width="0.4">
      <desc>
        <labelrank>9</labelrank>
        <code_hasc>LB.NA</code_hasc>
        <name>An Nabatiyah</name>
        <admin>Lebanon</admin>
        <type_en>Province</type_en>
        <region/>
        <woe_id>56049597</woe_id>
        <longitude>35</longitude>
        <woe_name>An Nabatiyah</woe_name>
        <fips>LE07</fips>
        <woe_label>An Nabatiyah, LB, Lebanon</woe_label>
        <latitude>33</latitude>
        <iso_a2>LB</iso_a2>
        <postal>NA</postal>
        <type>Muhafazah</type>
        <id>LB.NA</id>
      </desc>
    </path>
    <path d="M 269.1084 505.1298 270.3109 515.1248 271.8744 520.5725 272.5179 522.1599 274.3695 525.9639 276.0164 528.1694 277.4522 537.1875 274.6294 542.757 273.2363 544.1012 271.173 544.9932 265.211 550.957 263.7874 555.5087 263.4245 556.3686 262.5738 557.4807 261.4382 558.1853 259.4155 558.541 258.3147 558.4374 257.4287 558.1321 256.7621 557.8213 255.9893 557.655 255.2219 557.7067 254.5693 557.9628 253.3799 558.7121 252.6743 559.0458 251.2031 559.5074 249.4984 562.3854 245.8219 573.7325 240.0362 561.6674 238.8553 558.2601 239.431 552.574 237.6146 525.2391 237.6418 524.104 239.0869 513.6189 239.2738 510.0364 239.2174 509.9724 239.2169 509.9506 239.1052 509.866 238.8274 509.7201 238.1635 509.4744 237.3963 509.4931 236.4753 509.9518 236.4226 510.0404 235.6808 511.1056 235.0422 511.9064 234.1828 512.6472 233.2059 513.0636 232.2781 513.2496 230.2512 513.3313 229.1426 513.598 228.1653 514.0033 224.2729 516.3329 222.2611 517.0573 221.1704 517.3124 218.924 517.3987 216.2243 516.8738 200.9964 520.7442 197.6451 522.8509 198.2059 523.3832 199.0931 523.7989 199.9337 524.5647 200.3448 525.7331 200.0631 527.7683 199.2605 528.6378 198.3396 529.1391 196.1014 529.6055 192.1071 530.0468 191.1368 530.789 190.2709 532.0959 189.5058 533.815 186.7426 538.5247 186.2797 539.8768 186.4594 540.538 187.1774 540.7397 189.03 540.1737 189.8 540.2542 190.3642 540.9284 190.4576 541.8097 190.372 542.8587 190.1017 543.8356 184.0033 555.5581 183.5013 557.6199 184.0222 561.2073 183.4434 562.3111 182.6804 562.5575 181.9015 562.1062 181.0502 560.8822 180.6493 560.1496 180.0294 559.4439 178.354 558.1839 177.5684 557.4273 177.11 556.576 176.4095 554.7269 175.8398 553.8018 174.564 553.2088 172.7495 553.0643 169.1878 554.1475 167.509 555.1666 166.5997 556.2339 166.4021 557.2199 166.3322 559.0101 166.3995 559.5648 166.2619 560.7785 165.8562 562.2816 164.7623 564.9344 163.747 566.1893 162.4437 566.8399 159.0994 567.0666 158.3956 567.5184 158.7343 567.9362 159.5159 568.5188 160.4609 569.0432 161.4579 569.4356 162.4497 569.5881 166.4052 569.6747 167.3353 569.5231 168.2717 569.6549 172.1251 571.7173 173.0731 572.3613 173.9704 573.1918 174.9094 575.8755 173.4672 582.5826 179.1454 588.3442 186.0601 590.4124 195.4542 591.9424 197.7633 591.9983 199.1857 591.7255 200.7508 590.5004 206.2181 589.3263 202.9234 594.1475 202.7035 596.5085 203.0175 598.2027 203.2318 605.069 202.6238 607.2972 201.5177 609.3842 199.9066 611.0357 190.3905 623.6549 188.4594 625.7929 186.7851 627.1398 184.4946 627.9988 183.0796 628.6633 181.1284 629.9398 180.492 630.9902 180.4034 631.9411 181.0794 632.6457 181.9696 633.0946 182.9124 633.4332 183.8601 633.9898 184.6461 634.6918 185.175 636.1849 184.6942 636.8175 181.2786 639.0431 180.1898 639.5584 179.2047 639.7878 175.9059 639.8836 174.4292 640.2765 174.1234 641.3631 173.9441 645.6531 173.357 647.2912 172.5076 648.6843 170.893 650.3125 170.2969 650.7293 169.5891 651.0722 168.709 651.0917 166.0008 650.5627 164.0805 650.8232 163.1243 652.382 159.0313 664.0101 158.942 664.9608 158.8744 666.9035 158.4223 668.8873 158.3327 669.8271 158.5471 672.0799 158.736 673.1663 158.5661 677.9903 158.1366 681.0205 158.1339 681.0395 156.2836 680.2426 151.9533 680.3367 138.9078 684.9463 136.3714 684.8149 131.316 683.6242 129.1842 683.5165 126.8904 684.437 123.0269 687.5603 121.499 688.2465 93.0326 686.7018 93.0188 686.0152 93.4151 684.1527 91.8017 684.4255 91.2712 683.9209 91.2499 682.8567 90.9352 681.5751 93.0363 676.8107 96.1184 671.992 99.8563 668.2072 107.6453 664.7512 110.1004 660.4935 112.196 655.642 114.5476 652.0214 112.3518 649.199 114.4801 648.76 115.6462 649.2854 116.9729 651.9711 127.1698 628.6941 128.4619 616.0787 120.8531 605.5227 128.3175 599.7153 133.4841 591.7571 139.7748 573.1773 140.5192 567.5968 140.5043 556.2277 141.7021 550.3282 147.9414 540.5405 150.0725 535.2728 148.5178 530.0169 166.592 515.5162 175.6072 505.6261 179.292 493.0555 179.9154 487.5964 184.7434 473.4936 184.7584 473.4994 186.5269 474.1895 196.9567 474.3952 206.155 478.8918 214.862 480.2892 218.7466 480.0767 220.1186 480.1748 220.6526 479.5948 221.021 478.9642 221.5578 478.5041 222.4852 478.3401 225.9937 478.4412 228.4984 477.8027 232.5862 476.1875 233.2347 475.8227 234.5359 475.2675 235.4098 475.1589 237.3286 475.2212 239.6683 474.575 241.2523 474.3835 241.9581 474.1262 243.6263 472.9072 244.1075 472.4263 244.788 471.1442 245.2139 470.6428 246.7544 470.1794 247.4041 469.8688 247.8291 469.3347 248.1419 468.6943 248.5663 468.1384 249.2143 467.7624 249.9218 467.5812 251.617 467.4738 254.7761 466.7626 255.6513 466.7189 256.5233 466.5445 257.3343 466.1206 258.1907 465.3247 259.2696 464.665 260.4111 464.3201 262.0057 464.5746 263.4812 466.6212 264.6037 469.8765 264.6533 478.3842 264.4141 481.9466 263.7668 484.5373 263.6874 485.7393 264.2153 487.1224 265.8976 488.64 267.0285 489.2988 268.8331 489.8643 270.1819 490.4629 270.5502 492.0245 270.907 493.1282 269.1084 505.1298 Z" id="LB.JA" fill="#cee3f5" stroke="#6e6e6e" stroke-width="0.4">
      <desc>
        <labelrank>9</labelrank>
        <code_hasc>LB.JA</code_hasc>
        <name>South Lebanon</name>
        <admin>Lebanon</admin>
        <type_en>Province</type_en>
        <region/>
        <woe_id>2346014</woe_id>
        <longitude>35</longitude>
        <woe_name>South Lebanon</woe_name>
        <fips>LE06</fips>
        <woe_label>Al Janub, LB, Lebanon</woe_label>
        <latitude>33</latitude>
        <iso_a2>LB</iso_a2>
        <postal>JA</postal>
        <type>Muhafazah</type>
        <id>LB.JA</id>
      </desc>
    </path>
  </g>
</svg>