<?xml version="1.0" encoding="UTF-8"?>
<svg xmlns="http://www.w3.org/2000/svg" width="700" height="700">
  <g id="heilongjiang">
    <path d="M 297.2482 221.4394 269.3003 224.9329 255.3263 220.042 244.8458 224.9329 243.4484 214.4525 209.9109 187.9019 198.7317 187.2032 184.7578 200.4785 165.1942 200.4785 103.01 207.4655 83.4464 198.3824 66.6777 154.3644 43.6206 143.8839 32.4414 153.6657 1 138.993 26.8519 113.1411 10.0831 99.1672 21.2623 96.3724 80.6517 92.8789 100.2152 87.988 134.4515 91.4815 159.6046 103.3594 183.3604 108.9489 200.1291 106.1542 223.8849 112.4424 247.6406 136.8969 262.3133 148.7748 259.5185 157.8579 272.7938 162.0501 267.9029 171.8318 281.1782 182.3123 294.4535 204.6707 297.2482 221.4394 Z" id="CN.heilongjiang.199127" fill="#cee3f5" stroke="#6e6e6e" stroke-width="0.4">
      <desc>
        <admin_leve>5</admin_leve>
        <localname>大兴安岭地区 / Da Hinggan Ling</localname>
        <boundary>administrative</boundary>
        <id>CN.heilongjiang.199127</id>
        <name>Da Hinggan Ling Prefecture</name>
      </desc>
    </path>
    <path d="M 491.4865 357.6857 485.8969 368.8649 501.2683 390.5245 532.011 389.8258 535.5045 393.3193 581.6186 390.5245 569.7407 405.1972 534.1071 414.979 525.024 415.6777 507.5566 417.7738 485.8969 410.0881 485.1982 418.4725 460.7437 421.966 445.3724 412.1842 447.4685 394.018 434.1932 377.2492 446.0711 360.4805 456.5516 368.1662 466.3333 360.4805 491.4865 357.6857 Z" id="CN.heilongjiang.199170" fill="#cee3f5" stroke="#6e6e6e" stroke-width="0.4">
      <desc>
        <name>Hegang City</name>
        <admin_leve>5</admin_leve>
        <wikipedia>en:Hegang</wikipedia>
        <localname>鹤岗市 / Hegang</localname>
        <boundary>administrative</boundary>
        <id>CN.heilongjiang.199170</id>
      </desc>
    </path>
    <path d="M 463.5385 473.6697 480.3073 479.958 504.0631 478.5606 517.3383 462.4905 540.3954 469.4775 543.8889 484.1502 532.011 484.1502 518.7357 500.2202 491.4865 499.5215 459.3463 496.7267 457.2503 483.4515 463.5385 473.6697 Z" id="CN.heilongjiang.199174" fill="#cee3f5" stroke="#6e6e6e" stroke-width="0.4">
      <desc>
        <admin_leve>5</admin_leve>
        <localname>七台河 / Qitaihe</localname>
        <boundary>administrative</boundary>
        <id>CN.heilongjiang.199174</id>
        <name>Qitaihe</name>
      </desc>
    </path>
    <path d="M 491.4865 499.5215 518.7357 500.2202 532.011 484.1502 543.8889 484.1502 568.3433 486.9449 590.003 470.8749 599.7848 472.971 613.0601 454.8048 628.4314 451.3113 652.1872 452.7087 654.2833 465.984 633.3223 485.5475 627.7327 500.2202 617.2523 505.1111 613.7588 524.6747 599.7848 528.1682 555.0681 518.3864 538.2993 519.7838 535.5045 527.4695 501.2683 539.3473 483.8008 528.1682 476.1151 514.1942 491.4865 499.5215 Z" id="CN.heilongjiang.199188" fill="#cee3f5" stroke="#6e6e6e" stroke-width="0.4">
      <desc>
        <admin_leve>5</admin_leve>
        <localname>鸡西市</localname>
        <boundary>administrative</boundary>
        <id>CN.heilongjiang.199188</id>
        <name>Jixi</name>
      </desc>
    </path>
    <path d="M 525.024 415.6777 534.1071 414.979 533.4084 433.1451 557.8629 428.2543 565.5485 437.3373 600.4835 439.4334 613.7588 433.1451 622.1431 412.1842 642.4054 399.6076 668.2573 398.9089 674.5455 405.1972 652.1872 452.7087 628.4314 451.3113 613.0601 454.8048 599.7848 472.971 590.003 470.8749 568.3433 486.9449 543.8889 484.1502 540.3954 469.4775 517.3383 462.4905 488.6917 448.5165 486.5956 436.6386 504.7618 427.5556 531.3123 424.0621 525.024 415.6777 Z" id="CN.heilongjiang.203483" fill="#cee3f5" stroke="#6e6e6e" stroke-width="0.4">
      <desc>
        <name>Shuangyashan</name>
        <admin_leve>5</admin_leve>
        <wikipedia>en:Shuangyashan</wikipedia>
        <localname>双鸭山市 / Shuangyashan</localname>
        <boundary>administrative</boundary>
        <id>CN.heilongjiang.203483</id>
      </desc>
    </path>
    <path d="M 425.1101 447.1191 435.5906 441.5295 427.9049 431.7477 445.3724 412.1842 460.7437 421.966 485.1982 418.4725 485.8969 410.0881 507.5566 417.7738 525.024 415.6777 531.3123 424.0621 504.7618 427.5556 486.5956 436.6386 488.6917 448.5165 517.3383 462.4905 504.0631 478.5606 480.3073 479.958 463.5385 473.6697 458.6476 458.2983 446.7698 447.1191 425.1101 447.1191 Z M 534.1071 414.979 569.7407 405.1972 581.6186 390.5245 609.5666 370.2623 636.1171 368.8649 645.8989 362.5766 682.9299 354.1922 698.3013 356.987 687.1221 374.4545 699 389.1271 684.3273 404.4985 674.5455 405.1972 668.2573 398.9089 642.4054 399.6076 622.1431 412.1842 613.7588 433.1451 600.4835 439.4334 565.5485 437.3373 557.8629 428.2543 533.4084 433.1451 534.1071 414.979 Z" id="CN.heilongjiang.206437" fill="#cee3f5" stroke="#6e6e6e" stroke-width="0.4">
      <desc>
        <name>Jiamusi City</name>
        <admin_leve>5</admin_leve>
        <wikipedia>en:Jiamusi</wikipedia>
        <localname>佳木斯市 / Jiamusi</localname>
        <boundary>administrative</boundary>
        <id>CN.heilongjiang.206437</id>
      </desc>
    </path>
    <path d="M 178.4695 328.3403 187.5526 314.3664 205.7187 307.3794 203.6226 289.2132 206.4174 265.4575 218.994 250.7848 235.0641 243.0991 244.8458 224.9329 255.3263 220.042 269.3003 224.9329 297.2482 221.4394 314.7157 242.4004 315.4144 257.0731 323.1001 281.5275 337.0741 293.4054 389.4765 295.5015 403.4505 305.2833 415.3283 305.2833 412.5335 320.6547 426.5075 327.6416 385.983 354.8909 370.6116 357.6857 354.5415 371.6597 341.2663 372.3584 337.0741 383.5375 280.4795 390.5245 272.7938 397.5115 276.986 377.9479 271.3964 364.6727 260.2172 366.7688 235.7628 357.6857 232.968 347.2052 237.8589 332.5325 219.6927 331.1351 207.8148 338.8208 178.4695 328.3403 Z" id="CN.heilongjiang.2754980" fill="#cee3f5" stroke="#6e6e6e" stroke-width="0.4">
      <desc>
        <admin_leve>5</admin_leve>
        <localname>黑河市</localname>
        <boundary>administrative</boundary>
        <id>CN.heilongjiang.2754980</id>
        <name>Heihe City</name>
      </desc>
    </path>
    <path d="M 178.4695 328.3403 207.8148 338.8208 219.6927 331.1351 237.8589 332.5325 232.968 347.2052 235.7628 357.6857 260.2172 366.7688 271.3964 364.6727 276.986 377.9479 272.7938 397.5115 266.5055 407.992 209.2122 412.8829 194.5395 403.1011 174.2773 411.4855 164.4955 410.0881 136.5475 433.8438 127.4645 446.4204 132.3554 463.8879 97.4204 466.6827 88.3373 449.9139 119.0801 443.6256 100.9139 435.2412 89.7347 442.2282 56.8959 410.0881 65.2803 401.005 98.1191 385.6336 118.3814 373.7558 144.2332 353.4935 156.1111 356.987 167.989 345.8078 178.4695 328.3403 Z" id="CN.heilongjiang.2755137" fill="#cee3f5" stroke="#6e6e6e" stroke-width="0.4">
      <desc>
        <admin_leve>5</admin_leve>
        <localname>齐齐哈尔市 / Qiqihar</localname>
        <boundary>administrative</boundary>
        <id>CN.heilongjiang.2755137</id>
        <name>Qiqihar City</name>
      </desc>
    </path>
    <path d="M 209.2122 412.8829 199.4304 440.8308 206.4174 457.5996 191.7447 457.5996 196.6356 476.4645 209.9109 471.5736 213.4044 484.8488 226.6797 484.1502 232.2693 505.1111 228.0771 504.4124 195.9369 512.0981 193.1421 505.8098 161.002 508.6046 142.8358 492.5345 140.7397 471.5736 132.3554 463.8879 127.4645 446.4204 136.5475 433.8438 164.4955 410.0881 174.2773 411.4855 194.5395 403.1011 209.2122 412.8829 Z" id="CN.heilongjiang.2755197" fill="#cee3f5" stroke="#6e6e6e" stroke-width="0.4">
      <desc>
        <admin_leve>5</admin_leve>
        <localname>大庆市</localname>
        <boundary>administrative</boundary>
        <id>CN.heilongjiang.2755197</id>
        <name>Daqing City</name>
      </desc>
    </path>
    <path d="M 209.2122 412.8829 266.5055 407.992 272.7938 397.5115 280.4795 390.5245 337.0741 383.5375 341.2663 372.3584 354.5415 371.6597 364.3233 380.7427 360.8298 400.3063 372.009 414.979 352.4454 424.0621 328.6897 428.2543 352.4454 448.5165 359.4324 449.9139 337.7728 448.5165 325.1962 452.7087 316.1131 445.023 287.4665 454.8048 265.1081 475.7658 262.3133 492.5345 244.8458 494.6306 232.2693 505.1111 226.6797 484.1502 213.4044 484.8488 209.9109 471.5736 196.6356 476.4645 191.7447 457.5996 206.4174 457.5996 199.4304 440.8308 209.2122 412.8829 Z" id="CN.heilongjiang.2755376" fill="#cee3f5" stroke="#6e6e6e" stroke-width="0.4">
      <desc>
        <admin_leve>5</admin_leve>
        <localname>绥化市 / Suihua</localname>
        <boundary>administrative</boundary>
        <id>CN.heilongjiang.2755376</id>
        <name>Suihua City</name>
      </desc>
    </path>
    <path d="M 457.2503 483.4515 459.3463 496.7267 491.4865 499.5215 476.1151 514.1942 483.8008 528.1682 501.2683 539.3473 508.954 546.3343 518.7357 580.5706 513.1461 607.1211 495.6787 612.012 472.6216 601.5315 467.032 583.3654 455.1542 591.7497 439.7828 588.955 411.8348 593.1471 409.7387 605.7237 391.5726 605.7237 372.009 574.981 372.009 565.1992 360.8298 559.6096 368.5155 548.4304 385.983 547.033 409.7387 519.7838 404.1491 500.2202 432.0971 484.8488 457.2503 483.4515 Z" id="CN.heilongjiang.2755604" fill="#cee3f5" stroke="#6e6e6e" stroke-width="0.4">
      <desc>
        <admin_leve>5</admin_leve>
        <localname>牡丹江市 / Mudanjiang</localname>
        <boundary>administrative</boundary>
        <id>CN.heilongjiang.2755604</id>
        <name>Mudanjiang City</name>
      </desc>
    </path>
    <path d="M 354.5415 371.6597 370.6116 357.6857 385.983 354.8909 426.5075 327.6416 412.5335 320.6547 415.3283 305.2833 436.2893 308.7768 462.8398 331.1351 483.1021 335.3273 478.9099 344.4104 491.4865 357.6857 466.3333 360.4805 456.5516 368.1662 446.0711 360.4805 434.1932 377.2492 447.4685 394.018 445.3724 412.1842 427.9049 431.7477 435.5906 441.5295 425.1101 447.1191 400.6557 454.1061 372.009 447.1191 359.4324 449.9139 352.4454 448.5165 328.6897 428.2543 352.4454 424.0621 372.009 414.979 360.8298 400.3063 364.3233 380.7427 354.5415 371.6597 Z" id="CN.heilongjiang.2755605" fill="#cee3f5" stroke="#6e6e6e" stroke-width="0.4">
      <desc>
        <admin_leve>5</admin_leve>
        <localname>伊春市 / Yichun</localname>
        <boundary>administrative</boundary>
        <id>CN.heilongjiang.2755605</id>
        <name>Yichun City</name>
      </desc>
    </path>
    <path d="M 228.0771 504.4124 232.2693 505.1111 244.8458 494.6306 262.3133 492.5345 265.1081 475.7658 287.4665 454.8048 316.1131 445.023 325.1962 452.7087 337.7728 448.5165 359.4324 449.9139 372.009 447.1191 400.6557 454.1061 425.1101 447.1191 446.7698 447.1191 458.6476 458.2983 463.5385 473.6697 457.2503 483.4515 432.0971 484.8488 404.1491 500.2202 409.7387 519.7838 385.983 547.033 368.5155 548.4304 360.8298 559.6096 352.4454 576.3784 336.3754 579.1732 326.5936 571.4875 316.8118 550.5265 295.1522 543.5395 300.043 535.1552 293.7548 527.4695 272.7938 518.3864 259.5185 523.976 239.2563 521.1812 228.0771 504.4124 Z" id="CN.heilongjiang.2755608" fill="#cee3f5" stroke="#6e6e6e" stroke-width="0.4">
      <desc>
        <name>Harbin City</name>
        <admin_leve>5</admin_leve>
        <wikipedia>en:Harbin</wikipedia>
        <localname>哈尔滨市 / Harbin</localname>
        <boundary>administrative</boundary>
        <id>CN.heilongjiang.2755608</id>
      </desc>
    </path>
  </g>
</svg>