<?xml version="1.0" encoding="UTF-8"?>
<svg xmlns="http://www.w3.org/2000/svg" width="700" height="700">
  <g id="afghanistan">
    <path d="M 213.8685 273.1497 226.5635 284.7113 228.6038 289.9253 227.2436 297.4063 212.0549 303.5271 202.7603 302.3936 200.0399 304.4339 186.6648 303.3004 177.1436 309.8746 166.0354 312.3683 145.6327 303.9805 136.3381 304.8873 129.7639 302.3936 127.9503 297.4063 124.0965 296.9529 112.0815 287.885 114.5752 274.9633 121.8295 261.3615 134.7512 255.6941 135.2046 244.5859 142.0055 240.5054 137.4716 236.1981 137.2449 230.9841 153.1137 230.9841 160.5947 226.2234 176.4635 222.823 178.277 228.037 174.6499 241.1854 179.1838 245.7194 179.4105 254.3339 191.1988 256.8275 193.4657 261.1348 199.1332 260.228 198.6798 270.8828 213.8685 273.1497 Z" id="AF.BG" fill="#cee3f5" stroke="#6e6e6e" stroke-width="0.4">
      <desc>
        <labelrank>5</labelrank>
        <code_hasc>AF.BG</code_hasc>
        <name>Badghis</name>
        <admin>Afghanistan</admin>
        <type_en>Province</type_en>
        <region/>
        <woe_id>2344550</woe_id>
        <longitude>63</longitude>
        <woe_name>Badghis</woe_name>
        <fips>AF02</fips>
        <woe_label>Badghis, AF, Afghanistan</woe_label>
        <latitude>35</latitude>
        <iso_a2>AF</iso_a2>
        <postal>BG</postal>
        <type>Velayat</type>
        <id>AF.BG</id>
      </desc>
    </path>
    <path d="M 121.8295 261.3615 114.5752 274.9633 112.0815 287.885 124.0965 296.9529 127.9503 297.4063 129.7639 302.3936 136.3381 304.8873 145.6327 303.9805 166.0354 312.3683 177.1436 309.8746 186.6648 303.3004 200.0399 304.4339 200.0399 315.0887 196.1861 313.2751 185.9847 315.7688 185.9847 326.6502 181.4508 330.0507 150.8467 325.9701 144.9526 337.0783 153.7938 353.6272 149.7132 355.6674 148.1263 361.7882 136.3381 363.6018 127.7236 368.3625 130.444 381.0575 123.6431 390.5788 109.8146 391.7122 104.8272 395.3394 98.0263 394.6593 91.4521 398.7399 89.1851 406.9009 73.7697 409.3946 71.7295 402.5937 64.4752 406.9009 55.4073 400.5534 56.3141 394.6593 65.3819 386.7249 61.3014 379.4706 64.9285 375.6168 66.7421 367.6824 52.2335 364.2819 47.0195 367.4557 36.138 366.7756 20.9493 362.2416 17.5489 359.2946 8.0276 358.3878 1.2267 353.1738 2.8136 323.4765 11.2014 314.1819 23.2163 314.4086 14.8285 301.9402 27.5235 295.5927 28.657 290.6054 34.0978 285.6181 39.5385 269.0692 38.1783 259.7746 42.4855 257.5076 48.6064 243.2257 47.9263 238.9185 51.7801 238.6918 53.5937 243.2257 63.3417 251.1601 82.8376 252.2936 93.039 261.5882 95.0792 270.8828 102.7869 262.9484 110.948 267.2556 121.8295 261.3615 Z" id="AF.HR" fill="#cee3f5" stroke="#6e6e6e" stroke-width="0.4">
      <desc>
        <labelrank>7</labelrank>
        <code_hasc>AF.HR</code_hasc>
        <name>Hirat</name>
        <admin>Afghanistan</admin>
        <type_en>Province</type_en>
        <region/>
        <woe_id>2344558</woe_id>
        <longitude>62</longitude>
        <woe_name>Hirat</woe_name>
        <fips>AF11</fips>
        <woe_label>Herat, AF, Afghanistan</woe_label>
        <latitude>34</latitude>
        <iso_a2>AF</iso_a2>
        <postal>HR</postal>
        <type>Velayat</type>
        <id>AF.HR</id>
      </desc>
    </path>
    <path d="M 376.6369 262.7217 377.317 271.7895 372.783 279.7239 373.0097 286.0715 381.1708 289.4719 385.9315 301.7135 373.9165 308.2878 370.7428 313.7285 348.0731 308.2878 337.8717 311.0081 340.1387 317.3556 336.2848 319.3959 335.1513 323.0231 342.859 324.3832 343.7658 326.6502 341.4989 328.4638 349.66 332.0909 343.3124 336.6249 343.7658 340.252 339.4586 346.3728 324.0432 351.8136 311.8016 347.733 305.0006 349.3199 298.6531 344.1059 299.7866 332.3176 302.2803 329.5973 297.5196 327.557 297.7463 324.6099 310.2147 319.1692 309.3079 315.0887 312.0283 310.7814 305.6807 307.381 300.0133 297.8597 292.5323 293.5525 290.9454 290.8321 292.759 278.3638 307.721 276.7769 316.1088 266.8022 324.95 268.3891 351.9269 261.8149 365.7554 264.0818 376.6369 262.7217 Z" id="AF.BM" fill="#cee3f5" stroke="#6e6e6e" stroke-width="0.4">
      <desc>
        <labelrank>9</labelrank>
        <code_hasc>AF.BM</code_hasc>
        <name>Bamyan</name>
        <admin>Afghanistan</admin>
        <type_en>Province</type_en>
        <region/>
        <woe_id>2344552</woe_id>
        <longitude>67</longitude>
        <woe_name>Bamyan</woe_name>
        <fips>AF05</fips>
        <woe_label>Bamian, AF, Afghanistan</woe_label>
        <latitude>34</latitude>
        <iso_a2>AF</iso_a2>
        <postal>BM</postal>
        <type>Velayat</type>
        <id>AF.BM</id>
      </desc>
    </path>
    <path d="M 374.5966 176.1234 375.05 182.6976 382.0776 195.8461 376.8636 197.6596 365.0753 195.8461 358.2744 192.4456 349.4333 192.6723 343.9925 196.5261 345.3527 202.647 341.0455 217.8357 328.1237 226.4501 330.3907 234.1578 319.9627 246.6262 314.7486 249.1198 300.4667 248.6665 306.8142 237.1049 305.9074 220.1026 299.3332 216.2488 310.2147 197.6596 302.9604 194.9393 297.973 185.8714 305.2273 182.9243 300.6934 170.9094 302.7337 163.8818 298.1997 155.2673 291.3988 152.3202 291.1721 148.9198 300.4667 151.4134 304.774 148.6931 312.0283 150.5067 326.7636 148.4664 338.5518 160.4813 350.1133 154.8139 352.8337 158.6677 356.2342 156.6275 361.6749 158.2144 363.2618 165.9221 367.569 167.9623 374.5966 176.1234 Z" id="AF.BK" fill="#cee3f5" stroke="#6e6e6e" stroke-width="0.4">
      <desc>
        <labelrank>5</labelrank>
        <code_hasc>AF.BK</code_hasc>
        <name>Balkh</name>
        <admin>Afghanistan</admin>
        <type_en>Province</type_en>
        <region/>
        <woe_id>2344575</woe_id>
        <longitude>67</longitude>
        <woe_name>Balkh</woe_name>
        <fips>AF30</fips>
        <woe_label>Balkh, AF, Afghanistan</woe_label>
        <latitude>36</latitude>
        <iso_a2>AF</iso_a2>
        <postal>BK</postal>
        <type>Velayat</type>
        <id>AF.BK</id>
      </desc>
    </path>
    <path d="M 261.7015 228.2637 265.102 228.037 264.1952 230.7574 267.8223 238.2384 266.4622 240.7321 261.0214 240.9588 258.0744 247.3063 251.0468 248.8931 251.2735 254.1072 247.1929 262.0416 249.0065 272.0162 243.1124 275.6434 233.5911 271.3361 213.8685 273.1497 198.6798 270.8828 199.1332 260.228 193.4657 261.1348 191.1988 256.8275 179.4105 254.3339 179.1838 245.7194 174.6499 241.1854 178.277 228.037 176.4635 222.823 183.0377 225.09 183.9445 218.7424 188.9318 215.7954 194.1458 216.4755 195.9594 213.075 205.4807 208.7678 211.1481 199.0198 211.6015 187.2316 220.6694 171.3628 221.1228 160.708 234.9513 154.3605 254.9006 154.5872 246.9662 171.5895 251.9536 183.151 249.0065 191.3121 251.5002 193.8058 252.8603 205.3673 241.5255 207.1809 237.6716 224.6366 233.8178 228.9438 236.5382 231.4375 248.5531 233.2511 254.2205 230.5307 256.4875 232.3443 261.7015 228.2637 Z" id="AF.FB" fill="#cee3f5" stroke="#6e6e6e" stroke-width="0.4">
      <desc>
        <labelrank>5</labelrank>
        <code_hasc>AF.FB</code_hasc>
        <name>Faryab</name>
        <admin>Afghanistan</admin>
        <type_en>Province</type_en>
        <region/>
        <woe_id>2344554</woe_id>
        <longitude>64</longitude>
        <woe_name>Faryab</woe_name>
        <fips>AF07</fips>
        <woe_label>Faryab, AF, Afghanistan</woe_label>
        <latitude>35</latitude>
        <iso_a2>AF</iso_a2>
        <postal>FB</postal>
        <type>Velayat</type>
        <id>AF.FB</id>
      </desc>
    </path>
    <path d="M 291.1721 148.9198 291.3988 152.3202 298.1997 155.2673 302.7337 163.8818 300.6934 170.9094 305.2273 182.9243 297.973 185.8714 302.9604 194.9393 281.1975 197.2062 263.7418 207.4076 253.9938 208.5411 254.2205 229.3972 261.7015 228.2637 256.4875 232.3443 254.2205 230.5307 248.5531 233.2511 236.5382 231.4375 233.8178 228.9438 237.6716 224.6366 241.5255 207.1809 252.8603 205.3673 251.5002 193.8058 249.0065 191.3121 251.9536 183.151 246.9662 171.5895 254.9006 154.5872 261.7015 148.9198 262.3816 141.2121 268.5024 135.318 291.1721 148.9198 Z" id="AF.JW" fill="#cee3f5" stroke="#6e6e6e" stroke-width="0.4">
      <desc>
        <labelrank>5</labelrank>
        <code_hasc>AF.JW</code_hasc>
        <name>Jawzjan</name>
        <admin>Afghanistan</admin>
        <type_en>Province</type_en>
        <region/>
        <woe_id>2344576</woe_id>
        <longitude>65</longitude>
        <woe_name>Jawzjan</woe_name>
        <fips>AF31</fips>
        <woe_label>Jowzjan, AF, Afghanistan</woe_label>
        <latitude>36</latitude>
        <iso_a2>AF</iso_a2>
        <postal>JW</postal>
        <type>Velayat</type>
        <id>AF.JW</id>
      </desc>
    </path>
    <path d="M 292.5323 293.5525 300.0133 297.8597 305.6807 307.381 312.0283 310.7814 309.3079 315.0887 310.2147 319.1692 297.7463 324.6099 284.3712 323.2498 281.4242 325.9701 274.3966 325.7434 271.2228 328.0104 250.5934 325.7434 247.1929 341.6122 249.6866 347.733 243.5658 353.8538 251.7269 369.4959 241.7522 376.9769 241.0721 379.924 233.5911 383.3245 213.6418 391.9389 211.6015 389.2186 208.6544 390.3521 200.2666 384.2312 191.1988 392.1656 192.3323 394.6593 188.9318 395.7928 183.9445 393.2991 171.4761 371.5362 163.7684 376.7502 150.8467 380.8308 130.444 381.0575 127.7236 368.3625 136.3381 363.6018 148.1263 361.7882 149.7132 355.6674 153.7938 353.6272 144.9526 337.0783 150.8467 325.9701 181.4508 330.0507 185.9847 326.6502 185.9847 315.7688 196.1861 313.2751 200.0399 315.0887 200.0399 304.4339 202.7603 302.3936 212.0549 303.5271 227.2436 297.4063 228.6038 289.9253 226.5635 284.7113 213.8685 273.1497 233.5911 271.3361 243.1124 275.6434 249.0065 272.0162 258.3011 271.3361 265.3287 281.3108 276.8902 284.2579 279.8373 300.8068 286.6382 293.0991 292.5323 293.5525 Z" id="AF.GR" fill="#cee3f5" stroke="#6e6e6e" stroke-width="0.4">
      <desc>
        <labelrank>5</labelrank>
        <code_hasc>AF.GR</code_hasc>
        <name>Ghor</name>
        <admin>Afghanistan</admin>
        <type_en>Province</type_en>
        <region/>
        <woe_id>2344556</woe_id>
        <longitude>64</longitude>
        <woe_name>Ghor</woe_name>
        <fips>AF09</fips>
        <woe_label>Ghowr, AF, Afghanistan</woe_label>
        <latitude>34</latitude>
        <iso_a2>AF</iso_a2>
        <postal>GR</postal>
        <type>Velayat</type>
        <id>AF.GR</id>
      </desc>
    </path>
    <path d="M 319.9627 246.6262 325.4034 249.7999 323.5898 252.9737 324.95 255.9208 323.1364 261.5882 316.1088 266.8022 307.721 276.7769 292.759 278.3638 290.9454 290.8321 292.5323 293.5525 286.6382 293.0991 279.8373 300.8068 276.8902 284.2579 265.3287 281.3108 258.3011 271.3361 249.0065 272.0162 247.1929 262.0416 251.2735 254.1072 251.0468 248.8931 258.0744 247.3063 261.0214 240.9588 266.4622 240.7321 267.8223 238.2384 264.1952 230.7574 265.102 228.037 261.7015 228.2637 254.2205 229.3972 253.9938 208.5411 263.7418 207.4076 281.1975 197.2062 302.9604 194.9393 310.2147 197.6596 299.3332 216.2488 305.9074 220.1026 306.8142 237.1049 300.4667 248.6665 314.7486 249.1198 319.9627 246.6262 Z" id="AF.SP" fill="#cee3f5" stroke="#6e6e6e" stroke-width="0.4">
      <desc>
        <labelrank>5</labelrank>
        <code_hasc>AF.SP</code_hasc>
        <name>Sari Pul</name>
        <admin>Afghanistan</admin>
        <type_en>Province</type_en>
        <region/>
        <woe_id>2344578</woe_id>
        <longitude>66</longitude>
        <woe_name>Sari Pul</woe_name>
        <fips>AF33</fips>
        <woe_label>Sare Pol, AF, Afghanistan</woe_label>
        <latitude>35</latitude>
        <iso_a2>AF</iso_a2>
        <postal>SP</postal>
        <type>Velayat</type>
        <id>AF.SP</id>
      </desc>
    </path>
    <path d="M 208.6544 390.3521 207.9743 395.7928 200.0399 402.8204 198.9065 406.9009 200.72 408.4878 191.4255 411.8883 184.6246 419.3693 185.3046 425.2634 179.8639 427.7571 171.7028 427.5304 171.2494 435.0114 146.3128 448.1598 127.7236 444.0792 120.696 457.6811 105.734 461.9883 95.986 453.1471 67.6489 454.2806 67.6489 458.8146 62.4349 462.215 61.9815 467.429 53.1403 478.0838 49.9665 478.3105 49.9665 483.0711 46.7928 482.8444 46.3394 490.5521 6.8941 481.2576 6.8941 449.7467 10.748 436.8249 1.4534 383.0978 15.962 367.4557 16.4154 363.6018 20.9493 362.2416 36.138 366.7756 47.0195 367.4557 52.2335 364.2819 66.7421 367.6824 64.9285 375.6168 61.3014 379.4706 65.3819 386.7249 56.3141 394.6593 55.4073 400.5534 64.4752 406.9009 71.7295 402.5937 73.7697 409.3946 89.1851 406.9009 91.4521 398.7399 98.0263 394.6593 104.8272 395.3394 109.8146 391.7122 123.6431 390.5788 130.444 381.0575 150.8467 380.8308 163.7684 376.7502 171.4761 371.5362 183.9445 393.2991 188.9318 395.7928 192.3323 394.6593 191.1988 392.1656 200.2666 384.2312 208.6544 390.3521 Z" id="AF.FH" fill="#cee3f5" stroke="#6e6e6e" stroke-width="0.4">
      <desc>
        <labelrank>7</labelrank>
        <code_hasc>AF.FH</code_hasc>
        <name>Farah</name>
        <admin>Afghanistan</admin>
        <type_en>Province</type_en>
        <region/>
        <woe_id>2344553</woe_id>
        <longitude>62</longitude>
        <woe_name>Farah</woe_name>
        <fips>AF06</fips>
        <woe_label>Farah, AF, Afghanistan</woe_label>
        <latitude>32</latitude>
        <iso_a2>AF</iso_a2>
        <postal>FH</postal>
        <type>Velayat</type>
        <id>AF.FH</id>
      </desc>
    </path>
    <path d="M 233.5911 383.3245 237.4449 385.3647 240.392 391.9389 239.2585 399.4199 230.8707 410.7548 229.9639 423.2231 234.4979 425.7168 235.6314 430.9308 232.2309 444.5326 225.2033 459.948 217.0422 460.6281 214.7753 467.6557 209.7879 472.4164 210.0146 479.6707 205.0273 496.6729 198.9065 556.2943 188.7051 605.9409 173.5164 609.3413 166.9422 615.9156 140.4186 607.9812 90.0919 610.2481 101.2001 564.2286 107.7743 560.3748 118.8824 546.5463 117.5222 536.7983 122.963 531.5843 122.7363 521.8363 133.6177 511.4082 132.7109 499.8467 138.8318 471.2829 147.8996 455.4141 146.3128 448.1598 171.2494 435.0114 171.7028 427.5304 179.8639 427.7571 185.3046 425.2634 184.6246 419.3693 191.4255 411.8883 200.72 408.4878 198.9065 406.9009 200.0399 402.8204 207.9743 395.7928 208.6544 390.3521 211.6015 389.2186 213.6418 391.9389 233.5911 383.3245 Z" id="AF.HM" fill="#cee3f5" stroke="#6e6e6e" stroke-width="0.4">
      <desc>
        <labelrank>5</labelrank>
        <code_hasc>AF.HM</code_hasc>
        <name>Hilmand</name>
        <admin>Afghanistan</admin>
        <type_en>Province</type_en>
        <region/>
        <woe_id>2344557</woe_id>
        <longitude>63</longitude>
        <woe_name>Hilmand</woe_name>
        <fips>AF10</fips>
        <woe_label>Helmand, AF, Afghanistan</woe_label>
        <latitude>30</latitude>
        <iso_a2>AF</iso_a2>
        <postal>HM</postal>
        <type>Velayat</type>
        <id>AF.HM</id>
      </desc>
    </path>
    <path d="M 146.3128 448.1598 147.8996 455.4141 138.8318 471.2829 132.7109 499.8467 133.6177 511.4082 122.7363 521.8363 122.963 531.5843 117.5222 536.7983 118.8824 546.5463 107.7743 560.3748 101.2001 564.2286 90.0919 610.2481 78.3037 609.1146 1 578.5106 54.0471 523.1965 56.0874 512.0883 53.1403 495.9929 50.1932 491.6856 46.3394 490.5521 46.7928 482.8444 49.9665 483.0711 49.9665 478.3105 53.1403 478.0838 61.9815 467.429 62.4349 462.215 67.6489 458.8146 67.6489 454.2806 95.986 453.1471 105.734 461.9883 120.696 457.6811 127.7236 444.0792 146.3128 448.1598 Z" id="AF.NM" fill="#cee3f5" stroke="#6e6e6e" stroke-width="0.4">
      <desc>
        <labelrank>5</labelrank>
        <code_hasc>AF.NM</code_hasc>
        <name>Nimroz</name>
        <admin>Afghanistan</admin>
        <type_en>Province</type_en>
        <region/>
        <woe_id>2344565</woe_id>
        <longitude>62</longitude>
        <woe_name>Nimroz</woe_name>
        <fips>AF19</fips>
        <woe_label>Nimruz, AF, Afghanistan</woe_label>
        <latitude>30</latitude>
        <iso_a2>AF</iso_a2>
        <postal>NM</postal>
        <type>Velayat</type>
        <id>AF.NM</id>
      </desc>
    </path>
    <path d="M 313.1617 390.3521 313.8418 392.3923 321.3228 393.0724 321.5495 395.5661 317.2423 399.1932 316.7889 405.0874 317.6957 409.848 321.7762 411.4349 320.416 417.1023 310.8948 418.2358 303.6405 425.7168 300.9201 426.1702 301.3735 420.7295 291.8522 425.7168 287.3183 431.3842 287.0916 436.3715 280.064 437.505 277.3436 440.4521 261.0214 435.9182 256.4875 438.6385 256.7142 430.9308 250.8201 430.4774 243.5658 438.8652 242.2056 447.7064 232.2309 444.5326 235.6314 430.9308 234.4979 425.7168 229.9639 423.2231 230.8707 410.7548 239.2585 399.4199 246.5128 400.5534 246.0594 396.2462 254.9006 399.1932 261.9282 397.153 274.1699 402.367 276.4368 395.1127 287.7717 388.3118 295.7061 387.8584 299.5599 392.619 308.8545 388.0851 309.988 390.8055 313.1617 390.3521 Z" id="AF.OZ" fill="#cee3f5" stroke="#6e6e6e" stroke-width="0.4">
      <desc>
        <labelrank>5</labelrank>
        <code_hasc>AF.OZ</code_hasc>
        <name>Uruzgan</name>
        <admin>Afghanistan</admin>
        <type_en>Province</type_en>
        <region/>
        <woe_id>2344566</woe_id>
        <longitude>66</longitude>
        <woe_name>Uruzgan</woe_name>
        <fips>AF39</fips>
        <woe_label>Oruzgan, AF, Afghanistan</woe_label>
        <latitude>32</latitude>
        <iso_a2>AF</iso_a2>
        <postal>OZ</postal>
        <type>Velayat</type>
        <id>AF.OZ</id>
      </desc>
    </path>
    <path d="M 297.7463 324.6099 297.5196 327.557 302.2803 329.5973 299.7866 332.3176 298.6531 344.1059 305.0006 349.3199 311.8016 347.733 324.0432 351.8136 339.4586 346.3728 338.5518 351.5869 341.0455 356.8009 329.9373 367.6824 314.2952 372.6697 313.1617 390.3521 309.988 390.8055 308.8545 388.0851 299.5599 392.619 295.7061 387.8584 287.7717 388.3118 276.4368 395.1127 274.1699 402.367 261.9282 397.153 254.9006 399.1932 246.0594 396.2462 246.5128 400.5534 239.2585 399.4199 240.392 391.9389 237.4449 385.3647 233.5911 383.3245 241.0721 379.924 241.7522 376.9769 251.7269 369.4959 243.5658 353.8538 249.6866 347.733 247.1929 341.6122 250.5934 325.7434 271.2228 328.0104 274.3966 325.7434 281.4242 325.9701 284.3712 323.2498 297.7463 324.6099 Z" id="AF.2015" fill="#cee3f5" stroke="#6e6e6e" stroke-width="0.4">
      <desc>
        <labelrank>5</labelrank>
        <code_hasc>AF.OZ</code_hasc>
        <name>Uruzgan</name>
        <admin>Afghanistan</admin>
        <type_en>Province</type_en>
        <region/>
        <woe_id>56000466</woe_id>
        <longitude>66</longitude>
        <woe_name>Daykundi</woe_name>
        <fips>AF41</fips>
        <woe_label/>
        <latitude>33</latitude>
        <iso_a2>AF</iso_a2>
        <postal>OZ</postal>
        <type>Velayat</type>
        <id>AF.2015</id>
      </desc>
    </path>
    <path d="M 287.0916 436.3715 290.0386 437.0516 292.9857 432.7444 297.7463 435.6915 295.4794 443.6259 286.6382 453.3738 286.4115 469.4693 278.9305 474.91 285.0513 483.2978 291.3988 479.444 297.293 478.9906 304.5473 473.0965 317.6957 481.9376 329.4839 480.3508 334.698 487.6051 339.912 488.2852 340.8188 493.2725 352.607 491.9123 357.5943 493.4992 347.8464 495.3128 350.5667 501.4336 358.5011 502.3404 358.2744 505.9675 336.9649 513.2218 321.0961 511.1816 320.416 506.8743 314.7486 507.101 304.0939 513.2218 302.0536 519.796 296.1595 525.9169 287.3183 528.1838 281.4242 547.9065 283.9178 557.6544 282.7843 568.9893 278.0237 579.8707 284.1445 585.9916 276.6635 593.0192 216.3621 608.6613 188.7051 605.9409 198.9065 556.2943 205.0273 496.6729 210.0146 479.6707 209.7879 472.4164 214.7753 467.6557 217.0422 460.6281 225.2033 459.948 232.2309 444.5326 242.2056 447.7064 243.5658 438.8652 250.8201 430.4774 256.7142 430.9308 256.4875 438.6385 261.0214 435.9182 277.3436 440.4521 280.064 437.505 287.0916 436.3715 Z" id="AF.KD" fill="#cee3f5" stroke="#6e6e6e" stroke-width="0.4">
      <desc>
        <labelrank>6</labelrank>
        <code_hasc>AF.KD</code_hasc>
        <name>Kandahar</name>
        <admin>Afghanistan</admin>
        <type_en>Province</type_en>
        <region/>
        <woe_id>2344569</woe_id>
        <longitude>65</longitude>
        <woe_name>Kandahar</woe_name>
        <fips>AF23</fips>
        <woe_label>Kandahar, AF, Afghanistan</woe_label>
        <latitude>31</latitude>
        <iso_a2>AF</iso_a2>
        <postal>KD</postal>
        <type>Velayat</type>
        <id>AF.KD</id>
      </desc>
    </path>
    <path d="M 373.0097 461.0815 374.3699 466.7489 370.9695 475.1367 375.2767 481.0309 368.4758 488.0585 362.355 488.9652 357.5943 493.4992 352.607 491.9123 340.8188 493.2725 339.912 488.2852 334.698 487.6051 329.4839 480.3508 317.6957 481.9376 304.5473 473.0965 297.293 478.9906 291.3988 479.444 285.0513 483.2978 278.9305 474.91 286.4115 469.4693 286.6382 453.3738 295.4794 443.6259 297.7463 435.6915 292.9857 432.7444 290.0386 437.0516 287.0916 436.3715 287.3183 431.3842 291.8522 425.7168 301.3735 420.7295 300.9201 426.1702 303.6405 425.7168 310.8948 418.2358 320.416 417.1023 321.7762 411.4349 326.0835 407.581 326.0835 403.5005 329.2572 403.9539 330.8441 407.581 335.8314 410.5281 342.4057 406.9009 343.0857 410.9815 339.912 413.4752 343.0857 416.1955 341.2722 419.3693 353.9672 432.291 350.5667 436.3715 359.6346 444.3059 352.8337 448.6132 352.1536 451.7869 356.0075 452.2403 356.4609 457.2277 366.6622 462.215 373.0097 461.0815 Z" id="AF.ZB" fill="#cee3f5" stroke="#6e6e6e" stroke-width="0.4">
      <desc>
        <labelrank>5</labelrank>
        <code_hasc>AF.ZB</code_hasc>
        <name>Zabul</name>
        <admin>Afghanistan</admin>
        <type_en>Province</type_en>
        <region/>
        <woe_id>2344573</woe_id>
        <longitude>67</longitude>
        <woe_name>Zabul</woe_name>
        <fips>AF28</fips>
        <woe_label>Zabol, AF, Afghanistan</woe_label>
        <latitude>32</latitude>
        <iso_a2>AF</iso_a2>
        <postal>ZB</postal>
        <type>Velayat</type>
        <id>AF.ZB</id>
      </desc>
    </path>
    <path d="M 406.5609 361.5615 409.508 365.8688 409.508 371.9896 410.8681 380.6041 409.2813 384.9113 394.7727 401.9136 392.0523 409.3946 382.531 421.4095 373.0097 424.3566 366.4355 418.6892 361.9016 425.0367 373.6898 437.2783 375.2767 443.1725 373.0097 461.0815 366.6622 462.215 356.4609 457.2277 356.0075 452.2403 352.1536 451.7869 352.8337 448.6132 359.6346 444.3059 350.5667 436.3715 353.9672 432.291 341.2722 419.3693 343.0857 416.1955 339.912 413.4752 343.0857 410.9815 342.4057 406.9009 335.8314 410.5281 330.8441 407.581 329.2572 403.9539 326.0835 403.5005 326.0835 407.581 321.7762 411.4349 317.6957 409.848 316.7889 405.0874 317.2423 399.1932 321.5495 395.5661 321.3228 393.0724 313.8418 392.3923 313.1617 390.3521 314.2952 372.6697 329.9373 367.6824 341.0455 356.8009 338.5518 351.5869 339.4586 346.3728 343.7658 340.252 354.4206 336.3982 365.0753 340.252 374.3699 337.0783 377.0903 340.252 378.6772 351.5869 393.8659 361.5615 393.8659 367.0023 398.8532 367.9091 406.5609 361.5615 Z" id="AF.GZ" fill="#cee3f5" stroke="#6e6e6e" stroke-width="0.4">
      <desc>
        <labelrank>7</labelrank>
        <code_hasc>AF.GZ</code_hasc>
        <name>Ghazni</name>
        <admin>Afghanistan</admin>
        <type_en>Province</type_en>
        <region/>
        <woe_id>2344555</woe_id>
        <longitude>67</longitude>
        <woe_name>Ghazni</woe_name>
        <fips>AF08</fips>
        <woe_label>Ghazni, AF, Afghanistan</woe_label>
        <latitude>33</latitude>
        <iso_a2>AF</iso_a2>
        <postal>GZ</postal>
        <type>Velayat</type>
        <id>AF.GZ</id>
      </desc>
    </path>
    <path d="M 444.4193 407.3543 437.8451 405.5408 440.5654 393.5258 447.8197 384.2312 449.6333 375.3901 460.0614 372.443 469.8094 364.0552 475.9302 365.4154 478.6505 370.4027 477.7437 377.8837 484.318 385.138 484.7714 388.7652 476.6103 396.0195 472.7564 396.4729 470.7161 400.1 464.3686 402.5937 459.1546 401.2335 447.8197 403.5005 444.4193 407.3543 Z" id="AF.KT" fill="#cee3f5" stroke="#6e6e6e" stroke-width="0.4">
      <desc>
        <labelrank>5</labelrank>
        <code_hasc>AF.KT</code_hasc>
        <name>Khost</name>
        <admin>Afghanistan</admin>
        <type_en>Province</type_en>
        <region/>
        <woe_id>24550741</woe_id>
        <longitude>69</longitude>
        <woe_name>Khost</woe_name>
        <fips>AF37</fips>
        <woe_label>Khowst, AF, Afghanistan</woe_label>
        <latitude>33</latitude>
        <iso_a2>AF</iso_a2>
        <postal>KT</postal>
        <type>Velayat</type>
        <id>AF.KT</id>
      </desc>
    </path>
    <path d="M 440.5654 393.5258 437.8451 405.5408 444.4193 407.3543 444.4193 416.4222 439.432 421.4095 441.9256 428.4372 432.4044 439.772 436.0315 470.1494 424.2433 484.8847 410.8681 490.5521 404.974 480.5775 397.0396 477.4037 391.3722 479.6707 397.9464 481.4842 395.4527 483.2978 383.2111 480.8042 378.4505 477.177 375.2767 481.0309 370.9695 475.1367 374.3699 466.7489 373.0097 461.0815 375.2767 443.1725 373.6898 437.2783 361.9016 425.0367 366.4355 418.6892 373.0097 424.3566 382.531 421.4095 392.0523 409.3946 394.7727 401.9136 409.2813 384.9113 418.5758 384.6846 420.8428 398.9665 431.0442 391.9389 440.5654 393.5258 Z" id="AF.PK" fill="#cee3f5" stroke="#6e6e6e" stroke-width="0.4">
      <desc>
        <labelrank>5</labelrank>
        <code_hasc>AF.PK</code_hasc>
        <name>Paktika</name>
        <admin>Afghanistan</admin>
        <type_en>Province</type_en>
        <region/>
        <woe_id>2344574</woe_id>
        <longitude>68</longitude>
        <woe_name>Paktika</woe_name>
        <fips>AF29</fips>
        <woe_label>Paktika, AF, Afghanistan</woe_label>
        <latitude>32</latitude>
        <iso_a2>AF</iso_a2>
        <postal>PK</postal>
        <type>Velayat</type>
        <id>AF.PK</id>
      </desc>
    </path>
    <path d="M 524.67 228.037 515.6021 243.4524 517.6424 247.7597 511.2949 252.2936 510.8415 260.6814 505.6275 260.4547 502.227 257.7343 499.7334 262.0416 495.1994 263.1751 495.6528 256.1475 492.0257 250.2533 487.265 248.4398 480.0107 250.2533 481.8243 239.5986 490.8922 232.3443 489.3053 228.2637 491.1189 213.7551 479.784 211.7148 470.2627 203.5538 468.4492 176.3501 473.8899 169.3225 469.5827 163.8818 467.9958 139.1718 475.2501 139.8519 480.4641 131.6908 480.4641 126.0234 475.9302 120.8094 475.4768 115.822 479.784 116.2754 479.3306 114.2351 489.3053 105.394 498.1465 88.3917 503.3605 85.898 510.6148 86.5781 512.4284 84.0844 530.5641 96.7795 526.2569 116.0487 530.3374 117.8623 539.4053 114.6885 542.3524 117.4089 539.4053 125.57 535.7782 166.6021 541.899 184.0578 546.8863 188.8184 555.5008 187.9117 575.2234 171.3628 593.8126 167.0555 599.7067 155.494 612.6285 149.3732 622.8298 140.0786 631.8977 138.7184 644.5927 141.2121 644.1393 146.4261 637.7918 151.4134 643.0058 153.6804 665.2222 145.2926 666.809 141.4388 671.1163 139.8519 680.8642 142.3456 687.4385 140.7587 699 149.8266 694.4661 150.9601 690.6122 146.1994 686.305 150.5067 679.9575 151.1867 674.29 156.1741 683.1312 163.2017 683.1312 166.6021 676.3303 165.242 669.076 170.9094 664.0887 171.5895 659.7814 176.5768 647.0864 172.723 619.6561 174.9899 592.9058 178.6171 584.7447 183.3777 573.4099 185.6447 570.6895 187.2316 571.5963 189.9519 553.0071 200.8334 553.4605 205.8207 545.2994 202.4203 543.0325 210.128 531.6976 217.8357 524.67 228.037 Z" id="AF.BD" fill="#cee3f5" stroke="#6e6e6e" stroke-width="0.4">
      <desc>
        <labelrank>5</labelrank>
        <code_hasc>AF.BD</code_hasc>
        <name>Badakhshan</name>
        <admin>Afghanistan</admin>
        <type_en>Province</type_en>
        <region/>
        <woe_id>2344549</woe_id>
        <longitude>70</longitude>
        <woe_name>Badakhshan</woe_name>
        <fips>AF01</fips>
        <woe_label>Badakhshan, AF, Afghanistan</woe_label>
        <latitude>36</latitude>
        <iso_a2>AF</iso_a2>
        <postal>BD</postal>
        <type>Velayat</type>
        <id>AF.BD</id>
      </desc>
    </path>
    <path d="M 545.9795 261.1348 538.9519 268.3891 527.6171 271.1095 523.0831 282.8977 510.6148 285.1647 500.8668 281.7642 497.2397 289.9253 488.3985 295.366 482.5044 293.5525 476.6103 284.4846 470.4894 283.5778 467.7691 275.8701 465.2754 268.8425 476.837 260.228 480.0107 250.2533 487.265 248.4398 492.0257 250.2533 495.6528 256.1475 495.1994 263.1751 499.7334 262.0416 502.227 257.7343 505.6275 260.4547 510.8415 260.6814 511.2949 252.2936 517.6424 247.7597 515.6021 243.4524 524.67 228.037 533.0578 232.7977 537.5918 238.9185 542.1257 248.2131 540.3121 251.6135 545.2994 255.2407 545.9795 261.1348 Z" id="AF.NR" fill="#cee3f5" stroke="#6e6e6e" stroke-width="0.4">
      <desc>
        <labelrank>5</labelrank>
        <code_hasc>AF.NR</code_hasc>
        <name>Nuristan</name>
        <admin>Afghanistan</admin>
        <type_en>Province</type_en>
        <region/>
        <woe_id>24549937</woe_id>
        <longitude>70</longitude>
        <woe_name>Nuristan</woe_name>
        <fips>AF38</fips>
        <woe_label>Nurestan, AF, Afghanistan</woe_label>
        <latitude>35</latitude>
        <iso_a2>AF</iso_a2>
        <postal>NR</postal>
        <type>Velayat</type>
        <id>AF.NR</id>
      </desc>
    </path>
    <path d="M 517.6424 315.3154 505.8542 317.1289 506.9877 313.9552 501.3202 311.2348 502.0003 304.2072 499.28 301.2601 497.2397 289.9253 500.8668 281.7642 510.6148 285.1647 523.0831 282.8977 527.6171 271.1095 538.9519 268.3891 545.9795 261.1348 547.3397 264.3085 543.0325 270.8828 548.2465 278.3638 542.3524 284.2579 540.7655 291.5122 532.151 296.2728 528.0705 303.7538 522.1764 308.2878 521.4963 315.0887 517.6424 315.3154 Z" id="AF.KR" fill="#cee3f5" stroke="#6e6e6e" stroke-width="0.4">
      <desc>
        <labelrank>5</labelrank>
        <code_hasc>AF.KR</code_hasc>
        <name>Kunar</name>
        <admin>Afghanistan</admin>
        <type_en>Province</type_en>
        <region/>
        <woe_id>2344561</woe_id>
        <longitude>71</longitude>
        <woe_name>Kunar</woe_name>
        <fips>AF34</fips>
        <woe_label>Konar, AF, Afghanistan</woe_label>
        <latitude>34</latitude>
        <iso_a2>AF</iso_a2>
        <postal>KR</postal>
        <type>Velayat</type>
        <id>AF.KR</id>
      </desc>
    </path>
    <path d="M 435.3514 165.242 435.1247 180.8841 431.0442 184.2845 430.5908 188.3651 432.8577 194.9393 427.6437 202.4203 431.2709 213.5284 420.1627 206.2741 413.8152 206.5008 407.4677 199.4732 384.5713 197.2062 382.0776 195.8461 375.05 182.6976 374.5966 176.1234 382.3043 170.9094 386.6116 171.3628 387.065 165.9221 392.0523 165.6954 392.5057 162.975 403.1604 159.8012 405.2007 155.494 412.2283 157.3076 412.9084 152.5469 416.7623 155.494 415.4021 152.0935 419.936 153.227 432.4044 165.9221 435.3514 165.242 Z" id="AF.KZ" fill="#cee3f5" stroke="#6e6e6e" stroke-width="0.4">
      <desc>
        <labelrank>5</labelrank>
        <code_hasc>AF.KZ</code_hasc>
        <name>Kunduz</name>
        <admin>Afghanistan</admin>
        <type_en>Province</type_en>
        <region/>
        <woe_id>2344570</woe_id>
        <longitude>68</longitude>
        <woe_name>Kunduz</woe_name>
        <fips>AF24</fips>
        <woe_label>Konduz, AF, Afghanistan</woe_label>
        <latitude>36</latitude>
        <iso_a2>AF</iso_a2>
        <postal>KZ</postal>
        <type>Velayat</type>
        <id>AF.KZ</id>
      </desc>
    </path>
    <path d="M 517.6424 315.3154 516.9623 320.5294 524.8967 328.4638 521.2696 345.6928 513.3352 347.733 512.2017 350.2267 495.6528 352.0403 465.2754 346.8262 464.822 346.1462 456.6609 334.1312 444.646 339.5719 444.1926 337.0783 450.9935 331.1842 453.0338 325.7434 460.5148 324.6099 472.7564 324.6099 486.8116 319.8493 489.9854 315.7688 489.3053 309.8746 499.28 301.2601 502.0003 304.2072 501.3202 311.2348 506.9877 313.9552 505.8542 317.1289 517.6424 315.3154 Z" id="AF.NG" fill="#cee3f5" stroke="#6e6e6e" stroke-width="0.4">
      <desc>
        <labelrank>5</labelrank>
        <code_hasc>AF.NG</code_hasc>
        <name>Nangarhar</name>
        <admin>Afghanistan</admin>
        <type_en>Province</type_en>
        <region/>
        <woe_id>2344564</woe_id>
        <longitude>70</longitude>
        <woe_name>Nangarhar</woe_name>
        <fips>AF18</fips>
        <woe_label>Nangarhar, AF, Afghanistan</woe_label>
        <latitude>34</latitude>
        <iso_a2>AF</iso_a2>
        <postal>NG</postal>
        <type>Velayat</type>
        <id>AF.NG</id>
      </desc>
    </path>
    <path d="M 467.9958 139.1718 469.5827 163.8818 473.8899 169.3225 468.4492 176.3501 470.2627 203.5538 479.784 211.7148 491.1189 213.7551 489.3053 228.2637 490.8922 232.3443 481.8243 239.5986 477.2904 237.1049 474.1166 241.4121 466.8623 242.0922 466.6356 237.5583 458.4745 225.09 458.0211 218.2891 454.8474 216.7022 453.2605 210.3547 437.165 217.609 431.2709 213.5284 427.6437 202.4203 432.8577 194.9393 430.5908 188.3651 431.0442 184.2845 435.1247 180.8841 435.3514 165.242 441.6989 158.8944 438.5252 146.1994 444.646 137.8116 463.9152 135.318 467.9958 139.1718 Z" id="AF.TK" fill="#cee3f5" stroke="#6e6e6e" stroke-width="0.4">
      <desc>
        <labelrank>5</labelrank>
        <code_hasc>AF.TK</code_hasc>
        <name>Takhar</name>
        <admin>Afghanistan</admin>
        <type_en>Province</type_en>
        <region/>
        <woe_id>2344571</woe_id>
        <longitude>69</longitude>
        <woe_name>Takhar</woe_name>
        <fips>AF26</fips>
        <woe_label>Takhar, AF, Afghanistan</woe_label>
        <latitude>36</latitude>
        <iso_a2>AF</iso_a2>
        <postal>TK</postal>
        <type>Velayat</type>
        <id>AF.TK</id>
      </desc>
    </path>
    <path d="M 431.2709 213.5284 437.165 217.609 453.2605 210.3547 454.8474 216.7022 458.0211 218.2891 458.4745 225.09 466.6356 237.5583 466.8623 242.0922 458.9279 250.2533 456.8876 257.961 433.5378 267.0289 429.684 265.2153 416.5356 275.4167 411.7749 274.7366 400.2134 286.2981 385.9315 285.6181 381.1708 289.4719 373.0097 286.0715 372.783 279.7239 377.317 271.7895 376.6369 262.7217 381.6242 255.4674 379.8107 250.7067 387.745 239.5986 388.6518 232.1176 398.3998 221.9162 390.6921 215.342 382.9844 203.5538 381.3975 200.1533 384.5713 197.2062 407.4677 199.4732 413.8152 206.5008 420.1627 206.2741 431.2709 213.5284 Z" id="AF.BL" fill="#cee3f5" stroke="#6e6e6e" stroke-width="0.4">
      <desc>
        <labelrank>7</labelrank>
        <code_hasc>AF.BL</code_hasc>
        <name>Baghlan</name>
        <admin>Afghanistan</admin>
        <type_en>Province</type_en>
        <region/>
        <woe_id>2344551</woe_id>
        <longitude>68</longitude>
        <woe_name>Baghlan</woe_name>
        <fips>AF03</fips>
        <woe_label>Baghlan, AF, Afghanistan</woe_label>
        <latitude>35</latitude>
        <iso_a2>AF</iso_a2>
        <postal>BL</postal>
        <type>Velayat</type>
        <id>AF.BL</id>
      </desc>
    </path>
    <path d="M 450.0867 310.7814 455.7541 310.5547 458.7012 303.0737 464.3686 298.5398 465.9555 304.4339 462.3284 308.7411 460.5148 324.6099 453.0338 325.7434 450.9935 331.1842 444.1926 337.0783 444.646 339.5719 434.4446 327.557 429.684 330.7308 419.2559 328.4638 412.9084 320.076 414.0419 312.3683 419.936 296.2728 431.0442 297.1796 435.3514 299.9 442.6057 314.1819 450.0867 310.7814 Z" id="AF.KB" fill="#cee3f5" stroke="#6e6e6e" stroke-width="0.4">
      <desc>
        <labelrank>7</labelrank>
        <code_hasc>AF.KB</code_hasc>
        <name>Kabul</name>
        <admin>Afghanistan</admin>
        <type_en>Province</type_en>
        <region/>
        <woe_id>2344559</woe_id>
        <longitude>69</longitude>
        <woe_name>Kabul</woe_name>
        <fips>AF13</fips>
        <woe_label>Kabul, AF, Afghanistan</woe_label>
        <latitude>34</latitude>
        <iso_a2>AF</iso_a2>
        <postal>KB</postal>
        <type>Velayat</type>
        <id>AF.KB</id>
      </desc>
    </path>
    <path d="M 459.3813 285.1647 464.822 295.1393 464.3686 298.5398 458.7012 303.0737 455.7541 310.5547 450.0867 310.7814 448.2731 295.366 435.1247 289.2452 434.4446 280.6307 453.4872 280.1773 459.3813 285.1647 Z" id="AF.KP" fill="#cee3f5" stroke="#6e6e6e" stroke-width="0.4">
      <desc>
        <labelrank>5</labelrank>
        <code_hasc>AF.KP</code_hasc>
        <name>Kapisa</name>
        <admin>Afghanistan</admin>
        <type_en>Province</type_en>
        <region/>
        <woe_id>2344560</woe_id>
        <longitude>69</longitude>
        <woe_name>Kapisa</woe_name>
        <fips>AF14</fips>
        <woe_label>Kapisa, AF, Afghanistan</woe_label>
        <latitude>34</latitude>
        <iso_a2>AF</iso_a2>
        <postal>KP</postal>
        <type>Velayat</type>
        <id>AF.KP</id>
      </desc>
    </path>
    <path d="M 481.8243 239.5986 480.0107 250.2533 476.837 260.228 465.2754 268.8425 467.7691 275.8701 459.3813 285.1647 453.4872 280.1773 434.4446 280.6307 432.631 280.8574 433.5378 267.0289 456.8876 257.961 458.9279 250.2533 466.8623 242.0922 474.1166 241.4121 477.2904 237.1049 481.8243 239.5986 Z" id="AF.PV" fill="#cee3f5" stroke="#6e6e6e" stroke-width="0.4">
      <desc>
        <labelrank>5</labelrank>
        <code_hasc>AF.PV</code_hasc>
        <name>Parwan</name>
        <admin>Afghanistan</admin>
        <type_en>Province</type_en>
        <region/>
        <woe_id>2344568</woe_id>
        <longitude>69</longitude>
        <woe_name>Parwan</woe_name>
        <fips>AF42</fips>
        <woe_label>Parvan, AF, Afghanistan</woe_label>
        <latitude>35</latitude>
        <iso_a2>AF</iso_a2>
        <postal>PV</postal>
        <type>Velayat</type>
        <id>AF.PV</id>
      </desc>
    </path>
    <path d="M 497.2397 289.9253 499.28 301.2601 489.3053 309.8746 489.9854 315.7688 486.8116 319.8493 472.7564 324.6099 460.5148 324.6099 462.3284 308.7411 465.9555 304.4339 464.3686 298.5398 464.822 295.1393 459.3813 285.1647 467.7691 275.8701 470.4894 283.5778 476.6103 284.4846 482.5044 293.5525 488.3985 295.366 497.2397 289.9253 Z" id="AF.LA" fill="#cee3f5" stroke="#6e6e6e" stroke-width="0.4">
      <desc>
        <labelrank>5</labelrank>
        <code_hasc>AF.LA</code_hasc>
        <name>Laghman</name>
        <admin>Afghanistan</admin>
        <type_en>Province</type_en>
        <region/>
        <woe_id>2344562</woe_id>
        <longitude>70</longitude>
        <woe_name>Laghman</woe_name>
        <fips>AF35</fips>
        <woe_label>Laghman, AF, Afghanistan</woe_label>
        <latitude>34</latitude>
        <iso_a2>AF</iso_a2>
        <postal>LA</postal>
        <type>Velayat</type>
        <id>AF.LA</id>
      </desc>
    </path>
    <path d="M 444.646 339.5719 456.6609 334.1312 464.822 346.1462 460.9682 344.3326 455.3007 348.6398 453.7139 346.3728 447.3664 346.1462 436.9383 358.1611 425.15 365.6421 421.2962 371.9896 409.508 371.9896 409.508 365.8688 406.5609 361.5615 409.0546 352.9471 415.1754 349.7733 411.3215 341.6122 419.2559 328.4638 429.684 330.7308 434.4446 327.557 444.646 339.5719 Z" id="AF.LW" fill="#cee3f5" stroke="#6e6e6e" stroke-width="0.4">
      <desc>
        <labelrank>5</labelrank>
        <code_hasc>AF.LW</code_hasc>
        <name>Logar</name>
        <admin>Afghanistan</admin>
        <type_en>Province</type_en>
        <region/>
        <woe_id>2344563</woe_id>
        <longitude>69</longitude>
        <woe_name>Logar</woe_name>
        <fips>AF17</fips>
        <woe_label>Lowgar, AF, Afghanistan</woe_label>
        <latitude>34</latitude>
        <iso_a2>AF</iso_a2>
        <postal>LW</postal>
        <type>Velayat</type>
        <id>AF.LW</id>
      </desc>
    </path>
    <path d="M 433.5378 267.0289 432.631 280.8574 434.4446 280.6307 435.1247 289.2452 448.2731 295.366 450.0867 310.7814 442.6057 314.1819 435.3514 299.9 431.0442 297.1796 419.936 296.2728 414.0419 312.3683 399.0799 308.2878 390.2387 311.9149 385.9315 301.7135 381.1708 289.4719 385.9315 285.6181 400.2134 286.2981 411.7749 274.7366 416.5356 275.4167 429.684 265.2153 433.5378 267.0289 Z" id="AF.2033" fill="#cee3f5" stroke="#6e6e6e" stroke-width="0.4">
      <desc>
        <labelrank>5</labelrank>
        <code_hasc>AF.PV</code_hasc>
        <name>Parwan</name>
        <admin>Afghanistan</admin>
        <type_en>Province</type_en>
        <region/>
        <woe_id>56000467</woe_id>
        <longitude>68</longitude>
        <woe_name>Parwan</woe_name>
        <fips>AF40</fips>
        <woe_label>Panjshir, AF, Afghanistan</woe_label>
        <latitude>34</latitude>
        <iso_a2>AF</iso_a2>
        <postal>PV</postal>
        <type>Velayat</type>
        <id>AF.2033</id>
      </desc>
    </path>
    <path d="M 382.0776 195.8461 384.5713 197.2062 381.3975 200.1533 382.9844 203.5538 390.6921 215.342 398.3998 221.9162 388.6518 232.1176 387.745 239.5986 379.8107 250.7067 381.6242 255.4674 376.6369 262.7217 365.7554 264.0818 351.9269 261.8149 324.95 268.3891 316.1088 266.8022 323.1364 261.5882 324.95 255.9208 323.5898 252.9737 325.4034 249.7999 319.9627 246.6262 330.3907 234.1578 328.1237 226.4501 341.0455 217.8357 345.3527 202.647 343.9925 196.5261 349.4333 192.6723 358.2744 192.4456 365.0753 195.8461 376.8636 197.6596 382.0776 195.8461 Z" id="AF.SM" fill="#cee3f5" stroke="#6e6e6e" stroke-width="0.4">
      <desc>
        <labelrank>5</labelrank>
        <code_hasc>AF.SM</code_hasc>
        <name>Samangan</name>
        <admin>Afghanistan</admin>
        <type_en>Province</type_en>
        <region/>
        <woe_id>2344577</woe_id>
        <longitude>67</longitude>
        <woe_name>Samangan</woe_name>
        <fips>AF32</fips>
        <woe_label>Samangan, AF, Afghanistan</woe_label>
        <latitude>36</latitude>
        <iso_a2>AF</iso_a2>
        <postal>SM</postal>
        <type>Velayat</type>
        <id>AF.SM</id>
      </desc>
    </path>
    <path d="M 414.0419 312.3683 412.9084 320.076 419.2559 328.4638 411.3215 341.6122 415.1754 349.7733 409.0546 352.9471 406.5609 361.5615 398.8532 367.9091 393.8659 367.0023 393.8659 361.5615 378.6772 351.5869 377.0903 340.252 374.3699 337.0783 365.0753 340.252 354.4206 336.3982 343.7658 340.252 343.3124 336.6249 349.66 332.0909 341.4989 328.4638 343.7658 326.6502 342.859 324.3832 335.1513 323.0231 336.2848 319.3959 340.1387 317.3556 337.8717 311.0081 348.0731 308.2878 370.7428 313.7285 373.9165 308.2878 385.9315 301.7135 390.2387 311.9149 399.0799 308.2878 414.0419 312.3683 Z" id="AF.VR" fill="#cee3f5" stroke="#6e6e6e" stroke-width="0.4">
      <desc>
        <labelrank>5</labelrank>
        <code_hasc>AF.VR</code_hasc>
        <name>Wardak</name>
        <admin>Afghanistan</admin>
        <type_en>Province</type_en>
        <region/>
        <woe_id>2344572</woe_id>
        <longitude>68</longitude>
        <woe_name>Wardak</woe_name>
        <fips>AF27</fips>
        <woe_label>Vardak, AF, Afghanistan</woe_label>
        <latitude>34</latitude>
        <iso_a2>AF</iso_a2>
        <postal>VR</postal>
        <type>Velayat</type>
        <id>AF.VR</id>
      </desc>
    </path>
    <path d="M 464.822 346.1462 465.2754 346.8262 462.1017 352.267 469.8094 364.0552 460.0614 372.443 449.6333 375.3901 447.8197 384.2312 440.5654 393.5258 431.0442 391.9389 420.8428 398.9665 418.5758 384.6846 409.2813 384.9113 410.8681 380.6041 409.508 371.9896 421.2962 371.9896 425.15 365.6421 436.9383 358.1611 447.3664 346.1462 453.7139 346.3728 455.3007 348.6398 460.9682 344.3326 464.822 346.1462 Z" id="AF.PT" fill="#cee3f5" stroke="#6e6e6e" stroke-width="0.4">
      <desc>
        <labelrank>5</labelrank>
        <code_hasc>AF.PT</code_hasc>
        <name>Paktya</name>
        <admin>Afghanistan</admin>
        <type_en>Province</type_en>
        <region/>
        <woe_id>2344567</woe_id>
        <longitude>69</longitude>
        <woe_name>Paktya</woe_name>
        <fips>AF18</fips>
        <woe_label>Paktia, AF, Afghanistan</woe_label>
        <latitude>33</latitude>
        <iso_a2>AF</iso_a2>
        <postal>PT</postal>
        <type>Velayat</type>
        <id>AF.PT</id>
      </desc>
    </path>
  </g>
</svg>