<?xml version="1.0" encoding="UTF-8"?>
<svg xmlns="http://www.w3.org/2000/svg" width="700" height="700">
  <g id="botswana">
    <path d="M 403.6064 400.256 388.5296 428.176 233.2944 424.2672 14.4016 423.1504 13.2848 322.6384 84.76 322.08 85.3184 245.0208 295.2768 247.2544 403.6064 400.256 Z" id="BW.GH" fill="#cee3f5" stroke="#6e6e6e" stroke-width="0.4">
      <desc>
        <labelrank>6</labelrank>
        <code_hasc>BW.GH</code_hasc>
        <name>Ghanzi</name>
        <admin>Botswana</admin>
        <type_en>District</type_en>
        <region/>
        <woe_id>2344743</woe_id>
        <longitude>22</longitude>
        <woe_name>Ghanzi</woe_name>
        <fips>BC03</fips>
        <woe_label>Ghanzi, BW, Botswana</woe_label>
        <latitude>-22</latitude>
        <iso_a2>BW</iso_a2>
        <postal>GH</postal>
        <type>District</type>
        <id>BW.GH</id>
      </desc>
    </path>
    <path d="M 233.2944 424.2672 232.1776 430.968 226.5936 432.0848 225.4768 435.4352 226.0352 443.8112 231.0608 443.8112 232.1776 449.3952 232.1776 477.3152 231.0608 542.0896 303.0944 544.3232 313.704 556.0496 314.2624 594.5792 324.3136 605.7472 330.456 607.9808 331.0144 614.6816 319.8464 614.1232 309.2368 604.072 296.3936 605.7472 295.2768 602.9552 290.8096 604.072 278.5248 591.2288 274.616 590.112 258.9808 576.152 242.2288 575.0352 231.6192 579.5024 228.8272 577.2688 215.984 591.2288 213.192 606.3056 208.1664 613.5648 209.8416 617.4736 205.9328 622.4992 205.9328 630.8752 202.5824 632.5504 202.5824 634.784 194.2064 646.5104 187.5056 647.0688 180.2464 654.8864 173.5456 657.12 160.144 677.7808 156.2352 680.5728 140.6 682.248 139.4832 692.2992 132.7824 696.7664 116.0304 693.416 95.3696 696.7664 80.2928 691.7408 65.216 699 60.1904 688.3904 61.3072 676.1056 59.632 668.288 60.7488 663.2624 75.8256 641.4848 73.0336 634.2256 72.4752 621.9408 69.6832 616.3568 68.008 616.9152 66.8912 609.656 61.8656 601.8384 64.0992 598.488 60.1904 591.7872 62.9824 588.9952 59.0736 588.9952 59.632 586.2032 54.6064 582.8528 52.9312 575.0352 47.3472 568.3344 47.9056 566.1008 42.88 556.608 33.3872 548.232 23.8944 544.3232 15.5184 535.3888 14.4016 423.1504 233.2944 424.2672 Z" id="BW.KG" fill="#cee3f5" stroke="#6e6e6e" stroke-width="0.4">
      <desc>
        <labelrank>4</labelrank>
        <code_hasc>BW.KG</code_hasc>
        <name>Kgalagadi</name>
        <admin>Botswana</admin>
        <type_en>District</type_en>
        <region/>
        <woe_id>2344744</woe_id>
        <longitude>22</longitude>
        <woe_name>Kgalagadi</woe_name>
        <fips>BC04</fips>
        <woe_label>Kgalagadi, BW, Botswana</woe_label>
        <latitude>-24</latitude>
        <iso_a2>BW</iso_a2>
        <postal>KG</postal>
        <type>District</type>
        <id>BW.KG</id>
      </desc>
    </path>
    <path d="M 450.512 96.4864 379.0368 94.8112 377.3616 171.312 390.2048 177.4544 388.5296 198.1152 333.8064 202.024 323.1968 189.1808 319.8464 189.1808 316.496 185.8304 306.4448 189.1808 304.2112 193.0896 299.1856 194.2064 296.3936 193.0896 295.2768 247.2544 85.3184 245.0208 84.76 38.9712 121.6144 37.296 232.736 16.6352 255.6304 15.5184 262.8896 30.0368 270.7072 33.9456 275.1744 42.3216 274.0576 43.9968 276.2912 51.8144 278.5248 52.3728 286.3424 47.9056 300.8608 33.9456 301.4192 31.712 315.3792 24.4528 323.7552 17.1936 329.3392 18.3104 333.8064 13.2848 337.1568 12.7264 344.9744 21.6608 350 20.544 361.168 8.8176 368.4272 4.9088 379.0368 1 380.712 3.792 385.1792 2.6752 385.7376 4.3504 396.3472 1 400.8144 2.1168 398.0224 10.4928 403.048 23.336 409.7488 28.92 418.1248 49.0224 436.552 67.4496 439.9024 81.968 448.8368 90.344 450.512 96.4864 Z" id="BW.NW" fill="#cee3f5" stroke="#6e6e6e" stroke-width="0.4">
      <desc>
        <labelrank>4</labelrank>
        <code_hasc>BW.NW</code_hasc>
        <name>North-West</name>
        <admin>Botswana</admin>
        <type_en>District</type_en>
        <region/>
        <woe_id>55949048</woe_id>
        <longitude>23</longitude>
        <woe_name>North-West</woe_name>
        <fips>BC08</fips>
        <woe_label>North-West, BW, Botswana</woe_label>
        <latitude>-19</latitude>
        <iso_a2>BW</iso_a2>
        <postal>NW</postal>
        <type>District</type>
        <id>BW.NW</id>
      </desc>
    </path>
    <path d="M 450.512 96.4864 449.3952 104.304 463.3552 138.3664 473.9648 141.7168 476.1984 144.5088 474.5232 147.3008 491.2752 158.4688 494.6256 164.0528 500.2096 166.2864 503.0016 169.6368 518.6368 175.7792 525.896 176.896 530.9216 181.3632 538.1808 183.5968 542.648 194.7648 542.0896 214.8672 537.6224 236.6448 537.6224 249.488 543.2064 258.9808 551.5824 286.3424 555.4912 290.8096 560.5168 294.16 581.736 295.8352 591.2288 299.1856 594.0208 300.8608 614.6816 304.2112 625.2912 309.2368 635.9008 308.6784 653.2112 318.1712 666.0544 321.5216 667.1712 324.3136 663.8208 332.6896 665.496 338.832 669.9632 343.2992 679.456 343.8576 686.7152 353.3504 677.7808 352.2336 673.872 354.4672 664.3792 355.0256 658.2368 361.168 658.7952 366.752 654.328 372.336 649.3024 371.7776 647.0688 374.5696 633.1088 379.5952 612.448 380.1536 601.8384 386.296 598.488 394.1136 590.6704 398.5808 589.5536 404.1648 582.2944 408.0736 581.1776 415.3328 572.8016 418.6832 573.36 419.8 570.0096 419.8 571.1264 423.1504 568.3344 427.0592 564.4256 424.8256 560.5168 427.6176 557.7248 426.5008 553.2576 437.6688 543.7648 441.0192 543.2064 439.344 539.2976 441.5776 538.7392 439.344 534.8304 443.8112 527.5712 446.6032 528.1296 448.8368 522.5456 448.8368 523.104 452.1872 517.52 454.9792 516.9616 459.4464 513.0528 457.7712 510.2608 465.5888 505.7936 468.3808 504.6768 466.7056 500.768 473.9648 497.976 473.4064 491.8336 480.1072 443.2528 448.8368 430.968 431.5264 423.7088 428.7344 403.6064 400.256 295.2768 247.2544 296.3936 193.0896 299.1856 194.2064 304.2112 193.0896 306.4448 189.1808 316.496 185.8304 319.8464 189.1808 323.1968 189.1808 333.8064 202.024 388.5296 198.1152 390.2048 177.4544 377.3616 171.312 379.0368 94.8112 450.512 96.4864 Z M 467.8224 220.4512 468.3808 217.6592 458.888 215.984 460.0048 218.776 467.8224 220.4512 Z M 577.8272 330.456 576.7104 332.6896 581.1776 332.1312 580.6192 327.1056 577.8272 330.456 Z" id="BW.CE" fill="#cee3f5" stroke="#6e6e6e" stroke-width="0.4">
      <desc>
        <labelrank>4</labelrank>
        <code_hasc>BW.CE</code_hasc>
        <name>Central</name>
        <admin>Botswana</admin>
        <type_en>District</type_en>
        <region/>
        <woe_id>2344741</woe_id>
        <longitude>26</longitude>
        <woe_name>Central</woe_name>
        <fips>BC01</fips>
        <woe_label>Central, BW, Botswana</woe_label>
        <latitude>-21</latitude>
        <iso_a2>BW</iso_a2>
        <postal>CE</postal>
        <type>District</type>
        <id>BW.CE</id>
      </desc>
    </path>
    <path d="M 510.2608 465.5888 499.6512 505.2352 489.0416 509.7024 477.3152 519.1952 467.8224 532.5968 462.2384 531.48 450.512 533.7136 441.5776 525.896 435.9936 521.4288 432.0848 519.1952 431.5264 515.2864 437.1104 495.7424 443.2528 448.8368 491.8336 480.1072 497.976 473.4064 500.768 473.9648 504.6768 466.7056 505.7936 468.3808 510.2608 465.5888 Z" id="BW.KL" fill="#cee3f5" stroke="#6e6e6e" stroke-width="0.4">
      <desc>
        <labelrank>4</labelrank>
        <code_hasc>BW.KL</code_hasc>
        <name>Kgatleng</name>
        <admin>Botswana</admin>
        <type_en>District</type_en>
        <region/>
        <woe_id>2344745</woe_id>
        <longitude>26</longitude>
        <woe_name>Kgatleng</woe_name>
        <fips>BC05</fips>
        <woe_label>Kgatleng, BW, Botswana</woe_label>
        <latitude>-24</latitude>
        <iso_a2>BW</iso_a2>
        <postal>KL</postal>
        <type>District</type>
        <id>BW.KL</id>
      </desc>
    </path>
    <path d="M 443.2528 448.8368 437.1104 495.7424 431.5264 515.2864 432.0848 519.1952 435.9936 521.4288 427.6176 529.8048 416.4496 540.9728 409.1904 540.4144 401.3728 535.3888 355.584 519.1952 343.2992 514.728 232.1776 477.3152 232.1776 449.3952 231.0608 443.8112 226.0352 443.8112 225.4768 435.4352 226.5936 432.0848 232.1776 430.968 233.2944 424.2672 388.5296 428.176 403.6064 400.256 423.7088 428.7344 430.968 431.5264 443.2528 448.8368 Z" id="BW.KW" fill="#cee3f5" stroke="#6e6e6e" stroke-width="0.4">
      <desc>
        <labelrank>4</labelrank>
        <code_hasc>BW.KW</code_hasc>
        <name>Kweneng</name>
        <admin>Botswana</admin>
        <type_en>District</type_en>
        <region/>
        <woe_id>2344746</woe_id>
        <longitude>24</longitude>
        <woe_name>Kweneng</woe_name>
        <fips>BC06</fips>
        <woe_label>Kweneng, BW, Botswana</woe_label>
        <latitude>-23</latitude>
        <iso_a2>BW</iso_a2>
        <postal>KW</postal>
        <type>District</type>
        <id>BW.KW</id>
      </desc>
    </path>
    <path d="M 450.512 533.7136 429.2928 539.856 429.8512 550.4656 412.5408 594.5792 404.7232 589.5536 414.216 560.5168 409.7488 558.8416 416.4496 540.9728 427.6176 529.8048 428.7344 536.5056 435.9936 537.064 441.5776 525.896 450.512 533.7136 Z M 413.0992 577.2688 416.4496 576.152 415.3328 572.2432 413.0992 577.2688 Z" id="BW.SE" fill="#cee3f5" stroke="#6e6e6e" stroke-width="0.4">
      <desc>
        <labelrank>4</labelrank>
        <code_hasc>BW.SE</code_hasc>
        <name>South-East</name>
        <admin>Botswana</admin>
        <type_en>District</type_en>
        <region/>
        <woe_id>2344749</woe_id>
        <longitude>25</longitude>
        <woe_name>South-East</woe_name>
        <fips>BC09</fips>
        <woe_label>South-East, BW, Botswana</woe_label>
        <latitude>-24</latitude>
        <iso_a2>BW</iso_a2>
        <postal>SE</postal>
        <type>District</type>
        <id>BW.SE</id>
      </desc>
    </path>
    <path d="M 343.2992 514.728 342.7408 530.3632 355.584 529.8048 355.584 519.1952 401.3728 535.3888 409.1904 540.4144 416.4496 540.9728 409.7488 558.8416 414.216 560.5168 404.7232 589.5536 412.5408 594.5792 407.5152 606.3056 392.9968 615.24 378.4784 616.3568 366.752 614.6816 359.4928 619.1488 351.6752 620.824 339.9488 619.7072 331.0144 614.6816 330.456 607.9808 324.3136 605.7472 314.2624 594.5792 313.704 556.0496 303.0944 544.3232 231.0608 542.0896 232.1776 477.3152 343.2992 514.728 Z" id="BW.SO" fill="#cee3f5" stroke="#6e6e6e" stroke-width="0.4">
      <desc>
        <labelrank>4</labelrank>
        <code_hasc>BW.SO</code_hasc>
        <name>Southern</name>
        <admin>Botswana</admin>
        <type_en>District</type_en>
        <region/>
        <woe_id>2344750</woe_id>
        <longitude>24</longitude>
        <woe_name>Southern</woe_name>
        <fips>BC10</fips>
        <woe_label>Southern, BW, Botswana</woe_label>
        <latitude>-25</latitude>
        <iso_a2>BW</iso_a2>
        <postal>SO</postal>
        <type>District</type>
        <id>BW.SO</id>
      </desc>
    </path>
    <path d="M 591.2288 299.1856 581.736 295.8352 560.5168 294.16 555.4912 290.8096 551.5824 286.3424 543.2064 258.9808 537.6224 249.488 537.6224 236.6448 542.0896 214.8672 547.1152 213.7504 565.5424 214.3088 573.36 217.6592 571.6848 227.152 573.36 236.6448 570.568 245.0208 569.4512 260.656 584.528 280.2 588.4368 290.2512 588.4368 295.8352 591.2288 299.1856 Z M 555.4912 271.2656 561.0752 270.7072 560.5168 263.448 552.6992 268.4736 552.6992 270.7072 555.4912 271.2656 Z" id="BW.NE" fill="#cee3f5" stroke="#6e6e6e" stroke-width="0.4">
      <desc>
        <labelrank>4</labelrank>
        <code_hasc>BW.NE</code_hasc>
        <name>North-East</name>
        <admin>Botswana</admin>
        <type_en>District</type_en>
        <region/>
        <woe_id>2344748</woe_id>
        <longitude>27</longitude>
        <woe_name>North-East</woe_name>
        <fips>BC08</fips>
        <woe_label>North-East, BW, Botswana</woe_label>
        <latitude>-20</latitude>
        <iso_a2>BW</iso_a2>
        <postal>NE</postal>
        <type>District</type>
        <id>BW.NE</id>
      </desc>
    </path>
    <path d="M 441.5776 525.896 435.9936 537.064 428.7344 536.5056 427.6176 529.8048 435.9936 521.4288 441.5776 525.896 Z" id="BW.6962" fill="#cee3f5" stroke="#6e6e6e" stroke-width="0.4">
      <desc>
        <labelrank>4</labelrank>
        <code_hasc>BW.</code_hasc>
        <name>Gaborone</name>
        <admin>Botswana</admin>
        <type_en>City</type_en>
        <region/>
        <woe_id>-2344749</woe_id>
        <longitude>25</longitude>
        <woe_name/>
        <fips>BC</fips>
        <woe_label/>
        <latitude>-24</latitude>
        <iso_a2>BW</iso_a2>
        <postal>SE</postal>
        <type>City</type>
        <id>BW.6962</id>
      </desc>
    </path>
    <path d="M 555.4912 271.2656 552.6992 270.7072 552.6992 268.4736 560.5168 263.448 561.0752 270.7072 555.4912 271.2656 Z" id="BW.6963" fill="#cee3f5" stroke="#6e6e6e" stroke-width="0.4">
      <desc>
        <labelrank>4</labelrank>
        <code_hasc>BW.</code_hasc>
        <name>Francistown</name>
        <admin>Botswana</admin>
        <type_en>City</type_en>
        <region/>
        <woe_id>-2344748</woe_id>
        <longitude>27</longitude>
        <woe_name/>
        <fips>BC</fips>
        <woe_label/>
        <latitude>-21</latitude>
        <iso_a2>BW</iso_a2>
        <postal>NE</postal>
        <type>City</type>
        <id>BW.6963</id>
      </desc>
    </path>
    <path d="M 413.0992 577.2688 415.3328 572.2432 416.4496 576.152 413.0992 577.2688 Z" id="BW.6964" fill="#cee3f5" stroke="#6e6e6e" stroke-width="0.4">
      <desc>
        <labelrank>4</labelrank>
        <code_hasc>BW.</code_hasc>
        <name>Lobatse</name>
        <admin>Botswana</admin>
        <type_en>Town</type_en>
        <region/>
        <woe_id>-2344749</woe_id>
        <longitude>25</longitude>
        <woe_name/>
        <fips>BC</fips>
        <woe_label/>
        <latitude>-25</latitude>
        <iso_a2>BW</iso_a2>
        <postal>SE</postal>
        <type>Town</type>
        <id>BW.6964</id>
      </desc>
    </path>
    <path d="M 577.8272 330.456 580.6192 327.1056 581.1776 332.1312 576.7104 332.6896 577.8272 330.456 Z" id="BW.6967" fill="#cee3f5" stroke="#6e6e6e" stroke-width="0.4">
      <desc>
        <labelrank>4</labelrank>
        <code_hasc>BW.</code_hasc>
        <name>Selebi-Phikwe</name>
        <admin>Botswana</admin>
        <type_en>Town</type_en>
        <region/>
        <woe_id>-2344741</woe_id>
        <longitude>27</longitude>
        <woe_name/>
        <fips>BC</fips>
        <woe_label/>
        <latitude>-21</latitude>
        <iso_a2>BW</iso_a2>
        <postal>NE</postal>
        <type>Town</type>
        <id>BW.6967</id>
      </desc>
    </path>
    <path d="M 467.8224 220.4512 460.0048 218.776 458.888 215.984 468.3808 217.6592 467.8224 220.4512 Z" id="BW.6966" fill="#cee3f5" stroke="#6e6e6e" stroke-width="0.4">
      <desc>
        <labelrank>4</labelrank>
        <code_hasc>BW.</code_hasc>
        <name>Sowa</name>
        <admin>Botswana</admin>
        <type_en>Township</type_en>
        <region/>
        <woe_id>-2344741</woe_id>
        <longitude>26</longitude>
        <woe_name/>
        <fips>BC</fips>
        <woe_label/>
        <latitude>-20</latitude>
        <iso_a2>BW</iso_a2>
        <postal>NE</postal>
        <type>Township</type>
        <id>BW.6966</id>
      </desc>
    </path>
    <path d="M 355.584 519.1952 355.584 529.8048 342.7408 530.3632 343.2992 514.728 355.584 519.1952 Z" id="BW.6965" fill="#cee3f5" stroke="#6e6e6e" stroke-width="0.4">
      <desc>
        <labelrank>4</labelrank>
        <code_hasc>BW.</code_hasc>
        <name>Jwaneng</name>
        <admin>Botswana</admin>
        <type_en>Town</type_en>
        <region/>
        <woe_id>-2344750</woe_id>
        <longitude>24</longitude>
        <woe_name/>
        <fips>BC</fips>
        <woe_label/>
        <latitude>-24</latitude>
        <iso_a2>BW</iso_a2>
        <postal>SE</postal>
        <type>Town</type>
        <id>BW.6965</id>
      </desc>
    </path>
  </g>
</svg>