<?xml version="1.0" encoding="UTF-8"?>
<svg xmlns="http://www.w3.org/2000/svg" width="700" height="700">
  <g id="luxembourg">
    <path d="M 464.7309 311.5851 464.5062 311.6142 453.3485 313.0579 448.7728 315.0804 445.2481 318.7728 441.6326 326.6691 440.493 331.1449 441.8338 335.1506 443.8399 336.7707 447.0874 338.807 446.9975 342.9374 446.5246 346.257 434.4874 366.8733 414.9048 357.9903 402.17 346.0977 396.5366 339.4615 379.6441 335.2339 373.5364 335.454 352.8872 341.1723 347.1618 339.7174 341.6287 337.0573 332.7281 331.1477 325.5734 329.5901 319.6572 329.6804 309.3437 334.5815 303.6055 341.5046 302.2622 345.4604 300.7233 351.8251 294.2784 360.3191 291.2092 367.0246 283.5504 375.6376 282.2963 381.191 281.8841 394.6624 279.6627 404.9829 278.7785 415.4048 278.9465 425.4848 257.5726 432.3636 242.0568 439.841 232.6747 442.417 206.0477 443.2066 193.9692 447.1373 193.732 444.9758 190.1846 439.3065 186.1687 438.9944 182.2094 440.3048 178.7689 439.6504 175.0799 437.5687 166.4842 434.9229 162.5466 431.7081 162.8122 429.4967 161.5376 416.2147 160.6033 411.7357 146.2221 382.9483 142.1779 376.8793 134.3715 372.0188 127.7559 370.8515 121.5335 367.7678 115.1028 356.9131 111.4182 344.9428 110.5949 333.5794 113.3842 324.4993 120.7273 319.6249 114.8447 314.0836 115.9459 310.6481 117.1034 308.4421 118.0101 305.5955 117.9785 300.0881 134.117 301.8507 128.4434 293.1653 114.9017 282.7126 107.6781 279.1785 110.2104 270.1461 131.6974 233.3416 134.2062 227.3073 135.6923 222.4965 138.0038 217.5427 142.8605 211.1762 147.1901 208.2978 156.2736 206.2296 161.3723 201.4851 168.1586 188.438 165.7104 183.1649 161.4243 177.8337 162.1857 164.7084 166.0131 159.6622 178.4603 154.2128 182.9172 149.5122 184.4709 141.9957 184.5102 133.0465 183.8619 122.0291 187.5604 116.1445 196.5204 108.4132 200.2775 103.0196 201.8228 96.535 203.0869 81.0999 205.3252 75.0606 215.4815 65.855 238.2873 54.772 247.4217 45.3102 252.3295 31.6548 254.8949 18.6314 260.1002 9.8441 273.1169 8.5012 282.5462 1 286.4528 5.2867 288.4548 14.3879 292.168 21.3782 297.5632 24.0154 300.2487 25.3278 307.1351 26.3236 321.041 24.1325 326.3533 20.8452 330.276 16.6213 335.0153 15.9875 342.9057 23.6173 345.5521 32.3723 344.8489 41.3702 346.2331 48.8948 355.335 52.983 351.0881 66.7482 348.1047 79.8256 344.2212 106.5717 345.2968 107.261 348.9688 106.9199 350.3614 107.1177 348.0799 110.2137 342.3715 121.3215 349.0176 125.1626 353.002 132.9838 356.7901 152.8516 355.0721 163.4223 357.7296 171.1438 368.3105 187.2771 377.6283 214.0285 382.5137 222.3389 389.1131 209.2595 399.6506 226.3196 419.8708 274.9876 429.4744 284.7151 450.3324 293.9835 459.3043 299.7721 462.2373 304.9793 464.7309 311.5851 Z" id="LU.DI" fill="#cee3f5" stroke="#6e6e6e" stroke-width="0.4">
      <desc>
        <labelrank>9</labelrank>
        <code_hasc>LU.DI</code_hasc>
        <name>Diekirch</name>
        <admin>Luxembourg</admin>
        <type_en>District</type_en>
        <region/>
        <woe_id>20070542</woe_id>
        <longitude>6</longitude>
        <woe_name>Diekirch</woe_name>
        <fips>LU01</fips>
        <woe_label>Diekirch, LU, Luxembourg</woe_label>
        <latitude>49</latitude>
        <iso_a2>LU</iso_a2>
        <postal>DI</postal>
        <type>District</type>
        <id>LU.DI</id>
      </desc>
    </path>
    <path d="M 437.7658 653.3477 435.2544 637.4938 427.6368 605.2477 427.0494 592.3665 431.3597 584.299 451.2252 564.9523 455.9209 562.4871 467.1369 559.9858 468.6609 554.2059 467.5981 549.6351 464.4281 546.0022 461.0677 542.9102 458.6658 539.4723 459.9065 536.1269 462.3934 533.0253 475.3429 522.2097 464.7373 502.488 458.8552 477.4219 454.3478 471.8236 446.0131 466.0825 437.5568 463.7327 390.346 462.5817 418.3847 417.9251 423.4478 413.201 431.2815 408.2279 435.5836 409.0101 444.791 408.6059 451.9278 386.3226 450.6818 383.4971 447.2375 379.6912 444.2739 377.7775 434.4874 366.8733 446.5246 346.257 446.9975 342.9374 447.0874 338.807 443.8399 336.7707 441.8338 335.1506 440.493 331.1449 441.6326 326.6691 445.2481 318.7728 448.7728 315.0804 453.3485 313.0579 464.5062 311.6142 464.7309 311.5851 468.4341 321.3913 469.0759 324.5862 474.038 325.0195 483.2492 319.3955 488.6555 319.5312 499.1021 326.0954 516.8333 342.9136 527.2893 349.5206 538.0544 352.4365 567.5858 352.3295 586.5764 357.8561 588.9959 357.993 592.3219 361.5676 592.1301 361.3718 590.7992 362.7053 590.7711 370.7202 589.8825 371.3633 587.0439 392.0764 587.0095 398.8128 588.6846 403.034 588.4459 406.7228 582.4786 412.0098 582.0686 420.5178 583.5041 428.2805 586.4662 435.1023 590.8918 440.9832 585.5262 438.8924 582.6629 440.3306 580.578 444.9614 584.808 449.8111 586.0287 451.871 540.778 481.4477 531.2467 494.9016 532.3419 498.045 536.3092 500.7365 540.0885 504.4117 540.6843 510.7033 539.038 514.9864 534.3976 521.8851 528.1771 534.7867 512.1294 554.697 502.8335 569.3734 499.3422 579.8548 499.4159 609.9943 498.2333 619.1507 494.2609 649.8812 496.2509 678.6883 496.2224 685.7002 483.8287 684.4194 467.3388 675.4045 437.7658 653.3477 Z" id="LU.GR" fill="#cee3f5" stroke="#6e6e6e" stroke-width="0.4">
      <desc>
        <labelrank>9</labelrank>
        <code_hasc>LU.GR</code_hasc>
        <name>Grevenmacher</name>
        <admin>Luxembourg</admin>
        <type_en>District</type_en>
        <region/>
        <woe_id>20070559</woe_id>
        <longitude>6</longitude>
        <woe_name>Grevenmacher</woe_name>
        <fips>LU02</fips>
        <woe_label>Grevenmacher, LU, Luxembourg</woe_label>
        <latitude>49</latitude>
        <iso_a2>LU</iso_a2>
        <postal>GR</postal>
        <type>District</type>
        <id>LU.GR</id>
      </desc>
    </path>
    <path d="M 434.4874 366.8733 444.2739 377.7775 447.2375 379.6912 450.6818 383.4971 451.9278 386.3226 444.791 408.6059 435.5836 409.0101 431.2815 408.2279 423.4478 413.201 418.3847 417.9251 390.346 462.5817 437.5568 463.7327 446.0131 466.0825 454.3478 471.8236 458.8552 477.4219 464.7373 502.488 475.3429 522.2097 462.3934 533.0253 459.9065 536.1269 458.6658 539.4723 461.0677 542.9102 464.4281 546.0022 467.5981 549.6351 468.6609 554.2059 467.1369 559.9858 455.9209 562.4871 451.2252 564.9523 431.3597 584.299 427.0494 592.3665 427.6368 605.2477 435.2544 637.4938 437.7658 653.3477 436.6792 652.5365 419.699 645.7671 402.0851 643.9083 366.4741 647.8408 370.5065 656.5939 353.0162 658.2076 348.5943 659.9743 345.3219 665.7733 345.3807 671.87 343.9663 676.9821 336.4647 679.8265 330.429 688.9647 321.3211 692.3456 268.4207 695.439 257.6393 699 249.1905 671.7378 237.5644 659.9515 237.5635 659.9513 198.2644 650.4197 182.7309 643.0289 171.9536 632.8523 152.6176 606.8483 167.3694 599.8885 181.6407 584.7602 187.5885 569.937 177.1273 564.1387 184.1249 557.581 189.0876 548.0635 197.1018 526.1675 202.0438 520.3854 208.1977 514.7057 211.6775 506.4585 208.2808 492.9243 203.8269 489.1211 191.4491 487.6451 187.2499 484.4314 185.1099 477.4402 186.018 474.0515 187.8815 471.0109 188.2269 464.8171 189.2061 459.5602 192.2185 456.1801 194.5311 452.2562 193.9692 447.1373 206.0477 443.2066 232.6747 442.417 242.0568 439.841 257.5726 432.3636 278.9465 425.4848 278.7785 415.4048 279.6627 404.9829 281.8841 394.6624 282.2963 381.191 283.5504 375.6376 291.2092 367.0246 294.2784 360.3191 300.7233 351.8251 302.2622 345.4604 303.6055 341.5046 309.3437 334.5815 319.6572 329.6804 325.5734 329.5901 332.7281 331.1477 341.6287 337.0573 347.1618 339.7174 352.8872 341.1723 373.5364 335.454 379.6441 335.2339 396.5366 339.4615 402.17 346.0977 414.9048 357.9903 434.4874 366.8733 Z" id="LU.LU" fill="#cee3f5" stroke="#6e6e6e" stroke-width="0.4">
      <desc>
        <labelrank>9</labelrank>
        <code_hasc>LU.LU</code_hasc>
        <name>Luxembourg</name>
        <admin>Luxembourg</admin>
        <type_en>District</type_en>
        <region/>
        <woe_id>20070560</woe_id>
        <longitude>6</longitude>
        <woe_name>Luxembourg</woe_name>
        <fips>LU03</fips>
        <woe_label>Luxemburg, LU, Luxembourg</woe_label>
        <latitude>49</latitude>
        <iso_a2>LU</iso_a2>
        <postal>LU</postal>
        <type>District</type>
        <id>LU.LU</id>
      </desc>
    </path>
  </g>
</svg>