<?xml version="1.0" encoding="UTF-8"?>
<svg xmlns="http://www.w3.org/2000/svg" width="700" height="700">
  <g id="vietnam">
    <path d="M 238.2756 664.964 236.9342 664.0105 239.1487 664.0143 238.2756 664.964 Z" id="VN.3655" fill="#cee3f5" stroke="#6e6e6e" stroke-width="0.4">
      <desc>
        <labelrank>20</labelrank>
        <code_hasc>-99</code_hasc>
        <name/>
        <admin>Vietnam</admin>
        <type_en/>
        <region/>
        <woe_id>-99</woe_id>
        <longitude>104</longitude>
        <woe_name/>
        <fips/>
        <woe_label/>
        <latitude>8</latitude>
        <iso_a2>VN</iso_a2>
        <postal/>
        <type/>
        <id>VN.3655</id>
      </desc>
    </path>
    <path d="M 388.9219 120.5403 387.7571 119.7157 390.144 120.9838 388.9219 120.5403 Z M 398.0894 119.1207 399.9276 118.8326 403.144 121.4788 399.7887 122.1366 401.6682 124.7214 400.4706 126.0545 399.8131 124.0726 398.295 123.7688 398.6326 124.7597 394.3563 120.7334 396.4285 117.9597 398.0894 119.1207 Z M 413.6647 117.1909 415.8523 117.6121 414.6458 118.5831 413.6647 117.1909 Z M 391.2246 117.8752 392.7579 122.1217 390.3165 118.0315 390.3351 119.6717 388.1564 118.9142 388.772 115.4981 391.2246 117.8752 Z M 415.57 113.9347 414.0257 115.4564 412.3007 114.7667 415.57 113.9347 Z M 415.2429 116.4625 413.8627 116.406 418.4151 113.7264 415.2429 116.4625 Z M 419.5388 120.5808 419.2002 117.352 421.2058 116.7232 422.7946 113.0757 419.5388 120.5808 Z M 400.614 114.3324 399.1335 114.2706 400.2015 113.1217 400.614 114.3324 Z M 387.7437 113.2315 387.6413 114.7461 384.3263 113.4988 387.7437 113.2315 Z M 433.404 111.9585 431.0301 114.5789 431.2664 110.677 433.404 111.9585 Z M 421.8341 109.8682 422.9748 110.1267 420.9898 115.3891 415.8319 116.7285 419.3126 114.341 421.8341 109.8682 Z M 424.3805 111.3609 423.0586 112.4257 426.0072 106.0415 424.3805 111.3609 Z M 421.5458 102.1877 424.9546 101.4655 419.0448 107.3004 414.7362 109.0819 418.2317 98.8212 421.5458 102.1877 Z M 442.1551 92.6518 435.8244 94.9959 436.6247 93.8568 434.5977 94.08 442.1551 92.6518 Z M 435.1611 82.3901 441.7624 88.495 439.0808 90.5798 438.1218 86.6336 436.0472 86.4971 434.8964 88.4961 434.4536 86.6934 434.2125 88.2836 431.8159 87.0463 432.731 89.9499 431.0972 92.2085 426.0992 93.6146 426.4557 95.5441 424.2035 97.8667 421.1407 95.3354 421.3692 97.682 416.4215 96.3472 417.6828 98.2648 414.3438 98.9902 414.0654 100.6065 413.8216 102.866 415.3363 103.1661 413.8981 108.0241 414.82 110.591 407.6142 112.3622 407.0219 114.9487 401.202 114.0309 404.8344 110.1177 401.9561 111.7965 400.5755 110.4927 400.2932 112.1081 399.3637 110.5082 398.3198 114.4287 391.7697 112.5636 395.7775 116.3848 392.7089 115.1305 392.4576 117.7265 388.1843 114.2484 390.3103 113.3468 389.2851 111.0554 385.7352 111.9895 384.0688 111.3177 382.4485 111.4702 379.506 110.3583 375.103 109.8895 374.1508 109.6678 373.5984 109.3472 373.4225 108.8842 373.3624 108.3116 373.4189 107.7232 373.6623 107.3064 374.1259 106.9473 375.2641 106.5392 375.7967 106.2306 376.2733 105.8102 378.0282 103.2005 387.4895 104.6143 390.3743 104.5585 396.515 102.7799 396.9007 102.1481 397.2531 101.2471 397.5539 100.2455 397.9988 97.267 398.382 96.6595 398.6927 96.2908 400.9214 95.0639 403.6598 94.5736 406.4576 93.4432 407.4996 92.7929 408.2364 92.0626 408.6946 91.3448 408.9738 90.422 408.9726 89.7059 408.8436 88.9952 407.8501 87.0694 408.2156 86.2858 408.5843 85.7302 412.6066 83.0012 416.6595 81.0711 420.0366 84.349 430.7278 80.5779 435.1611 82.3901 Z" id="VN.QN" fill="#cee3f5" stroke="#6e6e6e" stroke-width="0.4">
      <desc>
        <labelrank>7</labelrank>
        <code_hasc>VN.QN</code_hasc>
        <name>Quảng Ninh</name>
        <admin>Vietnam</admin>
        <type_en>Province</type_en>
        <region>Đông Bắc</region>
        <woe_id>2347712</woe_id>
        <longitude>107</longitude>
        <woe_name>Quảng Ninh</woe_name>
        <fips>VM13</fips>
        <woe_label>Quang Ninh, VN, Vietnam</woe_label>
        <latitude>21</latitude>
        <iso_a2>VN</iso_a2>
        <postal>QN</postal>
        <type>Tỉnh</type>
        <id>VN.QN</id>
      </desc>
    </path>
    <path d="M 376.2817 552.1056 378.7398 556.1414 377.6946 557.9976 372.1131 567.8766 372.5504 571.9548 376.1792 578.2402 373.1392 584.9528 370.2945 582.965 369.4695 584.8045 364.1372 585.535 363.1108 580.8186 361.4666 580.061 360.2206 581.508 348.9095 570.5339 349.498 558.9465 346.4951 555.576 348.6929 553.1724 353.0275 553.88 356.7861 547.8491 366.4678 549.9572 368.8239 552.2177 376.2817 552.1056 Z" id="VN.TN" fill="#cee3f5" stroke="#6e6e6e" stroke-width="0.4">
      <desc>
        <labelrank>7</labelrank>
        <code_hasc>VN.TN</code_hasc>
        <name>Tây Ninh</name>
        <admin>Vietnam</admin>
        <type_en>Province</type_en>
        <region>Đông Nam Bộ</region>
        <woe_id>2347714</woe_id>
        <longitude>106</longitude>
        <woe_name>Tây Ninh</woe_name>
        <fips>VM33</fips>
        <woe_label>Tay Ninh, VN, Vietnam</woe_label>
        <latitude>11</latitude>
        <iso_a2>VN</iso_a2>
        <postal>TN</postal>
        <type>Tỉnh</type>
        <id>VN.TN</id>
      </desc>
    </path>
    <path d="M 245.775 70.5251 246.1454 83.5733 237.861 93.6491 240.9136 98.6766 240.4288 108.8992 237.8552 109.8321 233.7835 108.5882 230.9121 120.4311 226.03 118.394 221.6601 110.215 218.8881 108.8356 216.1809 104.2011 216.1641 101.3437 212.3511 99.9741 215.6535 97.6355 217.6393 90.8253 214.6017 91.9506 220.1938 84.947 219.1334 77.2936 214.6741 78.7751 212.9772 72.5361 210.4652 79.8281 205.9699 80.8523 203.5173 69.3123 198.5832 66.5774 198.8445 63.5673 184.6301 49.9333 183.1447 45.5174 185.1851 44.2353 187.5206 44.9797 192.333 37.7709 201.0391 38.0705 206.2851 44.0939 212.0189 47.7633 214.2022 54.0305 217.6949 55.2787 218.8084 58.3892 223.4606 57.9629 233.2628 62.7885 235.9369 58.0295 238.5422 58.0347 245.775 70.5251 Z" id="VN.DB" fill="#cee3f5" stroke="#6e6e6e" stroke-width="0.4">
      <desc>
        <labelrank>7</labelrank>
        <code_hasc>VN.DB</code_hasc>
        <name>Điện Biên</name>
        <admin>Vietnam</admin>
        <type_en>Province</type_en>
        <region>Tây Bắc</region>
        <woe_id>28301718</woe_id>
        <longitude>103</longitude>
        <woe_name>Điện Biên</woe_name>
        <fips>VM22</fips>
        <woe_label>Dien Bien, VN, Vietnam</woe_label>
        <latitude>21</latitude>
        <iso_a2>VN</iso_a2>
        <postal>DB</postal>
        <type>Tỉnh</type>
        <id>VN.DB</id>
      </desc>
    </path>
    <path d="M 361.9689 46.0905 364.9673 52.8908 361.9673 60.0104 359.0421 62.7448 358.6602 67.7596 345.4841 75.811 341.9541 64.4804 338.0023 64.5092 334.1622 67.7627 331.0991 58.1712 331.5678 51.5232 336.3432 43.2579 334.4945 37.495 339.9621 31.8625 343.2346 31.533 343.1481 36.2735 346.5941 42.6558 357.0673 39.7263 359.9345 45.4917 361.9689 46.0905 Z" id="VN.307" fill="#cee3f5" stroke="#6e6e6e" stroke-width="0.4">
      <desc>
        <labelrank>7</labelrank>
        <code_hasc>VN.</code_hasc>
        <name>Đông Bắc</name>
        <admin>Vietnam</admin>
        <type_en>Region</type_en>
        <region/>
        <woe_id>20070084</woe_id>
        <longitude>105</longitude>
        <woe_name>Đông Bắc</woe_name>
        <fips>VM72</fips>
        <woe_label>Bac Kan, VN, Vietnam</woe_label>
        <latitude>22</latitude>
        <iso_a2>VN</iso_a2>
        <postal/>
        <type>Region</type>
        <id>VN.307</id>
      </desc>
    </path>
    <path d="M 358.6602 67.7596 359.9412 74.489 365.0456 80.1346 361.1519 85.5501 360.0874 83.1886 355.5723 82.8692 356.7572 90.7445 352.5289 93.2546 350.3293 97.077 343.7481 95.4883 335.1235 86.9675 332.4856 82.651 334.1622 67.7627 338.0023 64.5092 341.9541 64.4804 345.4841 75.811 358.6602 67.7596 Z" id="VN.TY" fill="#cee3f5" stroke="#6e6e6e" stroke-width="0.4">
      <desc>
        <labelrank>7</labelrank>
        <code_hasc>VN.TY</code_hasc>
        <name>Thái Nguyên</name>
        <admin>Vietnam</admin>
        <type_en>Province</type_en>
        <region>Ðông B?c</region>
        <woe_id>20070083</woe_id>
        <longitude>105</longitude>
        <woe_name>Thái Nguyên</woe_name>
        <fips>VM85</fips>
        <woe_label>Thai Nguyen, VN, Vietnam</woe_label>
        <latitude>21</latitude>
        <iso_a2>VN</iso_a2>
        <postal>TY</postal>
        <type>Tỉnh</type>
        <id>VN.TY</id>
      </desc>
    </path>
    <path d="M 246.0988 34.5701 248.6735 38.9755 247.6757 43.8717 254.6551 45.4497 257.0239 48.1423 253.6566 54.1199 248.1245 58.0861 246.6774 63.6098 245.1672 65.9945 245.775 70.5251 238.5422 58.0347 235.9369 58.0295 233.2628 62.7885 223.4606 57.9629 218.8084 58.3892 217.6949 55.2787 214.2022 54.0305 212.0189 47.7633 206.2851 44.0939 201.0391 38.0705 192.333 37.7709 195.0032 34.8074 193.7894 32.8451 198.7746 28.2719 201.6957 31.7581 203.9415 30.8382 214.6004 36.4988 217.6206 42.3255 222.2574 44.6044 228.1605 39.605 228.1899 36.3359 232.7452 33.4804 235.6461 27.8842 239.6513 30.294 243.2429 37.5894 246.0988 34.5701 Z" id="VN.LI" fill="#cee3f5" stroke="#6e6e6e" stroke-width="0.4">
      <desc>
        <labelrank>7</labelrank>
        <code_hasc>VN.LI</code_hasc>
        <name>Lai Chau</name>
        <admin>Vietnam</admin>
        <type_en>Province</type_en>
        <region>Đông Bắc</region>
        <woe_id>2347708</woe_id>
        <longitude>103</longitude>
        <woe_name>Lai Chau</woe_name>
        <fips>VM89</fips>
        <woe_label>Lai Chau, VN, Vietnam</woe_label>
        <latitude>22</latitude>
        <iso_a2>VN</iso_a2>
        <postal>LI</postal>
        <type>Tỉnh</type>
        <id>VN.LI</id>
      </desc>
    </path>
    <path d="M 376.8942 46.1086 377.3073 48.8587 381.3645 50.4993 382.6894 54.5516 382.6484 66.8498 385.6981 64.6668 391.7083 66.4967 394.1869 68.8791 397.326 67.9704 398.5873 69.0129 397.8876 73.8556 405.421 78.263 409.8438 78.0457 411.212 79.4238 412.431 82.8368 412.6066 83.0012 408.5843 85.7302 408.2156 86.2858 407.8501 87.0694 408.9726 89.7059 408.9738 90.422 408.6946 91.3448 408.2364 92.0626 407.4996 92.7929 406.4576 93.4432 403.6598 94.5736 400.9214 95.0639 399.0883 94.3497 398.2856 91.2627 394.5337 91.156 390.2933 84.0246 386.7783 86.3264 382.8197 83.6265 379.3658 84.0528 374.9123 91.214 371.4255 93.0034 361.6395 88.4975 361.1519 85.5501 365.0456 80.1346 359.9412 74.489 358.6602 67.7596 359.0421 62.7448 361.9673 60.0104 364.9673 52.8908 361.9689 46.0905 364.8062 44.2038 371.0031 47.364 376.8942 46.1086 Z" id="VN.LS" fill="#cee3f5" stroke="#6e6e6e" stroke-width="0.4">
      <desc>
        <labelrank>7</labelrank>
        <code_hasc>VN.LS</code_hasc>
        <name>Lạng Sơn</name>
        <admin>Vietnam</admin>
        <type_en>Province</type_en>
        <region>Đông Bắc</region>
        <woe_id>2347718</woe_id>
        <longitude>106</longitude>
        <woe_name>Lạng Sơn</woe_name>
        <fips>VM39</fips>
        <woe_label>Lang Son, VN, Vietnam</woe_label>
        <latitude>21</latitude>
        <iso_a2>VN</iso_a2>
        <postal>LS</postal>
        <type>Tỉnh</type>
        <id>VN.LS</id>
      </desc>
    </path>
    <path d="M 262.2318 78.5476 272.9993 81.4683 279.069 79.1192 280.9436 80.9526 279.1929 89.2263 281.2155 92.9695 286.1822 95.5423 291.1634 93.1531 297.9361 94.2138 299.8666 96.8685 302.0389 97.1187 305.5738 107.889 304.3102 111.6101 305.7876 114.382 313.7506 122.3778 309.3713 125.2767 303.2906 125.5104 302.6437 130.33 298.947 132.7587 292.4802 129.5158 287.0812 126.6945 285.3291 123.7873 282.5097 123.4285 277.6483 117.7198 269.3902 114.3909 255.7434 119.7388 251.24 128.5903 242.5733 124.0394 240.4297 121.0337 236.7725 122.3194 230.9121 120.4311 233.7835 108.5882 237.8552 109.8321 240.4288 108.8992 240.9136 98.6766 237.861 93.6491 246.1454 83.5733 245.775 70.5251 245.1672 65.9945 246.6774 63.6098 249.5568 64.0813 252.8396 71.8015 258.2487 77.8956 262.2318 78.5476 Z" id="VN.311" fill="#cee3f5" stroke="#6e6e6e" stroke-width="0.4">
      <desc>
        <labelrank>7</labelrank>
        <code_hasc>VN.</code_hasc>
        <name>Son La</name>
        <admin>Vietnam</admin>
        <type_en>Region</type_en>
        <region>Tây Bắc</region>
        <woe_id>2347713</woe_id>
        <longitude>104</longitude>
        <woe_name>Son La</woe_name>
        <fips>VM32</fips>
        <woe_label>Son La, VN, Vietnam</woe_label>
        <latitude>21</latitude>
        <iso_a2>VN</iso_a2>
        <postal/>
        <type>Province</type>
        <id>VN.311</id>
      </desc>
    </path>
    <path d="M 302.6437 130.33 306.9169 131.9737 316.3758 132.1795 323.3508 138.3124 333.7625 142.4948 346.1291 152.4208 356.8735 156.8613 355.7437 159.9124 352.2557 163.2479 351.0989 169.4746 348.36 170.4548 351.1025 170.1178 348.3508 172.9122 346.2396 179.2214 344.9771 178.4786 346.2427 179.8664 345.9961 186.98 344.1427 187.9273 345.7374 194.0036 340.3873 192.3682 333.5315 185.5664 328.2385 184.6839 324.9343 181.1539 322.0088 182.7608 321.3424 177.7717 315.7919 169.9088 317.6328 164.9936 307.1978 160.213 308.0343 156.2638 305.3823 153.5006 305.5215 151.5808 301.5668 149.4236 294.3468 149.8035 295.4217 143.7532 290.7395 140.2952 281.1503 139.0523 284.9528 134.5897 287.2095 135.6674 289.2937 134.552 292.4802 129.5158 298.947 132.7587 302.6437 130.33 Z" id="VN.TH" fill="#cee3f5" stroke="#6e6e6e" stroke-width="0.4">
      <desc>
        <labelrank>7</labelrank>
        <code_hasc>VN.TH</code_hasc>
        <name>Thanh Hóa</name>
        <admin>Vietnam</admin>
        <type_en>Province</type_en>
        <region>Bắc Trung Bộ</region>
        <woe_id>2347715</woe_id>
        <longitude>105</longitude>
        <woe_name>Thanh Hóa</woe_name>
        <fips>VM34</fips>
        <woe_label>Thanh Hoa, VN, Vietnam</woe_label>
        <latitude>20</latitude>
        <iso_a2>VN</iso_a2>
        <postal>TH</postal>
        <type>Tỉnh</type>
        <id>VN.TH</id>
      </desc>
    </path>
    <path d="M 334.4945 37.495 336.3432 43.2579 331.5678 51.5232 331.0991 58.1712 334.1622 67.7627 332.4856 82.651 335.1235 86.9675 329.9491 89.1866 323.6355 88.4013 314.5479 79.4577 313.7358 74.24 302.9505 57.4538 306.5118 52.8415 307.2349 49.2254 311.7649 48.6414 317.4851 35.0331 324.6746 37.1116 334.4945 37.495 Z" id="VN.TQ" fill="#cee3f5" stroke="#6e6e6e" stroke-width="0.4">
      <desc>
        <labelrank>7</labelrank>
        <code_hasc>VN.TQ</code_hasc>
        <name>Tuyên Quang</name>
        <admin>Vietnam</admin>
        <type_en>Province</type_en>
        <region>Đông Bắc</region>
        <woe_id>2347751</woe_id>
        <longitude>105</longitude>
        <woe_name>Tuyên Quang</woe_name>
        <fips>VM68</fips>
        <woe_label>Tuyen Quang, VN, Vietnam</woe_label>
        <latitude>22</latitude>
        <iso_a2>VN</iso_a2>
        <postal>TQ</postal>
        <type>Tỉnh</type>
        <id>VN.TQ</id>
      </desc>
    </path>
    <path d="M 302.9505 57.4538 313.7358 74.24 314.5479 79.4577 305.341 84.5519 306.0545 93.8984 302.0389 97.1187 299.8666 96.8685 297.9361 94.2138 291.1634 93.1531 286.1822 95.5423 281.2155 92.9695 279.1929 89.2263 280.9436 80.9526 279.069 79.1192 272.9993 81.4683 262.2318 78.5476 263.5043 75.7273 261.6705 71.8721 264.8952 66.5568 274.2543 70.7228 275.8238 67.2838 283.6686 69.9083 285.143 66.8253 282.5688 59.8959 285.5757 58.4271 290.5078 60.7414 294.0359 57.3353 293.3008 53.2989 295.9822 52.9977 299.5194 56.9228 302.9505 57.4538 Z" id="VN.YB" fill="#cee3f5" stroke="#6e6e6e" stroke-width="0.4">
      <desc>
        <labelrank>7</labelrank>
        <code_hasc>VN.YB</code_hasc>
        <name>Yên Bái</name>
        <admin>Vietnam</admin>
        <type_en>Province</type_en>
        <region>Đông Bắc</region>
        <woe_id>2347753</woe_id>
        <longitude>104</longitude>
        <woe_name>Yên Bái</woe_name>
        <fips>VM70</fips>
        <woe_label>Yen Bai, VN, Vietnam</woe_label>
        <latitude>21</latitude>
        <iso_a2>VN</iso_a2>
        <postal>YB</postal>
        <type>Tỉnh</type>
        <id>VN.YB</id>
      </desc>
    </path>
    <path d="M 323.2619 112.0987 328.9847 111.7721 331.9747 113.2409 333.2688 116.0736 332.5072 120.7234 337.5662 124.7871 339.8116 129.707 344.5373 132.9579 347.0396 139.9678 343.3916 138.9456 341.3531 139.9874 340.5522 144.6453 335.6863 141.6641 333.7625 142.4948 323.3508 138.3124 316.3758 132.1795 306.9169 131.9737 302.6437 130.33 303.2906 125.5104 309.3713 125.2767 313.7506 122.3778 305.7876 114.382 304.3102 111.6101 305.5738 107.889 315.7416 115.48 324.3677 116.489 323.2619 112.0987 Z" id="VN.HO" fill="#cee3f5" stroke="#6e6e6e" stroke-width="0.4">
      <desc>
        <labelrank>7</labelrank>
        <code_hasc>VN.HO</code_hasc>
        <name>Hòa Bình</name>
        <admin>Vietnam</admin>
        <type_en>Province</type_en>
        <region>Tây Bắc</region>
        <woe_id>2347737</woe_id>
        <longitude>105</longitude>
        <woe_name>Hòa Bình</woe_name>
        <fips>VM56</fips>
        <woe_label>Hoa Binh, VN, Vietnam</woe_label>
        <latitude>20</latitude>
        <iso_a2>VN</iso_a2>
        <postal>HO</postal>
        <type>Tỉnh</type>
        <id>VN.HO</id>
      </desc>
    </path>
    <path d="M 378.0282 103.2005 376.2733 105.8102 375.7967 106.2306 375.2641 106.5392 374.1259 106.9473 373.6623 107.3064 373.4189 107.7232 373.3624 108.3116 373.4225 108.8842 373.5984 109.3472 374.1508 109.6678 375.103 109.8895 379.506 110.3583 380.7387 111.1168 375.7439 119.714 377.7617 122.623 372.5334 125.6438 365.4456 126.8059 359.5992 121.2974 360.6718 112.5936 367.0027 112.4171 367.0842 106.1145 370.935 101.8918 375.4513 101.6069 378.0282 103.2005 Z" id="VN.HD" fill="#cee3f5" stroke="#6e6e6e" stroke-width="0.4">
      <desc>
        <labelrank>7</labelrank>
        <code_hasc>VN.HD</code_hasc>
        <name>Hải Dương</name>
        <admin>Vietnam</admin>
        <type_en>Province</type_en>
        <region>Đồng Bằng Sông Hồng</region>
        <woe_id>20070080</woe_id>
        <longitude>106</longitude>
        <woe_name>Hải Dương</woe_name>
        <fips>VM79</fips>
        <woe_label>Hai Duong, VN, Vietnam</woe_label>
        <latitude>20</latitude>
        <iso_a2>VN</iso_a2>
        <postal>HD</postal>
        <type>Tỉnh</type>
        <id>VN.HD</id>
      </desc>
    </path>
    <path d="M 380.3995 128.9963 374.8831 131.2214 372.5334 125.6438 377.7617 122.623 375.7439 119.714 380.7387 111.1168 384.1915 112.0059 382.9869 112.0185 383.919 114.2329 387.4255 115.148 386.9813 117.7746 385.0069 117.8073 386.9988 119.3859 387.231 121.4846 385.8352 121.3345 389.8152 127.4412 388.0725 125.7663 383.4399 126.5452 385.242 127.773 383.7842 129.4456 380.3995 128.9963 Z" id="VN.3623" fill="#cee3f5" stroke="#6e6e6e" stroke-width="0.4">
      <desc>
        <labelrank>7</labelrank>
        <code_hasc>VN.</code_hasc>
        <name>Hải Phòng</name>
        <admin>Vietnam</admin>
        <type_en>Province</type_en>
        <region>Đồng Bằng Sông Hồng</region>
        <woe_id>2347707</woe_id>
        <longitude>106</longitude>
        <woe_name>Hải Phòng</woe_name>
        <fips/>
        <woe_label>Hai Phong, VN, Vietnam</woe_label>
        <latitude>20</latitude>
        <iso_a2>VN</iso_a2>
        <postal/>
        <type>Thành</type>
        <id>VN.3623</id>
      </desc>
    </path>
    <path d="M 360.6718 112.5936 359.5992 121.2974 365.4456 126.8059 359.0277 129.8864 356.6909 130.6092 354.3325 126.0654 350.2161 121.5409 350.624 117.9016 349.3128 116.6045 350.5635 113.7602 354.1404 112.9449 360.6718 112.5936 Z" id="VN.317" fill="#cee3f5" stroke="#6e6e6e" stroke-width="0.4">
      <desc>
        <labelrank>7</labelrank>
        <code_hasc>VN.</code_hasc>
        <name>Đồng Bằng Sông Hồng</name>
        <admin>Vietnam</admin>
        <type_en>Region</type_en>
        <region/>
        <woe_id>20070079</woe_id>
        <longitude>106</longitude>
        <woe_name>Đồng Bằng Sông Hồng</woe_name>
        <fips>VM81</fips>
        <woe_label>Hung Yen, VN, Vietnam</woe_label>
        <latitude>20</latitude>
        <iso_a2>VN</iso_a2>
        <postal/>
        <type>Region</type>
        <id>VN.317</id>
      </desc>
    </path>
    <path d="M 350.3293 97.077 351.4214 100.8723 350.433 105.4565 354.3715 110.3768 354.1404 112.9449 350.5635 113.7602 349.3128 116.6045 350.624 117.9016 350.2161 121.5409 354.3325 126.0654 352.9789 127.5941 346.2788 128.6066 344.5373 132.9579 339.8116 129.707 337.5662 124.7871 332.5072 120.7234 333.2688 116.0736 331.9747 113.2409 328.9847 111.7721 323.2619 112.0987 322.2256 103.6253 324.8002 101.4184 325.2645 98.4353 327.9555 98.1545 328.6099 99.6055 331.5055 104.4449 339.2824 105.1747 343.3886 107.641 343.7481 95.4883 350.3293 97.077 Z" id="VN.318" fill="#cee3f5" stroke="#6e6e6e" stroke-width="0.4">
      <desc>
        <labelrank>7</labelrank>
        <code_hasc>VN.</code_hasc>
        <name>Ha Noi</name>
        <admin>Vietnam</admin>
        <type_en>Province</type_en>
        <region>Đông Bắc</region>
        <woe_id>2347727</woe_id>
        <longitude>105</longitude>
        <woe_name>Ha Noi</woe_name>
        <fips/>
        <woe_label/>
        <latitude>21</latitude>
        <iso_a2>VN</iso_a2>
        <postal/>
        <type>Tỉnh</type>
        <id>VN.318</id>
      </desc>
    </path>
    <path d="M 367.0842 106.1145 367.0027 112.4171 360.6718 112.5936 354.1404 112.9449 354.3715 110.3768 350.433 105.4565 351.4214 100.8723 367.0842 106.1145 Z" id="VN.BN" fill="#cee3f5" stroke="#6e6e6e" stroke-width="0.4">
      <desc>
        <labelrank>7</labelrank>
        <code_hasc>VN.BN</code_hasc>
        <name>Bắc Ninh</name>
        <admin>Vietnam</admin>
        <type_en>Province</type_en>
        <region>Đồng Bằng Sông Hồng</region>
        <woe_id>20070088</woe_id>
        <longitude>106</longitude>
        <woe_name>Bắc Ninh</woe_name>
        <fips>VM74</fips>
        <woe_label>Bac Ninh, VN, Vietnam</woe_label>
        <latitude>21</latitude>
        <iso_a2>VN</iso_a2>
        <postal>BN</postal>
        <type>Tỉnh</type>
        <id>VN.BN</id>
      </desc>
    </path>
    <path d="M 343.7481 95.4883 343.3886 107.641 339.2824 105.1747 331.5055 104.4449 328.6099 99.6055 329.8469 97.9371 324.8029 92.1479 323.6355 88.4013 329.9491 89.1866 335.1235 86.9675 343.7481 95.4883 Z" id="VN.VC" fill="#cee3f5" stroke="#6e6e6e" stroke-width="0.4">
      <desc>
        <labelrank>7</labelrank>
        <code_hasc>VN.VC</code_hasc>
        <name>Vĩnh Phúc</name>
        <admin>Vietnam</admin>
        <type_en>Province</type_en>
        <region>Đồng Bằng Sông Hồng</region>
        <woe_id>20070090</woe_id>
        <longitude>105</longitude>
        <woe_name>Vĩnh Phúc</woe_name>
        <fips>VM86</fips>
        <woe_label>Vinh Phuc, VN, Vietnam</woe_label>
        <latitude>21</latitude>
        <iso_a2>VN</iso_a2>
        <postal>VC</postal>
        <type>Tỉnh</type>
        <id>VN.VC</id>
      </desc>
    </path>
    <path d="M 347.0396 139.9678 351.9489 143.8436 353.1217 146.9212 361.0636 149.4085 359.2863 158.1186 357.9521 161.3491 355.7437 159.9124 356.8735 156.8613 346.1291 152.4208 333.7625 142.4948 335.6863 141.6641 340.5522 144.6453 341.3531 139.9874 343.3916 138.9456 347.0396 139.9678 Z" id="VN.NB" fill="#cee3f5" stroke="#6e6e6e" stroke-width="0.4">
      <desc>
        <labelrank>7</labelrank>
        <code_hasc>VN.NB</code_hasc>
        <name>Ninh Bình</name>
        <admin>Vietnam</admin>
        <type_en>Province</type_en>
        <region>Đồng Bằng Sông Hồng</region>
        <woe_id>2347743</woe_id>
        <longitude>105</longitude>
        <woe_name>Ninh Bình</woe_name>
        <fips>VM59</fips>
        <woe_label>Ninh Binh, VN, Vietnam</woe_label>
        <latitude>20</latitude>
        <iso_a2>VN</iso_a2>
        <postal>NB</postal>
        <type>Tỉnh</type>
        <id>VN.NB</id>
      </desc>
    </path>
    <path d="M 359.0277 129.8864 362.2782 136.5049 357.2303 136.897 354.7256 140.5864 353.1611 139.6132 351.9489 143.8436 347.0396 139.9678 344.5373 132.9579 346.2788 128.6066 352.9789 127.5941 354.3325 126.0654 356.6909 130.6092 359.0277 129.8864 Z" id="VN.HM" fill="#cee3f5" stroke="#6e6e6e" stroke-width="0.4">
      <desc>
        <labelrank>7</labelrank>
        <code_hasc>VN.HM</code_hasc>
        <name>Hà Nam</name>
        <admin>Vietnam</admin>
        <type_en>Province</type_en>
        <region>Đồng Bằng Sông Hồng</region>
        <woe_id>2347741</woe_id>
        <longitude>105</longitude>
        <woe_name>Hà Nam</woe_name>
        <fips>VM80</fips>
        <woe_label>Ha Nam, VN, Vietnam</woe_label>
        <latitude>20</latitude>
        <iso_a2>VN</iso_a2>
        <postal>HM</postal>
        <type>Tỉnh</type>
        <id>VN.HM</id>
      </desc>
    </path>
    <path d="M 376.522 145.3716 378.5547 145.7807 379.5209 148.5776 371.1147 149.5969 365.76 156.7516 359.005 161.3422 359.2863 158.1186 361.0636 149.4085 353.1217 146.9212 351.9489 143.8436 353.1611 139.6132 354.7256 140.5864 357.2303 136.897 362.2782 136.5049 363.87 140.1365 366.5421 141.1099 366.0332 143.9939 369.6615 142.4092 374.4069 146.144 376.522 145.3716 Z" id="VN.ND" fill="#cee3f5" stroke="#6e6e6e" stroke-width="0.4">
      <desc>
        <labelrank>7</labelrank>
        <code_hasc>VN.ND</code_hasc>
        <name>Nam Định</name>
        <admin>Vietnam</admin>
        <type_en>Province</type_en>
        <region>Đồng Bằng Sông Hồng</region>
        <woe_id>20070089</woe_id>
        <longitude>106</longitude>
        <woe_name>Nam Định</woe_name>
        <fips>VM82</fips>
        <woe_label>Nam Dinh, VN, Vietnam</woe_label>
        <latitude>20</latitude>
        <iso_a2>VN</iso_a2>
        <postal>ND</postal>
        <type>Tỉnh</type>
        <id>VN.ND</id>
      </desc>
    </path>
    <path d="M 323.6355 88.4013 324.8029 92.1479 329.8469 97.9371 328.6099 99.6055 327.9555 98.1545 325.2645 98.4353 324.8002 101.4184 322.2256 103.6253 323.2619 112.0987 324.3677 116.489 315.7416 115.48 305.5738 107.889 302.0389 97.1187 306.0545 93.8984 305.341 84.5519 314.5479 79.4577 323.6355 88.4013 Z" id="VN.PT" fill="#cee3f5" stroke="#6e6e6e" stroke-width="0.4">
      <desc>
        <labelrank>7</labelrank>
        <code_hasc>VN.PT</code_hasc>
        <name>Phú Thọ</name>
        <admin>Vietnam</admin>
        <type_en>Province</type_en>
        <region>Đông Bắc</region>
        <woe_id>20070091</woe_id>
        <longitude>105</longitude>
        <woe_name>Phú Thọ</woe_name>
        <fips>VM83</fips>
        <woe_label>Phu Tho, VN, Vietnam</woe_label>
        <latitude>21</latitude>
        <iso_a2>VN</iso_a2>
        <postal>PT</postal>
        <type>Tỉnh</type>
        <id>VN.PT</id>
      </desc>
    </path>
    <path d="M 361.1519 85.5501 361.6395 88.4975 371.4255 93.0034 374.9123 91.214 379.3658 84.0528 382.8197 83.6265 386.7783 86.3264 390.2933 84.0246 394.5337 91.156 398.2856 91.2627 399.0883 94.3497 400.9214 95.0639 398.6927 96.2908 398.382 96.6595 397.9988 97.267 397.5539 100.2455 397.2531 101.2471 396.9007 102.1481 396.515 102.7799 395.8269 103.1946 390.3743 104.5585 387.4895 104.6143 378.0282 103.2005 375.4513 101.6069 370.935 101.8918 367.0842 106.1145 351.4214 100.8723 350.3293 97.077 352.5289 93.2546 356.7572 90.7445 355.5723 82.8692 360.0874 83.1886 361.1519 85.5501 Z" id="VN.BG" fill="#cee3f5" stroke="#6e6e6e" stroke-width="0.4">
      <desc>
        <labelrank>7</labelrank>
        <code_hasc>VN.BG</code_hasc>
        <name>Bắc Giang</name>
        <admin>Vietnam</admin>
        <type_en>Province</type_en>
        <region>Đông Bắc</region>
        <woe_id>20070087</woe_id>
        <longitude>106</longitude>
        <woe_name>Bắc Giang</woe_name>
        <fips>VM71</fips>
        <woe_label>Bac Giang, VN, Vietnam</woe_label>
        <latitude>21</latitude>
        <iso_a2>VN</iso_a2>
        <postal>BG</postal>
        <type>Tỉnh</type>
        <id>VN.BG</id>
      </desc>
    </path>
    <path d="M 380.3995 128.9963 381.8082 131.4399 377.1124 134.0183 379.8373 133.6986 379.8687 136.9515 377.1578 138.9091 380.5195 138.3645 379.0098 141.7897 380.5247 146.5189 377.3494 144.753 376.522 145.3716 374.4069 146.144 369.6615 142.4092 366.0332 143.9939 366.5421 141.1099 363.87 140.1365 362.2782 136.5049 359.0277 129.8864 365.4456 126.8059 372.5334 125.6438 374.8831 131.2214 380.3995 128.9963 Z" id="VN.TB" fill="#cee3f5" stroke="#6e6e6e" stroke-width="0.4">
      <desc>
        <labelrank>7</labelrank>
        <code_hasc>VN.TB</code_hasc>
        <name>Thái Bình</name>
        <admin>Vietnam</admin>
        <type_en>Province</type_en>
        <region>Đồng Bằng Sông Hồng</region>
        <woe_id>2347716</woe_id>
        <longitude>106</longitude>
        <woe_name>Thái Bình</woe_name>
        <fips>VM35</fips>
        <woe_label>Thai Binh, VN, Vietnam</woe_label>
        <latitude>20</latitude>
        <iso_a2>VN</iso_a2>
        <postal>TB</postal>
        <type>Tỉnh</type>
        <id>VN.TB</id>
      </desc>
    </path>
    <path d="M 378.1782 255.9437 370.5642 255.5133 367.3519 258.3178 361.0329 257.3934 357.5908 256.151 356.0292 252.2447 351.4486 250.7526 336.8587 255.6055 330.6623 245.6343 328.1042 244.6532 326.2291 247.1068 324.1325 246.1614 322.8028 242.2649 320.2529 242.4233 316.6775 239.1073 316.9549 236.9292 313.2199 232.7648 314.7305 226.7981 317.2416 225.0275 339.3909 227.246 343.3739 222.8632 343.9692 218.3229 349.1867 230.0004 352.3573 231.8675 359.6452 241.0479 358.8981 241.8452 362.1569 241.5026 366.9123 244.3716 370.3274 247.7145 368.5468 249.2477 370.0815 249.2367 370.382 251.1696 370.9774 249.2301 374.3357 248.1181 374.0348 250.5087 378.1782 255.9437 Z" id="VN.328" fill="#cee3f5" stroke="#6e6e6e" stroke-width="0.4">
      <desc>
        <labelrank>7</labelrank>
        <code_hasc>VN.</code_hasc>
        <name>Ha Tinh</name>
        <admin>Vietnam</admin>
        <type_en>Region</type_en>
        <region>Bắc Trung Bộ</region>
        <woe_id>2347736</woe_id>
        <longitude>105</longitude>
        <woe_name>Ha Tinh</woe_name>
        <fips>VM52</fips>
        <woe_label>Ha Tinh, VN, Vietnam</woe_label>
        <latitude>18</latitude>
        <iso_a2>VN</iso_a2>
        <postal/>
        <type>Province</type>
        <id>VN.328</id>
      </desc>
    </path>
    <path d="M 345.7374 194.0036 342.9315 196.0162 342.6717 201.8414 339.5913 202.7463 337.1829 207.0453 338.1182 211.2303 341.8044 213.823 339.9367 213.8303 340.5559 215.1447 343.4043 217.0354 343.3739 222.8632 339.3909 227.246 317.2416 225.0275 314.6852 221.2552 296.6045 216.6355 287.0765 208.5053 283.2892 207.7805 276.4325 202.0489 274.221 202.1952 271.4195 198.307 263.5879 196.2643 258.0391 192.7088 262.7412 188.4426 266.5735 187.4287 268.9044 184.1037 264.9771 174.7839 268.8912 176.1664 275.1714 173.6447 278.1237 176.07 281.919 174.65 287.5282 178.5592 292.3757 178.3535 295.1447 172.8278 300.9126 169.7137 301.4348 167.0156 298.7095 166.1198 299.8329 164.1833 303.9931 160.6696 307.1978 160.213 317.6328 164.9936 315.7919 169.9088 321.3424 177.7717 322.0088 182.7608 324.9343 181.1539 328.2385 184.6839 333.5315 185.5664 340.3873 192.3682 345.7374 194.0036 Z" id="VN.NA" fill="#cee3f5" stroke="#6e6e6e" stroke-width="0.4">
      <desc>
        <labelrank>7</labelrank>
        <code_hasc>VN.NA</code_hasc>
        <name>Nghệ An</name>
        <admin>Vietnam</admin>
        <type_en>Province</type_en>
        <region>Bắc Trung Bộ</region>
        <woe_id>2347742</woe_id>
        <longitude>104</longitude>
        <woe_name>Nghệ An</woe_name>
        <fips>VM58</fips>
        <woe_label>Nghe An, VN, Vietnam</woe_label>
        <latitude>19</latitude>
        <iso_a2>VN</iso_a2>
        <postal>NA</postal>
        <type>Tỉnh</type>
        <id>VN.NA</id>
      </desc>
    </path>
    <path d="M 378.1782 255.9437 374.4791 259.5129 376.9616 267.9579 371.7404 265.0393 367.6993 264.7455 374.2246 266.6315 372.1426 267.2114 373.3145 268.9209 373.7013 267.4935 377.6425 268.8875 383.6176 278.8577 389.5315 285.1698 400.6558 293.2398 395.9225 296.2011 392.0906 301.9801 379.2358 303.4165 378.8124 301.5982 377.5641 302.8024 373.6729 301.3319 368.8495 292.8355 367.8267 287.7351 364.9955 289.6355 363.3429 289.0558 346.7012 271.9651 342.3141 269.5333 336.9568 261.0259 336.8587 255.6055 351.4486 250.7526 356.0292 252.2447 357.5908 256.151 361.0329 257.3934 367.3519 258.3178 370.5642 255.5133 378.1782 255.9437 Z" id="VN.QB" fill="#cee3f5" stroke="#6e6e6e" stroke-width="0.4">
      <desc>
        <labelrank>7</labelrank>
        <code_hasc>VN.QB</code_hasc>
        <name>Quảng Bình</name>
        <admin>Vietnam</admin>
        <type_en>Province</type_en>
        <region>Bắc Trung Bộ</region>
        <woe_id>2347746</woe_id>
        <longitude>106</longitude>
        <woe_name>Quảng Bình</woe_name>
        <fips>VM62</fips>
        <woe_label>Quang Binh, VN, Vietnam</woe_label>
        <latitude>17</latitude>
        <iso_a2>VN</iso_a2>
        <postal>QB</postal>
        <type>Tỉnh</type>
        <id>VN.QB</id>
      </desc>
    </path>
    <path d="M 478.9699 488.9316 483.6404 495.0931 496.5909 500.177 493.5285 502.9265 493.1577 503.1434 492.7277 503.2476 490.9801 503.4242 490.5876 503.6352 490.2003 504.1868 489.796 505.056 489.147 507.0533 489.1033 507.9929 489.3928 509.0764 489.3861 509.5991 489.2091 510.2842 488.7502 511.3812 488.2982 512.9627 488.0024 513.4065 487.4013 513.6521 486.8282 513.5102 484.2074 512.4418 482.036 513.272 480.6996 513.0857 480.3403 513.12 480.0462 513.3621 479.8032 513.8293 479.6079 514.7987 479.5306 516.5062 479.7315 518.5455 480.3863 521.6613 476.7871 523.2028 471.9368 521.9841 467.7801 525.0223 463.7618 525.1969 460.0849 528.815 454.2863 529.1269 454.7755 526.8114 452.3229 523.8447 445.9903 519.6858 445.6814 516.3297 448.9216 513.3738 444.4563 511.015 441.2116 502.4186 427.2164 502.7544 423.3875 488.4026 427.9543 477.0121 433.4331 473.6098 453.1203 470.9574 466.128 475.7581 470.1795 485.3887 472.1753 487.3029 478.9699 488.9316 Z" id="VN.723" fill="#cee3f5" stroke="#6e6e6e" stroke-width="0.4">
      <desc>
        <labelrank>7</labelrank>
        <code_hasc>VN.</code_hasc>
        <name>Dak Lak</name>
        <admin>Vietnam</admin>
        <type_en>Region</type_en>
        <region>Tây Nguyên</region>
        <woe_id>2347720</woe_id>
        <longitude>108</longitude>
        <woe_name>Dak Lak</woe_name>
        <fips>VM07</fips>
        <woe_label>Dak Lak, VN, Vietnam</woe_label>
        <latitude>12</latitude>
        <iso_a2>VN</iso_a2>
        <postal/>
        <type>Province</type>
        <id>VN.723</id>
      </desc>
    </path>
    <path d="M 478.0951 413.3659 479.1329 419.9062 476.9827 434.3356 485.2221 453.3746 486.1961 462.3038 488.7264 478.6239 480.1678 485.3682 478.9699 488.9316 472.1753 487.3029 470.1795 485.3887 466.128 475.7581 453.1203 470.9574 433.4331 473.6098 427.9543 477.0121 429.9974 471.9062 429.8115 465.8304 422.2382 452.4616 422.2983 445.941 428.045 441.6539 434.7863 433.346 454.6449 426.276 463.0075 421.4041 466.3815 417.3185 466.5543 412.196 475.8199 411.2929 478.0951 413.3659 Z" id="VN.724" fill="#cee3f5" stroke="#6e6e6e" stroke-width="0.4">
      <desc>
        <labelrank>7</labelrank>
        <code_hasc>VN.</code_hasc>
        <name>Gia Lai</name>
        <admin>Vietnam</admin>
        <type_en>Region</type_en>
        <region>Nam Trung Bộ</region>
        <woe_id>2347733</woe_id>
        <longitude>108</longitude>
        <woe_name>Gia Lai</woe_name>
        <fips>VM49</fips>
        <woe_label>Gia Lai, VN, Vietnam</woe_label>
        <latitude>13</latitude>
        <iso_a2>VN</iso_a2>
        <postal/>
        <type>Province</type>
        <id>VN.724</id>
      </desc>
    </path>
    <path d="M 510.5045 525.0762 511.4735 526.0264 509.554 526.7035 506.6366 524.8145 510.5045 525.0762 Z M 513.7955 508.4963 509.4428 506.51 512.7372 506.0109 513.7955 508.4963 Z M 510.6761 495.2007 511.535 495.3804 512.057 495.6268 512.6394 496.071 512.6373 496.0715 512.3177 496.15 511.9125 496.5263 512.2948 498.8093 516.8553 504.3961 515.4367 508.7611 513.6308 502.9829 512.404 505.295 510.8008 504.3233 512.9808 501.8511 511.4738 497.8247 504.4472 505.0736 504.5201 509.6196 506.541 507.9194 506.0375 510.9167 511.1877 516.7891 508.9649 518.9662 503.6666 513.9494 502.0363 514.852 506.4277 521.163 504.7346 523.1997 503.4235 522.5758 505.7034 526.1178 503.8281 526.4701 505.8444 529.0913 505.6167 533.2206 508.7596 537.1037 507.8283 539.838 509.1747 541.6446 505.938 541.3442 505.5474 534.8662 503.5232 529.5253 505.0949 536.7254 501.3428 542.1248 503.1169 543.9678 505.0213 541.8562 505.0287 545.6106 501.7702 545.4781 500.8426 545.2341 499.5191 544.2412 498.2748 541.0795 497.8101 540.549 494.0663 539.2686 491.0134 538.8273 489.7469 538.0113 488.0557 534.3127 486.958 531.0856 486.4649 530.0182 485.6367 529.0275 484.9511 528.4426 482.2177 527.3927 481.5977 523.1655 480.9869 521.8727 480.3863 521.6613 479.7315 518.5455 479.5306 516.5062 479.6079 514.7987 479.8032 513.8293 480.0462 513.3621 480.3403 513.12 484.2074 512.4418 486.8282 513.5102 487.4013 513.6521 488.0024 513.4065 488.2982 512.9627 488.7502 511.3812 489.3861 509.5991 489.3928 509.0764 489.1033 507.9929 489.147 507.0533 489.796 505.056 490.2003 504.1868 490.5876 503.6352 490.9801 503.4242 491.3379 503.3028 492.7277 503.2476 493.1577 503.1434 493.5285 502.9265 496.5909 500.177 498.9647 499.7441 500.9595 497.4994 501.9892 496.5399 502.9222 495.9838 503.8654 495.6106 504.7756 495.4259 505.7262 495.3663 507.6428 495.4421 510.6761 495.2007 Z" id="VN.KH" fill="#cee3f5" stroke="#6e6e6e" stroke-width="0.4">
      <desc>
        <labelrank>7</labelrank>
        <code_hasc>VN.KH</code_hasc>
        <name>Khánh Hòa</name>
        <admin>Vietnam</admin>
        <type_en>Province</type_en>
        <region>Nam Trung Bộ</region>
        <woe_id>2347738</woe_id>
        <longitude>109</longitude>
        <woe_name>Khánh Hòa</woe_name>
        <fips>VM54</fips>
        <woe_label>Khanh Hoa, VN, Vietnam</woe_label>
        <latitude>12</latitude>
        <iso_a2>VN</iso_a2>
        <postal>KH</postal>
        <type>Tỉnh</type>
        <id>VN.KH</id>
      </desc>
    </path>
    <path d="M 482.2177 527.3927 478.6303 543.5939 480.8372 548.8597 477.4816 553.0113 477.9965 556.6002 477.5932 557.2571 477.0596 558.6551 476.6908 559.1906 476.1807 559.4008 473.0605 558.3765 465.0367 559.4071 464.3868 560.0259 464.0181 560.6049 463.8246 561.3587 463.8776 563.0356 464.9915 565.4813 464.3612 566.5768 462.3112 568.2008 460.923 568.9641 459.506 569.5215 457.5253 569.8506 456.3732 570.1936 455.4114 570.7785 454.7905 571.4963 453.6067 573.1897 452.3788 573.9246 451.959 573.8509 451.761 573.5712 451.7434 573.2677 451.8751 572.0356 451.7171 570.7407 450.7427 569.6518 449.728 569.322 437.8985 568.8047 436.5223 568.6018 434.8651 568.1965 431.0417 566.6608 427.1729 564.7687 423.9055 564.4238 423.9751 561.0206 421.138 559.9388 420.3956 557.4191 416.9506 557.1304 415.7969 552.9561 420.6869 548.3454 428.7153 546.6165 435.859 540.7569 438.3679 543.5479 443.6206 542.936 445.0526 546.1604 449.4143 547.0376 452.679 543.3733 453.2587 539.9721 448.2432 532.0501 448.775 530.422 454.2863 529.1269 460.0849 528.815 463.7618 525.1969 467.7801 525.0223 471.9368 521.9841 476.7871 523.2028 480.3863 521.6613 482.2177 527.3927 Z" id="VN.LD" fill="#cee3f5" stroke="#6e6e6e" stroke-width="0.4">
      <desc>
        <labelrank>7</labelrank>
        <code_hasc>VN.LD</code_hasc>
        <name>Lâm Đồng</name>
        <admin>Vietnam</admin>
        <type_en>Province</type_en>
        <region>Tây Nguyên</region>
        <woe_id>2347709</woe_id>
        <longitude>108</longitude>
        <woe_name>Lâm Đồng</woe_name>
        <fips>VM23</fips>
        <woe_label>Lam Dong, VN, Vietnam</woe_label>
        <latitude>11</latitude>
        <iso_a2>VN</iso_a2>
        <postal>LD</postal>
        <type>Tỉnh</type>
        <id>VN.LD</id>
      </desc>
    </path>
    <path d="M 477.9965 556.6002 477.4816 553.0113 480.8372 548.8597 478.6303 543.5939 482.2177 527.3927 484.9511 528.4426 485.6367 529.0275 486.4649 530.0182 486.958 531.0856 488.0557 534.3127 489.7469 538.0113 491.0134 538.8273 494.0663 539.2686 497.8101 540.549 498.9413 543.2288 499.5191 544.2412 500.1144 544.8015 500.8426 545.2341 501.7702 545.4781 505.0287 545.6106 506.8853 548.0888 502.0198 555.981 496.5865 553.1013 496.8645 565.6289 493.6007 568.3905 491.4613 567.7932 491.4601 567.7864 491.345 567.1067 491.1096 566.4421 490.5144 565.5369 489.6464 564.7647 485.1593 563.8889 484.709 561.4937 482.7694 560.6669 481.5826 557.322 480.1727 556.6286 477.9965 556.6002 Z" id="VN.NT" fill="#cee3f5" stroke="#6e6e6e" stroke-width="0.4">
      <desc>
        <labelrank>7</labelrank>
        <code_hasc>VN.NT</code_hasc>
        <name>Ninh Thuận</name>
        <admin>Vietnam</admin>
        <type_en>Province</type_en>
        <region>Đông Nam Bộ</region>
        <woe_id>2347744</woe_id>
        <longitude>108</longitude>
        <woe_name>Ninh Thuận</woe_name>
        <fips>VM60</fips>
        <woe_label>Ninh Thuan, VN, Vietnam</woe_label>
        <latitude>11</latitude>
        <iso_a2>VN</iso_a2>
        <postal>NT</postal>
        <type>Tỉnh</type>
        <id>VN.NT</id>
      </desc>
    </path>
    <path d="M 496.5909 500.177 483.6404 495.0931 478.9699 488.9316 480.1678 485.3682 488.7264 478.6239 486.1961 462.3038 493.2419 462.8982 505.0999 455.3233 507.8801 463.228 503.9104 458.5475 510.0383 466.2566 508.5922 469.0563 506.9909 467.9376 508.2271 466.4828 505.6477 465.4023 505.1241 469.7627 508.6368 471.6104 508.0718 474.2309 506.4406 474.2589 508.1223 477.1638 509.1865 474.6213 508.816 481.9961 516.3017 492.2563 516.2457 494.678 514.7761 495.5077 515.0885 493.9187 513.5096 495.8565 512.6394 496.071 512.057 495.6268 511.535 495.3804 510.6761 495.2007 507.6428 495.4421 505.7262 495.3663 503.8654 495.6106 501.9892 496.5399 498.9647 499.7441 498.2868 500.0833 496.5909 500.177 Z" id="VN.PY" fill="#cee3f5" stroke="#6e6e6e" stroke-width="0.4">
      <desc>
        <labelrank>7</labelrank>
        <code_hasc>VN.PY</code_hasc>
        <name>Phú Yên</name>
        <admin>Vietnam</admin>
        <type_en>Province</type_en>
        <region>Nam Trung Bộ</region>
        <woe_id>2347745</woe_id>
        <longitude>109</longitude>
        <woe_name>Phú Yên</woe_name>
        <fips>VM61</fips>
        <woe_label>Phu Yen, VN, Vietnam</woe_label>
        <latitude>13</latitude>
        <iso_a2>VN</iso_a2>
        <postal>PY</postal>
        <type>Tỉnh</type>
        <id>VN.PY</id>
      </desc>
    </path>
    <path d="M 401.0528 570.5786 399.5131 574.6068 401.5608 578.1787 400.6522 580.9402 398.2128 582.7498 394.7203 581.3775 392.7113 582.7873 392.8877 584.9188 394.9912 587.8929 395.173 589.2858 393.4657 588.978 390.4507 589.9351 389.8531 589.9019 389.4108 589.6412 385.0305 583.5694 384.888 582.5905 383.3625 582.2831 380.4996 577.919 380.0941 577.6725 378.8138 577.668 376.1792 578.2402 372.5504 571.9548 372.1131 567.8766 377.6946 557.9976 384.9213 563.71 385.8453 568.9736 388.5301 567.0159 389.5695 569.5529 392.9623 568.1933 401.0528 570.5786 Z" id="VN.BI" fill="#cee3f5" stroke="#6e6e6e" stroke-width="0.4">
      <desc>
        <labelrank>7</labelrank>
        <code_hasc>VN.BI</code_hasc>
        <name>Bình Dương</name>
        <admin>Vietnam</admin>
        <type_en>Province</type_en>
        <region>Đông Nam Bộ</region>
        <woe_id>20070078</woe_id>
        <longitude>106</longitude>
        <woe_name>Bình Dương</woe_name>
        <fips>VM75</fips>
        <woe_label>Bin Duong, VN, Vietnam</woe_label>
        <latitude>11</latitude>
        <iso_a2>VN</iso_a2>
        <postal>BI</postal>
        <type>Tỉnh</type>
        <id>VN.BI</id>
      </desc>
    </path>
    <path d="M 390.7919 620.3721 380.1949 617.2789 391.1823 618.7658 390.7919 620.3721 Z M 376.0181 616.3042 372.8373 615.2801 361.3063 617.3388 356.4584 616.1846 354.1979 617.7261 349.2529 617.131 348.7941 615.1188 353.8741 608.6669 354.5409 606.7488 354.5218 605.2348 356.3686 605.3313 358.6359 605.6893 359.9231 605.6666 360.8794 605.444 361.3627 605.0732 362.1976 603.9654 363.0588 603.4859 364.0202 603.3727 368.9001 603.629 369.7083 603.7865 370.3123 604.1019 370.9171 604.6147 372.877 607.3682 376.8367 609.0014 377.3913 611.6109 383.5764 611.6726 384.6402 611.1799 384.9919 610.6226 386.2089 609.5607 386.5584 608.8451 388.4755 610.7692 390.068 608.8263 393.075 612.6263 392.5208 618.1828 376.0181 616.3042 Z" id="VN.TG" fill="#cee3f5" stroke="#6e6e6e" stroke-width="0.4">
      <desc>
        <labelrank>7</labelrank>
        <code_hasc>VN.TG</code_hasc>
        <name>Tiền Giang</name>
        <admin>Vietnam</admin>
        <type_en>Province</type_en>
        <region>đồng bằng sông Cửu Long</region>
        <woe_id>2347717</woe_id>
        <longitude>106</longitude>
        <woe_name>Tien Giang</woe_name>
        <fips>VM03</fips>
        <woe_label>Tien Giang, VN, Vietnam</woe_label>
        <latitude>10</latitude>
        <iso_a2>VN</iso_a2>
        <postal>TG</postal>
        <type>Tỉnh</type>
        <id>VN.TG</id>
      </desc>
    </path>
    <path d="M 454.2863 529.1269 448.775 530.422 448.2432 532.0501 453.2587 539.9721 452.679 543.3733 449.4143 547.0376 445.0526 546.1604 443.6206 542.936 438.3679 543.5479 435.859 540.7569 428.7153 546.6165 420.6869 548.3454 419.1912 540.5047 414.432 535.7366 412.9145 522.045 417.1919 521.1298 421.6609 524.6357 426.1895 520.3586 428.5273 509.4796 427.2164 502.7544 441.2116 502.4186 444.4563 511.015 448.9216 513.3738 445.6814 516.3297 445.9903 519.6858 452.3229 523.8447 454.7755 526.8114 454.2863 529.1269 Z" id="VN.6365" fill="#cee3f5" stroke="#6e6e6e" stroke-width="0.4">
      <desc>
        <labelrank>7</labelrank>
        <code_hasc>VN.</code_hasc>
        <name>Đắk Nông</name>
        <admin>Vietnam</admin>
        <type_en>Region</type_en>
        <region>Tây Nguyên</region>
        <woe_id>28301719</woe_id>
        <longitude>107</longitude>
        <woe_name>Dac Nong</woe_name>
        <fips>VM91</fips>
        <woe_label>Dac Nong, VN, Vietnam</woe_label>
        <latitude>12</latitude>
        <iso_a2>VN</iso_a2>
        <postal/>
        <type>Province</type>
        <id>VN.6365</id>
      </desc>
    </path>
    <path d="M 420.6869 548.3454 415.7969 552.9561 416.9506 557.1304 408.1709 560.8916 405.3238 566.5711 401.0528 570.5786 392.9623 568.1933 389.5695 569.5529 388.5301 567.0159 385.8453 568.9736 384.9213 563.71 377.6946 557.9976 378.7398 556.1414 376.2817 552.1056 374.5512 548.1675 376.4305 543.3672 374.3269 538.3751 388.6073 538.2488 391.8466 533.7462 400.2637 532.9699 409.4335 523.6568 412.9145 522.045 414.432 535.7366 419.1912 540.5047 420.6869 548.3454 Z" id="VN.BP" fill="#cee3f5" stroke="#6e6e6e" stroke-width="0.4">
      <desc>
        <labelrank>7</labelrank>
        <code_hasc>VN.BP</code_hasc>
        <name>Bình Phước</name>
        <admin>Vietnam</admin>
        <type_en>Province</type_en>
        <region>Đông Nam Bộ</region>
        <woe_id>20070086</woe_id>
        <longitude>106</longitude>
        <woe_name>Bình Phước</woe_name>
        <fips>VM76</fips>
        <woe_label>Bin Phuoc, VN, Vietnam</woe_label>
        <latitude>11</latitude>
        <iso_a2>VN</iso_a2>
        <postal>BP</postal>
        <type>Tỉnh</type>
        <id>VN.BP</id>
      </desc>
    </path>
    <path d="M 496.9141 409.4287 497.4867 413.3512 496.2574 414.5812 504.8237 434.7887 501.7411 433.7302 504.2216 436.1712 506.2664 444.7993 508.198 446.8615 508.1396 452.3996 506.5635 452.6009 505.0384 446.7565 505.0999 455.3233 493.2419 462.8982 486.1961 462.3038 485.2221 453.3746 476.9827 434.3356 479.1329 419.9062 478.0951 413.3659 484.8089 409.5983 496.9141 409.4287 Z" id="VN.BD" fill="#cee3f5" stroke="#6e6e6e" stroke-width="0.4">
      <desc>
        <labelrank>7</labelrank>
        <code_hasc>VN.BD</code_hasc>
        <name>Bình Định</name>
        <admin>Vietnam</admin>
        <type_en>Province</type_en>
        <region>Nam Trung Bộ</region>
        <woe_id>2347730</woe_id>
        <longitude>108</longitude>
        <woe_name>Bình Định</woe_name>
        <fips>VM46</fips>
        <woe_label>Binh Dinh, VN, Vietnam</woe_label>
        <latitude>14</latitude>
        <iso_a2>VN</iso_a2>
        <postal>BD</postal>
        <type>Tỉnh</type>
        <id>VN.BD</id>
      </desc>
    </path>
    <path d="M 460.749 392.2754 467.5571 400.2306 473.0286 403.2867 475.8199 411.2929 466.5543 412.196 466.3815 417.3185 463.0075 421.4041 454.6449 426.276 434.7863 433.346 428.045 441.6539 422.2983 445.941 421.2721 442.5339 418.0467 442.1726 416.397 436.6474 417.757 426.1516 419.3345 422.3628 422.8999 421.0447 425.8929 410.2087 423.9182 404.2698 426.9628 400.3427 422.5101 397.0844 421.7228 393.8567 427.7855 392.756 429.9598 385.6844 431.3093 385.2351 431.607 382.264 428.0135 378.7765 427.5113 375.9646 430.8735 376.1184 434.2162 380.5204 440.712 384.3465 447.3291 385.5581 450.3062 388.3193 450.3253 392.2356 453.557 396.7084 455.9011 395.2241 456.4415 391.5933 460.749 392.2754 Z" id="VN.299" fill="#cee3f5" stroke="#6e6e6e" stroke-width="0.4">
      <desc>
        <labelrank>7</labelrank>
        <code_hasc>VN.</code_hasc>
        <name>Kon Tum</name>
        <admin>Vietnam</admin>
        <type_en>Province</type_en>
        <region>Nam Trung Bộ</region>
        <woe_id>20070076</woe_id>
        <longitude>107</longitude>
        <woe_name>Kon Tum</woe_name>
        <fips>VM55</fips>
        <woe_label>Kon Tum, VN, Vietnam</woe_label>
        <latitude>14</latitude>
        <iso_a2>VN</iso_a2>
        <postal/>
        <type>Tỉnh</type>
        <id>VN.299</id>
      </desc>
    </path>
    <path d="M 439.8894 343.4859 446.4898 343.2825 447.2362 347.3909 449.0539 348.5284 459.4127 347.806 464.3193 352.0573 463.7462 353.4333 465.3259 352.8695 467.5056 359.1561 475.1524 369.3177 478.1284 369.809 475.6808 372.7829 476.7756 373.5641 478.777 371.0899 481.8072 375.4733 463.3841 380.0639 459.8284 385.2696 462.0638 389.971 460.749 392.2754 456.4415 391.5933 455.9011 395.2241 453.557 396.7084 450.3253 392.2356 450.3062 388.3193 447.3291 385.5581 440.712 384.3465 434.2162 380.5204 430.8735 376.1184 427.5113 375.9646 423.7282 375.2072 423.399 372.3146 421.573 371.0746 417.9852 371.6845 411.9527 364.7149 411.3028 361.3381 407.7611 358.702 409.4308 354.6294 418.0447 351.7186 421.1542 347.3923 420.6065 345.252 428.0833 345.1261 431.0361 343.426 434.1712 347.0373 437.4411 343.678 439.8894 343.4859 Z" id="VN.300" fill="#cee3f5" stroke="#6e6e6e" stroke-width="0.4">
      <desc>
        <labelrank>7</labelrank>
        <code_hasc>VN.</code_hasc>
        <name>Quàng Nam</name>
        <admin>Vietnam</admin>
        <type_en/>
        <region/>
        <woe_id>2347711</woe_id>
        <longitude>107</longitude>
        <woe_name>Quàng Nam</woe_name>
        <fips/>
        <woe_label>Quang Nam, VN, Vietnam</woe_label>
        <latitude>15</latitude>
        <iso_a2>VN</iso_a2>
        <postal>DA</postal>
        <type/>
        <id>VN.300</id>
      </desc>
    </path>
    <path d="M 496.9141 409.4287 484.8089 409.5983 478.0951 413.3659 475.8199 411.2929 473.0286 403.2867 467.5571 400.2306 460.749 392.2754 462.0638 389.971 459.8284 385.2696 463.3841 380.0639 481.8072 375.4733 482.7016 378.8228 484.5874 377.8204 483.0641 376.5089 483.5481 373.9082 484.8012 373.886 487.6303 380.5855 490.6472 382.2312 488.4529 383.5632 489.4341 384.5418 488.2534 386.8227 486.6375 386.9225 488.2821 388.4357 488.8235 387.1607 492.5536 401.7472 497.0263 406.7311 496.9141 409.4287 Z" id="VN.QG" fill="#cee3f5" stroke="#6e6e6e" stroke-width="0.4">
      <desc>
        <labelrank>7</labelrank>
        <code_hasc>VN.QG</code_hasc>
        <name>Quảng Ngãi</name>
        <admin>Vietnam</admin>
        <type_en>Province</type_en>
        <region>Nam Trung Bộ</region>
        <woe_id>20070077</woe_id>
        <longitude>108</longitude>
        <woe_name>Quảng Ngãi</woe_name>
        <fips>VM63</fips>
        <woe_label>Quang Ngai, VN, Vietnam</woe_label>
        <latitude>14</latitude>
        <iso_a2>VN</iso_a2>
        <postal>QG</postal>
        <type>Tỉnh</type>
        <id>VN.QG</id>
      </desc>
    </path>
    <path d="M 419.2292 312.4848 414.6391 318.6967 405.8168 321.4012 408.25 326.1065 403.8356 331.2019 403.8256 334.3285 399.2335 333.9456 394.1074 328.5782 393.6388 323.1378 388.9371 328.2999 385.6623 327.2474 384.2196 320.5497 379.6655 317.1654 379.2358 303.4165 392.0906 301.9801 395.9225 296.2011 400.6558 293.2398 405.4253 296.6776 405.8895 299.964 409.5444 304.2791 406.8981 307.0698 410.2713 305.1352 419.2292 312.4848 Z" id="VN.QT" fill="#cee3f5" stroke="#6e6e6e" stroke-width="0.4">
      <desc>
        <labelrank>7</labelrank>
        <code_hasc>VN.QT</code_hasc>
        <name>Quảng Trị</name>
        <admin>Vietnam</admin>
        <type_en>Province</type_en>
        <region>Bắc Trung Bộ</region>
        <woe_id>2347747</woe_id>
        <longitude>106</longitude>
        <woe_name>Quảng Trị</woe_name>
        <fips>VM64</fips>
        <woe_label>Quang Tri, VN, Vietnam</woe_label>
        <latitude>16</latitude>
        <iso_a2>VN</iso_a2>
        <postal>QT</postal>
        <type>Tỉnh</type>
        <id>VN.QT</id>
      </desc>
    </path>
    <path d="M 455.4963 337.4033 444.2226 337.3684 439.8894 343.4859 437.4411 343.678 434.1712 347.0373 431.0361 343.426 428.0833 345.1261 420.6065 345.252 414.4719 344.9102 407.2558 339.664 403.8256 334.3285 403.8356 331.2019 408.25 326.1065 405.8168 321.4012 414.6391 318.6967 419.2292 312.4848 429.5041 320.3909 420.7304 317.2809 429.5168 321.3589 428.303 322.049 430.7885 321.6937 430.8226 324.2712 432.3573 323.1712 439.0097 329.7043 436.8813 329.7607 438.28 333.2534 441.6 334.471 443.4472 332.8383 443.0742 330.9012 446.8373 332.4603 448.2317 331.1482 450.6588 336.3002 448.7031 335.1208 448.8105 336.3529 455.4963 337.4033 Z" id="VN.TT" fill="#cee3f5" stroke="#6e6e6e" stroke-width="0.4">
      <desc>
        <labelrank>7</labelrank>
        <code_hasc>VN.TT</code_hasc>
        <name>Thừa Thiên - Huế</name>
        <admin>Vietnam</admin>
        <type_en>Province</type_en>
        <region>Bắc Trung Bộ</region>
        <woe_id>2347749</woe_id>
        <longitude>107</longitude>
        <woe_name>Thừa Thiên - Huế</woe_name>
        <fips>VM66</fips>
        <woe_label>Thura Thien-Hue, VN, Vietnam</woe_label>
        <latitude>16</latitude>
        <iso_a2>VN</iso_a2>
        <postal>TT</postal>
        <type>Tỉnh</type>
        <id>VN.TT</id>
      </desc>
    </path>
    <path d="M 455.4963 337.4033 452.9016 340.4286 455.4793 343.9962 456.8707 343.1366 457.1362 345.6194 455.5291 347.2203 458.3303 346.8538 456.687 341.3675 457.5972 339.7118 462.3204 340.9259 460.7866 342.594 458.5703 342.2757 459.4127 347.806 449.0539 348.5284 447.2362 347.3909 446.4898 343.2825 439.8894 343.4859 444.2226 337.3684 455.4963 337.4033 Z" id="VN.DA" fill="#cee3f5" stroke="#6e6e6e" stroke-width="0.4">
      <desc>
        <labelrank>7</labelrank>
        <code_hasc>VN.DA</code_hasc>
        <name>Đà Nẵng</name>
        <admin>Vietnam</admin>
        <type_en>City|Municipality|Thanh Pho</type_en>
        <region>Nam Trung Bộ</region>
        <woe_id>20070085</woe_id>
        <longitude>108</longitude>
        <woe_name>Đà Nẵng</woe_name>
        <fips>VM78</fips>
        <woe_label>Da Nang, VN, Vietnam</woe_label>
        <latitude>16</latitude>
        <iso_a2>VN</iso_a2>
        <postal>DA</postal>
        <type>Thành phố trực thuộc tỉnh</type>
        <id>VN.DA</id>
      </desc>
    </path>
    <path d="M 412.4166 610.3858 407.0605 615.8402 406.6748 612.6433 409.9499 611.4162 410.9793 609.1443 412.4166 610.3858 Z M 404.123 605.8466 402.82 605.2102 402.7971 601.6368 404.0755 602.6188 404.123 605.8466 Z M 426.9542 595.2728 430.2901 603.8585 426.8103 607.2777 418.5518 609.6104 415.6742 613.1729 411.846 611.9406 413.0865 610.55 411.1575 608.5365 405.7352 608.4118 405.7267 607.1221 404.4342 608.7407 404.1334 607.4549 403.8779 606.9595 404.5217 605.8249 404.3934 602.4479 403.4272 601.0205 404.0937 601.3386 404.0773 601.1395 409.109 599.2217 409.5779 598.6992 409.6892 597.0226 409.9114 596.7419 414.0938 594.7436 414.7214 594.5306 415.2852 594.4971 415.962 594.7554 416.327 595.2171 416.4976 595.7802 416.3696 597.0476 416.4824 597.6355 416.8794 598.1664 417.4685 598.5875 418.1211 598.802 418.8585 598.7489 419.596 598.3849 424.1984 593.1508 425.3565 593.2877 426.9542 595.2728 Z" id="VN.BV" fill="#cee3f5" stroke="#6e6e6e" stroke-width="0.4">
      <desc>
        <labelrank>7</labelrank>
        <code_hasc>VN.BV</code_hasc>
        <name>Bà Rịa - Vũng Tàu</name>
        <admin>Vietnam</admin>
        <type_en>Province</type_en>
        <region>Đông Nam Bộ</region>
        <woe_id>2347729</woe_id>
        <longitude>107</longitude>
        <woe_name>Bà Rịa - Vũng Tàu</woe_name>
        <fips>VM45</fips>
        <woe_label>Ba Ria-Vung Tau, VN, Vietnam</woe_label>
        <latitude>10</latitude>
        <iso_a2>VN</iso_a2>
        <postal>BV</postal>
        <type>Tỉnh</type>
        <id>VN.BV</id>
      </desc>
    </path>
    <path d="M 494.7676 605.8211 493.5619 606.4708 493.0356 604.5587 494.7676 605.8211 Z M 430.2901 603.8585 426.9542 595.2728 429.1011 593.0959 429.7726 592.1051 430.3784 590.7711 430.4385 589.3429 430.243 587.8985 429.7761 586.559 429.3271 585.6179 428.1868 584.1231 422.8528 581.9998 424.2685 579.305 424.4459 578.0441 425.8471 575.1626 426.5322 573.3451 427.5742 571.6293 428.2181 570.1082 429.2058 568.3061 430.1337 567.1116 430.4732 566.8598 430.6886 566.7372 431.0417 566.6608 434.8651 568.1965 437.8985 568.8047 449.728 569.322 450.7427 569.6518 451.7171 570.7407 451.8751 572.0356 451.7434 573.2677 451.761 573.5712 451.959 573.8509 452.3788 573.9246 453.6067 573.1897 454.7905 571.4963 455.4114 570.7785 456.3732 570.1936 457.5253 569.8506 459.506 569.5215 460.923 568.9641 462.3112 568.2008 464.3612 566.5768 464.9915 565.4813 463.8776 563.0356 463.8246 561.3587 464.0181 560.6049 464.3868 560.0259 465.0367 559.4071 473.0605 558.3765 476.1807 559.4008 476.6908 559.1906 477.0596 558.6551 477.5932 557.2571 477.9965 556.6002 480.1727 556.6286 481.5826 557.322 481.96 557.8395 482.7694 560.6669 484.709 561.4937 485.1593 563.8889 489.6464 564.7647 490.5144 565.5369 491.1096 566.4421 491.345 567.1067 491.4613 567.7932 490.6965 567.4606 489.9585 567.3166 488.2912 567.4867 485.3846 569.522 483.3127 574.6001 474.092 576.0492 471.3999 580.8083 466.5879 582.2987 463.4374 587.5251 461.4848 585.7058 454.4023 587.3692 449.4586 597.7467 444.0379 596.9668 430.2901 603.8585 Z" id="VN.BU" fill="#cee3f5" stroke="#6e6e6e" stroke-width="0.4">
      <desc>
        <labelrank>7</labelrank>
        <code_hasc>VN.BU</code_hasc>
        <name>Bình Thuận</name>
        <admin>Vietnam</admin>
        <type_en>Province</type_en>
        <region>Đông Nam Bộ</region>
        <woe_id>2347731</woe_id>
        <longitude>108</longitude>
        <woe_name>Bình Thuận</woe_name>
        <fips>VM47</fips>
        <woe_label>Binh Thuan, VN, Vietnam</woe_label>
        <latitude>11</latitude>
        <iso_a2>VN</iso_a2>
        <postal>BU</postal>
        <type>Tỉnh</type>
        <id>VN.BU</id>
      </desc>
    </path>
    <path d="M 431.0417 566.6608 430.6886 566.7372 430.4732 566.8598 430.1337 567.1116 429.6858 567.6142 429.2058 568.3061 428.2181 570.1082 427.5742 571.6293 426.5322 573.3451 424.9551 576.744 422.8528 581.9998 428.1868 584.1231 429.3271 585.6179 429.7761 586.559 430.243 587.8985 430.4385 589.3429 430.3784 590.7711 429.7726 592.1051 429.1011 593.0959 426.9542 595.2728 424.1984 593.1508 419.596 598.3849 418.8585 598.7489 418.1211 598.802 417.4685 598.5875 416.8794 598.1664 416.4824 597.6355 416.3696 597.0476 416.372 596.3955 416.4976 595.7802 415.962 594.7554 414.7214 594.5306 409.9114 596.7419 409.5779 598.6992 409.109 599.2217 404.7863 601.0631 404.3958 601.0876 404.0923 601.1371 404.0773 601.1395 402.1367 598.1289 403.4219 600.201 402.5009 601.6387 402.2018 602.9648 402.1766 604.3775 401.5809 603.5638 401.2313 602.5678 397.8706 599.5373 395.2594 599.9889 391.5419 597.909 391.0764 594.8787 391.2491 594.7461 393.245 595.6717 394.8785 594.8017 395.7845 594.778 397.0188 595.2604 397.1562 595.2632 397.25 595.2297 397.3148 595.1818 397.3361 595.1195 397.2676 594.5642 397.5025 593.9693 397.2782 592.7667 395.173 589.2858 394.9912 587.8929 392.8877 584.9188 392.7113 582.7873 394.7203 581.3775 398.2128 582.7498 400.6522 580.9402 401.5608 578.1787 399.5131 574.6068 401.0528 570.5786 405.3238 566.5711 408.1709 560.8916 416.9506 557.1304 420.3956 557.4191 421.138 559.9388 423.9751 561.0206 423.9055 564.4238 427.1729 564.7687 431.0417 566.6608 Z" id="VN.331" fill="#cee3f5" stroke="#6e6e6e" stroke-width="0.4">
      <desc>
        <labelrank>7</labelrank>
        <code_hasc>VN.</code_hasc>
        <name>Đông Nam Bộ</name>
        <admin>Vietnam</admin>
        <type_en>Region</type_en>
        <region/>
        <woe_id>2347721</woe_id>
        <longitude>107</longitude>
        <woe_name>Đông Nam Bộ</woe_name>
        <fips>VM43</fips>
        <woe_label>Dong Nai, VN, Vietnam</woe_label>
        <latitude>11</latitude>
        <iso_a2>VN</iso_a2>
        <postal/>
        <type>Region</type>
        <id>VN.331</id>
      </desc>
    </path>
    <path d="M 319.364 589.3594 323.3146 598.0335 326.8369 598.2599 327.679 603.1344 333.6394 606.3998 336.8214 610.3198 331.7217 618.3973 327.2465 620.3934 324.5711 618.3306 322.0228 620.3255 320.8949 621.9791 304.3786 613.3632 296.7654 606.8126 299.0703 607.0977 301.1676 607.0114 302.8288 606.346 306.419 601.6631 312.7314 597.7389 310.3101 591.3632 311.6122 587.7262 313.249 586.7576 314.1642 588.292 319.364 589.3594 Z" id="VN.AG" fill="#cee3f5" stroke="#6e6e6e" stroke-width="0.4">
      <desc>
        <labelrank>7</labelrank>
        <code_hasc>VN.AG</code_hasc>
        <name>An Giang</name>
        <admin>Vietnam</admin>
        <type_en>Province</type_en>
        <region>đồng bằng sông Cửu Long</region>
        <woe_id>2347719</woe_id>
        <longitude>105</longitude>
        <woe_name>An Giang</woe_name>
        <fips>VM01</fips>
        <woe_label>An Giang, VN, Vietnam</woe_label>
        <latitude>10</latitude>
        <iso_a2>VN</iso_a2>
        <postal>AG</postal>
        <type>Tỉnh</type>
        <id>VN.AG</id>
      </desc>
    </path>
    <path d="M 349.2529 617.131 352.326 621.2469 351.696 623.7871 347.8702 624.5975 343.5936 622.604 341.9516 625.5515 334.1179 627.6539 329.3711 629.3229 324.7584 624.6966 322.3654 623.1593 320.8949 621.9791 322.0228 620.3255 324.5711 618.3306 327.2465 620.3934 331.7217 618.3973 336.8214 610.3198 342.8277 612.3903 349.2529 617.131 Z" id="VN.333" fill="#cee3f5" stroke="#6e6e6e" stroke-width="0.4">
      <desc>
        <labelrank>7</labelrank>
        <code_hasc>VN.</code_hasc>
        <name>Can Tho</name>
        <admin>Vietnam</admin>
        <type_en>Province</type_en>
        <region/>
        <woe_id>2347732</woe_id>
        <longitude>105</longitude>
        <woe_name>Can Tho</woe_name>
        <fips/>
        <woe_label>Can Tho, VN, Vietnam</woe_label>
        <latitude>10</latitude>
        <iso_a2>VN</iso_a2>
        <postal/>
        <type>Tỉnh</type>
        <id>VN.333</id>
      </desc>
    </path>
    <path d="M 334.01 586.53 350.0069 602.6803 354.5218 605.2348 353.8741 608.6669 348.945 614.7237 348.7941 615.1188 349.2529 617.131 342.8277 612.3903 336.8214 610.3198 333.6394 606.3998 327.679 603.1344 326.8369 598.2599 323.3146 598.0335 319.364 589.3594 324.4331 591.8439 328.7405 585.9863 334.01 586.53 Z" id="VN.DT" fill="#cee3f5" stroke="#6e6e6e" stroke-width="0.4">
      <desc>
        <labelrank>7</labelrank>
        <code_hasc>VN.DT</code_hasc>
        <name>Ð?ng Tháp</name>
        <admin>Vietnam</admin>
        <type_en>Province</type_en>
        <region>đồng bằng sông Cửu Long</region>
        <woe_id>2347722</woe_id>
        <longitude>105</longitude>
        <woe_name>Ð?ng Tháp</woe_name>
        <fips>VM09</fips>
        <woe_label>Dong Thap, VN, Vietnam</woe_label>
        <latitude>10</latitude>
        <iso_a2>VN</iso_a2>
        <postal>DT</postal>
        <type>Tỉnh</type>
        <id>VN.DT</id>
      </desc>
    </path>
    <path d="M 403.8779 606.9595 404.1334 607.4549 402.5442 608.4323 403.8779 606.9595 Z M 400.5118 607.211 399.3198 611.0584 401.9055 612.0059 397.7432 613.6433 397.3109 608.0307 400.5118 607.211 Z M 399.2752 603.7662 399.286 605.524 398.0269 603.9504 398.4071 606.5234 397.1272 605.9075 396.0749 601.3887 397.6685 601.2179 399.2752 603.7662 Z M 396.59 608.1809 397.0799 609.4311 394.5255 609.1525 396.4041 610.7842 395.4996 612.0445 392.2432 609.2748 391.5074 607.4253 391.6679 605.5688 391.3426 604.4576 392.5817 603.9824 392.9167 602.8061 391.3162 599.7756 395.8026 602.202 396.9506 606.8469 395.475 607.8305 396.59 608.1809 Z M 383.3625 582.2831 384.888 582.5905 389.4108 589.6412 390.4507 589.9351 393.4657 588.978 395.173 589.2858 395.9697 590.357 397.2782 592.7667 397.5025 593.9693 397.2676 594.5642 397.3361 595.1195 397.3148 595.1818 397.25 595.2297 397.1562 595.2632 397.0188 595.2604 395.7845 594.778 394.8785 594.8017 393.245 595.6717 391.2491 594.7461 391.0764 594.8787 391.2675 595.4369 391.5419 597.909 395.2594 599.9889 397.8706 599.5373 401.2313 602.5678 401.5809 603.5638 402.1766 604.3775 402.5492 605.6379 403.4625 606.4919 401.2492 609.1121 400.2527 602.7967 397.3673 600.3849 394.902 601.4321 392.2673 598.8031 390.8257 599.6172 392.2896 602.6984 391.34 603.9894 390.9781 605.1349 390.9433 602.0322 390.6407 601.3832 390.0518 600.826 388.7762 600.3212 386.348 601.0666 379.3115 596.5321 380.7747 592.2959 380.0573 589.4716 373.1392 584.9528 376.1792 578.2402 378.8138 577.668 380.0941 577.6725 380.4996 577.919 380.9135 578.3847 383.3625 582.2831 Z" id="VN.HC" fill="#cee3f5" stroke="#6e6e6e" stroke-width="0.4">
      <desc>
        <labelrank>7</labelrank>
        <code_hasc>VN.HC</code_hasc>
        <name>Hồ Chí Minh city</name>
        <admin>Vietnam</admin>
        <type_en>City|Municipality|Thanh Pho</type_en>
        <region>Đông Nam Bộ</region>
        <woe_id>2347728</woe_id>
        <longitude>106</longitude>
        <woe_name>Hồ Chí Minh city</woe_name>
        <fips>VM20</fips>
        <woe_label>Ho Chi Minh, VN, Vietnam</woe_label>
        <latitude>10</latitude>
        <iso_a2>VN</iso_a2>
        <postal>HC</postal>
        <type>Thành phố trực thuộc tỉnh</type>
        <id>VN.HC</id>
      </desc>
    </path>
    <path d="M 263.1817 610.0608 266.9356 614.6471 264.4719 626.7996 265.2924 630.953 263.3943 629.8867 260.9229 620.2934 256.2861 616.1724 255.7628 613.7936 259.8569 614.04 263.1817 610.0608 Z M 296.7654 606.8126 304.3786 613.3632 320.8949 621.9791 322.3654 623.1593 324.7584 624.6966 326.0001 625.778 329.3711 629.3229 331.5308 631.5928 333.8689 633.6269 334.1885 634.1611 334.3214 635.715 334.2146 636.944 333.8976 638.0809 333.1794 639.1866 327.7884 644.2372 326.811 645.4342 326.5292 646.3017 328.0105 648.2267 327.97 650.8562 324.7903 650.1057 323.9562 649.9871 323.4681 650.225 323.3042 650.8316 324.0027 653.3033 324.134 654.2215 323.685 655.0366 322.8155 656.31 322.6467 656.8631 322.7213 659.3938 310.7385 653.6275 303.9052 654.6691 301.8596 653.3345 304.6086 638.4099 308.2168 638.2895 313.2029 634.0582 314.9156 638.1276 314.6251 633.6206 309.7725 627.0505 304.9983 626.8043 298.9739 620.7059 295.9568 620.9068 293.3158 624.5733 291.5485 624.5713 290.4266 619.0825 288.0231 618.0742 286.2403 613.9055 287.4515 611.6057 284.1217 613.4666 284.0186 611.5886 286.0223 611.2114 289.4143 606.4871 296.7654 606.8126 Z" id="VN.KG" fill="#cee3f5" stroke="#6e6e6e" stroke-width="0.4">
      <desc>
        <labelrank>7</labelrank>
        <code_hasc>VN.KG</code_hasc>
        <name>Kiên Giang</name>
        <admin>Vietnam</admin>
        <type_en>Province</type_en>
        <region>đồng bằng sông Cửu Long</region>
        <woe_id>2347723</woe_id>
        <longitude>105</longitude>
        <woe_name>Kiên Giang</woe_name>
        <fips>VM21</fips>
        <woe_label>Kien Giang, VN, Vietnam</woe_label>
        <latitude>9</latitude>
        <iso_a2>VN</iso_a2>
        <postal>KG</postal>
        <type>Tỉnh</type>
        <id>VN.KG</id>
      </desc>
    </path>
    <path d="M 373.1392 584.9528 380.0573 589.4716 380.7747 592.2959 379.3953 595.9213 379.3115 596.5321 379.7626 597.1306 386.348 601.0666 388.7762 600.3212 390.0518 600.826 390.6407 601.3832 390.9433 602.0322 390.9781 605.1349 390.4884 606.5425 386.8656 606.5889 387.4763 607.8751 384.0144 610.4988 383.3344 608.217 383.6651 610.5274 384.164 610.7916 384.9919 610.6226 384.6402 611.1799 383.5764 611.6726 378.0431 611.7248 377.3913 611.6109 376.9629 611.29 376.8367 609.0014 372.877 607.3682 370.9171 604.6147 369.7083 603.7865 364.0202 603.3727 363.0588 603.4859 362.1976 603.9654 361.3627 605.0732 360.8794 605.444 359.9231 605.6666 358.6359 605.6893 356.3686 605.3313 354.5218 605.2348 350.0069 602.6803 334.01 586.53 344.6839 583.4755 350.5678 592.3005 353.0121 589.0738 357.0573 592.6701 364.4974 595.1395 361.8826 587.683 362.3226 585.6043 364.1372 585.535 369.4695 584.8045 370.2945 582.965 373.1392 584.9528 Z" id="VN.LA" fill="#cee3f5" stroke="#6e6e6e" stroke-width="0.4">
      <desc>
        <labelrank>7</labelrank>
        <code_hasc>VN.LA</code_hasc>
        <name>Long An</name>
        <admin>Vietnam</admin>
        <type_en>Province</type_en>
        <region>đồng bằng sông Cửu Long</region>
        <woe_id>2347710</woe_id>
        <longitude>106</longitude>
        <woe_name>Long An</woe_name>
        <fips>VM24</fips>
        <woe_label>Long An, VN, Vietnam</woe_label>
        <latitude>10</latitude>
        <iso_a2>VN</iso_a2>
        <postal>LA</postal>
        <type>Tỉnh</type>
        <id>VN.LA</id>
      </desc>
    </path>
    <path d="M 376.0181 616.3042 393.5819 623.7494 390.7789 628.6251 389.2399 628.8807 388.8815 627.2439 388.3131 630.6239 384.7387 632.3954 378.2467 628.458 373.1192 620.856 369.9417 618.9352 377.9132 629.5569 388.9116 636.0663 386.1959 639.407 383.8065 639.5623 374.8108 632.4635 362.6844 620.2422 359.7176 619.0242 355.5833 617.9266 354.1979 617.7261 356.4584 616.1846 361.3063 617.3388 372.8373 615.2801 376.0181 616.3042 Z" id="VN.BR" fill="#cee3f5" stroke="#6e6e6e" stroke-width="0.4">
      <desc>
        <labelrank>7</labelrank>
        <code_hasc>VN.BR</code_hasc>
        <name>Bến Tre</name>
        <admin>Vietnam</admin>
        <type_en>Province</type_en>
        <region>đồng bằng sông Cửu Long</region>
        <woe_id>2347703</woe_id>
        <longitude>106</longitude>
        <woe_name>Bến Tre</woe_name>
        <fips>VM03</fips>
        <woe_label>Ben Tre, VN, Vietnam</woe_label>
        <latitude>10</latitude>
        <iso_a2>VN</iso_a2>
        <postal>BR</postal>
        <type>Tỉnh</type>
        <id>VN.BR</id>
      </desc>
    </path>
    <path d="M 348.7982 631.1183 347.8872 630.9693 348.7956 632.3116 351.7811 635.2613 348.2597 644.3686 341.1503 648.2866 336.2506 649.7327 327.97 650.8562 328.0105 648.2267 326.5292 646.3017 326.811 645.4342 327.7884 644.2372 333.1794 639.1866 333.8976 638.0809 334.3214 635.715 334.1885 634.1611 333.8689 633.6269 331.5308 631.5928 329.3711 629.3229 334.1179 627.6539 341.9516 625.5515 348.7982 631.1183 Z" id="VN.337" fill="#cee3f5" stroke="#6e6e6e" stroke-width="0.4">
      <desc>
        <labelrank>7</labelrank>
        <code_hasc>VN.</code_hasc>
        <name>Hau Giang</name>
        <admin>Vietnam</admin>
        <type_en>Region</type_en>
        <region/>
        <woe_id>28301720</woe_id>
        <longitude>105</longitude>
        <woe_name>Hau Giang</woe_name>
        <fips/>
        <woe_label>Hau Giang, VN, Vietnam</woe_label>
        <latitude>9</latitude>
        <iso_a2>VN</iso_a2>
        <postal/>
        <type>Region</type>
        <id>VN.337</id>
      </desc>
    </path>
    <path d="M 329.5548 678.1447 325.5753 674.4903 324.4525 669.5139 322.8885 668.8503 324.4553 664.511 322.7213 659.3938 323.6058 658.4857 324.134 654.2215 324.0027 653.3033 323.3042 650.8316 323.4681 650.225 323.9562 649.9871 327.97 650.8562 336.2506 649.7327 336.6493 656.8569 337.6902 658.8001 348.1463 660.6631 348.6317 661.3306 350.2785 666.4711 334.8562 672.4111 329.5548 678.1447 Z" id="VN.BL" fill="#cee3f5" stroke="#6e6e6e" stroke-width="0.4">
      <desc>
        <labelrank>7</labelrank>
        <code_hasc>VN.BL</code_hasc>
        <name>Bạc Liêu</name>
        <admin>Vietnam</admin>
        <type_en>Province</type_en>
        <region>đồng bằng sông Cửu Long</region>
        <woe_id>20070081</woe_id>
        <longitude>105</longitude>
        <woe_name>Bạc Liêu</woe_name>
        <fips>VM73</fips>
        <woe_label>Bac Lieu, VN, Vietnam</woe_label>
        <latitude>9</latitude>
        <iso_a2>VN</iso_a2>
        <postal>BL</postal>
        <type>Tỉnh</type>
        <id>VN.BL</id>
      </desc>
    </path>
    <path d="M 322.7213 659.3938 324.4553 664.511 322.8885 668.8503 324.4525 669.5139 325.5753 674.4903 329.5548 678.1447 324.3939 687.3695 318.2495 690.7368 314.3795 695.7628 302.8745 699 296.6221 697.2475 301.8876 694.5273 301.7777 692.7168 305.4757 693.3625 307.8917 691.7519 302.7397 692.0728 306.2892 690.4361 305.9425 687.5132 301.0237 689.3028 299.0526 687.1072 300.7958 681.4908 301.8596 653.3345 303.9052 654.6691 310.7385 653.6275 322.7213 659.3938 Z" id="VN.CM" fill="#cee3f5" stroke="#6e6e6e" stroke-width="0.4">
      <desc>
        <labelrank>7</labelrank>
        <code_hasc>VN.CM</code_hasc>
        <name>Cà Mau</name>
        <admin>Vietnam</admin>
        <type_en>Province</type_en>
        <region>đồng bằng sông Cửu Long</region>
        <woe_id>20070082</woe_id>
        <longitude>105</longitude>
        <woe_name>Cà Mau</woe_name>
        <fips>VM77</fips>
        <woe_label>Ca Mau, VN, Vietnam</woe_label>
        <latitude>9</latitude>
        <iso_a2>VN</iso_a2>
        <postal>CM</postal>
        <type>Tỉnh</type>
        <id>VN.CM</id>
      </desc>
    </path>
    <path d="M 387.8761 689.9714 386.4937 690.7334 387.2804 692.5488 384.7729 692.7553 383.8919 694.8176 383.3008 692.2319 387.8761 689.9714 Z M 366.2557 649.1601 370.0655 650.7729 369.7188 652.7885 367.8352 653.206 368.067 652.0196 365.6178 649.6745 367.0075 651.7855 365.6051 651.4835 360.7481 642.5797 366.2557 649.1601 Z M 365.5379 659.625 365.0446 661.3608 357.2935 663.5986 350.2785 666.4711 348.6317 661.3306 348.1463 660.6631 337.6902 658.8001 336.6493 656.8569 336.2506 649.7327 348.2597 644.3686 348.5316 642.9014 351.7811 635.2613 359.8176 643.1927 365.6291 652.9222 366.2806 656.2731 364.3462 658.7236 365.5379 659.625 Z" id="VN.ST" fill="#cee3f5" stroke="#6e6e6e" stroke-width="0.4">
      <desc>
        <labelrank>7</labelrank>
        <code_hasc>VN.ST</code_hasc>
        <name>Sóc Trăng</name>
        <admin>Vietnam</admin>
        <type_en>Province</type_en>
        <region>đồng bằng sông Cửu Long</region>
        <woe_id>2347748</woe_id>
        <longitude>105</longitude>
        <woe_name>Sóc Trăng</woe_name>
        <fips>VM65</fips>
        <woe_label>Soc Trang, VN, Vietnam</woe_label>
        <latitude>9</latitude>
        <iso_a2>VN</iso_a2>
        <postal>ST</postal>
        <type>Tỉnh</type>
        <id>VN.ST</id>
      </desc>
    </path>
    <path d="M 356.2003 636.5753 362.5488 633.8551 362.6087 631.599 367.8475 627.6304 383.2732 643.5192 383.3196 647.7841 380.6721 651.8385 375.0434 652.8446 368.1081 648.67 356.2003 636.5753 Z" id="VN.TV" fill="#cee3f5" stroke="#6e6e6e" stroke-width="0.4">
      <desc>
        <labelrank>7</labelrank>
        <code_hasc>VN.TV</code_hasc>
        <name>Trà Vinh</name>
        <admin>Vietnam</admin>
        <type_en>Province</type_en>
        <region>đồng bằng sông Cửu Long</region>
        <woe_id>2347750</woe_id>
        <longitude>106</longitude>
        <woe_name>Trà Vinh</woe_name>
        <fips>VM51</fips>
        <woe_label>Tra Vinh, VN, Vietnam</woe_label>
        <latitude>9</latitude>
        <iso_a2>VN</iso_a2>
        <postal>TV</postal>
        <type>Tỉnh</type>
        <id>VN.TV</id>
      </desc>
    </path>
    <path d="M 367.8475 627.6304 362.6087 631.599 362.5488 633.8551 356.2003 636.5753 348.7982 631.1183 341.9516 625.5515 343.5936 622.604 347.8702 624.5975 351.696 623.7871 352.326 621.2469 349.2529 617.131 351.5341 617.6498 355.5833 617.9266 361.0128 619.5632 363.6905 622.086 367.8475 627.6304 Z" id="VN.VL" fill="#cee3f5" stroke="#6e6e6e" stroke-width="0.4">
      <desc>
        <labelrank>9</labelrank>
        <code_hasc>VN.VL</code_hasc>
        <name>Vĩnh Long</name>
        <admin>Vietnam</admin>
        <type_en>Province</type_en>
        <region>đồng bằng sông Cửu Long</region>
        <woe_id>2347752</woe_id>
        <longitude>105</longitude>
        <woe_name>Vĩnh Long</woe_name>
        <fips>VM50</fips>
        <woe_label>Vinh Long, VN, Vietnam</woe_label>
        <latitude>10</latitude>
        <iso_a2>VN</iso_a2>
        <postal>VL</postal>
        <type>Tỉnh</type>
        <id>VN.VL</id>
      </desc>
    </path>
    <path d="M 376.8942 46.1086 371.0031 47.364 364.8062 44.2038 361.9689 46.0905 359.9345 45.4917 357.0673 39.7263 346.5941 42.6558 343.1481 36.2735 343.2346 31.533 339.9621 31.8625 334.4945 37.495 329.3957 28.8962 322.5619 24.6262 328.5344 18.2351 330.9603 17.8677 332.9877 13.5836 333.7078 15.4373 342.5926 17.9464 346.953 22.6908 351.6375 21.3521 353.2863 19.313 359.0929 19.2879 362.1752 20.5855 364.5301 24.9249 373.3756 23.2237 374.6623 21.4897 380.0594 24.8582 382.5498 24.1388 385.3397 27.4066 387.9433 27.3963 383.26 37.7312 378.735 37.0316 376.8942 46.1086 Z" id="VN.CB" fill="#cee3f5" stroke="#6e6e6e" stroke-width="0.4">
      <desc>
        <labelrank>7</labelrank>
        <code_hasc>VN.CB</code_hasc>
        <name>Cao Bằng</name>
        <admin>Vietnam</admin>
        <type_en>Province</type_en>
        <region>Đông Bắc</region>
        <woe_id>2347704</woe_id>
        <longitude>106</longitude>
        <woe_name>Cao Bằng</woe_name>
        <fips>VM05</fips>
        <woe_label>Cao Bang, VN, Vietnam</woe_label>
        <latitude>22</latitude>
        <iso_a2>VN</iso_a2>
        <postal>CB</postal>
        <type>Tỉnh</type>
        <id>VN.CB</id>
      </desc>
    </path>
    <path d="M 332.9877 13.5836 330.9603 17.8677 328.5344 18.2351 322.5619 24.6262 329.3957 28.8962 334.4945 37.495 324.6746 37.1116 317.4851 35.0331 311.7649 48.6414 307.2349 49.2254 306.5118 52.8415 302.9505 57.4538 299.5194 56.9228 295.9822 52.9977 293.3008 53.2989 291.9835 54.4307 291.8256 49.8152 286.4041 45.6892 285.081 39.3253 286.7757 37.9438 281.6789 32.7492 290.0908 26.007 291.6128 27.3893 297.1676 26.4476 301.9091 21.875 300.7969 14.2548 303.5646 12.652 303.95 10.5782 306.7866 11.0178 312.2831 7.3279 318.3806 6.3054 322.4149 1 328.4068 5.6324 332.6736 10.9181 332.9877 13.5836 Z" id="VN.HG" fill="#cee3f5" stroke="#6e6e6e" stroke-width="0.4">
      <desc>
        <labelrank>7</labelrank>
        <code_hasc>VN.HG</code_hasc>
        <name>Hà Giang</name>
        <admin>Vietnam</admin>
        <type_en>Province</type_en>
        <region>Đông Bắc</region>
        <woe_id>2347734</woe_id>
        <longitude>104</longitude>
        <woe_name>Hà Giang</woe_name>
        <fips>VM50</fips>
        <woe_label>Ha Giang, VN, Vietnam</woe_label>
        <latitude>22</latitude>
        <iso_a2>VN</iso_a2>
        <postal>HG</postal>
        <type>Tỉnh</type>
        <id>VN.HG</id>
      </desc>
    </path>
    <path d="M 281.6789 32.7492 286.7757 37.9438 285.081 39.3253 286.4041 45.6892 291.8256 49.8152 291.9835 54.4307 293.3008 53.2989 294.0359 57.3353 290.5078 60.7414 285.5757 58.4271 282.5688 59.8959 285.143 66.8253 283.6686 69.9083 275.8238 67.2838 274.2543 70.7228 264.8952 66.5568 261.6705 71.8721 263.5043 75.7273 262.2318 78.5476 258.2487 77.8956 252.8396 71.8015 249.5568 64.0813 246.6774 63.6098 248.1245 58.0861 253.6566 54.1199 257.0239 48.1423 254.6551 45.4497 247.6757 43.8717 248.6735 38.9755 246.0988 34.5701 247.9098 28.9532 250.4137 27.5117 263.9966 41.4014 266.8812 31.411 269.6627 28.0129 276.423 26.5012 276.2131 30.3853 281.6789 32.7492 Z" id="VN.LO" fill="#cee3f5" stroke="#6e6e6e" stroke-width="0.4">
      <desc>
        <labelrank>7</labelrank>
        <code_hasc>VN.LO</code_hasc>
        <name>Lào Cai</name>
        <admin>Vietnam</admin>
        <type_en>Province</type_en>
        <region>Đông Bắc</region>
        <woe_id>2347740</woe_id>
        <longitude>104</longitude>
        <woe_name>Lào Cai</woe_name>
        <fips>VM56</fips>
        <woe_label>Lao Cai, VN, Vietnam</woe_label>
        <latitude>22</latitude>
        <iso_a2>VN</iso_a2>
        <postal>LO</postal>
        <type>Tỉnh</type>
        <id>VN.LO</id>
      </desc>
    </path>
  </g>
</svg>