<?xml version="1.0" encoding="UTF-8"?>
<svg xmlns="http://www.w3.org/2000/svg" width="700" height="700">
  <g id="jordan">
    <path d="M 113.751 461.8453 112.7806 472.2404 109.6459 485.3904 102.9499 505.596 102.9735 524.3512 101.7381 529.1891 93.028 545.7468 91.2434 554.0023 90.8413 558.3827 91.4692 561.5128 92.2092 563.1551 93.3047 565.0954 94.6057 566.8448 96.3578 568.5146 98.3271 569.7052 100.6992 570.5268 103.0138 570.6586 105.1762 570.4177 107.0593 569.7638 108.9307 569.4066 112.6644 569.3498 116.9774 570.2554 119.6623 571.2979 122.4826 572.9098 125.2622 575.4031 127.836 578.2246 129.9538 581.5995 137.3822 598.9354 146.3692 637.3762 153.0072 690.1779 153.324 691.6099 153.3344 691.6573 136.1032 688.4727 114.4762 684.4779 94.228 680.69 71.5799 676.4359 54.2957 673.1534 38.1548 670.0473 38.1559 670.0431 40.0794 668.7344 41.3053 653.5834 42.4133 649.2367 45.6975 642.4734 45.6009 639.8209 42.6312 636.7255 40.64 636.6906 40.531 636.1464 40.5389 635.699 40.3416 635.4583 39.665 635.5345 40.368 631.0118 41.4702 627.3804 43.4657 624.2683 44.9216 620.135 45.8508 610.7876 47.0046 606.6532 54.0587 588.5765 54.7313 585.2042 55.0377 575.0839 56.198 569.4467 56.7919 568.0188 57.5331 566.7398 58.0974 565.277 58.2211 563.2729 60.0092 556.7334 66.3625 547.5569 68.8039 541.9917 68.8893 536.741 66.0948 526.5009 66.2331 521.7418 67.3115 518.8924 68.8135 510.2379 69.7138 508.169 70.7125 506.4718 71.533 504.6943 71.8841 502.3838 71.5195 500.0101 69.4998 496.6019 68.8116 494.8772 68.8774 490.8745 71.4943 484.141 72.2449 480.1839 78.8017 459.8917 87.4941 442.9199 87.5033 442.8888 89.6411 444.5675 99.3628 451.7522 101.5632 452.9511 103.414 454.6697 105.0903 457.6814 106.8218 460.0005 108.8474 461.0408 110.4696 461.6577 113.751 461.8453 Z" id="JO.AQ" fill="#cee3f5" stroke="#6e6e6e" stroke-width="0.4">
      <desc>
        <labelrank>7</labelrank>
        <code_hasc>JO.AQ</code_hasc>
        <name>Aqaba</name>
        <admin>Jordan</admin>
        <type_en>Province</type_en>
        <region/>
        <woe_id>20070290</woe_id>
        <longitude>35</longitude>
        <woe_name>Aqaba</woe_name>
        <fips>JO21</fips>
        <woe_label>Al `Aqabah, JO, Jordan</woe_label>
        <latitude>29</latitude>
        <iso_a2>JO</iso_a2>
        <postal>AQ</postal>
        <type>Muhafazah</type>
        <id>JO.AQ</id>
      </desc>
    </path>
    <path d="M 445.7638 281.8632 445.6803 281.8325 445.4737 281.7564 268.9461 220.9083 263.9679 217.9886 259.4747 213.7224 256.9977 212.4054 249.3462 211.5368 246.7219 211.7841 244.8927 212.5995 243.391 213.7353 241.5613 214.559 239.4286 214.6015 237.2491 213.9417 234.7773 212.1175 229.0752 209.2587 223.3437 208.6617 221.5766 208.8809 220.1016 209.2183 217.1474 210.3963 215.1827 210.5443 213.0117 209.937 209.5832 207.2873 207.8128 206.1704 206.4008 205.9732 204.4506 207.8762 203.0153 208.6514 201.342 208.9939 199.8281 208.7134 198.3796 207.6801 197.687 206.5244 197.5916 204.9437 198.02 203.7466 198.6663 202.7323 198.8958 201.6539 198.4011 200.5001 197.205 199.1891 194.359 198.1941 192.92 194.7754 191.0837 191.6412 190.1191 190.7451 188.9633 189.959 188.294 188.816 188.4199 187.1727 189.8057 184.5904 196.3092 177.3986 198.3421 173.3579 199.4588 171.9217 199.6605 170.645 199.2446 168.1703 198.5366 166.5064 197.8038 165.1608 197.6411 163.799 198.1356 162.4475 200.1737 160.8002 201.9288 160.519 203.5231 161.0885 206.0904 163.1386 207.3225 163.4076 208.3333 163.0676 209.3559 158.7456 207.735 145.0672 209.7557 145.15 214.9843 144.4874 215.8734 144.5893 217.3277 145.1692 218.1727 145.3309 218.8756 145.0007 220.4916 143.5626 221.2227 143.3358 222.748 144.1869 227.3094 148.8356 236.3729 155.171 248.7124 166.9955 250.7947 168.1913 253.5807 169.055 261.5398 169.9019 263.8269 171.3465 268.9854 171.9998 288.3239 174.4328 293.4137 178.3136 295.8738 176.8743 298.9435 176.9728 307.9731 179.3689 309.9614 179.4544 311.7755 178.8335 334.5129 163.3209 356.1257 149.243 356.1257 149.2344 356.1549 149.2344 356.1549 149.2258 371.7597 139.2336 395.8473 123.7103 407.0038 116.5112 419.9288 108.1517 443.9459 92.5577 467.9129 76.9024 485.6894 65.244 485.6893 65.2354 509.9618 49.6478 521.7718 42.0257 551.4738 22.7779 585.4106 1 592.3286 24.6596 598.5279 45.9391 603.7043 63.5784 610.5411 87.1252 617.6446 111.4571 627.7834 146.0997 616.9444 149.7289 616.7557 149.7927 616.6996 149.9143 616.7618 150.1199 616.9566 150.3876 624.3021 174.2133 625.4023 176.6904 626.851 177.4725 653.5061 169.5441 656.4511 171.1795 658.6505 176.2547 661.8452 187.4295 658.3412 192.7806 641.5876 207.6312 641.6425 208.9136 640.2154 209.4071 637.5007 211.5367 620.9539 227.8475 616.0759 230.0127 616.0764 230.0385 616.0616 230.0302 600.0133 234.9898 568.2098 244.7406 536.3988 254.4322 504.5359 264.0483 477.7385 272.0717 472.6211 273.5977 445.7638 281.8632 Z" id="JO.MA" fill="#cee3f5" stroke="#6e6e6e" stroke-width="0.4">
      <desc>
        <labelrank>7</labelrank>
        <code_hasc>JO.MA</code_hasc>
        <name>Mafraq</name>
        <admin>Jordan</admin>
        <type_en>Province</type_en>
        <region/>
        <woe_id>2345930</woe_id>
        <longitude>37</longitude>
        <woe_name>Mafraq</woe_name>
        <fips>JO15</fips>
        <woe_label>Al Mafraq, JO, Jordan</woe_label>
        <latitude>32</latitude>
        <iso_a2>JO</iso_a2>
        <postal>MA</postal>
        <type>Muhafazah</type>
        <id>JO.MA</id>
      </desc>
    </path>
    <path d="M 337.0271 314.7726 331.5492 316.4063 350.1376 336.5429 368.7737 356.6658 369.053 356.9666 215.9467 356.3086 172.6515 354.8665 171.245 353.5863 170.7559 351.5796 171.1449 348.3425 171.7019 345.9896 172.8894 342.6876 173.1711 341.1927 172.8171 338.998 171.8754 335.8158 168.4623 329.6672 170.0284 328.2075 170.8993 327.5453 171.9964 326.4248 172.6278 325.3467 175.1489 317.8359 176.1192 316.0338 178.1179 313.1961 178.5711 312.1461 178.316 311.1191 177.1989 310.0143 176.369 308.9727 176.2499 307.65 176.7489 306.4499 176.8757 304.8672 176.0351 302.7493 169.9083 296.0084 168.8757 293.38 167.8176 289.0768 167.6143 287.4604 167.8288 286.0163 168.5495 284.75 171.0324 281.841 171.8879 280.3134 172.2135 278.7586 172.0111 266.6904 171.0067 265.724 170.0598 265.5631 168.265 266.2797 166.0677 266.8023 158.8758 266.7468 153.5133 268.0703 153.8134 265.0948 154.1651 263.3426 156.0335 258.259 155.8076 256.8443 155.0024 255.9394 151.7462 255.3625 149.8718 254.7845 148.3603 253.9912 147.3826 252.8211 147.093 251.2849 148.1072 249.4635 150.268 247.5741 158.5869 243.4411 162.17 240.8993 168.6471 233.4124 170.7793 231.6879 176.1963 230.097 178.4319 228.8719 182.9061 224.5784 187.0993 223.2512 190.3139 227.5612 193.7022 230.74 198.4325 236.6077 201.167 238.6036 203.0335 239.2011 205.8215 237.6412 207.5713 237.2945 209.8627 237.107 216.8445 234.9466 225.9867 235.0801 228.9183 234.5545 230.7604 233.4396 233.4899 230.1698 235.1941 228.7135 238.2201 228.0834 253.2259 229.4815 256.1968 230.8318 259.111 233.3089 267.1335 242.1883 271.1921 247.5045 271.4232 250.1353 270.107 252.1654 266.1069 254.6395 262.8986 257.2369 261.8038 258.7165 261.5977 260.2778 262.4782 262.107 266.2949 266.4979 272.6519 272.4609 278.8215 276.7205 282.1278 277.9764 284.7989 277.9082 291.5728 273.7592 294.0094 273.1034 296.6556 273.7304 336.5206 314.4967 336.9631 314.7377 337.0271 314.7726 Z" id="JO.AM" fill="#cee3f5" stroke="#6e6e6e" stroke-width="0.4">
      <desc>
        <labelrank>7</labelrank>
        <code_hasc>JO.AM</code_hasc>
        <name>Amman</name>
        <admin>Jordan</admin>
        <type_en>Province</type_en>
        <region/>
        <woe_id>20070289</woe_id>
        <longitude>36</longitude>
        <woe_name>Amman</woe_name>
        <fips>JO16</fips>
        <woe_label>'Amman, JO, Jordan</woe_label>
        <latitude>31</latitude>
        <iso_a2>JO</iso_a2>
        <postal>AM</postal>
        <type>Muhafazah</type>
        <id>JO.AM</id>
      </desc>
    </path>
    <path d="M 196.925 436.3674 185.8115 454.6957 180.5393 456.5908 176.6919 455.0467 175.1751 454.9067 173.6314 455.2226 171.8253 456.4524 170.382 457.8363 168.3367 459.102 158.0974 461.4409 144.6161 463.0982 139.7224 462.6003 125.3916 462.8712 119.5213 461.911 113.751 461.8453 110.4696 461.6577 108.8474 461.0408 106.8218 460.0005 105.0903 457.6814 103.414 454.6697 101.5632 452.9511 99.3628 451.7522 89.6411 444.5675 87.5033 442.8888 88.6711 438.9516 89.3902 434.7523 89.9096 432.8833 90.8918 430.8836 92.0265 429.5922 94.4969 427.4427 95.3529 425.8713 95.8986 422.1945 95.8804 418.466 96.3232 414.7014 98.2058 410.9584 99.9805 409.2978 101.0772 410.0713 108.182 415.207 110.1787 415.7821 112.7375 415.999 114.3547 415.0487 115.313 413.4089 116.3195 406.6514 117.8331 402.3546 118.5026 398.9759 119.4103 397.6839 120.7733 397.2677 122.5964 397.3698 125.1448 397.038 126.9674 397.1827 128.5849 397.6903 130.1682 399.1358 132.1537 400.47 134.1979 401.3011 146.4362 402.0547 169.3478 411.4841 170.2964 412.3377 170.6866 413.3575 171.2755 414.5472 172.6057 415.8522 174.3964 417.1617 179.5843 419.6195 181.068 420.5292 182.1774 421.758 183.646 424.2814 184.7703 425.5617 190.8197 430.1328 196.925 436.3674 Z" id="JO.AT" fill="#cee3f5" stroke="#6e6e6e" stroke-width="0.4">
      <desc>
        <labelrank>7</labelrank>
        <code_hasc>JO.AT</code_hasc>
        <name>Tafilah</name>
        <admin>Jordan</admin>
        <type_en>Province</type_en>
        <region/>
        <woe_id>2345932</woe_id>
        <longitude>35</longitude>
        <woe_name>Tafilah</woe_name>
        <fips>JO12</fips>
        <woe_label>At Tafilah, JO, Jordan</woe_label>
        <latitude>30</latitude>
        <iso_a2>JO</iso_a2>
        <postal>AT</postal>
        <type>Muhafazah</type>
        <id>JO.AT</id>
      </desc>
    </path>
    <path d="M 369.053 356.9666 387.4571 376.7493 406.1877 396.828 406.6348 397.3511 407.0968 397.8827 407.544 398.4143 408.006 398.9459 423.8398 417.3988 439.7247 435.8274 455.6604 454.232 471.6024 472.6302 478.8113 480.9266 478.857 481.0381 478.798 481.1075 478.6643 481.1603 477.7005 481.7625 467.1938 487.7541 449.8293 497.6516 434.1999 506.5474 430.8719 509.3551 429.0074 512.3779 424.8214 522.7366 419.6843 535.3795 414.9534 547.003 408.5859 562.7026 405.4816 565.4866 388.4137 569.0846 369.0165 573.1602 348.3209 577.4893 327.4496 581.827 314.5346 584.4819 301.9456 587.0759 297.9507 589.0634 294.4756 592.7809 286.4061 606.3716 279.6843 617.6612 270.5616 632.9573 261.1496 648.7034 249.8699 657.9251 232.8366 671.8251 217.3233 684.4588 201.3769 697.3852 197.6197 698.8782 193.6165 699 178.4483 696.2458 161.6417 693.186 153.3344 691.6573 153.324 691.6099 153.0072 690.1779 146.3692 637.3762 137.3822 598.9354 129.9538 581.5995 127.836 578.2246 125.2622 575.4031 122.4826 572.9098 119.6623 571.2979 116.9774 570.2554 112.6644 569.3498 108.9307 569.4066 107.0593 569.7638 105.1762 570.4177 103.0138 570.6586 100.6992 570.5268 98.3271 569.7052 96.3578 568.5146 94.6057 566.8448 93.3047 565.0954 92.2092 563.1551 91.4692 561.5128 90.8413 558.3827 91.2434 554.0023 93.028 545.7468 101.7381 529.1891 102.9735 524.3512 102.9499 505.596 109.6459 485.3904 112.7806 472.2404 113.751 461.8453 119.5213 461.911 125.3916 462.8712 139.7224 462.6003 144.6161 463.0982 158.0974 461.4409 168.3367 459.102 170.382 457.8363 171.8253 456.4524 173.6314 455.2226 175.1751 454.9067 176.6919 455.0467 180.5393 456.5908 185.8115 454.6957 196.925 436.3674 214.015 405.1938 221.5056 381.9753 218.2198 372.672 215.9467 356.3086 369.053 356.9666 Z" id="JO.MN" fill="#cee3f5" stroke="#6e6e6e" stroke-width="0.4">
      <desc>
        <labelrank>7</labelrank>
        <code_hasc>JO.MN</code_hasc>
        <name>Ma`an</name>
        <admin>Jordan</admin>
        <type_en>Province</type_en>
        <region/>
        <woe_id>2345928</woe_id>
        <longitude>36</longitude>
        <woe_name>Ma`an</woe_name>
        <fips>JO19</fips>
        <woe_label>Ma'an, JO, Jordan</woe_label>
        <latitude>30</latitude>
        <iso_a2>JO</iso_a2>
        <postal>MN</postal>
        <type>Muhafazah</type>
        <id>JO.MN</id>
      </desc>
    </path>
    <path d="M 207.735 145.0672 209.3559 158.7456 208.3333 163.0676 207.3225 163.4076 206.0904 163.1386 203.5231 161.0885 201.9288 160.519 200.1737 160.8002 198.1356 162.4475 197.6411 163.799 197.8038 165.1608 198.5366 166.5064 199.2446 168.1703 199.6605 170.645 199.4588 171.9217 198.3421 173.3579 193.6521 173.1161 189.2723 171.8083 187.3813 172.3579 182.5076 174.3839 179.5045 170.0608 176.7445 167.7759 176.0577 166.4039 175.4674 164.2192 174.5225 163.7828 173.5075 164.4262 172.4841 165.8272 170.7857 166.7988 168.4807 167.1176 164.3776 166.8388 162.0491 167.2683 157.7179 169.5854 154.3085 170.5132 150.7527 170.2287 148.2951 170.3876 146.2673 171.2233 144.8639 172.9578 143.8369 175.5279 141.5313 185.9261 141.74 188.4689 142.5614 191.1789 144.4655 195.7023 144.7986 197.1488 144.6765 198.1245 144.0185 199.778 134.1792 198.466 133.2696 198.547 135.2121 190.704 133.3535 190.6792 133.6001 189.7568 133.9887 189.1506 134.5361 188.7102 135.2438 188.3192 134.1432 186.3585 133.659 183.1788 133.7455 180.0025 134.4004 178.0695 133.1469 175.577 133.3312 170.5807 132.5932 168.9475 132.6087 167.8024 133.6608 167.8166 133.6454 168.9617 134.5222 168.9735 134.3087 167.4551 133.9022 166.1709 133.3317 165.1298 132.6548 164.393 132.3262 163.8461 131.723 161.9994 133.0997 161.7511 133.7048 161.2943 133.5824 160.6209 132.7179 159.7352 132.7319 158.702 133.7834 158.7163 133.5749 157.9341 133.3427 157.819 133.0499 157.8711 132.7472 157.5742 134.6916 156.3518 133.8308 155.2035 134.8002 154.786 135.6989 154.1953 135.7156 152.9512 135.0896 152.8136 134.713 152.5847 134.396 152.2704 133.8755 151.8931 134.1533 150.7817 134.694 149.6523 135.5524 148.7811 136.8272 148.4193 136.841 147.3775 135.5316 145.9779 135.2492 145.268 134.2625 143.7692 133.6793 143.7355 132.934 143.8115 132.9494 142.6836 134.875 142.7097 134.4956 141.6324 134.0614 138.139 134.9211 139.2916 135.5868 137.5137 135.9302 136.9241 136.1117 137.5336 136.1793 137.9264 136.3848 137.8344 136.9802 136.9381 136.2203 134.8656 135.8406 130.5634 135.0591 129.0545 135.0759 127.8103 136.0524 127.8235 136.0663 126.786 134.8808 126.0639 134.3288 124.8551 134.4202 123.4871 134.7336 122.9402 135.7447 122.5276 137.0124 121.4337 139.1767 118.6423 141.7936 116.8124 141.8091 116.8145 145.138 117.2562 147.4102 116.1141 152.1365 111.997 159.9394 107.2093 162.3772 106.6138 162.3992 106.6032 163.2846 106.1767 164.1162 106.0055 164.8423 106.1431 165.4336 106.6106 165.4335 106.6192 165.4188 106.6363 165.4186 106.6492 166.695 108.3085 181.7945 111.9953 183.1257 112.7927 185.5318 115.2842 186.2284 115.5237 188.0487 115.5205 188.5845 115.8143 188.7919 116.9271 188.5919 118.0057 188.1336 118.6813 187.6101 118.5986 188.8759 120.2041 190.1024 121.383 191.5686 121.9096 193.6116 121.5548 196.9012 121.8401 197.539 123.7403 197.09 126.5731 197.1627 129.7035 198.4631 132.5053 204.7335 142.2093 205.5041 144.1576 205.527 144.8724 206.0366 144.9974 207.735 145.0672 Z" id="JO.IR" fill="#cee3f5" stroke="#6e6e6e" stroke-width="0.4">
      <desc>
        <labelrank>7</labelrank>
        <code_hasc>JO.IR</code_hasc>
        <name>Irbid</name>
        <admin>Jordan</admin>
        <type_en>Province</type_en>
        <region/>
        <woe_id>20070291</woe_id>
        <longitude>35</longitude>
        <woe_name>Irbid</woe_name>
        <fips>JO18</fips>
        <woe_label>Irbid, JO, Jordan</woe_label>
        <latitude>32</latitude>
        <iso_a2>JO</iso_a2>
        <postal>IR</postal>
        <type>Muhafazah</type>
        <id>JO.IR</id>
      </desc>
    </path>
    <path d="M 182.5076 174.3839 179.4864 176.0058 177.9444 176.6484 175.7285 178.0886 173.4674 180.2857 171.0351 184.0262 170.0176 186.7573 169.5969 189.0731 169.6892 190.6627 169.3436 192.1398 168.0541 193.5806 158.3498 197.8393 152.3605 204.4882 148.6713 203.6896 146.2888 202.6826 144.0185 199.778 144.6765 198.1245 144.7986 197.1488 144.4655 195.7023 142.5614 191.1789 141.74 188.4689 141.5313 185.9261 143.8369 175.5279 144.8639 172.9578 146.2673 171.2233 148.2951 170.3876 150.7527 170.2287 154.3085 170.5132 157.7179 169.5854 162.0491 167.2683 164.3776 166.8388 168.4807 167.1176 170.7857 166.7988 172.4841 165.8272 173.5075 164.4262 174.5225 163.7828 175.4674 164.2192 176.0577 166.4039 176.7445 167.7759 179.5045 170.0608 182.5076 174.3839 Z" id="JO.AJ" fill="#cee3f5" stroke="#6e6e6e" stroke-width="0.4">
      <desc>
        <labelrank>7</labelrank>
        <code_hasc>JO.AJ</code_hasc>
        <name>Ajlun</name>
        <admin>Jordan</admin>
        <type_en>Province</type_en>
        <region/>
        <woe_id>20070293</woe_id>
        <longitude>35</longitude>
        <woe_name>Ajlun</woe_name>
        <fips>JO20</fips>
        <woe_label>`Ajlun, JO, Jordan</woe_label>
        <latitude>32</latitude>
        <iso_a2>JO</iso_a2>
        <postal>AJ</postal>
        <type>Muhafazah</type>
        <id>JO.AJ</id>
      </desc>
    </path>
    <path d="M 198.3421 173.3579 196.3092 177.3986 189.8057 184.5904 188.4199 187.1727 188.294 188.816 188.9633 189.959 190.1191 190.7451 191.0837 191.6412 192.92 194.7754 194.359 198.1941 193.8429 201.6933 193.1261 203.1588 191.906 204.3869 190.0449 205.2343 187.7908 206.5469 186.13 207.8263 180.7537 214.888 175.5843 210.9512 174.5369 209.5366 172.95 207.901 170.9814 207.0316 168.1965 206.4715 155.8728 206.6399 153.9852 206.4365 152.5414 205.8809 152.3605 204.4882 158.3498 197.8393 168.0541 193.5806 169.3436 192.1398 169.6892 190.6627 169.5969 189.0731 170.0176 186.7573 171.0351 184.0262 173.4674 180.2857 175.7285 178.0886 177.9444 176.6484 179.4864 176.0058 182.5076 174.3839 187.3813 172.3579 189.2723 171.8083 193.6521 173.1161 198.3421 173.3579 Z" id="JO.JA" fill="#cee3f5" stroke="#6e6e6e" stroke-width="0.4">
      <desc>
        <labelrank>7</labelrank>
        <code_hasc>JO.JA</code_hasc>
        <name>Jarash</name>
        <admin>Jordan</admin>
        <type_en>Province</type_en>
        <region/>
        <woe_id>20070292</woe_id>
        <longitude>35</longitude>
        <woe_name>Jarash</woe_name>
        <fips>JO22</fips>
        <woe_label>Jarash, JO, Jordan</woe_label>
        <latitude>32</latitude>
        <iso_a2>JO</iso_a2>
        <postal>JA</postal>
        <type>Muhafazah</type>
        <id>JO.JA</id>
      </desc>
    </path>
    <path d="M 144.0185 199.778 146.2888 202.6826 148.6713 203.6896 152.3605 204.4882 152.5414 205.8809 153.9852 206.4365 155.8728 206.6399 168.1965 206.4715 170.9814 207.0316 172.95 207.901 174.5369 209.5366 175.5843 210.9512 180.7537 214.888 181.5234 219.1963 182.2404 220.0646 183.3805 221.1523 184.3441 221.5838 187.0993 223.2512 182.9061 224.5784 178.4319 228.8719 176.1963 230.097 170.7793 231.6879 168.6471 233.4124 162.17 240.8993 158.5869 243.4411 150.268 247.5741 148.1072 249.4635 147.093 251.2849 147.3826 252.8211 148.3603 253.9912 149.8718 254.7845 151.7462 255.3625 155.0024 255.9394 155.8076 256.8443 156.0335 258.259 154.1651 263.3426 153.8134 265.0948 153.5133 268.0703 151.6691 269.1374 147.8625 269.4314 146.0907 269.9477 144.3553 271.0713 143.4806 272.184 141.7615 276.6483 139.3675 280.8583 137.5566 282.5658 135.5568 283.4827 125.7657 282.8057 124.0186 282.5697 127.706 274.3378 132.305 269.3536 129.4249 260.3259 129.4416 259.0863 130.9982 257.032 127.7107 243.6499 128.1256 242.3037 129.0133 241.8249 130.001 241.5541 130.6574 240.7966 130.7779 239.4721 129.9659 237.6185 129.7498 236.2293 129.6924 233.9553 129.4082 232.1777 127.9207 228.2481 127.7618 220.5565 128.5782 217.6916 130.9943 215.7697 129.5271 213.6833 129.6413 211.756 132.0701 207.7245 131.3373 206.6469 131.3495 205.7429 132.0041 205.0026 133.1693 204.4241 133.1859 203.1843 132.6119 201.2004 133.2696 198.547 134.1792 198.466 144.0185 199.778 Z" id="JO.BA" fill="#cee3f5" stroke="#6e6e6e" stroke-width="0.4">
      <desc>
        <labelrank>7</labelrank>
        <code_hasc>JO.BA</code_hasc>
        <name>Balqa</name>
        <admin>Jordan</admin>
        <type_en>Province</type_en>
        <region/>
        <woe_id>2345927</woe_id>
        <longitude>35</longitude>
        <woe_name>Balqa</woe_name>
        <fips>JO02</fips>
        <woe_label>Al Balqa', JO, Jordan</woe_label>
        <latitude>31</latitude>
        <iso_a2>JO</iso_a2>
        <postal>BA</postal>
        <type>Muhafazah</type>
        <id>JO.BA</id>
      </desc>
    </path>
    <path d="M 168.4623 329.6672 162.0923 328.1296 159.0809 328.0354 154.1956 328.4527 149.7639 329.808 147.7927 329.7671 145.097 329.1963 130.8363 324.2325 120.029 323.6517 116.9667 324.4328 117.3041 314.7578 117.2458 314.7054 117.3335 314.7669 117.3933 314.716 117.3807 314.5609 117.3402 314.2934 118.2953 301.9509 120.7336 289.8959 124.0186 282.5697 125.7657 282.8057 135.5568 283.4827 137.5566 282.5658 139.3675 280.8583 141.7615 276.6483 143.4806 272.184 144.3553 271.0713 146.0907 269.9477 147.8625 269.4314 151.6691 269.1374 153.5133 268.0703 158.8758 266.7468 166.0677 266.8023 168.265 266.2797 170.0598 265.5631 171.0067 265.724 172.0111 266.6904 172.2135 278.7586 171.8879 280.3134 171.0324 281.841 168.5495 284.75 167.8288 286.0163 167.6143 287.4604 167.8176 289.0768 168.8757 293.38 169.9083 296.0084 176.0351 302.7493 176.8757 304.8672 176.7489 306.4499 176.2499 307.65 176.369 308.9727 177.1989 310.0143 178.316 311.1191 178.5711 312.1461 178.1179 313.1961 176.1192 316.0338 175.1489 317.8359 172.6278 325.3467 171.9964 326.4248 170.8993 327.5453 170.0284 328.2075 168.4623 329.6672 Z" id="JO.MD" fill="#cee3f5" stroke="#6e6e6e" stroke-width="0.4">
      <desc>
        <labelrank>7</labelrank>
        <code_hasc>JO.MD</code_hasc>
        <name>Madaba</name>
        <admin>Jordan</admin>
        <type_en>Province</type_en>
        <region/>
        <woe_id>20070288</woe_id>
        <longitude>35</longitude>
        <woe_name>Madaba</woe_name>
        <fips>JO23</fips>
        <woe_label>Madaba, JO, Jordan</woe_label>
        <latitude>31</latitude>
        <iso_a2>JO</iso_a2>
        <postal>MD</postal>
        <type>Muhafazah</type>
        <id>JO.MD</id>
      </desc>
    </path>
    <path d="M 168.4623 329.6672 171.8754 335.8158 172.8171 338.998 173.1711 341.1927 172.8894 342.6876 171.7019 345.9896 171.1449 348.3425 170.7559 351.5796 171.245 353.5863 172.6515 354.8665 215.9467 356.3086 218.2198 372.672 221.5056 381.9753 214.015 405.1938 196.925 436.3674 190.8197 430.1328 184.7703 425.5617 183.646 424.2814 182.1774 421.758 181.068 420.5292 179.5843 419.6195 174.3964 417.1617 172.6057 415.8522 171.2755 414.5472 170.6866 413.3575 170.2964 412.3377 169.3478 411.4841 146.4362 402.0547 134.1979 401.3011 132.1537 400.47 130.1682 399.1358 128.5849 397.6903 126.9674 397.1827 125.1448 397.038 122.5964 397.3698 120.7733 397.2677 119.4103 397.6839 118.5026 398.9759 117.8331 402.3546 116.3195 406.6514 115.313 413.4089 114.3547 415.0487 112.7375 415.999 110.1787 415.7821 108.182 415.207 101.0772 410.0713 99.9805 409.2978 103.9109 405.6183 105.5574 402.6202 105.6184 397.3948 106.6085 392.5273 113.5269 379.3323 114.275 374.5988 113.3322 370.0308 111.2595 365.8428 109.783 362.4723 108.4834 358.1743 107.7655 353.6004 109.6137 349.5717 111.6747 346.1056 111.9627 342.5106 110.9158 341.2902 113.6442 336.5332 116.2796 329.8717 116.9086 326.1007 116.9667 324.4328 120.029 323.6517 130.8363 324.2325 145.097 329.1963 147.7927 329.7671 149.7639 329.808 154.1956 328.4527 159.0809 328.0354 162.0923 328.1296 168.4623 329.6672 Z" id="JO.KA" fill="#cee3f5" stroke="#6e6e6e" stroke-width="0.4">
      <desc>
        <labelrank>7</labelrank>
        <code_hasc>JO.KA</code_hasc>
        <name>Karak</name>
        <admin>Jordan</admin>
        <type_en>Province</type_en>
        <region/>
        <woe_id>2345929</woe_id>
        <longitude>35</longitude>
        <woe_name>Karak</woe_name>
        <fips>JO09</fips>
        <woe_label>Al Karak, JO, Jordan</woe_label>
        <latitude>31</latitude>
        <iso_a2>JO</iso_a2>
        <postal>KA</postal>
        <type>Muhafazah</type>
        <id>JO.KA</id>
      </desc>
    </path>
    <path d="M 445.7638 281.8632 437.4241 284.4186 402.1799 295.1673 366.8883 305.8269 337.0271 314.7726 336.9631 314.7377 336.5206 314.4967 296.6556 273.7304 294.0094 273.1034 291.5728 273.7592 284.7989 277.9082 282.1278 277.9764 278.8215 276.7205 272.6519 272.4609 266.2949 266.4979 262.4782 262.107 261.5977 260.2778 261.8038 258.7165 262.8986 257.2369 266.1069 254.6395 270.107 252.1654 271.4232 250.1353 271.1921 247.5045 267.1335 242.1883 259.111 233.3089 256.1968 230.8318 253.2259 229.4815 238.2201 228.0834 235.1941 228.7135 233.4899 230.1698 230.7604 233.4396 228.9183 234.5545 225.9867 235.0801 216.8445 234.9466 209.8627 237.107 207.5713 237.2945 205.8215 237.6412 203.0335 239.2011 201.167 238.6036 198.4325 236.6077 193.7022 230.74 190.3139 227.5612 187.0993 223.2512 184.3441 221.5838 183.3805 221.1523 182.2404 220.0646 181.5234 219.1963 180.7537 214.888 186.13 207.8263 187.7908 206.5469 190.0449 205.2343 191.906 204.3869 193.1261 203.1588 193.8429 201.6933 194.359 198.1941 197.205 199.1891 198.4011 200.5001 198.8958 201.6539 198.6663 202.7323 198.02 203.7466 197.5916 204.9437 197.687 206.5244 198.3796 207.6801 199.8281 208.7134 201.342 208.9939 203.0153 208.6514 204.4506 207.8762 206.4008 205.9732 207.8128 206.1704 209.5832 207.2873 213.0117 209.937 215.1827 210.5443 217.1474 210.3963 220.1016 209.2183 221.5766 208.8809 223.3437 208.6617 229.0752 209.2587 234.7773 212.1175 237.2491 213.9417 239.4286 214.6015 241.5613 214.559 243.391 213.7353 244.8927 212.5995 246.7219 211.7841 249.3462 211.5368 256.9977 212.4054 259.4747 213.7224 263.9679 217.9886 268.9461 220.9083 445.4737 281.7564 445.6803 281.8325 445.7638 281.8632 Z" id="JO.AZ" fill="#cee3f5" stroke="#6e6e6e" stroke-width="0.4">
      <desc>
        <labelrank>7</labelrank>
        <code_hasc>JO.AZ</code_hasc>
        <name>Zarqa</name>
        <admin>Jordan</admin>
        <type_en>Province</type_en>
        <region/>
        <woe_id>2345933</woe_id>
        <longitude>36</longitude>
        <woe_name>Zarqa</woe_name>
        <fips>JO13</fips>
        <woe_label>Az Zarqa, JO, Jordan</woe_label>
        <latitude>31</latitude>
        <iso_a2>JO</iso_a2>
        <postal>AZ</postal>
        <type>Muhafazah</type>
        <id>JO.AZ</id>
      </desc>
    </path>
  </g>
</svg>