<?xml version="1.0" encoding="UTF-8"?>
<svg xmlns="http://www.w3.org/2000/svg" width="700" height="700">
  <g id="madagascar">
    <path d="M 449.0541 243.7127 447.8486 249.3385 447.4467 253.7588 444.232 261.3938 445.4375 269.8325 442.6246 275.4583 445.8394 279.4767 443.4283 285.9062 439.0081 289.1209 440.2136 291.532 445.0357 294.3448 446.2412 298.7651 444.232 303.9891 437.8025 303.9891 434.9896 305.1946 442.2228 314.0351 442.6246 319.2591 436.1952 323.2775 430.1675 324.0812 428.1583 331.3143 428.1583 341.7622 434.186 361.0507 434.186 370.6949 429.7657 371.9004 428.962 379.5354 420.5233 381.9465 422.1307 391.5907 417.7104 391.5907 415.7012 403.2441 408.0662 402.4404 404.4496 398.8238 400.4312 401.6367 393.5999 402.8423 395.2073 392.3944 399.2257 378.7317 398.8238 371.9004 397.2165 367.4801 399.2257 360.6488 399.2257 348.5936 401.6367 339.3512 402.4404 331.3143 404.0478 328.9033 401.2349 309.213 398.0201 305.5964 400.833 300.7743 402.4404 294.7467 405.6552 293.1393 406.4588 288.7191 408.8699 284.2988 407.2625 281.0841 413.2902 267.8233 412.4865 263.0012 410.0754 262.5993 407.2625 259.7864 407.2625 254.5625 401.2349 246.5256 399.6275 234.4704 400.4312 225.228 402.8423 221.2096 410.0754 222.0132 418.5141 220.8077 422.9344 224.0225 423.3362 226.0317 426.9528 225.6298 434.5878 232.4611 436.597 238.4888 434.9896 243.7127 437.4007 247.7311 445.0357 243.3109 449.0541 243.7127 Z" id="MG.7296" fill="#cee3f5" stroke="#6e6e6e" stroke-width="0.4">
      <desc>
        <labelrank>6</labelrank>
        <code_hasc>MG.</code_hasc>
        <name>Alaotra-Mangoro</name>
        <admin>Madagascar</admin>
        <type_en>Autonomous Province</type_en>
        <region/>
        <woe_id>2346149</woe_id>
        <longitude>48</longitude>
        <woe_name>Toamasina</woe_name>
        <fips>MA04</fips>
        <woe_label>Toamasina, MG, Madagascar</woe_label>
        <latitude>-17</latitude>
        <iso_a2>MG</iso_a2>
        <postal>TM</postal>
        <type>Faritany Mizakatena</type>
        <id>MG.7296</id>
      </desc>
    </path>
    <path d="M 387.1704 416.9067 385.1612 431.3731 389.9833 436.1952 385.1612 440.6154 381.5446 441.821 380.3391 451.867 376.7225 452.6707 374.3115 455.0818 373.5078 463.5204 367.4801 462.7168 365.8728 459.502 362.2562 458.2965 354.2193 461.1094 350.6028 466.3333 344.5751 466.3333 337.7438 461.5112 333.3235 454.6799 332.118 450.6615 327.6978 451.867 324.0812 450.6615 320.0628 452.6707 312.0259 460.3057 299.167 465.1278 292.7375 465.1278 293.5412 459.9039 293.5412 452.6707 294.3448 449.8578 296.3541 448.2504 294.7467 440.2136 296.3541 430.5694 293.5412 418.1123 295.1485 412.0846 292.7375 409.6736 293.5412 406.057 295.9522 408.0662 297.9614 407.2625 308.0075 410.0754 311.6241 416.5049 315.2406 412.8883 318.0535 415.2994 317.2499 417.3086 318.4554 419.7196 317.2499 421.327 318.4554 422.9344 321.6701 424.9436 325.2867 424.1399 330.1088 426.1491 333.7254 424.5417 338.1457 426.5509 345.7807 425.7473 351.0046 420.9252 353.8175 421.7288 361.4525 420.5233 362.2562 416.9067 364.2654 415.2994 365.8728 416.5049 369.0875 414.8975 374.3115 416.5049 376.3207 415.2994 377.5262 416.5049 384.3575 413.2902 384.3575 415.2994 387.1704 416.9067 Z" id="MG.7290" fill="#cee3f5" stroke="#6e6e6e" stroke-width="0.4">
      <desc>
        <labelrank>6</labelrank>
        <code_hasc>MG.</code_hasc>
        <name>Amoron'i Mania</name>
        <admin>Madagascar</admin>
        <type_en>Autonomous Province</type_en>
        <region/>
        <woe_id>2346147</woe_id>
        <longitude>46</longitude>
        <woe_name>Fianarantsoa</woe_name>
        <fips>MA02</fips>
        <woe_label>Fianarantsoa, MG, Madagascar</woe_label>
        <latitude>-20</latitude>
        <iso_a2>MG</iso_a2>
        <postal>FI</postal>
        <type>Faritany Mizakatena</type>
        <id>MG.7290</id>
      </desc>
    </path>
    <path d="M 398.0201 305.5964 401.2349 309.213 404.0478 328.9033 402.4404 331.3143 401.6367 339.3512 399.2257 348.5936 399.2257 360.6488 397.2165 367.4801 398.8238 371.9004 399.2257 378.7317 395.2073 392.3944 388.7778 387.1704 380.3391 383.152 381.5446 369.8912 375.9188 369.4893 373.9096 361.4525 367.882 351.0046 359.4433 347.7899 356.6304 345.3788 351.8083 337.7438 350.6028 330.5107 339.3512 316.848 334.9309 305.5964 333.7254 296.7559 348.1917 295.9522 349.3972 300.3725 353.8175 301.1762 355.8267 302.3817 358.2378 299.9706 363.8636 297.5596 368.2838 297.5596 371.9004 299.167 372.3022 301.578 375.517 304.7927 382.3483 305.9983 383.5538 307.6056 398.0201 305.5964 Z" id="MG.7287" fill="#cee3f5" stroke="#6e6e6e" stroke-width="0.4">
      <desc>
        <labelrank>6</labelrank>
        <code_hasc>MG.</code_hasc>
        <name>Analamanga</name>
        <admin>Madagascar</admin>
        <type_en>Autonomous Province</type_en>
        <region/>
        <woe_id>2346150</woe_id>
        <longitude>47</longitude>
        <woe_name>Antananarivo</woe_name>
        <fips>MA05</fips>
        <woe_label>Antananarivo, MG, Madagascar</woe_label>
        <latitude>-18</latitude>
        <iso_a2>MG</iso_a2>
        <postal>AV</postal>
        <type>Faritany Mizakatena</type>
        <id>MG.7287</id>
      </desc>
    </path>
    <path d="M 494.4623 265.0104 493.6586 266.2159 495.266 257.3754 501.2936 246.9275 503.7047 245.7219 494.4623 265.0104 Z M 484.0144 155.3074 486.8273 158.1203 489.6402 161.3351 490.042 162.1387 490.4439 162.5406 490.8457 162.1387 494.8641 160.9332 495.266 160.5314 495.6678 160.5314 496.4715 160.5314 499.2844 161.3351 499.6862 161.3351 500.4899 160.9332 500.8918 160.5314 501.2936 160.5314 501.6955 160.9332 502.0973 160.9332 502.0973 161.3351 503.3028 163.3443 506.5176 167.7645 506.1157 168.5682 505.7139 168.9701 504.5083 169.3719 504.1065 169.7737 503.7047 169.7737 503.7047 170.1756 503.7047 170.5774 504.1065 171.3811 505.7139 173.7922 504.5083 177.8106 506.5176 181.4272 505.312 185.0438 505.312 185.4456 505.312 186.6511 505.312 187.053 504.9102 189.0622 504.9102 189.464 506.1157 193.8843 506.5176 195.4917 506.5176 196.2953 507.7231 198.3045 507.7231 198.7064 507.7231 199.9119 509.7323 205.9396 510.1341 205.9396 508.9286 206.3414 505.7139 202.7248 504.9102 198.3045 502.4991 195.4917 502.901 191.0714 499.2844 187.4548 499.2844 180.2216 490.042 181.4272 486.0236 186.2493 487.2291 191.4732 486.4254 193.4824 490.4439 205.1359 487.631 212.369 488.4347 215.5838 495.6678 220.8077 494.4623 229.2464 496.0697 232.863 495.266 238.4888 488.8365 246.1238 488.8365 248.5348 490.8457 251.7496 494.4623 252.5533 482.407 256.5717 473.5665 275.4583 473.1647 279.0748 475.5757 287.1117 468.3425 287.9154 466.7352 291.532 466.3333 295.5504 460.3057 297.1577 446.2412 298.7651 445.0357 294.3448 440.2136 291.532 439.0081 289.1209 443.4283 285.9062 445.8394 279.4767 442.6246 275.4583 445.4375 269.8325 444.232 261.3938 447.4467 253.7588 447.8486 249.3385 449.0541 243.7127 452.2689 242.909 451.4652 240.498 455.0818 233.2648 459.502 230.8538 464.3241 221.6114 463.9223 218.7985 463.9223 218.3967 463.5204 218.3967 463.1186 217.9948 462.3149 217.9948 459.1002 217.593 453.8762 214.7801 455.8854 209.1543 459.1002 204.3322 456.6891 195.8935 458.6983 186.6511 458.2965 184.2401 459.9039 182.2309 460.3057 181.4272 460.3057 181.0253 455.8854 180.2216 455.0818 177.4088 455.0818 177.0069 455.0818 176.2032 455.4836 175.8014 456.2873 175.3995 458.2965 175.3995 458.6983 175.3995 459.1002 175.3995 459.502 175.3995 460.3057 175.3995 463.1186 174.194 463.9223 172.9885 464.3241 172.5866 464.726 172.5866 470.3518 170.1756 471.1554 170.1756 472.361 170.5774 473.1647 169.7737 473.5665 168.9701 473.1647 165.7553 473.5665 165.3535 474.772 165.7553 475.1739 166.1572 475.9775 166.1572 477.1831 164.9516 477.1831 161.7369 477.9868 159.3258 477.9868 158.924 477.5849 157.3166 477.9868 156.1111 480.7997 157.3166 481.2015 157.3166 481.6033 156.9148 482.8089 155.7093 482.8089 155.3074 483.2107 155.3074 483.6126 155.3074 484.0144 155.3074 Z" id="MG.987" fill="#cee3f5" stroke="#6e6e6e" stroke-width="0.4">
      <desc>
        <labelrank>6</labelrank>
        <code_hasc>MG.</code_hasc>
        <name>Analanjirofo</name>
        <admin>Madagascar</admin>
        <type_en>Autonomous Province</type_en>
        <region/>
        <woe_id>2346149</woe_id>
        <longitude>49</longitude>
        <woe_name>Toamasina</woe_name>
        <fips>MA04</fips>
        <woe_label>Toamasina, MG, Madagascar</woe_label>
        <latitude>-16</latitude>
        <iso_a2>MG</iso_a2>
        <postal>TM</postal>
        <type>Faritany Mizakatena</type>
        <id>MG.987</id>
      </desc>
    </path>
    <path d="M 313.2314 678.9079 291.532 689.3558 281.4859 696.9908 263.0012 699 259.3846 694.5797 254.5625 692.5705 247.7311 686.141 242.909 684.1318 244.9182 676.095 259.7864 662.4324 261.3938 654.7974 260.1883 639.5273 262.5993 633.4997 263.8048 623.8555 266.2159 617.0242 269.0288 613.0058 277.8693 611.3984 279.8785 617.426 285.5043 617.426 291.9338 619.4352 295.5504 622.65 293.1393 630.285 295.1485 635.9108 300.3725 640.7329 298.7651 653.5918 299.9706 666.4508 309.213 671.6747 313.2314 678.9079 Z" id="MG.997" fill="#cee3f5" stroke="#6e6e6e" stroke-width="0.4">
      <desc>
        <labelrank>4</labelrank>
        <code_hasc>MG.</code_hasc>
        <name>Androy</name>
        <admin>Madagascar</admin>
        <type_en>Autonomous Province</type_en>
        <region/>
        <woe_id>2346151</woe_id>
        <longitude>45</longitude>
        <woe_name>Toliary</woe_name>
        <fips>MA06</fips>
        <woe_label>Toliara, MG, Madagascar</woe_label>
        <latitude>-24</latitude>
        <iso_a2>MG</iso_a2>
        <postal>TL</postal>
        <type>Faritany Mizakatena</type>
        <id>MG.997</id>
      </desc>
    </path>
    <path d="M 325.6885 599.745 322.4738 607.7818 327.2959 613.0058 336.1364 616.6223 337.7438 622.2481 342.9678 623.8555 344.977 626.6684 344.977 632.2942 349.7991 631.0887 351.8083 627.4721 350.6028 621.8463 355.023 621.4444 355.4249 617.0242 359.4433 617.8279 369.8912 624.6592 367.0783 631.8923 364.6672 631.8923 363.8636 642.7421 358.2378 658.0121 355.023 661.2268 355.023 665.6471 353.8175 662.8342 353.0138 667.6563 347.388 672.4784 345.3788 671.2729 338.1457 676.8987 332.5199 678.1042 320.0628 677.3005 313.2314 678.9079 309.213 671.6747 299.9706 666.4508 298.7651 653.5918 300.3725 640.7329 295.1485 635.9108 293.1393 630.285 295.5504 622.65 291.9338 619.4352 285.5043 617.426 279.8785 617.426 277.8693 611.3984 280.2804 602.156 277.4675 595.7265 268.6269 596.5302 268.6269 590.1007 274.2527 580.8584 272.6454 571.616 275.0564 558.7571 293.5412 549.5147 302.7835 549.9165 312.4277 555.9442 320.4646 572.4197 324.8849 575.6344 325.2867 584.0731 322.4738 588.4934 326.0904 596.9321 325.6885 599.745 Z" id="MG.7285" fill="#cee3f5" stroke="#6e6e6e" stroke-width="0.4">
      <desc>
        <labelrank>4</labelrank>
        <code_hasc>MG.</code_hasc>
        <name>Anosy</name>
        <admin>Madagascar</admin>
        <type_en>Autonomous Province</type_en>
        <region/>
        <woe_id>2346151</woe_id>
        <longitude>46</longitude>
        <woe_name>Toliary</woe_name>
        <fips>MA06</fips>
        <woe_label>Toliara, MG, Madagascar</woe_label>
        <latitude>-24</latitude>
        <iso_a2>MG</iso_a2>
        <postal>TL</postal>
        <type>Faritany Mizakatena</type>
        <id>MG.7285</id>
      </desc>
    </path>
    <path d="M 292.7375 465.1278 291.1301 467.5389 291.532 475.5757 285.9062 478.3886 281.8877 485.2199 282.6914 493.6586 280.2804 497.677 276.6638 498.0789 275.4583 505.312 272.6454 508.1249 266.6177 509.7323 269.4306 515.3581 270.6362 522.1894 269.8325 526.2078 267.4214 528.6189 267.8233 532.2355 265.814 535.852 263.0012 537.0576 259.7864 542.6834 257.3754 549.1128 257.7772 552.3276 255.768 559.1589 256.9735 565.1865 259.7864 567.9994 265.814 568.4013 267.8233 572.0178 272.6454 571.616 274.2527 580.8584 268.6269 590.1007 268.6269 596.5302 277.4675 595.7265 280.2804 602.156 277.8693 611.3984 269.0288 613.0058 266.2159 617.0242 263.8048 623.8555 262.5993 633.4997 260.1883 639.5273 261.3938 654.7974 259.7864 662.4324 244.9182 676.095 242.909 684.1318 226.0317 681.7208 222.8169 676.4968 226.8353 679.7116 227.639 678.1042 220.4059 674.8895 217.593 672.0766 209.958 668.46 208.7524 661.6287 204.734 655.1992 204.734 649.1716 201.1174 643.1439 194.688 638.3218 193.0806 634.7052 192.6788 610.9965 190.6695 605.3708 191.4732 598.9413 196.2953 595.3247 195.4917 592.11 196.6972 589.6989 190.6695 583.6713 188.2585 570.0086 183.8382 566.3921 177.4088 558.3552 170.5774 528.217 171.783 526.2078 174.194 527.0115 174.5959 526.2078 174.194 523.3949 172.5866 523.3949 171.783 521.3857 172.1848 512.947 174.194 508.1249 174.5959 511.3397 175.3995 510.1341 176.2032 502.0973 180.2216 497.677 182.2309 498.0789 182.2309 484.4162 183.8382 479.5941 184.6419 480.3978 185.4456 479.5941 188.2585 482.407 189.464 486.0236 195.4917 492.4531 197.5009 499.2844 203.1267 508.1249 208.3506 509.7323 214.3782 505.312 217.9948 504.5083 220.4059 506.9194 222.4151 505.312 223.6206 507.3212 236.4796 502.901 240.8998 496.0697 240.8998 483.2107 243.3109 477.1831 249.7404 477.9868 252.9551 481.2015 258.179 481.6033 266.6177 472.361 277.0656 468.3425 283.0933 461.9131 293.5412 459.9039 292.7375 465.1278 Z" id="MG.7283" fill="#cee3f5" stroke="#6e6e6e" stroke-width="0.4">
      <desc>
        <labelrank>4</labelrank>
        <code_hasc>MG.</code_hasc>
        <name>Atsimo-Andrefana</name>
        <admin>Madagascar</admin>
        <type_en>Autonomous Province</type_en>
        <region/>
        <woe_id>2346151</woe_id>
        <longitude>44</longitude>
        <woe_name>Toliary</woe_name>
        <fips>MA06</fips>
        <woe_label>Toliara, MG, Madagascar</woe_label>
        <latitude>-23</latitude>
        <iso_a2>MG</iso_a2>
        <postal>TL</postal>
        <type>Faritany Mizakatena</type>
        <id>MG.7283</id>
      </desc>
    </path>
    <path d="M 392.7962 546.2999 389.9833 561.9718 385.1612 580.0547 379.1336 597.3339 378.3299 595.7265 377.1244 597.7358 379.1336 598.5394 379.1336 599.745 376.7225 610.5947 373.1059 619.0334 370.6949 620.2389 369.8912 624.6592 359.4433 617.8279 355.4249 617.0242 355.023 621.4444 350.6028 621.8463 351.8083 627.4721 349.7991 631.0887 344.977 632.2942 344.977 626.6684 342.9678 623.8555 337.7438 622.2481 336.1364 616.6223 327.2959 613.0058 322.4738 607.7818 325.6885 599.745 334.5291 602.156 338.5475 601.7542 342.1641 598.1376 343.7714 588.4934 341.3604 569.6068 342.1641 566.3921 346.1825 565.9902 356.2286 571.616 359.8451 572.0178 359.4433 553.9349 355.4249 545.4963 352.612 533.8428 350.2009 529.4226 353.8175 524.1986 356.2286 528.217 363.8636 532.2355 368.2838 532.6373 369.8912 531.0299 374.3115 533.441 375.9188 539.4686 381.9465 541.8797 387.9741 542.2815 392.7962 546.2999 Z" id="MG.7292" fill="#cee3f5" stroke="#6e6e6e" stroke-width="0.4">
      <desc>
        <labelrank>6</labelrank>
        <code_hasc>MG.</code_hasc>
        <name>Atsimo-Atsinanana</name>
        <admin>Madagascar</admin>
        <type_en>Autonomous Province</type_en>
        <region/>
        <woe_id>2346147</woe_id>
        <longitude>47</longitude>
        <woe_name>Fianarantsoa</woe_name>
        <fips>MA02</fips>
        <woe_label>Fianarantsoa, MG, Madagascar</woe_label>
        <latitude>-23</latitude>
        <iso_a2>MG</iso_a2>
        <postal>FI</postal>
        <type>Faritany Mizakatena</type>
        <id>MG.7292</id>
      </desc>
    </path>
    <path d="M 430.1675 435.3915 420.1215 433.3823 417.3086 428.962 412.8883 428.962 408.8699 424.9436 404.4496 432.9804 404.4496 435.7933 400.0294 434.186 389.9833 436.1952 385.1612 431.3731 387.1704 416.9067 389.5815 408.0662 393.5999 402.8423 400.4312 401.6367 404.4496 398.8238 408.0662 402.4404 415.7012 403.2441 417.7104 391.5907 422.1307 391.5907 420.5233 381.9465 428.962 379.5354 429.7657 371.9004 434.186 370.6949 434.186 361.0507 428.1583 341.7622 428.1583 331.3143 430.1675 324.0812 436.1952 323.2775 442.6246 319.2591 442.2228 314.0351 434.9896 305.1946 437.8025 303.9891 444.232 303.9891 446.2412 298.7651 460.3057 297.1577 466.3333 295.5504 466.7352 291.532 468.3425 287.9154 475.5757 287.1117 477.1831 298.3633 471.9591 315.6425 473.1647 320.0628 470.3518 323.6793 468.7444 333.7254 454.2781 366.6765 449.456 382.3483 443.0265 398.0201 439.4099 413.692 437.4007 412.4865 438.6062 416.1031 430.1675 435.3915 Z" id="MG.7297" fill="#cee3f5" stroke="#6e6e6e" stroke-width="0.4">
      <desc>
        <labelrank>6</labelrank>
        <code_hasc>MG.</code_hasc>
        <name>Atsinanana</name>
        <admin>Madagascar</admin>
        <type_en>Autonomous Province</type_en>
        <region/>
        <woe_id>2346149</woe_id>
        <longitude>48</longitude>
        <woe_name>Toamasina</woe_name>
        <fips>MA04</fips>
        <woe_label>Toamasina, MG, Madagascar</woe_label>
        <latitude>-18</latitude>
        <iso_a2>MG</iso_a2>
        <postal>TM</postal>
        <type>Faritany Mizakatena</type>
        <id>MG.7297</id>
      </desc>
    </path>
    <path d="M 399.6275 234.4704 401.2349 246.5256 407.2625 254.5625 407.2625 259.7864 410.0754 262.5993 412.4865 263.0012 413.2902 267.8233 407.2625 281.0841 408.8699 284.2988 406.4588 288.7191 405.6552 293.1393 402.4404 294.7467 400.833 300.7743 398.0201 305.5964 383.5538 307.6056 382.3483 305.9983 375.517 304.7927 372.3022 301.578 371.9004 299.167 368.2838 297.5596 363.8636 297.5596 358.2378 299.9706 355.8267 302.3817 353.8175 301.1762 349.3972 300.3725 348.1917 295.9522 333.7254 296.7559 331.7162 296.3541 313.2314 303.5872 312.0259 301.9799 309.213 302.3817 303.1854 299.9706 300.7743 294.3448 297.1577 290.7283 296.3541 286.7098 299.167 284.2988 298.3633 280.2804 284.2988 280.2804 279.4767 262.1975 279.8785 256.9735 289.1209 255.3661 294.7467 257.7772 305.1946 257.7772 310.8204 266.2159 316.4462 270.6362 319.2591 269.0288 322.072 263.0012 328.0996 257.3754 333.7254 256.1698 339.753 238.4888 353.8175 236.8814 359.8451 237.6851 369.8912 242.5072 371.4986 239.6943 369.0875 236.0777 363.8636 231.2556 371.0967 223.2188 379.9372 228.4427 385.563 228.4427 391.9925 232.4611 399.6275 234.4704 Z" id="MG.7294" fill="#cee3f5" stroke="#6e6e6e" stroke-width="0.4">
      <desc>
        <labelrank>6</labelrank>
        <code_hasc>MG.</code_hasc>
        <name>Betsiboka</name>
        <admin>Madagascar</admin>
        <type_en>Autonomous Province</type_en>
        <region/>
        <woe_id>2346148</woe_id>
        <longitude>47</longitude>
        <woe_name>Mahajanga</woe_name>
        <fips>MA03</fips>
        <woe_label>Mahajanga, MG, Madagascar</woe_label>
        <latitude>-17</latitude>
        <iso_a2>MG</iso_a2>
        <postal>MA</postal>
        <type>Faritany Mizakatena</type>
        <id>MG.7294</id>
      </desc>
    </path>
    <path d="M 362.2562 179.418 360.247 189.0622 363.8636 208.3506 370.6949 218.7985 371.0967 223.2188 363.8636 231.2556 369.0875 236.0777 371.4986 239.6943 369.8912 242.5072 359.8451 237.6851 353.8175 236.8814 339.753 238.4888 333.7254 256.1698 328.0996 257.3754 322.072 263.0012 319.2591 269.0288 316.4462 270.6362 310.8204 266.2159 305.1946 257.7772 294.7467 257.7772 289.1209 255.3661 279.8785 256.9735 277.4675 252.5533 272.6454 251.3477 268.2251 246.1238 267.8233 241.7035 256.5717 234.0685 253.3569 228.0409 252.9551 221.6114 249.3385 217.9948 257.3754 213.1727 262.1975 206.7432 268.6269 203.1267 270.2343 212.7709 275.4583 209.958 274.2527 205.9396 283.8969 204.3322 284.2988 209.1543 285.9062 209.5561 287.5135 201.5193 286.308 199.5101 288.3172 197.099 290.3264 195.8935 295.1485 197.9027 302.3817 195.4917 303.1854 199.1082 308.4093 200.3138 307.6056 198.3045 308.4093 195.8935 305.5964 197.9027 305.9983 196.6972 308.8112 193.4824 312.4277 192.2769 316.848 192.6788 317.2499 195.0898 315.2406 197.9027 321.2683 206.3414 321.6701 203.9303 324.0812 205.1359 324.0812 202.323 325.2867 202.323 328.0996 205.1359 326.8941 201.1174 324.0812 198.7064 320.0628 197.9027 322.8756 193.4824 320.0628 192.2769 321.6701 188.2585 329.3051 181.4272 329.3051 182.2309 335.3328 177.8106 338.9493 177.4088 336.9401 176.6051 337.342 175.3995 340.1549 174.9977 348.9954 167.7645 352.612 166.559 353.4157 166.559 354.6212 170.9793 358.6396 172.9885 355.4249 177.0069 352.612 184.6419 354.6212 181.829 362.2562 179.418 Z" id="MG.996" fill="#cee3f5" stroke="#6e6e6e" stroke-width="0.4">
      <desc>
        <labelrank>6</labelrank>
        <code_hasc>MG.</code_hasc>
        <name>Boeny</name>
        <admin>Madagascar</admin>
        <type_en>Autonomous Province</type_en>
        <region/>
        <woe_id>2346148</woe_id>
        <longitude>46</longitude>
        <woe_name>Mahajanga</woe_name>
        <fips>MA03</fips>
        <woe_label>Mahajanga, MG, Madagascar</woe_label>
        <latitude>-16</latitude>
        <iso_a2>MG</iso_a2>
        <postal>MA</postal>
        <type>Faritany Mizakatena</type>
        <id>MG.996</id>
      </desc>
    </path>
    <path d="M 333.7254 296.7559 334.9309 305.5964 339.3512 316.848 350.6028 330.5107 351.8083 337.7438 356.6304 345.3788 359.4433 347.7899 341.3604 346.1825 336.5383 346.5843 331.7162 351.0046 329.3051 360.247 312.0259 383.5538 303.1854 385.1612 294.7467 383.9557 295.9522 383.152 296.3541 379.9372 294.7467 372.7041 291.1301 373.5078 288.7191 371.4986 286.7098 368.2838 287.1117 365.4709 279.8785 357.0322 281.0841 353.4157 279.8785 346.5843 285.9062 340.5567 286.308 337.342 285.5043 329.707 286.308 327.6978 283.4951 324.483 285.9062 321.2683 293.1393 322.8756 295.1485 321.6701 295.5504 317.6517 300.7743 307.6056 303.1854 299.9706 309.213 302.3817 312.0259 301.9799 313.2314 303.5872 331.7162 296.3541 333.7254 296.7559 Z" id="MG.7286" fill="#cee3f5" stroke="#6e6e6e" stroke-width="0.4">
      <desc>
        <labelrank>6</labelrank>
        <code_hasc>MG.</code_hasc>
        <name>Bongolava</name>
        <admin>Madagascar</admin>
        <type_en>Autonomous Province</type_en>
        <region/>
        <woe_id>2346150</woe_id>
        <longitude>46</longitude>
        <woe_name>Antananarivo</woe_name>
        <fips>MA05</fips>
        <woe_label>Antananarivo, MG, Madagascar</woe_label>
        <latitude>-18</latitude>
        <iso_a2>MG</iso_a2>
        <postal>AV</postal>
        <type>Faritany Mizakatena</type>
        <id>MG.7286</id>
      </desc>
    </path>
    <path d="M 422.1307 67.304 423.7381 70.5187 422.5325 72.9298 424.1399 74.939 417.3086 74.939 415.7012 68.1077 420.1215 68.1077 420.1215 64.4911 422.1307 64.8929 422.1307 67.304 Z M 488.8365 38.7732 484.0144 43.5953 479.5941 48.0155 476.3794 52.4358 479.996 53.2395 480.7997 56.8561 477.9868 61.2763 477.1831 70.5187 473.9683 73.7334 477.1831 83.7795 473.1647 97.844 472.361 102.6661 467.137 103.8716 464.726 111.9085 460.3057 116.3287 453.8762 113.5158 453.4744 113.9177 452.6707 113.9177 452.2689 114.3195 450.6615 116.7306 449.456 117.1324 447.8486 117.9361 447.4467 118.7398 447.0449 118.7398 446.6431 118.7398 446.2412 117.5343 445.0357 115.9269 445.0357 115.525 444.6339 115.525 443.8302 115.9269 441.4191 116.3287 440.6154 116.3287 440.2136 116.3287 436.9988 113.5158 434.9896 112.7121 432.5786 110.3011 432.1767 109.8993 431.7749 109.8993 431.3731 109.8993 430.9712 109.8993 430.5694 110.7029 429.7657 110.7029 428.5602 111.5066 426.5509 111.9085 425.7473 112.3103 425.3454 112.3103 424.9436 112.3103 424.1399 111.9085 423.3362 111.5066 419.3178 109.0956 419.3178 108.6937 418.1123 107.0864 417.3086 106.2827 416.9067 106.2827 416.5049 106.6845 416.1031 107.0864 415.7012 107.0864 414.8975 106.6845 414.4957 106.2827 414.4957 105.8808 414.4957 105.0771 414.8975 103.8716 418.1123 100.255 418.5141 99.4514 418.1123 99.0495 416.9067 99.0495 415.2994 100.255 412.8883 101.4606 411.6828 102.2642 409.6736 103.0679 409.6736 103.4698 409.2717 103.4698 409.2717 103.8716 409.2717 104.2735 409.6736 105.0771 409.6736 105.479 409.2717 105.8808 407.6644 106.2827 407.6644 106.6845 408.0662 107.4882 408.0662 107.89 408.0662 108.2919 407.6644 108.2919 407.2625 108.6937 405.6552 108.2919 402.4404 105.8808 406.4588 103.0679 401.6367 100.255 399.6275 94.6292 400.0294 91.4145 402.0386 90.6108 400.4312 87.7979 401.6367 84.1813 403.6459 84.5832 405.2533 80.1629 406.057 80.9666 404.8515 82.1721 406.4588 84.1813 408.468 82.1721 407.2625 80.9666 409.2717 80.9666 410.8791 84.985 412.8883 84.985 415.2994 93.8256 419.3178 95.8348 422.9344 93.4237 422.5325 88.6016 423.7381 85.3869 422.5325 82.574 424.1399 82.574 425.7473 84.5832 427.3546 81.3685 430.5694 81.3685 430.5694 80.1629 432.5786 81.3685 430.1675 75.7427 430.1675 73.3316 432.1767 75.7427 436.1952 77.7519 441.4191 76.9482 445.0357 74.5371 448.2504 68.1077 447.0449 64.0892 448.6523 58.8653 453.4744 51.2303 454.2781 45.2026 449.8578 36.764 451.0633 32.7455 448.6523 32.7455 445.4375 25.9142 445.4375 26.7179 443.4283 25.9142 445.0357 23.905 449.456 24.7087 451.867 28.7271 454.2781 28.3253 456.2873 20.6903 458.2965 20.2884 460.3057 17.8774 461.1094 19.0829 463.1186 16.27 464.726 16.6718 465.1278 13.0553 467.137 11.4479 464.3241 9.0368 461.9131 8.635 465.5296 6.2239 468.3425 9.4387 468.3425 7.0276 466.3333 6.2239 470.3518 1 473.1647 3.4111 474.772 8.635 475.9775 14.2608 473.9683 11.8497 471.5573 13.0553 470.3518 11.0461 468.7444 15.4663 471.9591 16.27 471.1554 18.6811 472.7628 17.0737 473.1647 19.0829 474.772 19.4847 476.3794 15.4663 479.996 23.1013 482.0052 21.8958 484.0144 23.5032 484.0144 25.1105 481.6033 25.1105 483.6126 26.7179 485.2199 25.9142 486.4254 28.7271 485.2199 37.1658 485.6218 37.9695 487.2291 37.5676 487.631 37.9695 488.8365 38.7732 Z" id="MG.993" fill="#cee3f5" stroke="#6e6e6e" stroke-width="0.4">
      <desc>
        <labelrank>7</labelrank>
        <code_hasc>MG.</code_hasc>
        <name>Diana</name>
        <admin>Madagascar</admin>
        <type_en>Autonomous Province</type_en>
        <region/>
        <woe_id>2346146</woe_id>
        <longitude>49</longitude>
        <woe_name>Antsiranana</woe_name>
        <fips>MA01</fips>
        <woe_label>Antsiranana, MG, Madagascar</woe_label>
        <latitude>-13</latitude>
        <iso_a2>MG</iso_a2>
        <postal>AS</postal>
        <type>Faritany Mizakatena</type>
        <id>MG.993</id>
      </desc>
    </path>
    <path d="M 373.5078 463.5204 369.0875 478.7904 371.9004 487.2291 366.6765 509.7323 365.0691 513.3489 366.6765 517.3673 353.8175 524.1986 350.2009 529.4226 344.5751 526.6097 328.9033 525.806 325.2867 521.3857 322.4738 510.536 314.0351 505.7139 305.1946 503.3028 287.5135 502.4991 280.2804 497.677 282.6914 493.6586 281.8877 485.2199 285.9062 478.3886 291.532 475.5757 291.1301 467.5389 292.7375 465.1278 299.167 465.1278 312.0259 460.3057 320.0628 452.6707 324.0812 450.6615 327.6978 451.867 332.118 450.6615 333.3235 454.6799 337.7438 461.5112 344.5751 466.3333 350.6028 466.3333 354.2193 461.1094 362.2562 458.2965 365.8728 459.502 367.4801 462.7168 373.5078 463.5204 Z" id="MG.995" fill="#cee3f5" stroke="#6e6e6e" stroke-width="0.4">
      <desc>
        <labelrank>6</labelrank>
        <code_hasc>MG.</code_hasc>
        <name>Haute Matsiatra</name>
        <admin>Madagascar</admin>
        <type_en>Autonomous Province</type_en>
        <region/>
        <woe_id>2346147</woe_id>
        <longitude>46</longitude>
        <woe_name>Fianarantsoa</woe_name>
        <fips>MA02</fips>
        <woe_label>Fianarantsoa, MG, Madagascar</woe_label>
        <latitude>-21</latitude>
        <iso_a2>MG</iso_a2>
        <postal>FI</postal>
        <type>Faritany Mizakatena</type>
        <id>MG.995</id>
      </desc>
    </path>
    <path d="M 350.2009 529.4226 352.612 533.8428 355.4249 545.4963 359.4433 553.9349 359.8451 572.0178 356.2286 571.616 346.1825 565.9902 342.1641 566.3921 341.3604 569.6068 343.7714 588.4934 342.1641 598.1376 338.5475 601.7542 334.5291 602.156 325.6885 599.745 326.0904 596.9321 322.4738 588.4934 325.2867 584.0731 324.8849 575.6344 320.4646 572.4197 312.4277 555.9442 302.7835 549.9165 293.5412 549.5147 275.0564 558.7571 272.6454 571.616 267.8233 572.0178 265.814 568.4013 259.7864 567.9994 256.9735 565.1865 255.768 559.1589 257.7772 552.3276 257.3754 549.1128 259.7864 542.6834 263.0012 537.0576 265.814 535.852 267.8233 532.2355 267.4214 528.6189 269.8325 526.2078 270.6362 522.1894 269.4306 515.3581 266.6177 509.7323 272.6454 508.1249 275.4583 505.312 276.6638 498.0789 280.2804 497.677 287.5135 502.4991 305.1946 503.3028 314.0351 505.7139 322.4738 510.536 325.2867 521.3857 328.9033 525.806 344.5751 526.6097 350.2009 529.4226 Z" id="MG.7289" fill="#cee3f5" stroke="#6e6e6e" stroke-width="0.4">
      <desc>
        <labelrank>6</labelrank>
        <code_hasc>MG.</code_hasc>
        <name>Ihorombe</name>
        <admin>Madagascar</admin>
        <type_en>Autonomous Province</type_en>
        <region/>
        <woe_id>2346147</woe_id>
        <longitude>46</longitude>
        <woe_name>Fianarantsoa</woe_name>
        <fips>MA02</fips>
        <woe_label>Fianarantsoa, MG, Madagascar</woe_label>
        <latitude>-22</latitude>
        <iso_a2>MG</iso_a2>
        <postal>FI</postal>
        <type>Faritany Mizakatena</type>
        <id>MG.7289</id>
      </desc>
    </path>
    <path d="M 359.4433 347.7899 367.882 351.0046 373.9096 361.4525 375.9188 369.4893 374.3115 374.7133 369.0875 377.928 355.8267 376.3207 354.2193 373.9096 348.5936 373.1059 342.5659 374.3115 336.5383 378.3299 332.118 382.7501 328.5014 383.152 323.6793 381.9465 312.0259 383.5538 329.3051 360.247 331.7162 351.0046 336.5383 346.5843 341.3604 346.1825 359.4433 347.7899 Z" id="MG.994" fill="#cee3f5" stroke="#6e6e6e" stroke-width="0.4">
      <desc>
        <labelrank>6</labelrank>
        <code_hasc>MG.</code_hasc>
        <name>Itasy</name>
        <admin>Madagascar</admin>
        <type_en>Autonomous Province</type_en>
        <region/>
        <woe_id>2346150</woe_id>
        <longitude>46</longitude>
        <woe_name>Antananarivo</woe_name>
        <fips>MA05</fips>
        <woe_label>Antananarivo, MG, Madagascar</woe_label>
        <latitude>-18</latitude>
        <iso_a2>MG</iso_a2>
        <postal>AV</postal>
        <type>Faritany Mizakatena</type>
        <id>MG.994</id>
      </desc>
    </path>
    <path d="M 249.3385 217.9948 252.9551 221.6114 253.3569 228.0409 256.5717 234.0685 267.8233 241.7035 268.2251 246.1238 272.6454 251.3477 277.4675 252.5533 279.8785 256.9735 279.4767 262.1975 284.2988 280.2804 298.3633 280.2804 299.167 284.2988 296.3541 286.7098 297.1577 290.7283 300.7743 294.3448 303.1854 299.9706 300.7743 307.6056 295.5504 317.6517 295.1485 321.6701 293.1393 322.8756 285.9062 321.2683 283.4951 324.483 280.6822 325.6885 277.8693 323.2775 274.6546 324.8849 266.6177 320.8664 261.7956 322.072 257.3754 319.2591 246.5256 328.5014 250.544 336.5383 253.3569 347.7899 255.768 351.0046 254.9643 356.6304 258.179 364.2654 257.3754 368.2838 260.5901 371.9004 260.5901 373.1059 256.9735 374.3115 252.5533 373.1059 250.1422 375.9188 247.3293 376.7225 242.5072 374.7133 234.4704 374.3115 229.6482 369.4893 226.0317 369.8912 220.004 368.2838 217.9948 363.8636 219.2003 351.0046 215.5838 340.9585 208.7524 330.1088 208.3506 319.6609 206.3414 306.4001 207.9488 297.9614 202.7248 289.1209 203.1267 283.4951 206.7432 275.4583 207.9488 275.4583 213.1727 267.0196 213.5746 263.403 215.1819 263.403 217.9948 256.9735 227.2372 242.909 226.4335 236.4796 227.2372 234.8722 227.639 236.0777 228.4427 234.8722 228.8446 232.0593 225.6298 224.4243 227.639 221.6114 228.0409 217.1911 232.4611 215.9856 245.3201 216.7893 248.133 218.7985 249.3385 217.9948 Z" id="MG.7293" fill="#cee3f5" stroke="#6e6e6e" stroke-width="0.4">
      <desc>
        <labelrank>6</labelrank>
        <code_hasc>MG.</code_hasc>
        <name>Melaky</name>
        <admin>Madagascar</admin>
        <type_en>Autonomous Province</type_en>
        <region/>
        <woe_id>2346148</woe_id>
        <longitude>44</longitude>
        <woe_name>Mahajanga</woe_name>
        <fips>MA03</fips>
        <woe_label>Mahajanga, MG, Madagascar</woe_label>
        <latitude>-17</latitude>
        <iso_a2>MG</iso_a2>
        <postal>MA</postal>
        <type>Faritany Mizakatena</type>
        <id>MG.7293</id>
      </desc>
    </path>
    <path d="M 283.4951 324.483 286.308 327.6978 285.5043 329.707 286.308 337.342 285.9062 340.5567 279.8785 346.5843 281.0841 353.4157 279.8785 357.0322 287.1117 365.4709 286.7098 368.2838 288.7191 371.4986 291.1301 373.5078 294.7467 372.7041 296.3541 379.9372 295.9522 383.152 294.7467 383.9557 294.3448 389.1796 297.1577 398.422 293.5412 406.057 292.7375 409.6736 295.1485 412.0846 293.5412 418.1123 296.3541 430.5694 294.7467 440.2136 296.3541 448.2504 294.3448 449.8578 293.5412 452.6707 293.5412 459.9039 283.0933 461.9131 277.0656 468.3425 266.6177 472.361 258.179 481.6033 252.9551 481.2015 249.7404 477.9868 243.3109 477.1831 240.8998 483.2107 240.8998 496.0697 236.4796 502.901 223.6206 507.3212 222.4151 505.312 220.4059 506.9194 217.9948 504.5083 214.3782 505.312 208.3506 509.7323 203.1267 508.1249 197.5009 499.2844 195.4917 492.4531 189.464 486.0236 188.2585 482.407 185.4456 479.5941 187.4548 477.5849 194.688 477.9868 198.3045 475.1739 202.7248 457.4928 205.5377 451.4652 209.1543 449.456 213.1727 437.8025 214.3782 436.1952 214.7801 437.4007 219.6022 431.3731 219.6022 427.7565 223.2188 420.9252 230.0501 411.2809 230.0501 406.057 224.8261 400.4312 226.8353 396.8146 226.4335 391.9925 230.4519 387.5723 230.0501 385.563 228.4427 380.7409 220.004 368.2838 226.0317 369.8912 229.6482 369.4893 234.4704 374.3115 242.5072 374.7133 247.3293 376.7225 250.1422 375.9188 252.5533 373.1059 256.9735 374.3115 260.5901 373.1059 260.5901 371.9004 257.3754 368.2838 258.179 364.2654 254.9643 356.6304 255.768 351.0046 253.3569 347.7899 250.544 336.5383 246.5256 328.5014 257.3754 319.2591 261.7956 322.072 266.6177 320.8664 274.6546 324.8849 277.8693 323.2775 280.6822 325.6885 283.4951 324.483 Z" id="MG.7284" fill="#cee3f5" stroke="#6e6e6e" stroke-width="0.4">
      <desc>
        <labelrank>4</labelrank>
        <code_hasc>MG.</code_hasc>
        <name>Menabe</name>
        <admin>Madagascar</admin>
        <type_en>Autonomous Province</type_en>
        <region/>
        <woe_id>2346151</woe_id>
        <longitude>45</longitude>
        <woe_name>Toliary</woe_name>
        <fips>MA06</fips>
        <woe_label>Toliara, MG, Madagascar</woe_label>
        <latitude>-20</latitude>
        <iso_a2>MG</iso_a2>
        <postal>TL</postal>
        <type>Faritany Mizakatena</type>
        <id>MG.7284</id>
      </desc>
    </path>
    <path d="M 484.0144 155.3074 478.7904 147.6724 475.9775 138.8319 473.5665 135.6172 474.772 132.0006 463.5204 121.5527 460.3057 116.3287 464.726 111.9085 467.137 103.8716 472.361 102.6661 473.1647 97.844 477.1831 83.7795 473.9683 73.7334 477.1831 70.5187 477.9868 61.2763 480.7997 56.8561 479.996 53.2395 476.3794 52.4358 479.5941 48.0155 484.0144 43.5953 488.8365 38.7732 489.6402 39.9787 490.8457 43.1934 489.6402 45.6045 491.2476 45.6045 492.8549 42.3898 494.0604 42.3898 497.2752 45.6045 497.677 48.8192 500.4899 50.0248 499.6862 52.034 502.0973 54.0432 503.7047 57.6598 503.7047 67.304 505.312 69.715 505.312 73.7334 508.1249 74.5371 508.5268 81.3685 513.3489 96.2366 514.5544 111.9085 513.7507 119.1416 516.1618 122.3564 514.9562 129.9914 516.9655 144.0558 515.3581 146.0651 518.171 148.4761 522.1894 160.9332 529.4226 172.1848 528.217 182.2309 525.4041 190.2677 520.582 200.7156 514.9562 208.7524 511.7415 209.5561 510.9378 207.1451 510.1341 205.9396 509.7323 205.9396 507.7231 199.9119 507.7231 198.7064 507.7231 198.3045 506.5176 196.2953 506.5176 195.4917 506.1157 193.8843 504.9102 189.464 504.9102 189.0622 505.312 187.053 505.312 186.6511 505.312 185.4456 505.312 185.0438 506.5176 181.4272 504.5083 177.8106 505.7139 173.7922 504.1065 171.3811 503.7047 170.5774 503.7047 170.1756 503.7047 169.7737 504.1065 169.7737 504.5083 169.3719 505.7139 168.9701 506.1157 168.5682 506.5176 167.7645 503.3028 163.3443 502.0973 161.3351 502.0973 160.9332 501.6955 160.9332 501.2936 160.5314 500.8918 160.5314 500.4899 160.9332 499.2844 161.3351 496.4715 160.5314 495.6678 160.5314 495.266 160.5314 494.8641 160.9332 490.8457 162.1387 490.4439 162.5406 490.042 162.1387 489.6402 161.3351 486.8273 158.1203 484.0144 155.3074 Z" id="MG.7298" fill="#cee3f5" stroke="#6e6e6e" stroke-width="0.4">
      <desc>
        <labelrank>7</labelrank>
        <code_hasc>MG.</code_hasc>
        <name>Sava</name>
        <admin>Madagascar</admin>
        <type_en>Autonomous Province</type_en>
        <region/>
        <woe_id>2346146</woe_id>
        <longitude>49</longitude>
        <woe_name>Antsiranana</woe_name>
        <fips>MA01</fips>
        <woe_label>Antsiranana, MG, Madagascar</woe_label>
        <latitude>-14</latitude>
        <iso_a2>MG</iso_a2>
        <postal>AS</postal>
        <type>Faritany Mizakatena</type>
        <id>MG.7298</id>
      </desc>
    </path>
    <path d="M 460.3057 116.3287 463.5204 121.5527 474.772 132.0006 473.5665 135.6172 475.9775 138.8319 478.7904 147.6724 484.0144 155.3074 483.6126 155.3074 483.2107 155.3074 482.8089 155.3074 482.8089 155.7093 481.6033 156.9148 481.2015 157.3166 480.7997 157.3166 477.9868 156.1111 477.5849 157.3166 477.9868 158.924 477.9868 159.3258 477.1831 164.9516 477.1831 165.3535 475.9775 166.1572 475.1739 166.1572 474.772 165.7553 473.5665 165.3535 473.1647 165.7553 472.361 170.5774 470.3518 170.1756 467.5389 172.1848 464.726 172.5866 464.3241 172.5866 463.9223 172.9885 463.1186 174.194 460.3057 175.3995 459.502 175.3995 459.1002 175.3995 458.6983 175.3995 458.2965 175.3995 456.2873 175.3995 455.4836 175.8014 455.0818 176.2032 455.0818 177.0069 455.0818 177.4088 455.8854 180.2216 460.3057 181.4272 459.9039 182.2309 458.6983 183.4364 458.2965 184.2401 456.6891 195.8935 459.1002 204.3322 455.8854 209.1543 453.8762 214.7801 459.1002 217.593 462.3149 217.9948 463.1186 217.9948 463.5204 218.3967 463.9223 218.3967 463.9223 218.7985 464.3241 221.6114 459.502 230.8538 455.0818 233.2648 451.4652 240.498 452.2689 242.909 449.0541 243.7127 445.0357 243.3109 437.4007 247.7311 434.9896 243.7127 436.597 238.4888 434.5878 232.4611 426.9528 225.6298 423.3362 226.0317 422.9344 224.0225 418.5141 220.8077 410.0754 222.0132 402.8423 221.2096 400.4312 225.228 399.6275 234.4704 391.9925 232.4611 385.563 228.4427 379.9372 228.4427 371.0967 223.2188 370.6949 218.7985 363.8636 208.3506 360.247 189.0622 362.2562 179.418 363.8636 179.8198 366.6765 177.8106 364.6672 176.6051 363.0599 171.3811 360.6488 172.1848 361.0507 169.7737 359.4433 169.3719 357.8359 166.1572 359.4433 163.3443 365.4709 158.924 367.0783 154.9056 373.5078 150.8872 373.5078 148.4761 370.6949 150.0835 369.0875 148.4761 377.5262 139.6356 378.3299 139.2337 379.9372 141.6448 379.9372 145.6632 380.7409 147.2706 375.9188 154.9056 375.517 160.9332 376.3207 162.1387 379.1336 160.5314 381.1428 156.513 383.152 155.7093 387.5723 144.4577 395.2073 134.4116 398.0201 138.4301 400.833 139.6356 401.2349 142.0466 402.0386 140.0374 400.833 138.4301 403.6459 137.6264 405.2533 144.8595 406.057 143.2522 405.6552 138.0282 401.6367 134.8135 398.0201 136.019 395.2073 133.6079 392.7962 136.4208 391.1888 133.2061 391.9925 132.4024 390.3851 125.9729 394.8054 116.7306 398.422 118.3379 402.4404 117.5343 403.2441 115.1232 400.833 110.7029 401.6367 109.8993 406.057 112.7121 404.0478 120.3472 405.2533 122.3564 407.2625 119.1416 406.057 116.3287 408.0662 112.3103 407.2625 108.6937 407.6644 108.2919 408.0662 108.2919 408.0662 107.89 408.0662 107.4882 407.6644 106.6845 407.6644 106.2827 409.2717 105.8808 409.6736 105.479 409.6736 105.0771 409.6736 104.6753 409.2717 104.2735 409.2717 103.8716 409.2717 103.4698 409.6736 103.4698 409.6736 103.0679 411.6828 102.2642 418.1123 99.0495 418.5141 99.4514 418.1123 100.255 414.8975 103.8716 414.4957 105.0771 414.4957 105.8808 414.4957 106.2827 414.8975 106.6845 415.2994 106.6845 415.7012 107.0864 416.1031 107.0864 416.5049 106.6845 416.9067 106.2827 417.3086 106.2827 418.1123 107.0864 419.3178 108.6937 421.327 109.8993 423.3362 111.5066 424.1399 111.9085 424.9436 112.3103 425.3454 112.3103 425.7473 112.3103 426.5509 111.9085 428.5602 111.5066 429.7657 110.7029 430.5694 110.7029 430.9712 109.8993 431.3731 109.8993 431.7749 109.8993 432.1767 109.8993 432.5786 110.3011 434.9896 112.7121 436.9988 113.5158 440.2136 116.3287 440.6154 116.3287 441.4191 116.3287 442.6246 115.9269 443.8302 115.9269 444.6339 115.525 445.0357 115.525 445.0357 115.9269 446.2412 117.5343 446.6431 118.3379 446.6431 118.7398 447.0449 118.7398 447.4467 118.7398 447.8486 117.9361 449.456 117.1324 450.6615 116.7306 452.2689 114.3195 452.6707 113.9177 453.4744 113.9177 453.8762 113.5158 460.3057 116.3287 Z" id="MG.7295" fill="#cee3f5" stroke="#6e6e6e" stroke-width="0.4">
      <desc>
        <labelrank>6</labelrank>
        <code_hasc>MG.</code_hasc>
        <name>Sofia</name>
        <admin>Madagascar</admin>
        <type_en>Autonomous Province</type_en>
        <region/>
        <woe_id>2346148</woe_id>
        <longitude>48</longitude>
        <woe_name>Mahajanga</woe_name>
        <fips>MA03</fips>
        <woe_label>Mahajanga, MG, Madagascar</woe_label>
        <latitude>-15</latitude>
        <iso_a2>MG</iso_a2>
        <postal>MA</postal>
        <type>Faritany Mizakatena</type>
        <id>MG.7295</id>
      </desc>
    </path>
    <path d="M 395.2073 392.3944 393.5999 402.8423 389.5815 408.0662 387.1704 416.9067 384.3575 415.2994 384.3575 413.2902 377.5262 416.5049 376.3207 415.2994 374.3115 416.5049 369.0875 414.8975 365.8728 416.5049 364.2654 415.2994 362.2562 416.9067 361.4525 420.5233 353.8175 421.7288 351.0046 420.9252 345.7807 425.7473 338.1457 426.5509 333.7254 424.5417 330.1088 426.1491 325.2867 424.1399 321.6701 424.9436 318.4554 422.9344 317.2499 421.327 318.4554 419.7196 317.2499 417.3086 318.0535 415.2994 315.2406 412.8883 311.6241 416.5049 308.0075 410.0754 297.9614 407.2625 295.9522 408.0662 293.5412 406.057 297.1577 398.422 294.3448 389.1796 294.7467 383.9557 303.1854 385.1612 312.0259 383.5538 323.6793 381.9465 328.5014 383.152 332.118 382.7501 336.5383 378.3299 342.5659 374.3115 348.5936 373.1059 354.2193 373.9096 355.8267 376.3207 369.0875 377.928 374.3115 374.7133 375.9188 369.4893 381.5446 369.8912 380.3391 383.152 388.7778 387.1704 395.2073 392.3944 Z" id="MG.7288" fill="#cee3f5" stroke="#6e6e6e" stroke-width="0.4">
      <desc>
        <labelrank>6</labelrank>
        <code_hasc>MG.</code_hasc>
        <name>Vakinankaratra</name>
        <admin>Madagascar</admin>
        <type_en>Autonomous Province</type_en>
        <region/>
        <woe_id>2346150</woe_id>
        <longitude>46</longitude>
        <woe_name>Antananarivo</woe_name>
        <fips>MA05</fips>
        <woe_label>Antananarivo, MG, Madagascar</woe_label>
        <latitude>-19</latitude>
        <iso_a2>MG</iso_a2>
        <postal>AV</postal>
        <type>Faritany Mizakatena</type>
        <id>MG.7288</id>
      </desc>
    </path>
    <path d="M 430.1675 435.3915 420.5233 463.9223 421.7288 464.3241 421.7288 465.9315 416.9067 483.2107 408.8699 505.7139 396.0109 533.8428 392.7962 546.2999 387.9741 542.2815 381.9465 541.8797 375.9188 539.4686 374.3115 533.441 369.8912 531.0299 368.2838 532.6373 363.8636 532.2355 356.2286 528.217 353.8175 524.1986 366.6765 517.3673 365.0691 513.3489 366.6765 509.7323 371.9004 487.2291 369.0875 478.7904 373.5078 463.5204 374.3115 455.0818 376.7225 452.6707 380.3391 451.867 381.5446 441.821 385.1612 440.6154 389.9833 436.1952 400.0294 434.186 404.4496 435.7933 404.4496 432.9804 408.8699 424.9436 412.8883 428.962 417.3086 428.962 420.1215 433.3823 430.1675 435.3915 Z" id="MG.7291" fill="#cee3f5" stroke="#6e6e6e" stroke-width="0.4">
      <desc>
        <labelrank>6</labelrank>
        <code_hasc>MG.</code_hasc>
        <name>Vatovavy-Fitovinany</name>
        <admin>Madagascar</admin>
        <type_en>Autonomous Province</type_en>
        <region/>
        <woe_id>2346147</woe_id>
        <longitude>47</longitude>
        <woe_name>Fianarantsoa</woe_name>
        <fips>MA02</fips>
        <woe_label>Fianarantsoa, MG, Madagascar</woe_label>
        <latitude>-21</latitude>
        <iso_a2>MG</iso_a2>
        <postal>FI</postal>
        <type>Faritany Mizakatena</type>
        <id>MG.7291</id>
      </desc>
    </path>
  </g>
</svg>