<?xml version="1.0" encoding="UTF-8"?>
<svg xmlns="http://www.w3.org/2000/svg" width="700" height="700">
  <g id="angola">
    <path d="M 554.2767 204.1819 548.5841 208.5609 539.3883 211.1882 535.8852 214.2535 529.3168 216.005 515.3043 215.5671 504.7949 219.946 496.9128 227.3902 491.6581 236.1481 478.0834 241.8407 474.1424 248.8469 465.8225 251.9122 456.1888 259.7942 453.1236 274.6826 449.1826 279.4994 445.6794 281.6888 429.0395 286.9435 411.0859 297.8908 399.7008 300.0803 390.0671 306.6487 377.3683 306.6487 378.244 307.0866 373.4272 307.0866 364.6694 300.0803 363.7936 296.1393 367.7346 289.133 367.2967 286.9435 337.0822 275.9962 334.0169 271.1794 329.638 268.99 325.2591 264.611 321.3181 251.9122 323.5075 250.1606 331.3896 247.0954 334.0169 240.9649 333.1412 233.0828 334.8927 217.7566 331.3896 208.5609 334.0169 201.9925 332.7033 198.9272 332.7033 192.7967 331.3896 191.0452 331.8275 188.4178 336.6443 189.2936 341.0232 187.9799 344.9642 188.4178 348.9053 186.6662 354.5979 189.7315 360.2905 190.1694 360.2905 187.542 361.6041 185.7905 365.5452 184.4768 374.303 185.3526 381.3093 184.4768 381.7472 181.4115 393.1324 181.4115 394.8839 184.9147 424.2227 185.3526 423.3469 180.0979 425.9743 170.0263 424.6606 163.458 429.0395 163.458 432.5427 158.6412 430.7911 150.3212 431.6669 142.0013 434.2942 136.7465 433.4184 134.1192 472.8287 134.5571 474.1424 130.6161 489.0307 130.6161 484.6518 142.0013 484.2139 149.4454 549.8977 150.7591 552.0872 157.7654 552.0872 165.6474 547.7083 177.0326 546.8325 186.6662 551.6493 194.1104 552.5251 200.2409 554.2767 204.1819 Z" id="AO.LN" fill="#cee3f5" stroke="#6e6e6e" stroke-width="0.4">
      <desc>
        <labelrank>4</labelrank>
        <code_hasc>AO.LN</code_hasc>
        <name>Lunda Norte</name>
        <admin>Angola</admin>
        <type_en>Province</type_en>
        <region/>
        <woe_id>2344671</woe_id>
        <longitude>19</longitude>
        <woe_name>Lunda Norte</woe_name>
        <fips>AO17</fips>
        <woe_label/>
        <latitude>-8</latitude>
        <iso_a2>AO</iso_a2>
        <postal>LN</postal>
        <type>Província</type>
        <id>AO.LN</id>
      </desc>
    </path>
    <path d="M 554.2767 204.1819 553.8388 204.6198 556.0282 210.3124 554.2767 216.4429 555.5903 216.8808 551.2114 230.4555 550.3356 250.1606 547.2704 258.9184 551.6493 271.6173 555.1524 277.3099 556.904 276.4341 557.3419 279.9373 560.4072 283.0025 565.224 286.0678 567.4134 296.5772 572.6681 308.8381 570.4787 314.5307 572.2302 321.0991 568.7271 321.9749 560.845 319.7854 559.0935 321.0991 545.9567 321.537 543.7673 325.478 543.3294 331.1706 539.8262 334.6738 538.5125 340.3664 540.702 343.4316 540.702 347.3726 535.0094 349.5621 530.6305 349.1242 528.8789 350.4379 516.6179 353.941 512.6769 359.1957 506.9843 360.9473 506.9843 364.0125 492.096 362.261 475.4561 353.0652 470.6393 353.5031 464.0709 349.5621 459.692 353.5031 453.1236 352.1895 450.9341 353.941 446.9931 351.3137 441.3005 354.3789 436.0458 351.3137 432.9806 351.7516 429.4774 356.1305 424.2227 359.1957 418.5301 358.7578 413.7133 361.3852 416.3407 353.0652 415.4649 350.8758 408.8965 348.2484 392.6945 335.9875 386.1261 326.3538 384.8124 321.537 387.4398 320.6612 387.8777 316.7202 386.564 314.9686 383.4987 314.5307 381.3093 309.7139 378.6819 309.276 379.5577 308.4003 378.244 307.0866 377.3683 306.6487 390.0671 306.6487 399.7008 300.0803 411.0859 297.8908 429.0395 286.9435 445.6794 281.6888 449.1826 279.4994 453.1236 274.6826 456.1888 259.7942 465.8225 251.9122 474.1424 248.8469 478.0834 241.8407 491.6581 236.1481 496.9128 227.3902 504.7949 219.946 515.3043 215.5671 529.3168 216.005 535.8852 214.2535 539.3883 211.1882 548.5841 208.5609 554.2767 204.1819 Z" id="AO.LS" fill="#cee3f5" stroke="#6e6e6e" stroke-width="0.4">
      <desc>
        <labelrank>4</labelrank>
        <code_hasc>AO.LS</code_hasc>
        <name>Lunda Sul</name>
        <admin>Angola</admin>
        <type_en>Province</type_en>
        <region/>
        <woe_id>2344672</woe_id>
        <longitude>20</longitude>
        <woe_name>Lunda Sul</woe_name>
        <fips>AO18</fips>
        <woe_label>Lunda Sul, AO, Angola</woe_label>
        <latitude>-10</latitude>
        <iso_a2>AO</iso_a2>
        <postal>LS</postal>
        <type>Província</type>
        <id>AO.LS</id>
      </desc>
    </path>
    <path d="M 309.9329 152.5107 310.8087 155.138 311.6844 154.2622 313.8739 155.138 312.5602 157.3275 316.0634 163.0201 319.5665 165.2095 320.8802 171.7779 327.8864 178.3463 327.0107 180.0979 331.8275 185.3526 331.8275 188.4178 331.3896 191.0452 332.7033 192.7967 332.7033 198.9272 334.0169 201.9925 331.3896 208.5609 334.8927 217.7566 333.1412 233.0828 334.0169 240.9649 331.3896 247.0954 323.5075 250.1606 321.3181 251.9122 325.2591 264.611 329.638 268.99 334.0169 271.1794 337.0822 275.9962 367.2967 286.9435 367.7346 289.133 363.7936 296.1393 364.6694 300.0803 373.4272 307.0866 378.244 307.0866 379.5577 308.4003 378.6819 309.276 381.3093 309.7139 383.4987 314.5307 386.564 314.9686 387.8777 316.7202 387.4398 320.6612 384.8124 321.537 386.1261 326.3538 392.6945 335.9875 391.8187 341.2422 394.0082 346.4969 393.1324 349.5621 395.7597 352.6274 395.7597 356.5684 388.7535 357.0063 383.4987 358.7578 374.303 365.3262 368.1725 364.4504 355.9115 365.7641 354.16 364.0125 349.3432 364.0125 348.0295 358.3199 345.4021 355.6926 345.84 364.4504 339.7095 370.5809 333.1412 374.0841 328.7622 371.8946 329.2001 369.2673 327.8864 364.4504 330.5138 362.261 329.638 361.3852 328.3243 362.261 329.638 357.4442 326.5728 349.1242 323.5075 347.8105 326.1349 345.6211 326.5728 343.4316 323.0696 336.8632 322.6317 333.3601 318.2528 329.857 312.5602 329.4191 311.6844 327.2296 308.6192 328.5433 298.5477 324.1644 292.4172 324.6023 289.7898 321.537 287.1625 321.0991 284.5351 318.0339 285.8488 316.2823 284.5351 314.9686 275.7773 306.2108 276.2152 303.5834 274.0257 300.5182 270.5226 298.7666 270.5226 294.3877 272.712 293.074 270.9605 285.192 269.2089 280.3752 266.1437 278.6236 263.0784 272.931 244.687 271.1794 241.6217 274.6826 218.4134 276.4341 213.5966 275.5583 208.7798 271.6173 210.9693 268.1142 209.2177 261.5458 212.2829 258.0427 208.7798 253.6637 209.2177 252.788 214.9103 251.9122 217.5376 246.6575 221.9166 246.2196 227.1713 243.1543 231.9881 244.0301 235.4912 242.7164 236.8049 228.7039 239.8701 220.8218 234.6154 214.6913 237.6807 207.6851 244.687 204.6198 243.8112 194.9862 249.9417 194.9862 258.6995 189.7315 260.889 180.5358 257.3858 165.6474 259.5753 163.458 265.2679 162.1443 274.9015 152.9486 282.7836 149.8833 285.8488 150.3212 293.7309 161.2685 299.4235 163.8959 302.4887 162.1443 305.1161 154.7001 309.9329 152.5107 Z" id="AO.ML" fill="#cee3f5" stroke="#6e6e6e" stroke-width="0.4">
      <desc>
        <labelrank>6</labelrank>
        <code_hasc>AO.ML</code_hasc>
        <name>Malanje</name>
        <admin>Angola</admin>
        <type_en>Province</type_en>
        <region/>
        <woe_id>2344666</woe_id>
        <longitude>16</longitude>
        <woe_name>Malanje</woe_name>
        <fips>AO12</fips>
        <woe_label>Malanje, AO, Angola</woe_label>
        <latitude>-9</latitude>
        <iso_a2>AO</iso_a2>
        <postal>ML</postal>
        <type>Província</type>
        <id>AO.ML</id>
      </desc>
    </path>
    <path d="M 186.0094 204.1819 183.8199 205.4956 180.7547 204.1819 172.4348 203.744 168.0558 205.9335 165.8664 207.6851 165.8664 209.8745 169.8074 214.2535 171.559 220.3839 171.1211 223.0113 168.4937 226.0765 158.8601 229.1418 156.6706 231.7691 160.1738 235.2723 156.6706 240.527 161.0496 243.1543 162.8011 248.409 157.1085 261.5458 158.8601 262.8595 161.0496 266.8005 164.9906 266.8005 167.1801 269.4279 173.7484 269.8657 179.441 274.6826 181.1926 273.8068 182.0684 283.4404 180.3168 287.3814 181.6305 293.074 180.7547 296.5772 183.8199 300.0803 184.2578 302.2698 180.7547 307.9624 172.8726 302.2698 166.3043 300.0803 161.4875 300.9561 153.1675 306.6487 149.6644 304.8971 144.4097 304.8971 139.155 303.5834 137.8413 304.4592 135.2139 300.5182 129.5213 297.0151 128.2077 296.5772 127.3319 298.7666 118.574 284.7541 119.4498 282.1267 117.6982 277.7478 112.0056 270.3036 113.7572 266.3626 109.3783 251.9122 111.5678 251.0364 116.3846 244.0301 126.0182 243.5922 127.7698 233.5207 130.835 228.266 134.3381 226.5144 133.4624 219.5082 131.7108 217.3187 128.2077 216.8808 124.7045 214.6913 120.7635 213.8156 119.4498 208.123 121.2014 207.2472 121.2014 201.9925 115.5088 192.7967 106.7509 173.5295 110.692 173.0916 114.1951 170.9021 116.3846 171.34 121.2014 168.7127 127.3319 170.4642 138.7171 167.399 143.096 164.7716 158.8601 165.6474 168.4937 175.7189 173.7484 178.3463 187.761 178.3463 189.0747 180.0979 188.6368 188.4178 184.6957 198.0514 186.0094 204.1819 Z" id="AO.BO" fill="#cee3f5" stroke="#6e6e6e" stroke-width="0.4">
      <desc>
        <labelrank>4</labelrank>
        <code_hasc>AO.BO</code_hasc>
        <name>Bengo</name>
        <admin>Angola</admin>
        <type_en>Province</type_en>
        <region/>
        <woe_id>2344673</woe_id>
        <longitude>13</longitude>
        <woe_name>Bengo</woe_name>
        <fips>AO19</fips>
        <woe_label>Bengo, AO, Angola</woe_label>
        <latitude>-8</latitude>
        <iso_a2>AO</iso_a2>
        <postal>BO</postal>
        <type>Província</type>
        <id>AO.BO</id>
      </desc>
    </path>
    <path d="M 243.8112 194.9862 244.687 204.6198 237.6807 207.6851 234.6154 214.6913 239.8701 220.8218 236.8049 228.7039 235.4912 242.7164 231.9881 244.0301 227.1713 243.1543 221.9166 246.2196 217.5376 246.6575 214.9103 251.9122 209.2177 252.788 208.7798 253.6637 212.2829 258.0427 209.2177 261.5458 210.9693 268.1142 208.7798 271.6173 200.8977 268.99 200.022 271.6173 196.0809 271.1794 191.702 272.0552 190.3883 273.3689 181.1926 273.8068 179.441 274.6826 173.7484 269.8657 167.1801 269.4279 164.9906 266.8005 161.0496 266.8005 158.8601 262.8595 157.1085 261.5458 162.8011 248.409 161.0496 243.1543 156.6706 240.527 160.1738 235.2723 156.6706 231.7691 158.8601 229.1418 168.4937 226.0765 171.1211 223.0113 171.559 220.3839 169.8074 214.2535 165.8664 209.8745 165.8664 207.6851 168.0558 205.9335 172.4348 203.744 180.7547 204.1819 183.8199 205.4956 186.0094 204.1819 193.8915 204.1819 199.1462 198.0514 203.963 199.803 209.2177 198.9272 212.7208 195.4241 214.4724 189.2936 212.7208 187.542 213.1587 182.2873 217.5376 180.9737 224.106 180.5358 224.9818 181.8494 224.5439 185.3526 227.6092 186.6662 239.8701 184.9147 242.0596 186.6662 241.1838 188.4178 243.8112 190.1694 243.8112 194.9862 Z" id="AO.CN" fill="#cee3f5" stroke="#6e6e6e" stroke-width="0.4">
      <desc>
        <labelrank>4</labelrank>
        <code_hasc>AO.CN</code_hasc>
        <name>Cuanza Norte</name>
        <admin>Angola</admin>
        <type_en>Province</type_en>
        <region/>
        <woe_id>2344660</woe_id>
        <longitude>14</longitude>
        <woe_name>Cuanza Norte</woe_name>
        <fips>AO05</fips>
        <woe_label>Cuanza Norte, AO, Angola</woe_label>
        <latitude>-9</latitude>
        <iso_a2>AO</iso_a2>
        <postal>CN</postal>
        <type>Província</type>
        <id>AO.CN</id>
      </desc>
    </path>
    <path d="M 208.7798 271.6173 213.5966 275.5583 218.4134 276.4341 241.6217 274.6826 244.687 271.1794 263.0784 272.931 266.1437 278.6236 269.2089 280.3752 270.9605 285.192 272.712 293.074 270.5226 294.3877 270.5226 298.7666 274.0257 300.5182 276.2152 303.5834 275.7773 306.2108 284.5351 314.9686 281.4699 320.6612 270.0847 328.5433 263.9542 336.4253 254.7585 336.4253 251.2553 333.798 248.1901 342.9937 242.9354 350.8758 242.9354 354.3789 240.7459 359.1957 223.6681 364.8883 221.4787 367.0778 221.0408 370.143 223.6681 375.8356 221.9166 379.7767 222.3545 385.9072 218.8513 385.9072 209.2177 389.8482 204.4009 398.1681 196.0809 392.0376 186.8852 391.5997 177.2516 379.3388 171.559 381.0903 164.9906 387.6587 158.4222 381.0903 157.1085 376.7114 142.6581 374.9598 142.2202 361.3852 145.2854 342.5558 145.2854 333.798 139.5928 324.6023 141.3444 319.7854 129.0834 306.6487 127.3319 298.7666 128.2077 296.5772 129.5213 297.0151 135.2139 300.5182 137.8413 304.4592 139.155 303.5834 144.4097 304.8971 149.6644 304.8971 153.1675 306.6487 161.4875 300.9561 166.3043 300.0803 172.8726 302.2698 180.7547 307.9624 184.2578 302.2698 183.8199 300.0803 180.7547 296.5772 181.6305 293.074 180.3168 287.3814 182.0684 283.4404 181.1926 273.8068 190.3883 273.3689 191.702 272.0552 196.0809 271.1794 200.022 271.6173 200.8977 268.99 208.7798 271.6173 Z" id="AO.CS" fill="#cee3f5" stroke="#6e6e6e" stroke-width="0.4">
      <desc>
        <labelrank>4</labelrank>
        <code_hasc>AO.CS</code_hasc>
        <name>Cuanza Sul</name>
        <admin>Angola</admin>
        <type_en>Province</type_en>
        <region/>
        <woe_id>2344661</woe_id>
        <longitude>15</longitude>
        <woe_name>Cuanza Sul</woe_name>
        <fips>AO06</fips>
        <woe_label>Cuanza Sul, AO, Angola</woe_label>
        <latitude>-10</latitude>
        <iso_a2>AO</iso_a2>
        <postal>CS</postal>
        <type>Província</type>
        <id>AO.CS</id>
      </desc>
    </path>
    <path d="M 109.3783 251.9122 104.5615 244.9059 101.9341 237.0238 106.313 229.5797 108.9404 228.7039 104.1236 233.0828 102.8099 239.2133 106.313 233.0828 108.9404 232.207 112.0056 225.2008 114.1951 223.0113 115.0709 222.5734 112.0056 226.0765 116.3846 222.5734 121.2014 222.5734 122.9529 217.3187 120.7635 213.8156 124.7045 214.6913 128.2077 216.8808 131.7108 217.3187 133.4624 219.5082 134.3381 226.5144 130.835 228.266 127.7698 233.5207 126.0182 243.5922 116.3846 244.0301 111.5678 251.0364 109.3783 251.9122 Z" id="AO.LU" fill="#cee3f5" stroke="#6e6e6e" stroke-width="0.4">
      <desc>
        <labelrank>7</labelrank>
        <code_hasc>AO.LU</code_hasc>
        <name>Luanda</name>
        <admin>Angola</admin>
        <type_en>Province</type_en>
        <region/>
        <woe_id>2344665</woe_id>
        <longitude>13</longitude>
        <woe_name>Luanda</woe_name>
        <fips>AO10</fips>
        <woe_label>Luanda, AO, Angola</woe_label>
        <latitude>-8</latitude>
        <iso_a2>AO</iso_a2>
        <postal>LU</postal>
        <type>Província</type>
        <id>AO.LU</id>
      </desc>
    </path>
    <path d="M 309.9329 152.5107 305.1161 154.7001 302.4887 162.1443 299.4235 163.8959 293.7309 161.2685 285.8488 150.3212 282.7836 149.8833 274.9015 152.9486 265.2679 162.1443 259.5753 163.458 257.3858 165.6474 260.889 180.5358 258.6995 189.7315 249.9417 194.9862 243.8112 194.9862 243.8112 190.1694 241.1838 188.4178 242.0596 186.6662 239.8701 184.9147 227.6092 186.6662 224.5439 185.3526 224.9818 181.8494 224.106 180.5358 217.5376 180.9737 213.1587 182.2873 212.7208 187.542 214.4724 189.2936 212.7208 195.4241 209.2177 198.9272 203.963 199.803 199.1462 198.0514 193.8915 204.1819 186.0094 204.1819 184.6957 198.0514 188.6368 188.4178 189.0747 180.0979 187.761 178.3463 173.7484 178.3463 168.4937 175.7189 158.8601 165.6474 143.096 164.7716 144.8476 161.2685 148.3507 160.8306 150.5402 158.6412 145.7233 150.7591 148.7886 143.3149 144.8476 138.936 142.2202 131.9297 149.6644 131.054 153.1675 127.9887 164.1148 123.6098 167.1801 118.793 169.8074 117.0414 174.1863 117.0414 177.6895 115.2898 179.441 113.1004 186.4473 112.2246 191.702 110.0351 201.3356 97.3363 201.7735 95.5847 198.2704 92.0816 195.643 83.7616 191.2641 76.3174 270.5226 75.0038 274.4636 76.7553 279.7183 76.3174 284.5351 78.5069 283.6593 80.2585 284.973 85.0753 286.2867 85.5132 285.4109 86.8269 289.7898 89.4542 291.1035 92.0816 291.1035 99.9636 289.7898 99.9636 289.3519 102.591 290.6656 103.4668 290.2277 106.0941 291.1035 106.0941 292.4172 108.7215 291.5414 111.3488 292.8551 117.4793 296.3582 124.4856 300.7371 126.2371 301.175 131.9297 303.8024 134.1192 302.9266 136.7465 301.175 136.3087 302.0508 143.7528 304.6782 148.5696 309.0571 150.7591 309.9329 152.5107 Z" id="AO.UI" fill="#cee3f5" stroke="#6e6e6e" stroke-width="0.4">
      <desc>
        <labelrank>6</labelrank>
        <code_hasc>AO.UI</code_hasc>
        <name>Uíge</name>
        <admin>Angola</admin>
        <type_en>Province</type_en>
        <region/>
        <woe_id>2344669</woe_id>
        <longitude>15</longitude>
        <woe_name>Uige</woe_name>
        <fips>AO15</fips>
        <woe_label/>
        <latitude>-6</latitude>
        <iso_a2>AO</iso_a2>
        <postal>UI</postal>
        <type>Província</type>
        <id>AO.UI</id>
      </desc>
    </path>
    <path d="M 191.2641 76.3174 195.643 83.7616 198.2704 92.0816 201.7735 95.5847 201.3356 97.3363 191.702 110.0351 186.4473 112.2246 179.441 113.1004 177.6895 115.2898 174.1863 117.0414 169.8074 117.0414 167.1801 118.793 164.1148 123.6098 153.1675 127.9887 149.6644 131.054 142.2202 131.9297 144.8476 138.936 148.7886 143.3149 145.7233 150.7591 150.5402 158.6412 148.3507 160.8306 144.8476 161.2685 143.096 164.7716 138.7171 167.399 127.3319 170.4642 121.2014 168.7127 116.3846 171.34 114.1951 170.9021 110.692 173.0916 106.7509 173.5295 97.1173 150.3212 94.0521 146.8181 92.3005 130.6161 93.1763 128.8645 90.5489 128.8645 78.7258 114.8519 64.7133 89.8921 65.1512 87.7026 67.3407 86.389 66.9028 88.5784 68.2164 88.5784 75.6606 87.2647 83.5427 83.7616 88.3595 85.0753 92.3005 84.1995 97.5552 81.5721 100.6205 77.1932 107.1888 76.7553 110.692 75.0038 119.0119 76.7553 120.7635 75.0038 133.9003 75.4417 149.6644 74.128 153.6054 75.8795 159.298 75.4417 164.5527 76.7553 181.6305 77.1932 191.2641 76.3174 Z" id="AO.ZA" fill="#cee3f5" stroke="#6e6e6e" stroke-width="0.4">
      <desc>
        <labelrank>4</labelrank>
        <code_hasc>AO.ZA</code_hasc>
        <name>Zaire</name>
        <admin>Angola</admin>
        <type_en>Province</type_en>
        <region/>
        <woe_id>2344670</woe_id>
        <longitude>13</longitude>
        <woe_name>Zaire</woe_name>
        <fips>AO16</fips>
        <woe_label>Zaire, AO, Angola</woe_label>
        <latitude>-6</latitude>
        <iso_a2>AO</iso_a2>
        <postal>ZA</postal>
        <type>Província</type>
        <id>AO.ZA</id>
      </desc>
    </path>
    <path d="M 90.111 1 94.49 1.4379 97.1173 6.2547 104.9994 12.8231 104.5615 14.5747 90.9868 18.0778 89.2353 22.4567 85.7321 25.0841 84.8563 27.7114 81.3532 28.5872 80.0395 31.6524 78.288 32.9661 73.0332 34.2798 73.0332 36.4693 76.9743 38.2208 77.4122 39.9724 76.5364 68.4354 67.7785 68.4354 61.2102 70.6248 57.707 63.1807 59.0207 60.1154 62.0859 58.3639 62.0859 55.2986 56.3934 41.2861 51.5765 33.8419 53.766 33.8419 55.5176 35.5935 57.2691 32.5282 55.9555 31.6524 55.0797 34.2798 54.2039 32.5282 50.7008 32.5282 56.8312 27.2735 59.8965 19.8294 62.0859 21.5809 66.4649 20.2673 69.968 11.5094 81.7911 9.3199 87.9216 1.4379 90.111 1 Z" id="AO.CB" fill="#cee3f5" stroke="#6e6e6e" stroke-width="0.4">
      <desc>
        <labelrank>7</labelrank>
        <code_hasc>AO.CB</code_hasc>
        <name>Cabinda</name>
        <admin>Angola</admin>
        <type_en>Province</type_en>
        <region/>
        <woe_id>2344658</woe_id>
        <longitude>12</longitude>
        <woe_name>Cabinda</woe_name>
        <fips>AO03</fips>
        <woe_label>Cabinda, AO, Angola</woe_label>
        <latitude>-4</latitude>
        <iso_a2>AO</iso_a2>
        <postal>CB</postal>
        <type>Província</type>
        <id>AO.CB</id>
      </desc>
    </path>
    <path d="M 392.6945 335.9875 408.8965 348.2484 415.4649 350.8758 416.3407 353.0652 413.7133 361.3852 409.3344 365.3262 407.1449 371.4567 402.3281 374.0841 401.8902 377.5872 399.7008 378.9009 396.1976 385.0314 397.0734 390.724 390.0671 397.7302 390.0671 401.2334 379.5577 407.8018 375.1788 412.1807 373.8651 416.1217 369.4862 421.8143 368.1725 425.7553 361.1662 431.4479 361.6041 437.5784 355.9115 443.7089 355.0358 447.212 356.3494 454.6562 350.2189 459.473 350.2189 468.6688 348.9053 472.1719 342.7748 475.675 342.7748 482.6813 341.0232 485.3087 334.4548 489.6876 326.5728 491.0013 320.0044 497.5696 318.2528 505.4517 315.6255 505.4517 306.8676 500.197 300.2992 489.6876 298.1098 489.2497 294.1688 491.0013 288.0383 488.3739 276.6531 490.1255 276.6531 480.054 279.7183 466.4793 279.2804 456.8457 280.1562 446.7742 278.4046 426.1932 272.712 423.128 268.3331 415.6838 271.3984 413.0565 272.2742 409.9912 270.5226 400.7955 277.5289 395.5408 282.3457 386.345 282.3457 383.2798 277.5289 378.463 277.091 375.3977 269.2089 367.9536 267.4573 362.261 256.51 359.6336 247.3143 361.3852 240.7459 359.1957 242.9354 354.3789 242.9354 350.8758 248.1901 342.9937 251.2553 333.798 254.7585 336.4253 263.9542 336.4253 270.0847 328.5433 281.4699 320.6612 284.5351 314.9686 285.8488 316.2823 284.5351 318.0339 287.1625 321.0991 289.7898 321.537 292.4172 324.6023 298.5477 324.1644 308.6192 328.5433 311.6844 327.2296 312.5602 329.4191 318.2528 329.857 322.6317 333.3601 323.0696 336.8632 326.5728 343.4316 326.1349 345.6211 323.5075 347.8105 326.5728 349.1242 329.638 357.4442 328.3243 362.261 329.638 361.3852 330.5138 362.261 327.8864 364.4504 329.2001 369.2673 328.7622 371.8946 333.1412 374.0841 339.7095 370.5809 345.84 364.4504 345.4021 355.6926 348.0295 358.3199 349.3432 364.0125 354.16 364.0125 355.9115 365.7641 368.1725 364.4504 374.303 365.3262 383.4987 358.7578 388.7535 357.0063 395.7597 356.5684 395.7597 352.6274 393.1324 349.5621 394.0082 346.4969 391.8187 341.2422 392.6945 335.9875 Z" id="AO.BI" fill="#cee3f5" stroke="#6e6e6e" stroke-width="0.4">
      <desc>
        <labelrank>4</labelrank>
        <code_hasc>AO.BI</code_hasc>
        <name>Bié</name>
        <admin>Angola</admin>
        <type_en>Province</type_en>
        <region/>
        <woe_id>2344657</woe_id>
        <longitude>17</longitude>
        <woe_name>Bié</woe_name>
        <fips>AO02</fips>
        <woe_label>Bie, AO, Angola</woe_label>
        <latitude>-12</latitude>
        <iso_a2>AO</iso_a2>
        <postal>BI</postal>
        <type>Província</type>
        <id>AO.BI</id>
      </desc>
    </path>
    <path d="M 204.4009 398.1681 204.4009 405.6123 206.5903 413.9322 205.7146 415.2459 199.5841 416.9975 194.3294 421.3764 193.8915 426.1932 198.7083 438.8921 200.022 450.2773 202.6493 454.2183 208.7798 459.0351 207.904 462.5383 202.2114 465.1656 199.1462 464.7277 193.4536 469.5445 187.3231 471.734 177.2516 469.5445 172.8726 479.6161 168.4937 483.1192 151.4159 480.4918 143.9718 481.3676 137.4034 480.054 131.7108 481.8055 122.9529 480.4918 120.7635 477.4266 119.0119 474.7992 118.574 473.4856 118.574 469.1066 118.574 468.2309 118.1361 467.3551 108.9404 465.1656 98.431 469.9824 94.9279 468.2309 91.4247 467.793 84.4184 466.0414 83.1048 466.4793 80.4774 467.793 80.0395 466.9172 79.1637 461.6625 80.4774 459.473 85.2942 456.4078 86.6079 452.0289 91.8626 448.9636 100.6205 438.0163 101.4962 435.389 99.7447 431.01 102.8099 427.069 111.5678 418.7491 115.0709 419.187 117.2604 417.4354 121.6393 417.8733 126.894 413.0565 128.6455 406.4881 132.1487 403.4228 131.2729 405.1744 135.2139 400.3576 139.155 388.0966 141.3444 383.7177 142.6581 374.9598 157.1085 376.7114 158.4222 381.0903 164.9906 387.6587 171.559 381.0903 177.2516 379.3388 186.8852 391.5997 196.0809 392.0376 204.4009 398.1681 Z" id="AO.BG" fill="#cee3f5" stroke="#6e6e6e" stroke-width="0.4">
      <desc>
        <labelrank>7</labelrank>
        <code_hasc>AO.BG</code_hasc>
        <name>Benguela</name>
        <admin>Angola</admin>
        <type_en>Province</type_en>
        <region/>
        <woe_id>2344656</woe_id>
        <longitude>13</longitude>
        <woe_name>Benguela</woe_name>
        <fips>AO01</fips>
        <woe_label>Benguela, AO, Angola</woe_label>
        <latitude>-12</latitude>
        <iso_a2>AO</iso_a2>
        <postal>BG</postal>
        <type>Província</type>
        <id>AO.BG</id>
      </desc>
    </path>
    <path d="M 547.7083 605.2911 550.3356 610.1079 549.022 610.1079 550.7735 615.8005 553.4009 616.6763 552.0872 620.6173 555.1524 628.0615 559.5314 631.5646 563.9103 632.0025 567.8513 636.3814 572.2302 644.2635 581.8639 652.5834 584.4912 658.276 589.7459 662.655 595.4385 665.2823 600.2553 672.2886 603.7585 674.9159 604.6343 677.9812 610.7647 678.857 613.83 681.9222 613.83 683.6738 514.8664 699 507.4222 694.6211 503.9191 694.6211 486.4034 699 483.3381 696.8105 475.0182 696.3726 463.633 689.3664 449.1826 691.1179 445.2415 689.3664 437.3595 688.9285 436.0458 690.2422 431.229 687.6148 418.968 688.4906 410.6481 685.4253 399.7008 685.8632 393.1324 684.5496 387.0019 681.9222 381.3093 676.2296 372.1136 663.5307 314.7497 662.655 315.1876 653.8971 312.5602 634.192 316.9391 620.1794 320.8802 614.9247 322.1939 610.5458 320.8802 587.7754 310.3708 570.2597 306.4297 567.1945 304.6782 563.6913 297.6719 559.7503 298.5477 558.8745 294.6066 556.2472 294.6066 553.6198 291.9793 552.3061 291.5414 549.2409 289.7898 548.803 287.1625 545.2999 288.0383 543.5483 284.973 538.2936 285.4109 533.0389 282.7836 529.0979 284.0972 526.9084 281.032 525.5947 281.9078 524.7189 277.9668 521.6537 277.9668 511.5822 275.7773 503.2622 277.5289 497.1317 276.6531 490.1255 288.0383 488.3739 294.1688 491.0013 298.1098 489.2497 300.2992 489.6876 306.8676 500.197 315.6255 505.4517 318.2528 505.4517 320.0044 497.5696 326.5728 491.0013 334.4548 489.6876 341.0232 485.3087 342.7748 482.6813 342.7748 475.675 348.9053 472.1719 350.2189 468.6688 363.3557 475.675 369.0483 476.1129 384.8124 483.995 388.7535 488.3739 391.8187 493.6286 392.2566 502.3864 396.6355 510.7064 409.7723 511.1443 411.0859 509.8306 411.0859 505.4517 413.2754 504.138 422.4711 506.3275 428.1637 506.3275 432.5427 511.1443 436.0458 519.0263 455.313 538.2936 459.2541 540.4831 464.0709 542.6725 478.0834 543.1104 484.2139 541.7967 489.0307 543.9862 492.5339 543.1104 495.1612 544.862 496.9128 544.4241 505.6706 555.3714 507.4222 555.3714 508.7359 557.9987 510.9253 557.123 513.1148 563.2535 517.0558 566.3187 519.2453 567.1945 520.9969 573.325 523.6242 575.5144 528.8789 586.8996 530.1926 588.6512 534.5715 589.0891 540.702 600.4743 547.7083 605.2911 Z" id="AO.CC" fill="#cee3f5" stroke="#6e6e6e" stroke-width="0.4">
      <desc>
        <labelrank>4</labelrank>
        <code_hasc>AO.CC</code_hasc>
        <name>Cuando Cubango</name>
        <admin>Angola</admin>
        <type_en>Province</type_en>
        <region/>
        <woe_id>2344659</woe_id>
        <longitude>19</longitude>
        <woe_name>Cuando Cubango</woe_name>
        <fips>AO04</fips>
        <woe_label>Cuando Cubango, AO, Angola</woe_label>
        <latitude>-16</latitude>
        <iso_a2>AO</iso_a2>
        <postal>CC</postal>
        <type>Província</type>
        <id>AO.CC</id>
      </desc>
    </path>
    <path d="M 289.7898 548.803 291.5414 549.2409 291.9793 552.3061 294.6066 553.6198 294.6066 556.2472 298.5477 558.8745 297.6719 559.7503 304.6782 563.6913 306.4297 567.1945 310.3708 570.2597 320.8802 587.7754 322.1939 610.5458 320.8802 614.9247 316.9391 620.1794 312.5602 634.192 315.1876 653.8971 314.7497 662.655 206.1524 661.7792 164.5527 661.7792 162.8011 663.5307 152.2917 663.5307 148.7886 659.5897 130.835 648.6424 131.2729 646.8908 128.6455 642.9498 122.0772 640.7604 120.3256 635.9435 115.0709 630.6888 112.8814 628.0615 112.4435 626.7478 112.4435 625.4341 113.7572 623.2447 115.9467 621.4931 116.8225 620.6173 117.2604 618.8657 117.2604 617.5521 116.8225 617.1142 115.9467 616.2384 115.0709 615.3626 115.9467 614.0489 116.3846 613.1731 124.2666 608.7942 125.5803 607.9184 128.6455 603.9774 131.7108 606.6048 135.2139 610.1079 136.5276 610.1079 142.6581 606.6048 148.7886 599.1606 151.4159 599.1606 154.0433 601.3501 155.7949 600.9122 159.298 597.409 171.559 592.1543 179.8789 583.8344 196.0809 586.0238 203.5251 589.0891 205.2767 593.468 210.5314 593.9059 215.3482 587.7754 225.8576 569.3839 233.7396 562.8156 238.5565 560.6261 243.8112 559.7503 263.0784 560.6261 274.0257 550.1167 280.1562 548.3651 289.7898 548.803 Z" id="AO.CU" fill="#cee3f5" stroke="#6e6e6e" stroke-width="0.4">
      <desc>
        <labelrank>4</labelrank>
        <code_hasc>AO.CU</code_hasc>
        <name>Cunene</name>
        <admin>Angola</admin>
        <type_en>Province</type_en>
        <region/>
        <woe_id>2344662</woe_id>
        <longitude>15</longitude>
        <woe_name>Cunene</woe_name>
        <fips>AO07</fips>
        <woe_label>Cunene, AO, Angola</woe_label>
        <latitude>-16</latitude>
        <iso_a2>AO</iso_a2>
        <postal>CU</postal>
        <type>Província</type>
        <id>AO.CU</id>
      </desc>
    </path>
    <path d="M 279.2804 456.8457 265.2679 455.9699 260.0132 460.7867 257.8237 461.2246 251.2553 459.0351 240.308 469.9824 229.7986 477.4266 228.4849 476.9887 228.0471 471.2961 222.7923 469.9824 221.4787 462.9762 218.8513 458.1593 208.7798 459.0351 202.6493 454.2183 200.022 450.2773 198.7083 438.8921 193.8915 426.1932 194.3294 421.3764 199.5841 416.9975 205.7146 415.2459 206.5903 413.9322 204.4009 405.6123 204.4009 398.1681 209.2177 389.8482 218.8513 385.9072 222.3545 385.9072 221.9166 379.7767 223.6681 375.8356 221.0408 370.143 221.4787 367.0778 223.6681 364.8883 240.7459 359.1957 247.3143 361.3852 256.51 359.6336 267.4573 362.261 269.2089 367.9536 277.091 375.3977 277.5289 378.463 282.3457 383.2798 282.3457 386.345 277.5289 395.5408 270.5226 400.7955 272.2742 409.9912 271.3984 413.0565 268.3331 415.6838 272.712 423.128 278.4046 426.1932 280.1562 446.7742 279.2804 456.8457 Z" id="AO.HM" fill="#cee3f5" stroke="#6e6e6e" stroke-width="0.4">
      <desc>
        <labelrank>7</labelrank>
        <code_hasc>AO.HM</code_hasc>
        <name>Huambo</name>
        <admin>Angola</admin>
        <type_en>Province</type_en>
        <region/>
        <woe_id>2344663</woe_id>
        <longitude>15</longitude>
        <woe_name>Huambo</woe_name>
        <fips>AO08</fips>
        <woe_label>Huambo, AO, Angola</woe_label>
        <latitude>-12</latitude>
        <iso_a2>AO</iso_a2>
        <postal>HM</postal>
        <type>Província</type>
        <id>AO.HM</id>
      </desc>
    </path>
    <path d="M 279.2804 456.8457 279.7183 466.4793 276.6531 480.054 276.6531 490.1255 277.5289 497.1317 275.7773 503.2622 277.9668 511.5822 277.9668 521.6537 281.9078 524.7189 281.032 525.5947 284.0972 526.9084 282.7836 529.0979 285.4109 533.0389 284.973 538.2936 288.0383 543.5483 287.1625 545.2999 289.7898 548.803 280.1562 548.3651 274.0257 550.1167 263.0784 560.6261 243.8112 559.7503 238.5565 560.6261 233.7396 562.8156 225.8576 569.3839 215.3482 587.7754 210.5314 593.9059 205.2767 593.468 203.5251 589.0891 196.0809 586.0238 179.8789 583.8344 171.559 592.1543 159.298 597.409 155.7949 600.9122 154.0433 601.3501 151.4159 599.1606 148.7886 599.1606 142.6581 606.6048 136.5276 610.1079 135.2139 610.1079 131.7108 606.6048 128.6455 603.9774 129.9592 603.1016 130.835 600.9122 130.3971 599.1606 129.5213 596.0954 129.0834 595.2196 129.0834 593.9059 129.5213 592.5922 129.9592 591.2785 133.4624 584.7102 133.9003 583.3965 133.9003 582.0828 131.7108 577.7039 131.7108 567.6324 126.0182 562.3777 125.5803 561.064 125.1424 557.9987 125.1424 557.123 124.2666 556.2472 122.9529 556.6851 122.0772 557.5609 120.7635 557.5609 119.4498 554.4956 115.9467 554.0577 115.5088 553.1819 115.5088 552.3061 115.9467 551.4304 118.1361 550.1167 118.574 549.6788 118.574 548.803 116.3846 545.2999 116.3846 544.4241 117.6982 541.7967 118.1361 535.6662 132.5866 525.1568 137.8413 512.0201 136.9655 503.7001 136.0897 502.8243 135.2139 501.9486 134.3381 501.0728 133.0245 493.6286 133.4624 491.0013 134.3381 489.2497 134.776 488.8118 134.776 487.4981 134.776 486.1844 133.0245 484.4329 132.5866 483.5571 131.7108 481.8055 137.4034 480.054 143.9718 481.3676 151.4159 480.4918 168.4937 483.1192 172.8726 479.6161 177.2516 469.5445 187.3231 471.734 193.4536 469.5445 199.1462 464.7277 202.2114 465.1656 207.904 462.5383 208.7798 459.0351 218.8513 458.1593 221.4787 462.9762 222.7923 469.9824 228.0471 471.2961 228.4849 476.9887 229.7986 477.4266 240.308 469.9824 251.2553 459.0351 257.8237 461.2246 260.0132 460.7867 265.2679 455.9699 279.2804 456.8457 Z" id="AO.HL" fill="#cee3f5" stroke="#6e6e6e" stroke-width="0.4">
      <desc>
        <labelrank>4</labelrank>
        <code_hasc>AO.HL</code_hasc>
        <name>Huíla</name>
        <admin>Angola</admin>
        <type_en>Province</type_en>
        <region/>
        <woe_id>2344664</woe_id>
        <longitude>14</longitude>
        <woe_name>Huíla</woe_name>
        <fips>AO09</fips>
        <woe_label>Huila, AO, Angola</woe_label>
        <latitude>-14</latitude>
        <iso_a2>AO</iso_a2>
        <postal>HL</postal>
        <type>Província</type>
        <id>AO.HL</id>
      </desc>
    </path>
    <path d="M 572.2302 321.0991 572.6681 328.9812 567.8513 330.7327 564.7861 333.3601 566.0997 340.8043 568.2892 345.1832 567.8513 353.941 578.3607 348.6863 581.426 343.4316 592.8112 346.4969 599.3795 344.7453 603.3206 346.9348 607.2616 347.3726 616.4573 346.059 625.6531 341.2422 630.032 340.8043 648.8614 344.7453 650.6129 344.3074 656.3055 336.8632 657.6192 342.5558 656.7434 349.1242 658.0571 350.4379 657.6192 357.4442 660.2465 364.4504 657.1813 367.0778 657.1813 370.5809 654.1161 376.2735 655.8676 385.9072 654.554 388.9724 653.2403 402.5471 656.3055 409.5533 656.7434 414.808 651.4887 423.5659 647.9856 435.389 654.1161 446.3363 552.5251 443.271 549.8977 528.2221 547.7083 605.2911 540.702 600.4743 534.5715 589.0891 530.1926 588.6512 528.8789 586.8996 523.6242 575.5144 520.9969 573.325 519.2453 567.1945 517.0558 566.3187 513.1148 563.2535 510.9253 557.123 508.7359 557.9987 507.4222 555.3714 505.6706 555.3714 496.9128 544.4241 495.1612 544.862 492.5339 543.1104 489.0307 543.9862 484.2139 541.7967 478.0834 543.1104 464.0709 542.6725 459.2541 540.4831 455.313 538.2936 436.0458 519.0263 432.5427 511.1443 428.1637 506.3275 422.4711 506.3275 413.2754 504.138 411.0859 505.4517 411.0859 509.8306 409.7723 511.1443 396.6355 510.7064 392.2566 502.3864 391.8187 493.6286 388.7535 488.3739 384.8124 483.995 369.0483 476.1129 363.3557 475.675 350.2189 468.6688 350.2189 459.473 356.3494 454.6562 355.0358 447.212 355.9115 443.7089 361.6041 437.5784 361.1662 431.4479 368.1725 425.7553 369.4862 421.8143 373.8651 416.1217 375.1788 412.1807 379.5577 407.8018 390.0671 401.2334 390.0671 397.7302 397.0734 390.724 396.1976 385.0314 399.7008 378.9009 401.8902 377.5872 402.3281 374.0841 407.1449 371.4567 409.3344 365.3262 413.7133 361.3852 418.5301 358.7578 424.2227 359.1957 429.4774 356.1305 432.9806 351.7516 436.0458 351.3137 441.3005 354.3789 446.9931 351.3137 450.9341 353.941 453.1236 352.1895 459.692 353.5031 464.0709 349.5621 470.6393 353.5031 475.4561 353.0652 492.096 362.261 506.9843 364.0125 506.9843 360.9473 512.6769 359.1957 516.6179 353.941 528.8789 350.4379 530.6305 349.1242 535.0094 349.5621 540.702 347.3726 540.702 343.4316 538.5125 340.3664 539.8262 334.6738 543.3294 331.1706 543.7673 325.478 545.9567 321.537 559.0935 321.0991 560.845 319.7854 568.7271 321.9749 572.2302 321.0991 Z" id="AO.MX" fill="#cee3f5" stroke="#6e6e6e" stroke-width="0.4">
      <desc>
        <labelrank>4</labelrank>
        <code_hasc>AO.MX</code_hasc>
        <name>Moxico</name>
        <admin>Angola</admin>
        <type_en>Province</type_en>
        <region/>
        <woe_id>2344668</woe_id>
        <longitude>21</longitude>
        <woe_name>Moxico</woe_name>
        <fips>AO14</fips>
        <woe_label/>
        <latitude>-13</latitude>
        <iso_a2>AO</iso_a2>
        <postal>MX</postal>
        <type>Província</type>
        <id>AO.MX</id>
      </desc>
    </path>
    <path d="M 43.2566 627.6236 39.7535 621.0552 41.0671 617.99 43.2566 627.6236 Z M 131.7108 481.8055 132.5866 483.5571 133.0245 484.4329 134.776 486.1844 134.776 487.4981 134.776 488.8118 134.3381 489.2497 133.4624 491.0013 133.0245 493.6286 134.3381 498.0075 134.3381 501.0728 135.2139 501.9486 136.0897 502.8243 136.9655 503.7001 137.8413 512.0201 135.2139 516.399 132.5866 525.1568 118.1361 535.6662 117.6982 541.7967 116.3846 544.4241 116.3846 545.2999 118.574 548.803 118.574 549.6788 118.1361 550.1167 115.9467 551.4304 115.5088 552.3061 115.5088 553.1819 115.9467 554.0577 119.4498 554.4956 120.7635 557.5609 122.0772 557.5609 122.9529 556.6851 124.2666 556.2472 125.1424 557.123 125.1424 557.9987 125.5803 561.064 126.0182 562.3777 131.7108 567.6324 131.7108 577.7039 133.9003 582.0828 133.9003 583.3965 133.4624 584.7102 129.9592 591.2785 129.5213 592.5922 129.0834 593.9059 129.0834 595.2196 129.5213 596.0954 130.3971 599.1606 130.835 600.9122 129.9592 603.1016 129.5213 603.5395 128.6455 603.9774 125.5803 607.9184 124.2666 608.7942 116.3846 613.1731 115.0709 615.3626 115.9467 616.2384 116.8225 617.1142 117.2604 617.5521 117.2604 618.8657 116.8225 620.6173 115.9467 621.4931 113.7572 623.2447 112.4435 625.4341 112.4435 626.7478 112.8814 628.0615 115.0709 630.6888 120.3256 635.9435 122.0772 640.7604 118.574 641.6361 113.3193 639.8846 105.8752 641.6361 99.7447 644.2635 96.6794 648.2045 84.4184 654.7729 76.9743 653.4592 68.2164 654.335 64.7133 650.8319 60.7723 650.394 53.766 652.5834 47.6355 656.9624 45.0082 656.0866 44.5703 631.5646 45.446 631.1267 46.3218 634.192 47.1976 616.6763 44.5703 597.409 45.8839 593.468 42.3808 587.3375 42.3808 585.1481 43.6945 581.6449 45.8839 580.7691 47.6355 581.6449 50.2629 579.4555 50.7008 575.9523 55.5176 571.5734 57.707 553.1819 60.3344 550.1167 62.0859 549.6788 60.7723 545.7378 65.1512 532.601 68.2164 528.2221 69.5301 515.9611 71.2817 508.9548 69.968 499.3212 71.7196 497.1317 70.4059 494.9423 74.7848 483.995 78.288 483.5571 79.1637 482.6813 79.6016 469.9824 80.4774 468.6688 80.4774 467.793 82.229 466.9172 83.1048 466.4793 84.4184 466.0414 91.4247 467.793 94.9279 468.2309 98.431 469.9824 108.9404 465.1656 118.1361 467.3551 118.574 468.2309 118.574 469.1066 118.574 473.4856 119.0119 474.7992 120.7635 477.4266 122.9529 480.4918 131.7108 481.8055 Z" id="AO.NA" fill="#cee3f5" stroke="#6e6e6e" stroke-width="0.4">
      <desc>
        <labelrank>6</labelrank>
        <code_hasc>AO.NA</code_hasc>
        <name>Namibe</name>
        <admin>Angola</admin>
        <type_en>Province</type_en>
        <region/>
        <woe_id>2344667</woe_id>
        <longitude>12</longitude>
        <woe_name>Namibe</woe_name>
        <fips>AO13</fips>
        <woe_label>Namibe, AO, Angola</woe_label>
        <latitude>-15</latitude>
        <iso_a2>AO</iso_a2>
        <postal>NA</postal>
        <type>Província</type>
        <id>AO.NA</id>
      </desc>
    </path>
  </g>
</svg>