<?xml version="1.0" encoding="UTF-8"?>
<svg xmlns="http://www.w3.org/2000/svg" width="700" height="700">
  <g id="slovakia">
    <path d="M 49.4215 466.4856 39.3717 463.7448 34.8037 466.4856 25.6675 460.0903 26.5812 457.3495 24.7539 455.5223 27.4948 449.127 23.8403 442.7317 15.6178 436.3364 13.7906 415.3233 9.2225 412.5825 7.3953 403.4463 1 398.8783 4.6545 380.606 15.6178 365.0746 29.322 363.2474 29.322 362.3338 38.4581 365.9882 50.3351 362.3338 64.0393 347.716 68.6073 351.3704 67.6937 357.7657 59.4712 367.8154 64.9529 374.2107 61.2984 379.6924 60.3848 383.3469 69.5209 387.0013 69.5209 389.7421 78.6571 402.5327 75.9162 408.928 83.2251 417.1505 78.6571 423.5458 82.3115 427.2003 84.1387 432.6819 82.3115 437.25 72.2618 440.9045 67.6937 439.0772 67.6937 436.3364 65.8665 437.25 65.8665 442.7317 60.3848 445.4725 55.8168 444.5589 55.8168 449.127 61.2984 450.9542 54.9031 454.6086 54.9031 458.2631 50.3351 461.9175 49.4215 466.4856 Z" id="SK.BL" fill="#cee3f5" stroke="#6e6e6e" stroke-width="0.4">
      <desc>
        <labelrank>7</labelrank>
        <code_hasc>SK.BL</code_hasc>
        <name>Bratislavský</name>
        <admin>Slovakia</admin>
        <type_en>Region</type_en>
        <region/>
        <woe_id>20070505</woe_id>
        <longitude>17</longitude>
        <woe_name>Bratislavský</woe_name>
        <fips>LO02</fips>
        <woe_label>Bratislavsky, SK, Slovakia</woe_label>
        <latitude>48</latitude>
        <iso_a2>SK</iso_a2>
        <postal>BL</postal>
        <type>Kraj</type>
        <id>SK.BL</id>
      </desc>
    </path>
    <path d="M 390.199 311.1715 407.5576 312.9987 413.0393 312.0851 424.0026 317.5668 421.2618 318.4804 414.8665 328.5301 413.0393 343.1479 422.1754 351.3704 425.8298 365.0746 432.2251 367.8154 426.7435 385.1741 430.3979 393.3966 445.0157 391.5694 446.8429 393.3966 439.534 402.5327 432.2251 422.6322 425.8298 430.8547 422.1754 432.6819 417.6073 429.0275 410.2984 433.5955 405.7304 433.5955 402.0759 440.9045 388.3717 447.2997 380.1492 454.6086 374.6675 454.6086 366.445 449.127 360.9634 450.9542 360.9634 443.6453 359.1361 440.9045 350 441.8181 342.6911 436.3364 328.9869 439.9908 324.4188 457.3495 318.0236 461.9175 300.6649 461.0039 292.4424 465.572 276.911 463.7448 266.8613 463.7448 266.8613 459.1767 273.2565 451.8678 274.1702 439.9908 272.3429 438.1636 258.6387 443.6453 256.8115 446.3861 250.4162 446.3861 244.9346 442.7317 242.1937 444.5589 241.2801 440.9045 244.9346 437.25 242.1937 429.9411 245.8482 425.373 247.6754 418.9777 243.1073 408.0144 235.7984 398.8783 230.3168 401.6191 226.6623 408.0144 213.8717 410.7552 209.3037 415.3233 208.3901 413.4961 212.9581 407.1008 213.8717 402.5327 209.3037 390.6558 210.2173 387.0013 210.2173 382.4332 203.822 381.5196 207.4764 376.9516 204.7356 372.3835 205.6492 369.6427 218.4398 368.7291 224.8351 356.8521 233.0576 358.6793 233.0576 355.9385 239.4529 346.8024 243.1073 345.8887 247.6754 337.6662 254.0707 334.0118 255.8979 336.7526 267.7749 338.5798 270.5157 331.2709 268.6885 327.6165 268.6885 320.3076 273.2565 313.9123 300.6649 312.0851 301.5785 316.6531 300.6649 318.4804 306.1466 318.4804 317.1099 306.6034 337.2094 303.8626 346.3455 304.7762 360.0497 312.0851 367.3586 309.3442 390.199 311.1715 Z" id="SK.BC" fill="#cee3f5" stroke="#6e6e6e" stroke-width="0.4">
      <desc>
        <labelrank>7</labelrank>
        <code_hasc>SK.BC</code_hasc>
        <name>Banskobystrický</name>
        <admin>Slovakia</admin>
        <type_en>Region</type_en>
        <region/>
        <woe_id>20070495</woe_id>
        <longitude>19</longitude>
        <woe_name>Banskobystrický</woe_name>
        <fips>LO01</fips>
        <woe_label>Banskobystricky, SK, Slovakia</woe_label>
        <latitude>48</latitude>
        <iso_a2>SK</iso_a2>
        <postal>BC</postal>
        <type>Kraj</type>
        <id>SK.BC</id>
      </desc>
    </path>
    <path d="M 375.5812 256.3547 379.2356 269.1453 382.8901 268.2317 388.3717 273.7134 393.8534 273.7134 392.0262 290.1584 387.4581 291.072 394.767 304.7762 397.5079 305.6898 390.199 311.1715 367.3586 309.3442 360.0497 312.0851 346.3455 304.7762 337.2094 303.8626 317.1099 306.6034 306.1466 318.4804 300.6649 318.4804 301.5785 316.6531 300.6649 312.0851 273.2565 313.9123 268.6885 320.3076 268.6885 327.6165 270.5157 331.2709 267.7749 338.5798 255.8979 336.7526 254.0707 334.0118 247.6754 337.6662 242.1937 324.8757 233.0576 317.5668 233.0576 305.6898 235.7984 302.0353 233.0576 299.2945 224.8351 296.5537 219.3534 297.4673 218.4398 294.7264 211.1309 301.1217 205.6492 299.2945 204.7356 297.4673 216.6126 289.2448 221.1806 284.6767 221.1806 277.3678 216.6126 272.7997 220.267 269.1453 217.5262 260.9228 206.5628 252.7003 196.5131 229.8599 193.7723 228.0327 196.5131 226.2055 197.4267 217.0694 201.0812 217.983 203.822 216.1558 213.8717 207.0196 215.699 200.6243 218.4398 198.7971 223.9215 200.6243 227.5759 197.8835 239.4529 201.538 246.7618 196.9699 263.2068 197.8835 266.8613 200.6243 266.8613 218.8966 272.3429 219.8102 279.6518 216.1558 284.2199 219.8102 287.8743 218.8966 292.4424 217.983 294.2696 210.6741 297.0105 209.7605 299.7513 198.7971 303.4058 196.0563 312.5419 194.2291 325.3325 181.4385 332.6414 188.7474 338.123 208.8469 348.1728 211.5877 347.2592 218.8966 356.3953 221.6374 363.7042 220.7238 366.445 236.2552 364.6178 238.9961 368.2723 243.5641 360.9634 255.4411 365.5314 258.1819 371.0131 259.0955 375.5812 256.3547 Z" id="SK.ZI" fill="#cee3f5" stroke="#6e6e6e" stroke-width="0.4">
      <desc>
        <labelrank>7</labelrank>
        <code_hasc>SK.ZI</code_hasc>
        <name>Žilinský</name>
        <admin>Slovakia</admin>
        <type_en>Region</type_en>
        <region/>
        <woe_id>20070494</woe_id>
        <longitude>19</longitude>
        <woe_name>Žilinský</woe_name>
        <fips>LO08</fips>
        <woe_label>Zilinsky, SK, Slovakia</woe_label>
        <latitude>49</latitude>
        <iso_a2>SK</iso_a2>
        <postal>ZI</postal>
        <type>Kraj</type>
        <id>SK.ZI</id>
      </desc>
    </path>
    <path d="M 204.7356 372.3835 207.4764 376.9516 203.822 381.5196 210.2173 382.4332 210.2173 387.0013 209.3037 390.6558 213.8717 402.5327 212.9581 407.1008 208.3901 413.4961 209.3037 415.3233 213.8717 410.7552 226.6623 408.0144 230.3168 401.6191 235.7984 398.8783 243.1073 408.0144 247.6754 418.9777 245.8482 425.373 242.1937 429.9411 244.9346 437.25 241.2801 440.9045 242.1937 444.5589 244.9346 442.7317 250.4162 446.3861 256.8115 446.3861 258.6387 443.6453 272.3429 438.1636 274.1702 439.9908 273.2565 451.8678 266.8613 459.1767 266.8613 463.7448 244.9346 468.3128 238.5393 476.5353 232.144 480.1898 233.9712 483.8442 232.144 499.3757 240.3665 506.6846 234.8848 508.5118 224.8351 515.8207 207.4764 513.0798 181.8953 514.9071 168.1911 518.5615 152.6597 516.7343 117.0288 517.6479 104.2382 512.1662 106.9791 504.8573 114.288 502.1165 116.1152 495.7212 126.1649 486.5851 126.1649 461.9175 121.5969 459.1767 121.5969 456.4359 117.0288 456.4359 117.9424 450.0406 112.4607 442.7317 119.7696 441.8181 118.856 434.5092 122.5105 436.3364 127.0785 433.5955 127.0785 429.9411 124.3377 425.373 126.1649 418.9777 123.4241 415.3233 125.2513 406.1872 139.8691 386.0877 131.6466 377.8652 126.1649 375.1243 133.4738 361.4202 137.1283 363.2474 143.5236 360.5065 143.5236 358.6793 148.0916 354.1113 146.2644 341.3207 149.9188 340.4071 150.8325 342.2343 160.8822 345.8887 166.3639 353.1976 174.5864 358.6793 175.5 361.4202 172.7592 368.7291 180.0681 374.2107 182.8089 381.5196 186.4634 382.4332 187.377 380.606 189.2042 382.4332 204.7356 372.3835 Z" id="SK.NI" fill="#cee3f5" stroke="#6e6e6e" stroke-width="0.4">
      <desc>
        <labelrank>7</labelrank>
        <code_hasc>SK.NI</code_hasc>
        <name>Nitriansky</name>
        <admin>Slovakia</admin>
        <type_en>Region</type_en>
        <region/>
        <woe_id>20070492</woe_id>
        <longitude>18</longitude>
        <woe_name>Nitriansky</woe_name>
        <fips>SI04</fips>
        <woe_label>Nitriansky, SK, Slovakia</woe_label>
        <latitude>48</latitude>
        <iso_a2>SK</iso_a2>
        <postal>NI</postal>
        <type>Kraj</type>
        <id>SK.NI</id>
      </desc>
    </path>
    <path d="M 247.6754 337.6662 243.1073 345.8887 239.4529 346.8024 233.0576 355.9385 233.0576 358.6793 224.8351 356.8521 218.4398 368.7291 205.6492 369.6427 204.7356 372.3835 189.2042 382.4332 187.377 380.606 186.4634 382.4332 182.8089 381.5196 180.0681 374.2107 172.7592 368.7291 175.5 361.4202 174.5864 358.6793 166.3639 353.1976 160.8822 345.8887 150.8325 342.2343 149.9188 340.4071 146.2644 341.3207 148.0916 354.1113 143.5236 358.6793 127.0785 353.1976 124.3377 349.5432 123.4241 351.3704 117.0288 351.3704 109.7199 344.0615 102.411 346.8024 99.6702 345.8887 98.7565 350.4568 92.3613 350.4568 87.7932 353.1976 80.4843 339.4935 83.2251 333.0982 81.3979 329.4437 75.9162 323.0484 72.2618 325.7893 67.6937 324.8757 75.0026 315.7395 79.5707 313.9123 85.0524 318.4804 89.6204 319.394 113.3743 311.1715 122.5105 301.1217 129.8194 301.1217 137.1283 284.6767 153.5733 281.9359 159.9686 274.627 161.7958 256.3547 169.1047 239.9097 193.7723 228.0327 196.5131 229.8599 206.5628 252.7003 217.5262 260.9228 220.267 269.1453 216.6126 272.7997 221.1806 277.3678 221.1806 284.6767 216.6126 289.2448 204.7356 297.4673 205.6492 299.2945 211.1309 301.1217 218.4398 294.7264 219.3534 297.4673 224.8351 296.5537 233.0576 299.2945 235.7984 302.0353 233.0576 305.6898 233.0576 317.5668 242.1937 324.8757 247.6754 337.6662 Z" id="SK.TC" fill="#cee3f5" stroke="#6e6e6e" stroke-width="0.4">
      <desc>
        <labelrank>7</labelrank>
        <code_hasc>SK.TC</code_hasc>
        <name>Trenciansky</name>
        <admin>Slovakia</admin>
        <type_en>Region</type_en>
        <region/>
        <woe_id>20070493</woe_id>
        <longitude>18</longitude>
        <woe_name>Trenciansky</woe_name>
        <fips>SI06</fips>
        <woe_label>Trenciansky, SK, Slovakia</woe_label>
        <latitude>48</latitude>
        <iso_a2>SK</iso_a2>
        <postal>TC</postal>
        <type>Kraj</type>
        <id>SK.TC</id>
      </desc>
    </path>
    <path d="M 75.0026 315.7395 67.6937 324.8757 72.2618 325.7893 75.9162 323.0484 81.3979 329.4437 83.2251 333.0982 80.4843 339.4935 87.7932 353.1976 92.3613 350.4568 98.7565 350.4568 99.6702 345.8887 102.411 346.8024 109.7199 344.0615 117.0288 351.3704 123.4241 351.3704 124.3377 349.5432 127.0785 353.1976 143.5236 358.6793 143.5236 360.5065 137.1283 363.2474 133.4738 361.4202 126.1649 375.1243 131.6466 377.8652 139.8691 386.0877 125.2513 406.1872 123.4241 415.3233 126.1649 418.9777 124.3377 425.373 127.0785 429.9411 127.0785 433.5955 122.5105 436.3364 118.856 434.5092 119.7696 441.8181 112.4607 442.7317 117.9424 450.0406 117.0288 456.4359 121.5969 456.4359 121.5969 459.1767 126.1649 461.9175 126.1649 486.5851 116.1152 495.7212 114.288 502.1165 106.9791 504.8573 104.2382 512.1662 91.4476 502.1165 85.966 501.2029 80.4843 492.9804 75.0026 491.1531 58.5576 469.2264 49.4215 466.4856 50.3351 461.9175 54.9031 458.2631 54.9031 454.6086 61.2984 450.9542 55.8168 449.127 55.8168 444.5589 60.3848 445.4725 65.8665 442.7317 65.8665 437.25 67.6937 436.3364 67.6937 439.0772 72.2618 440.9045 82.3115 437.25 84.1387 432.6819 82.3115 427.2003 78.6571 423.5458 83.2251 417.1505 75.9162 408.928 78.6571 402.5327 69.5209 389.7421 69.5209 387.0013 60.3848 383.3469 61.2984 379.6924 64.9529 374.2107 59.4712 367.8154 67.6937 357.7657 68.6073 351.3704 64.0393 347.716 50.3351 362.3338 38.4581 365.9882 29.322 362.3338 29.322 363.2474 15.6178 365.0746 15.6178 351.3704 26.5812 328.5301 36.6309 318.4804 38.4581 312.9987 44.8534 308.4306 50.3351 307.517 70.4346 317.5668 75.0026 315.7395 Z" id="SK.TA" fill="#cee3f5" stroke="#6e6e6e" stroke-width="0.4">
      <desc>
        <labelrank>7</labelrank>
        <code_hasc>SK.TA</code_hasc>
        <name>Trnavský</name>
        <admin>Slovakia</admin>
        <type_en>Region</type_en>
        <region/>
        <woe_id>20070504</woe_id>
        <longitude>17</longitude>
        <woe_name>Trnavský</woe_name>
        <fips>SI07</fips>
        <woe_label>Trnavsky, SK, Slovakia</woe_label>
        <latitude>48</latitude>
        <iso_a2>SK</iso_a2>
        <postal>TA</postal>
        <type>Kraj</type>
        <id>SK.TA</id>
      </desc>
    </path>
    <path d="M 679.8141 319.394 678.9005 332.1846 675.2461 338.5798 672.5052 352.284 664.2827 357.7657 661.5419 363.2474 652.4058 373.2971 653.3194 384.2605 651.4921 403.4463 646.9241 408.0144 626.8246 409.8416 609.466 417.1505 602.1571 416.2369 588.4529 399.7919 584.7984 387.9149 576.5759 387.0013 573.8351 380.606 564.699 375.1243 551.9084 377.8652 544.5995 386.0877 539.1178 383.3469 525.4136 388.8285 517.1911 384.2605 505.3141 383.3469 486.1283 374.2107 448.6702 381.5196 448.6702 390.6558 446.8429 393.3966 445.0157 391.5694 430.3979 393.3966 426.7435 385.1741 432.2251 367.8154 425.8298 365.0746 422.1754 351.3704 413.0393 343.1479 414.8665 328.5301 421.2618 318.4804 424.0026 317.5668 432.2251 308.4306 426.7435 304.7762 430.3979 300.2081 443.1885 293.8128 449.5838 300.2081 448.6702 296.5537 452.3246 295.6401 454.1518 291.9856 455.0654 294.7264 465.1152 300.2081 467.856 302.949 472.4241 302.0353 474.2513 299.2945 485.2147 300.2081 484.301 294.7264 490.6963 296.5537 492.5236 299.2945 498.0052 298.3809 506.2277 303.8626 509.8822 302.949 516.2775 312.0851 529.0681 312.9987 534.5497 317.5668 543.6859 318.4804 541.8586 323.962 547.3403 329.4437 550.0812 328.5301 550.0812 325.7893 558.3037 323.962 559.2173 316.6531 562.8717 317.5668 563.7853 314.8259 567.4398 318.4804 571.0942 316.6531 577.4895 332.1846 596.6754 338.5798 609.466 332.1846 608.5524 312.9987 624.0838 317.5668 635.9607 323.962 648.7513 323.0484 648.7513 316.6531 656.9738 307.517 659.7147 307.517 662.4555 309.3442 665.1963 319.394 679.8141 319.394 Z" id="SK.KI" fill="#cee3f5" stroke="#6e6e6e" stroke-width="0.4">
      <desc>
        <labelrank>7</labelrank>
        <code_hasc>SK.KI</code_hasc>
        <name>Košický</name>
        <admin>Slovakia</admin>
        <type_en>Region</type_en>
        <region/>
        <woe_id>20070497</woe_id>
        <longitude>21</longitude>
        <woe_name>Košický</woe_name>
        <fips>LO03</fips>
        <woe_label>Kosicky, SK, Slovakia</woe_label>
        <latitude>48</latitude>
        <iso_a2>SK</iso_a2>
        <postal>KI</postal>
        <type>Kraj</type>
        <id>SK.KI</id>
      </desc>
    </path>
    <path d="M 679.8141 319.394 665.1963 319.394 662.4555 309.3442 659.7147 307.517 656.9738 307.517 648.7513 316.6531 648.7513 323.0484 635.9607 323.962 624.0838 317.5668 608.5524 312.9987 609.466 332.1846 596.6754 338.5798 577.4895 332.1846 571.0942 316.6531 567.4398 318.4804 563.7853 314.8259 562.8717 317.5668 559.2173 316.6531 558.3037 323.962 550.0812 325.7893 550.0812 328.5301 547.3403 329.4437 541.8586 323.962 543.6859 318.4804 534.5497 317.5668 529.0681 312.9987 516.2775 312.0851 509.8822 302.949 506.2277 303.8626 498.0052 298.3809 492.5236 299.2945 490.6963 296.5537 484.301 294.7264 485.2147 300.2081 474.2513 299.2945 472.4241 302.0353 467.856 302.949 465.1152 300.2081 455.0654 294.7264 454.1518 291.9856 452.3246 295.6401 448.6702 296.5537 449.5838 300.2081 443.1885 293.8128 430.3979 300.2081 426.7435 304.7762 432.2251 308.4306 424.0026 317.5668 413.0393 312.0851 407.5576 312.9987 390.199 311.1715 397.5079 305.6898 394.767 304.7762 387.4581 291.072 392.0262 290.1584 393.8534 273.7134 388.3717 273.7134 382.8901 268.2317 379.2356 269.1453 375.5812 256.3547 380.1492 252.7003 383.8037 251.7866 397.5079 261.8364 399.3351 260.0092 402.0759 249.0458 407.5576 237.1688 411.212 237.1688 416.6937 232.6008 425.8298 231.6872 430.3979 221.6374 442.2749 223.4647 442.2749 220.7238 444.1021 219.8102 457.8063 226.2055 465.1152 220.7238 475.1649 220.7238 485.2147 233.5144 494.3508 235.3416 502.5733 240.8233 508.055 238.0825 514.4503 229.8599 520.8455 228.9463 520.8455 224.3783 516.2775 220.7238 520.8455 217.0694 527.2408 216.1558 533.6361 220.7238 535.4634 220.7238 543.6859 211.5877 563.7853 218.8966 584.7984 215.2421 592.1073 219.8102 595.7618 219.8102 603.9843 229.8599 611.2932 224.3783 624.0838 232.6008 632.3063 242.6505 635.0471 254.5275 638.7016 257.2683 652.4058 261.8364 657.8874 261.8364 659.7147 267.3181 675.2461 270.0589 680.7277 275.5406 699 279.195 697.1728 293.8128 688.9503 298.3809 684.3822 313.9123 679.8141 319.394 Z" id="SK.PV" fill="#cee3f5" stroke="#6e6e6e" stroke-width="0.4">
      <desc>
        <labelrank>7</labelrank>
        <code_hasc>SK.PV</code_hasc>
        <name>Prešov</name>
        <admin>Slovakia</admin>
        <type_en>Region</type_en>
        <region/>
        <woe_id>20070496</woe_id>
        <longitude>21</longitude>
        <woe_name>Prešov</woe_name>
        <fips>LO05</fips>
        <woe_label>Presovsky, SK, Slovakia</woe_label>
        <latitude>49</latitude>
        <iso_a2>SK</iso_a2>
        <postal>PV</postal>
        <type>Kraj</type>
        <id>SK.PV</id>
      </desc>
    </path>
  </g>
</svg>