<?xml version="1.0" encoding="UTF-8"?>
<svg xmlns="http://www.w3.org/2000/svg" width="700" height="700">
  <g id="lithuania">
    <path d="M 416.2134 479.4682 417.4487 484.2249 416.1552 488.7492 418.9483 493.0447 417.936 499.6107 420.8501 502.5391 433.6051 503.7386 445.8174 498.7566 453.5246 501.7087 453.5574 506.7629 455.7334 507.8965 460.1597 505.9079 465.4437 506.6763 471.0936 502.4092 487.0395 498.0204 486.9427 509.8201 479.7311 513.0807 477.4305 526.4251 460.1387 545.3655 460.3676 549.0086 465.7252 552.2177 470.2277 561.9966 466.6591 564.2082 466.3011 569.2883 461.9813 572.929 466.9107 588.0576 465.1802 597.358 452.843 599.8016 448.0297 593.6758 431.1428 601.2057 412.7184 616.2056 397.8617 614.7774 394.4063 606.8108 390.9553 602.6385 387.0834 601.3046 371.8428 607.1664 363.9744 607.2646 356.4273 603.6465 345.1863 609.3899 340.1389 607.7418 320.4468 613.8433 303.1215 605.1863 303.7221 602.8357 300.3825 598.2518 299.9702 594.1302 304.5761 587.9918 304.5715 583.2927 300.6516 564.4563 296.9835 557.2766 291.9934 554.9876 285.3119 545.3156 286.5172 530.6244 289.6044 521.6193 293.5227 517.4916 301.4039 515.0923 299.2469 511.5323 301.3241 509.0695 310.5381 505.6288 310.7396 497.7906 312.5799 495.1031 323.9463 486.7361 330.4581 493.2397 336.7331 494.9736 351.5495 496.7218 366.4843 488.3575 364.7207 481.475 369.8846 478.13 377.92 480.1176 395.9818 476.0357 405.4663 480.9225 416.2134 479.4682 Z" id="LT.AS" fill="#cee3f5" stroke="#6e6e6e" stroke-width="0.4">
      <desc>
        <labelrank>7</labelrank>
        <code_hasc>LT.AS</code_hasc>
        <name>Alytaus</name>
        <admin>Lithuania</admin>
        <type_en>County</type_en>
        <region/>
        <woe_id>55848082</woe_id>
        <longitude>24</longitude>
        <woe_name>Alytaus</woe_name>
        <fips>LH56</fips>
        <woe_label>Alytus County, LT, Lithuania</woe_label>
        <latitude>54</latitude>
        <iso_a2>LT</iso_a2>
        <postal>AS</postal>
        <type>Apskritis</type>
        <id>LT.AS</id>
      </desc>
    </path>
    <path d="M 350.5968 266.1965 354.6726 267.1175 357.9055 276.597 365.1792 276.7249 372.2753 284.1171 372.6311 294.0171 391.0635 286.4158 396.0187 291.605 400.1483 292.3634 402.0498 289.559 407.6206 292.5605 415.5012 302.708 412.3948 318.6869 415.5228 324.8424 416.5125 332.1716 418.9649 335.2431 425.2224 337.9759 422.6012 340.371 422.6443 344.9094 428.7186 351.6202 430.2995 359.395 436.5908 359.1399 438.8283 365.5201 442.4528 367.2517 444.1657 371.6348 431.9461 386.9797 447.221 398.4292 456.7742 400.4612 462.2317 406.9613 455.1577 415.74 445.161 422.4647 440.6629 441.3371 433.5548 440.5901 431.3577 443.8121 423.3681 448.2254 425.4532 465.8373 423.9317 467.9179 419.6152 467.5966 416.2134 479.4682 405.4663 480.9225 395.9818 476.0357 377.92 480.1176 369.8846 478.13 364.7207 481.475 366.4843 488.3575 351.5495 496.7218 336.7331 494.9736 339.4759 489.2187 337.1758 480.9146 331.9241 479.1207 325.7206 472.8938 328.1914 466.6249 320.8295 461.1257 327.1254 456.8447 327.9287 452.9393 324.1043 432.4827 319.821 430.1051 323.9417 424.0075 322.0611 411.9099 313.172 404.1904 305.6415 406.0753 301.9618 396.0997 294.2956 391.9505 298.2374 387.3803 306.7232 387.3159 310.7939 381.5309 315.4943 379.9314 315.5676 378.0336 312.64 374.1059 304.6514 373.9003 296.0995 368.0142 301.4276 354.1509 301.3584 344.0834 304.0922 339.7054 301.7662 336.7407 290.9462 337.51 286.1493 333.2112 273.8882 333.9387 266.8211 326.2256 248.4639 329.529 246.9831 327.4211 249.0824 322.7235 238.9107 314.0269 235.977 319.2628 231.1363 322.2402 230.2158 318.8742 224.6605 312.9343 223.7657 301.914 218.5939 302.1242 215.4557 299.6093 215.4599 294.3649 210.0099 291.407 206.1766 284.4265 216.7703 278.8328 225.5585 277.6757 229.2473 282.7188 232.3004 283.5437 250.6338 276.5881 256.0153 272.6337 261.8168 264.5022 269.1639 263.6891 274.6395 264.9892 277.9956 271.3992 286.6331 266.2386 295.5143 273.93 302.0508 276.6943 305.2461 276.2077 306.2023 273.1225 311.7858 270.9727 317.3876 274.4444 315.3664 280.6489 316.7445 283.9701 323.0198 285.8017 329.0785 278.0551 350.5968 266.1965 Z" id="LT.KS" fill="#cee3f5" stroke="#6e6e6e" stroke-width="0.4">
      <desc>
        <labelrank>7</labelrank>
        <code_hasc>LT.KS</code_hasc>
        <name>Kauno</name>
        <admin>Lithuania</admin>
        <type_en>County</type_en>
        <region/>
        <woe_id>55848084</woe_id>
        <longitude>23</longitude>
        <woe_name>Kauno</woe_name>
        <fips>LH57</fips>
        <woe_label>Kaunas County, LT, Lithuania</woe_label>
        <latitude>55</latitude>
        <iso_a2>LT</iso_a2>
        <postal>KS</postal>
        <type>Apskritis</type>
        <id>LT.KS</id>
      </desc>
    </path>
    <path d="M 296.0995 368.0142 304.6514 373.9003 312.64 374.1059 315.5676 378.0336 315.4943 379.9314 310.7939 381.5309 306.7232 387.3159 298.2374 387.3803 294.2956 391.9505 301.9618 396.0997 305.6415 406.0753 313.172 404.1904 322.0611 411.9099 323.9417 424.0075 319.821 430.1051 324.1043 432.4827 327.9287 452.9393 327.1254 456.8447 320.8295 461.1257 328.1914 466.6249 325.7206 472.8938 331.9241 479.1207 337.1758 480.9146 339.4759 489.2187 336.7331 494.9736 330.4581 493.2397 323.9463 486.7361 312.5799 495.1031 310.7396 497.7906 310.5381 505.6288 301.3241 509.0695 299.2469 511.5323 301.4039 515.0923 293.5227 517.4916 289.6044 521.6193 286.5172 530.6244 285.3119 545.3156 273.1117 539.3937 258.8219 528.9673 250.6477 530.6572 248.5009 527.5629 249.7466 521.041 243.4757 518.3722 240.2712 512.4319 234.9469 512.4702 225.148 508.1949 222.1002 509.5638 216.4409 517.3398 209.3567 504.2089 206.2679 496.9771 205.7192 488.835 206.8857 472.7006 210.3235 459.0821 209.6193 449.926 212.8694 444.618 212.6761 440.8604 225.876 429.5807 227.8609 422.2992 224.8576 407.3301 216.3064 402.1046 216.7321 397.6911 212.4254 393.3964 202.6237 391.8446 195.6126 369.6273 199.0068 368.1386 204.3049 371.2338 231.5225 364.3814 237.9763 366.3225 247.1529 361.9087 285.0401 369.4734 296.0995 368.0142 Z" id="LT.MA" fill="#cee3f5" stroke="#6e6e6e" stroke-width="0.4">
      <desc>
        <labelrank>7</labelrank>
        <code_hasc>LT.MA</code_hasc>
        <name>Marijampoles</name>
        <admin>Lithuania</admin>
        <type_en>County</type_en>
        <region/>
        <woe_id>55848078</woe_id>
        <longitude>23</longitude>
        <woe_name>Marijampoles</woe_name>
        <fips>LH59</fips>
        <woe_label>Marijampole County, LT, Lithuania</woe_label>
        <latitude>54</latitude>
        <iso_a2>LT</iso_a2>
        <postal>MA</postal>
        <type>Apskritis</type>
        <id>LT.MA</id>
      </desc>
    </path>
    <path d="M 595.2573 181.9584 593.0437 186.178 593.0261 192.0117 585.9446 200.5799 578.3909 220.41 571.1935 220.2503 564.4463 230.3281 561.8531 227.0228 549.184 227.7157 541.0419 232.0908 537.2658 226.9366 532.5451 228.7398 528.0021 221.8757 519.1925 227.1189 517.5313 234.7078 511.6287 234.0675 494.828 240.3636 491.9916 240.0635 491.7941 236.7102 485.7992 230.9375 467.3202 232.6078 463.9685 235.5746 459.4815 234.0352 454.9537 235.2797 447.2493 234.1767 446.9182 239.3754 450.6762 244.4144 449.134 246.9903 444.8618 245.3653 440.5498 247.1912 444.9898 251.0757 447.0728 256.853 442.4145 262.6523 442.9927 271.7036 440.7164 275.586 437.2182 277.4993 440.977 282.1018 440.4265 284.0321 431.7817 283.0408 426.8638 295.2862 422.6323 299.9089 418.8329 300.0631 415.5012 302.708 407.6206 292.5605 402.0498 289.559 400.1483 292.3634 396.0187 291.605 391.0635 286.4158 372.6311 294.0171 372.2753 284.1171 365.1792 276.7249 357.9055 276.597 354.6726 267.1175 350.5968 266.1965 356.3149 254.9014 366.8616 251.0784 365.2931 243.0493 369.4896 235.9822 368.77 225.9796 365.7322 219.0693 360.4211 215.1951 358.9367 209.1329 363.4455 208.6033 365.0076 203.0966 373.3169 196.511 374.23 184.9419 367.6161 179.6375 366.8195 168.7738 367.9571 166.6385 371.0701 167.6537 378.2882 146.9938 384.5905 142.8782 384.7199 136.5369 381.2937 135.6836 380.714 133.4365 383.027 127.1824 382.5395 122.9237 403.1378 114.3248 414.2678 121.15 418.0817 122.1642 422.0209 120.4058 428.6701 116.4463 444.6509 97.6408 459.2332 90.975 463.894 91.6721 466.6932 83.7944 471.2664 88.0332 478.896 113.1624 485.1576 121.5169 490.7955 134.4165 495.0302 137.4156 522.9704 141.7494 535.2943 143.6284 543.157 142.0168 549.0434 144.7039 559.394 144.924 563.6999 155.8385 571.9608 161.7222 584.5628 175.2407 595.2573 181.9584 Z" id="LT.PA" fill="#cee3f5" stroke="#6e6e6e" stroke-width="0.4">
      <desc>
        <labelrank>7</labelrank>
        <code_hasc>LT.PA</code_hasc>
        <name>Panevezio</name>
        <admin>Lithuania</admin>
        <type_en>County</type_en>
        <region/>
        <woe_id>55848086</woe_id>
        <longitude>24</longitude>
        <woe_name>Panevezio</woe_name>
        <fips>LH60</fips>
        <woe_label>Panevezys County, LT, Lithuania</woe_label>
        <latitude>56</latitude>
        <iso_a2>LT</iso_a2>
        <postal>PA</postal>
        <type>Apskritis</type>
        <id>LT.PA</id>
      </desc>
    </path>
    <path d="M 382.5395 122.9237 383.027 127.1824 380.714 133.4365 381.2937 135.6836 384.7199 136.5369 384.5905 142.8782 378.2882 146.9938 371.0701 167.6537 367.9571 166.6385 366.8195 168.7738 367.6161 179.6375 374.23 184.9419 373.3169 196.511 365.0076 203.0966 363.4455 208.6033 358.9367 209.1329 360.4211 215.1951 365.7322 219.0693 368.77 225.9796 369.4896 235.9822 365.2931 243.0493 366.8616 251.0784 356.3149 254.9014 350.5968 266.1965 329.0785 278.0551 323.0198 285.8017 316.7445 283.9701 315.3664 280.6489 317.3876 274.4444 311.7858 270.9727 306.2023 273.1225 305.2461 276.2077 302.0508 276.6943 295.5143 273.93 286.6331 266.2386 277.9956 271.3992 274.6395 264.9892 269.1639 263.6891 261.8168 264.5022 256.0153 272.6337 250.6338 276.5881 232.3004 283.5437 229.2473 282.7188 225.5585 277.6757 216.7703 278.8328 206.1766 284.4265 203.3282 282.9235 202.7419 278.006 205.1121 273.2868 197.5598 263.3767 190.5866 258.2594 188.708 253.0328 189.7355 249.4346 185.4685 245.9143 184.8168 241.5745 190.5769 236.6545 191.0079 223.4189 189.4624 216.6714 198.3056 211.3773 198.8489 203.8463 205.0019 201.1522 211.5091 190.4718 211.1364 188.173 214.251 185.6823 209.2966 180.3048 206.4689 183.2619 203.7271 183.347 200.6617 178.3138 204.1071 173.456 203.4119 164.0274 215.1951 158.5658 212.8654 154.8527 213.3051 148.8252 208.4003 147.6542 201.1665 151.1184 194.6769 150.6971 187.9825 153.0153 184.9659 151.3229 183.8142 147.2401 181.4088 146.7868 182.3573 142.3807 177.5024 140.1748 179.4062 128.0866 187.3863 116.8253 186.4268 111.3265 189.6844 107.1381 195.8 108.2937 199.0799 106.7277 200.7567 101.4149 199.1364 97.2168 202.1024 94.3077 212.1242 102.4017 242.1681 89.8068 245.8808 91.9728 252.5432 108.3378 257.7589 112.5095 263.6131 111.1885 270.6543 101.4756 284.0748 98.4844 306.3203 107.6227 310.4774 107.9541 321.1805 102.7832 332.3731 102.7097 334.3129 104.5141 334.466 108.0538 349.8631 106.9386 364.1071 111.5323 374.9739 120.1063 382.5395 122.9237 Z" id="LT.SH" fill="#cee3f5" stroke="#6e6e6e" stroke-width="0.4">
      <desc>
        <labelrank>7</labelrank>
        <code_hasc>LT.SH</code_hasc>
        <name>Šiauliai</name>
        <admin>Lithuania</admin>
        <type_en>County</type_en>
        <region/>
        <woe_id>55848079</woe_id>
        <longitude>23</longitude>
        <woe_name>Šiauliai</woe_name>
        <fips>LH61</fips>
        <woe_label>Siauliai County, LT, Lithuania</woe_label>
        <latitude>55</latitude>
        <iso_a2>LT</iso_a2>
        <postal>SH</postal>
        <type>Apskritis</type>
        <id>LT.SH</id>
      </desc>
    </path>
    <path d="M 184.8168 241.5745 185.4685 245.9143 189.7355 249.4346 188.708 253.0328 190.5866 258.2594 197.5598 263.3767 205.1121 273.2868 202.7419 278.006 203.3282 282.9235 206.1766 284.4265 210.0099 291.407 215.4599 294.3649 215.4557 299.6093 218.5939 302.1242 223.7657 301.914 224.6605 312.9343 230.2158 318.8742 231.1363 322.2402 235.977 319.2628 238.9107 314.0269 249.0824 322.7235 246.9831 327.4211 248.4639 329.529 266.8211 326.2256 273.8882 333.9387 286.1493 333.2112 290.9462 337.51 301.7662 336.7407 304.0922 339.7054 301.3584 344.0834 301.4276 354.1509 296.0995 368.0142 285.0401 369.4734 247.1529 361.9087 237.9763 366.3225 231.5225 364.3814 204.3049 371.2338 199.0068 368.1386 195.6126 369.6273 192.0711 367.1036 179.475 370.5751 159.6602 367.6597 160.0099 361.7729 161.9525 356.78 162.971 355.2232 163.4582 354.2022 163.3517 351.7465 156.2069 349.6431 152.4047 349.912 148.9868 347.015 147.835 346.307 146.6377 346.1678 143.5594 346.5809 139.0463 349.8914 137.9619 349.6626 137.4911 348.6328 138.2662 345.3075 138.1817 343.0023 136.4857 338.8772 134.4501 332.8805 122.2182 326.3844 118.4711 325.7082 117.111 324.9571 116.8482 323.2756 118.1096 320.5477 127.3 310.6807 130.992 307.2515 131.925 305.4863 132.9874 299.7859 134.8716 298.779 134.8476 297.0188 134.4964 296.444 133.8176 295.763 125.3004 292.2304 121.7567 289.5537 118.5602 291.4707 117.3466 291.531 116.1546 290.0742 113.5092 278.2081 111.849 276.1764 111.2359 274.6721 110.681 267.7879 108.6526 265.1412 108.4785 263.1123 114.7092 260.6261 115.5745 259.8454 116.3098 258.5279 116.6894 257.474 116.1974 255.6239 129.634 254.108 133.9977 254.4592 137.6294 250.7196 139.1612 243.8102 145.1182 243.5326 151.3084 240.3836 163.9654 239.2224 175.8195 242.8328 184.8168 241.5745 Z" id="LT.TG" fill="#cee3f5" stroke="#6e6e6e" stroke-width="0.4">
      <desc>
        <labelrank>7</labelrank>
        <code_hasc>LT.TG</code_hasc>
        <name>Taurages</name>
        <admin>Lithuania</admin>
        <type_en>County</type_en>
        <region/>
        <woe_id>55848087</woe_id>
        <longitude>22</longitude>
        <woe_name>Taurages</woe_name>
        <fips>LH62</fips>
        <woe_label>Taurage County, LT, Lithuania</woe_label>
        <latitude>55</latitude>
        <iso_a2>LT</iso_a2>
        <postal>TG</postal>
        <type>Apskritis</type>
        <id>LT.TG</id>
      </desc>
    </path>
    <path d="M 692.0264 327.7621 688.9631 322.412 684.5084 320.8725 671.5342 328.3644 658.3897 332.6975 642.2923 332.4524 629.6748 327.7934 622.402 328.9794 623.173 319.9472 617.5468 315.6859 607.3489 316.2156 603.6585 321.7247 598.9303 324.1619 595.5837 320.4458 589.9368 320.9824 586.1492 315.9457 581.7197 318.5803 572.0442 314.0708 569.2135 324.2227 562.4159 330.7669 561.1317 336.5426 571.1618 349.9335 578.6493 354.819 575.1054 359.7774 576.1799 362.7632 572.9283 366.0185 573.6449 370.2615 564.9587 369.8918 563.1037 367.6978 559.3809 367.6987 527.5578 377.5723 512.3499 374.7432 510.4828 367.5039 500.6256 362.075 501.5949 352.276 515.3533 342.7787 507.9038 338.2351 503.3362 337.6018 506.0288 327.7033 498.0689 326.9464 491.6045 320.2107 491.8361 316.0658 480.546 316.1221 479.3371 308.4585 471.5043 311.6384 469.6047 306.779 459.2579 304.5411 457.3633 299.3455 460.8835 294.1267 460.097 291.1239 440.7164 275.586 442.9927 271.7036 442.4145 262.6523 447.0728 256.853 444.9898 251.0757 440.5498 247.1912 444.8618 245.3653 449.134 246.9903 450.6762 244.4144 446.9182 239.3754 447.2493 234.1767 454.9537 235.2797 459.4815 234.0352 463.9685 235.5746 467.3202 232.6078 485.7992 230.9375 491.7941 236.7102 491.9916 240.0635 494.828 240.3636 511.6287 234.0675 517.5313 234.7078 519.1925 227.1189 528.0021 221.8757 532.5451 228.7398 537.2658 226.9366 541.0419 232.0908 549.184 227.7157 561.8531 227.0228 564.4463 230.3281 571.1935 220.2503 578.3909 220.41 585.9446 200.5799 593.0261 192.0117 593.0437 186.178 595.2573 181.9584 621.3479 203.8527 633.9087 225.6007 641.4494 230.9522 658.0235 238.2988 671.453 240.165 673.3918 250.6222 672.3448 260.7498 665.2562 271.7992 667.0052 283.5348 662.9678 287.9447 656.3396 309.3559 658.8645 312.7332 666.0356 315.1352 675.1416 312.9697 694.9659 315.672 699 321.1207 697.8209 324.5275 692.0264 327.7621 Z" id="LT.UN" fill="#cee3f5" stroke="#6e6e6e" stroke-width="0.4">
      <desc>
        <labelrank>7</labelrank>
        <code_hasc>LT.UN</code_hasc>
        <name>Utenos</name>
        <admin>Lithuania</admin>
        <type_en>County</type_en>
        <region/>
        <woe_id>55848081</woe_id>
        <longitude>25</longitude>
        <woe_name>Utenos</woe_name>
        <fips>LH64</fips>
        <woe_label>Utena County, LT, Lithuania</woe_label>
        <latitude>55</latitude>
        <iso_a2>LT</iso_a2>
        <postal>UN</postal>
        <type>Apskritis</type>
        <id>LT.UN</id>
      </desc>
    </path>
    <path d="M 692.0264 327.7621 685.672 330.3346 680.6026 336.5252 676.455 353.7668 673.8477 354.3372 661.0651 349.1482 655.8712 352.9691 641.5393 350.0327 636.2 351.1548 632.6449 357.1997 632.0225 369.0371 622.2989 387.2383 618.0561 389.853 603.5999 393.2557 594.7923 392.3814 590.3381 394.4278 587.6943 401.2875 580.2177 409.0884 580.0493 422.4989 574.9031 426.0062 573.3643 430.6921 574.0358 441.3053 572.3479 452.3098 576.435 463.7213 576.6995 471.8806 572.8374 477.5913 563.7451 484.7138 561.9428 502.7747 552.2651 518.7394 552.2153 523.9792 556.5968 527.5944 561.8707 527.1208 570.8849 522.586 572.5673 523.5139 575.5956 531.6489 578.0313 531.3741 584.353 540.8662 582.3453 544.736 581.5806 557.5466 578.8184 559.7344 572.7744 559.4723 568.3375 563.6329 551.469 560.6764 547.6359 554.3791 552.8179 550.0519 549.1276 546.7641 549.3736 544.6936 555.7062 542.5773 543.8815 528.7489 533.1825 539.5801 523.1808 540.3276 513.2278 538.0942 507.4478 555.066 497.2654 564.2823 491.7975 565.2669 476.4816 560.916 470.2277 561.9966 465.7252 552.2177 460.3676 549.0086 460.1387 545.3655 477.4305 526.4251 479.7311 513.0807 486.9427 509.8201 487.0395 498.0204 471.0936 502.4092 465.4437 506.6763 460.1597 505.9079 455.7334 507.8965 453.5574 506.7629 453.5246 501.7087 445.8174 498.7566 433.6051 503.7386 420.8501 502.5391 417.936 499.6107 418.9483 493.0447 416.1552 488.7492 417.4487 484.2249 416.2134 479.4682 419.6152 467.5966 423.9317 467.9179 425.4532 465.8373 423.3681 448.2254 431.3577 443.8121 433.5548 440.5901 440.6629 441.3371 445.161 422.4647 455.1577 415.74 462.2317 406.9613 456.7742 400.4612 447.221 398.4292 431.9461 386.9797 444.1657 371.6348 442.4528 367.2517 438.8283 365.5201 436.5908 359.1399 430.2995 359.395 428.7186 351.6202 422.6443 344.9094 422.6012 340.371 425.2224 337.9759 418.9649 335.2431 416.5125 332.1716 415.5228 324.8424 412.3948 318.6869 415.5012 302.708 418.8329 300.0631 422.6323 299.9089 426.8638 295.2862 431.7817 283.0408 440.4265 284.0321 440.977 282.1018 437.2182 277.4993 440.7164 275.586 460.097 291.1239 460.8835 294.1267 457.3633 299.3455 459.2579 304.5411 469.6047 306.779 471.5043 311.6384 479.3371 308.4585 480.546 316.1221 491.8361 316.0658 491.6045 320.2107 498.0689 326.9464 506.0288 327.7033 503.3362 337.6018 507.9038 338.2351 515.3533 342.7787 501.5949 352.276 500.6256 362.075 510.4828 367.5039 512.3499 374.7432 527.5578 377.5723 559.3809 367.6987 563.1037 367.6978 564.9587 369.8918 573.6449 370.2615 572.9283 366.0185 576.1799 362.7632 575.1054 359.7774 578.6493 354.819 571.1618 349.9335 561.1317 336.5426 562.4159 330.7669 569.2135 324.2227 572.0442 314.0708 581.7197 318.5803 586.1492 315.9457 589.9368 320.9824 595.5837 320.4458 598.9303 324.1619 603.6585 321.7247 607.3489 316.2156 617.5468 315.6859 623.173 319.9472 622.402 328.9794 629.6748 327.7934 642.2923 332.4524 658.3897 332.6975 671.5342 328.3644 684.5084 320.8725 688.9631 322.412 692.0264 327.7621 Z" id="LT.VI" fill="#cee3f5" stroke="#6e6e6e" stroke-width="0.4">
      <desc>
        <labelrank>7</labelrank>
        <code_hasc>LT.VI</code_hasc>
        <name>Vilniaus</name>
        <admin>Lithuania</admin>
        <type_en>County</type_en>
        <region/>
        <woe_id>55848083</woe_id>
        <longitude>25</longitude>
        <woe_name>Vilniaus</woe_name>
        <fips>LH65</fips>
        <woe_label>Vilnius County, LT, Lithuania</woe_label>
        <latitude>54</latitude>
        <iso_a2>LT</iso_a2>
        <postal>VI</postal>
        <type>Apskritis</type>
        <id>LT.VI</id>
      </desc>
    </path>
    <path d="M 8.7212 316.3326 8.6154 320.1233 1 317.802 10.566 302.7252 21.6118 273.8884 24.4989 252.9456 23.9168 227.0488 27.5011 232.0069 28.7748 241.2687 25.9717 275.7747 21.6856 285.6783 23.7658 289.9032 19.6373 295.8612 14.857 308.8281 8.7212 316.3326 Z M 121.1533 145.9945 119.8969 146.7794 112.5842 146.8313 109.3808 149.9802 102.3722 151.0984 96.6535 156.2047 90.1817 169.8832 84.8592 172.3797 84.3614 173.6757 84.3577 174.8167 84.6027 176.0957 84.8082 177.4701 84.0248 185.8938 84.0471 187.8486 84.9182 190.9579 86.9304 194.3273 87.3386 195.4718 87.5992 197.0417 87.0914 198.0792 85.3485 199.4669 84.343 201.2244 77.9877 206.0876 76.3049 207.9062 75.5524 209.1174 75.1375 210.0391 75.0434 211.1393 75.1782 212.4522 80.109 213.112 82.7062 212.1912 85.0094 210.2905 85.6366 210.5599 85.7293 214.191 87.0058 216.3988 87.8579 217.553 88.3911 218.4594 88.5061 219.3568 88.1137 220.1831 87.4256 221.1337 87.119 222.1082 87.5479 223.4094 101.6031 222.2536 102.4565 222.8895 102.7403 223.6845 102.395 224.782 102.2302 225.9338 102.1183 227.1357 101.8481 228.1603 101.3547 229.3229 101.4609 230.5427 103.6264 234.6063 104.2341 236.6925 104.6669 239.688 105.1803 240.9423 106.0648 242.3914 106.4726 243.3408 106.7568 244.7384 110.1351 249.9577 116.1974 255.6239 116.6894 257.474 116.3098 258.5279 115.5745 259.8454 114.7092 260.6261 108.4785 263.1123 108.6526 265.1412 110.681 267.7879 111.2359 274.6721 111.849 276.1764 113.5092 278.2081 116.1546 290.0742 117.3466 291.531 118.5602 291.4707 121.7567 289.5537 125.3004 292.2304 133.8176 295.763 134.4964 296.444 134.8476 297.0188 134.8716 298.779 132.9874 299.7859 131.925 305.4863 130.992 307.2515 127.3 310.6807 118.1096 320.5477 116.8482 323.2756 117.111 324.9571 118.4711 325.7082 122.2182 326.3844 134.4501 332.8805 135.1331 334.1909 136.4857 338.8772 138.1817 343.0023 137.4911 348.6328 137.9619 349.6626 139.0463 349.8914 143.5594 346.5809 146.6377 346.1678 147.835 346.307 148.9868 347.015 152.4047 349.912 156.2069 349.6431 163.3517 351.7465 163.4582 354.2022 162.971 355.2232 161.9525 356.78 160.0099 361.7729 159.6602 367.6597 144.3862 370.3724 139.1355 375.3747 136.3732 375.5789 130.5983 372.1252 127.9884 361.8281 120.6558 364.7791 112.4581 361.0682 106.2532 355.7971 98.0536 353.7395 81.1659 339.7337 69.1372 338.9136 64.9463 335.2746 54.523 318.471 51.5364 318.8101 41.4533 326.571 41.3632 319.2056 44.648 316.6125 41.2015 308.3132 41.1933 301.4115 32.845 307.4882 32.2622 305.8876 40.5511 291.2799 38.3972 269.8705 35.7677 266.1275 35.6577 256.2365 30.8155 236.6468 22.8401 222.3987 21.608 213.1115 20.4985 195.4588 22.7893 179.2737 23.2823 154.1269 39.3209 152.3253 44.5478 136.1298 56.4166 123.8484 67.1446 121.544 88.1368 107.6179 98.3859 107.5063 131.3224 93.2219 130.865 95.2936 129.3229 96.5287 125.0783 98.5968 124.2783 99.5521 123.8735 101.0682 124.0688 102.312 124.6411 103.5458 127.2135 107.4877 127.1196 111.8119 127.6525 115.606 129.5647 118.5691 132.6594 126.4315 133.1034 128.4787 132.7717 129.3624 129.5009 130.4286 128.7191 131.2988 122.0971 145.2053 121.1533 145.9945 Z" id="LT.KP" fill="#cee3f5" stroke="#6e6e6e" stroke-width="0.4">
      <desc>
        <labelrank>7</labelrank>
        <code_hasc>LT.KP</code_hasc>
        <name>Klaipedos</name>
        <admin>Lithuania</admin>
        <type_en>County</type_en>
        <region/>
        <woe_id>55848085</woe_id>
        <longitude>21</longitude>
        <woe_name>Klaipedos</woe_name>
        <fips>LH58</fips>
        <woe_label>Klaipeda County, LT, Lithuania</woe_label>
        <latitude>55</latitude>
        <iso_a2>LT</iso_a2>
        <postal>KP</postal>
        <type>Apskritis</type>
        <id>LT.KP</id>
      </desc>
    </path>
    <path d="M 202.1024 94.3077 199.1364 97.2168 200.7567 101.4149 199.0799 106.7277 195.8 108.2937 189.6844 107.1381 186.4268 111.3265 187.3863 116.8253 179.4062 128.0866 177.5024 140.1748 182.3573 142.3807 181.4088 146.7868 183.8142 147.2401 184.9659 151.3229 187.9825 153.0153 194.6769 150.6971 201.1665 151.1184 208.4003 147.6542 213.3051 148.8252 212.8654 154.8527 215.1951 158.5658 203.4119 164.0274 204.1071 173.456 200.6617 178.3138 203.7271 183.347 206.4689 183.2619 209.2966 180.3048 214.251 185.6823 211.1364 188.173 211.5091 190.4718 205.0019 201.1522 198.8489 203.8463 198.3056 211.3773 189.4624 216.6714 191.0079 223.4189 190.5769 236.6545 184.8168 241.5745 175.8195 242.8328 163.9654 239.2224 151.3084 240.3836 145.1182 243.5326 139.1612 243.8102 137.6294 250.7196 133.9977 254.4592 129.634 254.108 116.1974 255.6239 110.1351 249.9577 106.7568 244.7384 106.4726 243.3408 106.0648 242.3914 105.1803 240.9423 104.6669 239.688 103.6264 234.6063 101.4609 230.5427 101.3547 229.3229 101.8481 228.1603 102.1183 227.1357 102.2302 225.9338 102.395 224.782 102.7403 223.6845 102.4565 222.8895 101.6031 222.2536 87.5479 223.4094 87.119 222.1082 87.4256 221.1337 88.1137 220.1831 88.5061 219.3568 88.3911 218.4594 87.8579 217.553 87.0058 216.3988 85.7293 214.191 85.6366 210.5599 85.0094 210.2905 82.7062 212.1912 80.109 213.112 75.1782 212.4522 75.0434 211.1393 75.1375 210.0391 75.5524 209.1174 76.3049 207.9062 77.9877 206.0876 84.343 201.2244 85.3485 199.4669 87.0914 198.0792 87.5992 197.0417 87.3386 195.4718 86.9304 194.3273 84.9182 190.9579 84.0471 187.8486 84.0248 185.8938 84.8082 177.4701 84.6027 176.0957 84.3577 174.8167 84.3614 173.6757 84.8592 172.3797 90.1817 169.8832 96.6535 156.2047 102.3722 151.0984 109.3808 149.9802 112.5842 146.8313 119.8969 146.7794 121.1533 145.9945 122.0971 145.2053 128.7191 131.2988 129.5009 130.4286 132.7717 129.3624 133.1034 128.4787 132.6594 126.4315 129.5647 118.5691 127.6525 115.606 127.1196 111.8119 127.2135 107.4877 124.6411 103.5458 124.0688 102.312 123.8735 101.0682 124.2783 99.5521 125.0783 98.5968 129.3229 96.5287 130.865 95.2936 131.3224 93.2219 146.3829 86.6273 151.5714 87.1246 160.1741 92.6263 194.466 92.2801 202.1024 94.3077 Z" id="LT.TL" fill="#cee3f5" stroke="#6e6e6e" stroke-width="0.4">
      <desc>
        <labelrank>7</labelrank>
        <code_hasc>LT.TL</code_hasc>
        <name>Telšiai</name>
        <admin>Lithuania</admin>
        <type_en>County</type_en>
        <region/>
        <woe_id>55848080</woe_id>
        <longitude>22</longitude>
        <woe_name>Telšiai</woe_name>
        <fips>LH63</fips>
        <woe_label>Telsiai County, LT, Lithuania</woe_label>
        <latitude>56</latitude>
        <iso_a2>LT</iso_a2>
        <postal>TL</postal>
        <type>Apskritis</type>
        <id>LT.TL</id>
      </desc>
    </path>
  </g>
</svg>