<?xml version="1.0" encoding="UTF-8"?>
<svg xmlns="http://www.w3.org/2000/svg" width="700" height="700">
  <g id="somalia">
    <path d="M 315.6884 329.8968 323.417 347.7796 325.457 351.8596 342.2883 355.9396 351.977 353.3896 350.9597 360.5296 345.857 370.731 347.897 386.541 360.6484 396.7423 360.137 414.0837 344.3283 430.4037 344.2703 430.579 341.8666 432.9866 341.777 432.955 337.1857 446.725 303.0117 449.275 296.8917 448.7663 292.8117 446.725 278.0203 445.705 277.5143 423.7737 279.043 415.6137 276.4917 404.9036 272.923 387.561 268.6803 361.6677 268.8034 361.6748 271.4496 361.8277 274.0905 361.9779 276.7367 362.1308 279.3777 362.2849 282.0212 362.4378 284.786 362.5986 286.262 361.9818 290.2972 357.6264 290.3104 357.6264 293.2096 354.4544 298.6813 348.478 304.1555 342.499 309.6245 336.52 315.0962 330.5437 315.6884 329.8968 Z" id="SO.HI" fill="#cee3f5" stroke="#6e6e6e" stroke-width="0.4">
      <desc>
        <iso_a2>SO</iso_a2>
        <name>Hiiraan</name>
        <type>Gobolka</type>
        <type_en>Region</type_en>
        <code_hasc>SO.HI</code_hasc>
        <region/>
        <postal>HI</postal>
        <labelrank>5</labelrank>
        <fips>SO07</fips>
        <woe_id>2347012</woe_id>
        <woe_label>Hiiraan, SO, Somalia</woe_label>
        <woe_name>Hiiraan</woe_name>
        <latitude>4.36813</latitude>
        <longitude>45.4984</longitude>
        <admin>Somalia</admin>
        <id>SO.HI</id>
      </desc>
    </path>
    <path d="M 268.6803 361.6677 272.923 387.561 276.4917 404.9036 279.043 415.6137 277.5143 423.7737 278.0203 445.705 271.9003 446.725 269.3543 445.705 259.149 446.215 252.5229 442.135 254.0516 439.585 254.0516 430.4037 253.029 428.3637 247.4203 416.1237 235.6916 412.5537 232.1176 412.5537 227.5316 414.5937 225.4916 416.1237 221.9176 422.7537 216.8203 428.3637 208.1489 430.4037 193.3576 425.3037 194.375 416.1237 192.335 412.0437 181.6289 393.6823 180.6176 391.7327 182.1191 390.053 182.8887 388.411 183.7954 384.8449 184.4806 383.1291 184.818 382.5822 185.2186 382.0827 189.0456 378.945 193.3207 375.4356 199.1112 372.6919 204.936 369.9297 210.666 367.2176 214.1925 365.5479 219.9066 364.2327 223.781 363.3432 228.8151 362.1861 230.3438 361.8356 234.7875 360.2621 236.6589 359.8153 239.7268 359.9946 242.373 360.1474 245.0139 360.299 247.6601 360.4545 250.301 360.6047 252.9472 360.7576 255.5882 360.9131 258.2344 361.0646 260.8727 361.2188 263.5163 361.3704 266.1625 361.5232 268.6803 361.6677 Z" id="SO.BK" fill="#cee3f5" stroke="#6e6e6e" stroke-width="0.4">
      <desc>
        <iso_a2>SO</iso_a2>
        <name>Bakool</name>
        <type>Gobolka</type>
        <type_en>Region</type_en>
        <code_hasc>SO.BK</code_hasc>
        <region/>
        <postal>BK</postal>
        <labelrank>5</labelrank>
        <fips>SO01</fips>
        <woe_id>2347006</woe_id>
        <woe_label/>
        <woe_name>Bakool</woe_name>
        <latitude>4.40611</latitude>
        <longitude>43.835</longitude>
        <admin>Somalia</admin>
        <id>SO.BK</id>
      </desc>
    </path>
    <path d="M 180.6176 391.7327 181.6289 393.6823 192.335 412.0437 194.375 416.1237 193.3576 425.3037 192.335 447.7463 192.335 456.4164 183.6689 457.4364 166.8376 455.9064 163.7749 472.7377 162.2462 481.4077 156.6376 513.0291 117.8722 513.5404 106.6496 548.2204 83.6244 549.7342 83.6244 548.8714 83.6244 542.497 83.6244 536.124 83.6244 529.7483 83.6244 523.3714 83.6244 516.9983 83.6244 510.6213 83.6244 505.1919 83.6244 499.7637 83.6244 494.3343 83.6244 488.9048 83.6244 485.1226 83.5559 478.2567 83.4926 471.6834 83.4663 468.9528 84.199 467.5375 85.9438 465.8085 90.1345 461.6626 94.3305 457.5141 98.5264 453.3629 102.7119 449.2144 105.3528 445.4401 107.9885 441.6711 110.6294 437.8955 113.2651 434.1239 117.5454 427.9999 121.8204 421.876 126.1007 415.7546 130.3705 409.632 131.0558 408.6278 131.7569 408.0638 132.0257 407.4273 131.9835 405.8643 132.3314 404.872 133.2381 404.0734 136.8384 401.866 139.7218 399.5677 141.4825 398.6834 143.1376 398.2657 147.5497 398.2209 151.3978 398.1814 157.4019 397.1627 165.2192 395.829 172.889 394.5217 176.5157 393.9037 178.6506 393.051 180.5535 391.8044 180.6176 391.7327 Z" id="SO.GE" fill="#cee3f5" stroke="#6e6e6e" stroke-width="0.4">
      <desc>
        <iso_a2>SO</iso_a2>
        <name>Gedo</name>
        <type>Gobolka</type>
        <type_en>Region</type_en>
        <code_hasc>SO.GE</code_hasc>
        <region/>
        <postal>GE</postal>
        <labelrank>5</labelrank>
        <fips>SO06</fips>
        <woe_id>2347011</woe_id>
        <woe_label>Gedo, SO, Somalia</woe_label>
        <woe_name>Gedo</woe_name>
        <latitude>3.05384</latitude>
        <longitude>42.0524</longitude>
        <admin>Somalia</admin>
        <id>SO.GE</id>
      </desc>
    </path>
    <path d="M 213.8257 578.1952 211.0882 580.8331 201.7991 591.3176 196.6683 596.3529 196.3939 596.3529 173.4636 596.6744 168.3662 575.7631 158.1662 545.1631 146.4323 545.6717 106.6496 548.2204 117.8722 513.5404 156.6376 513.0291 162.7576 516.6004 182.1349 534.9604 186.215 538.0204 201.0063 559.9518 205.0863 565.5631 213.6786 578.0219 213.8257 578.1952 Z" id="SO.JD" fill="#cee3f5" stroke="#6e6e6e" stroke-width="0.4">
      <desc>
        <iso_a2>SO</iso_a2>
        <name>Jubbada Dhexe</name>
        <type>Gobolka</type>
        <type_en>Region</type_en>
        <code_hasc>SO.JD</code_hasc>
        <region/>
        <postal>JD</postal>
        <labelrank>5</labelrank>
        <fips>SO08</fips>
        <woe_id>2347013</woe_id>
        <woe_label>Jubbada Dhexe, SO, Somalia</woe_label>
        <woe_name>Jubbada Dhexe</woe_name>
        <latitude>1.55342</latitude>
        <longitude>42.4706</longitude>
        <admin>Somalia</admin>
        <id>SO.JD</id>
      </desc>
    </path>
    <path d="M 302.8217 511.125 301.0868 512.1253 299.991 512.3578 299.4307 512.5362 289.3197 517.2929 280.6531 523.2428 280.2671 523.7222 279.6653 523.963 272.7337 528.9604 266.296 532.9657 255.2138 541.5908 249.5316 547.4224 248.3611 547.9288 246.294 549.1989 245.6631 549.7717 245.4888 550.1888 245.3643 550.7098 245.2813 551.708 245.0738 551.9134 244.1067 552.1957 243.895 552.3866 243.5339 552.893 239.9186 556.5082 238.881 557.1848 237.7811 557.4712 237.1585 557.9775 234.805 560.9785 229.0522 564.0582 227.118 565.4778 224.6858 568.8771 223.8224 569.3711 223.1168 569.6139 220.8464 571.4298 213.8257 578.1952 213.6786 578.0219 205.0863 565.5631 201.0063 559.9518 186.215 538.0204 203.5576 529.3504 216.8203 522.7204 232.1176 516.6004 271.3943 499.259 269.8603 485.9977 271.9003 472.2264 270.883 469.1664 273.4343 456.9264 271.9003 446.725 278.0203 445.705 292.8117 446.725 295.363 457.4364 306.5857 473.7577 306.0743 501.299 309.137 502.829 302.8325 511.0681 302.8217 511.125 Z" id="SO.SH" fill="#cee3f5" stroke="#6e6e6e" stroke-width="0.4">
      <desc>
        <iso_a2>SO</iso_a2>
        <name>Shabeellaha Hoose</name>
        <type>Gobolka</type>
        <type_en>Region</type_en>
        <code_hasc>SO.SH</code_hasc>
        <region/>
        <postal>SH</postal>
        <labelrank>5</labelrank>
        <fips>SO02</fips>
        <woe_id>2347019</woe_id>
        <woe_label>Shabeellaha Hoose, SO, Somalia</woe_label>
        <woe_name>Shabeellaha Hoose</woe_name>
        <latitude>1.63602</latitude>
        <longitude>44.185</longitude>
        <admin>Somalia</admin>
        <id>SO.SH</id>
      </desc>
    </path>
    <path d="M 320.1332 501.1411 302.8217 511.125 302.8325 511.0681 309.137 502.829 312.7057 501.809 320.0223 501.1435 320.1332 501.1411 Z" id="SO.BN" fill="#cee3f5" stroke="#6e6e6e" stroke-width="0.4">
      <desc>
        <iso_a2>SO</iso_a2>
        <name>Banaadir</name>
        <type>Gobolka</type>
        <type_en>Region</type_en>
        <code_hasc>SO.BN</code_hasc>
        <region/>
        <postal>BN</postal>
        <labelrank>5</labelrank>
        <fips>SO02</fips>
        <woe_id>2347007</woe_id>
        <woe_label>Banaadir, SO, Somalia</woe_label>
        <woe_name>Banaadir</woe_name>
        <latitude>2.12409</latitude>
        <longitude>45.436</longitude>
        <admin>Somalia</admin>
        <id>SO.BN</id>
      </desc>
    </path>
    <path d="M 393.281 435.5396 391.9113 436.9778 382.7964 447.6159 375.952 453.6966 372.1625 458.254 365.1271 464.1231 361.3791 467.9686 358.1789 470.2536 358.0793 470.6852 357.8386 471.1999 357.548 471.6274 357.3073 471.8038 356.4481 472.1276 355.9376 472.937 355.5391 473.9705 355.0079 474.9666 354.2939 475.4958 352.3099 476.4256 347.5076 481.4603 346.9224 482.2199 346.0881 483.7888 345.6025 484.4363 343.4607 485.7894 342.6763 487.2671 341.6262 488.1304 331.3907 494.7258 325.5548 498.0152 320.1332 501.1411 320.0223 501.1435 312.7057 501.809 309.137 502.829 306.0743 501.299 306.5857 473.7577 295.363 457.4364 292.8117 446.725 296.8917 448.7663 303.0117 449.275 337.1857 446.725 341.777 432.955 341.8666 432.9866 344.2703 430.579 344.3283 430.4037 360.137 414.0837 393.0723 435.4128 393.281 435.5396 Z" id="SO.SD" fill="#cee3f5" stroke="#6e6e6e" stroke-width="0.4">
      <desc>
        <iso_a2>SO</iso_a2>
        <name>Shabeellaha Dhexe</name>
        <type>Gobolka</type>
        <type_en>Region</type_en>
        <code_hasc>SO.SD</code_hasc>
        <region/>
        <postal>SD</postal>
        <labelrank>5</labelrank>
        <fips>SO13</fips>
        <woe_id>2347018</woe_id>
        <woe_label>Shabeellaha Dhexe, SO, Somalia</woe_label>
        <woe_name>Shabeellaha Dhexe</woe_name>
        <latitude>3.00561</latitude>
        <longitude>46.0549</longitude>
        <admin>Somalia</admin>
        <id>SO.SD</id>
      </desc>
    </path>
    <path d="M 83.6244 549.7342 106.6496 548.2204 146.4323 545.6717 158.1662 545.1631 168.3662 575.7631 173.4636 596.6744 196.3939 596.3529 196.6683 596.3529 191.8375 601.0903 181.685 612.3261 175.5213 619.0792 172.5536 621.4949 169.2746 624.1596 165.8337 627.6586 164.5885 629.4227 164.4681 629.9456 164.4889 630.3981 164.327 630.7218 163.0943 630.9833 162.7207 631.3195 160.7035 634.0091 160.4337 634.8559 161.048 635.4038 160.5333 636.2505 160.3507 636.4497 160.3549 636.1384 160.3299 635.8769 160.2303 635.6403 160.002 635.4038 157.2792 637.5247 156.8683 638.0311 156.5321 638.8695 155.7518 639.7827 154.0791 641.3309 148.9987 647.4531 148.8202 647.8931 148.8202 648.2832 148.7455 648.5655 148.2889 648.6734 148.098 648.8519 146.0393 652.0686 144.7277 653.4217 143.9681 653.9945 143.1463 654.393 142.175 654.6254 140.6517 654.5922 139.8838 654.7499 139.4231 655.2895 140.4027 655.5012 140.3612 656.4932 139.9046 657.5931 139.585 658.1037 138.8586 658.4897 138.1198 659.407 137.5387 660.5069 137.298 661.4491 137.0697 661.8558 135.3762 663.184 134.8035 663.4746 134.6001 663.1218 134.3801 660.9801 134.434 658.9753 134.1352 658.1037 133.8281 658.1037 133.9609 658.8757 133.8073 659.4485 133.5583 659.959 133.4379 660.5774 133.5043 661.1793 133.7575 661.9264 133.8281 662.4867 133.9692 663.1259 134.3095 663.4331 134.6665 663.6489 134.8657 664.0557 134.791 664.6907 134.268 665.7367 134.1352 666.3344 133.8613 666.986 132.6659 668.0735 132.3919 668.4388 132.3089 669.1029 132.0682 669.6591 131.7278 670.1654 129.8019 672.4649 129.5778 672.9837 129.7521 673.4569 130.1506 673.4278 130.6321 673.1456 131.0056 672.8302 130.3913 674.1791 129.2374 674.3161 128.1749 673.5316 127.8345 672.0996 127.5191 672.0996 127.5772 673.1373 128.1749 674.9553 128.2164 675.9265 127.9009 676.8646 122.5798 685.473 121.3803 686.9507 120.409 688.4532 118.4914 692.3092 117.5326 693.0853 116.3746 693.7411 114.5607 696.7711 113.5314 697.6427 113.8468 697.6427 112.5228 699 112.5665 697.9804 112.701 694.7869 112.5165 693.8223 111.8998 692.6995 109.9441 690.1692 107.377 686.8483 104.8046 683.5326 102.1742 680.1326 99.665 676.8908 97.3351 673.8861 94.5255 670.2542 91.9162 666.8753 89.3912 663.6176 88.0945 661.936 86.7925 660.2597 85.501 658.5782 84.199 656.8966 84.1515 653.0222 84.1041 649.4272 84.0566 645.8321 83.9828 640.292 83.909 634.7571 83.8352 629.2275 83.7614 623.6873 83.7245 620.2451 83.6824 616.8029 83.6244 612.6228 83.6244 606.2445 83.6244 599.8715 83.6244 593.4932 83.6244 587.1201 83.6244 580.7418 83.6244 574.3714 83.6244 567.9958 83.6244 561.6227 83.6244 555.2471 83.6244 549.7342 Z" id="SO.JH" fill="#cee3f5" stroke="#6e6e6e" stroke-width="0.4">
      <desc>
        <iso_a2>SO</iso_a2>
        <name>Jubbada Hoose</name>
        <type>Gobolka</type>
        <type_en>Region</type_en>
        <code_hasc>SO.JH</code_hasc>
        <region/>
        <postal>JH</postal>
        <labelrank>5</labelrank>
        <fips>SO09</fips>
        <woe_id>2347014</woe_id>
        <woe_label>Jubbada Hoose, SO, Somalia</woe_label>
        <woe_name>Jubbada Hoose</woe_name>
        <latitude>0.0078977</latitude>
        <longitude>41.8088</longitude>
        <admin>Somalia</admin>
        <id>SO.JH</id>
      </desc>
    </path>
    <path d="M 418.4043 226.6001 418.878 226.1424 421.3555 223.7545 423.8383 221.364 426.3158 218.9734 428.7907 216.5855 431.2709 214.1924 433.7458 211.8044 436.2259 209.4139 438.714 207.0234 441.1915 204.6328 444.2489 199.9954 447.3063 195.3526 450.3636 190.7165 453.4315 186.0804 456.4889 181.4469 459.5515 176.8094 462.6195 172.1667 465.6768 167.5372 468.7342 162.8945 471.7942 158.257 474.8621 153.6248 477.9168 148.9821 480.9768 144.3499 484.0421 139.7151 487.0916 135.0777 490.1516 130.4402 490.1516 124.755 496.3164 124.3848 497.3391 146.3162 498.8678 158.5575 502.4364 165.1875 508.0451 169.2675 516.2051 174.3689 527.9391 174.8789 533.0365 177.4289 536.0991 187.6289 538.6504 184.0589 540.6904 180.9989 546.8105 182.0189 552.7282 187.4553 552.2384 188.1049 551.4705 189.7693 550.0261 194.281 548.9054 196.2443 547.2327 197.8112 540.6581 201.8186 536.2044 206.3594 535.2955 207.8288 534.6978 209.6841 534.2246 213.2869 534.4985 213.8929 535.2539 214.3868 535.4698 215.5303 535.337 216.8128 535.0464 217.7218 533.5895 219.7826 532.0662 221.4263 531.6221 222.2938 531.4229 224.5206 531.2112 225.4171 525.9397 234.5946 518.7565 226.3916 515.6991 225.8816 502.9478 219.7616 494.7878 219.2516 467.7564 234.5529 420.0984 226.9279 419.6925 226.8857 418.4043 226.6001 Z" id="SO.NU" fill="#cee3f5" stroke="#6e6e6e" stroke-width="0.4">
      <desc>
        <iso_a2>SO</iso_a2>
        <name>Nugaal</name>
        <type>Gobolka</type>
        <type_en>Region</type_en>
        <code_hasc>SO.NU</code_hasc>
        <region/>
        <postal>NU</postal>
        <labelrank>5</labelrank>
        <fips>SO18</fips>
        <woe_id>2347016</woe_id>
        <woe_label>Nugaal, SO, Somalia</woe_label>
        <woe_name>Nugaal</woe_name>
        <latitude>8.46102</latitude>
        <longitude>48.849</longitude>
        <admin>Somalia</admin>
        <id>SO.NU</id>
      </desc>
    </path>
    <path d="M 364.0642 279.0095 365.1395 277.9714 366.1779 276.9686 368.4631 274.7678 370.7508 272.5657 371.7893 271.5655 374.2668 269.1749 376.7443 266.7844 379.2192 264.3925 381.6993 262.0059 384.1821 259.6127 386.6597 257.2222 389.1372 254.8343 391.6094 252.4411 394.087 250.0505 396.5698 247.6574 399.0473 245.2695 401.5248 242.8789 404.0076 240.491 406.4904 238.1004 408.9679 235.7073 411.4454 233.3167 413.923 230.9262 416.4005 228.5356 418.4043 226.6001 419.6925 226.8857 420.0984 226.9279 467.7564 234.5529 494.7878 219.2516 502.9478 219.7616 515.6991 225.8816 518.7565 226.3916 525.9397 234.5946 523.1756 239.4069 519.8052 243.238 511.9771 254.15 508.2125 261.534 505.8715 265.1202 503.3521 272.1099 497.068 285.284 496.931 286.4047 497.0348 287.5524 497.5162 289.6816 497.6242 290.7878 496.8936 295.2477 495.1006 299.1078 490.783 306.5294 485.6122 315.4177 477.7426 327.5107 475.2397 332.9833 473.8824 334.822 470.2091 338.3376 465.1038 346.8216 459.0273 353.4045 452.5772 362.1126 445.0935 377.2085 439.6271 385.157 434.1234 391.0592 433.8302 390.9689 416.7511 383.481 422.3598 347.7796 415.2224 328.3983 409.1024 319.2183 421.8531 292.1868 402.5905 287.7944 383.3274 283.4019 364.0642 279.0095 Z" id="SO.MU" fill="#cee3f5" stroke="#6e6e6e" stroke-width="0.4">
      <desc>
        <iso_a2>SO</iso_a2>
        <name>Mudug</name>
        <type>Gobolka</type>
        <type_en>Region</type_en>
        <code_hasc>SO.MU</code_hasc>
        <region/>
        <postal>MU</postal>
        <labelrank>5</labelrank>
        <fips>SO10</fips>
        <woe_id>2347015</woe_id>
        <woe_label/>
        <woe_name>Mudug</woe_name>
        <latitude>5.51036</latitude>
        <longitude>48.1009</longitude>
        <admin>Somalia</admin>
        <id>SO.MU</id>
      </desc>
    </path>
    <path d="M 490.1516 124.755 490.1516 130.4402 487.0916 135.0777 484.0421 139.7151 480.9768 144.3499 477.9168 148.9821 474.8621 153.6248 471.7942 158.257 468.7342 162.8945 465.6768 167.5372 462.6195 172.1667 459.5515 176.8094 456.4889 181.4469 453.4315 186.0804 450.3636 190.7165 447.3063 195.3526 444.2489 199.9954 441.1915 204.6328 433.925 204.6354 424.6027 204.6354 417.9555 204.6354 409.922 204.6354 401.9913 204.6354 394.7248 204.6354 390.1915 204.6328 387.1973 203.1516 383.9766 202.0736 379.7015 200.6371 375.4159 199.206 371.1409 197.7695 366.8553 196.3357 362.5723 194.9019 358.2947 193.4681 354.0091 192.0357 349.7288 190.6032 345.4458 189.1707 341.1681 187.7343 336.8878 186.3005 332.6075 184.8667 328.3325 183.4329 324.0469 182.0004 319.7666 180.5666 315.481 179.1328 310.9793 177.6568 306.4881 176.1808 301.989 174.7088 297.4952 173.2368 292.9961 171.7569 288.5076 170.2835 284.0059 168.8102 279.5147 167.3356 275.0183 165.8596 270.5271 164.3836 266.0254 162.9103 261.5342 161.4343 257.0378 159.9597 252.5414 158.4837 248.0449 157.0103 243.5485 155.5344 239.4579 154.1928 237.4654 153.0305 233.902 149.8084 227.4077 143.9322 222.8612 139.8285 218.9367 136.2716 218.2092 135.8776 217.3922 135.9303 216.1481 136.4034 215.1993 136.3138 211.2722 133.9707 208.6101 132.3893 207.9618 131.592 207.7404 130.6353 207.6112 128.9247 207.3002 128.0075 206.1432 125.6974 205.6766 125.2414 204.6487 124.5667 204.1585 124.1239 203.8185 123.5717 203.3335 122.4621 202.8433 121.9574 202.4216 121.7544 201.0431 121.4065 199.9283 120.1836 199.2377 118.1712 197.7617 110.0402 196.7866 108.4021 194.881 107.5521 192.5563 107.1476 190.6903 106.403 189.2723 105.0021 188.2971 102.634 187.8807 100.9577 187.2323 99.2907 186.3151 97.7778 185.1079 96.5575 180.2161 93.4158 178.8878 91.8383 177.454 88.7256 176.4999 85.4508 175.8462 80.7949 175.2927 79.4006 174.5073 78.3964 171.6924 75.6896 170.3324 73.5719 169.315 71.2867 169.2465 70.2061 169.9107 69.7264 170.9281 69.4181 171.9191 68.8633 172.5306 68.0159 172.9048 67.0117 173.3951 64.9388 173.88 63.7 174.4809 62.8816 176.3048 61.4241 177.1008 60.5886 177.4276 59.8071 177.6279 58.965 178.0285 57.9477 178.814 57.1398 180.9541 56.2556 181.8081 55.5453 182.1982 54.6821 182.7148 52.6025 183.3473 51.5101 196.8682 30.6509 199.5162 26.5658 200.1264 27.3191 200.8527 27.867 201.9444 27.9687 201.658 26.0013 202.3926 26.8522 203.5631 28.695 204.5593 29.712 205.2109 30.0399 206.4146 31.476 207.3444 31.8018 208.3447 32.0197 209.8513 33.1093 210.6856 33.543 211.0218 32.6838 211.6278 32.0695 212.2006 32.0197 212.4538 32.8457 211.6693 37.5857 212.1342 39.2626 213.0639 40.79 214.2344 41.9315 214.5582 42.0767 215.3883 42.276 215.7536 42.4711 215.9528 42.7616 216.2184 43.5212 216.9822 44.5547 217.4138 45.9659 218.7296 47.8378 220.8464 52.0611 225.7774 56.8427 229.5503 61.4976 234.2696 65.5155 239.6779 69.1888 243.2143 72.3972 245.8707 73.933 252.2295 79.1566 253.732 80.0178 255.9676 81.31 258.0917 82.1926 261.9709 81.9746 265.8556 82.4202 268.1367 82.8873 270.237 82.5289 271.9981 81.9271 275.0178 81.0615 276.5274 80.6289 278.5503 80.8523 281.838 81.3091 284.1118 81.4476 287.3067 81.2443 288.9461 79.8726 288.6307 78.9698 289.3197 78.9698 294.9231 75.6451 295.7075 75.3193 297.264 74.8544 302.112 71.8224 305.5944 68.6824 306.4453 68.2362 307.3376 68.3379 308.2798 68.6658 309.2594 68.8713 310.1144 68.8152 311.9573 68.3919 314.0866 67.5285 315.5933 66.6486 316.9381 65.6441 318.4697 63.7846 319.1379 63.3903 323.0229 62.1285 323.575 61.8421 324.1768 61.1946 324.6708 60.5139 325.2726 59.9743 326.2023 59.7544 326.8831 59.4265 327.68 57.9903 328.4811 57.6645 329.4025 57.6832 330.187 57.8077 330.9092 58.119 331.6438 58.7105 332.0963 59.3704 332.4283 60.0034 332.8849 60.4268 333.7358 60.4517 333.5241 59.5385 334.3542 59.5468 339.1026 61.6927 340.8873 61.9168 342.6763 62.3983 343.4981 62.7304 345.4614 63.1454 347.2461 62.857 350.824 61.8421 352.3639 62.0351 353.6713 62.83 355.9127 65.1668 357.3405 66.2543 359.1253 66.9101 361.0927 67.1778 363.085 67.101 364.8532 66.6797 365.7414 66.3165 367.161 65.4117 368.8461 65.1336 370.2739 64.5401 372.3368 64.4508 373.2084 64.3138 373.8933 63.9776 375.649 62.5706 380.1442 60.5409 382.1697 58.9657 384.4152 57.982 384.714 57.6666 385.1997 56.8987 385.4612 56.6206 385.8223 56.4691 386.5279 56.3882 386.8558 56.2699 391.6622 54.5619 395.4725 51.6896 398.0003 49.6226 399.8017 47.7714 400.4658 47.3439 402.815 46.6632 403.4293 46.2834 404.6828 45.2873 409.9624 42.635 410.9503 42.2614 411.9548 42.0311 413.5403 42.276 416.2175 41.6139 417.9109 41.9128 425.8179 45.941 427.4865 46.2834 430.3878 44.8079 436.7881 44.6875 439.6147 45.0652 448.9038 44.4779 450.4562 44.0192 451.1037 43.434 452.241 41.919 453.2496 41.4396 453.3367 41.0598 453.4696 40.68 453.951 40.5078 454.831 40.5202 455.2668 40.4787 456.209 40.2069 457.2591 40.0948 457.7696 39.8437 458.0934 39.4743 458.2345 39.1049 458.3175 38.7479 458.4918 38.4159 459.1518 37.7435 459.737 37.399 461.2811 37.0565 464.917 36.6954 466.6603 36.3343 468.1047 35.4565 468.8768 35.1638 472.1392 35.2821 474.7375 34.6471 475.6506 34.5848 479.1745 35.3693 481.1419 36.0957 483.0886 37.2163 487.5879 38.6691 488.3641 38.8123 489.2357 38.7977 490.1517 38.7418 490.1516 44.4742 490.1516 50.2054 490.1516 55.9353 490.1516 61.6692 490.1516 67.3952 490.1516 73.1278 490.1516 78.859 490.1516 84.5942 490.1516 90.3228 490.1516 96.0541 490.1516 101.7866 490.1516 107.5152 490.1516 113.2425 490.1516 118.9764 490.1516 124.709 490.1516 124.755 Z" id="Somaliland" fill="#cee3f5" stroke="#6e6e6e" stroke-width="0.4">
      <desc>
        <iso_a2>-1</iso_a2>
        <name>Somaliland</name>
        <type/>
        <type_en/>
        <code_hasc>-99.X11~</code_hasc>
        <region/>
        <postal/>
        <labelrank>20</labelrank>
        <fips/>
        <woe_id>-99</woe_id>
        <woe_label/>
        <woe_name/>
        <latitude>9.63996</latitude>
        <longitude>45.7932</longitude>
        <admin>Somaliland</admin>
        <id>Somaliland</id>
      </desc>
    </path>
    <path d="M 315.6884 329.8968 320.5678 324.5673 326.0394 318.5857 331.5111 312.6093 336.9827 306.6329 340.0849 303.4451 343.1976 300.256 346.3077 297.0681 349.423 293.8803 352.5384 290.6925 355.6537 287.5046 358.7585 284.3155 361.8686 281.129 364.0642 279.0095 383.3274 283.4019 402.5905 287.7944 421.8531 292.1868 409.1024 319.2183 415.2224 328.3983 422.3598 347.7796 416.7511 383.481 433.8302 390.9689 434.1234 391.0592 420.7292 405.4163 416.205 411.717 408.3686 419.7547 401.794 426.597 393.281 435.5396 393.0723 435.4128 360.137 414.0837 360.6484 396.7423 347.897 386.541 345.857 370.731 350.9597 360.5296 351.977 353.3896 342.2883 355.9396 325.457 351.8596 323.417 347.7796 315.6884 329.8968 Z" id="SO.GA" fill="#cee3f5" stroke="#6e6e6e" stroke-width="0.4">
      <desc>
        <iso_a2>SO</iso_a2>
        <name>Galguduud</name>
        <type>Gobolka</type>
        <type_en>Region</type_en>
        <code_hasc>SO.GA</code_hasc>
        <region/>
        <postal>GA</postal>
        <labelrank>5</labelrank>
        <fips>SO05</fips>
        <woe_id>2347010</woe_id>
        <woe_label>Galguduud, SO, Somalia</woe_label>
        <woe_name>Galguduud</woe_name>
        <latitude>5.09616</latitude>
        <longitude>46.6795</longitude>
        <admin>Somalia</admin>
        <id>SO.GA</id>
      </desc>
    </path>
    <path d="M 490.1516 124.755 490.1516 124.709 490.1516 118.9764 490.1516 113.2425 490.1516 107.5152 490.1516 101.7866 490.1516 96.0541 490.1516 90.3228 490.1516 84.5942 490.1516 78.859 490.1516 73.1278 490.1516 67.3952 490.1516 61.6692 490.1516 55.9353 490.1516 50.2054 490.1516 44.4742 490.1517 38.7418 492.0747 38.6255 498.7863 37.3408 505.4772 36.133 507.4404 35.2821 508.2166 34.2113 508.7354 33.8294 509.3705 34.0805 509.8561 34.3565 510.3791 34.3814 513.6623 34.0805 514.6377 33.8626 515.447 33.543 518.1782 31.9782 519.1328 31.8018 519.8675 31.3639 521.0255 29.1744 521.7477 28.3173 522.6775 27.9853 523.8397 27.8981 526.1308 27.9687 526.4131 27.8774 527.2266 27.4187 527.6998 27.2755 528.285 27.2548 529.7917 27.591 534.3076 28.0683 536.6735 27.7362 538.176 26.5471 538.5745 26.5948 539.4876 26.0117 540.077 25.8498 540.2762 25.7502 540.9154 25.2894 541.3097 25.1525 541.6833 25.1836 542.032 25.3081 542.2768 25.4389 542.3557 25.5011 547.0086 25.3662 547.9591 25.5011 550.9683 23.9093 551.9686 22.9921 552.5165 22.714 554.3386 22.7513 554.7952 22.5396 555.1937 22.2408 555.7582 21.9627 557.9455 21.392 558.9957 20.7216 563.2501 17.3306 565.5869 16.8657 566.5498 16.2244 568.2516 14.3255 569.804 12.9496 570.4099 12.1132 570.659 11.0195 570.7254 9.8677 570.9329 8.7097 571.265 7.6097 571.7299 6.6343 572.8837 5.1422 573.635 4.476 574.3448 4.1958 574.9674 4.1191 576.2624 3.4985 576.4989 3.1603 576.7231 2.9133 576.9597 2.7701 577.2668 2.7888 577.7151 3.0752 577.9973 3.1187 579.0931 2.824 581.2307 1.9171 583.1026 1.529 583.6339 1.17 584.9539 1 588.4829 3.3578 593.7376 3.8968 596.7583 6.3064 597.7544 6.6343 601.7764 6.6343 602.7726 6.8917 604.5034 7.8214 605.4497 8.029 606.6327 8.0559 607.8654 8.2199 608.8989 8.635 610.192 8.957 609.4094 10.6148 608.8497 12.7222 607.9816 14.2783 608.3054 16.6816 607.9021 18.1742 606.9708 19.0154 606.1031 20.441 604.5075 21.9261 602.8182 24.1086 601.627 25.3455 601.4277 25.6754 601.4817 26.2462 601.7224 27.0265 601.7764 27.4312 601.6394 28.5996 601.3032 29.7078 599.6596 33.2317 599.4105 34.0307 599.3109 37.3741 598.9623 39.5241 599.6471 41.8609 601.9421 43.2493 604.1605 43.3507 604.9288 44.3941 603.6483 45.4927 602.5194 47.9582 601.9632 48.751 601.5772 49.4711 601.2991 50.5856 601.1331 51.7872 601.6145 58.8661 602.3118 67.9353 603.4574 71.9282 603.1337 72.4761 601.9632 72.6691 600.7429 73.0447 600.4606 73.962 600.7304 76.1826 600.4772 77.2203 599.9709 77.8595 599.1864 78.1832 598.1031 78.2725 597.0903 78.6066 596.1979 79.3932 595.7787 80.3146 596.2021 81.0596 597.2065 81.2298 604.9766 79.6982 605.512 79.7667 606.0723 79.9161 606.504 79.9058 606.6825 79.5073 606.4625 78.9387 605.9852 78.6274 605.5078 78.4032 605.2879 78.1002 605.2505 76.9339 605.1094 75.8693 604.7898 74.8295 604.246 73.7462 605.043 74.4518 605.8385 75.0068 606.5172 75.6784 607.4005 76.1835 607.8419 76.4862 608.4194 76.7559 609.5728 77.596 610.1836 77.966 611.1357 78.1711 611.8844 78.3432 612.394 78.2445 612.9042 77.9447 613.4823 77.7791 614.5353 77.8837 615.4186 78.0197 615.8217 79.1579 616.5337 79.6282 616.224 80.5295 615.5377 82.2647 614.9008 82.4833 614.6526 82.6959 614.2657 82.998 614.4448 83.6979 614.003 83.6962 613.087 83.3251 612.4072 83.356 611.5885 83.1474 610.6069 83.4493 609.1809 83.177 608.7993 82.2094 608.6748 81.6117 608.351 81.014 607.5541 80.7442 599.8588 81.6771 596.1369 82.9724 591.5601 85.7303 590.6671 87.3731 590.25 90.4941 590.8167 93.4313 589.3369 97.2866 589.5859 99.613 590.1836 101.2235 590.25 101.8565 590.1504 102.4147 589.6939 103.1639 589.0256 106.7023 589.2041 107.2731 588.6147 108.3439 588.2826 109.2841 587.8178 111.8305 587.1329 113.6837 586.7594 114.2441 587.0333 115.6657 586.9461 116.1824 586.6805 117.1371 586.3111 120.248 585.3772 121.6053 585.344 123.1617 585.7258 125.8534 586.9378 129.1242 587.1205 130.1909 586.971 131.1559 586.6099 132.0524 583.4471 137.1702 582.4261 137.9733 580.2843 138.8823 579.4252 139.4364 578.7777 140.2354 577.2585 142.674 576.9597 143.4397 577.3706 146.6959 577.3332 147.8228 576.5778 149.7218 575.0919 151.5211 569.501 155.9041 567.932 157.5063 566.6868 159.1583 565.7861 160.7417 565.0681 162.8212 564.1425 167.0445 563.3497 168.8127 560.9133 171.7596 560.5605 172.818 560.714 175.9082 560.5605 176.8234 559.7386 178.7223 559.0621 179.6313 558.2817 180.0194 557.3271 180.3556 556.8124 181.1774 556.4555 182.2027 555.9989 183.1552 552.7282 187.4553 546.8105 182.0189 540.6904 180.9989 538.6504 184.0589 536.0991 187.6289 533.0365 177.4289 527.9391 174.8789 516.2051 174.3689 508.0451 169.2675 502.4364 165.1875 498.8678 158.5575 497.3391 146.3162 496.3164 124.3848 490.1516 124.755 Z" id="SO.BR" fill="#cee3f5" stroke="#6e6e6e" stroke-width="0.4">
      <desc>
        <iso_a2>SO</iso_a2>
        <name>Bari</name>
        <type>Gobolka</type>
        <type_en>Region</type_en>
        <code_hasc>SO.BR</code_hasc>
        <region/>
        <postal>BR</postal>
        <labelrank>5</labelrank>
        <fips>SO03</fips>
        <woe_id>2347008</woe_id>
        <woe_label>Bari, SO, Somalia</woe_label>
        <woe_name>Bari</woe_name>
        <latitude>9.95583</latitude>
        <longitude>50.1777</longitude>
        <admin>Somalia</admin>
        <id>SO.BR</id>
      </desc>
    </path>
    <path d="M 271.9003 446.725 273.4343 456.9264 270.883 469.1664 271.9003 472.2264 269.8603 485.9977 271.3943 499.259 232.1176 516.6004 216.8203 522.7204 203.5576 529.3504 186.215 538.0204 182.1349 534.9604 162.7576 516.6004 156.6376 513.0291 162.2462 481.4077 163.7749 472.7377 166.8376 455.9064 183.6689 457.4364 192.335 456.4164 192.335 447.7463 193.3576 425.3037 208.1489 430.4037 216.8203 428.3637 221.9176 422.7537 225.4916 416.1237 227.5316 414.5937 232.1176 412.5537 235.6916 412.5537 247.4203 416.1237 253.029 428.3637 254.0516 430.4037 254.0516 439.585 252.5229 442.135 259.149 446.215 269.3543 445.705 271.9003 446.725 Z" id="SO.BY" fill="#cee3f5" stroke="#6e6e6e" stroke-width="0.4">
      <desc>
        <iso_a2>SO</iso_a2>
        <name>Bay</name>
        <type>Gobolka</type>
        <type_en>Region</type_en>
        <code_hasc>SO.BY</code_hasc>
        <region/>
        <postal>BY</postal>
        <labelrank>5</labelrank>
        <fips>SO04</fips>
        <woe_id>2347009</woe_id>
        <woe_label>Bay, SO, Somalia</woe_label>
        <woe_name>Bay</woe_name>
        <latitude>2.67209</latitude>
        <longitude>43.545</longitude>
        <admin>Somalia</admin>
        <id>SO.BY</id>
      </desc>
    </path>
  </g>
</svg>