<?xml version="1.0" encoding="UTF-8"?>
<svg xmlns="http://www.w3.org/2000/svg" width="700" height="700">
  <g id="bangladesh">
    <path d="M 369.2748 390.6034 374.6464 396.6071 368.3268 392.8153 363.5871 394.3952 356.9516 387.7596 360.1114 386.4957 369.2748 390.6034 Z M 435.9466 282.8542 434.3667 283.8022 429.627 285.0661 429.311 288.5419 426.4672 287.278 419.8316 293.5976 423.3074 302.129 417.3038 309.3966 416.3558 317.612 410.0362 328.3554 407.5084 329.9353 403.0847 327.7234 393.2893 330.8832 393.2893 336.8868 389.1815 346.3662 392.3413 350.474 390.7614 353.9498 394.5532 358.3735 387.2856 366.273 384.1258 366.9049 387.2856 369.4328 386.3377 371.9606 383.1779 370.6967 376.8583 373.8565 374.9624 365.641 378.7542 360.5853 371.4866 362.1652 370.2227 365.325 362.3232 363.1132 364.8511 366.273 373.3825 368.1689 373.6985 378.9122 370.8547 386.4957 345.5763 380.8081 337.6768 377.0163 357.2675 393.7632 372.7506 397.239 376.8583 402.9267 376.2263 418.4097 373.0665 422.5174 371.1707 422.8334 371.8026 419.0416 367.6949 422.8334 360.1114 423.7813 359.7954 426.6252 356.6356 429.469 349.684 424.7293 344.6283 424.4133 342.4165 427.2571 345.2603 427.2571 346.2082 429.785 340.5206 435.4726 335.4649 431.3649 333.569 424.4133 325.9855 425.0453 309.8705 445.9 302.603 447.7958 291.8597 440.5283 279.8524 421.8855 275.7447 419.3576 275.4287 415.8818 278.5885 418.0937 283.6442 412.0901 281.4323 410.5102 276.6926 412.0901 275.4287 405.4545 269.4251 403.8746 273.8488 398.187 270.689 398.187 266.2653 390.2875 266.2653 386.4957 269.4251 388.3916 266.2653 376.0684 260.8936 372.2766 257.7338 371.9606 255.8379 374.4885 255.206 371.3287 258.3658 368.4848 246.9905 352.0539 239.407 352.3699 234.9833 346.6822 240.3549 330.8832 240.3549 327.7234 238.775 322.9837 242.2508 325.5115 252.0462 329.6193 254.574 331.1992 258.9977 334.9909 261.8416 335.6229 263.7374 334.9909 266.8972 332.7791 268.7931 332.1471 274.7967 331.5152 277.3246 330.8832 277.3246 329.6193 276.0607 322.3517 277.6406 316.0321 287.12 308.4486 288.3839 306.8687 289.6478 305.2888 290.2798 303.7089 290.5957 299.6012 291.8597 297.7053 291.8597 291.7017 291.2277 290.4378 289.3318 290.1218 283.6442 280.9584 283.0122 270.847 288.0679 228.1897 287.7519 225.9778 286.172 223.766 283.9602 221.8701 280.8004 220.2902 278.9045 218.7103 277.9565 217.7623 276.3766 214.6025 275.4287 212.3907 272.9009 199.4355 272.9009 198.4876 275.7447 176.053 282.0643 165.3096 281.7483 155.8302 284.2761 150.1426 284.5921 149.1947 285.2241 148.2467 286.804 147.2988 288.6999 146.9828 290.5957 161.2019 300.3911 159.622 324.4056 169.7334 349.684 177.0009 377.8062 174.4731 386.6537 176.6849 391.7094 174.789 399.2929 177.6329 411.3001 176.053 412.5641 187.7442 409.0883 197.2236 416.3558 208.5989 419.1996 210.1788 432.1548 208.5989 433.7347 213.9706 434.3667 216.4984 434.0507 227.8737 434.9986 230.0856 435.3146 230.4015 440.6863 230.0856 441.9502 230.7175 442.5822 231.6655 442.8981 232.9294 442.8981 233.8773 441.9502 236.0892 441.3182 238.933 440.6863 239.249 439.4224 239.8809 438.7904 240.1969 438.7904 241.1449 440.3703 242.7248 441.6342 244.6206 444.1621 246.2005 439.4224 255.6799 443.5301 257.8918 444.1621 261.9995 442.2662 263.2635 444.794 265.4753 445.426 266.1073 446.0579 268.0032 445.426 269.2671 444.794 269.2671 443.5301 270.847 445.11 273.0589 442.8981 274.6388 439.1064 276.5346 437.5265 280.3264 435.9466 282.8542 Z" id="BD.DA" fill="#cee3f5" stroke="#6e6e6e" stroke-width="0.4">
      <desc>
        <labelrank>7</labelrank>
        <code_hasc>BD.DA</code_hasc>
        <name>Dhaka</name>
        <admin>Bangladesh</admin>
        <type_en>Division</type_en>
        <region/>
        <woe_id>2344791</woe_id>
        <longitude>90</longitude>
        <woe_name>Dhaka</woe_name>
        <fips>BG81</fips>
        <woe_label>Dhaka, BD, Bangladesh</woe_label>
        <latitude>24</latitude>
        <iso_a2>BD</iso_a2>
        <postal>DA</postal>
        <type>Bibhag</type>
        <id>BD.DA</id>
      </desc>
    </path>
    <path d="M 215.3925 581.7714 214.1286 583.9833 210.6528 582.0874 205.2811 575.4518 206.545 569.7641 204.6492 560.6007 206.861 562.1806 209.7048 575.4518 214.7605 578.6116 215.3925 581.7714 Z M 238.775 322.9837 240.3549 327.7234 240.3549 330.8832 234.9833 346.6822 239.407 352.3699 246.9905 352.0539 258.3658 368.4848 255.206 371.3287 255.8379 374.4885 257.7338 371.9606 260.8936 372.2766 266.2653 376.0684 269.4251 388.3916 266.2653 386.4957 266.2653 390.2875 270.689 398.187 273.8488 398.187 269.4251 403.8746 275.4287 405.4545 276.6926 412.0901 281.4323 410.5102 283.6442 412.0901 278.5885 418.0937 275.4287 415.8818 275.7447 419.3576 279.8524 421.8855 291.8597 440.5283 302.603 447.7958 306.0788 452.8515 302.603 455.0634 300.3911 459.8031 302.287 463.2789 297.5473 468.0186 302.603 469.5985 299.4432 472.4423 305.4468 480.6578 304.1829 489.8212 307.9746 495.1928 301.655 504.6722 296.2834 501.5124 297.2313 510.3599 292.4916 519.2073 295.9674 540.378 293.1236 542.5899 287.7519 541.9579 293.4396 547.0136 293.1236 554.2811 296.9153 565.0244 286.488 571.344 284.2761 569.4482 277.9565 571.344 272.9009 569.1322 271.321 559.9688 268.1612 566.6043 277.0086 576.7157 273.5328 580.8234 265.3173 579.5595 266.5813 584.2992 264.3694 586.5111 262.1575 585.2472 258.0498 573.2399 262.1575 564.7085 262.7895 547.3296 266.5813 537.5342 262.4735 527.1068 269.1091 511.3078 260.5776 526.7909 263.7374 537.5342 260.5776 551.7533 258.6818 553.0172 258.9977 540.378 254.258 528.6867 252.3622 516.0475 252.3622 538.7981 254.258 534.6904 257.1019 541.3259 253.9421 548.2775 257.4178 555.545 256.1539 561.8646 251.0982 567.8683 251.0982 577.0317 244.4627 584.6152 240.3549 581.4554 242.2508 562.8126 238.459 554.2811 239.091 563.7605 232.7714 573.5559 230.8755 571.976 232.1394 579.5595 229.6116 586.8271 232.4554 589.0389 226.7678 592.8307 222.66 591.8828 223.9239 585.5632 220.1322 573.2399 216.6564 576.0837 210.9688 572.608 208.1249 560.9167 209.7048 550.8053 205.9131 543.2218 208.1249 529.9507 200.8574 516.9955 202.4373 515.7316 196.7497 487.9253 192.01 485.7134 195.1698 481.2897 190.1141 462.6469 194.2218 450.0077 188.5342 446.2159 182.5306 434.8407 184.1105 423.1494 196.1177 407.9823 181.2666 403.5586 175.895 405.4545 167.3635 401.6627 166.0996 396.923 175.579 373.8565 173.9991 372.5926 169.8914 376.0684 158.2001 361.8493 152.8284 360.2694 153.4604 357.1096 150.6166 354.5817 155.0403 330.2512 163.2558 328.3554 169.8914 322.0358 168.6274 313.5043 171.1553 308.4486 165.7836 303.077 166.0996 294.5455 167.9955 292.3336 170.5233 291.3857 172.1032 290.4378 172.1032 291.3857 172.7352 292.3336 174.3151 294.8615 174.947 295.4934 177.4749 297.0733 180.0027 298.6532 182.2146 298.9692 184.1105 298.6532 191.378 295.1775 192.6419 294.2295 193.9058 292.9656 194.8538 292.9656 197.0656 293.2816 205.2811 302.129 208.7569 308.7646 208.4409 312.5564 208.7569 313.8203 209.7048 315.0842 213.8126 318.56 218.5523 321.4038 221.3961 321.7198 230.5595 321.0878 236.2472 321.7198 238.775 322.9837 Z" id="BD.KH" fill="#cee3f5" stroke="#6e6e6e" stroke-width="0.4">
      <desc>
        <labelrank>7</labelrank>
        <code_hasc>BD.KH</code_hasc>
        <name>Khulna</name>
        <admin>Bangladesh</admin>
        <type_en>Division</type_en>
        <region/>
        <woe_id>2344792</woe_id>
        <longitude>89</longitude>
        <woe_name>Khulna</woe_name>
        <fips>BG82</fips>
        <woe_label>Khulna, BD, Bangladesh</woe_label>
        <latitude>22</latitude>
        <iso_a2>BD</iso_a2>
        <postal>KH</postal>
        <type>Bibhag</type>
        <id>BD.KH</id>
      </desc>
    </path>
    <path d="M 375.5944 558.7048 370.2227 565.6564 366.115 567.2363 369.2748 565.6564 366.7469 563.1286 368.0109 558.3889 375.9104 552.7012 377.4903 558.3889 375.5944 558.7048 Z M 347.1562 568.8162 345.5763 569.4482 345.8923 560.9167 349.368 553.9651 353.7918 551.1213 347.1562 568.8162 Z M 358.2155 561.8646 354.1077 560.2847 357.5835 545.4337 364.2191 553.9651 358.2155 561.8646 Z M 378.1222 531.5306 372.1186 548.2775 366.7469 551.1213 366.115 548.2775 370.5387 543.8538 363.9031 547.0136 364.8511 541.6419 378.1222 531.5306 Z M 415.7239 526.1589 416.0398 533.7424 413.196 536.9022 412.88 528.3708 413.828 525.5269 415.7239 526.1589 Z M 419.5156 527.7388 418.2517 528.6867 418.8837 520.1553 419.5156 527.7388 Z M 419.8316 517.3115 415.7239 523.947 413.828 523.3151 418.2517 507.5161 419.8316 517.3115 Z M 380.0181 499.6166 383.1779 508.78 381.914 505.3042 380.966 514.4676 376.5423 497.7207 380.0181 499.6166 Z M 401.8207 532.7945 396.1331 541.9579 394.2372 543.5378 393.2893 541.9579 386.9697 550.1734 381.914 551.7533 380.966 549.2254 385.7057 538.7981 377.8062 548.2775 379.0702 533.7424 385.3898 517.3115 386.3377 506.2522 381.598 486.0294 371.8026 479.3938 374.0145 461.067 377.8062 458.2232 381.914 457.5912 394.8692 489.5052 404.6646 499.3006 401.8207 532.7945 Z M 377.1743 446.8479 385.0738 455.0634 375.2784 454.4314 368.9588 459.8031 367.6949 466.4387 360.4273 459.8031 361.6913 450.0077 363.9031 447.7958 377.1743 446.8479 Z M 381.282 435.1566 383.8099 437.6845 380.0181 438.0005 383.8099 442.1082 379.3861 441.1603 374.9624 436.7365 368.0109 438.0005 366.115 435.1566 368.3268 431.3649 374.6464 428.2051 381.282 435.1566 Z M 362.9552 430.7329 360.4273 424.7293 366.431 424.0973 362.9552 430.7329 Z M 359.7954 426.6252 366.431 442.1082 369.5908 444.636 362.6392 446.2159 358.2155 456.0113 355.0557 456.6433 356.6356 459.8031 351.2639 460.751 358.2155 463.9108 361.0593 462.0149 364.2191 465.4907 366.7469 478.4459 361.0593 482.2377 359.1634 492.349 362.3232 482.8696 366.115 481.2897 372.1186 484.1335 377.1743 495.8248 374.9624 494.8769 378.4382 506.2522 378.1222 513.5197 372.1186 526.7909 365.799 529.9507 358.8474 541.9579 353.1598 538.7981 356.9516 527.4228 355.6876 517.3115 353.7918 516.9955 353.4758 526.1589 356.0036 529.9507 344.3124 553.0172 341.7845 566.6043 332.9371 574.1879 320.6139 571.344 324.4056 559.3368 317.77 568.5002 313.0303 567.5523 315.2422 555.2291 328.5134 537.5342 334.201 536.5862 336.4129 527.4228 332.9371 535.3223 326.6175 537.8502 316.1901 552.3852 309.8705 551.1213 314.2943 544.1698 314.9262 535.6383 319.034 531.5306 316.1901 532.7945 308.2906 545.7497 308.2906 552.7012 306.7107 554.2811 302.919 551.4373 296.5994 519.8393 299.1272 511.6238 311.4504 492.981 307.9746 495.1928 304.1829 489.8212 305.4468 480.6578 299.4432 472.4423 302.603 469.5985 297.5473 468.0186 302.287 463.2789 300.3911 459.8031 302.603 455.0634 306.0788 452.8515 302.603 447.7958 309.8705 445.9 325.9855 425.0453 333.569 424.4133 335.4649 431.3649 340.5206 435.4726 346.2082 429.785 345.2603 427.2571 342.4165 427.2571 344.6283 424.4133 349.684 424.7293 356.6356 429.469 359.7954 426.6252 Z" id="BD.BA" fill="#cee3f5" stroke="#6e6e6e" stroke-width="0.4">
      <desc>
        <labelrank>7</labelrank>
        <code_hasc>BD.BA</code_hasc>
        <name>Barisal</name>
        <admin>Bangladesh</admin>
        <type_en>Division</type_en>
        <region/>
        <woe_id>23706410</woe_id>
        <longitude>90</longitude>
        <woe_name>Barisal</woe_name>
        <fips>BG85</fips>
        <woe_label>Barisal, BD, Bangladesh</woe_label>
        <latitude>22</latitude>
        <iso_a2>BD</iso_a2>
        <postal>BA</postal>
        <type>Bibhag</type>
        <id>BD.BA</id>
      </desc>
    </path>
    <path d="M 525.3689 583.6673 530.4246 595.9905 529.1607 606.4178 528.2128 608.3137 520.6292 608.3137 521.2612 610.8416 518.7334 611.4735 516.5215 607.0498 518.4174 599.4663 515.8895 582.4033 518.1014 578.9276 520.9452 580.1915 519.6813 587.1431 522.2091 582.4033 521.2612 576.7157 525.053 575.7678 525.3689 583.6673 Z M 514.6256 581.4554 512.7297 580.5075 513.3617 564.7085 517.1535 558.0729 519.3653 565.6564 514.6256 581.4554 Z M 429.943 538.7981 425.2033 540.062 421.4115 536.9022 427.4151 528.0548 428.995 504.6722 430.8909 504.3563 439.7383 512.5718 441.3182 523.6311 436.5785 533.4264 429.943 538.7981 Z M 438.1584 497.0887 433.1028 495.8248 434.3667 492.665 442.5822 489.5052 442.8981 494.5609 438.1584 497.0887 Z M 482.0797 502.4604 476.708 503.0923 470.0724 496.4568 467.2286 487.9253 471.9683 480.6578 482.0797 493.6129 482.0797 502.4604 Z M 387.2856 366.273 394.5532 358.3735 390.7614 353.9498 392.3413 350.474 389.1815 346.3662 393.2893 336.8868 393.2893 330.8832 403.0847 327.7234 407.5084 329.9353 410.0362 328.3554 416.3558 317.612 417.3038 309.3966 423.3074 302.129 419.8316 293.5976 426.4672 287.278 429.311 288.5419 429.627 285.0661 434.3667 283.8022 435.9466 282.8542 444.794 287.278 447.6378 287.9099 451.1136 284.7501 451.7456 284.4341 452.6935 284.1182 453.9574 283.8022 454.5894 283.8022 455.2214 284.4341 455.5373 284.7501 455.2214 285.0661 454.9054 285.6981 453.3255 286.962 450.4817 288.5419 450.1657 288.8579 449.8497 289.4898 449.8497 290.1218 450.4817 290.4378 453.0095 291.0697 453.6415 291.3857 453.6415 291.7017 453.0095 292.0177 450.7976 292.6496 449.8497 292.9656 448.9018 294.8615 449.2177 295.8094 450.1657 298.6532 451.4296 306.2368 453.6415 310.0285 453.3255 311.2924 453.0095 313.8203 452.6935 313.8203 451.1136 313.5043 447.9538 315.7162 443.2141 323.9316 444.478 331.5152 441.0023 342.2585 434.0507 346.3662 438.7904 352.3699 434.9986 354.2657 434.9986 359.3214 441.3182 373.2245 444.794 376.0684 448.2698 387.4436 451.4296 389.6555 449.2177 392.8153 454.5894 419.6736 460.909 424.4133 459.0131 405.1385 460.909 400.7148 463.1209 400.3988 471.0204 409.8782 477.656 431.9968 484.6075 438.0005 488.0833 433.8927 497.8787 431.9968 507.6741 420.6215 501.6704 398.8189 509.5699 383.6519 519.0493 377.9642 522.8411 372.2766 520.6292 345.1023 531.0566 354.8977 545.2757 343.8384 550.3314 353.6338 553.1752 346.3662 557.2829 346.6822 556.967 358.0575 562.3386 379.2282 567.7103 388.3916 568.9742 397.239 565.8144 409.8782 569.9221 438.9484 577.1897 445.584 579.0856 458.2232 585.4052 466.1227 586.0371 482.2377 595.2005 528.6867 595.2005 531.8465 591.0928 533.4264 597.7284 562.1806 596.1485 580.1915 598.3603 611.7895 604.364 632.0122 596.4645 638.0158 591.0928 624.7447 577.1897 623.7967 572.134 614.3173 568.3422 613.0534 564.2345 618.1091 558.8628 618.4251 557.5989 620.9529 552.5432 632.6442 552.5432 647.4952 562.6546 660.7664 562.6546 675.3015 570.8701 695.5242 569.9221 699 556.651 676.2494 554.1231 667.402 538.9561 650.0231 537.6922 632.9602 527.2648 615.8972 530.7406 610.5256 534.5324 609.8936 531.3726 601.6781 536.1123 592.1987 535.4803 584.6152 530.4246 591.2508 530.4246 584.6152 528.2128 586.5111 526.6329 583.3513 531.0566 578.2956 527.5808 577.6636 531.0566 574.1879 520.9452 574.8198 526.3169 563.4445 522.5251 566.2884 515.5736 536.9022 515.2576 532.7945 516.8375 533.4264 515.2576 532.1625 513.6777 535.9543 510.8339 528.6867 513.6777 520.4713 510.2019 513.5197 517.1535 510.0439 520.9452 499.3006 518.7334 499.3006 517.4694 506.5681 508.306 514.1517 512.0978 520.4713 507.6741 521.7352 502.9344 501.1965 495.0349 486.6614 480.8158 467.0706 471.3364 459.8031 474.1802 443.0561 471.3364 451.2716 466.2807 455.3794 465.9647 461.067 458.3812 458.5392 460.909 460.1191 459.9611 462.3309 452.3775 462.9629 457.1172 464.8588 455.5373 467.7026 447.3219 467.7026 447.3219 465.1747 440.3703 464.2268 442.2662 467.7026 439.1064 469.2825 448.2698 472.1263 449.5337 474.3382 447.3219 482.2377 442.8981 486.0294 434.6827 488.2413 430.2589 486.0294 422.3594 469.5985 420.7795 470.2304 424.5713 480.9737 414.144 481.2897 406.8764 469.9144 402.4527 469.5985 397.713 462.9629 389.1815 439.2644 379.3861 424.7293 383.4939 400.3988 382.8619 394.0792 377.1743 391.5514 375.9104 378.9122 379.7021 374.4885 388.5496 372.9086 387.2856 366.273 Z" id="BD.CG" fill="#cee3f5" stroke="#6e6e6e" stroke-width="0.4">
      <desc>
        <labelrank>7</labelrank>
        <code_hasc>BD.CG</code_hasc>
        <name>Chittagong</name>
        <admin>Bangladesh</admin>
        <type_en>Division</type_en>
        <region/>
        <woe_id>2344790</woe_id>
        <longitude>92</longitude>
        <woe_name>Chittagong</woe_name>
        <fips>BG80</fips>
        <woe_label>Chittagong, BD, Bangladesh</woe_label>
        <latitude>22</latitude>
        <iso_a2>BD</iso_a2>
        <postal>CG</postal>
        <type>Bibhag</type>
        <id>BD.CG</id>
      </desc>
    </path>
    <path d="M 453.0095 313.8203 453.0095 313.1883 453.3255 311.2924 453.6415 310.0285 451.4296 306.2368 450.1657 298.6532 449.2177 295.8094 448.9018 294.8615 449.8497 292.9656 450.7976 292.6496 453.0095 292.0177 453.6415 291.7017 453.6415 291.3857 453.0095 291.0697 450.4817 290.4378 449.8497 290.1218 449.8497 289.4898 450.1657 288.8579 450.4817 288.5419 453.3255 286.962 454.9054 285.6981 455.2214 285.0661 455.5373 284.7501 455.2214 284.4341 454.5894 283.8022 453.9574 283.8022 452.6935 284.1182 451.7456 284.4341 451.1136 284.7501 447.6378 287.9099 444.794 287.278 435.9466 282.8542 439.1064 276.5346 442.8981 274.6388 445.11 273.0589 443.5301 270.847 444.794 269.2671 445.426 269.2671 446.0579 268.0032 442.2662 263.2635 444.1621 261.9995 443.5301 257.8918 439.4224 255.6799 444.1621 246.2005 441.6342 244.6206 440.6863 243.9887 440.3703 242.7248 438.7904 241.1449 438.7904 240.1969 439.4224 239.8809 441.3182 238.933 441.9502 236.0892 442.8981 233.8773 442.8981 232.9294 442.5822 231.6655 441.9502 230.7175 440.6863 230.0856 435.3146 230.4015 434.9986 230.0856 434.0507 227.8737 434.3667 216.4984 433.7347 213.9706 432.1548 208.5989 419.1996 210.1788 416.3558 208.5989 409.0883 197.2236 412.5641 187.7442 410.9842 181.1086 411.3001 176.053 443.8461 170.3653 465.0167 177.6329 479.5518 174.789 483.0276 178.5808 487.4513 179.2128 497.2467 173.8411 530.1086 171.6292 545.2757 177.3169 551.9113 182.6885 559.4948 183.9525 568.3422 192.1679 579.4015 201.0154 580.3495 206.3871 568.3422 212.0747 558.5469 205.7551 551.2793 205.7551 552.5432 219.3422 545.2757 245.5686 539.588 250.9402 539.588 263.5794 534.5324 268.0032 522.5251 267.6872 525.053 274.6388 517.1535 272.1109 517.7854 281.2743 514.9416 293.5976 511.1498 293.9135 507.0421 286.014 499.1426 284.7501 499.1426 292.9656 493.7709 295.1775 487.7673 286.962 484.2915 300.2331 475.7601 302.761 459.0131 301.1811 456.4853 313.5043 453.0095 313.8203 Z" id="BD.SY" fill="#cee3f5" stroke="#6e6e6e" stroke-width="0.4">
      <desc>
        <labelrank>2</labelrank>
        <code_hasc>BD.SY</code_hasc>
        <name>Sylhet</name>
        <admin>Bangladesh</admin>
        <type_en>Division</type_en>
        <region/>
        <woe_id>23706411</woe_id>
        <longitude>91</longitude>
        <woe_name>Sylhet</woe_name>
        <fips>BG86</fips>
        <woe_label>Sylhet, BD, Bangladesh</woe_label>
        <latitude>24</latitude>
        <iso_a2>BD</iso_a2>
        <postal>SY</postal>
        <type>Bibhag</type>
        <id>BD.SY</id>
      </desc>
    </path>
    <path d="M 275.7447 176.053 272.9009 198.4876 272.9009 199.4355 275.4287 212.3907 276.3766 214.6025 277.9565 217.7623 278.9045 218.7103 280.8004 220.2902 286.172 223.766 287.7519 225.9778 288.0679 228.1897 283.0122 270.847 283.6442 280.9584 289.3318 286.646 289.3318 290.1218 291.2277 290.4378 291.8597 297.7053 290.5957 299.6012 290.2798 303.7089 289.6478 305.2888 288.3839 306.8687 287.12 308.4486 277.6406 316.0321 276.0607 322.3517 277.3246 329.6193 277.3246 330.8832 274.7967 331.5152 268.7931 332.1471 263.7374 334.9909 261.8416 335.6229 258.9977 334.9909 254.574 331.1992 252.0462 329.6193 242.2508 325.5115 238.775 322.9837 236.2472 321.7198 221.3961 321.7198 218.5523 321.4038 216.3404 320.1399 213.8126 318.56 209.7048 315.0842 208.7569 313.8203 208.4409 312.5564 208.7569 308.7646 205.2811 302.129 197.0656 293.2816 194.8538 292.9656 193.9058 292.9656 191.378 295.1775 184.1105 298.6532 182.2146 298.9692 180.0027 298.6532 179.0548 298.0213 177.4749 297.0733 174.947 295.4934 174.3151 294.8615 172.7352 292.3336 172.1032 291.3857 172.1032 290.4378 172.4192 289.4898 173.9991 286.646 170.5233 275.5867 164.5197 272.7429 161.6759 278.1145 144.297 275.2707 136.3975 268.9511 104.7995 252.8361 101.9556 241.1449 95.636 235.4572 99.1118 222.502 108.9072 212.0747 106.0634 203.5432 115.5428 200.0675 119.9665 207.967 128.498 208.5989 139.8732 187.7442 141.7691 171.3133 154.7243 173.8411 162.6238 171.3133 178.7388 175.105 182.5306 170.9973 193.9058 174.4731 192.3259 171.9452 200.5414 161.8339 199.5935 158.6741 226.4518 160.254 229.6116 170.6813 232.7714 174.1571 240.0389 170.0493 257.1019 175.105 275.7447 176.053 Z" id="BD.RJ" fill="#cee3f5" stroke="#6e6e6e" stroke-width="0.4">
      <desc>
        <labelrank>7</labelrank>
        <code_hasc>BD.RJ</code_hasc>
        <name>Rajshahi</name>
        <admin>Bangladesh</admin>
        <type_en>Division</type_en>
        <region/>
        <woe_id>2344793</woe_id>
        <longitude>89</longitude>
        <woe_name>Rajshahi</woe_name>
        <fips>BG83</fips>
        <woe_label>Rajshahi, BD, Bangladesh</woe_label>
        <latitude>24</latitude>
        <iso_a2>BD</iso_a2>
        <postal>RJ</postal>
        <type>Bibhag</type>
        <id>BD.RJ</id>
      </desc>
    </path>
    <path d="M 275.7447 176.053 257.1019 175.105 240.0389 170.0493 232.7714 174.1571 229.6116 170.6813 226.4518 160.254 199.5935 158.6741 191.694 158.3581 185.3744 154.8823 180.9507 147.2988 182.5306 140.0312 178.1068 134.6596 174.6311 133.3957 174.6311 135.6075 166.4156 139.0833 151.8805 134.6596 140.5052 123.6003 140.1892 116.3327 123.1263 99.9018 119.6505 98.0059 108.9072 101.4817 104.7995 94.8461 103.5355 85.6827 111.751 71.1476 110.8031 64.512 113.3309 58.1924 131.0258 49.345 132.2897 41.4455 142.4011 31.966 149.3526 33.23 145.8769 21.2227 134.1856 17.431 132.2897 21.8547 130.0779 19.6428 137.9774 1 140.5052 10.4794 166.4156 25.9624 166.0996 28.8062 172.4192 36.3898 165.1517 42.7094 167.0475 43.9733 176.211 40.8135 180.0027 42.3934 184.4264 48.713 189.7981 42.7094 200.5414 49.029 205.2811 47.7651 207.493 46.5011 203.7012 43.0254 204.0172 40.4975 201.1734 41.1295 199.5935 36.7057 193.9058 34.1779 191.694 29.7542 197.0656 23.4346 208.1249 30.3861 209.0729 34.4939 214.1286 37.0217 213.4966 38.9176 210.6528 38.6016 210.6528 41.7614 216.0244 58.5084 239.091 76.2033 245.0946 74.3074 246.9905 76.8352 255.206 76.2033 261.2096 80.943 263.1055 73.3594 268.4771 67.6718 263.7374 65.7759 267.8452 61.6682 263.4215 59.1403 265.9493 55.9805 269.1091 56.6125 268.7931 49.9769 273.2168 49.6609 273.5328 56.9285 280.1684 58.8244 283.9602 72.4115 287.7519 77.4672 290.2798 76.5192 291.8597 78.7311 288.0679 82.2069 292.4916 84.1028 287.12 98.3219 292.4916 119.4925 291.2277 136.8714 288.6999 146.9828 286.804 147.2988 285.2241 148.2467 284.5921 149.1947 281.7483 155.8302 282.0643 165.3096 275.7447 176.053 Z" id="BD.RP" fill="#cee3f5" stroke="#6e6e6e" stroke-width="0.4">
      <desc>
        <labelrank>7</labelrank>
        <code_hasc>BD.RP</code_hasc>
        <name>Rangpur</name>
        <admin>Bangladesh</admin>
        <type_en>Division</type_en>
        <region/>
        <woe_id>-2344793</woe_id>
        <longitude>89</longitude>
        <woe_name/>
        <fips>BG83</fips>
        <woe_label/>
        <latitude>25</latitude>
        <iso_a2>BD</iso_a2>
        <postal>RP</postal>
        <type>Bibhag</type>
        <id>BD.RP</id>
      </desc>
    </path>
  </g>
</svg>