<?xml version="1.0" encoding="UTF-8"?>
<svg xmlns="http://www.w3.org/2000/svg" width="700" height="700">
  <g id="northwest_territories">
    <path d="M 54.331 345.7169 51.5677 346.8222 50.7387 346.2696 52.3967 345.4406 54.331 345.7169 Z M 117.886 345.1643 118.715 345.9933 116.5044 346.8222 115.9517 345.1643 117.886 345.1643 Z M 22.2771 344.888 20.8955 346.2696 18.6849 345.9933 20.3428 344.888 22.2771 344.888 Z M 492.8606 330.2427 498.3872 330.7953 497.8345 331.6243 493.137 331.0717 492.8606 330.2427 Z M 403.0546 325.8215 407.7522 327.2031 401.673 326.6504 403.0546 325.8215 Z M 173.9802 326.3741 182.8226 329.4137 185.3096 330.519 191.1124 334.1112 194.981 337.9798 196.9153 338.8088 196.0863 339.6378 198.2969 342.401 201.8892 344.3353 207.4157 347.0986 209.35 347.6512 214.6002 349.8618 215.9818 350.1382 219.0214 350.1382 220.9557 350.9671 223.1663 351.2435 225.1006 350.9671 226.2059 350.1382 230.0744 349.8618 229.7981 348.4802 227.0348 348.7565 222.6136 348.4802 223.7189 347.9276 227.5875 347.0986 228.1401 345.9933 224.5479 345.7169 225.3769 344.059 228.9691 343.5063 232.285 342.6774 235.601 344.3353 236.1536 343.23 235.3246 342.6774 228.1401 342.401 227.3112 341.2957 229.5218 341.2957 231.1797 341.8484 232.5614 341.2957 233.114 340.1904 235.0483 338.8088 238.3642 338.2561 235.8773 337.1508 232.285 337.7035 230.6271 338.8088 229.2454 338.2561 228.9691 337.1508 233.6667 336.0455 237.5352 336.3219 241.4038 336.0455 243.0618 335.4929 238.0879 335.2165 238.3642 334.1112 240.0222 333.5586 242.7854 333.5586 243.0618 334.9402 246.3777 336.3219 246.1013 337.4272 244.1671 337.7035 245.2724 338.8088 244.4434 340.7431 243.0618 342.9537 244.1671 343.5063 247.483 343.5063 249.1409 342.9537 251.9042 343.23 252.4568 343.7827 249.4173 344.888 248.312 346.5459 244.1671 348.2039 244.7197 349.0329 242.5091 349.3092 243.3381 350.1382 246.3777 350.9671 250.5226 350.9671 252.1805 350.6908 253.8385 349.5855 254.9438 350.1382 257.707 350.1382 260.4703 350.6908 263.5099 350.1382 265.7205 349.3092 265.1679 348.2039 267.9311 347.6512 270.1417 347.6512 270.9707 346.2696 270.4181 345.4406 272.076 344.059 271.247 342.1247 274.5629 341.0194 277.8789 341.5721 281.4711 341.2957 285.616 341.2957 286.9976 341.0194 291.9715 341.2957 299.156 341.5721 301.0903 341.8484 307.1694 342.1247 308.5511 342.9537 312.4196 344.059 315.4592 344.3353 319.0515 345.4406 319.8804 345.9933 322.0911 365.3361 322.3674 372.7969 321.5384 382.4683 347.7894 389.9291 362.9873 394.074 393.9359 399.6006 402.502 402.3638 460.8068 421.7067 484.5709 429.7201 504.4663 429.7201 526.0198 429.7201 548.1259 438.8389 556.692 442.1548 560.2842 444.0891 584.0483 445.4707 615.8258 447.6813 640.6952 449.6156 672.1964 452.3789 699 455.1421 699 467.8531 699 474.7613 699 486.367 699 499.6306 699 508.1968 699 520.9078 699 528.6449 699 539.9743 688.7759 539.9743 673.578 539.9743 658.38 539.9743 638.2082 539.9743 627.9842 539.9743 607.8124 539.9743 592.6144 539.9743 577.4165 539.9743 567.1924 539.9743 551.9945 539.9743 542.0467 539.9743 521.5986 539.9743 511.6508 539.9743 491.2027 539.9743 481.2549 539.9743 461.0831 539.9743 445.8852 539.9743 425.4371 539.9743 405.2652 539.9743 395.0412 539.9743 374.8694 539.9743 359.6714 539.9743 344.4735 539.9743 324.3017 539.9743 314.0776 539.9743 298.8797 539.9743 283.6817 539.9743 273.734 539.9743 257.707 539.9743 253.5622 537.7637 252.7332 536.9347 250.7989 535.8294 249.1409 532.5135 249.4173 530.8555 245.5487 530.5792 245.5487 529.4739 244.4434 528.3686 241.9565 526.9869 241.4038 525.8816 243.6144 525.0527 244.4434 524.5 243.3381 523.671 242.5091 520.9078 240.5748 521.1841 237.8116 520.6314 236.4299 521.7367 236.7063 522.842 233.943 522.842 230.0744 523.1184 227.8638 524.5 225.6532 524.5 222.3373 523.3947 219.574 523.671 216.2581 522.0131 214.6002 522.842 213.4949 523.9473 211.8369 523.9473 211.5606 522.5657 208.7973 523.1184 209.0736 524.2237 207.1394 524.5 205.2051 524.5 202.9945 523.671 199.9549 525.0527 198.8496 524.2237 196.3626 524.5 195.81 524.2237 196.3626 523.1184 195.5337 522.2894 195.5337 521.1841 194.7047 519.5261 193.323 518.6971 191.9414 518.9735 191.1124 518.4208 192.4941 516.7629 193.5994 516.2102 191.9414 513.1706 190.8361 512.3416 190.5598 510.4074 188.9018 510.4074 187.7965 509.5784 183.099 509.8547 180.0594 509.0257 179.2304 507.9204 177.2961 507.6441 174.8092 506.2625 171.4933 504.8808 172.8749 503.7755 172.0459 502.9466 169.559 502.6702 167.3484 500.7359 165.4141 499.907 165.4141 499.078 161.2692 497.1437 158.7823 497.1437 157.677 498.5253 156.019 498.5253 155.7427 497.6964 153.8084 497.42 153.2557 497.1437 149.6635 497.42 148.2819 496.5911 148.8345 495.2094 146.6239 494.1041 146.9002 492.7225 148.2819 492.1698 146.3476 491.3409 148.5582 490.5119 148.0055 489.1302 145.5186 488.8539 144.4133 487.7486 142.7553 487.4723 140.8211 485.538 138.6105 483.0511 137.2288 482.4984 136.9525 481.6694 138.6105 480.5641 140.2684 478.3535 139.7158 477.8009 137.2288 478.0772 135.8472 476.9719 133.9129 475.3139 132.2549 475.0376 131.7023 474.485 129.2154 473.656 130.8733 473.1033 134.7419 471.7217 133.9129 470.6164 134.4656 469.7874 136.3998 470.0637 133.9129 468.1295 132.8076 467.8531 132.8076 466.7478 130.3207 466.7478 129.768 465.3662 126.4521 466.1952 125.0705 465.0899 130.0443 463.9846 129.2154 462.8793 128.939 461.774 125.0705 462.6029 123.1362 461.2213 119.2676 460.116 116.228 459.287 115.6754 458.1817 112.6358 456.5238 114.5701 455.4184 112.9121 455.1421 112.0831 453.7605 110.1489 453.4842 111.2542 452.6552 110.4252 451.5499 108.7672 450.7209 105.7276 449.8919 104.0697 450.1683 102.688 450.9972 97.9905 451.2736 94.3983 451.2736 94.9509 450.4446 97.9905 449.0629 97.9905 448.5103 94.3983 447.9576 92.7403 446.8523 90.806 444.9181 88.8717 444.6417 84.1742 442.9838 81.9636 442.9838 80.3056 443.2601 79.4766 442.1548 82.2399 440.7732 81.4109 439.3915 83.0689 439.1152 84.7268 437.4572 80.5819 436.9046 81.1346 435.2466 78.095 435.7993 75.8844 434.9703 76.4371 434.1413 78.095 433.036 80.0293 433.036 80.5819 431.6544 83.8979 430.5491 85.8321 429.4438 85.8321 428.6148 88.0428 426.4042 85.0032 423.6409 83.0689 422.812 80.0293 421.983 79.4766 421.4303 80.8583 420.325 84.4505 419.496 83.8979 418.6671 81.4109 418.9434 80.5819 418.1144 78.095 418.1144 75.3317 419.496 74.5028 420.6013 73.1211 420.8777 70.9105 420.0487 73.1211 418.3907 72.8448 418.1144 68.6999 417.8381 65.6603 418.6671 62.8971 419.7724 57.9232 419.2197 59.0285 417.2854 57.3705 417.0091 57.9232 415.9038 60.1338 415.0748 60.1338 413.1405 58.4759 412.3116 55.4363 412.5879 54.331 412.0352 55.7126 410.9299 56.2652 409.5483 58.7522 409.5483 57.0942 408.1667 59.3048 407.3377 57.6469 406.5087 56.8179 405.6797 55.1599 405.4034 55.9889 404.5744 54.0546 403.7454 55.7126 402.3638 52.1203 400.1532 51.015 400.1532 48.5281 399.0479 50.7387 398.4952 39.4093 398.2189 20.3428 398.2189 7.0792 398.2189 5.6975 396.0083 6.5265 395.1793 5.6975 394.6267 7.6318 393.5214 8.7371 392.1397 7.6318 390.7581 5.9739 389.9291 6.8029 388.8238 5.9739 387.7185 6.5265 386.8895 4.5922 385.2316 1.2763 384.9553 1.2763 381.6394 1 371.6916 1 359.8096 4.3159 360.3622 7.9082 360.0859 9.8424 358.7043 8.1845 357.599 9.8424 357.599 11.7767 356.2173 10.3951 353.7304 13.4347 351.7961 15.369 351.2435 22.5534 350.6908 24.2114 349.3092 27.251 348.4802 31.1196 348.2039 34.4355 347.9276 40.791 349.0329 42.1726 348.4802 40.791 347.0986 42.4489 345.1643 41.62 343.7827 43.8306 343.5063 44.1069 344.3353 46.5938 344.3353 45.7648 346.2696 48.2518 347.0986 51.015 346.8222 55.4363 347.6512 53.7783 349.0329 57.6469 350.1382 60.9628 349.5855 64.2787 349.8618 68.6999 349.8618 72.0158 347.6512 71.1869 345.9933 72.8448 344.6116 75.0554 344.888 78.095 344.6116 80.0293 345.1643 82.2399 345.1643 84.4505 344.3353 82.7926 343.7827 78.6477 344.059 81.4109 342.6774 87.4901 343.7827 88.5954 343.23 91.9113 343.23 92.7403 342.1247 94.9509 342.1247 97.1615 340.7431 99.0958 340.1904 102.1354 339.6378 103.2407 338.5325 105.175 338.5325 108.2146 339.6378 109.8725 339.6378 111.8068 337.4272 112.9121 337.4272 114.5701 335.7692 116.5044 336.0455 119.2676 335.2165 123.1362 334.9402 125.3468 336.0455 129.2154 336.0455 132.5313 336.5982 134.4656 336.3219 135.2945 334.3876 137.2288 334.1112 136.3998 333.2823 139.1631 332.7296 139.7158 333.8349 142.2027 334.3876 142.479 335.4929 143.5843 336.5982 141.65 337.7035 133.0839 339.3614 130.597 340.1904 124.7941 341.2957 122.0309 342.401 120.6492 343.5063 116.5044 344.3353 112.9121 346.8222 110.7015 345.7169 107.1093 345.4406 106.5566 345.9933 102.688 345.9933 101.0301 346.5459 97.4378 346.8222 96.0562 346.5459 90.5297 347.3749 88.8717 349.0329 89.977 350.1382 89.1481 350.4145 80.5819 352.3488 75.0554 352.9014 73.1211 355.6647 73.3975 357.3226 70.0816 356.2173 68.6999 357.0463 67.042 357.0463 65.1077 358.4279 66.4893 358.9806 66.213 359.8096 64.0024 360.6386 61.7918 360.0859 61.2391 361.7439 64.555 362.8492 65.9367 362.8492 64.0024 361.4675 65.1077 360.6386 67.3183 360.9149 68.1473 361.4675 72.2922 361.7439 73.3975 360.9149 76.9897 362.0202 77.266 361.4675 81.9636 362.0202 83.3452 360.9149 80.8583 359.8096 80.3056 360.3622 76.9897 360.6386 74.5028 359.8096 75.6081 358.9806 73.9501 358.4279 73.6738 357.3226 74.5028 356.2173 76.9897 356.2173 79.2003 355.3884 82.7926 355.6647 84.1742 354.8357 83.8979 354.0067 90.5297 353.1778 95.7799 351.5198 96.6089 350.1382 94.1219 350.1382 93.0166 349.8618 96.6089 349.3092 98.2668 349.5855 100.2011 348.7565 102.688 348.7565 105.7276 347.6512 108.2146 348.2039 109.3199 346.5459 114.8464 347.6512 115.6754 349.3092 118.715 348.4802 121.7546 346.8222 122.8599 345.4406 125.3468 343.7827 130.597 343.5063 132.5313 342.9537 137.7815 342.1247 140.2684 341.2957 145.5186 340.7431 149.6635 340.4667 149.1108 341.5721 149.3872 343.7827 151.3215 342.9537 153.8084 342.9537 156.2953 342.401 158.7823 341.2957 160.1639 340.1904 164.5851 338.8088 165.9667 337.4272 164.5851 335.7692 166.2431 334.6639 169.8353 334.1112 173.1512 334.1112 179.2304 333.2823 180.8884 332.7296 175.3618 332.4533 171.7696 331.9006 170.388 330.7953 168.1774 329.9663 169.0063 327.4794 172.3222 325.8215 173.9802 326.3741 Z M 391.4489 325.5451 393.6595 326.0978 391.7253 326.6504 388.962 325.8215 391.4489 325.5451 Z M 170.1116 325.2688 169.559 326.3741 165.6904 326.3741 167.3484 324.4398 170.1116 325.2688 Z M 534.3096 282.1619 540.1124 283.5435 539.0071 284.9252 533.4806 282.9909 534.3096 282.1619 Z M 528.2304 276.3591 539.0071 277.188 540.1124 277.7407 540.1124 282.1619 534.0333 281.3329 533.2043 280.504 527.6778 279.9513 522.9802 278.2933 522.4276 276.9117 524.9145 276.6354 528.2304 276.3591 Z M 403.8836 311.4525 404.7126 312.5578 400.015 312.8341 400.844 313.1105 404.7126 313.6631 405.8179 313.3868 405.2652 311.7288 403.8836 311.4525 400.844 311.7288 400.5677 311.1762 403.0546 310.8998 410.5154 309.7945 415.213 310.0709 420.7395 309.7945 421.2922 309.2419 416.8709 308.9656 412.726 308.4129 416.3183 307.5839 419.9105 307.3076 426.266 307.0313 422.9501 305.6496 421.5685 305.926 414.384 306.7549 409.6865 306.7549 401.3967 307.5839 398.9097 308.4129 394.4885 308.4129 390.8963 308.9656 387.304 309.5182 387.304 307.8603 385.3698 307.3076 382.3302 307.5839 385.6461 308.4129 384.8171 309.5182 380.9485 309.2419 378.7379 309.5182 371.8298 309.5182 370.1718 309.2419 368.7902 307.5839 372.6587 306.2023 377.9089 306.2023 381.5012 305.3733 377.3563 304.5443 375.1457 303.439 372.3824 303.9917 370.7245 305.097 366.5796 305.097 367.1322 304.5443 364.9216 303.7154 358.0135 303.7154 356.6318 305.097 353.3159 303.7154 352.2106 301.7811 352.4869 299.8468 353.5922 298.4652 357.4608 296.5309 360.2241 295.9782 361.6057 294.5966 364.369 293.215 366.0269 293.215 373.2114 292.1097 372.9351 290.4517 371.0008 289.6227 368.7902 289.899 365.4743 289.6227 363.8163 288.7937 363.8163 287.6884 364.9216 286.5831 371.5534 284.0962 374.593 282.9909 376.8036 282.9909 383.9881 280.7803 386.7514 279.1223 388.6857 278.2933 392.2779 278.017 399.4624 276.9117 404.4363 275.5301 406.6469 275.5301 410.2391 274.4248 414.9367 274.1485 420.7395 273.0432 427.095 272.2142 429.3056 271.3852 440.0823 269.7272 442.293 269.1746 446.4378 269.1746 450.3064 269.7272 455.5566 272.2142 457.4909 274.1485 455.8329 276.6354 456.1093 280.504 451.688 280.7803 448.9248 281.8856 450.0301 283.2672 446.9905 284.0962 443.9509 284.6489 445.6089 285.2015 448.9248 285.4778 450.8591 284.6489 455.004 283.5435 458.8725 283.8199 465.7807 282.7146 467.715 281.8856 464.1227 281.6093 464.1227 281.0566 466.3333 280.2276 468.5439 278.2933 471.5835 276.9117 476.2811 276.3591 483.1892 277.188 487.3341 277.7407 489.5447 278.5697 495.9002 278.846 502.8084 280.504 505.5717 280.7803 512.7561 282.4382 513.0325 284.3725 511.3745 285.7542 508.0586 286.5831 507.7823 287.6884 505.2953 288.5174 497.2819 290.1754 501.1504 290.1754 507.7823 288.7937 511.0982 288.2411 511.0982 289.0701 513.5851 289.899 517.1774 288.2411 518.0063 287.1358 520.2169 286.5831 522.9802 285.2015 527.6778 286.0305 529.3357 285.7542 532.9279 286.5831 536.5202 288.2411 538.4545 287.4121 540.1124 287.9648 540.1124 295.4256 539.8361 303.1627 539.8361 315.3211 539.8361 324.9925 539.5598 337.4272 496.4529 337.4272 485.9525 337.4272 485.9525 340.4667 479.8733 340.4667 479.597 337.4272 459.1489 337.4272 445.8852 337.4272 408.3048 337.4272 394.7648 337.4272 394.7648 338.2561 396.6991 339.9141 400.015 341.8484 406.0942 343.5063 395.5938 343.7827 392.5542 343.23 390.0673 341.8484 388.6857 339.0851 387.304 337.7035 387.8567 336.5982 390.8963 335.7692 395.5938 334.9402 399.1861 334.6639 406.0942 333.8349 411.0681 333.5586 416.5946 332.7296 418.5289 332.7296 424.0554 332.177 427.6477 332.177 433.7268 331.6243 437.3191 331.6243 449.7538 330.7953 453.6223 331.0717 456.9382 331.6243 461.3595 331.6243 463.5701 331.9006 466.3333 331.6243 471.0309 331.6243 476.8337 332.7296 480.1496 332.7296 480.9786 333.0059 485.6762 333.5586 485.9525 332.4533 489.2684 332.7296 489.5447 332.177 493.966 331.6243 497.5582 331.9006 504.4663 331.9006 506.9533 330.2427 503.6374 329.9663 499.7688 330.2427 497.0055 329.69 493.4133 326.9268 487.6105 326.6504 485.3998 326.6504 483.4656 326.0978 478.2154 325.8215 474.8994 325.2688 471.5835 324.1635 468.2676 324.1635 467.1623 323.6108 464.6754 324.4398 461.3595 323.3345 456.6619 322.7819 452.2407 323.8872 447.5432 323.6108 445.0562 324.4398 440.9113 324.9925 439.806 324.4398 435.1085 325.2688 433.4505 324.9925 430.1346 325.5451 428.2003 324.9925 422.6738 325.5451 422.1211 325.2688 417.1473 325.5451 414.6603 325.8215 411.6207 325.5451 411.3444 324.7162 404.7126 324.4398 400.5677 325.2688 392.0016 324.9925 389.2383 325.2688 387.304 325.8215 385.0934 324.9925 383.9881 325.2688 380.9485 324.1635 380.9485 323.0582 373.7641 321.1239 370.7245 320.2949 366.3032 317.5317 368.5139 316.15 373.7641 314.7684 378.7379 313.9394 387.0277 313.1105 393.9359 312.2815 395.3175 312.2815 403.8836 311.4525 Z M 249.9699 264.477 251.6279 265.0297 246.9303 265.306 246.1013 264.2007 249.9699 264.477 Z M 304.1298 245.1342 312.1433 245.9632 312.9723 246.5158 316.2882 247.6211 325.9596 249.8317 334.2494 250.9371 341.1576 251.4897 342.2629 253.7003 345.3025 252.0424 352.2106 252.0424 353.8686 253.9766 352.2106 255.0819 351.658 256.4636 355.5265 256.1873 359.1188 253.9766 356.9082 252.8713 359.1188 252.3187 371.8298 250.6607 376.8036 250.9371 387.304 252.0424 390.62 252.595 402.2257 256.1873 408.5812 258.6742 420.1869 262.8191 423.2264 263.0954 424.3317 264.2007 429.3056 265.8587 429.5819 266.964 424.3317 268.3456 419.3579 269.7272 405.8179 271.3852 402.2257 272.2142 400.5677 273.0432 395.5938 274.1485 390.8963 274.9774 390.62 275.5301 385.9224 275.8064 385.3698 276.0827 380.3959 277.188 374.593 279.1223 369.8955 279.675 365.7506 280.7803 364.369 281.6093 360.2241 281.8856 357.1845 282.7146 351.3816 284.3725 351.658 285.7542 350 286.5831 347.7894 289.6227 345.8551 290.4517 341.7102 291.2807 338.947 292.386 330.6572 292.386 332.0388 293.4913 331.2098 295.1492 329.5519 295.9782 325.9596 297.6362 325.407 298.1888 326.5123 299.0178 325.407 302.3337 326.7886 303.1627 324.8543 305.6496 321.5384 307.3076 318.4988 307.8603 307.7221 309.5182 306.0641 309.5182 303.5772 308.6892 302.1956 307.5839 297.498 307.0313 298.8797 308.1366 296.3927 308.9656 293.6295 310.8998 290.3135 312.0051 284.5107 312.8341 280.9184 313.9394 277.8789 315.5974 271.7997 315.5974 269.0364 315.0447 264.8915 312.8341 262.6809 308.9656 261.023 307.3076 257.4307 306.4786 256.6017 305.3733 254.1148 303.7154 249.6936 302.3337 246.654 301.7811 241.4038 301.2284 230.0744 298.4652 231.1797 297.3599 227.3112 297.3599 217.0871 297.9125 216.5344 297.3599 219.0214 295.9782 218.7451 294.8729 217.3634 294.5966 219.2977 293.4913 219.574 291.8333 222.8899 291.557 223.1663 289.899 225.1006 289.3464 226.7585 287.4121 232.5614 285.4778 232.0087 283.8199 234.2193 282.9909 233.114 282.4382 234.2193 281.6093 232.285 279.9513 230.9034 279.675 238.3642 278.846 241.4038 278.5697 244.1671 278.017 243.3381 276.9117 238.3642 276.3591 235.8773 274.9774 237.8116 273.3195 242.5091 271.6615 243.3381 269.7272 244.4434 269.1746 246.9303 266.964 251.6279 266.135 252.7332 264.7534 252.1805 263.3717 256.6017 262.2664 256.3254 261.7138 258.2597 261.1611 255.2201 259.5032 249.6936 258.9505 249.9699 257.8452 246.1013 256.1873 245.825 255.0819 243.8907 254.253 245.2724 253.7003 242.7854 252.0424 243.3381 251.4897 237.8116 249.5554 241.1275 249.0028 254.1148 248.1738 263.7862 247.8975 268.7601 247.3448 276.7736 247.0685 283.4054 247.0685 290.5899 246.5158 295.0111 245.6869 299.156 245.4105 304.1298 245.1342 Z M 540.3888 217.2253 540.3888 218.6069 536.2439 218.0542 540.3888 217.2253 Z M 315.7356 217.2253 317.6698 217.7779 314.3539 220.8175 312.9723 221.3702 308.5511 221.0938 309.38 220.2648 313.8013 219.7122 314.0776 217.2253 315.7356 217.2253 Z M 381.7775 213.3567 385.6461 213.9093 385.6461 215.0146 381.7775 217.5016 378.4616 218.6069 376.5273 221.3702 372.1061 222.7518 367.6849 224.9624 364.369 225.515 360.2241 225.7914 353.5922 224.4097 351.1053 224.6861 346.4078 223.8571 348.342 222.7518 356.3555 220.2648 356.9082 219.7122 363.2637 217.5016 368.2375 216.3963 371.8298 216.3963 372.6587 215.5673 376.251 215.0146 379.0143 213.633 381.7775 213.3567 Z M 540.1124 205.6196 540.1124 211.1461 535.6912 210.5934 529.8884 209.4881 530.1647 208.9355 529.0594 207.2775 534.5859 207.0012 540.1124 205.6196 Z M 438.4244 205.6196 452.517 206.1722 454.7276 207.5538 453.346 209.7644 456.3856 210.3171 455.004 211.4224 458.3199 211.9751 462.1884 211.9751 470.4782 210.5934 473.5178 210.8698 476.5574 210.3171 479.597 210.8698 479.597 211.4224 485.1235 211.9751 488.4394 212.5277 486.2288 213.0804 486.2288 213.9093 488.1631 215.0146 493.966 215.5673 501.1504 216.9489 501.7031 218.0542 496.7292 218.3306 493.137 218.8832 493.966 219.4359 497.8345 219.9885 499.7688 219.4359 507.2296 219.1595 507.7823 220.8175 510.2692 221.6465 508.6112 222.4755 508.3349 223.5808 509.9929 224.9624 512.7561 225.515 517.1774 225.515 522.7039 224.6861 527.9541 224.6861 529.3357 225.2387 537.0728 225.2387 540.3888 225.515 540.3888 238.7787 537.3492 239.055 536.5202 239.884 531.27 239.3314 529.8884 239.3314 527.9541 240.4367 524.9145 241.2656 525.4671 242.0946 513.8614 244.3052 508.8876 244.8579 502.8084 246.2395 497.8345 246.7922 496.4529 247.0685 488.7158 247.8975 482.6366 248.1738 476.8337 248.4501 467.4386 247.8975 461.9121 247.3448 456.1093 245.9632 450.8591 244.5816 447.2668 242.9236 446.9905 242.3709 454.175 240.4367 461.0831 239.6077 471.0309 239.3314 471.8599 238.226 475.1758 237.1207 479.3207 236.5681 487.0578 236.2918 494.5186 236.0154 502.8084 236.2918 505.848 235.7391 506.9533 234.6338 510.8219 234.6338 511.3745 233.5285 516.3484 232.4232 516.6247 231.5942 512.7561 231.0416 510.5455 232.1469 506.9533 232.9759 499.7688 232.9759 498.6635 233.5285 494.7949 233.2522 493.6896 233.5285 488.4394 233.5285 484.0182 232.1469 484.8472 231.0416 482.6366 230.7652 481.5313 231.8705 482.6366 232.9759 480.9786 233.8048 475.7284 234.3575 469.0966 234.6338 465.228 234.6338 458.0435 235.1865 456.9382 234.3575 457.7672 232.4232 460.2542 229.6599 464.6754 228.831 463.2937 228.2783 458.5962 228.5546 455.2803 226.6203 454.4513 228.002 455.2803 229.1073 452.2407 231.8705 447.5432 230.7652 450.0301 232.9759 446.7142 234.9101 435.1085 236.8444 432.0689 236.2918 431.5162 234.6338 432.0689 233.2522 427.924 234.3575 422.9501 233.2522 425.1607 235.7391 421.8448 236.8444 410.5154 234.9101 409.4101 234.0812 410.7918 232.6995 410.5154 231.8705 403.6073 232.6995 401.9493 233.8048 388.4093 232.6995 384.8171 232.1469 381.7775 231.0416 383.7118 229.1073 388.6857 226.8967 392.2779 226.344 405.2652 226.344 414.6603 226.344 416.3183 226.0677 422.6738 224.4097 429.5819 223.5808 433.4505 222.1991 427.095 223.0281 422.1211 223.0281 417.9762 223.8571 406.9232 224.6861 390.8963 224.4097 392.0016 222.7518 396.9755 220.2648 398.9097 219.9885 414.1077 219.7122 417.4236 219.4359 427.6477 219.1595 433.1742 218.6069 435.9375 218.8832 438.1481 217.7779 431.2399 218.3306 420.1869 218.0542 414.6603 218.6069 406.9232 218.6069 400.844 218.0542 401.673 216.3963 404.7126 216.3963 405.5416 215.291 401.673 215.0146 403.331 213.3567 407.1995 212.5277 414.1077 211.6987 420.7395 212.2514 426.5424 211.9751 430.6873 211.9751 432.3452 211.4224 419.6342 210.8698 417.4236 209.7644 419.3579 209.2118 417.9762 208.6591 425.1607 207.0012 437.0428 206.1722 438.4244 205.6196 Z M 455.5566 197.8824 461.0831 197.8824 466.886 199.2641 467.1623 200.093 464.1227 201.4747 458.0435 201.1983 453.8987 201.4747 447.8195 201.1983 439.5297 200.6457 439.5297 199.2641 442.5693 198.4351 451.9644 197.8824 455.5566 197.8824 Z M 460.2542 192.6322 463.5701 193.1849 458.8725 193.4612 457.7672 192.6322 460.2542 192.6322 Z M 407.4759 184.3424 409.1338 185.1714 414.9367 185.7241 417.4236 186.553 425.9897 188.4873 427.095 189.3163 425.1607 190.1453 419.6342 190.6979 417.9762 191.2506 413.555 191.8032 408.8575 193.1849 410.5154 194.8428 420.4632 196.5008 420.4632 197.3298 416.8709 197.8824 410.7918 196.7771 408.3048 196.7771 410.2391 198.4351 415.7656 199.2641 417.4236 202.0273 415.4893 202.0273 414.384 203.4089 405.5416 204.5143 400.015 204.2379 399.1861 205.0669 394.4885 205.0669 395.8702 206.1722 396.4228 208.9355 393.9359 209.7644 389.2383 210.5934 383.1591 210.0408 381.7775 209.4881 378.7379 208.9355 374.593 207.5538 375.422 205.6196 376.8036 205.0669 375.6983 203.6853 376.5273 202.0273 379.2906 201.4747 380.3959 200.093 377.08 199.5404 376.251 200.3694 372.9351 200.6457 368.7902 200.3694 365.7506 202.3036 368.5139 202.8563 368.7902 204.7906 364.9216 205.0669 358.0135 204.7906 355.8029 206.1722 361.6057 206.7249 364.0926 209.2118 361.882 210.0408 358.2898 210.3171 356.0792 210.8698 357.7371 212.5277 352.2106 213.9093 348.8947 213.3567 347.5131 211.6987 343.9208 209.4881 342.2629 209.4881 341.1576 210.8698 343.3682 211.9751 340.8812 212.804 341.9865 214.1857 344.7498 215.0146 345.3025 215.8436 341.1576 216.6726 340.3286 218.0542 336.1837 218.8832 333.1441 218.8832 326.7886 219.7122 324.8543 219.4359 325.407 215.8436 320.9857 215.8436 319.6041 214.7383 319.6041 213.3567 321.2621 212.804 317.6698 212.2514 313.5249 212.804 313.5249 214.7383 315.1829 215.291 309.38 216.3963 308.2747 217.7779 304.6825 216.3963 304.1298 215.8436 299.4323 215.5673 296.9454 215.0146 292.8005 215.291 291.1425 216.3963 286.445 217.5016 282.0238 217.2253 280.0895 216.3963 280.3658 215.8436 283.6817 214.7383 285.0633 213.633 282.0238 212.2514 275.9446 212.804 277.3262 211.4224 280.3658 210.8698 281.4711 208.9355 284.5107 208.1065 294.1821 206.7249 298.0507 207.2775 303.5772 207.0012 306.3405 205.6196 305.7878 204.5143 310.209 203.1326 309.9327 202.3036 316.5645 201.751 318.4988 200.922 322.3674 200.922 327.3413 199.5404 325.6833 198.1587 329.8282 197.6061 332.3151 195.9481 335.3547 195.3955 338.6706 193.7375 341.9865 193.1849 347.2367 191.8032 350.2763 189.3163 356.0792 189.3163 361.3294 188.211 368.7902 188.211 371.2771 188.4873 376.5273 187.9347 380.1196 188.211 382.8828 189.04 388.962 189.5926 393.6595 189.5926 391.7253 188.4873 396.4228 188.7637 398.3571 189.3163 401.3967 188.211 395.0412 186.8294 397.8044 186.0004 400.5677 184.8951 407.4759 184.3424 Z M 448.9248 173.842 449.2011 174.9473 451.1354 175.7763 454.7276 176.329 456.1093 177.158 461.6358 177.7106 462.4648 178.8159 464.9517 179.0922 461.0831 180.4739 457.7672 181.0265 450.0301 181.3029 445.3325 180.4739 444.7799 179.6449 440.635 178.8159 434.8321 177.158 436.4901 176.329 448.9248 173.842 Z M 530.441 173.0131 540.3888 173.2894 540.3888 176.6053 533.2043 177.4343 528.7831 177.4343 518.559 178.2633 523.5329 180.1975 530.9937 179.6449 535.9675 180.1975 534.5859 181.8555 535.6912 184.3424 533.2043 185.1714 526.8488 186.553 520.7696 186.8294 518.559 187.382 509.9929 187.1057 506.4006 187.9347 498.3872 188.7637 493.137 189.04 486.7815 188.211 484.2945 186.2767 481.8076 186.553 477.939 186.2767 477.1101 185.1714 472.6888 185.1714 473.2415 183.5135 471.8599 181.0265 469.9256 179.9212 470.2019 178.5396 471.8599 177.158 475.4521 177.4343 483.1892 176.0527 488.7158 175.2237 491.2027 175.5 495.3476 174.9473 501.7031 174.9473 506.4006 174.1184 516.0721 173.5657 521.0459 174.1184 522.1512 173.2894 530.441 173.0131 Z M 529.0594 160.0257 530.1647 160.8547 539.8361 161.96 540.3888 162.5127 540.3888 169.4208 539.0071 168.8682 534.0333 169.1445 529.612 169.9735 523.5329 169.4208 519.9406 168.8682 518.0063 168.0392 513.8614 167.4865 510.5455 168.0392 512.2035 168.8682 508.0586 168.8682 507.5059 169.9735 500.8741 169.9735 499.2162 168.5918 493.966 168.0392 483.7419 168.5918 478.4917 169.6971 472.4125 169.9735 469.6492 168.5918 471.5835 168.3155 471.8599 167.2102 490.3737 164.447 495.0713 164.1706 502.2557 164.1706 508.3349 163.3416 513.0325 161.4074 520.2169 160.8547 521.8749 160.3021 529.0594 160.0257 Z" id="CA.NT.61001" fill="#cee3f5" stroke="#6e6e6e" stroke-width="0.4">
      <desc>
        <feduid>61001</feduid>
        <name>Western Arctic</name>
        <prname>Northwest Territories / Territoires du Nord-Ouest</prname>
        <fedfname>Western Arctic</fedfname>
        <pruid>61</pruid>
        <fedename>Western Arctic</fedename>
        <id>CA.NT.61001</id>
        <fedname>Western Arctic</fedname>
      </desc>
    </path>
  </g>
</svg>