<?xml version="1.0" encoding="UTF-8"?>
<svg xmlns="http://www.w3.org/2000/svg" width="700" height="700">
  <g id="maine">
    <path d="M 43.0349 571.7892 75.1141 568.4707 95.0254 571.7892 95.0254 583.9572 111.6181 583.9572 125.9984 595.019 120.4675 600.5499 142.5911 611.6117 159.1838 620.4612 140.3788 644.7971 121.5737 650.3281 116.0428 666.9208 129.317 670.2393 131.5293 681.3011 114.9366 681.3011 114.9366 699 102.7686 697.8938 69.5832 675.7702 71.7956 660.2837 45.2472 639.2662 46.3534 606.0808 43.0349 571.7892 Z" id="US.ME.031" fill="#cee3f5" stroke="#6e6e6e" stroke-width="0.4">
      <desc>
        <name>York County</name>
        <stateAbbrev>ME</stateAbbrev>
        <state>Maine</state>
        <fips>031</fips>
        <incits>23031</incits>
        <id>US.ME.031</id>
        <population>199431</population>
      </desc>
    </path>
    <path d="M 160.29 467.8082 176.8827 463.3835 185.7322 493.2504 185.7322 507.6307 196.794 519.7987 192.3693 543.0285 179.0951 554.0903 148.122 533.0729 140.3788 541.9223 122.6799 534.1791 121.5737 529.7544 145.9097 506.5246 160.29 467.8082 Z" id="US.ME.001" fill="#cee3f5" stroke="#6e6e6e" stroke-width="0.4">
      <desc>
        <name>Androscoggin County</name>
        <stateAbbrev>ME</stateAbbrev>
        <state>Maine</state>
        <fips>001</fips>
        <incits>23001</incits>
        <id>US.ME.001</id>
        <population>107604</population>
      </desc>
    </path>
    <path d="M 193.4754 139.2726 197.9002 120.4675 318.4739 1 347.2345 7.6371 346.1284 34.1854 368.252 44.141 418.0301 27.5483 450.1094 27.5483 456.7464 16.4865 473.3391 18.6989 516.4802 41.9287 526.4358 56.309 540.8162 61.8399 541.9223 134.8479 543.0285 236.6165 538.6038 248.7845 538.6038 277.5452 500.9937 284.1823 441.2599 294.1379 442.3661 238.8288 440.1537 169.1395 381.5261 166.9271 380.42 139.2726 241.0412 139.2726 193.4754 139.2726 Z" id="US.ME.003" fill="#cee3f5" stroke="#6e6e6e" stroke-width="0.4">
      <desc>
        <name>Aroostook County</name>
        <stateAbbrev>ME</stateAbbrev>
        <state>Maine</state>
        <fips>003</fips>
        <incits>23003</incits>
        <id>US.ME.003</id>
        <population>70055</population>
      </desc>
    </path>
    <path d="M 122.6799 534.1791 140.3788 541.9223 148.122 533.0729 179.0951 554.0903 192.3693 543.0285 215.599 561.8336 181.3074 566.2583 158.0777 589.4881 165.8209 603.8685 142.5911 611.6117 120.4675 600.5499 125.9984 595.019 111.6181 583.9572 95.0254 583.9572 95.0254 571.7892 75.1141 568.4707 86.1759 545.2409 69.5832 527.542 100.5563 513.1616 101.6624 529.7544 122.6799 534.1791 Z" id="US.ME.005" fill="#cee3f5" stroke="#6e6e6e" stroke-width="0.4">
      <desc>
        <name>Cumberland County</name>
        <stateAbbrev>ME</stateAbbrev>
        <state>Maine</state>
        <fips>005</fips>
        <incits>23005</incits>
        <id>US.ME.005</id>
        <population>285456</population>
      </desc>
    </path>
    <path d="M 111.6181 279.7575 132.6355 361.6149 151.4406 367.1458 172.458 363.8273 180.2013 392.588 176.8827 406.9683 192.3693 404.7559 197.9002 433.5166 207.8558 444.5784 191.2631 447.897 176.8827 463.3835 160.29 467.8082 153.6529 451.2155 118.2552 442.3661 101.6624 415.8177 77.3265 425.7734 77.3265 409.1807 69.5832 381.5261 76.2203 381.5261 67.3708 340.5975 68.477 321.7924 100.5563 320.6862 85.0697 304.0935 111.6181 279.7575 Z" id="US.ME.007" fill="#cee3f5" stroke="#6e6e6e" stroke-width="0.4">
      <desc>
        <name>Franklin County</name>
        <stateAbbrev>ME</stateAbbrev>
        <state>Maine</state>
        <fips>007</fips>
        <incits>23007</incits>
        <id>US.ME.007</id>
        <population>30495</population>
      </desc>
    </path>
    <path d="M 381.5261 433.5166 439.0475 420.2425 430.1981 387.0571 450.1094 383.7385 446.7908 370.4643 466.7021 368.252 461.1712 349.4469 499.8875 343.916 510.9493 390.3756 492.1442 393.6941 514.2678 477.7639 496.5689 485.5071 489.9319 470.0206 477.7639 462.2773 463.3835 465.5959 444.5784 476.6577 421.3487 475.5515 420.2425 488.8257 401.4374 493.2504 381.5261 479.9762 392.588 454.5341 383.7385 449.0032 377.1014 443.4723 381.5261 433.5166 Z" id="US.ME.009" fill="#cee3f5" stroke="#6e6e6e" stroke-width="0.4">
      <desc>
        <name>Hancock County</name>
        <stateAbbrev>ME</stateAbbrev>
        <state>Maine</state>
        <fips>009</fips>
        <incits>23009</incits>
        <id>US.ME.009</id>
        <population>54845</population>
      </desc>
    </path>
    <path d="M 176.8827 463.3835 191.2631 447.897 207.8558 444.5784 220.0238 442.3661 258.7401 450.1094 254.3154 430.1981 279.7575 431.3043 291.9255 440.1537 283.0761 467.8082 274.2266 486.6133 267.5895 498.7813 252.103 495.4628 250.9968 520.9049 235.5103 517.5864 220.0238 513.1616 213.3867 523.1173 196.794 519.7987 185.7322 507.6307 185.7322 493.2504 176.8827 463.3835 Z" id="US.ME.011" fill="#cee3f5" stroke="#6e6e6e" stroke-width="0.4">
      <desc>
        <name>Kennebec County</name>
        <stateAbbrev>ME</stateAbbrev>
        <state>Maine</state>
        <fips>011</fips>
        <incits>23011</incits>
        <id>US.ME.011</id>
        <population>121164</population>
      </desc>
    </path>
    <path d="M 289.7132 488.8257 310.7306 482.1886 333.9604 499.8875 348.3407 500.9937 337.2789 527.542 326.2171 538.6038 294.1379 545.2409 308.5182 529.7544 300.775 506.5246 285.2884 504.3122 289.7132 488.8257 Z" id="US.ME.013" fill="#cee3f5" stroke="#6e6e6e" stroke-width="0.4">
      <desc>
        <name>Knox County</name>
        <stateAbbrev>ME</stateAbbrev>
        <state>Maine</state>
        <fips>013</fips>
        <incits>23013</incits>
        <id>US.ME.013</id>
        <population>39550</population>
      </desc>
    </path>
    <path d="M 235.5103 517.5864 250.9968 520.9049 252.103 495.4628 267.5895 498.7813 274.2266 486.6133 289.7132 488.8257 285.2884 504.3122 300.775 506.5246 308.5182 529.7544 294.1379 545.2409 293.0317 562.9398 317.3677 574.0016 308.5182 583.9572 296.3502 583.9572 289.7132 569.5769 274.2266 574.0016 265.3772 586.1696 249.8906 583.9572 237.7227 556.3027 244.3597 538.6038 226.6609 535.2853 235.5103 517.5864 Z" id="US.ME.015" fill="#cee3f5" stroke="#6e6e6e" stroke-width="0.4">
      <desc>
        <name>Lincoln County</name>
        <stateAbbrev>ME</stateAbbrev>
        <state>Maine</state>
        <fips>015</fips>
        <incits>23015</incits>
        <id>US.ME.015</id>
        <population>34088</population>
      </desc>
    </path>
    <path d="M 67.3708 340.5975 76.2203 381.5261 69.5832 381.5261 77.3265 409.1807 77.3265 425.7734 101.6624 415.8177 118.2552 442.3661 153.6529 451.2155 160.29 467.8082 145.9097 506.5246 121.5737 529.7544 122.6799 534.1791 101.6624 529.7544 100.5563 513.1616 69.5832 527.542 86.1759 545.2409 75.1141 568.4707 43.0349 571.7892 36.3978 429.0919 28.6545 336.1727 43.0349 331.748 67.3708 340.5975 Z" id="US.ME.017" fill="#cee3f5" stroke="#6e6e6e" stroke-width="0.4">
      <desc>
        <name>Oxford County</name>
        <stateAbbrev>ME</stateAbbrev>
        <state>Maine</state>
        <fips>017</fips>
        <incits>23017</incits>
        <id>US.ME.017</id>
        <population>57277</population>
      </desc>
    </path>
    <path d="M 297.4564 372.6767 374.8891 361.6149 371.5705 348.3407 388.1632 346.1284 374.8891 301.8811 358.2964 304.0935 359.4025 280.8637 380.42 277.5452 381.5261 166.9271 440.1537 169.1395 442.3661 238.8288 441.2599 294.1379 500.9937 284.1823 517.5864 342.8098 499.8875 343.916 461.1712 349.4469 466.7021 368.252 446.7908 370.4643 450.1094 383.7385 430.1981 387.0571 439.0475 420.2425 381.5261 433.5166 368.252 432.4105 324.0048 439.0475 311.8368 426.8796 297.4564 372.6767 Z" id="US.ME.019" fill="#cee3f5" stroke="#6e6e6e" stroke-width="0.4">
      <desc>
        <name>Penobscot County</name>
        <stateAbbrev>ME</stateAbbrev>
        <state>Maine</state>
        <fips>019</fips>
        <incits>23019</incits>
        <id>US.ME.019</id>
        <population>153364</population>
      </desc>
    </path>
    <path d="M 241.0412 139.2726 380.42 139.2726 381.5261 166.9271 380.42 277.5452 359.4025 280.8637 358.2964 304.0935 374.8891 301.8811 388.1632 346.1284 371.5705 348.3407 374.8891 361.6149 297.4564 372.6767 256.5277 382.6323 231.0856 299.6688 243.2536 287.5008 237.7227 266.4834 245.4659 249.8906 238.8288 232.1918 238.8288 166.9271 241.0412 139.2726 Z" id="US.ME.021" fill="#cee3f5" stroke="#6e6e6e" stroke-width="0.4">
      <desc>
        <name>Piscataquis County</name>
        <stateAbbrev>ME</stateAbbrev>
        <state>Maine</state>
        <fips>021</fips>
        <incits>23021</incits>
        <id>US.ME.021</id>
        <population>17124</population>
      </desc>
    </path>
    <path d="M 196.794 519.7987 213.3867 523.1173 220.0238 513.1616 235.5103 517.5864 226.6609 535.2853 244.3597 538.6038 237.7227 556.3027 249.8906 583.9572 239.935 592.8067 215.599 596.1252 215.599 561.8336 192.3693 543.0285 196.794 519.7987 Z" id="US.ME.023" fill="#cee3f5" stroke="#6e6e6e" stroke-width="0.4">
      <desc>
        <name>Sagadahoc County</name>
        <stateAbbrev>ME</stateAbbrev>
        <state>Maine</state>
        <fips>023</fips>
        <incits>23023</incits>
        <id>US.ME.023</id>
        <population>35013</population>
      </desc>
    </path>
    <path d="M 111.6181 279.7575 134.8479 272.0143 132.6355 259.8463 158.0777 243.2536 149.2282 234.4041 151.4406 199.0063 164.7147 176.8827 189.0507 163.6086 193.4754 139.2726 241.0412 139.2726 238.8288 166.9271 238.8288 232.1918 245.4659 249.8906 237.7227 266.4834 243.2536 287.5008 231.0856 299.6688 256.5277 382.6323 297.4564 372.6767 311.8368 426.8796 279.7575 431.3043 254.3154 430.1981 258.7401 450.1094 220.0238 442.3661 207.8558 444.5784 197.9002 433.5166 192.3693 404.7559 176.8827 406.9683 180.2013 392.588 172.458 363.8273 151.4406 367.1458 132.6355 361.6149 111.6181 279.7575 Z" id="US.ME.025" fill="#cee3f5" stroke="#6e6e6e" stroke-width="0.4">
      <desc>
        <name>Somerset County</name>
        <stateAbbrev>ME</stateAbbrev>
        <state>Maine</state>
        <fips>025</fips>
        <incits>23025</incits>
        <id>US.ME.025</id>
        <population>51706</population>
      </desc>
    </path>
    <path d="M 274.2266 486.6133 283.0761 467.8082 291.9255 440.1537 279.7575 431.3043 311.8368 426.8796 324.0048 439.0475 368.252 432.4105 381.5261 433.5166 375.9952 440.1537 374.8891 445.6846 378.2076 445.6846 383.7385 451.2155 383.7385 467.8082 375.9952 476.6577 369.3582 507.6307 348.3407 500.9937 333.9604 499.8875 310.7306 482.1886 289.7132 488.8257 274.2266 486.6133 Z" id="US.ME.027" fill="#cee3f5" stroke="#6e6e6e" stroke-width="0.4">
      <desc>
        <name>Waldo County</name>
        <stateAbbrev>ME</stateAbbrev>
        <state>Maine</state>
        <fips>027</fips>
        <incits>23027</incits>
        <id>US.ME.027</id>
        <population>38940</population>
      </desc>
    </path>
    <path d="M 499.8875 343.916 517.5864 342.8098 500.9937 284.1823 538.6038 277.5452 552.9842 277.5452 569.5769 289.7132 597.2314 293.0317 598.3376 304.0935 586.1696 307.412 597.2314 330.6418 589.4881 340.5975 604.9746 360.5087 619.355 354.9778 639.2662 358.2964 660.2837 391.4818 669.1331 398.1189 671.3455 413.6054 649.2219 423.561 634.8415 439.0475 616.0365 436.8352 592.8067 446.7908 578.4263 443.4723 576.2139 456.7464 530.8605 464.4897 514.2678 477.7639 492.1442 393.6941 510.9493 390.3756 499.8875 343.916 Z" id="US.ME.029" fill="#cee3f5" stroke="#6e6e6e" stroke-width="0.4">
      <desc>
        <name>Washington County</name>
        <stateAbbrev>ME</stateAbbrev>
        <state>Maine</state>
        <fips>029</fips>
        <incits>23029</incits>
        <id>US.ME.029</id>
        <population>32190</population>
      </desc>
    </path>
  </g>
</svg>