<?xml version="1.0" encoding="UTF-8"?>
<svg xmlns="http://www.w3.org/2000/svg" width="700" height="700">
  <g id="chile">
    <path d="M 592.0185 559.1699 592.9132 561.5984 589.9734 563.5157 591.5072 561.9819 589.2066 562.2375 589.2066 559.1699 592.0185 559.1699 Z M 603.6497 559.5534 602.1159 557.5083 604.6722 558.403 603.6497 559.5534 Z M 604.5444 556.6136 605.3113 558.1474 602.2437 556.4858 604.2888 555.0798 604.5444 556.6136 Z M 599.4318 554.4408 602.755 560.9593 601.349 562.6209 596.2364 559.6812 598.1536 557.5083 599.5596 558.9143 599.1762 552.7792 599.4318 554.4408 Z M 602.6272 553.6739 601.7325 556.2302 600.7099 553.1626 602.6272 553.6739 Z M 594.5748 552.6513 598.4093 553.6739 596.1086 558.6587 592.9132 552.2679 594.5748 552.6513 Z M 591.8907 552.1401 595.5973 559.809 594.1914 563.3878 592.6576 557.2527 589.9734 558.2752 592.2741 556.358 589.9734 556.9971 590.996 554.6964 589.0787 552.907 591.8907 552.1401 Z M 597.6424 547.2831 599.1762 552.3957 592.6576 551.501 597.6424 547.2831 Z M 607.8676 547.4109 609.657 548.9447 601.6047 548.9447 604.0331 546.7718 607.8676 547.4109 Z M 601.349 547.5387 599.9431 549.0725 599.304 547.1553 601.349 547.5387 Z M 594.5748 545.6215 594.9582 547.6665 591.5072 547.2831 594.5748 545.6215 Z M 605.1835 532.9678 606.8451 533.0956 604.6722 535.3963 605.1835 532.9678 Z M 607.9954 515.3292 608.3789 518.0134 606.206 515.8405 607.9954 515.3292 Z M 608.3789 513.1564 609.2736 514.818 607.612 514.5624 608.3789 513.1564 Z M 596.3642 512.006 595.7251 515.8405 592.5298 517.3743 594.8304 515.4571 592.1463 515.3292 591.635 513.412 594.447 514.1789 593.4245 513.0286 596.3642 512.006 Z M 597.6424 510.8557 596.492 509.0663 598.1536 507.6603 597.6424 510.8557 Z M 605.6947 509.5775 603.7775 508.4272 604.5444 506.51 606.0782 507.4047 605.6947 509.5775 Z M 601.4768 508.2994 599.4318 511.1113 599.8152 505.3596 601.4768 508.2994 Z M 609.657 507.6603 609.1458 510.0888 607.2285 508.2994 608.8901 504.5927 609.657 507.6603 Z M 605.9504 505.2318 606.5895 506.8934 604.5444 506.2543 603.1384 507.4047 604.0331 504.5927 605.9504 505.2318 Z M 604.2888 501.5252 607.3563 502.8033 603.1384 502.9311 602.6272 501.3974 604.2888 501.5252 Z M 606.206 497.0516 607.8676 501.7808 601.4768 499.9914 602.2437 497.6907 606.206 497.0516 Z M 605.3113 496.2847 599.8152 497.3073 602.1159 494.8788 605.3113 496.2847 Z M 603.6497 494.4953 601.7325 493.8563 604.4166 493.0894 603.6497 494.4953 Z M 606.4616 494.1119 606.5895 496.2847 604.8 493.6006 606.4616 494.1119 Z M 604.8 490.5331 600.8378 493.8563 598.7927 491.939 604.8 490.5331 Z M 607.8676 488.8715 609.1458 491.6834 607.1007 492.3225 606.0782 489.5105 607.8676 488.8715 Z M 600.9656 487.8489 596.8755 488.3602 599.8152 486.6986 600.9656 487.8489 Z M 617.1981 486.6986 619.8823 487.9767 618.8597 489.894 616.6869 489.3827 618.6041 491.1721 613.3637 495.5179 611.5743 493.6006 614.0027 492.8337 611.7021 492.9615 610.6795 490.4052 614.6418 488.8715 613.6193 486.1873 615.92 487.3377 616.3034 485.1648 617.1981 486.6986 Z M 607.7398 486.9542 606.3338 486.0595 607.9954 485.4204 607.7398 486.9542 Z M 603.0106 482.3529 604.8 483.631 603.7775 485.2926 603.0106 482.3529 Z M 613.7471 479.4131 612.2133 478.135 613.4915 476.8568 613.7471 479.4131 Z M 604.8 475.323 606.206 477.3681 600.9656 477.4959 604.8 475.323 Z M 631.8969 478.9018 630.6188 484.7814 638.9268 485.4204 640.0771 487.5933 638.032 491.939 628.0624 492.0668 628.3181 494.2397 634.4532 495.2622 638.032 500.8861 632.536 505.8709 634.7088 512.7729 631.13 516.0961 634.1976 525.5545 631.13 527.7273 632.4082 534.5016 626.6565 539.2307 624.8671 547.4109 628.0624 554.6964 624.8671 556.9971 624.9949 562.8766 620.2657 566.711 618.7319 571.3124 607.7398 563.0044 603.7775 560.9593 605.9504 558.403 608.5067 560.4481 609.2736 556.8693 604.9279 556.1024 602.2437 550.7341 600.3265 550.4785 603.6497 550.6063 605.5669 554.1851 604.0331 549.9672 610.4239 550.2229 613.2359 553.9295 616.3034 550.8619 613.8749 551.7566 611.7021 547.9222 616.8147 549.456 610.9352 545.7493 610.4239 541.4036 608.3789 547.1553 598.6649 545.6215 601.7325 542.4261 603.1384 543.8321 601.6047 544.9824 605.4391 545.6215 603.6497 544.4712 606.4616 541.787 603.7775 543.193 600.7099 540.1254 602.8828 536.4188 605.5669 538.336 605.4391 535.7797 607.1007 536.8022 607.2285 532.5843 602.3715 528.3664 599.0483 527.983 600.4543 528.8777 598.5371 529.0055 598.2815 530.1558 600.7099 530.9227 598.1536 530.7949 593.9357 528.7499 594.5748 523.2538 586.9059 528.4942 586.5224 530.028 588.9509 528.4942 589.4622 532.3287 586.5224 531.5618 585.4999 527.4717 591.1238 520.9531 593.2966 521.5922 592.4019 519.4193 596.1086 519.0359 597.2589 512.006 599.8152 515.4571 599.5596 511.8782 604.0331 511.8782 603.5219 517.2465 604.9279 514.4345 605.3113 517.3743 599.6874 518.3968 605.0557 518.1412 604.8 520.4419 607.7398 520.5697 605.4391 518.269 606.9729 517.1187 608.6345 519.2915 606.9729 525.171 611.9577 519.675 613.4915 514.6902 609.657 520.1862 609.5292 514.0511 615.1531 508.1716 613.3637 507.5325 610.1683 510.6001 610.8074 504.8484 614.2584 501.9086 619.2432 503.698 613.8749 500.8861 611.4464 501.653 613.108 499.0967 611.8299 496.4126 620.0101 491.939 621.416 487.4655 621.416 484.5257 619.8823 487.4655 613.8749 483.2476 614.514 481.4582 612.469 482.0972 614.514 480.4356 615.6643 474.8118 618.0928 475.323 617.5816 473.0223 615.1531 474.0449 617.8372 472.2554 621.416 474.6839 624.1002 473.7892 627.0399 477.3681 631.8969 478.9018 Z M 594.447 472.1276 595.7251 473.4058 593.041 474.4283 592.2741 472.5111 594.447 472.1276 Z" id="CL.AI" fill="#cee3f5" stroke="#6e6e6e" stroke-width="0.4">
      <desc>
        <labelrank>3</labelrank>
        <code_hasc>CL.AI</code_hasc>
        <name>Aisén del General Carlos Ibáñez del Campo</name>
        <admin>Chile</admin>
        <type_en>Region</type_en>
        <region/>
        <woe_id>2345019</woe_id>
        <longitude>-73</longitude>
        <woe_name>Aisén del General Carlos Ibáñez del Campo</woe_name>
        <fips>CI02</fips>
        <woe_label>Aisen Region, CL, Chile</woe_label>
        <latitude>-46</latitude>
        <iso_a2>CL</iso_a2>
        <postal>AI</postal>
        <type>Región</type>
        <id>CL.AI</id>
      </desc>
    </path>
    <path d="M 680.978 685.7072 680.4668 687.7522 677.6548 686.8575 680.978 685.7072 Z M 683.1509 682.0005 683.2787 685.5794 680.8502 684.1734 683.1509 682.0005 Z M 657.3322 676.7601 656.6931 678.0383 655.6706 676.6323 657.3322 676.7601 Z M 687.8801 677.527 686.7297 675.8654 688.3913 675.8654 687.8801 677.527 Z M 673.4369 671.3919 670.4972 674.076 666.1514 672.1588 674.7151 676.121 669.3468 676.121 675.3541 678.5495 677.1436 681.8727 675.9932 684.0456 673.3091 679.8277 670.625 678.5495 667.9409 680.0833 668.8356 674.7151 666.9183 676.121 665.5124 673.9482 665.3845 675.7376 664.362 673.5647 662.317 674.2038 663.8508 674.3316 662.1892 676.7601 665.1289 680.4668 658.866 676.7601 661.6779 674.4594 658.2269 675.9932 656.3097 674.2038 660.7832 672.1588 660.911 674.076 663.8508 671.1362 673.4369 671.3919 Z M 678.933 669.9859 685.1959 671.0084 686.4741 673.8204 684.6847 676.7601 681.8727 674.5873 680.2111 676.121 675.482 675.3541 673.3091 670.2415 678.933 669.9859 Z M 651.4527 670.625 649.2798 671.7753 653.6255 672.0309 654.009 673.4369 652.4752 672.9257 651.7083 675.2263 650.6858 672.4144 649.6632 673.8204 646.4679 672.4144 646.5957 670.7528 653.3699 669.7303 651.4527 670.625 Z M 661.5501 669.7303 665.1289 670.625 657.46 672.1588 657.46 669.4746 661.5501 669.7303 Z M 642.889 668.7077 647.3626 670.2415 643.6559 669.3468 642.889 671.0084 642.889 668.7077 Z M 632.4082 660.3997 631.13 662.1892 630.3631 660.6554 632.4082 660.3997 Z M 652.4752 657.2044 653.8812 658.6103 651.0692 656.9487 652.4752 657.2044 Z M 633.0472 656.3097 632.6638 658.9938 630.6188 658.866 633.0472 656.3097 Z M 653.3699 655.0315 652.8586 656.5653 651.0692 655.5428 653.3699 655.0315 Z M 622.822 655.7984 623.4611 657.3322 620.3935 656.4375 622.822 655.7984 Z M 640.5884 654.009 642.889 654.009 643.7837 657.3322 645.8288 655.6706 645.0619 660.7832 641.7387 656.054 640.5884 658.9938 639.3102 658.2269 640.5884 654.009 Z M 636.8817 652.3474 637.1373 653.8812 639.1824 652.9864 638.1599 657.2044 636.1148 654.648 638.4155 658.3547 637.5208 660.2719 632.9194 653.2421 636.8817 652.3474 Z M 651.9639 651.5805 652.4752 654.7759 649.4076 653.1143 650.8136 657.8434 647.8738 656.054 646.9791 651.8361 650.0467 651.5805 648.8964 648.6407 650.6858 646.2122 651.9639 651.5805 Z M 617.5816 646.9791 615.92 648.2573 615.6643 645.701 617.5816 646.9791 Z M 618.7319 644.8063 620.5213 644.6784 619.7544 647.6182 616.1756 645.4453 618.7319 646.34 618.7319 644.8063 Z M 624.6114 645.9566 625.6339 644.8063 626.1452 649.2798 626.1452 645.1897 628.3181 649.0242 628.1903 646.5957 630.4909 647.1069 630.7466 650.0467 634.0698 650.9414 631.3856 651.8361 632.1525 655.2871 630.2353 654.3924 630.1075 656.4375 629.085 655.1593 626.1452 656.9487 628.8293 652.2196 624.4836 651.7083 624.228 655.6706 621.6717 654.3924 622.1829 649.7911 618.8597 650.9414 618.8597 647.8738 621.0326 647.746 622.822 649.152 625.3783 649.0242 622.1829 648.6407 622.0551 647.2348 620.2657 645.8288 623.9723 646.7235 624.228 644.1672 624.6114 645.9566 Z M 617.5816 634.581 619.8823 636.7539 615.5365 636.3704 617.5816 634.581 Z M 606.0782 633.5585 609.7848 637.393 612.7246 637.1373 617.7094 640.3327 617.7094 638.7989 619.1154 642.25 619.4988 639.9493 623.5889 643.6559 618.3485 643.2725 615.0253 638.9268 610.4239 639.9493 606.0782 633.5585 Z M 664.7455 630.2353 669.219 628.1903 670.7528 629.724 670.2415 669.3468 667.5574 667.4296 669.4746 669.6025 665.5124 670.3693 660.1441 668.3243 660.3997 666.0236 657.46 668.1965 656.8209 665.768 656.6931 668.5799 653.4977 668.7077 654.009 666.0236 652.8586 668.5799 648.8964 668.8356 651.9639 665.1289 645.9566 667.6852 646.8513 664.8733 643.4003 666.0236 642.7612 663.2117 641.3552 666.2793 640.2049 664.4898 636.4983 665.768 636.2426 662.317 639.438 664.362 637.5208 661.6779 640.4605 663.2117 639.9493 661.5501 642.25 662.1892 642.5056 660.7832 645.3175 663.0839 647.6182 659.6329 650.1745 659.8885 648.7685 664.4898 650.4301 660.7832 655.1593 663.4673 646.7235 656.054 655.1593 661.4223 656.054 658.3547 658.866 663.5951 657.9713 658.7381 661.2945 661.5501 661.6779 659.7607 664.4898 661.9335 662.9561 665.768 665.1289 661.6779 666.7905 662.0613 656.3097 655.7984 654.3924 650.558 662.9561 645.3175 663.0839 642.3778 654.1368 644.4228 651.197 641.7387 651.7083 636.4983 653.6255 637.2652 655.1593 634.581 652.8586 634.7088 651.5805 632.0247 657.0765 633.5585 662.317 626.4008 664.7455 630.2353 Z M 615.7922 627.2956 615.4087 632.2804 613.7471 632.7916 614.3862 629.9797 611.7021 632.9194 612.5968 627.9346 615.7922 627.2956 Z M 603.6497 624.8671 606.8451 625.1227 606.4616 627.8068 604.0331 627.1677 603.6497 624.8671 Z M 609.9127 622.4386 613.4915 626.0174 611.5743 627.4234 611.063 623.8445 608.1232 623.2055 609.9127 622.4386 Z M 612.0855 618.9875 616.0478 624.3558 611.1908 620.3935 612.0855 618.9875 Z M 604.2888 618.6041 605.6947 617.965 603.1384 623.4611 604.2888 618.6041 Z M 614.1306 617.5816 615.2809 620.3935 612.469 617.4538 614.1306 617.5816 Z M 608.1232 616.5591 610.8074 619.4988 606.5895 615.6643 608.1232 616.5591 Z M 602.6272 614.6418 603.7775 617.1981 602.1159 623.2055 600.7099 620.9048 603.1384 618.3485 602.6272 614.6418 Z M 611.5743 613.3637 611.9577 616.8147 609.4014 615.2809 611.5743 613.3637 Z M 598.9205 610.1683 600.5821 610.6795 597.6424 615.0253 598.9205 608.3789 598.9205 610.1683 Z M 603.9053 606.8451 605.6947 609.657 603.9053 608.2511 600.5821 611.8299 603.9053 606.8451 Z M 606.206 603.9053 606.5895 606.7173 604.5444 604.6722 606.206 603.9053 Z M 605.6947 599.5596 606.8451 604.5444 605.9504 603.0106 601.349 604.5444 600.7099 601.6047 604.161 601.9881 603.5219 598.5371 605.6947 599.5596 Z M 602.4994 598.1536 603.3941 601.349 600.5821 600.8378 600.7099 597.7702 602.4994 598.1536 Z M 595.2139 594.8304 598.2815 594.8304 595.5973 596.1086 596.3642 600.1987 593.8079 598.0258 595.2139 594.8304 Z M 605.0557 593.9357 606.4616 593.8079 608.7623 600.1987 605.0557 598.4093 605.9504 594.8304 603.0106 594.0635 605.0557 593.9357 Z M 599.5596 593.5523 597.3867 594.3192 599.8152 590.7403 599.5596 593.5523 Z M 595.3417 586.7781 599.304 587.2893 598.1536 589.3344 601.2212 588.3118 596.492 593.9357 596.8755 591.5072 593.9357 592.5298 594.7026 588.9509 597.3867 590.4847 595.3417 586.7781 Z M 592.5298 578.7257 596.492 584.4774 594.0635 581.4098 591.3794 584.2218 592.5298 578.7257 Z M 605.0557 578.7257 604.2888 575.4025 606.206 577.4475 605.0557 578.7257 Z M 596.3642 569.1395 598.6649 569.9064 598.4093 573.2296 596.8755 571.3124 594.7026 571.1846 596.3642 569.1395 Z M 593.041 569.3952 591.8907 573.4853 590.1013 572.8462 593.041 569.3952 Z M 592.1463 566.5832 593.8079 566.5832 594.7026 569.7786 593.5523 567.8614 591.7629 569.523 591.7629 567.9892 589.7178 568.3726 589.9734 566.4554 592.1463 566.5832 Z M 596.1086 566.9667 594.9582 568.5005 593.4245 565.0494 596.1086 566.9667 Z M 607.7398 563.0044 618.7319 571.3124 615.4087 572.5906 614.1306 576.5528 615.5365 587.2893 618.2207 589.9734 620.5213 598.1536 624.4836 595.2139 629.724 595.4695 628.9572 603.6497 630.7466 605.9504 628.8293 611.4464 634.4532 618.6041 656.4375 618.7319 672.7978 623.9723 664.2342 622.0551 659.505 627.9346 646.8513 631.5135 648.2573 632.536 646.2122 649.7911 643.0168 652.0917 634.3254 649.0242 630.3631 644.1672 632.0247 641.2274 634.3254 642.6334 632.6638 644.5506 634.1976 644.295 636.6261 640.7162 637.393 644.4228 635.2201 646.7235 637.2652 645.8288 637.7764 644.8063 637.7764 640.5884 644.1672 635.0923 641.0996 631.7691 634.7088 639.0546 628.9572 638.4155 633.0472 640.0771 629.3406 640.4605 630.7466 641.4831 628.3181 642.7612 631.5135 646.4679 621.1604 640.2049 627.5512 642.25 626.5287 640.2049 628.0624 639.8215 624.9949 639.0546 624.4836 634.1976 627.1677 632.0247 627.1677 634.8367 630.2353 634.4532 632.9194 630.7466 640.2049 630.3631 639.1824 628.8293 631.2578 628.4459 630.1075 630.8744 628.7015 629.8519 630.3631 628.3181 625.2505 628.4459 624.1002 632.0247 625.7618 629.8519 627.4234 631.0022 623.9723 634.581 624.4836 638.2877 622.4386 637.6486 622.3107 639.3102 619.371 637.393 621.7995 635.4757 618.0928 634.0698 621.5439 633.8141 622.822 628.4459 624.7392 628.3181 621.5439 627.4234 621.0326 631.7691 619.6266 629.4684 616.4312 632.6638 618.4763 628.3181 616.5591 627.5512 617.1981 623.7167 615.2809 620.6491 620.2657 623.7167 623.3333 620.777 622.6942 623.9723 624.9949 624.1002 625.3783 618.4763 628.5737 623.3333 624.4836 627.5512 628.8293 627.2956 627.5512 626.5287 629.2128 622.9498 626.7843 618.8597 628.9572 618.0928 628.9572 615.6643 621.6717 609.5292 619.8823 610.9352 627.8068 615.5365 626.1452 616.6869 619.8823 612.9802 623.0776 615.92 621.9273 615.2809 620.9048 617.7094 623.9723 617.1981 620.9048 621.416 618.7319 613.7471 620.2657 622.822 617.1981 620.777 616.3034 616.8147 618.9875 620.2657 616.5591 615.6643 617.965 614.514 615.1531 616.1756 612.469 609.9127 616.1756 613.4915 614.7696 604.9279 612.8524 606.8451 611.063 604.6722 610.0405 606.206 610.2961 601.9881 608.6345 603.5219 608.2511 601.8603 611.8299 600.3265 613.3637 601.8603 613.3637 596.7477 616.6869 596.6198 613.7471 594.8304 615.4087 592.0185 610.5517 599.6874 607.2285 593.8079 609.2736 595.5973 608.8901 593.8079 611.9577 594.5748 609.0179 592.6576 610.2961 591.5072 607.7398 593.041 607.1007 589.9734 605.9504 591.8907 602.4994 589.3344 606.206 586.9059 608.1232 589.8456 611.9577 590.1013 605.8226 585.2443 611.4464 586.3946 610.9352 582.5602 609.5292 584.6052 606.206 583.0714 608.8901 580.6429 606.0782 580.3873 606.8451 577.7032 609.9127 577.1919 613.2359 580.0038 607.8676 575.019 608.2511 572.2071 611.063 573.6131 608.3789 569.0117 610.8074 567.9892 608.1232 567.7336 606.9729 576.9363 604.4166 574.6356 603.3941 564.5382 607.7398 563.0044 Z M 600.5821 563.26 601.0934 565.5607 602.3715 563.1322 603.9053 571.6958 602.755 580.6429 603.7775 578.8535 604.9279 580.7707 604.5444 584.6052 601.349 586.6502 600.3265 585.7555 602.4994 584.8608 599.6874 584.9886 601.4768 582.9436 599.1762 580.2595 601.4768 579.3648 599.304 577.9588 601.8603 574.2522 598.0258 576.8085 598.4093 584.2218 592.2741 574.5078 595.9808 577.3197 594.0635 573.1018 596.7477 575.019 595.4695 573.6131 597.1311 572.974 596.492 571.9515 599.0483 574.6356 599.6874 570.0342 597.7702 568.5005 599.1762 567.3501 597.6424 568.117 598.5371 565.4329 596.3642 565.1773 600.5821 563.26 Z M 595.5973 565.3051 594.0635 564.5382 595.853 562.1097 595.5973 565.3051 Z M 597.1311 562.2375 598.7927 562.3653 596.6198 563.8991 597.1311 562.2375 Z" id="CL.MA" fill="#cee3f5" stroke="#6e6e6e" stroke-width="0.4">
      <desc>
        <labelrank>3</labelrank>
        <code_hasc>CL.MA</code_hasc>
        <name>Magallanes y Antártica Chilena</name>
        <admin>Chile</admin>
        <type_en>Region</type_en>
        <region/>
        <woe_id>2345027</woe_id>
        <longitude>-71</longitude>
        <woe_name>Magallanes y Antártica Chilena</woe_name>
        <fips>CI10</fips>
        <woe_label>Magallanes and Antartica Chilena Region, CL, Chile</woe_label>
        <latitude>-53</latitude>
        <iso_a2>CL</iso_a2>
        <postal>MA</postal>
        <type>Región</type>
        <id>CL.MA</id>
      </desc>
    </path>
    <path d="M 674.4594 72.1932 670.1137 77.6893 659.3772 81.3959 649.4076 81.3959 646.7235 70.276 648.1295 55.9606 645.5732 41.5175 653.6255 38.1943 663.5951 40.2393 666.9183 37.4274 675.9932 46.1188 671.7753 50.9758 674.2038 53.5321 673.6925 56.7275 670.2415 57.8779 672.1588 61.7123 670.8806 63.8852 675.3541 66.9528 674.4594 72.1932 Z" id="CL.TA" fill="#cee3f5" stroke="#6e6e6e" stroke-width="0.4">
      <desc>
        <labelrank>3</labelrank>
        <code_hasc>CL.TA</code_hasc>
        <name>Tarapacá</name>
        <admin>Chile</admin>
        <type_en>Region</type_en>
        <region/>
        <woe_id>2345030</woe_id>
        <longitude>-69</longitude>
        <woe_name>Tarapacá</woe_name>
        <fips>CI13</fips>
        <woe_label>Tarapaca Region, CL, Chile</woe_label>
        <latitude>-20</latitude>
        <iso_a2>CL</iso_a2>
        <postal>TA</postal>
        <type>Región</type>
        <id>CL.TA</id>
      </desc>
    </path>
    <path d="M 666.9183 37.4274 663.5951 40.2393 653.6255 38.1943 645.5732 41.5175 643.4003 26.9465 650.558 25.2849 653.6255 20.5558 652.4752 15.571 658.2269 12.2478 661.6779 20.4279 665.3845 21.5783 664.2342 23.3677 666.9183 37.4274 Z" id="CL.2740" fill="#cee3f5" stroke="#6e6e6e" stroke-width="0.4">
      <desc>
        <labelrank>7</labelrank>
        <code_hasc>CL.</code_hasc>
        <name>Arica y Parinacota</name>
        <admin>Chile</admin>
        <type_en>Region</type_en>
        <region/>
        <woe_id>56043702</woe_id>
        <longitude>-69</longitude>
        <woe_name>Arica y Parinacota</woe_name>
        <fips/>
        <woe_label>Arica and Parinacota Region, CL, Chile</woe_label>
        <latitude>-18</latitude>
        <iso_a2>CL</iso_a2>
        <postal/>
        <type>Región</type>
        <id>CL.2740</id>
      </desc>
    </path>
    <path d="M 673.9482 148.7546 666.6627 150.4162 665.5124 155.0176 648.5129 156.6792 640.844 161.9196 639.1824 158.4686 643.7837 149.905 641.3552 135.4618 644.295 118.8458 642.5056 116.9286 640.3327 117.8233 640.844 112.9663 641.4831 109.7709 643.6559 110.2822 645.8288 106.959 649.4076 81.3959 659.3772 81.3959 670.1137 77.6893 674.4594 72.1932 679.8277 78.4561 685.0681 105.6808 696.1881 105.6808 699 108.7484 693.1205 126.7704 678.933 132.9055 674.7151 136.8678 673.5647 140.3188 676.8879 145.8149 673.9482 148.7546 Z" id="CL.AN" fill="#cee3f5" stroke="#6e6e6e" stroke-width="0.4">
      <desc>
        <labelrank>6</labelrank>
        <code_hasc>CL.AN</code_hasc>
        <name>Antofagasta</name>
        <admin>Chile</admin>
        <type_en>Region</type_en>
        <region/>
        <woe_id>2345020</woe_id>
        <longitude>-68</longitude>
        <woe_name>Antofagasta</woe_name>
        <fips>CI03</fips>
        <woe_label>Antofagasta Region, CL, Chile</woe_label>
        <latitude>-23</latitude>
        <iso_a2>CL</iso_a2>
        <postal>AN</postal>
        <type>Región</type>
        <id>CL.AN</id>
      </desc>
    </path>
    <path d="M 652.4752 226.5942 646.8513 225.8273 641.9943 215.6021 636.3704 217.7749 635.2201 220.9703 628.4459 218.0306 627.9346 212.4067 631.13 208.5722 633.942 193.7457 636.8817 189.9112 635.987 181.8588 638.6711 178.9191 640.844 161.9196 648.5129 156.6792 665.5124 155.0176 666.6627 150.4162 673.9482 148.7546 673.0535 152.3335 676.121 163.8368 673.1813 169.2051 677.6548 177.0018 677.2714 179.5581 673.3091 181.6032 669.7303 180.8363 663.8508 195.5351 656.6931 203.3318 654.3924 215.6021 650.8136 219.1809 652.4752 226.5942 Z" id="CL.AT" fill="#cee3f5" stroke="#6e6e6e" stroke-width="0.4">
      <desc>
        <labelrank>3</labelrank>
        <code_hasc>CL.AT</code_hasc>
        <name>Atacama</name>
        <admin>Chile</admin>
        <type_en>Region</type_en>
        <region/>
        <woe_id>2345022</woe_id>
        <longitude>-69</longitude>
        <woe_name/>
        <fips>CI05</fips>
        <woe_label/>
        <latitude>-27</latitude>
        <iso_a2>CL</iso_a2>
        <postal>AT</postal>
        <type>Región</type>
        <id>CL.AT</id>
      </desc>
    </path>
    <path d="M 652.4752 226.5942 651.8361 232.7294 653.8812 235.03 652.0917 238.0976 648.8964 237.9698 647.6182 249.7288 644.4228 250.8791 643.1447 254.458 644.6784 263.5329 648.1295 265.7057 646.0844 267.4951 646.8513 270.4349 637.393 266.3448 631.7691 268.3899 630.8744 268.0064 630.4909 267.623 630.1075 267.7508 629.9797 268.262 628.8293 270.4349 625.6339 240.9095 626.5287 236.1804 630.2353 234.9022 631.8969 229.6618 631.2578 221.3538 628.4459 218.0306 635.2201 220.9703 636.3704 217.7749 641.9943 215.6021 646.8513 225.8273 652.4752 226.5942 Z" id="CL.CO" fill="#cee3f5" stroke="#6e6e6e" stroke-width="0.4">
      <desc>
        <labelrank>3</labelrank>
        <code_hasc>CL.CO</code_hasc>
        <name>Coquimbo</name>
        <admin>Chile</admin>
        <type_en>Region</type_en>
        <region/>
        <woe_id>2345024</woe_id>
        <longitude>-70</longitude>
        <woe_name>Coquimbo</woe_name>
        <fips>CI07</fips>
        <woe_label>Coquimbo Region, CL, Chile</woe_label>
        <latitude>-30</latitude>
        <iso_a2>CL</iso_a2>
        <postal>CO</postal>
        <type>Región</type>
        <id>CL.CO</id>
      </desc>
    </path>
    <path d="M 651.4527 306.7345 645.701 300.0881 640.2049 301.2384 636.6261 305.3285 629.8519 302.6444 628.4459 302.9 627.679 302.2609 627.1677 302.0053 627.0399 301.8775 627.0399 301.7497 628.9572 300.4715 629.085 300.3437 629.8519 299.3212 631.5135 298.5543 630.7466 290.5019 636.3704 285.2615 642.889 283.8555 644.6784 285.5171 645.9566 285.7728 647.1069 287.3065 647.4904 287.3065 650.4301 285.1337 651.8361 289.4794 654.009 288.5847 655.1593 290.8854 653.3699 297.7874 654.648 305.8398 651.4527 306.7345 Z" id="CL.RM" fill="#cee3f5" stroke="#6e6e6e" stroke-width="0.4">
      <desc>
        <labelrank>7</labelrank>
        <code_hasc>CL.RM</code_hasc>
        <name>Región Metropolitana de Santiago</name>
        <admin>Chile</admin>
        <type_en>Region</type_en>
        <region/>
        <woe_id>2345029</woe_id>
        <longitude>-70</longitude>
        <woe_name>Región Metropolitana de Santiago</woe_name>
        <fips>CI12</fips>
        <woe_label>Santiago Metropolitan Region, CL, Chile</woe_label>
        <latitude>-33</latitude>
        <iso_a2>CL</iso_a2>
        <postal>RM</postal>
        <type>Región</type>
        <id>CL.RM</id>
      </desc>
    </path>
    <path d="M 646.8513 270.4349 651.4527 283.8555 647.4904 287.3065 647.1069 287.3065 645.9566 285.7728 644.6784 285.5171 642.889 283.8555 636.3704 285.2615 630.7466 290.5019 631.5135 298.5543 629.8519 299.3212 629.085 300.3437 628.9572 300.4715 627.0399 301.7497 626.7843 301.6219 626.5287 301.494 626.4008 301.494 626.0174 301.2384 625.7618 301.3662 624.7392 301.1106 624.8671 300.7272 625.2505 299.1934 625.6339 298.2987 628.1903 294.0808 625.8896 286.4118 628.7015 284.7502 630.3631 278.7429 630.8744 273.7581 628.8293 270.4349 629.9797 268.262 630.1075 267.7508 630.4909 267.623 630.8744 268.0064 631.7691 268.3899 637.7764 266.6004 646.8513 270.4349 Z M 3.4285 299.8324 1.1278 303.0278 1 300.0881 3.4285 299.8324 Z" id="CL.VS" fill="#cee3f5" stroke="#6e6e6e" stroke-width="0.4">
      <desc>
        <labelrank>3</labelrank>
        <code_hasc>CL.VS</code_hasc>
        <name>Valparaíso</name>
        <admin>Chile</admin>
        <type_en>Region</type_en>
        <region/>
        <woe_id>2345018</woe_id>
        <longitude>-70</longitude>
        <woe_name/>
        <fips>CI01</fips>
        <woe_label/>
        <latitude>-32</latitude>
        <iso_a2>CL</iso_a2>
        <postal>VS</postal>
        <type>Región</type>
        <id>CL.VS</id>
      </desc>
    </path>
    <path d="M 638.7989 374.8601 640.9718 384.4463 633.8141 388.4085 632.6638 400.6788 631.13 400.9344 630.2353 398.8894 629.724 398.3781 629.5962 398.2503 629.3406 398.1225 628.8293 398.2503 625.1227 403.3629 620.9048 403.3629 620.6491 402.9795 620.1379 402.3404 618.6041 401.5735 612.8524 401.1901 612.9802 397.9947 612.9802 397.6112 612.7246 397.4834 611.7021 397.2278 608.7623 397.7391 609.1458 394.288 604.161 382.0178 607.7398 381.7621 610.0405 367.0634 617.8372 367.319 623.8445 373.0707 628.9572 373.5819 629.9797 376.9051 634.581 373.5819 638.7989 374.8601 Z" id="CL.AR" fill="#cee3f5" stroke="#6e6e6e" stroke-width="0.4">
      <desc>
        <labelrank>3</labelrank>
        <code_hasc>CL.AR</code_hasc>
        <name>La Araucanía</name>
        <admin>Chile</admin>
        <type_en>Region</type_en>
        <region/>
        <woe_id>2345021</woe_id>
        <longitude>-72</longitude>
        <woe_name>La Araucanía</woe_name>
        <fips>CI04</fips>
        <woe_label>Araucania Region, CL, Chile</woe_label>
        <latitude>-38</latitude>
        <iso_a2>CL</iso_a2>
        <postal>AR</postal>
        <type>Región</type>
        <id>CL.AR</id>
      </desc>
    </path>
    <path d="M 618.6041 401.5735 620.1379 402.3404 620.6491 402.9795 620.9048 403.3629 625.1227 403.3629 628.8293 398.2503 629.3406 398.1225 629.5962 398.2503 629.724 398.3781 630.2353 398.8894 630.8744 400.6788 629.9797 402.9795 631.3856 406.1749 628.7015 411.5431 630.7466 413.4604 630.1075 415.122 629.2128 415.122 628.4459 417.2948 628.3181 417.4226 628.4459 417.6783 627.9346 418.3173 627.2956 418.8286 625.6339 419.5955 623.0776 419.8511 619.4988 419.9789 618.0928 419.7233 616.9425 419.0842 615.1531 417.9339 614.6418 417.5504 614.2584 417.0392 613.6193 415.3776 612.9802 414.6107 610.2961 414.7385 606.8451 413.8438 603.9053 414.0994 603.3941 413.9716 603.0106 413.8438 602.8828 413.716 602.755 413.716 602.755 413.4604 602.755 413.3325 603.1384 412.5656 602.8828 411.9266 603.7775 410.7762 603.0106 408.3477 606.3338 405.7914 607.4842 406.9418 608.7623 397.7391 611.7021 397.2278 612.7246 397.4834 612.9802 397.6112 612.9802 397.9947 612.8524 398.6338 612.7246 399.6563 612.5968 400.6788 612.8524 401.1901 613.108 401.1901 618.6041 401.5735 Z" id="CL.2735" fill="#cee3f5" stroke="#6e6e6e" stroke-width="0.4">
      <desc>
        <labelrank>3</labelrank>
        <code_hasc>CL.AR</code_hasc>
        <name>Los Ríos</name>
        <admin>Chile</admin>
        <type_en>Region</type_en>
        <region/>
        <woe_id>56043703</woe_id>
        <longitude>-72</longitude>
        <woe_name>Los Ríos</woe_name>
        <fips>CI09</fips>
        <woe_label>Los Rios Region, CL, Chile</woe_label>
        <latitude>-40</latitude>
        <iso_a2>CL</iso_a2>
        <postal>AR</postal>
        <type>Región</type>
        <id>CL.2735</id>
      </desc>
    </path>
    <path d="M 638.7989 374.8601 634.581 373.5819 629.9797 376.9051 628.9572 373.5819 623.8445 373.0707 617.8372 367.319 610.0405 367.0634 607.7398 381.7621 604.161 382.0178 604.6722 374.3488 601.6047 368.725 601.4768 359.5222 607.4842 358.6275 607.2285 351.8533 608.3789 348.6579 610.2961 350.3195 612.3411 339.3274 614.0027 338.0493 617.1981 339.0718 622.822 339.7109 623.0776 339.7109 623.3333 339.7109 627.0399 341.1168 627.679 341.2446 628.0624 341.3725 634.8367 344.5678 635.3479 344.44 636.1148 344.44 636.4983 344.3122 636.7539 344.3122 637.0095 344.3122 637.2652 344.44 637.393 344.5678 637.7764 345.3347 638.032 345.5904 637.6486 349.297 635.6036 354.2818 635.8592 359.9057 638.7989 374.8601 Z" id="CL.BI" fill="#cee3f5" stroke="#6e6e6e" stroke-width="0.4">
      <desc>
        <labelrank>3</labelrank>
        <code_hasc>CL.BI</code_hasc>
        <name>Bío-Bío</name>
        <admin>Chile</admin>
        <type_en>Region</type_en>
        <region/>
        <woe_id>2345023</woe_id>
        <longitude>-72</longitude>
        <woe_name>Bío-Bío</woe_name>
        <fips>CI06</fips>
        <woe_label>Biobio Region, CL, Chile</woe_label>
        <latitude>-36</latitude>
        <iso_a2>CL</iso_a2>
        <postal>BI</postal>
        <type>Región</type>
        <id>CL.BI</id>
      </desc>
    </path>
    <path d="M 651.4527 306.7345 646.9791 319.8995 635.3479 316.4485 627.1677 319.0048 621.7995 315.8094 622.6942 304.8172 624.7392 301.1106 625.2505 301.1106 625.3783 301.1106 625.7618 301.3662 626.0174 301.2384 626.4008 301.494 626.5287 301.494 626.7843 301.6219 627.0399 301.7497 627.0399 301.8775 627.1677 302.0053 627.679 302.2609 628.4459 302.9 629.8519 302.6444 636.6261 305.3285 640.2049 301.2384 645.701 300.0881 651.4527 306.7345 Z" id="CL.LI" fill="#cee3f5" stroke="#6e6e6e" stroke-width="0.4">
      <desc>
        <labelrank>3</labelrank>
        <code_hasc>CL.LI</code_hasc>
        <name>Libertador General Bernardo O'Higgins</name>
        <admin>Chile</admin>
        <type_en>Region</type_en>
        <region/>
        <woe_id>2345025</woe_id>
        <longitude>-71</longitude>
        <woe_name>Libertador General Bernardo O'Higgins</woe_name>
        <fips>CI08</fips>
        <woe_label>O'Higgins Region, CL, Chile</woe_label>
        <latitude>-34</latitude>
        <iso_a2>CL</iso_a2>
        <postal>LI</postal>
        <type>Región</type>
        <id>CL.LI</id>
      </desc>
    </path>
    <path d="M 601.6047 440.9407 604.0331 442.3466 607.4842 441.0685 606.5895 442.9857 609.657 448.354 605.6947 450.5268 606.7173 452.9553 604.0331 452.8275 608.6345 458.3236 605.8226 459.4739 608.8901 463.3084 605.1835 463.8196 606.8451 468.0375 604.5444 469.1879 597.2589 466.3759 599.9431 459.9852 599.1762 449.1209 600.0709 440.9407 601.6047 440.9407 Z M 631.8969 478.9018 627.0399 477.3681 624.1002 473.7892 621.416 474.6839 617.8372 472.2554 615.1531 474.0449 616.8147 471.872 614.1306 469.4435 614.2584 466.8872 616.8147 461.3911 618.6041 462.4137 616.5591 453.3388 620.777 453.211 616.5591 448.354 619.7544 446.5645 622.1829 451.0381 621.2882 442.8579 617.7094 443.7526 615.6643 441.9632 623.2055 436.9784 622.9498 432.377 619.6266 438.2565 614.514 434.4221 611.4464 439.9181 604.0331 439.6625 607.3563 435.3168 603.3941 436.4671 601.0934 428.2869 602.755 413.716 602.8828 413.716 603.0106 413.8438 603.3941 413.9716 603.9053 414.0994 606.8451 413.8438 610.2961 414.7385 612.9802 414.6107 613.6193 415.3776 614.2584 417.0392 614.6418 417.5504 615.1531 417.9339 616.9425 419.0842 618.0928 419.7233 619.4988 419.9789 625.6339 419.5955 627.2956 418.8286 627.9346 418.3173 628.4459 417.6783 628.5737 417.8061 628.1903 436.9784 630.8744 444.3917 625.8896 447.7149 626.1452 460.7521 631.5135 463.9474 628.8293 468.421 632.0247 471.1051 631.8969 478.9018 Z" id="CL.LL" fill="#cee3f5" stroke="#6e6e6e" stroke-width="0.4">
      <desc>
        <labelrank>3</labelrank>
        <code_hasc>CL.LL</code_hasc>
        <name>Los Lagos</name>
        <admin>Chile</admin>
        <type_en>Region</type_en>
        <region/>
        <woe_id>2345026</woe_id>
        <longitude>-72</longitude>
        <woe_name>Los Lagos</woe_name>
        <fips>CI09</fips>
        <woe_label>Los Lagos Region, CL, Chile</woe_label>
        <latitude>-41</latitude>
        <iso_a2>CL</iso_a2>
        <postal>LL</postal>
        <type>Región</type>
        <id>CL.LL</id>
      </desc>
    </path>
    <path d="M 646.9791 319.8995 644.0394 323.9896 646.2122 325.6512 647.1069 337.7936 642.3778 341.7559 642.3778 344.3122 638.032 345.5904 637.7764 345.3347 637.393 344.5678 637.2652 344.44 637.0095 344.3122 636.7539 344.3122 636.4983 344.3122 636.1148 344.44 635.3479 344.44 634.8367 344.5678 628.0624 341.3725 627.679 341.2446 627.0399 341.1168 623.3333 339.7109 623.0776 339.7109 617.1981 339.0718 614.0027 338.0493 612.5968 338.8162 615.4087 333.7035 614.3862 330.2525 620.1379 322.0723 621.7995 315.8094 627.1677 319.0048 635.3479 316.4485 646.9791 319.8995 Z" id="CL.ML" fill="#cee3f5" stroke="#6e6e6e" stroke-width="0.4">
      <desc>
        <labelrank>3</labelrank>
        <code_hasc>CL.ML</code_hasc>
        <name>Maule</name>
        <admin>Chile</admin>
        <type_en>Region</type_en>
        <region/>
        <woe_id>2345028</woe_id>
        <longitude>-71</longitude>
        <woe_name>Maule</woe_name>
        <fips>CI06</fips>
        <woe_label>Maule Region, CL, Chile</woe_label>
        <latitude>-35</latitude>
        <iso_a2>CL</iso_a2>
        <postal>ML</postal>
        <type>Región</type>
        <id>CL.ML</id>
      </desc>
    </path>
  </g>
</svg>