<?xml version="1.0" encoding="UTF-8"?>
<svg xmlns="http://www.w3.org/2000/svg" width="700" height="700">
  <g id="yemen">
    <path d="M 2.4258 386.0297 1 384.7135 2.0968 383.7264 2.4258 386.0297 Z M 19.3165 347.5322 18.8777 348.3 14.1615 347.9709 13.6131 345.887 19.3165 347.5322 Z" id="YE.3662" fill="#cee3f5" stroke="#6e6e6e" stroke-width="0.4">
      <desc>
        <labelrank>20</labelrank>
        <code_hasc>-99</code_hasc>
        <name/>
        <admin>Yemen</admin>
        <type_en/>
        <region/>
        <woe_id>-99</woe_id>
        <longitude>42</longitude>
        <woe_name/>
        <fips/>
        <woe_label/>
        <latitude>15</latitude>
        <iso_a2>YE</iso_a2>
        <postal/>
        <type/>
        <id>YE.3662</id>
      </desc>
    </path>
    <path d="M 157.8416 250.0272 156.6351 268.3437 152.0286 270.6469 141.6091 271.1953 131.2992 275.9115 126.2539 282.4923 117.8086 287.7569 114.5182 295.7635 108.1568 296.8603 94.0082 292.9118 81.9434 296.8603 70.4271 296.3119 59.0204 292.3635 58.143 289.2924 60.5559 285.8924 56.9365 283.6988 55.072 279.4213 56.4978 273.7179 55.5107 269.2211 57.7043 262.2016 62.8592 259.7887 62.9689 258.6919 61.4334 256.608 58.2527 255.5112 65.9302 247.9433 70.7561 244.9819 77.0079 244.9819 83.3693 248.1626 89.4016 254.3047 98.0663 254.195 98.3953 256.608 99.6018 257.266 104.5374 253.4272 108.9246 254.8531 112.544 251.3433 115.9441 252.2208 126.583 250.6853 135.2476 251.453 139.8542 249.9175 157.8416 250.0272 Z" id="YE.SD" fill="#cee3f5" stroke="#6e6e6e" stroke-width="0.4">
      <desc>
        <labelrank>7</labelrank>
        <code_hasc>YE.SD</code_hasc>
        <name>Sa`dah</name>
        <admin>Yemen</admin>
        <type_en>Governorate</type_en>
        <region/>
        <woe_id>20070038</woe_id>
        <longitude>44</longitude>
        <woe_name>Sa`dah</woe_name>
        <fips>YM15</fips>
        <woe_label>Sa`dah, YE, Yemen</woe_label>
        <latitude>16</latitude>
        <iso_a2>YE</iso_a2>
        <postal>SD</postal>
        <type>Muhafazah</type>
        <id>YE.SD</id>
      </desc>
    </path>
    <path d="M 29.736 465.4376 31.4909 460.9408 35.0006 458.8569 35.7684 459.4052 33.3554 463.4634 29.736 465.4376 Z M 35.4393 450.4115 33.5748 450.7406 34.3426 449.0954 31.7102 447.8889 30.0651 445.3663 34.3426 442.0759 36.2071 444.9276 35.4393 450.4115 Z M 24.8004 366.1777 27.3231 365.8487 26.5553 371.0036 23.923 373.1972 22.7165 371.7714 23.4843 366.068 25.8972 363.1067 27.5424 362.668 24.8004 366.1777 Z M 85.6725 451.618 77.6659 453.7019 72.182 461.0504 67.2464 462.3666 63.1882 465.657 60.3366 453.4826 56.3881 448.9857 52.7687 441.5275 46.846 418.2755 45.3105 416.8496 45.7492 415.8625 46.7363 416.4109 48.8202 420.9078 49.259 415.4238 46.9557 409.9398 47.6138 408.1849 45.5299 405.6623 44.5427 401.0558 41.2524 395.5718 41.2524 393.7073 42.7879 397.9848 44.7621 399.7396 44.3234 391.8427 41.1427 387.4555 41.033 381.9716 33.1361 376.8166 30.7231 376.4876 29.6263 378.1328 27.7618 377.8037 26.2263 374.7327 30.2844 374.623 30.0651 371.0036 32.0393 367.7132 31.2715 370.8939 35.4393 373.8553 36.5361 376.8166 37.3039 369.0294 35.6587 364.5325 35.549 360.5841 32.478 356.0872 33.3554 354.7711 31.9296 352.6871 32.2586 348.8484 31.0522 348.4096 33.9038 345.558 34.5619 341.9386 38.291 338.6482 38.9491 337.6611 39.1684 336.3449 48.1622 341.8289 51.8913 341.3902 54.1945 341.6095 55.5107 340.9514 56.2784 340.403 58.472 339.8547 64.1754 339.5256 65.6012 340.6224 66.1496 344.0225 64.9431 347.2032 64.9431 348.3 65.6012 350.1645 64.8334 354.7711 66.2593 365.1906 66.1496 368.7003 66.4786 371.552 68.0141 373.8553 70.6464 375.9392 72.9497 376.5973 73.3884 377.5844 74.0465 379.2296 75.1433 381.2038 75.8014 382.849 76.5691 384.1651 78.324 385.8103 79.7498 386.5781 81.5047 388.333 83.2596 389.3201 86.879 389.5394 88.3048 390.7459 88.1952 391.404 87.8661 391.733 86.9887 393.0492 86.2209 393.5976 85.3435 393.7073 83.0402 392.9395 78.8724 397.8751 77.995 400.3977 78.653 404.5655 78.324 405.5526 77.6659 406.3204 77.5563 407.3075 77.7756 409.1721 77.5563 410.1592 77.6659 411.256 79.8595 417.069 79.9692 417.9464 80.737 419.4819 80.8466 420.14 80.9563 421.6755 80.737 422.6626 78.7627 425.0756 77.6659 425.0756 77.2272 425.8433 79.0918 433.7403 79.0918 435.7145 79.8595 437.579 80.737 438.4565 82.0531 439.2242 87.9758 442.1856 92.0339 440.1017 92.4727 442.6243 92.1436 444.1598 89.95 447.6695 86.6596 447.9986 86.4403 448.6567 87.208 449.6438 87.6468 450.4115 87.7564 451.289 87.0984 451.1793 85.6725 451.618 Z" id="YE.HU" fill="#cee3f5" stroke="#6e6e6e" stroke-width="0.4">
      <desc>
        <labelrank>7</labelrank>
        <code_hasc>YE.HU</code_hasc>
        <name>Al Hudaydah</name>
        <admin>Yemen</admin>
        <type_en>Governorate</type_en>
        <region/>
        <woe_id>20070047</woe_id>
        <longitude>43</longitude>
        <woe_name>Al Hudaydah</woe_name>
        <fips>YM08</fips>
        <woe_label>Al Hudaydah, YE, Yemen</woe_label>
        <latitude>14</latitude>
        <iso_a2>YE</iso_a2>
        <postal>HU</postal>
        <type>Muhafazah</type>
        <id>YE.HU</id>
      </desc>
    </path>
    <path d="M 102.8922 360.3647 100.918 366.2874 91.3759 373.3069 87.7564 373.965 83.5886 376.7069 82.1628 379.4489 82.3821 382.3006 81.8338 383.7264 81.1757 384.2748 79.7498 386.5781 78.324 385.8103 76.5691 384.1651 75.8014 382.849 75.1433 381.2038 74.0465 379.2296 73.3884 377.5844 72.9497 376.5973 70.6464 375.9392 68.0141 373.8553 66.4786 371.552 66.369 370.0165 66.1496 368.7003 66.2593 365.1906 65.6012 359.8163 78.4337 357.8421 87.3177 359.0486 92.5823 358.7195 96.0921 356.9646 102.8922 360.3647 Z" id="YE.MW" fill="#cee3f5" stroke="#6e6e6e" stroke-width="0.4">
      <desc>
        <labelrank>6</labelrank>
        <code_hasc>YE.MW</code_hasc>
        <name>Al Mahwit</name>
        <admin>Yemen</admin>
        <type_en>Governorate</type_en>
        <region/>
        <woe_id>20070046</woe_id>
        <longitude>43</longitude>
        <woe_name>Al Mahwit</woe_name>
        <fips>YM10</fips>
        <woe_label>Al Mahwit, YE, Yemen</woe_label>
        <latitude>15</latitude>
        <iso_a2>YE</iso_a2>
        <postal>MW</postal>
        <type>Muhafazah</type>
        <id>YE.MW</id>
      </desc>
    </path>
    <path d="M 152.0286 403.3591 147.7511 408.514 145.3382 422.2239 143.9123 424.9659 139.9639 427.8176 138.6477 430.8886 137.5509 431.3273 123.1829 425.2949 117.5893 421.2368 115.1763 425.0756 111.1182 425.7337 109.1439 421.7852 103.989 426.5014 101.3567 427.3788 101.9051 431.8757 100.3696 434.7274 96.6405 435.2758 95.8727 432.5338 94.6662 434.7274 92.0339 440.1017 87.9758 442.1856 82.0531 439.2242 80.737 438.4565 79.8595 437.579 79.0918 435.7145 77.2272 425.8433 77.6659 425.0756 78.7627 425.0756 80.9563 424.8562 87.8661 420.2497 94.0082 420.3594 98.2857 417.6174 102.0148 413.6689 102.0148 411.256 94.4469 400.8364 93.7888 397.8751 100.5889 396.7783 111.0085 390.1975 114.2989 389.7588 119.2344 393.2685 123.5119 394.2557 125.1571 393.7073 126.6926 390.7459 131.9573 393.2685 135.467 391.733 138.9767 387.8942 144.4607 387.8942 147.3124 391.075 152.0286 403.3591 Z" id="YE.DH" fill="#cee3f5" stroke="#6e6e6e" stroke-width="0.4">
      <desc>
        <labelrank>7</labelrank>
        <code_hasc>YE.DH</code_hasc>
        <name>Dhamar</name>
        <admin>Yemen</admin>
        <type_en>Governorate</type_en>
        <region/>
        <woe_id>20070044</woe_id>
        <longitude>44</longitude>
        <woe_name>Dhamar</woe_name>
        <fips>YM11</fips>
        <woe_label>Dhamar, YE, Yemen</woe_label>
        <latitude>14</latitude>
        <iso_a2>YE</iso_a2>
        <postal>DH</postal>
        <type>Muhafazah</type>
        <id>YE.DH</id>
      </desc>
    </path>
    <path d="M 81.9434 296.8603 82.2725 319.564 84.9048 322.3059 85.0145 326.6931 87.208 331.19 84.7951 334.8094 86.1113 335.3578 88.7436 332.7255 90.0597 333.6029 91.9243 337.9901 92.2533 345.9967 93.5695 347.3129 92.363 351.7 88.3048 352.5775 88.5242 356.855 87.3177 359.0486 78.4337 357.8421 65.6012 359.8163 64.8334 354.7711 65.6012 350.1645 64.9431 348.3 64.9431 347.2032 66.1496 344.0225 65.6012 340.6224 64.1754 339.5256 58.472 339.8547 56.2784 340.403 55.5107 340.9514 54.1945 341.6095 51.8913 341.3902 48.1622 341.8289 39.1684 336.3449 39.6072 325.8157 36.9749 310.1315 43.0072 307.3895 43.4459 303.9895 50.6848 300.8088 53.4268 293.0215 57.814 293.6796 59.0204 292.3635 70.4271 296.3119 81.9434 296.8603 Z" id="YE.HJ" fill="#cee3f5" stroke="#6e6e6e" stroke-width="0.4">
      <desc>
        <labelrank>7</labelrank>
        <code_hasc>YE.HJ</code_hasc>
        <name>Hajjah</name>
        <admin>Yemen</admin>
        <type_en>Governorate</type_en>
        <region/>
        <woe_id>20070048</woe_id>
        <longitude>43</longitude>
        <woe_name>Hajjah</woe_name>
        <fips>YM22</fips>
        <woe_label>Hajjah, YE, Yemen</woe_label>
        <latitude>16</latitude>
        <iso_a2>YE</iso_a2>
        <postal>HJ</postal>
        <type>Muhafazah</type>
        <id>YE.HJ</id>
      </desc>
    </path>
    <path d="M 114.5182 295.7635 122.1958 301.3572 121.7571 304.8669 124.2797 311.5574 124.7184 317.151 123.5119 320.7704 124.3894 325.706 127.4604 330.4222 124.4991 330.6416 118.028 333.4932 116.9312 336.2352 117.9183 343.3644 113.7505 348.7387 113.0924 353.7839 108.1568 357.184 104.2084 357.184 102.8922 360.3647 96.0921 356.9646 92.5823 358.7195 87.3177 359.0486 88.5242 356.855 88.3048 352.5775 92.363 351.7 93.5695 347.3129 92.2533 345.9967 91.9243 337.9901 90.0597 333.6029 88.7436 332.7255 86.1113 335.3578 84.7951 334.8094 87.208 331.19 85.0145 326.6931 84.9048 322.3059 82.2725 319.564 81.9434 296.8603 94.0082 292.9118 108.1568 296.8603 114.5182 295.7635 Z" id="YE.AM" fill="#cee3f5" stroke="#6e6e6e" stroke-width="0.4">
      <desc>
        <labelrank>6</labelrank>
        <code_hasc>YE.AM</code_hasc>
        <name>Amran</name>
        <admin>Yemen</admin>
        <type_en>Governorate</type_en>
        <region/>
        <woe_id>56189859</woe_id>
        <longitude>44</longitude>
        <woe_name/>
        <fips>YM00</fips>
        <woe_label/>
        <latitude>16</latitude>
        <iso_a2>YE</iso_a2>
        <postal>AM</postal>
        <type>Muhafazah</type>
        <id>YE.AM</id>
      </desc>
    </path>
    <path d="M 138.6477 430.8886 140.5123 432.0951 140.951 436.1532 143.5833 437.4694 143.0349 439.3339 139.3058 440.5404 137.7703 443.392 138.209 447.8889 131.8476 449.8631 130.4217 454.031 128.5572 454.689 126.8023 457.5407 126.1442 460.3924 124.8281 462.1472 122.6345 463.5731 121.3184 463.7924 101.247 457.9794 101.1373 455.4568 97.7373 456.1149 96.9695 453.5922 87.208 454.5794 85.6725 451.618 87.0984 451.1793 87.7564 451.289 87.6468 450.4115 87.208 449.6438 86.4403 448.6567 86.6596 447.9986 89.95 447.6695 92.1436 444.1598 92.0339 440.1017 94.6662 434.7274 95.8727 432.5338 96.6405 435.2758 100.3696 434.7274 101.9051 431.8757 101.3567 427.3788 103.989 426.5014 109.1439 421.7852 111.1182 425.7337 115.1763 425.0756 117.5893 421.2368 123.1829 425.2949 137.5509 431.3273 138.6477 430.8886 Z" id="YE.IB" fill="#cee3f5" stroke="#6e6e6e" stroke-width="0.4">
      <desc>
        <labelrank>7</labelrank>
        <code_hasc>YE.IB</code_hasc>
        <name>Ibb</name>
        <admin>Yemen</admin>
        <type_en>Governorate</type_en>
        <region/>
        <woe_id>20070042</woe_id>
        <longitude>44</longitude>
        <woe_name>Ibb</woe_name>
        <fips>YM23</fips>
        <woe_label>Ibb, YE, Yemen</woe_label>
        <latitude>14</latitude>
        <iso_a2>YE</iso_a2>
        <postal>IB</postal>
        <type>Muhafazah</type>
        <id>YE.IB</id>
      </desc>
    </path>
    <path d="M 182.0808 452.7148 179.9969 453.2632 179.4485 457.9794 175.0613 460.0633 174.6226 463.6827 171.4419 465.8763 172.3193 466.9731 176.3774 468.0699 171.2225 474.7604 171.2225 478.7088 173.6354 481.4508 170.4547 484.6315 166.7256 494.722 164.9708 507.7739 164.6417 508.432 137.8799 513.4772 132.8347 515.3418 130.3121 516.8773 126.3636 522.8 125.9249 522.1419 113.8602 525.871 110.7891 524.7742 113.7505 525.1032 113.8602 523.5677 111.6666 523.7871 106.5116 526.3097 100.0405 527.0775 97.0792 523.8968 81.066 517.9741 79.8595 518.1934 76.6788 521.3741 78.653 517.2063 83.0402 510.6255 86.2209 507.4448 88.1952 504.4835 87.7564 500.6447 88.5242 500.0963 90.4984 499.877 95.434 497.3543 98.6147 498.3415 103.2212 501.1931 104.318 501.3028 104.6471 500.4254 104.4277 497.5737 104.7568 497.2447 106.9503 498.5608 108.3762 498.7802 108.9246 498.1221 109.1439 496.9156 109.802 495.8188 110.4601 495.5995 111.6666 495.4898 112.3246 495.0511 112.3246 494.2833 112.3246 493.2962 112.7634 492.7478 113.5311 492.3091 114.1892 490.9929 116.6021 491.4316 119.0151 491.322 121.9764 490.6639 123.1829 489.6768 123.5119 488.3606 122.8539 483.7541 123.0732 482.9863 124.3894 482.6573 128.0088 482.5476 128.5572 481.8895 127.7894 480.1347 124.3894 479.0379 123.9507 478.1604 124.3894 477.283 127.8991 476.0765 128.2282 475.7475 128.4475 474.541 130.8605 473.8829 132.725 472.2377 133.1637 471.0313 135.467 471.799 138.538 474.4313 147.6414 469.6054 151.1512 470.2635 151.3705 463.4634 159.1578 461.1601 163.9837 458.4181 166.0676 456.5536 169.4676 448.7663 173.6354 448.9857 180.8743 444.9276 182.4098 448.3276 182.0808 452.7148 Z" id="YE.LA" fill="#cee3f5" stroke="#6e6e6e" stroke-width="0.4">
      <desc>
        <labelrank>7</labelrank>
        <code_hasc>YE.LA</code_hasc>
        <name>Lahij</name>
        <admin>Yemen</admin>
        <type_en>Governorate</type_en>
        <region/>
        <woe_id>20070040</woe_id>
        <longitude>44</longitude>
        <woe_name>Lahij</woe_name>
        <fips>YM24</fips>
        <woe_label>Lahij, YE, Yemen</woe_label>
        <latitude>13</latitude>
        <iso_a2>YE</iso_a2>
        <postal>LA</postal>
        <type>Muhafazah</type>
        <id>YE.LA</id>
      </desc>
    </path>
    <path d="M 71.9626 523.7871 71.3045 524.9936 68.6722 523.0193 70.8658 522.5806 71.9626 523.7871 Z M 63.1882 465.657 67.2464 462.3666 72.182 461.0504 77.6659 453.7019 85.6725 451.618 87.208 454.5794 96.9695 453.5922 97.7373 456.1149 101.1373 455.4568 101.247 457.9794 121.3184 463.7924 126.1442 460.3924 127.1314 462.0376 127.3507 463.3537 126.4733 467.1925 132.725 469.057 133.1637 471.0313 132.725 472.2377 131.9573 472.5668 130.8605 473.8829 128.4475 474.541 128.2282 474.8701 128.2282 475.7475 127.8991 476.0765 126.2539 476.2959 124.3894 477.283 123.9507 478.1604 124.3894 479.0379 127.7894 480.1347 128.5572 481.8895 128.0088 482.5476 124.3894 482.6573 123.0732 482.9863 122.8539 483.7541 123.5119 488.3606 123.1829 489.6768 121.9764 490.6639 114.1892 490.9929 113.5311 492.3091 112.7634 492.7478 112.3246 493.2962 112.3246 495.0511 111.6666 495.4898 110.4601 495.5995 109.802 495.8188 109.1439 496.9156 108.9246 498.1221 108.3762 498.7802 106.9503 498.5608 104.7568 497.2447 104.4277 497.5737 104.6471 500.4254 104.318 501.3028 103.2212 501.1931 98.6147 498.3415 95.434 497.3543 90.4984 499.877 88.5242 500.0963 87.7564 500.6447 88.4145 503.277 88.1952 504.4835 86.2209 507.4448 83.0402 510.6255 78.653 517.2063 76.6788 521.3741 76.3498 521.5935 75.582 522.0322 72.7304 521.4838 73.8272 516.8773 73.4981 512.7095 69.44 507.1158 68.6722 503.3867 64.285 495.8188 60.9947 491.5413 59.6785 487.4832 60.9947 483.7541 61.4334 473.5539 63.7366 470.1538 63.1882 465.657 Z" id="YE.TA" fill="#cee3f5" stroke="#6e6e6e" stroke-width="0.4">
      <desc>
        <labelrank>7</labelrank>
        <code_hasc>YE.TA</code_hasc>
        <name>Ta`izz</name>
        <admin>Yemen</admin>
        <type_en>Governorate</type_en>
        <region/>
        <woe_id>20070041</woe_id>
        <longitude>43</longitude>
        <woe_name>Ta`izz</woe_name>
        <fips>YM25</fips>
        <woe_label>Ta`izz, YE, Yemen</woe_label>
        <latitude>13</latitude>
        <iso_a2>YE</iso_a2>
        <postal>TA</postal>
        <type>Muhafazah</type>
        <id>YE.TA</id>
      </desc>
    </path>
    <path d="M 483.2605 379.5586 483.1508 379.2296 483.0412 378.1328 481.5057 375.2811 480.9573 373.8553 479.8605 371.6617 477.4475 369.6875 470.6474 368.3713 457.1568 370.1262 453.6471 369.0294 452.7696 368.0423 452.3309 367.0552 452.4406 364.9712 456.2794 359.3776 456.4987 357.0743 455.6213 355.4291 449.918 354.2227 448.2728 350.9323 450.0277 336.8933 453.8664 328.2286 452.7696 324.7189 449.918 322.1963 449.918 320.0027 453.8664 303.2217 453.318 301.1378 452.66 299.9313 452.5503 298.7249 453.4277 296.4216 454.5245 294.8861 455.8407 293.7893 458.1439 292.2538 467.7957 287.8666 472.1829 284.7956 476.3507 279.6406 498.0673 260.5564 504.9771 249.6981 511.2288 234.343 515.8353 217.7814 518.687 200.3424 527.242 176.2129 541.3906 153.5093 585.9205 249.0401 590.4173 250.5756 607.9661 286.1117 604.237 287.5376 602.153 287.2085 594.8045 291.5957 577.3655 298.6152 565.7395 308.0476 560.5845 315.7252 560.8039 318.4672 557.2942 326.1447 559.1587 329.7641 558.6103 332.1771 561.3523 333.932 561.462 341.3902 562.8878 344.7902 562.3394 346.8741 544.5713 353.6743 542.4874 355.1001 542.0487 357.513 539.9648 356.5259 536.126 357.9518 531.0808 361.2421 531.6292 364.2035 523.5129 365.739 520.4419 368.481 509.1449 372.8682 483.2605 379.5586 Z" id="YE.MR" fill="#cee3f5" stroke="#6e6e6e" stroke-width="0.4">
      <desc>
        <labelrank>6</labelrank>
        <code_hasc>YE.MR</code_hasc>
        <name>Al Mahrah</name>
        <admin>Yemen</admin>
        <type_en>Governorate</type_en>
        <region/>
        <woe_id>20070032</woe_id>
        <longitude>51</longitude>
        <woe_name>Al Mahrah</woe_name>
        <fips>YM03</fips>
        <woe_label/>
        <latitude>16</latitude>
        <iso_a2>YE</iso_a2>
        <postal>MR</postal>
        <type>Muhafazah</type>
        <id>YE.MR</id>
      </desc>
    </path>
    <path d="M 191.0745 407.1978 197.3262 407.1978 199.6295 408.6237 198.2036 413.4496 202.9199 415.9722 207.4167 426.2821 215.4233 429.7918 216.5201 434.508 217.7266 435.6048 216.9588 440.4307 214.5459 445.2566 200.6166 455.6761 195.0229 456.8826 190.5261 453.7019 182.0808 452.7148 182.4098 448.3276 180.8743 444.9276 173.6354 448.9857 169.4676 448.7663 169.1386 445.9147 159.8158 435.0564 154.1125 434.0693 143.5833 437.4694 140.951 436.1532 140.5123 432.0951 138.6477 430.8886 139.9639 427.8176 143.9123 424.9659 145.3382 422.2239 147.7511 408.514 152.0286 403.3591 157.2932 402.0429 159.7062 400.0687 162.6675 400.6171 165.2998 402.701 167.3837 415.2044 169.5773 418.1658 171.3322 418.2755 175.171 415.5335 177.4742 416.0819 178.0226 414.327 182.5195 412.6818 188.1131 412.7915 187.2357 409.1721 187.6744 408.514 190.3067 409.6108 191.0745 407.1978 Z" id="YE.BA" fill="#cee3f5" stroke="#6e6e6e" stroke-width="0.4">
      <desc>
        <labelrank>7</labelrank>
        <code_hasc>YE.BA</code_hasc>
        <name>Al Bayda'</name>
        <admin>Yemen</admin>
        <type_en>Governorate</type_en>
        <region/>
        <woe_id>20070043</woe_id>
        <longitude>45</longitude>
        <woe_name>Al Bayda'</woe_name>
        <fips>YM20</fips>
        <woe_label>Al Bayda´, YE, Yemen</woe_label>
        <latitude>14</latitude>
        <iso_a2>YE</iso_a2>
        <postal>BA</postal>
        <type>Muhafazah</type>
        <id>YE.BA</id>
      </desc>
    </path>
    <path d="M 169.4676 448.7663 166.0676 456.5536 163.9837 458.4181 159.1578 461.1601 151.3705 463.4634 151.1512 470.2635 147.6414 469.6054 138.538 474.4313 135.467 471.799 133.1637 471.0313 132.725 469.057 126.4733 467.1925 127.3507 463.3537 126.1442 460.3924 126.8023 457.5407 128.5572 454.689 130.4217 454.031 131.8476 449.8631 138.209 447.8889 137.7703 443.392 139.3058 440.5404 143.0349 439.3339 143.5833 437.4694 154.1125 434.0693 159.8158 435.0564 169.1386 445.9147 169.4676 448.7663 Z" id="YE.DL" fill="#cee3f5" stroke="#6e6e6e" stroke-width="0.4">
      <desc>
        <labelrank>6</labelrank>
        <code_hasc>YE.DL</code_hasc>
        <name>Al Dali'</name>
        <admin>Yemen</admin>
        <type_en>Governorate</type_en>
        <region/>
        <woe_id>-20070040</woe_id>
        <longitude>44</longitude>
        <woe_name/>
        <fips>YM00</fips>
        <woe_label/>
        <latitude>13</latitude>
        <iso_a2>YE</iso_a2>
        <postal>DL</postal>
        <type>Muhafazah</type>
        <id>YE.DL</id>
      </desc>
    </path>
    <path d="M 260.9403 323.0737 214.5459 331.9577 197.7649 337.8804 190.7454 344.0225 184.2744 344.6805 172.6483 342.816 159.2674 335.7965 140.5123 331.4093 136.8928 329.1061 132.1766 328.777 127.4604 330.4222 124.3894 325.706 123.5119 320.7704 124.7184 317.151 124.2797 311.5574 121.7571 304.8669 122.1958 301.3572 114.5182 295.7635 117.8086 287.7569 126.2539 282.4923 131.2992 275.9115 141.6091 271.1953 152.0286 270.6469 156.6351 268.3437 157.8416 250.0272 171.5515 250.7949 183.0679 256.8273 208.5135 259.3499 232.314 261.6532 253.5918 258.4725 255.6757 259.679 268.1791 276.6793 268.8372 277.118 269.605 277.118 272.2373 311.667 260.9403 323.0737 Z" id="YE.JA" fill="#cee3f5" stroke="#6e6e6e" stroke-width="0.4">
      <desc>
        <labelrank>6</labelrank>
        <code_hasc>YE.JA</code_hasc>
        <name>Al Jawf</name>
        <admin>Yemen</admin>
        <type_en>Governorate</type_en>
        <region/>
        <woe_id>20070039</woe_id>
        <longitude>45</longitude>
        <woe_name>Al Jawf</woe_name>
        <fips>YM21</fips>
        <woe_label/>
        <latitude>16</latitude>
        <iso_a2>YE</iso_a2>
        <postal>JA</postal>
        <type>Muhafazah</type>
        <id>YE.JA</id>
      </desc>
    </path>
    <path d="M 289.786 467.1925 286.8246 455.0181 283.8633 448.9857 285.8375 445.1469 285.6182 440.6501 284.8504 438.2371 282.8762 436.921 275.0889 436.7016 263.6823 434.0693 242.8432 439.3339 237.4689 429.2434 222.8815 435.1661 217.7266 435.6048 216.5201 434.508 215.4233 429.7918 207.4167 426.2821 202.9199 415.9722 198.2036 413.4496 199.6295 408.6237 197.3262 407.1978 191.0745 407.1978 188.6615 404.1268 189.3196 396.5589 193.5971 385.92 201.2747 379.4489 233.8495 356.4162 312.1606 349.7258 317.2058 351.371 317.9736 353.2355 307.225 370.3455 305.0314 378.6812 304.9217 381.7522 308.7605 386.2491 308.7605 387.8942 307.9928 389.6491 298.9991 397.4364 297.6829 399.0816 298.1216 400.5074 312.709 411.3657 329.819 414.9851 334.8642 423.5401 337.6062 426.2821 341.774 428.2563 349.7806 428.366 354.6065 429.5724 359.7615 431.8757 361.8454 434.508 362.8325 437.579 364.4777 440.321 364.9164 441.4178 365.0261 442.1856 365.1358 442.6243 359.1034 442.6243 353.7291 446.0244 352.6323 444.7082 346.3806 444.4888 346.8193 445.2566 338.0449 447.3405 338.2643 445.9147 335.303 443.8308 328.2835 442.4049 323.5673 444.0501 319.9478 447.9986 307.6637 453.2632 296.0377 464.5602 289.786 467.1925 Z" id="YE.SH" fill="#cee3f5" stroke="#6e6e6e" stroke-width="0.4">
      <desc>
        <labelrank>6</labelrank>
        <code_hasc>YE.SH</code_hasc>
        <name>Shabwah</name>
        <admin>Yemen</admin>
        <type_en>Governorate</type_en>
        <region/>
        <woe_id>20070034</woe_id>
        <longitude>47</longitude>
        <woe_name>Shabwah</woe_name>
        <fips>YM05</fips>
        <woe_label>Shabwah, YE, Yemen</woe_label>
        <latitude>14</latitude>
        <iso_a2>YE</iso_a2>
        <postal>SH</postal>
        <type>Muhafazah</type>
        <id>YE.SH</id>
      </desc>
    </path>
    <path d="M 233.8495 356.4162 201.2747 379.4489 193.5971 385.92 189.3196 396.5589 188.6615 404.1268 191.0745 407.1978 190.3067 409.6108 187.6744 408.514 187.2357 409.1721 188.1131 412.7915 182.5195 412.6818 178.0226 414.327 177.4742 416.0819 175.171 415.5335 171.3322 418.2755 169.5773 418.1658 167.3837 415.2044 165.2998 402.701 162.6675 400.6171 159.7062 400.0687 159.3771 393.3782 163.4353 386.5781 167.9321 383.178 168.4805 377.6941 166.8353 374.623 160.6933 373.1972 154.9899 367.9326 153.1254 367.4939 150.6028 370.5649 148.7382 371.1133 143.1446 366.5068 139.7445 365.6293 139.4155 364.7519 147.2027 359.0486 149.835 355.2098 145.0091 348.7387 143.2542 336.8933 140.5123 331.4093 159.2674 335.7965 172.6483 342.816 184.2744 344.6805 190.7454 344.0225 197.7649 337.8804 214.5459 331.9577 260.9403 323.0737 233.8495 356.4162 Z" id="YE.MA" fill="#cee3f5" stroke="#6e6e6e" stroke-width="0.4">
      <desc>
        <labelrank>7</labelrank>
        <code_hasc>YE.MA</code_hasc>
        <name>Ma'rib</name>
        <admin>Yemen</admin>
        <type_en>Governorate</type_en>
        <region/>
        <woe_id>20070037</woe_id>
        <longitude>45</longitude>
        <woe_name>Ma'rib</woe_name>
        <fips>YM14</fips>
        <woe_label>Ma´rib, YE, Yemen</woe_label>
        <latitude>15</latitude>
        <iso_a2>YE</iso_a2>
        <postal>MA</postal>
        <type>Muhafazah</type>
        <id>YE.MA</id>
      </desc>
    </path>
    <path d="M 140.5123 331.4093 143.2542 336.8933 145.0091 348.7387 149.835 355.2098 147.2027 359.0486 139.4155 364.7519 139.7445 365.6293 143.1446 366.5068 148.7382 371.1133 150.6028 370.5649 153.1254 367.4939 154.9899 367.9326 160.6933 373.1972 166.8353 374.623 168.4805 377.6941 167.9321 383.178 163.4353 386.5781 159.3771 393.3782 159.7062 400.0687 157.2932 402.0429 152.0286 403.3591 147.3124 391.075 144.4607 387.8942 138.9767 387.8942 135.467 391.733 131.9573 393.2685 126.6926 390.7459 125.1571 393.7073 123.5119 394.2557 119.2344 393.2685 114.2989 389.7588 111.0085 390.1975 100.5889 396.7783 93.7888 397.8751 88.3048 396.1202 86.9887 393.0492 87.8661 391.733 88.1952 391.404 88.3048 390.7459 86.879 389.5394 83.2596 389.3201 81.5047 388.333 79.7498 386.5781 81.1757 384.2748 81.8338 383.7264 82.3821 382.3006 82.1628 379.4489 83.5886 376.7069 87.7564 373.965 91.3759 373.3069 100.918 366.2874 102.8922 360.3647 104.2084 357.184 108.1568 357.184 113.0924 353.7839 113.7505 348.7387 117.9183 343.3644 116.9312 336.2352 118.028 333.4932 124.4991 330.6416 127.4604 330.4222 132.1766 328.777 136.8928 329.1061 140.5123 331.4093 Z M 113.7505 372.5391 116.8215 372.4294 118.028 371.0036 116.7118 364.7519 119.2344 362.3389 119.4538 359.926 122.3055 359.597 123.4023 357.4034 124.2797 358.8292 125.9249 357.8421 123.4023 354.9904 121.5377 354.2227 119.4538 354.8807 115.3957 357.6227 113.7505 361.4615 110.5698 362.668 112.873 365.739 111.4472 368.1519 113.5311 370.4552 113.7505 372.5391 Z" id="YE.SN" fill="#cee3f5" stroke="#6e6e6e" stroke-width="0.4">
      <desc>
        <labelrank>6</labelrank>
        <code_hasc>YE.SN</code_hasc>
        <name>Sana'a</name>
        <admin>Yemen</admin>
        <type_en>Governorate</type_en>
        <region/>
        <woe_id>20070045</woe_id>
        <longitude>44</longitude>
        <woe_name>Sana'a</woe_name>
        <fips>YM16</fips>
        <woe_label>San`a´, YE, Yemen</woe_label>
        <latitude>15</latitude>
        <iso_a2>YE</iso_a2>
        <postal/>
        <type>Muhafazah</type>
        <id>YE.SN</id>
      </desc>
    </path>
    <path d="M 614.2178 544.4068 616.7404 545.1746 616.9598 546.9294 615.3146 547.3682 611.1468 545.5036 614.2178 544.4068 Z M 565.1911 543.7487 573.3074 545.0649 577.2558 544.4068 576.2687 545.9423 577.2558 547.2585 568.8105 547.0391 567.8234 545.6133 565.4104 546.1617 564.3136 544.7359 561.462 544.7359 558.72 542.7616 561.791 542.3229 565.1911 543.7487 Z M 643.7216 513.0385 648.3281 512.9288 654.5798 517.645 659.4057 518.6321 660.9412 515.7805 668.5091 515.5611 674.7608 512.1611 677.6125 514.1353 679.148 513.4772 695.0515 520.6064 699 520.058 694.3935 522.0322 693.7354 524.1161 691.3224 525.2129 682.4384 527.4065 676.6254 532.4518 671.3608 532.5614 669.1672 533.9873 666.9736 533.3292 653.3734 536.1809 650.083 535.9615 644.27 534.426 640.3215 529.8195 628.8052 522.9096 633.4117 521.7032 633.631 516.1095 637.7989 515.1224 639.4441 512.7095 643.7216 513.0385 Z M 452.3309 367.0552 453.6471 369.0294 457.1568 370.1262 470.6474 368.3713 477.4475 369.6875 479.8605 371.6617 480.9573 373.8553 481.5057 375.2811 483.0412 378.1328 483.1508 379.2296 483.2605 379.5586 475.3636 381.9716 469.3312 382.7393 464.0666 385.0426 458.5827 389.6491 448.6018 395.0234 446.7373 394.6944 440.9243 396.6686 440.2662 394.8041 435.3306 395.5718 415.1496 401.9332 395.7363 411.585 393.6524 413.1205 393.2137 414.9851 389.3749 414.327 384.6587 419.811 383.3426 426.1724 376.9811 430.5596 375.1166 435.3854 372.0456 437.0306 366.4519 442.6243 365.1358 442.6243 365.0261 442.1856 364.9164 441.4178 364.4777 440.321 361.8454 434.508 359.7615 431.8757 354.6065 429.5724 349.7806 428.366 341.774 428.2563 337.6062 426.2821 334.8642 423.5401 329.819 414.9851 312.709 411.3657 298.1216 400.5074 297.6829 399.0816 298.9991 397.4364 307.9928 389.6491 308.7605 387.8942 308.7605 386.2491 304.9217 381.7522 305.0314 378.6812 307.225 370.3455 317.9736 353.2355 317.2058 351.371 312.1606 349.7258 233.8495 356.4162 260.9403 323.0737 272.2373 311.667 269.605 277.118 278.7084 277.118 293.2957 268.563 294.9409 266.3694 301.9604 247.1755 334.0965 206.3748 385.3168 179.613 462.4214 166.5611 540.9519 152.6318 541.3906 153.5093 527.242 176.2129 518.687 200.3424 515.8353 217.7814 511.2288 234.343 504.9771 249.6981 498.0673 260.5564 476.3507 279.6406 472.1829 284.7956 467.7957 287.8666 458.1439 292.2538 455.8407 293.7893 454.5245 294.8861 453.4277 296.4216 452.5503 298.7249 452.66 299.9313 453.318 301.1378 453.8664 303.2217 449.918 320.0027 449.918 322.1963 452.7696 324.7189 453.8664 328.2286 450.0277 336.8933 448.2728 350.9323 449.918 354.2227 455.6213 355.4291 456.4987 357.0743 456.2794 359.3776 452.4406 364.9712 452.3309 367.0552 Z" id="YE.HD" fill="#cee3f5" stroke="#6e6e6e" stroke-width="0.4">
      <desc>
        <labelrank>6</labelrank>
        <code_hasc>YE.HD</code_hasc>
        <name>Hadramawt</name>
        <admin>Yemen</admin>
        <type_en>Governorate</type_en>
        <region/>
        <woe_id>20070033</woe_id>
        <longitude>48</longitude>
        <woe_name>Hadramawt</woe_name>
        <fips>YM04</fips>
        <woe_label>Hadramawt, YE, Yemen</woe_label>
        <latitude>16</latitude>
        <iso_a2>YE</iso_a2>
        <postal/>
        <type>Muhafazah</type>
        <id>YE.HD</id>
      </desc>
    </path>
    <path d="M 113.7505 372.5391 113.5311 370.4552 111.4472 368.1519 112.873 365.739 110.5698 362.668 113.7505 361.4615 115.3957 357.6227 119.4538 354.8807 121.5377 354.2227 123.4023 354.9904 125.9249 357.8421 124.2797 358.8292 123.4023 357.4034 122.3055 359.597 119.4538 359.926 119.2344 362.3389 116.7118 364.7519 118.028 371.0036 116.8215 372.4294 113.7505 372.5391 Z" id="YE.3427" fill="#cee3f5" stroke="#6e6e6e" stroke-width="0.4">
      <desc>
        <labelrank>9</labelrank>
        <code_hasc>YE.</code_hasc>
        <name>Amanat Al Asimah</name>
        <admin>Yemen</admin>
        <type_en>Governorate</type_en>
        <region/>
        <woe_id>56189858</woe_id>
        <longitude>44</longitude>
        <woe_name/>
        <fips/>
        <woe_label/>
        <latitude>15</latitude>
        <iso_a2>YE</iso_a2>
        <postal/>
        <type>Muhafazah</type>
        <id>YE.3427</id>
      </desc>
    </path>
    <path d="M 86.9887 393.0492 88.3048 396.1202 93.7888 397.8751 94.4469 400.8364 102.0148 411.256 102.0148 413.6689 98.2857 417.6174 94.0082 420.3594 87.8661 420.2497 80.9563 424.8562 78.7627 425.0756 80.737 422.6626 80.9563 421.6755 80.8466 420.14 80.737 419.4819 79.9692 417.9464 79.8595 417.069 77.6659 411.256 77.5563 410.1592 77.7756 409.1721 77.6659 406.3204 78.324 405.5526 78.653 404.5655 77.995 400.3977 78.8724 397.8751 83.0402 392.9395 85.3435 393.7073 86.2209 393.5976 86.9887 393.0492 Z" id="YE.3428" fill="#cee3f5" stroke="#6e6e6e" stroke-width="0.4">
      <desc>
        <labelrank>6</labelrank>
        <code_hasc>YE.</code_hasc>
        <name>Raymah</name>
        <admin>Yemen</admin>
        <type_en>Governorate</type_en>
        <region/>
        <woe_id>-20070045</woe_id>
        <longitude>43</longitude>
        <woe_name/>
        <fips/>
        <woe_label/>
        <latitude>14</latitude>
        <iso_a2>YE</iso_a2>
        <postal/>
        <type>Muhafazah</type>
        <id>YE.3428</id>
      </desc>
    </path>
    <path d="M 126.3636 522.8 130.3121 516.8773 132.8347 515.3418 137.8799 513.4772 164.6417 508.432 162.6675 514.0256 162.6675 517.7547 160.3642 517.8644 158.1706 516.5482 158.2803 515.7805 161.3514 515.3418 161.7901 514.3547 160.2546 512.2707 159.2674 513.8063 156.1964 513.5869 154.6609 515.5611 152.1383 515.3418 152.1383 517.316 154.8803 517.2063 152.6867 519.6193 147.3124 517.2063 144.022 518.8515 142.1574 515.3418 137.4412 514.4643 133.6025 515.6708 126.3636 522.8 Z" id="YE.AD" fill="#cee3f5" stroke="#6e6e6e" stroke-width="0.4">
      <desc>
        <labelrank>9</labelrank>
        <code_hasc>YE.AD</code_hasc>
        <name>`Adan</name>
        <admin>Yemen</admin>
        <type_en>Governorate</type_en>
        <region/>
        <woe_id>20070035</woe_id>
        <longitude>44</longitude>
        <woe_name>`Adan</woe_name>
        <fips>YM01</fips>
        <woe_label>`Adan, YE, Yemen</woe_label>
        <latitude>12</latitude>
        <iso_a2>YE</iso_a2>
        <postal>AD</postal>
        <type>Muhafazah</type>
        <id>YE.AD</id>
      </desc>
    </path>
    <path d="M 289.786 467.1925 266.6436 473.1152 261.708 476.4056 253.9208 479.2572 249.4239 478.4895 244.7077 480.1347 233.0817 480.2443 228.6945 478.9282 221.7847 480.6831 205.1135 482.3283 196.7778 484.4122 187.126 492.9672 181.9711 500.0963 170.2354 503.3867 164.9708 507.7739 166.7256 494.722 170.4547 484.6315 173.6354 481.4508 171.2225 478.7088 171.2225 474.7604 176.3774 468.0699 172.3193 466.9731 171.4419 465.8763 174.6226 463.6827 175.0613 460.0633 179.4485 457.9794 179.9969 453.2632 182.0808 452.7148 190.5261 453.7019 195.0229 456.8826 200.6166 455.6761 214.5459 445.2566 216.9588 440.4307 217.7266 435.6048 222.8815 435.1661 237.4689 429.2434 242.8432 439.3339 263.6823 434.0693 275.0889 436.7016 282.8762 436.921 284.8504 438.2371 285.6182 440.6501 285.8375 445.1469 283.8633 448.9857 286.8246 455.0181 289.786 467.1925 Z" id="YE.3430" fill="#cee3f5" stroke="#6e6e6e" stroke-width="0.4">
      <desc>
        <labelrank>6</labelrank>
        <code_hasc>YE.</code_hasc>
        <name>Abyan</name>
        <admin>Yemen</admin>
        <type_en>Governorate</type_en>
        <region/>
        <woe_id>20070036</woe_id>
        <longitude>46</longitude>
        <woe_name>Abyan</woe_name>
        <fips/>
        <woe_label>Abyan, YE, Yemen</woe_label>
        <latitude>13</latitude>
        <iso_a2>YE</iso_a2>
        <postal/>
        <type>Muhafazah</type>
        <id>YE.3430</id>
      </desc>
    </path>
  </g>
</svg>