<?xml version="1.0" encoding="UTF-8"?>
<svg xmlns="http://www.w3.org/2000/svg" width="700" height="700">
  <g id="kenya">
    <path d="M 587.1099 513.343 585.2438 515.1025 584.284 513.5029 582.8977 516.4355 581.2448 515.5291 575.0065 517.1286 574.3133 518.7282 575.753 520.9676 573.8335 518.9415 572.2339 519.2614 574.1001 513.7695 578.5789 511.7967 580.0718 509.3974 584.2307 510.2505 587.1099 513.343 Z M 412.3833 367.7286 425.9797 369.7014 426.8861 369.4348 427.4726 368.6883 428.4857 366.9821 429.2321 366.5556 430.4052 366.1823 432.6979 365.7558 434.884 365.7558 435.4705 365.9157 441.1223 372.1541 447.3073 372.4207 448.6403 373.0605 452.9591 372.6873 455.5718 374.4468 457.7045 374.82 458.291 375.0866 458.7176 375.5132 458.8775 375.8864 459.3041 375.993 461.9167 376.5796 462.8232 377.0061 463.9962 377.7526 464.9559 378.5524 466.6088 380.4185 467.8352 383.0312 470.3412 383.511 472.7938 386.177 477.0594 399.2935 478.4456 400.04 478.7656 401.9594 479.1921 402.0128 481.005 404.1988 481.2716 404.6254 482.1247 404.9986 484.0442 405.1586 486.0703 406.2783 489.4827 412.5699 489.536 413.0498 489.536 415.2892 490.1758 415.9824 489.7493 418.0618 493.1084 431.2316 498.5469 442.1087 497.054 444.5614 498.6536 444.7213 499.9332 445.7344 502.6525 450.5864 503.5056 453.359 505.4784 469.4081 511.2902 479.8586 510.9703 494.2014 512.4099 496.2276 513.423 500.653 513.1564 500.8663 512.6765 501.3995 512.4099 501.6128 515.2358 509.8239 514.9159 510.5704 514.9159 510.9969 515.1825 512.3299 519.1814 510.837 575.1131 486.0436 575.593 485.937 614.1427 483.5376 605.5583 495.8543 595.8009 504.5453 594.6812 503.2124 592.0686 503.5856 591.2155 501.2396 588.7628 506.0916 583.2176 505.1852 576.2862 509.8239 573.8868 507.158 575.8063 499.7466 573.247 501.6661 572.927 510.1438 571.3808 512.01 568.7148 506.6248 565.3024 504.1188 564.9292 508.1177 567.6485 508.6509 566.902 511.1036 568.3949 512.5432 568.9814 520.5944 569.8879 522.4072 573.8335 524.1668 571.3275 529.0188 569.7279 529.3387 571.8607 527.3126 567.6485 523.1537 565.4091 523.4203 560.4504 527.6325 558.9575 526.8327 560.3971 531.3648 562.9031 533.7109 562.05 535.3638 554.4786 540.2691 550.0532 545.4944 547.5472 546.4541 538.4829 544.6946 531.1782 546.9873 519.7679 554.7719 515.6624 561.4901 516.6221 565.1691 514.7559 573.8601 516.7821 577.6991 519.8213 577.2726 514.8093 583.4042 514.0628 588.2563 511.6101 591.7753 511.8767 597.7471 502.1726 605.3717 500.893 605.585 502.3859 600.6263 500.5197 601.6394 500.4664 607.2379 493.2684 622.8604 487.5099 620.7276 487.1367 619.2347 486.7634 621.634 489.1095 622.2739 488.523 624.14 492.8418 624.0334 493.375 628.4589 487.5099 644.4546 483.6176 646.534 482.1247 645.4676 482.178 643.015 480.0985 644.4013 482.1247 647.867 484.524 648.1336 481.8581 653.0923 479.9386 653.8387 478.4456 648.2936 477.166 649.3066 474.5 648.1869 474.3934 649.5199 477.166 650.3197 476.6328 651.5993 471.1943 653.2522 471.7274 656.1848 475.1399 654.6385 479.0855 656.718 472.9005 670.421 469.7013 681.2981 468.475 680.3916 467.2486 681.8313 463.2497 692.1752 462.7698 687.6964 460.3172 691.642 458.9842 691.3754 459.3574 695.5343 454.1855 695.2143 452.4259 693.0816 451.9461 694.5745 449.8133 693.9347 444.5347 699 342.0555 625.6863 338.5364 617.3685 334.6441 615.3957 329.6321 615.5023 330.3253 611.8766 328.1392 609.9038 330.0587 606.4381 334.7507 604.1454 334.9107 601.906 336.9368 601.1595 335.4439 592.3619 336.7769 591.9886 343.4418 591.0822 345.8944 591.0822 346.3743 590.4424 346.6409 589.5893 347.7606 579.2987 352.6126 562.7698 354.4788 563.303 356.185 562.7698 367.8619 556.3715 368.2884 556.2648 369.2482 556.7447 373.2471 560.637 378.6323 563.5162 381.7782 568.2616 383.2711 571.2475 383.591 572.3672 383.751 572.6338 383.9643 572.9004 384.4974 573.3803 384.8174 573.5935 388.2831 574.9798 390.8424 577.5925 397.5073 575.9396 405.985 580.6317 415.7424 581.6447 416.2756 583.4042 423.1005 580.7383 427.1527 580.525 428.2191 580.9516 428.5923 581.0049 428.9655 581.0049 429.2855 580.8449 430.0319 580.0451 430.5118 579.5653 430.9384 579.352 431.6315 579.4586 432.9112 580.0451 433.7109 580.0985 433.8176 579.9918 433.8176 579.8319 404.0655 536.2702 403.9589 535.9503 404.2788 535.8436 405.3985 536.1102 407.4246 536.3235 409.0775 535.9503 416.1157 530.6717 429.2855 504.4387 427.8458 488.8162 430.7784 484.1775 430.5118 445.3612 430.0319 443.7616 421.4476 425.2066 388.5497 368.8483 388.4964 367.8885 390.5225 367.7286 392.1754 368.4217 394.3615 367.4087 397.9872 364.796 399.96 364.7427 404.2255 366.1823 409.3974 366.0224 409.7707 366.6089 410.6238 367.0888 412.3833 367.7286 Z" id="KE.CO" fill="#cee3f5" stroke="#6e6e6e" stroke-width="0.4">
      <desc>
        <labelrank>4</labelrank>
        <code_hasc>KE.CO</code_hasc>
        <name>Coast</name>
        <admin>Kenya</admin>
        <type_en>Province</type_en>
        <region/>
        <woe_id>2345938</woe_id>
        <longitude>39</longitude>
        <woe_name>Coast</woe_name>
        <fips>KE02</fips>
        <woe_label>Coast, KE, Kenya</woe_label>
        <latitude>-2</latitude>
        <iso_a2>KE</iso_a2>
        <postal>CO</postal>
        <type>Mkoa</type>
        <id>KE.CO</id>
      </desc>
    </path>
    <path d="M 292.3621 361.6502 309.5308 375.2466 317.1555 393.7483 317.4754 401.053 320.6212 405.4252 321.7409 415.8757 311.2904 420.2479 306.7049 417.5286 304.6255 418.0085 303.719 425.5265 306.8115 428.2991 308.891 433.1511 313.0499 432.6179 312.5167 437.6832 309.5308 441.3622 306.385 439.6027 299.6668 441.5222 295.6679 451.9194 292.9486 449.5201 288.7897 450.4798 284.8974 449.5734 283.2978 448.2404 283.991 445.7344 282.0182 444.9346 278.9257 447.5472 271.7276 447.4406 262.7167 456.3449 259.5175 454.4254 250.1867 452.5059 252.7993 443.495 255.9985 442.2687 256.1584 435.0173 251.8396 421.9008 250.5599 407.6113 246.8276 404.892 242.8287 405.1053 241.0691 391.8821 232.2715 390.9757 228.2726 381.5382 230.1387 368.6883 233.6578 362.1301 238.5098 358.771 242.8287 358.3978 247.8407 354.5055 251.5197 359.0909 256.3717 362.2367 260.6906 361.9701 252.8526 367.6753 252.9593 370.0213 255.3586 372.314 262.1302 373.807 271.5676 371.9408 275.6199 373.2205 274.6601 379.7254 279.1923 384.5241 283.4578 384.3108 288.0432 378.9789 288.3632 374.5534 286.3903 370.1813 292.3621 361.6502 Z" id="KE.CE" fill="#cee3f5" stroke="#6e6e6e" stroke-width="0.4">
      <desc>
        <labelrank>4</labelrank>
        <code_hasc>KE.CE</code_hasc>
        <name>Central</name>
        <admin>Kenya</admin>
        <type_en>Province</type_en>
        <region/>
        <woe_id>2345937</woe_id>
        <longitude>36</longitude>
        <woe_name>Central</woe_name>
        <fips>KE01</fips>
        <woe_label>Central, KE, Kenya</woe_label>
        <latitude>0</latitude>
        <iso_a2>KE</iso_a2>
        <postal>CE</postal>
        <type>Mkoa</type>
        <id>KE.CE</id>
      </desc>
    </path>
    <path d="M 295.6679 451.9194 290.9758 456.6115 283.9377 455.865 283.0312 458.3177 279.5655 460.7171 280.5252 463.3297 278.7124 464.8759 276.7396 464.6093 274.3402 462.8498 268.5285 461.7301 262.7167 456.3449 271.7276 447.4406 278.9257 447.5472 282.0182 444.9346 283.991 445.7344 283.2978 448.2404 284.8974 449.5734 288.7897 450.4798 292.9486 449.5201 295.6679 451.9194 Z" id="KE.NA" fill="#cee3f5" stroke="#6e6e6e" stroke-width="0.4">
      <desc>
        <labelrank>9</labelrank>
        <code_hasc>KE.NA</code_hasc>
        <name>Nairobi</name>
        <admin>Kenya</admin>
        <type_en>National Capital Area</type_en>
        <region/>
        <woe_id>2345940</woe_id>
        <longitude>36</longitude>
        <woe_name>Nairobi</woe_name>
        <fips>KE05</fips>
        <woe_label>Nairobi Area, KE, Kenya</woe_label>
        <latitude>-1</latitude>
        <iso_a2>KE</iso_a2>
        <postal>NA</postal>
        <type>National Capital Area</type>
        <id>KE.NA</id>
      </desc>
    </path>
    <path d="M 123.7672 363.5697 128.7792 365.8624 136.8837 366.0757 140.6693 364.9027 145.0948 367.3554 148.6139 364.4761 153.2526 366.0224 156.1318 365.3826 157.998 369.4881 160.504 371.0344 164.9828 377.2727 164.3963 380.4719 162.2102 380.8984 156.2918 375.4065 153.5725 375.6198 150.0535 372.2074 144.8282 378.2858 144.0817 385.0573 141.2025 389.0029 143.5485 394.708 144.6682 412.6233 146.5877 419.2348 142.4822 422.7006 140.9359 426.8061 120.1948 432.9911 115.1295 432.5113 110.3841 435.817 114.543 446.9607 118.1687 451.8128 120.9946 464.7693 72.6342 438.0565 69.9149 437.8432 68.7952 435.3372 61.8637 435.3372 61.1173 410.8104 65.3295 371.3543 70.1815 360.2106 70.2881 356.9581 74.5537 354.0789 75.7267 347.6273 79.1391 344.9613 82.7115 344.6414 86.0706 341.0691 91.989 341.9222 94.4417 340.9624 96.9477 342.6153 97.9074 347.2007 102.013 351.4663 102.1729 353.759 106.4918 356.5849 105.4254 363.0365 106.5984 364.4761 111.8237 363.0898 116.0892 364.4761 123.7672 363.5697 Z" id="KE.NY" fill="#cee3f5" stroke="#6e6e6e" stroke-width="0.4">
      <desc>
        <labelrank>4</labelrank>
        <code_hasc>KE.NY</code_hasc>
        <name>Nyanza</name>
        <admin>Kenya</admin>
        <type_en>Province</type_en>
        <region/>
        <woe_id>2345942</woe_id>
        <longitude>34</longitude>
        <woe_name>Nyanza</woe_name>
        <fips>KE07</fips>
        <woe_label>Nyanza, KE, Kenya</woe_label>
        <latitude>0</latitude>
        <iso_a2>KE</iso_a2>
        <postal>NY</postal>
        <type>Mkoa</type>
        <id>KE.NY</id>
      </desc>
    </path>
    <path d="M 452.1593 112.2236 454.3987 133.178 454.1322 144.4816 450.6664 147.9474 439.4694 153.4392 428.6456 178.1793 427.206 180.3654 422.5139 182.0183 422.0874 183.5112 424.7 191.5091 426.6728 209.8508 432.6979 221.2078 439.7893 229.099 444.748 239.0697 455.4118 245.6812 459.1441 250.3733 463.4097 253.0926 450.8797 258.6911 463.0364 292.3887 453.0125 296.4943 442.242 311.9568 418.1951 320.9678 414.5694 325.8731 406.9448 328.0059 412.49 347.574 411.7435 352.7993 412.3833 367.7286 410.6238 367.0888 409.7707 366.6089 409.3974 366.0224 404.2255 366.1823 399.96 364.7427 397.9872 364.796 394.3615 367.4087 392.1754 368.4217 390.5225 367.7286 388.4964 367.8885 421.4476 425.2066 430.0319 443.7616 430.5118 445.3612 430.7784 484.1775 427.8458 488.8162 429.2855 504.4387 416.1157 530.6717 409.0775 535.9503 407.4246 536.3235 405.3985 536.1102 404.2788 535.8436 403.9589 535.9503 404.0655 536.2702 433.8176 579.8319 433.8176 579.9918 433.7109 580.0985 432.9112 580.0451 431.6315 579.4586 430.9384 579.352 430.5118 579.5653 429.2855 580.8449 428.9655 581.0049 428.5923 581.0049 428.2191 580.9516 427.1527 580.525 423.1005 580.7383 416.2756 583.4042 415.7424 581.6447 405.985 580.6317 397.5073 575.9396 390.8424 577.5925 388.2831 574.9798 384.8174 573.5935 384.4974 573.3803 383.9643 572.9004 383.751 572.6338 383.591 572.3672 381.7782 568.2616 378.6323 563.5162 373.2471 560.637 371.0077 558.9308 369.2482 556.7447 368.2884 556.2648 364.9293 558.6109 356.185 562.7698 354.4788 563.303 352.6126 562.7698 351.0664 557.2779 329.3122 532.2179 329.7921 530.0852 333.631 528.0057 335.0707 522.5672 338.2165 520.701 335.0173 518.6216 329.1522 517.8751 317.3687 510.0905 307.7713 506.7847 299.8268 500.973 297.0542 495.1079 297.6407 490.949 284.2043 473.7802 284.4709 467.5952 281.0051 466.9021 276.6863 468.0751 276.7396 464.6093 278.7124 464.8759 280.5252 463.3297 279.5655 460.7171 283.0312 458.3177 283.9377 455.865 290.9758 456.6115 295.6679 451.9194 299.6668 441.5222 306.385 439.6027 309.5308 441.3622 312.5167 437.6832 313.0499 432.6179 308.891 433.1511 306.8115 428.2991 303.719 425.5265 304.6255 418.0085 306.7049 417.5286 311.2904 420.2479 321.7409 415.8757 320.6212 405.4252 317.4754 401.053 317.1555 393.7483 309.5308 375.2466 292.3621 361.6502 303.9856 356.4783 312.0368 348.2671 314.7561 338.3498 311.6103 332.0048 310.8105 325.2866 276.2064 320.4346 280.2587 313.9296 280.8452 308.6511 293.1085 306.0384 299.5602 308.8643 304.1456 307.7446 307.3981 310.3573 313.6897 320.4346 320.7278 319.8481 327.446 321.5543 336.1904 314.7828 345.4146 313.2898 349.4135 309.8241 352.2394 310.3039 355.0653 308.7044 358.5311 305.4519 362.4767 306.1984 361.037 281.3517 354.6921 272.8206 352.346 259.7041 347.0675 255.172 338.1098 258.6911 326.1131 260.7705 320.7811 248.7204 314.2762 242.0555 313.0499 235.6572 308.2512 232.6181 305.1587 226.0065 298.9203 219.2883 283.1379 217.6887 279.5122 204.8388 273.7004 198.4405 267.4621 181.0585 264.3162 180.5786 264.7428 184.311 259.9441 189.8562 254.3456 190.8692 252.4261 188.8431 251.413 179.5656 246.0811 173.9138 245.5479 166.7157 241.549 158.3446 232.9113 151.733 231.9516 148.6938 229.4456 149.9202 223.2072 148.1606 224.8068 131.9516 219.3149 130.672 217.3955 128.006 217.6621 43.442 275.3 44.455 287.67 48.9338 290.016 51.7064 291.9888 51.7598 293.3751 55.0655 356.9315 95.3214 361.197 100.9199 365.9424 103.5326 390.7891 104.3324 394.4681 102.7328 395.3212 100.8133 398.0938 103.7459 406.2516 104.8656 406.3049 102.8928 410.7304 107.3182 423.2071 110.6773 435.6838 109.7176 446.6142 113.8765 452.1593 112.2236 Z" id="KE.565" fill="#cee3f5" stroke="#6e6e6e" stroke-width="0.4">
      <desc>
        <labelrank>4</labelrank>
        <code_hasc>KE.NA</code_hasc>
        <name>Eastern</name>
        <admin>Kenya</admin>
        <type_en>National Capital Area</type_en>
        <region/>
        <woe_id>2345939</woe_id>
        <longitude>37</longitude>
        <woe_name>Eastern</woe_name>
        <fips>KE03</fips>
        <woe_label>Eastern, KE, Kenya</woe_label>
        <latitude>2</latitude>
        <iso_a2>KE</iso_a2>
        <postal>NA</postal>
        <type>National Capital Area</type>
        <id>KE.565</id>
      </desc>
    </path>
    <path d="M 217.6621 43.442 217.3955 128.006 219.3149 130.672 224.8068 131.9516 223.2072 148.1606 229.4456 149.9202 231.9516 148.6938 232.9113 151.733 241.549 158.3446 245.5479 166.7157 246.0811 173.9138 251.413 179.5656 252.4261 188.8431 254.3456 190.8692 259.9441 189.8562 264.7428 184.311 264.3162 180.5786 267.4621 181.0585 273.7004 198.4405 279.5122 204.8388 283.1379 217.6887 298.9203 219.2883 305.1587 226.0065 308.2512 232.6181 313.0499 235.6572 314.2762 242.0555 320.7811 248.7204 326.1131 260.7705 338.1098 258.6911 347.0675 255.172 352.346 259.7041 354.6921 272.8206 361.037 281.3517 362.4767 306.1984 358.5311 305.4519 355.0653 308.7044 352.2394 310.3039 349.4135 309.8241 345.4146 313.2898 336.1904 314.7828 327.446 321.5543 320.7278 319.8481 313.6897 320.4346 307.3981 310.3573 304.1456 307.7446 299.5602 308.8643 293.1085 306.0384 280.8452 308.6511 280.2587 313.9296 276.2064 320.4346 310.8105 325.2866 311.6103 332.0048 314.7561 338.3498 312.0368 348.2671 303.9856 356.4783 292.3621 361.6502 286.3903 370.1813 288.3632 374.5534 288.0432 378.9789 283.4578 384.3108 279.1923 384.5241 274.6601 379.7254 275.6199 373.2205 271.5676 371.9408 262.1302 373.807 255.3586 372.314 252.9593 370.0213 252.8526 367.6753 260.6906 361.9701 256.3717 362.2367 251.5197 359.0909 247.8407 354.5055 242.8287 358.3978 238.5098 358.771 233.6578 362.1301 230.1387 368.6883 228.2726 381.5382 232.2715 390.9757 241.0691 391.8821 242.8287 405.1053 246.8276 404.892 250.5599 407.6113 251.8396 421.9008 256.1584 435.0173 255.9985 442.2687 252.7993 443.495 250.1867 452.5059 259.5175 454.4254 262.7167 456.3449 268.5285 461.7301 274.3402 462.8498 276.7396 464.6093 276.6863 468.0751 281.0051 466.9021 284.4709 467.5952 284.2043 473.7802 297.6407 490.949 297.0542 495.1079 299.8268 500.973 307.7713 506.7847 317.3687 510.0905 329.1522 517.8751 335.0173 518.6216 338.2165 520.701 335.0707 522.5672 333.631 528.0057 329.7921 530.0852 329.3122 532.2179 351.0664 557.2779 352.6126 562.7698 347.7606 579.2987 346.6409 589.5893 346.3743 590.4424 345.8944 591.0822 343.4418 591.0822 336.7769 591.9886 335.4439 592.3619 332.9379 581.9113 233.7644 527.046 120.9946 464.7693 118.1687 451.8128 114.543 446.9607 110.3841 435.817 115.1295 432.5113 120.1948 432.9911 140.9359 426.8061 142.4822 422.7006 146.5877 419.2348 144.6682 412.6233 143.5485 394.708 141.2025 389.0029 144.0817 385.0573 144.8282 378.2858 150.0535 372.2074 153.5725 375.6198 156.2918 375.4065 162.2102 380.8984 164.3963 380.4719 164.9828 377.2727 160.504 371.0344 157.998 369.4881 156.1318 365.3826 153.2526 366.0224 148.6139 364.4761 145.0948 367.3554 140.6693 364.9027 136.8837 366.0757 128.7792 365.8624 123.7672 363.5697 134.8042 350.1866 136.5104 344.8547 135.0175 331.8982 133.6312 329.2855 129.5256 327.1528 130.0588 321.9275 135.2308 321.8742 138.9631 317.7686 147.6008 317.502 153.1993 312.0635 153.6258 309.984 150.48 301.7729 145.4147 299.4802 138.2166 299.6401 135.1775 302.5194 124.8335 302.8393 123.7672 298.0406 121.5278 297.2408 114.1164 289.5095 109.9575 283.5911 110.9173 280.0187 114.4363 279.2189 118.4353 275.9665 126.6997 274.3136 127.6061 271.381 125.3667 263.0099 129.6856 259.5442 131.2318 253.7324 132.8847 251.2264 136.6171 249.5735 139.8695 242.3754 139.9762 228.3525 141.949 224.9934 138.6965 220.6213 139.1231 211.6637 131.3385 191.1358 136.0306 184.6309 133.4179 181.3784 131.8717 175.46 130.1121 176.6863 128.4592 175.9399 125.4201 169.5949 122.5941 158.1846 118.8618 155.5187 116.6224 157.2782 114.9695 156.3185 110.864 150.7733 107.9847 138.3499 101.5331 135.4174 100.7333 133.7645 100.0935 124.9135 97.2143 118.8352 98.2807 115.5827 97.0543 112.4902 100.8933 108.9178 101.3198 98.7339 93.9085 93.8818 89.6963 95.6414 86.977 90.3094 80.5787 90.8426 82.4982 89.403 80.3654 87.4835 83.8312 85.724 84.4177 83.7512 75.7267 83.4846 77.5395 78.7392 74.0738 74.1005 74.7136 68.2887 72.6342 65.9426 71.7811 61.0906 68.0487 58.7446 97.4809 30.1122 118.1687 19.7683 160.1308 4.4124 161.4104 6.8118 172.1276 1 173.7271 2.9195 170.9545 8.4647 178.1526 8.518 183.5379 10.1176 180.0188 19.0218 186.3104 30.5921 192.8154 32.8315 193.6152 27.6595 195.6413 26.2199 198.4672 26.4332 198.6271 30.6454 208.7045 30.752 210.0907 38.7499 217.6621 43.442 Z" id="KE.566" fill="#cee3f5" stroke="#6e6e6e" stroke-width="0.4">
      <desc>
        <labelrank>4</labelrank>
        <code_hasc>KE.</code_hasc>
        <name>Rift Valley</name>
        <admin>Kenya</admin>
        <type_en>Province</type_en>
        <region/>
        <woe_id>2345943</woe_id>
        <longitude>36</longitude>
        <woe_name>Rift Valley</woe_name>
        <fips>KE08</fips>
        <woe_label>Rift Valley, KE, Kenya</woe_label>
        <latitude>1</latitude>
        <iso_a2>KE</iso_a2>
        <postal>RV</postal>
        <type>Mkoa</type>
        <id>KE.566</id>
      </desc>
    </path>
    <path d="M 123.7672 363.5697 116.0892 364.4761 111.8237 363.0898 106.5984 364.4761 105.4254 363.0365 106.4918 356.5849 102.1729 353.759 102.013 351.4663 97.9074 347.2007 96.9477 342.6153 94.4417 340.9624 91.989 341.9222 86.0706 341.0691 82.7115 344.6414 79.1391 344.9613 75.7267 347.6273 74.5537 354.0789 70.2881 356.9581 70.1815 360.2106 65.3295 371.3543 61.0106 355.092 74.9269 338.0299 74.2337 332.5913 79.619 319.5281 87.0836 315.8491 90.4427 308.3311 96.9477 304.2256 101.9597 294.0416 104.1457 285.0307 105.6387 283.5911 108.038 284.5508 109.9575 283.5911 114.1164 289.5095 121.5278 297.2408 123.7672 298.0406 124.8335 302.8393 135.1775 302.5194 138.2166 299.6401 145.4147 299.4802 150.48 301.7729 153.6258 309.984 153.1993 312.0635 147.6008 317.502 138.9631 317.7686 135.2308 321.8742 130.0588 321.9275 129.5256 327.1528 133.6312 329.2855 135.0175 331.8982 136.5104 344.8547 134.8042 350.1866 123.7672 363.5697 Z" id="KE.WE" fill="#cee3f5" stroke="#6e6e6e" stroke-width="0.4">
      <desc>
        <labelrank>4</labelrank>
        <code_hasc>KE.WE</code_hasc>
        <name>Western</name>
        <admin>Kenya</admin>
        <type_en>Province</type_en>
        <region/>
        <woe_id>2345944</woe_id>
        <longitude>34</longitude>
        <woe_name>Western</woe_name>
        <fips>KE09</fips>
        <woe_label/>
        <latitude>0</latitude>
        <iso_a2>KE</iso_a2>
        <postal>WE</postal>
        <type>Mkoa</type>
        <id>KE.WE</id>
      </desc>
    </path>
    <path d="M 412.3833 367.7286 411.7435 352.7993 412.49 347.574 406.9448 328.0059 414.5694 325.8731 418.1951 320.9678 442.242 311.9568 453.0125 296.4943 463.0364 292.3887 450.8797 258.6911 463.4097 253.0926 459.1441 250.3733 455.4118 245.6812 444.748 239.0697 439.7893 229.099 432.6979 221.2078 426.6728 209.8508 424.7 191.5091 422.0874 183.5112 422.5139 182.0183 427.206 180.3654 428.6456 178.1793 439.4694 153.4392 450.6664 147.9474 454.1322 144.4816 454.3987 133.178 452.1593 112.2236 453.599 112.0103 453.2257 114.0898 464.4761 115.0495 466.0223 117.8221 469.488 118.4619 472.2606 111.797 485.9103 98.254 491.9887 85.2441 514.6493 74.2604 514.9692 73.0874 529.312 68.8219 530.5384 66.9024 553.4656 58.1047 557.9977 55.1189 567.6485 65.0895 575.4864 69.3017 580.1251 75.7533 586.8433 79.6456 606.0915 79.1124 617.3952 76.5531 621.5007 77.6195 625.6063 75.6467 635.4703 79.0058 638.9894 76.9797 599.9598 132.9114 572.7671 160.7973 573.1403 291.3757 573.9401 425.6331 613.183 476.1263 614.356 479.0588 614.1427 483.5376 575.1131 486.0436 519.1814 510.837 515.1825 512.3299 514.9159 510.9969 514.9159 510.5704 515.2358 509.8239 512.4099 501.6128 512.6765 501.3995 513.1564 500.8663 513.423 500.653 512.9964 499.64 512.4099 496.2276 510.9703 494.2014 511.2902 479.8586 505.4784 469.4081 503.5056 453.359 502.6525 450.5864 501.0529 448.7203 500.733 447.174 499.9332 445.7344 498.6536 444.7213 497.054 444.5614 498.5469 442.1087 493.1084 431.2316 492.1487 423.3404 489.4827 412.5699 487.2433 409.3175 486.0703 406.2783 484.0442 405.1586 482.1247 404.9986 481.2716 404.6254 478.7656 401.9594 477.0594 399.2935 472.7938 386.177 470.3412 383.511 467.8352 383.0312 466.6088 380.4185 465.5958 379.7254 464.9559 378.5524 463.9962 377.7526 462.8232 377.0061 461.9167 376.5796 459.3041 375.993 458.8775 375.8864 458.7176 375.5132 458.291 375.0866 457.7045 374.82 455.5718 374.4468 452.9591 372.6873 448.6403 373.0605 447.3073 372.4207 441.1223 372.1541 437.2833 367.5153 435.4705 365.9157 434.884 365.7558 432.6979 365.7558 430.4052 366.1823 429.2321 366.5556 428.4857 366.9821 427.4726 368.6883 426.8861 369.4348 425.9797 369.7014 412.3833 367.7286 Z" id="KE.NE" fill="#cee3f5" stroke="#6e6e6e" stroke-width="0.4">
      <desc>
        <labelrank>4</labelrank>
        <code_hasc>KE.NE</code_hasc>
        <name>North-Eastern</name>
        <admin>Kenya</admin>
        <type_en>Province</type_en>
        <region/>
        <woe_id>2345941</woe_id>
        <longitude>40</longitude>
        <woe_name>North-Eastern</woe_name>
        <fips>KE06</fips>
        <woe_label>North-Eastern, KE, Kenya</woe_label>
        <latitude>1</latitude>
        <iso_a2>KE</iso_a2>
        <postal>NE</postal>
        <type>Mkoa</type>
        <id>KE.NE</id>
      </desc>
    </path>
  </g>
</svg>