<?xml version="1.0" encoding="UTF-8"?>
<svg xmlns="http://www.w3.org/2000/svg" width="700" height="700">
  <g id="newfoundland_and_labrador">
    <path d="M 682.4922 624.2477 683.4266 626.4279 680.9349 626.4279 680.3119 627.3623 683.1151 628.6082 684.6725 630.1656 685.9183 630.7885 687.4757 629.5426 689.3445 630.7885 690.9018 631.7229 693.3936 632.9688 693.3936 633.9032 690.9018 635.149 689.3445 635.4605 690.2789 637.0178 688.4101 638.5752 689.033 639.8211 688.4101 641.3784 686.5413 643.5587 684.9839 644.1816 688.4101 645.4275 687.1642 646.3619 685.9183 648.2307 686.5413 649.1651 685.9183 649.788 686.5413 651.0339 684.361 653.8371 684.0495 655.3945 684.361 656.6403 683.7381 657.8862 682.4922 659.1321 680.0004 659.755 679.3775 661.3124 678.1316 663.1812 678.1316 663.8041 675.9514 664.7385 674.0826 665.3614 671.2793 664.7385 668.7876 661.0009 666.2959 662.2468 665.6729 661.0009 664.427 660.6894 663.1812 661.3124 660.6894 663.4926 659.755 663.8041 657.2633 665.6729 655.083 665.9844 653.2142 664.7385 651.6568 661.6238 651.9683 661.0009 653.5257 659.1321 651.9683 657.5747 651.3454 656.3289 653.8371 652.9027 657.5747 650.7224 655.3945 650.0995 652.9027 650.7224 653.2142 648.5422 651.9683 647.9192 655.3945 644.8046 654.4601 644.1816 657.2633 640.7555 656.0174 640.1325 654.1486 639.8211 653.2142 642.0013 652.2798 643.2472 651.3454 642.9357 649.1651 644.1816 648.2307 645.739 647.2963 646.6734 645.739 646.3619 644.4931 648.2307 644.4931 648.8536 642.9357 650.411 641.6899 650.7224 640.1325 652.9027 634.2146 656.6403 632.6573 657.2633 629.5426 656.6403 627.0509 655.3945 626.7394 653.2142 627.6738 651.6568 627.0509 651.0339 629.2311 647.2963 631.4114 644.8046 632.6573 642.0013 632.9688 640.444 636.0834 636.3949 635.4605 635.149 639.8211 633.5917 639.5096 631.1 640.1325 629.8541 642.9357 629.2311 641.6899 628.6082 638.5752 627.3623 640.444 623.9362 639.8211 622.3788 640.444 621.133 638.5752 618.9527 637.3293 616.7724 637.6408 615.5266 637.0178 613.3463 635.149 613.0348 635.4605 611.4775 634.8376 610.2316 633.5917 611.7889 636.7064 606.8054 638.2637 606.494 647.6078 608.3628 647.9192 608.9857 646.0504 611.7889 644.8046 612.4119 643.8701 612.1004 642.3128 610.2316 641.6899 612.4119 642.9357 613.9692 643.5587 616.1495 646.6734 619.5756 647.9192 618.9527 648.5422 616.7724 650.411 616.461 650.411 617.7068 648.5422 620.51 648.8536 621.7559 652.9027 622.3788 653.5257 623.3133 656.3289 623.9362 656.6403 621.133 655.3945 620.1986 656.3289 619.2642 658.5091 618.6412 657.8862 617.7068 659.4436 616.1495 658.5091 615.5266 658.8206 613.6577 660.378 612.7233 659.755 612.1004 661.6238 608.9857 663.8041 607.7398 664.427 606.1825 665.6729 605.2481 667.5417 602.1334 668.4761 601.199 671.5908 600.8876 673.7711 599.3302 674.7055 600.2646 676.5743 600.5761 680.9349 598.7073 682.4922 596.2155 683.1151 594.6582 684.361 594.0353 686.5413 595.2811 688.0986 598.0843 685.2954 598.0843 683.4266 599.0187 683.1151 601.5105 681.8693 603.0678 679.066 604.9366 678.4431 606.1825 679.066 607.7398 677.5087 609.2972 677.5087 609.9201 674.7055 611.166 674.7055 612.4119 671.5908 614.9036 673.4596 615.2151 672.5252 618.3298 671.5908 618.9527 669.0991 619.5756 669.0991 620.51 673.1481 623.6247 671.2793 627.0509 673.1481 628.6082 673.7711 627.3623 675.3284 627.6738 675.6399 628.6082 674.7055 629.8541 675.9514 630.1656 676.8858 627.6738 677.8202 626.4279 681.5578 624.5591 682.4922 624.2477 Z" id="CA.NF.10001" fill="#cee3f5" stroke="#6e6e6e" stroke-width="0.4">
      <desc>
        <feduid>10001</feduid>
        <name>Avalon</name>
        <prname>Newfoundland and Labrador / Terre-Neuve-et-Labrador</prname>
        <fedfname>Avalon</fedfname>
        <pruid>10</pruid>
        <fedename>Avalon</fedename>
        <id>CA.NF.10001</id>
        <fedname>Avalon</fedname>
      </desc>
    </path>
    <path d="M 685.2954 618.0183 685.2954 619.2642 682.1807 620.8215 680.9349 619.8871 683.4266 618.3298 685.2954 618.0183 Z M 696.5083 621.4444 689.3445 623.6247 688.4101 624.8706 686.2298 625.1821 683.4266 626.4279 682.4922 624.2477 685.2954 623.0018 687.4757 619.5756 688.0986 619.5756 688.4101 616.461 689.9674 613.3463 690.5904 611.166 692.4592 612.4119 692.4592 613.0348 694.9509 613.3463 694.6394 614.5921 695.5739 616.1495 694.328 617.3954 695.5739 618.3298 697.1312 618.3298 697.4427 620.51 696.5083 621.4444 Z" id="CA.NF.10006" fill="#cee3f5" stroke="#6e6e6e" stroke-width="0.4">
      <desc>
        <feduid>10006</feduid>
        <name>St. John's East / St. John's-Est</name>
        <prname>Newfoundland and Labrador / Terre-Neuve-et-Labrador</prname>
        <fedfname>St. John's-Est</fedfname>
        <pruid>10</pruid>
        <fedename>St. John's East</fedename>
        <id>CA.NF.10006</id>
        <fedname>St. John's East / St. John's-Est</fedname>
      </desc>
    </path>
    <path d="M 564.1343 531.4302 563.8228 532.0531 560.0852 533.299 559.4623 531.7416 564.1343 531.4302 Z M 558.2164 530.4958 559.1508 532.3646 557.905 533.299 556.0361 533.9219 555.1017 532.3646 555.7247 530.4958 558.2164 530.4958 Z M 553.5444 529.2499 554.4788 531.1187 552.2985 531.1187 553.5444 529.2499 Z M 558.8394 527.3811 560.0852 528.3155 560.3967 529.8728 556.0361 530.1843 556.9705 529.2499 556.3476 528.3155 558.8394 527.3811 Z M 555.7247 499.9719 557.282 501.2178 555.1017 501.2178 553.8559 499.9719 555.7247 499.9719 Z M 567.249 473.4971 568.1834 474.4315 566.9375 475.0544 565.6917 477.5462 563.1999 478.4806 559.1508 477.2347 560.3967 476.3003 560.0852 474.743 563.1999 474.743 565.0687 474.12 567.249 473.4971 Z M 488.759 472.2512 488.4476 472.8742 486.8902 473.8086 485.3329 472.8742 486.2673 471.9398 488.759 472.2512 Z M 564.1343 465.0875 565.0687 466.3333 562.577 467.8907 563.5114 469.1365 562.8884 469.7595 560.7082 468.5136 560.3967 466.0219 564.1343 465.0875 Z M 562.577 539.8398 556.9705 548.5609 535.7907 551.6756 520.8402 554.1673 498.1031 557.905 487.8246 577.216 472.2512 573.1669 445.7764 566.6261 423.3507 566.6261 423.9737 565.0687 425.531 564.1343 427.3998 561.954 428.0228 559.7738 428.9572 558.8394 428.6457 557.5935 428.9572 556.0361 430.5145 555.4132 431.1374 553.8559 433.3177 551.0527 433.3177 550.4297 435.1865 549.4953 436.1209 550.7412 434.8751 553.5444 436.4324 553.8559 439.8585 552.9215 441.1044 553.5444 444.5306 553.5444 445.7764 555.7247 448.2682 557.282 452.0058 558.2164 454.4975 558.2164 456.9893 557.905 456.0549 556.9705 453.5631 557.5935 449.2026 556.6591 448.5797 555.4132 446.3994 554.4788 446.7108 553.2329 445.1535 552.61 445.1535 551.0527 446.7108 548.8724 447.0223 547.938 450.137 548.2494 452.6287 547.938 453.8746 545.4462 451.0714 546.6921 449.2026 546.6921 444.5306 545.4462 442.6618 545.7577 440.17 543.266 441.7274 539.5283 441.1044 538.2825 441.7274 537.0366 444.2191 535.1678 451.0714 530.8072 452.9402 530.4958 455.432 531.7416 455.7434 532.9875 457.6122 532.676 457.3008 531.7416 454.1861 528.627 453.5631 525.8237 454.4975 523.0205 456.3664 520.8402 457.9237 519.9058 457.9237 518.037 460.7269 517.1026 460.104 515.2338 462.9072 513.0535 462.9072 511.1847 465.3989 509.0045 465.7104 507.1357 468.2021 503.398 470.071 502.4636 470.071 500.5948 471.3168 498.726 473.4971 494.3655 473.4971 492.8081 475.9888 489.382 475.9888 488.4476 479.415 486.2673 479.7265 484.087 480.6609 482.8411 483.1526 481.9067 485.9558 483.1526 489.6934 482.8411 490.6278 481.2838 488.4476 481.5953 485.6444 482.5297 483.7755 480.9723 483.4641 479.7265 481.5953 478.4806 479.7265 478.4806 479.7265 477.5462 481.9067 476.9232 486.8902 476.9232 487.8246 475.6774 490.0049 475.9888 491.8737 474.743 494.3655 473.8086 495.6113 472.2512 499.349 469.7595 498.1031 469.1365 499.6604 467.8907 497.7916 466.9563 497.7916 466.3333 494.6769 463.5301 497.4801 463.2187 497.4801 464.1531 500.5948 464.776 502.1522 463.2187 500.2834 462.5957 502.4636 461.6613 504.9554 458.8581 507.1357 458.2352 507.4471 457.3008 506.5127 456.0549 508.693 454.4975 507.1357 453.8746 507.7586 452.6287 509.3159 452.0058 509.6274 450.7599 511.8077 448.8911 513.0535 448.8911 514.2994 447.6452 519.9058 446.0879 522.3976 445.1535 523.9549 445.465 528.004 443.2847 531.1187 442.6618 534.5448 440.7929 540.4627 439.5471 543.266 437.9897 545.7577 436.7439 547.938 435.498 550.1183 436.7439 548.5609 439.2356 550.4297 441.4159 552.61 442.0388 553.5444 441.4159 557.282 441.4159 557.282 440.17 555.4132 438.9241 559.4623 437.3668 560.7082 438.3012 562.577 438.3012 563.5114 437.3668 567.249 437.0553 570.0522 437.9897 569.7407 439.2356 568.1834 439.8585 569.4293 441.1044 565.6917 442.0388 568.1834 442.9732 567.249 444.842 566.9375 447.0223 566.0031 447.9567 564.1343 446.3994 563.1999 447.0223 564.1343 448.5797 561.6426 450.4485 558.5279 449.8255 555.4132 449.5141 555.1017 448.5797 552.61 448.5797 549.4953 448.8911 546.6921 448.5797 544.8233 449.2026 543.266 448.2682 540.4627 447.6452 539.2169 449.8255 542.643 450.7599 542.9545 452.0058 541.0857 452.6287 541.7086 453.8746 543.266 455.432 543.8889 456.9893 545.7577 455.1205 550.4297 454.1861 552.2985 454.809 554.4788 454.4975 556.6591 455.7434 554.4788 456.9893 556.3476 458.5466 556.3476 460.104 555.1017 461.3498 552.9215 462.5957 553.2329 463.2187 551.3641 465.3989 551.9871 466.3333 551.3641 468.2021 550.1183 467.2677 547.315 470.071 544.8233 471.6283 543.8889 473.4971 541.0857 475.6774 540.1513 476.9232 538.9054 475.6774 537.0366 475.3659 537.0366 473.8086 538.2825 469.448 536.7251 468.8251 535.7907 469.7595 536.4137 470.6939 536.7251 473.4971 535.1678 476.3003 535.7907 478.1691 538.9054 479.415 537.6595 480.9723 536.7251 481.2838 533.299 483.7755 532.676 485.6444 531.1187 486.2673 531.1187 487.5132 529.5614 488.4476 528.627 489.6934 525.5123 491.5622 523.9549 494.3655 523.9549 494.9884 520.8402 498.726 520.2173 499.9719 517.7256 502.7751 514.6109 505.2668 513.6765 505.5783 511.1847 508.0701 509.3159 509.3159 508.3815 511.4962 510.2503 512.4306 509.6274 516.1682 508.693 517.4141 505.5783 520.2173 503.7095 520.2173 502.1522 521.4632 503.398 522.0861 505.8898 521.7747 506.8242 522.7091 507.7586 524.2664 505.8898 527.6925 506.5127 528.9384 508.3815 527.0696 510.8733 523.6435 513.6765 521.7747 515.5453 518.9714 517.1026 517.4141 520.2173 516.1682 521.7747 514.9224 523.0205 515.2338 525.2008 513.6765 525.5123 512.1191 527.6925 510.8733 528.627 509.0045 529.5614 508.3815 532.676 505.5783 533.299 504.6439 536.1022 503.0866 538.5939 504.6439 537.971 505.5783 539.5283 506.2012 537.0366 511.1847 539.5283 509.9389 542.643 508.693 543.8889 510.8733 545.7577 508.693 548.2494 509.0045 550.4297 510.8733 550.7412 511.8077 553.5444 513.0535 556.0361 513.6765 557.5935 511.8077 561.3311 512.1191 564.1343 510.8733 565.3802 510.2503 567.8719 512.1191 566.3146 514.2994 563.8228 514.2994 561.0196 516.1682 559.7738 516.4797 557.905 518.037 553.8559 518.9714 551.3641 519.9058 547.0036 522.0861 543.5774 523.0205 541.7086 524.5779 544.5118 524.2664 547.315 524.2664 550.4297 525.2008 548.8724 526.4467 548.8724 527.0696 546.3806 528.3155 549.4953 528.627 550.1183 528.004 551.6756 528.004 551.0527 529.8728 549.4953 530.1843 545.7577 532.0531 543.5774 532.3646 540.7742 533.299 539.5283 535.1678 539.8398 536.4137 543.5774 533.6104 548.8724 532.9875 550.7412 532.0531 552.61 532.676 552.9215 533.6104 555.1017 534.2334 554.4788 535.4793 557.282 535.7907 558.2164 537.6595 559.4623 537.6595 561.6426 535.1678 563.1999 533.9219 565.0687 534.2334 563.8228 535.4793 562.8884 537.3481 562.577 539.8398 Z" id="CA.NF.10003" fill="#cee3f5" stroke="#6e6e6e" stroke-width="0.4">
      <desc>
        <feduid>10003</feduid>
        <name>Humber - St. Barbe - Baie Verte</name>
        <prname>Newfoundland and Labrador / Terre-Neuve-et-Labrador</prname>
        <fedfname>Humber - St. Barbe - Baie Verte</fedfname>
        <pruid>10</pruid>
        <fedename>Humber - St. Barbe - Baie Verte</fedename>
        <id>CA.NF.10003</id>
        <fedname>Humber - St. Barbe - Baie Verte</fedname>
      </desc>
    </path>
    <path d="M 650.7224 564.7573 651.0339 566.0031 649.1651 566.6261 648.2307 565.3802 650.7224 564.7573 Z M 651.3454 561.954 651.9683 562.8884 648.8536 564.7573 646.9848 563.8228 651.3454 561.954 Z M 649.788 561.3311 647.9192 562.8884 646.0504 562.2655 649.788 561.3311 Z M 582.1995 540.4627 583.1339 540.7742 583.1339 542.643 582.1995 543.5774 580.6421 542.643 580.3307 541.3971 582.1995 540.4627 Z M 604.0022 533.6104 605.2481 534.2334 603.6908 535.1678 603.3793 537.6595 600.5761 537.6595 600.2646 536.1022 601.199 535.1678 603.0678 534.5448 604.0022 533.6104 Z M 585.3141 532.0531 586.8715 532.676 585.3141 533.6104 584.3797 532.676 585.3141 532.0531 Z M 608.0513 532.0531 608.6743 532.3646 607.1169 534.2334 606.494 532.676 608.0513 532.0531 Z M 658.5091 590.9206 652.2798 588.4288 638.2637 590.2976 627.9853 590.6091 610.8545 590.6091 589.6747 590.6091 578.1504 590.6091 555.4132 590.6091 532.3646 590.6091 509.3159 590.6091 481.5953 590.6091 487.8246 577.216 498.1031 557.905 520.8402 554.1673 535.7907 551.6756 556.9705 548.5609 562.577 539.8398 564.4458 537.971 565.0687 536.1022 567.8719 535.4793 568.4949 533.6104 570.9866 532.9875 571.921 533.9219 569.4293 536.7251 570.0522 537.0366 573.4784 534.8563 574.7242 535.1678 573.7898 536.4137 571.2981 538.2825 571.6095 539.8398 573.7898 537.6595 575.9701 537.6595 575.6586 539.2169 573.4784 540.4627 575.0357 541.0857 577.216 539.2169 577.8389 537.6595 576.2816 535.7907 576.9045 534.5448 575.0357 532.676 574.4128 531.7416 576.593 531.4302 578.7733 531.7416 580.9536 531.4302 581.888 532.0531 583.4453 533.9219 582.8224 535.4793 581.888 536.1022 580.3307 538.5939 579.0848 537.971 578.1504 540.7742 578.4618 544.5118 574.7242 546.3806 573.4784 547.938 573.4784 549.1838 575.6586 552.9215 577.216 551.9871 575.9701 550.7412 576.2816 548.5609 575.6586 547.6265 576.2816 546.6921 577.5274 546.6921 580.9536 544.5118 585.0027 543.266 586.2485 543.266 586.2485 541.3971 588.1174 541.3971 589.3632 543.5774 589.9862 543.5774 591.5435 542.0201 594.6582 542.9545 595.5926 540.7742 594.0353 540.1513 595.2811 537.6595 597.1499 537.971 595.9041 540.1513 596.8385 541.3971 596.8385 543.266 598.7073 542.643 599.0187 539.8398 601.5105 540.1513 603.3793 539.2169 606.1825 535.7907 610.2316 531.4302 613.6577 531.1187 614.5921 531.4302 612.1004 532.9875 611.166 534.8563 614.5921 534.5448 613.6577 535.7907 614.2807 536.7251 612.7233 538.2825 613.0348 540.1513 613.9692 541.0857 613.3463 542.643 616.461 541.3971 615.838 539.8398 616.1495 538.2825 618.3298 537.0366 621.133 536.1022 621.4444 537.3481 623.9362 537.971 625.805 537.3481 627.3623 538.5939 628.2967 535.4793 632.0344 534.5448 634.5261 534.8563 634.5261 536.4137 637.0178 535.1678 640.1325 536.1022 641.6899 537.3481 645.4275 537.971 650.411 539.8398 649.4766 540.7742 651.6568 541.7086 653.5257 541.7086 655.7059 543.266 658.5091 543.5774 659.4436 545.1348 659.1321 545.7577 657.2633 546.0692 656.3289 548.8724 653.5257 551.0527 654.1486 553.8559 652.9027 554.7903 646.6734 555.7247 645.739 556.6591 642.6243 557.5935 641.6899 558.2164 644.1816 559.1508 642.3128 560.0852 639.8211 560.3967 639.1981 561.3311 636.3949 562.577 635.772 564.4458 631.7229 564.1343 630.477 564.7573 628.6082 564.4458 626.1165 566.0031 625.4935 566.9375 627.3623 567.249 628.2967 566.3146 632.0344 565.6917 632.9688 565.0687 636.0834 565.0687 638.2637 563.5114 642.6243 563.8228 643.2472 565.0687 641.0669 566.0031 641.6899 566.9375 639.5096 568.4949 637.3293 567.8719 637.3293 570.0522 635.772 570.0522 633.9032 570.9866 635.772 571.2981 636.3949 570.6751 638.5752 570.3637 640.444 569.4293 643.2472 570.0522 645.116 569.1178 646.9848 569.4293 648.8536 571.921 651.9683 570.3637 652.9027 571.2981 651.3454 572.2325 648.2307 572.8554 644.1816 574.1013 641.3784 575.3472 639.8211 575.0357 638.5752 576.2816 640.444 576.2816 642.9357 575.9701 646.0504 577.8389 646.0504 578.7733 641.6899 579.7077 638.2637 580.6421 637.9523 581.5765 635.4605 582.1995 634.8376 582.8224 632.6573 583.4453 630.477 582.5109 628.2967 584.0683 626.7394 584.0683 628.9197 586.2485 629.5426 584.6912 631.7229 583.7568 633.5917 584.0683 636.0834 583.7568 637.3293 582.5109 642.6243 580.3307 643.8701 580.6421 642.6243 582.5109 639.8211 584.6912 641.6899 585.3141 641.6899 584.0683 643.2472 583.4453 645.116 581.5765 645.4275 580.3307 647.2963 579.3963 648.5422 578.4618 650.7224 577.5274 651.9683 578.7733 651.9683 579.7077 648.8536 581.888 651.0339 582.1995 653.8371 579.0848 654.7715 579.3963 655.083 581.5765 657.2633 580.6421 657.8862 578.7733 659.755 577.216 658.8206 575.9701 660.378 574.4128 665.05 574.1013 666.6073 575.0357 666.6073 577.5274 669.722 578.1504 671.9023 575.3472 673.4596 575.0357 673.7711 573.4784 675.3284 573.1669 676.8858 571.2981 680.0004 572.2325 681.8693 574.7242 680.6234 575.9701 681.5578 576.9045 680.0004 577.5274 678.1316 579.3963 678.4431 581.2651 676.8858 583.4453 673.7711 584.6912 672.5252 584.6912 671.9023 586.2485 667.2303 585.0027 664.7385 585.9371 663.8041 587.183 663.1812 588.4288 664.1156 589.3632 660.0665 590.2976 658.5091 590.9206 Z M 610.5431 526.4467 610.8545 528.004 609.6087 530.1843 606.494 531.4302 603.6908 531.4302 600.8876 532.0531 601.5105 533.299 597.7729 534.2334 594.6582 534.2334 595.9041 532.0531 594.0353 530.1843 594.3467 528.9384 598.0843 530.1843 598.7073 531.1187 600.5761 531.7416 601.199 531.1187 604.3137 529.2499 604.3137 528.004 606.8054 528.3155 607.7398 527.0696 610.5431 526.4467 Z M 617.7068 525.5123 618.3298 526.7581 617.0839 529.2499 616.1495 528.3155 617.3954 526.4467 617.7068 525.5123 Z M 602.4449 525.2008 603.3793 526.1352 602.7564 527.0696 603.6908 527.6925 602.7564 528.9384 600.5761 527.6925 600.2646 526.7581 602.4449 525.2008 Z M 628.9197 521.7747 631.1 522.0861 633.9032 525.5123 633.5917 526.4467 630.7885 528.004 625.805 528.9384 622.3788 530.4958 621.133 529.8728 621.4444 527.6925 620.8215 525.8237 622.3788 525.5123 622.6903 523.332 624.2477 522.7091 625.805 523.9549 628.2967 522.0861 628.9197 521.7747 Z" id="CA.NF.10002" fill="#cee3f5" stroke="#6e6e6e" stroke-width="0.4">
      <desc>
        <feduid>10002</feduid>
        <name>Bonavista - Gander - Grand Falls - Windsor</name>
        <prname>Newfoundland and Labrador / Terre-Neuve-et-Labrador</prname>
        <fedfname>Bonavista - Gander - Grand Falls - Windsor</fedfname>
        <pruid>10</pruid>
        <fedename>Bonavista - Gander - Grand Falls - Windsor</fedename>
        <id>CA.NF.10002</id>
        <fedname>Bonavista - Gander - Grand Falls - Windsor</fedname>
      </desc>
    </path>
    <path d="M 549.1838 634.2146 550.4297 636.3949 548.2494 635.772 545.1348 635.772 549.1838 634.2146 Z M 627.9853 628.9197 628.9197 629.2311 628.9197 631.1 626.4279 631.7229 625.4935 631.1 627.9853 628.9197 Z M 629.8541 617.0839 629.5426 619.8871 628.2967 622.0674 627.0509 625.805 625.4935 627.3623 624.5591 629.5426 623.6247 630.1656 620.8215 629.8541 619.5756 629.5426 621.4444 627.6738 623.3133 626.7394 625.1821 623.6247 626.1165 623.0018 627.3623 620.8215 627.9853 620.8215 628.6082 618.9527 629.8541 617.0839 Z M 632.6573 617.3954 632.6573 618.3298 631.7229 620.1986 631.4114 621.4444 632.3458 622.0674 632.6573 623.9362 631.1 623.6247 630.7885 620.51 631.4114 618.3298 632.6573 617.3954 Z M 547.0036 616.461 546.6921 618.3298 548.2494 619.2642 549.1838 620.1986 547.938 620.51 545.1348 619.8871 541.7086 619.8871 538.5939 618.3298 539.2169 617.7068 542.3315 617.0839 547.0036 616.461 Z M 626.1165 615.5266 623.9362 616.7724 624.5591 614.2807 626.1165 615.5266 Z M 549.8068 613.3463 548.5609 614.5921 544.8233 615.2151 543.5774 614.5921 545.1348 613.6577 549.8068 613.3463 Z M 627.6738 609.2972 629.2311 609.9201 628.9197 611.166 626.7394 611.4775 626.7394 610.5431 627.6738 609.2972 Z M 639.5096 592.7894 641.3784 594.3467 642.3128 594.6582 645.739 594.0353 647.2963 594.3467 648.2307 595.5926 649.788 595.5926 655.3945 593.7238 656.3289 594.0353 657.2633 595.9041 656.3289 596.2155 656.3289 598.0843 653.2142 598.7073 650.7224 598.3958 650.0995 597.7729 646.6734 598.0843 644.8046 597.7729 642.3128 598.0843 640.444 597.1499 639.1981 594.9697 638.2637 594.3467 638.2637 592.4779 639.5096 592.7894 Z M 423.3507 566.6261 445.7764 566.6261 472.2512 573.1669 487.8246 577.216 481.5953 590.6091 509.3159 590.6091 532.3646 590.6091 555.4132 590.6091 578.1504 590.6091 589.6747 590.6091 610.8545 590.6091 627.9853 590.6091 638.2637 590.2976 652.2798 588.4288 658.5091 590.9206 655.7059 592.1664 654.1486 593.1008 651.9683 594.3467 648.8536 594.6582 646.6734 593.4123 644.8046 593.1008 642.9357 593.7238 641.0669 592.4779 637.6408 591.5435 637.3293 593.4123 637.9523 595.2811 639.1981 597.1499 638.5752 598.3958 646.6734 598.7073 648.8536 598.3958 650.7224 599.6417 647.2963 600.8876 644.1816 601.5105 638.5752 600.8876 639.1981 601.822 642.6243 601.822 644.4931 602.4449 650.7224 600.8876 652.2798 599.9531 652.5913 602.4449 650.411 604.3137 650.0995 605.871 647.6078 608.3628 638.2637 606.494 636.7064 606.8054 633.5917 611.7889 632.0344 610.8545 632.6573 609.9201 630.1656 609.9201 627.0509 608.6743 626.1165 611.7889 623.9362 614.2807 623.3133 615.838 621.133 617.7068 620.8215 618.9527 618.9527 620.51 616.7724 623.9362 614.5921 625.4935 617.0839 627.3623 615.2151 628.9197 613.6577 627.9853 612.1004 630.1656 611.166 630.1656 608.6743 632.0344 607.4284 631.4114 608.3628 630.1656 611.166 627.9853 615.5266 621.7559 613.3463 623.0018 611.166 626.4279 610.2316 627.6738 606.8054 630.1656 601.822 631.7229 600.2646 631.4114 597.1499 629.5426 594.6582 632.0344 593.4123 632.6573 592.1664 634.5261 587.8059 637.3293 587.8059 638.5752 589.0518 639.8211 586.56 640.1325 585.3141 638.8867 584.0683 639.1981 585.6256 640.444 585.6256 642.6243 586.56 643.5587 584.6912 645.739 582.1995 645.739 581.2651 646.9848 580.3307 648.8536 579.3963 649.788 578.7733 651.3454 575.9701 652.5913 573.7898 652.5913 572.2325 653.8371 570.3637 653.5257 567.8719 653.8371 566.3146 651.9683 563.5114 651.6568 560.7082 653.8371 556.9705 653.8371 555.1017 654.7715 551.6756 654.4601 551.0527 653.8371 545.1348 652.2798 544.5118 650.411 545.1348 648.2307 547.938 646.6734 549.8068 644.8046 552.2985 644.4931 554.1673 643.2472 556.6591 643.5587 558.5279 644.1816 559.4623 643.2472 562.577 642.6243 565.6917 641.6899 566.6261 642.0013 568.4949 639.5096 569.7407 639.1981 570.9866 637.9523 571.921 637.9523 574.4128 636.7064 575.3472 634.8376 577.216 629.5426 579.7077 628.2967 581.888 626.4279 585.0027 625.805 591.855 624.5591 597.1499 622.3788 595.9041 620.8215 597.4614 619.5756 603.3793 617.3954 602.1334 617.0839 595.9041 618.9527 595.2811 619.5756 590.6091 620.8215 588.4288 620.8215 584.0683 621.7559 582.5109 620.8215 583.1339 618.6412 580.3307 619.2642 578.4618 618.3298 576.593 618.6412 574.7242 617.3954 573.1669 617.7068 570.0522 615.5266 570.0522 617.0839 567.8719 619.5756 570.6751 618.9527 571.2981 619.5756 570.6751 620.8215 571.2981 622.3788 570.3637 623.0018 571.2981 624.2477 570.9866 625.805 569.4293 626.7394 566.6261 627.3623 564.1343 627.0509 562.577 627.9853 560.3967 627.3623 561.6426 624.8706 562.577 624.2477 560.7082 623.3133 559.4623 623.9362 560.0852 624.8706 556.9705 624.8706 557.282 626.1165 556.3476 626.7394 554.4788 626.4279 552.61 627.3623 548.2494 626.1165 551.6756 624.8706 551.0527 624.5591 551.9871 623.0018 551.0527 622.3788 549.4953 623.6247 546.3806 623.9362 545.7577 624.8706 544.5118 625.1821 542.0201 625.1821 541.7086 625.805 538.5939 626.7394 536.7251 626.1165 535.7907 624.5591 544.8233 622.6903 547.315 622.0674 550.1183 619.8871 547.6265 618.6412 547.0036 617.0839 550.1183 615.2151 551.9871 613.3463 551.6756 609.9201 554.1673 608.3628 552.2985 607.7398 551.0527 609.2972 550.1183 612.1004 547.938 613.0348 545.1348 613.0348 541.7086 615.2151 541.7086 615.838 538.5939 616.461 537.6595 613.6577 536.4137 614.5921 536.7251 616.7724 535.4793 618.0183 533.6104 618.0183 532.3646 619.2642 530.1843 619.5756 527.6925 619.2642 526.1352 620.51 523.6435 620.51 519.9058 619.5756 514.2994 619.8871 511.8077 619.2642 511.1847 619.8871 513.988 620.51 513.365 621.7559 511.1847 621.133 509.9389 622.6903 508.0701 623.0018 506.8242 623.6247 504.6439 623.6247 503.398 622.6903 497.4801 621.133 494.054 621.7559 491.5622 621.7559 490.6278 619.2642 488.4476 620.8215 485.6444 620.51 482.8411 621.4444 481.9067 620.1986 482.2182 618.3298 480.6609 618.6412 475.6774 618.9527 474.12 619.2642 471.3168 618.9527 470.3824 619.5756 466.9563 619.8871 464.1531 617.7068 461.0384 619.2642 459.1696 618.3298 456.0549 618.0183 456.9893 616.461 455.1205 616.1495 454.809 617.3954 453.5631 617.7068 451.6943 617.3954 451.3829 616.7724 449.8255 616.1495 448.2682 617.0839 447.0223 616.1495 445.465 616.7724 443.9076 616.7724 440.7929 617.3954 436.4324 616.461 437.3668 614.9036 438.6127 613.6577 437.6783 613.0348 434.8751 614.9036 434.8751 616.461 433.6292 618.0183 432.0718 618.9527 430.826 618.0183 427.0884 618.3298 423.6622 619.5756 421.7934 619.5756 415.2526 620.8215 413.0723 620.1986 409.0232 621.133 407.1544 621.133 404.0397 622.0674 402.4824 621.4444 399.6792 622.0674 398.1218 622.0674 398.1218 620.51 396.253 621.4444 395.0071 619.8871 391.8925 618.6412 391.581 616.1495 392.2039 614.5921 390.9581 612.4119 390.9581 610.2316 389.4007 609.6087 389.4007 608.6743 387.2204 606.8054 388.1548 605.871 391.581 604.6252 391.8925 603.6908 394.3842 601.5105 402.1709 597.7729 405.5971 596.527 407.1544 596.2155 409.3347 594.0353 411.2035 593.1008 416.187 589.6747 418.0558 588.7403 420.5475 586.8715 420.5475 585.6256 423.3507 584.0683 430.203 582.5109 431.7604 581.5765 432.0718 579.7077 430.5145 578.4618 428.6457 579.3963 427.3998 578.7733 425.2195 577.216 422.4163 577.216 420.5475 576.9045 418.3672 576.9045 416.4984 577.8389 415.2526 577.8389 408.7117 578.7733 405.2856 578.1504 401.2365 578.7733 395.9415 580.6421 393.7613 580.9536 395.9415 577.216 398.1218 575.3472 400.6136 574.4128 401.548 573.4784 406.22 572.2325 409.9576 570.0522 410.5805 570.3637 407.7773 572.544 407.7773 573.7898 410.5805 575.0357 410.2691 576.2816 411.2035 576.593 413.6952 575.3472 415.2526 576.2816 419.3017 576.593 421.7934 572.8554 420.5475 570.6751 423.3507 566.6261 Z" id="CA.NF.10005" fill="#cee3f5" stroke="#6e6e6e" stroke-width="0.4">
      <desc>
        <feduid>10005</feduid>
        <name>Random - Burin - St. George's</name>
        <prname>Newfoundland and Labrador / Terre-Neuve-et-Labrador</prname>
        <fedfname>Random - Burin - St. George's</fedfname>
        <pruid>10</pruid>
        <fedename>Random - Burin - St. George's</fedename>
        <id>CA.NF.10005</id>
        <fedname>Random - Burin - St. George's</fedname>
      </desc>
    </path>
    <path d="M 576.9045 418.3672 574.7242 421.7934 573.1669 423.9737 570.0522 423.3507 571.6095 420.2361 573.1669 420.2361 575.6586 418.3672 576.9045 418.3672 Z M 563.1999 406.22 563.5114 406.8429 561.0196 407.4659 560.0852 406.22 563.1999 406.22 Z M 551.3641 392.8269 553.8559 393.4498 553.8559 394.0727 550.1183 394.0727 551.3641 392.8269 Z M 554.1673 391.8925 557.282 392.5154 557.5935 393.7613 555.4132 393.1383 554.1673 391.8925 Z M 547.938 390.9581 550.4297 391.581 548.8724 393.1383 543.8889 392.2039 546.6921 390.6466 547.938 390.9581 Z M 551.9871 383.1714 553.5444 383.4828 552.61 384.7287 549.1838 384.1058 549.4953 382.8599 551.9871 383.1714 Z M 554.4788 372.27 554.7903 372.8929 553.5444 375.3846 551.0527 372.5814 554.4788 372.27 Z M 554.4788 368.8438 555.7247 369.1553 554.7903 371.3356 550.4297 371.9585 549.8068 370.7126 551.0527 368.8438 553.5444 368.2209 554.4788 368.8438 Z M 550.4297 350.4672 552.2985 351.0901 555.1017 351.0901 552.2985 353.5819 548.8724 353.8934 545.7577 353.2704 544.5118 351.4016 546.0692 350.7787 550.4297 350.4672 Z M 496.8572 339.8773 494.9884 341.4346 494.9884 342.369 493.4311 343.3034 490.6278 342.0576 493.1196 340.5002 495.2999 340.5002 496.8572 339.8773 Z M 500.5948 335.5167 501.8407 335.8282 504.6439 335.8282 506.2012 336.4511 504.9554 337.697 502.1522 337.697 500.9063 338.6314 499.0375 337.0741 498.1031 335.8282 500.5948 335.5167 Z M 433.3177 321.8121 435.498 322.4351 433.0062 323.3695 432.6948 323.9924 428.0228 324.6154 426.7769 323.6809 429.5801 322.1236 432.3833 321.5007 433.3177 321.8121 Z M 485.6444 300.3208 486.2673 300.9438 486.5788 303.1241 485.0214 304.0585 481.9067 304.0585 481.5953 303.1241 483.1526 300.6323 485.6444 300.3208 Z M 420.5475 280.6983 421.7934 281.3213 422.4163 284.7474 420.5475 285.3704 417.7443 284.436 419.3017 283.1901 419.9246 281.0098 420.5475 280.6983 Z M 359.8112 266.3708 358.5654 267.9282 356.0736 267.3052 359.8112 266.3708 Z M 355.7622 265.1249 354.8278 266.6823 352.6475 267.6167 351.0901 266.6823 352.0245 264.502 355.1392 263.5676 355.7622 265.1249 Z M 346.4181 264.502 346.7296 265.4364 344.8608 268.2396 343.6149 268.5511 344.8608 264.502 346.4181 264.502 Z M 361.0571 262.6332 361.0571 264.502 356.6966 266.0593 358.5654 264.1905 361.0571 262.6332 Z M 348.9099 246.4369 346.7296 247.0598 347.3525 245.5025 348.9099 246.4369 Z M 346.1066 242.0763 347.9755 243.9451 347.3525 244.568 344.8608 244.568 344.5493 243.6336 346.1066 242.0763 Z M 312.7796 237.7158 316.2057 238.3387 319.9433 239.5846 319.3204 240.8304 316.2057 240.2075 315.5828 241.1419 313.4025 240.8304 311.8452 239.5846 312.7796 237.7158 Z M 323.6809 237.7158 326.7956 238.0272 329.5988 238.9616 326.4842 240.8304 321.5007 241.4534 320.8777 238.3387 322.1236 237.4043 323.6809 237.7158 Z M 320.8777 234.6011 322.4351 234.9125 321.5007 236.1584 319.0089 237.0928 317.4516 236.4699 320.8777 234.6011 Z M 302.5011 229.929 301.5667 230.8635 299.3864 230.2405 300.3208 229.3061 302.5011 229.929 Z M 301.5667 227.7488 301.8782 229.3061 299.6979 228.9946 301.5667 227.7488 Z M 310.2878 227.1258 311.2222 227.7488 310.9108 228.9946 314.3369 229.929 315.8942 230.552 314.3369 231.4864 314.6484 232.1093 312.4681 234.6011 309.3534 234.2896 304.6814 233.0437 302.8126 230.8635 304.6814 231.1749 306.8617 230.552 306.5502 228.6832 307.4846 227.4373 310.2878 227.1258 Z M 302.8126 224.6341 303.1241 225.88 300.9438 226.1914 300.6323 224.9456 302.8126 224.6341 Z M 308.419 223.6997 312.1566 224.0112 310.2878 224.9456 308.419 223.6997 Z M 292.8456 222.1423 293.78 223.0768 290.3539 222.7653 289.108 221.8309 292.8456 222.1423 Z M 304.3699 217.1589 303.747 218.4047 301.8782 219.0277 298.452 218.7162 299.075 217.4703 301.5667 218.7162 304.3699 217.1589 Z M 280.0754 216.2245 285.3704 216.5359 289.7309 217.4703 291.2883 216.5359 295.0259 218.0933 293.78 219.9621 291.9112 220.8965 290.3539 220.2735 288.4851 220.2735 280.6983 218.4047 280.0754 216.2245 Z M 297.2062 215.29 299.075 216.5359 294.4029 216.5359 294.7144 215.29 297.2062 215.29 Z M 285.0589 214.3556 287.2392 214.3556 287.8621 215.913 284.7474 215.29 285.0589 214.3556 Z M 275.7149 213.4212 279.4525 213.7327 280.3869 214.6671 277.5837 215.29 273.8461 214.6671 273.2231 214.0442 275.7149 213.4212 Z M 287.5506 209.3722 292.2227 209.9951 295.6488 211.5524 297.5176 211.5524 299.6979 213.1098 301.8782 212.7983 303.747 213.4212 302.8126 214.6671 299.075 214.9786 293.4685 214.3556 289.4195 214.3556 285.9933 213.1098 289.7309 212.1754 287.8621 211.8639 285.9933 209.6836 287.5506 209.3722 Z M 291.2883 207.8148 294.4029 208.1263 294.7144 209.3722 288.4851 208.7492 288.4851 207.5033 291.2883 207.8148 Z M 288.4851 204.7001 285.3704 206.8804 285.6818 205.3231 288.4851 204.7001 Z M 306.8617 203.4543 308.7305 203.4543 311.5337 206.2575 309.0419 207.1919 307.4846 206.8804 304.0585 208.1263 302.8126 206.5689 306.8617 203.4543 Z M 309.9763 197.5364 307.7961 198.4708 304.3699 197.5364 306.5502 195.979 309.9763 197.5364 Z M 292.8456 191.9299 298.452 192.5529 296.8947 193.7988 297.2062 196.2905 292.8456 197.8478 293.4685 198.4708 296.2718 198.7822 296.8947 200.651 296.2718 201.5855 297.2062 204.3887 295.9603 205.0116 295.6488 207.1919 293.1571 206.8804 290.9768 204.7001 288.4851 204.0772 287.8621 203.1428 285.0589 203.1428 283.813 202.5199 284.7474 200.651 283.813 199.7166 285.3704 199.0937 285.9933 198.1593 285.0589 195.3561 285.9933 194.7332 290.0424 192.8643 291.2883 191.307 292.8456 191.9299 Z M 291.9112 179.4712 294.0915 180.0942 293.1571 180.7171 290.9768 180.0942 291.9112 179.4712 Z M 274.7805 177.6024 276.3378 177.2909 277.8951 178.2253 275.7149 179.1598 273.5346 177.9139 274.7805 177.6024 Z M 292.8456 177.6024 291.5997 178.5368 289.7309 176.9795 290.9768 176.0451 292.8456 176.3565 292.8456 177.6024 Z M 282.2557 172.3075 284.436 172.6189 284.7474 174.4877 283.813 175.7336 281.0098 175.7336 278.5181 174.1763 278.8295 172.6189 280.0754 171.6845 282.2557 172.3075 Z M 292.2227 167.0125 290.6653 166.0781 292.2227 165.1437 293.78 165.7666 292.2227 167.0125 Z M 260.4529 165.7666 257.3382 166.0781 257.9612 167.0125 255.4694 167.9469 254.535 166.701 255.158 165.7666 257.9612 165.1437 260.4529 165.7666 Z M 281.3213 164.2093 284.436 164.8322 285.0589 165.7666 283.813 167.324 282.2557 168.8813 284.436 169.8157 286.3048 170.4386 283.5016 171.373 281.9442 170.7501 275.0919 170.1272 271.9772 169.1928 276.6493 167.324 278.5181 166.0781 279.4525 164.8322 281.3213 164.2093 Z M 282.2557 162.3405 282.5672 163.8978 279.7639 163.2749 282.2557 162.3405 Z M 273.8461 162.3405 276.0263 162.6519 278.5181 163.8978 278.2066 165.4552 274.1575 168.2584 269.4855 167.9469 268.2396 165.7666 266.3708 165.1437 266.3708 164.2093 267.6167 163.2749 271.0428 163.5863 272.2887 162.3405 273.8461 162.3405 Z M 283.1901 157.6685 284.1245 159.2258 282.5672 159.8487 280.6983 158.6029 283.1901 157.6685 Z M 279.7639 150.8162 282.2557 151.1276 284.436 152.9964 283.813 155.1767 282.8786 156.734 280.0754 156.734 276.6493 154.8652 275.7149 153.6194 272.9116 154.5538 272.6002 153.3079 274.469 151.7506 277.2722 150.5047 279.7639 150.8162 Z M 285.0589 147.39 284.7474 148.3244 280.0754 148.0129 280.3869 147.0785 284.436 146.4556 285.0589 147.39 Z M 261.3873 143.0295 259.2071 145.2097 257.6497 143.0295 261.3873 143.0295 Z M 221.8309 118.4235 220.585 120.6037 218.4047 120.2923 218.0933 119.0464 220.585 117.8005 221.8309 118.4235 Z M 235.5355 116.8661 237.4043 117.1776 238.9616 118.4235 235.224 119.0464 233.9781 118.4235 235.5355 116.8661 Z M 164.5207 42.1138 165.4552 43.9826 162.9634 43.9826 162.9634 42.7367 164.5207 42.1138 Z M 480.3494 319.9433 481.5953 322.4351 484.087 324.6154 485.6444 327.1071 489.0705 328.9759 488.4476 330.8447 489.6934 333.025 491.8737 334.2709 494.3655 334.5823 494.3655 335.5167 491.2508 336.7626 491.2508 338.0085 492.4967 338.9429 489.6934 339.8773 488.1361 340.1888 486.2673 341.4346 479.415 343.3034 478.7921 345.7952 482.5297 344.8608 485.3329 348.2869 484.3985 350.4672 484.71 351.7131 489.382 349.8443 492.1852 348.2869 491.2508 347.0411 492.4967 345.4837 492.1852 344.2378 495.9228 343.6149 495.6113 342.0576 498.1031 340.8117 499.9719 339.2544 502.1522 339.2544 504.9554 340.1888 506.8242 338.6314 509.3159 339.5658 509.9389 338.6314 512.4306 338.0085 512.7421 339.2544 514.2994 339.8773 517.1026 340.5002 515.8568 338.6314 518.3485 338.3199 519.2829 337.3855 523.6435 337.0741 525.2008 338.3199 523.6435 339.8773 520.5288 339.8773 518.037 340.5002 517.4141 341.7461 513.365 341.4346 515.2338 342.6805 517.7256 342.992 520.2173 344.2378 524.5779 344.2378 525.2008 344.8608 527.6925 343.9264 529.8728 343.9264 531.7416 344.5493 531.1187 345.4837 533.299 346.4181 535.1678 346.1066 536.4137 345.1722 539.5283 346.4181 540.7742 346.1066 543.8889 346.7296 545.1348 347.664 544.2004 349.8443 538.9054 348.2869 536.7251 347.3525 532.3646 347.0411 532.9875 347.9755 535.7907 348.9099 536.7251 349.8443 539.2169 350.1557 542.643 351.0901 542.3315 352.6475 544.5118 353.2704 545.7577 354.2048 549.4953 355.4507 550.4297 356.6966 551.9871 357.008 551.9871 358.2539 550.1183 358.5654 552.2985 360.4342 551.9871 361.6801 554.4788 362.303 553.5444 363.8603 555.7247 364.7947 554.7903 366.975 552.61 368.2209 550.4297 368.5324 550.1183 369.4668 548.5609 371.3356 546.6921 371.9585 544.5118 371.9585 542.9545 371.0241 540.1513 371.0241 541.3971 372.8929 543.5774 372.5814 544.8233 373.2044 547.6265 372.27 549.4953 372.27 549.8068 374.1388 548.8724 375.3846 550.7412 376.0076 552.9215 377.8764 553.2329 380.0567 551.3641 380.3681 548.2494 379.7452 547.938 380.9911 544.8233 380.9911 545.4462 382.5484 543.5774 382.8599 542.3315 381.9255 538.9054 381.614 538.9054 383.1714 540.7742 382.8599 543.266 384.1058 542.9545 385.6631 544.8233 385.9746 546.0692 387.5319 549.8068 386.909 551.6756 387.2204 552.9215 386.5975 554.7903 386.909 556.0361 388.4663 555.1017 390.6466 553.5444 390.9581 551.0527 390.0237 548.8724 390.6466 546.6921 389.4007 545.4462 390.0237 545.1348 391.2695 543.5774 391.2695 541.3971 391.8925 544.5118 392.5154 543.8889 393.1383 538.2825 392.5154 538.2825 393.4498 540.1513 394.0727 543.8889 394.6957 545.1348 395.6301 551.6756 395.0071 551.6756 395.6301 554.4788 395.9415 556.6591 396.8759 555.1017 397.8104 558.2164 398.4333 560.3967 399.0562 561.0196 399.9906 561.3311 401.8594 559.7738 402.7938 557.282 402.1709 556.6591 401.2365 553.8559 401.548 553.8559 402.7938 552.9215 403.1053 548.2494 402.4824 546.3806 401.2365 542.643 400.3021 537.0366 398.7448 539.2169 400.3021 543.5774 401.2365 548.5609 403.4168 551.9871 403.7282 552.2985 404.6627 555.4132 405.9085 557.282 408.0888 559.7738 408.0888 561.0196 409.0232 558.5279 409.6461 555.4132 409.6461 558.5279 411.2035 557.5935 412.7608 558.5279 413.0723 558.2164 414.6296 553.5444 415.2526 554.7903 415.8755 554.1673 417.4328 551.3641 417.7443 550.7412 418.6787 548.2494 419.6131 548.8724 420.2361 545.4462 422.4163 543.266 423.0393 535.1678 427.3998 533.9219 428.3342 530.1843 428.9572 528.627 428.9572 528.3155 430.203 526.1352 430.826 523.9549 430.826 520.2173 433.6292 518.66 433.6292 515.8568 435.1865 511.8077 435.498 510.8733 438.3012 509.0045 438.9241 507.4471 440.4815 505.5783 440.4815 506.2012 442.3503 504.3324 443.2847 503.0866 442.6618 499.9719 442.6618 499.9719 444.842 498.1031 445.465 492.8081 445.465 493.1196 434.2521 493.1196 418.6787 483.1526 418.6787 453.5631 418.6787 437.0553 418.6787 404.6627 418.6787 388.1548 418.6787 371.9585 418.6787 339.8773 418.6787 308.419 418.6787 277.2722 418.6787 245.5025 418.6787 229.6176 418.6787 197.8478 418.6787 185.3891 418.6787 183.8318 415.564 184.1432 414.9411 186.9465 414.9411 190.0611 416.187 192.5529 416.187 191.307 414.6296 190.0611 414.6296 190.6841 412.4494 189.1267 408.7117 187.8809 407.7773 188.1923 406.8429 186.9465 405.5971 184.4547 403.4168 182.2744 403.7282 178.2253 402.1709 176.0451 401.8594 175.4221 399.9906 173.2419 398.4333 172.3075 397.1874 174.7992 392.8269 176.9795 391.8925 183.2088 390.0237 187.8809 389.4007 192.5529 389.0892 194.1102 388.7778 199.4052 388.7778 202.8313 388.7778 204.0772 387.2204 201.274 385.6631 198.1593 385.0402 196.2905 383.7943 194.1102 382.8599 195.0446 381.9255 195.0446 379.4337 192.8643 380.0567 192.2414 381.3025 189.4382 381.9255 189.1267 383.1714 187.2579 382.8599 184.7662 383.7943 182.2744 382.8599 180.0942 383.7943 179.4712 385.0402 177.2909 385.3516 174.7992 384.7287 170.7501 385.0402 170.7501 386.5975 169.5042 387.5319 169.5042 389.0892 168.5698 390.0237 169.5042 390.9581 167.6354 391.2695 166.701 392.2039 168.5698 393.4498 169.8157 395.0071 169.8157 397.1874 171.373 400.6136 170.1272 401.8594 168.8813 402.1709 168.2584 404.3512 166.0781 404.6627 165.1437 405.9085 166.3896 406.8429 167.324 410.5805 169.1928 411.8264 168.2584 412.4494 164.8322 413.0723 164.8322 414.9411 162.9634 414.9411 163.5863 416.8099 165.7666 418.9902 163.5863 419.6131 161.7175 418.6787 160.7831 419.3017 160.1602 425.531 162.6519 427.7113 162.3405 429.5801 163.5863 430.203 161.0946 433.9407 158.2914 433.9407 157.357 433.6292 155.4882 435.8095 153.3079 436.7439 151.1276 437.9897 148.9473 435.498 147.7015 435.498 148.0129 433.9407 146.4556 432.3833 145.5212 432.3833 143.9639 431.1374 143.9639 429.8916 140.8492 429.8916 139.2918 428.6457 137.423 429.5801 133.9969 428.6457 134.3083 430.826 133.6854 431.7604 131.1937 430.826 130.5707 429.8916 128.3905 429.2686 126.8331 430.203 122.1611 428.9572 122.784 428.3342 122.784 426.7769 120.9152 427.0884 118.7349 426.7769 119.0464 424.9081 116.8661 424.2851 115.9317 425.531 114.3744 426.4654 114.0629 424.9081 112.1941 423.6622 114.3744 421.1705 113.44 419.9246 111.5712 419.9246 110.9482 418.3672 109.7024 418.0558 107.8336 416.187 108.145 414.0067 106.2762 415.2526 105.3418 416.8099 102.2271 416.4984 100.9813 418.9902 99.7354 418.6787 99.4239 416.4984 100.6698 415.8755 100.6698 414.9411 99.1124 413.6952 96.6207 414.6296 95.6863 413.6952 91.9487 413.0723 90.3913 413.3838 89.4569 414.9411 86.6537 414.0067 86.0308 415.8755 84.7849 416.187 83.8505 414.9411 82.2932 414.6296 80.1129 413.6952 81.0473 412.7608 81.0473 411.5149 79.49 409.3347 77.3097 407.7773 75.1294 407.7773 74.5065 406.8429 73.2606 405.9085 72.6377 404.3512 70.1459 405.5971 72.6377 410.892 72.3262 411.8264 69.523 412.4494 67.3427 411.2035 68.2771 410.5805 66.0968 408.0888 64.5395 408.4003 62.9822 406.8429 62.9822 405.5971 62.0477 402.7938 64.5395 402.1709 65.4739 400.925 67.6542 402.1709 68.9 401.8594 68.9 400.3021 67.6542 399.6792 68.2771 398.7448 66.7198 397.1874 68.2771 396.8759 67.3427 392.5154 64.5395 389.7122 65.4739 389.0892 66.7198 387.2204 68.9 388.7778 70.4574 390.6466 72.0147 389.4007 69.2115 387.2204 70.4574 385.0402 68.2771 381.614 65.7854 379.4337 65.7854 378.4993 67.3427 378.1879 71.0803 379.1223 72.6377 378.4993 72.0147 377.2535 69.8344 375.3846 69.523 373.8273 67.9656 371.9585 66.7198 371.647 64.851 370.4012 62.6707 370.7126 63.2936 372.5814 62.3592 372.5814 62.3592 374.4502 57.9987 375.3846 55.8184 374.7617 54.261 377.8764 54.884 379.4337 54.261 380.3681 54.884 382.2369 53.3266 382.2369 53.0152 383.4828 49.9005 384.1058 50.212 386.286 49.2776 386.5975 45.5399 385.3516 44.2941 385.6631 45.5399 387.5319 43.6711 387.5319 41.1794 383.7943 39.3106 383.4828 37.1303 384.1058 35.573 382.8599 36.5074 380.0567 35.2615 378.4993 31.5239 379.4337 31.5239 380.6796 28.4092 379.7452 26.5404 378.1879 24.0486 378.4993 23.1142 377.2535 22.4913 376.0076 23.4257 374.4502 21.2454 370.4012 20.6225 366.975 21.5569 366.3521 23.4257 366.975 25.606 366.0406 24.983 365.4177 26.2289 364.4833 28.7207 365.7291 31.5239 365.7291 33.3927 367.5979 35.8844 366.0406 36.5074 367.2865 35.573 367.9094 36.8188 369.1553 39.3106 368.5324 38.3762 364.7947 40.5564 364.1718 39.622 362.9259 39.9335 361.3686 40.8679 359.4998 40.5564 358.5654 37.4418 357.3195 40.245 355.7622 42.1138 353.2704 42.1138 351.7131 41.1794 350.7787 38.9991 350.4672 37.4418 348.5984 35.8844 347.9755 34.0156 348.5984 31.5239 347.9755 28.7207 348.2869 26.8519 347.0411 25.606 347.664 23.7372 347.0411 24.3601 345.7952 20.6225 344.5493 20.934 342.992 19.6881 342.0576 20.6225 341.1232 18.7537 340.1888 15.3275 339.5658 15.639 338.0085 11.5899 337.697 13.7702 335.8282 15.639 334.5823 12.5243 333.9594 10.6555 332.0906 11.2784 330.2218 7.8523 329.9103 8.4752 328.9759 6.6064 327.73 2.5573 326.7956 1 325.5498 3.8032 322.7465 1.6229 321.8121 1.6229 320.8777 3.4917 319.6319 5.3606 319.6319 7.8523 319.3204 10.0326 316.8286 7.5408 315.5828 8.1638 314.0254 7.5408 312.4681 4.4261 310.5993 5.3606 309.0419 3.4917 307.4846 3.4917 306.5502 5.3606 305.6158 7.2294 306.2387 8.1638 304.6814 11.5899 305.3043 11.9014 304.0585 15.639 304.6814 15.639 303.4355 16.8849 302.8126 15.0161 301.2552 14.7046 300.3208 17.1963 300.0094 19.0651 300.6323 22.8028 303.1241 27.4748 303.747 28.4092 302.5011 25.9174 301.5667 25.9174 299.6979 28.0977 299.6979 28.7207 298.452 30.5895 298.7635 32.4583 298.1406 32.7697 296.5832 35.2615 295.9603 35.8844 295.0259 32.4583 292.2227 30.5895 291.5997 29.0321 290.3539 28.7207 288.7965 26.8519 288.4851 25.606 286.9277 23.4257 285.3704 22.1798 283.5016 20.311 282.8786 20.311 281.3213 18.1307 280.3869 18.4422 279.4525 17.5078 277.8951 19.9996 276.6493 24.0486 276.6493 27.4748 278.2066 26.8519 279.7639 29.9665 281.6328 36.1959 285.6818 36.8188 286.9277 41.1794 289.108 42.1138 289.7309 44.2941 289.108 47.4087 290.9768 49.2776 291.5997 52.7037 293.4685 53.3266 292.5341 51.1464 291.5997 51.4578 290.3539 54.261 291.2883 57.0643 289.4195 55.5069 288.4851 54.261 286.3048 53.0152 285.3704 53.3266 284.436 50.5234 282.2557 49.589 281.0098 53.0152 280.6983 54.884 281.9442 55.8184 281.6328 53.3266 279.4525 50.8349 278.8295 49.9005 276.9607 49.9005 275.7149 48.3432 275.4034 50.212 273.5346 49.589 272.2887 50.212 271.0428 52.0808 270.4199 48.6546 268.2396 46.7858 266.6823 48.9661 264.502 52.7037 266.6823 53.9496 268.5511 57.0643 268.5511 59.556 270.1084 60.8019 271.9772 62.0477 271.3543 63.2936 273.5346 68.2771 276.9607 72.6377 280.6983 75.1294 281.6328 77.9326 281.6328 81.6702 284.1245 83.539 283.5016 86.3423 284.1245 88.2111 283.5016 89.7684 284.1245 91.6372 284.1245 92.2602 286.3048 91.3257 287.5506 91.9487 288.1736 94.7519 289.7309 98.801 294.0915 100.6698 292.8456 103.473 292.5341 105.3418 293.1571 106.8992 292.8456 109.7024 293.1571 110.9482 292.2227 110.6368 290.6653 108.145 289.108 109.7024 287.8621 111.5712 288.1736 114.3744 289.108 115.6203 287.8621 120.9152 287.8621 121.2267 286.3048 122.784 283.813 124.3414 284.1245 124.6528 282.5672 127.456 282.8786 130.2593 283.813 131.8166 283.813 134.6198 284.436 134.9313 285.3704 138.9804 287.8621 140.5377 287.8621 142.095 289.4195 140.8492 290.6653 140.8492 293.1571 143.0295 293.4685 145.2097 292.8456 148.0129 293.4685 148.9473 293.1571 150.8162 294.0915 152.9964 292.2227 154.5538 292.2227 154.2423 290.3539 158.2914 290.3539 162.9634 292.2227 163.8978 293.1571 166.0781 293.78 167.6354 293.1571 168.2584 294.7144 170.1272 295.9603 171.6845 296.2718 171.373 297.5176 173.8648 299.075 176.3565 299.075 177.6024 298.1406 180.4056 299.075 184.1432 297.5176 185.0776 296.8947 188.1923 297.8291 189.1267 296.2718 187.2579 295.6488 186.9465 294.7144 185.3891 293.4685 181.6515 291.2883 180.0942 290.9768 181.0286 290.0424 182.2744 290.0424 184.7662 289.108 183.5203 287.2392 183.8318 284.7474 184.7662 283.1901 187.8809 283.5016 191.9299 285.3704 194.4217 284.436 195.3561 281.9442 196.9134 280.6983 194.7332 280.3869 196.9134 279.141 194.4217 277.8951 194.4217 276.6493 197.5364 273.5346 196.602 272.2887 201.5855 271.6658 203.4543 270.1084 201.274 269.174 199.0937 270.1084 197.2249 270.4199 193.7988 269.797 191.307 268.5511 192.8643 267.6167 197.5364 266.6823 195.3561 265.4364 196.9134 264.8135 200.3396 264.8135 202.2084 265.1249 207.5033 263.8791 207.8148 262.0103 206.2575 261.6988 204.3887 262.3217 201.8969 262.0103 200.3396 261.0759 195.979 261.3873 193.4873 261.0759 191.9299 261.3873 188.5038 260.7644 186.635 259.5185 186.9465 258.5841 190.6841 257.3382 191.9299 255.7809 190.9955 252.9777 191.6185 250.7974 189.4382 250.4859 189.1267 247.3713 191.307 245.8139 191.307 244.568 189.4382 244.8795 186.635 243.9451 186.9465 241.4534 183.5203 240.519 186.012 238.0272 188.8153 238.0272 190.6841 237.4043 191.6185 236.1584 193.1758 236.4699 196.602 234.6011 199.0937 234.9125 200.0281 235.5355 201.8969 233.6667 199.7166 233.0437 195.979 233.6667 193.1758 233.6667 190.6841 232.7323 190.9955 232.1093 188.8153 231.7979 186.9465 232.4208 183.8318 232.7323 185.0776 230.8635 183.8318 230.2405 183.2088 228.6832 180.7171 229.3061 179.4712 230.552 175.7336 231.7979 174.7992 231.1749 176.3565 230.2405 174.7992 227.7488 176.3565 226.8144 182.8974 225.257 180.4056 224.3226 180.4056 222.7653 177.9139 223.0768 175.4221 222.4538 172.6189 223.0768 172.3075 222.1423 169.8157 220.585 171.373 219.9621 171.996 218.7162 170.7501 217.7818 171.0616 216.5359 168.2584 215.29 169.5042 214.6671 171.996 215.29 175.4221 215.6015 176.668 216.2245 182.2744 214.3556 181.34 213.4212 179.7827 213.4212 179.1598 212.1754 179.7827 210.3066 174.1763 206.8804 175.4221 205.0116 172.3075 204.7001 169.8157 202.8313 172.9304 199.7166 176.0451 199.0937 176.0451 195.979 177.2909 195.3561 182.5859 194.4217 180.7171 192.2414 180.4056 190.0611 182.8974 189.1267 181.34 188.5038 181.6515 185.0776 184.7662 185.3891 187.2579 182.5859 186.635 181.6515 186.9465 180.0942 188.5038 178.8483 188.5038 177.9139 185.3891 176.9795 183.5203 178.5368 182.5859 178.5368 181.963 176.3565 183.2088 173.5533 185.7006 173.5533 186.3235 172.6189 190.0611 171.996 189.1267 170.7501 189.7497 169.5042 187.5694 168.8813 186.9465 166.3896 187.8809 164.2093 186.9465 161.7175 190.3726 160.7831 192.5529 160.4717 195.0446 158.6029 195.0446 154.8652 191.6185 155.7996 192.2414 156.734 190.0611 158.6029 188.5038 158.6029 187.8809 155.7996 186.012 157.357 183.5203 155.7996 181.963 156.1111 180.7171 154.5538 181.0286 152.3735 179.1598 152.685 176.668 151.7506 173.2419 153.6194 171.0616 151.7506 169.1928 148.0129 168.8813 146.4556 167.324 145.8327 167.0125 144.2753 164.8322 141.1606 162.6519 140.8492 161.7175 140.2262 156.734 139.9148 157.0455 134.3083 159.2258 133.3739 165.1437 132.4395 166.3896 131.5051 167.9469 128.3905 168.5698 126.5216 173.5533 126.5216 175.4221 125.8987 175.7336 123.7184 176.9795 122.784 180.0942 122.4726 181.963 123.407 185.3891 120.6037 182.8974 119.9808 182.8974 117.1776 180.7171 116.5547 178.8483 117.4891 177.6024 118.7349 174.7992 119.0464 171.6845 117.1776 171.0616 115.3088 171.6845 113.7515 172.9304 113.1285 174.1763 110.6368 178.8483 111.5712 180.7171 110.3253 183.2088 110.9482 187.8809 110.0138 194.1102 109.7024 199.0937 109.0794 199.7166 107.8336 197.2249 104.7189 195.0446 103.7845 193.1758 104.0959 191.307 103.1615 186.635 102.5386 185.0776 104.0959 182.8974 104.7189 181.0286 104.7189 176.668 105.6533 174.4877 105.9647 173.2419 107.8336 170.1272 108.768 168.2584 106.8992 166.0781 106.8992 165.7666 103.473 161.0946 101.6042 155.4882 101.2927 152.9964 102.2271 151.1276 102.2271 148.3244 101.2927 146.4556 99.7354 143.0295 99.4239 141.4721 100.6698 138.6689 100.9813 138.046 100.0469 138.046 97.8666 136.8001 96.3092 138.3574 96.3092 138.6689 94.7519 140.8492 93.8175 145.2097 93.8175 145.8327 95.3748 147.39 95.3748 150.1932 95.9978 152.3735 96.9322 153.6194 96.3092 155.4882 97.8666 158.6029 96.9322 162.9634 97.2436 164.5207 96.6207 162.029 94.129 159.8487 94.129 159.2258 92.8831 157.357 93.1946 155.7996 92.2602 153.9308 92.5716 153.9308 90.7028 154.8652 88.834 152.3735 88.2111 152.9964 86.0308 153.9308 85.4079 151.4391 82.9161 153.9308 81.0473 151.7506 80.1129 152.9964 77.6212 155.4882 76.0638 157.0455 75.7523 161.7175 73.5721 158.9143 72.9491 156.4226 72.3262 153.3079 74.195 150.8162 74.8179 149.2588 75.7523 145.2097 76.6867 143.0295 75.7523 141.4721 73.5721 138.046 71.7033 133.3739 71.0803 133.9969 69.8344 136.4886 70.1459 135.2427 67.6542 135.5542 66.7198 138.6689 66.0968 141.4721 64.5395 139.6033 63.9166 140.2262 62.0477 138.9804 61.1133 140.2262 59.8675 138.6689 59.2445 140.8492 57.9987 142.4065 56.1299 145.2097 56.7528 147.0785 55.5069 146.1441 53.3266 142.718 53.3266 142.095 52.3922 140.5377 52.0808 138.046 52.7037 136.8001 51.4578 135.2427 48.0317 138.9804 48.9661 142.4065 48.6546 143.9639 47.4087 142.718 46.1629 147.39 46.4743 149.2588 45.8514 148.9473 43.6711 142.4065 43.3597 142.095 42.4253 136.8001 40.8679 137.423 38.6876 145.2097 37.4418 150.5047 37.1303 157.357 38.6876 159.2258 39.9335 158.2914 41.4909 159.5373 42.1138 159.8487 43.3597 153.9308 45.5399 154.5538 46.7858 152.9964 47.7202 156.1111 48.3432 157.9799 45.5399 159.5373 45.5399 159.5373 47.4087 157.357 47.0973 157.6685 48.6546 159.8487 48.6546 158.6029 50.5234 159.2258 53.3266 161.0946 51.4578 162.3405 51.1464 161.4061 49.9005 162.9634 48.9661 166.701 49.2776 169.1928 50.5234 169.1928 52.3922 166.701 52.0808 162.6519 53.6381 163.2749 54.261 166.3896 53.6381 170.7501 55.8184 168.2584 57.9987 168.5698 58.9331 170.1272 60.1789 171.0616 58.3101 173.5533 57.0643 175.1107 57.9987 173.8648 58.9331 175.1107 59.8675 175.1107 61.1133 179.4712 62.3592 177.2909 63.9166 174.4877 63.9166 171.6845 65.1624 170.4386 65.1624 167.9469 63.2936 168.2584 61.7363 165.4552 60.8019 163.8978 61.1133 165.4552 63.2936 167.6354 64.228 168.8813 65.4739 174.4877 66.0968 178.8483 65.7854 180.4056 67.0312 178.5368 67.9656 176.3565 67.3427 174.4877 67.6542 173.2419 69.523 172.6189 72.0147 174.4877 71.7033 175.4221 68.2771 179.1598 69.523 181.34 68.9 182.5859 69.523 182.8974 71.0803 187.8809 72.6377 189.4382 74.5065 187.5694 75.4409 186.9465 77.3097 184.4547 78.867 176.3565 77.9326 176.3565 78.867 183.2088 80.1129 185.3891 80.1129 189.1267 81.6702 189.1267 82.9161 187.5694 85.0964 188.8153 85.4079 190.3726 83.539 190.6841 81.9817 194.1102 81.3588 197.5364 81.6702 199.0937 82.9161 197.8478 85.7193 199.4052 86.3423 200.651 84.7849 202.2084 84.4734 205.3231 84.7849 203.7657 86.3423 201.5855 86.6537 203.1428 87.8996 205.946 88.5225 203.7657 90.7028 203.7657 91.6372 201.8969 92.5716 198.7822 92.8831 195.6676 94.4404 193.1758 94.129 189.7497 94.7519 187.2579 94.7519 185.3891 94.4404 181.6515 94.129 180.4056 93.506 178.2253 94.129 182.8974 95.0634 186.635 95.3748 188.5038 96.6207 192.5529 95.3748 197.2249 95.6863 199.4052 94.4404 204.3887 92.8831 208.4378 92.8831 211.8639 94.7519 215.913 94.7519 215.913 95.6863 213.7327 95.9978 209.0607 95.6863 208.7492 96.3092 212.1754 96.9322 210.9295 98.801 214.0442 97.8666 214.9786 98.4895 214.6671 100.6698 211.8639 103.1615 214.6671 103.1615 217.1589 103.473 218.0933 102.2271 220.8965 101.9157 222.7653 102.8501 223.6997 105.0303 226.1914 105.0303 227.4373 106.5877 226.5029 107.5221 226.5029 108.768 220.8965 110.9482 224.9456 110.9482 227.4373 110.6368 229.3061 110.9482 229.6176 112.5056 228.3717 113.7515 225.88 114.6859 226.8144 115.6203 224.3226 116.2432 222.7653 117.4891 220.2735 117.4891 217.7818 118.4235 217.1589 119.3579 211.8639 120.6037 209.0607 120.2923 207.8148 120.9152 207.1919 122.1611 204.7001 123.7184 202.8313 125.5872 197.5364 127.7675 198.4708 128.7019 200.651 127.1446 203.4543 126.5216 206.8804 123.7184 210.3066 121.8496 216.2245 121.2267 218.4047 121.8496 216.5359 124.9643 218.7162 124.3414 219.3391 122.784 220.8965 122.4726 221.8309 124.0299 225.88 121.2267 227.4373 121.8496 231.4864 120.2923 235.5355 120.9152 240.519 120.2923 242.6992 121.2267 238.9616 123.7184 238.6502 124.6528 240.2075 126.5216 239.2731 129.6363 237.4043 129.6363 235.8469 130.2593 241.7648 132.751 241.4534 133.6854 239.896 133.9969 237.7158 135.5542 231.7979 135.2427 226.8144 135.8657 223.3882 136.1772 220.8965 138.046 217.4703 138.9804 215.6015 138.9804 212.7983 140.5377 215.6015 140.8492 215.913 142.095 211.241 143.3409 216.2245 143.3409 217.1589 142.718 218.0933 140.2262 222.7653 139.2918 224.9456 137.423 230.2405 136.8001 234.6011 137.1116 236.1584 136.8001 238.0272 137.7345 239.5846 136.8001 243.0107 138.046 244.2566 137.423 243.6336 135.5542 245.191 134.9313 247.9942 135.5542 247.0598 136.8001 245.5025 137.7345 247.0598 138.6689 251.1089 138.3574 249.5515 139.6033 250.7974 141.4721 252.3548 140.5377 253.9121 141.1606 251.1089 143.6524 245.5025 143.3409 245.191 144.2753 250.4859 145.5212 252.0433 144.5868 253.2892 145.5212 255.158 145.8327 258.5841 146.7671 260.7644 145.2097 262.6332 145.2097 264.1905 145.8327 265.4364 148.9473 266.3708 147.7015 269.797 146.7671 271.6658 147.0785 270.7314 148.6359 273.5346 148.9473 274.469 150.1932 273.5346 152.062 270.1084 153.3079 265.4364 150.8162 263.8791 152.9964 267.3052 152.685 268.8626 154.2423 268.5511 154.8652 270.7314 156.1111 269.797 157.6685 271.0428 158.6029 272.6002 157.9799 273.5346 160.1602 265.1249 162.029 263.8791 164.2093 262.0103 165.1437 260.4529 165.1437 257.9612 163.8978 256.0924 164.2093 253.6006 167.6354 251.4203 168.5698 249.2401 167.0125 246.1254 166.701 244.8795 165.7666 243.3222 166.3896 246.4369 167.9469 248.6171 168.2584 251.4203 169.8157 252.9777 169.5042 256.4038 168.5698 257.9612 168.8813 259.2071 167.6354 263.5676 168.2584 265.7479 167.9469 267.3052 168.8813 270.4199 169.5042 277.2722 171.996 276.3378 172.9304 272.9116 172.6189 274.1575 173.8648 273.2231 174.7992 274.7805 176.0451 273.5346 176.9795 268.8626 178.2253 270.7314 179.1598 272.6002 179.1598 274.469 181.0286 278.5181 180.4056 279.4525 181.34 283.813 178.5368 284.7474 178.5368 282.2557 181.0286 281.9442 182.2744 284.436 182.5859 285.9933 181.963 288.1736 181.963 292.2227 181.6515 295.3373 182.5859 297.5176 184.7662 296.5832 186.9465 297.8291 188.1923 296.8947 190.0611 294.7144 190.3726 292.2227 190.0611 288.4851 191.307 288.4851 192.5529 287.5506 193.4873 285.9933 193.4873 284.1245 195.3561 284.1245 197.8478 282.5672 198.4708 281.0098 197.8478 277.5837 199.0937 275.7149 198.7822 273.5346 197.8478 271.6658 198.4708 273.2231 201.5855 274.469 200.0281 280.0754 200.651 282.2557 201.8969 281.3213 202.8313 276.9607 203.4543 281.0098 204.7001 284.1245 205.3231 282.8786 206.8804 280.0754 206.2575 274.1575 206.2575 270.7314 205.6345 264.502 203.7657 261.6988 203.7657 266.0593 206.2575 270.4199 205.6345 271.9772 207.1919 267.6167 206.5689 262.3217 206.5689 258.5841 206.5689 257.6497 207.1919 264.8135 207.5033 268.2396 207.8148 271.0428 208.4378 273.8461 207.8148 276.9607 208.7492 280.6983 208.7492 283.5016 211.241 281.6328 211.5524 281.0098 212.4868 278.2066 212.7983 274.7805 212.1754 271.0428 212.1754 270.7314 211.241 267.6167 210.618 266.6823 211.8639 264.8135 211.8639 264.502 212.7983 267.6167 212.7983 270.1084 214.0442 266.0593 214.3556 264.1905 213.7327 260.7644 214.0442 264.8135 215.913 266.0593 215.29 268.8626 216.2245 270.7314 215.6015 273.8461 216.2245 276.3378 216.5359 277.8951 217.4703 277.2722 218.0933 278.2066 219.3391 277.8951 220.2735 284.1245 220.2735 286.3048 221.2079 285.9933 222.4538 280.3869 223.6997 277.8951 223.0768 278.5181 221.8309 275.0919 222.1423 272.6002 221.2079 270.7314 222.4538 268.2396 222.1423 265.7479 221.2079 264.502 221.8309 267.6167 224.0112 267.3052 224.6341 272.2887 225.257 276.6493 225.257 277.8951 226.1914 279.141 225.5685 282.8786 224.6341 286.9277 225.5685 288.7965 226.1914 293.78 225.257 297.5176 224.3226 296.2718 226.8144 296.5832 228.0602 298.1406 228.6832 297.8291 230.2405 295.0259 230.552 292.5341 231.7979 294.4029 233.0437 295.3373 232.4208 300.0094 231.1749 299.6979 232.7323 298.1406 232.7323 297.8291 233.9781 295.3373 234.6011 297.8291 236.4699 303.4355 236.4699 308.1075 235.8469 309.0419 237.0928 311.2222 238.0272 311.5337 239.896 306.5502 240.2075 307.1731 241.1419 310.2878 242.3878 312.7796 241.7648 317.4516 241.7648 319.0089 241.4534 320.5663 242.0763 325.5498 241.7648 327.4186 242.3878 326.7956 244.8795 323.6809 246.1254 318.0745 246.7483 319.3204 247.6827 321.8121 246.7483 324.9268 247.6827 327.1071 246.7483 329.5988 244.568 330.5332 243.3222 331.4676 243.0107 333.025 244.2566 331.7791 244.8795 332.7135 245.8139 333.025 248.3057 333.6479 248.9286 330.2218 250.4859 332.0906 251.7318 330.5332 253.6006 331.4676 253.9121 333.3365 252.3548 335.5167 247.9942 336.7626 246.4369 336.7626 245.191 340.1888 244.568 341.4346 245.8139 343.9264 244.8795 346.1066 245.191 346.1066 246.4369 342.992 249.2401 343.9264 250.1745 338.6314 250.7974 338.9429 252.0433 341.1232 252.0433 342.6805 252.9777 341.4346 256.7153 343.9264 255.158 346.1066 254.2236 346.7296 254.8465 344.5493 257.6497 344.5493 258.5841 342.369 259.5185 339.2544 261.6988 341.1232 263.5676 342.369 262.9447 341.4346 262.0103 342.0576 261.0759 343.6149 260.1415 347.664 260.4529 347.664 258.2726 348.5984 257.6497 351.0901 258.5841 351.7131 260.1415 350.4672 261.0759 347.664 262.3217 346.1066 262.0103 344.2378 262.9447 343.6149 265.1249 342.0576 267.3052 338.6314 269.4855 335.8282 271.0428 336.7626 271.3543 338.6314 270.4199 341.1232 270.1084 343.3034 269.174 343.3034 270.7314 340.1888 271.9772 338.9429 272.9116 337.3855 275.7149 335.8282 276.6493 332.7135 277.5837 330.5332 279.4525 332.7135 279.7639 333.6479 278.2066 336.4511 277.2722 338.9429 275.7149 338.6314 275.0919 340.8117 273.2231 342.992 273.5346 344.2378 273.2231 346.1066 271.0428 349.2213 268.8626 350.4672 269.797 352.6475 268.8626 354.5163 270.4199 357.3195 270.1084 356.6966 272.2887 352.9589 275.4034 349.2213 276.6493 348.2869 277.8951 348.5984 279.141 356.3851 275.0919 358.2539 271.6658 359.8112 271.6658 360.4342 270.4199 362.6145 269.4855 364.4833 270.1084 367.5979 266.6823 370.7126 266.3708 373.2044 268.2396 373.8273 269.174 372.5814 271.6658 370.4012 271.3543 369.4668 272.9116 364.4833 274.1575 368.8438 276.0263 370.7126 274.469 375.3846 274.1575 377.2535 273.8461 377.5649 271.9772 378.8108 271.9772 378.8108 273.8461 382.2369 272.6002 381.9255 271.3543 383.4828 270.7314 384.1058 272.6002 386.909 273.5346 385.9746 275.4034 384.1058 275.7149 382.8599 278.5181 380.6796 278.5181 378.1879 280.6983 374.7617 282.2557 372.27 282.5672 372.8929 284.1245 370.7126 285.3704 366.975 286.9277 366.975 288.1736 368.8438 288.4851 367.2865 290.3539 364.7947 291.9112 366.3521 292.2227 368.5324 291.2883 369.4668 290.3539 369.7782 287.8621 370.7126 285.9933 376.0076 283.813 378.4993 283.1901 381.614 281.0098 385.3516 278.5181 386.909 277.2722 389.0892 277.8951 392.8269 274.1575 392.5154 273.8461 394.0727 271.9772 395.6301 271.0428 398.1218 271.6658 400.6136 270.4199 400.925 272.6002 399.3677 275.0919 395.6301 275.7149 394.6957 277.5837 391.8925 279.7639 392.8269 280.3869 396.253 278.5181 396.5645 276.9607 399.3677 276.3378 401.2365 275.0919 403.1053 276.0263 404.0397 274.1575 406.5315 273.8461 407.1544 275.7149 408.4003 276.3378 408.7117 277.5837 405.9085 279.4525 404.6627 280.6983 407.1544 280.6983 409.0232 282.2557 411.5149 283.813 407.7773 284.7474 407.7773 285.6818 405.5971 285.6818 406.8429 286.9277 408.7117 286.6162 409.3347 285.3704 411.2035 285.3704 410.892 286.9277 409.9576 288.1736 411.8264 288.7965 413.0723 289.7309 415.564 288.7965 418.9902 288.7965 421.1705 290.0424 424.9081 290.6653 426.4654 290.0424 428.9572 291.5997 432.0718 291.9112 432.6948 293.1571 434.8751 292.5341 433.6292 291.2883 437.0553 290.6653 440.4815 290.9768 442.6618 290.3539 442.3503 287.2392 443.9076 287.8621 446.0879 286.6162 449.5141 286.6162 449.8255 285.9933 452.6287 285.3704 453.8746 284.7474 455.432 284.7474 455.432 286.3048 453.8746 286.9277 454.1861 289.108 457.9237 290.3539 458.2352 288.7965 460.104 289.108 458.8581 290.3539 454.4975 290.9768 452.0058 292.5341 449.2026 292.5341 444.2191 291.9112 443.9076 292.8456 448.2682 293.1571 450.137 293.4685 451.6943 293.1571 452.0058 294.4029 455.1205 292.5341 456.3664 293.1571 460.104 293.1571 460.4154 294.0915 461.9728 294.4029 462.9072 295.6488 464.776 295.9603 465.3989 297.5176 467.5792 298.1406 471.9398 297.5176 474.12 297.2062 477.8577 296.8947 477.5462 298.1406 479.7265 300.3208 480.9723 299.3864 482.5297 300.3208 480.9723 301.8782 481.2838 303.747 479.1035 304.3699 472.8742 304.3699 466.6448 304.9929 467.5792 305.6158 472.2512 305.3043 474.4315 305.3043 475.3659 307.1731 473.1856 308.1075 471.3168 308.1075 469.7595 309.6649 466.3333 309.9763 461.9728 309.0419 460.104 309.9763 459.1696 308.7305 452.9402 309.3534 450.4485 309.9763 448.2682 309.6649 444.5306 310.2878 441.4159 311.8452 442.6618 312.4681 447.0223 312.4681 443.5962 313.4025 440.7929 314.0254 442.3503 315.2713 439.5471 315.8942 432.0718 315.8942 429.8916 317.1401 426.4654 317.4516 423.9737 319.3204 419.9246 320.2548 415.8755 320.8777 413.6952 320.2548 410.892 320.5663 409.3347 320.8777 405.2856 321.8121 399.9906 322.4351 395.9415 323.058 388.1548 325.5498 385.6631 325.5498 383.4828 325.2383 382.2369 326.1727 382.8599 327.1071 385.3516 326.7956 389.4007 326.7956 396.253 325.2383 400.925 324.3039 406.8429 323.9924 407.4659 323.6809 412.4494 322.7465 417.7443 321.1892 420.2361 321.5007 420.5475 320.5663 423.3507 319.9433 426.7769 318.386 430.5145 317.7631 432.3833 316.5172 434.8751 316.5172 432.0718 319.3204 432.0718 319.9433 429.2686 321.1892 426.1539 323.3695 425.531 324.6154 422.7278 325.5498 417.4328 325.5498 415.8755 325.2383 412.7608 324.9268 408.4003 324.9268 405.5971 325.5498 409.6461 326.1727 408.4003 327.73 405.9085 328.9759 403.4168 329.2874 401.8594 328.9759 398.4333 329.5988 391.2695 331.7791 388.1548 333.3365 386.286 333.6479 384.1058 334.5823 380.3681 334.8938 373.2044 334.2709 372.5814 333.9594 367.5979 333.6479 365.1062 335.2053 367.9094 335.5167 367.2865 336.4511 365.7291 336.1397 360.1227 336.7626 357.631 337.3855 357.3195 339.8773 355.4507 341.1232 355.1392 342.6805 354.2048 343.9264 354.5163 345.1722 356.3851 346.1066 356.0736 347.0411 353.8934 347.9755 353.8934 348.9099 355.1392 349.8443 357.008 349.5328 360.1227 354.5163 362.9259 353.2704 365.1062 350.4672 366.3521 349.8443 364.7947 348.5984 368.2209 347.664 370.0897 348.9099 372.8929 348.9099 373.8273 347.9755 377.2535 348.5984 379.7452 348.2869 383.7943 346.7296 385.9746 344.5493 391.581 342.0576 391.8925 340.8117 393.7613 341.1232 396.8759 340.8117 398.7448 341.7461 400.925 341.1232 403.1053 341.1232 402.7938 339.8773 405.2856 339.8773 405.9085 338.6314 404.3512 336.7626 405.5971 334.8938 412.7608 331.4676 413.3838 329.2874 419.6131 328.9759 422.1049 327.73 425.2195 327.4186 426.4654 326.4842 428.9572 326.4842 431.7604 325.5498 434.5636 325.5498 437.0553 324.3039 438.9241 324.3039 442.3503 323.9924 445.7764 322.4351 447.9567 322.1236 451.0714 322.7465 454.809 323.6809 457.6122 323.058 461.0384 323.6809 461.9728 322.4351 459.1696 321.8121 454.1861 321.8121 450.4485 320.8777 444.2191 320.5663 441.7274 321.5007 440.4815 322.4351 437.3668 322.7465 437.0553 321.5007 434.8751 321.5007 433.6292 320.8777 434.8751 318.0745 437.9897 317.4516 441.1044 317.4516 441.7274 316.8286 444.842 316.2057 447.6452 316.5172 449.8255 316.2057 453.8746 316.8286 457.6122 317.1401 459.7925 317.7631 461.6613 316.8286 463.5301 316.8286 464.1531 317.4516 468.5136 317.4516 470.071 317.4516 471.6283 318.6975 472.5627 317.7631 474.4315 318.386 475.3659 317.7631 479.7265 318.6975 480.3494 319.9433 Z M 156.734 34.0156 154.8652 36.5074 152.9964 37.1303 152.062 35.573 153.9308 34.0156 156.734 34.0156 Z" id="CA.NF.10004" fill="#cee3f5" stroke="#6e6e6e" stroke-width="0.4">
      <desc>
        <feduid>10004</feduid>
        <name>Labrador</name>
        <prname>Newfoundland and Labrador / Terre-Neuve-et-Labrador</prname>
        <fedfname>Labrador</fedfname>
        <pruid>10</pruid>
        <fedename>Labrador</fedename>
        <id>CA.NF.10004</id>
        <fedname>Labrador</fedname>
      </desc>
    </path>
    <path d="M 696.5083 621.4444 695.8853 623.3133 696.8197 623.9362 699 624.2477 698.0656 625.805 695.8853 626.4279 696.5083 627.9853 694.6394 630.477 693.3936 632.9688 690.9018 631.7229 689.3445 630.7885 687.4757 629.5426 685.9183 630.7885 684.6725 630.1656 683.1151 628.6082 680.3119 627.3623 680.9349 626.4279 683.4266 626.4279 686.2298 625.1821 688.4101 624.8706 689.3445 623.6247 696.5083 621.4444 Z" id="CA.NF.10007" fill="#cee3f5" stroke="#6e6e6e" stroke-width="0.4">
      <desc>
        <feduid>10007</feduid>
        <name>St. John's South - Mount Pearl / St. John's-Sud - Mount Pearl</name>
        <prname>Newfoundland and Labrador / Terre-Neuve-et-Labrador</prname>
        <fedfname>St. John's-Sud - Mount Pearl</fedfname>
        <pruid>10</pruid>
        <fedename>St. John's South - Mount Pearl</fedename>
        <id>CA.NF.10007</id>
        <fedname>St. John's South - Mount Pearl / St. John's-Sud - Mount Pearl</fedname>
      </desc>
    </path>
  </g>
</svg>