<?xml version="1.0" encoding="UTF-8"?>
<svg xmlns="http://www.w3.org/2000/svg" width="700" height="700">
  <g id="saskatchewan">
    <path d="M 329.758 451.21 329.06 450.512 328.362 450.512 327.664 451.908 327.664 452.606 326.268 453.304 325.57 453.304 324.872 454.7 324.174 455.398 324.174 456.096 323.476 456.794 323.476 457.492 323.476 458.888 322.778 458.888 322.08 458.888 321.382 459.586 321.382 460.284 321.382 460.982 322.08 461.68 322.778 461.68 322.08 462.378 322.08 463.076 323.476 463.774 322.778 464.472 322.08 465.17 322.778 465.868 322.08 465.868 322.08 466.566 322.778 466.566 322.778 467.264 322.08 467.264 322.778 467.962 321.382 469.358 321.382 470.056 320.684 469.358 319.986 469.358 320.684 470.056 320.684 470.754 319.986 471.452 320.684 472.15 320.684 472.848 319.288 472.848 317.194 474.244 314.402 475.64 313.704 476.338 313.704 477.036 313.006 477.036 310.912 477.734 310.214 478.432 310.912 478.432 310.214 479.13 309.516 479.13 308.818 479.828 308.818 480.526 308.12 481.224 308.12 482.62 308.12 483.318 307.422 483.318 306.026 483.318 304.63 484.714 304.63 485.412 303.932 486.11 303.234 486.808 301.838 488.204 300.442 488.902 300.442 490.298 300.442 490.996 298.348 491.694 297.65 492.392 296.952 492.392 296.952 493.788 296.254 494.486 294.858 494.486 294.16 495.184 293.462 495.184 292.764 495.184 292.066 495.184 291.368 495.882 290.67 495.882 292.066 497.278 291.368 498.674 290.67 498.674 289.972 498.674 288.576 500.768 287.878 500.768 287.18 500.768 287.18 498.674 286.482 499.372 285.086 499.372 275.314 499.372 275.314 489.6 271.126 487.506 269.032 486.11 267.636 486.11 259.26 486.11 258.562 485.412 257.166 485.412 256.468 485.412 255.77 486.11 254.374 486.11 252.978 486.808 251.582 486.808 250.186 486.808 248.092 486.808 244.602 486.11 241.81 486.808 240.414 486.808 239.018 486.11 238.32 485.412 237.622 484.714 235.528 484.016 234.83 484.016 232.038 483.318 229.944 481.922 229.246 481.224 227.85 480.526 226.454 479.828 225.058 479.13 222.964 477.734 221.568 477.734 220.172 477.036 219.474 476.338 216.682 475.64 215.984 475.64 214.588 474.942 213.89 473.546 212.494 472.848 211.098 472.848 211.098 466.566 209.702 466.566 209.702 463.774 209.702 460.284 209.702 449.814 219.474 449.814 219.474 444.23 218.078 444.23 218.078 442.834 218.078 437.25 218.078 435.156 218.078 433.062 231.34 433.062 233.434 433.062 234.132 433.062 250.884 433.062 261.354 433.062 274.616 433.062 274.616 438.646 281.596 438.646 283.69 438.646 284.388 433.062 296.952 433.062 301.838 433.062 301.838 438.646 303.234 438.646 313.006 438.646 313.704 437.948 315.1 436.552 315.798 435.156 316.496 434.458 317.892 434.458 320.684 433.76 321.382 433.062 322.778 433.062 323.476 432.364 325.57 432.364 327.664 432.364 328.362 432.364 328.362 433.062 329.06 433.76 328.362 434.458 329.06 435.156 329.758 435.854 329.758 437.948 329.758 440.042 329.758 444.928 329.758 445.626 329.758 449.116 329.758 451.21 Z" id="CA.SK.47011" fill="#cee3f5" stroke="#6e6e6e" stroke-width="0.4">
      <desc>
        <feduid>47011</feduid>
        <name>Saskatoon - Wanuskewin</name>
        <prname>Saskatchewan</prname>
        <fedfname>Saskatoon - Wanuskewin</fedfname>
        <pruid>47</pruid>
        <fedename>Saskatoon - Wanuskewin</fedename>
        <id>CA.SK.47011</id>
        <fedname>Saskatoon - Wanuskewin</fedname>
      </desc>
    </path>
    <path d="M 504.956 610.354 504.956 612.448 504.956 616.636 504.956 618.032 504.956 621.522 505.654 621.522 505.654 627.106 505.654 632.69 488.204 632.69 480.526 632.69 467.962 632.69 460.982 632.69 456.096 632.69 443.532 632.69 442.136 632.69 428.874 632.69 420.498 632.69 417.008 632.69 417.706 627.106 417.008 622.22 417.706 621.522 417.706 619.428 417.706 606.864 423.29 606.166 423.29 607.562 426.082 607.562 426.082 610.354 437.25 610.354 448.418 610.354 454.002 610.354 460.982 610.354 465.17 610.354 470.056 610.354 475.64 610.354 479.828 610.354 482.62 610.354 495.882 610.354 504.956 610.354 Z" id="CA.SK.47013" fill="#cee3f5" stroke="#6e6e6e" stroke-width="0.4">
      <desc>
        <feduid>47013</feduid>
        <name>Wascana</name>
        <prname>Saskatchewan</prname>
        <fedfname>Wascana</fedfname>
        <pruid>47</pruid>
        <fedename>Wascana</fedename>
        <id>CA.SK.47013</id>
        <fedname>Wascana</fedname>
      </desc>
    </path>
    <path d="M 446.324 466.566 446.324 469.358 446.324 470.754 447.022 470.056 447.72 470.056 447.022 469.358 447.72 469.358 447.72 470.754 446.324 470.754 446.324 477.734 446.324 488.902 447.72 488.902 447.72 491.694 447.72 495.882 447.72 503.56 447.72 508.446 447.022 509.144 447.022 510.54 448.418 510.54 448.418 514.03 448.418 516.124 439.344 516.124 426.082 516.124 414.216 516.124 411.424 516.124 401.652 516.124 394.672 516.124 394.672 514.728 394.672 510.54 393.276 510.54 393.276 509.144 393.276 507.05 393.276 503.56 393.276 499.372 390.484 500.07 379.316 499.372 361.866 499.372 349.302 499.372 340.228 499.372 330.456 499.372 320.684 499.372 309.516 499.372 296.254 499.372 295.556 500.07 294.16 500.768 293.462 500.768 294.16 501.466 287.18 501.466 287.18 500.768 287.878 500.768 288.576 500.768 289.972 498.674 290.67 498.674 291.368 498.674 292.066 497.278 290.67 495.882 291.368 495.882 292.066 495.184 292.764 495.184 293.462 495.184 294.16 495.184 294.858 494.486 296.254 494.486 296.952 493.788 296.952 492.392 297.65 492.392 298.348 491.694 300.442 490.996 300.442 490.298 300.442 488.902 301.838 488.204 303.234 486.808 303.932 486.11 304.63 485.412 304.63 484.714 306.026 483.318 307.422 483.318 308.12 483.318 308.12 482.62 308.12 481.224 308.818 480.526 308.818 479.828 309.516 479.13 310.214 479.13 310.912 478.432 310.214 478.432 310.912 477.734 313.006 477.036 313.704 477.036 313.704 476.338 314.402 475.64 317.194 474.244 319.288 472.848 320.684 472.848 320.684 472.15 319.986 471.452 320.684 470.754 320.684 470.056 319.986 469.358 320.684 469.358 321.382 470.056 321.382 469.358 322.778 467.962 322.08 467.264 322.778 467.264 322.778 466.566 322.08 466.566 322.08 465.868 322.778 465.868 322.08 465.17 322.778 464.472 323.476 463.774 322.08 463.076 322.08 462.378 322.778 461.68 322.08 461.68 321.382 460.982 321.382 460.284 321.382 459.586 322.08 458.888 322.778 458.888 323.476 458.888 323.476 457.492 323.476 456.794 324.174 456.096 324.174 455.398 324.872 454.7 325.57 453.304 326.268 453.304 327.664 452.606 327.664 451.908 328.362 450.512 329.06 450.512 329.758 451.21 331.154 450.512 331.852 451.21 333.946 450.512 334.644 451.21 335.342 451.21 336.04 451.21 336.738 451.21 338.832 450.512 340.228 449.814 340.926 449.814 341.624 450.512 342.322 449.814 358.376 449.814 359.772 449.814 362.564 449.814 375.826 449.814 379.316 449.814 379.316 447.022 388.39 447.022 388.39 447.72 389.088 451.21 388.39 453.304 389.088 458.19 389.786 458.19 390.484 460.982 389.786 466.566 398.162 466.566 402.35 466.566 419.102 466.566 427.478 466.566 429.572 466.566 435.854 466.566 446.324 466.566 Z" id="CA.SK.47009" fill="#cee3f5" stroke="#6e6e6e" stroke-width="0.4">
      <desc>
        <feduid>47009</feduid>
        <name>Saskatoon - Humboldt</name>
        <prname>Saskatchewan</prname>
        <fedfname>Saskatoon - Humboldt</fedfname>
        <pruid>47</pruid>
        <fedename>Saskatoon - Humboldt</fedename>
        <id>CA.SK.47009</id>
        <fedname>Saskatoon - Humboldt</fedname>
      </desc>
    </path>
    <path d="M 617.334 605.468 616.636 606.864 617.334 616.636 616.636 620.126 618.73 620.126 618.73 624.314 618.73 630.596 618.73 635.482 618.73 636.18 618.73 640.368 618.73 643.16 620.824 643.16 620.824 645.952 620.824 648.744 620.824 654.328 620.824 662.704 620.824 665.496 622.22 665.496 622.22 670.382 622.22 674.57 622.22 676.664 622.22 687.832 624.314 687.832 624.314 689.926 624.314 697.604 624.314 699 611.75 699 601.978 699 583.132 699 569.172 699 551.722 699 536.366 699 520.312 699 507.05 699 490.298 699 473.546 699 456.794 699 437.948 699 425.384 699 415.612 699 405.142 699 389.088 699 380.014 699 363.262 699 354.886 699 354.886 688.53 354.886 687.832 352.792 687.832 352.792 682.248 361.168 682.248 361.168 677.362 366.054 677.362 370.242 677.362 370.242 674.57 368.846 673.174 368.148 672.476 366.752 671.778 366.054 671.08 364.658 671.08 363.96 670.382 361.866 670.382 359.772 670.382 359.074 669.684 356.98 670.382 355.584 669.684 354.188 669.684 352.792 668.986 352.792 666.194 351.396 666.194 351.396 662.006 351.396 661.308 351.396 656.422 351.396 655.026 351.396 649.442 356.98 649.442 359.772 649.442 363.262 649.442 376.524 649.442 377.222 649.442 387.692 649.442 403.048 649.442 403.048 647.348 403.048 643.858 401.652 643.858 401.652 632.69 407.236 632.69 417.008 632.69 420.498 632.69 428.874 632.69 442.136 632.69 443.532 632.69 456.096 632.69 460.982 632.69 467.962 632.69 480.526 632.69 488.204 632.69 505.654 632.69 505.654 627.106 505.654 621.522 504.956 621.522 504.956 618.032 504.956 616.636 504.956 612.448 504.956 610.354 504.956 608.958 504.956 607.562 504.956 601.978 505.654 601.978 506.352 601.978 507.748 601.978 508.446 602.676 509.144 601.978 509.842 602.676 510.54 601.978 511.936 601.978 512.634 601.978 513.332 601.28 514.728 601.28 514.728 600.582 515.426 600.582 516.822 599.884 517.52 599.186 518.218 598.488 518.916 598.488 519.614 598.488 520.312 597.79 521.01 597.79 521.708 597.092 523.802 596.394 524.5 595.696 525.896 595.696 525.896 594.998 527.292 594.998 528.688 594.998 530.084 594.998 531.48 594.998 532.876 595.696 533.574 595.696 532.876 596.394 533.574 597.092 534.272 597.092 534.272 597.79 534.97 597.79 537.064 597.092 537.762 597.092 538.46 597.092 539.856 597.092 541.252 597.79 541.252 598.488 541.95 598.488 542.648 598.488 543.346 598.488 544.044 599.884 545.44 599.884 546.836 599.884 546.836 600.582 548.232 600.582 548.93 600.582 549.628 601.28 548.93 601.28 549.628 601.978 550.326 601.28 551.024 601.978 551.722 601.978 553.118 601.978 553.816 601.978 554.514 601.978 555.91 601.978 556.608 601.28 557.306 601.28 559.4 601.28 560.796 601.28 562.89 601.978 564.286 602.676 564.984 602.676 565.682 603.374 567.078 604.072 568.474 604.072 570.568 603.374 571.266 603.374 571.964 603.374 574.058 601.978 574.756 601.978 575.454 601.28 576.85 601.28 578.246 600.582 579.642 600.582 580.34 600.582 582.434 600.582 583.132 601.28 583.83 601.28 584.528 601.28 584.528 601.978 585.226 601.28 585.924 601.978 586.622 602.676 587.32 602.676 588.018 602.676 590.112 601.978 591.508 601.978 592.206 601.978 592.904 601.978 594.3 601.978 595.696 602.676 595.696 603.374 595.696 604.072 595.696 604.77 596.394 605.468 597.092 605.468 598.488 605.468 599.186 605.468 599.186 604.77 599.884 604.77 601.978 603.374 602.676 602.676 603.374 602.676 605.468 602.676 606.864 602.676 607.562 602.676 607.562 603.374 609.656 603.374 609.656 604.072 611.052 604.77 612.448 604.77 613.146 604.77 615.24 604.77 616.636 604.77 617.334 605.468 Z" id="CA.SK.47012" fill="#cee3f5" stroke="#6e6e6e" stroke-width="0.4">
      <desc>
        <feduid>47012</feduid>
        <name>Souris - Moose Mountain</name>
        <prname>Saskatchewan</prname>
        <fedfname>Souris - Moose Mountain</fedfname>
        <pruid>47</pruid>
        <fedename>Souris - Moose Mountain</fedename>
        <id>CA.SK.47012</id>
        <fedname>Souris - Moose Mountain</fedname>
      </desc>
    </path>
    <path d="M 518.916 449.814 504.956 449.814 493.788 449.814 480.526 449.814 472.848 449.814 472.848 450.512 472.848 453.304 472.848 457.492 472.848 466.566 463.774 466.566 456.096 466.566 446.324 466.566 435.854 466.566 429.572 466.566 427.478 466.566 419.102 466.566 402.35 466.566 398.162 466.566 389.786 466.566 390.484 460.982 389.786 458.19 389.088 458.19 388.39 453.304 389.088 451.21 388.39 447.72 388.39 447.022 379.316 447.022 379.316 449.814 375.826 449.814 362.564 449.814 359.772 449.814 358.376 449.814 342.322 449.814 341.624 450.512 340.926 449.814 340.228 449.814 338.832 450.512 336.738 451.21 336.04 451.21 335.342 451.21 334.644 451.21 333.946 450.512 331.852 451.21 331.154 450.512 329.758 451.21 329.758 449.116 329.758 445.626 329.758 444.928 329.758 440.042 329.758 437.948 329.758 435.854 329.06 435.156 328.362 434.458 329.06 433.76 328.362 433.062 328.362 432.364 327.664 432.364 325.57 432.364 323.476 432.364 322.778 433.062 321.382 433.062 320.684 433.76 317.892 434.458 316.496 434.458 315.798 435.156 315.1 436.552 313.704 437.948 313.006 438.646 303.234 438.646 301.838 438.646 301.838 433.062 301.838 431.666 301.838 426.78 301.838 421.894 308.12 421.894 321.382 421.894 321.382 422.592 326.268 422.592 331.154 422.592 330.456 419.102 331.154 417.008 335.342 417.008 335.342 417.706 337.436 417.706 337.436 417.008 345.114 417.008 345.114 414.914 345.114 413.518 345.114 407.236 345.114 405.142 354.188 405.142 368.148 405.142 379.316 405.142 386.994 405.142 386.994 414.914 386.994 418.404 386.994 421.894 388.39 421.894 388.39 428.874 388.39 429.572 389.786 429.572 389.786 430.27 391.182 430.27 391.88 430.27 393.276 430.27 393.974 430.27 393.276 430.968 393.974 431.666 394.672 430.968 394.672 430.27 395.37 430.27 396.068 430.968 396.766 431.666 396.766 432.364 396.068 433.062 396.766 433.76 397.464 434.458 398.86 434.458 399.558 434.458 400.256 435.156 401.652 435.854 402.35 436.552 403.048 436.552 403.048 435.156 403.746 435.156 403.746 435.854 404.444 435.854 404.444 435.156 403.746 435.156 404.444 434.458 405.142 434.458 407.236 434.458 407.236 433.76 407.236 433.062 407.236 432.364 408.632 432.364 409.33 431.666 410.028 431.666 410.726 431.666 411.424 431.666 412.122 430.968 412.82 430.968 413.518 431.666 414.216 431.666 415.612 430.968 417.008 430.27 417.706 430.27 419.8 430.27 420.498 430.968 421.196 430.27 421.894 429.572 423.29 429.572 423.988 429.572 425.384 430.27 426.082 430.27 427.478 429.572 427.478 428.874 428.176 429.572 428.874 428.874 429.572 428.176 430.27 428.176 430.968 427.478 431.666 427.478 433.062 427.478 433.76 426.78 435.854 426.78 437.25 426.78 437.948 427.478 440.74 427.478 441.438 426.082 442.136 426.082 443.532 426.78 444.928 426.78 445.626 426.082 447.022 426.082 447.72 426.082 448.418 425.384 450.512 426.082 451.21 426.082 451.21 426.78 452.606 426.082 452.606 425.384 453.304 424.686 454.002 425.384 454.7 425.384 454.002 424.686 454.002 423.988 454.7 423.29 454.7 421.894 456.096 421.196 456.096 419.8 456.794 419.8 458.19 419.8 458.888 419.8 458.888 419.102 458.888 417.706 459.586 417.706 460.982 417.008 460.982 416.31 460.284 415.612 460.982 415.612 462.378 415.612 464.472 415.612 465.17 415.612 467.264 414.914 470.754 413.518 471.452 412.82 472.15 412.122 472.848 411.424 474.244 411.424 475.64 411.424 477.036 411.424 477.734 410.726 477.734 410.028 476.338 408.632 476.338 407.934 476.338 407.236 477.036 406.538 479.13 405.84 480.526 405.84 484.016 405.142 487.506 405.142 488.902 405.142 490.298 405.142 493.09 404.444 493.788 404.444 495.184 403.746 495.184 402.35 495.882 401.652 496.58 401.652 500.07 401.652 500.768 400.954 501.466 400.256 502.164 400.256 503.56 399.558 504.956 400.256 505.654 400.256 507.05 398.86 508.446 399.558 509.842 399.558 513.332 398.86 514.728 398.162 515.426 396.766 516.822 396.068 517.52 395.37 518.218 396.068 518.218 397.464 518.218 400.256 518.218 407.236 518.218 417.008 518.218 421.894 518.916 421.894 518.916 426.082 518.916 426.78 519.614 426.78 520.312 428.176 521.708 428.874 521.01 428.874 522.406 430.968 523.104 430.968 524.5 432.364 525.896 433.062 521.708 433.062 518.916 433.062 518.916 440.042 518.916 444.23 518.916 449.814 Z" id="CA.SK.47006" fill="#cee3f5" stroke="#6e6e6e" stroke-width="0.4">
      <desc>
        <feduid>47006</feduid>
        <name>Prince Albert</name>
        <prname>Saskatchewan</prname>
        <fedfname>Prince Albert</fedfname>
        <pruid>47</pruid>
        <fedename>Prince Albert</fedename>
        <id>CA.SK.47006</id>
        <fedname>Prince Albert</fedname>
      </desc>
    </path>
    <path d="M 266.24 532.876 265.542 533.574 264.844 534.272 263.448 534.272 262.75 535.668 262.052 536.366 262.052 537.064 262.052 537.762 262.052 538.46 262.052 540.554 261.354 542.648 260.656 543.346 260.656 544.044 261.354 544.742 261.354 545.44 263.448 545.44 264.844 546.138 266.24 546.138 266.24 546.836 266.938 547.534 267.636 548.93 267.636 550.326 268.334 551.024 269.032 551.722 270.428 551.722 271.126 552.42 272.522 553.118 273.22 553.816 273.918 553.816 275.314 554.514 276.012 555.91 276.71 557.306 277.408 558.702 278.804 560.098 280.2 561.494 282.294 562.89 282.992 563.588 284.388 564.286 287.18 564.984 288.576 564.984 289.972 565.682 289.972 566.38 292.764 566.38 295.556 566.38 303.234 566.38 303.234 571.964 303.234 576.85 303.234 577.548 303.234 584.528 303.234 585.924 303.234 590.112 303.234 592.206 303.234 594.998 303.234 596.394 303.234 599.186 308.12 599.186 315.1 599.186 317.892 599.186 329.758 599.186 329.758 604.77 329.758 607.562 329.758 615.24 329.758 615.938 329.758 620.126 329.758 626.408 329.758 635.482 329.758 636.18 329.758 643.858 329.758 649.442 331.154 649.442 336.738 649.442 347.906 649.442 351.396 649.442 351.396 655.026 351.396 656.422 351.396 661.308 351.396 662.006 351.396 666.194 352.792 666.194 352.792 668.986 354.188 669.684 355.584 669.684 356.98 670.382 359.074 669.684 359.772 670.382 361.866 670.382 363.96 670.382 364.658 671.08 366.054 671.08 366.752 671.778 368.148 672.476 368.846 673.174 370.242 674.57 370.242 677.362 366.054 677.362 361.168 677.362 361.168 682.248 352.792 682.248 352.792 687.832 354.886 687.832 354.886 688.53 354.886 699 347.208 699 329.758 699 313.006 699 295.556 699 280.2 699 262.75 699 250.186 699 234.83 699 219.474 699 202.722 699 186.668 699 175.5 699 167.124 699 152.466 699 139.902 699 123.848 699 112.68 699 100.814 699 91.042 699 75.686 699 75.686 692.02 75.686 682.946 75.686 673.872 75.686 662.006 75.686 655.026 75.686 643.858 75.686 638.274 75.686 632.69 75.686 621.522 75.686 620.126 75.686 618.032 75.686 613.146 75.686 608.958 75.686 606.864 75.686 600.582 75.686 590.112 75.686 586.622 75.686 583.132 75.686 577.548 75.686 574.756 75.686 566.38 75.686 555.212 75.686 549.628 80.572 549.628 93.136 549.628 96.626 549.628 98.72 549.628 106.398 549.628 109.888 549.628 124.546 549.628 129.432 549.628 137.808 549.628 144.09 549.628 149.674 549.628 165.728 549.628 169.218 549.628 172.01 549.628 181.782 549.628 197.138 549.628 203.42 549.628 212.494 549.628 222.964 549.628 222.964 540.554 222.266 534.272 222.964 532.876 229.944 532.876 238.32 532.876 252.978 532.876 257.864 532.876 266.24 532.876 Z" id="CA.SK.47004" fill="#cee3f5" stroke="#6e6e6e" stroke-width="0.4">
      <desc>
        <feduid>47004</feduid>
        <name>Cypress Hills - Grasslands</name>
        <prname>Saskatchewan</prname>
        <fedfname>Cypress Hills - Grasslands</fedfname>
        <pruid>47</pruid>
        <fedename>Cypress Hills - Grasslands</fedename>
        <id>CA.SK.47004</id>
        <fedname>Cypress Hills - Grasslands</fedname>
      </desc>
    </path>
    <path d="M 604.77 449.814 584.528 449.814 577.548 449.814 564.984 449.814 549.628 449.814 537.064 449.814 518.916 449.814 518.916 444.23 518.916 440.042 518.916 433.062 521.708 433.062 525.896 433.062 524.5 432.364 523.104 430.968 522.406 430.968 521.01 428.874 521.708 428.874 520.312 428.176 519.614 426.78 518.916 426.78 518.916 426.082 518.916 421.894 518.218 421.894 518.218 417.008 518.218 407.236 518.218 400.256 518.218 397.464 518.218 396.068 517.52 395.37 516.822 396.068 515.426 396.766 514.728 398.162 513.332 398.86 509.842 399.558 508.446 399.558 507.05 398.86 505.654 400.256 504.956 400.256 503.56 399.558 502.164 400.256 501.466 400.256 500.768 400.954 500.07 401.652 496.58 401.652 495.882 401.652 495.184 402.35 495.184 403.746 493.788 404.444 493.09 404.444 490.298 405.142 488.902 405.142 487.506 405.142 484.016 405.142 480.526 405.84 479.13 405.84 477.036 406.538 476.338 407.236 476.338 407.934 476.338 408.632 477.734 410.028 477.734 410.726 477.036 411.424 475.64 411.424 474.244 411.424 472.848 411.424 472.15 412.122 471.452 412.82 470.754 413.518 467.264 414.914 465.17 415.612 464.472 415.612 462.378 415.612 460.982 415.612 460.284 415.612 460.982 416.31 460.982 417.008 459.586 417.706 458.888 417.706 458.888 419.102 458.888 419.8 458.19 419.8 456.794 419.8 456.096 419.8 456.096 421.196 454.7 421.894 454.7 423.29 454.002 423.988 454.002 424.686 454.7 425.384 454.002 425.384 453.304 424.686 452.606 425.384 452.606 426.082 451.21 426.78 451.21 426.082 450.512 426.082 448.418 425.384 447.72 426.082 447.022 426.082 445.626 426.082 444.928 426.78 443.532 426.78 442.136 426.082 441.438 426.082 440.74 427.478 437.948 427.478 437.25 426.78 435.854 426.78 433.76 426.78 433.062 427.478 431.666 427.478 430.968 427.478 430.27 428.176 429.572 428.176 428.874 428.874 428.176 429.572 427.478 428.874 427.478 429.572 426.082 430.27 425.384 430.27 423.988 429.572 423.29 429.572 421.894 429.572 421.196 430.27 420.498 430.968 419.8 430.27 417.706 430.27 417.008 430.27 415.612 430.968 414.216 431.666 413.518 431.666 412.82 430.968 412.122 430.968 411.424 431.666 410.726 431.666 410.028 431.666 409.33 431.666 408.632 432.364 407.236 432.364 407.236 433.062 407.236 433.76 407.236 434.458 405.142 434.458 404.444 434.458 403.746 435.156 404.444 435.156 404.444 435.854 403.746 435.854 403.746 435.156 403.048 435.156 403.048 436.552 402.35 436.552 401.652 435.854 400.256 435.156 399.558 434.458 398.86 434.458 397.464 434.458 396.766 433.76 396.068 433.062 396.766 432.364 396.766 431.666 396.068 430.968 395.37 430.27 394.672 430.27 394.672 430.968 393.974 431.666 393.276 430.968 393.974 430.27 393.276 430.27 391.88 430.27 391.182 430.27 389.786 430.27 389.786 429.572 388.39 429.572 388.39 428.874 388.39 421.894 386.994 421.894 386.994 418.404 386.994 414.914 386.994 405.142 379.316 405.142 368.148 405.142 354.188 405.142 345.114 405.142 345.114 407.236 345.114 413.518 345.114 414.914 345.114 417.008 337.436 417.008 337.436 417.706 335.342 417.706 335.342 417.008 331.154 417.008 330.456 419.102 331.154 422.592 326.268 422.592 321.382 422.592 321.382 421.894 308.12 421.894 301.838 421.894 301.838 426.78 301.838 431.666 301.838 433.062 296.952 433.062 284.388 433.062 283.69 438.646 281.596 438.646 274.616 438.646 274.616 433.062 261.354 433.062 250.884 433.062 234.132 433.062 233.434 433.062 231.34 433.062 218.078 433.062 218.078 430.27 218.078 423.988 218.078 421.894 217.38 421.894 217.38 420.498 217.38 417.706 200.628 417.706 189.46 417.706 188.064 417.706 188.064 417.008 189.46 415.612 190.158 414.914 192.252 413.518 190.856 413.518 190.158 414.216 188.762 414.216 188.762 413.518 188.064 412.82 188.064 412.122 189.46 410.726 190.158 410.028 190.158 409.33 192.252 407.236 192.95 407.236 192.95 405.84 179.688 405.84 170.614 405.84 170.614 400.256 159.446 400.256 159.446 394.672 145.486 394.672 131.526 394.672 121.754 394.672 101.512 394.672 88.25 394.672 75.686 394.672 75.686 382.108 75.686 372.336 75.686 366.752 75.686 364.658 75.686 361.168 75.686 350 75.686 342.322 75.686 334.644 75.686 321.382 75.686 313.704 76.384 306.724 76.384 297.65 76.384 290.67 76.384 279.502 76.384 271.126 76.384 263.448 76.384 255.072 76.384 249.488 76.384 240.414 76.384 232.038 76.384 223.662 76.384 211.796 76.384 202.024 76.384 196.44 76.384 184.574 76.384 175.5 76.384 163.634 76.384 155.956 76.384 144.09 76.384 131.526 76.384 125.244 76.384 114.774 76.384 105.002 76.384 95.928 76.384 89.646 76.384 80.572 76.384 73.592 76.384 64.518 76.384 49.162 76.384 40.088 76.384 34.504 76.384 26.826 76.384 16.356 76.384 9.376 76.384 1 91.74 1 107.794 1 123.848 1 139.902 1 155.258 1 171.312 1 187.366 1 202.722 1 218.776 1 234.83 1 250.884 1 266.24 1 282.294 1 298.348 1 314.402 1 329.758 1 345.812 1 361.866 1 377.222 1 393.276 1 409.33 1 425.384 1 440.74 1 456.794 1 472.848 1 488.902 1 504.258 1 520.312 1 536.366 1 551.722 1 567.776 1 583.83 1 583.83 15.658 583.83 28.92 583.83 35.202 583.83 44.974 583.83 55.444 583.83 65.216 583.83 73.592 583.83 80.572 583.83 88.948 583.83 98.022 583.83 105.002 583.83 111.982 583.83 119.66 583.83 130.828 583.83 136.412 583.83 148.976 583.83 158.05 583.83 170.614 583.83 180.386 583.83 192.95 583.83 199.232 583.83 208.306 583.83 218.078 583.83 226.454 583.83 234.132 583.83 240.414 583.83 248.79 583.83 258.562 583.83 266.938 586.622 266.938 586.622 278.804 586.622 289.274 589.414 289.274 589.414 298.348 588.716 301.14 588.716 311.61 591.508 311.61 591.508 322.778 591.508 331.154 590.81 333.248 593.602 333.248 593.602 334.644 593.602 340.228 593.602 351.396 592.904 355.584 595.696 355.584 595.696 361.866 595.696 368.846 595.696 377.92 598.488 377.92 598.488 383.504 598.488 393.276 598.488 400.256 599.884 400.256 600.582 407.236 600.582 413.518 600.582 422.592 602.676 422.592 602.676 429.572 602.676 435.854 602.676 444.928 604.77 444.928 604.77 449.814 Z" id="CA.SK.47003" fill="#cee3f5" stroke="#6e6e6e" stroke-width="0.4">
      <desc>
        <feduid>47003</feduid>
        <name>Desneth - Missinippi - Churchill River / Desneth - Missinippi - Rivire Churchill</name>
        <prname>Saskatchewan</prname>
        <fedfname>Desneth - Missinippi - Rivire Churchill</fedfname>
        <pruid>47</pruid>
        <fedename>Desneth - Missinippi - Churchill River</fedename>
        <id>CA.SK.47003</id>
        <fedname>Desneth - Missinippi - Churchill River / Desneth - Missinippi - Rivire Churchill</fedname>
      </desc>
    </path>
    <path d="M 426.082 516.124 425.384 517.52 424.686 518.916 423.988 519.614 423.29 519.614 423.29 520.312 421.894 520.312 422.592 521.01 423.29 521.01 423.29 522.406 422.592 522.406 421.196 522.406 421.196 527.292 421.196 529.386 421.196 532.876 417.008 532.876 406.538 532.876 400.256 532.876 396.068 532.876 381.41 532.876 377.92 532.876 360.47 532.876 356.282 532.876 354.188 532.876 343.718 532.876 342.322 532.876 342.322 541.95 342.322 544.044 342.322 549.628 330.456 549.628 329.758 549.628 323.476 549.628 315.1 549.628 303.234 549.628 303.234 550.326 303.234 555.212 303.234 566.38 295.556 566.38 292.764 566.38 289.972 566.38 289.972 565.682 288.576 564.984 287.18 564.984 284.388 564.286 282.992 563.588 282.294 562.89 280.2 561.494 278.804 560.098 277.408 558.702 276.71 557.306 276.012 555.91 275.314 554.514 273.918 553.816 273.22 553.816 272.522 553.118 271.126 552.42 270.428 551.722 269.032 551.722 268.334 551.024 267.636 550.326 267.636 548.93 266.938 547.534 266.24 546.836 266.24 546.138 264.844 546.138 263.448 545.44 261.354 545.44 261.354 544.742 260.656 544.044 260.656 543.346 261.354 542.648 262.052 540.554 262.052 538.46 262.052 537.762 262.052 537.064 262.052 536.366 262.75 535.668 263.448 534.272 264.844 534.272 265.542 533.574 266.24 532.876 267.636 531.48 268.334 530.084 269.032 530.084 270.428 529.386 271.824 529.386 273.918 528.688 276.012 527.99 277.408 527.99 278.804 527.292 279.502 526.594 279.502 525.896 279.502 524.5 280.898 523.802 280.898 523.104 281.596 522.406 282.992 521.01 283.69 519.614 283.69 518.218 282.294 516.822 282.294 515.426 282.294 514.728 280.898 514.03 282.294 513.332 282.294 512.634 280.898 512.634 279.502 511.936 278.804 511.238 280.2 510.54 280.898 510.54 281.596 509.842 281.596 509.144 282.294 509.144 283.69 509.842 284.388 509.842 285.086 508.446 285.086 507.748 284.388 506.352 283.69 504.956 283.69 504.258 283.69 503.56 286.482 502.164 287.18 501.466 294.16 501.466 293.462 500.768 294.16 500.768 295.556 500.07 296.254 499.372 309.516 499.372 320.684 499.372 330.456 499.372 340.228 499.372 349.302 499.372 361.866 499.372 379.316 499.372 390.484 500.07 393.276 499.372 393.276 503.56 393.276 507.05 393.276 509.144 393.276 510.54 394.672 510.54 394.672 514.728 394.672 516.124 401.652 516.124 411.424 516.124 414.216 516.124 426.082 516.124 Z" id="CA.SK.47002" fill="#cee3f5" stroke="#6e6e6e" stroke-width="0.4">
      <desc>
        <feduid>47002</feduid>
        <name>Blackstrap</name>
        <prname>Saskatchewan</prname>
        <fedfname>Blackstrap</fedfname>
        <pruid>47</pruid>
        <fedename>Blackstrap</fedename>
        <id>CA.SK.47002</id>
        <fedname>Blackstrap</fedname>
      </desc>
    </path>
    <path d="M 416.31 607.562 417.706 606.864 417.706 619.428 417.706 621.522 417.008 622.22 417.706 627.106 417.008 632.69 407.236 632.69 401.652 632.69 401.652 643.858 403.048 643.858 403.048 647.348 403.048 649.442 387.692 649.442 377.222 649.442 376.524 649.442 363.262 649.442 359.772 649.442 356.98 649.442 351.396 649.442 347.906 649.442 336.738 649.442 331.154 649.442 329.758 649.442 329.758 643.858 329.758 636.18 329.758 635.482 329.758 626.408 329.758 620.126 329.758 615.938 329.758 615.24 329.758 607.562 329.758 604.77 329.758 599.186 331.154 599.186 348.604 599.186 357.678 599.186 360.47 599.186 368.846 599.186 380.712 599.186 389.786 599.186 399.558 599.186 400.256 599.186 400.256 608.958 416.31 607.562 Z" id="CA.SK.47005" fill="#cee3f5" stroke="#6e6e6e" stroke-width="0.4">
      <desc>
        <feduid>47005</feduid>
        <name>Palliser</name>
        <prname>Saskatchewan</prname>
        <fedfname>Palliser</fedfname>
        <pruid>47</pruid>
        <fedename>Palliser</fedename>
        <id>CA.SK.47005</id>
        <fedname>Palliser</fedname>
      </desc>
    </path>
    <path d="M 604.77 449.814 604.77 454.7 604.77 456.096 604.77 463.774 604.77 466.566 606.864 466.566 606.864 472.848 606.864 477.036 606.864 487.506 606.864 488.902 608.26 488.902 608.26 492.392 608.958 494.486 608.26 495.882 608.26 496.58 608.26 502.862 608.26 510.54 610.354 510.54 610.354 513.332 610.354 514.728 610.354 520.312 610.354 527.292 610.354 530.782 611.052 530.782 611.052 536.366 611.052 541.95 611.052 546.836 611.052 550.326 611.052 553.118 613.146 553.118 613.146 558.004 613.146 560.098 613.146 565.682 613.146 571.964 613.146 572.662 613.146 575.454 615.24 575.454 615.24 581.038 615.24 589.414 614.542 597.79 617.334 597.79 617.334 602.676 617.334 605.468 616.636 604.77 615.24 604.77 613.146 604.77 612.448 604.77 611.052 604.77 609.656 604.072 609.656 603.374 607.562 603.374 607.562 602.676 606.864 602.676 605.468 602.676 603.374 602.676 602.676 602.676 601.978 603.374 599.884 604.77 599.186 604.77 599.186 605.468 598.488 605.468 597.092 605.468 596.394 605.468 595.696 604.77 595.696 604.072 595.696 603.374 595.696 602.676 594.3 601.978 592.904 601.978 592.206 601.978 591.508 601.978 590.112 601.978 588.018 602.676 587.32 602.676 586.622 602.676 585.924 601.978 585.226 601.28 584.528 601.978 584.528 601.28 583.83 601.28 583.132 601.28 582.434 600.582 580.34 600.582 579.642 600.582 578.246 600.582 576.85 601.28 575.454 601.28 574.756 601.978 574.058 601.978 571.964 603.374 571.266 603.374 570.568 603.374 568.474 604.072 567.078 604.072 565.682 603.374 564.984 602.676 564.286 602.676 562.89 601.978 560.796 601.28 559.4 601.28 557.306 601.28 556.608 601.28 555.91 601.978 554.514 601.978 553.816 601.978 553.118 601.978 551.722 601.978 551.024 601.978 550.326 601.28 549.628 601.978 548.93 601.28 549.628 601.28 548.93 600.582 548.232 600.582 546.836 600.582 546.836 599.884 545.44 599.884 544.044 599.884 543.346 598.488 542.648 598.488 541.95 598.488 541.252 598.488 541.252 597.79 539.856 597.092 538.46 597.092 537.762 597.092 537.064 597.092 534.97 597.79 534.272 597.79 534.272 597.092 533.574 597.092 532.876 596.394 533.574 595.696 532.876 595.696 531.48 594.998 530.084 594.998 528.688 594.998 527.292 594.998 525.896 594.998 525.896 595.696 524.5 595.696 523.802 596.394 521.708 597.092 521.01 597.79 520.312 597.79 519.614 598.488 518.916 598.488 518.218 598.488 517.52 599.186 516.822 599.884 515.426 600.582 514.728 600.582 514.728 601.28 513.332 601.28 512.634 601.978 511.936 601.978 510.54 601.978 509.842 602.676 509.144 601.978 508.446 602.676 507.748 601.978 506.352 601.978 505.654 601.978 504.956 601.978 504.956 599.186 504.258 599.186 504.258 598.488 503.56 598.488 503.56 597.092 503.56 592.904 503.56 587.32 503.56 583.132 503.56 581.038 502.164 581.038 502.164 579.642 502.164 575.454 502.862 575.454 502.862 573.36 502.862 569.172 502.862 558.702 502.862 553.118 502.862 547.534 495.184 547.534 488.902 547.534 478.432 547.534 475.64 547.534 475.64 541.252 475.64 536.366 475.64 532.876 475.64 530.782 475.64 527.99 475.64 526.594 475.64 521.708 475.64 519.614 474.942 519.614 474.942 518.916 474.942 517.52 475.64 517.52 475.64 516.124 474.942 516.124 463.774 516.124 448.418 516.124 448.418 514.03 448.418 510.54 447.022 510.54 447.022 509.144 447.72 508.446 447.72 503.56 447.72 495.882 447.72 491.694 447.72 488.902 446.324 488.902 446.324 477.734 446.324 470.754 447.72 470.754 447.72 469.358 447.022 469.358 447.72 470.056 447.022 470.056 446.324 470.754 446.324 469.358 446.324 466.566 456.096 466.566 463.774 466.566 472.848 466.566 472.848 457.492 472.848 453.304 472.848 450.512 472.848 449.814 480.526 449.814 493.788 449.814 504.956 449.814 518.916 449.814 537.064 449.814 549.628 449.814 564.984 449.814 577.548 449.814 584.528 449.814 604.77 449.814 Z" id="CA.SK.47014" fill="#cee3f5" stroke="#6e6e6e" stroke-width="0.4">
      <desc>
        <feduid>47014</feduid>
        <name>Yorkton - Melville</name>
        <prname>Saskatchewan</prname>
        <fedfname>Yorkton - Melville</fedfname>
        <pruid>47</pruid>
        <fedename>Yorkton - Melville</fedename>
        <id>CA.SK.47014</id>
        <fedname>Yorkton - Melville</fedname>
      </desc>
    </path>
    <path d="M 211.098 472.848 212.494 472.848 213.89 473.546 214.588 474.942 215.984 475.64 216.682 475.64 219.474 476.338 220.172 477.036 221.568 477.734 222.964 477.734 225.058 479.13 226.454 479.828 227.85 480.526 229.246 481.224 229.944 481.922 232.038 483.318 234.83 484.016 235.528 484.016 237.622 484.714 238.32 485.412 239.018 486.11 240.414 486.808 241.81 486.808 244.602 486.11 248.092 486.808 250.186 486.808 251.582 486.808 252.978 486.808 254.374 486.11 255.77 486.11 256.468 485.412 257.166 485.412 258.562 485.412 259.26 486.11 267.636 486.11 269.032 486.11 271.126 487.506 275.314 489.6 275.314 499.372 285.086 499.372 286.482 499.372 287.18 498.674 287.18 500.768 287.18 501.466 286.482 502.164 283.69 503.56 283.69 504.258 283.69 504.956 284.388 506.352 285.086 507.748 285.086 508.446 284.388 509.842 283.69 509.842 282.294 509.144 281.596 509.144 281.596 509.842 280.898 510.54 280.2 510.54 278.804 511.238 279.502 511.936 280.898 512.634 282.294 512.634 282.294 513.332 280.898 514.03 282.294 514.728 282.294 515.426 282.294 516.822 283.69 518.218 283.69 519.614 282.992 521.01 281.596 522.406 280.898 523.104 280.898 523.802 279.502 524.5 279.502 525.896 279.502 526.594 278.804 527.292 277.408 527.99 276.012 527.99 273.918 528.688 271.824 529.386 270.428 529.386 269.032 530.084 268.334 530.084 267.636 531.48 266.24 532.876 257.864 532.876 252.978 532.876 238.32 532.876 229.944 532.876 222.964 532.876 222.266 534.272 222.964 540.554 222.964 549.628 212.494 549.628 203.42 549.628 197.138 549.628 181.782 549.628 172.01 549.628 169.218 549.628 169.218 540.554 169.218 534.97 169.218 532.876 167.822 532.876 167.822 521.708 167.822 518.218 167.822 516.124 176.896 516.124 176.896 510.54 175.5 510.54 175.5 509.144 175.5 500.768 175.5 500.07 178.292 500.07 178.99 499.372 180.386 500.07 180.386 499.372 181.782 500.07 182.48 500.07 183.876 500.07 184.574 500.07 185.97 500.07 185.272 500.768 187.366 500.768 188.762 500.768 189.46 500.768 190.158 500.768 190.856 500.768 190.856 501.466 192.252 501.466 192.95 502.164 193.648 502.164 193.648 496.58 193.648 488.902 192.95 488.902 192.95 483.318 192.95 481.922 199.232 481.922 199.232 477.734 202.024 477.734 202.024 472.15 204.118 472.848 204.816 472.848 204.816 472.15 206.212 472.15 208.306 472.848 211.098 472.848 Z" id="CA.SK.47010" fill="#cee3f5" stroke="#6e6e6e" stroke-width="0.4">
      <desc>
        <feduid>47010</feduid>
        <name>Saskatoon - Rosetown - Biggar</name>
        <prname>Saskatchewan</prname>
        <fedfname>Saskatoon - Rosetown - Biggar</fedfname>
        <pruid>47</pruid>
        <fedename>Saskatoon - Rosetown - Biggar</fedename>
        <id>CA.SK.47010</id>
        <fedname>Saskatoon - Rosetown - Biggar</fedname>
      </desc>
    </path>
    <path d="M 421.196 532.876 422.592 532.876 422.592 538.46 422.592 546.836 422.592 555.212 423.988 555.212 423.988 556.608 423.988 562.89 423.988 564.286 423.988 566.38 423.988 569.87 423.988 571.964 423.988 577.548 425.384 577.548 425.384 581.038 425.384 585.924 426.78 585.924 426.78 588.018 425.384 588.018 425.384 595.696 425.384 599.186 417.706 599.186 417.706 603.374 416.31 603.374 416.31 606.166 416.31 607.562 400.256 608.958 400.256 599.186 399.558 599.186 389.786 599.186 380.712 599.186 368.846 599.186 360.47 599.186 357.678 599.186 348.604 599.186 331.154 599.186 329.758 599.186 317.892 599.186 315.1 599.186 308.12 599.186 303.234 599.186 303.234 596.394 303.234 594.998 303.234 592.206 303.234 590.112 303.234 585.924 303.234 584.528 303.234 577.548 303.234 576.85 303.234 571.964 303.234 566.38 303.234 555.212 303.234 550.326 303.234 549.628 315.1 549.628 323.476 549.628 329.758 549.628 330.456 549.628 342.322 549.628 342.322 544.044 342.322 541.95 342.322 532.876 343.718 532.876 354.188 532.876 356.282 532.876 360.47 532.876 377.92 532.876 381.41 532.876 396.068 532.876 400.256 532.876 406.538 532.876 417.008 532.876 421.196 532.876 Z" id="CA.SK.47007" fill="#cee3f5" stroke="#6e6e6e" stroke-width="0.4">
      <desc>
        <feduid>47007</feduid>
        <name>Regina - Lumsden - Lake Centre</name>
        <prname>Saskatchewan</prname>
        <fedfname>Regina - Lumsden - Lake Centre</fedfname>
        <pruid>47</pruid>
        <fedename>Regina - Lumsden - Lake Centre</fedename>
        <id>CA.SK.47007</id>
        <fedname>Regina - Lumsden - Lake Centre</fedname>
      </desc>
    </path>
    <path d="M 448.418 516.124 463.774 516.124 474.942 516.124 475.64 516.124 475.64 517.52 474.942 517.52 474.942 518.916 474.942 519.614 475.64 519.614 475.64 521.708 475.64 526.594 475.64 527.99 475.64 530.782 475.64 532.876 475.64 536.366 475.64 541.252 475.64 547.534 478.432 547.534 488.902 547.534 495.184 547.534 502.862 547.534 502.862 553.118 502.862 558.702 502.862 569.172 502.862 573.36 502.862 575.454 502.164 575.454 502.164 579.642 502.164 581.038 503.56 581.038 503.56 583.132 503.56 587.32 503.56 592.904 503.56 597.092 503.56 598.488 504.258 598.488 504.258 599.186 504.956 599.186 504.956 601.978 504.956 607.562 504.956 608.958 504.956 610.354 495.882 610.354 482.62 610.354 479.828 610.354 475.64 610.354 470.056 610.354 465.17 610.354 460.982 610.354 454.002 610.354 448.418 610.354 437.25 610.354 426.082 610.354 426.082 607.562 423.29 607.562 423.29 606.166 417.706 606.864 416.31 607.562 416.31 606.166 416.31 603.374 417.706 603.374 417.706 599.186 425.384 599.186 425.384 595.696 425.384 588.018 426.78 588.018 426.78 585.924 425.384 585.924 425.384 581.038 425.384 577.548 423.988 577.548 423.988 571.964 423.988 569.87 423.988 566.38 423.988 564.286 423.988 562.89 423.988 556.608 423.988 555.212 422.592 555.212 422.592 546.836 422.592 538.46 422.592 532.876 421.196 532.876 421.196 529.386 421.196 527.292 421.196 522.406 422.592 522.406 423.29 522.406 423.29 521.01 422.592 521.01 421.894 520.312 423.29 520.312 423.29 519.614 423.988 519.614 424.686 518.916 425.384 517.52 426.082 516.124 439.344 516.124 448.418 516.124 Z" id="CA.SK.47008" fill="#cee3f5" stroke="#6e6e6e" stroke-width="0.4">
      <desc>
        <feduid>47008</feduid>
        <name>Regina - Qu'Appelle</name>
        <prname>Saskatchewan</prname>
        <fedfname>Regina - Qu'Appelle</fedfname>
        <pruid>47</pruid>
        <fedename>Regina - Qu'Appelle</fedename>
        <id>CA.SK.47008</id>
        <fedname>Regina - Qu'Appelle</fedname>
      </desc>
    </path>
    <path d="M 218.078 433.062 218.078 435.156 218.078 437.25 218.078 442.834 218.078 444.23 219.474 444.23 219.474 449.814 209.702 449.814 209.702 460.284 209.702 463.774 209.702 466.566 211.098 466.566 211.098 472.848 208.306 472.848 206.212 472.15 204.816 472.15 204.816 472.848 204.118 472.848 202.024 472.15 202.024 477.734 199.232 477.734 199.232 481.922 192.95 481.922 192.95 483.318 192.95 488.902 193.648 488.902 193.648 496.58 193.648 502.164 192.95 502.164 192.252 501.466 190.856 501.466 190.856 500.768 190.158 500.768 189.46 500.768 188.762 500.768 187.366 500.768 185.272 500.768 185.97 500.07 184.574 500.07 183.876 500.07 182.48 500.07 181.782 500.07 180.386 499.372 180.386 500.07 178.99 499.372 178.292 500.07 175.5 500.07 175.5 500.768 175.5 509.144 175.5 510.54 176.896 510.54 176.896 516.124 167.822 516.124 167.822 518.218 167.822 521.708 167.822 532.876 169.218 532.876 169.218 534.97 169.218 540.554 169.218 549.628 165.728 549.628 149.674 549.628 144.09 549.628 137.808 549.628 129.432 549.628 124.546 549.628 109.888 549.628 106.398 549.628 98.72 549.628 96.626 549.628 93.136 549.628 80.572 549.628 75.686 549.628 75.686 544.044 75.686 542.648 75.686 538.46 75.686 532.876 75.686 531.48 75.686 527.292 75.686 521.708 75.686 520.312 75.686 516.124 75.686 504.956 75.686 495.882 75.686 491.694 75.686 487.506 75.686 481.224 75.686 475.64 75.686 470.754 75.686 466.566 75.686 459.586 75.686 457.492 75.686 454.002 75.686 452.606 75.686 446.324 75.686 443.532 75.686 441.438 75.686 431.666 75.686 426.082 75.686 414.914 75.686 411.424 75.686 406.538 75.686 405.84 75.686 399.558 75.686 394.672 88.25 394.672 101.512 394.672 121.754 394.672 131.526 394.672 145.486 394.672 159.446 394.672 159.446 400.256 170.614 400.256 170.614 405.84 179.688 405.84 192.95 405.84 192.95 407.236 192.252 407.236 190.158 409.33 190.158 410.028 189.46 410.726 188.064 412.122 188.064 412.82 188.762 413.518 188.762 414.216 190.158 414.216 190.856 413.518 192.252 413.518 190.158 414.914 189.46 415.612 188.064 417.008 188.064 417.706 189.46 417.706 200.628 417.706 217.38 417.706 217.38 420.498 217.38 421.894 218.078 421.894 218.078 423.988 218.078 430.27 218.078 433.062 Z" id="CA.SK.47001" fill="#cee3f5" stroke="#6e6e6e" stroke-width="0.4">
      <desc>
        <feduid>47001</feduid>
        <name>Battlefords - Lloydminster</name>
        <prname>Saskatchewan</prname>
        <fedfname>Battlefords - Lloydminster</fedfname>
        <pruid>47</pruid>
        <fedename>Battlefords - Lloydminster</fedename>
        <id>CA.SK.47001</id>
        <fedname>Battlefords - Lloydminster</fedname>
      </desc>
    </path>
  </g>
</svg>