<?xml version="1.0" encoding="UTF-8"?>
<svg xmlns="http://www.w3.org/2000/svg" width="700" height="700">
  <g id="inner_mongol">
    <path d="M 610.3409 302.1667 576.2178 308.2601 566.4684 304.2994 558.2423 295.464 540.2667 302.4714 517.7211 286.6285 499.7455 286.0192 489.3867 295.1593 477.1999 289.0659 462.2711 289.3706 454.3496 294.2453 445.8189 288.4566 450.9983 273.8324 473.2392 241.842 499.4409 249.7634 517.7211 240.014 535.0873 235.4439 535.0873 223.5618 546.6648 211.6796 553.9769 198.5788 568.2964 191.5714 569.5151 177.8612 554.8909 170.8538 575.6085 158.3623 588.7093 157.4483 596.3261 164.151 584.4439 176.0332 599.0681 183.0406 614.911 183.3453 622.8324 204.0629 631.9725 208.0236 670.0563 204.6722 681.9385 198.8835 699 215.031 678.8918 239.1 679.8058 254.6381 671.275 257.9895 662.4395 272.6137 651.1667 275.9651 629.5351 291.1986 610.3409 302.1667 Z" id="CN.inner_mongol.161769" fill="#cee3f5" stroke="#6e6e6e" stroke-width="0.4">
      <desc>
        <name>Hulunbuir</name>
        <admin_leve>5</admin_leve>
        <wikidata>Q571033</wikidata>
        <localname>Хөлөнбуйр / 呼伦贝尔市 / Hulunbuir</localname>
        <boundary>administrative</boundary>
        <id>CN.inner_mongol.161769</id>
      </desc>
    </path>
    <path d="M 195.3797 438.0498 196.2938 447.7992 202.3872 458.7674 217.9254 461.5094 235.2916 475.5242 232.2449 483.141 232.5495 494.7185 217.9254 500.2025 210.9179 512.9987 208.7852 532.4976 189.8957 539.2003 170.3968 542.5517 158.21 533.1069 151.5072 531.2789 157.2959 517.2641 171.0061 501.7259 162.1707 492.8904 150.5932 495.6325 142.0624 501.4212 129.2663 498.0698 111.9 512.0847 92.7058 505.3819 89.9638 494.4138 81.433 494.4138 75.6443 487.711 64.9808 482.8363 73.5116 472.4775 71.9882 458.7674 49.4426 458.158 29.0297 466.0794 28.725 458.158 19.8896 453.588 11.6635 444.4478 17.1475 439.5731 1 412.1528 25.6783 415.8088 57.364 417.6368 77.1676 414.8948 89.6591 415.1995 112.8141 419.4649 119.5168 426.1676 134.7503 427.9956 162.1707 436.2217 178.6229 434.3937 178.6229 439.5731 195.3797 438.0498 Z" id="CN.inner_mongol.2752743" fill="#cee3f5" stroke="#6e6e6e" stroke-width="0.4">
      <desc>
        <name>Alxa League</name>
        <admin_leve>5</admin_leve>
        <wikipedia>zh:阿拉善盟</wikipedia>
        <localname>Алшаа / 阿拉善盟 / Alxa</localname>
        <boundary>administrative</boundary>
        <id>CN.inner_mongol.2752743</id>
      </desc>
    </path>
    <path d="M 237.4243 502.6399 239.8616 498.6792 232.2449 483.141 235.2916 475.5242 241.9943 467.2981 258.7512 458.7674 297.1397 467.6028 318.4666 467.6028 326.388 472.4775 337.9655 473.6962 344.9729 478.8756 345.5823 488.6251 335.8328 490.4531 304.1471 502.3352 286.1715 520.0061 286.1715 529.4509 281.9062 535.5443 266.368 537.3723 261.7979 533.1069 233.4636 524.2715 228.5888 518.7874 237.4243 502.6399 Z" id="CN.inner_mongol.2752781" fill="#cee3f5" stroke="#6e6e6e" stroke-width="0.4">
      <desc>
        <admin_leve>5</admin_leve>
        <localname>Ордос / 鄂尔多斯市 / Ordos</localname>
        <boundary>administrative</boundary>
        <id>CN.inner_mongol.2752781</id>
        <name>Ordos City</name>
      </desc>
    </path>
    <path d="M 232.2449 483.141 239.8616 498.6792 237.4243 502.6399 232.5495 494.7185 232.2449 483.141 Z" id="CN.inner_mongol.2752805" fill="#cee3f5" stroke="#6e6e6e" stroke-width="0.4">
      <desc>
        <name>Wuhai City</name>
        <admin_leve>5</admin_leve>
        <wikipedia>zh:乌海市</wikipedia>
        <localname>Үхай / 乌海市 / Wuhai</localname>
        <boundary>administrative</boundary>
        <id>CN.inner_mongol.2752805</id>
      </desc>
    </path>
    <path d="M 195.3797 438.0498 233.4636 424.3396 249.6111 420.3789 282.8202 421.9022 296.2257 420.6835 298.9677 427.0816 293.4836 435.3077 308.4125 458.4627 296.5303 462.7281 297.1397 467.6028 258.7512 458.7674 241.9943 467.2981 235.2916 475.5242 217.9254 461.5094 202.3872 458.7674 196.2938 447.7992 195.3797 438.0498 Z" id="CN.inner_mongol.2752813" fill="#cee3f5" stroke="#6e6e6e" stroke-width="0.4">
      <desc>
        <name>Bayannur City</name>
        <admin_leve>5</admin_leve>
        <wikidata>Q571126</wikidata>
        <localname>Баяннуур / 巴彦淖尔市 / Bayannur</localname>
        <boundary>administrative</boundary>
        <id>CN.inner_mongol.2752813</id>
      </desc>
    </path>
    <path d="M 345.2776 447.7992 352.285 448.1039 362.6438 456.9393 360.2065 466.3841 366.6045 474.0009 357.4644 489.2344 345.5823 488.6251 344.9729 478.8756 337.9655 473.6962 330.3488 465.1654 326.6927 452.0646 328.2161 446.5805 345.2776 447.7992 Z" id="CN.inner_mongol.2752851" fill="#cee3f5" stroke="#6e6e6e" stroke-width="0.4">
      <desc>
        <name>Hohhot City</name>
        <admin_leve>5</admin_leve>
        <wikipedia>zh:呼和浩特</wikipedia>
        <localname>Хөх / 呼和浩特市 / Hohhot</localname>
        <boundary>administrative</boundary>
        <id>CN.inner_mongol.2752851</id>
      </desc>
    </path>
    <path d="M 296.2257 420.6835 319.0759 413.6761 327.9114 419.7695 337.0515 437.1357 345.2776 447.7992 328.2161 446.5805 326.6927 452.0646 330.3488 465.1654 337.9655 473.6962 326.388 472.4775 318.4666 467.6028 297.1397 467.6028 296.5303 462.7281 308.4125 458.4627 293.4836 435.3077 298.9677 427.0816 296.2257 420.6835 Z" id="CN.inner_mongol.2752954" fill="#cee3f5" stroke="#6e6e6e" stroke-width="0.4">
      <desc>
        <name>Baotou City</name>
        <admin_leve>5</admin_leve>
        <wikipedia>en:Baotou</wikipedia>
        <localname>Баяннуур / 包头市 / Baotou</localname>
        <boundary>administrative</boundary>
        <id>CN.inner_mongol.2752954</id>
      </desc>
    </path>
    <path d="M 319.0759 413.6761 338.8795 398.1379 355.9411 409.7154 359.5971 416.7228 371.7839 421.5976 386.4081 432.261 393.4155 427.691 404.993 430.1283 418.3985 427.0816 427.8433 427.9956 421.4452 428.3003 405.6024 444.1432 404.3837 453.8926 410.7818 461.8141 404.079 469.1261 377.268 475.8289 366.6045 474.0009 360.2065 466.3841 362.6438 456.9393 352.285 448.1039 345.2776 447.7992 337.0515 437.1357 327.9114 419.7695 319.0759 413.6761 Z" id="CN.inner_mongol.2752977" fill="#cee3f5" stroke="#6e6e6e" stroke-width="0.4">
      <desc>
        <name>Ulanqab City</name>
        <admin_leve>5</admin_leve>
        <wikipedia>zh:乌兰察布市</wikipedia>
        <localname>Улаанцав / 乌兰察布市 / Ulanqab</localname>
        <boundary>administrative</boundary>
        <id>CN.inner_mongol.2752977</id>
      </desc>
    </path>
    <path d="M 338.8795 398.1379 358.0738 390.5212 356.2457 384.7324 344.9729 374.6783 353.8084 359.4448 369.6512 357.3121 376.354 361.8821 398.5949 365.2335 416.8752 355.4841 420.8359 349.6953 448.5609 348.172 462.8804 340.2505 472.0205 327.1497 489.0821 325.931 511.6277 317.0956 531.1266 319.2283 550.3208 318.6189 548.7975 336.8992 543.9227 344.2113 539.6574 353.9607 523.2052 372.2409 499.7455 381.6857 488.7774 378.639 482.0746 382.9044 481.4653 391.7399 468.0598 400.88 466.2318 406.364 478.7233 421.5976 476.8952 431.347 454.045 432.8704 439.7254 438.6591 430.2807 435.9171 427.8433 427.9956 418.3985 427.0816 404.993 430.1283 393.4155 427.691 386.4081 432.261 371.7839 421.5976 359.5971 416.7228 355.9411 409.7154 338.8795 398.1379 Z" id="CN.inner_mongol.2753029" fill="#cee3f5" stroke="#6e6e6e" stroke-width="0.4">
      <desc>
        <name>Xilingol League</name>
        <admin_leve>5</admin_leve>
        <wikipedia>zh:锡林郭勒盟</wikipedia>
        <localname>Шилийн Гол / 锡林郭勒盟 / Xilingol</localname>
        <boundary>administrative</boundary>
        <id>CN.inner_mongol.2753029</id>
      </desc>
    </path>
    <path d="M 539.6574 353.9607 559.7656 371.0223 576.2178 391.1305 560.3749 406.9734 567.0777 419.4649 573.7804 425.2536 563.7263 428.9096 555.5002 437.1357 548.7975 426.1676 535.0873 425.2536 536.306 447.7992 512.8464 447.4945 507.3623 437.7451 510.7137 429.519 503.7062 425.8629 498.8315 416.4182 478.7233 421.5976 466.2318 406.364 468.0598 400.88 481.4653 391.7399 482.0746 382.9044 488.7774 378.639 499.7455 381.6857 523.2052 372.2409 539.6574 353.9607 Z" id="CN.inner_mongol.2753364" fill="#cee3f5" stroke="#6e6e6e" stroke-width="0.4">
      <desc>
        <name>Chifeng City</name>
        <admin_leve>5</admin_leve>
        <wikipedia>zh:赤峰市</wikipedia>
        <localname>Улаанхад / 赤峰市 / Chifeng</localname>
        <boundary>administrative</boundary>
        <id>CN.inner_mongol.2753364</id>
      </desc>
    </path>
    <path d="M 543.9227 344.2113 556.4142 344.5159 585.0533 361.8821 595.1074 372.2409 607.2942 376.811 628.6211 370.7176 636.5426 386.5605 641.4173 403.0127 626.4884 412.7621 611.2549 410.9341 592.67 420.9882 587.4906 419.4649 573.7804 425.2536 567.0777 419.4649 560.3749 406.9734 576.2178 391.1305 559.7656 371.0223 539.6574 353.9607 543.9227 344.2113 Z" id="CN.inner_mongol.2753408" fill="#cee3f5" stroke="#6e6e6e" stroke-width="0.4">
      <desc>
        <name>Tongliao City</name>
        <admin_leve>5</admin_leve>
        <wikipedia>zh:通辽市</wikipedia>
        <localname>Тонляо хот / 通辽市 / Tongliao</localname>
        <boundary>administrative</boundary>
        <id>CN.inner_mongol.2753408</id>
      </desc>
    </path>
    <path d="M 540.2667 302.4714 558.2423 295.464 566.4684 304.2994 576.2178 308.2601 610.3409 302.1667 625.5744 317.4003 629.2305 328.9777 599.6774 341.7739 604.5522 348.172 603.6381 369.1942 607.2942 376.811 595.1074 372.2409 585.0533 361.8821 556.4142 344.5159 543.9227 344.2113 548.7975 336.8992 550.3208 318.6189 545.7508 305.8228 540.2667 302.4714 Z" id="CN.inner_mongol.2753442" fill="#cee3f5" stroke="#6e6e6e" stroke-width="0.4">
      <desc>
        <name>Hinggan League</name>
        <admin_leve>5</admin_leve>
        <wikipedia>zh:兴安盟</wikipedia>
        <localname>Хянган / 兴安盟 / Hinggan</localname>
        <boundary>administrative</boundary>
        <id>CN.inner_mongol.2753442</id>
      </desc>
    </path>
  </g>
</svg>