<?xml version="1.0" encoding="UTF-8"?>
<svg xmlns="http://www.w3.org/2000/svg" width="700" height="700">
  <g id="bhutan">
    <path d="M 187.1772 439.7992 193.7559 455.5881 200.3346 459.5353 199.0189 465.4562 211.5184 465.4562 216.1235 473.3506 219.4128 487.1659 216.1235 497.0339 220.0707 506.902 215.4656 518.7436 210.2026 529.2696 214.1499 541.7691 199.6767 536.5061 183.8878 539.1376 181.2564 537.164 184.5457 530.5853 183.8878 526.6381 178.6249 522.6909 162.1781 518.0858 149.0207 519.4015 133.8897 510.1913 133.2319 500.9811 124.6795 501.639 123.3638 494.4025 114.1536 490.4552 112.8379 488.4816 120.0745 483.2187 127.9689 472.0349 127.311 464.1404 122.0481 460.8511 120.7323 450.983 125.9953 444.4043 130.6004 431.9048 125.9953 423.3525 140.4684 423.3525 154.2837 428.6155 162.836 428.6155 162.1781 420.721 168.099 400.9849 171.3883 403.6164 174.6777 412.8266 183.8878 414.8002 185.2036 417.4317 173.3619 425.3261 169.4147 432.5627 181.9142 440.4571 187.1772 439.7992 Z" id="BT.CK" fill="#cee3f5" stroke="#6e6e6e" stroke-width="0.4">
      <desc>
        <labelrank>9</labelrank>
        <code_hasc>BT.CK</code_hasc>
        <name>Chhukha</name>
        <admin>Bhutan</admin>
        <type_en>District</type_en>
        <region>Western</region>
        <woe_id>2344873</woe_id>
        <longitude>89</longitude>
        <woe_name>Chhukha</woe_name>
        <fips>BT06</fips>
        <woe_label>Chhukha, BT, Bhutan</woe_label>
        <latitude>27</latitude>
        <iso_a2>BT</iso_a2>
        <postal>CK</postal>
        <type>Dzongkhag</type>
        <id>BT.CK</id>
      </desc>
    </path>
    <path d="M 277.3054 448.3516 277.3054 481.9029 275.3318 488.4816 266.7795 497.6918 266.1216 506.2441 258.2271 511.5071 258.2271 514.7964 254.9378 514.1385 253.6221 508.2177 250.3327 506.902 247.7012 515.4543 245.7276 512.1649 244.4119 515.4543 235.8596 518.0858 226.6494 512.8228 225.3336 519.4015 215.4656 518.7436 220.0707 506.902 216.1235 497.0339 219.4128 487.1659 216.1235 473.3506 211.5184 465.4562 199.0189 465.4562 200.3346 459.5353 193.7559 455.5881 187.1772 439.7992 191.7823 423.3525 199.6767 418.7474 202.3082 411.5108 204.9397 411.5108 216.7813 409.5372 221.3864 411.5108 229.2809 412.1687 241.1225 422.6946 252.3063 439.7992 260.8586 441.115 277.3054 448.3516 Z" id="BT.DA" fill="#cee3f5" stroke="#6e6e6e" stroke-width="0.4">
      <desc>
        <labelrank>9</labelrank>
        <code_hasc>BT.DA</code_hasc>
        <name>Daga</name>
        <admin>Bhutan</admin>
        <type_en>District</type_en>
        <region>Central</region>
        <woe_id>2344875</woe_id>
        <longitude>89</longitude>
        <woe_name>Daga</woe_name>
        <fips>BT08</fips>
        <woe_label/>
        <latitude>27</latitude>
        <iso_a2>BT</iso_a2>
        <postal>DA</postal>
        <type>Dzongkhag</type>
        <id>BT.DA</id>
      </desc>
    </path>
    <path d="M 79.2865 326.6456 90.4703 337.8294 98.3648 341.7766 101.6541 341.1188 108.8907 360.8549 114.1536 365.4599 134.5476 399.0113 122.7059 409.5372 125.9953 423.3525 130.6004 431.9048 125.9953 444.4043 116.1272 442.4307 111.5221 444.4043 106.2592 454.9303 97.049 442.4307 89.8124 449.0094 86.5231 448.3516 82.5759 438.4835 63.4976 434.5363 58.8926 419.4053 52.3139 422.0368 43.7615 410.1951 31.9199 406.2479 35.2092 398.3534 39.8143 394.4062 47.7088 395.0641 51.656 399.0113 56.9189 395.0641 47.7088 370.7229 50.9981 360.8549 54.2875 356.9076 52.3139 351.6447 68.7606 330.5928 79.2865 326.6456 Z" id="BT.HA" fill="#cee3f5" stroke="#6e6e6e" stroke-width="0.4">
      <desc>
        <labelrank>9</labelrank>
        <code_hasc>BT.HA</code_hasc>
        <name>Ha</name>
        <admin>Bhutan</admin>
        <type_en>District</type_en>
        <region>Western</region>
        <woe_id>2344877</woe_id>
        <longitude>89</longitude>
        <woe_name>Ha</woe_name>
        <fips>BT10</fips>
        <woe_label>Ha, BT, Bhutan</woe_label>
        <latitude>27</latitude>
        <iso_a2>BT</iso_a2>
        <postal>HA</postal>
        <type>Dzongkhag</type>
        <id>BT.HA</id>
      </desc>
    </path>
    <path d="M 168.099 400.9849 162.1781 420.721 162.836 428.6155 154.2837 428.6155 140.4684 423.3525 125.9953 423.3525 122.7059 409.5372 134.5476 399.0113 114.1536 365.4599 108.8907 360.8549 101.6541 341.1188 98.3648 341.7766 90.4703 337.8294 79.2865 326.6456 83.8916 329.2771 100.9962 298.3572 117.443 304.9359 137.8369 298.3572 137.8369 309.541 141.1263 315.4618 135.8633 322.0405 142.442 323.3563 153.6258 339.1451 158.2309 342.4345 153.6258 373.3544 160.8624 378.6173 160.2045 389.1433 167.4411 395.0641 168.099 400.9849 Z" id="BT.PR" fill="#cee3f5" stroke="#6e6e6e" stroke-width="0.4">
      <desc>
        <labelrank>9</labelrank>
        <code_hasc>BT.PR</code_hasc>
        <name>Paro</name>
        <admin>Bhutan</admin>
        <type_en>District</type_en>
        <region>Western</region>
        <woe_id>2344880</woe_id>
        <longitude>89</longitude>
        <woe_name>Paro</woe_name>
        <fips>BT13</fips>
        <woe_label>Paro, BT, Bhutan</woe_label>
        <latitude>27</latitude>
        <iso_a2>BT</iso_a2>
        <postal>PR</postal>
        <type>Dzongkhag</type>
        <id>BT.PR</id>
      </desc>
    </path>
    <path d="M 362.8285 223.36 353.6183 223.36 349.0132 226.6494 345.066 237.8332 337.1715 243.754 335.1979 247.7012 337.1715 260.2008 335.8558 262.1744 326.6456 262.1744 322.0405 264.8058 317.4354 260.8586 312.1725 248.3591 308.8831 245.7276 297.6993 246.3855 283.8841 270.7267 277.9632 275.3318 268.0952 277.3054 265.4637 286.5156 241.7804 274.016 230.5966 277.3054 217.4392 295.7257 208.229 297.0415 204.2818 299.673 204.9397 301.6466 197.0452 304.278 186.5193 302.9623 183.8878 306.2516 174.6777 299.673 172.7041 291.7785 166.7832 291.7785 162.836 297.0415 158.8888 294.41 160.2045 277.3054 173.3619 262.1744 164.8096 259.5429 160.2045 246.3855 152.968 242.4383 145.0735 242.4383 153.6258 228.623 165.4675 220.7286 174.6777 208.8869 214.8077 197.0452 220.0707 187.1772 229.9387 179.9406 237.1753 171.3883 247.7012 166.7832 255.5957 168.7568 279.9369 160.2045 296.3836 165.4675 301.6466 164.8096 306.2516 159.5467 311.5146 156.9152 318.7512 162.1781 318.7512 170.7304 325.3299 179.2828 333.2243 180.5985 337.8294 170.7304 344.4081 170.7304 350.9868 174.6777 358.8812 174.6777 369.4072 181.9142 385.8539 185.8615 388.4854 193.098 381.9067 195.7295 377.9595 203.6239 371.3808 204.2818 365.4599 210.8605 362.8285 223.36 Z" id="BT.GA" fill="#cee3f5" stroke="#6e6e6e" stroke-width="0.4">
      <desc>
        <labelrank>9</labelrank>
        <code_hasc>BT.GA</code_hasc>
        <name>Gasa</name>
        <admin>Bhutan</admin>
        <type_en>District</type_en>
        <region>Central</region>
        <woe_id>55967862</woe_id>
        <longitude>89</longitude>
        <woe_name>Gasa</woe_name>
        <fips>BT15</fips>
        <woe_label/>
        <latitude>28</latitude>
        <iso_a2>BT</iso_a2>
        <postal>GA</postal>
        <type>Dzongkhag</type>
        <id>BT.GA</id>
      </desc>
    </path>
    <path d="M 125.9953 444.4043 120.7323 450.983 122.0481 460.8511 127.311 464.1404 127.9689 472.0349 120.0745 483.2187 112.8379 488.4816 114.1536 490.4552 123.3638 494.4025 124.6795 501.639 133.2319 500.9811 133.8897 510.1913 127.9689 506.2441 114.1536 508.2177 106.9171 514.1385 100.9962 515.4543 83.2337 515.4543 76.655 513.4807 69.4185 499.0075 61.524 491.771 56.2611 489.7974 47.7088 491.771 43.1037 490.4552 41.1301 480.5872 37.8407 475.9821 33.2356 476.64 25.9991 483.8765 25.3412 460.1932 21.394 448.3516 1 435.852 10.868 415.4581 31.9199 406.2479 43.7615 410.1951 52.3139 422.0368 58.8926 419.4053 63.4976 434.5363 82.5759 438.4835 86.5231 448.3516 89.8124 449.0094 97.049 442.4307 106.2592 454.9303 111.5221 444.4043 116.1272 442.4307 125.9953 444.4043 Z" id="BT.SM" fill="#cee3f5" stroke="#6e6e6e" stroke-width="0.4">
      <desc>
        <labelrank>9</labelrank>
        <code_hasc>BT.SM</code_hasc>
        <name>Samchi</name>
        <admin>Bhutan</admin>
        <type_en>District</type_en>
        <region>Western</region>
        <woe_id>2344883</woe_id>
        <longitude>89</longitude>
        <woe_name>Samchi</woe_name>
        <fips>BT16</fips>
        <woe_label>Samchi, BT, Bhutan</woe_label>
        <latitude>27</latitude>
        <iso_a2>BT</iso_a2>
        <postal>SM</postal>
        <type>Dzongkhag</type>
        <id>BT.SM</id>
      </desc>
    </path>
    <path d="M 183.8878 306.2516 187.8351 312.1725 188.4929 328.6192 200.9925 347.0396 206.2554 343.0924 214.8077 339.803 221.3864 349.6711 226.6494 350.9868 225.9915 359.5391 222.7022 362.8285 211.5184 365.4599 210.2026 374.6701 212.1762 379.2752 200.9925 388.4854 205.5975 393.0905 204.9397 411.5108 202.3082 411.5108 199.6767 418.7474 191.7823 423.3525 187.1772 439.7992 181.9142 440.4571 169.4147 432.5627 173.3619 425.3261 185.2036 417.4317 183.8878 414.8002 174.6777 412.8266 171.3883 403.6164 168.099 400.9849 167.4411 395.0641 160.2045 389.1433 160.8624 378.6173 153.6258 373.3544 158.2309 342.4345 153.6258 339.1451 142.442 323.3563 135.8633 322.0405 141.1263 315.4618 137.8369 309.541 137.8369 298.3572 117.443 304.9359 100.9962 298.3572 104.9434 284.5419 127.9689 270.0688 145.0735 242.4383 152.968 242.4383 160.2045 246.3855 164.8096 259.5429 173.3619 262.1744 160.2045 277.3054 158.8888 294.41 162.836 297.0415 166.7832 291.7785 172.7041 291.7785 174.6777 299.673 183.8878 306.2516 Z" id="BT.TM" fill="#cee3f5" stroke="#6e6e6e" stroke-width="0.4">
      <desc>
        <labelrank>7</labelrank>
        <code_hasc>BT.TM</code_hasc>
        <name>Thimphu</name>
        <admin>Bhutan</admin>
        <type_en>District</type_en>
        <region>Western</region>
        <woe_id>2344887</woe_id>
        <longitude>89</longitude>
        <woe_name>Thimphu</woe_name>
        <fips>BT20</fips>
        <woe_label>Thimphu, BT, Bhutan</woe_label>
        <latitude>27</latitude>
        <iso_a2>BT</iso_a2>
        <postal>TM</postal>
        <type>Dzongkhag</type>
        <id>BT.TM</id>
      </desc>
    </path>
    <path d="M 265.4637 286.5156 266.1216 293.0943 257.5693 303.6202 256.9114 311.5146 260.2008 314.1461 267.4373 314.804 272.7003 320.7248 272.0424 324.0141 264.8058 328.6192 246.3855 349.0132 235.8596 351.6447 226.6494 350.9868 221.3864 349.6711 214.8077 339.803 206.2554 343.0924 200.9925 347.0396 188.4929 328.6192 187.8351 312.1725 183.8878 306.2516 186.5193 302.9623 197.0452 304.278 204.9397 301.6466 204.2818 299.673 208.229 297.0415 217.4392 295.7257 230.5966 277.3054 241.7804 274.016 265.4637 286.5156 Z" id="BT.PN" fill="#cee3f5" stroke="#6e6e6e" stroke-width="0.4">
      <desc>
        <labelrank>9</labelrank>
        <code_hasc>BT.PN</code_hasc>
        <name>Punakha</name>
        <admin>Bhutan</admin>
        <type_en>District</type_en>
        <region>Central</region>
        <woe_id>2344882</woe_id>
        <longitude>89</longitude>
        <woe_name>Punakha</woe_name>
        <fips>BT00</fips>
        <woe_label>Punakha, BT, Bhutan</woe_label>
        <latitude>27</latitude>
        <iso_a2>BT</iso_a2>
        <postal>PN</postal>
        <type>Dzongkhag</type>
        <id>BT.PN</id>
      </desc>
    </path>
    <path d="M 420.721 226.6494 421.3789 246.3855 415.4581 257.5693 425.984 264.148 429.9312 277.3054 445.0622 288.4892 448.3516 304.9359 454.9303 306.9095 461.509 314.1461 463.4826 327.3035 459.5353 340.4609 461.509 354.934 468.0877 362.8285 462.8247 373.3544 466.114 381.2488 458.2196 385.8539 455.5881 389.8011 437.8256 396.3798 431.2469 393.0905 422.0368 384.5382 416.1159 385.8539 415.4581 391.1169 399.6692 375.328 382.5646 367.4336 381.2488 354.2762 371.3808 324.672 373.3544 301.6466 369.4072 295.0679 361.5127 291.7785 359.5391 282.5683 365.4599 274.016 366.7757 264.8058 363.4863 256.9114 359.5391 255.5957 356.2498 249.6748 358.8812 241.7804 353.6183 233.886 362.8285 223.36 383.8803 224.6758 402.9585 218.7549 420.721 226.6494 Z" id="BT.BU" fill="#cee3f5" stroke="#6e6e6e" stroke-width="0.4">
      <desc>
        <labelrank>9</labelrank>
        <code_hasc>BT.BU</code_hasc>
        <name>Bumthang</name>
        <admin>Bhutan</admin>
        <type_en>District</type_en>
        <region>Southern</region>
        <woe_id>2344872</woe_id>
        <longitude>90</longitude>
        <woe_name>Bumthang</woe_name>
        <fips>BT05</fips>
        <woe_label>Bumthang, BT, Bhutan</woe_label>
        <latitude>27</latitude>
        <iso_a2>BT</iso_a2>
        <postal>BU</postal>
        <type>Dzongkhag</type>
        <id>BT.BU</id>
      </desc>
    </path>
    <path d="M 329.935 432.5627 333.8822 437.8256 320.7248 447.6937 317.4354 462.1668 314.1461 465.4562 314.1461 473.3506 293.7521 503.6126 293.0943 509.5335 285.8577 511.5071 279.279 516.77 270.7267 514.1385 266.1216 506.2441 266.7795 497.6918 275.3318 488.4816 277.3054 481.9029 277.3054 448.3516 277.3054 432.5627 281.2526 431.2469 295.0679 436.5099 306.2516 435.1942 314.1461 441.115 329.935 432.5627 Z" id="BT.CR" fill="#cee3f5" stroke="#6e6e6e" stroke-width="0.4">
      <desc>
        <labelrank>9</labelrank>
        <code_hasc>BT.CR</code_hasc>
        <name>Chirang</name>
        <admin>Bhutan</admin>
        <type_en>District</type_en>
        <region>Central</region>
        <woe_id>2344874</woe_id>
        <longitude>90</longitude>
        <woe_name>Chirang</woe_name>
        <fips>BT07</fips>
        <woe_label>Chirang, BT, Bhutan</woe_label>
        <latitude>27</latitude>
        <iso_a2>BT</iso_a2>
        <postal>CR</postal>
        <type>Dzongkhag</type>
        <id>BT.CR</id>
      </desc>
    </path>
    <path d="M 372.6965 443.0886 377.3016 450.3252 386.5118 456.246 391.7747 457.5617 396.3798 455.5881 400.9849 458.2196 406.2479 468.7455 406.9057 483.2187 414.8002 485.1923 426.6418 495.0603 434.5363 514.1385 450.3252 514.7964 462.8247 512.1649 464.7983 521.3751 462.1668 523.3487 414.8002 525.9802 387.8275 523.3487 364.1442 511.5071 345.066 497.6918 337.8294 496.3761 324.672 505.5862 308.8831 506.902 302.3044 511.5071 297.0415 525.3223 291.7785 529.9274 242.4383 538.4797 230.5966 534.5325 227.3073 543.0848 214.1499 541.7691 210.2026 529.2696 215.4656 518.7436 225.3336 519.4015 226.6494 512.8228 235.8596 518.0858 244.4119 515.4543 245.7276 512.1649 247.7012 515.4543 250.3327 506.902 253.6221 508.2177 254.9378 514.1385 258.2271 514.7964 258.2271 511.5071 266.1216 506.2441 270.7267 514.1385 279.279 516.77 285.8577 511.5071 293.0943 509.5335 293.7521 503.6126 314.1461 473.3506 314.1461 465.4562 317.4354 462.1668 320.7248 447.6937 333.8822 437.8256 329.935 432.5627 329.935 429.2733 335.1979 424.0104 360.197 441.115 372.6965 443.0886 Z" id="BT.GE" fill="#cee3f5" stroke="#6e6e6e" stroke-width="0.4">
      <desc>
        <labelrank>9</labelrank>
        <code_hasc>BT.GE</code_hasc>
        <name>Geylegphug</name>
        <admin>Bhutan</admin>
        <type_en>District</type_en>
        <region>Central</region>
        <woe_id>2344876</woe_id>
        <longitude>90</longitude>
        <woe_name>Geylegphug</woe_name>
        <fips>BT09</fips>
        <woe_label>Geylegphug, BT, Bhutan</woe_label>
        <latitude>27</latitude>
        <iso_a2>BT</iso_a2>
        <postal>GE</postal>
        <type>Dzongkhag</type>
        <id>BT.GE</id>
      </desc>
    </path>
    <path d="M 561.5052 241.1225 554.9265 247.7012 548.3478 248.3591 537.8219 258.885 537.164 282.5683 533.8746 299.0151 535.8483 327.3035 533.8746 332.5664 536.5061 335.8558 532.5589 337.1715 531.901 344.4081 523.3487 354.2762 525.9802 360.197 523.3487 371.3808 506.2441 380.591 501.639 373.3544 492.4288 371.3808 476.64 383.2224 466.114 381.2488 462.8247 373.3544 468.0877 362.8285 461.509 354.934 459.5353 340.4609 463.4826 327.3035 461.509 314.1461 454.9303 306.9095 448.3516 304.9359 445.0622 288.4892 429.9312 277.3054 425.984 264.148 415.4581 257.5693 421.3789 246.3855 420.721 226.6494 452.9566 231.9123 466.114 243.754 473.3506 247.0434 481.9029 247.7012 490.4552 245.7276 511.5071 222.7022 526.6381 222.0443 531.2432 217.4392 535.1904 225.3336 541.7691 231.9123 561.5052 241.1225 Z" id="BT.LH" fill="#cee3f5" stroke="#6e6e6e" stroke-width="0.4">
      <desc>
        <labelrank>9</labelrank>
        <code_hasc>BT.LH</code_hasc>
        <name>Lhuntshi</name>
        <admin>Bhutan</admin>
        <type_en>District</type_en>
        <region>Eastern</region>
        <woe_id>2344878</woe_id>
        <longitude>91</longitude>
        <woe_name>Lhuntshi</woe_name>
        <fips>BT11</fips>
        <woe_label>Lhuntshi, BT, Bhutan</woe_label>
        <latitude>27</latitude>
        <iso_a2>BT</iso_a2>
        <postal>LH</postal>
        <type>Dzongkhag</type>
        <id>BT.LH</id>
      </desc>
    </path>
    <path d="M 623.345 363.4863 620.0556 367.4336 592.4251 375.328 581.2413 384.5382 553.6107 377.3016 557.558 368.0914 536.5061 335.8558 533.8746 332.5664 535.8483 327.3035 533.8746 299.0151 537.164 282.5683 537.8219 258.885 548.3478 248.3591 554.9265 247.7012 561.5052 241.1225 595.0566 247.7012 602.951 251.6484 606.2403 257.5693 601.6352 272.0424 601.6352 303.6202 591.7672 317.4354 590.4515 326.6456 597.688 347.0396 608.8718 358.8812 623.345 363.4863 Z" id="BT.TY" fill="#cee3f5" stroke="#6e6e6e" stroke-width="0.4">
      <desc>
        <labelrank>9</labelrank>
        <code_hasc>BT.TY</code_hasc>
        <name>Tashi Yangtse</name>
        <admin>Bhutan</admin>
        <type_en>District</type_en>
        <region>Eastern</region>
        <woe_id>55967863</woe_id>
        <longitude>91</longitude>
        <woe_name>Tashi Yangtse</woe_name>
        <fips>BT00</fips>
        <woe_label/>
        <latitude>27</latitude>
        <iso_a2>BT</iso_a2>
        <postal>TY</postal>
        <type>Dzongkhag</type>
        <id>BT.TY</id>
      </desc>
    </path>
    <path d="M 458.2196 385.8539 466.7719 410.1951 470.7191 413.4844 473.3506 422.6946 471.377 445.0622 477.9557 460.1932 489.1395 465.4562 491.1131 475.9821 494.4025 479.2714 504.9284 485.8501 511.5071 484.5344 507.5598 497.0339 493.7446 499.0075 491.771 502.9548 475.9821 508.2177 474.0085 514.7964 475.9821 522.033 462.1668 523.3487 464.7983 521.3751 462.8247 512.1649 450.3252 514.7964 434.5363 514.1385 426.6418 495.0603 414.8002 485.1923 406.9057 483.2187 406.2479 468.7455 400.9849 458.2196 396.3798 455.5881 391.7747 457.5617 386.5118 456.246 377.3016 450.3252 372.6965 443.0886 383.8803 434.5363 389.1433 437.1678 398.3534 435.852 390.459 424.6682 411.5108 412.8266 415.4581 391.1169 416.1159 385.8539 422.0368 384.5382 431.2469 393.0905 437.8256 396.3798 455.5881 389.8011 458.2196 385.8539 Z" id="BT.SG" fill="#cee3f5" stroke="#6e6e6e" stroke-width="0.4">
      <desc>
        <labelrank>9</labelrank>
        <code_hasc>BT.SG</code_hasc>
        <name>Shemgang</name>
        <admin>Bhutan</admin>
        <type_en>District</type_en>
        <region>Southern</region>
        <woe_id>2344885</woe_id>
        <longitude>90</longitude>
        <woe_name>Shemgang</woe_name>
        <fips>BT18</fips>
        <woe_label>Shemgang, BT, Bhutan</woe_label>
        <latitude>27</latitude>
        <iso_a2>BT</iso_a2>
        <postal>SG</postal>
        <type>Dzongkhag</type>
        <id>BT.SG</id>
      </desc>
    </path>
    <path d="M 415.4581 391.1169 411.5108 412.8266 390.459 424.6682 398.3534 435.852 389.1433 437.1678 383.8803 434.5363 372.6965 443.0886 360.197 441.115 335.1979 424.0104 339.1451 418.0895 339.803 411.5108 336.5137 408.8794 334.5401 400.327 325.9877 391.7747 314.804 363.4863 322.0405 361.5127 328.6192 356.2498 335.8558 356.2498 340.4609 352.3025 331.9086 346.3817 325.3299 328.6192 331.2507 314.804 341.7766 314.1461 345.7238 316.1197 357.5655 310.1989 361.5127 291.7785 369.4072 295.0679 373.3544 301.6466 371.3808 324.672 381.2488 354.2762 382.5646 367.4336 399.6692 375.328 415.4581 391.1169 Z" id="BT.TO" fill="#cee3f5" stroke="#6e6e6e" stroke-width="0.4">
      <desc>
        <labelrank>9</labelrank>
        <code_hasc>BT.TO</code_hasc>
        <name>Tongsa</name>
        <admin>Bhutan</admin>
        <type_en>District</type_en>
        <region>Southern</region>
        <woe_id>2344888</woe_id>
        <longitude>90</longitude>
        <woe_name>Tongsa</woe_name>
        <fips>BT21</fips>
        <woe_label>Tongsa, BT, Bhutan</woe_label>
        <latitude>27</latitude>
        <iso_a2>BT</iso_a2>
        <postal>TO</postal>
        <type>Dzongkhag</type>
        <id>BT.TO</id>
      </desc>
    </path>
    <path d="M 361.5127 291.7785 357.5655 310.1989 345.7238 316.1197 341.7766 314.1461 331.2507 314.804 325.3299 328.6192 331.9086 346.3817 340.4609 352.3025 335.8558 356.2498 328.6192 356.2498 322.0405 361.5127 314.804 363.4863 325.9877 391.7747 334.5401 400.327 336.5137 408.8794 339.803 411.5108 339.1451 418.0895 335.1979 424.0104 329.935 429.2733 329.935 432.5627 314.1461 441.115 306.2516 435.1942 295.0679 436.5099 281.2526 431.2469 277.3054 432.5627 277.3054 448.3516 260.8586 441.115 252.3063 439.7992 241.1225 422.6946 229.2809 412.1687 221.3864 411.5108 216.7813 409.5372 204.9397 411.5108 205.5975 393.0905 200.9925 388.4854 212.1762 379.2752 210.2026 374.6701 211.5184 365.4599 222.7022 362.8285 225.9915 359.5391 226.6494 350.9868 235.8596 351.6447 246.3855 349.0132 264.8058 328.6192 272.0424 324.0141 272.7003 320.7248 267.4373 314.804 260.2008 314.1461 256.9114 311.5146 257.5693 303.6202 266.1216 293.0943 265.4637 286.5156 268.0952 277.3054 277.9632 275.3318 283.8841 270.7267 297.6993 246.3855 308.8831 245.7276 312.1725 248.3591 317.4354 260.8586 322.0405 264.8058 326.6456 262.1744 335.8558 262.1744 337.1715 260.2008 335.1979 247.7012 337.1715 243.754 345.066 237.8332 349.0132 226.6494 353.6183 223.36 362.8285 223.36 353.6183 233.886 358.8812 241.7804 356.2498 249.6748 359.5391 255.5957 363.4863 256.9114 366.7757 264.8058 365.4599 274.016 359.5391 282.5683 361.5127 291.7785 Z" id="BT.WP" fill="#cee3f5" stroke="#6e6e6e" stroke-width="0.4">
      <desc>
        <labelrank>9</labelrank>
        <code_hasc>BT.WP</code_hasc>
        <name>Wangdi Phodrang</name>
        <admin>Bhutan</admin>
        <type_en>District</type_en>
        <region>Central</region>
        <woe_id>2344889</woe_id>
        <longitude>90</longitude>
        <woe_name>Wangdi Phodrang</woe_name>
        <fips>BT22</fips>
        <woe_label>Wangdue Phodrang, BT, Bhutan</woe_label>
        <latitude>27</latitude>
        <iso_a2>BT</iso_a2>
        <postal>WP</postal>
        <type>Dzongkhag</type>
        <id>BT.WP</id>
      </desc>
    </path>
    <path d="M 553.6107 377.3016 554.9265 380.591 552.9529 382.5646 567.426 392.4326 570.7154 402.3007 562.1631 406.2479 554.2686 414.1423 551.6371 433.2205 545.0584 450.3252 522.6909 464.1404 513.4807 478.6136 511.5071 484.5344 504.9284 485.8501 494.4025 479.2714 491.1131 475.9821 489.1395 465.4562 477.9557 460.1932 471.377 445.0622 473.3506 422.6946 470.7191 413.4844 466.7719 410.1951 458.2196 385.8539 466.114 381.2488 476.64 383.2224 492.4288 371.3808 501.639 373.3544 506.2441 380.591 523.3487 371.3808 525.9802 360.197 523.3487 354.2762 531.901 344.4081 532.5589 337.1715 536.5061 335.8558 557.558 368.0914 553.6107 377.3016 Z" id="BT.MO" fill="#cee3f5" stroke="#6e6e6e" stroke-width="0.4">
      <desc>
        <labelrank>9</labelrank>
        <code_hasc>BT.MO</code_hasc>
        <name>Mongar</name>
        <admin>Bhutan</admin>
        <type_en>District</type_en>
        <region>Eastern</region>
        <woe_id>2344879</woe_id>
        <longitude>91</longitude>
        <woe_name>Mongar</woe_name>
        <fips>BT12</fips>
        <woe_label>Mongar, BT, Bhutan</woe_label>
        <latitude>27</latitude>
        <iso_a2>BT</iso_a2>
        <postal>MO</postal>
        <type>Dzongkhag</type>
        <id>BT.MO</id>
      </desc>
    </path>
    <path d="M 575.3205 466.7719 567.426 469.4034 563.4788 477.9557 562.8209 488.4816 547.032 508.2177 541.1112 506.2441 543.7427 495.7182 541.1112 490.4552 536.5061 490.4552 530.5853 484.5344 511.5071 484.5344 513.4807 478.6136 522.6909 464.1404 545.0584 450.3252 551.6371 433.2205 560.1894 433.8784 555.5844 444.4043 566.1103 455.5881 576.6362 456.9039 575.3205 466.7719 Z" id="BT.PM" fill="#cee3f5" stroke="#6e6e6e" stroke-width="0.4">
      <desc>
        <labelrank>9</labelrank>
        <code_hasc>BT.PM</code_hasc>
        <name>Pemagatsel</name>
        <admin>Bhutan</admin>
        <type_en>District</type_en>
        <region>Eastern</region>
        <woe_id>2344881</woe_id>
        <longitude>91</longitude>
        <woe_name>Pemagatsel</woe_name>
        <fips>BT14</fips>
        <woe_label>Pemagatsel, BT, Bhutan</woe_label>
        <latitude>26</latitude>
        <iso_a2>BT</iso_a2>
        <postal>PM</postal>
        <type>Dzongkhag</type>
        <id>BT.PM</id>
      </desc>
    </path>
    <path d="M 681.8954 427.9576 678.606 445.0622 681.2375 452.2988 691.7634 462.8247 699 483.2187 697.0264 495.0603 689.132 502.9548 676.6324 504.9284 662.8172 496.3761 659.5278 497.0339 660.1857 503.6126 655.5806 505.5862 658.2121 508.8756 656.8963 515.4543 653.607 514.7964 649.6598 504.9284 645.7125 502.2969 639.1338 503.6126 620.0556 515.4543 606.8982 516.77 597.0302 514.1385 581.8992 517.4279 572.689 501.639 560.8473 500.9811 554.2686 503.6126 545.7163 518.7436 535.1904 523.3487 514.7964 517.4279 486.508 516.77 475.9821 522.033 474.0085 514.7964 475.9821 508.2177 491.771 502.9548 493.7446 499.0075 507.5598 497.0339 511.5071 484.5344 530.5853 484.5344 536.5061 490.4552 541.1112 490.4552 543.7427 495.7182 541.1112 506.2441 547.032 508.2177 562.8209 488.4816 563.4788 477.9557 567.426 469.4034 575.3205 466.7719 578.6098 468.0877 595.0566 458.8775 604.2667 460.1932 632.5551 450.3252 641.1074 437.8256 659.5278 433.2205 660.1857 417.4317 662.1593 413.4844 664.7908 414.8002 670.0537 425.984 681.8954 427.9576 Z" id="BT.SJ" fill="#cee3f5" stroke="#6e6e6e" stroke-width="0.4">
      <desc>
        <labelrank>9</labelrank>
        <code_hasc>BT.SJ</code_hasc>
        <name>Samdrup Jongkhar</name>
        <admin>Bhutan</admin>
        <type_en>District</type_en>
        <region>Eastern</region>
        <woe_id>2344884</woe_id>
        <longitude>91</longitude>
        <woe_name>Samdrup Jongkhar</woe_name>
        <fips>BT17</fips>
        <woe_label>Samdrup, BT, Bhutan</woe_label>
        <latitude>26</latitude>
        <iso_a2>BT</iso_a2>
        <postal>SJ</postal>
        <type>Dzongkhag</type>
        <id>BT.SJ</id>
      </desc>
    </path>
    <path d="M 681.8954 427.9576 670.0537 425.984 664.7908 414.8002 662.1593 413.4844 660.1857 417.4317 659.5278 433.2205 641.1074 437.8256 632.5551 450.3252 604.2667 460.1932 595.0566 458.8775 578.6098 468.0877 575.3205 466.7719 576.6362 456.9039 566.1103 455.5881 555.5844 444.4043 560.1894 433.8784 551.6371 433.2205 554.2686 414.1423 562.1631 406.2479 570.7154 402.3007 567.426 392.4326 552.9529 382.5646 554.9265 380.591 553.6107 377.3016 581.2413 384.5382 592.4251 375.328 620.0556 367.4336 623.345 363.4863 627.95 373.3544 650.3176 366.7757 663.475 366.1178 674.6588 359.5391 699 400.9849 697.0264 404.9321 687.8162 414.1423 686.5005 422.6946 681.8954 427.9576 Z" id="BT.TA" fill="#cee3f5" stroke="#6e6e6e" stroke-width="0.4">
      <desc>
        <labelrank>9</labelrank>
        <code_hasc>BT.TA</code_hasc>
        <name>Tashigang</name>
        <admin>Bhutan</admin>
        <type_en>District</type_en>
        <region>Eastern</region>
        <woe_id>2344886</woe_id>
        <longitude>91</longitude>
        <woe_name>Tashigang</woe_name>
        <fips>BT19</fips>
        <woe_label>Tashigang, BT, Bhutan</woe_label>
        <latitude>27</latitude>
        <iso_a2>BT</iso_a2>
        <postal>TA</postal>
        <type>Dzongkhag</type>
        <id>BT.TA</id>
      </desc>
    </path>
  </g>
</svg>