<?xml version="1.0" encoding="UTF-8"?>
<svg xmlns="http://www.w3.org/2000/svg" width="700" height="700">
  <g id="vanuatu">
    <path d="M 293.0128 106.0352 298.9723 108.27 300.4621 110.5048 298.9723 115.7193 295.9925 120.9338 295.2476 122.4237 293.0128 122.4237 286.3084 122.4237 284.0736 122.4237 281.0939 120.9338 281.8388 117.2092 281.8388 110.5048 285.5635 107.5251 288.5432 107.5251 290.778 106.0352 293.0128 106.0352 Z M 298.2273 76.9829 298.9723 76.9829 298.9723 78.4728 297.4824 78.4728 293.7577 80.7076 290.0331 80.7076 290.0331 81.4525 290.0331 82.1974 290.778 84.4322 289.2882 85.9221 287.7983 86.667 286.3084 83.6873 286.3084 80.7076 283.3287 78.4728 281.0939 74.7481 280.349 72.5133 281.0939 70.2785 281.8388 68.0438 284.8186 65.809 288.5432 63.5742 290.0331 63.5742 293.0128 66.5539 295.9925 71.7684 296.7375 72.5133 295.2476 74.7481 295.2476 75.4931 298.2273 76.9829 Z M 308.6564 61.3394 305.6766 61.3394 304.9317 62.0843 304.1868 62.0843 303.4418 61.3394 307.1665 56.8698 308.6564 56.1249 310.1462 55.3799 310.8911 56.1249 311.6361 59.1046 310.8911 59.8495 308.6564 61.3394 Z M 275.8794 45.6958 276.6243 46.4408 278.8591 44.9509 278.8591 47.9306 277.3693 48.6756 273.6446 48.6756 272.1547 45.6958 272.1547 44.206 272.8997 42.7161 275.8794 41.9712 277.3693 42.7161 277.3693 44.206 275.1345 44.206 275.8794 45.6958 Z M 214.7951 35.2668 213.3052 38.9915 211.8154 34.5219 213.3052 33.7769 214.7951 35.2668 Z M 209.5806 20.3682 208.0907 20.3682 205.8559 20.3682 205.111 18.8783 204.3661 17.3885 205.8559 15.8986 207.3458 15.8986 209.5806 15.8986 211.0704 16.6435 210.3255 18.8783 209.5806 20.3682 Z M 202.8762 12.9189 202.1313 12.9189 199.8965 11.429 199.8965 7.7044 200.6414 3.9797 199.1515 2.4899 199.1515 1 202.1313 1.7449 203.6211 3.2348 204.3661 6.2145 203.6211 8.4493 204.3661 9.9392 203.6211 9.9392 203.6211 11.429 202.8762 12.9189 Z" id="VU.TR" fill="#cee3f5" stroke="#6e6e6e" stroke-width="0.4">
      <desc>
        <labelrank>9</labelrank>
        <code_hasc>VU.TR</code_hasc>
        <name>Torba</name>
        <admin>Vanuatu</admin>
        <type_en>Province</type_en>
        <region/>
        <woe_id>20069883</woe_id>
        <longitude>167</longitude>
        <woe_name>Torba</woe_name>
        <fips>NH07</fips>
        <woe_label>Torba, VU, Vanuatu</woe_label>
        <latitude>-14</latitude>
        <iso_a2>VU</iso_a2>
        <postal>TR</postal>
        <type>Province</type>
        <id>VU.TR</id>
      </desc>
    </path>
    <path d="M 263.9605 259.4909 261.7257 260.2359 259.4909 260.2359 255.7663 258.0011 252.0416 256.5112 250.5518 255.7663 249.0619 252.7866 249.0619 250.5518 251.2967 248.317 254.2764 247.572 260.9808 248.317 263.9605 249.8068 264.7054 251.2967 263.2156 254.2764 263.9605 259.4909 Z M 261.7257 245.3372 260.2359 246.8271 258.746 246.0822 257.2561 246.8271 255.0213 246.0822 252.7866 244.5923 257.2561 240.1227 260.2359 239.3778 258.746 240.1227 258.746 240.8677 260.2359 241.6126 259.4909 242.3575 261.7257 243.8474 261.7257 245.3372 Z M 256.5112 184.2529 255.7663 184.9979 254.2764 184.2529 252.0416 181.2732 253.5315 181.2732 255.7663 183.508 258.0011 183.508 256.5112 184.2529 Z M 225.2241 202.8762 234.9082 202.8762 239.3778 197.6617 240.1227 185.7428 239.3778 182.7631 240.8677 182.0181 243.8474 180.5283 250.5518 181.2732 250.5518 182.0181 249.0619 182.0181 248.317 182.7631 248.317 187.9776 246.8271 190.2124 248.317 190.2124 249.0619 191.7022 249.0619 194.682 251.2967 201.3863 253.5315 199.8965 254.2764 199.8965 256.5112 199.8965 255.7663 202.1313 257.2561 209.5806 257.2561 211.0704 255.7663 211.8154 256.5112 213.3052 259.4909 214.7951 260.2359 217.0299 260.2359 220.7545 259.4909 221.4995 258.746 220.0096 258.0011 220.0096 258.746 222.9893 262.4707 232.6734 265.4504 234.9082 264.7054 237.8879 263.9605 238.6329 261.7257 237.8879 258.746 237.8879 257.2561 238.6329 252.0416 243.8474 249.8068 244.5923 247.572 244.5923 244.5923 243.8474 241.6126 243.1025 237.143 243.1025 233.4184 243.8474 231.1836 246.0822 232.6734 246.8271 229.6937 246.8271 228.2038 247.572 226.714 249.8068 225.2241 251.2967 222.9893 250.5518 220.7545 249.8068 219.2647 248.317 220.7545 246.0822 220.7545 243.8474 219.2647 241.6126 216.285 240.1227 214.7951 238.6329 213.3052 235.6531 211.8154 232.6734 208.8356 229.6937 206.6009 224.4792 209.5806 214.7951 209.5806 208.8356 209.5806 206.6009 207.3458 202.8762 206.6009 201.3863 205.111 193.1921 205.111 192.4472 206.6009 190.2124 204.3661 190.2124 203.6211 188.7225 202.8762 183.508 199.8965 178.2935 198.4066 171.5891 199.1515 165.6297 199.1515 161.905 201.3863 156.6905 201.3863 152.9658 204.3661 152.2209 205.8559 151.476 206.6009 152.2209 208.0907 155.9456 209.5806 157.4354 209.5806 159.6702 212.5603 162.6499 213.3052 166.3746 219.2647 170.0993 218.5197 170.8442 221.4995 182.7631 221.4995 188.7225 222.9893 190.2124 224.4792 202.1313 225.2241 202.8762 Z" id="VU.SN" fill="#cee3f5" stroke="#6e6e6e" stroke-width="0.4">
      <desc>
        <labelrank>9</labelrank>
        <code_hasc>VU.SN</code_hasc>
        <name>Sanma</name>
        <admin>Vanuatu</admin>
        <type_en>Province</type_en>
        <region/>
        <woe_id>20069884</woe_id>
        <longitude>167</longitude>
        <woe_name>Sanma</woe_name>
        <fips>NH13</fips>
        <woe_label>Sanma, VU, Vanuatu</woe_label>
        <latitude>-15</latitude>
        <iso_a2>VU</iso_a2>
        <postal>SN</postal>
        <type>Province</type>
        <id>VU.SN</id>
      </desc>
    </path>
    <path d="M 495.6339 699 494.889 699 494.1441 698.2551 491.1644 697.5101 486.6948 694.5304 486.6948 692.2956 487.4397 690.0608 488.9296 688.571 494.889 687.826 496.3789 688.571 500.8485 691.5507 501.5934 693.7855 500.1035 697.5101 497.8687 698.2551 495.6339 699 Z M 462.1121 640.1505 460.6222 640.8954 459.1323 640.8954 453.9178 638.6606 449.4482 633.4461 446.4685 632.7012 445.7236 631.2113 444.2337 629.7215 441.254 623.762 441.254 621.5272 441.9989 617.0576 443.4888 615.5678 443.4888 611.8431 443.4888 610.3533 445.7236 608.8634 450.9381 608.1185 452.428 607.3735 453.9178 608.8634 453.1729 614.0779 453.9178 620.7823 454.6628 622.2721 460.6222 625.2519 467.3266 628.2316 463.6019 633.4461 462.1121 640.1505 Z M 440.5091 551.5037 444.2337 551.5037 445.7236 551.5037 445.7236 552.2487 447.2134 552.9936 447.9584 554.4835 440.5091 555.9733 442.7439 559.698 450.1932 564.1676 452.428 565.6574 453.1729 567.8922 453.1729 570.8719 452.428 573.1067 448.7033 575.3415 447.9584 576.8314 437.5293 570.8719 436.7844 570.8719 434.5496 570.8719 432.3148 570.127 427.8453 567.1473 421.8858 564.1676 421.1409 562.6777 423.3757 557.4632 421.1409 553.7385 421.8858 546.2892 424.1206 542.5646 427.1003 540.3298 430.08 539.5848 433.8047 539.5848 437.5293 541.8196 438.2743 543.3095 438.2743 548.524 439.0192 550.0139 440.5091 551.5037 Z" id="VU.TF" fill="#cee3f5" stroke="#6e6e6e" stroke-width="0.4">
      <desc>
        <labelrank>9</labelrank>
        <code_hasc>VU.TF</code_hasc>
        <name>Tafea</name>
        <admin>Vanuatu</admin>
        <type_en>Province</type_en>
        <region/>
        <woe_id>20069887</woe_id>
        <longitude>169</longitude>
        <woe_name>Tafea</woe_name>
        <fips>NH15</fips>
        <woe_label>Tafea, VU, Vanuatu</woe_label>
        <latitude>-20</latitude>
        <iso_a2>VU</iso_a2>
        <postal>TF</postal>
        <type>Province</type>
        <id>VU.TF</id>
      </desc>
    </path>
    <path d="M 366.7609 337.7086 363.7812 337.7086 362.2914 333.984 366.016 333.2391 366.7609 333.984 368.2508 335.4739 368.2508 336.9637 366.7609 337.7086 Z M 357.0768 333.2391 355.587 333.984 354.0971 333.984 353.3522 333.2391 354.0971 331.7492 355.587 328.0245 356.3319 327.2796 358.5667 327.2796 357.8218 328.7695 357.8218 331.7492 357.0768 333.2391 Z M 364.5261 316.1057 361.5464 319.0854 351.8623 319.0854 347.3927 320.5752 344.413 318.3404 342.9232 317.5955 342.1782 318.3404 339.1985 316.1057 338.4536 316.1057 336.9637 316.8506 336.2188 315.3607 327.2796 310.1462 328.0245 308.6564 326.5347 307.9114 328.0245 306.4216 333.2391 304.9317 334.7289 303.4418 339.1985 303.4418 341.4333 302.6969 346.6478 297.4824 348.1377 293.7577 351.1174 293.0128 352.6073 295.2476 354.0971 298.2273 356.3319 304.1868 356.3319 307.1665 357.8218 309.4013 364.5261 313.1259 365.2711 313.8709 365.2711 315.3607 364.5261 316.1057 Z M 281.0939 295.2476 285.5635 297.4824 286.3084 297.4824 285.5635 294.5027 287.7983 297.4824 287.0534 300.4621 290.0331 301.952 291.5229 300.4621 292.2679 302.6969 293.7577 304.1868 298.2273 306.4216 301.207 310.1462 302.6969 310.8911 304.9317 310.1462 306.4216 310.1462 305.6766 312.381 307.1665 314.6158 310.8911 317.5955 313.8709 317.5955 314.6158 319.8303 315.3607 324.2999 313.8709 327.2796 313.8709 329.5144 314.6158 330.2593 315.3607 327.2796 316.8506 325.7898 318.3404 325.0448 319.8303 329.5144 317.5955 331.0043 316.1057 331.7492 313.1259 335.4739 313.1259 336.9637 310.8911 337.7086 309.4013 334.7289 305.6766 333.984 304.9317 333.2391 301.207 333.2391 299.7172 332.4941 297.4824 333.2391 294.5027 335.4739 295.9925 336.9637 295.2476 337.7086 291.5229 338.4536 290.0331 340.6884 288.5432 339.9434 287.7983 341.4333 287.0534 341.4333 286.3084 339.9434 284.0736 339.1985 283.3287 336.9637 280.349 334.7289 280.349 332.4941 283.3287 334.7289 283.3287 333.2391 281.8388 329.5144 279.6041 325.0448 279.6041 321.3202 277.3693 319.8303 277.3693 311.6361 278.1142 310.8911 276.6243 302.6969 275.8794 302.6969 275.1345 300.4621 272.1547 295.2476 269.92 296.7375 269.175 295.9925 267.6852 298.2273 263.2156 300.4621 261.7257 298.9723 260.2359 298.2273 259.4909 298.9723 258.0011 294.5027 255.7663 292.2679 255.0213 290.778 255.7663 288.5432 258.746 283.3287 258.0011 277.3693 259.4909 273.6446 263.2156 271.4098 273.6446 275.8794 272.8997 278.8591 278.8591 286.3084 277.3693 289.2882 279.6041 290.778 279.6041 291.5229 278.8591 293.0128 281.0939 295.2476 Z" id="VU.ML" fill="#cee3f5" stroke="#6e6e6e" stroke-width="0.4">
      <desc>
        <labelrank>9</labelrank>
        <code_hasc>VU.ML</code_hasc>
        <name>Malampa</name>
        <admin>Vanuatu</admin>
        <type_en>Province</type_en>
        <region/>
        <woe_id>20069886</woe_id>
        <longitude>167</longitude>
        <woe_name>Malampa</woe_name>
        <fips>NH16</fips>
        <woe_label>Malampa, VU, Vanuatu</woe_label>
        <latitude>-16</latitude>
        <iso_a2>VU</iso_a2>
        <postal>ML</postal>
        <type>Province</type>
        <id>VU.ML</id>
      </desc>
    </path>
    <path d="M 356.3319 284.8186 354.0971 284.8186 353.3522 284.0736 352.6073 278.8591 351.1174 272.8997 349.6275 265.4504 348.1377 260.2359 347.3927 256.5112 346.6478 252.7866 347.3927 249.0619 349.6275 241.6126 350.3725 233.4184 352.6073 233.4184 353.3522 238.6329 354.842 240.8677 354.0971 249.8068 355.587 252.7866 355.587 257.2561 357.8218 263.2156 358.5667 268.4301 360.0566 273.6446 360.0566 280.349 359.3116 283.3287 356.3319 284.8186 Z M 322.81 234.9082 320.5752 235.6531 310.8911 234.9082 305.6766 232.6734 305.6766 231.9285 306.4216 230.4386 317.5955 219.2647 325.7898 217.0299 333.984 215.54 336.2188 216.285 336.2188 217.0299 331.7492 222.2444 329.5144 229.6937 322.81 234.9082 Z M 353.3522 224.4792 352.6073 227.4589 350.3725 226.714 348.1377 226.714 348.8826 224.4792 348.8826 222.2444 348.1377 217.7748 348.1377 214.7951 348.8826 204.3661 347.3927 202.1313 345.9029 187.2327 345.9029 184.9979 345.158 183.508 345.9029 181.2732 347.3927 180.5283 348.1377 181.2732 349.6275 184.9979 351.1174 193.937 351.1174 198.4066 352.6073 202.1313 352.6073 205.8559 354.0971 208.8356 354.0971 215.54 354.0971 217.0299 353.3522 224.4792 Z" id="VU.PM" fill="#cee3f5" stroke="#6e6e6e" stroke-width="0.4">
      <desc>
        <labelrank>9</labelrank>
        <code_hasc>VU.PM</code_hasc>
        <name>Penama</name>
        <admin>Vanuatu</admin>
        <type_en>Province</type_en>
        <region/>
        <woe_id>20069885</woe_id>
        <longitude>168</longitude>
        <woe_name>Penama</woe_name>
        <fips>NH17</fips>
        <woe_label>Penama, VU, Vanuatu</woe_label>
        <latitude>-15</latitude>
        <iso_a2>VU</iso_a2>
        <postal>PM</postal>
        <type>Province</type>
        <id>VU.PM</id>
      </desc>
    </path>
    <path d="M 363.7812 435.2946 363.7812 436.0395 366.016 434.5496 371.9755 433.8047 373.4653 433.8047 374.9552 435.2946 375.7001 437.5293 377.19 438.2743 380.1697 444.9787 381.6596 445.7236 383.1494 448.7033 384.6393 449.4482 386.8741 448.7033 386.8741 450.1932 382.4045 459.1323 378.6798 460.6222 377.19 461.3671 375.7001 459.8773 368.2508 461.3671 366.7609 460.6222 366.016 458.3874 364.5261 459.8773 364.5261 457.6425 363.7812 458.3874 362.2914 457.6425 360.8015 458.3874 361.5464 455.4077 358.5667 456.8975 355.587 457.6425 357.0768 456.1526 360.8015 454.6628 361.5464 452.428 360.0566 453.1729 358.5667 450.1932 356.3319 449.4482 353.3522 449.4482 352.6073 450.1932 349.6275 453.1729 348.8826 453.1729 348.1377 451.683 346.6478 450.9381 349.6275 444.9787 354.0971 441.254 357.8218 436.0395 360.0566 433.8047 363.0363 433.8047 363.7812 435.2946 Z M 352.6073 436.7844 351.8623 438.2743 351.8623 435.2946 354.842 432.3148 358.5667 430.825 360.0566 433.0598 355.587 434.5496 352.6073 436.7844 Z M 367.5059 428.5902 366.016 428.5902 363.7812 427.8453 363.0363 425.6105 363.7812 422.6307 364.5261 421.8858 366.016 423.3757 366.7609 424.8655 367.5059 428.5902 Z M 365.2711 391.3436 363.7812 390.5987 363.7812 389.8538 366.016 387.619 369.7407 386.1291 373.4653 386.8741 369.7407 388.3639 368.2508 390.5987 365.2711 391.3436 Z M 386.8741 376.445 386.1291 377.19 383.1494 376.445 383.8943 371.9755 385.3842 370.4856 387.619 370.4856 389.1089 372.7204 386.8741 376.445 Z M 351.8623 340.6884 353.3522 342.9232 354.842 346.6478 355.587 347.3927 356.3319 351.1174 357.0768 351.8623 359.3116 351.1174 361.5464 351.1174 363.0363 352.6073 365.2711 356.3319 366.7609 357.0768 368.2508 360.0566 370.4856 360.0566 374.9552 360.0566 377.19 360.8015 378.6798 363.0363 377.19 363.7812 377.9349 366.7609 377.9349 367.5059 377.19 367.5059 376.445 367.5059 371.2305 364.5261 369.7407 363.0363 366.7609 361.5464 365.2711 361.5464 361.5464 362.2914 355.587 365.2711 351.8623 363.7812 348.1377 360.8015 347.3927 359.3116 347.3927 355.587 345.158 354.0971 345.9029 348.1377 346.6478 346.6478 348.1377 345.158 348.1377 342.9232 348.1377 340.6884 348.8826 341.4333 350.3725 340.6884 351.8623 340.6884 Z" id="VU.SE" fill="#cee3f5" stroke="#6e6e6e" stroke-width="0.4">
      <desc>
        <labelrank>9</labelrank>
        <code_hasc>VU.SE</code_hasc>
        <name>Shefa</name>
        <admin>Vanuatu</admin>
        <type_en>Province</type_en>
        <region/>
        <woe_id>20069888</woe_id>
        <longitude>168</longitude>
        <woe_name>Shefa</woe_name>
        <fips>NH18</fips>
        <woe_label>Shefa, VU, Vanuatu</woe_label>
        <latitude>-16</latitude>
        <iso_a2>VU</iso_a2>
        <postal>SE</postal>
        <type>Province</type>
        <id>VU.SE</id>
      </desc>
    </path>
  </g>
</svg>