<?xml version="1.0" encoding="UTF-8"?>
<svg xmlns="http://www.w3.org/2000/svg" width="700" height="700">
  <g id="suriname">
    <path d="M 162.8713 53.2219 162.4858 53.9815 161.7216 53.4722 158.4284 45.7282 163.0634 34.7056 163.3043 38.766 161.3629 46.2438 162.8713 53.2219 Z M 271.4646 79.4087 271.0726 81.4883 270.5785 82.2731 269.7134 82.4014 266.6323 80.8434 262.7666 83.505 259.6701 83.5609 259.4092 84.579 260.0294 86.2717 265.5656 91.942 266.3941 93.2897 266.8503 94.9044 266.687 97.2433 265.9236 98.8391 263.4582 101.8998 263.3128 103.7468 262.6755 104.7816 262.302 105.7996 262.4913 106.5249 267.8225 108.1983 268.8481 107.8285 270.3983 103.4199 272.1077 102.749 273.1969 103.346 277.5077 111.3874 277.549 112.941 276.7814 114.4678 273.7671 117.2001 233.5825 114.3867 166.3863 124.6285 148.3847 126.3529 147.5354 124.9889 143.9533 124.5655 142.5405 125.3821 142.2421 126.9829 144.8123 130.6285 144.368 131.7369 141.8124 132.637 140.342 132.2189 139.2051 129.9841 138.9755 118.3148 135.6976 117.4817 131.7918 118.4513 131.1295 116.8997 133.0778 113.2786 142.9715 102.482 144.3823 92.3409 145.9434 88.8624 149.734 85.0992 155.1071 83.0735 157.3733 81.2641 160.0341 76.8453 164.1044 58.8068 164.9412 42.9696 166.4898 33.2451 170.4484 21.8495 176.5399 11.2255 181.7645 9.6002 188.5224 4.1444 191.8525 3.2414 194.8786 1 215.9727 5.3928 244.5437 6.4237 253.865 11.3481 254.6318 45.0558 259.7131 55.1111 260.4309 60.6882 264.6296 69.1879 270.7464 76.568 271.1426 77.7079 271.4646 79.4087 Z" id="SR.NI" fill="#cee3f5" stroke="#6e6e6e" stroke-width="0.4">
      <desc>
        <labelrank>6</labelrank>
        <code_hasc>SR.NI</code_hasc>
        <name>Nickerie</name>
        <admin>Suriname</admin>
        <type_en>District</type_en>
        <region/>
        <woe_id>2346410</woe_id>
        <longitude>-56</longitude>
        <woe_name>Nickerie</woe_name>
        <fips>NS14</fips>
        <woe_label>Nickerie, SR, Suriname</woe_label>
        <latitude>5</latitude>
        <iso_a2>SR</iso_a2>
        <postal>NI</postal>
        <type>Distrikt</type>
        <id>SR.NI</id>
      </desc>
    </path>
    <path d="M 547.1533 173.2884 558.43 177.6239 562.9677 181.6917 565.8037 188.3945 564.9774 191.8397 561.9282 197.0918 560.8566 205.1378 557.4113 212.574 556.0092 219.9902 552.874 226.8474 552.3791 247.3042 550.5037 250.992 541.7296 259.6935 539.5204 263.5799 539.505 269.5008 543.2784 282.012 543.5917 287.3629 539.583 298.8292 531.1926 314.9255 529.5769 315.6174 527.9727 314.6522 525.1176 310.2358 523.1317 308.6149 520.4797 308.4014 513.1641 317.254 502.2375 319.7046 491.4839 328.9723 480.5882 334.5798 477.0956 335.203 472.2928 332.7111 470.2224 325.5143 466.8503 266.691 465.2931 261.7119 460.8682 255.2842 462.0009 221.9874 459.1917 194.6213 454.9751 183.2827 437.9882 156.7499 443.7412 150.1889 451.8647 144.2135 457.4175 138.5839 463.9661 127.2918 463.8395 125.1342 461.519 121.6314 463.5326 117.5998 467.888 116.7257 517.8621 116.253 521.267 116.7845 523.1736 119.622 523.7299 129.7284 525.2091 133.231 535.5974 140.6591 539.45 145.4879 540.2159 149.0258 539.4778 154.0674 542.9623 158.2579 543.7584 161.5713 543.1137 172.1886 544.709 174.2582 547.1533 173.2884 Z" id="SR.BR" fill="#cee3f5" stroke="#6e6e6e" stroke-width="0.4">
      <desc>
        <labelrank>7</labelrank>
        <code_hasc>SR.BR</code_hasc>
        <name>Brokopondo</name>
        <admin>Suriname</admin>
        <type_en>District</type_en>
        <region/>
        <woe_id>2346406</woe_id>
        <longitude>-55</longitude>
        <woe_name>Brokopondo</woe_name>
        <fips>NS10</fips>
        <woe_label>Brokopondo, SR, Suriname</woe_label>
        <latitude>4</latitude>
        <iso_a2>SR</iso_a2>
        <postal>BR</postal>
        <type>Distrikt</type>
        <id>SR.BR</id>
      </desc>
    </path>
    <path d="M 635.969 134.4641 631.952 130.3646 622.056 126.3279 610.4236 118.8064 579.9423 107.4846 585.4399 99.7322 587.463 94.1437 587.79 88.3337 586.906 82.5777 584.3956 76.6261 571.5824 56.0525 565.8588 40.7319 565.5413 34.3449 570.6278 26.205 569.3944 12.8794 571.4032 7.2416 610.4081 12.8179 647.0745 20.4424 673.0793 28.3031 678.9998 29.4192 683.2323 29.1074 686.9319 32.8062 686.666 34.5521 691.7097 45.2373 684.2503 58.0167 679.3081 84.1661 677.2271 88.0264 669.7333 95.9051 668.0627 100.6682 657.7291 115.487 644.5712 124.9843 635.969 134.4641 Z" id="SR.MA" fill="#cee3f5" stroke="#6e6e6e" stroke-width="0.4">
      <desc>
        <labelrank>6</labelrank>
        <code_hasc>SR.MA</code_hasc>
        <name>Marowijne</name>
        <admin>Suriname</admin>
        <type_en>District</type_en>
        <region/>
        <woe_id>2346409</woe_id>
        <longitude>-54</longitude>
        <woe_name>Marowijne</woe_name>
        <fips>NS13</fips>
        <woe_label>Marowijne, SR, Suriname</woe_label>
        <latitude>5</latitude>
        <iso_a2>SR</iso_a2>
        <postal>MA</postal>
        <type>Distrikt</type>
        <id>SR.MA</id>
      </desc>
    </path>
    <path d="M 515.5551 58.7636 509.5488 61.6615 507.1896 67.2568 512.9822 66.2151 514.2238 70.9177 513.9096 80.2742 517.0414 81.272 584.3956 76.6261 586.906 82.5777 587.79 88.3337 587.463 94.1437 585.4399 99.7322 579.9423 107.4846 577.5358 106.7031 566.075 128.0159 564.0279 133.4051 555.1756 142.9297 549.9564 165.3612 547.1533 173.2884 544.709 174.2582 543.1137 172.1886 543.7584 161.5713 542.9623 158.2579 539.4778 154.0674 540.2159 149.0258 539.45 145.4879 535.5974 140.6591 525.2091 133.231 523.7299 129.7284 523.1736 119.622 521.267 116.7845 517.8621 116.253 467.888 116.7257 463.5326 117.5998 461.519 121.6314 463.8395 125.1342 463.9661 127.2918 457.4175 138.5839 451.8647 144.2135 443.7412 150.1889 437.9882 156.7499 433.9384 158.4597 428.505 166.6944 416.146 172.3231 408.9143 173.851 405.3007 171.771 401.9776 159.8522 396.0757 155.6142 382.0481 151.7108 364.5961 155.1833 354.9607 152.9955 354.8048 144.4166 359.8757 106.5824 368.705 80.0211 373.2732 86.4181 373.1385 88.101 369.2703 94.2273 370.2969 101.2876 371.5205 102.1856 380.5081 100.5486 389.1704 102.4147 440.03 98.4413 444.432 96.6964 447.5683 98.9737 450.2613 95.8138 455.4543 93.9386 458.1411 87.6973 458.3346 85.4274 455.0727 82.4168 454.276 80.1819 456.34 74.3983 459.2221 70.8237 456.9328 66.6649 457.33 65.5513 464.4873 61.8017 463.1924 57.8323 479.4009 59.686 485.0296 59.5263 502.907 56.0666 507.1481 56.2695 515.5551 58.7636 Z" id="SR.PR" fill="#cee3f5" stroke="#6e6e6e" stroke-width="0.4">
      <desc>
        <labelrank>6</labelrank>
        <code_hasc>SR.PR</code_hasc>
        <name>Para</name>
        <admin>Suriname</admin>
        <type_en>District</type_en>
        <region/>
        <woe_id>2346411</woe_id>
        <longitude>-55</longitude>
        <woe_name>Para</woe_name>
        <fips>NS15</fips>
        <woe_label>Para, SR, Suriname</woe_label>
        <latitude>5</latitude>
        <iso_a2>SR</iso_a2>
        <postal>PR</postal>
        <type>Distrikt</type>
        <id>SR.PR</id>
      </desc>
    </path>
    <path d="M 437.9882 156.7499 454.9751 183.2827 459.1917 194.6213 462.0009 221.9874 460.8682 255.2842 465.2931 261.7119 466.8503 266.691 470.2224 325.5143 472.2928 332.7111 477.0956 335.203 480.5882 334.5798 491.4839 328.9723 502.2375 319.7046 513.1641 317.254 520.4797 308.4014 523.1317 308.6149 525.1176 310.2358 527.9727 314.6522 529.5769 315.6174 531.1926 314.9255 539.583 298.8292 543.5917 287.3629 543.2784 282.012 539.505 269.5008 539.5204 263.5799 541.7296 259.6935 550.5037 250.992 552.3791 247.3042 552.874 226.8474 556.0092 219.9902 557.4113 212.574 560.8566 205.1378 561.9282 197.0918 564.9774 191.8397 565.8037 188.3945 562.9677 181.6917 558.43 177.6239 547.1533 173.2884 549.9564 165.3612 555.1756 142.9297 564.0279 133.4051 566.075 128.0159 577.5358 106.7031 579.9423 107.4846 610.4236 118.8064 622.056 126.3279 631.952 130.3646 635.969 134.4641 634.0738 137.1843 632.1491 143.84 628.4939 146.7914 626.7969 150.7832 617.6674 161.0741 614.5949 165.94 613.1075 171.446 614.583 178.1032 614.2586 180.5683 609.019 184.5747 608.2513 186.2205 609.6093 190.2753 609.6458 210.9021 610.1953 213.1499 614.9021 215.4594 616.8996 218.5376 616.5365 228.6726 618.9403 236.0837 618.9524 242.9248 614.8615 251.9268 614.3922 256.1574 617.3335 274.1682 622.4639 284.7559 623.9579 291.9571 624.121 296.204 621.2188 302.1911 621.8908 305.0387 623.8533 307.3101 633.3082 311.5674 633.9642 315.0107 630.5497 325.9064 630.7732 330.0497 632.3729 332.8483 638.1119 337.9752 640.9854 345.3859 645.5797 349.9363 649.7462 357.6427 654.1997 360.6653 658.7737 367.9307 669.162 372.2462 674.3869 379.1997 677.8344 391.0473 681.863 397.9857 687.2737 396.8189 691.1481 399.7947 692.1583 401.8995 689.2506 415.2658 689.8197 427.9003 687.0897 434.592 681.0008 440.9006 678.698 449.3567 676.8979 452.2604 671.1861 456.3359 660.7512 470.5188 654.9545 482.7514 658.8502 482.1502 660.6848 484.5562 660.7038 491.8683 658.4158 494.1506 660.7094 495.8568 662.0376 502.2347 659.3586 504.3967 660.2645 506.7436 663.0104 509.0794 663.0917 511.3757 661.8835 516.4881 659.0596 520.8515 658.344 524.5215 661.8996 528.5743 658.7604 531.0474 654.8064 541.386 642.5943 557.8458 636.7128 569.7652 630.1752 586.2511 627.4616 590.3024 619.4294 598.3034 611.1735 599.5195 607.6849 601.4647 603.1711 612.8538 601.2794 614.3142 597.989 614.6621 592.3439 612.9576 589.9131 613.3824 587.2154 616.6471 580.8175 618.2832 574.2446 617.8736 572.2904 616.8996 571.8486 612.1614 570.3396 608.3648 571.3011 605.2137 573.4365 604.7893 573.7136 603.7533 571.6808 595.9349 565.7364 593.2376 562.9194 593.3604 557.4304 596.3074 549.1283 598.7639 542.681 596.4548 526.1611 580.4802 525.4485 578.9271 525.9941 576.631 530.3397 571.1222 529.4273 569.4657 519.5773 572.5436 509.7466 580.126 502.2571 583.5384 499.6177 582.0379 500.2066 578.853 499.4161 577.2999 493.6788 577.7769 480.2501 588.0432 476.3309 587.8028 474.3598 585.3697 471.7034 584.4039 468.7262 584.6378 465.8318 585.8122 463.0158 588.5487 460.2402 597.2916 455.449 599.3553 442.8969 598.4169 420.3886 598.7299 414.1605 601.6212 400.9052 604.9178 397.5763 604.2273 395.8142 602.8292 392.6287 597.7114 376.319 592.5577 363.4655 582.9934 357.4503 583.2769 355.1145 587.1512 353.3333 594.262 352.3499 604.5919 346.1496 613.2377 344.1483 614.152 339.2266 612.4246 337.156 612.8986 332.4137 620.3623 329.9282 628.4048 331.8638 629.6827 342.3337 630.8594 345.5105 633.7772 347.05 640.345 349.3195 643.8925 355.292 648.252 361.3074 656.0029 368.3132 662.7828 368.8382 664.9102 367.4178 670.0966 368.562 684.1852 367.6754 690.2001 362.3342 695.7009 351.2704 699 340.6852 696.8187 330.1613 692.6047 319.3247 689.8011 308.5653 689.9703 296.1062 683.4368 292.876 683.0558 284.8079 684.5844 282.3505 684.0827 273.6115 680.92 272.037 677.3633 270.5613 676.1802 267.0362 675.0521 263.4905 671.6368 257.1574 668.3537 240.684 668.0766 236.0825 666.1964 219.92 643.4157 215.7771 627.4268 213.648 624.1796 206.7164 621.8866 206.0932 614.3763 204.221 610.6458 198.2128 605.4267 196.9349 602.3957 198.3192 598.2623 194.7286 594.0724 193.3952 590.3075 194.7981 585.0174 193.4018 583.4709 187.5989 586.7799 186.5152 585.225 187.1038 578.3803 182.049 571.9526 183.1938 564.9616 182.0588 562.8282 178.5667 564.784 177.2309 563.7984 176.2312 557.2193 169.3584 547.4048 171.5613 541.8221 169.9389 541.0346 163.6351 542.2701 162.5279 539.1178 165.4347 533.1043 164.2642 532.0065 157.3342 534.2768 155.3212 533.5577 154.0406 530.4222 152.696 529.7126 149.7933 519.3404 155.8167 513.2708 155.0129 510.7921 149.4326 510.1974 147.2904 508.9685 149.5523 505.2594 148.6738 500.4667 152.1124 499.3234 149.3991 490.9454 146.5042 488.2908 144.9813 485.241 147.5487 480.3498 146.5175 479.3123 142.2439 481.8527 138.6968 480.2156 140.5695 475.7722 138.3914 470.0708 139.6615 462.6049 137.6472 457.8446 139.2835 454.7133 139.6834 448.9123 135.0072 438.022 129.6901 442.1486 125.2028 442.9006 115.4215 439.2269 115.5983 442.2535 114.4242 443.7149 109.6755 444.9238 106.8075 447.3232 104.8415 445.2171 96.9064 442.4867 95.26 445.7648 91.8848 445.4777 83.8142 440.9804 76.8328 438.7126 75.2021 434.1283 76.2635 428.6039 75.8796 425.4469 78.441 420.5259 78.6902 417.5732 75.9461 414.4716 71.4489 411.6253 68.8297 411.0324 64.9443 402.4141 58.5502 398.3235 47.5604 393.142 44.6958 386.5067 43.5598 375.7128 40.0046 368.0951 28.8024 352.4808 17.7832 343.7876 13.7292 338.6887 7.8417 311.3549 8.147 307.8964 10.4907 304.3491 27.0198 286.6964 28.4815 279.1951 26.598 271.2476 27.2749 268.1922 32.4626 261.3199 33.719 255.7875 39.6848 243.645 42.3628 235.1461 46.7266 227.9479 46.9703 224.779 41.1047 216.0897 38.8823 209.2078 33.3127 205.9294 32.0552 203.6236 33.226 198.009 45.9722 181.3169 48.0789 180.7925 53.4008 182.4807 57.5084 181.9279 59.4621 180.4141 61.9975 175.6635 66.506 171.3682 72.1352 168.6349 78.4324 168.2913 85.0058 171.1648 92.3659 168.5567 100.5172 167.6861 105.0884 171.2217 123.3401 168.8657 132.05 165.8228 138.5769 166.4736 140.259 165.5064 134.16 160.0001 133.4114 158.129 138.8907 141.2894 140.7803 140.3099 145.877 141.0823 148.2018 146.143 153.4538 143.5656 155.5013 141.6322 156.3291 139.3075 155.082 135.959 149.5157 129.1898 148.3847 126.3529 166.3863 124.6285 233.5825 114.3867 273.7671 117.2001 289.4881 116.6237 294.4096 113.85 300.8437 107.8669 306.785 105.3699 316.4569 104.6195 332.9524 105.5133 344.7349 104.2094 347.6793 98.5149 350.7417 97.6191 353.9789 93.3918 360.8178 89.7272 359.6921 83.573 368.705 80.0211 359.8757 106.5824 354.8048 144.4166 354.9607 152.9955 364.5961 155.1833 382.0481 151.7108 396.0757 155.6142 401.9776 159.8522 405.3007 171.771 408.9143 173.851 416.146 172.3231 428.505 166.6944 433.9384 158.4597 437.9882 156.7499 Z" id="SR.SI" fill="#cee3f5" stroke="#6e6e6e" stroke-width="0.4">
      <desc>
        <labelrank>6</labelrank>
        <code_hasc>SR.SI</code_hasc>
        <name>Sipaliwini</name>
        <admin>Suriname</admin>
        <type_en>District</type_en>
        <region/>
        <woe_id>2346414</woe_id>
        <longitude>-55</longitude>
        <woe_name>Sipaliwini</woe_name>
        <fips>NS18</fips>
        <woe_label>Sipaliwini, SR, Suriname</woe_label>
        <latitude>3</latitude>
        <iso_a2>SR</iso_a2>
        <postal>SI</postal>
        <type>Distrikt</type>
        <id>SR.SI</id>
      </desc>
    </path>
    <path d="M 571.4032 7.2416 569.3944 12.8794 570.6278 26.205 565.5413 34.3449 565.8588 40.7319 571.5824 56.0525 584.3956 76.6261 517.0414 81.272 513.9096 80.2742 514.2238 70.9177 512.9822 66.2151 507.1896 67.2568 509.5488 61.6615 515.5551 58.7636 517.5376 57.0869 516.0911 54.8358 506.1099 51.2904 500.5632 46.359 498.0391 42.1926 495.8076 36.2997 500.5738 32.971 505.1835 31.4395 507.7701 22.7016 511.4659 22.6835 516.9964 26.538 520.3866 27.2408 525.2237 25.5766 530.3928 28.105 538.7586 23.9003 544.991 27.2081 540.4244 22.661 536.6955 22.4614 533.2301 24.8635 529.402 25.2188 524.4774 23.085 521.8226 24.6129 519.3012 24.4964 514.1657 21.111 501.0538 16.7212 498.1529 14.8075 495.3069 10.1348 497.8907 7.4376 502.5123 5.5944 519.7259 4.2157 559.916 5.5172 571.4032 7.2416 Z" id="SR.CM" fill="#cee3f5" stroke="#6e6e6e" stroke-width="0.4">
      <desc>
        <labelrank>6</labelrank>
        <code_hasc>SR.CM</code_hasc>
        <name>Commewijne</name>
        <admin>Suriname</admin>
        <type_en>District</type_en>
        <region/>
        <woe_id>2346407</woe_id>
        <longitude>-54</longitude>
        <woe_name>Commewijne</woe_name>
        <fips>NS13</fips>
        <woe_label>Commewijne, SR, Suriname</woe_label>
        <latitude>5</latitude>
        <iso_a2>SR</iso_a2>
        <postal>CM</postal>
        <type>Distrikt</type>
        <id>SR.CM</id>
      </desc>
    </path>
    <path d="M 371.9959 57.1691 369.3353 60.3693 360.8353 61.9968 359.0873 64.7319 360.1276 68.1588 367.755 76.8619 368.705 80.0211 359.6921 83.573 360.8178 89.7272 353.9789 93.3918 350.7417 97.6191 347.6793 98.5149 344.7349 104.2094 332.9524 105.5133 316.4569 104.6195 306.785 105.3699 300.8437 107.8669 294.4096 113.85 289.4881 116.6237 273.7671 117.2001 276.7814 114.4678 277.549 112.941 277.5077 111.3874 273.1969 103.346 272.1077 102.749 270.3983 103.4199 268.8481 107.8285 267.8225 108.1983 262.4913 106.5249 262.302 105.7996 262.6755 104.7816 263.3128 103.7468 263.4582 101.8998 265.9236 98.8391 266.687 97.2433 266.8503 94.9044 266.3941 93.2897 265.5656 91.942 260.0294 86.2717 259.4092 84.579 259.6701 83.5609 262.7666 83.505 266.6323 80.8434 269.7134 82.4014 270.5785 82.2731 271.0726 81.4883 271.4646 79.4087 271.1426 77.7079 270.7464 76.568 264.6296 69.1879 260.4309 60.6882 259.7131 55.1111 254.6318 45.0558 253.865 11.3481 295.4475 20.7047 304.0134 21.0758 334.0374 28.5298 354.9541 34.7797 365.5211 35.7958 370.9476 40.5258 371.9269 42.7552 371.9959 57.1691 Z" id="SR.CR" fill="#cee3f5" stroke="#6e6e6e" stroke-width="0.4">
      <desc>
        <labelrank>6</labelrank>
        <code_hasc>SR.CR</code_hasc>
        <name>Coronie</name>
        <admin>Suriname</admin>
        <type_en>District</type_en>
        <region/>
        <woe_id>2346408</woe_id>
        <longitude>-56</longitude>
        <woe_name>Coronie</woe_name>
        <fips>NS12</fips>
        <woe_label>Coronie, SR, Suriname</woe_label>
        <latitude>5</latitude>
        <iso_a2>SR</iso_a2>
        <postal>CR</postal>
        <type>Distrikt</type>
        <id>SR.CR</id>
      </desc>
    </path>
    <path d="M 500.5738 32.971 495.8076 36.2997 498.0391 42.1926 490.8748 39.8688 486.7833 36.6961 483.8032 28.7408 483.6435 19.4491 490.5674 20.2805 497.3427 18.4734 503.5373 22.9779 504.8314 25.4416 502.8302 30.3347 500.5738 32.971 Z" id="SR.PM" fill="#cee3f5" stroke="#6e6e6e" stroke-width="0.4">
      <desc>
        <labelrank>9</labelrank>
        <code_hasc>SR.PM</code_hasc>
        <name>Paramaribo</name>
        <admin>Suriname</admin>
        <type_en>District</type_en>
        <region/>
        <woe_id>2346412</woe_id>
        <longitude>-55</longitude>
        <woe_name>Paramaribo</woe_name>
        <fips>NS16</fips>
        <woe_label>Paramaribo, SR, Suriname</woe_label>
        <latitude>5</latitude>
        <iso_a2>SR</iso_a2>
        <postal>PM</postal>
        <type>Distrikt</type>
        <id>SR.PM</id>
      </desc>
    </path>
    <path d="M 479.7195 16.8825 468.8571 39.8337 462.7447 45.8703 462.1558 51.7827 463.1924 57.8323 464.4873 61.8017 457.33 65.5513 456.9328 66.6649 459.2221 70.8237 456.34 74.3983 454.276 80.1819 455.0727 82.4168 458.3346 85.4274 458.1411 87.6973 455.4543 93.9386 450.2613 95.8138 447.5683 98.9737 444.432 96.6964 440.03 98.4413 389.1704 102.4147 380.5081 100.5486 371.5205 102.1856 370.2969 101.2876 369.2703 94.2273 373.1385 88.101 373.2732 86.4181 368.705 80.0211 367.755 76.8619 360.1276 68.1588 359.0873 64.7319 360.8353 61.9968 369.3353 60.3693 371.9959 57.1691 373.1674 57.1696 374.0465 54.5399 374.2128 46.2762 368.9755 32.9396 371.5526 29.5681 369.8738 28.072 365.8669 28.2524 363.5408 26.2983 362.9909 22.9594 363.7448 20.4576 367.603 15.223 371.4441 11.1995 376.9073 8.2173 380.8555 7.1916 415.4803 5.5341 456.0031 7.5312 465.8738 9.3907 470.5745 12.6209 476.7718 14.8463 479.7195 16.8825 Z" id="SR.SA" fill="#cee3f5" stroke="#6e6e6e" stroke-width="0.4">
      <desc>
        <labelrank>6</labelrank>
        <code_hasc>SR.SA</code_hasc>
        <name>Saramacca</name>
        <admin>Suriname</admin>
        <type_en>District</type_en>
        <region/>
        <woe_id>2346413</woe_id>
        <longitude>-55</longitude>
        <woe_name>Saramacca</woe_name>
        <fips>NS17</fips>
        <woe_label>Saramacca, SR, Suriname</woe_label>
        <latitude>5</latitude>
        <iso_a2>SR</iso_a2>
        <postal>SA</postal>
        <type>Distrikt</type>
        <id>SR.SA</id>
      </desc>
    </path>
    <path d="M 483.6435 19.4491 483.8032 28.7408 486.7833 36.6961 490.8748 39.8688 498.0391 42.1926 500.5632 46.359 506.1099 51.2904 516.0911 54.8358 517.5376 57.0869 515.5551 58.7636 507.1481 56.2695 502.907 56.0666 485.0296 59.5263 479.4009 59.686 463.1924 57.8323 462.1558 51.7827 462.7447 45.8703 468.8571 39.8337 479.7195 16.8825 483.6435 19.4491 Z" id="SR.WA" fill="#cee3f5" stroke="#6e6e6e" stroke-width="0.4">
      <desc>
        <labelrank>6</labelrank>
        <code_hasc>SR.WA</code_hasc>
        <name>Wanica</name>
        <admin>Suriname</admin>
        <type_en>District</type_en>
        <region/>
        <woe_id>2346415</woe_id>
        <longitude>-55</longitude>
        <woe_name>Wanica</woe_name>
        <fips>NS19</fips>
        <woe_label>Wanica, SR, Suriname</woe_label>
        <latitude>5</latitude>
        <iso_a2>SR</iso_a2>
        <postal>WA</postal>
        <type>Distrikt</type>
        <id>SR.WA</id>
      </desc>
    </path>
  </g>
</svg>