<?xml version="1.0" encoding="UTF-8"?>
<svg xmlns="http://www.w3.org/2000/svg" width="700" height="700">
  <g id="maryland">
    <path d="M 459.7562 286.4894 457.2898 288.9558 451.1237 287.7226 446.1908 282.7898 431.3922 276.6237 431.3922 261.8251 459.7562 261.8251 459.7562 286.4894 Z" id="US.MD.510" fill="#cee3f5" stroke="#6e6e6e" stroke-width="0.4">
      <desc>
        <name>Baltimore city</name>
        <stateAbbrev>MD</stateAbbrev>
        <state>Maryland</state>
        <fips>510</fips>
        <incits>24510</incits>
        <id>US.MD.510</id>
        <population>622104</population>
      </desc>
    </path>
    <path d="M 601.576 432.0088 641.0389 429.5424 642.2721 425.8428 647.2049 423.3763 649.6714 419.6767 645.9717 415.977 648.4382 412.2774 644.7385 404.8781 664.47 404.8781 699 404.8781 697.7668 413.5106 692.8339 427.076 690.3675 430.7756 689.1343 434.4753 681.735 449.2739 676.8021 461.606 670.636 470.2385 659.5371 470.2385 638.5724 472.7049 600.3428 476.4046 601.576 473.9382 595.4099 470.2385 594.1767 469.0053 600.3428 466.5389 601.576 464.0724 607.742 464.0724 608.9753 461.606 612.6749 460.3728 611.4417 456.6731 607.742 452.9735 611.4417 449.2739 612.6749 446.8074 607.742 440.6413 606.5088 440.6413 602.8092 435.7085 601.576 432.0088 Z" id="US.MD.047" fill="#cee3f5" stroke="#6e6e6e" stroke-width="0.4">
      <desc>
        <name>Worcester County</name>
        <stateAbbrev>MD</stateAbbrev>
        <state>Maryland</state>
        <fips>047</fips>
        <incits>24047</incits>
        <id>US.MD.047</id>
        <population>51620</population>
      </desc>
    </path>
    <path d="M 551.0141 441.8746 552.2473 439.4081 553.4806 436.9417 553.4806 428.3092 554.7138 425.8428 559.6466 422.1431 564.5795 419.6767 563.3463 415.977 567.0459 414.7438 565.8127 412.2774 565.8127 409.811 568.2792 409.811 569.5124 406.1113 568.2792 403.6449 570.7456 402.4117 570.7456 399.9452 574.4452 398.712 579.3781 396.2456 581.8445 391.3127 584.311 391.3127 588.0106 387.6131 589.2438 403.6449 606.5088 403.6449 632.4064 404.8781 644.7385 404.8781 648.4382 412.2774 645.9717 415.977 649.6714 419.6767 647.2049 423.3763 642.2721 425.8428 641.0389 429.5424 601.576 432.0088 594.1767 428.3092 591.7102 429.5424 589.2438 432.0088 585.5442 433.242 583.0777 430.7756 578.1449 430.7756 575.6784 433.242 571.9788 435.7085 567.0459 435.7085 563.3463 438.1749 560.8799 440.6413 551.0141 441.8746 Z" id="US.MD.045" fill="#cee3f5" stroke="#6e6e6e" stroke-width="0.4">
      <desc>
        <name>Wicomico County</name>
        <stateAbbrev>MD</stateAbbrev>
        <state>Maryland</state>
        <fips>045</fips>
        <incits>24045</incits>
        <id>US.MD.045</id>
        <population>100896</population>
      </desc>
    </path>
    <path d="M 505.3852 492.4364 510.318 465.3057 530.0495 465.3057 537.4488 451.7403 546.0813 449.2739 546.0813 444.341 551.0141 441.8746 560.8799 440.6413 563.3463 438.1749 567.0459 435.7085 571.9788 435.7085 575.6784 433.242 578.1449 430.7756 583.0777 430.7756 585.5442 433.242 589.2438 432.0088 591.7102 429.5424 594.1767 428.3092 601.576 432.0088 602.8092 435.7085 606.5088 440.6413 607.742 440.6413 612.6749 446.8074 611.4417 449.2739 607.742 452.9735 611.4417 456.6731 612.6749 460.3728 608.9753 461.606 607.742 464.0724 601.576 464.0724 600.3428 466.5389 594.1767 469.0053 595.4099 470.2385 601.576 473.9382 600.3428 476.4046 596.6431 480.1042 596.6431 483.8039 589.2438 481.3375 579.3781 483.8039 573.212 488.7367 559.6466 488.7367 549.7809 489.97 551.0141 483.8039 542.3816 482.5707 533.7491 482.5707 505.3852 492.4364 Z" id="US.MD.039" fill="#cee3f5" stroke="#6e6e6e" stroke-width="0.4">
      <desc>
        <name>Somerset County</name>
        <stateAbbrev>MD</stateAbbrev>
        <state>Maryland</state>
        <fips>039</fips>
        <incits>24039</incits>
        <id>US.MD.039</id>
        <population>26273</population>
      </desc>
    </path>
    <path d="M 474.5548 386.3799 481.9541 385.1466 489.3534 380.2138 491.8198 375.2809 496.7527 372.8145 505.3852 372.8145 507.8516 375.2809 514.0177 375.2809 520.1837 376.5141 521.417 381.447 530.0495 382.6802 532.5159 385.1466 536.2155 386.3799 541.1484 382.6802 543.6148 382.6802 544.8481 376.5141 547.3145 375.2809 549.7809 370.3481 559.6466 366.6484 567.0459 365.4152 573.212 366.6484 573.212 370.3481 580.6113 370.3481 586.7774 375.2809 586.7774 376.5141 588.0106 387.6131 584.311 391.3127 581.8445 391.3127 579.3781 396.2456 574.4452 398.712 570.7456 399.9452 570.7456 402.4117 568.2792 403.6449 569.5124 406.1113 568.2792 409.811 565.8127 409.811 565.8127 412.2774 567.0459 414.7438 563.3463 415.977 564.5795 419.6767 559.6466 422.1431 554.7138 425.8428 553.4806 428.3092 553.4806 436.9417 552.2473 439.4081 551.0141 441.8746 546.0813 444.341 546.0813 449.2739 537.4488 451.7403 530.0495 465.3057 510.318 465.3057 511.5512 462.8392 493.053 428.3092 491.8198 424.6095 489.3534 414.7438 477.0212 398.712 475.788 396.2456 474.5548 386.3799 Z" id="US.MD.019" fill="#cee3f5" stroke="#6e6e6e" stroke-width="0.4">
      <desc>
        <name>Dorchester County</name>
        <stateAbbrev>MD</stateAbbrev>
        <state>Maryland</state>
        <fips>019</fips>
        <incits>24019</incits>
        <id>US.MD.019</id>
        <population>32660</population>
      </desc>
    </path>
    <path d="M 549.7809 333.3516 549.7809 328.4187 551.0141 325.9523 552.2473 322.2527 558.4134 317.3198 562.1131 311.1537 565.8127 308.6873 567.0459 302.5212 574.4452 298.8216 580.6113 297.5883 583.0777 329.6519 586.7774 376.5141 586.7774 375.2809 580.6113 370.3481 573.212 370.3481 573.212 366.6484 567.0459 365.4152 559.6466 366.6484 549.7809 370.3481 547.3145 369.1148 544.8481 366.6484 539.9152 362.9488 542.3816 360.4823 542.3816 358.0159 549.7809 354.3163 552.2473 351.8498 557.1802 349.3834 557.1802 346.917 553.4806 344.4505 553.4806 341.9841 549.7809 338.2845 549.7809 333.3516 Z" id="US.MD.011" fill="#cee3f5" stroke="#6e6e6e" stroke-width="0.4">
      <desc>
        <name>Caroline County</name>
        <stateAbbrev>MD</stateAbbrev>
        <state>Maryland</state>
        <fips>011</fips>
        <incits>24011</incits>
        <id>US.MD.011</id>
        <population>32693</population>
      </desc>
    </path>
    <path d="M 473.3216 350.6166 479.4876 350.6166 484.4205 349.3834 494.2862 341.9841 497.9859 341.9841 500.4523 339.5177 504.1519 339.5177 509.0848 346.917 512.7845 340.7509 515.2509 340.7509 516.4841 338.2845 526.3498 338.2845 523.8834 334.5848 525.1166 330.8852 526.3498 328.4187 544.8481 332.1184 549.7809 333.3516 549.7809 338.2845 553.4806 341.9841 553.4806 344.4505 557.1802 346.917 557.1802 349.3834 552.2473 351.8498 549.7809 354.3163 542.3816 358.0159 542.3816 360.4823 539.9152 362.9488 544.8481 366.6484 547.3145 369.1148 549.7809 370.3481 547.3145 375.2809 544.8481 376.5141 543.6148 382.6802 541.1484 382.6802 536.2155 386.3799 532.5159 385.1466 530.0495 382.6802 521.417 381.447 520.1837 376.5141 514.0177 375.2809 507.8516 375.2809 505.3852 372.8145 496.7527 372.8145 491.8198 375.2809 489.3534 380.2138 481.9541 385.1466 474.5548 386.3799 470.8551 365.4152 473.3216 350.6166 Z" id="US.MD.041" fill="#cee3f5" stroke="#6e6e6e" stroke-width="0.4">
      <desc>
        <name>Talbot County</name>
        <stateAbbrev>MD</stateAbbrev>
        <state>Maryland</state>
        <fips>041</fips>
        <incits>24041</incits>
        <id>US.MD.041</id>
        <population>37931</population>
      </desc>
    </path>
    <path d="M 473.3216 350.6166 474.5548 345.6837 478.2544 335.818 485.6537 319.7862 488.1201 311.1537 499.2191 307.4541 500.4523 309.9205 499.2191 316.0866 507.8516 321.0194 510.318 321.0194 514.0177 318.553 510.318 313.6201 511.5512 311.1537 516.4841 306.2208 518.9505 303.7544 523.8834 303.7544 527.583 300.0548 530.0495 297.5883 534.9823 293.8887 534.9823 291.4223 531.2827 290.189 533.7491 286.4894 539.9152 282.7898 547.3145 281.5565 551.0141 282.7898 553.4806 281.5565 559.6466 281.5565 563.3463 279.0901 567.0459 280.3233 573.212 282.7898 579.3781 281.5565 580.6113 297.5883 574.4452 298.8216 567.0459 302.5212 565.8127 308.6873 562.1131 311.1537 558.4134 317.3198 552.2473 322.2527 551.0141 325.9523 549.7809 328.4187 549.7809 333.3516 544.8481 332.1184 526.3498 328.4187 525.1166 330.8852 523.8834 334.5848 526.3498 338.2845 516.4841 338.2845 515.2509 340.7509 512.7845 340.7509 509.0848 346.917 504.1519 339.5177 500.4523 339.5177 497.9859 341.9841 494.2862 341.9841 484.4205 349.3834 479.4876 350.6166 473.3216 350.6166 Z" id="US.MD.035" fill="#cee3f5" stroke="#6e6e6e" stroke-width="0.4">
      <desc>
        <name>Queen Annes County</name>
        <stateAbbrev>MD</stateAbbrev>
        <state>Maryland</state>
        <fips>035</fips>
        <incits>24035</incits>
        <id>US.MD.035</id>
        <population>48517</population>
      </desc>
    </path>
    <path d="M 488.1201 296.3551 500.4523 280.3233 506.6184 270.4576 515.2509 264.2915 522.6502 259.3587 530.0495 256.8922 534.9823 260.5919 542.3816 261.8251 544.8481 263.0583 547.3145 261.8251 551.0141 263.0583 564.5795 263.0583 569.5124 260.5919 578.1449 261.8251 579.3781 281.5565 573.212 282.7898 567.0459 280.3233 563.3463 279.0901 559.6466 281.5565 553.4806 281.5565 551.0141 282.7898 547.3145 281.5565 539.9152 282.7898 533.7491 286.4894 531.2827 290.189 534.9823 291.4223 534.9823 293.8887 530.0495 297.5883 527.583 300.0548 523.8834 303.7544 518.9505 303.7544 516.4841 306.2208 511.5512 311.1537 510.318 313.6201 514.0177 318.553 510.318 321.0194 507.8516 321.0194 499.2191 316.0866 500.4523 309.9205 499.2191 307.4541 488.1201 311.1537 488.1201 300.0548 488.1201 296.3551 Z" id="US.MD.029" fill="#cee3f5" stroke="#6e6e6e" stroke-width="0.4">
      <desc>
        <name>Kent County</name>
        <stateAbbrev>MD</stateAbbrev>
        <state>Maryland</state>
        <fips>029</fips>
        <incits>24029</incits>
        <id>US.MD.029</id>
        <population>19944</population>
      </desc>
    </path>
    <path d="M 505.3852 207.5636 574.4452 207.5636 574.4452 218.6625 578.1449 261.8251 569.5124 260.5919 564.5795 263.0583 551.0141 263.0583 547.3145 261.8251 544.8481 263.0583 542.3816 261.8251 534.9823 260.5919 530.0495 256.8922 533.7491 254.4258 536.2155 247.0265 534.9823 242.0936 528.8163 233.4611 521.417 224.8286 518.9505 223.5954 516.4841 218.6625 509.0848 213.7297 505.3852 207.5636 Z" id="US.MD.015" fill="#cee3f5" stroke="#6e6e6e" stroke-width="0.4">
      <desc>
        <name>Cecil County</name>
        <stateAbbrev>MD</stateAbbrev>
        <state>Maryland</state>
        <fips>015</fips>
        <incits>24015</incits>
        <id>US.MD.015</id>
        <population>101913</population>
      </desc>
    </path>
    <path d="M 453.5901 207.5636 505.3852 207.5636 509.0848 213.7297 516.4841 218.6625 518.9505 223.5954 521.417 224.8286 528.8163 233.4611 534.9823 242.0936 536.2155 247.0265 533.7491 254.4258 530.0495 256.8922 522.6502 259.3587 515.2509 264.2915 506.6184 270.4576 500.4523 280.3233 489.3534 275.3905 490.5866 274.1572 494.2862 271.6908 493.053 266.758 490.5866 264.2915 491.8198 261.8251 486.8869 259.3587 483.1873 254.4258 483.1873 250.7261 480.7208 248.2597 472.0883 240.8604 464.689 238.394 462.2226 238.394 459.7562 235.9276 457.2898 228.5283 454.8233 224.8286 453.5901 207.5636 Z" id="US.MD.025" fill="#cee3f5" stroke="#6e6e6e" stroke-width="0.4">
      <desc>
        <name>Harford County</name>
        <stateAbbrev>MD</stateAbbrev>
        <state>Maryland</state>
        <fips>025</fips>
        <incits>24025</incits>
        <id>US.MD.025</id>
        <population>249215</population>
      </desc>
    </path>
    <path d="M 353.6996 208.7968 384.53 207.5636 420.2933 207.5636 409.1943 235.9276 406.7279 243.3269 405.4947 245.7933 403.0283 251.9594 405.4947 255.659 403.0283 260.5919 405.4947 265.5247 400.5618 265.5247 391.9293 263.0583 383.2968 265.5247 379.5972 263.0583 370.9647 263.0583 367.265 263.0583 363.5654 265.5247 361.0989 264.2915 362.3322 261.8251 363.5654 254.4258 366.0318 253.1926 368.4982 245.7933 369.7314 243.3269 363.5654 237.1608 361.0989 237.1608 361.0989 234.6943 356.1661 229.7615 352.4664 229.7615 347.5336 226.0618 342.6007 226.0618 338.9011 223.5954 343.8339 222.3622 345.0671 217.4293 350 214.9629 348.7668 212.4965 353.6996 208.7968 Z" id="US.MD.013" fill="#cee3f5" stroke="#6e6e6e" stroke-width="0.4">
      <desc>
        <name>Carroll County</name>
        <stateAbbrev>MD</stateAbbrev>
        <state>Maryland</state>
        <fips>013</fips>
        <incits>24013</incits>
        <id>US.MD.013</id>
        <population>167564</population>
      </desc>
    </path>
    <path d="M 361.0989 264.2915 363.5654 265.5247 367.265 263.0583 370.9647 263.0583 379.5972 263.0583 383.2968 265.5247 391.9293 263.0583 400.5618 265.5247 405.4947 265.5247 409.1943 270.4576 419.0601 271.6908 421.5265 274.1572 419.0601 277.8569 425.2261 281.5565 426.4594 284.023 433.8587 286.4894 430.159 291.4223 426.4594 291.4223 420.2933 297.5883 420.2933 300.0548 414.1272 301.288 411.6608 303.7544 406.7279 302.5212 404.2615 298.8216 400.5618 300.0548 390.6961 295.1219 386.9965 293.8887 385.7633 287.7226 379.5972 282.7898 377.1307 280.3233 370.9647 279.0901 366.0318 277.8569 366.0318 275.3905 359.8657 271.6908 357.3993 266.758 361.0989 264.2915 Z" id="US.MD.027" fill="#cee3f5" stroke="#6e6e6e" stroke-width="0.4">
      <desc>
        <name>Howard County</name>
        <stateAbbrev>MD</stateAbbrev>
        <state>Maryland</state>
        <fips>027</fips>
        <incits>24027</incits>
        <id>US.MD.027</id>
        <population>304580</population>
      </desc>
    </path>
    <path d="M 411.6608 303.7544 414.1272 301.288 420.2933 300.0548 420.2933 297.5883 426.4594 291.4223 430.159 291.4223 433.8587 286.4894 440.0247 284.023 443.7244 285.2562 446.1908 282.7898 451.1237 287.7226 457.2898 288.9558 459.7562 286.4894 462.2226 288.9558 488.1201 296.3551 488.1201 300.0548 488.1201 311.1537 485.6537 319.7862 478.2544 335.818 474.5548 345.6837 473.3216 350.6166 470.8551 365.4152 459.7562 364.182 458.523 362.9488 448.6572 362.9488 444.9576 361.7155 444.9576 355.5495 441.258 355.5495 435.0919 359.2491 431.3922 354.3163 431.3922 349.3834 433.8587 346.917 433.8587 345.6837 435.0919 340.7509 437.5583 339.5177 437.5583 334.5848 435.0919 332.1184 433.8587 322.2527 427.6926 318.553 425.2261 313.6201 420.2933 312.3869 416.5936 309.9205 412.894 309.9205 414.1272 306.2208 411.6608 303.7544 Z" id="US.MD.003" fill="#cee3f5" stroke="#6e6e6e" stroke-width="0.4">
      <desc>
        <name>Anne Arundel County</name>
        <stateAbbrev>MD</stateAbbrev>
        <state>Maryland</state>
        <fips>003</fips>
        <incits>24003</incits>
        <id>US.MD.003</id>
        <population>555743</population>
      </desc>
    </path>
    <path d="M 420.2933 207.5636 453.5901 207.5636 454.8233 224.8286 457.2898 228.5283 459.7562 235.9276 462.2226 238.394 464.689 238.394 472.0883 240.8604 480.7208 248.2597 483.1873 250.7261 483.1873 254.4258 486.8869 259.3587 491.8198 261.8251 490.5866 264.2915 493.053 266.758 494.2862 271.6908 490.5866 274.1572 489.3534 275.3905 500.4523 280.3233 488.1201 296.3551 462.2226 288.9558 459.7562 286.4894 459.7562 261.8251 431.3922 261.8251 431.3922 276.6237 446.1908 282.7898 443.7244 285.2562 440.0247 284.023 433.8587 286.4894 426.4594 284.023 425.2261 281.5565 419.0601 277.8569 421.5265 274.1572 419.0601 271.6908 409.1943 270.4576 405.4947 265.5247 403.0283 260.5919 405.4947 255.659 403.0283 251.9594 405.4947 245.7933 406.7279 243.3269 409.1943 235.9276 420.2933 207.5636 Z" id="US.MD.005" fill="#cee3f5" stroke="#6e6e6e" stroke-width="0.4">
      <desc>
        <name>Baltimore County</name>
        <stateAbbrev>MD</stateAbbrev>
        <state>Maryland</state>
        <fips>005</fips>
        <incits>24005</incits>
        <id>US.MD.005</id>
        <population>823015</population>
      </desc>
    </path>
    <path d="M 435.0919 359.2491 441.258 355.5495 444.9576 355.5495 444.9576 361.7155 448.6572 362.9488 458.523 362.9488 459.7562 364.182 470.8551 365.4152 474.5548 386.3799 475.788 396.2456 477.0212 398.712 489.3534 414.7438 491.8198 424.6095 481.9541 424.6095 478.2544 425.8428 472.0883 427.076 467.1555 422.1431 464.689 418.4435 460.9894 414.7438 454.8233 413.5106 447.424 408.5777 440.0247 403.6449 441.258 401.1784 437.5583 397.4788 438.7915 392.5459 437.5583 391.3127 437.5583 388.8463 436.3251 383.9134 437.5583 378.9806 435.0919 376.5141 436.3251 372.8145 433.8587 371.5813 432.6254 364.182 436.3251 360.4823 435.0919 359.2491 Z" id="US.MD.009" fill="#cee3f5" stroke="#6e6e6e" stroke-width="0.4">
      <desc>
        <name>Calvert County</name>
        <stateAbbrev>MD</stateAbbrev>
        <state>Maryland</state>
        <fips>009</fips>
        <incits>24009</incits>
        <id>US.MD.009</id>
        <population>90484</population>
      </desc>
    </path>
    <path d="M 437.5583 397.4788 441.258 401.1784 440.0247 403.6449 447.424 408.5777 454.8233 413.5106 460.9894 414.7438 464.689 418.4435 467.1555 422.1431 472.0883 427.076 478.2544 425.8428 481.9541 424.6095 491.8198 424.6095 493.053 428.3092 511.5512 462.8392 510.318 465.3057 505.3852 492.4364 500.4523 488.7367 489.3534 483.8039 478.2544 480.1042 469.6219 472.7049 462.2226 470.2385 462.2226 467.7721 458.523 462.8392 452.3569 460.3728 448.6572 457.9064 447.424 451.7403 432.6254 450.5071 417.8269 449.2739 411.6608 449.2739 406.7279 448.0406 412.894 435.7085 414.1272 433.242 410.4276 424.6095 409.1943 423.3763 410.4276 418.4435 406.7279 415.977 414.1272 407.3445 421.5265 396.2456 422.7597 395.0124 431.3922 396.2456 433.8587 397.4788 437.5583 397.4788 Z" id="US.MD.037" fill="#cee3f5" stroke="#6e6e6e" stroke-width="0.4">
      <desc>
        <name>St. Marys County</name>
        <stateAbbrev>MD</stateAbbrev>
        <state>Maryland</state>
        <fips>037</fips>
        <incits>24037</incits>
        <id>US.MD.037</id>
        <population>109633</population>
      </desc>
    </path>
    <path d="M 373.4311 365.4152 379.5972 378.9806 383.2968 374.0477 393.1625 372.8145 401.7951 374.0477 405.4947 372.8145 409.1943 372.8145 426.4594 378.9806 427.6926 388.8463 437.5583 391.3127 438.7915 392.5459 437.5583 397.4788 433.8587 397.4788 431.3922 396.2456 422.7597 395.0124 421.5265 396.2456 414.1272 407.3445 406.7279 415.977 410.4276 418.4435 409.1943 423.3763 410.4276 424.6095 414.1272 433.242 412.894 435.7085 406.7279 448.0406 400.5618 444.341 394.3958 443.1078 393.1625 439.4081 393.1625 435.7085 389.4629 432.0088 386.9965 432.0088 382.0636 427.076 384.53 423.3763 384.53 417.2102 380.8304 412.2774 378.364 413.5106 373.4311 417.2102 364.7986 418.4435 362.3322 420.9099 348.7668 423.3763 345.0671 423.3763 342.6007 422.1431 342.6007 419.6767 340.1343 417.2102 336.4346 407.3445 337.6678 401.1784 338.9011 398.712 342.6007 393.7792 345.0671 388.8463 347.5336 387.6131 348.7668 382.6802 356.1661 378.9806 366.0318 376.5141 366.0318 374.0477 366.0318 370.3481 367.265 369.1148 373.4311 365.4152 Z" id="US.MD.017" fill="#cee3f5" stroke="#6e6e6e" stroke-width="0.4">
      <desc>
        <name>Charles County</name>
        <stateAbbrev>MD</stateAbbrev>
        <state>Maryland</state>
        <fips>017</fips>
        <incits>24017</incits>
        <id>US.MD.017</id>
        <population>152864</population>
      </desc>
    </path>
    <path d="M 373.4311 365.4152 378.364 365.4152 379.5972 364.182 380.8304 351.8498 400.5618 337.0512 386.9965 324.7191 389.4629 323.4859 388.2297 321.0194 404.2615 298.8216 406.7279 302.5212 411.6608 303.7544 414.1272 306.2208 412.894 309.9205 416.5936 309.9205 420.2933 312.3869 425.2261 313.6201 427.6926 318.553 433.8587 322.2527 435.0919 332.1184 437.5583 334.5848 437.5583 339.5177 435.0919 340.7509 433.8587 345.6837 433.8587 346.917 431.3922 349.3834 431.3922 354.3163 435.0919 359.2491 436.3251 360.4823 432.6254 364.182 433.8587 371.5813 436.3251 372.8145 435.0919 376.5141 437.5583 378.9806 436.3251 383.9134 437.5583 388.8463 437.5583 391.3127 427.6926 388.8463 426.4594 378.9806 409.1943 372.8145 405.4947 372.8145 401.7951 374.0477 393.1625 372.8145 383.2968 374.0477 379.5972 378.9806 373.4311 365.4152 Z" id="US.MD.033" fill="#cee3f5" stroke="#6e6e6e" stroke-width="0.4">
      <desc>
        <name>Prince Georges County</name>
        <stateAbbrev>MD</stateAbbrev>
        <state>Maryland</state>
        <fips>033</fips>
        <incits>24033</incits>
        <id>US.MD.033</id>
        <population>890081</population>
      </desc>
    </path>
    <path d="M 315.47 285.2562 325.3357 281.5565 361.0989 264.2915 357.3993 266.758 359.8657 271.6908 366.0318 275.3905 366.0318 277.8569 370.9647 279.0901 377.1307 280.3233 379.5972 282.7898 385.7633 287.7226 386.9965 293.8887 390.6961 295.1219 400.5618 300.0548 404.2615 298.8216 388.2297 321.0194 389.4629 323.4859 386.9965 324.7191 380.8304 321.0194 368.4982 329.6519 363.5654 325.9523 356.1661 324.7191 348.7668 322.2527 347.5336 319.7862 348.7668 316.0866 343.8339 314.8534 341.3675 312.3869 333.9682 309.9205 326.5689 309.9205 315.47 307.4541 311.7703 302.5212 305.6042 301.288 305.6042 298.8216 308.0707 291.4223 313.0035 290.189 313.0035 287.7226 315.47 285.2562 Z" id="US.MD.031" fill="#cee3f5" stroke="#6e6e6e" stroke-width="0.4">
      <desc>
        <name>Montgomery County</name>
        <stateAbbrev>MD</stateAbbrev>
        <state>Maryland</state>
        <fips>031</fips>
        <incits>24031</incits>
        <id>US.MD.031</id>
        <population>1016677</population>
      </desc>
    </path>
    <path d="M 282.1731 269.2244 282.1731 266.758 285.8728 260.5919 288.3392 250.7261 290.8057 247.0265 292.0389 243.3269 290.8057 240.8604 292.0389 238.394 294.5053 235.9276 298.2049 223.5954 304.371 222.3622 310.5371 214.9629 309.3039 212.4965 314.2367 207.5636 353.6996 208.7968 348.7668 212.4965 350 214.9629 345.0671 217.4293 343.8339 222.3622 338.9011 223.5954 342.6007 226.0618 347.5336 226.0618 352.4664 229.7615 356.1661 229.7615 361.0989 234.6943 361.0989 237.1608 363.5654 237.1608 369.7314 243.3269 368.4982 245.7933 366.0318 253.1926 363.5654 254.4258 362.3322 261.8251 361.0989 264.2915 325.3357 281.5565 315.47 285.2562 311.7703 281.5565 303.1378 279.0901 299.4382 275.3905 298.2049 271.6908 294.5053 272.924 287.106 271.6908 282.1731 269.2244 Z" id="US.MD.021" fill="#cee3f5" stroke="#6e6e6e" stroke-width="0.4">
      <desc>
        <name>Frederick County</name>
        <stateAbbrev>MD</stateAbbrev>
        <state>Maryland</state>
        <fips>021</fips>
        <incits>24021</incits>
        <id>US.MD.021</id>
        <population>241409</population>
      </desc>
    </path>
    <path d="M 178.583 207.5636 221.7456 207.5636 269.841 207.5636 314.2367 207.5636 309.3039 212.4965 310.5371 214.9629 304.371 222.3622 298.2049 223.5954 294.5053 235.9276 292.0389 238.394 290.8057 240.8604 292.0389 243.3269 290.8057 247.0265 288.3392 250.7261 285.8728 260.5919 282.1731 266.758 282.1731 269.2244 278.4735 270.4576 273.5406 270.4576 269.841 267.9912 271.0742 263.0583 269.841 260.5919 272.3074 259.3587 269.841 254.4258 263.6749 253.1926 264.9081 250.7261 263.6749 243.3269 256.2756 242.0936 253.8092 239.6272 252.576 235.9276 250.1095 234.6943 251.3428 232.2279 256.2756 232.2279 257.5088 228.5283 256.2756 226.0618 250.1095 224.8286 248.8763 227.2951 241.477 224.8286 237.7774 224.8286 235.311 227.2951 230.3781 226.0618 226.6784 221.129 220.5124 216.1961 215.5795 213.7297 203.2473 212.4965 200.7809 214.9629 195.8481 214.9629 197.0813 217.4293 192.1484 219.8958 190.9152 223.5954 187.2155 223.5954 179.8163 221.129 178.583 218.6625 179.8163 213.7297 182.2827 214.9629 182.2827 211.2633 178.583 207.5636 Z" id="US.MD.043" fill="#cee3f5" stroke="#6e6e6e" stroke-width="0.4">
      <desc>
        <name>Washington County</name>
        <stateAbbrev>MD</stateAbbrev>
        <state>Maryland</state>
        <fips>043</fips>
        <incits>24043</incits>
        <id>US.MD.043</id>
        <population>149588</population>
      </desc>
    </path>
    <path d="M 66.3604 245.7933 87.3251 207.5636 147.7527 207.5636 178.583 207.5636 182.2827 211.2633 182.2827 214.9629 179.8163 213.7297 178.583 218.6625 179.8163 221.129 177.3498 219.8958 169.9505 224.8286 166.2509 223.5954 165.0177 224.8286 169.9505 228.5283 167.4841 229.7615 162.5512 228.5283 161.318 230.9947 165.0177 233.4611 163.7845 235.9276 161.318 235.9276 158.8516 239.6272 150.2191 238.394 144.053 239.6272 135.4205 235.9276 130.4876 237.1608 124.3216 234.6943 119.3887 232.2279 118.1555 230.9947 114.4558 229.7615 110.7562 226.0618 115.689 226.0618 108.2898 221.129 108.2898 224.8286 103.3569 228.5283 104.5901 233.4611 100.8905 232.2279 95.9576 238.394 91.0247 242.0936 89.7915 244.5601 82.3922 248.2597 83.6254 251.9594 72.5265 248.2597 71.2933 245.7933 66.3604 245.7933 Z" id="US.MD.001" fill="#cee3f5" stroke="#6e6e6e" stroke-width="0.4">
      <desc>
        <name>Allegany County</name>
        <stateAbbrev>MD</stateAbbrev>
        <state>Maryland</state>
        <fips>001</fips>
        <incits>24001</incits>
        <id>US.MD.001</id>
        <population>73521</population>
      </desc>
    </path>
    <path d="M 87.3251 207.5636 66.3604 245.7933 61.4276 248.2597 60.1943 250.7261 56.4947 253.1926 56.4947 255.659 51.5618 255.659 47.8622 260.5919 45.3958 259.3587 42.9293 263.0583 40.4629 263.0583 36.7633 264.2915 36.7633 267.9912 33.0636 269.2244 31.8304 272.924 28.1307 272.924 25.6643 272.924 21.9647 276.6237 15.7986 279.0901 10.8657 284.023 3.4664 288.9558 1 287.7226 1 279.0901 1 266.758 2.2332 237.1608 2.2332 207.5636 35.53 207.5636 87.3251 207.5636 Z" id="US.MD.023" fill="#cee3f5" stroke="#6e6e6e" stroke-width="0.4">
      <desc>
        <name>Garrett County</name>
        <stateAbbrev>MD</stateAbbrev>
        <state>Maryland</state>
        <fips>023</fips>
        <incits>24023</incits>
        <id>US.MD.023</id>
        <population>29889</population>
      </desc>
    </path>
  </g>
</svg>