<?xml version="1.0" encoding="UTF-8"?>
<svg xmlns="http://www.w3.org/2000/svg" width="700" height="700">
  <g id="france">
    <path d="M 555.2572 250.7405 555.8849 249.4851 554.0018 247.602 552.7464 245.0912 552.1187 244.4635 550.8633 245.0912 549.6079 244.4635 548.9802 242.5804 550.2356 240.6973 550.2356 236.3034 548.9802 235.048 547.0971 234.4203 545.8417 233.1649 542.0755 232.5372 541.4478 230.0264 540.1924 230.6541 538.9371 229.3987 538.3094 228.1434 535.7986 227.5157 532.0324 225.0049 531.4047 224.3772 529.5216 222.4941 528.2662 223.1218 527.0108 225.6326 524.5 226.2603 521.9892 223.1218 518.8507 221.8664 516.9676 223.1218 515.0845 222.4941 513.2014 224.3772 509.4353 222.4941 510.0629 221.2387 508.8076 218.7279 505.6691 218.7279 504.4137 219.9833 502.5306 223.1218 501.2752 223.1218 499.3921 221.8664 498.7644 222.4941 497.509 225.6326 497.509 226.2603 495.6259 226.888 494.3705 229.3987 494.9982 230.6541 491.8597 230.0264 491.232 230.6541 491.232 232.5372 489.3489 232.5372 488.0935 233.7926 488.7212 236.3034 489.9766 236.3034 489.9766 237.5588 488.7212 238.8142 489.3489 241.9527 487.4658 242.5804 484.955 243.2081 484.3273 240.6973 483.0719 241.325 481.8165 243.2081 479.9335 242.5804 479.3058 243.2081 476.1673 243.2081 476.1673 245.0912 474.9119 246.9743 474.9119 247.602 471.7734 247.602 469.2626 250.1128 468.6349 248.8574 468.6349 246.9743 467.3795 245.7189 465.4964 245.0912 464.241 245.0912 460.4748 244.4635 459.8471 242.5804 457.3363 243.2081 455.4532 241.9527 456.0809 240.0696 455.4532 238.1865 453.5701 236.9311 456.7086 235.048 457.3363 233.7926 455.4532 232.5372 455.4532 230.6541 454.1978 229.3987 452.9424 227.5157 451.0594 227.5157 450.4317 229.3987 449.804 227.5157 451.0594 226.2603 449.804 225.0049 447.2932 224.3772 447.9209 223.1218 447.2932 221.8664 445.4101 221.8664 443.527 220.611 442.2716 221.2387 439.7608 220.611 437.8777 220.611 436.6223 222.4941 436.6223 225.0049 434.1115 225.0049 432.2284 225.6326 430.3453 225.0049 427.2068 225.6326 425.9514 225.6326 425.3237 228.1434 422.8129 227.5157 420.9299 225.0049 420.3022 225.6326 419.0468 225.6326 416.536 228.1434 414.6529 226.888 414.0252 228.1434 410.259 227.5157 408.3759 227.5157 407.1205 226.2603 407.7482 225.0049 404.6097 224.3772 404.6097 223.1218 405.8651 221.8664 403.3543 220.611 403.982 218.7279 402.7266 217.4725 402.7266 216.8448 400.8435 214.334 400.2158 211.8232 398.3327 213.7063 396.4496 214.334 395.1942 211.1955 393.3112 209.9401 394.5665 208.057 393.3112 207.4293 394.5665 206.1739 393.9388 204.9185 392.0558 204.2908 392.6835 203.0354 388.2896 198.6416 386.4065 198.6416 384.5234 197.3862 385.1511 195.5031 383.8957 194.8754 384.5234 192.9923 383.268 191.1092 385.7788 189.8538 384.5234 187.343 386.4065 187.9707 387.6619 186.7153 387.0342 184.8322 388.2896 182.9491 390.8004 181.6937 388.9173 179.8106 387.0342 180.4383 385.7788 178.5552 387.0342 177.2998 387.0342 173.5336 385.1511 172.9059 383.8957 172.2782 384.5234 169.7675 387.6619 167.8844 387.6619 166.0013 389.545 161.6074 391.4281 160.9797 391.4281 160.352 393.3112 158.4689 393.9388 155.9581 395.8219 154.7027 394.5665 152.8196 392.0558 153.4473 392.0558 152.1919 393.9388 150.3088 392.6835 146.5426 393.3112 145.9149 395.8219 145.2872 397.0773 145.9149 398.9604 145.2872 398.9604 144.0318 397.0773 143.4041 396.4496 142.1487 394.5665 141.521 395.8219 140.2657 395.1942 139.0103 393.9388 135.8718 394.5665 134.6164 396.4496 133.361 398.3327 133.361 398.9604 132.1056 402.7266 130.8502 403.3543 130.2225 406.4928 128.3394 407.7482 130.2225 409.6313 130.2225 411.5144 131.4779 412.1421 127.7117 411.5144 125.8286 411.5144 121.4347 412.7698 119.5516 411.5144 118.9239 412.7698 117.0408 410.259 113.2746 410.8867 112.6469 414.0252 113.2746 414.6529 111.3916 414.6529 109.5085 417.1637 108.2531 417.7914 106.9977 419.0468 106.37 419.6745 103.8592 418.4191 102.6038 419.0468 98.2099 419.6745 97.5822 420.3022 94.4437 418.4191 93.816 419.0468 90.6775 422.1853 90.0498 424.0683 90.6775 426.5791 91.3052 428.4622 91.9329 429.7176 91.3052 431.6007 90.6775 432.2284 89.4221 434.7392 88.1667 439.1331 87.539 438.5054 85.6559 439.1331 83.7728 438.5054 82.5175 439.1331 80.6344 441.6439 79.379 441.6439 78.1236 444.1547 76.2405 446.6655 76.8682 446.6655 80.0067 445.4101 80.0067 444.7824 85.6559 444.7824 87.539 443.527 88.1667 443.527 90.0498 446.0378 90.6775 447.9209 93.1883 446.6655 96.3268 447.2932 100.7207 449.804 101.3484 451.0594 100.093 452.3147 100.093 452.9424 101.3484 456.0809 102.6038 457.3363 103.2315 457.964 104.4869 458.5917 106.37 459.8471 105.7423 460.4748 107.6254 462.9856 107.6254 464.8687 106.9977 468.0072 109.5085 466.7518 111.3916 466.7518 112.6469 469.2626 112.0192 470.518 112.0192 471.1457 112.6469 473.0288 116.4131 473.6565 117.0408 473.6565 118.2962 474.9119 120.1793 477.4227 118.9239 478.0504 117.6685 479.3058 118.2962 482.4442 115.7854 484.3273 117.0408 486.8381 116.4131 487.4658 115.1577 488.7212 115.7854 489.9766 117.6685 491.8597 118.9239 494.9982 118.9239 496.2536 119.5516 496.8813 122.0624 501.2752 121.4347 503.1583 120.1793 503.1583 119.5516 505.0414 117.6685 506.2968 118.2962 508.8076 117.6685 510.0629 119.5516 513.8291 120.807 516.3399 119.5516 518.223 120.1793 522.6169 123.3178 521.9892 124.5732 523.8723 125.2009 522.6169 127.7117 523.8723 129.5948 527.6385 132.1056 528.8939 136.4995 530.777 137.1272 530.1493 138.3826 531.4047 139.638 533.2878 139.638 535.7986 140.2657 536.4263 139.0103 536.4263 135.8718 537.6817 136.4995 539.5647 135.2441 541.4478 136.4995 543.9586 139.0103 545.8417 142.7764 547.7248 140.8934 550.2356 141.521 554.0018 140.8934 555.8849 141.521 557.768 139.638 559.0234 139.638 559.0234 137.7549 562.1619 137.1272 563.4173 137.7549 564.6727 137.7549 564.6727 139.0103 566.5558 142.1487 568.4388 143.4041 569.6942 142.7764 570.9496 143.4041 571.5773 144.6595 573.4604 145.2872 574.7158 144.6595 577.2266 144.6595 578.482 143.4041 581.6205 145.2872 582.8759 144.6595 584.1313 144.6595 584.759 143.4041 587.8975 145.2872 589.7806 145.9149 591.036 147.1703 594.8022 148.4257 597.9406 148.4257 596.6853 149.6811 594.8022 154.075 593.5468 159.0966 591.6637 160.9797 590.4083 161.6074 589.1529 163.4905 587.8975 164.1182 587.8975 166.0013 584.759 170.3951 582.8759 171.6505 580.9928 176.0444 581.6205 181.066 580.3651 182.3214 579.7374 184.2045 579.1097 188.5984 578.482 189.8538 579.7374 192.9923 577.2266 195.5031 576.5989 200.5246 575.3435 202.4077 574.0881 205.5462 574.0881 206.8016 572.8327 208.057 572.8327 210.5678 572.8327 213.7063 575.3435 216.2171 575.9712 217.4725 574.0881 220.611 574.0881 223.1218 573.4604 225.0049 573.4604 226.888 572.205 230.6541 573.4604 233.7926 573.4604 235.048 572.205 236.3034 572.205 238.1865 574.7158 240.6973 575.9712 243.2081 575.9712 244.4635 572.205 246.9743 573.4604 248.2297 572.8327 250.1128 570.3219 251.9959 569.0665 253.879 567.1835 255.1344 565.3004 254.5067 562.7896 255.1344 560.9065 255.7621 560.2788 255.1344 557.768 254.5067 558.3957 251.3682 555.2572 250.7405 Z" id="FR.AO" fill="#cee3f5" stroke="#6e6e6e" stroke-width="0.4">
      <desc>
        <nom>Grand Est</nom>
        <name>Grand Est</name>
        <insee_cl/>
        <surf_km2>23669</surf_km2>
        <wikipedia>fr:Grand_Est</wikipedia>
        <name_cl>Strasbourg</name_cl>
        <nuts2/>
        <nom_cl>Strasbourg</nom_cl>
        <nb_dep>4</nb_dep>
        <code_insee/>
        <nb_comm>2338</nb_comm>
        <id>FR.AO</id>
        <code_hasc>FR.AO</code_hasc>
        <nuts1>FRF</nuts1>
      </desc>
    </path>
    <path d="M 166.7122 343.0121 167.3399 344.8951 165.4568 345.5228 163.5737 344.2675 161.6906 343.0121 158.5522 341.129 156.6691 341.129 154.786 340.5013 154.1583 338.6182 156.0414 337.3628 157.2968 337.3628 158.5522 339.2459 161.0629 339.2459 159.8076 340.5013 162.946 340.5013 166.7122 343.0121 Z M 174.2446 334.852 174.8723 334.2243 176.7554 334.2243 178.0108 332.3412 179.8939 331.7135 181.777 331.7135 182.4047 331.0858 183.6601 331.7135 182.4047 333.5966 183.6601 334.852 187.4263 334.2243 188.054 332.9689 191.8201 335.4797 194.3309 334.2243 196.214 334.852 198.7248 332.9689 198.7248 331.7135 201.2356 332.3412 201.8633 330.4581 198.7248 328.575 198.7248 326.6919 198.0971 322.9257 197.4694 321.0426 199.3525 320.4149 199.3525 316.6487 198.7248 315.3934 199.3525 314.7657 196.214 309.7441 197.4694 309.1164 196.8417 307.2333 195.5863 306.6056 194.3309 304.0948 194.9586 300.9563 194.3309 300.9563 191.8201 299.0732 189.9371 295.9347 190.5647 294.6793 189.9371 292.7962 188.054 292.1685 187.4263 290.9131 188.6817 290.2854 189.3094 289.03 191.8201 289.03 195.5863 289.6577 196.214 289.03 201.2356 289.03 202.491 287.7746 203.1187 284.6362 205.0018 284.0085 210.0234 284.6362 210.6511 283.3808 213.1619 283.3808 215.6727 282.7531 217.5558 282.1254 218.8112 282.7531 220.0665 282.1254 221.9496 282.7531 221.9496 284.6362 222.5773 285.8916 223.8327 285.2639 224.4604 282.7531 226.9712 283.3808 226.9712 281.4977 228.2266 279.6146 229.482 277.7315 231.3651 278.9869 231.9928 281.4977 235.1313 282.7531 237.0144 283.3808 237.6421 284.0085 236.3867 285.2639 238.2698 286.5192 240.1529 285.2639 241.4083 287.1469 242.6637 287.1469 242.036 289.03 242.6637 290.2854 242.6637 293.4239 243.2914 294.6793 245.1745 293.4239 248.3129 295.307 248.9406 294.0516 251.4514 293.4239 255.8453 293.4239 254.5899 290.2854 257.1007 290.2854 257.1007 290.9131 258.9838 292.1685 260.2392 292.1685 260.8669 294.6793 260.8669 297.1901 262.75 300.3286 265.2608 302.2117 265.8885 304.7225 267.1439 306.6056 270.2824 309.1164 270.9101 310.9995 269.6547 312.2549 270.2824 314.138 269.6547 315.3934 270.2824 317.9041 271.5378 319.1595 273.4209 320.4149 274.6763 319.7872 275.304 322.298 278.4424 322.298 280.9532 324.8088 280.3255 326.6919 280.9532 327.9473 284.0917 329.2027 282.2086 332.3412 283.464 332.3412 284.0917 333.5966 285.9748 332.9689 287.8579 333.5966 289.1133 332.3412 290.3687 331.7135 292.8795 334.2243 294.7626 334.852 296.018 332.3412 297.2734 331.7135 297.9011 330.4581 299.1565 330.4581 299.1565 332.3412 301.6673 330.4581 303.5504 332.9689 306.0612 330.4581 307.3165 332.3412 309.1996 331.7135 309.1996 329.8304 308.5719 328.575 311.0827 327.9473 312.9658 329.8304 316.1043 329.2027 317.3597 329.8304 319.8705 329.2027 320.4982 329.8304 324.2644 330.4581 331.7968 330.4581 333.6799 330.4581 334.3076 332.9689 335.5629 333.5966 334.9353 334.852 334.9353 336.1074 338.0737 337.3628 338.7014 336.7351 341.2122 339.2459 343.0953 339.8736 343.723 342.3844 344.9784 343.0121 344.9784 346.1505 346.8615 347.4059 346.8615 349.289 346.2338 351.1721 346.2338 353.0552 347.4892 355.566 348.7446 356.8214 348.1169 359.3322 348.7446 361.2153 346.8615 361.843 346.2338 364.3538 346.2338 364.9815 344.3507 366.2369 344.3507 366.8646 341.2122 368.12 340.5845 370.0031 339.3291 370.0031 338.7014 370.6308 340.5845 373.1416 341.2122 374.3969 343.0953 375.6523 344.3507 377.5354 345.6061 380.0462 344.9784 381.3016 344.9784 383.1847 343.0953 383.8124 343.0953 385.0678 342.4676 386.3232 344.9784 390.0894 344.9784 391.3448 343.723 398.2495 345.6061 400.1326 344.3507 400.7603 341.2122 400.7603 340.5845 399.5049 338.0737 398.2495 338.0737 402.0157 336.8183 403.271 336.8183 404.5264 335.5629 404.5264 334.3076 407.0372 333.0522 407.0372 329.286 412.6865 330.5414 416.4527 328.6583 417.7081 328.6583 420.8466 326.7752 420.2189 324.8921 422.7297 325.5198 425.2405 326.7752 425.8682 326.7752 427.1236 324.2644 427.1236 323.009 427.7513 322.3813 427.7513 319.2428 427.7513 317.9874 429.6344 317.3597 428.379 316.1043 427.7513 314.8489 429.0067 312.3381 430.2621 311.7104 430.8898 309.1996 431.5175 307.9442 429.0067 306.0612 428.379 304.8058 425.8682 302.9227 423.9851 298.5288 423.3574 293.5072 424.6128 291.6241 425.8682 293.5072 430.2621 292.2518 432.1451 293.5072 434.6559 292.2518 434.6559 289.1133 437.1667 289.741 439.0498 286.6025 439.6775 286.6025 440.9329 287.8579 442.1883 287.2302 443.4437 285.3471 445.3268 284.0917 445.9545 282.8363 447.2099 280.3255 447.8376 279.0701 448.4653 279.0701 450.9761 277.1871 452.8592 276.5594 454.7423 274.0486 455.37 272.1655 456.6254 270.9101 456.6254 272.7932 459.1362 272.1655 461.0192 272.7932 461.6469 272.7932 463.53 274.6763 464.7854 274.6763 467.9239 274.0486 469.1793 271.5378 468.5516 269.027 469.1793 267.7716 467.2962 265.8885 468.5516 266.5162 469.807 265.2608 472.3178 269.027 474.8286 267.7716 477.9671 266.5162 480.4779 264.6331 480.4779 264.0054 481.1056 265.8885 481.7333 265.2608 484.2441 264.6331 484.8718 262.75 483.6164 260.8669 485.4995 259.6115 486.1272 258.3561 488.0103 255.8453 489.8934 255.8453 491.1487 252.0791 488.0103 249.5683 489.2657 247.6853 488.638 246.4299 489.2657 245.1745 489.2657 243.9191 491.1487 237.6421 491.7764 237.0144 493.0318 235.759 492.4041 233.8759 491.7764 232.6205 491.1487 231.9928 491.7764 228.8543 494.2872 227.5989 493.6595 225.7158 494.2872 225.0881 495.5426 225.7158 498.0534 225.0881 499.3088 223.8327 499.3088 221.3219 496.798 222.5773 494.9149 220.6942 493.0318 220.0665 494.9149 216.9281 496.798 216.3004 495.5426 214.4173 496.798 213.1619 496.798 211.2788 499.3088 213.1619 499.9365 211.9065 501.1919 213.1619 503.075 212.5342 504.9581 211.2788 505.5858 211.9065 508.0966 212.5342 509.9797 209.3957 511.2351 210.0234 512.4905 210.0234 515.0013 208.1403 515.629 208.1403 517.5121 209.3957 517.5121 210.0234 520.0228 213.1619 519.3951 213.7896 520.0228 216.9281 520.0228 216.9281 521.9059 218.1835 522.5336 219.4388 525.0444 220.0665 528.1829 218.1835 528.1829 218.1835 530.066 219.4388 531.9491 220.6942 529.4383 221.9496 531.3214 221.3219 532.5768 220.6942 534.4599 222.5773 536.343 221.3219 537.5984 220.0665 537.5984 218.8112 539.4815 218.8112 540.7369 220.0665 541.3646 218.8112 543.8754 216.9281 544.5031 217.5558 547.6416 216.3004 547.6416 213.7896 549.5246 213.1619 550.78 210.6511 552.6631 211.2788 553.9185 211.2788 555.8016 209.3957 557.057 207.5126 557.057 207.5126 558.3124 205.6295 559.5678 206.2572 563.334 204.3741 564.5894 205.0018 567.7279 204.3741 569.611 203.1187 570.2387 201.8633 571.4941 200.6079 572.7495 198.0971 572.7495 195.5863 570.8664 193.7032 571.4941 193.7032 572.7495 191.8201 573.3772 191.8201 572.1218 190.5647 572.1218 189.9371 570.2387 188.6817 568.3556 187.4263 568.3556 186.7986 566.4725 184.2878 566.4725 183.6601 564.5894 184.2878 562.7063 183.0324 560.8232 182.4047 560.1955 179.8939 561.4509 176.1277 560.8232 173.6169 561.4509 171.1061 559.5678 170.4784 558.9401 167.3399 557.6847 165.4568 555.8016 161.6906 555.1739 159.8076 553.9185 158.5522 554.5462 156.0414 552.6631 156.0414 550.78 157.9245 549.5246 155.4137 549.5246 154.1583 550.78 154.1583 553.2908 153.5306 555.1739 149.1367 553.9185 147.8813 551.4077 148.509 550.1523 151.0198 548.2692 151.6475 545.1308 152.2752 544.5031 152.9029 540.1092 151.6475 538.8538 149.7644 538.8538 147.2536 537.5984 146.6259 536.9707 144.7428 536.9707 143.4874 539.4815 141.6043 539.4815 140.3489 536.9707 140.9766 536.343 139.0935 535.0876 137.8381 535.0876 135.955 536.343 134.6996 533.2045 132.8165 531.9491 134.0719 530.6937 140.3489 528.8106 142.8597 526.9275 144.1151 524.4167 145.3705 523.1613 148.509 518.1398 151.0198 513.1182 152.2752 506.8412 154.786 497.4257 157.9245 483.6164 161.0629 467.2962 162.946 456.6254 162.946 454.1146 163.5737 452.2315 164.2014 450.9761 165.4568 448.4653 166.0845 445.3268 167.9676 445.3268 168.5953 446.5822 172.3615 446.5822 174.2446 446.5822 174.8723 445.3268 172.9892 444.0714 172.9892 442.1883 167.9676 437.7944 166.0845 441.5606 164.8291 442.1883 164.2014 444.6991 162.946 445.9545 166.0845 427.7513 167.9676 413.9419 169.8507 403.271 169.8507 398.8772 169.8507 395.111 170.4784 392.6002 170.4784 391.3448 171.7338 388.834 173.6169 386.3232 173.6169 384.4401 176.1277 386.3232 174.8723 388.2063 179.2662 392.6002 181.1493 393.2279 182.4047 395.7387 184.9155 398.2495 186.7986 400.1326 188.6817 404.5264 189.3094 408.2926 191.8201 407.6649 191.8201 404.5264 191.1924 401.388 189.9371 396.3664 188.6817 393.8556 187.4263 391.3448 184.9155 388.834 182.4047 386.9509 181.777 386.3232 179.8939 385.6955 178.6385 384.4401 178.0108 381.9293 172.9892 379.4185 171.1061 376.9077 168.5953 375.6523 167.3399 375.6523 167.3399 370.6308 167.3399 369.3754 169.8507 369.3754 171.7338 368.7477 172.3615 367.4923 171.7338 366.2369 173.6169 364.9815 175.5 361.2153 176.1277 358.7045 174.8723 356.1937 176.7554 354.9383 176.7554 351.7998 175.5 351.7998 174.8723 348.6613 171.1061 344.8951 170.4784 345.5228 169.223 344.2675 170.4784 342.3844 170.4784 341.129 172.9892 339.2459 174.2446 337.3628 174.2446 334.852 Z M 215.6727 543.2477 216.9281 541.9923 215.6727 538.8538 213.7896 541.3646 215.045 543.2477 215.6727 543.2477 Z M 169.223 364.9815 169.8507 366.8646 167.9676 368.7477 167.3399 368.12 167.3399 365.6092 166.7122 363.0984 165.4568 361.843 163.5737 360.5876 161.0629 358.0768 161.0629 356.1937 161.0629 354.9383 160.4353 351.7998 163.5737 353.6829 164.2014 354.9383 168.5953 356.1937 167.9676 358.0768 168.5953 359.3322 168.5953 361.2153 170.4784 363.0984 169.223 364.9815 Z" id="FR.AC" fill="#cee3f5" stroke="#6e6e6e" stroke-width="0.4">
      <desc>
        <nom>Nouvelle-Aquitaine</nom>
        <name>Nouvelle-Aquitaine</name>
        <insee_cl/>
        <surf_km2>25971</surf_km2>
        <wikipedia>fr:Nouvelle-Aquitaine</wikipedia>
        <name_cl>Bordeaux</name_cl>
        <nuts2/>
        <nom_cl>Bordeaux</nom_cl>
        <nb_dep>4</nb_dep>
        <code_insee/>
        <nb_comm>1460</nb_comm>
        <id>FR.AC</id>
        <code_hasc>FR.AC</code_hasc>
        <nuts1>FRI</nuts1>
      </desc>
    </path>
    <path d="M 323.009 427.7513 324.2644 427.1236 326.7752 427.1236 326.7752 425.8682 325.5198 425.2405 324.8921 422.7297 326.7752 420.2189 328.6583 420.8466 328.6583 417.7081 330.5414 416.4527 329.286 412.6865 333.0522 407.0372 334.3076 407.0372 335.5629 404.5264 336.8183 404.5264 336.8183 403.271 338.0737 402.0157 338.0737 398.2495 340.5845 399.5049 341.2122 400.7603 344.3507 400.7603 345.6061 400.1326 343.723 398.2495 344.9784 391.3448 344.9784 390.0894 342.4676 386.3232 343.0953 385.0678 343.0953 383.8124 344.9784 383.1847 344.9784 381.3016 345.6061 380.0462 344.3507 377.5354 343.0953 375.6523 341.2122 374.3969 340.5845 373.1416 338.7014 370.6308 339.3291 370.0031 340.5845 370.0031 341.2122 368.12 344.3507 366.8646 344.3507 366.2369 346.2338 364.9815 346.2338 364.3538 346.8615 361.843 348.7446 361.2153 348.1169 359.3322 348.7446 356.8214 347.4892 355.566 346.2338 353.0552 346.2338 351.1721 346.8615 349.289 346.8615 347.4059 344.9784 346.1505 344.9784 343.0121 343.723 342.3844 343.0953 339.8736 341.2122 339.2459 338.7014 336.7351 338.0737 337.3628 334.9353 336.1074 334.9353 334.852 335.5629 333.5966 334.3076 332.9689 333.6799 330.4581 333.6799 328.575 336.1906 324.8088 338.0737 324.1811 341.8399 323.5534 343.0953 322.9257 346.2338 323.5534 349.3723 321.6703 348.1169 318.5318 347.4892 317.9041 348.7446 313.5103 349.3723 312.2549 351.8831 311.6272 354.3939 308.4887 355.0216 309.7441 356.9047 310.3718 359.4155 309.1164 365.0647 304.7225 368.8309 305.3502 369.4586 307.2333 370.714 309.1164 373.2248 309.7441 375.1079 312.2549 376.3633 312.8826 379.5018 310.3718 381.3849 310.3718 381.3849 312.2549 383.8957 312.2549 384.5234 310.3718 386.4065 310.3718 388.2896 314.7657 389.545 314.138 390.8004 312.2549 393.3112 312.2549 392.6835 310.3718 394.5665 309.7441 393.9388 307.861 395.8219 307.2333 395.8219 308.4887 398.3327 312.8826 399.5881 313.5103 401.4712 317.9041 402.0989 320.4149 401.4712 321.6703 405.2374 322.9257 406.4928 322.298 407.7482 323.5534 407.7482 325.4365 412.1421 324.8088 412.1421 326.0642 414.0252 326.6919 412.7698 331.0858 413.3975 332.9689 413.3975 336.7351 411.5144 336.7351 410.259 337.9905 409.6313 339.8736 410.259 341.7567 409.0036 343.6398 410.259 344.2675 412.7698 344.2675 413.3975 346.7782 415.9083 346.7782 417.1637 345.5228 419.0468 344.8951 420.3022 346.1505 422.8129 346.1505 424.0683 344.8951 425.3237 344.8951 427.8345 346.1505 429.0899 346.1505 432.2284 343.0121 432.2284 341.129 433.4838 337.9905 435.3669 337.3628 437.25 337.9905 437.8777 339.2459 439.7608 339.2459 440.3885 337.3628 441.6439 339.2459 444.7824 336.7351 446.6655 337.3628 447.2932 338.6182 446.0378 339.8736 448.5486 341.7567 447.9209 343.6398 448.5486 344.8951 451.0594 345.5228 452.3147 339.2459 454.1978 334.852 453.5701 332.9689 455.4532 329.8304 455.4532 327.3196 456.7086 325.4365 456.7086 323.5534 459.2194 322.298 460.4748 322.298 462.9856 324.1811 468.6349 322.298 469.8903 322.298 470.518 324.1811 473.6565 326.0642 474.9119 326.0642 474.9119 328.575 477.4227 329.2027 478.0504 330.4581 478.0504 332.3412 481.1888 334.852 483.0719 334.852 482.4442 337.3628 485.5827 337.9905 486.2104 337.3628 487.4658 336.1074 488.7212 335.4797 489.3489 333.5966 491.8597 333.5966 493.1151 334.852 494.3705 334.852 494.3705 337.3628 496.8813 337.3628 500.6475 337.3628 503.1583 336.1074 505.0414 334.2243 506.9245 330.4581 508.1799 329.2027 510.0629 326.6919 511.946 327.3196 515.0845 329.8304 513.8291 332.3412 512.5737 335.4797 513.2014 337.9905 509.4353 338.6182 506.9245 340.5013 506.2968 341.7567 507.5522 342.3844 506.2968 345.5228 510.0629 345.5228 510.6906 344.8951 512.5737 344.2675 513.8291 344.8951 516.9676 343.0121 516.9676 342.3844 518.8507 340.5013 519.4784 340.5013 521.3615 339.2459 521.9892 337.9905 521.3615 336.7351 520.1061 337.3628 518.8507 335.4797 519.4784 334.852 519.4784 332.3412 520.1061 330.4581 521.3615 329.8304 523.2446 329.2027 524.5 330.4581 525.7554 331.0858 526.3831 329.8304 529.5216 328.575 530.1493 327.3196 531.4047 326.6919 532.6601 327.3196 534.5432 326.6919 540.8201 325.4365 544.5863 326.6919 545.214 327.3196 543.3309 329.2027 544.5863 331.7135 545.8417 331.7135 548.3525 333.5966 545.214 339.2459 545.8417 340.5013 545.214 341.7567 545.214 343.6398 546.4694 344.2675 550.2356 344.2675 549.6079 346.1505 550.2356 346.7782 549.6079 349.289 550.2356 349.9167 551.491 348.0336 552.7464 349.289 554.6295 352.4275 555.8849 352.4275 557.1403 355.566 557.768 357.4491 555.8849 359.3322 555.8849 361.2153 554.0018 361.843 552.1187 363.0984 550.2356 363.0984 550.2356 364.3538 548.9802 363.7261 547.7248 363.7261 547.0971 364.9815 547.7248 371.2585 548.3525 372.5139 550.8633 374.3969 552.1187 375.0246 553.3741 376.28 555.2572 375.6523 557.1403 376.9077 556.5126 378.1631 555.8849 380.0462 557.1403 381.3016 557.1403 383.8124 557.768 385.6955 560.2788 386.3232 560.2788 387.5786 561.5342 387.5786 563.4173 390.0894 566.5558 391.9725 565.9281 393.8556 565.9281 395.111 564.6727 395.7387 564.6727 396.9941 563.4173 397.6218 564.6727 400.1326 564.6727 403.271 562.1619 404.5264 560.9065 404.5264 559.6511 405.1541 557.1403 405.7818 556.5126 407.6649 553.3741 409.548 554.0018 410.8034 552.1187 411.4311 550.2356 410.1757 547.7248 409.548 547.0971 410.8034 543.9586 411.4311 543.3309 412.0588 541.4478 413.3142 540.8201 412.6865 538.9371 412.6865 538.3094 413.9419 536.4263 414.5696 535.7986 413.9419 534.5432 414.5696 534.5432 417.0804 533.2878 417.7081 532.6601 417.0804 530.1493 417.0804 528.8939 414.5696 527.0108 413.3142 525.1277 414.5696 523.8723 413.3142 521.9892 414.5696 523.2446 417.0804 521.9892 417.0804 521.3615 420.8466 523.8723 422.102 526.3831 421.4743 527.0108 424.6128 528.8939 425.2405 528.8939 427.1236 528.8939 429.6344 528.8939 431.5175 528.2662 431.5175 526.3831 430.2621 525.1277 430.2621 524.5 431.5175 521.3615 431.5175 520.1061 431.5175 518.223 430.8898 517.5953 432.7728 515.0845 434.6559 513.8291 433.4005 512.5737 434.6559 510.6906 435.2836 510.0629 435.9113 511.3183 437.1667 508.8076 439.0498 505.0414 439.6775 504.4137 439.0498 503.786 442.1883 504.4137 444.0714 503.1583 444.6991 502.5306 445.9545 501.2752 445.9545 500.0198 447.2099 497.509 446.5822 495.6259 446.5822 495.6259 449.093 494.3705 450.9761 493.7428 454.1146 494.9982 454.7423 496.8813 456.6254 494.9982 457.2531 494.3705 459.1362 489.9766 457.8808 487.4658 457.8808 487.4658 460.3916 489.3489 461.0192 488.0935 462.2746 486.2104 461.6469 486.2104 462.9023 486.8381 465.4131 488.0935 467.2962 489.3489 467.9239 490.6043 467.2962 491.232 467.9239 492.4874 467.9239 495.6259 468.5516 494.9982 469.1793 496.2536 471.6901 498.1367 471.6901 498.7644 474.8286 498.7644 476.084 498.7644 477.3394 497.509 477.9671 496.8813 479.2225 498.7644 479.2225 498.7644 480.4779 496.2536 480.4779 496.8813 479.2225 494.9982 477.9671 493.7428 477.9671 492.4874 481.7333 489.9766 482.9887 488.0935 482.9887 487.4658 481.7333 486.2104 480.4779 484.3273 480.4779 484.3273 477.3394 483.0719 476.7117 481.8165 477.3394 480.5612 477.3394 478.0504 475.4563 477.4227 476.7117 474.2842 476.7117 472.4011 472.3178 469.2626 472.3178 468.6349 471.0624 465.4964 472.3178 464.241 472.9455 461.7302 474.2009 459.8471 474.2009 457.3363 476.7117 456.7086 476.084 456.0809 473.5732 456.0809 471.6901 454.1978 470.4347 451.6871 469.807 449.804 470.4347 448.5486 469.807 448.5486 474.2009 446.0378 472.9455 444.1547 471.6901 443.527 470.4347 441.0162 469.807 438.5054 469.807 438.5054 472.3178 436.6223 472.9455 435.9946 472.3178 436.6223 469.807 432.8561 469.807 432.2284 471.0624 430.973 471.6901 430.3453 474.2009 429.0899 474.8286 427.2068 473.5732 425.9514 472.3178 425.3237 471.6901 421.5576 470.4347 419.6745 471.6901 419.6745 467.2962 420.3022 465.4131 418.4191 464.7854 418.4191 462.9023 416.536 462.2746 415.9083 461.0192 415.9083 459.1362 414.0252 454.1146 412.7698 454.7423 411.5144 451.6038 411.5144 449.7207 409.6313 445.3268 409.6313 442.816 408.3759 442.816 406.4928 440.3052 404.6097 438.4221 403.982 436.539 402.7266 437.1667 400.2158 437.1667 400.8435 435.9113 399.5881 434.0282 396.4496 434.0282 397.0773 435.2836 395.8219 437.7944 392.6835 437.7944 391.4281 439.0498 388.9173 435.9113 388.2896 432.7728 387.6619 429.6344 385.7788 429.0067 384.5234 429.0067 382.0126 430.8898 380.7572 430.8898 378.8741 432.1451 379.5018 434.0282 376.991 435.2836 375.1079 432.7728 373.2248 434.0282 373.2248 435.2836 371.9694 437.1667 370.714 439.6775 370.714 442.1883 369.4586 443.4437 370.0863 445.3268 368.8309 445.3268 367.5755 450.3484 366.3201 449.093 364.4371 444.6991 365.0647 441.5606 363.8094 440.9329 362.554 439.6775 361.2986 435.2836 358.7878 434.6559 357.5324 434.0282 356.9047 432.1451 356.277 430.8898 355.0216 430.8898 353.7662 432.7728 353.1385 432.7728 350.6277 435.2836 348.7446 438.4221 348.7446 440.3052 347.4892 441.5606 346.8615 442.816 346.8615 444.6991 344.3507 447.2099 343.723 449.7207 342.4676 450.3484 341.2122 450.9761 339.3291 450.3484 336.8183 450.3484 335.5629 448.4653 333.6799 449.093 332.4245 449.7207 329.9137 450.3484 329.9137 452.2315 328.0306 450.9761 328.6583 448.4653 327.4029 446.5822 326.1475 445.9545 327.4029 443.4437 327.4029 442.1883 328.0306 441.5606 328.0306 439.0498 326.7752 438.4221 324.2644 434.0282 325.5198 432.1451 324.2644 430.8898 323.009 427.7513 Z M 465.4964 469.1793 466.7518 467.2962 468.0072 466.6685 466.7518 465.4131 463.6133 462.9023 462.9856 463.53 461.1025 464.1577 460.4748 466.6685 459.2194 467.9239 460.4748 469.1793 459.8471 469.807 459.8471 471.0624 461.7302 471.0624 464.241 471.6901 465.4964 469.1793 Z" id="FR.AR" fill="#cee3f5" stroke="#6e6e6e" stroke-width="0.4">
      <desc>
        <nom>Auvergne-Rhône-Alpes</nom>
        <name>Auvergne-Rhône-Alpes</name>
        <insee_cl/>
        <surf_km2>26172</surf_km2>
        <wikipedia>fr:Auvergne-Rhône-Alpes</wikipedia>
        <name_cl>Lyon</name_cl>
        <nuts2/>
        <nom_cl>Lyon</nom_cl>
        <nb_dep>4</nb_dep>
        <code_insee/>
        <nb_comm>1310</nb_comm>
        <id>FR.AR</id>
        <code_hasc>FR.AR</code_hasc>
        <nuts1>FRK</nuts1>
      </desc>
    </path>
    <path d="M 299.1565 160.352 297.2734 160.352 297.2734 164.7459 294.7626 165.3736 292.8795 167.2567 292.8795 168.5121 293.5072 170.3951 291.6241 172.2782 289.741 171.6505 288.4856 172.2782 287.8579 171.6505 284.0917 171.6505 283.464 170.3951 282.2086 170.3951 282.2086 172.2782 280.9532 172.9059 279.6978 172.2782 277.8147 174.1613 275.9317 174.1613 272.7932 175.4167 270.9101 174.789 270.2824 176.6721 268.3993 177.9275 269.6547 182.3214 269.6547 184.2045 271.5378 184.8322 273.4209 186.0876 272.7932 187.343 274.6763 187.9707 274.6763 191.1092 273.4209 191.1092 274.0486 194.2477 272.1655 198.0139 270.9101 199.2692 266.5162 200.5246 265.8885 201.78 266.5162 203.6631 266.5162 205.5462 268.3993 209.3124 267.1439 209.9401 265.2608 211.1955 263.3777 209.9401 262.1223 206.1739 260.2392 205.5462 258.9838 206.8016 255.8453 206.1739 253.3345 203.6631 253.3345 201.78 250.196 202.4077 248.3129 200.5246 247.6853 194.8754 248.3129 194.2477 247.6853 192.3646 245.1745 190.4815 241.4083 190.4815 238.8975 191.1092 238.2698 192.9923 236.3867 193.62 235.759 194.8754 234.5036 194.8754 233.8759 196.7585 228.8543 196.1308 229.482 191.7369 226.3435 191.7369 224.4604 191.1092 224.4604 189.8538 223.8327 187.9707 225.0881 186.7153 222.5773 184.2045 220.0665 184.8322 219.4388 187.9707 216.9281 186.7153 216.3004 187.9707 215.045 188.5984 211.9065 187.343 208.768 187.343 206.8849 189.8538 205.0018 189.8538 201.8633 191.7369 201.8633 188.5984 199.9802 189.8538 197.4694 191.7369 196.214 191.1092 195.5863 189.8538 193.0755 187.343 191.1924 187.343 189.9371 186.0876 188.6817 186.0876 188.054 187.343 185.5432 187.343 184.2878 186.0876 183.6601 186.0876 181.1493 185.4599 179.8939 185.4599 177.3831 184.2045 174.8723 183.5768 172.9892 186.7153 171.1061 187.343 171.1061 187.9707 169.223 189.2261 167.3399 188.5984 166.7122 186.7153 164.8291 186.7153 163.5737 183.5768 163.5737 181.6937 162.3183 179.8106 162.946 179.1829 161.6906 177.2998 162.946 177.2998 164.2014 177.9275 166.7122 177.9275 169.223 175.4167 164.8291 173.5336 164.2014 171.0228 161.6906 168.5121 162.3183 165.3736 161.0629 162.8628 161.6906 161.6074 162.946 157.2135 162.946 151.5642 161.6906 150.3088 161.0629 145.2872 162.3183 142.7764 161.6906 138.3826 160.4353 137.1272 159.1799 132.7333 155.4137 127.084 152.9029 125.8286 152.9029 120.807 152.2752 119.5516 152.2752 117.0408 151.0198 116.4131 151.0198 114.53 152.9029 112.6469 152.9029 110.1362 152.2752 107.6254 150.3921 106.37 148.509 105.7423 149.1367 101.9761 149.7644 101.9761 151.6475 103.8592 153.5306 103.2315 153.5306 104.4869 156.6691 105.7423 158.5522 105.7423 160.4353 107.6254 162.3183 107.6254 164.2014 108.2531 167.3399 107.6254 168.5953 106.9977 171.1061 105.1146 174.2446 105.1146 176.7554 105.7423 178.6385 105.7423 178.6385 106.9977 179.2662 108.8808 179.8939 112.0192 178.6385 111.3916 178.0108 113.2746 176.7554 113.9023 176.1277 115.7854 178.0108 120.1793 181.777 125.8286 181.777 127.084 183.6601 128.9671 186.1709 126.4563 189.3094 126.4563 192.4478 127.084 194.3309 128.3394 196.8417 129.5948 199.9802 130.2225 206.8849 130.8502 208.768 130.8502 215.6727 132.1056 219.4388 133.9887 223.205 135.2441 225.7158 135.2441 228.8543 134.6164 232.6205 133.361 235.759 130.8502 238.8975 127.7117 243.2914 126.4563 246.4299 126.4563 247.0576 124.5732 242.036 123.9455 241.4083 124.5732 238.2698 123.9455 236.3867 120.1793 237.0144 118.2962 240.7806 111.3916 240.7806 108.8808 242.6637 106.9977 244.5468 106.37 247.0576 105.1146 248.3129 105.1146 250.8237 103.2315 256.473 100.093 259.6115 98.2099 265.2608 96.9545 267.7716 96.9545 274.6763 94.4437 275.9317 93.816 279.0701 93.816 282.8363 92.5606 286.6025 90.6775 292.8795 85.0282 294.7626 84.4005 296.6457 83.7728 297.9011 84.4005 297.9011 86.2836 300.4119 87.539 301.0396 88.7944 302.9227 90.6775 303.5504 91.9329 305.4335 93.1883 307.3165 93.816 309.1996 96.9545 309.8273 101.3484 311.0827 103.8592 311.0827 105.1146 309.1996 106.9977 307.9442 109.5085 308.5719 110.1362 310.455 108.8808 310.455 110.1362 309.1996 110.7639 308.5719 112.6469 309.1996 113.9023 308.5719 116.4131 310.455 120.1793 309.8273 122.6901 312.3381 122.0624 311.7104 124.5732 310.455 125.2009 309.1996 127.084 309.1996 129.5948 311.0827 131.4779 311.7104 133.361 311.0827 134.6164 312.9658 137.7549 312.3381 139.0103 309.8273 137.7549 308.5719 138.3826 308.5719 140.8934 306.6888 142.1487 306.6888 144.6595 306.0612 147.1703 304.1781 149.6811 304.8058 150.3088 301.0396 150.9365 298.5288 152.8196 296.6457 152.8196 297.9011 155.3304 298.5288 157.8412 299.1565 160.352 Z" id="FR.ND" fill="#cee3f5" stroke="#6e6e6e" stroke-width="0.4">
      <desc>
        <nom>Normandy</nom>
        <name>Normandy</name>
        <insee_cl/>
        <surf_km2>12350</surf_km2>
        <wikipedia>fr:Normandy</wikipedia>
        <name_cl>Rouen</name_cl>
        <nuts2/>
        <nom_cl>Rouen</nom_cl>
        <nb_dep>2</nb_dep>
        <code_insee/>
        <nb_comm>1420</nb_comm>
        <id>FR.ND</id>
        <code_hasc>FR.ND</code_hasc>
        <nuts1>FRD</nuts1>
      </desc>
    </path>
    <path d="M 555.2572 250.7405 552.7464 251.9959 550.8633 250.7405 548.9802 251.9959 549.6079 253.879 548.9802 255.1344 547.0971 255.7621 547.0971 257.6451 544.5863 260.1559 546.4694 261.4113 551.491 260.1559 552.7464 261.4113 552.1187 262.6667 550.8633 263.2944 550.8633 264.5498 547.7248 265.8052 548.3525 268.9437 545.214 272.0822 543.9586 275.2207 542.0755 276.4761 540.1924 277.7315 537.054 281.4977 538.3094 282.1254 535.7986 284.0085 533.9155 286.5192 529.5216 288.4023 528.2662 288.4023 525.7554 291.5408 527.0108 294.0516 527.0108 296.5624 526.3831 297.8178 526.3831 299.7009 527.0108 300.9563 526.3831 302.8394 524.5 303.4671 523.8723 304.7225 521.9892 305.9779 519.4784 307.861 518.8507 308.4887 515.7122 312.2549 511.946 316.021 513.8291 317.9041 511.946 320.4149 511.3183 322.298 510.6906 323.5534 511.3183 324.8088 510.0629 326.6919 508.1799 329.2027 506.9245 330.4581 505.0414 334.2243 503.1583 336.1074 500.6475 337.3628 496.8813 337.3628 494.3705 337.3628 494.3705 334.852 493.1151 334.852 491.8597 333.5966 489.3489 333.5966 488.7212 335.4797 487.4658 336.1074 486.2104 337.3628 485.5827 337.9905 482.4442 337.3628 483.0719 334.852 481.1888 334.852 478.0504 332.3412 478.0504 330.4581 477.4227 329.2027 474.9119 328.575 474.9119 326.0642 473.6565 326.0642 470.518 324.1811 469.8903 322.298 468.6349 322.298 462.9856 324.1811 460.4748 322.298 459.2194 322.298 456.7086 323.5534 456.7086 325.4365 455.4532 327.3196 455.4532 329.8304 453.5701 332.9689 454.1978 334.852 452.3147 339.2459 451.0594 345.5228 448.5486 344.8951 447.9209 343.6398 448.5486 341.7567 446.0378 339.8736 447.2932 338.6182 446.6655 337.3628 444.7824 336.7351 441.6439 339.2459 440.3885 337.3628 439.7608 339.2459 437.8777 339.2459 437.25 337.9905 435.3669 337.3628 433.4838 337.9905 432.2284 341.129 432.2284 343.0121 429.0899 346.1505 427.8345 346.1505 425.3237 344.8951 424.0683 344.8951 422.8129 346.1505 420.3022 346.1505 419.0468 344.8951 417.1637 345.5228 415.9083 346.7782 413.3975 346.7782 412.7698 344.2675 410.259 344.2675 409.0036 343.6398 410.259 341.7567 409.6313 339.8736 410.259 337.9905 411.5144 336.7351 413.3975 336.7351 413.3975 332.9689 412.7698 331.0858 414.0252 326.6919 412.1421 326.0642 412.1421 324.8088 407.7482 325.4365 407.7482 323.5534 406.4928 322.298 405.2374 322.9257 401.4712 321.6703 402.0989 320.4149 401.4712 317.9041 399.5881 313.5103 398.3327 312.8826 395.8219 308.4887 395.8219 307.2333 393.9388 307.861 394.5665 309.7441 392.6835 310.3718 393.3112 312.2549 390.8004 312.2549 389.545 314.138 388.2896 314.7657 386.4065 310.3718 384.5234 310.3718 383.8957 312.2549 381.3849 312.2549 381.3849 310.3718 379.5018 310.3718 376.3633 312.8826 375.1079 312.2549 373.2248 309.7441 370.714 309.1164 369.4586 307.2333 368.8309 305.3502 369.4586 302.8394 370.0863 301.584 370.0863 299.7009 369.4586 297.1901 370.714 294.6793 370.0863 292.7962 370.0863 289.03 370.0863 288.4023 367.5755 286.5192 368.2032 285.2639 368.2032 282.7531 366.9478 277.7315 365.6924 275.8484 365.6924 273.3376 362.554 270.8268 361.2986 269.5714 360.6709 268.316 363.1817 263.9221 363.8094 261.4113 361.9263 258.9005 361.2986 257.0175 359.4155 254.5067 362.554 253.879 362.554 253.2513 365.0647 253.879 365.6924 252.6236 363.8094 251.3682 363.8094 248.8574 364.4371 247.602 362.554 246.3466 361.9263 244.4635 360.0432 243.2081 359.4155 242.5804 360.6709 239.4419 363.8094 240.0696 365.6924 238.1865 367.5755 238.1865 367.5755 236.9311 366.9478 235.048 368.2032 234.4203 366.9478 231.9095 366.9478 230.0264 368.8309 230.0264 368.8309 228.771 371.9694 225.6326 371.9694 223.1218 371.3417 223.1218 370.0863 219.3556 368.8309 218.7279 368.8309 217.4725 367.5755 214.9617 366.9478 213.7063 363.1817 213.0786 363.1817 211.1955 366.3201 209.9401 368.2032 205.5462 366.9478 203.0354 368.2032 201.78 368.2032 199.2692 370.714 199.8969 372.5971 198.6416 375.1079 199.2692 378.2464 198.6416 378.8741 198.0139 381.3849 198.6416 382.6403 198.6416 382.6403 196.7585 384.5234 197.3862 386.4065 198.6416 388.2896 198.6416 392.6835 203.0354 392.0558 204.2908 393.9388 204.9185 394.5665 206.1739 393.3112 207.4293 394.5665 208.057 393.3112 209.9401 395.1942 211.1955 396.4496 214.334 398.3327 213.7063 400.2158 211.8232 400.8435 214.334 402.7266 216.8448 402.7266 217.4725 403.982 218.7279 403.3543 220.611 405.8651 221.8664 404.6097 223.1218 404.6097 224.3772 407.7482 225.0049 407.1205 226.2603 408.3759 227.5157 410.259 227.5157 414.0252 228.1434 414.6529 226.888 416.536 228.1434 419.0468 225.6326 420.3022 225.6326 420.9299 225.0049 422.8129 227.5157 425.3237 228.1434 425.9514 225.6326 427.2068 225.6326 430.3453 225.0049 432.2284 225.6326 434.1115 225.0049 436.6223 225.0049 436.6223 222.4941 437.8777 220.611 439.7608 220.611 442.2716 221.2387 443.527 220.611 445.4101 221.8664 447.2932 221.8664 447.9209 223.1218 447.2932 224.3772 449.804 225.0049 451.0594 226.2603 449.804 227.5157 450.4317 229.3987 451.0594 227.5157 452.9424 227.5157 454.1978 229.3987 455.4532 230.6541 455.4532 232.5372 457.3363 233.7926 456.7086 235.048 453.5701 236.9311 455.4532 238.1865 456.0809 240.0696 455.4532 241.9527 457.3363 243.2081 459.8471 242.5804 460.4748 244.4635 464.241 245.0912 465.4964 245.0912 467.3795 245.7189 468.6349 246.9743 468.6349 248.8574 469.2626 250.1128 471.7734 247.602 474.9119 247.602 474.9119 246.9743 476.1673 245.0912 476.1673 243.2081 479.3058 243.2081 479.9335 242.5804 481.8165 243.2081 483.0719 241.325 484.3273 240.6973 484.955 243.2081 487.4658 242.5804 489.3489 241.9527 488.7212 238.8142 489.9766 237.5588 489.9766 236.3034 488.7212 236.3034 488.0935 233.7926 489.3489 232.5372 491.232 232.5372 491.232 230.6541 491.8597 230.0264 494.9982 230.6541 494.3705 229.3987 495.6259 226.888 497.509 226.2603 497.509 225.6326 498.7644 222.4941 499.3921 221.8664 501.2752 223.1218 502.5306 223.1218 504.4137 219.9833 505.6691 218.7279 508.8076 218.7279 510.0629 221.2387 509.4353 222.4941 513.2014 224.3772 515.0845 222.4941 516.9676 223.1218 518.8507 221.8664 521.9892 223.1218 524.5 226.2603 527.0108 225.6326 528.2662 223.1218 529.5216 222.4941 531.4047 224.3772 532.0324 225.0049 535.7986 227.5157 538.3094 228.1434 538.9371 229.3987 540.1924 230.6541 541.4478 230.0264 542.0755 232.5372 545.8417 233.1649 547.0971 234.4203 548.9802 235.048 550.2356 236.3034 550.2356 240.6973 548.9802 242.5804 549.6079 244.4635 550.8633 245.0912 552.1187 244.4635 552.7464 245.0912 554.0018 247.602 555.8849 249.4851 555.2572 250.7405 Z" id="FR.BF" fill="#cee3f5" stroke="#6e6e6e" stroke-width="0.4">
      <desc>
        <nom>Bourgogne-Franche-Comté</nom>
        <name>Bourgogne-Franche-Comté</name>
        <insee_cl/>
        <surf_km2>16306</surf_km2>
        <wikipedia>fr:Bourgogne-Franche-Comté</wikipedia>
        <name_cl>Dijon</name_cl>
        <nuts2/>
        <nom_cl>Dijon</nom_cl>
        <nb_dep>4</nb_dep>
        <code_insee/>
        <nb_comm>1785</nb_comm>
        <id>FR.BF</id>
        <code_hasc>FR.BF</code_hasc>
        <nuts1>FRC</nuts1>
      </desc>
    </path>
    <path d="M 85.7392 260.7836 88.8777 261.4113 88.25 263.2944 83.2284 262.6667 81.3453 262.6667 80.0899 261.4113 79.4622 258.2728 80.0899 257.0175 81.973 257.0175 83.2284 258.2728 84.4838 258.2728 85.1115 260.1559 85.7392 260.7836 Z M 69.4191 237.5588 70.6745 237.5588 73.1853 238.1865 73.8129 240.0696 70.6745 239.4419 69.4191 237.5588 Z M 1 177.2998 4.7662 176.0444 4.7662 177.2998 3.5108 177.9275 2.8831 177.2998 1 177.2998 Z M 161.6906 177.2998 162.946 179.1829 162.3183 179.8106 163.5737 181.6937 163.5737 183.5768 164.8291 186.7153 166.7122 186.7153 167.3399 188.5984 169.223 189.2261 171.1061 187.9707 171.1061 187.343 172.9892 186.7153 174.8723 183.5768 177.3831 184.2045 179.8939 185.4599 181.1493 185.4599 183.6601 186.0876 183.0324 188.5984 183.6601 189.8538 183.0324 191.1092 183.0324 192.3646 183.6601 194.8754 183.0324 196.1308 184.2878 198.6416 181.777 201.1523 181.1493 203.6631 182.4047 206.8016 181.777 208.6847 183.0324 209.9401 183.0324 214.334 184.2878 216.2171 183.6601 218.1002 184.2878 221.2387 181.777 221.8664 179.2662 221.2387 178.0108 223.1218 176.7554 227.5157 176.1277 227.5157 176.1277 229.3987 174.8723 230.0264 174.2446 232.5372 173.6169 235.048 167.9676 233.7926 167.3399 231.2818 165.4568 231.2818 162.946 231.2818 163.5737 232.5372 161.6906 233.1649 160.4353 234.4203 157.9245 234.4203 156.0414 235.048 155.4137 238.1865 154.1583 238.8142 150.3921 238.8142 149.1367 239.4419 146.6259 238.1865 145.3705 238.8142 144.1151 239.4419 141.6043 240.0696 140.3489 239.4419 138.4658 240.6973 137.2104 240.6973 136.5827 241.9527 134.6996 241.9527 134.0719 243.2081 134.6996 245.0912 133.4442 245.7189 133.4442 249.4851 129.6781 250.7405 128.4227 251.3682 127.1673 251.9959 124.6565 250.7405 124.0288 252.6236 123.4011 253.879 121.518 254.5067 120.8903 253.879 119.0072 253.879 117.1241 253.2513 117.1241 254.5067 115.241 254.5067 115.8687 252.6236 117.7518 251.3682 114.6133 248.8574 112.7302 250.1128 107.7086 249.4851 107.0809 250.7405 105.1978 249.4851 100.804 250.7405 99.5486 250.1128 99.5486 248.8574 98.2932 247.602 96.4101 246.9743 97.0378 245.7189 98.2932 245.7189 100.1763 246.9743 102.0594 246.3466 103.3147 247.602 105.1978 246.3466 106.4532 244.4635 105.8255 243.8358 102.6871 241.9527 101.4317 241.9527 98.2932 242.5804 97.0378 243.8358 94.527 243.8358 95.7824 245.0912 94.527 245.7189 93.8993 244.4635 88.8777 245.0912 86.9946 244.4635 86.3669 246.9743 86.9946 249.4851 86.3669 250.7405 85.7392 247.602 86.3669 245.7189 86.3669 243.8358 85.7392 241.9527 83.2284 239.4419 80.7176 236.3034 80.0899 235.048 76.9514 233.7926 75.696 234.4203 73.8129 234.4203 72.5576 235.048 70.6745 232.5372 69.4191 229.3987 66.2806 229.3987 63.1421 228.771 60.6313 226.888 59.3759 227.5157 55.6097 226.888 54.3543 225.6326 52.4712 222.4941 53.0989 221.8664 50.5881 219.3556 49.3327 220.611 49.9604 222.4941 46.8219 222.4941 45.5665 221.2387 43.0558 221.2387 41.1727 221.8664 41.1727 224.3772 39.9173 225.0049 36.1511 225.6326 33.0126 224.3772 31.1295 224.3772 31.1295 223.1218 33.0126 221.8664 33.0126 219.9833 31.7572 216.2171 30.5018 213.7063 29.2464 211.8232 25.4802 209.3124 24.2248 210.5678 21.0863 208.057 17.9478 208.057 17.3201 207.4293 18.5755 205.5462 19.8309 204.9185 21.714 205.5462 23.5971 204.9185 24.8525 204.9185 26.1079 204.2908 30.5018 204.2908 33.6403 203.6631 36.1511 205.5462 36.7788 204.2908 38.0342 201.1523 36.7788 198.0139 35.5234 197.3862 34.268 197.3862 31.1295 194.8754 28.6187 194.8754 27.3633 197.3862 25.4802 198.0139 25.4802 194.8754 24.8525 192.9923 23.5971 192.3646 23.5971 191.1092 25.4802 191.1092 24.8525 188.5984 26.7356 188.5984 26.1079 190.4815 28.6187 191.7369 30.5018 191.1092 31.7572 191.1092 32.3849 192.3646 34.268 192.3646 37.4065 191.1092 38.6619 192.3646 41.1727 191.7369 38.0342 190.4815 36.7788 188.5984 34.8957 187.9707 34.268 189.2261 31.1295 188.5984 31.1295 187.9707 32.3849 186.0876 31.7572 184.8322 29.8741 184.8322 23.5971 187.343 21.0863 186.0876 19.2032 187.343 17.3201 187.343 16.6924 185.4599 17.3201 184.2045 17.3201 182.3214 16.0647 181.6937 17.9478 177.9275 17.3201 176.0444 19.8309 172.2782 21.714 171.0228 25.4802 171.6505 26.1079 169.1398 27.3633 170.3951 28.6187 169.7675 27.991 168.5121 28.6187 167.2567 30.5018 168.5121 32.3849 168.5121 34.268 166.629 35.5234 166.629 38.0342 165.3736 39.9173 166.629 40.545 167.8844 43.0558 167.8844 43.6835 166.629 46.1942 165.3736 48.0773 165.3736 50.5881 166.0013 51.8435 164.1182 53.0989 164.7459 54.3543 164.1182 54.3543 167.2567 58.7482 170.3951 60.0036 167.8844 60.0036 166.0013 60.6313 164.7459 65.0252 165.3736 66.9083 167.2567 70.6745 168.5121 71.9299 168.5121 71.9299 165.3736 73.8129 163.4905 72.5576 161.6074 74.4406 159.7243 75.0683 158.4689 77.5791 157.8412 79.4622 160.9797 81.3453 160.352 84.4838 158.4689 86.3669 158.4689 87.6223 157.2135 88.8777 156.5858 89.5054 159.0966 92.6439 157.2135 94.527 157.2135 94.527 160.9797 97.6655 160.352 97.6655 161.6074 96.4101 162.8628 97.6655 164.1182 100.1763 164.1182 100.804 166.0013 100.1763 166.629 101.4317 168.5121 102.6871 169.1398 103.3147 170.3951 105.1978 172.2782 105.8255 175.4167 105.1978 176.0444 107.7086 177.9275 110.2194 179.1829 109.5917 181.066 110.8471 182.3214 111.4748 181.066 113.3579 180.4383 114.6133 179.8106 117.7518 177.2998 119.6349 176.0444 120.8903 175.4167 120.8903 173.5336 122.7734 173.5336 124.6565 174.1613 127.795 172.2782 129.6781 172.9059 127.795 176.0444 130.9335 174.1613 131.5612 176.0444 132.8165 178.5552 134.0719 179.1829 136.5827 175.4167 139.0935 175.4167 140.3489 175.4167 142.8597 174.1613 143.4874 172.2782 145.3705 171.6505 147.2536 172.2782 148.509 171.6505 149.7644 172.9059 148.509 173.5336 147.8813 175.4167 149.1367 177.2998 152.9029 178.5552 157.2968 177.9275 161.6906 177.2998 Z" id="FR.BT" fill="#cee3f5" stroke="#6e6e6e" stroke-width="0.4">
      <desc>
        <nom>Bretagne</nom>
        <name>Bretagne</name>
        <insee_cl/>
        <surf_km2>27506</surf_km2>
        <wikipedia>fr:Région Bretagne</wikipedia>
        <name_cl>Rennes</name_cl>
        <nuts2/>
        <nom_cl>Rennes</nom_cl>
        <nb_dep>4</nb_dep>
        <code_insee/>
        <nb_comm>1270</nb_comm>
        <id>FR.BT</id>
        <code_hasc>FR.BT</code_hasc>
        <nuts1>FRH</nuts1>
      </desc>
    </path>
    <path d="M 231.3651 278.9869 231.9928 275.2207 231.9928 273.3376 233.2482 271.4545 232.6205 270.8268 234.5036 267.6883 235.759 267.0606 237.0144 263.9221 237.0144 262.6667 237.6421 261.4113 237.6421 259.5282 239.5252 256.3898 239.5252 255.1344 238.8975 253.879 239.5252 251.3682 240.1529 251.3682 240.1529 248.8574 241.4083 248.8574 242.6637 250.1128 244.5468 250.1128 245.1745 251.3682 247.0576 251.9959 247.6853 250.1128 246.4299 248.2297 247.6853 246.9743 248.9406 248.8574 250.196 248.8574 250.8237 246.9743 252.7068 246.9743 255.2176 246.3466 255.2176 245.0912 257.1007 245.0912 257.1007 243.2081 258.3561 240.0696 259.6115 239.4419 262.1223 237.5588 264.0054 235.048 265.2608 233.7926 264.6331 230.0264 267.1439 227.5157 269.027 227.5157 267.7716 223.7495 268.3993 223.7495 267.7716 221.2387 266.5162 220.611 267.1439 218.7279 269.027 218.1002 268.3993 216.2171 269.027 214.334 272.1655 214.334 270.9101 212.4509 268.3993 211.8232 267.1439 209.9401 268.3993 209.3124 266.5162 205.5462 266.5162 203.6631 265.8885 201.78 266.5162 200.5246 270.9101 199.2692 272.1655 198.0139 274.0486 194.2477 273.4209 191.1092 274.6763 191.1092 274.6763 187.9707 272.7932 187.343 273.4209 186.0876 271.5378 184.8322 269.6547 184.2045 269.6547 182.3214 268.3993 177.9275 270.2824 176.6721 270.9101 174.789 272.7932 175.4167 275.9317 174.1613 277.8147 174.1613 279.6978 172.2782 280.9532 172.9059 282.2086 172.2782 282.2086 170.3951 283.464 170.3951 284.0917 171.6505 287.8579 171.6505 288.4856 172.2782 289.741 171.6505 291.6241 172.2782 293.5072 170.3951 292.8795 168.5121 292.8795 167.2567 294.7626 165.3736 297.2734 164.7459 297.2734 160.352 299.1565 160.352 301.0396 161.6074 301.0396 162.2351 301.6673 163.4905 301.0396 164.7459 302.9227 165.3736 302.295 171.0228 302.9227 172.2782 304.8058 173.5336 302.295 176.0444 304.1781 177.2998 303.5504 178.5552 305.4335 180.4383 306.0612 181.6937 308.5719 182.9491 307.9442 184.2045 309.1996 185.4599 310.455 184.8322 311.0827 186.7153 311.0827 189.2261 312.3381 192.3646 313.5935 192.3646 314.2212 193.62 316.732 194.2477 318.6151 194.2477 317.9874 196.1308 320.4982 196.7585 319.8705 198.0139 320.4982 199.2692 319.8705 201.1523 320.4982 202.4077 319.2428 203.0354 319.8705 204.2908 321.7536 204.9185 323.6367 203.6631 328.6583 203.6631 329.9137 201.78 330.5414 201.1523 332.4245 203.6631 334.3076 203.0354 335.5629 201.78 337.446 203.0354 338.7014 203.0354 339.9568 203.6631 340.5845 206.8016 342.4676 206.8016 343.723 208.6847 344.9784 210.5678 343.0953 213.0786 341.8399 214.9617 344.3507 215.5894 345.6061 214.334 348.1169 214.9617 350 214.334 351.2554 215.5894 353.1385 215.5894 355.0216 214.334 356.277 212.4509 358.1601 214.9617 360.0432 213.0786 363.1817 213.0786 366.9478 213.7063 367.5755 214.9617 368.8309 217.4725 368.8309 218.7279 370.0863 219.3556 371.3417 223.1218 371.9694 223.1218 371.9694 225.6326 368.8309 228.771 368.8309 230.0264 366.9478 230.0264 366.9478 231.9095 368.2032 234.4203 366.9478 235.048 367.5755 236.9311 367.5755 238.1865 365.6924 238.1865 363.8094 240.0696 360.6709 239.4419 359.4155 242.5804 360.0432 243.2081 361.9263 244.4635 362.554 246.3466 364.4371 247.602 363.8094 248.8574 363.8094 251.3682 365.6924 252.6236 365.0647 253.879 362.554 253.2513 362.554 253.879 359.4155 254.5067 361.2986 257.0175 361.9263 258.9005 363.8094 261.4113 363.1817 263.9221 360.6709 268.316 361.2986 269.5714 362.554 270.8268 365.6924 273.3376 365.6924 275.8484 366.9478 277.7315 368.2032 282.7531 368.2032 285.2639 367.5755 286.5192 370.0863 288.4023 370.0863 289.03 370.0863 292.7962 370.714 294.6793 369.4586 297.1901 370.0863 299.7009 370.0863 301.584 369.4586 302.8394 368.8309 305.3502 365.0647 304.7225 359.4155 309.1164 356.9047 310.3718 355.0216 309.7441 354.3939 308.4887 351.8831 311.6272 349.3723 312.2549 348.7446 313.5103 347.4892 317.9041 348.1169 318.5318 349.3723 321.6703 346.2338 323.5534 343.0953 322.9257 341.8399 323.5534 338.0737 324.1811 336.1906 324.8088 333.6799 328.575 333.6799 330.4581 331.7968 330.4581 324.2644 330.4581 320.4982 329.8304 319.8705 329.2027 317.3597 329.8304 316.1043 329.2027 312.9658 329.8304 311.0827 327.9473 308.5719 328.575 309.1996 329.8304 309.1996 331.7135 307.3165 332.3412 306.0612 330.4581 303.5504 332.9689 301.6673 330.4581 299.1565 332.3412 299.1565 330.4581 297.9011 330.4581 297.2734 331.7135 296.018 332.3412 294.7626 334.852 292.8795 334.2243 290.3687 331.7135 289.1133 332.3412 287.8579 333.5966 285.9748 332.9689 284.0917 333.5966 283.464 332.3412 282.2086 332.3412 284.0917 329.2027 280.9532 327.9473 280.3255 326.6919 280.9532 324.8088 278.4424 322.298 275.304 322.298 274.6763 319.7872 273.4209 320.4149 271.5378 319.1595 270.2824 317.9041 269.6547 315.3934 270.2824 314.138 269.6547 312.2549 270.9101 310.9995 270.2824 309.1164 267.1439 306.6056 265.8885 304.7225 265.2608 302.2117 262.75 300.3286 260.8669 297.1901 260.8669 294.6793 260.2392 292.1685 258.9838 292.1685 257.1007 290.9131 257.1007 290.2854 254.5899 290.2854 255.8453 293.4239 251.4514 293.4239 248.9406 294.0516 248.3129 295.307 245.1745 293.4239 243.2914 294.6793 242.6637 293.4239 242.6637 290.2854 242.036 289.03 242.6637 287.1469 241.4083 287.1469 240.1529 285.2639 238.2698 286.5192 236.3867 285.2639 237.6421 284.0085 237.0144 283.3808 235.1313 282.7531 231.9928 281.4977 231.3651 278.9869 Z" id="FR.CN" fill="#cee3f5" stroke="#6e6e6e" stroke-width="0.4">
      <desc>
        <nom>Centre-Val de Loire</nom>
        <name>Centre-Val de Loire</name>
        <insee_cl/>
        <surf_km2>39530</surf_km2>
        <wikipedia>fr:Région Centre</wikipedia>
        <name_cl>Orlans</name_cl>
        <nuts2/>
        <nom_cl>Orléans</nom_cl>
        <nb_dep>6</nb_dep>
        <code_insee/>
        <nb_comm>1841</nb_comm>
        <id>FR.CN</id>
        <code_hasc>FR.CN</code_hasc>
        <nuts1>FRB</nuts1>
      </desc>
    </path>
    <path d="M 689.5845 648.0732 687.7014 651.2117 686.446 651.2117 687.7014 653.0948 688.9568 652.4671 686.446 656.2333 685.1906 656.861 684.5629 655.6056 682.6799 654.9779 680.7968 655.6056 680.1691 654.3502 681.4245 651.8394 679.5414 652.4671 677.6583 651.2117 673.2644 649.3286 671.3813 649.3286 666.3597 646.1901 663.8489 644.9347 663.8489 640.5408 665.1043 640.5408 668.2428 638.6577 667.6151 636.1469 666.3597 636.1469 665.1043 634.8916 662.5935 635.5192 661.9658 633.0085 658.8273 634.2639 658.1996 633.0085 660.0827 631.1254 660.7104 628.6146 661.9658 628.6146 661.3381 626.1038 662.5935 625.4761 661.9658 623.593 662.5935 622.3376 661.3381 621.0822 658.8273 622.3376 656.3165 622.9653 655.0612 622.3376 653.1781 623.593 653.1781 620.4545 651.9227 620.4545 651.9227 618.5714 654.4335 618.5714 655.6888 617.316 654.4335 615.4329 655.6888 614.8052 658.8273 612.9221 657.5719 611.6667 656.9442 609.7836 652.5504 607.9005 650.0396 606.0175 649.4119 604.7621 650.0396 602.879 649.4119 600.3682 655.0612 598.4851 653.8058 595.9743 650.6673 595.3466 651.9227 594.0912 650.0396 592.8358 648.7842 594.0912 647.5288 591.5804 650.0396 590.9527 650.6673 587.8142 652.5504 588.4419 653.1781 584.048 652.5504 583.4203 652.5504 581.5372 655.0612 580.9095 654.4335 579.6541 655.6888 578.3987 656.9442 577.771 658.1996 578.3987 659.455 577.1434 659.455 575.2603 662.5935 572.7495 664.4766 572.1218 666.9874 572.1218 669.4982 571.4941 671.3813 570.2387 670.7536 568.3556 673.8921 565.2171 675.7752 564.5894 677.6583 565.2171 678.9137 564.5894 682.6799 568.3556 683.9353 566.4725 683.9353 565.2171 685.1906 563.334 684.5629 559.5678 682.6799 557.057 683.9353 555.1739 683.3076 552.6631 684.5629 551.4077 684.5629 549.5246 683.3076 545.7585 685.1906 545.1308 687.0737 545.1308 688.3291 545.7585 689.5845 548.8969 690.2122 549.5246 692.0953 558.9401 690.8399 560.8232 690.2122 566.4725 691.4676 569.611 694.6061 573.3772 695.8615 575.888 695.8615 579.0264 696.4892 581.5372 697.1169 583.4203 696.4892 587.1865 697.7446 590.325 698.3723 593.4635 698.3723 597.2297 699 599.1128 699 604.1344 699 605.3898 693.3507 616.0606 693.3507 617.9437 692.723 621.7099 693.9784 624.8484 693.3507 628.6146 693.9784 628.6146 693.9784 631.1254 694.6061 632.3808 693.9784 636.7746 690.8399 639.9131 692.0953 640.5408 693.3507 640.5408 692.0953 643.0516 690.2122 644.307 689.5845 645.5624 689.5845 648.0732 Z" id="FR.CE" fill="#cee3f5" stroke="#6e6e6e" stroke-width="0.4">
      <desc>
        <nom>Corse</nom>
        <name>Corse</name>
        <insee_cl/>
        <surf_km2>8738</surf_km2>
        <wikipedia>fr:Corse</wikipedia>
        <name_cl>Ajaccio</name_cl>
        <nuts2>FRM0</nuts2>
        <nom_cl>Ajaccio</nom_cl>
        <nb_dep>2</nb_dep>
        <code_insee/>
        <nb_comm>360</nb_comm>
        <id>FR.CE</id>
        <code_hasc>FR.CE</code_hasc>
        <nuts1>FRM</nuts1>
      </desc>
    </path>
    <path d="M 536.3534 681.2729 538.0552 679.4473 539.2722 680.582 538.746 682.3661 536.3534 681.2729 Z M 590.28 635.8513 595.4656 631.5552 598.9725 630.2661 600.1892 631.4113 595.5379 633.9167 590.28 635.8513 Z M 578.3506 669.2656 581.4237 673.2918 580.3214 675.6824 576.8668 678.1475 573.3758 679.4369 568.5945 677.2368 567.2258 671.3921 569.5413 670.1383 571.7429 665.3529 573.4902 664.707 577.7057 667.5185 578.3506 669.2656 Z M 534.2363 671.3377 530.7064 671.4631 530.6224 669.1097 527.5323 665.0956 526.8377 662.1735 525.0077 660.471 524.581 648.6893 523.3166 646.3745 523.799 643.4054 521.9657 641.7009 521.2683 638.7737 522.2758 634.0112 523.9388 630.9961 528.6179 629.6449 529.8832 631.9633 532.8971 633.6282 538.8812 635.7797 538.9641 638.1395 543.1141 638.5851 546.5721 636.1025 548.7701 631.3 551.1312 631.2191 551.0101 627.6769 548.567 625.3959 547.7933 620.1003 550.646 617.0444 552.3987 616.3928 553.5002 613.9883 556.5157 615.6612 559.57 618.5166 560.9099 623.2034 559.8473 626.7866 562.9374 630.8211 571.8889 633.4815 574.8974 635.1566 576.7627 638.0502 575.0496 639.8772 571.5482 641.1716 566.8292 641.3259 561.5795 643.271 560.4394 644.4897 556.9013 644.6084 554.5825 645.8672 549.2156 644.2791 547.9957 643.1403 545.5962 642.0422 543.2372 642.124 542.2221 646.882 543.524 650.3776 545.516 656.7975 546.2472 660.8999 544.5825 663.9048 541.7004 665.7729 538.2927 669.4274 536.5067 668.9011 534.2363 671.3377 Z" id="FR.GP" fill="#cee3f5" stroke="#6e6e6e" stroke-width="0.4">
      <desc>
        <nom>Guadeloupe</nom>
        <name>Guadeloupe</name>
        <insee_cl/>
        <surf_km2>1626</surf_km2>
        <wikipedia>fr:Guadeloupe</wikipedia>
        <name_cl>Basse-Terre</name_cl>
        <nuts2>FRY1</nuts2>
        <nom_cl>Basse-Terre</nom_cl>
        <nb_dep>1</nb_dep>
        <code_insee/>
        <nb_comm>32</nb_comm>
        <id>FR.GP</id>
        <code_hasc>FR.GP</code_hasc>
        <nuts1>FRY</nuts1>
      </desc>
    </path>
    <path d="M 376.6044 659.5039 376.0847 660.2609 375.5822 660.8402 375.4349 661.4529 374.7059 662.5473 374.3654 663.32 373.8811 663.7217 373.7514 664.1563 373.0413 665.0726 372.6069 664.9432 372.3169 665.1843 371.9945 665.7793 371.769 666.2938 371.4152 666.2614 371.3506 666.9688 371.0773 667.033 371.1896 667.7562 371.4304 668.0455 370.804 669.0569 370.4671 669.8273 369.9701 670.4049 370.3712 670.8858 370.1788 671.0462 369.5219 671.4313 369.0745 672.4571 368.851 672.9699 368.5962 673.8345 368.1815 674.5071 367.9274 675.3711 367.4799 675.42 367.7381 676.5059 367.707 676.8573 367.5158 677.0175 367.4692 677.5444 366.7696 678.4558 366.3078 678.6805 366.2924 678.856 365.9261 679.0008 365.5942 679.7672 365.3884 680.1026 364.356 680.8081 363.9103 680.858 363.3395 681.3387 362.5287 681.5344 361.9439 682.1906 361.8046 682.796 361.3302 683.1968 360.9801 683.1674 360.7758 683.5028 360.331 683.5538 359.7113 683.5904 359.3757 683.3865 358.7559 683.4235 358.2738 682.8552 357.8431 682.7319 355.8742 683.1014 355.6185 682.9928 355.0652 683.3011 354.9985 683.0315 355.3768 682.7091 355.4854 682.4533 355.9304 682.4008 355.8639 682.1309 355.4468 681.8329 355.2048 681.549 354.6121 681.2371 354.1414 680.4937 353.7905 680.466 353.5598 681.1539 352.8308 681.4497 352.102 681.7458 351.7242 682.0693 351.1847 682.204 350.47 682.3255 349.9708 681.9347 348.7564 681.6663 347.73 681.2365 346.8525 681.1713 347.1614 680.5764 346.7549 680.1049 346.485 680.1732 345.5682 680.6355 345.4355 681.2436 344.8148 681.2866 344.451 681.4367 344.1434 682.0318 343.8051 681.8311 343.4542 681.8059 343.4979 682.4263 343.2974 682.7645 342.4771 683.1467 342.0201 683.3787 341.5065 683.1664 341.2373 683.2356 340.9314 683.8308 340.9069 684.1814 340.5321 684.5074 339.9943 684.6462 339.656 684.4468 339.1783 683.7095 339.0149 683.5222 338.6403 683.8489 337.9271 683.9766 336.536 683.7069 335.881 682.9585 335.2494 683.1811 334.828 682.889 334.3835 682.9481 333.9504 682.8317 333.4579 682.2708 332.8601 681.9677 333.2341 681.639 332.7409 681.0779 331.8732 680.8458 331.9779 680.5877 332.5167 680.4456 332.9393 680.7376 333.2087 680.6667 333.5009 680.2442 333.8391 679.1179 334.8127 679.0933 335.1057 678.6707 335.8566 678.0133 336.0679 677.4967 336.2795 676.98 336.6792 676.2987 336.8208 675.5112 337.3035 674.9237 337.8107 673.983 338.6596 673.2429 338.9672 672.643 338.8149 672.2774 339.2872 671.8661 338.8758 671.3936 339.0894 670.8753 339.5046 670.0152 339.1051 669.365 339.4014 668.9407 339.2858 668.0426 339.3105 667.6882 339.2526 667.2388 338.7575 666.6699 338.9595 666.3274 339.0914 665.7125 339.6486 665.3946 340.3511 664.2839 341.0043 663.8837 341.2451 663.0078 341.7466 662.2393 341.9372 662.0742 342.3313 661.566 342.1917 661.0193 342.2243 659.3211 342.5935 659.1686 342.7148 658.7295 342.2314 657.9777 341.7663 658.2131 341.4097 658.1876 341.4352 657.8309 340.9254 657.4359 340.9635 656.9005 340.6318 656.5181 340.4083 655.874 339.9933 655.3957 339.0167 655.2373 338.8879 654.5097 338.1975 654.1021 337.7104 653.3491 337.2815 653.0497 337.1518 652.3211 336.9139 651.8548 336.1382 651.3515 336.0792 650.8972 336.283 650.5509 336.5486 649.3074 335.4124 648.7789 335.3409 648.5034 335.7491 647.8094 335.7022 647.1743 335.5592 646.6227 335.5368 645.6274 335.1053 645.3268 335.1543 644.6068 334.7102 644.4862 334.5438 642.9366 334.556 642.7563 335.0619 641.9755 335.0024 641.5184 334.7152 640.411 334.8485 639.7852 334.8731 639.4239 334.1749 639.0134 334.0064 638.8205 334.2255 636.9277 333.9126 636.1791 334.1059 636.0104 334.6862 635.5041 334.7953 635.2386 334.8696 634.1514 334.9789 633.8856 335.4039 633.0039 335.8887 632.5816 336.0109 632.1343 336.4117 631.615 337.3241 630.3102 337.6286 629.8751 338.4914 629.2969 339.0626 628.9722 339.9526 628.0308 340.2715 627.4138 340.9678 626.6411 341.5671 625.9528 342.376 624.9134 342.3185 624.4512 342.2475 624.171 342.1189 623.4283 342.4801 622.2627 342.9974 621.4751 343.9102 621.5432 344.2616 621.7531 345.2723 621.7376 346.1709 621.9894 347.3918 622.817 348.9901 623.4911 349.5082 623.8983 351.8182 624.814 352.925 624.7195 354.5335 625.2162 355.1241 624.7148 356.5347 625.3806 357.6942 625.7517 358.1108 626.2442 358.989 626.6841 359.9129 626.5792 360.2608 626.7918 361.055 627.1341 361.6673 627.461 362.3622 627.8868 362.9424 628.577 363.0095 628.857 363.6206 629.1843 363.9358 629.7599 365.0422 630.6787 365.6522 631.0064 366.2297 631.6963 366.1151 631.9598 366.642 632.189 366.9716 632.5832 367.8436 633.0259 368.3535 633.4363 369.274 634.3395 370.2919 635.1607 370.8659 635.8503 371.3088 635.982 371.4405 635.5391 371.9987 635.4086 372.7522 636.1155 372.6369 636.3777 373.3079 636.9859 373.6685 637.0195 373.9784 637.5941 374.5022 637.825 374.6484 638.2023 375.0903 638.3348 376.021 639.0589 376.7239 639.3075 377.1308 639.8004 377.2762 640.1774 377.7812 640.5889 378.3207 640.6409 379.0922 640.171 379.5331 640.3046 380.1186 640.8154 380.8481 641.7033 381.2633 643.0132 381.2912 643.6501 381.597 644.2236 381.5439 644.7615 382.387 645.3878 382.0739 645.8092 382.4241 646.8385 382.8094 647.5094 383.1317 647.9028 383.9456 647.8937 383.9366 648.8862 383.472 649.9227 383.4185 650.4586 383.1866 650.9765 382.1252 651.6823 381.6526 651.906 381.0647 652.3886 380.9772 653.2803 380.7466 653.7977 379.6536 654.8602 379.5213 655.2969 378.5794 655.7449 378.6083 656.3765 378.574 656.7323 378.1206 656.7785 377.6503 657.0027 377.4043 657.6971 377.4337 658.3278 376.8328 658.9878 376.6044 659.5039 Z" id="FR.GF" fill="#cee3f5" stroke="#6e6e6e" stroke-width="0.4">
      <desc>
        <nom>Guyane</nom>
        <name>Guyane</name>
        <insee_cl/>
        <surf_km2>83692</surf_km2>
        <wikipedia>fr:Guyane</wikipedia>
        <name_cl>Cayenne</name_cl>
        <nuts2>FRY3</nuts2>
        <nom_cl>Cayenne</nom_cl>
        <nb_dep>1</nb_dep>
        <code_insee/>
        <nb_comm>22</nb_comm>
        <id>FR.GF</id>
        <code_hasc>FR.GF</code_hasc>
        <nuts1>FRY</nuts1>
      </desc>
    </path>
    <path d="M 363.1817 213.0786 360.0432 213.0786 358.1601 214.9617 356.277 212.4509 355.0216 214.334 353.1385 215.5894 351.2554 215.5894 350 214.334 348.1169 214.9617 345.6061 214.334 344.3507 215.5894 341.8399 214.9617 343.0953 213.0786 344.9784 210.5678 343.723 208.6847 342.4676 206.8016 340.5845 206.8016 339.9568 203.6631 338.7014 203.0354 337.446 203.0354 335.5629 201.78 334.3076 203.0354 332.4245 203.6631 330.5414 201.1523 329.9137 201.78 328.6583 203.6631 323.6367 203.6631 321.7536 204.9185 319.8705 204.2908 319.2428 203.0354 320.4982 202.4077 319.8705 201.1523 320.4982 199.2692 319.8705 198.0139 320.4982 196.7585 317.9874 196.1308 318.6151 194.2477 316.732 194.2477 314.2212 193.62 313.5935 192.3646 312.3381 192.3646 311.0827 189.2261 311.0827 186.7153 310.455 184.8322 309.1996 185.4599 307.9442 184.2045 308.5719 182.9491 306.0612 181.6937 305.4335 180.4383 303.5504 178.5552 304.1781 177.2998 302.295 176.0444 304.8058 173.5336 302.9227 172.2782 302.295 171.0228 302.9227 165.3736 301.0396 164.7459 301.6673 163.4905 301.0396 162.2351 301.0396 161.6074 299.1565 160.352 298.5288 157.8412 297.9011 155.3304 296.6457 152.8196 298.5288 152.8196 301.0396 150.9365 304.8058 150.3088 304.1781 149.6811 306.0612 147.1703 306.6888 144.6595 306.6888 142.1487 308.5719 140.8934 309.1996 140.8934 309.8273 143.4041 313.5935 144.0318 314.2212 145.2872 316.1043 144.6595 316.1043 145.2872 317.9874 144.6595 319.2428 144.6595 320.4982 144.0318 321.1259 144.6595 322.3813 143.4041 325.5198 142.1487 325.5198 143.4041 327.4029 143.4041 328.6583 144.0318 331.1691 144.0318 331.7968 145.9149 334.3076 145.9149 335.5629 144.0318 337.446 146.5426 341.2122 146.5426 343.723 148.4257 343.0953 149.0534 346.2338 149.6811 347.4892 150.9365 349.3723 149.6811 351.2554 150.3088 352.5108 152.1919 353.7662 151.5642 355.0216 152.1919 356.277 151.5642 356.277 150.3088 358.7878 150.3088 360.0432 151.5642 361.2986 150.3088 366.3201 150.3088 368.2032 150.3088 368.8309 148.4257 370.0863 149.0534 373.2248 149.6811 372.5971 150.3088 373.8525 152.1919 373.2248 155.3304 374.4802 155.3304 376.3633 157.8412 376.991 157.8412 378.2464 160.352 379.5018 159.7243 379.5018 161.6074 380.7572 162.2351 382.0126 161.6074 382.6403 163.4905 385.1511 165.3736 387.6619 166.0013 387.6619 167.8844 384.5234 169.7675 383.8957 172.2782 385.1511 172.9059 387.0342 173.5336 387.0342 177.2998 385.7788 178.5552 387.0342 180.4383 388.9173 179.8106 390.8004 181.6937 388.2896 182.9491 387.0342 184.8322 387.6619 186.7153 386.4065 187.9707 384.5234 187.343 385.7788 189.8538 383.268 191.1092 384.5234 192.9923 383.8957 194.8754 385.1511 195.5031 384.5234 197.3862 382.6403 196.7585 382.6403 198.6416 381.3849 198.6416 378.8741 198.0139 378.2464 198.6416 375.1079 199.2692 372.5971 198.6416 370.714 199.8969 368.2032 199.2692 368.2032 201.78 366.9478 203.0354 368.2032 205.5462 366.3201 209.9401 363.1817 211.1955 363.1817 213.0786 Z" id="FR.IF" fill="#cee3f5" stroke="#6e6e6e" stroke-width="0.4">
      <desc>
        <nom>Île-de-France</nom>
        <name>Île-de-France</name>
        <insee_cl/>
        <surf_km2>12069</surf_km2>
        <wikipedia>fr:Île-de-France</wikipedia>
        <name_cl>Paris</name_cl>
        <nuts2>FR10</nuts2>
        <nom_cl>Paris</nom_cl>
        <nb_dep>8</nb_dep>
        <code_insee/>
        <nb_comm>1281</nb_comm>
        <id>FR.IF</id>
        <code_hasc>FR.IF</code_hasc>
        <nuts1>FR1</nuts1>
      </desc>
    </path>
    <path d="M 215.6727 543.2477 215.045 543.2477 213.7896 541.3646 215.6727 538.8538 216.9281 541.9923 215.6727 543.2477 Z M 204.3741 569.611 205.0018 567.7279 204.3741 564.5894 206.2572 563.334 205.6295 559.5678 207.5126 558.3124 207.5126 557.057 209.3957 557.057 211.2788 555.8016 211.2788 553.9185 210.6511 552.6631 213.1619 550.78 213.7896 549.5246 216.3004 547.6416 217.5558 547.6416 216.9281 544.5031 218.8112 543.8754 220.0665 541.3646 218.8112 540.7369 218.8112 539.4815 220.0665 537.5984 221.3219 537.5984 222.5773 536.343 220.6942 534.4599 221.3219 532.5768 221.9496 531.3214 220.6942 529.4383 219.4388 531.9491 218.1835 530.066 218.1835 528.1829 220.0665 528.1829 219.4388 525.0444 218.1835 522.5336 216.9281 521.9059 216.9281 520.0228 213.7896 520.0228 213.1619 519.3951 210.0234 520.0228 209.3957 517.5121 208.1403 517.5121 208.1403 515.629 210.0234 515.0013 210.0234 512.4905 209.3957 511.2351 212.5342 509.9797 211.9065 508.0966 211.2788 505.5858 212.5342 504.9581 213.1619 503.075 211.9065 501.1919 213.1619 499.9365 211.2788 499.3088 213.1619 496.798 214.4173 496.798 216.3004 495.5426 216.9281 496.798 220.0665 494.9149 220.6942 493.0318 222.5773 494.9149 221.3219 496.798 223.8327 499.3088 225.0881 499.3088 225.7158 498.0534 225.0881 495.5426 225.7158 494.2872 227.5989 493.6595 228.8543 494.2872 231.9928 491.7764 232.6205 491.1487 233.8759 491.7764 235.759 492.4041 237.0144 493.0318 237.6421 491.7764 243.9191 491.1487 245.1745 489.2657 246.4299 489.2657 247.6853 488.638 249.5683 489.2657 252.0791 488.0103 255.8453 491.1487 255.8453 489.8934 258.3561 488.0103 259.6115 486.1272 260.8669 485.4995 262.75 483.6164 264.6331 484.8718 265.2608 484.2441 265.8885 481.7333 264.0054 481.1056 264.6331 480.4779 266.5162 480.4779 267.7716 477.9671 269.027 474.8286 265.2608 472.3178 266.5162 469.807 265.8885 468.5516 267.7716 467.2962 269.027 469.1793 271.5378 468.5516 274.0486 469.1793 274.6763 467.9239 274.6763 464.7854 272.7932 463.53 272.7932 461.6469 272.1655 461.0192 272.7932 459.1362 270.9101 456.6254 272.1655 456.6254 274.0486 455.37 276.5594 454.7423 277.1871 452.8592 279.0701 450.9761 279.0701 448.4653 280.3255 447.8376 282.8363 447.2099 284.0917 445.9545 285.3471 445.3268 287.2302 443.4437 287.8579 442.1883 286.6025 440.9329 286.6025 439.6775 289.741 439.0498 289.1133 437.1667 292.2518 434.6559 293.5072 434.6559 292.2518 432.1451 293.5072 430.2621 291.6241 425.8682 293.5072 424.6128 298.5288 423.3574 302.9227 423.9851 304.8058 425.8682 306.0612 428.379 307.9442 429.0067 309.1996 431.5175 311.7104 430.8898 312.3381 430.2621 314.8489 429.0067 316.1043 427.7513 317.3597 428.379 317.9874 429.6344 319.2428 427.7513 322.3813 427.7513 323.009 427.7513 324.2644 430.8898 325.5198 432.1451 324.2644 434.0282 326.7752 438.4221 328.0306 439.0498 328.0306 441.5606 327.4029 442.1883 327.4029 443.4437 326.1475 445.9545 327.4029 446.5822 328.6583 448.4653 328.0306 450.9761 329.9137 452.2315 329.9137 450.3484 332.4245 449.7207 333.6799 449.093 335.5629 448.4653 336.8183 450.3484 339.3291 450.3484 341.2122 450.9761 342.4676 450.3484 343.723 449.7207 344.3507 447.2099 346.8615 444.6991 346.8615 442.816 347.4892 441.5606 348.7446 440.3052 348.7446 438.4221 350.6277 435.2836 353.1385 432.7728 353.7662 432.7728 355.0216 430.8898 356.277 430.8898 356.9047 432.1451 357.5324 434.0282 358.7878 434.6559 361.2986 435.2836 362.554 439.6775 363.8094 440.9329 365.0647 441.5606 364.4371 444.6991 366.3201 449.093 367.5755 450.3484 368.8309 445.3268 370.0863 445.3268 369.4586 443.4437 370.714 442.1883 370.714 439.6775 371.9694 437.1667 373.2248 435.2836 373.2248 434.0282 375.1079 432.7728 376.991 435.2836 379.5018 434.0282 378.8741 432.1451 380.7572 430.8898 382.0126 430.8898 384.5234 429.0067 385.7788 429.0067 387.6619 429.6344 388.2896 432.7728 388.9173 435.9113 391.4281 439.0498 392.6835 437.7944 395.8219 437.7944 397.0773 435.2836 396.4496 434.0282 399.5881 434.0282 400.8435 435.9113 400.2158 437.1667 402.7266 437.1667 403.982 436.539 404.6097 438.4221 406.4928 440.3052 408.3759 442.816 409.6313 442.816 409.6313 445.3268 411.5144 449.7207 411.5144 451.6038 412.7698 454.7423 414.0252 454.1146 415.9083 459.1362 415.9083 461.0192 416.536 462.2746 418.4191 462.9023 418.4191 464.7854 420.3022 465.4131 419.6745 467.2962 419.6745 471.6901 421.5576 470.4347 425.3237 471.6901 425.9514 472.3178 427.2068 473.5732 429.0899 474.8286 430.3453 474.2009 430.973 471.6901 432.2284 471.0624 432.8561 469.807 436.6223 469.807 435.9946 472.3178 436.6223 472.9455 438.5054 472.3178 438.5054 469.807 441.0162 469.807 443.527 470.4347 444.1547 471.6901 446.0378 472.9455 448.5486 474.2009 449.804 476.084 449.804 477.3394 451.6871 477.9671 452.3147 481.7333 451.6871 484.8718 452.9424 486.7549 455.4532 487.3826 455.4532 488.638 458.5917 491.1487 458.5917 493.0318 457.3363 493.0318 457.3363 494.2872 455.4532 496.1703 454.1978 496.798 452.9424 498.6811 451.0594 499.9365 449.1763 501.1919 449.804 503.075 449.1763 503.7027 449.804 504.9581 449.804 506.8412 448.5486 508.7243 447.9209 510.6074 447.9209 513.1182 444.1547 511.8628 441.6439 513.1182 441.0162 514.3736 439.7608 515.0013 439.1331 518.1398 440.3885 520.0228 439.1331 520.6505 436.6223 522.5336 434.1115 523.789 432.8561 525.6721 430.3453 526.2998 429.7176 529.4383 426.5791 528.8106 424.696 527.5552 423.4406 526.2998 424.696 524.4167 422.8129 523.1613 419.6745 523.1613 418.4191 523.1613 413.3975 525.6721 410.259 528.1829 408.3759 530.6937 405.2374 533.2045 405.2374 533.8322 401.4712 534.4599 398.9604 536.9707 393.9388 542.62 392.0558 542.62 390.1727 541.3646 388.9173 541.3646 385.7788 543.2477 382.6403 545.1308 380.1295 547.6416 377.6187 550.1523 375.1079 553.9185 373.2248 557.6847 371.9694 562.7063 371.3417 565.8448 372.5971 567.1002 371.9694 568.9833 371.3417 576.5157 371.3417 580.2818 371.3417 582.7926 371.9694 592.2081 374.4802 593.4635 375.7356 594.7189 375.7356 595.9743 376.991 596.602 378.2464 599.1128 375.1079 599.7405 373.8525 600.3682 371.9694 597.8574 371.3417 596.602 368.2032 597.2297 366.9478 596.602 365.6924 597.8574 363.1817 597.2297 361.2986 597.8574 359.4155 600.3682 358.1601 600.9959 356.9047 600.3682 355.6493 600.3682 353.1385 601.6236 351.8831 602.879 353.1385 604.7621 353.1385 606.0175 350 605.3898 348.7446 604.7621 347.4892 604.7621 346.8615 606.6451 344.3507 606.0175 341.2122 603.5067 341.2122 602.2513 339.9568 602.2513 336.8183 601.6236 334.9353 599.7405 334.3076 600.3682 332.4245 599.1128 331.7968 600.3682 329.286 600.9959 327.4029 600.3682 325.5198 601.6236 325.5198 602.879 322.3813 604.7621 319.8705 605.3898 319.2428 604.7621 317.3597 602.879 317.3597 600.3682 313.5935 597.8574 311.7104 597.2297 310.455 595.9743 306.0612 595.3466 306.0612 594.0912 306.6888 590.9527 308.5719 590.325 306.0612 589.0696 306.6888 587.8142 303.5504 586.5588 302.9227 587.1865 301.6673 586.5588 299.7842 586.5588 298.5288 585.3034 297.2734 584.6757 295.3903 585.3034 293.5072 584.6757 292.8795 585.9311 293.5072 587.1865 291.6241 587.8142 290.3687 586.5588 290.3687 584.6757 289.1133 582.1649 287.2302 581.5372 287.2302 580.2818 282.2086 580.2818 280.3255 580.2818 277.8147 580.9095 276.5594 579.6541 276.5594 577.771 275.304 576.5157 273.4209 575.888 270.2824 575.2603 269.027 575.2603 267.7716 574.0049 265.8885 575.2603 262.75 572.7495 260.2392 571.4941 258.9838 571.4941 255.2176 570.2387 252.7068 571.4941 253.3345 574.0049 252.0791 575.2603 252.0791 577.1434 253.9622 579.6541 253.3345 581.5372 250.8237 580.9095 248.9406 580.9095 246.4299 580.2818 245.8022 581.5372 243.2914 580.9095 241.4083 581.5372 239.5252 580.9095 239.5252 579.6541 237.6421 579.0264 235.759 580.2818 234.5036 582.1649 233.2482 580.9095 232.6205 579.0264 231.3651 579.0264 228.8543 577.771 225.7158 579.6541 224.4604 579.0264 222.5773 580.2818 221.3219 579.6541 220.0665 580.9095 216.9281 580.2818 216.3004 578.3987 214.4173 578.3987 214.4173 577.771 212.5342 574.0049 209.3957 573.3772 204.3741 569.611 Z M 317.3597 597.2297 317.3597 598.4851 319.8705 598.4851 318.6151 597.2297 317.3597 597.2297 Z" id="FR.LP" fill="#cee3f5" stroke="#6e6e6e" stroke-width="0.4">
      <desc>
        <nom>Occitanie</nom>
        <name>Occitanie</name>
        <insee_cl/>
        <surf_km2>45601</surf_km2>
        <wikipedia>fr:Occitanie</wikipedia>
        <name_cl>Toulouse</name_cl>
        <nuts2/>
        <nom_cl>Toulouse</nom_cl>
        <nb_dep>8</nb_dep>
        <code_insee/>
        <nb_comm>3020</nb_comm>
        <id>FR.LP</id>
        <code_hasc>FR.LP</code_hasc>
        <nuts1>FRJ</nuts1>
      </desc>
    </path>
    <path d="M 172.854 676.3937 170.053 676.7238 165.1267 674.1121 163.7257 674.2792 160.6718 672.5129 157.3075 671.1405 154.8654 668.5907 149.7006 667.0843 148.7418 665.0657 145.1962 662.2953 144.1482 659.5733 144.7259 655.5791 143.4548 653.9516 142.7994 651.5336 138.2746 646.7352 138.145 642.8176 139.688 640.8369 141.0979 640.6622 143.7441 638.9037 143.5318 634.2742 143.8899 631.3629 147.5081 631.6356 154.7661 626.4496 160.0277 625.4576 162.0073 627.0141 164.836 626.677 168.5394 627.6723 173.5726 627.7972 180.7416 630.9038 183.8258 635.917 184.7875 641.1698 186.8339 643.436 186.9954 644.846 191.6336 651.097 196.0966 652.731 197.2757 656.8737 194.2364 661.4883 193.5406 664.7685 194.5605 667.4971 194.4144 672.4867 191.2282 675.6879 182.4314 676.3421 179.0924 678.1486 175.5101 677.8568 172.854 676.3937 Z" id="FR.RE" fill="#cee3f5" stroke="#6e6e6e" stroke-width="0.4">
      <desc>
        <nom>La Réunion</nom>
        <name>La Réunion</name>
        <insee_cl/>
        <surf_km2>2504</surf_km2>
        <wikipedia>fr:La Réunion</wikipedia>
        <name_cl>Saint-Denis</name_cl>
        <nuts2>FRY4</nuts2>
        <nom_cl>Saint-Denis</nom_cl>
        <nb_dep>1</nb_dep>
        <code_insee/>
        <nb_comm>24</nb_comm>
        <id>FR.RE</id>
        <code_hasc>FR.RE</code_hasc>
        <nuts1>FRY</nuts1>
      </desc>
    </path>
    <path d="M 473.722 672.42 473.8424 676.7684 470.3608 681.9406 466.7186 681.3178 465.9329 679.1649 468.6684 673.2862 464.3608 674.8583 463.5744 672.7046 459.9713 673.5327 453.4277 672.9962 450.4864 671.6313 444.7742 674.701 441.8325 673.338 441.5724 664.6395 444.4297 663.1027 453.2167 665.7471 453.1322 662.8465 448.6527 658.6221 444.2139 655.8491 440.6081 656.6831 439.0697 653.8245 434.6719 652.5051 430.0948 645.3802 429.3017 643.2244 430.6199 638.8225 423.8338 631.0339 423.7429 628.1269 426.5146 623.6748 429.3778 622.1305 432.9912 621.2914 439.6018 623.2736 444.8002 626.7559 448.4566 627.3748 449.248 629.534 455.98 635.8827 458.1807 636.546 464.699 635.6318 464.8231 639.9908 461.1286 637.9153 458.3067 640.9046 460.5483 643.0207 459.2213 647.4192 461.4618 649.5346 462.8722 648.0411 465.0708 648.7051 465.9408 653.7655 468.1793 655.8811 471.2441 661.6038 472.7352 663.014 472.8562 667.3652 475.8766 671.635 473.722 672.42 Z" id="FR.MQ" fill="#cee3f5" stroke="#6e6e6e" stroke-width="0.4">
      <desc>
        <nom>Martinique</nom>
        <name>Martinique</name>
        <insee_cl/>
        <surf_km2>1096</surf_km2>
        <wikipedia>fr:Martinique</wikipedia>
        <name_cl>Fort-de-France</name_cl>
        <nuts2>FRY2</nuts2>
        <nom_cl>Fort-de-France</nom_cl>
        <nb_dep>1</nb_dep>
        <code_insee/>
        <nb_comm>34</nb_comm>
        <id>FR.MQ</id>
        <code_hasc>FR.MQ</code_hasc>
        <nuts1>FRY</nuts1>
      </desc>
    </path>
    <path d="M 286.5797 649.6169 283.382 653.084 281.1852 649.5788 284.3832 646.1096 286.5797 649.6169 Z M 264.0497 681.3166 262.137 684.4694 258.6732 681.2914 254.1067 676.3689 256.0183 673.2118 252.3823 672.0895 250.6564 667.8085 254.7724 668.1407 255.707 671.9442 260.9209 674.0246 262.8353 670.868 256.853 662.9222 255.918 659.1149 256.2521 654.9943 254.2126 649.4343 249.6283 644.4975 248.6885 640.6835 251.8975 631.7972 256.0292 632.1312 260.7596 640.414 264.4067 641.5432 271.078 641.2614 276.615 644.6289 275.7907 649.5437 273.5581 651.434 269.2357 658.545 272.2242 662.5241 273.6322 665.5425 270.1351 667.7395 266.1325 676.1074 267.5404 679.1205 264.0497 681.3166 Z" id="FR.YT" fill="#cee3f5" stroke="#6e6e6e" stroke-width="0.4">
      <desc>
        <nom>Mayotte</nom>
        <name>Mayotte</name>
        <insee_cl/>
        <surf_km2>377</surf_km2>
        <wikipedia>fr:Mayotte</wikipedia>
        <name_cl>Dzaoudzi</name_cl>
        <nuts2>FRY5</nuts2>
        <nom_cl>Dzaoudzi</nom_cl>
        <nb_dep>1</nb_dep>
        <code_insee/>
        <nb_comm>17</nb_comm>
        <id>FR.YT</id>
        <code_hasc>FR.YT</code_hasc>
        <nuts1>FRY</nuts1>
      </desc>
    </path>
    <path d="M 308.5719 140.8934 308.5719 138.3826 309.8273 137.7549 312.3381 139.0103 312.9658 137.7549 311.0827 134.6164 311.7104 133.361 311.0827 131.4779 309.1996 129.5948 309.1996 127.084 310.455 125.2009 311.7104 124.5732 312.3381 122.0624 309.8273 122.6901 310.455 120.1793 308.5719 116.4131 309.1996 113.9023 308.5719 112.6469 309.1996 110.7639 310.455 110.1362 310.455 108.8808 308.5719 110.1362 307.9442 109.5085 309.1996 106.9977 311.0827 105.1146 311.0827 103.8592 309.8273 101.3484 309.1996 96.9545 307.3165 93.816 305.4335 93.1883 303.5504 91.9329 302.9227 90.6775 301.0396 88.7944 300.4119 87.539 297.9011 86.2836 297.9011 84.4005 296.6457 83.7728 294.7626 84.4005 297.9011 81.2621 299.1565 76.8682 301.6673 74.3574 304.1781 75.6128 306.0612 75.6128 303.5504 71.2189 302.295 71.2189 301.6673 69.9635 302.295 64.3142 305.4335 64.3142 303.5504 63.0588 302.295 61.8034 303.5504 56.7818 303.5504 53.6434 304.8058 51.7603 303.5504 49.8772 303.5504 45.4833 302.9227 41.0894 303.5504 39.834 304.1781 39.2063 304.8058 36.6955 304.8058 34.1847 303.5504 31.0462 304.1781 29.7908 306.0612 29.1631 307.3165 28.5354 310.455 25.3969 312.3381 24.1416 317.3597 22.8862 318.6151 22.2585 323.009 21.6308 326.1475 20.3754 326.7752 21.0031 328.0306 19.7477 328.6583 17.8646 330.5414 19.12 336.8183 17.2369 338.0737 17.8646 340.5845 17.2369 344.9784 15.3538 345.6061 16.6092 346.8615 20.3754 348.7446 24.7692 347.4892 26.6523 347.4892 28.5354 349.3723 33.557 352.5108 33.557 353.7662 36.0678 354.3939 36.6955 355.6493 39.834 356.9047 40.4617 358.1601 39.834 359.4155 41.0894 360.6709 41.0894 361.9263 40.4617 362.554 38.5786 363.8094 37.9509 365.0647 36.6955 367.5755 36.0678 368.2032 36.0678 370.0863 35.4401 371.3417 35.4401 372.5971 37.3232 373.2248 39.834 376.3633 41.0894 375.1079 43.6002 376.991 47.9941 376.991 50.5049 376.991 53.0157 381.3849 55.5264 384.5234 54.271 385.1511 52.388 387.6619 53.0157 386.4065 54.8987 391.4281 54.8987 393.9388 58.0372 393.9388 61.8034 393.3112 63.0588 393.9388 65.5696 395.1942 67.4527 396.4496 66.825 397.0773 64.9419 400.2158 64.3142 401.4712 64.3142 403.3543 64.9419 403.982 66.1973 407.1205 64.3142 407.7482 64.9419 409.6313 63.6865 412.7698 66.825 414.0252 68.7081 414.0252 69.3358 415.2806 70.5912 415.9083 69.3358 417.1637 69.3358 417.7914 70.5912 416.536 72.4743 415.2806 74.3574 415.2806 76.8682 414.0252 78.7513 417.1637 78.7513 417.1637 81.2621 418.4191 81.8898 418.4191 83.7728 416.536 85.0282 414.6529 86.2836 415.9083 88.1667 415.2806 89.4221 416.536 89.4221 419.0468 90.6775 418.4191 93.816 420.3022 94.4437 419.6745 97.5822 419.0468 98.2099 418.4191 102.6038 419.6745 103.8592 419.0468 106.37 417.7914 106.9977 417.1637 108.2531 414.6529 109.5085 414.6529 111.3916 414.0252 113.2746 410.8867 112.6469 410.259 113.2746 412.7698 117.0408 411.5144 118.9239 412.7698 119.5516 411.5144 121.4347 411.5144 125.8286 412.1421 127.7117 411.5144 131.4779 409.6313 130.2225 407.7482 130.2225 406.4928 128.3394 403.3543 130.2225 402.7266 130.8502 398.9604 132.1056 398.3327 133.361 396.4496 133.361 394.5665 134.6164 393.9388 135.8718 395.1942 139.0103 395.8219 140.2657 394.5665 141.521 396.4496 142.1487 397.0773 143.4041 398.9604 144.0318 398.9604 145.2872 397.0773 145.9149 395.8219 145.2872 393.3112 145.9149 392.6835 146.5426 393.9388 150.3088 392.0558 152.1919 392.0558 153.4473 394.5665 152.8196 395.8219 154.7027 393.9388 155.9581 393.3112 158.4689 391.4281 160.352 391.4281 160.9797 389.545 161.6074 387.6619 166.0013 385.1511 165.3736 382.6403 163.4905 382.0126 161.6074 380.7572 162.2351 379.5018 161.6074 379.5018 159.7243 378.2464 160.352 376.991 157.8412 376.3633 157.8412 374.4802 155.3304 373.2248 155.3304 373.8525 152.1919 372.5971 150.3088 373.2248 149.6811 370.0863 149.0534 368.8309 148.4257 368.2032 150.3088 366.3201 150.3088 361.2986 150.3088 360.0432 151.5642 358.7878 150.3088 356.277 150.3088 356.277 151.5642 355.0216 152.1919 353.7662 151.5642 352.5108 152.1919 351.2554 150.3088 349.3723 149.6811 347.4892 150.9365 346.2338 149.6811 343.0953 149.0534 343.723 148.4257 341.2122 146.5426 337.446 146.5426 335.5629 144.0318 334.3076 145.9149 331.7968 145.9149 331.1691 144.0318 328.6583 144.0318 327.4029 143.4041 325.5198 143.4041 325.5198 142.1487 322.3813 143.4041 321.1259 144.6595 320.4982 144.0318 319.2428 144.6595 317.9874 144.6595 316.1043 145.2872 316.1043 144.6595 314.2212 145.2872 313.5935 144.0318 309.8273 143.4041 309.1996 140.8934 308.5719 140.8934 Z" id="FR.NC" fill="#cee3f5" stroke="#6e6e6e" stroke-width="0.4">
      <desc>
        <nom>Hauts-de-France</nom>
        <name>Hauts-de-France</name>
        <insee_cl/>
        <surf_km2>19513</surf_km2>
        <wikipedia>fr:Hauts-de-France</wikipedia>
        <name_cl>Lille</name_cl>
        <nuts2/>
        <nom_cl>Lille</nom_cl>
        <nb_dep>3</nb_dep>
        <code_insee/>
        <nb_comm>2291</nb_comm>
        <id>FR.NC</id>
        <code_hasc>FR.NC</code_hasc>
        <nuts1>FRE</nuts1>
      </desc>
    </path>
    <path d="M 116.4964 303.4671 117.7518 302.8394 120.2626 304.0948 122.1457 305.9779 119.6349 305.9779 117.1241 304.7225 116.4964 303.4671 Z M 127.1673 287.7746 129.0504 289.03 127.795 289.6577 125.9119 287.7746 124.0288 287.7746 122.1457 285.8916 122.7734 284.6362 124.6565 283.3808 126.5396 284.6362 125.2842 286.5192 127.1673 287.7746 Z M 117.1241 254.5067 117.1241 253.2513 119.0072 253.879 120.8903 253.879 121.518 254.5067 123.4011 253.879 124.0288 252.6236 124.6565 250.7405 127.1673 251.9959 128.4227 251.3682 129.6781 250.7405 133.4442 249.4851 133.4442 245.7189 134.6996 245.0912 134.0719 243.2081 134.6996 241.9527 136.5827 241.9527 137.2104 240.6973 138.4658 240.6973 140.3489 239.4419 141.6043 240.0696 144.1151 239.4419 145.3705 238.8142 146.6259 238.1865 149.1367 239.4419 150.3921 238.8142 154.1583 238.8142 155.4137 238.1865 156.0414 235.048 157.9245 234.4203 160.4353 234.4203 161.6906 233.1649 163.5737 232.5372 162.946 231.2818 165.4568 231.2818 167.3399 231.2818 167.9676 233.7926 173.6169 235.048 174.2446 232.5372 174.8723 230.0264 176.1277 229.3987 176.1277 227.5157 176.7554 227.5157 178.0108 223.1218 179.2662 221.2387 181.777 221.8664 184.2878 221.2387 183.6601 218.1002 184.2878 216.2171 183.0324 214.334 183.0324 209.9401 181.777 208.6847 182.4047 206.8016 181.1493 203.6631 181.777 201.1523 184.2878 198.6416 183.0324 196.1308 183.6601 194.8754 183.0324 192.3646 183.0324 191.1092 183.6601 189.8538 183.0324 188.5984 183.6601 186.0876 184.2878 186.0876 185.5432 187.343 188.054 187.343 188.6817 186.0876 189.9371 186.0876 191.1924 187.343 193.0755 187.343 195.5863 189.8538 196.214 191.1092 197.4694 191.7369 199.9802 189.8538 201.8633 188.5984 201.8633 191.7369 205.0018 189.8538 206.8849 189.8538 208.768 187.343 211.9065 187.343 215.045 188.5984 216.3004 187.9707 216.9281 186.7153 219.4388 187.9707 220.0665 184.8322 222.5773 184.2045 225.0881 186.7153 223.8327 187.9707 224.4604 189.8538 224.4604 191.1092 226.3435 191.7369 229.482 191.7369 228.8543 196.1308 233.8759 196.7585 234.5036 194.8754 235.759 194.8754 236.3867 193.62 238.2698 192.9923 238.8975 191.1092 241.4083 190.4815 245.1745 190.4815 247.6853 192.3646 248.3129 194.2477 247.6853 194.8754 248.3129 200.5246 250.196 202.4077 253.3345 201.78 253.3345 203.6631 255.8453 206.1739 258.9838 206.8016 260.2392 205.5462 262.1223 206.1739 263.3777 209.9401 265.2608 211.1955 267.1439 209.9401 268.3993 211.8232 270.9101 212.4509 272.1655 214.334 269.027 214.334 268.3993 216.2171 269.027 218.1002 267.1439 218.7279 266.5162 220.611 267.7716 221.2387 268.3993 223.7495 267.7716 223.7495 269.027 227.5157 267.1439 227.5157 264.6331 230.0264 265.2608 233.7926 264.0054 235.048 262.1223 237.5588 259.6115 239.4419 258.3561 240.0696 257.1007 243.2081 257.1007 245.0912 255.2176 245.0912 255.2176 246.3466 252.7068 246.9743 250.8237 246.9743 250.196 248.8574 248.9406 248.8574 247.6853 246.9743 246.4299 248.2297 247.6853 250.1128 247.0576 251.9959 245.1745 251.3682 244.5468 250.1128 242.6637 250.1128 241.4083 248.8574 240.1529 248.8574 240.1529 251.3682 239.5252 251.3682 238.8975 253.879 239.5252 255.1344 239.5252 256.3898 237.6421 259.5282 237.6421 261.4113 237.0144 262.6667 237.0144 263.9221 235.759 267.0606 234.5036 267.6883 232.6205 270.8268 233.2482 271.4545 231.9928 273.3376 231.9928 275.2207 231.3651 278.9869 229.482 277.7315 228.2266 279.6146 226.9712 281.4977 226.9712 283.3808 224.4604 282.7531 223.8327 285.2639 222.5773 285.8916 221.9496 284.6362 221.9496 282.7531 220.0665 282.1254 218.8112 282.7531 217.5558 282.1254 215.6727 282.7531 213.1619 283.3808 210.6511 283.3808 210.0234 284.6362 205.0018 284.0085 203.1187 284.6362 202.491 287.7746 201.2356 289.03 196.214 289.03 195.5863 289.6577 191.8201 289.03 189.3094 289.03 188.6817 290.2854 187.4263 290.9131 188.054 292.1685 189.9371 292.7962 190.5647 294.6793 189.9371 295.9347 191.8201 299.0732 194.3309 300.9563 194.9586 300.9563 194.3309 304.0948 195.5863 306.6056 196.8417 307.2333 197.4694 309.1164 196.214 309.7441 199.3525 314.7657 198.7248 315.3934 199.3525 316.6487 199.3525 320.4149 197.4694 321.0426 198.0971 322.9257 198.7248 326.6919 198.7248 328.575 201.8633 330.4581 201.2356 332.3412 198.7248 331.7135 198.7248 332.9689 196.214 334.852 194.3309 334.2243 191.8201 335.4797 188.054 332.9689 187.4263 334.2243 183.6601 334.852 182.4047 333.5966 183.6601 331.7135 182.4047 331.0858 181.777 331.7135 179.8939 331.7135 178.0108 332.3412 176.7554 334.2243 174.8723 334.2243 174.2446 334.852 171.7338 334.2243 169.223 336.7351 168.5953 335.4797 167.3399 336.1074 166.0845 335.4797 164.8291 332.9689 163.5737 331.7135 159.8076 331.7135 158.5522 331.7135 157.9245 329.2027 157.2968 327.3196 151.6475 326.0642 149.7644 324.8088 147.8813 323.5534 145.3705 321.6703 144.7428 321.0426 142.8597 320.4149 142.8597 318.5318 141.6043 312.2549 139.7212 310.3718 137.8381 306.6056 136.5827 306.6056 135.955 304.7225 132.8165 300.9563 129.0504 297.8178 128.4227 292.7962 129.6781 292.7962 130.3058 291.5408 133.4442 289.03 134.6996 285.2639 137.2104 284.0085 136.5827 282.1254 134.6996 280.87 134.0719 279.6146 131.5612 278.3592 125.2842 276.4761 126.5396 275.2207 128.4227 275.2207 129.0504 273.3376 129.6781 270.8268 129.6781 267.6883 134.6996 267.0606 135.3273 265.1775 132.8165 265.1775 130.9335 265.1775 125.9119 268.316 124.6565 268.9437 123.4011 269.5714 122.1457 268.316 120.8903 266.4329 119.0072 265.8052 117.7518 266.4329 117.1241 267.6883 112.1025 265.1775 114.6133 263.9221 113.9856 261.4113 113.3579 260.1559 112.1025 258.9005 117.1241 255.7621 117.1241 254.5067 Z" id="FR.PL" fill="#cee3f5" stroke="#6e6e6e" stroke-width="0.4">
      <desc>
        <nom>Pays de la Loire</nom>
        <name>Pays de la Loire</name>
        <insee_cl/>
        <surf_km2>32408</surf_km2>
        <wikipedia>fr:Pays de la Loire</wikipedia>
        <name_cl>Nantes</name_cl>
        <nuts2>FRG0</nuts2>
        <nom_cl>Nantes</nom_cl>
        <nb_dep>5</nb_dep>
        <code_insee/>
        <nb_comm>1496</nb_comm>
        <id>FR.PL</id>
        <code_hasc>FR.PL</code_hasc>
        <nuts1>FRG</nuts1>
      </desc>
    </path>
    <path d="M 539.5647 555.1739 540.8201 553.2908 541.4478 555.1739 539.5647 555.1739 Z M 536.4263 556.4293 538.3094 555.1739 537.6817 556.4293 536.4263 556.4293 Z M 525.7554 556.4293 527.6385 556.4293 529.5216 555.8016 530.1493 557.057 527.6385 557.6847 525.7554 556.4293 Z M 465.4964 469.1793 464.241 471.6901 461.7302 471.0624 459.8471 471.0624 459.8471 469.807 460.4748 469.1793 459.2194 467.9239 460.4748 466.6685 461.1025 464.1577 462.9856 463.53 463.6133 462.9023 466.7518 465.4131 468.0072 466.6685 466.7518 467.2962 465.4964 469.1793 Z M 429.7176 529.4383 430.3453 526.2998 432.8561 525.6721 434.1115 523.789 436.6223 522.5336 439.1331 520.6505 440.3885 520.0228 439.1331 518.1398 439.7608 515.0013 441.0162 514.3736 441.6439 513.1182 444.1547 511.8628 447.9209 513.1182 447.9209 510.6074 448.5486 508.7243 449.804 506.8412 449.804 504.9581 449.1763 503.7027 449.804 503.075 449.1763 501.1919 451.0594 499.9365 452.9424 498.6811 454.1978 496.798 455.4532 496.1703 457.3363 494.2872 457.3363 493.0318 458.5917 493.0318 458.5917 491.1487 455.4532 488.638 455.4532 487.3826 452.9424 486.7549 451.6871 484.8718 452.3147 481.7333 451.6871 477.9671 449.804 477.3394 449.804 476.084 448.5486 474.2009 448.5486 469.807 449.804 470.4347 451.6871 469.807 454.1978 470.4347 456.0809 471.6901 456.0809 473.5732 456.7086 476.084 457.3363 476.7117 459.8471 474.2009 461.7302 474.2009 464.241 472.9455 465.4964 472.3178 468.6349 471.0624 469.2626 472.3178 472.4011 472.3178 474.2842 476.7117 477.4227 476.7117 478.0504 475.4563 480.5612 477.3394 481.8165 477.3394 483.0719 476.7117 484.3273 477.3394 484.3273 480.4779 486.2104 480.4779 487.4658 481.7333 488.0935 482.9887 489.9766 482.9887 492.4874 481.7333 493.7428 477.9671 494.9982 477.9671 496.8813 479.2225 496.2536 480.4779 498.7644 480.4779 498.7644 479.2225 496.8813 479.2225 497.509 477.9671 498.7644 477.3394 498.7644 476.084 498.7644 474.8286 498.1367 471.6901 496.2536 471.6901 494.9982 469.1793 495.6259 468.5516 492.4874 467.9239 491.232 467.9239 490.6043 467.2962 489.3489 467.9239 488.0935 467.2962 486.8381 465.4131 486.2104 462.9023 486.2104 461.6469 488.0935 462.2746 489.3489 461.0192 487.4658 460.3916 487.4658 457.8808 489.9766 457.8808 494.3705 459.1362 494.9982 457.2531 496.8813 456.6254 494.9982 454.7423 493.7428 454.1146 494.3705 450.9761 495.6259 449.093 495.6259 446.5822 497.509 446.5822 500.0198 447.2099 501.2752 445.9545 502.5306 445.9545 503.1583 444.6991 504.4137 444.0714 503.786 442.1883 504.4137 439.0498 505.0414 439.6775 508.8076 439.0498 511.3183 437.1667 510.0629 435.9113 510.6906 435.2836 512.5737 434.6559 513.8291 433.4005 515.0845 434.6559 517.5953 432.7728 518.223 430.8898 520.1061 431.5175 521.3615 431.5175 524.5 431.5175 525.1277 430.2621 526.3831 430.2621 528.2662 431.5175 528.8939 431.5175 528.8939 429.6344 528.8939 427.1236 528.8939 425.2405 527.0108 424.6128 526.3831 421.4743 523.8723 422.102 521.3615 420.8466 521.9892 417.0804 523.2446 417.0804 521.9892 414.5696 523.8723 413.3142 525.1277 414.5696 527.0108 413.3142 528.8939 414.5696 530.1493 417.0804 532.6601 417.0804 533.2878 417.7081 534.5432 417.0804 534.5432 414.5696 535.7986 413.9419 536.4263 414.5696 538.3094 413.9419 538.9371 412.6865 540.8201 412.6865 541.4478 413.3142 542.0755 415.825 543.3309 415.825 543.3309 418.3358 544.5863 418.9635 547.0971 419.5912 548.3525 422.7297 547.7248 425.8682 549.6079 427.7513 553.3741 430.2621 555.2572 430.2621 557.1403 429.0067 558.3957 430.2621 560.2788 430.2621 561.5342 431.5175 560.2788 434.0282 561.5342 435.2836 562.1619 437.7944 564.045 439.0498 564.6727 440.9329 562.1619 440.3052 560.2788 440.9329 559.0234 442.1883 558.3957 445.9545 557.768 448.4653 557.1403 449.7207 555.2572 450.3484 554.6295 452.2315 554.6295 453.4869 555.8849 455.37 557.1403 455.9977 558.3957 458.5085 557.1403 459.1362 557.1403 462.2746 556.5126 462.9023 558.3957 463.53 558.3957 464.7854 562.1619 468.5516 562.1619 470.4347 562.7896 471.0624 564.6727 471.6901 565.9281 471.0624 568.4388 472.3178 569.6942 472.9455 570.3219 472.9455 573.4604 475.4563 576.5989 476.7117 579.7374 476.084 580.3651 477.9671 584.1313 477.3394 585.3867 477.3394 587.2698 476.084 588.5252 476.084 591.036 474.8286 592.9191 475.4563 594.1745 472.9455 596.0576 473.5732 595.4299 476.084 597.9406 479.2225 597.3129 482.361 595.4299 482.9887 596.0576 485.4995 593.5468 488.638 592.2914 488.638 591.036 491.1487 591.036 492.4041 588.5252 494.2872 588.5252 495.5426 590.4083 499.9365 589.1529 500.5642 587.8975 502.4473 587.2698 501.8196 584.759 503.7027 584.759 504.9581 582.2482 504.9581 579.7374 507.4689 578.482 506.8412 576.5989 507.4689 575.3435 509.9797 574.0881 509.352 572.8327 509.9797 571.5773 512.4905 571.5773 514.3736 572.205 515.629 570.3219 515.629 568.4388 516.2567 567.1835 518.1398 565.9281 517.5121 564.045 517.5121 562.1619 520.0228 563.4173 521.2782 562.1619 521.9059 561.5342 523.789 560.2788 526.2998 559.0234 527.5552 557.1403 526.9275 555.2572 527.5552 553.3741 526.9275 552.1187 530.6937 552.1187 531.9491 550.2356 532.5768 549.6079 533.8322 545.8417 536.9707 546.4694 538.2261 548.9802 536.9707 551.491 538.2261 550.2356 539.4815 550.2356 540.7369 550.8633 542.62 548.9802 543.2477 548.3525 544.5031 547.0971 543.2477 545.214 543.2477 542.0755 545.7585 540.1924 545.7585 537.6817 546.3862 535.7986 547.0139 535.1709 550.1523 533.9155 550.1523 533.2878 549.5246 530.777 548.2692 528.8939 548.8969 527.6385 548.8969 526.3831 549.5246 524.5 553.2908 523.8723 551.4077 521.3615 551.4077 520.1061 552.0354 518.223 550.1523 515.7122 550.1523 513.2014 550.78 511.3183 552.6631 510.6906 554.5462 509.4353 554.5462 508.1799 552.6631 508.1799 550.78 505.6691 548.8969 502.5306 548.2692 501.2752 545.7585 500.0198 545.1308 498.7644 545.1308 498.1367 547.0139 496.2536 546.3862 494.3705 543.8754 492.4874 545.1308 490.6043 543.8754 489.9766 544.5031 488.0935 543.8754 486.2104 544.5031 484.955 544.5031 486.2104 541.9923 486.2104 540.7369 484.955 539.4815 485.5827 537.5984 483.0719 534.4599 481.8165 534.4599 479.9335 536.343 476.1673 536.343 474.2842 536.9707 469.8903 536.9707 467.3795 533.2045 466.1241 531.9491 466.1241 530.6937 464.241 530.066 460.4748 532.5768 459.8471 533.8322 461.1025 535.0876 461.1025 536.343 459.2194 536.9707 456.0809 535.7153 451.0594 536.343 447.2932 535.7153 446.0378 535.0876 445.4101 533.8322 447.2932 532.5768 447.2932 531.3214 445.4101 529.4383 444.1547 529.4383 440.3885 529.4383 439.7608 530.066 436.6223 529.4383 429.7176 529.4383 Z" id="FR.PR" fill="#cee3f5" stroke="#6e6e6e" stroke-width="0.4">
      <desc>
        <nom>Provence-Alpes-Côte d'Azur</nom>
        <name>Provence-Alpes-Cte d'Azur</name>
        <insee_cl/>
        <surf_km2>31842</surf_km2>
        <wikipedia>fr:Provence-Alpes-Côte d'Azur</wikipedia>
        <name_cl>Marseille</name_cl>
        <nuts2>FRL0</nuts2>
        <nom_cl>Marseille</nom_cl>
        <nb_dep>6</nb_dep>
        <code_insee/>
        <nb_comm>958</nb_comm>
        <id>FR.PR</id>
        <code_hasc>FR.PR</code_hasc>
        <nuts1>FRL</nuts1>
      </desc>
    </path>
  </g>
</svg>