<?xml version="1.0" encoding="UTF-8"?>
<svg xmlns="http://www.w3.org/2000/svg" width="700" height="700">
  <g id="turkmenistan">
    <path d="M 23.9073 363.3402 21.2124 353.6382 20.9429 345.0143 21.7514 342.5888 23.9073 341.5108 22.2903 346.0923 23.9073 363.3402 Z M 45.7367 311.5965 47.6232 314.561 45.1977 316.4475 43.8502 312.405 45.1977 310.788 45.7367 311.5965 Z M 194.4996 206.7618 194.4996 209.1873 194.7691 210.5347 196.1166 214.0382 197.1946 218.0807 197.7336 219.1587 198.0031 219.4282 198.5421 219.9672 200.4286 220.7757 200.1591 223.7402 202.3151 225.3571 204.2015 228.3216 205.8185 229.6691 206.088 229.9386 211.478 244.222 212.2865 246.917 217.9459 253.9239 222.7969 269.5548 222.5274 271.7108 220.3714 277.6398 221.7189 278.7178 223.3359 279.5263 223.8749 280.3347 224.6834 283.0297 218.7544 285.9942 216.329 287.8807 215.79 288.4197 215.79 288.9587 215.79 289.4977 216.0595 289.7672 216.868 291.9232 217.4069 295.6961 221.4494 311.327 221.7189 312.1355 221.4494 312.405 220.3714 313.2135 215.5205 316.178 200.4286 364.9571 199.8896 367.9216 199.8896 368.1911 198.2726 370.6166 198.2726 371.1556 198.0031 371.6946 198.2726 373.0421 198.2726 373.8506 198.0031 374.1201 197.7336 374.3896 196.9251 374.6591 196.3861 374.9286 196.1166 375.4676 195.8471 375.7371 195.8471 376.2761 195.3081 382.205 195.3081 383.283 195.5776 383.5525 195.8471 384.0915 196.1166 384.361 196.3861 384.361 198.2726 384.6305 201.7761 386.2475 206.088 385.439 208.5135 386.2475 210.4 385.7085 211.2085 385.439 211.478 385.7085 211.7475 385.978 212.556 388.673 213.634 390.29 219.2934 394.3324 223.3359 398.3749 221.7189 401.0699 218.4849 403.2259 207.166 400.5309 203.1236 397.8359 195.8471 400.2614 193.1521 398.6444 188.5707 398.9139 181.8332 403.4954 183.1807 406.9988 182.3722 409.1548 177.5212 410.5023 172.6703 409.4243 164.8548 410.5023 153.8054 406.9988 139.2525 409.1548 127.6641 416.1618 123.0826 416.9703 116.8842 423.7077 109.3382 428.8282 106.9127 431.5232 105.5653 435.5656 106.6432 440.1471 105.5653 443.6506 103.9483 445.2676 97.7498 449.31 92.6293 448.771 83.7359 453.3525 78.6154 453.622 74.8425 455.5085 61.0981 453.8915 60.5591 446.0761 57.5946 428.2892 57.3251 410.2328 60.2896 399.4529 60.8286 392.9849 59.2116 380.588 60.0201 374.1201 67.8355 354.7162 63.7931 350.9432 61.9066 346.9008 58.4031 346.3618 57.5946 347.1703 55.4386 342.0498 55.7081 345.5533 54.3606 343.9363 54.3606 339.3548 55.9776 338.0073 54.6301 338.0073 55.9776 333.6954 52.4741 336.1208 53.2826 336.6598 53.5521 343.6668 51.1266 340.1633 50.8571 336.6598 49.7792 336.6598 49.7792 333.4259 48.1622 336.3903 49.2402 329.6529 47.8927 330.7309 48.9707 327.7664 47.6232 328.3054 48.1622 326.4189 46.8147 327.7664 42.7722 328.3054 41.9637 327.2274 39.5382 328.8444 40.3467 326.9579 38.1907 327.4969 37.6517 326.6884 34.9568 327.2274 35.2263 326.1494 32.2618 325.0714 27.9498 326.1494 30.1058 327.4969 29.0278 329.6529 28.4888 336.6598 27.1413 327.4969 24.9853 323.4544 25.5243 321.2985 27.4108 319.412 33.0703 307.8236 34.9568 306.2066 36.8432 306.7456 33.3398 309.71 31.4533 313.2135 31.7228 314.8305 41.9637 314.561 44.9282 318.334 48.7012 319.1425 49.2402 315.3695 51.1266 317.5255 54.6301 315.9085 55.9776 316.717 57.0556 316.4475 55.9776 314.561 51.9351 312.6745 53.2826 311.327 52.2046 309.71 49.2402 309.71 48.9707 307.5541 47.6232 305.6676 47.6232 308.632 44.6587 304.5896 43.3112 304.3201 43.8502 305.9371 42.5027 305.1286 42.5027 306.2066 43.3112 308.632 41.6942 307.2846 42.7722 300.2776 40.8857 300.5471 40.3467 299.7386 41.9637 298.9301 46.2757 294.0792 45.7367 292.7317 48.1622 292.1927 47.6232 291.1147 50.3181 287.6112 46.2757 287.0722 41.9637 284.9162 36.0347 288.6892 30.6448 284.9162 28.4888 286.2637 24.9853 286.5332 26.3328 284.9162 21.2124 285.9942 19.5954 285.4552 18.2479 282.7602 17.4394 284.3772 18.7869 290.8452 24.4463 299.1996 22.0208 298.1216 23.6378 300.8166 19.5954 294.0792 17.9784 293.2707 16.6309 287.6112 9.8934 280.3347 11.5104 274.1363 8.5459 266.5903 8.8154 264.1649 11.7799 251.229 17.7089 242.605 17.9784 240.1795 16.0919 239.1015 16.6309 236.9456 18.2479 236.4066 17.9784 234.2506 21.4819 224.8181 21.4819 215.6552 23.6378 217.2722 23.3683 220.2367 25.7938 224.2792 26.8718 228.5911 28.4888 229.9386 30.6448 229.6691 27.9498 231.2861 30.3753 236.1371 33.3398 236.4066 37.3822 233.4421 36.3042 236.1371 40.6162 236.1371 42.5027 232.3641 43.8502 237.2151 47.6232 238.832 51.3961 236.6761 51.9351 231.8251 53.0131 229.3996 54.8996 229.6691 56.5166 231.0166 56.7861 234.5201 55.7081 236.4066 57.0556 239.91 59.2116 242.3355 58.1336 244.761 58.9421 246.378 65.6795 246.6475 69.9915 243.683 72.956 244.761 76.729 243.4135 76.9985 242.3355 75.112 241.2575 80.7714 240.449 83.7359 240.7185 82.9274 243.144 84.5444 243.9525 91.8208 244.4915 89.9344 243.4135 93.1683 241.527 87.7784 241.2575 85.6224 233.7116 85.8919 231.8251 84.8139 231.5556 84.8139 230.4776 88.0479 228.5911 90.2039 229.1301 95.0548 232.3641 93.7073 235.3286 95.5938 235.8676 103.4093 234.2506 106.9127 231.5556 109.3382 226.4351 105.5653 219.6977 109.8772 222.1232 107.7212 219.1587 108.2602 218.0807 107.4517 217.0027 103.6788 215.6552 103.6788 213.7687 102.0618 211.8822 92.8988 204.3363 87.7784 201.6413 83.1969 197.8683 81.0409 194.3649 77.8069 192.4784 75.9205 187.3579 75.112 174.961 71.878 167.1456 70.261 165.7981 71.339 159.5996 71.0695 155.8266 67.027 151.7842 64.6015 150.9757 62.7151 151.5147 60.5591 150.4367 46.2757 152.3232 42.5027 153.6707 38.7297 153.4012 36.3042 152.0537 26.3328 159.0606 17.1699 174.961 16.3614 178.195 16.9004 179.0035 19.3259 176.578 21.7514 176.8475 23.3683 178.4645 22.2903 181.429 22.0208 185.2019 17.4394 196.7903 18.5174 205.6838 21.2124 213.2297 19.8649 217.8112 18.2479 215.9247 18.5174 210.5347 15.0139 196.7903 13.3969 195.7124 12.0494 192.4784 9.8934 191.6699 6.1205 187.3579 7.7375 179.5425 6.39 176.8475 5.0425 176.578 1 172.805 17.1699 157.9826 27.6803 150.1672 48.4317 142.6212 78.3459 138.3093 85.0834 140.1958 100.1753 150.9757 110.1467 157.9826 117.9622 165.5286 119.5792 168.2236 119.8486 174.422 126.5861 184.1239 132.5151 194.9039 138.444 200.2938 141.9475 206.7618 144.1035 208.1093 151.6494 208.3788 164.8548 204.6058 194.4996 206.7618 Z" id="TM.BA" fill="#cee3f5" stroke="#6e6e6e" stroke-width="0.4">
      <desc>
        <labelrank>4</labelrank>
        <code_hasc>TM.BA</code_hasc>
        <name>Balkan</name>
        <admin>Turkmenistan</admin>
        <type_en>Province</type_en>
        <region/>
        <woe_id>2347349</woe_id>
        <longitude>55</longitude>
        <woe_name>Balkan</woe_name>
        <fips>TX02</fips>
        <woe_label>Krasnovodsk, TM, Turkmenistan</woe_label>
        <latitude>39</latitude>
        <iso_a2>TM</iso_a2>
        <postal>BA</postal>
        <type>Welayat|Velayat</type>
        <id>TM.BA</id>
      </desc>
    </path>
    <path d="M 388.5382 317.795 413.332 315.1 413.332 325.0714 412.5236 327.2274 403.0911 330.4614 401.7436 332.3479 398.5097 352.0212 393.9282 353.3687 391.7722 363.8792 387.4602 364.1486 395.8147 392.4459 408.7506 404.8429 415.7575 416.9703 411.1761 419.1263 414.6795 428.5587 412.2541 429.9062 411.9846 435.0266 416.2965 449.31 426.268 449.5795 430.5799 455.239 435.4309 453.622 438.3954 454.161 439.4734 455.778 439.4734 458.473 437.8564 461.4375 435.4309 462.7849 432.4664 462.7849 430.0409 460.8985 429.5019 456.5865 425.9985 450.927 423.034 450.388 418.183 451.1965 442.9768 488.3873 445.6718 493.7772 447.5583 531.2375 448.0973 534.4714 452.1398 535.5494 452.4093 538.5139 449.7143 540.9394 446.4803 541.4784 445.6718 542.8259 446.7498 545.7903 451.8703 550.3718 450.2533 552.7973 449.7143 559.2653 444.3243 564.6552 442.4378 563.3077 440.8208 559.8042 436.5089 560.3432 435.1614 558.4568 434.3529 555.4923 435.4309 550.9108 434.3529 543.0954 431.3884 539.5919 428.4239 538.5139 430.5799 536.0884 430.5799 533.6629 431.6579 532.5849 432.7359 528.5425 430.3104 518.571 428.6934 516.6846 428.1544 513.9896 429.7714 500.7842 428.4239 496.4722 423.8425 495.9332 386.6517 498.0892 384.7653 497.0112 380.9923 489.7347 375.3328 483.5363 369.4039 474.1039 363.2054 472.7564 357.8154 468.9834 350.539 466.8274 348.1135 468.4444 345.688 463.8629 342.7236 464.4019 340.8371 463.3239 341.1066 461.168 335.9861 456.317 334.9081 450.927 335.1776 446.3456 332.7521 443.1116 327.6317 444.1896 318.7382 437.4521 306.8803 433.4097 305.8023 435.5656 300.9514 436.9131 293.4054 433.4097 290.7104 436.9131 284.7815 437.7216 277.2355 434.7571 275.6185 428.8282 274.5405 428.0197 268.6116 426.9417 260.7961 423.1687 256.4842 423.1687 254.8672 421.2822 252.9807 421.2822 251.0942 419.9347 241.3923 419.9347 234.1158 416.9703 233.0378 415.3533 233.8463 409.9633 227.3784 398.3749 225.2224 397.5664 223.8749 398.1054 223.3359 398.3749 219.2934 394.3324 213.634 390.29 212.556 388.673 211.7475 385.978 211.478 385.7085 211.2085 385.439 210.4 385.7085 208.5135 386.2475 201.7761 386.2475 198.2726 384.6305 196.3861 384.361 196.1166 384.361 195.8471 384.0915 195.5776 383.5525 195.3081 383.283 195.3081 382.205 195.8471 376.2761 195.8471 375.7371 196.1166 375.4676 196.3861 374.9286 196.9251 374.6591 197.7336 374.3896 198.0031 374.1201 198.2726 373.8506 198.2726 373.0421 198.0031 371.6946 198.2726 371.1556 198.2726 370.6166 199.8896 368.1911 199.8896 367.9216 200.4286 364.9571 215.5205 316.178 215.79 315.3695 216.0595 315.1 220.3714 313.2135 221.4494 312.405 221.7189 312.1355 221.4494 311.327 217.4069 295.6961 216.868 291.9232 216.0595 289.7672 215.79 289.4977 215.79 288.9587 215.79 288.4197 216.329 287.8807 218.7544 285.9942 224.6834 283.0297 225.2224 284.1077 230.0734 286.8027 233.5768 286.2637 235.7328 284.1077 239.7753 282.2212 259.4486 282.4907 276.966 277.9093 283.1645 278.4483 283.7035 274.9448 288.0154 274.6753 312.8093 280.8737 315.5042 284.1077 319.0077 286.5332 322.5112 287.3417 361.8579 286.5332 363.4749 308.9015 367.2479 312.405 370.7514 309.9795 375.8718 309.4405 380.7228 318.873 388.5382 317.795 Z" id="TM.AL" fill="#cee3f5" stroke="#6e6e6e" stroke-width="0.4">
      <desc>
        <labelrank>4</labelrank>
        <code_hasc>TM.AL</code_hasc>
        <name>Ahal</name>
        <admin>Turkmenistan</admin>
        <type_en>Province</type_en>
        <region/>
        <woe_id>2347347</woe_id>
        <longitude>59</longitude>
        <woe_name>Ahal</woe_name>
        <fips>TX01</fips>
        <woe_label>Ashkhabad, TM, Turkmenistan</woe_label>
        <latitude>38</latitude>
        <iso_a2>TM</iso_a2>
        <postal>AL</postal>
        <type>Welayat|Velayat</type>
        <id>TM.AL</id>
      </desc>
    </path>
    <path d="M 407.4031 206.7618 407.6726 218.8892 406.8641 221.0452 371.8293 222.6622 373.7158 264.4344 384.2263 264.7039 385.3042 265.5124 388.5382 317.795 380.7228 318.873 375.8718 309.4405 370.7514 309.9795 367.2479 312.405 363.4749 308.9015 361.8579 286.5332 322.5112 287.3417 319.0077 286.5332 315.5042 284.1077 312.8093 280.8737 288.0154 274.6753 283.7035 274.9448 283.1645 278.4483 276.966 277.9093 259.4486 282.4907 239.7753 282.2212 235.7328 284.1077 233.5768 286.2637 230.0734 286.8027 225.2224 284.1077 224.6834 283.0297 223.8749 280.3347 223.3359 279.5263 221.7189 278.7178 220.3714 277.6398 222.7969 269.5548 217.9459 253.9239 212.2865 246.917 211.478 244.222 206.088 229.9386 205.8185 229.6691 204.2015 228.3216 202.3151 225.3571 200.1591 223.7402 200.4286 220.7757 198.5421 219.9672 198.0031 219.4282 197.7336 219.1587 197.1946 218.0807 194.7691 210.5347 194.4996 209.1873 194.4996 206.7618 206.8965 207.5703 217.1375 209.7263 220.3714 205.4143 223.6054 203.5278 224.1444 202.4498 220.1019 200.8328 217.4069 196.2514 217.1375 190.5919 214.712 184.9324 215.251 178.4645 214.173 170.9185 215.5205 169.3015 221.9884 165.5286 226.3004 157.9826 230.0734 154.4792 234.6548 152.0537 245.7042 153.1317 256.4842 150.1672 255.4062 148.0112 258.3707 145.8552 260.5266 139.9263 259.1792 135.0753 263.2216 131.0328 266.1861 130.4938 269.6896 133.4583 272.9236 132.3803 278.583 134.8058 281.278 137.5008 282.0865 143.9687 286.3985 143.1602 277.505 128.6073 269.9591 124.8344 268.8811 122.6784 270.2286 121.3309 275.0795 118.6359 283.7035 121.0614 288.0154 120.5224 290.4409 111.8985 304.9938 126.9903 310.3838 128.6073 315.7737 127.2598 316.8517 128.0683 320.6247 132.1108 322.5112 139.1178 327.3622 140.4653 330.3266 142.8907 342.7236 141.0042 351.078 141.0042 355.6595 146.1247 358.8934 147.4722 359.1629 149.3587 356.7375 150.9757 356.468 153.9402 357.8154 159.3301 354.0425 160.9471 353.5035 162.2946 354.851 163.3726 357.2764 163.3726 362.1274 164.9896 366.1699 169.3015 369.1344 171.188 370.2124 173.6135 369.1344 174.422 363.2054 172.805 360.7799 175.5 361.3189 177.656 366.7089 186.0104 363.2054 188.7054 362.3969 190.5919 361.8579 195.7124 363.7444 198.4073 373.7158 203.2583 382.3398 208.9178 390.9637 206.4923 400.3961 205.6838 403.8996 206.2228 406.3251 208.6483 407.4031 206.7618 Z" id="TM.DA" fill="#cee3f5" stroke="#6e6e6e" stroke-width="0.4">
      <desc>
        <labelrank>4</labelrank>
        <code_hasc>TM.DA</code_hasc>
        <name>Tashauz</name>
        <admin>Turkmenistan</admin>
        <type_en>Province</type_en>
        <region/>
        <woe_id>2347351</woe_id>
        <longitude>58</longitude>
        <woe_name>Tashauz</woe_name>
        <fips>TX03</fips>
        <woe_label>Tashauz, TM, Turkmenistan</woe_label>
        <latitude>41</latitude>
        <iso_a2>TM</iso_a2>
        <postal>DA</postal>
        <type>Welayat|Velayat</type>
        <id>TM.DA</id>
      </desc>
    </path>
    <path d="M 608.7181 471.6784 546.7336 475.9903 543.4996 444.9981 554.2795 429.6367 553.471 426.9417 527.3297 400.8004 506.8479 393.7934 502.2664 390.0205 423.034 315.3695 413.332 315.1 388.5382 317.795 385.3042 265.5124 384.2263 264.7039 373.7158 264.4344 371.8293 222.6622 406.8641 221.0452 407.6726 218.8892 407.4031 206.7618 408.4811 207.5703 411.9846 207.0313 417.105 210.2653 420.878 210.8042 425.729 205.4143 426.5375 201.9108 429.5019 201.3718 438.3954 204.0668 449.4448 211.3432 454.8347 218.8892 455.3737 226.1656 458.6077 235.3286 461.8417 239.91 463.7282 245.0305 466.6927 249.8815 474.7776 253.9239 479.8981 268.4768 479.3591 273.5973 481.2456 280.0653 488.522 287.0722 533.7977 315.1 546.1946 327.7664 569.1019 341.2413 571.7969 340.9718 575.5699 338.8158 578.2649 339.0853 583.1158 344.4753 594.1653 352.2907 611.9521 359.0282 624.0795 368.4606 645.1004 380.049 648.6039 380.8575 652.1073 380.3185 655.3413 377.0846 658.5753 376.5456 667.1992 378.7015 672.0502 381.3965 676.9012 382.4745 681.2131 386.517 688.2201 388.673 693.8795 388.673 697.6525 390.29 699 393.2544 693.8795 404.3039 694.688 414.2753 694.149 421.0127 697.383 425.0552 695.227 428.8282 695.227 429.9062 696.5745 430.7147 693.8795 433.6792 691.1846 432.3317 685.2556 433.9486 681.2131 431.5232 678.5181 431.7927 673.9367 428.0197 662.0788 425.0552 659.1143 421.5517 656.9583 421.0127 656.1498 424.2467 653.1853 424.5162 652.1073 425.8637 650.7598 430.9842 651.2988 436.3741 647.5259 442.3031 645.9089 443.3811 623.5405 446.0761 609.7961 454.4305 608.9876 458.7425 610.8741 465.7494 608.7181 471.6784 Z" id="TM.LE" fill="#cee3f5" stroke="#6e6e6e" stroke-width="0.4">
      <desc>
        <labelrank>4</labelrank>
        <code_hasc>TM.LE</code_hasc>
        <name>Chardzhou</name>
        <admin>Turkmenistan</admin>
        <type_en>Province</type_en>
        <region/>
        <woe_id>2347348</woe_id>
        <longitude>63</longitude>
        <woe_name>Chardzhou</woe_name>
        <fips>TX04</fips>
        <woe_label>Chardzhou, TM, Turkmenistan</woe_label>
        <latitude>38</latitude>
        <iso_a2>TM</iso_a2>
        <postal>LE</postal>
        <type>Welayat|Velayat</type>
        <id>TM.LE</id>
      </desc>
    </path>
    <path d="M 608.7181 471.6784 603.0587 486.7703 604.4062 494.3162 604.1367 499.1672 598.7467 509.1386 590.1228 513.7201 588.5058 517.4931 583.1158 517.4931 577.9954 521.266 577.1869 523.1525 577.9954 528.273 572.8749 526.656 569.9104 526.656 563.712 530.429 554.2795 532.3154 551.0456 536.0884 547.0031 538.5139 542.4216 539.5919 530.2942 540.4004 529.2162 542.2869 530.8332 545.7903 536.4927 550.1023 534.8757 552.2583 529.7552 555.2228 530.0247 559.2653 531.3722 561.4212 530.5637 567.0807 522.4788 570.5842 514.6633 576.5131 511.4293 580.0166 506.8479 582.1726 503.0749 581.9031 499.0324 578.6691 497.6849 578.9386 490.678 588.1015 488.522 584.3286 487.444 578.6691 482.0541 575.7046 475.0471 570.0452 470.4656 569.5062 461.3027 572.2012 454.2958 571.6622 450.7923 570.3147 444.3243 564.6552 449.7143 559.2653 450.2533 552.7973 451.8703 550.3718 446.7498 545.7903 445.6718 542.8259 446.4803 541.4784 449.7143 540.9394 452.4093 538.5139 452.1398 535.5494 448.0973 534.4714 447.5583 531.2375 445.6718 493.7772 442.9768 488.3873 418.183 451.1965 423.034 450.388 425.9985 450.927 429.5019 456.5865 430.0409 460.8985 432.4664 462.7849 435.4309 462.7849 437.8564 461.4375 439.4734 458.473 439.4734 455.778 438.3954 454.161 435.4309 453.622 430.5799 455.239 426.268 449.5795 416.2965 449.31 411.9846 435.0266 412.2541 429.9062 414.6795 428.5587 411.1761 419.1263 415.7575 416.9703 408.7506 404.8429 395.8147 392.4459 387.4602 364.1486 391.7722 363.8792 393.9282 353.3687 398.5097 352.0212 401.7436 332.3479 403.0911 330.4614 412.5236 327.2274 413.332 325.0714 413.332 315.1 423.034 315.3695 502.2664 390.0205 506.8479 393.7934 527.3297 400.8004 553.471 426.9417 554.2795 429.6367 543.4996 444.9981 546.7336 475.9903 608.7181 471.6784 Z" id="TM.MA" fill="#cee3f5" stroke="#6e6e6e" stroke-width="0.4">
      <desc>
        <labelrank>6</labelrank>
        <code_hasc>TM.MA</code_hasc>
        <name>Mary</name>
        <admin>Turkmenistan</admin>
        <type_en>Province</type_en>
        <region/>
        <woe_id>2347350</woe_id>
        <longitude>62</longitude>
        <woe_name>Mary</woe_name>
        <fips>TX05</fips>
        <woe_label>Mary, TM, Turkmenistan</woe_label>
        <latitude>36</latitude>
        <iso_a2>TM</iso_a2>
        <postal>MA</postal>
        <type>Welayat|Velayat</type>
        <id>TM.MA</id>
      </desc>
    </path>
  </g>
</svg>