<?xml version="1.0" encoding="UTF-8"?>
<svg xmlns="http://www.w3.org/2000/svg" width="700" height="700">
  <g id="greenland">
    <path d="M 315.6889 78.8933 322.3004 85.9607 322.8323 87.2526 323.3643 88.6205 321.9964 89.1524 320.7045 89.6844 319.0327 85.5047 315.461 86.9486 311.9653 88.3925 315.6889 78.8933 Z" id="GL.VG" fill="#cee3f5" stroke="#6e6e6e" stroke-width="0.4">
      <desc>
        <labelrank>7</labelrank>
        <code_hasc>GL.VG</code_hasc>
        <name>Pituffik</name>
        <admin>Greenland</admin>
        <type_en/>
        <region/>
        <woe_id>-99</woe_id>
        <longitude>-68</longitude>
        <woe_name/>
        <fips/>
        <woe_label/>
        <latitude>76</latitude>
        <iso_a2>GL</iso_a2>
        <postal>VG</postal>
        <type>Lansdele</type>
        <id>GL.VG</id>
      </desc>
    </path>
    <path d="M 120.4617 609.2517 124.7934 616.5471 117.042 611.9115 120.4617 609.2517 Z M 144.0957 602.8683 145.0836 612.5194 141.4359 597.8527 144.0957 602.8683 Z M 60.8829 471.7795 57.0832 471.0956 70.1541 469.4997 60.8829 471.7795 Z M 62.0987 468.1318 59.287 465.3201 68.2542 466.536 62.0987 468.1318 Z M 186.3481 580.1462 183.0803 590.5573 186.576 571.179 186.3481 580.1462 Z M 59.9709 454.757 81.933 460.6085 77.6774 467.8279 69.0142 464.8641 71.8259 460.5325 48.6479 462.5843 59.9709 454.757 Z M 245.775 579.8422 242.2793 585.0858 234.9079 581.6661 241.8233 574.7507 245.775 579.8422 Z M 468.6638 517.1476 468.8158 521.6312 459.5446 521.8592 435.5306 513.424 452.7052 505.1407 470.9436 506.2046 468.6638 517.1476 Z M 109.5187 601.5764 99.0316 592.2292 10.4232 585.6937 3.8118 579.3863 11.7911 585.5418 16.3507 583.034 10.0432 581.2861 11.0311 577.3345 18.1745 578.0184 7.4594 576.0426 11.1071 575.3586 7.4594 570.571 14.3749 571.407 6.7755 561.3758 20.2263 566.0874 9.0553 561.1478 8.2194 554.7644 18.1745 562.2878 12.475 556.5882 18.9345 555.1444 14.1469 553.0925 25.0899 551.8007 13.3109 552.1806 18.4025 548.8369 13.4629 547.317 26.6098 549.2929 28.0537 544.2773 21.5182 546.2531 15.5148 540.9336 19.9984 541.0096 18.1745 537.3619 24.178 541.1616 19.3904 536.602 26.5338 539.1857 19.4664 532.0424 21.3662 521.2513 36.5649 517.9076 27.3697 517.0716 31.4734 514.1839 42.6444 516.4637 34.8931 512.664 28.4336 513.9559 36.8689 511.7521 31.7014 509.2443 34.0572 504.3047 43.3284 508.2564 31.7774 496.7054 35.881 492.8297 45.6082 501.721 35.881 491.0819 44.7722 492.6777 40.7446 489.182 42.3404 486.4463 48.1159 493.6657 50.3198 493.1337 44.3163 486.1423 42.3404 485.6103 39.3007 488.4981 40.2886 479.9108 53.1315 482.1906 44.6203 478.163 48.7999 471.4756 67.3423 485.0784 66.3544 489.106 68.8622 484.7744 63.2386 481.5067 69.8501 479.8348 51.9156 472.6915 51.4597 466.536 60.3509 475.7312 66.0504 472.3875 74.1057 480.1388 70.1541 474.3633 74.2577 474.5913 72.8138 467.9799 78.7413 473.0714 75.3976 479.6069 77.2214 489.486 77.3734 479.6829 86.8726 472.7674 79.0453 468.0559 88.1645 457.6447 99.9435 462.1284 161.2702 527.7867 213.4017 473.8314 296.2346 388.0347 381.4993 457.7207 437.5065 492.2978 448.6775 493.7416 448.7535 500.5051 441.2302 495.5655 444.8019 500.885 436.8225 507.9524 423.3717 508.4844 434.9987 510.2322 433.2508 514.7158 450.8053 519.5034 453.6931 524.975 424.8916 523.0751 436.3666 532.0424 445.7898 525.7349 450.8813 530.5985 465.776 529.5346 462.9643 533.3342 467.7519 532.2703 476.9471 545.2652 495.1095 555.2964 480.3668 556.4363 481.5827 561.1478 479.0749 556.4363 478.543 560.3879 470.9436 556.8922 471.4756 564.3396 463.8762 559.628 464.1042 566.6954 457.1888 562.8957 455.7449 568.9752 449.8174 565.1755 448.5255 571.179 441.6101 568.5952 442.1421 573.6108 427.6273 577.6384 407.3371 575.4346 406.7291 571.103 392.6703 573.0028 390.1625 568.8232 384.463 573.4588 382.6392 563.9596 374.7359 565.7075 375.0398 571.6349 368.8844 562.2878 369.6443 570.495 356.9534 562.2878 360.4491 557.5002 355.6615 554.0045 356.8014 539.9457 349.0501 563.4277 331.4196 561.6798 315.9169 576.8785 309.2295 575.8146 297.3745 585.3138 299.3504 579.3103 289.1672 588.1255 283.7717 587.8216 284.7596 582.958 279.972 587.1376 276.7803 576.3465 272.9806 587.6696 272.9046 583.8699 260.2137 586.8336 261.0496 580.1462 250.6385 582.806 254.5142 576.1186 247.2948 583.11 245.091 573.9907 241.7473 574.0667 258.9218 567.5313 249.7266 558.1081 251.6265 565.3275 247.6748 563.1237 240.6834 571.331 237.2637 564.8715 232.4761 577.1825 227.3085 571.027 226.3206 575.6626 220.6211 571.7109 221.761 564.1116 217.5054 569.6591 216.8214 562.7437 211.1979 566.0114 206.4863 562.0598 209.2981 568.7472 200.6348 575.5866 194.4794 574.7507 187.412 563.4277 179.3567 590.7093 163.0181 580.7542 171.3774 595.2689 164.5379 596.3328 163.474 605.604 151.2391 592.6091 155.9507 608.5678 150.4792 606.9719 150.6311 601.6524 148.4273 607.8838 148.9593 600.2845 147.4394 606.288 147.2874 600.4365 145.3116 600.3605 146.8315 610.0876 144.5517 602.4883 145.0836 597.3967 140.98 597.5487 138.7762 611.3795 134.5205 601.7284 135.5084 612.6714 132.0127 601.5764 129.049 603.4002 133.5326 612.6714 128.517 615.1032 120.9177 609.4797 124.0334 606.44 118.7899 604.9961 116.1301 610.6196 109.5187 601.5764 Z M 450.5774 493.8176 472.3115 491.0819 478.011 499.2892 467.5239 505.4446 450.0454 501.265 450.5774 493.8176 Z M 479.6069 496.4774 487.6622 500.885 496.1734 488.7261 515.5518 494.8815 505.7486 500.2771 515.0198 498.9092 510.2322 505.2167 519.7314 502.7849 509.5483 508.7124 507.6484 516.0837 516.8437 510.0802 517.4516 517.2236 512.892 517.6796 513.5759 523.6071 506.2046 522.8471 513.044 524.671 508.7124 527.3308 513.044 529.5346 507.3445 532.5743 508.8643 543.1374 501.721 546.1011 497.6173 541.6175 502.2529 528.9266 494.4256 541.3136 483.6345 531.7384 486.1423 502.7089 480.5188 502.3289 479.6069 496.4774 Z" id="GL.3278" fill="#cee3f5" stroke="#6e6e6e" stroke-width="0.4">
      <desc>
        <labelrank>7</labelrank>
        <code_hasc>GL.VG</code_hasc>
        <name>Kommuneqarfik Sermersooq</name>
        <admin>Greenland</admin>
        <type_en/>
        <region/>
        <woe_id>-99</woe_id>
        <longitude>-44</longitude>
        <woe_name/>
        <fips/>
        <woe_label/>
        <latitude>64</latitude>
        <iso_a2>GL</iso_a2>
        <postal>VG</postal>
        <type>Lansdele</type>
        <id>GL.3278</id>
      </desc>
    </path>
    <path d="M 35.729 665.4869 28.7376 661.9912 34.1332 660.3953 35.729 665.4869 Z M 33.2972 654.0879 27.5977 655.0758 31.7014 650.4402 33.2972 654.0879 Z M 42.0365 661.0793 45.5322 669.6665 41.5805 662.7511 37.7808 666.4748 35.805 654.3158 42.0365 661.0793 Z M 5.3316 589.5694 6.9275 594.433 1 585.8457 5.3316 589.5694 Z M 10.4232 585.6937 99.0316 592.2292 109.5187 601.5764 113.0904 622.0186 106.175 609.4797 110.1266 622.8545 98.1956 628.706 104.8831 632.2017 99.1836 630.9858 96.3718 635.8494 90.4443 629.238 96.4478 637.3693 90.6723 639.8011 83.2249 631.3658 87.2526 643.9807 75.2456 635.6974 80.8691 644.7407 73.1178 639.7251 77.6014 648.9963 65.6704 636.5334 75.7016 649.1483 67.4183 649.7562 62.9347 642.7648 68.5582 654.3918 60.0469 644.6647 67.3423 656.4437 59.439 652.72 66.5824 657.8875 55.2593 657.4316 55.1833 645.5766 52.2196 650.4402 45.7602 642.2329 53.5875 656.4437 46.6721 657.0516 54.3474 659.8634 47.584 668.2986 36.109 653.0999 41.4285 651.96 41.9605 648.6923 39.5287 651.2761 38.4648 647.8564 26.2298 652.188 26.7618 645.0446 23.6461 648.1604 21.0623 642.3089 29.1936 644.8927 41.5805 639.7251 22.2022 641.245 43.6323 633.6456 29.0416 633.4176 36.337 629.9979 26.7618 628.5541 37.0209 627.7181 25.1659 627.9461 28.9656 623.1585 22.5821 623.0065 30.8654 622.4746 27.2177 619.0549 39.8327 621.7146 40.5166 617.459 30.7894 619.2069 24.102 613.5073 44.4683 616.9271 44.8482 610.3916 41.5805 614.1913 30.3335 611.7595 41.0486 611.4555 39.8327 606.44 44.3163 605.908 37.7048 602.7163 38.5408 608.5678 31.5494 604.5401 30.8654 608.1878 29.9535 602.7923 23.5701 604.8441 20.5303 600.2845 17.4146 603.7802 19.7704 597.5487 7.2315 589.1894 11.1831 595.6489 1.532 585.1618 12.703 588.3535 10.4232 585.6937 Z" id="GL.3274" fill="#cee3f5" stroke="#6e6e6e" stroke-width="0.4">
      <desc>
        <labelrank>7</labelrank>
        <code_hasc>GL.VG</code_hasc>
        <name>Kommune Kujalleq</name>
        <admin>Greenland</admin>
        <type_en/>
        <region/>
        <woe_id>-99</woe_id>
        <longitude>-44</longitude>
        <woe_name/>
        <fips/>
        <woe_label/>
        <latitude>61</latitude>
        <iso_a2>GL</iso_a2>
        <postal>VG</postal>
        <type>Lansdele</type>
        <id>GL.3274</id>
      </desc>
    </path>
    <path d="M 77.2974 422.9157 76.7655 419.1161 81.1731 422.5358 77.2974 422.9157 Z M 155.3427 413.6445 213.4017 473.8314 161.2702 527.7867 99.9435 462.1284 88.1645 457.6447 86.4927 453.9211 81.933 460.6085 59.9709 454.757 62.1747 450.8813 78.8933 454.985 64.0746 448.3735 79.6532 439.7103 71.4459 435.9866 75.3216 432.7949 95.8398 436.6705 103.5152 448.7535 97.1317 436.5946 77.2214 432.3389 86.7206 421.3199 81.933 422.6118 78.5893 417.3682 85.1248 419.1161 80.1852 415.7723 90.3683 418.5841 91.1283 425.2715 98.4996 425.4995 98.6516 429.8311 102.6793 426.7914 96.0678 423.1437 92.8761 423.8277 93.2561 418.5081 83.8329 414.4805 90.9763 414.7084 84.2888 410.9088 89.0004 412.0487 86.2647 407.5651 127.3771 415.3924 135.1285 425.8035 131.4048 417.0642 135.5084 417.8242 142.4998 426.4114 137.6363 418.8121 142.1199 420.7879 130.5689 414.7844 88.2405 406.3492 90.1403 402.5495 96.2198 406.3492 90.8243 401.2576 97.9677 396.09 109.2907 409.1609 102.9072 395.3301 112.3304 403.8414 107.9228 397.3059 114.3063 401.1056 109.5947 396.85 112.7864 396.014 119.0938 404.9053 120.9177 399.5857 108.9107 387.5788 109.7467 383.9311 114.7622 390.6945 113.4703 379.7514 133.7606 394.1902 138.0922 402.0175 135.8124 410.5288 144.9316 417.9762 136.3444 409.9968 139.3081 401.6376 144.3997 404.6773 124.6414 383.8551 116.0541 380.2074 119.8538 376.0278 141.5879 381.9553 155.3427 413.6445 Z" id="GL.3282" fill="#cee3f5" stroke="#6e6e6e" stroke-width="0.4">
      <desc>
        <labelrank>7</labelrank>
        <code_hasc>GL.VG</code_hasc>
        <name>Qeqqata Kommunia</name>
        <admin>Greenland</admin>
        <type_en/>
        <region/>
        <woe_id>-99</woe_id>
        <longitude>-47</longitude>
        <woe_name/>
        <fips/>
        <woe_label/>
        <latitude>66</latitude>
        <iso_a2>GL</iso_a2>
        <postal>VG</postal>
        <type>Lansdele</type>
        <id>GL.3282</id>
      </desc>
    </path>
    <path d="M 514.8678 457.8727 521.8592 462.5083 528.7746 478.6189 526.9508 481.6587 520.1874 476.7951 525.051 485.1544 521.5553 489.258 507.4205 471.0956 508.7884 457.1888 514.8678 457.8727 Z M 507.0405 453.5411 504.1527 456.8088 501.113 452.8572 507.0405 453.5411 Z M 524.139 454.529 534.5501 463.8002 531.9664 472.3115 524.671 468.9678 522.1632 461.1404 509.3203 454.301 524.139 454.529 Z M 520.8713 442.2941 526.5708 449.6654 510.9162 439.5583 527.0268 454.605 511.9801 450.6533 502.5569 440.5462 510.2322 435.4547 520.8713 442.2941 Z M 562.9717 419.496 567.3033 429.9831 555.7523 429.4512 552.0286 420.7879 562.9717 419.496 Z M 575.5106 406.5771 579.0063 409.0849 573.3828 413.3406 570.1151 407.641 574.5227 401.1816 578.5504 403.6894 575.5106 406.5771 Z M 600.5885 400.0417 596.1048 401.9415 602.9443 407.3371 598.5366 413.1126 587.7456 407.3371 591.0893 396.166 599.6005 395.8621 600.5885 400.0417 Z M 608.0358 354.0657 599.9805 378.6115 606.8959 348.8221 608.0358 354.0657 Z M 614.1153 306.2658 616.9271 313.7131 610.1636 305.6578 614.1153 306.2658 Z M 625.2863 297.1465 622.5506 301.7062 626.7302 292.4349 625.2863 297.1465 Z M 642.6888 276.7043 638.5092 278.8321 643.2968 271.4608 642.6888 276.7043 Z M 653.3279 245.775 645.1966 253.6783 639.5731 246.0029 644.8927 241.2154 652.036 241.2154 653.3279 245.775 Z M 646.7925 237.7956 640.1811 239.7715 644.1327 234.072 646.7925 237.7956 Z M 538.5778 86.0367 536.146 75.8536 542.6814 71.7499 538.5778 86.0367 Z M 572.0909 89.4564 570.723 100.9314 560.6159 106.9349 566.2394 84.0609 572.0909 89.4564 Z M 515.5518 494.8815 496.1734 488.7261 487.6622 500.885 479.6069 496.4774 472.3115 485.3824 466.9919 486.4463 458.2527 458.9366 456.7328 465.7001 464.2562 478.315 450.1974 476.8711 472.3115 491.0819 450.5774 493.8176 448.6775 493.7416 437.5065 492.2978 381.4993 457.7207 296.2346 388.0347 381.1193 300.1103 465.4721 212.7938 460.3805 161.7262 462.3563 112.9384 471.4756 73.3458 483.2545 56.8552 486.9022 60.7309 504.0008 48.1159 512.892 51.0037 504.4567 77.9814 516.0077 52.5236 533.0303 61.7948 532.0424 67.4183 534.3222 63.0107 540.0217 65.6704 518.2115 86.1127 534.8541 78.4373 532.5743 99.5635 538.2738 87.5566 542.6054 94.244 553.1685 75.0936 557.8801 83.6809 554.3844 115.8261 568.0633 102.7553 573.9148 112.1024 576.2705 86.9486 587.5936 98.8036 582.578 107.3909 588.8855 100.4754 586.2257 115.9781 589.5694 112.3304 592.7611 104.5791 577.1825 84.5928 579.5383 78.1334 587.2136 90.6723 585.9217 78.8173 593.1411 87.5566 592.0772 81.6291 598.0047 83.4529 598.9926 108.9867 603.0203 100.6274 609.2517 105.263 605.452 99.7155 613.6593 102.2993 608.8717 96.1438 613.3554 89.4564 614.9512 94.168 618.9029 90.5963 619.4348 97.4357 622.1706 91.8122 631.1378 95.3839 630.1499 100.7034 631.9738 96.5998 637.9013 98.4996 655.3797 122.8935 628.2501 116.2061 625.5903 110.4306 626.6542 116.2061 613.3554 112.1784 610.1636 117.422 615.1792 114.1543 616.8511 120.0058 620.8787 116.2821 627.6421 121.2217 636.9133 118.7899 642.8408 125.2493 655.7597 126.9972 647.2484 138.2442 657.0516 137.3323 654.5438 142.1199 658.3435 140.372 663.739 151.4671 655.3038 158.6105 648.1604 157.8505 620.5747 149.3392 614.8752 142.6518 619.2069 150.7831 601.4244 152.683 602.5643 157.2426 628.1741 156.5586 640.789 165.7538 624.2224 179.5846 642.4609 176.8489 647.6284 167.4257 656.8236 169.1735 649.9842 187.564 624.2224 212.2618 659.6354 184.4482 662.1432 188.5519 657.1276 195.4673 663.2071 192.7315 669.1346 198.0511 675.822 187.7919 682.4334 186.4241 699 203.3706 670.7304 226.4726 661.4592 221.0771 653.7839 224.6488 648.7683 218.9493 640.0291 219.7852 641.5489 223.9648 648.3124 219.9372 654.5438 227.3085 661.9152 226.2446 666.7028 233.616 660.7753 239.2395 643.9807 232.3241 638.2052 236.0478 633.5696 244.1791 634.3296 250.4106 639.1171 251.0945 630.6059 267.6611 635.0895 261.4296 635.6214 267.7371 624.7544 278.3762 617.079 277.6162 596.3328 310.7494 597.3967 316.0689 607.1999 303.986 616.3951 318.1967 612.9754 322.7563 609.7837 315.157 604.0082 314.777 604.3881 321.6164 601.5764 319.2606 609.7077 334.0794 616.1671 332.9395 612.6714 348.1382 609.0237 351.8618 607.1999 346.2383 597.5487 338.791 587.7456 337.0431 594.281 341.3747 585.3898 345.2504 583.8699 336.7391 577.6384 340.1588 578.3984 347.3782 581.4381 343.7305 583.2619 346.6183 580.6782 346.8463 583.4899 348.9741 579.9182 349.886 582.806 349.734 581.4381 351.5579 576.1186 348.8981 578.0184 351.1779 583.11 352.0138 579.9182 358.4733 588.3535 365.4647 585.8457 357.7893 594.357 367.6685 587.8216 370.6322 574.1427 365.3127 589.8734 373.52 592.3052 381.8793 583.4139 400.5737 571.483 379.2955 567.6833 374.8879 571.559 384.691 564.1116 377.8516 575.8146 395.7101 562.8957 398.6738 559.628 390.3905 562.5157 399.4338 573.5348 399.9657 569.6591 406.7291 569.6591 410.6808 564.4156 411.6687 575.7386 418.3561 579.7662 416.0003 581.2101 424.0556 572.5469 430.0591 568.2912 420.7879 554.7644 410.0728 555.4483 417.0642 547.925 417.8242 550.9647 421.3959 544.6573 425.2715 545.0372 441.3821 552.4846 429.2992 562.2118 439.4063 556.0563 452.2492 545.6452 447.8416 535.2341 452.6292 525.4309 431.503 535.994 441.6861 541.5415 441.0022 534.9301 440.5462 526.8748 427.4753 519.3514 434.6947 514.3359 416.3803 516.4637 435.0747 510.6882 433.3268 499.2892 436.8225 492.6017 423.3717 497.0094 435.7586 483.1786 432.7949 482.0386 440.3182 487.3582 435.2267 495.9455 436.8225 507.1165 446.6257 492.9057 451.4133 481.6587 443.282 489.79 450.2734 485.3064 450.1974 490.018 452.0212 486.0663 455.9729 499.0612 452.1732 504.5327 460.6085 502.0249 466.308 489.106 463.4203 494.6536 467.3719 488.4981 474.6673 495.3375 468.5878 502.3289 469.6517 505.2167 482.8746 515.5518 494.8815 Z" id="GL.NG" fill="#cee3f5" stroke="#6e6e6e" stroke-width="0.4">
      <desc>
        <labelrank>7</labelrank>
        <code_hasc>GL.NG</code_hasc>
        <name>Nationalparken</name>
        <admin>Greenland</admin>
        <type_en/>
        <region/>
        <woe_id>-99</woe_id>
        <longitude>-33</longitude>
        <woe_name/>
        <fips/>
        <woe_label/>
        <latitude>77</latitude>
        <iso_a2>GL</iso_a2>
        <postal>NG</postal>
        <type>Lansdele</type>
        <id>GL.NG</id>
      </desc>
    </path>
    <path d="M 168.0336 370.1763 165.2979 365.9206 171.1494 371.5441 168.0336 370.1763 Z M 212.2618 351.7099 212.6418 356.8014 200.1789 359.3852 203.7506 352.5458 211.3499 352.3938 207.7022 349.734 212.2618 351.7099 Z M 199.4949 334.9153 198.0511 349.886 174.1131 341.0708 173.8851 330.0517 180.8765 338.411 185.3602 335.9032 178.3688 333.7754 181.5605 329.6717 176.6969 316.9808 180.4206 323.5163 181.7885 314.3211 188.3239 320.3246 188.7039 310.9774 197.7471 310.1414 203.0666 323.9722 199.4949 334.9153 Z M 233.996 325.6441 229.6643 321.2365 232.4761 318.7287 233.996 325.6441 Z M 224.5728 304.3659 223.5849 298.3624 231.7922 297.6025 224.5728 304.3659 Z M 234.072 309.5335 235.5158 301.1742 240.9114 307.9376 234.072 309.5335 Z M 244.863 295.4747 246.9909 298.2864 239.4675 294.8667 244.863 295.4747 Z M 264.8493 255.4261 256.414 256.3381 254.2102 251.6265 264.8493 255.4261 Z M 288.3313 223.2049 288.0273 227.2326 285.5955 219.2532 288.3313 223.2049 Z M 338.715 44.3923 337.7271 51.4597 334.6113 46.2921 338.715 44.3923 Z M 342.6666 53.6635 342.5906 60.5789 339.0949 53.4355 342.6666 53.6635 Z M 296.2346 388.0347 213.4017 473.8314 155.3427 413.6445 151.0871 403.5374 161.5742 408.477 150.6311 401.4856 150.4032 396.242 161.9542 404.9053 160.2063 397.6099 152.9109 396.622 154.5828 392.0624 159.9783 393.4303 154.2028 388.8707 149.5672 394.2662 144.7796 383.0952 155.0388 387.5788 125.4773 374.0519 133.5326 368.7324 144.6277 373.8999 144.0957 369.4923 146.0715 377.9276 151.2391 382.8672 145.9195 375.1918 146.9835 365.1607 165.6778 403.7654 162.5621 384.539 166.2098 389.7826 164.4619 384.0071 167.4257 385.451 175.633 384.0071 166.5138 377.8516 166.8937 384.691 153.7469 374.4319 151.999 367.5165 157.2426 369.3403 150.3272 361.361 166.4378 368.8084 174.6451 379.6754 178.9767 377.4716 178.5207 381.4233 185.8921 378.8395 178.4447 374.2799 189.3118 368.4284 190.5277 380.3594 195.6953 378.1556 193.4915 372.0761 200.4829 375.4198 197.2911 372.836 201.4708 369.7963 192.3516 365.9966 201.0148 363.0329 207.9302 368.0484 202.1547 361.893 206.7903 359.7652 208.5382 364.2488 208.5382 358.0173 214.4657 362.8809 215.6815 355.4335 221.0011 357.1054 205.8784 336.2832 206.1064 301.6302 214.3137 302.6181 221.837 316.9808 221.989 335.4473 227.6885 346.5423 232.4001 342.6666 225.9407 340.8428 227.2326 334.3073 231.1082 340.5388 234.4519 332.8635 230.8802 329.9757 234.5279 329.9757 236.1238 337.5751 239.0875 332.3315 235.1359 319.0327 242.6592 328.4559 239.6195 322.5284 243.7231 322.9843 235.8958 314.2451 246.6869 314.4731 234.7559 310.5974 252.0824 314.2451 238.7836 301.1742 256.1861 306.9497 249.7266 304.5939 244.939 292.7389 257.174 291.599 246.1549 290.6111 261.2016 276.7803 257.6299 273.8925 247.8268 288.7113 239.6955 289.6992 239.3915 285.2156 232.7801 292.131 224.8768 286.1275 225.9407 278.9841 222.369 280.8839 227.0806 269.2569 240.3034 274.3485 252.0824 272.2967 238.0996 270.3208 239.4675 265.5333 254.2102 266.7492 250.6385 256.566 259.9857 267.8131 256.642 260.8217 266.8251 259.8338 264.6213 256.2621 271.5367 253.2223 268.193 244.0271 280.2 243.2672 282.8598 229.5124 287.3434 231.9441 292.9669 218.7213 300.6422 216.8974 289.1672 210.666 303.302 214.9216 302.0101 208.2342 306.6457 212.6418 308.5456 199.9509 314.4731 197.2151 312.9532 186.4241 322.8323 179.1287 319.1087 176.6969 324.2762 178.6727 331.4956 172.2133 328.0759 167.7297 332.4075 162.7901 327.8479 160.5103 333.0915 157.8505 332.4075 133.6086 327.5439 131.1768 330.8876 124.0334 320.8565 122.7415 326.1001 116.5101 312.6492 114.1543 313.1812 108.9107 319.2606 108.4548 318.0447 104.1231 310.8254 105.0351 314.0931 97.3597 304.8979 106.9349 303.986 89.5324 311.4333 75.7016 315.6889 78.8933 311.9653 88.3925 315.461 86.9486 319.0327 85.5047 320.7045 89.6844 321.9964 89.1524 323.3643 88.6205 322.8323 87.2526 322.3004 85.9607 325.3401 83.9089 321.8444 68.4822 330.8876 69.1661 321.0845 64.3786 325.6441 55.7913 333.3954 56.8552 346.3903 91.4322 340.9188 69.0901 349.2021 79.6532 348.7461 90.1403 362.3489 80.4892 350.342 71.5979 354.8256 66.8103 346.3903 65.9744 347.6062 56.8552 355.6615 60.1989 350.038 52.9035 357.4094 55.0314 351.4819 47.356 360.4491 30.9414 373.596 30.3335 392.7463 51.6876 396.09 47.964 405.7412 55.7153 409.8449 66.1264 425.1955 66.2024 440.3942 57.6151 447.7656 62.6307 449.8934 58.603 442.2941 57.5391 436.6705 45.9121 444.8019 39.8327 479.4549 47.812 469.4237 58.2991 480.4428 49.0279 483.2545 56.8552 471.4756 73.3458 462.3563 112.9384 460.3805 161.7262 465.4721 212.7938 381.1193 300.1103 296.2346 388.0347 Z" id="GL.2728" fill="#cee3f5" stroke="#6e6e6e" stroke-width="0.4">
      <desc>
        <labelrank>7</labelrank>
        <code_hasc>GL.NG</code_hasc>
        <name>Qaasuitsup Kommunia</name>
        <admin>Greenland</admin>
        <type_en/>
        <region/>
        <woe_id>-99</woe_id>
        <longitude>-49</longitude>
        <woe_name/>
        <fips/>
        <woe_label/>
        <latitude>74</latitude>
        <iso_a2>GL</iso_a2>
        <postal>NG</postal>
        <type>Lansdele</type>
        <id>GL.2728</id>
      </desc>
    </path>
  </g>
</svg>