<?xml version="1.0" encoding="UTF-8"?>
<svg xmlns="http://www.w3.org/2000/svg" width="700" height="700">
  <g id="san_marino">
    <path d="M 451.1942 379.4626 464.9467 359.1957 498.9709 327.0107 567.9389 318.7345 623.1133 338.0455 691.1617 353.6783 697.34 352.1337 699 360.2016 670.3151 380.092 660.7534 397.6882 643.7549 402.2787 645.8798 412.99 631.0061 425.997 625.6941 445.1257 619.3196 467.3163 582.1355 471.9077 578.9482 478.0295 564.0746 485.682 552.3881 502.518 555.2682 514.9662 515.5232 513.6841 504.4883 520.1211 467.7054 495.2926 463.1075 483.3381 453.9118 483.3381 425.4098 470.5872 471.3837 442.8769 464.9467 432.7616 491.6143 387.7025 466.7858 393.2199 451.1942 379.4626 Z" id="SM.FA" fill="#cee3f5" stroke="#6e6e6e" stroke-width="0.4">
      <desc>
        <iso_a2>SM</iso_a2>
        <name>Faetano</name>
        <code_hasc>SM.FA</code_hasc>
        <postal>FA</postal>
        <labelrank>20</labelrank>
        <fips>SM04</fips>
        <woe_id>20070548</woe_id>
        <woe_label>Faetano, SM, San Marino</woe_label>
        <woe_name>Faetano</woe_name>
        <latitude/>
        <longtitude/>
        <admin>San Marino</admin>
        <id>SM.FA</id>
      </desc>
    </path>
    <path d="M 73.5649 418.6963 112.7501 417.1289 140.3373 429.0833 140.3373 434.6008 150.4526 441.0378 158.7287 435.5203 160.5679 451.1531 174.3615 446.5552 171.6028 465.8662 156.8896 464.0271 148.6134 468.625 153.2113 481.499 145.8547 493.4535 212.9836 562.4215 201.0291 587.2499 174.3716 597.1513 163.5479 591.3023 147.6119 589.7713 130.6134 595.8952 124.239 603.5501 79.618 611.9707 34.997 597.4261 34.997 590.5368 58.3699 553.0306 30.7473 481.8557 38.1842 457.3687 70.0563 433.6484 76.4307 425.2318 73.5649 418.6963 Z" id="SM.CH" fill="#cee3f5" stroke="#6e6e6e" stroke-width="0.4">
      <desc>
        <iso_a2>SM</iso_a2>
        <name>Chiesanuova</name>
        <code_hasc>SM.CH</code_hasc>
        <postal>CH</postal>
        <labelrank>20</labelrank>
        <fips>SM02</fips>
        <woe_id>20070546</woe_id>
        <woe_label>Chiesanuova, SM, San Marino</woe_label>
        <woe_name>Chiesanuova</woe_name>
        <latitude/>
        <longtitude/>
        <admin>San Marino</admin>
        <id>SM.CH</id>
      </desc>
    </path>
    <path d="M 202.3117 259.7772 219.4206 266.3188 229.5359 283.7907 224.938 302.1822 229.5359 306.7801 193.6725 314.1366 156.8896 306.7801 174.3615 325.1715 182.6376 359.1957 68.3174 408.1901 53.0578 386.2123 58.3699 380.857 20.1233 355.6117 12.6865 346.432 10.5616 331.133 11.624 315.8347 7.3744 305.1262 1 285.2399 7.3744 266.8842 23.3105 277.5916 48.8082 286.0047 63.6819 286.0047 72.1811 281.4157 78.5556 283.7102 104.0533 253.8828 202.3117 259.7772 Z" id="SM.AC" fill="#cee3f5" stroke="#6e6e6e" stroke-width="0.4">
      <desc>
        <iso_a2>SM</iso_a2>
        <name>Acquaviva</name>
        <code_hasc>SM.AC</code_hasc>
        <postal>AC</postal>
        <labelrank>20</labelrank>
        <fips>SM01</fips>
        <woe_id>20070543</woe_id>
        <woe_label>Acquaviva, SM, San Marino</woe_label>
        <woe_name>Acquaviva</woe_name>
        <latitude/>
        <longtitude/>
        <admin>San Marino</admin>
        <id>SM.AC</id>
      </desc>
    </path>
    <path d="M 176.5685 334.2446 193.6725 338.0455 224.938 367.4719 275.5146 373.9089 304.0213 394.1395 323.3324 417.1289 336.2064 475.062 317.8149 485.1773 317.8149 498.0513 301.2626 517.3624 270.9167 515.5232 241.4903 523.7994 173.7429 522.1057 145.8547 493.4535 153.2113 481.499 148.6134 468.625 156.8896 464.0271 171.6028 465.8662 174.3615 446.5552 160.5679 451.1531 158.7287 435.5203 150.4526 441.0378 140.3373 434.6008 140.3373 429.0833 112.7501 417.1289 73.5649 418.6963 70.0563 410.6947 68.3174 408.1901 182.6376 359.1957 176.5685 334.2446 Z" id="SM.SM" fill="#cee3f5" stroke="#6e6e6e" stroke-width="0.4">
      <desc>
        <iso_a2>SM</iso_a2>
        <name>San Marino</name>
        <code_hasc>SM.SM</code_hasc>
        <postal>SM</postal>
        <labelrank>20</labelrank>
        <fips>SM07</fips>
        <woe_id>20070545</woe_id>
        <woe_label>San Marino, SM, San Marino</woe_label>
        <woe_name>San Marino</woe_name>
        <latitude/>
        <longtitude/>
        <admin>San Marino</admin>
        <id>SM.SM</id>
      </desc>
    </path>
    <path d="M 287.7883 199.0399 314.1366 205.627 339.8847 206.5465 364.7132 190.9138 375.7481 192.7529 374.8285 205.627 360.1153 215.7423 368.3915 227.6967 363.7936 239.6512 379.4263 252.5252 367.4719 259.8818 356.437 292.9864 341.7238 311.3779 342.6434 327.0107 380.3459 328.8498 384.0242 347.2413 392.3004 344.4826 389.5417 365.6327 451.1531 379.4263 466.7858 393.2199 491.6143 387.7025 464.9467 432.7616 471.3837 442.8769 404.2548 483.3381 315.1513 501.1588 317.8149 498.0513 317.8149 485.1773 336.2064 475.062 323.3324 417.1289 304.0213 394.1395 275.5146 373.9089 224.938 367.4719 193.6725 338.0455 176.5685 334.2446 174.3615 325.1715 156.8896 306.7801 193.6725 314.1366 229.5359 306.7801 224.938 302.1822 229.5359 283.7907 219.4206 266.3188 202.3117 259.7772 206.0441 260.0011 226.2298 240.8819 235.7915 236.2935 266.6012 204.176 284.6621 201.882 287.7883 199.0399 Z" id="SM.BM" fill="#cee3f5" stroke="#6e6e6e" stroke-width="0.4">
      <desc>
        <iso_a2>SM</iso_a2>
        <name>Borgo Maggiore</name>
        <code_hasc>SM.BM</code_hasc>
        <postal>BM</postal>
        <labelrank>20</labelrank>
        <fips>SM06</fips>
        <woe_id>20070544</woe_id>
        <woe_label>Borgo Maggiore, SM, San Marino</woe_label>
        <woe_name>Borgo Maggiore</woe_name>
        <latitude/>
        <longtitude/>
        <admin>San Marino</admin>
        <id>SM.BM</id>
      </desc>
    </path>
    <path d="M 425.4098 470.5872 453.9118 483.3381 449.3139 520.1211 431.842 530.2364 429.0833 541.2713 437.3595 543.1104 445.6356 539.4321 454.8314 553.2257 441.0378 570.6976 448.3944 598.2848 414.3701 621.2742 411.0171 635.1654 401.5266 636.468 397.277 631.8746 368.5921 643.3582 367.5297 654.0765 353.7184 644.1238 334.5951 651.0141 315.4718 648.7173 302.723 640.2959 291.0365 632.6402 284.6621 621.9225 280.4125 616.5638 280.4125 609.6741 276.1629 595.8952 259.1644 587.4749 248.5403 579.8204 236.8539 576.7586 218.793 582.1167 207.1065 592.8332 194.3577 593.5987 176.2968 598.1916 174.3716 597.1513 201.0291 587.2499 212.9836 562.4215 173.7429 522.1057 241.4903 523.7994 270.9167 515.5232 301.2626 517.3624 315.1513 501.1588 404.2548 483.3381 425.4098 470.5872 Z" id="SM.FI" fill="#cee3f5" stroke="#6e6e6e" stroke-width="0.4">
      <desc>
        <iso_a2>SM</iso_a2>
        <name>Fiorentino</name>
        <code_hasc>SM.FI</code_hasc>
        <postal>FI</postal>
        <labelrank>20</labelrank>
        <fips>SM05</fips>
        <woe_id>20070549</woe_id>
        <woe_label>Fiorentino, SM, San Marino</woe_label>
        <woe_name>Fiorentino</woe_name>
        <latitude/>
        <longtitude/>
        <admin>San Marino</admin>
        <id>SM.FI</id>
      </desc>
    </path>
    <path d="M 453.9118 483.3381 463.1075 483.3381 467.7054 495.2926 504.4883 520.1211 515.5232 513.6841 555.2682 514.9662 555.5753 516.2935 556.6377 549.2036 570.449 549.969 571.5114 554.5614 555.5753 564.5117 548.1385 583.6476 533.2648 596.6606 520.516 634.1713 444.0228 630.3435 423.8371 633.4058 411.0171 635.1654 414.3701 621.2742 448.3944 598.2848 441.0378 570.6976 454.8314 553.2257 445.6356 539.4321 437.3595 543.1104 429.0833 541.2713 431.842 530.2364 449.3139 520.1211 453.9118 483.3381 Z" id="SM.MG" fill="#cee3f5" stroke="#6e6e6e" stroke-width="0.4">
      <desc>
        <iso_a2>SM</iso_a2>
        <name>Montegiardino</name>
        <code_hasc>SM.MG</code_hasc>
        <postal>MG</postal>
        <labelrank>20</labelrank>
        <fips>SM08</fips>
        <woe_id>20070550</woe_id>
        <woe_label>Montegiardino, SM, San Marino</woe_label>
        <woe_name>Montegiardino</woe_name>
        <latitude/>
        <longtitude/>
        <admin>San Marino</admin>
        <id>SM.MG</id>
      </desc>
    </path>
    <path d="M 378.2175 253.2691 404.2548 252.5252 427.2442 234.1338 456.6705 227.6967 498.0513 259.8818 554.1453 226.7772 644.8174 212.6097 644.8174 214.8815 657.5662 224.0579 638.4429 252.3533 666.0654 279.886 683.0639 303.5964 694.7504 339.5474 697.34 352.1337 691.1617 353.6783 623.1133 338.0455 567.9389 318.7345 498.9709 327.0107 464.9467 359.1957 451.1942 379.4626 451.1531 379.4263 389.5417 365.6327 392.3004 344.4826 384.0242 347.2413 380.3459 328.8498 342.6434 327.0107 341.7238 311.3779 356.437 292.9864 367.4719 259.8818 378.2175 253.2691 Z" id="SM.DO" fill="#cee3f5" stroke="#6e6e6e" stroke-width="0.4">
      <desc>
        <iso_a2>SM</iso_a2>
        <name>Domagnano</name>
        <code_hasc>SM.DO</code_hasc>
        <postal>DO</postal>
        <labelrank>20</labelrank>
        <fips>SM03</fips>
        <woe_id>20070547</woe_id>
        <woe_label>Domagnano, SM, San Marino</woe_label>
        <woe_name>Domagnano</woe_name>
        <latitude/>
        <longtitude/>
        <admin>San Marino</admin>
        <id>SM.DO</id>
      </desc>
    </path>
    <path d="M 644.8174 212.6097 554.1453 226.7772 498.0513 259.8818 456.6705 227.6967 427.2442 234.1338 404.2548 252.5252 378.2175 253.2691 379.4263 252.5252 363.7936 239.6512 368.3915 227.6967 360.1153 215.7423 374.8285 205.627 375.7481 192.7529 364.7132 190.9138 339.8847 206.5465 314.1366 205.627 287.7883 199.0399 304.8478 183.5305 371.7793 149.1239 403.6514 137.6558 415.3379 130.0105 428.0868 124.659 458.8965 116.2495 479.0822 110.8981 499.2679 110.1337 529.0152 100.9601 542.8265 96.3734 553.4505 97.9023 574.6986 78.0272 592.7595 79.556 602.3212 73.4408 614.0076 74.2052 623.5693 63.5037 628.8813 48.2165 642.6925 45.9235 662.8782 48.2165 685.1887 46.6878 692.6256 55.86 696.8752 86.4357 678.8143 89.4935 663.9406 108.6047 665.003 122.3655 670.3151 145.3011 674.5647 156.7695 674.5647 165.1799 635.2557 170.5321 644.8174 189.6475 644.8174 212.6097 Z" id="SM.SE" fill="#cee3f5" stroke="#6e6e6e" stroke-width="0.4">
      <desc>
        <iso_a2>SM</iso_a2>
        <name>Serravalle</name>
        <code_hasc>SM.SE</code_hasc>
        <postal>SE</postal>
        <labelrank>20</labelrank>
        <fips>SM09</fips>
        <woe_id>20070551</woe_id>
        <woe_label>Serravalle, SM, San Marino</woe_label>
        <woe_name>Serravalle</woe_name>
        <latitude/>
        <longtitude/>
        <admin>San Marino</admin>
        <id>SM.SE</id>
      </desc>
    </path>
  </g>
</svg>