<?xml version="1.0" encoding="UTF-8"?>
<svg xmlns="http://www.w3.org/2000/svg" width="700" height="700">
  <g id="ethiopia">
    <path d="M 316.2437 201.7703 315.4119 205.5826 318.3925 214.3163 318.739 217.7127 321.0264 220.6239 321.0264 227.3475 323.5217 231.2984 325.8785 233.0313 326.433 236.4277 329.2749 241.7649 329.5521 247.0329 334.4042 253.6178 335.5825 259.9254 335.3746 261.589 332.4634 266.1638 334.1962 268.7284 331.8395 274.5508 334.1269 279.1256 333.711 283.5618 334.8201 287.2355 332.2554 300.5439 332.7406 305.188 327.4727 305.188 326.225 306.9902 326.9182 308.7924 330.6612 312.0501 330.2453 314.8227 327.3341 319.1896 328.0965 321.4076 327.4727 322.7246 321.7889 321.6156 319.9174 322.1008 321.7889 328.4084 321.5809 333.1218 317.2834 339.0829 321.9275 341.9248 321.9275 344.1429 318.0459 350.1733 315.9664 351.8368 315.6892 362.65 304.6681 368.0565 300.4399 364.3828 297.3901 366.9475 294.9641 366.4623 293.4391 363.4124 293.3005 359.0456 297.3208 352.5993 297.7366 349.6881 293.3698 347.678 292.1915 343.1725 298.2912 342.4793 301.1331 340.5385 304.0443 340.8851 300.9944 337.6966 301.2024 336.5183 296.0731 335.4786 290.7358 327.2994 273.9617 321.8235 271.605 317.8033 271.1198 312.8819 269.3176 310.8718 265.0894 308.6537 265.0201 307.2674 268.6244 307.2674 272.2288 304.9107 274.2389 295.5532 274.3082 293.8897 273.4765 293.1965 268.1392 292.2954 257.3954 292.85 255.4546 298.6724 254.0683 299.9201 254.4842 302.0688 253.7217 303.4551 245.7505 304.6335 243.2552 307.4754 229.6002 313.2978 224.8868 316.5556 220.5893 317.3181 216.2918 314.0603 212.6874 309.6241 205.2014 306.9902 203.6071 309.0696 202.7061 308.931 201.5277 305.5346 198.3392 304.98 196.8143 303.5937 196.1905 302.0688 197.2995 298.0486 193.4872 297.702 191.7543 296.8702 190.368 295.7612 178.3072 293.2658 177.0596 292.2261 167.7021 292.0182 166.801 291.6716 166.1772 290.7705 166.1078 289.9387 166.2465 289.107 166.2465 288.3445 165.7613 287.6513 161.3944 288.4831 160.2854 287.79 159.2457 286.6116 158.3446 285.0867 157.6514 283.0766 157.3742 280.5119 160.424 273.7191 159.8002 272.8873 158.7605 272.8873 157.8594 273.1645 157.2356 273.7884 156.8197 274.7588 156.681 274.8281 156.6117 272.61 156.681 271.2237 158.6218 266.3024 159.3843 265.332 160.1468 264.6388 162.5035 262.7673 163.8205 261.4503 164.9295 259.4402 163.6125 256.4597 163.7511 252.3008 164.167 251.2611 165.7613 248.7657 165.8999 246.9636 161.2558 242.666 161.6717 241.6956 162.6421 240.7945 163.1273 240.0321 163.058 239.6162 160.424 235.5266 158.4139 233.0313 158.1366 225.268 157.0969 225.6839 155.2947 226.9316 153.4232 228.4565 151.4824 230.5359 150.6506 231.0212 149.6802 231.1598 148.7791 230.6746 147.3235 225.1294 141.0159 216.7423 136.5104 215.4946 135.8866 214.5935 135.4707 214.5242 134.0844 214.5242 132.1436 214.3163 131.8663 214.5242 129.8562 218.5445 123.9644 223.05 121.885 224.9908 115.716 225.9612 113.6365 225.4067 112.5275 224.3669 111.2798 222.9806 109.547 218.8217 108.3686 217.782 108.5072 217.0889 108.9231 216.673 111.5571 214.7322 113.29 209.0484 116.0626 206.6223 116.825 203.4339 125.628 189.155 128.1927 187.838 128.9551 185.2734 144.6203 182.7781 148.5019 183.5405 149.8882 177.4408 148.6405 172.7274 150.2348 170.5786 149.6802 168.1526 154.3243 152.8341 161.1865 143.13 161.949 138.278 163.8898 133.5645 168.3259 141.8823 175.9505 143.8925 184.5456 151.5171 190.7146 152.6261 198.1313 149.9922 200.6266 150.7546 202.914 152.9034 212.826 153.042 219.8961 149.507 223.2232 143.8925 230.0161 145.1401 237.5714 148.4672 241.1758 145.8333 247.7607 146.4571 252.2661 145.8333 254.8308 143.1993 256.0785 142.9914 257.0489 145.3481 255.6626 148.5365 261.5543 147.2196 265.7132 147.4275 267.0995 152.0023 268.971 152.9034 280.3386 164.4789 281.1704 169.6776 290.7358 169.6082 292.6073 179.7975 289.003 187.4915 293.0232 202.3941 294.2016 203.1566 297.598 203.018 297.806 201.7703 299.1923 201.493 304.9454 201.701 305.2226 205.236 309.3815 202.7407 316.2437 201.7703 Z" id="ET.AM" fill="#cee3f5" stroke="#6e6e6e" stroke-width="0.4">
      <desc>
        <labelrank>3</labelrank>
        <code_hasc>ET.AM</code_hasc>
        <name>Amhara</name>
        <admin>Ethiopia</admin>
        <type_en>Administrative State</type_en>
        <region/>
        <woe_id>56013541</woe_id>
        <longitude>37</longitude>
        <woe_name>Amhara</woe_name>
        <fips>ET46</fips>
        <woe_label>Amhara, ET, Ethiopia</woe_label>
        <latitude>11</latitude>
        <iso_a2>ET</iso_a2>
        <postal>AM</postal>
        <type>Kilil</type>
        <id>ET.AM</id>
      </desc>
    </path>
    <path d="M 325.9478 102.5115 324.2842 106.5318 317.0755 105.7 313.887 106.3238 310.9065 108.6112 311.9462 109.5816 314.7188 109.3044 315.4119 109.9975 311.8769 116.0279 315.1347 116.9983 313.4018 119.0084 313.7484 119.9095 316.2437 119.9788 316.5903 124.9695 317.8379 126.9796 316.8675 136.0599 318.0459 143.6845 316.7289 144.5163 314.996 143.6845 313.5404 147.9127 314.4415 152.1409 313.5404 158.5872 315.8278 161.2905 317.422 166.2118 315.4812 168.4992 314.996 175.2227 319.8481 178.0646 321.3037 181.4611 320.5412 185.7586 316.7982 192.4821 317.5607 199.067 316.2437 201.7703 309.3815 202.7407 305.2226 205.236 304.9454 201.701 299.1923 201.493 297.806 201.7703 297.598 203.018 294.2016 203.1566 293.0232 202.3941 289.003 187.4915 292.6073 179.7975 290.7358 169.6082 281.1704 169.6776 280.3386 164.4789 268.971 152.9034 267.0995 152.0023 265.7132 147.4275 261.5543 147.2196 255.6626 148.5365 257.0489 145.3481 256.0785 142.9914 254.8308 143.1993 252.2661 145.8333 247.7607 146.4571 241.1758 145.8333 237.5714 148.4672 230.0161 145.1401 223.2232 143.8925 219.8961 149.507 212.826 153.042 202.914 152.9034 200.6266 150.7546 198.1313 149.9922 190.7146 152.6261 184.5456 151.5171 175.9505 143.8925 168.3259 141.8823 163.8898 133.5645 164.7909 131.5544 163.8898 123.5832 168.118 110.8986 169.9202 109.5816 181.2878 107.8488 187.2489 109.1657 189.8828 111.1066 193.4179 109.5816 194.5269 104.8682 196.4677 102.8581 203.0526 102.1649 207.4195 106.8784 207.6967 109.5123 210.1921 111.3838 211.2318 114.295 213.1033 115.1961 213.4499 117.5528 214.7668 118.6619 230.2933 82.6875 235.492 89.9655 240.4133 91.9757 245.5426 92.045 249.3549 99.531 253.0286 102.0956 254.4842 104.3137 260.9998 103.8978 265.5053 101.957 268.8324 102.3036 274.4469 100.7786 279.5762 97.3822 280.9625 93.4313 284.4282 94.2631 286.2997 95.7187 289.9734 103.274 291.0824 103.274 292.746 101.1252 297.1821 101.2639 300.8558 100.2241 302.7273 99.323 303.9057 97.3129 310.0747 100.64 316.7289 100.64 321.0264 103.8285 325.9478 102.5115 Z" id="ET.TI" fill="#cee3f5" stroke="#6e6e6e" stroke-width="0.4">
      <desc>
        <labelrank>3</labelrank>
        <code_hasc>ET.TI</code_hasc>
        <name>Tigray</name>
        <admin>Ethiopia</admin>
        <type_en>Administrative State</type_en>
        <region/>
        <woe_id>2345312</woe_id>
        <longitude>38</longitude>
        <woe_name>Tigray</woe_name>
        <fips>ET06</fips>
        <woe_label>Tigray, ET, Ethiopia</woe_label>
        <latitude>14</latitude>
        <iso_a2>ET</iso_a2>
        <postal>TI</postal>
        <type>Kilil</type>
        <id>ET.TI</id>
      </desc>
    </path>
    <path d="M 407.8779 263.4605 404.4121 264.6388 386.0437 264.6388 384.1029 265.9558 382.0234 271.7783 376.5476 278.1552 376.6862 282.2448 370.2399 307.6833 370.6558 309.9707 373.9136 312.1195 364.9027 321.0611 360.8131 327.438 358.9416 335.8251 356.4463 337.7659 351.1784 338.7363 348.1978 340.6078 338.9096 352.3914 337.8006 356.273 333.9883 358.0752 332.394 361.0557 328.651 363.9669 327.8193 362.7193 328.859 357.59 328.0272 356.6889 324.4922 356.3423 322.69 350.3812 318.0459 350.1733 321.9275 344.1429 321.9275 341.9248 317.2834 339.0829 321.5809 333.1218 321.7889 328.4084 319.9174 322.1008 321.7889 321.6156 327.4727 322.7246 328.0965 321.4076 327.3341 319.1896 330.2453 314.8227 330.6612 312.0501 326.9182 308.7924 326.225 306.9902 327.4727 305.188 332.7406 305.188 332.2554 300.5439 334.8201 287.2355 333.711 283.5618 334.1269 279.1256 331.8395 274.5508 334.1962 268.7284 332.4634 266.1638 335.3746 261.589 335.5825 259.9254 334.4042 253.6178 329.5521 247.0329 329.2749 241.7649 326.433 236.4277 325.8785 233.0313 323.5217 231.2984 321.0264 227.3475 321.0264 220.6239 318.739 217.7127 318.3925 214.3163 315.4119 205.5826 316.2437 201.7703 317.5607 199.067 316.7982 192.4821 320.5412 185.7586 321.3037 181.4611 319.8481 178.0646 314.996 175.2227 315.4812 168.4992 317.422 166.2118 315.8278 161.2905 313.5404 158.5872 314.4415 152.1409 313.5404 147.9127 314.996 143.6845 316.7289 144.5163 318.0459 143.6845 316.8675 136.0599 317.8379 126.9796 316.5903 124.9695 316.2437 119.9788 313.7484 119.9095 313.4018 119.0084 315.1347 116.9983 311.8769 116.0279 315.4119 109.9975 314.7188 109.3044 311.9462 109.5816 310.9065 108.6112 313.887 106.3238 317.0755 105.7 324.2842 106.5318 325.9478 102.5115 330.6612 101.957 336.6916 103.6899 345.148 110.8293 352.634 114.503 361.0904 116.5824 363.863 118.5232 373.567 129.3363 380.4292 141.2585 395.9557 151.4478 404.3428 158.1713 407.6699 161.9836 415.2252 175.3614 426.2463 181.9463 435.3265 194.2843 415.2945 224.2976 409.4721 228.5951 408.7789 230.1201 406.8381 237.8833 408.7789 250.8452 408.7096 259.7868 407.8779 263.4605 Z" id="ET.AF" fill="#cee3f5" stroke="#6e6e6e" stroke-width="0.4">
      <desc>
        <labelrank>3</labelrank>
        <code_hasc>ET.AF</code_hasc>
        <name>Afar</name>
        <admin>Ethiopia</admin>
        <type_en>Administrative State</type_en>
        <region/>
        <woe_id>56013537</woe_id>
        <longitude>41</longitude>
        <woe_name>Afar</woe_name>
        <fips>ET26</fips>
        <woe_label/>
        <latitude>12</latitude>
        <iso_a2>ET</iso_a2>
        <postal>AF</postal>
        <type>Kilil</type>
        <id>ET.AF</id>
      </desc>
    </path>
    <path d="M 170.6133 569.2774 142.1942 568.5842 137.4808 565.5344 136.5797 560.4051 130.2721 553.6122 128.7472 549.384 128.9551 539.6106 131.3811 535.8676 129.9255 531.0849 131.3118 527.7578 125.6973 524.8466 121.6771 525.3318 115.6467 522.4206 113.8445 522.5592 109.8242 526.0249 107.8141 525.817 105.4574 522.1433 106.4971 520.0639 106.0119 518.6082 98.3873 513.3403 97.4862 509.7359 93.1194 503.151 92.9114 499.7546 91.8024 497.8831 92.4955 495.873 92.0103 492.8231 86.7424 484.0202 86.1879 479.1681 83.9698 475.0092 81.6824 465.8597 80.2961 463.6416 76.3452 461.1463 72.5329 460.869 71.0773 453.9375 68.0967 451.8581 61.4425 450.1945 57.2143 446.105 56.7984 444.0948 57.8381 443.6789 62.8288 446.5902 69.8296 445.0652 75.5827 448.0458 78.4939 448.323 81.1279 447.6299 85.9106 444.3028 91.8024 444.1642 97.3476 441.3916 101.6451 443.6789 105.8733 442.5699 109.6856 442.9858 109.4083 439.6587 111.4878 430.2319 110.3787 428.5683 107.1903 426.8355 106.7744 423.9242 105.8733 417.5473 110.4481 412.7645 111.2105 409.8533 115.0228 408.1898 119.459 408.0511 120.7067 410.8237 122.9247 411.3089 129.1631 408.7443 132.005 405.6944 128.6085 402.2287 128.6085 401.3969 130.4107 399.0402 133.5299 398.8323 135.1934 399.5254 136.7877 404.6547 134.5696 410.1999 141.0852 414.7054 143.234 418.6563 143.234 422.7459 147.6701 423.8549 153.2153 427.3207 158.8991 429.5387 169.5043 432.1034 179.4856 438.3417 183.7138 439.1735 193.9724 438.411 198.4085 435.3612 205.1321 432.5193 205.8945 430.8557 207.9047 422.6072 206.4491 416.6462 206.5877 411.0317 207.974 407.7046 205.9639 403.2684 210.3307 402.298 213.1033 405.2092 216.2918 404.7933 215.1827 400.3572 215.7372 392.4553 211.1625 390.9997 209.4296 388.643 211.7863 383.6523 213.7964 383.1671 215.8759 386.217 226.4117 387.4646 245.2653 383.9296 247.8993 385.6625 249.2163 390.6531 250.8798 390.9304 254.207 389.1975 255.316 385.0386 257.5341 382.4047 260.4453 382.0581 264.6735 385.0386 264.8814 390.1679 266.6143 391.5542 265.9212 397.9312 265.5053 398.9016 263.7724 396.8915 262.1782 391.4849 259.4056 392.3167 261.1384 395.3665 262.802 402.298 261.6236 405.5558 255.3853 414.0815 253.8604 417.6166 253.999 425.2412 249.9787 427.6672 246.0971 435.4305 238.4032 440.4905 237.2248 445.3425 238.2645 447.0061 241.1758 448.1151 245.404 447.1447 249.4242 442.2927 258.2965 445.8277 260.9998 444.9959 262.4554 446.1743 264.9507 451.0263 263.6338 458.0964 264.119 460.2452 273.4071 464.9586 277.6354 465.5824 284.8441 472.0287 286.5076 479.1681 284.9134 485.1292 286.7849 488.8722 280.2 489.2881 277.9819 487.3473 274.1003 480.4158 270.5652 478.8215 269.5948 477.2273 266.6143 477.3659 260.9305 475.9796 256.7023 476.2569 254.0683 478.7522 254.2763 486.3769 251.8502 488.3177 247.622 495.8037 252.1968 500.1705 248.8004 502.3886 244.8495 502.6658 238.1952 491.4368 238.0566 489.2188 238.4032 488.179 242.1462 488.4563 242.9086 487.4166 242.1462 484.5747 242.978 481.8021 246.5823 479.9999 247.7607 478.3363 247.622 476.3955 245.1267 474.6627 241.7303 475.0786 234.9374 469.6027 230.7092 469.8799 228.5605 468.8402 224.7482 474.5933 224.8175 476.5342 227.3128 480.1385 226.2731 484.9906 223.6391 489.496 223.9857 495.2492 232.5807 499.0615 235.0761 506.1316 237.8487 507.7951 238.1259 508.9042 237.2941 510.7757 231.2638 513.271 231.6796 519.7173 229.3923 526.1636 229.1843 531.2929 227.3821 531.986 224.7482 530.1145 219.203 528.3123 216.2224 530.5997 205.9639 535.1745 203.5378 535.3131 197.854 533.303 192.6554 533.9961 188.0113 533.4416 185.7932 534.1348 183.4365 537.8084 181.2185 544.7399 182.8127 550.4237 182.5355 553.127 175.6733 563.247 173.9404 567.3365 170.6133 569.2774 Z" id="ET.SN" fill="#cee3f5" stroke="#6e6e6e" stroke-width="0.4">
      <desc>
        <labelrank>3</labelrank>
        <code_hasc>ET.SN</code_hasc>
        <name>Southern Nations, Nationalities and Peoples</name>
        <admin>Ethiopia</admin>
        <type_en>Administrative State</type_en>
        <region/>
        <woe_id>56013536</woe_id>
        <longitude>36</longitude>
        <woe_name>Southern Nations, Nationalities and Peoples</woe_name>
        <fips>ET54</fips>
        <woe_label>Southern Nations Nationalities and People's Region, ET, Ethiopia</woe_label>
        <latitude>6</latitude>
        <iso_a2>ET</iso_a2>
        <postal>SN</postal>
        <type>Kilil</type>
        <id>ET.SN</id>
      </desc>
    </path>
    <path d="M 106.7744 423.9242 107.1903 426.8355 110.3787 428.5683 111.4878 430.2319 109.4083 439.6587 109.6856 442.9858 105.8733 442.5699 101.6451 443.6789 97.3476 441.3916 91.8024 444.1642 85.9106 444.3028 81.1279 447.6299 78.4939 448.323 75.5827 448.0458 69.8296 445.0652 62.8288 446.5902 57.8381 443.6789 56.7984 444.0948 56.1746 440.837 53.8872 441.045 49.3124 436.8861 49.1738 432.3113 48.1341 429.4001 42.3809 423.439 36.7664 420.5278 34.687 417.6859 31.0133 416.0917 26.993 416.0223 22.9035 413.2498 17.4969 414.5667 14.9323 413.8736 12.2983 411.5169 9.0405 410.6158 7.0304 411.4476 4.1192 410.6851 1 405.0706 7.0304 396.4063 10.2189 394.7427 9.595 391.6929 11.3972 389.4748 9.3871 387.6033 9.3178 384.4148 9.8723 382.4047 12.7835 380.048 18.6753 381.157 24.2205 380.1173 24.4284 379.3548 27.5476 380.6718 30.736 380.048 34.2018 384.2069 36.7664 384.4841 40.1629 382.1274 47.025 381.0184 52.6395 375.8891 53.4713 373.8096 55.9666 375.6811 59.9176 373.6017 62.4822 374.3642 71.1466 381.7808 75.7907 384.1375 79.6723 388.7123 84.663 390.6531 86.3265 393.2871 89.0298 393.8416 95.0602 393.2871 98.9418 394.6734 89.7229 399.5947 92.6342 401.3969 89.3764 406.1103 88.6139 410.1999 89.5843 412.21 94.2284 416.5075 95.3374 420.6664 101.3678 423.5083 99.2884 426.4889 103.6552 427.4593 106.2199 425.7957 106.7744 423.9242 Z" id="ET.GA" fill="#cee3f5" stroke="#6e6e6e" stroke-width="0.4">
      <desc>
        <labelrank>3</labelrank>
        <code_hasc>ET.GA</code_hasc>
        <name>Gambela Peoples</name>
        <admin>Ethiopia</admin>
        <type_en>Administrative State</type_en>
        <region/>
        <woe_id>56013539</woe_id>
        <longitude>34</longitude>
        <woe_name>Gambela Peoples</woe_name>
        <fips>ET49</fips>
        <woe_label>Gambela, ET, Ethiopia</woe_label>
        <latitude>7</latitude>
        <iso_a2>ET</iso_a2>
        <postal>GA</postal>
        <type>Kilil</type>
        <id>ET.GA</id>
      </desc>
    </path>
    <path d="M 318.0459 350.1733 322.69 350.3812 324.4922 356.3423 328.0272 356.6889 328.859 357.59 327.8193 362.7193 328.651 363.9669 332.394 361.0557 333.9883 358.0752 337.8006 356.273 338.9096 352.3914 348.1978 340.6078 351.1784 338.7363 356.4463 337.7659 358.9416 335.8251 366.8435 335.2013 369.0616 336.449 368.9229 337.9739 363.655 338.1125 364.2095 341.1624 365.9424 342.1328 373.567 339.7068 385.4892 332.7753 395.8171 334.8547 399.2135 332.498 401.5009 332.1514 404.7587 334.3002 407.1154 334.0923 408.571 333.4684 415.7104 333.8843 418.8296 332.5673 422.8499 333.9536 426.1076 330.7651 425.4145 327.2994 431.7221 325.012 434.9799 322.3781 436.8514 322.9326 437.198 329.4482 440.3172 331.4583 444.892 339.4988 449.3281 352.1141 452.2393 356.6196 459.3094 363.2045 459.7253 365.076 458.2697 369.4428 458.8242 371.5222 461.7355 374.8494 462.082 378.523 461.3889 383.1671 455.4971 385.3852 454.3188 387.1874 452.5166 393.9802 450.853 395.9211 449.2588 395.6438 446.7635 391.7622 444.4761 381.5729 443.0898 379.5628 434.8413 377.4833 432.346 373.6017 429.2268 374.5028 421.1863 382.5433 421.117 387.6033 417.9978 392.5246 416.6115 397.3767 416.057 408.675 417.7899 414.3588 414.1855 425.5878 415.4332 430.1626 429.712 435.6384 430.6824 438.8962 428.6723 447.214 426.5929 451.5808 424.5134 453.1058 423.4044 458.0271 423.8896 458.8589 421.3942 465.0972 419.5921 468.2164 417.0967 470.2958 413.8389 470.989 413.0765 469.4641 409.2642 470.8503 406.4222 475.3558 402.7486 479.0988 393.0445 470.1572 389.5787 469.4641 379.3202 463.9189 377.1021 464.0575 374.9533 465.6517 369.2002 472.3753 367.1208 476.6728 368.2991 485.1292 367.4673 491.0903 368.2298 505.0225 370.2399 510.2212 360.0506 516.5288 351.8715 523.5296 335.9291 526.3715 329.5521 524.2921 327.8886 525.0545 323.4524 531.4315 318.8083 542.2446 316.521 549.8692 315.204 558.8801 307.8566 575.8623 305.8465 578.5655 303.1432 587.5765 303.8363 590.4877 302.5194 593.3296 294.6175 606.1528 284.9827 611.1435 284.7748 611.9753 275.6252 612.1832 267.5154 609.9651 264.6735 607.1232 264.6042 608.3709 259.3362 607.6778 257.5341 605.8063 256.9795 607.0539 254.6228 608.0936 238.4725 607.5391 235.4226 605.8756 232.65 602.2019 191.4771 576.1395 190.576 573.9908 189.259 573.9214 187.7341 572.1193 179.7629 569.2774 170.6133 569.2774 173.9404 567.3365 175.6733 563.247 182.5355 553.127 182.8127 550.4237 181.2185 544.7399 183.4365 537.8084 185.7932 534.1348 188.0113 533.4416 192.6554 533.9961 197.854 533.303 203.5378 535.3131 205.9639 535.1745 216.2224 530.5997 219.203 528.3123 224.7482 530.1145 227.3821 531.986 229.1843 531.2929 229.3923 526.1636 231.6796 519.7173 231.2638 513.271 237.2941 510.7757 238.1259 508.9042 237.8487 507.7951 235.0761 506.1316 232.5807 499.0615 223.9857 495.2492 223.6391 489.496 226.2731 484.9906 227.3128 480.1385 224.8175 476.5342 224.7482 474.5933 228.5605 468.8402 230.7092 469.8799 234.9374 469.6027 241.7303 475.0786 245.1267 474.6627 247.622 476.3955 247.7607 478.3363 246.5823 479.9999 242.978 481.8021 242.1462 484.5747 242.9086 487.4166 242.1462 488.4563 238.4032 488.179 238.0566 489.2188 238.1952 491.4368 244.8495 502.6658 248.8004 502.3886 252.1968 500.1705 247.622 495.8037 251.8502 488.3177 254.2763 486.3769 254.0683 478.7522 256.7023 476.2569 260.9305 475.9796 266.6143 477.3659 269.5948 477.2273 270.5652 478.8215 274.1003 480.4158 277.9819 487.3473 280.2 489.2881 286.7849 488.8722 284.9134 485.1292 286.5076 479.1681 284.8441 472.0287 277.6354 465.5824 273.4071 464.9586 264.119 460.2452 263.6338 458.0964 264.9507 451.0263 262.4554 446.1743 260.9998 444.9959 258.2965 445.8277 249.4242 442.2927 245.404 447.1447 241.1758 448.1151 238.2645 447.0061 237.2248 445.3425 238.4032 440.4905 246.0971 435.4305 249.9787 427.6672 253.999 425.2412 253.8604 417.6166 255.3853 414.0815 261.6236 405.5558 262.802 402.298 261.1384 395.3665 259.4056 392.3167 262.1782 391.4849 263.7724 396.8915 265.5053 398.9016 265.9212 397.9312 266.6143 391.5542 264.8814 390.1679 264.6735 385.0386 260.4453 382.0581 257.5341 382.4047 255.316 385.0386 254.207 389.1975 250.8798 390.9304 249.2163 390.6531 247.8993 385.6625 245.2653 383.9296 226.4117 387.4646 215.8759 386.217 213.7964 383.1671 211.7863 383.6523 209.4296 388.643 211.1625 390.9997 215.7372 392.4553 215.1827 400.3572 216.2918 404.7933 213.1033 405.2092 210.3307 402.298 205.9639 403.2684 207.974 407.7046 206.5877 411.0317 206.4491 416.6462 207.9047 422.6072 205.8945 430.8557 205.1321 432.5193 198.4085 435.3612 193.9724 438.411 183.7138 439.1735 179.4856 438.3417 169.5043 432.1034 158.8991 429.5387 153.2153 427.3207 147.6701 423.8549 143.234 422.7459 143.234 418.6563 141.0852 414.7054 134.5696 410.1999 136.7877 404.6547 135.1934 399.5254 133.5299 398.8323 130.4107 399.0402 128.6085 401.3969 128.6085 402.2287 132.005 405.6944 129.1631 408.7443 122.9247 411.3089 120.7067 410.8237 119.459 408.0511 115.0228 408.1898 111.2105 409.8533 110.4481 412.7645 105.8733 417.5473 106.7744 423.9242 106.2199 425.7957 103.6552 427.4593 99.2884 426.4889 101.3678 423.5083 95.3374 420.6664 94.2284 416.5075 89.5843 412.21 88.6139 410.1999 89.3764 406.1103 92.6342 401.3969 89.7229 399.5947 98.9418 394.6734 95.0602 393.2871 89.0298 393.8416 86.3265 393.2871 84.663 390.6531 79.6723 388.7123 75.7907 384.1375 71.1466 381.7808 62.4822 374.3642 59.9176 373.6017 55.9666 375.6811 53.4713 373.8096 52.7088 345.5985 63.5913 346.4996 65.74 345.8065 66.4332 344.9747 66.9184 344.1429 67.3343 343.3111 67.7501 342.2021 69.6216 334.1616 70.6614 325.4972 75.4441 324.7348 79.8109 328.0619 81.2665 327.9232 86.5345 322.3781 88.3366 319.0509 91.1786 310.6639 90.7627 309.9014 90.1388 309.2082 89.6536 308.0992 89.9309 307.7526 95.8226 308.2378 96.5851 308.4458 96.8624 309.0003 96.7237 310.1786 96.793 311.2877 97.3476 312.0501 103.6552 311.7036 108.5766 312.7433 119.5283 323.4871 128.054 333.5377 130.5494 333.2605 131.2425 334.1616 132.1436 336.1717 132.2129 336.7262 132.1436 339.2909 132.6288 339.9147 138.3126 340.4692 140.6693 344.9054 143.0953 345.4599 143.8578 346.2917 144.4816 349.2722 145.5214 349.6881 152.3142 340.9544 154.255 333.815 153.9778 331.2503 152.5915 329.8641 151.829 329.3788 147.3235 324.4575 147.3929 324.1802 148.2939 323.4871 148.7098 322.7246 148.6405 321.8235 147.8781 319.7441 148.2246 315.3079 147.8781 307.1288 148.4326 307.1288 149.2643 307.7526 151.0665 307.3367 157.0276 303.4551 158.5525 301.7222 161.1172 297.7713 161.8103 296.8702 163.4739 295.1373 165.2761 294.0283 168.4645 293.959 166.7317 299.019 169.2963 300.128 170.2667 299.9894 171.3065 297.8406 171.9303 297.3554 176.0199 295.4146 182.3275 298.4644 187.1102 299.9894 187.942 300.0587 188.4965 299.7814 188.9817 299.1576 189.4669 298.2565 189.8135 297.3554 190.368 295.7612 191.7543 296.8702 193.4872 297.702 197.2995 298.0486 196.1905 302.0688 196.8143 303.5937 198.3392 304.98 201.5277 305.5346 202.7061 308.931 203.6071 309.0696 205.2014 306.9902 212.6874 309.6241 216.2918 314.0603 220.5893 317.3181 224.8868 316.5556 229.6002 313.2978 243.2552 307.4754 245.7505 304.6335 253.7217 303.4551 254.4842 302.0688 254.0683 299.9201 255.4546 298.6724 257.3954 292.85 268.1392 292.2954 273.4765 293.1965 274.3082 293.8897 274.2389 295.5532 272.2288 304.9107 268.6244 307.2674 265.0201 307.2674 265.0894 308.6537 269.3176 310.8718 271.1198 312.8819 271.605 317.8033 273.9617 321.8235 290.7358 327.2994 296.0731 335.4786 301.2024 336.5183 300.9944 337.6966 304.0443 340.8851 301.1331 340.5385 298.2912 342.4793 292.1915 343.1725 293.3698 347.678 297.7366 349.6881 297.3208 352.5993 293.3005 359.0456 293.4391 363.4124 294.9641 366.4623 297.3901 366.9475 300.4399 364.3828 304.6681 368.0565 315.6892 362.65 315.9664 351.8368 318.0459 350.1733 Z M 164.5829 333.2605 162.2262 331.9435 161.3944 332.0821 160.4933 332.706 159.8695 333.3991 159.1071 335.8251 160.2161 339.5681 160.7013 340.4692 160.7706 340.4692 160.9092 340.3999 161.1172 339.4295 161.6717 339.1522 163.1966 339.4988 162.2262 337.2807 162.0876 336.241 162.5728 335.3399 164.4443 334.5775 164.7909 334.2309 164.7909 333.6764 164.5829 333.2605 Z M 270.9118 353.2231 270.1494 352.2527 267.0995 352.8766 264.5349 356.8275 266.337 360.7091 272.0209 364.4521 272.8526 362.8579 274.7241 362.5113 273.9617 359.2535 275.9025 359.6001 276.1797 356.4809 274.7934 353.0845 272.6447 353.0152 272.0902 352.1834 270.9118 353.2231 Z M 143.4419 355.7878 143.3726 357.3127 141.9863 359.3228 142.0556 362.442 143.3033 363.2738 147.1156 363.4817 148.9871 361.8875 150.9972 364.0362 151.2745 365.6305 152.0369 366.0464 152.8687 366.1157 152.7994 365.6305 152.5915 365.1453 152.0369 364.3135 152.6608 364.0362 152.7301 363.3431 151.6211 362.5113 151.4824 361.4716 152.1756 357.7979 150.4427 357.7286 149.5416 356.6196 149.8189 355.4412 147.8087 354.956 147.3235 355.164 146.4918 355.0253 144.5509 354.4708 143.8578 354.5401 143.5112 355.0253 143.4419 355.7878 Z M 157.0969 358.0752 155.0175 356.3423 152.938 357.4513 152.6608 357.7286 152.5915 357.9365 152.6608 358.2138 152.938 358.5604 153.9778 359.1842 154.3936 359.3922 155.2254 359.2535 156.3345 358.8376 156.7503 358.4911 157.0969 358.0752 Z M 431.2369 338.0432 428.1178 339.0829 425.2759 338.1818 422.9192 341.7169 422.3646 345.3906 424.9293 345.2519 426.3849 346.361 428.3257 345.7371 430.9597 347.1928 431.7221 346.7075 431.029 343.3111 431.9301 339.0829 431.2369 338.0432 Z" id="ET.AA" fill="#cee3f5" stroke="#6e6e6e" stroke-width="0.4">
      <desc>
        <labelrank>3</labelrank>
        <code_hasc>ET.AA</code_hasc>
        <name>Oromiya</name>
        <admin>Ethiopia</admin>
        <type_en>Administrative State</type_en>
        <region/>
        <woe_id>56013545</woe_id>
        <longitude>40</longitude>
        <woe_name>Addis Ababa</woe_name>
        <fips>ET44</fips>
        <woe_label>Oromia, ET, Ethiopia</woe_label>
        <latitude>7</latitude>
        <iso_a2>ET</iso_a2>
        <postal>AA</postal>
        <type>Kilil</type>
        <id>ET.AA</id>
      </desc>
    </path>
    <path d="M 153.9778 359.1842 153.6312 358.907 152.938 358.5604 152.6608 358.2138 152.5915 357.9365 152.6608 357.7286 152.938 357.4513 155.0175 356.3423 155.572 356.6889 157.0969 358.0752 156.7503 358.4911 156.3345 358.8376 155.2254 359.2535 154.3936 359.3922 153.9778 359.1842 Z M 151.4824 361.4716 152.7301 363.3431 152.6608 364.0362 152.0369 364.3135 152.5915 365.1453 152.7994 365.6305 152.8687 366.1157 152.0369 366.0464 151.2745 365.6305 150.9972 364.0362 148.9871 361.8875 147.1156 363.4817 143.3033 363.2738 142.0556 362.442 141.9863 359.3228 143.3726 357.3127 143.4419 356.6196 143.4419 355.7878 143.5112 355.0253 143.8578 354.5401 144.5509 354.4708 146.4918 355.0253 147.3235 355.164 147.8087 354.956 149.8189 355.4412 149.5416 356.6196 150.4427 357.7286 152.1756 357.7979 151.4824 361.4716 Z M 162.2262 331.9435 163.058 332.1514 164.5829 333.2605 164.7909 333.6764 164.7909 334.2309 164.4443 334.5775 162.5728 335.3399 162.0876 336.241 162.2262 337.2807 163.1966 339.4988 161.6717 339.1522 161.1172 339.4295 160.9092 340.3999 160.7706 340.4692 160.7013 340.4692 160.2161 339.5681 159.1071 335.8251 159.8695 333.3991 160.4933 332.706 161.3944 332.0821 162.2262 331.9435 Z M 158.1366 225.268 158.4832 225.8225 158.4139 233.0313 160.424 235.5266 163.058 239.6162 163.1273 240.0321 162.6421 240.7945 161.6717 241.6956 161.2558 242.666 165.8999 246.9636 165.7613 248.7657 164.167 251.2611 163.7511 252.3008 164.167 255.0734 163.6125 256.4597 164.9295 259.4402 163.8205 261.4503 162.5035 262.7673 160.1468 264.6388 159.3843 265.332 158.6218 266.3024 156.681 271.2237 156.6117 272.61 156.681 274.8281 156.8197 274.7588 157.2356 273.7884 157.8594 273.1645 158.7605 272.8873 159.8002 272.8873 160.424 273.7191 157.3742 280.5119 157.6514 283.0766 158.3446 285.0867 159.2457 286.6116 160.2854 287.79 161.3944 288.4831 165.7613 287.6513 166.2465 288.3445 166.2465 289.107 166.1078 289.9387 166.1772 290.7705 166.801 291.6716 167.7021 292.0182 177.0596 292.2261 178.3072 293.2658 190.368 295.7612 189.8135 297.3554 189.4669 298.2565 188.9817 299.1576 188.4965 299.7814 187.942 300.0587 187.1102 299.9894 182.3275 298.4644 176.0199 295.4146 171.9303 297.3554 171.3065 297.8406 170.2667 299.9894 169.2963 300.128 166.7317 299.019 168.4645 293.959 165.2761 294.0283 163.4739 295.1373 161.8103 296.8702 161.1172 297.7713 158.5525 301.7222 157.0276 303.4551 151.0665 307.3367 149.2643 307.7526 148.4326 307.1288 147.8781 307.1288 148.2246 315.3079 147.8781 319.7441 148.6405 321.8235 148.7098 322.7246 148.2939 323.4871 147.3929 324.1802 147.3235 324.4575 151.829 329.3788 152.5915 329.8641 153.9778 331.2503 154.255 333.815 152.3142 340.9544 145.5214 349.6881 144.4816 349.2722 143.8578 346.2917 143.0953 345.4599 140.6693 344.9054 138.3126 340.4692 132.6288 339.9147 132.1436 339.2909 132.2129 336.7262 132.1436 336.1717 131.2425 334.1616 130.5494 333.2605 128.054 333.5377 119.5283 323.4871 108.5766 312.7433 103.6552 311.7036 97.3476 312.0501 96.793 311.2877 96.7237 310.1786 96.8624 309.0003 96.5851 308.4458 95.8226 308.2378 89.9309 307.7526 89.6536 308.0992 90.1388 309.2082 90.7627 309.9014 91.1786 310.6639 88.3366 319.0509 86.5345 322.3781 81.2665 327.9232 79.8109 328.0619 75.4441 324.7348 70.6614 325.4972 69.6216 334.1616 67.7501 342.2021 67.3343 343.3111 66.9184 344.1429 66.4332 344.9747 65.74 345.8065 63.5913 346.4996 52.7088 345.5985 52.2236 330.3493 53.7486 323.4178 59.7096 307.2674 63.5219 303.2472 64.631 298.1179 62.5515 285.7105 62.7595 282.1062 69.4137 272.1941 75.7907 267.758 77.177 267.6887 84.663 274.135 85.2175 277.1155 86.8117 274.8281 88.6832 274.8281 89.7923 272.1248 93.9511 268.3818 94.0898 266.0944 92.2876 264.4309 95.684 253.6178 94.2977 251.7463 94.0205 249.4589 100.0508 236.705 98.6645 227.4168 100.8826 223.2579 106.7744 220.6239 108.23 219.0297 108.2993 218.6138 108.3686 217.782 109.547 218.8217 111.2798 222.9806 112.5275 224.3669 113.6365 225.4067 115.716 225.9612 121.885 224.9908 123.9644 223.05 129.8562 218.5445 130.5494 217.5741 131.8663 214.5242 132.1436 214.3163 134.0844 214.5242 135.4707 214.5242 135.8866 214.5935 136.5104 215.4946 141.0159 216.7423 147.3235 225.1294 148.7791 230.6746 149.6802 231.1598 150.6506 231.0212 151.4824 230.5359 153.4232 228.4565 155.2947 226.9316 157.0969 225.6839 158.1366 225.268 Z" id="ET.BE" fill="#cee3f5" stroke="#6e6e6e" stroke-width="0.4">
      <desc>
        <labelrank>3</labelrank>
        <code_hasc>ET.BE</code_hasc>
        <name>Benshangul-Gumaz</name>
        <admin>Ethiopia</admin>
        <type_en>Administrative State</type_en>
        <region/>
        <woe_id>56013538</woe_id>
        <longitude>35</longitude>
        <woe_name>Benshangul-Gumaz</woe_name>
        <fips>ET47</fips>
        <woe_label/>
        <latitude>10</latitude>
        <iso_a2>ET</iso_a2>
        <postal>BE</postal>
        <type>Kilil</type>
        <id>ET.BE</id>
      </desc>
    </path>
    <path d="M 270.9118 353.2231 272.0902 352.1834 272.6447 353.0152 274.7934 353.0845 276.1797 356.4809 275.9025 359.6001 273.9617 359.2535 274.7241 362.5113 272.8526 362.8579 272.0209 364.4521 266.337 360.7091 264.5349 356.8275 267.0995 352.8766 270.1494 352.2527 270.9118 353.2231 Z" id="ET.2837" fill="#cee3f5" stroke="#6e6e6e" stroke-width="0.4">
      <desc>
        <labelrank>9</labelrank>
        <code_hasc>ET.AA</code_hasc>
        <name>Addis Ababa</name>
        <admin>Ethiopia</admin>
        <type_en>Administrative State</type_en>
        <region/>
        <woe_id>56013543</woe_id>
        <longitude>38</longitude>
        <woe_name>Addis Ababa</woe_name>
        <fips>ET44</fips>
        <woe_label>Addis Ababa, ET, Ethiopia</woe_label>
        <latitude>8</latitude>
        <iso_a2>ET</iso_a2>
        <postal>AA</postal>
        <type>Kilil</type>
        <id>ET.2837</id>
      </desc>
    </path>
    <path d="M 284.7748 611.9753 284.9827 611.1435 294.6175 606.1528 302.5194 593.3296 303.8363 590.4877 303.1432 587.5765 305.8465 578.5655 307.8566 575.8623 315.204 558.8801 316.521 549.8692 318.8083 542.2446 323.4524 531.4315 327.8886 525.0545 329.5521 524.2921 335.9291 526.3715 351.8715 523.5296 360.0506 516.5288 370.2399 510.2212 368.2298 505.0225 367.4673 491.0903 368.2991 485.1292 367.1208 476.6728 369.2002 472.3753 374.9533 465.6517 377.1021 464.0575 379.3202 463.9189 389.5787 469.4641 393.0445 470.1572 402.7486 479.0988 406.4222 475.3558 409.2642 470.8503 413.0765 469.4641 413.8389 470.989 417.0967 470.2958 419.5921 468.2164 421.3942 465.0972 423.8896 458.8589 423.4044 458.0271 424.5134 453.1058 426.5929 451.5808 428.6723 447.214 430.6824 438.8962 429.712 435.6384 415.4332 430.1626 414.1855 425.5878 417.7899 414.3588 416.057 408.675 416.6115 397.3767 417.9978 392.5246 421.117 387.6033 421.1863 382.5433 429.2268 374.5028 432.346 373.6017 434.8413 377.4833 443.0898 379.5628 444.4761 381.5729 446.7635 391.7622 449.2588 395.6438 450.853 395.9211 452.5166 393.9802 454.3188 387.1874 455.4971 385.3852 461.3889 383.1671 462.082 378.523 461.7355 374.8494 458.8242 371.5222 458.2697 369.4428 459.7253 365.076 459.3094 363.2045 452.2393 356.6196 449.3281 352.1141 444.892 339.4988 440.3172 331.4583 437.198 329.4482 436.8514 322.9326 434.9799 322.3781 433.1778 320.4372 430.9597 319.6055 428.603 319.952 421.117 326.7449 414.2548 324.2496 408.2937 326.329 407.254 328.963 407.1154 334.0923 404.7587 334.3002 401.5009 332.1514 399.2135 332.498 395.8171 334.8547 385.4892 332.7753 373.567 339.7068 365.9424 342.1328 364.2095 341.1624 363.655 338.1125 368.9229 337.9739 369.0616 336.449 366.8435 335.2013 358.9416 335.8251 360.8131 327.438 364.9027 321.0611 373.9136 312.1195 370.6558 309.9707 370.2399 307.6833 376.6862 282.2448 376.5476 278.1552 382.0234 271.7783 384.1029 265.9558 386.0437 264.6388 404.4121 264.6388 407.8779 263.4605 415.7797 266.1638 420.4238 265.124 423.0578 263.2525 428.8802 263.4605 434.2175 261.9356 436.7128 262.3514 440.7331 259.8561 446.9714 258.3312 452.2393 259.4402 454.2495 262.6287 458.8935 263.3912 461.2502 262.4208 459.864 266.0944 457.1607 267.6194 455.7051 270.8078 452.7938 273.6498 451.061 278.4325 448.7043 279.6801 450.9223 284.6708 454.2495 287.9979 457.6459 299.3655 464.4387 304.7028 467.2113 311.2877 468.5283 312.6047 474.0735 314.3375 477.054 325.0813 479.688 326.6756 482.7378 330.072 485.0945 336.1717 491.1249 339.7068 494.5214 339.5681 513.4443 355.7878 583.175 377.5526 652.0739 399.8027 699 398.8323 627.2592 470.7117 604.6626 494.4867 558.4989 545.849 557.1819 546.4035 512.8898 544.2547 492.234 549.6613 473.1724 558.8108 465.7557 564.9105 462.9138 572.2579 459.7253 574.9612 434.772 579.8132 425.6224 580.2984 417.3047 585.9822 416.7501 588.8934 413.2151 591.666 406.8381 589.448 404.1349 590.7649 401.5009 590.0718 394.1535 591.7354 381.6769 592.0819 377.31 589.5173 374.3295 585.3584 369.2695 582.5858 362.9619 576.1395 360.0506 578.0803 345.148 583.8335 344.3855 585.0811 335.0973 587.8537 334.8894 588.5469 320.1946 595.6863 316.2437 604.1427 307.4407 612.8764 305.6385 617.2432 304.1136 617.3125 302.3807 615.0251 300.9251 614.5399 295.1027 614.4013 295.3106 613.015 290.8052 614.2627 284.7748 611.9753 Z" id="ET.SO" fill="#cee3f5" stroke="#6e6e6e" stroke-width="0.4">
      <desc>
        <labelrank>3</labelrank>
        <code_hasc>ET.SO</code_hasc>
        <name>Somali</name>
        <admin>Ethiopia</admin>
        <type_en>Administrative State</type_en>
        <region/>
        <woe_id>56013540</woe_id>
        <longitude>43</longitude>
        <woe_name>Somali</woe_name>
        <fips>ET48</fips>
        <woe_label/>
        <latitude>7</latitude>
        <iso_a2>ET</iso_a2>
        <postal>SO</postal>
        <type>Kilil</type>
        <id>ET.SO</id>
      </desc>
    </path>
    <path d="M 434.9799 322.3781 431.7221 325.012 425.4145 327.2994 426.1076 330.7651 422.8499 333.9536 418.8296 332.5673 415.7104 333.8843 408.571 333.4684 407.1154 334.0923 407.254 328.963 408.2937 326.329 414.2548 324.2496 421.117 326.7449 428.603 319.952 430.9597 319.6055 433.1778 320.4372 434.9799 322.3781 Z" id="ET.DD" fill="#cee3f5" stroke="#6e6e6e" stroke-width="0.4">
      <desc>
        <labelrank>9</labelrank>
        <code_hasc>ET.DD</code_hasc>
        <name>Dire Dawa</name>
        <admin>Ethiopia</admin>
        <type_en>Administrative State</type_en>
        <region/>
        <woe_id>56013542</woe_id>
        <longitude>42</longitude>
        <woe_name>Dire Dawa</woe_name>
        <fips>ET48</fips>
        <woe_label>Dire Dawa, ET, Ethiopia</woe_label>
        <latitude>9</latitude>
        <iso_a2>ET</iso_a2>
        <postal>DD</postal>
        <type>Kilil</type>
        <id>ET.DD</id>
      </desc>
    </path>
    <path d="M 431.2369 338.0432 431.9301 339.0829 431.029 343.3111 431.7221 346.7075 430.9597 347.1928 428.3257 345.7371 426.3849 346.361 424.9293 345.2519 422.3646 345.3906 422.9192 341.7169 425.2759 338.1818 428.1178 339.0829 431.2369 338.0432 Z" id="ET.HA" fill="#cee3f5" stroke="#6e6e6e" stroke-width="0.4">
      <desc>
        <labelrank>3</labelrank>
        <code_hasc>ET.HA</code_hasc>
        <name>Harari People</name>
        <admin>Ethiopia</admin>
        <type_en>Administrative State</type_en>
        <region/>
        <woe_id>56013544</woe_id>
        <longitude>42</longitude>
        <woe_name>Harari People</woe_name>
        <fips>ET50</fips>
        <woe_label>Harari, ET, Ethiopia</woe_label>
        <latitude>9</latitude>
        <iso_a2>ET</iso_a2>
        <postal>HA</postal>
        <type>Kilil</type>
        <id>ET.HA</id>
      </desc>
    </path>
  </g>
</svg>