<?xml version="1.0" encoding="UTF-8"?>
<svg xmlns="http://www.w3.org/2000/svg" width="700" height="700">
  <g id="solomon_islands">
    <path d="M 365.8021 462.1947 366.2536 463.0977 364.8991 462.6462 365.8021 462.1947 Z M 367.1565 460.3887 366.2536 460.3887 365.8021 459.9373 366.2536 458.5828 367.1565 458.1313 368.0595 459.9373 367.1565 460.3887 Z M 541.8823 455.4224 540.9793 455.4224 542.3338 452.7135 543.6882 454.0679 542.7853 454.9709 541.8823 455.4224 Z M 340.9702 427.4301 341.8732 428.3331 341.4217 429.6876 341.8732 428.7846 340.9702 428.3331 341.4217 427.8816 340.5188 426.9787 340.9702 426.5272 340.9702 427.4301 Z M 239.837 354.7406 240.2885 356.5466 239.837 356.9981 238.031 355.6436 238.4825 356.5466 238.031 356.0951 237.5796 356.9981 237.1281 356.5466 238.031 355.1921 239.837 354.7406 Z M 28.0893 244.5776 28.9922 245.0291 28.0893 245.9321 26.7348 246.8351 26.2833 245.0291 28.0893 244.5776 Z M 207.7814 155.6345 207.3299 156.086 207.3299 155.1831 207.7814 155.6345 Z" id="SB.4191" fill="#cee3f5" stroke="#6e6e6e" stroke-width="0.4">
      <desc>
        <labelrank>20</labelrank>
        <code_hasc>-99</code_hasc>
        <name/>
        <admin>Solomon Islands</admin>
        <type_en/>
        <region/>
        <woe_id>-99</woe_id>
        <longitude>159</longitude>
        <woe_name/>
        <fips/>
        <woe_label/>
        <latitude>-5</latitude>
        <iso_a2>SB</iso_a2>
        <postal/>
        <type/>
        <id>SB.4191</id>
      </desc>
    </path>
    <path d="M 341.8732 398.5349 340.9702 400.3409 341.8732 405.3072 341.8732 407.1132 340.5188 405.3072 339.1643 400.3409 340.0673 398.9864 341.8732 398.5349 Z M 312.978 383.6358 319.7503 394.923 319.7503 398.0834 320.6533 401.6953 319.2988 403.9528 319.2988 403.0498 317.0414 400.3409 316.1384 398.5349 315.2354 398.5349 313.881 400.7924 311.6235 397.632 311.1721 389.0537 312.075 386.7962 311.1721 383.6358 310.2691 384.0873 309.8176 382.2814 308.9146 380.0239 309.3661 380.0239 312.5265 382.2814 312.978 383.6358 Z M 382.9586 329.9088 382.0556 329.4573 383.4101 329.4573 382.9586 329.9088 Z M 280.4709 328.1028 281.8254 331.2633 289.5006 339.39 291.3066 342.099 290.8551 343.9049 287.6947 345.7109 288.5977 347.0653 287.6947 348.8713 288.1462 352.0317 289.5006 353.8376 292.2096 353.3862 294.0155 355.1921 294.0155 356.5466 296.273 356.9981 298.5304 359.2555 299.4334 360.61 298.9819 360.1585 298.0789 361.5129 299.8849 362.4159 300.7878 366.4793 302.5938 367.3823 302.5938 368.2853 301.2393 369.1882 303.0453 370.5427 303.9483 370.0912 304.3997 371.4457 305.7542 371.8972 303.4968 372.8001 304.8512 376.8635 305.3027 377.315 304.3997 377.7665 303.4968 376.412 303.0453 377.315 306.2057 380.9269 308.0116 384.9903 310.7206 389.0537 311.1721 393.1171 310.7206 394.923 310.2691 394.923 306.2057 392.6656 305.7542 390.8596 303.4968 387.6992 303.0453 385.4418 299.8849 382.2814 296.273 380.4754 295.37 378.6695 292.6611 378.6695 293.1125 377.7665 291.7581 375.9605 289.0492 375.0576 289.0492 373.7031 284.9858 370.9942 283.6313 370.0912 280.0194 362.8674 278.2135 358.804 278.6649 358.3525 277.762 354.2891 274.6016 348.4198 274.1501 344.3564 272.7956 340.7445 275.956 338.4871 275.956 338.0356 272.3441 332.1662 269.6352 329.0058 268.7322 326.7484 270.0867 326.2969 271.8926 326.2969 275.956 328.1028 276.859 327.1999 276.4075 326.7484 275.053 325.8454 275.956 324.9424 278.2135 325.8454 280.4709 328.1028 Z M 272.3441 305.077 271.4411 305.077 270.5382 303.7225 270.5382 302.368 271.4411 302.368 272.3441 305.077 Z" id="SB.ML" fill="#cee3f5" stroke="#6e6e6e" stroke-width="0.4">
      <desc>
        <labelrank>6</labelrank>
        <code_hasc>SB.ML</code_hasc>
        <name>Malaita</name>
        <admin>Solomon Islands</admin>
        <type_en>Province</type_en>
        <region/>
        <woe_id>2344836</woe_id>
        <longitude>161</longitude>
        <woe_name>Malaita</woe_name>
        <fips>BP03</fips>
        <woe_label>Malaita, SB, Solomon Islands</woe_label>
        <latitude>-9</latitude>
        <iso_a2>SB</iso_a2>
        <postal>ML</postal>
        <type>Province</type>
        <id>SB.ML</id>
      </desc>
    </path>
    <path d="M 240.2885 493.7988 242.9974 493.7988 252.9301 500.1197 258.348 502.3771 266.9263 508.6979 267.8292 509.6009 266.9263 510.5039 264.6688 510.5039 263.7658 512.3098 262.8629 512.3098 261.0569 510.0524 260.1539 510.5039 257.8965 509.1494 256.542 505.5375 255.6391 504.6345 252.4787 503.7316 252.4787 501.9256 252.0272 501.0226 249.7697 500.5712 248.8668 501.9256 246.6093 501.9256 242.5459 500.1197 242.9974 499.6682 242.0944 498.7652 239.837 499.6682 238.934 499.2167 235.7736 495.1533 238.031 491.9929 240.2885 493.7988 Z M 229.9043 483.8661 229.9043 484.7691 227.1953 483.4146 226.2924 482.5116 229.9043 483.8661 Z" id="SB.RB" fill="#cee3f5" stroke="#6e6e6e" stroke-width="0.4">
      <desc>
        <labelrank>6</labelrank>
        <code_hasc>SB.RB</code_hasc>
        <name>Rennell and Bellona</name>
        <admin>Solomon Islands</admin>
        <type_en>Province</type_en>
        <region/>
        <woe_id>-2344841</woe_id>
        <longitude>160</longitude>
        <woe_name/>
        <fips>BP10</fips>
        <woe_label/>
        <latitude>-11</latitude>
        <iso_a2>SB</iso_a2>
        <postal>RB</postal>
        <type>Province</type>
        <id>SB.RB</id>
      </desc>
    </path>
    <path d="M 229.4528 366.9308 229.9043 369.1882 229.9043 370.5427 229.0013 370.5427 228.5498 370.5427 227.6468 368.7367 228.0983 367.3823 229.4528 366.9308 Z M 259.251 369.1882 257.445 371.4457 254.2846 370.0912 252.9301 370.5427 253.3816 370.9942 251.1242 371.8972 250.2212 371.8972 250.6727 370.9942 249.3182 370.9942 253.3816 369.1882 254.7361 365.1248 255.6391 365.1248 256.9935 367.3823 259.7025 368.7367 259.251 369.1882 Z M 196.9457 365.5763 197.8486 365.5763 197.8486 366.9308 194.6882 368.7367 195.1397 366.4793 196.0427 364.6734 197.8486 362.8674 196.9457 365.5763 Z M 246.1578 361.5129 249.3182 361.9644 249.7697 362.8674 250.6727 361.9644 251.5757 361.9644 253.8331 363.7704 253.8331 366.4793 252.0272 368.7367 251.5757 368.2853 251.1242 368.2853 250.2212 366.9308 249.3182 366.9308 249.7697 367.8338 249.3182 367.8338 247.9638 366.0278 245.2549 366.4793 243.9004 366.0278 243.4489 364.6734 242.0944 363.7704 244.8034 363.3189 245.2549 362.4159 245.7063 362.8674 245.7063 361.5129 246.1578 361.5129 Z M 192.4308 361.0614 193.7853 363.3189 194.6882 362.4159 196.0427 362.8674 194.2367 366.4793 190.6248 367.8338 189.7219 366.4793 188.8189 366.9308 187.9159 364.6734 189.2704 364.6734 189.2704 363.3189 190.6248 363.3189 190.6248 362.8674 191.5278 363.3189 190.6248 361.5129 191.9793 361.5129 192.4308 361.0614 Z M 244.3519 360.1585 243.9004 361.5129 243.4489 361.0614 242.0944 362.8674 241.6429 362.4159 242.0944 360.61 242.0944 358.804 242.9974 358.3525 244.3519 360.1585 Z" id="SB.GC" fill="#cee3f5" stroke="#6e6e6e" stroke-width="0.4">
      <desc>
        <labelrank>6</labelrank>
        <code_hasc>SB.GC</code_hasc>
        <name>Central</name>
        <admin>Solomon Islands</admin>
        <type_en>Province</type_en>
        <region/>
        <woe_id>2344838</woe_id>
        <longitude>159</longitude>
        <woe_name>Central</woe_name>
        <fips>BP10</fips>
        <woe_label>Central, SB, Solomon Islands</woe_label>
        <latitude>-9</latitude>
        <iso_a2>SB</iso_a2>
        <postal>GC</postal>
        <type>Province</type>
        <id>SB.GC</id>
      </desc>
    </path>
    <path d="M 234.8706 384.5388 235.7736 385.4418 237.1281 385.8933 238.934 385.8933 239.3855 386.3448 239.837 385.8933 240.2885 384.5388 239.3855 384.0873 240.2885 383.6358 244.3519 384.5388 246.1578 383.6358 250.2212 384.0873 251.1242 383.6358 252.4787 384.0873 257.445 383.6358 258.7995 384.5388 260.1539 386.3448 262.4114 386.7962 264.6688 389.9567 266.4748 389.9567 270.9897 392.6656 272.7956 394.923 273.2471 398.5349 275.5045 398.5349 279.1164 400.3409 279.5679 402.1468 280.4709 402.5983 280.4709 404.8558 281.3739 406.2102 281.3739 407.5647 280.0194 408.4677 273.6986 409.8221 271.8926 411.1766 267.8292 410.2736 264.6688 408.9191 260.6054 408.9191 259.251 407.1132 258.348 407.1132 257.445 406.2102 254.7361 404.8558 248.8668 404.4043 239.837 405.3072 234.8706 404.4043 232.1617 403.0498 229.4528 403.5013 225.8409 400.3409 223.5834 398.9864 223.5834 398.0834 222.6805 397.1805 222.229 395.826 220.8745 395.826 220.8745 394.4715 219.9715 392.2141 217.2626 389.0537 216.8111 388.6022 218.6171 387.2477 217.2626 385.4418 217.7141 383.1843 217.2626 381.3784 216.8111 380.9269 217.2626 380.0239 217.7141 377.315 222.6805 374.6061 226.2924 376.412 231.2587 380.4754 233.0647 383.6358 234.8706 384.5388 Z" id="SB.1013" fill="#cee3f5" stroke="#6e6e6e" stroke-width="0.4">
      <desc>
        <labelrank>6</labelrank>
        <code_hasc>SB.GC</code_hasc>
        <name>Guadalcanal</name>
        <admin>Solomon Islands</admin>
        <type_en>Province</type_en>
        <region/>
        <woe_id>2344839</woe_id>
        <longitude>160</longitude>
        <woe_name>Guadalcanal</woe_name>
        <fips>BP06</fips>
        <woe_label>Guadalcanal, SB, Solomon Islands</woe_label>
        <latitude>-9</latitude>
        <iso_a2>SB</iso_a2>
        <postal>GC</postal>
        <type>Province</type>
        <id>SB.1013</id>
      </desc>
    </path>
    <path d="M 220.423 334.4237 222.229 336.2296 221.326 337.1326 219.0686 336.6811 217.2626 334.4237 215.9082 334.8752 214.5537 333.5207 214.1022 333.0692 214.1022 331.7147 215.0052 329.4573 217.7141 328.5543 219.0686 329.0058 219.5201 329.9088 219.5201 332.1662 220.423 334.4237 Z M 154.9573 286.566 156.7633 287.9204 159.0207 288.3719 160.3752 290.1779 160.3752 290.6294 159.0207 290.1779 157.6662 288.8234 157.2147 289.7264 154.0543 287.9204 154.9573 289.7264 151.7969 289.7264 151.7969 288.3719 149.5395 286.566 151.7969 287.0175 151.7969 285.663 152.6999 285.663 154.9573 286.566 Z M 164.4386 287.0175 165.793 285.663 166.696 286.1145 167.1475 285.663 168.5019 287.0175 170.3079 287.9204 171.6624 287.0175 172.5653 287.0175 173.4683 288.8234 175.2743 290.6294 178.8862 294.6928 185.207 298.3047 184.304 299.2076 184.7555 300.1106 188.3674 301.4651 190.1734 303.7225 190.6248 303.271 192.4308 304.6255 194.2367 303.7225 196.4942 304.174 196.0427 304.174 196.4942 305.077 198.3001 305.9799 199.2031 306.8829 200.1061 306.4314 201.4605 308.2374 203.2665 308.2374 204.1695 307.3344 205.9754 308.2374 206.8784 307.7859 208.2329 310.4948 229.9043 325.8454 230.3558 326.2969 228.0983 329.0058 225.8409 329.0058 225.3894 329.9088 226.7439 331.2633 228.0983 330.3603 228.5498 330.8118 230.8072 333.9722 230.8072 335.7781 233.0647 338.0356 232.1617 338.4871 229.0013 337.5841 228.5498 336.6811 223.132 332.1662 222.229 330.3603 220.8745 329.9088 218.6171 327.6514 214.1022 326.7484 209.1358 323.588 207.3299 323.588 204.621 322.2335 203.718 322.685 202.815 320.4276 200.5576 319.9761 200.1061 319.0731 199.2031 319.5246 196.9457 318.6216 191.9793 315.0097 190.6248 315.0097 190.1734 313.6552 188.8189 313.6552 186.11 313.2038 185.6585 311.8493 184.304 311.3978 184.304 310.4948 182.9495 311.3978 182.0466 309.5918 177.5317 307.3344 176.6287 304.174 175.7257 304.6255 173.4683 303.7225 173.9198 302.8195 172.5653 301.9166 171.6624 302.8195 169.8564 299.2076 168.0505 298.3047 167.1475 298.7561 166.696 297.8532 163.5356 295.5957 163.5356 291.0809 159.4722 287.9204 156.7633 286.1145 156.3118 284.76 156.7633 283.8571 157.6662 284.3085 164.4386 287.0175 Z M 149.088 281.1481 149.088 282.0511 150.4424 282.0511 151.7969 282.9541 152.2484 282.5026 154.9573 282.9541 155.8603 283.8571 154.9573 284.3085 154.9573 285.663 152.2484 284.76 150.4424 283.4056 147.282 282.0511 146.8305 281.1481 147.282 280.6966 149.088 281.1481 Z M 146.8305 276.6332 146.8305 277.9877 147.7335 277.5362 147.282 279.7937 146.379 278.8907 145.9276 280.6966 144.1216 278.8907 143.2186 278.8907 143.6701 277.9877 144.5731 277.9877 146.8305 276.6332 Z" id="SB.IS" fill="#cee3f5" stroke="#6e6e6e" stroke-width="0.4">
      <desc>
        <labelrank>6</labelrank>
        <code_hasc>SB.IS</code_hasc>
        <name>Isabel</name>
        <admin>Solomon Islands</admin>
        <type_en>Province</type_en>
        <region/>
        <woe_id>2344840</woe_id>
        <longitude>159</longitude>
        <woe_name>Isabel</woe_name>
        <fips>BP07</fips>
        <woe_label>Isabel, SB, Solomon Islands</woe_label>
        <latitude>-8</latitude>
        <iso_a2>SB</iso_a2>
        <postal>IS</postal>
        <type>Province</type>
        <id>SB.IS</id>
      </desc>
    </path>
    <path d="M 698.5485 544.8169 697.6455 544.8169 697.6455 544.3655 699 543.914 698.5485 544.8169 Z M 601.9301 507.795 601.0272 507.795 601.0272 506.4405 601.9301 505.5375 603.2846 505.5375 602.8331 506.892 601.9301 507.795 Z M 597.4153 504.1831 600.5757 505.5375 600.1242 508.6979 602.8331 508.6979 602.8331 510.9554 595.6093 510.9554 591.5459 506.4405 591.9974 505.086 593.8034 504.1831 597.4153 504.1831 Z M 581.6132 486.1235 581.1617 487.478 579.8072 488.8325 578.9043 488.8325 578.0013 488.381 578.9043 486.1235 577.5498 487.0265 577.0983 486.575 577.0983 485.6721 579.8072 483.4146 581.1617 484.3176 581.6132 486.1235 Z M 555.8784 453.1649 557.2329 454.5194 560.3933 454.0679 560.3933 455.4224 559.4903 457.2283 555.4269 459.4858 552.718 458.5828 551.3635 459.4858 549.1061 459.4858 545.0427 464.4521 544.5912 464.0006 544.5912 462.1947 544.1397 461.7432 543.2367 461.2917 541.8823 462.6462 540.5278 462.6462 539.6248 461.2917 539.6248 458.1313 541.8823 455.8739 542.3338 455.8739 541.8823 457.6798 543.2367 458.5828 543.6882 455.8739 546.3972 453.1649 552.2665 453.6164 554.0724 452.7135 555.8784 453.1649 Z M 539.6248 440.5233 538.7219 440.5233 538.2704 440.0718 538.7219 438.7173 540.0763 439.6203 539.6248 440.5233 Z M 565.8111 430.5906 565.8111 432.848 567.1656 432.848 568.0686 433.2995 566.2626 435.1054 565.8111 435.1054 565.8111 433.751 565.3596 433.2995 565.8111 430.1391 565.8111 430.5906 Z M 616.8292 414.337 615.4748 413.8855 615.4748 412.0796 616.8292 412.9825 616.8292 414.337 Z" id="SB.TE" fill="#cee3f5" stroke="#6e6e6e" stroke-width="0.4">
      <desc>
        <labelrank>6</labelrank>
        <code_hasc>SB.TE</code_hasc>
        <name>Temotu</name>
        <admin>Solomon Islands</admin>
        <type_en>Province</type_en>
        <region/>
        <woe_id>20069919</woe_id>
        <longitude>168</longitude>
        <woe_name>Temotu</woe_name>
        <fips>BP09</fips>
        <woe_label>Temotu, SB, Solomon Islands</woe_label>
        <latitude>-12</latitude>
        <iso_a2>SB</iso_a2>
        <postal>TE</postal>
        <type>Province</type>
        <id>SB.TE</id>
      </desc>
    </path>
    <path d="M 111.6145 346.6138 113.8719 347.9683 114.3234 349.3228 114.3234 350.2257 112.5175 350.6772 103.9392 347.0653 104.3907 346.1624 108.0026 346.1624 108.0026 346.6138 109.3571 345.2594 111.6145 346.6138 Z M 143.6701 352.4832 142.7671 352.9347 140.9612 350.2257 141.8642 348.4198 143.2186 347.0653 144.1216 344.8079 145.0246 349.7743 146.379 350.2257 145.9276 351.5802 143.6701 352.4832 Z M 133.7374 337.5841 134.1889 338.0356 135.9948 336.6811 138.2523 336.2296 139.6067 336.6811 140.0582 338.9386 139.6067 339.39 137.8008 339.8415 136.4463 341.196 138.2523 341.6475 139.1552 341.6475 137.8008 343.0019 139.1552 343.9049 138.7038 345.2594 135.5433 348.4198 132.8344 349.3228 130.1255 348.4198 126.9651 345.2594 126.5136 342.099 127.868 338.4871 129.674 339.39 130.1255 338.4871 130.577 339.39 131.0285 336.2296 133.2859 335.3266 133.7374 335.7781 133.2859 336.6811 133.7374 337.5841 Z M 100.3273 338.9386 99.8758 339.39 98.0699 339.39 97.6184 343.0019 99.8758 346.1624 102.1332 347.0653 101.2303 347.5168 99.4243 347.0653 96.7154 345.7109 96.7154 343.9049 94.9094 341.6475 92.2005 340.293 90.8461 338.9386 91.2975 337.5841 94.458 335.3266 96.7154 331.7147 98.5213 330.8118 99.4243 330.8118 101.2303 332.1662 102.1332 335.3266 100.3273 338.9386 Z M 88.1371 326.2969 88.1371 326.7484 86.7827 325.8454 84.9767 322.2335 82.7193 321.782 83.6223 320.879 81.3648 319.0731 82.2678 318.6216 82.7193 319.5246 85.4282 319.5246 87.2342 325.3939 88.1371 326.2969 Z M 85.4282 317.2671 89.0401 317.7186 89.9431 318.6216 90.8461 321.3305 91.2975 324.0395 90.8461 323.588 89.4916 323.1365 88.1371 320.4276 85.8797 318.1701 85.4282 317.7186 85.4282 317.2671 Z M 70.0776 311.8493 71.8836 315.0097 70.5291 315.0097 68.7232 313.6552 69.1746 311.8493 70.0776 311.8493 Z M 113.8719 318.6216 114.3234 319.5246 113.8719 321.782 117.9353 320.4276 119.2898 320.879 121.0957 322.2335 121.9987 324.0395 124.2561 326.7484 124.2561 328.5543 125.6106 329.9088 126.9651 333.5207 127.868 334.4237 126.5136 337.1326 126.9651 339.39 122.4502 338.0356 123.3532 339.8415 123.8047 340.293 122.9017 341.6475 122.9017 340.7445 120.1928 336.6811 118.8383 335.7781 115.6779 335.7781 112.066 333.5207 110.7115 331.7147 109.8085 329.0058 109.8085 325.8454 110.7115 329.4573 112.066 329.4573 112.5175 330.8118 113.4204 329.4573 112.066 327.6514 110.7115 324.4909 109.3571 322.685 106.6481 323.1365 105.7451 322.2335 105.2937 323.1365 104.3907 322.685 102.5847 323.588 98.5213 323.588 97.1669 326.2969 95.8124 326.7484 93.1035 325.3939 92.2005 325.8454 92.2005 320.4276 93.1035 319.0731 95.3609 318.1701 96.2639 319.0731 96.7154 318.6216 97.1669 315.9127 99.8758 311.3978 102.5847 308.2374 104.3907 307.3344 106.6481 306.8829 110.7115 309.1404 112.066 309.1404 111.6145 310.0433 112.969 315.9127 112.5175 317.2671 113.8719 318.6216 Z M 59.2419 319.0731 58.3389 319.5246 57.8875 319.0731 55.63 314.1067 56.0815 310.0433 55.63 306.4314 56.533 305.9799 57.8875 307.3344 59.2419 311.3978 60.1449 316.8157 59.2419 319.0731 Z M 89.9431 314.5582 89.0401 315.9127 87.6856 316.8157 86.7827 315.4612 83.1708 315.9127 80.4618 313.6552 78.2044 310.4948 77.3014 307.7859 78.2044 305.5285 80.0103 302.368 84.9767 301.0136 87.2342 302.368 89.0401 304.174 90.8461 309.1404 90.8461 311.3978 89.9431 314.5582 Z M 56.533 299.2076 55.63 300.1106 54.727 299.6591 55.63 297.8532 56.9845 298.7561 56.533 299.2076 Z M 59.6934 286.1145 60.5964 288.3719 61.4994 288.3719 61.4994 289.2749 62.8538 290.1779 63.3053 291.5323 65.1113 291.9838 64.6598 292.4353 65.1113 293.3383 66.4657 292.8868 67.8202 293.3383 70.0776 294.2413 70.0776 295.1442 64.6598 302.8195 65.5627 305.5285 64.2083 305.9799 63.3053 305.5285 61.9508 305.9799 61.9508 302.8195 59.6934 302.368 59.6934 298.7561 58.3389 297.8532 57.436 296.0472 56.0815 295.5957 55.63 294.2413 54.2755 294.2413 53.3726 291.9838 53.8241 289.7264 55.1785 287.469 57.436 286.1145 58.7904 286.566 59.6934 286.1145 Z M 4.1604 273.4728 6.8693 275.7303 5.9664 276.6332 1.903 276.6332 1 276.1818 2.806 273.4728 4.1604 273.4728 Z M 17.2536 257.6708 19.0595 258.1223 19.9625 259.0252 19.0595 261.7342 13.1902 263.0886 9.5783 261.2827 10.9327 257.6708 11.3842 257.6708 11.8357 255.8648 12.7387 255.8648 12.7387 254.5103 17.2536 257.6708 Z M 32.1527 249.9955 32.1527 250.447 33.0556 251.8014 34.8616 252.7044 33.9586 253.1559 33.0556 252.7044 32.6041 254.0589 31.2497 255.4133 31.2497 254.5103 29.4437 255.4133 30.7982 254.0589 30.3467 251.8014 31.7012 250.8984 29.8952 249.544 29.4437 247.2865 30.7982 246.3836 32.1527 246.3836 30.7982 247.2865 30.3467 248.641 32.1527 249.9955 Z" id="SB.WE" fill="#cee3f5" stroke="#6e6e6e" stroke-width="0.4">
      <desc>
        <labelrank>6</labelrank>
        <code_hasc>SB.WE</code_hasc>
        <name>Western</name>
        <admin>Solomon Islands</admin>
        <type_en>Province</type_en>
        <region/>
        <woe_id>2344837</woe_id>
        <longitude>157</longitude>
        <woe_name>Western</woe_name>
        <fips>BP11</fips>
        <woe_label>Western, SB, Solomon Islands</woe_label>
        <latitude>-8</latitude>
        <iso_a2>SB</iso_a2>
        <postal/>
        <type>Province</type>
        <id>SB.WE</id>
      </desc>
    </path>
    <path d="M 106.6481 276.6332 111.163 276.6332 112.066 277.5362 112.066 277.0847 112.5175 279.7937 111.163 278.8907 110.7115 279.7937 108.9056 279.7937 110.26 278.8907 105.2937 277.5362 106.6481 276.6332 Z M 121.5472 280.2451 121.9987 281.1481 117.9353 281.1481 115.6779 279.7937 117.9353 276.1818 121.0957 277.5362 121.5472 280.2451 Z M 57.436 237.8053 58.7904 237.3538 61.0479 237.8053 65.1113 241.8687 68.2717 244.1261 70.5291 245.0291 75.947 248.1895 79.5589 249.0925 80.4618 250.447 82.2678 250.447 86.3312 254.9618 87.2342 260.3797 89.9431 265.3461 90.8461 264.8946 92.2005 266.249 94.9094 267.152 95.8124 269.8609 98.9728 271.2154 100.3273 273.0213 100.7788 272.1184 103.4877 272.5699 107.0996 271.6669 107.5511 272.1184 107.5511 275.7303 104.8422 276.1818 103.4877 278.8907 103.4877 277.9877 97.1669 276.6332 96.2639 274.8273 96.7154 273.9243 94.458 274.8273 94.458 275.7303 90.3946 273.9243 87.6856 273.4728 86.3312 273.9243 84.5252 271.2154 82.7193 270.3124 80.9133 271.2154 80.9133 270.3124 80.4618 269.4094 75.947 267.152 70.9806 261.2827 70.5291 259.4767 68.7232 258.5737 63.3053 250.447 58.3389 248.1895 51.1151 241.8687 50.6636 237.3538 52.4696 235.0964 56.0815 235.5479 57.436 237.8053 Z" id="SB.CH" fill="#cee3f5" stroke="#6e6e6e" stroke-width="0.4">
      <desc>
        <labelrank>6</labelrank>
        <code_hasc>SB.CH</code_hasc>
        <name>Choiseul</name>
        <admin>Solomon Islands</admin>
        <type_en>Province</type_en>
        <region/>
        <woe_id>-2344837</woe_id>
        <longitude>157</longitude>
        <woe_name/>
        <fips>BP11</fips>
        <woe_label/>
        <latitude>-7</latitude>
        <iso_a2>SB</iso_a2>
        <postal>CH</postal>
        <type>Province</type>
        <id>SB.CH</id>
      </desc>
    </path>
    <path d="M 330.586 429.6876 329.6831 430.5906 328.7801 430.1391 329.6831 429.2361 327.8771 427.4301 328.7801 426.0757 330.586 428.3331 330.586 429.6876 Z M 308.0116 426.0757 311.1721 425.6242 316.5899 428.3331 325.1682 434.2025 326.5226 434.2025 326.9741 434.2025 328.7801 436.4599 331.0375 436.4599 334.1979 438.7173 337.3583 438.2658 339.1643 438.7173 340.9702 438.7173 343.2277 440.5233 345.9366 440.5233 346.3881 439.1688 347.2911 439.1688 348.6455 439.6203 351.3545 442.3292 352.7089 445.9411 354.0634 446.8441 354.5149 449.553 357.6753 451.8105 357.6753 455.8739 356.3208 457.2283 356.7723 458.5828 362.6417 458.5828 363.0931 459.9373 359.4812 459.9373 353.1604 458.1313 352.2574 458.1313 350.903 459.4858 348.194 459.0343 343.2277 455.8739 340.9702 456.7768 337.8098 455.4224 336.9069 455.8739 335.1009 454.9709 334.6494 453.6164 334.1979 454.9709 332.8435 454.0679 331.489 454.0679 331.0375 453.1649 330.1345 452.7135 329.2316 451.359 327.4256 450.9075 326.5226 449.553 324.2652 447.7471 323.3622 448.6501 322.9107 448.1986 320.2018 444.5867 319.2988 445.0382 317.9444 445.0382 318.8473 441.4263 318.3959 441.4263 317.9444 439.6203 316.1384 439.6203 317.0414 438.2658 317.0414 437.3629 316.1384 437.3629 317.4929 435.1054 317.0414 434.2025 315.6869 434.2025 314.784 433.2995 312.075 432.848 311.6235 432.3965 309.8176 432.3965 308.4631 433.2995 305.3027 431.945 305.3027 429.6876 306.2057 428.7846 305.7542 426.9787 306.2057 426.0757 307.1087 425.6242 308.0116 426.0757 Z" id="SB.MK" fill="#cee3f5" stroke="#6e6e6e" stroke-width="0.4">
      <desc>
        <labelrank>6</labelrank>
        <code_hasc>SB.MK</code_hasc>
        <name>Makira</name>
        <admin>Solomon Islands</admin>
        <type_en>Province</type_en>
        <region/>
        <woe_id>2344841</woe_id>
        <longitude>161</longitude>
        <woe_name>Makira</woe_name>
        <fips>BP08</fips>
        <woe_label>Makira, SB, Solomon Islands</woe_label>
        <latitude>-10</latitude>
        <iso_a2>SB</iso_a2>
        <postal>MK</postal>
        <type>Province</type>
        <id>SB.MK</id>
      </desc>
    </path>
    <path d="M 234.8706 384.5388 238.031 384.5388 239.3855 384.0873 240.2885 384.5388 239.837 385.8933 239.3855 386.3448 238.934 385.8933 237.1281 385.8933 235.7736 385.4418 234.8706 384.5388 Z" id="SB.CT" fill="#cee3f5" stroke="#6e6e6e" stroke-width="0.4">
      <desc>
        <labelrank>6</labelrank>
        <code_hasc>SB.CT</code_hasc>
        <name>Capital Territory (Honiara)</name>
        <admin>Solomon Islands</admin>
        <type_en>Province</type_en>
        <region/>
        <woe_id>-2344839</woe_id>
        <longitude>160</longitude>
        <woe_name/>
        <fips>BP06</fips>
        <woe_label/>
        <latitude>-9</latitude>
        <iso_a2>SB</iso_a2>
        <postal>GC</postal>
        <type>Province</type>
        <id>SB.CT</id>
      </desc>
    </path>
  </g>
</svg>