<?xml version="1.0" encoding="UTF-8"?>
<svg xmlns="http://www.w3.org/2000/svg" width="700" height="700">
  <g id="belize">
    <path d="M 377.0439 640.217 376.3205 639.6897 376.9965 639.3452 377.0439 640.217 Z M 359.1507 625.562 359.0299 626.3347 358.6333 625.7983 359.1507 625.562 Z M 262.7702 618.4368 261.8542 619.704 260.0181 617.6512 261.234 617.0403 261.403 615.7124 263.3171 613.4074 262.831 614.907 264.6202 616.262 262.7702 618.4368 Z M 433.4004 551.8515 432.5587 551.9778 433.0054 550.978 433.4004 551.8515 Z M 369.8139 530.8532 368.3728 531.0618 369.6158 528.9672 371.8636 529.1341 372.5799 530.533 369.8139 530.8532 Z M 400.3458 487.105 400.5553 490.7774 399.8251 489.9452 399.397 487.7531 400.3458 487.105 Z M 498.1476 473.7949 495.9402 474.5921 497.197 472.6583 499.6483 471.1757 498.1476 473.7949 Z M 417.6786 449.6972 417.1118 449.7267 415.9799 447.6397 416.8808 445.9998 417.6786 449.6972 Z M 422.0481 433.5443 420.8072 436.0212 420.3282 434.3861 422.0481 433.5443 Z M 418.9868 429.5076 420.2721 434.1555 419.324 433.0064 418.9868 429.5076 Z M 422.678 429.6152 421.454 432.8548 420.9758 428.2986 422.7702 426.1951 422.678 429.6152 Z M 432.8408 405.9112 429.626 407.223 429.1249 406.8282 430.7567 405.5297 432.8408 405.9112 Z M 436.0925 397.5731 436.7273 400.4306 436.0784 400.242 435.4053 398.6915 436.0925 397.5731 Z M 436.7207 377.8045 436.0182 379.8815 432.1836 379.8611 430.4065 381.0498 431.9898 376.9296 436.3293 376.5388 436.7207 377.8045 Z M 571.2887 353.2609 570.8057 353.7715 569.791 353.4312 570.1181 352.4626 571.2887 353.2609 Z M 553.0948 355.4647 552.039 358.3916 552.3657 354.199 554.1498 349.2918 556.0725 350.5501 555.9106 352.2052 553.0948 355.4647 Z M 420.9088 352.0416 420.301 352.1253 420.3139 349.8376 421.4575 347.5672 423.2001 348.6555 420.9088 352.0416 Z M 423.1426 330.8871 422.8272 331.1359 422.2004 329.0516 422.3861 323.9651 423.1964 321.3115 424.0258 320.8478 425.3283 323.7311 424.685 328.3465 423.1426 330.8871 Z M 430.854 298.9669 428.918 300.9934 427.1441 298.3254 426.8715 296.559 428.7935 295.1535 430.854 298.9669 Z M 576.6661 284.6628 575.3678 285.3348 571.6187 283.6039 571.5601 282.0679 573.7396 280.2219 576.4672 280.6646 577.5072 282.8349 576.6661 284.6628 Z M 408.1623 262.6891 407.3458 266.3448 404.6471 263.169 404.1701 260.8238 405.7706 260.6156 408.1623 262.6891 Z M 398.0999 258.6837 397.7836 259.1176 397.0195 254.2755 399.0983 254.4301 399.9242 256.0803 399.8007 257.4741 398.0999 258.6837 Z M 399.2747 252.9604 397.8148 254.1171 397.702 252.09 400.5722 247.6301 401.0398 249.7465 399.2747 252.9604 Z M 434.8389 214.9837 433.2305 218.7987 433.4115 214.3984 434.8657 210.1359 434.8389 214.9837 Z M 439.3077 201.6518 435.3689 205.977 434.8863 204.5254 435.8922 201.9599 437.0275 202.4346 438.111 200.948 437.9643 199.1278 436.6867 197.966 437.4378 192.3595 438.7559 189.9046 440.0301 189.7482 438.9623 192.248 438.5393 197.061 439.3077 201.6518 Z M 431.9156 173.928 428.8349 174.4117 427.2513 172.1911 434.0387 173.0139 431.9156 173.928 Z M 439.6649 125.1635 437.5462 129.4115 438.177 124.7085 439.6649 125.1635 Z" id="BZ.5784" fill="#cee3f5" stroke="#6e6e6e" stroke-width="0.4">
      <desc>
        <labelrank>20</labelrank>
        <code_hasc>-99</code_hasc>
        <name/>
        <admin>Belize</admin>
        <type_en/>
        <region/>
        <woe_id>-99</woe_id>
        <longitude>-88</longitude>
        <woe_name/>
        <fips/>
        <woe_label/>
        <latitude>16</latitude>
        <iso_a2>BZ</iso_a2>
        <postal/>
        <type/>
        <id>BZ.5784</id>
      </desc>
    </path>
    <path d="M 495.267 316.4685 495.2719 322.8083 493.5139 322.801 493.5293 319.1409 491.0861 320.3397 489.8617 322.7855 490.1405 306.5557 489.2908 299.8091 486.4579 297.019 489.6812 294.1789 492.6416 298.9738 496.9184 311.8566 495.7175 313.8233 495.267 316.4685 Z M 425.2663 265.8611 427.6403 269.4042 425.1914 277.2778 423.415 277.0716 422.3056 268.0993 420.2447 268.3599 418.0344 267.3231 414.932 263.3503 414.9726 261.7708 416.7039 260.648 420.5103 262.1734 425.2663 265.8611 Z M 499.2304 258.6634 500.7865 264.0075 499.7141 268.0555 494.3597 278.4907 488.2979 287.5933 484.5643 290.0171 479.479 286.0074 476.8239 290.3527 473.5599 292.8432 470.585 296.0646 468.7133 302.5811 467.056 314.5452 463.9099 322.5369 463.6406 326.3266 459.9955 322.6487 461.3018 320.8685 462.4162 313.3138 464.8366 303.8807 466.1324 291.0434 468.1918 286.8265 475.9907 280.5229 481.285 275.0675 483.8787 274.8504 487.6981 276.4577 490.9162 276.9291 493.4039 274.6086 495.4019 269.3664 495.9064 263.7476 493.7782 260.3398 488.5566 264.1954 486.6031 263.9472 486.736 262.2484 489.3492 254.9829 496.0853 256.014 499.2304 258.6634 Z M 433.8684 252.727 432.1232 252.7174 430.8418 250.1174 428.6203 243.7537 425.4134 228.8974 428.9166 231.9241 431.4292 238.4421 433.8684 252.727 Z M 410.6712 220.7709 402.343 221.4501 402.3298 220.1971 404.1201 217.8004 409.5133 215.3493 424.1377 205.4779 427.1313 204.1441 424.722 212.8242 418.6971 218.1385 410.6712 220.7709 Z M 402.084 263.502 398.9578 268.6795 392.3303 268.5726 385.7504 267.5501 382.7657 269.9493 382.0695 274.0958 371.2087 309.4542 367.2549 352.7347 369.0394 358.401 370.011 363.5062 370.0494 364.0403 370.0501 364.0493 366.6512 367.5578 361.3692 369.5423 360.0202 370.301 357.6066 371.0732 289.3851 371.8174 295.1772 369.7614 295.9856 369.3459 296.5889 368.7972 297.0995 368.1856 298.0175 366.5463 298.2676 365.2268 298.7141 364.3101 300.2843 362.6345 300.8674 361.2623 303.432 353.3122 303.4982 350.8496 303.3024 347.8867 301.1891 342.7428 298.3437 338.5546 298.0095 337.1335 298.4352 327.2911 296.2751 273.9129 295.6814 270.2407 294.7319 268.6414 292.5652 269.682 289.4469 275.6895 283.3625 278.1774 280.5097 239.3554 280.7306 234.5413 284.129 225.167 287.0866 220.6532 299.3943 215.5329 300.5916 214.3181 300.7452 212.5826 299.1943 207.6847 299.0774 205.8016 299.9063 199.4427 299.8725 197.9271 299.1138 191.9285 299.1064 190.4408 299.2356 189.2586 300.8723 182.1868 300.9808 178.7142 300.7691 177.0932 299.8846 173.5016 299.7353 171.5559 300.0362 168.8599 300.6188 166.5467 302.2543 161.9244 315.8776 154.2798 372.8587 140.0737 402.943 143.5771 392.1825 164.3832 393.6922 171.3114 390.4494 193.5274 384.0407 215.6353 381.9747 220.0996 375.2475 227.9973 372.5191 232.8925 371.3205 238.6153 372.4055 245.0399 375.4871 248.3183 384.6111 253.0307 386.4974 257.0958 388.9394 259.3341 399.6935 261.2866 402.084 263.502 Z M 453.39 113.5585 450.6157 114.045 449.8745 112.3524 451.7328 109.7149 455.2936 108.1975 456.0503 108.9531 455.4731 111.7391 453.39 113.5585 Z M 460.6804 108.149 458.5573 109.7178 457.6623 109.528 456.9351 107.0948 457.3671 106.171 460.0438 104.2891 461.4128 101.42 462.022 102.4907 462.1949 105.3678 460.6804 108.149 Z M 485.0636 91.5338 484.6091 97.4799 481.2094 100.5799 479.2992 103.5995 474.0003 117.9765 471.4863 122.7905 467.9944 120.7797 466.3761 125.5761 462.7156 128.0743 462.7065 129.8827 464.5843 133.7379 467.0097 130.2202 467.9673 126.2703 469.562 126.2781 467.4829 137.8376 462.4461 148.4671 454.3974 156.2372 443.3052 159.1962 443.315 157.3878 446.8193 157.4066 456.1986 150.7558 459.549 146.0775 460.9081 139.1992 456.862 139.3855 457.9888 131.0898 462.7848 114.3695 465.761 110.9964 466.4721 106.2826 470.3336 92.2044 472.8655 89.8418 476.8773 91.5716 482.5291 87.8615 485.0636 91.5338 Z M 478.2596 79.0606 477.1781 83.1081 474.7264 86.2339 473.2643 84.9522 473.9946 80.3801 475.0123 78.7835 475.811 79.4192 475.634 77.2504 478.1085 77.9813 478.2596 79.0606 Z" id="BZ.BZ" fill="#cee3f5" stroke="#6e6e6e" stroke-width="0.4">
      <desc>
        <labelrank>9</labelrank>
        <code_hasc>BZ.BZ</code_hasc>
        <name>Belize</name>
        <admin>Belize</admin>
        <type_en>District</type_en>
        <region/>
        <woe_id>2344794</woe_id>
        <longitude>-88</longitude>
        <woe_name>Belize</woe_name>
        <fips>BH01</fips>
        <woe_label>Belize, BZ, Belize</woe_label>
        <latitude>17</latitude>
        <iso_a2>BZ</iso_a2>
        <postal>BZ</postal>
        <type>District</type>
        <id>BZ.BZ</id>
      </desc>
    </path>
    <path d="M 289.3851 371.8174 288.4851 374.4462 289.4249 376.6888 293.0749 382.8074 298.3656 387.8041 298.2675 390.0727 294.7259 393.4344 290.4866 403.1212 287.2074 408.4151 282.9516 411.7427 281.1415 414.8066 273.3317 423.2448 272.3064 433.428 272.44 438.1272 271.3035 440.1519 267.9632 441.9709 266.0251 444.2031 266.2364 445.2082 270.5777 448.767 270.4573 449.6101 269.6652 450.2815 263.9851 451.2986 259.0254 452.9788 256.3676 455.1006 249.153 465.9768 244.8257 475.0236 243.2917 480.3033 244.1383 484.8292 239.7881 485.0395 235.5311 488.1979 232.0393 492.9753 231.8223 494.0943 233.0626 500.0287 232.317 502.7897 227.0645 508.0698 222.8584 511.221 217.8015 513.2361 208.5092 519.8607 204.1395 520.3519 199.7456 522.6485 197.4295 525.3872 197.7062 528.5177 196.6438 529.3101 186.4327 533.0714 183.886 533.3714 180.4991 530.2304 178.4597 529.2203 170.774 536.575 167.0585 538.8277 156.4458 540.3095 147.3252 543.9437 145.0192 546.0092 142.5975 551.3747 138.0385 556.6688 135.1566 560.9956 137.7269 533.3679 148.3756 388.7315 148.8292 312.4573 156.6635 306.1549 167.4207 299.1852 171.0631 297.9096 173.9088 297.7879 177.9818 299.1186 207.8975 296.0502 211.4772 294.9026 214.1599 293.0676 217.6034 288.8387 219.3432 288.2468 227.7436 289.3181 247.076 289.3415 252.9352 288.6272 257.5334 287.029 265.1639 282.0391 272.5411 279.9937 277.7966 277.4653 279.7468 276.9701 283.3625 278.1774 289.4469 275.6895 292.5652 269.682 294.7319 268.6414 295.6814 270.2407 296.2751 273.9129 298.4352 327.2911 298.0095 337.1335 298.3437 338.5546 301.1891 342.7428 303.3024 347.8867 303.4982 350.8496 303.432 353.3122 300.8674 361.2623 300.2843 362.6345 298.7141 364.3101 298.2676 365.2268 298.0175 366.5463 297.0995 368.1856 296.5889 368.7972 295.9856 369.3459 295.1772 369.7614 289.3851 371.8174 Z" id="BZ.CY" fill="#cee3f5" stroke="#6e6e6e" stroke-width="0.4">
      <desc>
        <labelrank>9</labelrank>
        <code_hasc>BZ.CY</code_hasc>
        <name>Cayo</name>
        <admin>Belize</admin>
        <type_en>District</type_en>
        <region/>
        <woe_id>2344795</woe_id>
        <longitude>-88</longitude>
        <woe_name>Cayo</woe_name>
        <fips>BH02</fips>
        <woe_label>Cayo, BZ, Belize</woe_label>
        <latitude>16</latitude>
        <iso_a2>BZ</iso_a2>
        <postal>CY</postal>
        <type>District</type>
        <id>BZ.CY</id>
      </desc>
    </path>
    <path d="M 372.8587 140.0737 337.8863 107.9148 319.4855 82.4304 307.8387 73.7399 291.6022 66.4109 289.0112 65.8408 290.7205 56.1199 293.2238 51.8308 301.2069 42.7867 304.4149 37.8043 306.3886 27.9535 308.7486 21.5381 310.1843 13.4542 311.5427 10.5663 321.4683 2.5184 324.0341 2.8301 329.0151 4.9326 331.269 4.6394 340.9042 1 342.2406 1.4948 346.6099 5.0783 351.5607 3.4832 367.3861 3.4691 368.8387 3.7296 368.8318 4.6885 373.201 8.7296 368.1317 15.2528 348.2331 29.3903 346.3416 33.2224 349.2331 37.4395 352.8521 37.6957 365.1381 32.2292 363.6741 36.1194 361.2613 40.2424 353.9257 49.973 354.6451 51.1987 356.6235 51.0827 358.8938 49.4759 363.2373 44.6697 371.7613 38.6183 375.7802 36.7507 380.0303 35.9958 385.7363 36.8413 396.4836 41.5982 401.9201 40.8055 409.6945 35.4944 418.564 32.8255 421.5727 32.4406 422.8982 33.4401 422.3762 37.2176 420.9464 39.6822 415.8454 43.5517 409.9926 46.0213 408.8513 47.1473 408.7496 50.0775 410.5877 50.71 412.8309 49.787 414.7652 46.6175 416.8657 45.1595 421.9633 43.5889 422.7974 45.0538 424.6802 76.7263 422.4936 101.2708 421.6354 105.4494 418.0129 111.834 417.1541 116.0234 407.3726 140.5538 402.943 143.5771 372.8587 140.0737 Z" id="BZ.CZ" fill="#cee3f5" stroke="#6e6e6e" stroke-width="0.4">
      <desc>
        <labelrank>9</labelrank>
        <code_hasc>BZ.CZ</code_hasc>
        <name>Corozal</name>
        <admin>Belize</admin>
        <type_en>District</type_en>
        <region/>
        <woe_id>2344796</woe_id>
        <longitude>-88</longitude>
        <woe_name>Corozal</woe_name>
        <fips>BH03</fips>
        <woe_label>Corozal, BZ, Belize</woe_label>
        <latitude>18</latitude>
        <iso_a2>BZ</iso_a2>
        <postal>CZ</postal>
        <type>District</type>
        <id>BZ.CZ</id>
      </desc>
    </path>
    <path d="M 372.8587 140.0737 315.8776 154.2798 302.2543 161.9244 300.6188 166.5467 300.0362 168.8599 299.7353 171.5559 299.8846 173.5016 300.7691 177.0932 300.9808 178.7142 300.8723 182.1868 299.2356 189.2586 299.1064 190.4408 299.1138 191.9285 299.8725 197.9271 299.9063 199.4427 299.0774 205.8016 299.1943 207.6847 300.7452 212.5826 300.5916 214.3181 299.3943 215.5329 287.0866 220.6532 284.129 225.167 280.7306 234.5413 280.5097 239.3554 283.3625 278.1774 279.7468 276.9701 277.7966 277.4653 272.5411 279.9937 265.1639 282.0391 257.5334 287.029 252.9352 288.6272 247.076 289.3415 227.7436 289.3181 219.3432 288.2468 217.6034 288.8387 214.1599 293.0676 211.4772 294.9026 207.8975 296.0502 177.9818 299.1186 173.9088 297.7879 171.0631 297.9096 167.4207 299.1852 156.6635 306.1549 148.8292 312.4573 147.8653 156.9645 149.8965 146.3699 155.4648 138.6125 176.8574 131.1015 182.3261 133.072 190.2981 141.2563 194.5744 144.6242 197.6246 144.9749 200.5387 144.3967 202.9638 144.9758 206.4026 152.5416 209.669 155.0946 219.8966 161.22 222.2024 160.5788 223.7611 158.4352 224.9797 152.5233 226.1383 150.611 239.3226 140.9138 241.7607 138.1001 246.7714 125.2488 257.216 117.8049 259.7485 113.8634 262.1465 102.2875 268.6103 91.6419 269.4913 88.6398 268.6459 84.902 267.7138 84.1184 275.0518 78.7811 282.5568 75.2711 285.626 72.9664 288.234 68.9414 289.0112 65.8408 291.6022 66.4109 307.8387 73.7399 319.4855 82.4304 337.8863 107.9148 372.8587 140.0737 Z" id="BZ.OW" fill="#cee3f5" stroke="#6e6e6e" stroke-width="0.4">
      <desc>
        <labelrank>9</labelrank>
        <code_hasc>BZ.OW</code_hasc>
        <name>Orange Walk</name>
        <admin>Belize</admin>
        <type_en>District</type_en>
        <region/>
        <woe_id>2344797</woe_id>
        <longitude>-88</longitude>
        <woe_name>Orange Walk</woe_name>
        <fips>BH04</fips>
        <woe_label>Orange Walk, BZ, Belize</woe_label>
        <latitude>17</latitude>
        <iso_a2>BZ</iso_a2>
        <postal>OW</postal>
        <type>District</type>
        <id>BZ.OW</id>
      </desc>
    </path>
    <path d="M 342.9311 534.7079 339.9654 533.4583 339.2788 531.4127 338.2129 531.1424 335.6249 530.9374 330.2798 531.7712 313.7563 530.6337 311.4052 530.8859 300.9384 529.3534 299.3886 528.6634 300.8722 525.8245 301.936 516.8109 301.4135 514.4823 296.2847 505.6834 292.0414 500.6893 293.0026 494.7122 290.8453 490.0595 280.6123 483.8191 270.9901 482.1619 251.6284 482.4735 244.1383 484.8292 243.2917 480.3033 244.8257 475.0236 249.153 465.9768 256.3676 455.1006 259.0254 452.9788 263.9851 451.2986 269.6652 450.2815 270.4573 449.6101 270.5777 448.767 266.2364 445.2082 266.0251 444.2031 267.9632 441.9709 271.3035 440.1519 272.44 438.1272 272.3064 433.428 273.3317 423.2448 281.1415 414.8066 282.9516 411.7427 287.2074 408.4151 290.4866 403.1212 294.7259 393.4344 298.2675 390.0727 298.3656 387.8041 293.0749 382.8074 289.4249 376.6888 288.4851 374.4462 289.3851 371.8174 357.6066 371.0732 360.0202 370.301 361.3692 369.5423 366.6512 367.5578 370.0501 364.0493 372.5377 375.921 380.4482 379.197 383.5447 383.2913 385.6498 388.4794 386.829 394.3043 387.4469 402.7948 388.8951 409.3186 388.2677 412.4304 381.8413 413.9481 379.0042 416.5338 375.4549 420.5747 372.4572 425.1963 371.1811 429.4913 372.2924 434.4228 377.2769 442.3641 378.2442 446.9894 379.593 447.7278 380.2464 448.9412 379.9953 450.4866 374.5602 450.452 371.2696 453.0346 369.937 454.6492 368.8213 458.3787 366.2507 461.4886 365.6656 464.2737 365.907 467.4782 367.3634 474.3294 364.8562 493.2908 363.2409 496.189 358.3614 501.8763 355.3367 512.7941 353.9065 516.1291 352.9922 520.8402 354.6599 527.584 351.7165 532.4014 349.9707 532.5639 349.2213 528.3863 357.5153 498.0141 361.8936 493.4457 363.5705 490.7658 356.7424 494.2177 349.6497 511.7208 343.9946 518.2187 349.2765 520.2486 346.1788 521.4912 342.2262 520.2002 343.4001 523.6728 347.4653 523.8968 347.454 525.5526 344.6987 527.3749 342.736 530.0524 342.2619 533.2739 342.9311 534.7079 Z" id="BZ.SC" fill="#cee3f5" stroke="#6e6e6e" stroke-width="0.4">
      <desc>
        <labelrank>8</labelrank>
        <code_hasc>BZ.SC</code_hasc>
        <name>Stann Creek</name>
        <admin>Belize</admin>
        <type_en>District</type_en>
        <region/>
        <woe_id>2344798</woe_id>
        <longitude>-88</longitude>
        <woe_name>Stann Creek</woe_name>
        <fips>BH05</fips>
        <woe_label>Stann Creek, BZ, Belize</woe_label>
        <latitude>16</latitude>
        <iso_a2>BZ</iso_a2>
        <postal>SC</postal>
        <type>District</type>
        <id>BZ.SC</id>
      </desc>
    </path>
    <path d="M 342.9311 534.7079 343.8677 536.6622 338.9865 540.2672 333.6246 550.8192 328.7513 553.018 327.8134 562.152 326.3348 563.0348 324.9675 563.0467 324.1118 562.1254 321.923 563.7547 320.573 565.7387 317.191 573.7217 316.1611 575.0215 314.1331 576.1505 307.2605 585.0115 304.6465 591.2238 304.6179 595.0368 301.7989 594.8522 295.6158 596.9731 293.8069 602.276 293.8928 591.1418 292.125 591.1281 290.3014 596.932 286.6641 597.7534 283.1142 595.4919 280.5334 590.5139 276.1962 590.7189 275.268 590.9947 274.934 591.9508 275.0117 596.6583 274.2499 598.4608 263.6369 600.2044 259.041 603.533 255.5847 603.9616 251.9074 605.6303 250.798 609.8158 251.2678 620.2146 250.2728 625.7849 247.7848 629.8171 244.1196 632.2918 238.2719 633.7668 235.4374 637.5122 234.2592 642.1546 232.6672 643.5027 227.917 645.7709 223.7216 649.5691 222.5585 651.215 221.9103 654.1731 222.0946 657.1386 221.3575 659.4311 214.5746 661.3423 210.0818 664.0038 205.7177 667.5269 202.7644 671.1501 201.7963 677.7883 207.1018 688.9955 206.0849 695.2627 196.2255 699 173.3607 692.8723 165.0503 692.8459 157.6451 694.0315 137.8196 692.9013 133.0511 694.8169 127.6546 695.9088 125.1903 697.1145 124.5985 697.9664 122.4928 694.442 123.2839 678.1034 130.5828 616.2571 135.1566 560.9956 138.0385 556.6688 142.5975 551.3747 145.0192 546.0092 147.3252 543.9437 156.4458 540.3095 167.0585 538.8277 170.774 536.575 178.4597 529.2203 180.4991 530.2304 183.886 533.3714 186.4327 533.0714 196.6438 529.3101 197.7062 528.5177 197.4295 525.3872 199.7456 522.6485 204.1395 520.3519 208.5092 519.8607 217.8015 513.2361 222.8584 511.221 227.0645 508.0698 232.317 502.7897 233.0626 500.0287 231.8223 494.0943 232.0393 492.9753 235.5311 488.1979 239.7881 485.0395 244.1383 484.8292 251.6284 482.4735 270.9901 482.1619 280.6123 483.8191 290.8453 490.0595 293.0026 494.7122 292.0414 500.6893 296.2847 505.6834 301.4135 514.4823 301.936 516.8109 300.8722 525.8245 299.3886 528.6634 300.9384 529.3534 311.4052 530.8859 313.7563 530.6337 330.2798 531.7712 335.6249 530.9374 338.2129 531.1424 339.2788 531.4127 339.9654 533.4583 342.9311 534.7079 Z" id="BZ.TO" fill="#cee3f5" stroke="#6e6e6e" stroke-width="0.4">
      <desc>
        <labelrank>8</labelrank>
        <code_hasc>BZ.TO</code_hasc>
        <name>Toledo</name>
        <admin>Belize</admin>
        <type_en>District</type_en>
        <region/>
        <woe_id>2344799</woe_id>
        <longitude>-88</longitude>
        <woe_name>Toledo</woe_name>
        <fips>BH06</fips>
        <woe_label>Toledo, BZ, Belize</woe_label>
        <latitude>16</latitude>
        <iso_a2>BZ</iso_a2>
        <postal>TO</postal>
        <type>District</type>
        <id>BZ.TO</id>
      </desc>
    </path>
  </g>
</svg>