<?xml version="1.0" encoding="UTF-8"?>
<svg xmlns="http://www.w3.org/2000/svg" width="700" height="700">
  <g id="tennessee">
    <path d="M 234.8925 363.607 243.7187 358.4584 245.1897 348.1612 280.4942 359.9294 274.6101 374.6396 265.784 383.4658 252.5448 380.5237 245.9252 382.7302 238.5701 381.2592 239.3056 373.1686 234.8925 363.607 Z" id="US.TN.119" fill="#cee3f5" stroke="#6e6e6e" stroke-width="0.4">
      <desc>
        <name>Maury County</name>
        <stateAbbrev>TN</stateAbbrev>
        <state>Tennessee</state>
        <fips>119</fips>
        <incits>47119</incits>
        <id>US.TN.119</id>
        <population>83761</population>
      </desc>
    </path>
    <path d="M 48.0727 320.9473 59.8409 318.7408 87.0548 319.4763 84.1128 336.393 76.7576 345.2192 71.6091 345.9547 66.4605 340.8061 47.3372 343.7482 39.9821 335.6575 48.0727 320.9473 Z" id="US.TN.045" fill="#cee3f5" stroke="#6e6e6e" stroke-width="0.4">
      <desc>
        <name>Dyer County</name>
        <stateAbbrev>TN</stateAbbrev>
        <state>Tennessee</state>
        <fips>045</fips>
        <incits>47045</incits>
        <id>US.TN.045</id>
        <population>38213</population>
      </desc>
    </path>
    <path d="M 58.3699 370.2266 66.4605 351.1033 70.8736 351.1033 77.4932 356.2518 93.6744 361.4004 92.9389 382.7302 84.8483 384.9368 61.3119 384.9368 58.3699 370.2266 Z" id="US.TN.075" fill="#cee3f5" stroke="#6e6e6e" stroke-width="0.4">
      <desc>
        <name>Haywood County</name>
        <stateAbbrev>TN</stateAbbrev>
        <state>Tennessee</state>
        <fips>075</fips>
        <incits>47075</incits>
        <id>US.TN.075</id>
        <population>18224</population>
      </desc>
    </path>
    <path d="M 47.3372 343.7482 66.4605 340.8061 71.6091 345.9547 70.8736 351.1033 66.4605 351.1033 58.3699 370.2266 48.0727 365.078 37.7756 364.3425 25.2719 373.9041 22.3298 357.7229 33.3625 355.5163 39.2466 343.7482 47.3372 343.7482 Z" id="US.TN.097" fill="#cee3f5" stroke="#6e6e6e" stroke-width="0.4">
      <desc>
        <name>Lauderdale County</name>
        <stateAbbrev>TN</stateAbbrev>
        <state>Tennessee</state>
        <fips>097</fips>
        <incits>47097</incits>
        <id>US.TN.097</id>
        <population>27795</population>
      </desc>
    </path>
    <path d="M 25.2719 373.9041 37.7756 364.3425 48.0727 365.078 58.3699 370.2266 61.3119 384.9368 48.0727 387.1433 15.7102 385.6723 10.5616 388.6143 18.6523 371.6976 25.2719 373.9041 Z" id="US.TN.167" fill="#cee3f5" stroke="#6e6e6e" stroke-width="0.4">
      <desc>
        <name>Tipton County</name>
        <stateAbbrev>TN</stateAbbrev>
        <state>Tennessee</state>
        <fips>167</fips>
        <incits>47167</incits>
        <id>US.TN.167</id>
        <population>61586</population>
      </desc>
    </path>
    <path d="M 10.5616 388.6143 15.7102 385.6723 48.0727 387.1433 47.3372 418.0348 1 415.8282 11.2972 398.9115 5.4131 395.9694 10.5616 388.6143 Z" id="US.TN.157" fill="#cee3f5" stroke="#6e6e6e" stroke-width="0.4">
      <desc>
        <name>Shelby County</name>
        <stateAbbrev>TN</stateAbbrev>
        <state>Tennessee</state>
        <fips>157</fips>
        <incits>47157</incits>
        <id>US.TN.157</id>
        <population>939465</population>
      </desc>
    </path>
    <path d="M 47.3372 418.0348 48.0727 387.1433 61.3119 384.9368 84.8483 384.9368 83.3772 418.0348 47.3372 418.0348 Z" id="US.TN.047" fill="#cee3f5" stroke="#6e6e6e" stroke-width="0.4">
      <desc>
        <name>Fayette County</name>
        <stateAbbrev>TN</stateAbbrev>
        <state>Tennessee</state>
        <fips>047</fips>
        <incits>47047</incits>
        <id>US.TN.047</id>
        <population>38690</population>
      </desc>
    </path>
    <path d="M 163.5479 326.0959 173.8451 315.0632 173.1096 306.9726 181.9357 306.9726 182.6712 306.9726 184.8778 316.5342 187.8198 326.0959 181.2002 333.451 187.0843 341.5416 184.1423 348.8967 183.4067 351.1033 166.49 348.8967 163.5479 348.8967 163.5479 326.0959 Z" id="US.TN.005" fill="#cee3f5" stroke="#6e6e6e" stroke-width="0.4">
      <desc>
        <name>Benton County</name>
        <stateAbbrev>TN</stateAbbrev>
        <state>Tennessee</state>
        <fips>005</fips>
        <incits>47005</incits>
        <id>US.TN.005</id>
        <population>16290</population>
      </desc>
    </path>
    <path d="M 485.7018 287.8493 506.2961 287.8493 515.1222 301.824 506.2961 314.3277 501.1475 317.2698 488.6438 316.5342 476.8757 318.7408 480.5532 312.8567 478.3467 298.1465 486.4373 294.4689 485.7018 287.8493 Z" id="US.TN.013" fill="#cee3f5" stroke="#6e6e6e" stroke-width="0.4">
      <desc>
        <name>Campbell County</name>
        <stateAbbrev>TN</stateAbbrev>
        <state>Tennessee</state>
        <fips>013</fips>
        <incits>47013</incits>
        <id>US.TN.013</id>
        <population>40238</population>
      </desc>
    </path>
    <path d="M 123.8303 353.3098 124.5659 331.2445 137.8051 323.8894 163.5479 326.0959 163.5479 348.8967 166.49 348.8967 166.49 351.1033 134.1275 350.3678 131.921 353.3098 123.8303 353.3098 Z" id="US.TN.017" fill="#cee3f5" stroke="#6e6e6e" stroke-width="0.4">
      <desc>
        <name>Carroll County</name>
        <stateAbbrev>TN</stateAbbrev>
        <state>Tennessee</state>
        <fips>017</fips>
        <incits>47017</incits>
        <id>US.TN.017</id>
        <population>28513</population>
      </desc>
    </path>
    <path d="M 646.0432 304.0306 654.8693 303.295 671.7861 294.4689 667.373 304.7661 675.4636 314.3277 667.373 326.0959 659.2824 327.5669 651.9273 323.1538 642.3656 315.7987 646.0432 304.0306 Z" id="US.TN.019" fill="#cee3f5" stroke="#6e6e6e" stroke-width="0.4">
      <desc>
        <name>Carter County</name>
        <stateAbbrev>TN</stateAbbrev>
        <state>Tennessee</state>
        <fips>019</fips>
        <incits>47019</incits>
        <id>US.TN.019</id>
        <population>57338</population>
      </desc>
    </path>
    <path d="M 239.3056 309.9146 252.5448 298.882 263.5774 306.2371 269.4615 304.7661 258.4289 332.7155 247.3962 331.98 250.3383 320.9473 248.1317 310.6502 239.3056 309.9146 Z" id="US.TN.021" fill="#cee3f5" stroke="#6e6e6e" stroke-width="0.4">
      <desc>
        <name>Cheatham County</name>
        <stateAbbrev>TN</stateAbbrev>
        <state>Tennessee</state>
        <fips>021</fips>
        <incits>47021</incits>
        <id>US.TN.021</id>
        <population>39492</population>
      </desc>
    </path>
    <path d="M 112.7977 382.7302 126.0369 377.5817 131.1855 370.2266 148.1022 378.3172 151.7798 383.4658 151.7798 386.4078 138.5406 386.4078 126.7724 390.0854 117.2107 397.4405 112.7977 382.7302 Z" id="US.TN.023" fill="#cee3f5" stroke="#6e6e6e" stroke-width="0.4">
      <desc>
        <name>Chester County</name>
        <stateAbbrev>TN</stateAbbrev>
        <state>Tennessee</state>
        <fips>023</fips>
        <incits>47023</incits>
        <id>US.TN.023</id>
        <population>17321</population>
      </desc>
    </path>
    <path d="M 506.2961 287.8493 532.7745 288.5848 550.4268 287.1138 556.3109 292.2624 557.0464 302.5595 550.4268 306.2371 534.2455 308.4436 523.2129 300.353 515.1222 301.824 506.2961 287.8493 Z" id="US.TN.025" fill="#cee3f5" stroke="#6e6e6e" stroke-width="0.4">
      <desc>
        <name>Claiborne County</name>
        <stateAbbrev>TN</stateAbbrev>
        <state>Tennessee</state>
        <fips>025</fips>
        <incits>47025</incits>
        <id>US.TN.025</id>
        <population>31560</population>
      </desc>
    </path>
    <path d="M 359.1939 295.2044 361.4004 285.6428 403.3246 284.9073 402.589 292.2624 390.0854 295.2044 384.9368 303.295 378.3172 297.411 359.1939 295.2044 Z" id="US.TN.027" fill="#cee3f5" stroke="#6e6e6e" stroke-width="0.4">
      <desc>
        <name>Clay County</name>
        <stateAbbrev>TN</stateAbbrev>
        <state>Tennessee</state>
        <fips>027</fips>
        <incits>47027</incits>
        <id>US.TN.027</id>
        <population>7774</population>
      </desc>
    </path>
    <path d="M 71.6091 345.9547 76.7576 345.2192 84.1128 336.393 90.7323 347.4257 106.1781 352.5743 98.0875 362.8714 93.6744 361.4004 77.4932 356.2518 70.8736 351.1033 71.6091 345.9547 Z" id="US.TN.033" fill="#cee3f5" stroke="#6e6e6e" stroke-width="0.4">
      <desc>
        <name>Crockett County</name>
        <stateAbbrev>TN</stateAbbrev>
        <state>Tennessee</state>
        <fips>033</fips>
        <incits>47033</incits>
        <id>US.TN.033</id>
        <population>14591</population>
      </desc>
    </path>
    <path d="M 269.4615 304.7661 276.8166 307.7081 282.7007 303.295 295.9399 316.5342 301.824 328.3024 293.7334 338.5996 279.7587 333.451 258.4289 332.7155 269.4615 304.7661 Z" id="US.TN.037" fill="#cee3f5" stroke="#6e6e6e" stroke-width="0.4">
      <desc>
        <name>Davidson County</name>
        <stateAbbrev>TN</stateAbbrev>
        <state>Tennessee</state>
        <fips>037</fips>
        <incits>47037</incits>
        <id>US.TN.037</id>
        <population>658602</population>
      </desc>
    </path>
    <path d="M 161.3414 383.4658 161.3414 374.6396 165.7545 368.02 166.49 351.1033 166.49 348.8967 183.4067 351.1033 178.2582 358.4584 178.2582 367.2845 183.4067 376.1106 180.4647 383.4658 178.9937 385.6723 165.7545 386.4078 161.3414 383.4658 Z" id="US.TN.039" fill="#cee3f5" stroke="#6e6e6e" stroke-width="0.4">
      <desc>
        <name>Decatur County</name>
        <stateAbbrev>TN</stateAbbrev>
        <state>Tennessee</state>
        <fips>039</fips>
        <incits>47039</incits>
        <id>US.TN.039</id>
        <population>11661</population>
      </desc>
    </path>
    <path d="M 216.5047 321.6828 220.1823 309.1791 239.3056 309.9146 248.1317 310.6502 250.3383 320.9473 247.3962 331.98 245.9252 339.3351 218.7113 336.393 216.5047 321.6828 Z" id="US.TN.043" fill="#cee3f5" stroke="#6e6e6e" stroke-width="0.4">
      <desc>
        <name>Dickson County</name>
        <stateAbbrev>TN</stateAbbrev>
        <state>Tennessee</state>
        <fips>043</fips>
        <incits>47043</incits>
        <id>US.TN.043</id>
        <population>50266</population>
      </desc>
    </path>
    <path d="M 87.0548 319.4763 103.236 318.0053 112.7977 326.0959 124.5659 331.2445 123.8303 353.3098 106.1781 352.5743 90.7323 347.4257 84.1128 336.393 87.0548 319.4763 Z" id="US.TN.053" fill="#cee3f5" stroke="#6e6e6e" stroke-width="0.4">
      <desc>
        <name>Gibson County</name>
        <stateAbbrev>TN</stateAbbrev>
        <state>Tennessee</state>
        <fips>053</fips>
        <incits>47053</incits>
        <id>US.TN.053</id>
        <population>49457</population>
      </desc>
    </path>
    <path d="M 550.4268 287.1138 602.6481 287.8493 578.3762 294.4689 573.2276 301.824 565.8725 304.0306 557.0464 302.5595 556.3109 292.2624 550.4268 287.1138 Z" id="US.TN.067" fill="#cee3f5" stroke="#6e6e6e" stroke-width="0.4">
      <desc>
        <name>Hancock County</name>
        <stateAbbrev>TN</stateAbbrev>
        <state>Tennessee</state>
        <fips>067</fips>
        <incits>47067</incits>
        <id>US.TN.067</id>
        <population>6679</population>
      </desc>
    </path>
    <path d="M 83.3772 418.0348 84.8483 384.9368 92.9389 382.7302 112.7977 382.7302 117.2107 397.4405 117.2107 418.0348 83.3772 418.0348 Z" id="US.TN.069" fill="#cee3f5" stroke="#6e6e6e" stroke-width="0.4">
      <desc>
        <name>Hardeman County</name>
        <stateAbbrev>TN</stateAbbrev>
        <state>Tennessee</state>
        <fips>069</fips>
        <incits>47069</incits>
        <id>US.TN.069</id>
        <population>26306</population>
      </desc>
    </path>
    <path d="M 150.3087 418.0348 151.7798 386.4078 151.7798 383.4658 161.3414 383.4658 165.7545 386.4078 178.9937 385.6723 182.6712 393.7629 181.9357 417.2993 150.3087 418.0348 Z" id="US.TN.071" fill="#cee3f5" stroke="#6e6e6e" stroke-width="0.4">
      <desc>
        <name>Hardin County</name>
        <stateAbbrev>TN</stateAbbrev>
        <state>Tennessee</state>
        <fips>071</fips>
        <incits>47071</incits>
        <id>US.TN.071</id>
        <population>26034</population>
      </desc>
    </path>
    <path d="M 565.8725 304.0306 573.2276 301.824 578.3762 294.4689 602.6481 287.8493 620.3003 287.8493 614.4162 301.0885 612.9452 302.5595 601.9125 306.2371 582.0537 316.5342 573.9631 310.6502 568.079 312.8567 565.8725 304.0306 Z" id="US.TN.073" fill="#cee3f5" stroke="#6e6e6e" stroke-width="0.4">
      <desc>
        <name>Hawkins County</name>
        <stateAbbrev>TN</stateAbbrev>
        <state>Tennessee</state>
        <fips>073</fips>
        <incits>47073</incits>
        <id>US.TN.073</id>
        <population>56800</population>
      </desc>
    </path>
    <path d="M 131.1855 370.2266 131.921 353.3098 134.1275 350.3678 166.49 351.1033 165.7545 368.02 161.3414 374.6396 161.3414 383.4658 151.7798 383.4658 148.1022 378.3172 131.1855 370.2266 Z" id="US.TN.077" fill="#cee3f5" stroke="#6e6e6e" stroke-width="0.4">
      <desc>
        <name>Henderson County</name>
        <stateAbbrev>TN</stateAbbrev>
        <state>Tennessee</state>
        <fips>077</fips>
        <incits>47077</incits>
        <id>US.TN.077</id>
        <population>28048</population>
      </desc>
    </path>
    <path d="M 137.8051 323.8894 139.2761 295.2044 176.7871 295.2044 181.9357 306.9726 173.1096 306.9726 173.8451 315.0632 163.5479 326.0959 137.8051 323.8894 Z" id="US.TN.079" fill="#cee3f5" stroke="#6e6e6e" stroke-width="0.4">
      <desc>
        <name>Henry County</name>
        <stateAbbrev>TN</stateAbbrev>
        <state>Tennessee</state>
        <fips>079</fips>
        <incits>47079</incits>
        <id>US.TN.079</id>
        <population>32210</population>
      </desc>
    </path>
    <path d="M 204.0011 349.6322 204.7366 343.7482 218.7113 336.393 245.9252 339.3351 245.1897 348.1612 243.7187 358.4584 234.8925 363.607 225.3309 367.2845 215.0337 364.3425 209.1496 368.02 201.7945 363.607 204.0011 349.6322 Z" id="US.TN.081" fill="#cee3f5" stroke="#6e6e6e" stroke-width="0.4">
      <desc>
        <name>Hickman County</name>
        <stateAbbrev>TN</stateAbbrev>
        <state>Tennessee</state>
        <fips>081</fips>
        <incits>47081</incits>
        <id>US.TN.081</id>
        <population>24267</population>
      </desc>
    </path>
    <path d="M 182.6712 306.9726 195.9104 309.1791 214.2982 306.2371 220.1823 309.1791 216.5047 321.6828 202.53 316.5342 184.8778 316.5342 182.6712 306.9726 Z" id="US.TN.083" fill="#cee3f5" stroke="#6e6e6e" stroke-width="0.4">
      <desc>
        <name>Houston County</name>
        <stateAbbrev>TN</stateAbbrev>
        <state>Tennessee</state>
        <fips>083</fips>
        <incits>47083</incits>
        <id>US.TN.083</id>
        <population>8292</population>
      </desc>
    </path>
    <path d="M 184.8778 316.5342 202.53 316.5342 216.5047 321.6828 218.7113 336.393 204.7366 343.7482 204.0011 349.6322 192.9684 351.8388 184.1423 348.8967 187.0843 341.5416 181.2002 333.451 187.8198 326.0959 184.8778 316.5342 Z" id="US.TN.085" fill="#cee3f5" stroke="#6e6e6e" stroke-width="0.4">
      <desc>
        <name>Humphreys County</name>
        <stateAbbrev>TN</stateAbbrev>
        <state>Tennessee</state>
        <fips>085</fips>
        <incits>47085</incits>
        <id>US.TN.085</id>
        <population>18243</population>
      </desc>
    </path>
    <path d="M 671.7861 294.4689 684.2898 286.3783 699 286.3783 695.3224 298.1465 687.2318 306.9726 675.4636 314.3277 667.373 304.7661 671.7861 294.4689 Z" id="US.TN.091" fill="#cee3f5" stroke="#6e6e6e" stroke-width="0.4">
      <desc>
        <name>Johnson County</name>
        <stateAbbrev>TN</stateAbbrev>
        <state>Tennessee</state>
        <fips>091</fips>
        <incits>47091</incits>
        <id>US.TN.091</id>
        <population>17977</population>
      </desc>
    </path>
    <path d="M 70.8736 295.2044 64.9895 315.0632 59.8409 318.7408 48.0727 320.9473 56.1633 314.3277 55.4278 301.824 70.8736 295.2044 Z" id="US.TN.095" fill="#cee3f5" stroke="#6e6e6e" stroke-width="0.4">
      <desc>
        <name>Lake County</name>
        <stateAbbrev>TN</stateAbbrev>
        <state>Tennessee</state>
        <fips>095</fips>
        <incits>47095</incits>
        <id>US.TN.095</id>
        <population>7731</population>
      </desc>
    </path>
    <path d="M 327.5669 284.1718 361.4004 285.6428 359.1939 295.2044 358.4584 302.5595 345.9547 301.0885 330.509 299.6175 325.3604 296.6754 327.5669 284.1718 Z" id="US.TN.111" fill="#cee3f5" stroke="#6e6e6e" stroke-width="0.4">
      <desc>
        <name>Macon County</name>
        <stateAbbrev>TN</stateAbbrev>
        <state>Tennessee</state>
        <fips>111</fips>
        <incits>47111</incits>
        <id>US.TN.111</id>
        <population>22701</population>
      </desc>
    </path>
    <path d="M 92.9389 382.7302 93.6744 361.4004 98.0875 362.8714 106.1781 352.5743 123.8303 353.3098 131.921 353.3098 131.1855 370.2266 126.0369 377.5817 112.7977 382.7302 92.9389 382.7302 Z" id="US.TN.113" fill="#cee3f5" stroke="#6e6e6e" stroke-width="0.4">
      <desc>
        <name>Madison County</name>
        <stateAbbrev>TN</stateAbbrev>
        <state>Tennessee</state>
        <fips>113</fips>
        <incits>47113</incits>
        <id>US.TN.113</id>
        <population>98733</population>
      </desc>
    </path>
    <path d="M 117.2107 418.0348 117.2107 397.4405 126.7724 390.0854 138.5406 386.4078 151.7798 386.4078 150.3087 418.0348 117.2107 418.0348 Z" id="US.TN.109" fill="#cee3f5" stroke="#6e6e6e" stroke-width="0.4">
      <desc>
        <name>McNairy County</name>
        <stateAbbrev>TN</stateAbbrev>
        <state>Tennessee</state>
        <fips>109</fips>
        <incits>47109</incits>
        <id>US.TN.109</id>
        <population>26140</population>
      </desc>
    </path>
    <path d="M 210.6207 284.1718 253.2803 283.4362 252.5448 298.882 239.3056 309.9146 220.1823 309.1791 214.2982 306.2371 210.6207 284.1718 Z" id="US.TN.125" fill="#cee3f5" stroke="#6e6e6e" stroke-width="0.4">
      <desc>
        <name>Montgomery County</name>
        <stateAbbrev>TN</stateAbbrev>
        <state>Tennessee</state>
        <fips>125</fips>
        <incits>47125</incits>
        <id>US.TN.125</id>
        <population>184119</population>
      </desc>
    </path>
    <path d="M 70.8736 295.2044 113.5332 295.2044 114.2687 302.5595 103.9715 302.5595 103.236 318.0053 87.0548 319.4763 59.8409 318.7408 64.9895 315.0632 70.8736 295.2044 Z" id="US.TN.131" fill="#cee3f5" stroke="#6e6e6e" stroke-width="0.4">
      <desc>
        <name>Obion County</name>
        <stateAbbrev>TN</stateAbbrev>
        <state>Tennessee</state>
        <fips>131</fips>
        <incits>47131</incits>
        <id>US.TN.131</id>
        <population>31131</population>
      </desc>
    </path>
    <path d="M 183.4067 351.1033 184.1423 348.8967 192.9684 351.8388 204.0011 349.6322 201.7945 363.607 209.1496 368.02 204.0011 378.3172 182.6712 380.5237 180.4647 383.4658 183.4067 376.1106 178.2582 367.2845 178.2582 358.4584 183.4067 351.1033 Z" id="US.TN.135" fill="#cee3f5" stroke="#6e6e6e" stroke-width="0.4">
      <desc>
        <name>Perry County</name>
        <stateAbbrev>TN</stateAbbrev>
        <state>Tennessee</state>
        <fips>135</fips>
        <incits>47135</incits>
        <id>US.TN.135</id>
        <population>7869</population>
      </desc>
    </path>
    <path d="M 402.589 292.2624 403.3246 284.9073 443.0421 287.1138 447.4552 292.9979 435.687 289.3203 421.7123 290.7914 415.8282 302.5595 402.589 292.2624 Z" id="US.TN.137" fill="#cee3f5" stroke="#6e6e6e" stroke-width="0.4">
      <desc>
        <name>Pickett County</name>
        <stateAbbrev>TN</stateAbbrev>
        <state>Tennessee</state>
        <fips>137</fips>
        <incits>47137</incits>
        <id>US.TN.137</id>
        <population>5090</population>
      </desc>
    </path>
    <path d="M 253.2803 283.4362 295.9399 282.7007 298.1465 284.1718 287.1138 302.5595 282.7007 303.295 276.8166 307.7081 269.4615 304.7661 263.5774 306.2371 252.5448 298.882 253.2803 283.4362 Z" id="US.TN.147" fill="#cee3f5" stroke="#6e6e6e" stroke-width="0.4">
      <desc>
        <name>Robertson County</name>
        <stateAbbrev>TN</stateAbbrev>
        <state>Tennessee</state>
        <fips>147</fips>
        <incits>47147</incits>
        <id>US.TN.147</id>
        <population>67383</population>
      </desc>
    </path>
    <path d="M 443.0421 287.1138 485.7018 287.8493 486.4373 294.4689 478.3467 298.1465 480.5532 312.8567 476.8757 318.7408 470.9916 323.1538 460.6944 316.5342 450.3973 306.2371 447.4552 292.9979 443.0421 287.1138 Z" id="US.TN.151" fill="#cee3f5" stroke="#6e6e6e" stroke-width="0.4">
      <desc>
        <name>Scott County</name>
        <stateAbbrev>TN</stateAbbrev>
        <state>Tennessee</state>
        <fips>151</fips>
        <incits>47151</incits>
        <id>US.TN.151</id>
        <population>22015</population>
      </desc>
    </path>
    <path d="M 210.6207 284.1718 214.2982 306.2371 195.9104 309.1791 182.6712 306.9726 181.9357 306.9726 176.7871 295.2044 175.3161 281.2297 210.6207 284.1718 Z" id="US.TN.161" fill="#cee3f5" stroke="#6e6e6e" stroke-width="0.4">
      <desc>
        <name>Stewart County</name>
        <stateAbbrev>TN</stateAbbrev>
        <state>Tennessee</state>
        <fips>161</fips>
        <incits>47161</incits>
        <id>US.TN.161</id>
        <population>13362</population>
      </desc>
    </path>
    <path d="M 620.3003 287.8493 675.4636 287.8493 684.2898 286.3783 671.7861 294.4689 654.8693 303.295 646.0432 304.0306 634.275 299.6175 614.4162 301.0885 620.3003 287.8493 Z" id="US.TN.163" fill="#cee3f5" stroke="#6e6e6e" stroke-width="0.4">
      <desc>
        <name>Sullivan County</name>
        <stateAbbrev>TN</stateAbbrev>
        <state>Tennessee</state>
        <fips>163</fips>
        <incits>47163</incits>
        <id>US.TN.163</id>
        <population>156595</population>
      </desc>
    </path>
    <path d="M 282.7007 303.295 287.1138 302.5595 298.1465 284.1718 302.5595 282.7007 327.5669 284.1718 325.3604 296.6754 320.9473 307.7081 315.0632 306.9726 295.9399 316.5342 282.7007 303.295 Z" id="US.TN.165" fill="#cee3f5" stroke="#6e6e6e" stroke-width="0.4">
      <desc>
        <name>Sumner County</name>
        <stateAbbrev>TN</stateAbbrev>
        <state>Tennessee</state>
        <fips>165</fips>
        <incits>47165</incits>
        <id>US.TN.165</id>
        <population>168888</population>
      </desc>
    </path>
    <path d="M 103.236 318.0053 103.9715 302.5595 114.2687 302.5595 113.5332 295.2044 139.2761 295.2044 137.8051 323.8894 124.5659 331.2445 112.7977 326.0959 103.236 318.0053 Z" id="US.TN.183" fill="#cee3f5" stroke="#6e6e6e" stroke-width="0.4">
      <desc>
        <name>Weakley County</name>
        <stateAbbrev>TN</stateAbbrev>
        <state>Tennessee</state>
        <fips>183</fips>
        <incits>47183</incits>
        <id>US.TN.183</id>
        <population>34450</population>
      </desc>
    </path>
    <path d="M 245.1897 348.1612 245.9252 339.3351 247.3962 331.98 258.4289 332.7155 279.7587 333.451 293.7334 338.5996 292.9979 351.8388 288.5848 359.9294 280.4942 359.9294 245.1897 348.1612 Z" id="US.TN.187" fill="#cee3f5" stroke="#6e6e6e" stroke-width="0.4">
      <desc>
        <name>Williamson County</name>
        <stateAbbrev>TN</stateAbbrev>
        <state>Tennessee</state>
        <fips>187</fips>
        <incits>47187</incits>
        <id>US.TN.187</id>
        <population>198901</population>
      </desc>
    </path>
    <path d="M 204.0011 378.3172 209.1496 368.02 215.0337 364.3425 225.3309 367.2845 234.8925 363.607 239.3056 373.1686 238.5701 381.2592 215.7692 384.9368 204.0011 378.3172 Z" id="US.TN.101" fill="#cee3f5" stroke="#6e6e6e" stroke-width="0.4">
      <desc>
        <name>Lewis County</name>
        <stateAbbrev>TN</stateAbbrev>
        <state>Tennessee</state>
        <fips>101</fips>
        <incits>47101</incits>
        <id>US.TN.101</id>
        <population>11961</population>
      </desc>
    </path>
    <path d="M 424.6544 384.2013 432.0095 381.9947 441.5711 369.491 448.1907 356.2518 457.0169 365.078 441.5711 380.5237 437.1581 389.3498 429.803 394.4984 424.6544 384.2013 Z" id="US.TN.121" fill="#cee3f5" stroke="#6e6e6e" stroke-width="0.4">
      <desc>
        <name>Meigs County</name>
        <stateAbbrev>TN</stateAbbrev>
        <state>Tennessee</state>
        <fips>121</fips>
        <incits>47121</incits>
        <id>US.TN.121</id>
        <population>11649</population>
      </desc>
    </path>
    <path d="M 470.9916 323.1538 476.8757 318.7408 488.6438 316.5342 501.1475 317.2698 506.2961 314.3277 512.1802 320.9473 490.8504 336.393 484.9663 343.7482 479.0822 331.98 470.9916 323.1538 Z" id="US.TN.001" fill="#cee3f5" stroke="#6e6e6e" stroke-width="0.4">
      <desc>
        <name>Anderson County</name>
        <stateAbbrev>TN</stateAbbrev>
        <state>Tennessee</state>
        <fips>001</fips>
        <incits>47001</incits>
        <id>US.TN.001</id>
        <population>75542</population>
      </desc>
    </path>
    <path d="M 292.2624 361.4004 305.5016 365.078 316.5342 363.607 323.8894 365.8135 323.1538 384.2013 307.7081 391.5564 301.0885 388.6143 295.2044 387.8788 290.7914 381.9947 292.2624 361.4004 Z" id="US.TN.003" fill="#cee3f5" stroke="#6e6e6e" stroke-width="0.4">
      <desc>
        <name>Bedford County</name>
        <stateAbbrev>TN</stateAbbrev>
        <state>Tennessee</state>
        <fips>003</fips>
        <incits>47003</incits>
        <id>US.TN.003</id>
        <population>45901</population>
      </desc>
    </path>
    <path d="M 390.8209 371.6976 404.0601 359.1939 404.7956 354.7808 433.4805 354.7808 416.5638 370.9621 414.3572 380.5237 407.0021 388.6143 393.0274 377.5817 390.8209 371.6976 Z" id="US.TN.007" fill="#cee3f5" stroke="#6e6e6e" stroke-width="0.4">
      <desc>
        <name>Bledsoe County</name>
        <stateAbbrev>TN</stateAbbrev>
        <state>Tennessee</state>
        <fips>007</fips>
        <incits>47007</incits>
        <id>US.TN.007</id>
        <population>12841</population>
      </desc>
    </path>
    <path d="M 491.5859 368.02 495.9989 363.607 493.7924 351.8388 511.4447 346.6902 523.9484 345.2192 534.981 361.4004 534.981 370.9621 526.1549 371.6976 510.7092 379.7882 491.5859 368.02 Z" id="US.TN.009" fill="#cee3f5" stroke="#6e6e6e" stroke-width="0.4">
      <desc>
        <name>Blount County</name>
        <stateAbbrev>TN</stateAbbrev>
        <state>Tennessee</state>
        <fips>009</fips>
        <incits>47009</incits>
        <id>US.TN.009</id>
        <population>125099</population>
      </desc>
    </path>
    <path d="M 429.803 394.4984 437.1581 389.3498 449.6617 398.176 449.6617 404.0601 443.7777 418.7703 427.5964 418.7703 423.1834 407.0021 429.803 394.4984 Z" id="US.TN.011" fill="#cee3f5" stroke="#6e6e6e" stroke-width="0.4">
      <desc>
        <name>Bradley County</name>
        <stateAbbrev>TN</stateAbbrev>
        <state>Tennessee</state>
        <fips>011</fips>
        <incits>47011</incits>
        <id>US.TN.011</id>
        <population>101848</population>
      </desc>
    </path>
    <path d="M 326.0959 359.9294 329.7734 354.7808 331.98 340.0706 343.0126 339.3351 354.0453 349.6322 345.2192 357.7229 345.2192 364.3425 337.1286 365.078 326.0959 359.9294 Z" id="US.TN.015" fill="#cee3f5" stroke="#6e6e6e" stroke-width="0.4">
      <desc>
        <name>Cannon County</name>
        <stateAbbrev>TN</stateAbbrev>
        <state>Tennessee</state>
        <fips>015</fips>
        <incits>47015</incits>
        <id>US.TN.015</id>
        <population>13775</population>
      </desc>
    </path>
    <path d="M 563.666 344.4837 569.5501 329.0379 575.4341 321.6828 596.764 340.8061 596.764 346.6902 589.4089 354.7808 582.0537 353.3098 568.079 359.1939 563.666 344.4837 Z" id="US.TN.029" fill="#cee3f5" stroke="#6e6e6e" stroke-width="0.4">
      <desc>
        <name>Cocke County</name>
        <stateAbbrev>TN</stateAbbrev>
        <state>Tennessee</state>
        <fips>029</fips>
        <incits>47029</incits>
        <id>US.TN.029</id>
        <population>35479</population>
      </desc>
    </path>
    <path d="M 323.1538 384.2013 323.8894 365.8135 326.0959 359.9294 337.1286 365.078 345.2192 364.3425 354.0453 374.6396 354.7808 386.4078 351.1033 393.7629 331.2445 387.8788 323.1538 390.8209 323.1538 384.2013 Z" id="US.TN.031" fill="#cee3f5" stroke="#6e6e6e" stroke-width="0.4">
      <desc>
        <name>Coffee County</name>
        <stateAbbrev>TN</stateAbbrev>
        <state>Tennessee</state>
        <fips>031</fips>
        <incits>47031</incits>
        <id>US.TN.031</id>
        <population>53357</population>
      </desc>
    </path>
    <path d="M 404.0601 337.8641 406.2666 327.5669 417.2993 324.6249 433.4805 323.1538 448.1907 336.393 451.8683 343.7482 443.7777 350.3678 433.4805 354.7808 404.7956 354.7808 407.0021 345.9547 404.0601 337.8641 Z" id="US.TN.035" fill="#cee3f5" stroke="#6e6e6e" stroke-width="0.4">
      <desc>
        <name>Cumberland County</name>
        <stateAbbrev>TN</stateAbbrev>
        <state>Tennessee</state>
        <fips>035</fips>
        <incits>47035</incits>
        <id>US.TN.035</id>
        <population>57466</population>
      </desc>
    </path>
    <path d="M 340.0706 329.0379 359.9294 325.3604 373.1686 334.922 373.9041 345.9547 370.2266 349.6322 354.0453 349.6322 343.0126 339.3351 340.0706 329.0379 Z" id="US.TN.041" fill="#cee3f5" stroke="#6e6e6e" stroke-width="0.4">
      <desc>
        <name>DeKalb County</name>
        <stateAbbrev>TN</stateAbbrev>
        <state>Tennessee</state>
        <fips>041</fips>
        <incits>47041</incits>
        <id>US.TN.041</id>
        <population>19164</population>
      </desc>
    </path>
    <path d="M 384.9368 303.295 390.0854 295.2044 402.589 292.2624 415.8282 302.5595 418.7703 320.2118 415.8282 324.6249 409.2086 323.8894 391.5564 316.5342 385.6723 311.3857 384.9368 303.295 Z" id="US.TN.049" fill="#cee3f5" stroke="#6e6e6e" stroke-width="0.4">
      <desc>
        <name>Fentress County</name>
        <stateAbbrev>TN</stateAbbrev>
        <state>Tennessee</state>
        <fips>049</fips>
        <incits>47049</incits>
        <id>US.TN.049</id>
        <population>17909</population>
      </desc>
    </path>
    <path d="M 323.1538 390.8209 331.2445 387.8788 351.1033 393.7629 354.7808 399.647 355.5163 418.7703 318.0053 418.7703 318.7408 407.0021 323.1538 390.8209 Z" id="US.TN.051" fill="#cee3f5" stroke="#6e6e6e" stroke-width="0.4">
      <desc>
        <name>Franklin County</name>
        <stateAbbrev>TN</stateAbbrev>
        <state>Tennessee</state>
        <fips>051</fips>
        <incits>47051</incits>
        <id>US.TN.051</id>
        <population>41129</population>
      </desc>
    </path>
    <path d="M 245.9252 382.7302 252.5448 380.5237 265.784 383.4658 276.8166 395.9694 276.0811 418.0348 244.4542 418.0348 245.9252 382.7302 Z" id="US.TN.055" fill="#cee3f5" stroke="#6e6e6e" stroke-width="0.4">
      <desc>
        <name>Giles County</name>
        <stateAbbrev>TN</stateAbbrev>
        <state>Tennessee</state>
        <fips>055</fips>
        <incits>47055</incits>
        <id>US.TN.055</id>
        <population>28746</population>
      </desc>
    </path>
    <path d="M 529.0969 322.4183 534.2455 308.4436 550.4268 306.2371 557.0464 302.5595 565.8725 304.0306 568.079 312.8567 562.1949 312.1212 550.4268 321.6828 543.0717 321.6828 534.2455 329.7734 529.0969 322.4183 Z" id="US.TN.057" fill="#cee3f5" stroke="#6e6e6e" stroke-width="0.4">
      <desc>
        <name>Grainger County</name>
        <stateAbbrev>TN</stateAbbrev>
        <state>Tennessee</state>
        <fips>057</fips>
        <incits>47057</incits>
        <id>US.TN.057</id>
        <population>22702</population>
      </desc>
    </path>
    <path d="M 575.4341 321.6828 582.0537 316.5342 601.9125 306.2371 612.9452 302.5595 618.8293 301.824 617.3583 323.8894 621.7713 328.3024 621.0358 332.7155 618.8293 330.509 596.764 340.8061 575.4341 321.6828 Z" id="US.TN.059" fill="#cee3f5" stroke="#6e6e6e" stroke-width="0.4">
      <desc>
        <name>Greene County</name>
        <stateAbbrev>TN</stateAbbrev>
        <state>Tennessee</state>
        <fips>059</fips>
        <incits>47059</incits>
        <id>US.TN.059</id>
        <population>68267</population>
      </desc>
    </path>
    <path d="M 351.1033 393.7629 354.7808 386.4078 354.0453 374.6396 376.8462 374.6396 386.4078 384.2013 379.7882 391.5564 368.02 393.7629 365.078 400.3825 354.7808 399.647 351.1033 393.7629 Z" id="US.TN.061" fill="#cee3f5" stroke="#6e6e6e" stroke-width="0.4">
      <desc>
        <name>Grundy County</name>
        <stateAbbrev>TN</stateAbbrev>
        <state>Tennessee</state>
        <fips>061</fips>
        <incits>47061</incits>
        <id>US.TN.061</id>
        <population>13498</population>
      </desc>
    </path>
    <path d="M 568.079 312.8567 573.9631 310.6502 582.0537 316.5342 575.4341 321.6828 569.5501 329.0379 565.137 324.6249 550.4268 321.6828 562.1949 312.1212 568.079 312.8567 Z" id="US.TN.063" fill="#cee3f5" stroke="#6e6e6e" stroke-width="0.4">
      <desc>
        <name>Hamblen County</name>
        <stateAbbrev>TN</stateAbbrev>
        <state>Tennessee</state>
        <fips>063</fips>
        <incits>47063</incits>
        <id>US.TN.063</id>
        <population>63074</population>
      </desc>
    </path>
    <path d="M 387.1433 418.7703 394.4984 413.6217 394.4984 405.5311 407.0021 388.6143 414.3572 380.5237 424.6544 384.2013 429.803 394.4984 423.1834 407.0021 427.5964 418.7703 387.1433 418.7703 Z" id="US.TN.065" fill="#cee3f5" stroke="#6e6e6e" stroke-width="0.4">
      <desc>
        <name>Hamilton County</name>
        <stateAbbrev>TN</stateAbbrev>
        <state>Tennessee</state>
        <fips>065</fips>
        <incits>47065</incits>
        <id>US.TN.065</id>
        <population>348673</population>
      </desc>
    </path>
    <path d="M 358.4584 302.5595 359.1939 295.2044 378.3172 297.411 384.9368 303.295 385.6723 311.3857 375.3751 318.7408 361.4004 316.5342 356.9874 312.8567 358.4584 302.5595 Z" id="US.TN.087" fill="#cee3f5" stroke="#6e6e6e" stroke-width="0.4">
      <desc>
        <name>Jackson County</name>
        <stateAbbrev>TN</stateAbbrev>
        <state>Tennessee</state>
        <fips>087</fips>
        <incits>47087</incits>
        <id>US.TN.087</id>
        <population>11517</population>
      </desc>
    </path>
    <path d="M 534.2455 329.7734 543.0717 321.6828 550.4268 321.6828 565.137 324.6249 569.5501 329.0379 563.666 344.4837 550.4268 342.2771 533.51 332.7155 534.2455 329.7734 Z" id="US.TN.089" fill="#cee3f5" stroke="#6e6e6e" stroke-width="0.4">
      <desc>
        <name>Jefferson County</name>
        <stateAbbrev>TN</stateAbbrev>
        <state>Tennessee</state>
        <fips>089</fips>
        <incits>47089</incits>
        <id>US.TN.089</id>
        <population>52123</population>
      </desc>
    </path>
    <path d="M 484.9663 343.7482 490.8504 336.393 512.1802 320.9473 529.0969 322.4183 534.2455 329.7734 533.51 332.7155 535.7165 338.5996 523.9484 345.2192 511.4447 346.6902 493.7924 351.8388 485.7018 344.4837 484.9663 343.7482 Z" id="US.TN.093" fill="#cee3f5" stroke="#6e6e6e" stroke-width="0.4">
      <desc>
        <name>Knox County</name>
        <stateAbbrev>TN</stateAbbrev>
        <state>Tennessee</state>
        <fips>093</fips>
        <incits>47093</incits>
        <id>US.TN.093</id>
        <population>444622</population>
      </desc>
    </path>
    <path d="M 215.7692 384.9368 238.5701 381.2592 245.9252 382.7302 244.4542 418.0348 212.8272 417.2993 214.2982 412.8862 215.7692 384.9368 Z" id="US.TN.099" fill="#cee3f5" stroke="#6e6e6e" stroke-width="0.4">
      <desc>
        <name>Lawrence County</name>
        <stateAbbrev>TN</stateAbbrev>
        <state>Tennessee</state>
        <fips>099</fips>
        <incits>47099</incits>
        <id>US.TN.099</id>
        <population>41990</population>
      </desc>
    </path>
    <path d="M 276.0811 418.0348 276.8166 395.9694 283.4362 397.4405 295.2044 387.8788 301.0885 388.6143 312.1212 398.176 318.7408 407.0021 318.0053 418.7703 276.0811 418.0348 Z" id="US.TN.103" fill="#cee3f5" stroke="#6e6e6e" stroke-width="0.4">
      <desc>
        <name>Lincoln County</name>
        <stateAbbrev>TN</stateAbbrev>
        <state>Tennessee</state>
        <fips>103</fips>
        <incits>47103</incits>
        <id>US.TN.103</id>
        <population>33633</population>
      </desc>
    </path>
    <path d="M 459.2234 365.078 479.8177 345.9547 485.7018 344.4837 493.7924 351.8388 495.9989 363.607 491.5859 368.02 482.7597 364.3425 465.843 363.607 464.372 366.549 459.2234 365.078 Z" id="US.TN.105" fill="#cee3f5" stroke="#6e6e6e" stroke-width="0.4">
      <desc>
        <name>Loudon County</name>
        <stateAbbrev>TN</stateAbbrev>
        <state>Tennessee</state>
        <fips>105</fips>
        <incits>47105</incits>
        <id>US.TN.105</id>
        <population>50448</population>
      </desc>
    </path>
    <path d="M 354.7808 399.647 365.078 400.3825 368.02 393.7629 379.7882 391.5564 388.6143 395.9694 394.4984 405.5311 394.4984 413.6217 387.1433 418.7703 355.5163 418.7703 354.7808 399.647 Z" id="US.TN.115" fill="#cee3f5" stroke="#6e6e6e" stroke-width="0.4">
      <desc>
        <name>Marion County</name>
        <stateAbbrev>TN</stateAbbrev>
        <state>Tennessee</state>
        <fips>115</fips>
        <incits>47115</incits>
        <id>US.TN.115</id>
        <population>28374</population>
      </desc>
    </path>
    <path d="M 265.784 383.4658 274.6101 374.6396 280.4942 359.9294 288.5848 359.9294 292.2624 361.4004 290.7914 381.9947 295.2044 387.8788 283.4362 397.4405 276.8166 395.9694 265.784 383.4658 Z" id="US.TN.117" fill="#cee3f5" stroke="#6e6e6e" stroke-width="0.4">
      <desc>
        <name>Marshall County</name>
        <stateAbbrev>TN</stateAbbrev>
        <state>Tennessee</state>
        <fips>117</fips>
        <incits>47117</incits>
        <id>US.TN.117</id>
        <population>31130</population>
      </desc>
    </path>
    <path d="M 437.1581 389.3498 441.5711 380.5237 457.0169 365.078 459.2234 365.078 464.372 366.549 473.9336 384.9368 466.5785 394.4984 449.6617 398.176 437.1581 389.3498 Z" id="US.TN.107" fill="#cee3f5" stroke="#6e6e6e" stroke-width="0.4">
      <desc>
        <name>McMinn County</name>
        <stateAbbrev>TN</stateAbbrev>
        <state>Tennessee</state>
        <fips>107</fips>
        <incits>47107</incits>
        <id>US.TN.107</id>
        <population>52341</population>
      </desc>
    </path>
    <path d="M 464.372 366.549 465.843 363.607 482.7597 364.3425 491.5859 368.02 510.7092 379.7882 505.5606 384.9368 505.5606 393.0274 498.941 397.4405 483.4953 401.118 466.5785 394.4984 473.9336 384.9368 464.372 366.549 Z" id="US.TN.123" fill="#cee3f5" stroke="#6e6e6e" stroke-width="0.4">
      <desc>
        <name>Monroe County</name>
        <stateAbbrev>TN</stateAbbrev>
        <state>Tennessee</state>
        <fips>123</fips>
        <incits>47123</incits>
        <id>US.TN.123</id>
        <population>45265</population>
      </desc>
    </path>
    <path d="M 301.0885 388.6143 307.7081 391.5564 323.1538 384.2013 323.1538 390.8209 318.7408 407.0021 312.1212 398.176 301.0885 388.6143 Z" id="US.TN.127" fill="#cee3f5" stroke="#6e6e6e" stroke-width="0.4">
      <desc>
        <name>Moore County</name>
        <stateAbbrev>TN</stateAbbrev>
        <state>Tennessee</state>
        <fips>127</fips>
        <incits>47127</incits>
        <id>US.TN.127</id>
        <population>6301</population>
      </desc>
    </path>
    <path d="M 450.3973 306.2371 460.6944 316.5342 470.9916 323.1538 479.0822 331.98 470.9916 337.1286 451.8683 343.7482 448.1907 336.393 433.4805 323.1538 435.687 312.8567 450.3973 306.2371 Z" id="US.TN.129" fill="#cee3f5" stroke="#6e6e6e" stroke-width="0.4">
      <desc>
        <name>Morgan County</name>
        <stateAbbrev>TN</stateAbbrev>
        <state>Tennessee</state>
        <fips>129</fips>
        <incits>47129</incits>
        <id>US.TN.129</id>
        <population>21915</population>
      </desc>
    </path>
    <path d="M 415.8282 302.5595 421.7123 290.7914 435.687 289.3203 447.4552 292.9979 450.3973 306.2371 435.687 312.8567 433.4805 323.1538 417.2993 324.6249 415.8282 324.6249 418.7703 320.2118 415.8282 302.5595 Z" id="US.TN.133" fill="#cee3f5" stroke="#6e6e6e" stroke-width="0.4">
      <desc>
        <name>Overton County</name>
        <stateAbbrev>TN</stateAbbrev>
        <state>Tennessee</state>
        <fips>133</fips>
        <incits>47133</incits>
        <id>US.TN.133</id>
        <population>22075</population>
      </desc>
    </path>
    <path d="M 443.7777 418.7703 449.6617 404.0601 449.6617 398.176 466.5785 394.4984 483.4953 401.118 481.2887 418.7703 443.7777 418.7703 Z" id="US.TN.139" fill="#cee3f5" stroke="#6e6e6e" stroke-width="0.4">
      <desc>
        <name>Polk County</name>
        <stateAbbrev>TN</stateAbbrev>
        <state>Tennessee</state>
        <fips>139</fips>
        <incits>47139</incits>
        <id>US.TN.139</id>
        <population>16690</population>
      </desc>
    </path>
    <path d="M 359.9294 325.3604 361.4004 316.5342 375.3751 318.7408 385.6723 311.3857 391.5564 316.5342 409.2086 323.8894 415.8282 324.6249 417.2993 324.6249 406.2666 327.5669 404.0601 337.8641 400.3825 333.451 384.2013 329.0379 373.1686 334.922 359.9294 325.3604 Z" id="US.TN.141" fill="#cee3f5" stroke="#6e6e6e" stroke-width="0.4">
      <desc>
        <name>Putnam County</name>
        <stateAbbrev>TN</stateAbbrev>
        <state>Tennessee</state>
        <fips>141</fips>
        <incits>47141</incits>
        <id>US.TN.141</id>
        <population>73525</population>
      </desc>
    </path>
    <path d="M 433.4805 354.7808 443.7777 350.3678 448.1907 356.2518 441.5711 369.491 432.0095 381.9947 424.6544 384.2013 414.3572 380.5237 416.5638 370.9621 433.4805 354.7808 Z" id="US.TN.143" fill="#cee3f5" stroke="#6e6e6e" stroke-width="0.4">
      <desc>
        <name>Rhea County</name>
        <stateAbbrev>TN</stateAbbrev>
        <state>Tennessee</state>
        <fips>143</fips>
        <incits>47143</incits>
        <id>US.TN.143</id>
        <population>32513</population>
      </desc>
    </path>
    <path d="M 443.7777 350.3678 451.8683 343.7482 470.9916 337.1286 479.0822 331.98 484.9663 343.7482 485.7018 344.4837 479.8177 345.9547 459.2234 365.078 457.0169 365.078 448.1907 356.2518 443.7777 350.3678 Z" id="US.TN.145" fill="#cee3f5" stroke="#6e6e6e" stroke-width="0.4">
      <desc>
        <name>Roane County</name>
        <stateAbbrev>TN</stateAbbrev>
        <state>Tennessee</state>
        <fips>145</fips>
        <incits>47145</incits>
        <id>US.TN.145</id>
        <population>53047</population>
      </desc>
    </path>
    <path d="M 293.7334 338.5996 301.824 328.3024 320.9473 338.5996 331.98 340.0706 329.7734 354.7808 326.0959 359.9294 323.8894 365.8135 316.5342 363.607 305.5016 365.078 292.2624 361.4004 288.5848 359.9294 292.9979 351.8388 293.7334 338.5996 Z" id="US.TN.149" fill="#cee3f5" stroke="#6e6e6e" stroke-width="0.4">
      <desc>
        <name>Rutherford County</name>
        <stateAbbrev>TN</stateAbbrev>
        <state>Tennessee</state>
        <fips>149</fips>
        <incits>47149</incits>
        <id>US.TN.149</id>
        <population>281029</population>
      </desc>
    </path>
    <path d="M 376.8462 374.6396 380.5237 373.9041 390.8209 371.6976 393.0274 377.5817 407.0021 388.6143 394.4984 405.5311 388.6143 395.9694 379.7882 391.5564 386.4078 384.2013 376.8462 374.6396 Z" id="US.TN.153" fill="#cee3f5" stroke="#6e6e6e" stroke-width="0.4">
      <desc>
        <name>Sequatchie County</name>
        <stateAbbrev>TN</stateAbbrev>
        <state>Tennessee</state>
        <fips>153</fips>
        <incits>47153</incits>
        <id>US.TN.153</id>
        <population>14681</population>
      </desc>
    </path>
    <path d="M 523.9484 345.2192 535.7165 338.5996 533.51 332.7155 550.4268 342.2771 563.666 344.4837 568.079 359.1939 562.9305 364.3425 548.2202 371.6976 534.981 370.9621 534.981 361.4004 523.9484 345.2192 Z" id="US.TN.155" fill="#cee3f5" stroke="#6e6e6e" stroke-width="0.4">
      <desc>
        <name>Sevier County</name>
        <stateAbbrev>TN</stateAbbrev>
        <state>Tennessee</state>
        <fips>155</fips>
        <incits>47155</incits>
        <id>US.TN.155</id>
        <population>93570</population>
      </desc>
    </path>
    <path d="M 332.7155 312.1212 345.9547 301.0885 358.4584 302.5595 356.9874 312.8567 361.4004 316.5342 359.9294 325.3604 340.0706 329.0379 332.7155 312.1212 Z" id="US.TN.159" fill="#cee3f5" stroke="#6e6e6e" stroke-width="0.4">
      <desc>
        <name>Smith County</name>
        <stateAbbrev>TN</stateAbbrev>
        <state>Tennessee</state>
        <fips>159</fips>
        <incits>47159</incits>
        <id>US.TN.159</id>
        <population>19074</population>
      </desc>
    </path>
    <path d="M 325.3604 296.6754 330.509 299.6175 345.9547 301.0885 332.7155 312.1212 320.9473 307.7081 325.3604 296.6754 Z" id="US.TN.169" fill="#cee3f5" stroke="#6e6e6e" stroke-width="0.4">
      <desc>
        <name>Trousdale County</name>
        <stateAbbrev>TN</stateAbbrev>
        <state>Tennessee</state>
        <fips>169</fips>
        <incits>47169</incits>
        <id>US.TN.169</id>
        <population>7828</population>
      </desc>
    </path>
    <path d="M 621.0358 332.7155 621.7713 328.3024 634.275 323.8894 642.3656 315.7987 651.9273 323.1538 637.2171 329.0379 625.4489 339.3351 621.0358 332.7155 Z" id="US.TN.171" fill="#cee3f5" stroke="#6e6e6e" stroke-width="0.4">
      <desc>
        <name>Unicoi County</name>
        <stateAbbrev>TN</stateAbbrev>
        <state>Tennessee</state>
        <fips>171</fips>
        <incits>47171</incits>
        <id>US.TN.171</id>
        <population>18082</population>
      </desc>
    </path>
    <path d="M 506.2961 314.3277 515.1222 301.824 523.2129 300.353 534.2455 308.4436 529.0969 322.4183 512.1802 320.9473 506.2961 314.3277 Z" id="US.TN.173" fill="#cee3f5" stroke="#6e6e6e" stroke-width="0.4">
      <desc>
        <name>Union County</name>
        <stateAbbrev>TN</stateAbbrev>
        <state>Tennessee</state>
        <fips>173</fips>
        <incits>47173</incits>
        <id>US.TN.173</id>
        <population>19102</population>
      </desc>
    </path>
    <path d="M 376.8462 352.5743 387.1433 350.3678 404.7956 354.7808 404.0601 359.1939 390.8209 371.6976 380.5237 373.9041 377.5817 367.2845 376.8462 352.5743 Z" id="US.TN.175" fill="#cee3f5" stroke="#6e6e6e" stroke-width="0.4">
      <desc>
        <name>Van Buren County</name>
        <stateAbbrev>TN</stateAbbrev>
        <state>Tennessee</state>
        <fips>175</fips>
        <incits>47175</incits>
        <id>US.TN.175</id>
        <population>5583</population>
      </desc>
    </path>
    <path d="M 354.0453 349.6322 370.2266 349.6322 376.8462 352.5743 377.5817 367.2845 380.5237 373.9041 376.8462 374.6396 354.0453 374.6396 345.2192 364.3425 345.2192 357.7229 354.0453 349.6322 Z" id="US.TN.177" fill="#cee3f5" stroke="#6e6e6e" stroke-width="0.4">
      <desc>
        <name>Warren County</name>
        <stateAbbrev>TN</stateAbbrev>
        <state>Tennessee</state>
        <fips>177</fips>
        <incits>47177</incits>
        <id>US.TN.177</id>
        <population>39965</population>
      </desc>
    </path>
    <path d="M 612.9452 302.5595 614.4162 301.0885 634.275 299.6175 646.0432 304.0306 642.3656 315.7987 634.275 323.8894 621.7713 328.3024 617.3583 323.8894 618.8293 301.824 612.9452 302.5595 Z" id="US.TN.179" fill="#cee3f5" stroke="#6e6e6e" stroke-width="0.4">
      <desc>
        <name>Washington County</name>
        <stateAbbrev>TN</stateAbbrev>
        <state>Tennessee</state>
        <fips>179</fips>
        <incits>47179</incits>
        <id>US.TN.179</id>
        <population>125546</population>
      </desc>
    </path>
    <path d="M 178.9937 385.6723 180.4647 383.4658 182.6712 380.5237 204.0011 378.3172 215.7692 384.9368 214.2982 412.8862 212.8272 417.2993 181.9357 417.2993 182.6712 393.7629 178.9937 385.6723 Z" id="US.TN.181" fill="#cee3f5" stroke="#6e6e6e" stroke-width="0.4">
      <desc>
        <name>Wayne County</name>
        <stateAbbrev>TN</stateAbbrev>
        <state>Tennessee</state>
        <fips>181</fips>
        <incits>47181</incits>
        <id>US.TN.181</id>
        <population>16939</population>
      </desc>
    </path>
    <path d="M 370.2266 349.6322 373.9041 345.9547 373.1686 334.922 384.2013 329.0379 400.3825 333.451 404.0601 337.8641 407.0021 345.9547 404.7956 354.7808 387.1433 350.3678 376.8462 352.5743 370.2266 349.6322 Z" id="US.TN.185" fill="#cee3f5" stroke="#6e6e6e" stroke-width="0.4">
      <desc>
        <name>White County</name>
        <stateAbbrev>TN</stateAbbrev>
        <state>Tennessee</state>
        <fips>185</fips>
        <incits>47185</incits>
        <id>US.TN.185</id>
        <population>26244</population>
      </desc>
    </path>
    <path d="M 295.9399 316.5342 315.0632 306.9726 320.9473 307.7081 332.7155 312.1212 340.0706 329.0379 343.0126 339.3351 331.98 340.0706 320.9473 338.5996 301.824 328.3024 295.9399 316.5342 Z" id="US.TN.189" fill="#cee3f5" stroke="#6e6e6e" stroke-width="0.4">
      <desc>
        <name>Wilson County</name>
        <stateAbbrev>TN</stateAbbrev>
        <state>Tennessee</state>
        <fips>189</fips>
        <incits>47189</incits>
        <id>US.TN.189</id>
        <population>121945</population>
      </desc>
    </path>
  </g>
</svg>