<?xml version="1.0" encoding="UTF-8"?>
<svg xmlns="http://www.w3.org/2000/svg" width="700" height="700">
  <g id="montana">
    <path d="M 431.2647 421.8232 450.8222 421.8232 464.9845 418.4512 464.9845 402.9401 466.3333 396.1961 475.7749 396.1961 480.4957 391.4754 487.914 391.4754 487.914 388.1034 497.3556 388.1034 502.0763 388.1034 502.0763 392.8242 516.913 392.8242 530.401 398.2193 531.7498 409.0097 542.5401 409.6841 542.5401 427.8928 540.5169 438.0087 568.8415 438.0087 569.5159 448.799 489.2628 448.799 454.1942 448.799 460.9382 436.6599 427.8928 435.9855 427.8928 428.5671 431.2647 421.8232 Z" id="US.MT.003" fill="#cee3f5" stroke="#6e6e6e" stroke-width="0.4">
      <desc>
        <name>Big Horn County</name>
        <stateAbbrev>MT</stateAbbrev>
        <state>Montana</state>
        <fips>003</fips>
        <incits>30003</incits>
        <id>US.MT.003</id>
        <population>13042</population>
      </desc>
    </path>
    <path d="M 123.7401 408.3353 125.0889 404.9633 131.1585 404.2889 136.5536 399.5681 147.344 397.5449 148.0184 394.1729 155.4367 404.2889 165.5527 398.2193 172.971 398.8937 177.6918 400.9169 191.8541 404.9633 196.5749 412.3816 196.5749 420.4744 201.2957 423.8464 206.6908 423.172 209.3884 425.8696 210.0628 443.4039 216.8068 443.4039 216.8068 448.799 224.8995 448.799 226.2483 458.915 232.3179 460.9382 249.1778 461.6126 249.1778 465.6589 266.7121 465.6589 260.6425 473.7517 247.829 476.4493 244.457 474.4261 230.9691 476.4493 219.5043 473.7517 215.458 475.7749 214.1092 480.4957 208.714 479.1469 190.5053 479.1469 185.1101 483.8676 178.3662 480.4957 177.6918 476.4493 172.2966 464.3101 163.5295 458.915 157.4599 458.915 152.0647 456.2174 152.0647 445.4271 144.6464 440.7063 143.972 438.0087 137.9024 433.2879 133.1816 425.1952 131.1585 413.7304 123.7401 408.3353 Z" id="US.MT.001" fill="#cee3f5" stroke="#6e6e6e" stroke-width="0.4">
      <desc>
        <name>Beaverhead County</name>
        <stateAbbrev>MT</stateAbbrev>
        <state>Montana</state>
        <fips>001</fips>
        <incits>30001</incits>
        <id>US.MT.001</id>
        <population>9341</population>
      </desc>
    </path>
    <path d="M 25.2783 304.4783 45.5101 304.4783 63.7188 310.5478 63.7188 314.5942 73.8348 316.6174 75.1836 319.315 92.0435 328.7565 87.3227 334.1517 87.9971 346.9652 80.5787 347.6396 66.4164 342.2444 65.742 338.1981 58.9981 334.1517 50.2309 324.7101 44.1614 321.3382 42.1382 317.2918 31.3478 315.2686 29.999 312.571 18.5343 306.5014 25.2783 304.4783 Z" id="US.MT.061" fill="#cee3f5" stroke="#6e6e6e" stroke-width="0.4">
      <desc>
        <name>Mineral County</name>
        <stateAbbrev>MT</stateAbbrev>
        <state>Montana</state>
        <fips>061</fips>
        <incits>30061</incits>
        <id>US.MT.061</id>
        <population>4275</population>
      </desc>
    </path>
    <path d="M 77.8812 216.1324 116.3217 216.1324 117.6705 222.8763 122.3913 226.9227 129.1353 224.8995 133.856 226.9227 137.228 231.6435 134.5304 238.3874 139.2512 240.4106 146.6696 240.4106 150.7159 242.4338 150.7159 247.829 157.4599 249.8522 158.1343 256.5961 164.8783 260.6425 164.8783 264.0145 177.0174 266.7121 185.1101 275.4792 179.0406 276.828 172.971 278.8512 174.3198 287.6184 168.2502 290.3159 169.599 297.7343 150.7159 297.7343 141.2744 297.7343 143.2976 293.0135 141.2744 290.3159 139.2512 280.8744 126.4377 271.4329 118.3449 271.4329 117.6705 276.828 91.3691 276.828 92.0435 286.2696 84.6251 286.2696 84.6251 281.5488 62.37 281.5488 61.0213 273.456 61.0213 261.3169 70.4628 261.3169 70.4628 241.085 68.4396 235.6899 79.9043 235.0155 82.6019 228.9459 79.9043 225.5739 77.8812 216.1324 Z" id="US.MT.029" fill="#cee3f5" stroke="#6e6e6e" stroke-width="0.4">
      <desc>
        <name>Flathead County</name>
        <stateAbbrev>MT</stateAbbrev>
        <state>Montana</state>
        <fips>029</fips>
        <incits>30029</incits>
        <id>US.MT.029</id>
        <population>93068</population>
      </desc>
    </path>
    <path d="M 116.3217 216.1324 182.4126 216.1324 224.8995 216.1324 225.5739 246.4802 202.6444 246.4802 202.6444 256.5961 158.1343 256.5961 157.4599 249.8522 150.7159 247.829 150.7159 242.4338 146.6696 240.4106 139.2512 240.4106 134.5304 238.3874 137.228 231.6435 133.856 226.9227 129.1353 224.8995 122.3913 226.9227 117.6705 222.8763 116.3217 216.1324 Z" id="US.MT.035" fill="#cee3f5" stroke="#6e6e6e" stroke-width="0.4">
      <desc>
        <name>Glacier County</name>
        <stateAbbrev>MT</stateAbbrev>
        <state>Montana</state>
        <fips>035</fips>
        <incits>30035</incits>
        <id>US.MT.035</id>
        <population>13739</population>
      </desc>
    </path>
    <path d="M 336.1749 380.0106 336.1749 377.313 372.5923 377.9874 375.2899 388.1034 386.0802 388.1034 386.0802 392.8242 381.3594 392.8242 377.9874 402.9401 377.9874 413.056 370.5691 413.056 356.4068 418.4512 356.4068 428.5671 348.9884 428.5671 348.9884 438.6831 338.8725 438.6831 340.2213 416.428 339.5469 402.9401 335.5005 402.9401 336.1749 380.0106 Z" id="US.MT.097" fill="#cee3f5" stroke="#6e6e6e" stroke-width="0.4">
      <desc>
        <name>Sweet Grass County</name>
        <stateAbbrev>MT</stateAbbrev>
        <state>Montana</state>
        <fips>097</fips>
        <incits>30097</incits>
        <id>US.MT.097</id>
        <population>3669</population>
      </desc>
    </path>
    <path d="M 307.1758 379.3362 336.1749 380.0106 335.5005 402.9401 339.5469 402.9401 340.2213 416.428 338.8725 438.6831 348.9884 438.6831 364.4995 438.6831 364.4995 448.799 291.6647 448.799 292.3391 427.8928 299.0831 427.8928 299.0831 417.7768 306.5014 414.4048 307.1758 379.3362 Z" id="US.MT.067" fill="#cee3f5" stroke="#6e6e6e" stroke-width="0.4">
      <desc>
        <name>Park County</name>
        <stateAbbrev>MT</stateAbbrev>
        <state>Montana</state>
        <fips>067</fips>
        <incits>30067</incits>
        <id>US.MT.067</id>
        <population>15682</population>
      </desc>
    </path>
    <path d="M 247.829 402.2657 255.9217 400.2425 267.3865 393.4986 274.1304 379.3362 290.9903 379.3362 307.1758 379.3362 306.5014 414.4048 299.0831 417.7768 299.0831 427.8928 292.3391 427.8928 291.6647 448.799 290.9903 467.6821 291.6647 479.1469 286.944 477.7981 281.5488 470.3797 272.7816 462.9614 272.7816 427.8928 274.1304 411.0329 263.3401 411.0329 255.9217 405.6377 247.829 402.2657 Z" id="US.MT.031" fill="#cee3f5" stroke="#6e6e6e" stroke-width="0.4">
      <desc>
        <name>Gallatin County</name>
        <stateAbbrev>MT</stateAbbrev>
        <state>Montana</state>
        <fips>031</fips>
        <incits>30031</incits>
        <id>US.MT.031</id>
        <population>94720</population>
      </desc>
    </path>
    <path d="M 386.0802 388.1034 386.7546 382.7082 415.0792 382.7082 416.428 392.8242 416.428 409.0097 419.8 413.056 411.7072 413.056 406.3121 415.0792 399.5681 421.8232 390.1266 421.8232 377.9874 427.2184 375.2899 433.2879 370.5691 433.2879 370.5691 438.6831 364.4995 438.6831 348.9884 438.6831 348.9884 428.5671 356.4068 428.5671 356.4068 418.4512 370.5691 413.056 377.9874 413.056 377.9874 402.9401 381.3594 392.8242 386.0802 392.8242 386.0802 388.1034 Z" id="US.MT.095" fill="#cee3f5" stroke="#6e6e6e" stroke-width="0.4">
      <desc>
        <name>Stillwater County</name>
        <stateAbbrev>MT</stateAbbrev>
        <state>Montana</state>
        <fips>095</fips>
        <incits>30095</incits>
        <id>US.MT.095</id>
        <population>9318</population>
      </desc>
    </path>
    <path d="M 364.4995 448.799 364.4995 438.6831 370.5691 438.6831 370.5691 433.2879 375.2899 433.2879 377.9874 427.2184 390.1266 421.8232 399.5681 421.8232 406.3121 415.0792 411.7072 413.056 419.8 413.056 424.5208 418.4512 431.2647 421.8232 427.8928 428.5671 427.8928 435.9855 460.9382 436.6599 454.1942 448.799 405.6377 448.799 404.2889 448.1246 364.4995 448.799 Z" id="US.MT.009" fill="#cee3f5" stroke="#6e6e6e" stroke-width="0.4">
      <desc>
        <name>Carbon County</name>
        <stateAbbrev>MT</stateAbbrev>
        <state>Montana</state>
        <fips>009</fips>
        <incits>30009</incits>
        <id>US.MT.009</id>
        <population>10340</population>
      </desc>
    </path>
    <path d="M 77.8812 216.1324 79.9043 225.5739 82.6019 228.9459 79.9043 235.0155 68.4396 235.6899 70.4628 241.085 70.4628 261.3169 61.0213 261.3169 61.0213 273.456 52.9285 273.456 50.9053 278.8512 32.6966 279.5256 25.2783 270.0841 22.5807 261.9913 15.1623 261.3169 3.0232 264.6889 1 261.9913 1 216.1324 46.8589 216.1324 77.8812 216.1324 Z" id="US.MT.053" fill="#cee3f5" stroke="#6e6e6e" stroke-width="0.4">
      <desc>
        <name>Lincoln County</name>
        <stateAbbrev>MT</stateAbbrev>
        <state>Montana</state>
        <fips>053</fips>
        <incits>30053</incits>
        <id>US.MT.053</id>
        <population>19460</population>
      </desc>
    </path>
    <path d="M 644.3739 402.9401 647.0715 402.9401 646.3971 382.7082 649.7691 382.7082 671.3498 382.7082 671.3498 387.429 678.0937 387.429 678.0937 392.1498 693.6048 392.1498 693.6048 397.5449 698.3256 397.5449 699 448.799 641.0019 448.799 641.0019 427.8928 643.6995 427.8928 644.3739 402.9401 Z" id="US.MT.011" fill="#cee3f5" stroke="#6e6e6e" stroke-width="0.4">
      <desc>
        <name>Carter County</name>
        <stateAbbrev>MT</stateAbbrev>
        <state>Montana</state>
        <fips>011</fips>
        <incits>30011</incits>
        <id>US.MT.011</id>
        <population>1174</population>
      </desc>
    </path>
    <path d="M 658.5362 355.058 665.9546 351.0116 676.7449 351.0116 680.7913 353.0348 698.3256 353.0348 698.3256 397.5449 693.6048 397.5449 693.6048 392.1498 678.0937 392.1498 678.0937 387.429 671.3498 387.429 671.3498 382.7082 649.7691 382.7082 649.7691 372.5923 648.4203 362.4763 658.5362 362.4763 658.5362 355.058 Z" id="US.MT.025" fill="#cee3f5" stroke="#6e6e6e" stroke-width="0.4">
      <desc>
        <name>Fallon County</name>
        <stateAbbrev>MT</stateAbbrev>
        <state>Montana</state>
        <fips>025</fips>
        <incits>30025</incits>
        <id>US.MT.025</id>
        <population>3079</population>
      </desc>
    </path>
    <path d="M 631.5604 270.7585 641.0019 270.7585 647.7459 266.0377 661.9082 268.0609 669.3266 266.7121 687.5353 272.7816 693.6048 271.4329 698.3256 274.1304 698.3256 309.199 693.6048 311.8966 676.7449 311.8966 671.3498 311.8966 671.3498 301.7807 666.629 301.7807 666.629 296.3855 644.3739 296.3855 644.3739 291.6647 629.5372 291.6647 629.5372 286.2696 631.5604 282.2232 631.5604 270.7585 Z" id="US.MT.083" fill="#cee3f5" stroke="#6e6e6e" stroke-width="0.4">
      <desc>
        <name>Richland County</name>
        <stateAbbrev>MT</stateAbbrev>
        <state>Montana</state>
        <fips>083</fips>
        <incits>30083</incits>
        <id>US.MT.083</id>
        <population>11214</population>
      </desc>
    </path>
    <path d="M 593.7942 273.456 594.4686 261.9913 596.4918 261.9913 596.4918 241.7594 645.0483 241.7594 657.1874 241.7594 657.1874 246.4802 664.6058 246.4802 664.6058 251.8754 698.3256 251.8754 698.3256 274.1304 693.6048 271.4329 687.5353 272.7816 669.3266 266.7121 661.9082 268.0609 647.7459 266.0377 641.0019 270.7585 631.5604 270.7585 628.8628 268.7353 607.9565 269.4097 593.7942 273.456 Z" id="US.MT.085" fill="#cee3f5" stroke="#6e6e6e" stroke-width="0.4">
      <desc>
        <name>Roosevelt County</name>
        <stateAbbrev>MT</stateAbbrev>
        <state>Montana</state>
        <fips>085</fips>
        <incits>30085</incits>
        <id>US.MT.085</id>
        <population>11125</population>
      </desc>
    </path>
    <path d="M 639.6531 216.1324 698.3256 216.1324 698.3256 251.8754 664.6058 251.8754 664.6058 246.4802 657.1874 246.4802 657.1874 241.7594 645.0483 241.7594 641.0019 236.3643 641.0019 221.5275 639.6531 216.1324 Z" id="US.MT.091" fill="#cee3f5" stroke="#6e6e6e" stroke-width="0.4">
      <desc>
        <name>Sheridan County</name>
        <stateAbbrev>MT</stateAbbrev>
        <state>Montana</state>
        <fips>091</fips>
        <incits>30091</incits>
        <id>US.MT.091</id>
        <population>3668</population>
      </desc>
    </path>
    <path d="M 665.9546 340.2213 672.0242 340.2213 677.4193 338.1981 683.4889 330.1053 681.4657 317.9662 676.7449 311.8966 693.6048 311.8966 698.3256 309.199 698.3256 353.0348 680.7913 353.0348 676.7449 351.0116 665.9546 351.0116 665.9546 340.2213 Z" id="US.MT.109" fill="#cee3f5" stroke="#6e6e6e" stroke-width="0.4">
      <desc>
        <name>Wibaux County</name>
        <stateAbbrev>MT</stateAbbrev>
        <state>Montana</state>
        <fips>109</fips>
        <incits>30109</incits>
        <id>US.MT.109</id>
        <population>1121</population>
      </desc>
    </path>
    <path d="M 382.0338 216.1324 454.8686 216.1324 453.5198 230.9691 450.1478 230.9691 450.1478 241.085 448.799 247.829 444.7527 248.5034 443.4039 261.3169 443.4039 275.4792 433.2879 274.8048 432.6135 278.8512 417.1024 278.8512 417.1024 289.6415 412.3816 286.2696 395.5217 286.2696 386.0802 290.3159 379.3362 289.6415 379.3362 266.7121 380.685 251.201 384.057 247.829 381.3594 241.7594 381.3594 221.5275 382.0338 216.1324 Z" id="US.MT.005" fill="#cee3f5" stroke="#6e6e6e" stroke-width="0.4">
      <desc>
        <name>Blaine County</name>
        <stateAbbrev>MT</stateAbbrev>
        <state>Montana</state>
        <fips>005</fips>
        <incits>30005</incits>
        <id>US.MT.005</id>
        <population>6604</population>
      </desc>
    </path>
    <path d="M 248.5034 357.7556 257.2705 356.4068 257.2705 347.6396 265.3633 346.2908 270.7585 353.0348 275.4792 353.7092 279.5256 364.4995 286.944 364.4995 290.9903 366.5227 286.944 374.6155 290.9903 379.3362 274.1304 379.3362 267.3865 393.4986 255.9217 400.2425 255.9217 387.429 249.1778 387.429 248.5034 357.7556 Z" id="US.MT.007" fill="#cee3f5" stroke="#6e6e6e" stroke-width="0.4">
      <desc>
        <name>Broadwater County</name>
        <stateAbbrev>MT</stateAbbrev>
        <state>Montana</state>
        <fips>007</fips>
        <incits>30007</incits>
        <id>US.MT.007</id>
        <population>5692</population>
      </desc>
    </path>
    <path d="M 233.6667 302.4551 241.085 303.1295 240.4106 297.0599 255.9217 297.0599 255.9217 291.6647 270.7585 291.6647 295.7111 291.6647 291.6647 297.7343 302.4551 301.7807 307.8502 301.7807 307.8502 306.5014 315.2686 307.8502 315.2686 311.2222 307.8502 311.8966 307.8502 326.7333 315.2686 326.7333 315.2686 341.57 314.5942 342.9188 308.5246 341.57 299.0831 333.4773 284.9208 331.4541 263.3401 332.1285 263.3401 337.5237 255.9217 337.5237 248.5034 337.5237 248.5034 324.7101 239.7362 324.0357 233.6667 321.3382 233.6667 302.4551 Z" id="US.MT.013" fill="#cee3f5" stroke="#6e6e6e" stroke-width="0.4">
      <desc>
        <name>Cascade County</name>
        <stateAbbrev>MT</stateAbbrev>
        <state>Montana</state>
        <fips>013</fips>
        <incits>30013</incits>
        <id>US.MT.013</id>
        <population>82384</population>
      </desc>
    </path>
    <path d="M 270.7585 266.7121 304.4783 266.7121 308.5246 261.3169 315.943 261.3169 315.943 256.5961 361.8019 256.5961 361.8019 261.3169 368.5459 261.3169 368.5459 266.7121 379.3362 266.7121 379.3362 289.6415 361.8019 290.9903 361.8019 300.4319 342.9188 307.8502 340.2213 307.8502 315.2686 307.8502 307.8502 306.5014 307.8502 301.7807 302.4551 301.7807 291.6647 297.7343 295.7111 291.6647 270.7585 291.6647 270.7585 274.8048 270.7585 266.7121 Z" id="US.MT.015" fill="#cee3f5" stroke="#6e6e6e" stroke-width="0.4">
      <desc>
        <name>Chouteau County</name>
        <stateAbbrev>MT</stateAbbrev>
        <state>Montana</state>
        <fips>015</fips>
        <incits>30015</incits>
        <id>US.MT.015</id>
        <population>5849</population>
      </desc>
    </path>
    <path d="M 573.5623 402.9401 573.5623 382.7082 576.2599 382.7082 575.5855 362.4763 577.6087 362.4763 577.6087 342.2444 579.6319 341.57 579.6319 340.2213 594.4686 340.2213 607.2821 342.2444 609.3053 352.3604 614.7005 352.3604 616.7237 357.0812 629.5372 359.1043 644.3739 359.1043 658.5362 355.058 658.5362 362.4763 648.4203 362.4763 649.7691 372.5923 649.7691 382.7082 646.3971 382.7082 647.0715 402.9401 644.3739 402.9401 573.5623 402.9401 Z" id="US.MT.017" fill="#cee3f5" stroke="#6e6e6e" stroke-width="0.4">
      <desc>
        <name>Custer County</name>
        <stateAbbrev>MT</stateAbbrev>
        <state>Montana</state>
        <fips>017</fips>
        <incits>30017</incits>
        <id>US.MT.017</id>
        <population>11951</population>
      </desc>
    </path>
    <path d="M 578.9575 216.1324 639.6531 216.1324 641.0019 221.5275 641.0019 236.3643 645.0483 241.7594 596.4918 241.7594 583.6783 241.7594 583.6783 226.2483 576.2599 226.2483 578.9575 216.1324 Z" id="US.MT.019" fill="#cee3f5" stroke="#6e6e6e" stroke-width="0.4">
      <desc>
        <name>Daniels County</name>
        <stateAbbrev>MT</stateAbbrev>
        <state>Montana</state>
        <fips>019</fips>
        <incits>30019</incits>
        <id>US.MT.019</id>
        <population>1791</population>
      </desc>
    </path>
    <path d="M 629.5372 286.2696 629.5372 291.6647 644.3739 291.6647 644.3739 296.3855 666.629 296.3855 666.629 301.7807 671.3498 301.7807 671.3498 311.8966 676.7449 311.8966 681.4657 317.9662 683.4889 330.1053 677.4193 338.1981 672.0242 340.2213 665.9546 340.2213 641.6763 340.2213 638.9787 336.8493 631.5604 336.8493 631.5604 333.4773 624.142 333.4773 624.142 322.0126 619.4213 322.0126 619.4213 301.7807 622.1188 301.7807 622.1188 286.2696 629.5372 286.2696 Z" id="US.MT.021" fill="#cee3f5" stroke="#6e6e6e" stroke-width="0.4">
      <desc>
        <name>Dawson County</name>
        <stateAbbrev>MT</stateAbbrev>
        <state>Montana</state>
        <fips>021</fips>
        <incits>30021</incits>
        <id>US.MT.021</id>
        <population>9445</population>
      </desc>
    </path>
    <path d="M 340.2213 307.8502 342.9188 307.8502 361.8019 300.4319 361.8019 290.9903 379.3362 289.6415 386.0802 290.3159 395.5217 286.2696 412.3816 286.2696 417.1024 289.6415 423.172 294.3623 439.3575 297.7343 450.8222 298.4087 450.1478 313.9198 434.6367 314.5942 427.2184 316.6174 425.8696 326.7333 433.2879 326.7333 433.2879 341.57 431.9391 346.9652 410.3585 346.9652 388.1034 346.9652 388.1034 350.3372 367.1971 350.3372 366.5227 344.942 362.4763 344.2676 366.5227 338.1981 366.5227 321.3382 352.3604 316.6174 344.942 316.6174 344.942 311.2222 340.2213 307.8502 Z" id="US.MT.027" fill="#cee3f5" stroke="#6e6e6e" stroke-width="0.4">
      <desc>
        <name>Fergus County</name>
        <stateAbbrev>MT</stateAbbrev>
        <state>Montana</state>
        <fips>027</fips>
        <incits>30027</incits>
        <id>US.MT.027</id>
        <population>11501</population>
      </desc>
    </path>
    <path d="M 473.7517 306.5014 476.4493 302.4551 484.542 299.0831 486.5652 295.7111 491.9604 294.3623 500.7275 296.3855 502.7507 292.3391 512.1923 293.6879 525.6802 293.6879 533.7729 293.0135 534.4473 289.6415 551.9816 284.9208 556.7024 278.1768 560.7488 276.828 564.1208 282.2232 569.5159 282.2232 569.5159 301.7807 567.4928 311.8966 574.9111 311.8966 574.9111 322.0126 579.6319 322.0126 579.6319 340.2213 579.6319 341.57 543.2145 341.57 543.2145 340.2213 499.3787 340.8957 475.1005 340.8957 473.0773 339.5469 473.7517 328.7565 471.7285 325.3845 471.0541 311.8966 473.7517 306.5014 Z" id="US.MT.033" fill="#cee3f5" stroke="#6e6e6e" stroke-width="0.4">
      <desc>
        <name>Garfield County</name>
        <stateAbbrev>MT</stateAbbrev>
        <state>Montana</state>
        <fips>033</fips>
        <incits>30033</incits>
        <id>US.MT.033</id>
        <population>1290</population>
      </desc>
    </path>
    <path d="M 372.5923 377.9874 387.429 377.9874 388.1034 350.3372 388.1034 346.9652 410.3585 346.9652 411.0329 357.0812 415.7536 357.0812 418.4512 369.2203 423.8464 374.6155 423.172 382.7082 415.0792 382.7082 386.7546 382.7082 386.0802 388.1034 375.2899 388.1034 372.5923 377.9874 Z" id="US.MT.037" fill="#cee3f5" stroke="#6e6e6e" stroke-width="0.4">
      <desc>
        <name>Golden Valley County</name>
        <stateAbbrev>MT</stateAbbrev>
        <state>Montana</state>
        <fips>037</fips>
        <incits>30037</incits>
        <id>US.MT.037</id>
        <population>859</population>
      </desc>
    </path>
    <path d="M 129.8097 352.3604 139.2512 352.3604 139.2512 348.9884 150.0415 346.9652 154.0879 342.2444 160.1575 342.2444 172.2966 348.9884 175.6686 347.6396 176.343 375.2899 176.343 377.313 161.5063 377.313 162.1807 386.7546 148.0184 394.1729 140.6 392.8242 134.5304 384.057 132.5072 369.8947 127.1121 361.1275 131.1585 356.4068 129.8097 352.3604 Z" id="US.MT.039" fill="#cee3f5" stroke="#6e6e6e" stroke-width="0.4">
      <desc>
        <name>Granite County</name>
        <stateAbbrev>MT</stateAbbrev>
        <state>Montana</state>
        <fips>039</fips>
        <incits>30039</incits>
        <id>US.MT.039</id>
        <population>3138</population>
      </desc>
    </path>
    <path d="M 309.199 216.1324 382.0338 216.1324 381.3594 221.5275 381.3594 241.7594 384.057 247.829 380.685 251.201 379.3362 266.7121 368.5459 266.7121 368.5459 261.3169 361.8019 261.3169 361.8019 256.5961 315.943 256.5961 315.943 261.3169 308.5246 261.3169 309.199 220.8531 309.199 216.1324 Z" id="US.MT.041" fill="#cee3f5" stroke="#6e6e6e" stroke-width="0.4">
      <desc>
        <name>Hill County</name>
        <stateAbbrev>MT</stateAbbrev>
        <state>Montana</state>
        <fips>041</fips>
        <incits>30041</incits>
        <id>US.MT.041</id>
        <population>16568</population>
      </desc>
    </path>
    <path d="M 203.9932 375.2899 205.342 371.2435 218.1556 365.8483 226.2483 363.8251 234.3411 357.7556 248.5034 357.7556 249.1778 387.429 255.9217 387.429 255.9217 400.2425 247.829 402.2657 240.4106 398.8937 230.9691 399.5681 226.2483 404.9633 211.4116 399.5681 209.3884 384.7314 202.6444 380.0106 203.9932 375.2899 Z" id="US.MT.043" fill="#cee3f5" stroke="#6e6e6e" stroke-width="0.4">
      <desc>
        <name>Jefferson County</name>
        <stateAbbrev>MT</stateAbbrev>
        <state>Montana</state>
        <fips>043</fips>
        <incits>30043</incits>
        <id>US.MT.043</id>
        <population>11512</population>
      </desc>
    </path>
    <path d="M 315.2686 307.8502 340.2213 307.8502 344.942 311.2222 344.942 316.6174 352.3604 316.6174 366.5227 321.3382 366.5227 338.1981 362.4763 344.2676 366.5227 344.942 367.1971 350.3372 362.4763 350.3372 354.3836 346.9652 336.8493 348.9884 325.3845 351.0116 316.6174 345.6164 314.5942 342.9188 315.2686 341.57 315.2686 326.7333 307.8502 326.7333 307.8502 311.8966 315.2686 311.2222 315.2686 307.8502 Z" id="US.MT.045" fill="#cee3f5" stroke="#6e6e6e" stroke-width="0.4">
      <desc>
        <name>Judith Basin County</name>
        <stateAbbrev>MT</stateAbbrev>
        <state>Montana</state>
        <fips>045</fips>
        <incits>30045</incits>
        <id>US.MT.045</id>
        <population>2016</population>
      </desc>
    </path>
    <path d="M 84.6251 286.2696 92.0435 286.2696 91.3691 276.828 117.6705 276.828 118.3449 271.4329 126.4377 271.4329 139.2512 280.8744 141.2744 290.3159 143.2976 293.0135 141.2744 297.7343 124.4145 297.7343 123.0657 304.4783 127.7865 309.8734 127.7865 315.943 130.4841 322.0126 123.7401 324.0357 111.601 324.0357 108.229 322.0126 106.8802 311.8966 102.8338 311.2222 100.1362 297.7343 85.9739 297.7343 84.6251 286.2696 Z" id="US.MT.047" fill="#cee3f5" stroke="#6e6e6e" stroke-width="0.4">
      <desc>
        <name>Lake County</name>
        <stateAbbrev>MT</stateAbbrev>
        <state>Montana</state>
        <fips>047</fips>
        <incits>30047</incits>
        <id>US.MT.047</id>
        <population>29017</population>
      </desc>
    </path>
    <path d="M 179.0406 276.828 183.087 284.2464 183.087 291.6647 186.4589 295.7111 202.6444 295.7111 211.4116 297.0599 220.1787 303.1295 233.6667 302.4551 233.6667 321.3382 239.7362 324.0357 248.5034 324.7101 248.5034 337.5237 255.9217 337.5237 259.2937 343.5932 265.3633 346.2908 257.2705 347.6396 257.2705 356.4068 248.5034 357.7556 234.3411 357.7556 226.2483 363.8251 218.1556 365.8483 219.5043 355.058 212.086 349.6628 205.342 349.6628 205.342 342.2444 189.8309 342.2444 189.8309 322.0126 174.9942 322.0126 174.9942 303.8039 169.599 297.7343 168.2502 290.3159 174.3198 287.6184 172.971 278.8512 179.0406 276.828 Z" id="US.MT.049" fill="#cee3f5" stroke="#6e6e6e" stroke-width="0.4">
      <desc>
        <name>Lewis and Clark County</name>
        <stateAbbrev>MT</stateAbbrev>
        <state>Montana</state>
        <fips>049</fips>
        <incits>30049</incits>
        <id>US.MT.049</id>
        <population>65338</population>
      </desc>
    </path>
    <path d="M 270.7585 266.7121 270.7585 261.3169 278.1768 261.3169 278.8512 216.1324 309.199 216.1324 309.199 220.8531 308.5246 261.3169 304.4783 266.7121 270.7585 266.7121 Z" id="US.MT.051" fill="#cee3f5" stroke="#6e6e6e" stroke-width="0.4">
      <desc>
        <name>Liberty County</name>
        <stateAbbrev>MT</stateAbbrev>
        <state>Montana</state>
        <fips>051</fips>
        <incits>30051</incits>
        <id>US.MT.051</id>
        <population>2369</population>
      </desc>
    </path>
    <path d="M 196.5749 412.3816 209.3884 405.6377 226.2483 404.9633 230.9691 399.5681 240.4106 398.8937 247.829 402.2657 255.9217 405.6377 263.3401 411.0329 274.1304 411.0329 272.7816 427.8928 272.7816 462.9614 266.7121 465.6589 249.1778 465.6589 249.1778 461.6126 232.3179 460.9382 226.2483 458.915 224.8995 448.799 216.8068 448.799 216.8068 443.4039 210.0628 443.4039 209.3884 425.8696 206.6908 423.172 201.2957 423.8464 196.5749 420.4744 196.5749 412.3816 Z" id="US.MT.057" fill="#cee3f5" stroke="#6e6e6e" stroke-width="0.4">
      <desc>
        <name>Madison County</name>
        <stateAbbrev>MT</stateAbbrev>
        <state>Montana</state>
        <fips>057</fips>
        <incits>30057</incits>
        <id>US.MT.057</id>
        <population>7712</population>
      </desc>
    </path>
    <path d="M 593.7942 273.456 607.9565 269.4097 628.8628 268.7353 631.5604 270.7585 631.5604 282.2232 629.5372 286.2696 622.1188 286.2696 622.1188 301.7807 619.4213 301.7807 619.4213 322.0126 594.4686 322.0126 594.4686 326.7333 587.7246 326.7333 587.7246 322.0126 579.6319 322.0126 574.9111 322.0126 574.9111 311.8966 567.4928 311.8966 569.5159 301.7807 569.5159 282.2232 564.1208 282.2232 560.7488 276.828 560.7488 271.4329 571.5391 272.7816 585.0271 272.1072 593.7942 273.456 Z" id="US.MT.055" fill="#cee3f5" stroke="#6e6e6e" stroke-width="0.4">
      <desc>
        <name>McCone County</name>
        <stateAbbrev>MT</stateAbbrev>
        <state>Montana</state>
        <fips>055</fips>
        <incits>30055</incits>
        <id>US.MT.055</id>
        <population>1709</population>
      </desc>
    </path>
    <path d="M 255.9217 337.5237 263.3401 337.5237 263.3401 332.1285 284.9208 331.4541 299.0831 333.4773 308.5246 341.57 314.5942 342.9188 316.6174 345.6164 325.3845 351.0116 336.8493 348.9884 336.1749 377.313 336.1749 380.0106 307.1758 379.3362 290.9903 379.3362 286.944 374.6155 290.9903 366.5227 286.944 364.4995 279.5256 364.4995 275.4792 353.7092 270.7585 353.0348 265.3633 346.2908 259.2937 343.5932 255.9217 337.5237 Z" id="US.MT.059" fill="#cee3f5" stroke="#6e6e6e" stroke-width="0.4">
      <desc>
        <name>Meagher County</name>
        <stateAbbrev>MT</stateAbbrev>
        <state>Montana</state>
        <fips>059</fips>
        <incits>30059</incits>
        <id>US.MT.059</id>
        <population>1937</population>
      </desc>
    </path>
    <path d="M 73.8348 316.6174 79.9043 316.6174 95.4155 319.9894 105.5314 325.3845 108.9034 324.7101 111.601 324.0357 123.7401 324.0357 130.4841 322.0126 127.7865 315.943 127.7865 309.8734 123.0657 304.4783 124.4145 297.7343 141.2744 297.7343 150.7159 297.7343 151.3903 322.0126 160.1575 322.0126 160.1575 342.2444 154.0879 342.2444 150.0415 346.9652 139.2512 348.9884 139.2512 352.3604 129.8097 352.3604 100.8106 352.3604 92.7179 353.7092 84.6251 353.7092 80.5787 347.6396 87.9971 346.9652 87.3227 334.1517 92.0435 328.7565 75.1836 319.315 73.8348 316.6174 Z" id="US.MT.063" fill="#cee3f5" stroke="#6e6e6e" stroke-width="0.4">
      <desc>
        <name>Missoula County</name>
        <stateAbbrev>MT</stateAbbrev>
        <state>Montana</state>
        <fips>063</fips>
        <incits>30063</incits>
        <id>US.MT.063</id>
        <population>111807</population>
      </desc>
    </path>
    <path d="M 410.3585 346.9652 431.9391 346.9652 478.4725 346.2908 480.4957 351.0116 481.17 361.8019 481.17 367.8715 473.0773 367.8715 468.3565 371.2435 467.0077 375.2899 450.1478 375.2899 445.4271 376.6386 445.4271 382.7082 423.172 382.7082 423.8464 374.6155 418.4512 369.2203 415.7536 357.0812 411.0329 357.0812 410.3585 346.9652 Z" id="US.MT.065" fill="#cee3f5" stroke="#6e6e6e" stroke-width="0.4">
      <desc>
        <name>Musselshell County</name>
        <stateAbbrev>MT</stateAbbrev>
        <state>Montana</state>
        <fips>065</fips>
        <incits>30065</incits>
        <id>US.MT.065</id>
        <population>4629</population>
      </desc>
    </path>
    <path d="M 450.8222 298.4087 464.9845 297.7343 472.4029 299.0831 473.7517 306.5014 471.0541 311.8966 471.7285 325.3845 473.7517 328.7565 473.0773 339.5469 475.1005 340.8957 478.4725 346.2908 431.9391 346.9652 433.2879 341.57 433.2879 326.7333 425.8696 326.7333 427.2184 316.6174 434.6367 314.5942 450.1478 313.9198 450.8222 298.4087 Z" id="US.MT.069" fill="#cee3f5" stroke="#6e6e6e" stroke-width="0.4">
      <desc>
        <name>Petroleum County</name>
        <stateAbbrev>MT</stateAbbrev>
        <state>Montana</state>
        <fips>069</fips>
        <incits>30069</incits>
        <id>US.MT.069</id>
        <population>506</population>
      </desc>
    </path>
    <path d="M 454.8686 216.1324 516.2386 216.1324 514.8899 221.5275 514.8899 241.085 509.4947 246.4802 511.5179 256.5961 505.4483 256.5961 503.4251 261.3169 502.7507 292.3391 500.7275 296.3855 491.9604 294.3623 486.5652 295.7111 484.542 299.0831 476.4493 302.4551 473.7517 306.5014 472.4029 299.0831 464.9845 297.7343 450.8222 298.4087 439.3575 297.7343 423.172 294.3623 417.1024 289.6415 417.1024 278.8512 432.6135 278.8512 433.2879 274.8048 443.4039 275.4792 443.4039 261.3169 444.7527 248.5034 448.799 247.829 450.1478 241.085 450.1478 230.9691 453.5198 230.9691 454.8686 216.1324 Z" id="US.MT.071" fill="#cee3f5" stroke="#6e6e6e" stroke-width="0.4">
      <desc>
        <name>Phillips County</name>
        <stateAbbrev>MT</stateAbbrev>
        <state>Montana</state>
        <fips>071</fips>
        <incits>30071</incits>
        <id>US.MT.071</id>
        <population>4179</population>
      </desc>
    </path>
    <path d="M 158.1343 256.5961 202.6444 256.5961 202.6444 246.4802 225.5739 246.4802 237.0386 251.201 247.829 251.8754 255.9217 253.8986 255.2473 261.3169 270.7585 261.3169 270.7585 266.7121 270.7585 274.8048 237.0386 275.4792 237.0386 271.4329 226.2483 266.7121 177.0174 266.7121 164.8783 264.0145 164.8783 260.6425 158.1343 256.5961 Z" id="US.MT.073" fill="#cee3f5" stroke="#6e6e6e" stroke-width="0.4">
      <desc>
        <name>Pondera County</name>
        <stateAbbrev>MT</stateAbbrev>
        <state>Montana</state>
        <fips>073</fips>
        <incits>30073</incits>
        <id>US.MT.073</id>
        <population>6211</population>
      </desc>
    </path>
    <path d="M 573.5623 402.9401 644.3739 402.9401 643.6995 427.8928 641.0019 427.8928 641.0019 448.799 589.7478 448.799 569.5159 448.799 568.8415 438.0087 568.8415 427.8928 571.5391 427.8928 571.5391 402.9401 573.5623 402.9401 Z" id="US.MT.075" fill="#cee3f5" stroke="#6e6e6e" stroke-width="0.4">
      <desc>
        <name>Powder River County</name>
        <stateAbbrev>MT</stateAbbrev>
        <state>Montana</state>
        <fips>075</fips>
        <incits>30075</incits>
        <id>US.MT.075</id>
        <population>1748</population>
      </desc>
    </path>
    <path d="M 150.7159 297.7343 169.599 297.7343 174.9942 303.8039 174.9942 322.0126 189.8309 322.0126 189.8309 342.2444 205.342 342.2444 205.342 349.6628 212.086 349.6628 219.5043 355.058 218.1556 365.8483 205.342 371.2435 203.9932 375.2899 176.343 375.2899 175.6686 347.6396 172.2966 348.9884 160.1575 342.2444 160.1575 322.0126 151.3903 322.0126 150.7159 297.7343 Z" id="US.MT.077" fill="#cee3f5" stroke="#6e6e6e" stroke-width="0.4">
      <desc>
        <name>Powell County</name>
        <stateAbbrev>MT</stateAbbrev>
        <state>Montana</state>
        <fips>077</fips>
        <incits>30077</incits>
        <id>US.MT.077</id>
        <population>6993</population>
      </desc>
    </path>
    <path d="M 579.6319 322.0126 587.7246 322.0126 587.7246 326.7333 594.4686 326.7333 594.4686 322.0126 619.4213 322.0126 624.142 322.0126 624.142 333.4773 631.5604 333.4773 631.5604 336.8493 638.9787 336.8493 641.6763 340.2213 665.9546 340.2213 665.9546 351.0116 658.5362 355.058 644.3739 359.1043 629.5372 359.1043 616.7237 357.0812 614.7005 352.3604 609.3053 352.3604 607.2821 342.2444 594.4686 340.2213 579.6319 340.2213 579.6319 322.0126 Z" id="US.MT.079" fill="#cee3f5" stroke="#6e6e6e" stroke-width="0.4">
      <desc>
        <name>Prairie County</name>
        <stateAbbrev>MT</stateAbbrev>
        <state>Montana</state>
        <fips>079</fips>
        <incits>30079</incits>
        <id>US.MT.079</id>
        <population>1179</population>
      </desc>
    </path>
    <path d="M 100.8106 352.3604 129.8097 352.3604 131.1585 356.4068 127.1121 361.1275 132.5072 369.8947 134.5304 384.057 140.6 392.8242 148.0184 394.1729 147.344 397.5449 136.5536 399.5681 131.1585 404.2889 125.0889 404.9633 123.7401 408.3353 104.1826 420.4744 100.1362 421.8232 94.7411 417.1024 87.3227 414.4048 91.3691 409.6841 87.3227 403.6145 90.6947 398.8937 96.7643 398.2193 96.0899 391.4754 92.0435 388.7778 94.0667 380.685 92.7179 375.2899 100.1362 360.4531 100.8106 352.3604 Z" id="US.MT.081" fill="#cee3f5" stroke="#6e6e6e" stroke-width="0.4">
      <desc>
        <name>Ravalli County</name>
        <stateAbbrev>MT</stateAbbrev>
        <state>Montana</state>
        <fips>081</fips>
        <incits>30081</incits>
        <id>US.MT.081</id>
        <population>40823</population>
      </desc>
    </path>
    <path d="M 475.1005 340.8957 499.3787 340.8957 543.2145 340.2213 543.2145 341.57 579.6319 341.57 577.6087 342.2444 577.6087 362.4763 575.5855 362.4763 576.2599 382.7082 573.5623 382.7082 573.5623 402.9401 571.5391 402.9401 571.5391 427.8928 568.8415 427.8928 568.8415 438.0087 540.5169 438.0087 542.5401 427.8928 542.5401 409.6841 531.7498 409.0097 530.401 398.2193 530.401 382.7082 526.3546 382.7082 525.0058 367.1971 518.2618 367.1971 516.913 362.4763 483.8676 362.4763 481.17 361.8019 480.4957 351.0116 478.4725 346.2908 475.1005 340.8957 Z" id="US.MT.087" fill="#cee3f5" stroke="#6e6e6e" stroke-width="0.4">
      <desc>
        <name>Rosebud County</name>
        <stateAbbrev>MT</stateAbbrev>
        <state>Montana</state>
        <fips>087</fips>
        <incits>30087</incits>
        <id>US.MT.087</id>
        <population>9329</population>
      </desc>
    </path>
    <path d="M 1 261.9913 3.0232 264.6889 15.1623 261.3169 22.5807 261.9913 25.2783 270.0841 32.6966 279.5256 50.9053 278.8512 52.9285 273.456 61.0213 273.456 62.37 281.5488 84.6251 281.5488 84.6251 286.2696 85.9739 297.7343 100.1362 297.7343 102.8338 311.2222 106.8802 311.8966 108.229 322.0126 108.9034 324.7101 105.5314 325.3845 95.4155 319.9894 79.9043 316.6174 73.8348 316.6174 63.7188 314.5942 63.7188 310.5478 45.5101 304.4783 25.2783 304.4783 18.5343 301.1063 21.9063 297.7343 19.8831 292.3391 13.8135 288.9671 1 275.4792 1 261.9913 Z" id="US.MT.089" fill="#cee3f5" stroke="#6e6e6e" stroke-width="0.4">
      <desc>
        <name>Sanders County</name>
        <stateAbbrev>MT</stateAbbrev>
        <state>Montana</state>
        <fips>089</fips>
        <incits>30089</incits>
        <id>US.MT.089</id>
        <population>11363</population>
      </desc>
    </path>
    <path d="M 172.971 398.8937 182.4126 394.1729 191.1797 382.7082 196.5749 382.7082 202.6444 380.0106 209.3884 384.7314 211.4116 399.5681 226.2483 404.9633 209.3884 405.6377 196.5749 412.3816 191.8541 404.9633 177.6918 400.9169 172.971 398.8937 Z" id="US.MT.093" fill="#cee3f5" stroke="#6e6e6e" stroke-width="0.4">
      <desc>
        <name>Silver Bow County</name>
        <stateAbbrev>MT</stateAbbrev>
        <state>Montana</state>
        <fips>093</fips>
        <incits>30093</incits>
        <id>US.MT.093</id>
        <population>34523</population>
      </desc>
    </path>
    <path d="M 177.0174 266.7121 226.2483 266.7121 237.0386 271.4329 237.0386 275.4792 270.7585 274.8048 270.7585 291.6647 255.9217 291.6647 255.9217 297.0599 240.4106 297.0599 241.085 303.1295 233.6667 302.4551 220.1787 303.1295 211.4116 297.0599 202.6444 295.7111 186.4589 295.7111 183.087 291.6647 183.087 284.2464 179.0406 276.828 185.1101 275.4792 177.0174 266.7121 Z" id="US.MT.099" fill="#cee3f5" stroke="#6e6e6e" stroke-width="0.4">
      <desc>
        <name>Teton County</name>
        <stateAbbrev>MT</stateAbbrev>
        <state>Montana</state>
        <fips>099</fips>
        <incits>30099</incits>
        <id>US.MT.099</id>
        <population>6065</population>
      </desc>
    </path>
    <path d="M 224.8995 216.1324 278.8512 216.1324 278.1768 261.3169 270.7585 261.3169 255.2473 261.3169 255.9217 253.8986 247.829 251.8754 237.0386 251.201 225.5739 246.4802 224.8995 216.1324 Z" id="US.MT.101" fill="#cee3f5" stroke="#6e6e6e" stroke-width="0.4">
      <desc>
        <name>Toole County</name>
        <stateAbbrev>MT</stateAbbrev>
        <state>Montana</state>
        <fips>101</fips>
        <incits>30101</incits>
        <id>US.MT.101</id>
        <population>5138</population>
      </desc>
    </path>
    <path d="M 483.8676 362.4763 516.913 362.4763 518.2618 367.1971 525.0058 367.1971 526.3546 382.7082 530.401 382.7082 530.401 398.2193 516.913 392.8242 502.0763 392.8242 502.0763 388.1034 497.3556 388.1034 499.3787 380.0106 491.286 372.5923 483.8676 362.4763 Z" id="US.MT.103" fill="#cee3f5" stroke="#6e6e6e" stroke-width="0.4">
      <desc>
        <name>Treasure County</name>
        <stateAbbrev>MT</stateAbbrev>
        <state>Montana</state>
        <fips>103</fips>
        <incits>30103</incits>
        <id>US.MT.103</id>
        <population>700</population>
      </desc>
    </path>
    <path d="M 502.7507 292.3391 503.4251 261.3169 505.4483 256.5961 511.5179 256.5961 509.4947 246.4802 514.8899 241.085 514.8899 221.5275 516.2386 216.1324 578.9575 216.1324 576.2599 226.2483 583.6783 226.2483 583.6783 241.7594 596.4918 241.7594 596.4918 261.9913 594.4686 261.9913 593.7942 273.456 585.0271 272.1072 571.5391 272.7816 560.7488 271.4329 560.7488 276.828 556.7024 278.1768 551.9816 284.9208 534.4473 289.6415 533.7729 293.0135 525.6802 293.6879 512.1923 293.6879 502.7507 292.3391 Z" id="US.MT.105" fill="#cee3f5" stroke="#6e6e6e" stroke-width="0.4">
      <desc>
        <name>Valley County</name>
        <stateAbbrev>MT</stateAbbrev>
        <state>Montana</state>
        <fips>105</fips>
        <incits>30105</incits>
        <id>US.MT.105</id>
        <population>7630</population>
      </desc>
    </path>
    <path d="M 336.1749 377.313 336.8493 348.9884 354.3836 346.9652 362.4763 350.3372 367.1971 350.3372 388.1034 350.3372 387.429 377.9874 372.5923 377.9874 336.1749 377.313 Z" id="US.MT.107" fill="#cee3f5" stroke="#6e6e6e" stroke-width="0.4">
      <desc>
        <name>Wheatland County</name>
        <stateAbbrev>MT</stateAbbrev>
        <state>Montana</state>
        <fips>107</fips>
        <incits>30107</incits>
        <id>US.MT.107</id>
        <population>2134</population>
      </desc>
    </path>
    <path d="M 415.0792 382.7082 423.172 382.7082 445.4271 382.7082 445.4271 376.6386 450.1478 375.2899 467.0077 375.2899 468.3565 371.2435 473.0773 367.8715 481.17 367.8715 481.17 361.8019 483.8676 362.4763 491.286 372.5923 499.3787 380.0106 497.3556 388.1034 487.914 388.1034 487.914 391.4754 480.4957 391.4754 475.7749 396.1961 466.3333 396.1961 464.9845 402.9401 464.9845 418.4512 450.8222 421.8232 431.2647 421.8232 424.5208 418.4512 419.8 413.056 416.428 409.0097 416.428 392.8242 415.0792 382.7082 Z" id="US.MT.111" fill="#cee3f5" stroke="#6e6e6e" stroke-width="0.4">
      <desc>
        <name>Yellowstone County</name>
        <stateAbbrev>MT</stateAbbrev>
        <state>Montana</state>
        <fips>111</fips>
        <incits>30111</incits>
        <id>US.MT.111</id>
        <population>154162</population>
      </desc>
    </path>
    <path d="M 176.343 375.2899 203.9932 375.2899 202.6444 380.0106 196.5749 382.7082 191.1797 382.7082 182.4126 394.1729 172.971 398.8937 165.5527 398.2193 155.4367 404.2889 148.0184 394.1729 162.1807 386.7546 161.5063 377.313 176.343 377.313 176.343 375.2899 Z" id="US.MT.30023" fill="#cee3f5" stroke="#6e6e6e" stroke-width="0.4">
      <desc>
        <name>Deer Lodge County</name>
        <stateAbbrev>MT</stateAbbrev>
        <state>Montana</state>
        <fips>023</fips>
        <incits>30023</incits>
        <id>US.MT.30023</id>
        <population>9329</population>
      </desc>
    </path>
  </g>
</svg>