<?xml version="1.0" encoding="UTF-8"?>
<svg xmlns="http://www.w3.org/2000/svg" width="700" height="700">
  <g id="iceland">
    <path d="M 161 501.5 154 502.5 148 495.5 159 491.5 154 487.5 154 485.5 161 486.5 162 483.5 154 478.5 166 479.5 170 481.5 169 476.5 175 476.5 176 473.5 173 475.5 176 470.5 169 470.5 169 466.5 162 467.5 164 462.5 165 461.5 174 461.5 182 464.5 183 474.5 179 490.5 167 495.5 161 501.5 Z" id="IS.NE" fill="#cee3f5" stroke="#6e6e6e" stroke-width="0.4">
      <desc>
        <labelrank>8</labelrank>
        <code_hasc>IS.NE</code_hasc>
        <name>Reykjavík</name>
        <admin>Iceland</admin>
        <type_en>Region</type_en>
        <region/>
        <woe_id>-99</woe_id>
        <longitude>-21</longitude>
        <woe_name/>
        <fips>IC32</fips>
        <woe_label/>
        <latitude>64</latitude>
        <iso_a2>IS</iso_a2>
        <postal>NE</postal>
        <type>Landsvæði</type>
        <id>IS.NE</id>
      </desc>
    </path>
    <path d="M 224 356.5 215 354.5 206 341.5 205 318.5 192 296.5 184 297.5 181 294.5 184 288.5 184 276.5 179 283.5 161 285.5 164 281.5 161 275.5 156 278.5 153 271.5 152 280.5 147 286.5 144 286.5 136 277.5 150 269.5 154 261.5 145 270.5 138 271.5 141 266.5 137 270.5 134 268.5 135 272.5 130 274.5 126 255.5 126 266.5 123 270.5 121 265.5 119 271.5 116 264.5 118 256.5 113 255.5 114 275.5 111 273.5 110 270.5 105 268.5 110 259.5 107 257.5 104 264.5 101 258.5 99 267.5 93 268.5 88 265.5 88 261.5 86 262.5 86 272.5 83 276.5 72 271.5 67 277.5 56 277.5 52 284.5 41 286.5 35 284.5 36 276.5 33 278.5 23 271.5 5 272.5 1 269.5 12 260.5 13 253.5 17 250.5 42 269.5 47 267.5 42 266.5 31 249.5 48 256.5 31 241.5 29 228.5 31 226.5 59 242.5 63 247.5 63 256.5 67 251.5 74 253.5 73 249.5 81 247.5 70 246.5 65 240.5 83 238.5 87 231.5 79 235.5 54 231.5 46 216.5 46 211.5 50 208.5 62 216.5 67 215.5 86 222.5 64 212.5 50 195.5 51 188.5 54 186.5 68 194.5 74 194.5 77 200.5 74 193.5 67 189.5 59 180.5 71 179.5 76 183.5 71 177.5 64 176.5 73 167.5 91 177.5 94 187.5 99 182.5 101 194.5 96 204.5 104 192.5 106 198.5 110 196.5 103 207.5 107 206.5 111 199.5 111 213.5 115 192.5 120 191.5 126 204.5 121 225.5 129 203.5 134 214.5 135 211.5 132 224.5 134 223.5 139 212.5 132 195.5 138 185.5 132 188.5 109 175.5 102 164.5 116 160.5 125 162.5 128 166.5 128 162.5 140 158.5 129 158.5 133 153.5 132 151.5 126 156.5 119 155.5 122 146.5 125 144.5 121 145.5 112 151.5 114 144.5 112 145.5 105 154.5 95 151.5 90 145.5 99 144.5 100 140.5 95 136.5 96 132.5 101 136.5 100 132.5 107 132.5 110 135.5 105 129.5 112 129.5 120 136.5 128 129.5 137 135.5 134 129.5 136 130.5 141 141.5 150 149.5 149 160.5 152 158.5 154 160.5 156 157.5 157 160.5 163 159.5 167 164.5 162 168.5 167 167.5 177 173.5 178 188.5 183 190.5 182 197.5 185 195.5 183 188.5 189 186.5 191 190.5 188 194.5 190 197.5 198 196.5 202 199.5 203 203.5 185 207.5 186 209.5 197 206.5 199 207.5 196 211.5 204 210.5 205 216.5 203 219.5 205 222.5 202 230.5 193 236.5 202 240.5 195 247.5 187 247.5 180 235.5 174 235.5 181 242.5 180 247.5 185 255.5 197 256.5 192 267.5 203 261.5 203 273.5 193 284.5 203 279.5 210 287.5 210 305.5 216 319.5 216 326.5 217 326.5 217 328.5 218 330.5 218 338.5 221 346.5 222 352.5 223 353.5 224 356.5 Z" id="IS.VF" fill="#cee3f5" stroke="#6e6e6e" stroke-width="0.4">
      <desc>
        <labelrank>8</labelrank>
        <code_hasc>IS.VF</code_hasc>
        <name>Vestfirðir</name>
        <admin>Iceland</admin>
        <type_en>Region</type_en>
        <region/>
        <woe_id>-99</woe_id>
        <longitude>-22</longitude>
        <woe_name/>
        <fips>IC19</fips>
        <woe_label/>
        <latitude>65</latitude>
        <iso_a2>IS</iso_a2>
        <postal>VF</postal>
        <type>Landsvæði</type>
        <id>IS.VF</id>
      </desc>
    </path>
    <path d="M 464 530.5 462 502.5 464 490.5 491 423.5 503 391.5 504 380.5 500 369.5 503 353.5 514 349.5 528 332.5 526 308.5 536 289.5 525 276.5 532 253.5 554 255.5 553 225.5 566 220.5 573 207.5 579 205.5 586 196.5 610 190.5 612 184.5 615 183.5 614 198.5 601 218.5 607 213.5 604 222.5 606 223.5 633 210.5 635 212.5 632 221.5 640 228.5 636 231.5 625 256.5 638 231.5 646 233.5 642 229.5 657 236.5 666 233.5 672 246.5 677 241.5 684 247.5 683 268.5 673 271.5 680 276.5 664 285.5 683 279.5 691 285.5 687 291.5 663 297.5 689 294.5 688 301.5 682 305.5 687 303.5 687 307.5 691 309.5 696 298.5 699 311.5 693 319.5 695 323.5 691 326.5 683 327.5 679 321.5 665 315.5 668 319.5 666 321.5 653 323.5 674 324.5 681 332.5 688 334.5 687 338.5 666 337.5 684 344.5 686 347.5 682 351.5 675 349.5 674 351.5 682 356.5 671 357.5 669 360.5 674 366.5 656 374.5 652 372.5 645 361.5 639 360.5 643 362.5 643 366.5 648 369.5 657 381.5 646 379.5 643 382.5 649 388.5 638 391.5 642 397.5 645 398.5 653 389.5 646 400.5 643 420.5 630 425.5 641 418.5 632 417.5 628 426.5 618 435.5 623 441.5 620 444.5 615 444.5 608 439.5 601 445.5 602 440.5 599 441.5 596 435.5 597 441.5 594 440.5 590 431.5 587 428.5 583 427.5 588 429.5 591 435.5 589 436.5 589 445.5 584 445.5 587 447.5 585 449.5 572 455.5 571 453.5 564 461.5 569 458.5 569 461.5 552 468.5 550 470.5 553 471.5 543 482.5 541 481.5 541 484.5 533 489.5 531 495.5 523 506.5 521 507.5 524 503.5 514 512.5 503 514.5 505 516.5 503 523.5 496 514.5 495 523.5 493 514.5 494 524.5 492 526.5 492 509.5 490 506.5 491 514.5 487 517.5 489 525.5 476 525.5 475 523.5 464 530.5 Z" id="IS.AL" fill="#cee3f5" stroke="#6e6e6e" stroke-width="0.4">
      <desc>
        <labelrank>8</labelrank>
        <code_hasc>IS.AL</code_hasc>
        <name>Austurland</name>
        <admin>Iceland</admin>
        <type_en>Region</type_en>
        <region/>
        <woe_id>-99</woe_id>
        <longitude>-15</longitude>
        <woe_name/>
        <fips>IC20</fips>
        <woe_label/>
        <latitude>65</latitude>
        <iso_a2>IS</iso_a2>
        <postal>AL</postal>
        <type>Landsvæði</type>
        <id>IS.AL</id>
      </desc>
    </path>
    <path d="M 388 366.5 359 374.5 341 382.5 325 383.5 309 388.5 307 389.5 305 388.5 288 381.5 292 375.5 300 366.5 299 361.5 261 358.5 240 365.5 236 362.5 230 361.5 224 357.5 224 356.5 223 353.5 222 352.5 221 346.5 218 338.5 217 328.5 217 326.5 218 326.5 219 324.5 215 311.5 218 303.5 216 285.5 219 283.5 225 298.5 228 300.5 223 278.5 226 265.5 242 247.5 246 249.5 245 269.5 247 262.5 249 271.5 255 277.5 258 269.5 252 265.5 259 262.5 261 272.5 261 264.5 265 252.5 268 251.5 266 247.5 268 239.5 256 196.5 259 187.5 278 181.5 292 215.5 302 219.5 308 237.5 312 240.5 315 236.5 319 238.5 318 241.5 322 224.5 314 206.5 320 198.5 318 191.5 323 186.5 331 185.5 335 187.5 337 183.5 342 188.5 339 182.5 340 175.5 343 178.5 348 187.5 354 196.5 353 199.5 353 202.5 352 203.5 351 204.5 351 205.5 352 205.5 354 207.5 354 208.5 354 209.5 355 211.5 354 212.5 354 213.5 352 217.5 351 218.5 349 218.5 348 218.5 348 219.5 347 220.5 347 221.5 347 223.5 347 224.5 348 225.5 356 232.5 357 235.5 358 236.5 358 240.5 359 243.5 360 245.5 359 245.5 359 246.5 356 249.5 356 252.5 356 253.5 354 257.5 353 259.5 353 260.5 353 261.5 354 262.5 357 265.5 360 266.5 363 268.5 365 271.5 365 272.5 365 273.5 365 274.5 363 277.5 363 279.5 362 282.5 362 283.5 362 284.5 362 285.5 366 287.5 368 293.5 374 295.5 378 307.5 389 317.5 390 320.5 391 326.5 391 334.5 391 341.5 390 354.5 388 366.5 Z" id="IS.NV" fill="#cee3f5" stroke="#6e6e6e" stroke-width="0.4">
      <desc>
        <labelrank>8</labelrank>
        <code_hasc>IS.NV</code_hasc>
        <name>Norðurland vestra</name>
        <admin>Iceland</admin>
        <type_en>Region</type_en>
        <region/>
        <woe_id>-99</woe_id>
        <longitude>-19</longitude>
        <woe_name/>
        <fips>IC05</fips>
        <woe_label/>
        <latitude>65</latitude>
        <iso_a2>IS</iso_a2>
        <postal>NV</postal>
        <type>Landsvæði</type>
        <id>IS.NV</id>
      </desc>
    </path>
    <path d="M 615 183.5 612 184.5 610 190.5 586 196.5 579 205.5 573 207.5 566 220.5 553 225.5 554 255.5 532 253.5 525 276.5 536 289.5 526 308.5 528 332.5 514 349.5 503 353.5 500 369.5 504 380.5 503 391.5 491 423.5 400 375.5 394 372.5 388 366.5 391 341.5 391 326.5 390 320.5 389 317.5 378 307.5 374 295.5 368 293.5 366 287.5 362 285.5 362 284.5 362 283.5 362 282.5 363 279.5 363 278.5 363 277.5 365 274.5 365 273.5 365 272.5 365 271.5 363 268.5 360 266.5 357 265.5 355 263.5 354 262.5 353 261.5 353 260.5 353 259.5 354 257.5 355 255.5 355 254.5 355 253.5 356 253.5 356 249.5 359 246.5 359 245.5 360 245.5 359 243.5 358 240.5 358 236.5 357 235.5 356 232.5 348 225.5 347 224.5 347 223.5 347 221.5 347 220.5 348 219.5 348 218.5 349 218.5 352 217.5 354 213.5 354 212.5 354 209.5 354 208.5 354 207.5 354 206.5 352 205.5 351 205.5 351 204.5 352 203.5 353 202.5 353 199.5 354 197.5 354 196.5 343 178.5 340 175.5 341 174.5 343 172.5 350 171.5 350 176.5 355 168.5 358 169.5 357 177.5 362 172.5 367 177.5 366 185.5 370 182.5 373 185.5 374 202.5 386 205.5 394 217.5 398 237.5 405 250.5 402 237.5 404 222.5 401 212.5 394 207.5 389 195.5 386 182.5 387 170.5 402 174.5 411 173.5 413 178.5 417 179.5 424 186.5 435 208.5 433 199.5 438 197.5 431 196.5 441 195.5 443 201.5 446 180.5 457 160.5 467 163.5 472 176.5 474 172.5 482 170.5 484 170.5 480 172.5 482 175.5 485 170.5 492 177.5 486 167.5 495 161.5 490 167.5 496 164.5 502 169.5 498 162.5 500 147.5 489 119.5 491 115.5 494 118.5 496 112.5 499 118.5 501 113.5 505 118.5 507 117.5 513 109.5 522 108.5 530 114.5 528 125.5 535 124.5 534 127.5 543 129.5 545 135.5 541 146.5 545 147.5 546 153.5 555 152.5 565 163.5 567 146.5 580 142.5 590 125.5 595 123.5 600 126.5 611 123.5 587 140.5 586 143.5 591 150.5 591 154.5 578 168.5 585 169.5 585 176.5 599 177.5 604 172.5 608 172.5 615 183.5 Z" id="IS.1592" fill="#cee3f5" stroke="#6e6e6e" stroke-width="0.4">
      <desc>
        <labelrank>8</labelrank>
        <code_hasc>IS.NE</code_hasc>
        <name>Norðurland eystra</name>
        <admin>Iceland</admin>
        <type_en>Region</type_en>
        <region/>
        <woe_id>-99</woe_id>
        <longitude>-17</longitude>
        <woe_name/>
        <fips>IC32</fips>
        <woe_label/>
        <latitude>65</latitude>
        <iso_a2>IS</iso_a2>
        <postal>NE</postal>
        <type>Landsvæði</type>
        <id>IS.1592</id>
      </desc>
    </path>
    <path d="M 161 501.5 170 501.5 179 502.5 163 520.5 162 522.5 161 525.5 159 526.5 152 527.5 134 522.5 130 526.5 128 524.5 120 528.5 114 527.5 111 530.5 108 527.5 110 522.5 108 517.5 111 509.5 114 509.5 108 505.5 111 488.5 116 492.5 122 504.5 130 505.5 133 499.5 140 496.5 143 499.5 148 495.5 154 502.5 161 501.5 Z" id="IS.SU" fill="#cee3f5" stroke="#6e6e6e" stroke-width="0.4">
      <desc>
        <labelrank>8</labelrank>
        <code_hasc>IS.SU</code_hasc>
        <name>Suðurnes</name>
        <admin>Iceland</admin>
        <type_en>Independent Town</type_en>
        <region/>
        <woe_id>-99</woe_id>
        <longitude>-22</longitude>
        <woe_name/>
        <fips>IC10</fips>
        <woe_label/>
        <latitude>63</latitude>
        <iso_a2>IS</iso_a2>
        <postal>SU</postal>
        <type>Kaupstadir</type>
        <id>IS.SU</id>
      </desc>
    </path>
    <path d="M 272 591.5 270 588.5 273 585.5 272 591.5 Z M 440 542.5 439 545.5 439 542.5 435 544.5 438 540.5 440 542.5 Z M 491 423.5 464 490.5 462 502.5 464 530.5 452 534.5 453 528.5 450 535.5 442 541.5 448 534.5 442 530.5 440 535.5 435 534.5 437 536.5 431 538.5 429 546.5 426 546.5 427 549.5 437 547.5 433 554.5 429 552.5 426 555.5 428 558.5 433 556.5 427 570.5 412 578.5 409 575.5 416 568.5 409 570.5 403 567.5 407 579.5 413 579.5 376 591.5 338 586.5 309 574.5 308 570.5 298 570.5 305 572.5 286 569.5 277 571.5 266 561.5 270 561.5 267 560.5 267 557.5 265 560.5 262 558.5 265 558.5 258 547.5 256 548.5 261 556.5 253 546.5 252 542.5 256 538.5 261 537.5 269 543.5 260 534.5 261 526.5 252 539.5 251 546.5 238 537.5 249 537.5 248 534.5 242 535.5 244 523.5 241 522.5 243 526.5 239 532.5 234 532.5 235 535.5 211 521.5 210 513.5 220 511.5 207 510.5 203 515.5 209 520.5 199 520.5 198 525.5 179 528.5 170 522.5 161 525.5 162 522.5 163 520.5 179 502.5 182 502.5 183 499.5 185 497.5 187 495.5 195 478.5 196 465.5 213 448.5 218 442.5 236 422.5 284 397.5 287 393.5 288 381.5 305 388.5 309 388.5 325 383.5 341 382.5 359 374.5 388 366.5 394 372.5 400 375.5 491 423.5 Z" id="IS.SL" fill="#cee3f5" stroke="#6e6e6e" stroke-width="0.4">
      <desc>
        <labelrank>8</labelrank>
        <code_hasc>IS.SL</code_hasc>
        <name>Suðurland</name>
        <admin>Iceland</admin>
        <type_en>Region</type_en>
        <region/>
        <woe_id>-99</woe_id>
        <longitude>-18</longitude>
        <woe_name/>
        <fips>IC23</fips>
        <woe_label/>
        <latitude>64</latitude>
        <iso_a2>IS</iso_a2>
        <postal>SL</postal>
        <type>Landsvæði</type>
        <id>IS.SL</id>
      </desc>
    </path>
    <path d="M 179 502.5 170 501.5 161 501.5 167 495.5 179 490.5 183 474.5 182 464.5 174 461.5 165 461.5 168 459.5 170 457.5 173 450.5 180 450.5 178 448.5 182 446.5 192 448.5 194 448.5 195 446.5 199 444.5 205 444.5 208 442.5 211 443.5 212 443.5 213 444.5 213 445.5 213 446.5 213 448.5 196 465.5 195 478.5 187 495.5 185 497.5 183 499.5 182 502.5 179 502.5 Z" id="IS.HO" fill="#cee3f5" stroke="#6e6e6e" stroke-width="0.4">
      <desc>
        <labelrank>8</labelrank>
        <code_hasc>IS.HO</code_hasc>
        <name>Höfuðborgarsvæði</name>
        <admin>Iceland</admin>
        <type_en>Region</type_en>
        <region/>
        <woe_id>-99</woe_id>
        <longitude>-21</longitude>
        <woe_name/>
        <fips>IC15</fips>
        <woe_label/>
        <latitude>64</latitude>
        <iso_a2>IS</iso_a2>
        <postal>HO</postal>
        <type>Landsvæði</type>
        <id>IS.HO</id>
      </desc>
    </path>
    <path d="M 131 390.5 128 386.5 133 392.5 131 390.5 Z M 224 356.5 224 357.5 230 361.5 236 362.5 240 365.5 261 358.5 299 361.5 300 366.5 292 375.5 288 381.5 287 393.5 284 397.5 236 422.5 218 442.5 213 448.5 213 446.5 213 445.5 213 444.5 211 443.5 208 442.5 205 444.5 199 444.5 195 446.5 193 446.5 193 442.5 181 442.5 176 443.5 160 457.5 151 454.5 158 446.5 167 443.5 157 444.5 154 441.5 159 426.5 172 421.5 170 417.5 177 410.5 181 410.5 185 416.5 190 417.5 182 411.5 185 409.5 178 409.5 183 405.5 190 404.5 183 403.5 177 407.5 180 402.5 167 417.5 164 417.5 157 423.5 155 417.5 152 430.5 147 433.5 143 426.5 141 428.5 142 415.5 136 418.5 135 409.5 129 401.5 134 405.5 137 397.5 146 390.5 132 400.5 138 388.5 130 386.5 132 377.5 130 380.5 123 380.5 120 382.5 122 384.5 116 385.5 115 380.5 108 380.5 113 383.5 111 384.5 107 381.5 82 379.5 78 375.5 69 376.5 65 380.5 57 377.5 59 376.5 54 379.5 50 387.5 40 389.5 33 383.5 27 363.5 40 358.5 54 363.5 62 357.5 70 357.5 70 354.5 78 360.5 80 357.5 80 349.5 84 346.5 90 347.5 84 356.5 88 362.5 88 356.5 94 348.5 99 352.5 109 346.5 103 345.5 113 339.5 115 343.5 111 346.5 115 345.5 116 349.5 122 353.5 119 348.5 124 343.5 135 342.5 149 347.5 151 345.5 170 346.5 172 343.5 169 341.5 176 327.5 174 320.5 157 334.5 124 325.5 130 324.5 124 322.5 132 310.5 147 303.5 160 291.5 164 293.5 163 290.5 179 283.5 184 276.5 184 288.5 181 294.5 184 297.5 192 296.5 205 318.5 206 341.5 215 354.5 224 356.5 Z" id="IS.VL" fill="#cee3f5" stroke="#6e6e6e" stroke-width="0.4">
      <desc>
        <labelrank>8</labelrank>
        <code_hasc>IS.VL</code_hasc>
        <name>Vesturland</name>
        <admin>Iceland</admin>
        <type_en>Region</type_en>
        <region/>
        <woe_id>-99</woe_id>
        <longitude>-21</longitude>
        <woe_name/>
        <fips>IC17</fips>
        <woe_label/>
        <latitude>64</latitude>
        <iso_a2>IS</iso_a2>
        <postal>VL</postal>
        <type>Landsvæði</type>
        <id>IS.VL</id>
      </desc>
    </path>
  </g>
</svg>