<?xml version="1.0" encoding="UTF-8"?>
<svg xmlns="http://www.w3.org/2000/svg" width="700" height="700">
  <g id="north_korea">
    <path d="M 91.156 567.4517 92.29 569.1527 88.8879 571.9878 91.156 568.5857 88.8879 568.5857 89.4549 565.1836 91.156 567.4517 Z M 31.619 403.5833 29.918 404.7173 29.918 401.8822 31.619 403.5833 Z M 33.3201 393.3769 31.619 394.511 32.753 391.6759 33.3201 393.3769 Z M 426.264 399.0471 423.4289 400.7482 420.0268 399.6141 421.1608 397.3461 424.563 397.3461 425.13 399.0471 426.264 397.3461 426.264 399.0471 Z" id="KP.5044" fill="#cee3f5" stroke="#6e6e6e" stroke-width="0.4">
      <desc>
        <labelrank>20</labelrank>
        <code_hasc>-99</code_hasc>
        <name/>
        <admin>North Korea</admin>
        <type_en/>
        <region/>
        <woe_id>-99</woe_id>
        <longitude>125</longitude>
        <woe_name/>
        <fips/>
        <woe_label/>
        <latitude>37</latitude>
        <iso_a2>KP</iso_a2>
        <postal/>
        <type/>
        <id>KP.5044</id>
      </desc>
    </path>
    <path d="M 296.9838 519.8221 297.5508 524.9253 300.3859 531.1625 298.6848 537.3997 286.2104 543.6369 284.5093 558.3794 277.1381 570.2868 264.0967 578.792 267.4988 585.0292 267.4988 598.6377 276.0041 614.5142 281.1072 617.3493 285.0764 616.7823 283.3753 630.9578 290.1795 637.762 270.9009 663.2778 260.6946 668.381 258.9935 686.5256 251.0552 689.3607 236.3128 679.7214 232.9106 674.0512 231.2096 644.5662 235.1787 640.0301 236.8798 643.9992 238.0138 641.7311 234.6117 634.3599 218.1682 627.5556 201.7246 634.3599 184.7141 634.9269 182.446 626.4216 175.0747 615.6483 166.0024 616.2153 166.5695 613.3802 162.0333 609.411 164.3014 606.576 157.4972 574.2559 150.6929 553.8432 164.8684 546.472 167.7035 546.472 174.5077 547.039 176.2088 547.039 186.4151 553.2762 186.9821 553.2762 188.1162 555.5443 188.1162 558.3794 188.1162 558.9464 188.6832 559.5134 192.6523 561.7815 198.3225 564.6166 201.1576 565.1836 202.2916 565.1836 204.5597 564.6166 205.6937 564.6166 206.2608 564.0496 206.8278 563.4825 208.5288 560.6474 209.0959 560.0804 210.2299 559.5134 211.3639 558.9464 215.3331 558.3794 215.9001 557.8123 216.4671 557.2453 217.0341 556.6783 217.0341 556.1113 217.6011 555.5443 217.6011 551.0081 217.0341 548.74 213.065 543.0699 208.5288 539.6677 207.9618 539.1007 207.9618 538.5337 207.3948 537.9667 207.3948 537.3997 207.3948 535.6986 207.9618 532.8635 208.5288 531.1625 209.6629 530.0284 210.2299 530.0284 211.3639 530.5955 214.766 528.3274 215.9001 528.3274 216.4671 528.3274 219.3022 528.8944 223.2713 532.2965 225.5394 532.8635 226.6734 532.8635 228.9415 533.4305 229.5085 533.4305 232.9106 535.1316 233.4777 535.6986 234.0447 535.6986 234.6117 536.2656 235.1787 536.8327 243.684 539.1007 245.3851 539.1007 245.9521 538.5337 246.5191 537.9667 247.0861 537.3997 247.0861 536.8327 247.0861 536.2656 246.5191 533.9976 245.3851 530.5955 248.2201 527.7604 248.7872 527.1933 249.3542 527.7604 254.4574 531.1625 257.8595 531.7295 261.2616 531.1625 262.9626 530.5955 263.5297 530.0284 263.5297 528.8944 262.9626 528.3274 261.2616 526.0593 260.6946 524.3582 260.1275 522.0902 259.5605 521.5232 253.8903 511.8838 255.5914 506.2136 256.7254 505.6466 257.2924 506.2136 261.8286 510.1828 263.5297 510.1828 264.6637 510.1828 271.4679 509.0487 275.437 511.8838 279.4062 513.0179 281.1072 513.5849 282.8083 514.7189 289.0455 519.8221 296.9838 519.8221 Z" id="KP.WB" fill="#cee3f5" stroke="#6e6e6e" stroke-width="0.4">
      <desc>
        <labelrank>6</labelrank>
        <code_hasc>KP.WB</code_hasc>
        <name>Hwanghae-bukto</name>
        <admin>North Korea</admin>
        <type_en>Province</type_en>
        <region/>
        <woe_id>2345953</woe_id>
        <longitude>126</longitude>
        <woe_name>Hwanghae-bukto</woe_name>
        <fips>KN07</fips>
        <woe_label>Hwanghae-bukto, KP, North Korea</woe_label>
        <latitude>38</latitude>
        <iso_a2>KP</iso_a2>
        <postal>WB</postal>
        <type>Do</type>
        <id>KP.WB</id>
      </desc>
    </path>
    <path d="M 118.3729 689.9277 111.0016 695.0309 108.1665 694.4639 120.6409 686.5256 118.3729 689.9277 Z M 101.9293 683.1235 100.2283 681.4224 105.3314 679.1543 101.9293 683.1235 Z M 90.589 678.0203 85.4858 679.7214 88.8879 676.3193 90.589 678.0203 Z M 77.5475 583.8952 79.8156 588.4314 67.9082 585.0292 73.5784 580.4931 77.5475 583.8952 Z M 157.4972 574.2559 164.3014 606.576 162.0333 609.411 166.5695 613.3802 166.0024 616.2153 175.0747 615.6483 182.446 626.4216 184.7141 634.9269 201.7246 634.3599 218.1682 627.5556 234.6117 634.3599 238.0138 641.7311 236.8798 643.9992 235.1787 640.0301 231.2096 644.5662 232.9106 674.0512 209.6629 679.7214 206.2608 682.5565 206.8278 693.8968 201.7246 692.7628 199.4565 684.8245 197.1885 684.8245 196.6214 675.7522 192.0853 677.4533 186.9821 669.515 185.2811 671.2161 189.2502 681.4224 182.446 678.5873 173.9407 664.9789 170.5386 663.8448 170.5386 658.7417 149.5589 652.5045 147.2908 655.3396 148.9919 657.6076 157.4972 659.8757 157.4972 663.2778 162.0333 663.8448 159.7652 667.247 163.7344 667.247 158.0642 670.6491 152.394 666.6799 152.961 675.7522 151.26 678.5873 153.528 680.2884 149.5589 682.5565 150.6929 688.2266 145.5898 684.8245 141.0536 686.5256 141.0536 683.6905 134.8164 691.6288 125.7441 693.3298 121.208 699 123.476 687.6596 131.9813 685.9586 125.1771 684.8245 126.3111 683.1235 133.6824 679.7214 140.4866 680.8554 141.0536 677.4533 135.9504 675.1852 139.3526 670.6491 130.8473 667.814 131.4143 669.515 126.3111 670.082 130.8473 672.9171 132.5483 676.8863 122.909 674.0512 125.1771 676.8863 117.8058 680.8554 111.0016 678.5873 118.3729 671.7831 113.8367 664.4119 104.7644 672.9171 87.7539 666.6799 87.7539 662.7108 84.3517 664.4119 85.4858 660.4427 93.424 657.6076 100.7953 660.4427 104.7644 659.3087 105.3314 656.4736 103.0634 657.6076 99.0942 654.7725 97.9602 650.2364 108.1665 648.5353 112.7027 653.0715 114.9708 645.1332 101.9293 642.2981 88.3209 646.2673 75.8465 636.6279 73.5784 639.463 65.6401 640.5971 52.5987 636.0609 69.0422 629.2567 73.0114 623.5865 76.9805 624.7206 79.8156 629.2567 87.1868 624.1535 79.2486 623.5865 74.7124 619.6174 76.4135 608.277 83.7847 594.6686 86.6198 592.9675 86.6198 595.8026 91.156 588.4314 88.3209 575.9569 93.9911 576.524 96.2591 579.3591 100.7953 576.524 103.6304 578.225 103.6304 566.8846 106.4655 571.4208 109.3006 571.4208 109.3006 566.8846 111.5686 569.1527 118.3729 566.8846 121.775 569.1527 129.1462 564.0496 136.5175 565.7506 138.7855 562.9155 143.3217 565.7506 144.4557 570.2868 147.2908 566.8846 151.26 571.9878 157.4972 574.2559 Z" id="KP.WN" fill="#cee3f5" stroke="#6e6e6e" stroke-width="0.4">
      <desc>
        <labelrank>6</labelrank>
        <code_hasc>KP.WN</code_hasc>
        <name>Hwanghae-namdo</name>
        <admin>North Korea</admin>
        <type_en>Province</type_en>
        <region/>
        <woe_id>2345952</woe_id>
        <longitude>125</longitude>
        <woe_name>Hwanghae-namdo</woe_name>
        <fips>KN06</fips>
        <woe_label>Hwanghae-namdo, KP, North Korea</woe_label>
        <latitude>37</latitude>
        <iso_a2>KP</iso_a2>
        <postal>WN</postal>
        <type>Do</type>
        <id>KP.WN</id>
      </desc>
    </path>
    <path d="M 235.1787 536.8327 234.6117 536.2656 233.4777 535.6986 232.9106 535.1316 229.5085 533.4305 228.9415 533.4305 226.6734 532.8635 223.2713 532.2965 219.3022 528.8944 216.4671 528.3274 215.9001 528.3274 214.766 528.3274 214.199 528.8944 211.3639 530.5955 210.2299 530.0284 209.6629 530.0284 208.5288 531.1625 207.9618 532.8635 207.3948 535.6986 207.3948 537.3997 207.3948 537.9667 207.9618 538.5337 207.9618 539.1007 208.5288 539.6677 213.065 543.0699 217.0341 548.74 217.6011 551.0081 217.6011 555.5443 217.0341 556.1113 217.0341 556.6783 216.4671 557.2453 215.9001 557.8123 215.3331 558.3794 210.2299 559.5134 209.0959 560.0804 208.5288 560.6474 206.8278 563.4825 206.2608 564.0496 205.6937 564.6166 204.5597 564.6166 202.2916 565.1836 201.1576 565.1836 198.3225 564.6166 194.3534 562.9155 192.6523 561.7815 188.6832 559.5134 188.1162 558.9464 188.1162 558.3794 188.1162 555.5443 186.9821 553.2762 186.4151 553.2762 176.2088 547.039 174.5077 547.039 167.7035 546.472 164.8684 546.472 150.6929 553.8432 145.5898 544.7709 151.827 540.8018 154.6621 532.8635 152.394 516.42 162.0333 508.4817 158.6312 505.6466 157.4972 493.7392 167.7035 488.069 179.6109 497.1413 181.879 504.5126 185.8481 495.4403 190.3842 495.4403 193.7864 498.8424 201.1576 495.4403 206.2608 502.2445 219.8692 506.2136 222.7043 515.853 231.2096 521.5232 235.1787 530.0284 235.1787 531.1625 235.1787 536.8327 Z" id="KP.PY" fill="#cee3f5" stroke="#6e6e6e" stroke-width="0.4">
      <desc>
        <labelrank>6</labelrank>
        <code_hasc>KP.PY</code_hasc>
        <name>P'yŏngyang</name>
        <admin>North Korea</admin>
        <type_en>Special City</type_en>
        <region/>
        <woe_id>20070115</woe_id>
        <longitude>125</longitude>
        <woe_name>P'yŏngyang</woe_name>
        <fips>KN12</fips>
        <woe_label>PÂ´yongyang-si, KP, North Korea</woe_label>
        <latitude>38</latitude>
        <iso_a2>KP</iso_a2>
        <postal>PY</postal>
        <type>Si</type>
        <id>KP.PY</id>
      </desc>
    </path>
    <path d="M 520.9561 324.7677 512.4509 322.4996 511.3168 314.5613 503.9456 307.7571 497.1413 291.3136 498.8424 283.3753 496.5743 277.1381 500.5435 268.6328 497.1413 255.5914 498.8424 251.6223 495.4403 240.8489 498.8424 233.4777 490.3371 219.8692 488.069 211.3639 496.5743 198.8895 496.5743 194.9204 492.6052 188.1162 482.9659 184.7141 485.234 179.0439 482.9659 171.6726 483.5329 160.3323 478.4297 159.7652 475.5946 145.5898 482.3989 145.0227 493.7392 130.8473 498.8424 130.2803 501.6775 122.909 507.3477 121.208 511.3168 114.4037 516.987 114.9708 525.4923 105.8985 522.6572 102.4963 527.1933 95.6921 523.7912 92.857 528.3274 91.723 528.3274 85.4858 534.5646 83.2177 536.8327 78.1145 539.6677 79.2486 538.5337 75.8465 543.0699 78.1145 547.606 76.4135 557.2453 86.0528 562.3485 80.3826 562.9155 75.2794 573.6889 75.8465 576.524 71.8773 577.091 57.1348 579.3591 54.2998 577.658 51.4647 581.6271 45.2275 578.792 37.2892 587.8643 7.2372 592.9675 5.5361 590.1324 2.7011 595.8026 1 602.6068 7.2372 613.9472 4.4021 611.6791 12.3404 625.2876 14.6084 625.8546 35.5881 634.3599 48.0626 644.5662 54.2998 645.1332 59.4029 646.8343 61.104 646.8343 67.3412 645.1332 73.5784 633.7929 78.1145 628.6897 78.6816 628.1227 82.0837 630.3907 84.9188 629.8237 90.0219 621.8855 103.0634 623.0195 111.0016 623.5865 112.7027 623.0195 120.6409 619.0504 124.6101 615.0812 122.342 610.5451 124.0431 607.143 134.8164 604.8749 132.5483 602.0398 136.5175 603.7409 139.3526 600.3387 147.8578 593.5345 146.7238 589.5654 165.4354 585.5963 163.7344 581.6271 166.0024 578.225 176.2088 573.6889 180.7449 569.1527 194.3534 570.2868 205.1267 585.0292 217.0341 575.9569 250.4882 577.658 269.7669 581.6271 273.736 578.792 283.9423 577.091 288.4785 562.3485 287.9115 557.2453 293.5816 547.606 295.8497 540.2348 300.3859 535.6986 310.0252 532.2965 305.489 528.3274 306.0561 520.9561 324.7677 Z" id="KP.HG" fill="#cee3f5" stroke="#6e6e6e" stroke-width="0.4">
      <desc>
        <labelrank>6</labelrank>
        <code_hasc>KP.HG</code_hasc>
        <name>Hamgyŏng-bukto</name>
        <admin>North Korea</admin>
        <type_en>Province</type_en>
        <region/>
        <woe_id>2345958</woe_id>
        <longitude>129</longitude>
        <woe_name>Hamgyŏng-bukto</woe_name>
        <fips>KN04</fips>
        <woe_label>Hamgyong-bukto, KP, North Korea</woe_label>
        <latitude>41</latitude>
        <iso_a2>KP</iso_a2>
        <postal>HG</postal>
        <type>Do</type>
        <id>KP.HG</id>
      </desc>
    </path>
    <path d="M 290.1795 637.762 283.3753 630.9578 285.0764 616.7823 281.1072 617.3493 276.0041 614.5142 267.4988 598.6377 267.4988 585.0292 264.0967 578.792 277.1381 570.2868 284.5093 558.3794 286.2104 543.6369 298.6848 537.3997 300.3859 531.1625 297.5508 524.9253 296.9838 519.8221 298.6848 514.1519 300.3859 511.3168 301.5199 510.7498 304.922 509.0487 305.489 508.4817 306.0561 507.9147 304.922 506.2136 302.0869 502.2445 303.221 501.1105 303.221 499.9764 302.6539 494.8733 302.6539 493.7392 303.221 493.1722 306.6231 492.6052 307.1901 492.0382 308.3241 490.9041 308.8911 490.3371 308.8911 489.2031 309.4582 486.368 310.0252 484.0999 310.5922 479.5638 311.7262 477.8627 312.2933 476.7287 313.4273 476.1617 313.9943 475.5946 315.6954 475.0276 325.3347 475.0276 328.7368 475.0276 333.84 476.1617 338.9431 475.5946 341.2112 475.5946 342.3452 475.5946 342.9123 475.5946 343.4793 475.5946 344.6133 476.1617 343.4793 477.8627 338.9431 480.6978 346.3144 481.2648 348.5825 484.0999 343.4793 486.368 340.0772 484.6669 337.8091 498.2754 340.0772 503.3786 345.7474 507.9147 349.7165 503.9456 353.6856 510.7498 361.6239 510.1828 368.4281 514.7189 377.5004 514.7189 390.5418 535.6986 392.8099 535.1316 403.0162 549.3071 410.9545 551.5751 423.4289 566.8846 430.8002 563.4825 438.7384 573.6889 439.3054 580.4931 430.2331 585.5963 430.2331 599.2047 426.831 606.576 412.0885 620.1844 405.2843 622.4525 380.3355 623.5865 375.2323 619.6174 345.7474 623.0195 336.108 619.6174 313.4273 620.7514 299.2518 627.5556 290.1795 637.762 Z" id="KP.KW" fill="#cee3f5" stroke="#6e6e6e" stroke-width="0.4">
      <desc>
        <labelrank>6</labelrank>
        <code_hasc>KP.KW</code_hasc>
        <name>Kangwŏn-do</name>
        <admin>North Korea</admin>
        <type_en>Province</type_en>
        <region/>
        <woe_id>2345954</woe_id>
        <longitude>127</longitude>
        <woe_name>Kangwŏn-do</woe_name>
        <fips>KN09</fips>
        <woe_label>Kangwon-do, KP, North Korea</woe_label>
        <latitude>38</latitude>
        <iso_a2>KP</iso_a2>
        <postal>KW</postal>
        <type>Do</type>
        <id>KP.KW</id>
      </desc>
    </path>
    <path d="M 307.1901 165.4354 303.221 172.8067 302.6539 188.6832 294.7157 196.6214 289.0455 196.6214 288.4785 203.9927 290.7465 206.8278 299.2518 205.1267 297.5508 209.6629 301.5199 222.7043 305.489 228.3745 305.489 232.9106 311.7262 245.9521 327.0357 251.6223 334.974 243.117 340.6442 241.9829 343.4793 246.5191 344.0463 256.1584 334.407 277.7051 334.974 282.2413 341.7782 289.0455 341.7782 293.5816 325.9017 302.6539 320.2315 316.2624 312.8603 317.9634 302.6539 324.2006 301.5199 334.974 295.2827 343.4793 293.5816 352.5516 282.2413 370.1292 260.6946 382.0366 255.5914 391.1089 243.117 396.779 236.8798 392.8099 232.9106 391.1089 230.6426 389.9748 221.5703 388.8408 219.3022 387.7067 215.3331 384.8716 213.632 383.1706 209.6629 377.5004 202.8587 371.2632 200.5906 367.2941 198.8895 365.593 197.7555 365.026 190.3842 362.1909 189.2502 362.1909 187.5491 362.1909 184.147 363.892 181.3119 363.892 166.5695 353.1186 163.7344 349.7165 163.1673 348.5825 162.6003 348.0154 162.6003 346.8814 163.1673 346.3144 163.7344 345.7474 164.3014 345.1803 164.3014 344.0463 163.7344 342.9123 159.7652 338.3761 159.1982 337.8091 159.1982 337.2421 159.1982 336.6751 159.1982 335.541 160.8993 329.3038 162.6003 326.4687 163.1673 325.3347 163.1673 324.7677 163.1673 323.6336 163.1673 323.0666 162.6003 321.3656 161.4663 316.8294 156.3631 316.2624 143.8887 305.489 144.4557 303.788 147.8578 303.221 150.6929 296.9838 157.4972 296.4167 160.3323 288.4785 164.3014 291.8806 171.6726 291.3136 168.2705 285.6434 180.1779 276.0041 185.8481 278.2721 192.6523 274.87 197.7555 277.7051 205.1267 275.437 205.1267 273.169 202.2916 273.169 209.0959 269.1998 214.766 260.6946 218.7352 255.0244 217.0341 252.1893 232.9106 242.55 249.9212 217.0341 253.3233 214.766 256.1584 214.766 254.4574 217.6011 258.4265 217.0341 256.1584 206.2608 264.6637 189.2502 263.5297 182.446 268.6328 175.6418 273.736 175.6418 279.9732 171.1056 275.437 166.5695 279.9732 166.5695 285.6434 172.2396 287.9115 167.7035 300.3859 158.6312 301.5199 163.1673 307.1901 165.4354 Z" id="KP.CH" fill="#cee3f5" stroke="#6e6e6e" stroke-width="0.4">
      <desc>
        <labelrank>6</labelrank>
        <code_hasc>KP.CH</code_hasc>
        <name>Chagang-do</name>
        <admin>North Korea</admin>
        <type_en>Province</type_en>
        <region/>
        <woe_id>2345950</woe_id>
        <longitude>126</longitude>
        <woe_name>Chagang-do</woe_name>
        <fips>KN01</fips>
        <woe_label>Chagang-do, KP, North Korea</woe_label>
        <latitude>40</latitude>
        <iso_a2>KP</iso_a2>
        <postal>CH</postal>
        <type>Do</type>
        <id>KP.CH</id>
      </desc>
    </path>
    <path d="M 497.1413 255.5914 500.5435 268.6328 496.5743 277.1381 498.8424 283.3753 497.1413 291.3136 503.9456 307.7571 511.3168 314.5613 512.4509 322.4996 520.9561 324.7677 513.0179 336.6751 502.8115 338.3761 490.9041 349.7165 468.2234 357.6548 465.9553 363.3249 470.4915 365.026 471.0585 372.3972 467.0894 375.2323 463.1202 374.0983 447.8107 385.4387 440.4395 386.0057 436.4703 395.078 430.2331 388.8408 426.831 391.1089 427.3981 395.078 418.8928 396.779 404.1503 392.8099 397.3461 401.8822 393.9439 400.7482 390.5418 412.6556 380.9025 413.2226 382.0366 416.0577 372.3972 418.3258 368.9951 423.4289 365.026 420.5938 359.9228 425.13 351.9846 436.4703 353.1186 444.4086 357.0877 446.1097 359.3558 451.2128 353.6856 462.5532 356.5207 489.7701 353.1186 488.069 355.3867 480.6978 349.7165 472.1925 344.6133 476.1617 343.4793 475.5946 342.9123 475.5946 342.3452 475.5946 341.2112 475.5946 338.9431 475.5946 333.84 476.1617 328.7368 475.0276 325.3347 475.0276 315.6954 475.0276 313.4273 476.1617 312.2933 476.7287 311.7262 477.8627 311.1592 478.4297 310.5922 479.5638 310.0252 484.0999 309.4582 486.368 308.8911 489.2031 308.8911 490.3371 308.3241 490.9041 307.1901 492.0382 306.6231 492.6052 303.221 493.1722 302.6539 493.7392 302.6539 494.8733 303.221 499.9764 303.221 501.1105 302.0869 502.2445 292.4476 500.5435 290.1795 490.9041 283.9423 493.1722 281.1072 487.502 269.7669 487.502 269.1998 481.2648 273.169 467.0894 266.9318 458.0171 271.4679 448.9448 270.3339 441.5735 275.437 435.9033 272.6019 430.8002 278.8392 417.7587 294.7157 414.3566 302.0869 420.0268 310.5922 416.6247 312.8603 413.2226 307.7571 394.511 320.2315 377.5004 313.9943 372.3972 313.4273 360.4898 308.3241 354.8197 293.5816 352.5516 295.2827 343.4793 301.5199 334.974 302.6539 324.2006 312.8603 317.9634 320.2315 316.2624 325.9017 302.6539 341.7782 293.5816 341.7782 289.0455 334.974 282.2413 334.407 277.7051 344.0463 256.1584 354.2526 256.7254 358.2218 246.5191 361.0569 245.3851 371.2632 248.7872 372.3972 252.1893 370.1292 264.6637 363.3249 266.9318 366.16 276.0041 355.9537 286.7774 370.6962 308.8911 373.5313 319.6645 381.4695 321.3656 375.7994 337.2421 378.0674 345.1803 395.645 333.84 401.3152 323.6336 410.9545 320.7985 418.8928 325.9017 424.563 323.0666 435.9033 309.4582 439.8725 296.9838 443.2746 278.8392 441.0065 267.4988 455.749 264.6637 459.7181 257.2924 467.0894 253.3233 468.2234 244.251 480.1308 244.818 497.1413 255.5914 Z" id="KP.HN" fill="#cee3f5" stroke="#6e6e6e" stroke-width="0.4">
      <desc>
        <labelrank>6</labelrank>
        <code_hasc>KP.HN</code_hasc>
        <name>Hamgyŏng-namdo</name>
        <admin>North Korea</admin>
        <type_en>Province</type_en>
        <region/>
        <woe_id>2345951</woe_id>
        <longitude>127</longitude>
        <woe_name>Hamgyŏng-namdo</woe_name>
        <fips>KN13</fips>
        <woe_label>Hamgyong-namdo, KP, North Korea</woe_label>
        <latitude>40</latitude>
        <iso_a2>KP</iso_a2>
        <postal>HN</postal>
        <type>Do</type>
        <id>KP.HN</id>
      </desc>
    </path>
    <path d="M 54.8668 463.6872 53.1657 461.4192 55.4338 459.7181 54.8668 463.6872 Z M 65.0731 453.4809 62.805 453.4809 65.6401 450.0788 65.0731 453.4809 Z M 64.5061 445.5426 62.238 449.5118 54.2998 448.9448 58.2689 445.5426 64.5061 445.5426 Z M 83.7847 451.7799 76.9805 455.749 86.0528 440.4395 88.3209 442.1405 86.6198 443.2746 88.8879 448.9448 83.7847 451.7799 Z M 143.8887 305.489 156.3631 316.2624 161.4663 316.8294 162.6003 321.3656 163.1673 323.0666 163.1673 323.6336 163.1673 324.7677 163.1673 325.3347 162.6003 326.4687 160.8993 329.3038 159.1982 336.6751 159.1982 337.8091 159.7652 338.3761 163.7344 342.9123 164.3014 344.0463 164.3014 345.1803 163.7344 345.7474 163.1673 346.3144 162.6003 346.8814 162.6003 348.0154 163.7344 349.7165 166.5695 353.1186 181.3119 363.892 184.147 363.892 187.5491 362.1909 189.2502 362.1909 190.3842 362.1909 194.3534 364.459 197.7555 365.026 198.8895 365.593 200.5906 367.2941 202.8587 371.2632 209.6629 377.5004 213.632 383.1706 215.3331 384.8716 219.3022 387.7067 221.5703 388.8408 230.6426 389.9748 232.9106 391.1089 236.8798 392.8099 235.1787 395.078 234.6117 397.9131 234.6117 399.0471 237.4468 405.2843 237.4468 405.8513 237.4468 406.9854 237.4468 407.5524 237.4468 408.6864 236.3128 409.2535 235.7457 409.8205 232.9106 410.9545 226.1064 414.3566 209.6629 418.3258 206.2608 417.1917 204.5597 415.4907 202.2916 413.2226 201.1576 412.6556 199.4565 416.0577 193.7864 421.7279 191.5183 423.4289 189.8172 425.697 189.2502 426.264 188.1162 426.264 184.7141 426.831 184.147 427.3981 184.147 427.9651 184.147 429.0991 183.58 429.6661 183.013 430.2331 179.6109 434.7693 174.5077 438.1714 166.5695 441.5735 164.8684 441.0065 162.0333 441.0065 160.8993 441.0065 158.6312 442.7076 153.528 445.5426 147.2908 447.8107 142.1877 448.3777 141.6206 446.6767 124.6101 454.6149 117.2388 447.2437 118.9399 444.9756 112.1357 444.9756 113.2697 448.3777 107.5995 447.8107 105.8985 442.7076 100.7953 442.7076 92.29 434.7693 90.0219 436.4703 87.7539 434.7693 83.2177 427.3981 72.4444 422.2949 71.3103 417.7587 70.1763 435.9033 65.0731 436.4703 58.8359 442.1405 56.5678 437.0374 60.537 428.5321 54.2998 424.563 52.5987 412.6556 37.8562 410.3875 36.1552 404.7173 28.7839 397.9131 33.8871 395.078 38.4232 383.1706 47.4955 384.8716 38.9903 382.6036 35.0211 374.0983 56.5678 354.8197 71.3103 347.4484 74.7124 340.0772 80.3826 337.2421 90.589 325.3347 94.5581 329.3038 105.3314 329.3038 104.1974 319.6645 128.0122 310.0252 131.9813 305.489 143.8887 308.3241 143.8887 305.489 Z" id="KP.PB" fill="#cee3f5" stroke="#6e6e6e" stroke-width="0.4">
      <desc>
        <labelrank>6</labelrank>
        <code_hasc>KP.PB</code_hasc>
        <name>P'yŏngan-bukto</name>
        <admin>North Korea</admin>
        <type_en>Province</type_en>
        <region/>
        <woe_id>2345955</woe_id>
        <longitude>124</longitude>
        <woe_name>P'yŏngan-bukto</woe_name>
        <fips>KN11</fips>
        <woe_label>P'yongan-bukto, KP, North Korea</woe_label>
        <latitude>39</latitude>
        <iso_a2>KP</iso_a2>
        <postal>PB</postal>
        <type>Do</type>
        <id>KP.PB</id>
      </desc>
    </path>
    <path d="M 302.0869 502.2445 304.922 506.2136 306.0561 507.9147 305.489 508.4817 304.922 509.0487 301.5199 510.7498 300.3859 511.3168 298.6848 514.1519 296.9838 519.8221 291.3136 520.3891 289.0455 519.8221 282.8083 514.7189 281.1072 513.5849 271.4679 509.0487 269.7669 509.0487 264.6637 510.1828 263.5297 510.1828 261.8286 510.1828 259.5605 509.0487 257.2924 506.2136 256.7254 505.6466 255.5914 506.2136 253.8903 508.4817 253.8903 511.8838 257.2924 518.6881 259.5605 521.5232 260.1275 522.0902 260.6946 524.3582 260.6946 524.9253 261.2616 526.0593 262.3956 527.1933 262.9626 528.3274 263.5297 528.8944 263.5297 530.0284 262.9626 530.5955 261.2616 531.1625 257.8595 531.7295 255.5914 531.1625 254.4574 531.1625 249.3542 527.7604 248.7872 527.1933 248.2201 527.7604 245.9521 529.4614 245.3851 530.5955 246.5191 533.9976 247.0861 536.2656 247.0861 536.8327 247.0861 537.3997 246.5191 537.9667 245.9521 538.5337 245.3851 539.1007 243.684 539.1007 242.55 539.1007 235.1787 536.8327 235.1787 531.1625 235.1787 530.0284 231.2096 521.5232 222.7043 515.853 219.8692 506.2136 206.2608 502.2445 201.1576 495.4403 193.7864 498.8424 190.3842 495.4403 185.8481 495.4403 181.879 504.5126 179.6109 497.1413 167.7035 488.069 157.4972 493.7392 158.6312 505.6466 162.0333 508.4817 152.394 516.42 154.6621 532.8635 151.827 540.8018 145.5898 544.7709 150.6929 553.8432 155.7961 569.7197 151.827 568.5857 145.5898 561.2145 140.4866 560.0804 137.6515 553.2762 133.6824 556.1113 135.9504 558.9464 134.2494 559.5134 131.4143 561.2145 128.0122 558.9464 126.3111 561.2145 122.342 558.3794 121.208 562.9155 116.6718 560.6474 118.9399 555.5443 116.1048 550.4411 114.4037 549.8741 113.2697 557.8123 110.4346 557.8123 106.4655 552.1422 107.5995 537.3997 112.7027 524.9253 120.6409 512.4509 127.4452 512.4509 122.342 511.8838 122.909 503.3786 129.1462 501.1105 129.1462 495.4403 135.9504 495.4403 134.2494 491.4712 139.9196 482.9659 137.0845 481.8318 135.9504 475.5946 138.2185 476.7287 141.6206 473.3266 131.4143 471.0585 134.2494 465.3883 130.2803 466.5223 130.8473 463.1202 142.1877 448.3777 147.2908 447.8107 153.528 445.5426 158.6312 442.7076 160.8993 441.0065 162.0333 441.0065 162.6003 441.0065 164.8684 441.0065 166.5695 441.5735 168.2705 441.0065 174.5077 438.1714 179.6109 434.7693 183.013 430.2331 183.58 429.6661 184.147 429.0991 184.147 427.9651 184.147 427.3981 184.7141 426.831 188.1162 426.264 189.2502 426.264 189.8172 425.697 191.5183 423.4289 193.7864 421.7279 197.1885 417.1917 199.4565 416.0577 201.1576 412.6556 202.2916 413.2226 204.5597 415.4907 206.2608 417.1917 209.6629 418.3258 226.1064 414.3566 232.9106 410.9545 235.7457 409.8205 236.3128 409.2535 237.4468 408.6864 237.4468 407.5524 237.4468 405.8513 237.4468 405.2843 234.6117 399.0471 234.6117 397.9131 235.1787 395.078 236.8798 392.8099 243.117 396.779 255.5914 391.1089 260.6946 382.0366 282.2413 370.1292 293.5816 352.5516 308.3241 354.8197 313.4273 360.4898 313.9943 372.3972 320.2315 377.5004 307.7571 394.511 312.8603 413.2226 310.5922 416.6247 302.0869 420.0268 294.7157 414.3566 278.8392 417.7587 272.6019 430.8002 275.437 435.9033 270.3339 441.5735 271.4679 448.9448 266.9318 458.0171 273.169 467.0894 269.1998 481.2648 269.7669 487.502 281.1072 487.502 283.9423 493.1722 290.1795 490.9041 292.4476 500.5435 302.0869 502.2445 Z" id="KP.PN" fill="#cee3f5" stroke="#6e6e6e" stroke-width="0.4">
      <desc>
        <labelrank>6</labelrank>
        <code_hasc>KP.PN</code_hasc>
        <name>P'yŏngan-namdo</name>
        <admin>North Korea</admin>
        <type_en>Province</type_en>
        <region/>
        <woe_id>2345957</woe_id>
        <longitude>126</longitude>
        <woe_name>P'yŏngan-namdo</woe_name>
        <fips>KN10</fips>
        <woe_label>P'yongan-namdo, KP, North Korea</woe_label>
        <latitude>39</latitude>
        <iso_a2>KP</iso_a2>
        <postal>PN</postal>
        <type>Do</type>
        <id>KP.PN</id>
      </desc>
    </path>
    <path d="M 493.7392 130.8473 482.3989 145.0227 475.5946 145.5898 478.4297 159.7652 483.5329 160.3323 482.9659 171.6726 485.234 179.0439 482.9659 184.7141 492.6052 188.1162 496.5743 194.9204 496.5743 198.8895 488.069 211.3639 490.3371 219.8692 498.8424 233.4777 495.4403 240.8489 498.8424 251.6223 497.1413 255.5914 480.1308 244.818 468.2234 244.251 467.0894 253.3233 459.7181 257.2924 455.749 264.6637 441.0065 267.4988 443.2746 278.8392 439.8725 296.9838 435.9033 309.4582 424.563 323.0666 418.8928 325.9017 410.9545 320.7985 401.3152 323.6336 395.645 333.84 378.0674 345.1803 375.7994 337.2421 381.4695 321.3656 373.5313 319.6645 370.6962 308.8911 355.9537 286.7774 366.16 276.0041 363.3249 266.9318 370.1292 264.6637 372.3972 252.1893 371.2632 248.7872 361.0569 245.3851 358.2218 246.5191 354.2526 256.7254 344.0463 256.1584 343.4793 246.5191 340.6442 241.9829 334.974 243.117 327.0357 251.6223 311.7262 245.9521 305.489 232.9106 305.489 228.3745 301.5199 222.7043 297.5508 209.6629 299.2518 205.1267 290.7465 206.8278 288.4785 203.9927 289.0455 196.6214 294.7157 196.6214 302.6539 188.6832 303.221 172.8067 307.1901 165.4354 311.1592 167.7035 314.5613 175.0747 311.7262 175.0747 312.2933 179.6109 324.2006 187.5491 316.8294 193.7864 319.6645 196.0544 324.2006 196.6214 327.0357 193.2193 334.407 194.9204 333.2729 198.3225 336.6751 200.0236 359.9228 200.5906 361.6239 205.1267 369.5621 209.0959 371.8302 206.8278 390.5418 209.0959 393.9439 205.1267 400.1812 203.9927 403.0162 206.8278 405.8513 203.9927 406.9854 211.931 410.3875 210.7969 412.0885 215.3331 416.0577 213.632 416.0577 216.4671 420.0268 217.0341 435.9033 189.8172 430.8002 179.6109 421.7279 172.2396 414.9236 155.2291 410.9545 152.394 408.1194 138.7855 409.8205 135.3834 432.5012 130.2803 455.749 135.3834 461.9862 134.8164 466.5223 130.8473 476.1617 130.8473 477.2957 128.5792 493.7392 130.8473 Z" id="KP.YG" fill="#cee3f5" stroke="#6e6e6e" stroke-width="0.4">
      <desc>
        <labelrank>6</labelrank>
        <code_hasc>KP.YG</code_hasc>
        <name>Ryanggang</name>
        <admin>North Korea</admin>
        <type_en>Province</type_en>
        <region/>
        <woe_id>2345956</woe_id>
        <longitude>127</longitude>
        <woe_name>Ryanggang</woe_name>
        <fips>KN03</fips>
        <woe_label>Yanggang-do, KP, North Korea</woe_label>
        <latitude>40</latitude>
        <iso_a2>KP</iso_a2>
        <postal>YG</postal>
        <type>Do</type>
        <id>KP.YG</id>
      </desc>
    </path>
    <path d="M 631.5248 113.2697 630.3907 114.4037 629.2567 112.7027 630.3907 110.4346 631.5248 113.2697 Z M 623.0195 111.0016 621.8855 103.0634 624.7206 96.8262 629.8237 90.0219 630.3907 84.9188 628.1227 82.0837 628.6897 78.6816 645.1332 73.5784 646.8343 61.104 648.5353 59.9699 648.5353 58.2689 647.4013 56.0008 649.6694 53.1657 653.6385 55.4338 656.4736 67.9082 660.4427 76.4135 666.1129 80.3826 668.381 90.589 671.2161 95.1251 661.5768 98.5272 661.5768 93.9911 653.0715 88.8879 648.5353 89.4549 646.2673 92.857 642.8652 90.589 640.5971 95.1251 642.8652 101.3623 639.463 99.6613 639.463 103.0634 633.2258 109.8676 632.0918 102.4963 623.0195 111.0016 Z" id="KP.NJ" fill="#cee3f5" stroke="#6e6e6e" stroke-width="0.4">
      <desc>
        <labelrank>6</labelrank>
        <code_hasc>KP.NJ</code_hasc>
        <name>Rasŏn</name>
        <admin>North Korea</admin>
        <type_en>Province</type_en>
        <region/>
        <woe_id>2345958</woe_id>
        <longitude>130</longitude>
        <woe_name>Hamgyŏng-bukto</woe_name>
        <fips>KN04</fips>
        <woe_label>Hamgyong-bukto, KP, North Korea</woe_label>
        <latitude>42</latitude>
        <iso_a2>KP</iso_a2>
        <postal>HG</postal>
        <type>Do</type>
        <id>KP.NJ</id>
      </desc>
    </path>
  </g>
</svg>